%TF.GenerationSoftware,KiCad,Pcbnew,5.1.9+dfsg1-1+deb11u1*%
%TF.CreationDate,2022-11-30T10:15:51+01:00*%
%TF.ProjectId,A500MPU-Adapter,41353030-4d50-4552-9d41-646170746572,2.0*%
%TF.SameCoordinates,Original*%
%TF.FileFunction,Other,User*%
%FSLAX46Y46*%
G04 Gerber Fmt 4.6, Leading zero omitted, Abs format (unit mm)*
G04 Created by KiCad (PCBNEW 5.1.9+dfsg1-1+deb11u1) date 2022-11-30 10:15:51*
%MOMM*%
%LPD*%
G01*
G04 APERTURE LIST*
%ADD10C,0.300000*%
G04 APERTURE END LIST*
D10*
X175399428Y-105474285D02*
X175399428Y-106402857D01*
X174828000Y-105902857D01*
X174828000Y-106117142D01*
X174756571Y-106260000D01*
X174685142Y-106331428D01*
X174542285Y-106402857D01*
X174185142Y-106402857D01*
X174042285Y-106331428D01*
X173970857Y-106260000D01*
X173899428Y-106117142D01*
X173899428Y-105688571D01*
X173970857Y-105545714D01*
X174042285Y-105474285D01*
X175399428Y-107331428D02*
X175399428Y-107474285D01*
X175328000Y-107617142D01*
X175256571Y-107688571D01*
X175113714Y-107760000D01*
X174828000Y-107831428D01*
X174470857Y-107831428D01*
X174185142Y-107760000D01*
X174042285Y-107688571D01*
X173970857Y-107617142D01*
X173899428Y-107474285D01*
X173899428Y-107331428D01*
X173970857Y-107188571D01*
X174042285Y-107117142D01*
X174185142Y-107045714D01*
X174470857Y-106974285D01*
X174828000Y-106974285D01*
X175113714Y-107045714D01*
X175256571Y-107117142D01*
X175328000Y-107188571D01*
X175399428Y-107331428D01*
X173970857Y-108545714D02*
X173899428Y-108545714D01*
X173756571Y-108474285D01*
X173685142Y-108402857D01*
X174899428Y-109831428D02*
X173899428Y-109831428D01*
X175470857Y-109474285D02*
X174399428Y-109117142D01*
X174399428Y-110045714D01*
X174756571Y-110831428D02*
X174828000Y-110688571D01*
X174899428Y-110617142D01*
X175042285Y-110545714D01*
X175113714Y-110545714D01*
X175256571Y-110617142D01*
X175328000Y-110688571D01*
X175399428Y-110831428D01*
X175399428Y-111117142D01*
X175328000Y-111260000D01*
X175256571Y-111331428D01*
X175113714Y-111402857D01*
X175042285Y-111402857D01*
X174899428Y-111331428D01*
X174828000Y-111260000D01*
X174756571Y-111117142D01*
X174756571Y-110831428D01*
X174685142Y-110688571D01*
X174613714Y-110617142D01*
X174470857Y-110545714D01*
X174185142Y-110545714D01*
X174042285Y-110617142D01*
X173970857Y-110688571D01*
X173899428Y-110831428D01*
X173899428Y-111117142D01*
X173970857Y-111260000D01*
X174042285Y-111331428D01*
X174185142Y-111402857D01*
X174470857Y-111402857D01*
X174613714Y-111331428D01*
X174685142Y-111260000D01*
X174756571Y-111117142D01*
X175399428Y-112331428D02*
X175399428Y-112474285D01*
X175328000Y-112617142D01*
X175256571Y-112688571D01*
X175113714Y-112760000D01*
X174828000Y-112831428D01*
X174470857Y-112831428D01*
X174185142Y-112760000D01*
X174042285Y-112688571D01*
X173970857Y-112617142D01*
X173899428Y-112474285D01*
X173899428Y-112331428D01*
X173970857Y-112188571D01*
X174042285Y-112117142D01*
X174185142Y-112045714D01*
X174470857Y-111974285D01*
X174828000Y-111974285D01*
X175113714Y-112045714D01*
X175256571Y-112117142D01*
X175328000Y-112188571D01*
X175399428Y-112331428D01*
X173899428Y-114617142D02*
X174899428Y-114617142D01*
X174756571Y-114617142D02*
X174828000Y-114688571D01*
X174899428Y-114831428D01*
X174899428Y-115045714D01*
X174828000Y-115188571D01*
X174685142Y-115260000D01*
X173899428Y-115260000D01*
X174685142Y-115260000D02*
X174828000Y-115331428D01*
X174899428Y-115474285D01*
X174899428Y-115688571D01*
X174828000Y-115831428D01*
X174685142Y-115902857D01*
X173899428Y-115902857D01*
X173899428Y-116617142D02*
X174899428Y-116617142D01*
X174756571Y-116617142D02*
X174828000Y-116688571D01*
X174899428Y-116831428D01*
X174899428Y-117045714D01*
X174828000Y-117188571D01*
X174685142Y-117260000D01*
X173899428Y-117260000D01*
X174685142Y-117260000D02*
X174828000Y-117331428D01*
X174899428Y-117474285D01*
X174899428Y-117688571D01*
X174828000Y-117831428D01*
X174685142Y-117902857D01*
X173899428Y-117902857D01*
X173228000Y-96520000D02*
X173228000Y-127000000D01*
X168910000Y-96520000D02*
X175928000Y-96520000D01*
X168910000Y-127000000D02*
X175928000Y-127000000D01*
X173228000Y-127000000D02*
X172641579Y-125873496D01*
X173228000Y-127000000D02*
X173814421Y-125873496D01*
X173228000Y-96520000D02*
X172641579Y-97646504D01*
X173228000Y-96520000D02*
X173814421Y-97646504D01*
X150630714Y-91697428D02*
X150702142Y-91626000D01*
X150845000Y-91554571D01*
X151202142Y-91554571D01*
X151345000Y-91626000D01*
X151416428Y-91697428D01*
X151487857Y-91840285D01*
X151487857Y-91983142D01*
X151416428Y-92197428D01*
X150559285Y-93054571D01*
X151487857Y-93054571D01*
X152773571Y-92054571D02*
X152773571Y-93054571D01*
X152416428Y-91483142D02*
X152059285Y-92554571D01*
X152987857Y-92554571D01*
X153630714Y-92983142D02*
X153630714Y-93054571D01*
X153559285Y-93197428D01*
X153487857Y-93268857D01*
X155059285Y-93054571D02*
X154202142Y-93054571D01*
X154630714Y-93054571D02*
X154630714Y-91554571D01*
X154487857Y-91768857D01*
X154345000Y-91911714D01*
X154202142Y-91983142D01*
X155559285Y-91554571D02*
X156487857Y-91554571D01*
X155987857Y-92126000D01*
X156202142Y-92126000D01*
X156345000Y-92197428D01*
X156416428Y-92268857D01*
X156487857Y-92411714D01*
X156487857Y-92768857D01*
X156416428Y-92911714D01*
X156345000Y-92983142D01*
X156202142Y-93054571D01*
X155773571Y-93054571D01*
X155630714Y-92983142D01*
X155559285Y-92911714D01*
X157416428Y-91554571D02*
X157559285Y-91554571D01*
X157702142Y-91626000D01*
X157773571Y-91697428D01*
X157845000Y-91840285D01*
X157916428Y-92126000D01*
X157916428Y-92483142D01*
X157845000Y-92768857D01*
X157773571Y-92911714D01*
X157702142Y-92983142D01*
X157559285Y-93054571D01*
X157416428Y-93054571D01*
X157273571Y-92983142D01*
X157202142Y-92911714D01*
X157130714Y-92768857D01*
X157059285Y-92483142D01*
X157059285Y-92126000D01*
X157130714Y-91840285D01*
X157202142Y-91697428D01*
X157273571Y-91626000D01*
X157416428Y-91554571D01*
X159702142Y-93054571D02*
X159702142Y-92054571D01*
X159702142Y-92197428D02*
X159773571Y-92126000D01*
X159916428Y-92054571D01*
X160130714Y-92054571D01*
X160273571Y-92126000D01*
X160345000Y-92268857D01*
X160345000Y-93054571D01*
X160345000Y-92268857D02*
X160416428Y-92126000D01*
X160559285Y-92054571D01*
X160773571Y-92054571D01*
X160916428Y-92126000D01*
X160987857Y-92268857D01*
X160987857Y-93054571D01*
X161702142Y-93054571D02*
X161702142Y-92054571D01*
X161702142Y-92197428D02*
X161773571Y-92126000D01*
X161916428Y-92054571D01*
X162130714Y-92054571D01*
X162273571Y-92126000D01*
X162345000Y-92268857D01*
X162345000Y-93054571D01*
X162345000Y-92268857D02*
X162416428Y-92126000D01*
X162559285Y-92054571D01*
X162773571Y-92054571D01*
X162916428Y-92126000D01*
X162987857Y-92268857D01*
X162987857Y-93054571D01*
X144780000Y-93726000D02*
X168910000Y-93726000D01*
X144780000Y-96520000D02*
X144780000Y-91026000D01*
X168910000Y-96520000D02*
X168910000Y-91026000D01*
X168910000Y-93726000D02*
X167783496Y-94312421D01*
X168910000Y-93726000D02*
X167783496Y-93139579D01*
X144780000Y-93726000D02*
X145906504Y-94312421D01*
X144780000Y-93726000D02*
X145906504Y-93139579D01*
M02*
