M48
;DRILL file {KiCad 4.0.2+dfsg1-stable} date Fri 01 Mar 2019 15:28:14 CET
;FORMAT={-:-/ absolute / metric / decimal}
FMAT,2
METRIC,TZ
T1C0.400
T2C1.016
%
G90
G05
M71
T1
X145.796Y-113.792
X146.685Y-109.855
X151.384Y-122.682
X152.908Y-103.505
X152.908Y-111.252
X156.591Y-101.219
X156.591Y-107.442
X157.734Y-105.791
X158.877Y-116.84
X159.258Y-110.998
X159.766Y-105.537
X160.655Y-104.775
X160.655Y-114.681
X161.29Y-101.092
X161.29Y-108.712
X164.465Y-108.585
X165.608Y-117.094
X166.243Y-108.458
X168.275Y-101.854
T2
X147.32Y-99.06
X147.32Y-119.38
X147.32Y-124.46
X149.86Y-99.06
X149.86Y-119.38
X149.86Y-124.46
X152.4Y-99.06
X152.4Y-124.46
X154.94Y-99.06
X154.94Y-109.22
X154.94Y-111.76
X154.94Y-114.3
X154.94Y-124.46
X157.48Y-99.06
X157.48Y-109.22
X157.48Y-111.76
X157.48Y-114.3
X157.48Y-124.46
X160.02Y-99.06
X160.02Y-124.46
X162.56Y-99.06
X162.56Y-119.38
X162.56Y-124.46
X165.1Y-99.06
X165.1Y-119.38
X165.1Y-124.46
T0
M30
