%TF.GenerationSoftware,KiCad,Pcbnew,4.0.2+dfsg1-stable*%
%TF.CreationDate,2018-12-23T01:36:30+01:00*%
%TF.ProjectId,A500MPU-Adapter,413530304D50552D416461707465722E,rev?*%
%TF.FileFunction,Legend,Top*%
%FSLAX46Y46*%
G04 Gerber Fmt 4.6, Leading zero omitted, Abs format (unit mm)*
G04 Created by KiCad (PCBNEW 4.0.2+dfsg1-stable) date Sun 23 Dec 2018 01:36:30 CET*
%MOMM*%
G01*
G04 APERTURE LIST*
%ADD10C,0.100000*%
%ADD11C,0.170000*%
%ADD12C,0.150000*%
G04 APERTURE END LIST*
D10*
D11*
X148908476Y-122490667D02*
X148908476Y-121790667D01*
X149241810Y-122290667D01*
X149575143Y-121790667D01*
X149575143Y-122490667D01*
X150051333Y-122490667D02*
X150051333Y-121790667D01*
X150432286Y-121790667D01*
X150527524Y-121824000D01*
X150575143Y-121857333D01*
X150622762Y-121924000D01*
X150622762Y-122024000D01*
X150575143Y-122090667D01*
X150527524Y-122124000D01*
X150432286Y-122157333D01*
X150051333Y-122157333D01*
X151051333Y-121790667D02*
X151051333Y-122357333D01*
X151098952Y-122424000D01*
X151146571Y-122457333D01*
X151241809Y-122490667D01*
X151432286Y-122490667D01*
X151527524Y-122457333D01*
X151575143Y-122424000D01*
X151622762Y-122357333D01*
X151622762Y-121790667D01*
X152860857Y-122490667D02*
X152860857Y-121790667D01*
X153432286Y-122490667D02*
X153003714Y-122090667D01*
X153432286Y-121790667D02*
X152860857Y-122190667D01*
X153860857Y-122124000D02*
X154194191Y-122124000D01*
X154337048Y-122490667D02*
X153860857Y-122490667D01*
X153860857Y-121790667D01*
X154337048Y-121790667D01*
X154956095Y-122157333D02*
X154956095Y-122490667D01*
X154622762Y-121790667D02*
X154956095Y-122157333D01*
X155289429Y-121790667D01*
X155956096Y-122124000D02*
X156098953Y-122157333D01*
X156146572Y-122190667D01*
X156194191Y-122257333D01*
X156194191Y-122357333D01*
X156146572Y-122424000D01*
X156098953Y-122457333D01*
X156003715Y-122490667D01*
X155622762Y-122490667D01*
X155622762Y-121790667D01*
X155956096Y-121790667D01*
X156051334Y-121824000D01*
X156098953Y-121857333D01*
X156146572Y-121924000D01*
X156146572Y-121990667D01*
X156098953Y-122057333D01*
X156051334Y-122090667D01*
X155956096Y-122124000D01*
X155622762Y-122124000D01*
X156813238Y-121790667D02*
X157003715Y-121790667D01*
X157098953Y-121824000D01*
X157194191Y-121890667D01*
X157241810Y-122024000D01*
X157241810Y-122257333D01*
X157194191Y-122390667D01*
X157098953Y-122457333D01*
X157003715Y-122490667D01*
X156813238Y-122490667D01*
X156718000Y-122457333D01*
X156622762Y-122390667D01*
X156575143Y-122257333D01*
X156575143Y-122024000D01*
X156622762Y-121890667D01*
X156718000Y-121824000D01*
X156813238Y-121790667D01*
X157622762Y-122290667D02*
X158098953Y-122290667D01*
X157527524Y-122490667D02*
X157860857Y-121790667D01*
X158194191Y-122490667D01*
X159098953Y-122490667D02*
X158765619Y-122157333D01*
X158527524Y-122490667D02*
X158527524Y-121790667D01*
X158908477Y-121790667D01*
X159003715Y-121824000D01*
X159051334Y-121857333D01*
X159098953Y-121924000D01*
X159098953Y-122024000D01*
X159051334Y-122090667D01*
X159003715Y-122124000D01*
X158908477Y-122157333D01*
X158527524Y-122157333D01*
X159527524Y-122490667D02*
X159527524Y-121790667D01*
X159765619Y-121790667D01*
X159908477Y-121824000D01*
X160003715Y-121890667D01*
X160051334Y-121957333D01*
X160098953Y-122090667D01*
X160098953Y-122190667D01*
X160051334Y-122324000D01*
X160003715Y-122390667D01*
X159908477Y-122457333D01*
X159765619Y-122490667D01*
X159527524Y-122490667D01*
X161241810Y-122290667D02*
X161718001Y-122290667D01*
X161146572Y-122490667D02*
X161479905Y-121790667D01*
X161813239Y-122490667D01*
X162622763Y-121790667D02*
X162146572Y-121790667D01*
X162098953Y-122124000D01*
X162146572Y-122090667D01*
X162241810Y-122057333D01*
X162479906Y-122057333D01*
X162575144Y-122090667D01*
X162622763Y-122124000D01*
X162670382Y-122190667D01*
X162670382Y-122357333D01*
X162622763Y-122424000D01*
X162575144Y-122457333D01*
X162479906Y-122490667D01*
X162241810Y-122490667D01*
X162146572Y-122457333D01*
X162098953Y-122424000D01*
X163289429Y-121790667D02*
X163384668Y-121790667D01*
X163479906Y-121824000D01*
X163527525Y-121857333D01*
X163575144Y-121924000D01*
X163622763Y-122057333D01*
X163622763Y-122224000D01*
X163575144Y-122357333D01*
X163527525Y-122424000D01*
X163479906Y-122457333D01*
X163384668Y-122490667D01*
X163289429Y-122490667D01*
X163194191Y-122457333D01*
X163146572Y-122424000D01*
X163098953Y-122357333D01*
X163051334Y-122224000D01*
X163051334Y-122057333D01*
X163098953Y-121924000D01*
X163146572Y-121857333D01*
X163194191Y-121824000D01*
X163289429Y-121790667D01*
X164241810Y-121790667D02*
X164337049Y-121790667D01*
X164432287Y-121824000D01*
X164479906Y-121857333D01*
X164527525Y-121924000D01*
X164575144Y-122057333D01*
X164575144Y-122224000D01*
X164527525Y-122357333D01*
X164479906Y-122424000D01*
X164432287Y-122457333D01*
X164337049Y-122490667D01*
X164241810Y-122490667D01*
X164146572Y-122457333D01*
X164098953Y-122424000D01*
X164051334Y-122357333D01*
X164003715Y-122224000D01*
X164003715Y-122057333D01*
X164051334Y-121924000D01*
X164098953Y-121857333D01*
X164146572Y-121824000D01*
X164241810Y-121790667D01*
D12*
X149590000Y-113089000D02*
X147590000Y-113089000D01*
X147590000Y-110939000D02*
X149590000Y-110939000D01*
X153670000Y-110490000D02*
X153670000Y-115570000D01*
X153390000Y-107670000D02*
X154940000Y-107670000D01*
X156210000Y-107950000D02*
X156210000Y-110490000D01*
X156210000Y-110490000D02*
X153670000Y-110490000D01*
X153670000Y-115570000D02*
X158750000Y-115570000D01*
X158750000Y-115570000D02*
X158750000Y-110490000D01*
X153390000Y-107670000D02*
X153390000Y-109220000D01*
X158750000Y-107950000D02*
X156210000Y-107950000D01*
X158750000Y-110490000D02*
X158750000Y-107950000D01*
X150352000Y-107755000D02*
X148352000Y-107755000D01*
X148352000Y-105605000D02*
X150352000Y-105605000D01*
X165338000Y-107755000D02*
X163338000Y-107755000D01*
X163338000Y-105605000D02*
X165338000Y-105605000D01*
X153908000Y-103945000D02*
X151908000Y-103945000D01*
X151908000Y-101795000D02*
X153908000Y-101795000D01*
X163846000Y-110939000D02*
X165846000Y-110939000D01*
X165846000Y-113089000D02*
X163846000Y-113089000D01*
X163830000Y-120650000D02*
X161290000Y-120650000D01*
X166650000Y-120930000D02*
X165100000Y-120930000D01*
X163830000Y-120650000D02*
X163830000Y-118110000D01*
X165100000Y-117830000D02*
X166650000Y-117830000D01*
X166650000Y-117830000D02*
X166650000Y-120930000D01*
X163830000Y-118110000D02*
X161290000Y-118110000D01*
X161290000Y-118110000D02*
X161290000Y-120650000D01*
X148590000Y-118110000D02*
X151130000Y-118110000D01*
X145770000Y-117830000D02*
X147320000Y-117830000D01*
X148590000Y-118110000D02*
X148590000Y-120650000D01*
X147320000Y-120930000D02*
X145770000Y-120930000D01*
X145770000Y-120930000D02*
X145770000Y-117830000D01*
X148590000Y-120650000D02*
X151130000Y-120650000D01*
X151130000Y-120650000D02*
X151130000Y-118110000D01*
X148590000Y-123190000D02*
X166370000Y-123190000D01*
X166370000Y-123190000D02*
X166370000Y-125730000D01*
X166370000Y-125730000D02*
X148590000Y-125730000D01*
X145770000Y-122910000D02*
X147320000Y-122910000D01*
X148590000Y-123190000D02*
X148590000Y-125730000D01*
X147320000Y-126010000D02*
X145770000Y-126010000D01*
X145770000Y-126010000D02*
X145770000Y-122910000D01*
X156718000Y-101727000D02*
X156464000Y-101727000D01*
X156464000Y-101727000D02*
X156464000Y-104013000D01*
X156464000Y-104013000D02*
X156718000Y-104013000D01*
X156718000Y-101727000D02*
X156718000Y-104013000D01*
X156718000Y-104013000D02*
X158369000Y-104013000D01*
X160147000Y-101727000D02*
X161798000Y-101727000D01*
X161798000Y-101727000D02*
X161798000Y-104013000D01*
X161798000Y-104013000D02*
X160147000Y-104013000D01*
X158369000Y-101727000D02*
X156718000Y-101727000D01*
X167386000Y-116459000D02*
X167640000Y-116459000D01*
X167640000Y-116459000D02*
X167640000Y-114173000D01*
X167640000Y-114173000D02*
X167386000Y-114173000D01*
X167386000Y-116459000D02*
X167386000Y-114173000D01*
X167386000Y-114173000D02*
X165735000Y-114173000D01*
X163957000Y-116459000D02*
X162306000Y-116459000D01*
X162306000Y-116459000D02*
X162306000Y-114173000D01*
X162306000Y-114173000D02*
X163957000Y-114173000D01*
X165735000Y-116459000D02*
X167386000Y-116459000D01*
X150876000Y-116459000D02*
X151130000Y-116459000D01*
X151130000Y-116459000D02*
X151130000Y-114173000D01*
X151130000Y-114173000D02*
X150876000Y-114173000D01*
X150876000Y-116459000D02*
X150876000Y-114173000D01*
X150876000Y-114173000D02*
X149225000Y-114173000D01*
X147447000Y-116459000D02*
X145796000Y-116459000D01*
X145796000Y-116459000D02*
X145796000Y-114173000D01*
X145796000Y-114173000D02*
X147447000Y-114173000D01*
X149225000Y-116459000D02*
X150876000Y-116459000D01*
X148423334Y-110166381D02*
X148090000Y-109690190D01*
X147851905Y-110166381D02*
X147851905Y-109166381D01*
X148232858Y-109166381D01*
X148328096Y-109214000D01*
X148375715Y-109261619D01*
X148423334Y-109356857D01*
X148423334Y-109499714D01*
X148375715Y-109594952D01*
X148328096Y-109642571D01*
X148232858Y-109690190D01*
X147851905Y-109690190D01*
X149375715Y-110166381D02*
X148804286Y-110166381D01*
X149090000Y-110166381D02*
X149090000Y-109166381D01*
X148994762Y-109309238D01*
X148899524Y-109404476D01*
X148804286Y-109452095D01*
X155725905Y-107005381D02*
X155725905Y-106005381D01*
X156106858Y-106005381D01*
X156202096Y-106053000D01*
X156249715Y-106100619D01*
X156297334Y-106195857D01*
X156297334Y-106338714D01*
X156249715Y-106433952D01*
X156202096Y-106481571D01*
X156106858Y-106529190D01*
X155725905Y-106529190D01*
X156630667Y-106005381D02*
X157249715Y-106005381D01*
X156916381Y-106386333D01*
X157059239Y-106386333D01*
X157154477Y-106433952D01*
X157202096Y-106481571D01*
X157249715Y-106576810D01*
X157249715Y-106814905D01*
X157202096Y-106910143D01*
X157154477Y-106957762D01*
X157059239Y-107005381D01*
X156773524Y-107005381D01*
X156678286Y-106957762D01*
X156630667Y-106910143D01*
X146137334Y-105227381D02*
X145804000Y-104751190D01*
X145565905Y-105227381D02*
X145565905Y-104227381D01*
X145946858Y-104227381D01*
X146042096Y-104275000D01*
X146089715Y-104322619D01*
X146137334Y-104417857D01*
X146137334Y-104560714D01*
X146089715Y-104655952D01*
X146042096Y-104703571D01*
X145946858Y-104751190D01*
X145565905Y-104751190D01*
X147042096Y-104227381D02*
X146565905Y-104227381D01*
X146518286Y-104703571D01*
X146565905Y-104655952D01*
X146661143Y-104608333D01*
X146899239Y-104608333D01*
X146994477Y-104655952D01*
X147042096Y-104703571D01*
X147089715Y-104798810D01*
X147089715Y-105036905D01*
X147042096Y-105132143D01*
X146994477Y-105179762D01*
X146899239Y-105227381D01*
X146661143Y-105227381D01*
X146565905Y-105179762D01*
X146518286Y-105132143D01*
X164171334Y-104832381D02*
X163838000Y-104356190D01*
X163599905Y-104832381D02*
X163599905Y-103832381D01*
X163980858Y-103832381D01*
X164076096Y-103880000D01*
X164123715Y-103927619D01*
X164171334Y-104022857D01*
X164171334Y-104165714D01*
X164123715Y-104260952D01*
X164076096Y-104308571D01*
X163980858Y-104356190D01*
X163599905Y-104356190D01*
X165028477Y-104165714D02*
X165028477Y-104832381D01*
X164790381Y-103784762D02*
X164552286Y-104499048D01*
X165171334Y-104499048D01*
X148042334Y-103195381D02*
X147709000Y-102719190D01*
X147470905Y-103195381D02*
X147470905Y-102195381D01*
X147851858Y-102195381D01*
X147947096Y-102243000D01*
X147994715Y-102290619D01*
X148042334Y-102385857D01*
X148042334Y-102528714D01*
X147994715Y-102623952D01*
X147947096Y-102671571D01*
X147851858Y-102719190D01*
X147470905Y-102719190D01*
X148375667Y-102195381D02*
X148994715Y-102195381D01*
X148661381Y-102576333D01*
X148804239Y-102576333D01*
X148899477Y-102623952D01*
X148947096Y-102671571D01*
X148994715Y-102766810D01*
X148994715Y-103004905D01*
X148947096Y-103100143D01*
X148899477Y-103147762D01*
X148804239Y-103195381D01*
X148518524Y-103195381D01*
X148423286Y-103147762D01*
X148375667Y-103100143D01*
X164552334Y-110180381D02*
X164219000Y-109704190D01*
X163980905Y-110180381D02*
X163980905Y-109180381D01*
X164361858Y-109180381D01*
X164457096Y-109228000D01*
X164504715Y-109275619D01*
X164552334Y-109370857D01*
X164552334Y-109513714D01*
X164504715Y-109608952D01*
X164457096Y-109656571D01*
X164361858Y-109704190D01*
X163980905Y-109704190D01*
X164933286Y-109275619D02*
X164980905Y-109228000D01*
X165076143Y-109180381D01*
X165314239Y-109180381D01*
X165409477Y-109228000D01*
X165457096Y-109275619D01*
X165504715Y-109370857D01*
X165504715Y-109466095D01*
X165457096Y-109608952D01*
X164885667Y-110180381D01*
X165504715Y-110180381D01*
X159027905Y-119832381D02*
X159027905Y-118832381D01*
X159408858Y-118832381D01*
X159504096Y-118880000D01*
X159551715Y-118927619D01*
X159599334Y-119022857D01*
X159599334Y-119165714D01*
X159551715Y-119260952D01*
X159504096Y-119308571D01*
X159408858Y-119356190D01*
X159027905Y-119356190D01*
X160504096Y-118832381D02*
X160027905Y-118832381D01*
X159980286Y-119308571D01*
X160027905Y-119260952D01*
X160123143Y-119213333D01*
X160361239Y-119213333D01*
X160456477Y-119260952D01*
X160504096Y-119308571D01*
X160551715Y-119403810D01*
X160551715Y-119641905D01*
X160504096Y-119737143D01*
X160456477Y-119784762D01*
X160361239Y-119832381D01*
X160123143Y-119832381D01*
X160027905Y-119784762D01*
X159980286Y-119737143D01*
X151915905Y-119832381D02*
X151915905Y-118832381D01*
X152296858Y-118832381D01*
X152392096Y-118880000D01*
X152439715Y-118927619D01*
X152487334Y-119022857D01*
X152487334Y-119165714D01*
X152439715Y-119260952D01*
X152392096Y-119308571D01*
X152296858Y-119356190D01*
X151915905Y-119356190D01*
X153344477Y-119165714D02*
X153344477Y-119832381D01*
X153106381Y-118784762D02*
X152868286Y-119499048D01*
X153487334Y-119499048D01*
X167028905Y-126309381D02*
X167028905Y-125309381D01*
X167409858Y-125309381D01*
X167505096Y-125357000D01*
X167552715Y-125404619D01*
X167600334Y-125499857D01*
X167600334Y-125642714D01*
X167552715Y-125737952D01*
X167505096Y-125785571D01*
X167409858Y-125833190D01*
X167028905Y-125833190D01*
X168552715Y-126309381D02*
X167981286Y-126309381D01*
X168267000Y-126309381D02*
X168267000Y-125309381D01*
X168171762Y-125452238D01*
X168076524Y-125547476D01*
X167981286Y-125595095D01*
X158646905Y-105481381D02*
X158646905Y-104481381D01*
X158885000Y-104481381D01*
X159027858Y-104529000D01*
X159123096Y-104624238D01*
X159170715Y-104719476D01*
X159218334Y-104909952D01*
X159218334Y-105052810D01*
X159170715Y-105243286D01*
X159123096Y-105338524D01*
X159027858Y-105433762D01*
X158885000Y-105481381D01*
X158646905Y-105481381D01*
X159551667Y-104481381D02*
X160170715Y-104481381D01*
X159837381Y-104862333D01*
X159980239Y-104862333D01*
X160075477Y-104909952D01*
X160123096Y-104957571D01*
X160170715Y-105052810D01*
X160170715Y-105290905D01*
X160123096Y-105386143D01*
X160075477Y-105433762D01*
X159980239Y-105481381D01*
X159694524Y-105481381D01*
X159599286Y-105433762D01*
X159551667Y-105386143D01*
X160043905Y-116911381D02*
X160043905Y-115911381D01*
X160282000Y-115911381D01*
X160424858Y-115959000D01*
X160520096Y-116054238D01*
X160567715Y-116149476D01*
X160615334Y-116339952D01*
X160615334Y-116482810D01*
X160567715Y-116673286D01*
X160520096Y-116768524D01*
X160424858Y-116863762D01*
X160282000Y-116911381D01*
X160043905Y-116911381D01*
X160996286Y-116006619D02*
X161043905Y-115959000D01*
X161139143Y-115911381D01*
X161377239Y-115911381D01*
X161472477Y-115959000D01*
X161520096Y-116006619D01*
X161567715Y-116101857D01*
X161567715Y-116197095D01*
X161520096Y-116339952D01*
X160948667Y-116911381D01*
X161567715Y-116911381D01*
X151534905Y-116022381D02*
X151534905Y-115022381D01*
X151773000Y-115022381D01*
X151915858Y-115070000D01*
X152011096Y-115165238D01*
X152058715Y-115260476D01*
X152106334Y-115450952D01*
X152106334Y-115593810D01*
X152058715Y-115784286D01*
X152011096Y-115879524D01*
X151915858Y-115974762D01*
X151773000Y-116022381D01*
X151534905Y-116022381D01*
X153058715Y-116022381D02*
X152487286Y-116022381D01*
X152773000Y-116022381D02*
X152773000Y-115022381D01*
X152677762Y-115165238D01*
X152582524Y-115260476D01*
X152487286Y-115308095D01*
M02*
