%TF.GenerationSoftware,KiCad,Pcbnew,5.1.9+dfsg1-1+deb11u1*%
%TF.CreationDate,2022-11-30T10:15:51+01:00*%
%TF.ProjectId,A500MPU-Adapter,41353030-4d50-4552-9d41-646170746572,2.0*%
%TF.SameCoordinates,Original*%
%TF.FileFunction,Copper,L2,Bot*%
%TF.FilePolarity,Positive*%
%FSLAX46Y46*%
G04 Gerber Fmt 4.6, Leading zero omitted, Abs format (unit mm)*
G04 Created by KiCad (PCBNEW 5.1.9+dfsg1-1+deb11u1) date 2022-11-30 10:15:51*
%MOMM*%
%LPD*%
G01*
G04 APERTURE LIST*
%TA.AperFunction,ComponentPad*%
%ADD10R,1.700000X1.700000*%
%TD*%
%TA.AperFunction,ComponentPad*%
%ADD11O,1.700000X1.700000*%
%TD*%
%TA.AperFunction,ComponentPad*%
%ADD12C,1.700000*%
%TD*%
%TA.AperFunction,Conductor*%
%ADD13C,0.250000*%
%TD*%
%TA.AperFunction,Conductor*%
%ADD14C,0.254000*%
%TD*%
%TA.AperFunction,Conductor*%
%ADD15C,0.100000*%
%TD*%
G04 APERTURE END LIST*
D10*
%TO.P,P1,1*%
%TO.N,CLOCK*%
X148100000Y-124600000D03*
D11*
%TO.P,P1,2*%
%TO.N,DATA*%
X150640000Y-124600000D03*
%TO.P,P1,3*%
%TO.N,RESET*%
X153180000Y-124600000D03*
%TO.P,P1,4*%
%TO.N,INUSE*%
X155720000Y-124600000D03*
%TO.P,P1,5*%
%TO.N,Net-(P1-Pad5)*%
X158260000Y-124600000D03*
%TO.P,P1,6*%
%TO.N,GND*%
X160800000Y-124600000D03*
%TO.P,P1,7*%
%TO.N,STATUS*%
X163340000Y-124600000D03*
%TO.P,P1,8*%
%TO.N,INUSE*%
X165880000Y-124600000D03*
%TD*%
D10*
%TO.P,P2,1*%
%TO.N,CLOCK*%
X148100000Y-98700000D03*
D11*
%TO.P,P2,2*%
%TO.N,DATA*%
X150640000Y-98700000D03*
%TO.P,P2,3*%
%TO.N,RESET*%
X153180000Y-98700000D03*
%TO.P,P2,4*%
%TO.N,INUSE*%
X155720000Y-98700000D03*
%TO.P,P2,5*%
%TO.N,Net-(P2-Pad5)*%
X158260000Y-98700000D03*
%TO.P,P2,6*%
%TO.N,GND*%
X160800000Y-98700000D03*
%TO.P,P2,7*%
%TO.N,STATUS*%
X163340000Y-98700000D03*
%TO.P,P2,8*%
%TO.N,INUSE*%
X165880000Y-98700000D03*
%TD*%
%TO.P,P3,1*%
%TO.N,CLOCK*%
%TA.AperFunction,ComponentPad*%
G36*
G01*
X154550000Y-108700000D02*
X154550000Y-107500000D01*
G75*
G02*
X154800000Y-107250000I250000J0D01*
G01*
X156000000Y-107250000D01*
G75*
G02*
X156250000Y-107500000I0J-250000D01*
G01*
X156250000Y-108700000D01*
G75*
G02*
X156000000Y-108950000I-250000J0D01*
G01*
X154800000Y-108950000D01*
G75*
G02*
X154550000Y-108700000I0J250000D01*
G01*
G37*
%TD.AperFunction*%
D12*
%TO.P,P3,3*%
%TO.N,GND*%
X155400000Y-110640000D03*
%TO.P,P3,5*%
%TO.N,RESET*%
X155400000Y-113180000D03*
%TO.P,P3,2*%
%TO.N,DATA*%
X157940000Y-108100000D03*
%TO.P,P3,4*%
%TO.N,GND*%
X157940000Y-110640000D03*
%TO.P,P3,6*%
%TO.N,INUSE*%
X157940000Y-113180000D03*
%TD*%
D10*
%TO.P,P4,1*%
%TO.N,Net-(P4-Pad1)*%
X149300000Y-106600000D03*
D11*
%TO.P,P4,2*%
%TO.N,GND*%
X146760000Y-106600000D03*
%TD*%
%TO.P,P5,2*%
%TO.N,GND*%
X146760000Y-113200000D03*
D10*
%TO.P,P5,1*%
%TO.N,Net-(P5-Pad1)*%
X149300000Y-113200000D03*
%TD*%
D13*
%TO.N,GND*%
X146760000Y-106600000D02*
X146760000Y-107775100D01*
X149664000Y-110640000D02*
X147935100Y-112368900D01*
X147935100Y-112368900D02*
X147935100Y-113200000D01*
X155400000Y-110640000D02*
X149664000Y-110640000D01*
X149664000Y-110640000D02*
X146799100Y-107775100D01*
X146799100Y-107775100D02*
X146760000Y-107775100D01*
X146760000Y-113200000D02*
X147935100Y-113200000D01*
X157940000Y-110640000D02*
X155400000Y-110640000D01*
%TO.N,CLOCK*%
X148100000Y-98700000D02*
X148100000Y-99875100D01*
X155400000Y-108100000D02*
X155400000Y-107175100D01*
X155400000Y-107175100D02*
X148100000Y-99875100D01*
%TO.N,DATA*%
X150640000Y-98700000D02*
X150640000Y-100800000D01*
X150640000Y-100800000D02*
X157940000Y-108100000D01*
%TO.N,RESET*%
X153180000Y-123424900D02*
X155400000Y-121204900D01*
X155400000Y-121204900D02*
X155400000Y-113180000D01*
X153180000Y-124600000D02*
X153180000Y-123424900D01*
X153180000Y-99875100D02*
X153180000Y-98700000D01*
X159400000Y-106095100D02*
X153180000Y-99875100D01*
X159400000Y-111200000D02*
X159400000Y-106095100D01*
X158690000Y-111910000D02*
X159400000Y-111200000D01*
X156670000Y-111910000D02*
X158690000Y-111910000D01*
X155400000Y-113180000D02*
X156670000Y-111910000D01*
%TO.N,STATUS*%
X163340000Y-98700000D02*
X163340000Y-124600000D01*
%TO.N,INUSE*%
X165880000Y-124600000D02*
X164704900Y-124600000D01*
X155720000Y-124600000D02*
X156895100Y-124600000D01*
X156895100Y-124600000D02*
X156895100Y-124967200D01*
X156895100Y-124967200D02*
X157710000Y-125782100D01*
X157710000Y-125782100D02*
X163888000Y-125782100D01*
X163888000Y-125782100D02*
X164704900Y-124965200D01*
X164704900Y-124965200D02*
X164704900Y-124600000D01*
X155720000Y-98700000D02*
X156895100Y-98700000D01*
X165880000Y-98700000D02*
X164704900Y-98700000D01*
X164704900Y-98700000D02*
X164704900Y-98332800D01*
X164704900Y-98332800D02*
X163887900Y-97515800D01*
X163887900Y-97515800D02*
X157714000Y-97515800D01*
X157714000Y-97515800D02*
X156895100Y-98334700D01*
X156895100Y-98334700D02*
X156895100Y-98700000D01*
%TD*%
D14*
%TO.N,GND*%
X147005820Y-97260498D02*
X146895506Y-97319463D01*
X146798815Y-97398815D01*
X146719463Y-97495506D01*
X146660498Y-97605820D01*
X146624188Y-97725518D01*
X146611928Y-97850000D01*
X146611928Y-99550000D01*
X146624188Y-99674482D01*
X146660498Y-99794180D01*
X146719463Y-99904494D01*
X146798815Y-100001185D01*
X146895506Y-100080537D01*
X147005820Y-100139502D01*
X147125518Y-100175812D01*
X147250000Y-100188072D01*
X147405532Y-100188072D01*
X147465026Y-100299376D01*
X147527684Y-100375724D01*
X147560000Y-100415101D01*
X147588998Y-100438899D01*
X154104469Y-106954371D01*
X154061595Y-107006614D01*
X153979528Y-107160150D01*
X153928992Y-107326746D01*
X153911928Y-107500000D01*
X153911928Y-108700000D01*
X153928992Y-108873254D01*
X153979528Y-109039850D01*
X154061595Y-109193386D01*
X154172038Y-109327962D01*
X154306614Y-109438405D01*
X154460150Y-109520472D01*
X154569293Y-109553580D01*
X154551208Y-109611603D01*
X155400000Y-110460395D01*
X156248792Y-109611603D01*
X156230707Y-109553580D01*
X156339850Y-109520472D01*
X156493386Y-109438405D01*
X156627962Y-109327962D01*
X156738405Y-109193386D01*
X156806285Y-109066392D01*
X156993368Y-109253475D01*
X157166729Y-109369311D01*
X157091208Y-109611603D01*
X157940000Y-110460395D01*
X157954143Y-110446253D01*
X158133748Y-110625858D01*
X158119605Y-110640000D01*
X158133748Y-110654143D01*
X157954143Y-110833748D01*
X157940000Y-110819605D01*
X157925858Y-110833748D01*
X157746253Y-110654143D01*
X157760395Y-110640000D01*
X156911603Y-109791208D01*
X156670000Y-109866514D01*
X156428397Y-109791208D01*
X155579605Y-110640000D01*
X155593748Y-110654143D01*
X155414143Y-110833748D01*
X155400000Y-110819605D01*
X154551208Y-111668397D01*
X154626729Y-111910689D01*
X154453368Y-112026525D01*
X154246525Y-112233368D01*
X154084010Y-112476589D01*
X153972068Y-112746842D01*
X153915000Y-113033740D01*
X153915000Y-113326260D01*
X153972068Y-113613158D01*
X154084010Y-113883411D01*
X154246525Y-114126632D01*
X154453368Y-114333475D01*
X154640001Y-114458179D01*
X154640000Y-120890098D01*
X152668998Y-122861101D01*
X152640000Y-122884899D01*
X152616202Y-122913897D01*
X152616201Y-122913898D01*
X152545026Y-123000624D01*
X152474454Y-123132654D01*
X152453063Y-123203175D01*
X152430998Y-123275914D01*
X152426933Y-123317189D01*
X152233368Y-123446525D01*
X152026525Y-123653368D01*
X151910000Y-123827760D01*
X151793475Y-123653368D01*
X151586632Y-123446525D01*
X151343411Y-123284010D01*
X151073158Y-123172068D01*
X150786260Y-123115000D01*
X150493740Y-123115000D01*
X150206842Y-123172068D01*
X149936589Y-123284010D01*
X149693368Y-123446525D01*
X149561513Y-123578380D01*
X149539502Y-123505820D01*
X149480537Y-123395506D01*
X149401185Y-123298815D01*
X149304494Y-123219463D01*
X149194180Y-123160498D01*
X149074482Y-123124188D01*
X148950000Y-123111928D01*
X147250000Y-123111928D01*
X147125518Y-123124188D01*
X147005820Y-123160498D01*
X146895506Y-123219463D01*
X146798815Y-123298815D01*
X146719463Y-123395506D01*
X146660498Y-123505820D01*
X146624188Y-123625518D01*
X146611928Y-123750000D01*
X146611928Y-125450000D01*
X146624188Y-125574482D01*
X146660498Y-125694180D01*
X146719463Y-125804494D01*
X146798815Y-125901185D01*
X146895506Y-125980537D01*
X147005820Y-126039502D01*
X147125518Y-126075812D01*
X147250000Y-126088072D01*
X148950000Y-126088072D01*
X149074482Y-126075812D01*
X149194180Y-126039502D01*
X149304494Y-125980537D01*
X149401185Y-125901185D01*
X149480537Y-125804494D01*
X149539502Y-125694180D01*
X149561513Y-125621620D01*
X149693368Y-125753475D01*
X149936589Y-125915990D01*
X150206842Y-126027932D01*
X150493740Y-126085000D01*
X150786260Y-126085000D01*
X151073158Y-126027932D01*
X151343411Y-125915990D01*
X151586632Y-125753475D01*
X151793475Y-125546632D01*
X151910000Y-125372240D01*
X152026525Y-125546632D01*
X152233368Y-125753475D01*
X152476589Y-125915990D01*
X152746842Y-126027932D01*
X153033740Y-126085000D01*
X153326260Y-126085000D01*
X153613158Y-126027932D01*
X153883411Y-125915990D01*
X154126632Y-125753475D01*
X154333475Y-125546632D01*
X154450000Y-125372240D01*
X154566525Y-125546632D01*
X154773368Y-125753475D01*
X155016589Y-125915990D01*
X155286842Y-126027932D01*
X155573740Y-126085000D01*
X155866260Y-126085000D01*
X156153158Y-126027932D01*
X156423411Y-125915990D01*
X156630630Y-125777531D01*
X157143098Y-126290000D01*
X145490000Y-126290000D01*
X145490000Y-113955745D01*
X145564822Y-114081355D01*
X145759731Y-114297588D01*
X145993080Y-114471641D01*
X146255901Y-114596825D01*
X146403110Y-114641476D01*
X146633000Y-114520155D01*
X146633000Y-113327000D01*
X146613000Y-113327000D01*
X146613000Y-113073000D01*
X146633000Y-113073000D01*
X146633000Y-111879845D01*
X146887000Y-111879845D01*
X146887000Y-113073000D01*
X146907000Y-113073000D01*
X146907000Y-113327000D01*
X146887000Y-113327000D01*
X146887000Y-114520155D01*
X147116890Y-114641476D01*
X147264099Y-114596825D01*
X147526920Y-114471641D01*
X147760269Y-114297588D01*
X147836034Y-114213534D01*
X147860498Y-114294180D01*
X147919463Y-114404494D01*
X147998815Y-114501185D01*
X148095506Y-114580537D01*
X148205820Y-114639502D01*
X148325518Y-114675812D01*
X148450000Y-114688072D01*
X150150000Y-114688072D01*
X150274482Y-114675812D01*
X150394180Y-114639502D01*
X150504494Y-114580537D01*
X150601185Y-114501185D01*
X150680537Y-114404494D01*
X150739502Y-114294180D01*
X150775812Y-114174482D01*
X150788072Y-114050000D01*
X150788072Y-112350000D01*
X150775812Y-112225518D01*
X150739502Y-112105820D01*
X150680537Y-111995506D01*
X150601185Y-111898815D01*
X150504494Y-111819463D01*
X150394180Y-111760498D01*
X150274482Y-111724188D01*
X150150000Y-111711928D01*
X148450000Y-111711928D01*
X148325518Y-111724188D01*
X148205820Y-111760498D01*
X148095506Y-111819463D01*
X147998815Y-111898815D01*
X147919463Y-111995506D01*
X147860498Y-112105820D01*
X147836034Y-112186466D01*
X147760269Y-112102412D01*
X147526920Y-111928359D01*
X147264099Y-111803175D01*
X147116890Y-111758524D01*
X146887000Y-111879845D01*
X146633000Y-111879845D01*
X146403110Y-111758524D01*
X146255901Y-111803175D01*
X145993080Y-111928359D01*
X145759731Y-112102412D01*
X145564822Y-112318645D01*
X145490000Y-112444255D01*
X145490000Y-110708531D01*
X153909389Y-110708531D01*
X153951401Y-110998019D01*
X154049081Y-111273747D01*
X154122528Y-111411157D01*
X154371603Y-111488792D01*
X155220395Y-110640000D01*
X154371603Y-109791208D01*
X154122528Y-109868843D01*
X153996629Y-110132883D01*
X153924661Y-110416411D01*
X153909389Y-110708531D01*
X145490000Y-110708531D01*
X145490000Y-107355745D01*
X145564822Y-107481355D01*
X145759731Y-107697588D01*
X145993080Y-107871641D01*
X146255901Y-107996825D01*
X146403110Y-108041476D01*
X146633000Y-107920155D01*
X146633000Y-106727000D01*
X146613000Y-106727000D01*
X146613000Y-106473000D01*
X146633000Y-106473000D01*
X146633000Y-105279845D01*
X146887000Y-105279845D01*
X146887000Y-106473000D01*
X146907000Y-106473000D01*
X146907000Y-106727000D01*
X146887000Y-106727000D01*
X146887000Y-107920155D01*
X147116890Y-108041476D01*
X147264099Y-107996825D01*
X147526920Y-107871641D01*
X147760269Y-107697588D01*
X147836034Y-107613534D01*
X147860498Y-107694180D01*
X147919463Y-107804494D01*
X147998815Y-107901185D01*
X148095506Y-107980537D01*
X148205820Y-108039502D01*
X148325518Y-108075812D01*
X148450000Y-108088072D01*
X150150000Y-108088072D01*
X150274482Y-108075812D01*
X150394180Y-108039502D01*
X150504494Y-107980537D01*
X150601185Y-107901185D01*
X150680537Y-107804494D01*
X150739502Y-107694180D01*
X150775812Y-107574482D01*
X150788072Y-107450000D01*
X150788072Y-105750000D01*
X150775812Y-105625518D01*
X150739502Y-105505820D01*
X150680537Y-105395506D01*
X150601185Y-105298815D01*
X150504494Y-105219463D01*
X150394180Y-105160498D01*
X150274482Y-105124188D01*
X150150000Y-105111928D01*
X148450000Y-105111928D01*
X148325518Y-105124188D01*
X148205820Y-105160498D01*
X148095506Y-105219463D01*
X147998815Y-105298815D01*
X147919463Y-105395506D01*
X147860498Y-105505820D01*
X147836034Y-105586466D01*
X147760269Y-105502412D01*
X147526920Y-105328359D01*
X147264099Y-105203175D01*
X147116890Y-105158524D01*
X146887000Y-105279845D01*
X146633000Y-105279845D01*
X146403110Y-105158524D01*
X146255901Y-105203175D01*
X145993080Y-105328359D01*
X145759731Y-105502412D01*
X145564822Y-105718645D01*
X145490000Y-105844255D01*
X145490000Y-97230000D01*
X147106358Y-97230000D01*
X147005820Y-97260498D01*
%TA.AperFunction,Conductor*%
D15*
G36*
X147005820Y-97260498D02*
G01*
X146895506Y-97319463D01*
X146798815Y-97398815D01*
X146719463Y-97495506D01*
X146660498Y-97605820D01*
X146624188Y-97725518D01*
X146611928Y-97850000D01*
X146611928Y-99550000D01*
X146624188Y-99674482D01*
X146660498Y-99794180D01*
X146719463Y-99904494D01*
X146798815Y-100001185D01*
X146895506Y-100080537D01*
X147005820Y-100139502D01*
X147125518Y-100175812D01*
X147250000Y-100188072D01*
X147405532Y-100188072D01*
X147465026Y-100299376D01*
X147527684Y-100375724D01*
X147560000Y-100415101D01*
X147588998Y-100438899D01*
X154104469Y-106954371D01*
X154061595Y-107006614D01*
X153979528Y-107160150D01*
X153928992Y-107326746D01*
X153911928Y-107500000D01*
X153911928Y-108700000D01*
X153928992Y-108873254D01*
X153979528Y-109039850D01*
X154061595Y-109193386D01*
X154172038Y-109327962D01*
X154306614Y-109438405D01*
X154460150Y-109520472D01*
X154569293Y-109553580D01*
X154551208Y-109611603D01*
X155400000Y-110460395D01*
X156248792Y-109611603D01*
X156230707Y-109553580D01*
X156339850Y-109520472D01*
X156493386Y-109438405D01*
X156627962Y-109327962D01*
X156738405Y-109193386D01*
X156806285Y-109066392D01*
X156993368Y-109253475D01*
X157166729Y-109369311D01*
X157091208Y-109611603D01*
X157940000Y-110460395D01*
X157954143Y-110446253D01*
X158133748Y-110625858D01*
X158119605Y-110640000D01*
X158133748Y-110654143D01*
X157954143Y-110833748D01*
X157940000Y-110819605D01*
X157925858Y-110833748D01*
X157746253Y-110654143D01*
X157760395Y-110640000D01*
X156911603Y-109791208D01*
X156670000Y-109866514D01*
X156428397Y-109791208D01*
X155579605Y-110640000D01*
X155593748Y-110654143D01*
X155414143Y-110833748D01*
X155400000Y-110819605D01*
X154551208Y-111668397D01*
X154626729Y-111910689D01*
X154453368Y-112026525D01*
X154246525Y-112233368D01*
X154084010Y-112476589D01*
X153972068Y-112746842D01*
X153915000Y-113033740D01*
X153915000Y-113326260D01*
X153972068Y-113613158D01*
X154084010Y-113883411D01*
X154246525Y-114126632D01*
X154453368Y-114333475D01*
X154640001Y-114458179D01*
X154640000Y-120890098D01*
X152668998Y-122861101D01*
X152640000Y-122884899D01*
X152616202Y-122913897D01*
X152616201Y-122913898D01*
X152545026Y-123000624D01*
X152474454Y-123132654D01*
X152453063Y-123203175D01*
X152430998Y-123275914D01*
X152426933Y-123317189D01*
X152233368Y-123446525D01*
X152026525Y-123653368D01*
X151910000Y-123827760D01*
X151793475Y-123653368D01*
X151586632Y-123446525D01*
X151343411Y-123284010D01*
X151073158Y-123172068D01*
X150786260Y-123115000D01*
X150493740Y-123115000D01*
X150206842Y-123172068D01*
X149936589Y-123284010D01*
X149693368Y-123446525D01*
X149561513Y-123578380D01*
X149539502Y-123505820D01*
X149480537Y-123395506D01*
X149401185Y-123298815D01*
X149304494Y-123219463D01*
X149194180Y-123160498D01*
X149074482Y-123124188D01*
X148950000Y-123111928D01*
X147250000Y-123111928D01*
X147125518Y-123124188D01*
X147005820Y-123160498D01*
X146895506Y-123219463D01*
X146798815Y-123298815D01*
X146719463Y-123395506D01*
X146660498Y-123505820D01*
X146624188Y-123625518D01*
X146611928Y-123750000D01*
X146611928Y-125450000D01*
X146624188Y-125574482D01*
X146660498Y-125694180D01*
X146719463Y-125804494D01*
X146798815Y-125901185D01*
X146895506Y-125980537D01*
X147005820Y-126039502D01*
X147125518Y-126075812D01*
X147250000Y-126088072D01*
X148950000Y-126088072D01*
X149074482Y-126075812D01*
X149194180Y-126039502D01*
X149304494Y-125980537D01*
X149401185Y-125901185D01*
X149480537Y-125804494D01*
X149539502Y-125694180D01*
X149561513Y-125621620D01*
X149693368Y-125753475D01*
X149936589Y-125915990D01*
X150206842Y-126027932D01*
X150493740Y-126085000D01*
X150786260Y-126085000D01*
X151073158Y-126027932D01*
X151343411Y-125915990D01*
X151586632Y-125753475D01*
X151793475Y-125546632D01*
X151910000Y-125372240D01*
X152026525Y-125546632D01*
X152233368Y-125753475D01*
X152476589Y-125915990D01*
X152746842Y-126027932D01*
X153033740Y-126085000D01*
X153326260Y-126085000D01*
X153613158Y-126027932D01*
X153883411Y-125915990D01*
X154126632Y-125753475D01*
X154333475Y-125546632D01*
X154450000Y-125372240D01*
X154566525Y-125546632D01*
X154773368Y-125753475D01*
X155016589Y-125915990D01*
X155286842Y-126027932D01*
X155573740Y-126085000D01*
X155866260Y-126085000D01*
X156153158Y-126027932D01*
X156423411Y-125915990D01*
X156630630Y-125777531D01*
X157143098Y-126290000D01*
X145490000Y-126290000D01*
X145490000Y-113955745D01*
X145564822Y-114081355D01*
X145759731Y-114297588D01*
X145993080Y-114471641D01*
X146255901Y-114596825D01*
X146403110Y-114641476D01*
X146633000Y-114520155D01*
X146633000Y-113327000D01*
X146613000Y-113327000D01*
X146613000Y-113073000D01*
X146633000Y-113073000D01*
X146633000Y-111879845D01*
X146887000Y-111879845D01*
X146887000Y-113073000D01*
X146907000Y-113073000D01*
X146907000Y-113327000D01*
X146887000Y-113327000D01*
X146887000Y-114520155D01*
X147116890Y-114641476D01*
X147264099Y-114596825D01*
X147526920Y-114471641D01*
X147760269Y-114297588D01*
X147836034Y-114213534D01*
X147860498Y-114294180D01*
X147919463Y-114404494D01*
X147998815Y-114501185D01*
X148095506Y-114580537D01*
X148205820Y-114639502D01*
X148325518Y-114675812D01*
X148450000Y-114688072D01*
X150150000Y-114688072D01*
X150274482Y-114675812D01*
X150394180Y-114639502D01*
X150504494Y-114580537D01*
X150601185Y-114501185D01*
X150680537Y-114404494D01*
X150739502Y-114294180D01*
X150775812Y-114174482D01*
X150788072Y-114050000D01*
X150788072Y-112350000D01*
X150775812Y-112225518D01*
X150739502Y-112105820D01*
X150680537Y-111995506D01*
X150601185Y-111898815D01*
X150504494Y-111819463D01*
X150394180Y-111760498D01*
X150274482Y-111724188D01*
X150150000Y-111711928D01*
X148450000Y-111711928D01*
X148325518Y-111724188D01*
X148205820Y-111760498D01*
X148095506Y-111819463D01*
X147998815Y-111898815D01*
X147919463Y-111995506D01*
X147860498Y-112105820D01*
X147836034Y-112186466D01*
X147760269Y-112102412D01*
X147526920Y-111928359D01*
X147264099Y-111803175D01*
X147116890Y-111758524D01*
X146887000Y-111879845D01*
X146633000Y-111879845D01*
X146403110Y-111758524D01*
X146255901Y-111803175D01*
X145993080Y-111928359D01*
X145759731Y-112102412D01*
X145564822Y-112318645D01*
X145490000Y-112444255D01*
X145490000Y-110708531D01*
X153909389Y-110708531D01*
X153951401Y-110998019D01*
X154049081Y-111273747D01*
X154122528Y-111411157D01*
X154371603Y-111488792D01*
X155220395Y-110640000D01*
X154371603Y-109791208D01*
X154122528Y-109868843D01*
X153996629Y-110132883D01*
X153924661Y-110416411D01*
X153909389Y-110708531D01*
X145490000Y-110708531D01*
X145490000Y-107355745D01*
X145564822Y-107481355D01*
X145759731Y-107697588D01*
X145993080Y-107871641D01*
X146255901Y-107996825D01*
X146403110Y-108041476D01*
X146633000Y-107920155D01*
X146633000Y-106727000D01*
X146613000Y-106727000D01*
X146613000Y-106473000D01*
X146633000Y-106473000D01*
X146633000Y-105279845D01*
X146887000Y-105279845D01*
X146887000Y-106473000D01*
X146907000Y-106473000D01*
X146907000Y-106727000D01*
X146887000Y-106727000D01*
X146887000Y-107920155D01*
X147116890Y-108041476D01*
X147264099Y-107996825D01*
X147526920Y-107871641D01*
X147760269Y-107697588D01*
X147836034Y-107613534D01*
X147860498Y-107694180D01*
X147919463Y-107804494D01*
X147998815Y-107901185D01*
X148095506Y-107980537D01*
X148205820Y-108039502D01*
X148325518Y-108075812D01*
X148450000Y-108088072D01*
X150150000Y-108088072D01*
X150274482Y-108075812D01*
X150394180Y-108039502D01*
X150504494Y-107980537D01*
X150601185Y-107901185D01*
X150680537Y-107804494D01*
X150739502Y-107694180D01*
X150775812Y-107574482D01*
X150788072Y-107450000D01*
X150788072Y-105750000D01*
X150775812Y-105625518D01*
X150739502Y-105505820D01*
X150680537Y-105395506D01*
X150601185Y-105298815D01*
X150504494Y-105219463D01*
X150394180Y-105160498D01*
X150274482Y-105124188D01*
X150150000Y-105111928D01*
X148450000Y-105111928D01*
X148325518Y-105124188D01*
X148205820Y-105160498D01*
X148095506Y-105219463D01*
X147998815Y-105298815D01*
X147919463Y-105395506D01*
X147860498Y-105505820D01*
X147836034Y-105586466D01*
X147760269Y-105502412D01*
X147526920Y-105328359D01*
X147264099Y-105203175D01*
X147116890Y-105158524D01*
X146887000Y-105279845D01*
X146633000Y-105279845D01*
X146403110Y-105158524D01*
X146255901Y-105203175D01*
X145993080Y-105328359D01*
X145759731Y-105502412D01*
X145564822Y-105718645D01*
X145490000Y-105844255D01*
X145490000Y-97230000D01*
X147106358Y-97230000D01*
X147005820Y-97260498D01*
G37*
%TD.AperFunction*%
D14*
X160927000Y-98573000D02*
X160947000Y-98573000D01*
X160947000Y-98827000D01*
X160927000Y-98827000D01*
X160927000Y-100020155D01*
X161156890Y-100141476D01*
X161304099Y-100096825D01*
X161566920Y-99971641D01*
X161800269Y-99797588D01*
X161995178Y-99581355D01*
X162064805Y-99464466D01*
X162186525Y-99646632D01*
X162393368Y-99853475D01*
X162580000Y-99978178D01*
X162580001Y-123321821D01*
X162393368Y-123446525D01*
X162186525Y-123653368D01*
X162064805Y-123835534D01*
X161995178Y-123718645D01*
X161800269Y-123502412D01*
X161566920Y-123328359D01*
X161304099Y-123203175D01*
X161156890Y-123158524D01*
X160927000Y-123279845D01*
X160927000Y-124473000D01*
X160947000Y-124473000D01*
X160947000Y-124727000D01*
X160927000Y-124727000D01*
X160927000Y-124747000D01*
X160673000Y-124747000D01*
X160673000Y-124727000D01*
X160653000Y-124727000D01*
X160653000Y-124473000D01*
X160673000Y-124473000D01*
X160673000Y-123279845D01*
X160443110Y-123158524D01*
X160295901Y-123203175D01*
X160033080Y-123328359D01*
X159799731Y-123502412D01*
X159604822Y-123718645D01*
X159535195Y-123835534D01*
X159413475Y-123653368D01*
X159206632Y-123446525D01*
X158963411Y-123284010D01*
X158693158Y-123172068D01*
X158406260Y-123115000D01*
X158113740Y-123115000D01*
X157826842Y-123172068D01*
X157556589Y-123284010D01*
X157313368Y-123446525D01*
X157106525Y-123653368D01*
X156990000Y-123827760D01*
X156873475Y-123653368D01*
X156666632Y-123446525D01*
X156423411Y-123284010D01*
X156153158Y-123172068D01*
X155866260Y-123115000D01*
X155573740Y-123115000D01*
X155286842Y-123172068D01*
X155016589Y-123284010D01*
X154773368Y-123446525D01*
X154566525Y-123653368D01*
X154450000Y-123827760D01*
X154333475Y-123653368D01*
X154179904Y-123499797D01*
X155911004Y-121768698D01*
X155940001Y-121744901D01*
X155966332Y-121712817D01*
X156034974Y-121629177D01*
X156105546Y-121497147D01*
X156105546Y-121497146D01*
X156149003Y-121353886D01*
X156160000Y-121242233D01*
X156160000Y-121242224D01*
X156163676Y-121204901D01*
X156160000Y-121167578D01*
X156160000Y-114458178D01*
X156346632Y-114333475D01*
X156553475Y-114126632D01*
X156670000Y-113952240D01*
X156786525Y-114126632D01*
X156993368Y-114333475D01*
X157236589Y-114495990D01*
X157506842Y-114607932D01*
X157793740Y-114665000D01*
X158086260Y-114665000D01*
X158373158Y-114607932D01*
X158643411Y-114495990D01*
X158886632Y-114333475D01*
X159093475Y-114126632D01*
X159255990Y-113883411D01*
X159367932Y-113613158D01*
X159425000Y-113326260D01*
X159425000Y-113033740D01*
X159367932Y-112746842D01*
X159255990Y-112476589D01*
X159234534Y-112444478D01*
X159253803Y-112420998D01*
X159911004Y-111763798D01*
X159940001Y-111740001D01*
X160034974Y-111624276D01*
X160105546Y-111492247D01*
X160149003Y-111348986D01*
X160160000Y-111237333D01*
X160160000Y-111237332D01*
X160163677Y-111200000D01*
X160160000Y-111162667D01*
X160160000Y-106132422D01*
X160163676Y-106095099D01*
X160160000Y-106057776D01*
X160160000Y-106057767D01*
X160149003Y-105946114D01*
X160105546Y-105802853D01*
X160034974Y-105670824D01*
X159940001Y-105555099D01*
X159911003Y-105531301D01*
X154179904Y-99800203D01*
X154333475Y-99646632D01*
X154450000Y-99472240D01*
X154566525Y-99646632D01*
X154773368Y-99853475D01*
X155016589Y-100015990D01*
X155286842Y-100127932D01*
X155573740Y-100185000D01*
X155866260Y-100185000D01*
X156153158Y-100127932D01*
X156423411Y-100015990D01*
X156666632Y-99853475D01*
X156873475Y-99646632D01*
X156990000Y-99472240D01*
X157106525Y-99646632D01*
X157313368Y-99853475D01*
X157556589Y-100015990D01*
X157826842Y-100127932D01*
X158113740Y-100185000D01*
X158406260Y-100185000D01*
X158693158Y-100127932D01*
X158963411Y-100015990D01*
X159206632Y-99853475D01*
X159413475Y-99646632D01*
X159535195Y-99464466D01*
X159604822Y-99581355D01*
X159799731Y-99797588D01*
X160033080Y-99971641D01*
X160295901Y-100096825D01*
X160443110Y-100141476D01*
X160673000Y-100020155D01*
X160673000Y-98827000D01*
X160653000Y-98827000D01*
X160653000Y-98573000D01*
X160673000Y-98573000D01*
X160673000Y-98553000D01*
X160927000Y-98553000D01*
X160927000Y-98573000D01*
%TA.AperFunction,Conductor*%
D15*
G36*
X160927000Y-98573000D02*
G01*
X160947000Y-98573000D01*
X160947000Y-98827000D01*
X160927000Y-98827000D01*
X160927000Y-100020155D01*
X161156890Y-100141476D01*
X161304099Y-100096825D01*
X161566920Y-99971641D01*
X161800269Y-99797588D01*
X161995178Y-99581355D01*
X162064805Y-99464466D01*
X162186525Y-99646632D01*
X162393368Y-99853475D01*
X162580000Y-99978178D01*
X162580001Y-123321821D01*
X162393368Y-123446525D01*
X162186525Y-123653368D01*
X162064805Y-123835534D01*
X161995178Y-123718645D01*
X161800269Y-123502412D01*
X161566920Y-123328359D01*
X161304099Y-123203175D01*
X161156890Y-123158524D01*
X160927000Y-123279845D01*
X160927000Y-124473000D01*
X160947000Y-124473000D01*
X160947000Y-124727000D01*
X160927000Y-124727000D01*
X160927000Y-124747000D01*
X160673000Y-124747000D01*
X160673000Y-124727000D01*
X160653000Y-124727000D01*
X160653000Y-124473000D01*
X160673000Y-124473000D01*
X160673000Y-123279845D01*
X160443110Y-123158524D01*
X160295901Y-123203175D01*
X160033080Y-123328359D01*
X159799731Y-123502412D01*
X159604822Y-123718645D01*
X159535195Y-123835534D01*
X159413475Y-123653368D01*
X159206632Y-123446525D01*
X158963411Y-123284010D01*
X158693158Y-123172068D01*
X158406260Y-123115000D01*
X158113740Y-123115000D01*
X157826842Y-123172068D01*
X157556589Y-123284010D01*
X157313368Y-123446525D01*
X157106525Y-123653368D01*
X156990000Y-123827760D01*
X156873475Y-123653368D01*
X156666632Y-123446525D01*
X156423411Y-123284010D01*
X156153158Y-123172068D01*
X155866260Y-123115000D01*
X155573740Y-123115000D01*
X155286842Y-123172068D01*
X155016589Y-123284010D01*
X154773368Y-123446525D01*
X154566525Y-123653368D01*
X154450000Y-123827760D01*
X154333475Y-123653368D01*
X154179904Y-123499797D01*
X155911004Y-121768698D01*
X155940001Y-121744901D01*
X155966332Y-121712817D01*
X156034974Y-121629177D01*
X156105546Y-121497147D01*
X156105546Y-121497146D01*
X156149003Y-121353886D01*
X156160000Y-121242233D01*
X156160000Y-121242224D01*
X156163676Y-121204901D01*
X156160000Y-121167578D01*
X156160000Y-114458178D01*
X156346632Y-114333475D01*
X156553475Y-114126632D01*
X156670000Y-113952240D01*
X156786525Y-114126632D01*
X156993368Y-114333475D01*
X157236589Y-114495990D01*
X157506842Y-114607932D01*
X157793740Y-114665000D01*
X158086260Y-114665000D01*
X158373158Y-114607932D01*
X158643411Y-114495990D01*
X158886632Y-114333475D01*
X159093475Y-114126632D01*
X159255990Y-113883411D01*
X159367932Y-113613158D01*
X159425000Y-113326260D01*
X159425000Y-113033740D01*
X159367932Y-112746842D01*
X159255990Y-112476589D01*
X159234534Y-112444478D01*
X159253803Y-112420998D01*
X159911004Y-111763798D01*
X159940001Y-111740001D01*
X160034974Y-111624276D01*
X160105546Y-111492247D01*
X160149003Y-111348986D01*
X160160000Y-111237333D01*
X160160000Y-111237332D01*
X160163677Y-111200000D01*
X160160000Y-111162667D01*
X160160000Y-106132422D01*
X160163676Y-106095099D01*
X160160000Y-106057776D01*
X160160000Y-106057767D01*
X160149003Y-105946114D01*
X160105546Y-105802853D01*
X160034974Y-105670824D01*
X159940001Y-105555099D01*
X159911003Y-105531301D01*
X154179904Y-99800203D01*
X154333475Y-99646632D01*
X154450000Y-99472240D01*
X154566525Y-99646632D01*
X154773368Y-99853475D01*
X155016589Y-100015990D01*
X155286842Y-100127932D01*
X155573740Y-100185000D01*
X155866260Y-100185000D01*
X156153158Y-100127932D01*
X156423411Y-100015990D01*
X156666632Y-99853475D01*
X156873475Y-99646632D01*
X156990000Y-99472240D01*
X157106525Y-99646632D01*
X157313368Y-99853475D01*
X157556589Y-100015990D01*
X157826842Y-100127932D01*
X158113740Y-100185000D01*
X158406260Y-100185000D01*
X158693158Y-100127932D01*
X158963411Y-100015990D01*
X159206632Y-99853475D01*
X159413475Y-99646632D01*
X159535195Y-99464466D01*
X159604822Y-99581355D01*
X159799731Y-99797588D01*
X160033080Y-99971641D01*
X160295901Y-100096825D01*
X160443110Y-100141476D01*
X160673000Y-100020155D01*
X160673000Y-98827000D01*
X160653000Y-98827000D01*
X160653000Y-98573000D01*
X160673000Y-98573000D01*
X160673000Y-98553000D01*
X160927000Y-98553000D01*
X160927000Y-98573000D01*
G37*
%TD.AperFunction*%
%TD*%
M02*
