%TF.GenerationSoftware,KiCad,Pcbnew,4.0.2+dfsg1-stable*%
%TF.CreationDate,2019-03-01T15:28:12+01:00*%
%TF.ProjectId,A500MPU-Adapter,413530304D50552D416461707465722E,rev?*%
%TF.FileFunction,Copper,L1,Top,Signal*%
%FSLAX46Y46*%
G04 Gerber Fmt 4.6, Leading zero omitted, Abs format (unit mm)*
G04 Created by KiCad (PCBNEW 4.0.2+dfsg1-stable) date Fri 01 Mar 2019 15:28:12 CET*
%MOMM*%
G01*
G04 APERTURE LIST*
%ADD10C,0.100000*%
%ADD11R,2.000000X1.700000*%
%ADD12R,2.032000X2.032000*%
%ADD13O,2.032000X2.032000*%
%ADD14R,1.727200X2.032000*%
%ADD15O,1.727200X2.032000*%
%ADD16R,1.524000X2.032000*%
%ADD17R,1.727200X1.727200*%
%ADD18O,1.727200X1.727200*%
%ADD19C,0.600000*%
%ADD20C,0.250000*%
%ADD21C,0.254000*%
G04 APERTURE END LIST*
D10*
D11*
X146590000Y-112014000D03*
X150590000Y-112014000D03*
X147352000Y-106680000D03*
X151352000Y-106680000D03*
X162338000Y-106680000D03*
X166338000Y-106680000D03*
X150908000Y-102870000D03*
X154908000Y-102870000D03*
X166846000Y-112014000D03*
X162846000Y-112014000D03*
D12*
X165100000Y-119380000D03*
D13*
X162560000Y-119380000D03*
D12*
X147320000Y-119380000D03*
D13*
X149860000Y-119380000D03*
D14*
X147320000Y-99060000D03*
D15*
X149860000Y-99060000D03*
X152400000Y-99060000D03*
X154940000Y-99060000D03*
X157480000Y-99060000D03*
X160020000Y-99060000D03*
X162560000Y-99060000D03*
X165100000Y-99060000D03*
D14*
X147320000Y-124460000D03*
D15*
X149860000Y-124460000D03*
X152400000Y-124460000D03*
X154940000Y-124460000D03*
X157480000Y-124460000D03*
X160020000Y-124460000D03*
X162560000Y-124460000D03*
X165100000Y-124460000D03*
D16*
X157607000Y-102870000D03*
X160909000Y-102870000D03*
X166497000Y-115316000D03*
X163195000Y-115316000D03*
X149987000Y-115316000D03*
X146685000Y-115316000D03*
D17*
X154940000Y-109220000D03*
D18*
X157480000Y-109220000D03*
X154940000Y-111760000D03*
X157480000Y-111760000D03*
X154940000Y-114300000D03*
X157480000Y-114300000D03*
D19*
X146685000Y-109855000D03*
X159766000Y-105537000D03*
X165608000Y-117094000D03*
X156591000Y-101219000D03*
X161290000Y-101092000D03*
X152908000Y-111252000D03*
X151384000Y-122682000D03*
X157734000Y-105791000D03*
X158877000Y-116840000D03*
X168275000Y-101854000D03*
X160655000Y-104775000D03*
X164465000Y-108585000D03*
X159258000Y-110998000D03*
X156591000Y-107442000D03*
X152908000Y-103505000D03*
X145796000Y-113792000D03*
X166243000Y-108458000D03*
X161290000Y-108712000D03*
X160655000Y-114681000D03*
D20*
X158258000Y-102870000D02*
X158258000Y-104029000D01*
X158258000Y-104029000D02*
X159766000Y-105537000D01*
X160020000Y-99060000D02*
X160020000Y-100076000D01*
X158258000Y-101457000D02*
X158258000Y-102870000D01*
X158496000Y-101219000D02*
X158258000Y-101457000D01*
X158877000Y-101219000D02*
X158496000Y-101219000D01*
X160020000Y-100076000D02*
X158877000Y-101219000D01*
X165608000Y-117094000D02*
X165608000Y-115554000D01*
X165608000Y-115554000D02*
X165846000Y-115316000D01*
X157480000Y-111760000D02*
X159258000Y-111760000D01*
X162941000Y-117094000D02*
X165608000Y-117094000D01*
X161671000Y-116586000D02*
X162941000Y-117094000D01*
X161671000Y-114935000D02*
X161671000Y-116586000D01*
X159258000Y-111760000D02*
X161671000Y-114935000D01*
X154940000Y-111760000D02*
X154813000Y-111760000D01*
X154813000Y-111760000D02*
X151257000Y-115316000D01*
X151257000Y-115316000D02*
X149336000Y-115316000D01*
X154940000Y-111760000D02*
X157480000Y-111760000D01*
X149336000Y-115316000D02*
X149336000Y-118856000D01*
X149336000Y-118856000D02*
X149860000Y-119380000D01*
X150590000Y-112014000D02*
X148971000Y-112014000D01*
X147447000Y-113919000D02*
X147447000Y-115205000D01*
X148463000Y-112903000D02*
X147447000Y-113919000D01*
X148463000Y-112522000D02*
X148463000Y-112903000D01*
X148971000Y-112014000D02*
X148463000Y-112522000D01*
X147447000Y-115205000D02*
X147336000Y-115316000D01*
X162846000Y-112014000D02*
X162846000Y-113189000D01*
X163846000Y-114189000D02*
X163846000Y-115316000D01*
X162846000Y-113189000D02*
X163846000Y-114189000D01*
X154908000Y-102870000D02*
X154940000Y-102870000D01*
X154940000Y-102870000D02*
X156591000Y-101219000D01*
X161290000Y-101092000D02*
X160782000Y-101600000D01*
X160782000Y-101600000D02*
X160782000Y-102346000D01*
X160782000Y-102346000D02*
X160258000Y-102870000D01*
X154940000Y-109220000D02*
X150876000Y-109220000D01*
X147320000Y-103124000D02*
X147320000Y-99060000D01*
X149352000Y-105156000D02*
X147320000Y-103124000D01*
X149352000Y-107696000D02*
X149352000Y-105156000D01*
X150876000Y-109220000D02*
X149352000Y-107696000D01*
X147320000Y-124460000D02*
X147320000Y-122809000D01*
X153162000Y-109220000D02*
X154940000Y-109220000D01*
X152781000Y-109601000D02*
X153162000Y-109220000D01*
X152781000Y-111125000D02*
X152781000Y-109601000D01*
X152908000Y-111252000D02*
X152781000Y-111125000D01*
X147447000Y-122682000D02*
X151384000Y-122682000D01*
X147320000Y-122809000D02*
X147447000Y-122682000D01*
X149860000Y-99060000D02*
X149860000Y-100965000D01*
X157734000Y-105029000D02*
X157734000Y-105791000D01*
X156972000Y-104267000D02*
X157734000Y-105029000D01*
X149733000Y-104267000D02*
X156972000Y-104267000D01*
X149225000Y-103759000D02*
X149733000Y-104267000D01*
X149225000Y-101600000D02*
X149225000Y-103759000D01*
X149860000Y-100965000D02*
X149225000Y-101600000D01*
X152400000Y-99060000D02*
X152400000Y-97663000D01*
X154813000Y-115570000D02*
X154813000Y-114427000D01*
X156083000Y-116840000D02*
X154813000Y-115570000D01*
X158877000Y-116840000D02*
X156083000Y-116840000D01*
X168275000Y-98044000D02*
X168275000Y-101854000D01*
X167513000Y-97282000D02*
X168275000Y-98044000D01*
X152781000Y-97282000D02*
X167513000Y-97282000D01*
X152400000Y-97663000D02*
X152781000Y-97282000D01*
X154813000Y-114427000D02*
X154940000Y-114300000D01*
X164465000Y-104775000D02*
X160655000Y-104775000D01*
X164465000Y-108585000D02*
X164465000Y-104775000D01*
X150908000Y-102870000D02*
X152781000Y-102870000D01*
X159258000Y-108331000D02*
X159258000Y-110998000D01*
X158496000Y-107569000D02*
X159258000Y-108331000D01*
X156718000Y-107569000D02*
X158496000Y-107569000D01*
X156591000Y-107442000D02*
X156718000Y-107569000D01*
X152908000Y-102997000D02*
X152908000Y-103505000D01*
X152781000Y-102870000D02*
X152908000Y-102997000D01*
X154940000Y-99060000D02*
X154940000Y-101219000D01*
X150908000Y-101695000D02*
X150908000Y-102870000D01*
X151257000Y-101346000D02*
X150908000Y-101695000D01*
X154813000Y-101346000D02*
X151257000Y-101346000D01*
X154940000Y-101219000D02*
X154813000Y-101346000D01*
X146590000Y-113379000D02*
X146590000Y-112014000D01*
X146431000Y-113538000D02*
X146590000Y-113379000D01*
X146050000Y-113538000D02*
X146431000Y-113538000D01*
X145796000Y-113792000D02*
X146050000Y-113538000D01*
X166338000Y-106680000D02*
X166338000Y-108363000D01*
X166338000Y-108363000D02*
X166243000Y-108458000D01*
X162560000Y-99060000D02*
X162560000Y-101092000D01*
X166338000Y-103727000D02*
X166338000Y-106680000D01*
X165100000Y-102489000D02*
X166338000Y-103727000D01*
X163957000Y-102489000D02*
X165100000Y-102489000D01*
X162560000Y-101092000D02*
X163957000Y-102489000D01*
X151352000Y-106680000D02*
X158877000Y-106680000D01*
X166846000Y-110712000D02*
X166846000Y-112014000D01*
X165989000Y-109855000D02*
X166846000Y-110712000D01*
X160782000Y-109855000D02*
X165989000Y-109855000D01*
X160020000Y-109093000D02*
X160782000Y-109855000D01*
X160020000Y-107823000D02*
X160020000Y-109093000D01*
X158877000Y-106680000D02*
X160020000Y-107823000D01*
X166846000Y-112014000D02*
X166846000Y-113252000D01*
X166751000Y-124460000D02*
X165100000Y-124460000D01*
X167894000Y-123317000D02*
X166751000Y-124460000D01*
X167894000Y-114300000D02*
X167894000Y-123317000D01*
X166846000Y-113252000D02*
X167894000Y-114300000D01*
X165100000Y-99060000D02*
X165100000Y-101219000D01*
X166846000Y-110522000D02*
X166846000Y-112014000D01*
X168148000Y-109220000D02*
X166846000Y-110522000D01*
X168148000Y-103124000D02*
X168148000Y-109220000D01*
X167386000Y-102362000D02*
X168148000Y-103124000D01*
X166243000Y-102362000D02*
X167386000Y-102362000D01*
X165100000Y-101219000D02*
X166243000Y-102362000D01*
X147320000Y-119380000D02*
X147320000Y-121031000D01*
X161798000Y-107220000D02*
X162338000Y-106680000D01*
X161798000Y-108204000D02*
X161798000Y-107220000D01*
X161290000Y-108712000D02*
X161798000Y-108204000D01*
X160655000Y-120142000D02*
X160655000Y-114681000D01*
X159512000Y-121285000D02*
X160655000Y-120142000D01*
X147574000Y-121285000D02*
X159512000Y-121285000D01*
X147320000Y-121031000D02*
X147574000Y-121285000D01*
X165100000Y-119380000D02*
X165100000Y-120777000D01*
X145796000Y-106680000D02*
X147352000Y-106680000D01*
X145161000Y-107315000D02*
X145796000Y-106680000D01*
X145161000Y-120777000D02*
X145161000Y-107315000D01*
X146304000Y-121920000D02*
X145161000Y-120777000D01*
X161036000Y-121920000D02*
X146304000Y-121920000D01*
X161798000Y-121158000D02*
X161036000Y-121920000D01*
X164719000Y-121158000D02*
X161798000Y-121158000D01*
X165100000Y-120777000D02*
X164719000Y-121158000D01*
D21*
G36*
X160244599Y-110392401D02*
X160491161Y-110557148D01*
X160782000Y-110615000D01*
X161526513Y-110615000D01*
X161394559Y-110699910D01*
X161249569Y-110912110D01*
X161198560Y-111164000D01*
X161198560Y-112864000D01*
X161242838Y-113099317D01*
X161381910Y-113315441D01*
X161594110Y-113460431D01*
X161846000Y-113511440D01*
X162164967Y-113511440D01*
X162278664Y-113681600D01*
X162197683Y-113696838D01*
X161981559Y-113835910D01*
X161836569Y-114048110D01*
X161785560Y-114300000D01*
X161785560Y-116332000D01*
X161829838Y-116567317D01*
X161968910Y-116783441D01*
X162181110Y-116928431D01*
X162433000Y-116979440D01*
X163957000Y-116979440D01*
X164192317Y-116935162D01*
X164408441Y-116796090D01*
X164553431Y-116583890D01*
X164604440Y-116332000D01*
X164604440Y-115601750D01*
X165100000Y-115601750D01*
X165100000Y-116458310D01*
X165196673Y-116691699D01*
X165375302Y-116870327D01*
X165608691Y-116967000D01*
X166211250Y-116967000D01*
X166370000Y-116808250D01*
X166370000Y-115443000D01*
X165258750Y-115443000D01*
X165100000Y-115601750D01*
X164604440Y-115601750D01*
X164604440Y-115323843D01*
X164606000Y-115316000D01*
X164606000Y-114189000D01*
X164548148Y-113898161D01*
X164383401Y-113651599D01*
X164152901Y-113421099D01*
X164297441Y-113328090D01*
X164442431Y-113115890D01*
X164493440Y-112864000D01*
X164493440Y-111164000D01*
X164449162Y-110928683D01*
X164310090Y-110712559D01*
X164167308Y-110615000D01*
X165526513Y-110615000D01*
X165394559Y-110699910D01*
X165249569Y-110912110D01*
X165198560Y-111164000D01*
X165198560Y-112864000D01*
X165242838Y-113099317D01*
X165381910Y-113315441D01*
X165594110Y-113460431D01*
X165846000Y-113511440D01*
X166137606Y-113511440D01*
X166143852Y-113542839D01*
X166254126Y-113707876D01*
X166211250Y-113665000D01*
X165608691Y-113665000D01*
X165375302Y-113761673D01*
X165196673Y-113940301D01*
X165100000Y-114173690D01*
X165100000Y-115030250D01*
X165258750Y-115189000D01*
X166370000Y-115189000D01*
X166370000Y-115169000D01*
X166624000Y-115169000D01*
X166624000Y-115189000D01*
X166644000Y-115189000D01*
X166644000Y-115443000D01*
X166624000Y-115443000D01*
X166624000Y-116808250D01*
X166782750Y-116967000D01*
X167134000Y-116967000D01*
X167134000Y-123002198D01*
X166464461Y-123671737D01*
X166159670Y-123215585D01*
X165673489Y-122890729D01*
X165100000Y-122776655D01*
X164526511Y-122890729D01*
X164040330Y-123215585D01*
X163830000Y-123530366D01*
X163619670Y-123215585D01*
X163133489Y-122890729D01*
X162560000Y-122776655D01*
X161986511Y-122890729D01*
X161500330Y-123215585D01*
X161293539Y-123525069D01*
X160922036Y-123109268D01*
X160394791Y-122855291D01*
X160379026Y-122852642D01*
X160147000Y-122973783D01*
X160147000Y-124333000D01*
X160167000Y-124333000D01*
X160167000Y-124587000D01*
X160147000Y-124587000D01*
X160147000Y-125946217D01*
X160379026Y-126067358D01*
X160394791Y-126064709D01*
X160922036Y-125810732D01*
X161293539Y-125394931D01*
X161500330Y-125704415D01*
X161986511Y-126029271D01*
X162560000Y-126143345D01*
X163133489Y-126029271D01*
X163619670Y-125704415D01*
X163830000Y-125389634D01*
X164040330Y-125704415D01*
X164526511Y-126029271D01*
X165100000Y-126143345D01*
X165673489Y-126029271D01*
X166159670Y-125704415D01*
X166483346Y-125220000D01*
X166751000Y-125220000D01*
X167041839Y-125162148D01*
X167288401Y-124997401D01*
X168148000Y-124137802D01*
X168148000Y-126238000D01*
X145542000Y-126238000D01*
X145542000Y-122232802D01*
X145766599Y-122457401D01*
X146013161Y-122622148D01*
X146304000Y-122680000D01*
X146585660Y-122680000D01*
X146562474Y-122796560D01*
X146456400Y-122796560D01*
X146221083Y-122840838D01*
X146004959Y-122979910D01*
X145859969Y-123192110D01*
X145808960Y-123444000D01*
X145808960Y-125476000D01*
X145853238Y-125711317D01*
X145992310Y-125927441D01*
X146204510Y-126072431D01*
X146456400Y-126123440D01*
X148183600Y-126123440D01*
X148418917Y-126079162D01*
X148635041Y-125940090D01*
X148780031Y-125727890D01*
X148788400Y-125686561D01*
X148800330Y-125704415D01*
X149286511Y-126029271D01*
X149860000Y-126143345D01*
X150433489Y-126029271D01*
X150919670Y-125704415D01*
X151130000Y-125389634D01*
X151340330Y-125704415D01*
X151826511Y-126029271D01*
X152400000Y-126143345D01*
X152973489Y-126029271D01*
X153459670Y-125704415D01*
X153670000Y-125389634D01*
X153880330Y-125704415D01*
X154366511Y-126029271D01*
X154940000Y-126143345D01*
X155513489Y-126029271D01*
X155999670Y-125704415D01*
X156210000Y-125389634D01*
X156420330Y-125704415D01*
X156906511Y-126029271D01*
X157480000Y-126143345D01*
X158053489Y-126029271D01*
X158539670Y-125704415D01*
X158746461Y-125394931D01*
X159117964Y-125810732D01*
X159645209Y-126064709D01*
X159660974Y-126067358D01*
X159893000Y-125946217D01*
X159893000Y-124587000D01*
X159873000Y-124587000D01*
X159873000Y-124333000D01*
X159893000Y-124333000D01*
X159893000Y-122973783D01*
X159660974Y-122852642D01*
X159645209Y-122855291D01*
X159117964Y-123109268D01*
X158746461Y-123525069D01*
X158539670Y-123215585D01*
X158053489Y-122890729D01*
X157480000Y-122776655D01*
X156906511Y-122890729D01*
X156420330Y-123215585D01*
X156210000Y-123530366D01*
X155999670Y-123215585D01*
X155513489Y-122890729D01*
X154940000Y-122776655D01*
X154366511Y-122890729D01*
X153880330Y-123215585D01*
X153670000Y-123530366D01*
X153459670Y-123215585D01*
X152973489Y-122890729D01*
X152400000Y-122776655D01*
X152318904Y-122792786D01*
X152319002Y-122680000D01*
X161036000Y-122680000D01*
X161326839Y-122622148D01*
X161573401Y-122457401D01*
X162112802Y-121918000D01*
X164719000Y-121918000D01*
X165009839Y-121860148D01*
X165256401Y-121695401D01*
X165637401Y-121314401D01*
X165802148Y-121067840D01*
X165807001Y-121043440D01*
X166116000Y-121043440D01*
X166351317Y-120999162D01*
X166567441Y-120860090D01*
X166712431Y-120647890D01*
X166763440Y-120396000D01*
X166763440Y-118364000D01*
X166719162Y-118128683D01*
X166580090Y-117912559D01*
X166367890Y-117767569D01*
X166116000Y-117716560D01*
X164084000Y-117716560D01*
X163848683Y-117760838D01*
X163632559Y-117899910D01*
X163521160Y-118062948D01*
X163424818Y-117973615D01*
X162942944Y-117774025D01*
X162687000Y-117893164D01*
X162687000Y-119253000D01*
X162707000Y-119253000D01*
X162707000Y-119507000D01*
X162687000Y-119507000D01*
X162687000Y-119527000D01*
X162433000Y-119527000D01*
X162433000Y-119507000D01*
X162413000Y-119507000D01*
X162413000Y-119253000D01*
X162433000Y-119253000D01*
X162433000Y-117893164D01*
X162177056Y-117774025D01*
X161695182Y-117973615D01*
X161415000Y-118233414D01*
X161415000Y-115243463D01*
X161447192Y-115211327D01*
X161589838Y-114867799D01*
X161590162Y-114495833D01*
X161448117Y-114152057D01*
X161185327Y-113888808D01*
X160841799Y-113746162D01*
X160469833Y-113745838D01*
X160126057Y-113887883D01*
X159862808Y-114150673D01*
X159720162Y-114494201D01*
X159719838Y-114866167D01*
X159861883Y-115209943D01*
X159895000Y-115243118D01*
X159895000Y-119827198D01*
X159197198Y-120525000D01*
X151006710Y-120525000D01*
X151197188Y-120348379D01*
X151465983Y-119762946D01*
X151347367Y-119507000D01*
X149987000Y-119507000D01*
X149987000Y-119527000D01*
X149733000Y-119527000D01*
X149733000Y-119507000D01*
X149713000Y-119507000D01*
X149713000Y-119253000D01*
X149733000Y-119253000D01*
X149733000Y-117893164D01*
X149987000Y-117893164D01*
X149987000Y-119253000D01*
X151347367Y-119253000D01*
X151465983Y-118997054D01*
X151197188Y-118411621D01*
X150724818Y-117973615D01*
X150242944Y-117774025D01*
X149987000Y-117893164D01*
X149733000Y-117893164D01*
X149477056Y-117774025D01*
X148995182Y-117973615D01*
X148897602Y-118064097D01*
X148800090Y-117912559D01*
X148587890Y-117767569D01*
X148336000Y-117716560D01*
X146304000Y-117716560D01*
X146068683Y-117760838D01*
X145921000Y-117855869D01*
X145921000Y-116979035D01*
X145923000Y-116979440D01*
X147447000Y-116979440D01*
X147682317Y-116935162D01*
X147898441Y-116796090D01*
X148043431Y-116583890D01*
X148094440Y-116332000D01*
X148094440Y-115601750D01*
X148590000Y-115601750D01*
X148590000Y-116458310D01*
X148686673Y-116691699D01*
X148865302Y-116870327D01*
X149098691Y-116967000D01*
X149701250Y-116967000D01*
X149860000Y-116808250D01*
X149860000Y-115443000D01*
X150114000Y-115443000D01*
X150114000Y-116808250D01*
X150272750Y-116967000D01*
X150875309Y-116967000D01*
X151108698Y-116870327D01*
X151287327Y-116691699D01*
X151384000Y-116458310D01*
X151384000Y-115601750D01*
X151225250Y-115443000D01*
X150114000Y-115443000D01*
X149860000Y-115443000D01*
X148748750Y-115443000D01*
X148590000Y-115601750D01*
X148094440Y-115601750D01*
X148094440Y-115577716D01*
X148149148Y-115495839D01*
X148207000Y-115205000D01*
X148207000Y-114233802D01*
X148267112Y-114173690D01*
X148590000Y-114173690D01*
X148590000Y-115030250D01*
X148748750Y-115189000D01*
X149860000Y-115189000D01*
X149860000Y-113823750D01*
X150114000Y-113823750D01*
X150114000Y-115189000D01*
X151225250Y-115189000D01*
X151384000Y-115030250D01*
X151384000Y-114173690D01*
X151287327Y-113940301D01*
X151108698Y-113761673D01*
X150875309Y-113665000D01*
X150272750Y-113665000D01*
X150114000Y-113823750D01*
X149860000Y-113823750D01*
X149701250Y-113665000D01*
X149098691Y-113665000D01*
X148865302Y-113761673D01*
X148686673Y-113940301D01*
X148590000Y-114173690D01*
X148267112Y-114173690D01*
X149000401Y-113440401D01*
X149105299Y-113283410D01*
X149125910Y-113315441D01*
X149338110Y-113460431D01*
X149590000Y-113511440D01*
X151590000Y-113511440D01*
X151825317Y-113467162D01*
X152041441Y-113328090D01*
X152186431Y-113115890D01*
X152237440Y-112864000D01*
X152237440Y-111903714D01*
X152377673Y-112044192D01*
X152721201Y-112186838D01*
X153093167Y-112187162D01*
X153436943Y-112045117D01*
X153595334Y-111887002D01*
X153606182Y-111887002D01*
X153485042Y-112119026D01*
X153657312Y-112534947D01*
X154051510Y-112966821D01*
X154174228Y-113024336D01*
X153850971Y-113240330D01*
X153526115Y-113726511D01*
X153412041Y-114300000D01*
X153526115Y-114873489D01*
X153850971Y-115359670D01*
X154053000Y-115494662D01*
X154053000Y-115570000D01*
X154110852Y-115860839D01*
X154275599Y-116107401D01*
X155545599Y-117377401D01*
X155792160Y-117542148D01*
X156083000Y-117600000D01*
X158314537Y-117600000D01*
X158346673Y-117632192D01*
X158690201Y-117774838D01*
X159062167Y-117775162D01*
X159405943Y-117633117D01*
X159669192Y-117370327D01*
X159811838Y-117026799D01*
X159812162Y-116654833D01*
X159670117Y-116311057D01*
X159407327Y-116047808D01*
X159063799Y-115905162D01*
X158691833Y-115904838D01*
X158348057Y-116046883D01*
X158314882Y-116080000D01*
X156397802Y-116080000D01*
X155818286Y-115500484D01*
X156029029Y-115359670D01*
X156210000Y-115088828D01*
X156390971Y-115359670D01*
X156877152Y-115684526D01*
X157450641Y-115798600D01*
X157509359Y-115798600D01*
X158082848Y-115684526D01*
X158569029Y-115359670D01*
X158893885Y-114873489D01*
X159007959Y-114300000D01*
X158893885Y-113726511D01*
X158569029Y-113240330D01*
X158245772Y-113024336D01*
X158368490Y-112966821D01*
X158762688Y-112534947D01*
X158934958Y-112119026D01*
X158813818Y-111887002D01*
X158960816Y-111887002D01*
X159071201Y-111932838D01*
X159443167Y-111933162D01*
X159786943Y-111791117D01*
X160050192Y-111528327D01*
X160192838Y-111184799D01*
X160193162Y-110812833D01*
X160051117Y-110469057D01*
X160018000Y-110435882D01*
X160018000Y-110165802D01*
X160244599Y-110392401D01*
X160244599Y-110392401D01*
G37*
X160244599Y-110392401D02*
X160491161Y-110557148D01*
X160782000Y-110615000D01*
X161526513Y-110615000D01*
X161394559Y-110699910D01*
X161249569Y-110912110D01*
X161198560Y-111164000D01*
X161198560Y-112864000D01*
X161242838Y-113099317D01*
X161381910Y-113315441D01*
X161594110Y-113460431D01*
X161846000Y-113511440D01*
X162164967Y-113511440D01*
X162278664Y-113681600D01*
X162197683Y-113696838D01*
X161981559Y-113835910D01*
X161836569Y-114048110D01*
X161785560Y-114300000D01*
X161785560Y-116332000D01*
X161829838Y-116567317D01*
X161968910Y-116783441D01*
X162181110Y-116928431D01*
X162433000Y-116979440D01*
X163957000Y-116979440D01*
X164192317Y-116935162D01*
X164408441Y-116796090D01*
X164553431Y-116583890D01*
X164604440Y-116332000D01*
X164604440Y-115601750D01*
X165100000Y-115601750D01*
X165100000Y-116458310D01*
X165196673Y-116691699D01*
X165375302Y-116870327D01*
X165608691Y-116967000D01*
X166211250Y-116967000D01*
X166370000Y-116808250D01*
X166370000Y-115443000D01*
X165258750Y-115443000D01*
X165100000Y-115601750D01*
X164604440Y-115601750D01*
X164604440Y-115323843D01*
X164606000Y-115316000D01*
X164606000Y-114189000D01*
X164548148Y-113898161D01*
X164383401Y-113651599D01*
X164152901Y-113421099D01*
X164297441Y-113328090D01*
X164442431Y-113115890D01*
X164493440Y-112864000D01*
X164493440Y-111164000D01*
X164449162Y-110928683D01*
X164310090Y-110712559D01*
X164167308Y-110615000D01*
X165526513Y-110615000D01*
X165394559Y-110699910D01*
X165249569Y-110912110D01*
X165198560Y-111164000D01*
X165198560Y-112864000D01*
X165242838Y-113099317D01*
X165381910Y-113315441D01*
X165594110Y-113460431D01*
X165846000Y-113511440D01*
X166137606Y-113511440D01*
X166143852Y-113542839D01*
X166254126Y-113707876D01*
X166211250Y-113665000D01*
X165608691Y-113665000D01*
X165375302Y-113761673D01*
X165196673Y-113940301D01*
X165100000Y-114173690D01*
X165100000Y-115030250D01*
X165258750Y-115189000D01*
X166370000Y-115189000D01*
X166370000Y-115169000D01*
X166624000Y-115169000D01*
X166624000Y-115189000D01*
X166644000Y-115189000D01*
X166644000Y-115443000D01*
X166624000Y-115443000D01*
X166624000Y-116808250D01*
X166782750Y-116967000D01*
X167134000Y-116967000D01*
X167134000Y-123002198D01*
X166464461Y-123671737D01*
X166159670Y-123215585D01*
X165673489Y-122890729D01*
X165100000Y-122776655D01*
X164526511Y-122890729D01*
X164040330Y-123215585D01*
X163830000Y-123530366D01*
X163619670Y-123215585D01*
X163133489Y-122890729D01*
X162560000Y-122776655D01*
X161986511Y-122890729D01*
X161500330Y-123215585D01*
X161293539Y-123525069D01*
X160922036Y-123109268D01*
X160394791Y-122855291D01*
X160379026Y-122852642D01*
X160147000Y-122973783D01*
X160147000Y-124333000D01*
X160167000Y-124333000D01*
X160167000Y-124587000D01*
X160147000Y-124587000D01*
X160147000Y-125946217D01*
X160379026Y-126067358D01*
X160394791Y-126064709D01*
X160922036Y-125810732D01*
X161293539Y-125394931D01*
X161500330Y-125704415D01*
X161986511Y-126029271D01*
X162560000Y-126143345D01*
X163133489Y-126029271D01*
X163619670Y-125704415D01*
X163830000Y-125389634D01*
X164040330Y-125704415D01*
X164526511Y-126029271D01*
X165100000Y-126143345D01*
X165673489Y-126029271D01*
X166159670Y-125704415D01*
X166483346Y-125220000D01*
X166751000Y-125220000D01*
X167041839Y-125162148D01*
X167288401Y-124997401D01*
X168148000Y-124137802D01*
X168148000Y-126238000D01*
X145542000Y-126238000D01*
X145542000Y-122232802D01*
X145766599Y-122457401D01*
X146013161Y-122622148D01*
X146304000Y-122680000D01*
X146585660Y-122680000D01*
X146562474Y-122796560D01*
X146456400Y-122796560D01*
X146221083Y-122840838D01*
X146004959Y-122979910D01*
X145859969Y-123192110D01*
X145808960Y-123444000D01*
X145808960Y-125476000D01*
X145853238Y-125711317D01*
X145992310Y-125927441D01*
X146204510Y-126072431D01*
X146456400Y-126123440D01*
X148183600Y-126123440D01*
X148418917Y-126079162D01*
X148635041Y-125940090D01*
X148780031Y-125727890D01*
X148788400Y-125686561D01*
X148800330Y-125704415D01*
X149286511Y-126029271D01*
X149860000Y-126143345D01*
X150433489Y-126029271D01*
X150919670Y-125704415D01*
X151130000Y-125389634D01*
X151340330Y-125704415D01*
X151826511Y-126029271D01*
X152400000Y-126143345D01*
X152973489Y-126029271D01*
X153459670Y-125704415D01*
X153670000Y-125389634D01*
X153880330Y-125704415D01*
X154366511Y-126029271D01*
X154940000Y-126143345D01*
X155513489Y-126029271D01*
X155999670Y-125704415D01*
X156210000Y-125389634D01*
X156420330Y-125704415D01*
X156906511Y-126029271D01*
X157480000Y-126143345D01*
X158053489Y-126029271D01*
X158539670Y-125704415D01*
X158746461Y-125394931D01*
X159117964Y-125810732D01*
X159645209Y-126064709D01*
X159660974Y-126067358D01*
X159893000Y-125946217D01*
X159893000Y-124587000D01*
X159873000Y-124587000D01*
X159873000Y-124333000D01*
X159893000Y-124333000D01*
X159893000Y-122973783D01*
X159660974Y-122852642D01*
X159645209Y-122855291D01*
X159117964Y-123109268D01*
X158746461Y-123525069D01*
X158539670Y-123215585D01*
X158053489Y-122890729D01*
X157480000Y-122776655D01*
X156906511Y-122890729D01*
X156420330Y-123215585D01*
X156210000Y-123530366D01*
X155999670Y-123215585D01*
X155513489Y-122890729D01*
X154940000Y-122776655D01*
X154366511Y-122890729D01*
X153880330Y-123215585D01*
X153670000Y-123530366D01*
X153459670Y-123215585D01*
X152973489Y-122890729D01*
X152400000Y-122776655D01*
X152318904Y-122792786D01*
X152319002Y-122680000D01*
X161036000Y-122680000D01*
X161326839Y-122622148D01*
X161573401Y-122457401D01*
X162112802Y-121918000D01*
X164719000Y-121918000D01*
X165009839Y-121860148D01*
X165256401Y-121695401D01*
X165637401Y-121314401D01*
X165802148Y-121067840D01*
X165807001Y-121043440D01*
X166116000Y-121043440D01*
X166351317Y-120999162D01*
X166567441Y-120860090D01*
X166712431Y-120647890D01*
X166763440Y-120396000D01*
X166763440Y-118364000D01*
X166719162Y-118128683D01*
X166580090Y-117912559D01*
X166367890Y-117767569D01*
X166116000Y-117716560D01*
X164084000Y-117716560D01*
X163848683Y-117760838D01*
X163632559Y-117899910D01*
X163521160Y-118062948D01*
X163424818Y-117973615D01*
X162942944Y-117774025D01*
X162687000Y-117893164D01*
X162687000Y-119253000D01*
X162707000Y-119253000D01*
X162707000Y-119507000D01*
X162687000Y-119507000D01*
X162687000Y-119527000D01*
X162433000Y-119527000D01*
X162433000Y-119507000D01*
X162413000Y-119507000D01*
X162413000Y-119253000D01*
X162433000Y-119253000D01*
X162433000Y-117893164D01*
X162177056Y-117774025D01*
X161695182Y-117973615D01*
X161415000Y-118233414D01*
X161415000Y-115243463D01*
X161447192Y-115211327D01*
X161589838Y-114867799D01*
X161590162Y-114495833D01*
X161448117Y-114152057D01*
X161185327Y-113888808D01*
X160841799Y-113746162D01*
X160469833Y-113745838D01*
X160126057Y-113887883D01*
X159862808Y-114150673D01*
X159720162Y-114494201D01*
X159719838Y-114866167D01*
X159861883Y-115209943D01*
X159895000Y-115243118D01*
X159895000Y-119827198D01*
X159197198Y-120525000D01*
X151006710Y-120525000D01*
X151197188Y-120348379D01*
X151465983Y-119762946D01*
X151347367Y-119507000D01*
X149987000Y-119507000D01*
X149987000Y-119527000D01*
X149733000Y-119527000D01*
X149733000Y-119507000D01*
X149713000Y-119507000D01*
X149713000Y-119253000D01*
X149733000Y-119253000D01*
X149733000Y-117893164D01*
X149987000Y-117893164D01*
X149987000Y-119253000D01*
X151347367Y-119253000D01*
X151465983Y-118997054D01*
X151197188Y-118411621D01*
X150724818Y-117973615D01*
X150242944Y-117774025D01*
X149987000Y-117893164D01*
X149733000Y-117893164D01*
X149477056Y-117774025D01*
X148995182Y-117973615D01*
X148897602Y-118064097D01*
X148800090Y-117912559D01*
X148587890Y-117767569D01*
X148336000Y-117716560D01*
X146304000Y-117716560D01*
X146068683Y-117760838D01*
X145921000Y-117855869D01*
X145921000Y-116979035D01*
X145923000Y-116979440D01*
X147447000Y-116979440D01*
X147682317Y-116935162D01*
X147898441Y-116796090D01*
X148043431Y-116583890D01*
X148094440Y-116332000D01*
X148094440Y-115601750D01*
X148590000Y-115601750D01*
X148590000Y-116458310D01*
X148686673Y-116691699D01*
X148865302Y-116870327D01*
X149098691Y-116967000D01*
X149701250Y-116967000D01*
X149860000Y-116808250D01*
X149860000Y-115443000D01*
X150114000Y-115443000D01*
X150114000Y-116808250D01*
X150272750Y-116967000D01*
X150875309Y-116967000D01*
X151108698Y-116870327D01*
X151287327Y-116691699D01*
X151384000Y-116458310D01*
X151384000Y-115601750D01*
X151225250Y-115443000D01*
X150114000Y-115443000D01*
X149860000Y-115443000D01*
X148748750Y-115443000D01*
X148590000Y-115601750D01*
X148094440Y-115601750D01*
X148094440Y-115577716D01*
X148149148Y-115495839D01*
X148207000Y-115205000D01*
X148207000Y-114233802D01*
X148267112Y-114173690D01*
X148590000Y-114173690D01*
X148590000Y-115030250D01*
X148748750Y-115189000D01*
X149860000Y-115189000D01*
X149860000Y-113823750D01*
X150114000Y-113823750D01*
X150114000Y-115189000D01*
X151225250Y-115189000D01*
X151384000Y-115030250D01*
X151384000Y-114173690D01*
X151287327Y-113940301D01*
X151108698Y-113761673D01*
X150875309Y-113665000D01*
X150272750Y-113665000D01*
X150114000Y-113823750D01*
X149860000Y-113823750D01*
X149701250Y-113665000D01*
X149098691Y-113665000D01*
X148865302Y-113761673D01*
X148686673Y-113940301D01*
X148590000Y-114173690D01*
X148267112Y-114173690D01*
X149000401Y-113440401D01*
X149105299Y-113283410D01*
X149125910Y-113315441D01*
X149338110Y-113460431D01*
X149590000Y-113511440D01*
X151590000Y-113511440D01*
X151825317Y-113467162D01*
X152041441Y-113328090D01*
X152186431Y-113115890D01*
X152237440Y-112864000D01*
X152237440Y-111903714D01*
X152377673Y-112044192D01*
X152721201Y-112186838D01*
X153093167Y-112187162D01*
X153436943Y-112045117D01*
X153595334Y-111887002D01*
X153606182Y-111887002D01*
X153485042Y-112119026D01*
X153657312Y-112534947D01*
X154051510Y-112966821D01*
X154174228Y-113024336D01*
X153850971Y-113240330D01*
X153526115Y-113726511D01*
X153412041Y-114300000D01*
X153526115Y-114873489D01*
X153850971Y-115359670D01*
X154053000Y-115494662D01*
X154053000Y-115570000D01*
X154110852Y-115860839D01*
X154275599Y-116107401D01*
X155545599Y-117377401D01*
X155792160Y-117542148D01*
X156083000Y-117600000D01*
X158314537Y-117600000D01*
X158346673Y-117632192D01*
X158690201Y-117774838D01*
X159062167Y-117775162D01*
X159405943Y-117633117D01*
X159669192Y-117370327D01*
X159811838Y-117026799D01*
X159812162Y-116654833D01*
X159670117Y-116311057D01*
X159407327Y-116047808D01*
X159063799Y-115905162D01*
X158691833Y-115904838D01*
X158348057Y-116046883D01*
X158314882Y-116080000D01*
X156397802Y-116080000D01*
X155818286Y-115500484D01*
X156029029Y-115359670D01*
X156210000Y-115088828D01*
X156390971Y-115359670D01*
X156877152Y-115684526D01*
X157450641Y-115798600D01*
X157509359Y-115798600D01*
X158082848Y-115684526D01*
X158569029Y-115359670D01*
X158893885Y-114873489D01*
X159007959Y-114300000D01*
X158893885Y-113726511D01*
X158569029Y-113240330D01*
X158245772Y-113024336D01*
X158368490Y-112966821D01*
X158762688Y-112534947D01*
X158934958Y-112119026D01*
X158813818Y-111887002D01*
X158960816Y-111887002D01*
X159071201Y-111932838D01*
X159443167Y-111933162D01*
X159786943Y-111791117D01*
X160050192Y-111528327D01*
X160192838Y-111184799D01*
X160193162Y-110812833D01*
X160051117Y-110469057D01*
X160018000Y-110435882D01*
X160018000Y-110165802D01*
X160244599Y-110392401D01*
G36*
X155067000Y-111633000D02*
X157353000Y-111633000D01*
X157353000Y-111613000D01*
X157607000Y-111613000D01*
X157607000Y-111633000D01*
X157627000Y-111633000D01*
X157627000Y-111887000D01*
X157607000Y-111887000D01*
X157607000Y-111907000D01*
X157353000Y-111907000D01*
X157353000Y-111887000D01*
X155067000Y-111887000D01*
X155067000Y-111907000D01*
X154813000Y-111907000D01*
X154813000Y-111887000D01*
X154793000Y-111887000D01*
X154793000Y-111633000D01*
X154813000Y-111633000D01*
X154813000Y-111613000D01*
X155067000Y-111613000D01*
X155067000Y-111633000D01*
X155067000Y-111633000D01*
G37*
X155067000Y-111633000D02*
X157353000Y-111633000D01*
X157353000Y-111613000D01*
X157607000Y-111613000D01*
X157607000Y-111633000D01*
X157627000Y-111633000D01*
X157627000Y-111887000D01*
X157607000Y-111887000D01*
X157607000Y-111907000D01*
X157353000Y-111907000D01*
X157353000Y-111887000D01*
X155067000Y-111887000D01*
X155067000Y-111907000D01*
X154813000Y-111907000D01*
X154813000Y-111887000D01*
X154793000Y-111887000D01*
X154793000Y-111633000D01*
X154813000Y-111633000D01*
X154813000Y-111613000D01*
X155067000Y-111613000D01*
X155067000Y-111633000D01*
G36*
X146100110Y-108126431D02*
X146352000Y-108177440D01*
X148352000Y-108177440D01*
X148587317Y-108133162D01*
X148699421Y-108061025D01*
X148814599Y-108233401D01*
X150338599Y-109757401D01*
X150585160Y-109922148D01*
X150633414Y-109931746D01*
X150876000Y-109980000D01*
X152021000Y-109980000D01*
X152021000Y-110689950D01*
X151841890Y-110567569D01*
X151590000Y-110516560D01*
X149590000Y-110516560D01*
X149354683Y-110560838D01*
X149138559Y-110699910D01*
X148993569Y-110912110D01*
X148942560Y-111164000D01*
X148942560Y-111259657D01*
X148680161Y-111311852D01*
X148680159Y-111311853D01*
X148680160Y-111311853D01*
X148433599Y-111476599D01*
X148237440Y-111672758D01*
X148237440Y-111164000D01*
X148193162Y-110928683D01*
X148054090Y-110712559D01*
X147841890Y-110567569D01*
X147590000Y-110516560D01*
X145921000Y-110516560D01*
X145921000Y-108004050D01*
X146100110Y-108126431D01*
X146100110Y-108126431D01*
G37*
X146100110Y-108126431D02*
X146352000Y-108177440D01*
X148352000Y-108177440D01*
X148587317Y-108133162D01*
X148699421Y-108061025D01*
X148814599Y-108233401D01*
X150338599Y-109757401D01*
X150585160Y-109922148D01*
X150633414Y-109931746D01*
X150876000Y-109980000D01*
X152021000Y-109980000D01*
X152021000Y-110689950D01*
X151841890Y-110567569D01*
X151590000Y-110516560D01*
X149590000Y-110516560D01*
X149354683Y-110560838D01*
X149138559Y-110699910D01*
X148993569Y-110912110D01*
X148942560Y-111164000D01*
X148942560Y-111259657D01*
X148680161Y-111311852D01*
X148680159Y-111311853D01*
X148680160Y-111311853D01*
X148433599Y-111476599D01*
X148237440Y-111672758D01*
X148237440Y-111164000D01*
X148193162Y-110928683D01*
X148054090Y-110712559D01*
X147841890Y-110567569D01*
X147590000Y-110516560D01*
X145921000Y-110516560D01*
X145921000Y-108004050D01*
X146100110Y-108126431D01*
G36*
X160147000Y-98933000D02*
X160167000Y-98933000D01*
X160167000Y-99187000D01*
X160147000Y-99187000D01*
X160147000Y-100546217D01*
X160379026Y-100667358D01*
X160394791Y-100664709D01*
X160470084Y-100628440D01*
X160355162Y-100905201D01*
X160355121Y-100952077D01*
X160244599Y-101062599D01*
X160148408Y-101206560D01*
X160147000Y-101206560D01*
X159911683Y-101250838D01*
X159695559Y-101389910D01*
X159550569Y-101602110D01*
X159499560Y-101854000D01*
X159499560Y-102862157D01*
X159498000Y-102870000D01*
X159499560Y-102877843D01*
X159499560Y-103886000D01*
X159543838Y-104121317D01*
X159682910Y-104337441D01*
X159793041Y-104412690D01*
X159720162Y-104588201D01*
X159719838Y-104960167D01*
X159861883Y-105303943D01*
X160124673Y-105567192D01*
X160468201Y-105709838D01*
X160714850Y-105710053D01*
X160690560Y-105830000D01*
X160690560Y-107484886D01*
X160557401Y-107285599D01*
X159414401Y-106142599D01*
X159167839Y-105977852D01*
X158877000Y-105920000D01*
X158668888Y-105920000D01*
X158669162Y-105605833D01*
X158527117Y-105262057D01*
X158494000Y-105228882D01*
X158494000Y-105029000D01*
X158436148Y-104738161D01*
X158291046Y-104521000D01*
X158495309Y-104521000D01*
X158728698Y-104424327D01*
X158907327Y-104245699D01*
X159004000Y-104012310D01*
X159004000Y-103155750D01*
X158845250Y-102997000D01*
X157734000Y-102997000D01*
X157734000Y-103017000D01*
X157480000Y-103017000D01*
X157480000Y-102997000D01*
X157460000Y-102997000D01*
X157460000Y-102743000D01*
X157480000Y-102743000D01*
X157480000Y-101516189D01*
X157525838Y-101405799D01*
X157525862Y-101377750D01*
X157734000Y-101377750D01*
X157734000Y-102743000D01*
X158845250Y-102743000D01*
X159004000Y-102584250D01*
X159004000Y-101727690D01*
X158907327Y-101494301D01*
X158728698Y-101315673D01*
X158495309Y-101219000D01*
X157892750Y-101219000D01*
X157734000Y-101377750D01*
X157525862Y-101377750D01*
X157526162Y-101033833D01*
X157399521Y-100727337D01*
X157480000Y-100743345D01*
X158053489Y-100629271D01*
X158539670Y-100304415D01*
X158746461Y-99994931D01*
X159117964Y-100410732D01*
X159645209Y-100664709D01*
X159660974Y-100667358D01*
X159893000Y-100546217D01*
X159893000Y-99187000D01*
X159873000Y-99187000D01*
X159873000Y-98933000D01*
X159893000Y-98933000D01*
X159893000Y-98913000D01*
X160147000Y-98913000D01*
X160147000Y-98933000D01*
X160147000Y-98933000D01*
G37*
X160147000Y-98933000D02*
X160167000Y-98933000D01*
X160167000Y-99187000D01*
X160147000Y-99187000D01*
X160147000Y-100546217D01*
X160379026Y-100667358D01*
X160394791Y-100664709D01*
X160470084Y-100628440D01*
X160355162Y-100905201D01*
X160355121Y-100952077D01*
X160244599Y-101062599D01*
X160148408Y-101206560D01*
X160147000Y-101206560D01*
X159911683Y-101250838D01*
X159695559Y-101389910D01*
X159550569Y-101602110D01*
X159499560Y-101854000D01*
X159499560Y-102862157D01*
X159498000Y-102870000D01*
X159499560Y-102877843D01*
X159499560Y-103886000D01*
X159543838Y-104121317D01*
X159682910Y-104337441D01*
X159793041Y-104412690D01*
X159720162Y-104588201D01*
X159719838Y-104960167D01*
X159861883Y-105303943D01*
X160124673Y-105567192D01*
X160468201Y-105709838D01*
X160714850Y-105710053D01*
X160690560Y-105830000D01*
X160690560Y-107484886D01*
X160557401Y-107285599D01*
X159414401Y-106142599D01*
X159167839Y-105977852D01*
X158877000Y-105920000D01*
X158668888Y-105920000D01*
X158669162Y-105605833D01*
X158527117Y-105262057D01*
X158494000Y-105228882D01*
X158494000Y-105029000D01*
X158436148Y-104738161D01*
X158291046Y-104521000D01*
X158495309Y-104521000D01*
X158728698Y-104424327D01*
X158907327Y-104245699D01*
X159004000Y-104012310D01*
X159004000Y-103155750D01*
X158845250Y-102997000D01*
X157734000Y-102997000D01*
X157734000Y-103017000D01*
X157480000Y-103017000D01*
X157480000Y-102997000D01*
X157460000Y-102997000D01*
X157460000Y-102743000D01*
X157480000Y-102743000D01*
X157480000Y-101516189D01*
X157525838Y-101405799D01*
X157525862Y-101377750D01*
X157734000Y-101377750D01*
X157734000Y-102743000D01*
X158845250Y-102743000D01*
X159004000Y-102584250D01*
X159004000Y-101727690D01*
X158907327Y-101494301D01*
X158728698Y-101315673D01*
X158495309Y-101219000D01*
X157892750Y-101219000D01*
X157734000Y-101377750D01*
X157525862Y-101377750D01*
X157526162Y-101033833D01*
X157399521Y-100727337D01*
X157480000Y-100743345D01*
X158053489Y-100629271D01*
X158539670Y-100304415D01*
X158746461Y-99994931D01*
X159117964Y-100410732D01*
X159645209Y-100664709D01*
X159660974Y-100667358D01*
X159893000Y-100546217D01*
X159893000Y-99187000D01*
X159873000Y-99187000D01*
X159873000Y-98933000D01*
X159893000Y-98933000D01*
X159893000Y-98913000D01*
X160147000Y-98913000D01*
X160147000Y-98933000D01*
M02*
