M48
; DRILL file {KiCad 5.1.9+dfsg1-1+deb11u1} date Wed Nov 30 10:07:22 2022
; FORMAT={-:-/ absolute / metric / decimal}
; #@! TF.CreationDate,2022-11-30T10:07:22+01:00
; #@! TF.GenerationSoftware,Kicad,Pcbnew,5.1.9+dfsg1-1+deb11u1
; #@! TF.FileFunction,Plated,1,2,PTH
FMAT,2
METRIC
T1C1.000
%
G90
G05
T1
X146.76Y-106.6
X146.76Y-113.2
X148.1Y-98.7
X148.1Y-124.6
X149.3Y-106.6
X149.3Y-113.2
X150.64Y-98.7
X150.64Y-124.6
X153.18Y-98.7
X153.18Y-124.6
X155.4Y-108.1
X155.4Y-110.64
X155.4Y-113.18
X155.72Y-98.7
X155.72Y-124.6
X157.94Y-108.1
X157.94Y-110.64
X157.94Y-113.18
X158.26Y-98.7
X158.26Y-124.6
X160.8Y-98.7
X160.8Y-124.6
X163.34Y-98.7
X163.34Y-124.6
X165.88Y-98.7
X165.88Y-124.6
T0
M30
