%TF.GenerationSoftware,KiCad,Pcbnew,5.1.9+dfsg1-1+deb11u1*%
%TF.CreationDate,2022-11-30T10:07:17+01:00*%
%TF.ProjectId,A500MPU-Adapter,41353030-4d50-4552-9d41-646170746572,2.0*%
%TF.SameCoordinates,Original*%
%TF.FileFunction,Copper,L1,Top*%
%TF.FilePolarity,Positive*%
%FSLAX46Y46*%
G04 Gerber Fmt 4.6, Leading zero omitted, Abs format (unit mm)*
G04 Created by KiCad (PCBNEW 5.1.9+dfsg1-1+deb11u1) date 2022-11-30 10:07:17*
%MOMM*%
%LPD*%
G01*
G04 APERTURE LIST*
%TA.AperFunction,ComponentPad*%
%ADD10R,1.700000X1.700000*%
%TD*%
%TA.AperFunction,ComponentPad*%
%ADD11O,1.700000X1.700000*%
%TD*%
%TA.AperFunction,ComponentPad*%
%ADD12C,1.700000*%
%TD*%
%TA.AperFunction,Conductor*%
%ADD13C,0.250000*%
%TD*%
%TA.AperFunction,Conductor*%
%ADD14C,0.254000*%
%TD*%
%TA.AperFunction,Conductor*%
%ADD15C,0.100000*%
%TD*%
G04 APERTURE END LIST*
%TO.P,C1,1*%
%TO.N,INUSE*%
%TA.AperFunction,SMDPad,CuDef*%
G36*
G01*
X167087000Y-116374999D02*
X167087000Y-117225001D01*
G75*
G02*
X166837001Y-117475000I-249999J0D01*
G01*
X165761999Y-117475000D01*
G75*
G02*
X165512000Y-117225001I0J249999D01*
G01*
X165512000Y-116374999D01*
G75*
G02*
X165761999Y-116125000I249999J0D01*
G01*
X166837001Y-116125000D01*
G75*
G02*
X167087000Y-116374999I0J-249999D01*
G01*
G37*
%TD.AperFunction*%
%TO.P,C1,2*%
%TO.N,GND*%
%TA.AperFunction,SMDPad,CuDef*%
G36*
G01*
X164212000Y-116374999D02*
X164212000Y-117225001D01*
G75*
G02*
X163962001Y-117475000I-249999J0D01*
G01*
X162886999Y-117475000D01*
G75*
G02*
X162637000Y-117225001I0J249999D01*
G01*
X162637000Y-116374999D01*
G75*
G02*
X162886999Y-116125000I249999J0D01*
G01*
X163962001Y-116125000D01*
G75*
G02*
X164212000Y-116374999I0J-249999D01*
G01*
G37*
%TD.AperFunction*%
%TD*%
%TO.P,C2,1*%
%TO.N,INUSE*%
%TA.AperFunction,SMDPad,CuDef*%
G36*
G01*
X167187000Y-113549999D02*
X167187000Y-114850001D01*
G75*
G02*
X166937001Y-115100000I-249999J0D01*
G01*
X166111999Y-115100000D01*
G75*
G02*
X165862000Y-114850001I0J249999D01*
G01*
X165862000Y-113549999D01*
G75*
G02*
X166111999Y-113300000I249999J0D01*
G01*
X166937001Y-113300000D01*
G75*
G02*
X167187000Y-113549999I0J-249999D01*
G01*
G37*
%TD.AperFunction*%
%TO.P,C2,2*%
%TO.N,GND*%
%TA.AperFunction,SMDPad,CuDef*%
G36*
G01*
X164062000Y-113549999D02*
X164062000Y-114850001D01*
G75*
G02*
X163812001Y-115100000I-249999J0D01*
G01*
X162986999Y-115100000D01*
G75*
G02*
X162737000Y-114850001I0J249999D01*
G01*
X162737000Y-113549999D01*
G75*
G02*
X162986999Y-113300000I249999J0D01*
G01*
X163812001Y-113300000D01*
G75*
G02*
X164062000Y-113549999I0J-249999D01*
G01*
G37*
%TD.AperFunction*%
%TD*%
%TO.P,D1,1*%
%TO.N,GND*%
%TA.AperFunction,SMDPad,CuDef*%
G36*
G01*
X163088000Y-103725000D02*
X163088000Y-102475000D01*
G75*
G02*
X163338000Y-102225000I250000J0D01*
G01*
X164263000Y-102225000D01*
G75*
G02*
X164513000Y-102475000I0J-250000D01*
G01*
X164513000Y-103725000D01*
G75*
G02*
X164263000Y-103975000I-250000J0D01*
G01*
X163338000Y-103975000D01*
G75*
G02*
X163088000Y-103725000I0J250000D01*
G01*
G37*
%TD.AperFunction*%
%TO.P,D1,2*%
%TO.N,Net-(D1-Pad2)*%
%TA.AperFunction,SMDPad,CuDef*%
G36*
G01*
X166063000Y-103725000D02*
X166063000Y-102475000D01*
G75*
G02*
X166313000Y-102225000I250000J0D01*
G01*
X167238000Y-102225000D01*
G75*
G02*
X167488000Y-102475000I0J-250000D01*
G01*
X167488000Y-103725000D01*
G75*
G02*
X167238000Y-103975000I-250000J0D01*
G01*
X166313000Y-103975000D01*
G75*
G02*
X166063000Y-103725000I0J250000D01*
G01*
G37*
%TD.AperFunction*%
%TD*%
%TO.P,D2,1*%
%TO.N,GND*%
%TA.AperFunction,SMDPad,CuDef*%
G36*
G01*
X163000000Y-108925000D02*
X163000000Y-107675000D01*
G75*
G02*
X163250000Y-107425000I250000J0D01*
G01*
X164175000Y-107425000D01*
G75*
G02*
X164425000Y-107675000I0J-250000D01*
G01*
X164425000Y-108925000D01*
G75*
G02*
X164175000Y-109175000I-250000J0D01*
G01*
X163250000Y-109175000D01*
G75*
G02*
X163000000Y-108925000I0J250000D01*
G01*
G37*
%TD.AperFunction*%
%TO.P,D2,2*%
%TO.N,Net-(D2-Pad2)*%
%TA.AperFunction,SMDPad,CuDef*%
G36*
G01*
X165975000Y-108925000D02*
X165975000Y-107675000D01*
G75*
G02*
X166225000Y-107425000I250000J0D01*
G01*
X167150000Y-107425000D01*
G75*
G02*
X167400000Y-107675000I0J-250000D01*
G01*
X167400000Y-108925000D01*
G75*
G02*
X167150000Y-109175000I-250000J0D01*
G01*
X166225000Y-109175000D01*
G75*
G02*
X165975000Y-108925000I0J250000D01*
G01*
G37*
%TD.AperFunction*%
%TD*%
%TO.P,D3,2*%
%TO.N,Net-(D3-Pad2)*%
%TA.AperFunction,SMDPad,CuDef*%
G36*
G01*
X148775000Y-120025000D02*
X148775000Y-118775000D01*
G75*
G02*
X149025000Y-118525000I250000J0D01*
G01*
X149950000Y-118525000D01*
G75*
G02*
X150200000Y-118775000I0J-250000D01*
G01*
X150200000Y-120025000D01*
G75*
G02*
X149950000Y-120275000I-250000J0D01*
G01*
X149025000Y-120275000D01*
G75*
G02*
X148775000Y-120025000I0J250000D01*
G01*
G37*
%TD.AperFunction*%
%TO.P,D3,1*%
%TO.N,GND*%
%TA.AperFunction,SMDPad,CuDef*%
G36*
G01*
X145800000Y-120025000D02*
X145800000Y-118775000D01*
G75*
G02*
X146050000Y-118525000I250000J0D01*
G01*
X146975000Y-118525000D01*
G75*
G02*
X147225000Y-118775000I0J-250000D01*
G01*
X147225000Y-120025000D01*
G75*
G02*
X146975000Y-120275000I-250000J0D01*
G01*
X146050000Y-120275000D01*
G75*
G02*
X145800000Y-120025000I0J250000D01*
G01*
G37*
%TD.AperFunction*%
%TD*%
D10*
%TO.P,P1,1*%
%TO.N,CLOCK*%
X148100000Y-124600000D03*
D11*
%TO.P,P1,2*%
%TO.N,DATA*%
X150640000Y-124600000D03*
%TO.P,P1,3*%
%TO.N,RESET*%
X153180000Y-124600000D03*
%TO.P,P1,4*%
%TO.N,INUSE*%
X155720000Y-124600000D03*
%TO.P,P1,5*%
%TO.N,Net-(P1-Pad5)*%
X158260000Y-124600000D03*
%TO.P,P1,6*%
%TO.N,GND*%
X160800000Y-124600000D03*
%TO.P,P1,7*%
%TO.N,STATUS*%
X163340000Y-124600000D03*
%TO.P,P1,8*%
%TO.N,INUSE*%
X165880000Y-124600000D03*
%TD*%
D10*
%TO.P,P2,1*%
%TO.N,CLOCK*%
X148100000Y-98700000D03*
D11*
%TO.P,P2,2*%
%TO.N,DATA*%
X150640000Y-98700000D03*
%TO.P,P2,3*%
%TO.N,RESET*%
X153180000Y-98700000D03*
%TO.P,P2,4*%
%TO.N,INUSE*%
X155720000Y-98700000D03*
%TO.P,P2,5*%
%TO.N,Net-(P2-Pad5)*%
X158260000Y-98700000D03*
%TO.P,P2,6*%
%TO.N,GND*%
X160800000Y-98700000D03*
%TO.P,P2,7*%
%TO.N,STATUS*%
X163340000Y-98700000D03*
%TO.P,P2,8*%
%TO.N,INUSE*%
X165880000Y-98700000D03*
%TD*%
%TO.P,P3,1*%
%TO.N,CLOCK*%
%TA.AperFunction,ComponentPad*%
G36*
G01*
X154550000Y-108700000D02*
X154550000Y-107500000D01*
G75*
G02*
X154800000Y-107250000I250000J0D01*
G01*
X156000000Y-107250000D01*
G75*
G02*
X156250000Y-107500000I0J-250000D01*
G01*
X156250000Y-108700000D01*
G75*
G02*
X156000000Y-108950000I-250000J0D01*
G01*
X154800000Y-108950000D01*
G75*
G02*
X154550000Y-108700000I0J250000D01*
G01*
G37*
%TD.AperFunction*%
D12*
%TO.P,P3,3*%
%TO.N,GND*%
X155400000Y-110640000D03*
%TO.P,P3,5*%
%TO.N,RESET*%
X155400000Y-113180000D03*
%TO.P,P3,2*%
%TO.N,DATA*%
X157940000Y-108100000D03*
%TO.P,P3,4*%
%TO.N,GND*%
X157940000Y-110640000D03*
%TO.P,P3,6*%
%TO.N,INUSE*%
X157940000Y-113180000D03*
%TD*%
D10*
%TO.P,P4,1*%
%TO.N,Net-(P4-Pad1)*%
X149300000Y-106600000D03*
D11*
%TO.P,P4,2*%
%TO.N,GND*%
X146760000Y-106600000D03*
%TD*%
%TO.P,P5,2*%
%TO.N,GND*%
X146760000Y-113200000D03*
D10*
%TO.P,P5,1*%
%TO.N,Net-(P5-Pad1)*%
X149300000Y-113200000D03*
%TD*%
%TO.P,R1,1*%
%TO.N,STATUS*%
%TA.AperFunction,SMDPad,CuDef*%
G36*
G01*
X163100000Y-106225000D02*
X163100000Y-104975000D01*
G75*
G02*
X163350000Y-104725000I250000J0D01*
G01*
X164150000Y-104725000D01*
G75*
G02*
X164400000Y-104975000I0J-250000D01*
G01*
X164400000Y-106225000D01*
G75*
G02*
X164150000Y-106475000I-250000J0D01*
G01*
X163350000Y-106475000D01*
G75*
G02*
X163100000Y-106225000I0J250000D01*
G01*
G37*
%TD.AperFunction*%
%TO.P,R1,2*%
%TO.N,Net-(D1-Pad2)*%
%TA.AperFunction,SMDPad,CuDef*%
G36*
G01*
X166200000Y-106225000D02*
X166200000Y-104975000D01*
G75*
G02*
X166450000Y-104725000I250000J0D01*
G01*
X167250000Y-104725000D01*
G75*
G02*
X167500000Y-104975000I0J-250000D01*
G01*
X167500000Y-106225000D01*
G75*
G02*
X167250000Y-106475000I-250000J0D01*
G01*
X166450000Y-106475000D01*
G75*
G02*
X166200000Y-106225000I0J250000D01*
G01*
G37*
%TD.AperFunction*%
%TD*%
%TO.P,R2,1*%
%TO.N,INUSE*%
%TA.AperFunction,SMDPad,CuDef*%
G36*
G01*
X163000000Y-111525000D02*
X163000000Y-110275000D01*
G75*
G02*
X163250000Y-110025000I250000J0D01*
G01*
X164050000Y-110025000D01*
G75*
G02*
X164300000Y-110275000I0J-250000D01*
G01*
X164300000Y-111525000D01*
G75*
G02*
X164050000Y-111775000I-250000J0D01*
G01*
X163250000Y-111775000D01*
G75*
G02*
X163000000Y-111525000I0J250000D01*
G01*
G37*
%TD.AperFunction*%
%TO.P,R2,2*%
%TO.N,Net-(D2-Pad2)*%
%TA.AperFunction,SMDPad,CuDef*%
G36*
G01*
X166100000Y-111525000D02*
X166100000Y-110275000D01*
G75*
G02*
X166350000Y-110025000I250000J0D01*
G01*
X167150000Y-110025000D01*
G75*
G02*
X167400000Y-110275000I0J-250000D01*
G01*
X167400000Y-111525000D01*
G75*
G02*
X167150000Y-111775000I-250000J0D01*
G01*
X166350000Y-111775000D01*
G75*
G02*
X166100000Y-111525000I0J250000D01*
G01*
G37*
%TD.AperFunction*%
%TD*%
%TO.P,R3,2*%
%TO.N,Net-(D3-Pad2)*%
%TA.AperFunction,SMDPad,CuDef*%
G36*
G01*
X149000000Y-117325000D02*
X149000000Y-116075000D01*
G75*
G02*
X149250000Y-115825000I250000J0D01*
G01*
X150050000Y-115825000D01*
G75*
G02*
X150300000Y-116075000I0J-250000D01*
G01*
X150300000Y-117325000D01*
G75*
G02*
X150050000Y-117575000I-250000J0D01*
G01*
X149250000Y-117575000D01*
G75*
G02*
X149000000Y-117325000I0J250000D01*
G01*
G37*
%TD.AperFunction*%
%TO.P,R3,1*%
%TO.N,INUSE*%
%TA.AperFunction,SMDPad,CuDef*%
G36*
G01*
X145900000Y-117325000D02*
X145900000Y-116075000D01*
G75*
G02*
X146150000Y-115825000I250000J0D01*
G01*
X146950000Y-115825000D01*
G75*
G02*
X147200000Y-116075000I0J-250000D01*
G01*
X147200000Y-117325000D01*
G75*
G02*
X146950000Y-117575000I-250000J0D01*
G01*
X146150000Y-117575000D01*
G75*
G02*
X145900000Y-117325000I0J250000D01*
G01*
G37*
%TD.AperFunction*%
%TD*%
%TO.P,R4,2*%
%TO.N,Net-(P4-Pad1)*%
%TA.AperFunction,SMDPad,CuDef*%
G36*
G01*
X148900000Y-103925000D02*
X148900000Y-102675000D01*
G75*
G02*
X149150000Y-102425000I250000J0D01*
G01*
X149950000Y-102425000D01*
G75*
G02*
X150200000Y-102675000I0J-250000D01*
G01*
X150200000Y-103925000D01*
G75*
G02*
X149950000Y-104175000I-250000J0D01*
G01*
X149150000Y-104175000D01*
G75*
G02*
X148900000Y-103925000I0J250000D01*
G01*
G37*
%TD.AperFunction*%
%TO.P,R4,1*%
%TO.N,STATUS*%
%TA.AperFunction,SMDPad,CuDef*%
G36*
G01*
X145800000Y-103925000D02*
X145800000Y-102675000D01*
G75*
G02*
X146050000Y-102425000I250000J0D01*
G01*
X146850000Y-102425000D01*
G75*
G02*
X147100000Y-102675000I0J-250000D01*
G01*
X147100000Y-103925000D01*
G75*
G02*
X146850000Y-104175000I-250000J0D01*
G01*
X146050000Y-104175000D01*
G75*
G02*
X145800000Y-103925000I0J250000D01*
G01*
G37*
%TD.AperFunction*%
%TD*%
%TO.P,R5,1*%
%TO.N,INUSE*%
%TA.AperFunction,SMDPad,CuDef*%
G36*
G01*
X145750000Y-110625000D02*
X145750000Y-109375000D01*
G75*
G02*
X146000000Y-109125000I250000J0D01*
G01*
X146800000Y-109125000D01*
G75*
G02*
X147050000Y-109375000I0J-250000D01*
G01*
X147050000Y-110625000D01*
G75*
G02*
X146800000Y-110875000I-250000J0D01*
G01*
X146000000Y-110875000D01*
G75*
G02*
X145750000Y-110625000I0J250000D01*
G01*
G37*
%TD.AperFunction*%
%TO.P,R5,2*%
%TO.N,Net-(P5-Pad1)*%
%TA.AperFunction,SMDPad,CuDef*%
G36*
G01*
X148850000Y-110625000D02*
X148850000Y-109375000D01*
G75*
G02*
X149100000Y-109125000I250000J0D01*
G01*
X149900000Y-109125000D01*
G75*
G02*
X150150000Y-109375000I0J-250000D01*
G01*
X150150000Y-110625000D01*
G75*
G02*
X149900000Y-110875000I-250000J0D01*
G01*
X149100000Y-110875000D01*
G75*
G02*
X148850000Y-110625000I0J250000D01*
G01*
G37*
%TD.AperFunction*%
%TD*%
D13*
%TO.N,GND*%
X161372500Y-110640000D02*
X163712500Y-108300000D01*
X157940000Y-110640000D02*
X161372500Y-110640000D01*
X161372500Y-110640000D02*
X161372500Y-112173000D01*
X161372500Y-112173000D02*
X163399500Y-114200000D01*
X163424500Y-116800000D02*
X163424500Y-114225000D01*
X163424500Y-114225000D02*
X163399500Y-114200000D01*
X164600000Y-97800000D02*
X164600000Y-102300500D01*
X164600000Y-102300500D02*
X163800500Y-103100000D01*
X163900000Y-97100000D02*
X164600000Y-97800000D01*
X162400000Y-97100000D02*
X163900000Y-97100000D01*
X160800000Y-98700000D02*
X162400000Y-97100000D01*
X148000000Y-117912500D02*
X146512500Y-119400000D01*
X148000000Y-115615100D02*
X148000000Y-117912500D01*
X146760000Y-114375100D02*
X148000000Y-115615100D01*
X146760000Y-113200000D02*
X146760000Y-114375100D01*
X164900000Y-104199500D02*
X163800500Y-103100000D01*
X164900000Y-107112500D02*
X164900000Y-104199500D01*
X163712500Y-108300000D02*
X164900000Y-107112500D01*
X164600000Y-117975500D02*
X163424500Y-116800000D01*
X164600000Y-125400000D02*
X164600000Y-117975500D01*
X164100000Y-125900000D02*
X164600000Y-125400000D01*
X162700000Y-125900000D02*
X164100000Y-125900000D01*
X162100000Y-125300000D02*
X162700000Y-125900000D01*
X162100000Y-124600000D02*
X162100000Y-125300000D01*
X160800000Y-124600000D02*
X162100000Y-124600000D01*
%TO.N,Net-(D1-Pad2)*%
X166850000Y-105600000D02*
X166775500Y-105525500D01*
X166775500Y-105525500D02*
X166775500Y-103100000D01*
%TO.N,Net-(D2-Pad2)*%
X166750000Y-110900000D02*
X166687500Y-110837500D01*
X166687500Y-110837500D02*
X166687500Y-108300000D01*
%TO.N,Net-(D3-Pad2)*%
X149650000Y-116700000D02*
X149487500Y-116862500D01*
X149487500Y-116862500D02*
X149487500Y-119400000D01*
%TO.N,CLOCK*%
X150144245Y-121380655D02*
X148100000Y-123424900D01*
X148100000Y-123424900D02*
X148100000Y-124600000D01*
X155400000Y-108100000D02*
X151069900Y-112430100D01*
X150144245Y-121380655D02*
X150519345Y-121380655D01*
X151069900Y-120830100D02*
X151069900Y-112430100D01*
X150519345Y-121380655D02*
X151069900Y-120830100D01*
%TO.N,DATA*%
X156670000Y-109370000D02*
X156670000Y-118570000D01*
X156670000Y-118570000D02*
X150640000Y-124600000D01*
X157940000Y-108100000D02*
X156670000Y-109370000D01*
%TO.N,STATUS*%
X160589200Y-102045800D02*
X162164900Y-100470100D01*
X163750000Y-105600000D02*
X160589200Y-102439200D01*
X160589200Y-102439200D02*
X160589200Y-102045800D01*
X162164900Y-99875100D02*
X163340000Y-98700000D01*
X162164900Y-100470100D02*
X162164900Y-99875100D01*
X159943400Y-101400000D02*
X160589200Y-102045800D01*
X148350000Y-101400000D02*
X159943400Y-101400000D01*
X146450000Y-103300000D02*
X148350000Y-101400000D01*
%TO.N,INUSE*%
X166524500Y-114200000D02*
X163650000Y-111325500D01*
X163650000Y-111325500D02*
X163650000Y-110900000D01*
X166299500Y-116800000D02*
X166299500Y-114425000D01*
X166299500Y-114425000D02*
X166524500Y-114200000D01*
X163650000Y-110900000D02*
X165393100Y-109156900D01*
X165393100Y-109156900D02*
X165393100Y-100362000D01*
X165393100Y-100362000D02*
X165880000Y-99875100D01*
X165880000Y-98700000D02*
X165880000Y-99875100D01*
X165880000Y-124600000D02*
X165880000Y-123424900D01*
X165880000Y-123424900D02*
X166299500Y-123005400D01*
X166299500Y-123005400D02*
X166299500Y-116800000D01*
X155720000Y-124600000D02*
X155720000Y-123424900D01*
X157940000Y-113180000D02*
X157940000Y-121204900D01*
X157940000Y-121204900D02*
X155720000Y-123424900D01*
X145400000Y-111000000D02*
X146400000Y-110000000D01*
X145400000Y-115550000D02*
X145400000Y-111000000D01*
X146550000Y-116700000D02*
X145400000Y-115550000D01*
X154805012Y-124600000D02*
X155720000Y-124600000D01*
X154805012Y-125350401D02*
X154805012Y-124600000D01*
X146525012Y-126225012D02*
X153930401Y-126225012D01*
X153930401Y-126225012D02*
X154805012Y-125350401D01*
X145200000Y-124900000D02*
X146525012Y-126225012D01*
X145200000Y-118050000D02*
X145200000Y-124900000D01*
X146550000Y-116700000D02*
X145200000Y-118050000D01*
%TO.N,Net-(P4-Pad1)*%
X149550000Y-103300000D02*
X149300000Y-103550000D01*
X149300000Y-103550000D02*
X149300000Y-106600000D01*
%TO.N,Net-(P5-Pad1)*%
X149500000Y-110000000D02*
X149300000Y-110200000D01*
X149300000Y-110200000D02*
X149300000Y-113200000D01*
%TD*%
D14*
%TO.N,GND*%
X168200000Y-126290000D02*
X154940215Y-126290000D01*
X155227050Y-126003165D01*
X155286842Y-126027932D01*
X155573740Y-126085000D01*
X155866260Y-126085000D01*
X156153158Y-126027932D01*
X156423411Y-125915990D01*
X156666632Y-125753475D01*
X156873475Y-125546632D01*
X156990000Y-125372240D01*
X157106525Y-125546632D01*
X157313368Y-125753475D01*
X157556589Y-125915990D01*
X157826842Y-126027932D01*
X158113740Y-126085000D01*
X158406260Y-126085000D01*
X158693158Y-126027932D01*
X158963411Y-125915990D01*
X159206632Y-125753475D01*
X159413475Y-125546632D01*
X159535195Y-125364466D01*
X159604822Y-125481355D01*
X159799731Y-125697588D01*
X160033080Y-125871641D01*
X160295901Y-125996825D01*
X160443110Y-126041476D01*
X160673000Y-125920155D01*
X160673000Y-124727000D01*
X160653000Y-124727000D01*
X160653000Y-124473000D01*
X160673000Y-124473000D01*
X160673000Y-123279845D01*
X160443110Y-123158524D01*
X160295901Y-123203175D01*
X160033080Y-123328359D01*
X159799731Y-123502412D01*
X159604822Y-123718645D01*
X159535195Y-123835534D01*
X159413475Y-123653368D01*
X159206632Y-123446525D01*
X158963411Y-123284010D01*
X158693158Y-123172068D01*
X158406260Y-123115000D01*
X158113740Y-123115000D01*
X157826842Y-123172068D01*
X157556589Y-123284010D01*
X157313368Y-123446525D01*
X157106525Y-123653368D01*
X156990000Y-123827760D01*
X156873475Y-123653368D01*
X156719904Y-123499797D01*
X158451003Y-121768699D01*
X158480001Y-121744901D01*
X158539090Y-121672901D01*
X158574974Y-121629177D01*
X158645546Y-121497147D01*
X158655275Y-121465074D01*
X158689003Y-121353886D01*
X158700000Y-121242233D01*
X158700000Y-121242224D01*
X158703676Y-121204901D01*
X158700000Y-121167578D01*
X158700000Y-117475000D01*
X161998928Y-117475000D01*
X162011188Y-117599482D01*
X162047498Y-117719180D01*
X162106463Y-117829494D01*
X162185815Y-117926185D01*
X162282506Y-118005537D01*
X162392820Y-118064502D01*
X162512518Y-118100812D01*
X162637000Y-118113072D01*
X163138750Y-118110000D01*
X163297500Y-117951250D01*
X163297500Y-116927000D01*
X163551500Y-116927000D01*
X163551500Y-117951250D01*
X163710250Y-118110000D01*
X164212000Y-118113072D01*
X164336482Y-118100812D01*
X164456180Y-118064502D01*
X164566494Y-118005537D01*
X164663185Y-117926185D01*
X164742537Y-117829494D01*
X164801502Y-117719180D01*
X164837812Y-117599482D01*
X164850072Y-117475000D01*
X164847000Y-117085750D01*
X164688250Y-116927000D01*
X163551500Y-116927000D01*
X163297500Y-116927000D01*
X162160750Y-116927000D01*
X162002000Y-117085750D01*
X161998928Y-117475000D01*
X158700000Y-117475000D01*
X158700000Y-116125000D01*
X161998928Y-116125000D01*
X162002000Y-116514250D01*
X162160750Y-116673000D01*
X163297500Y-116673000D01*
X163297500Y-115648750D01*
X163248750Y-115600000D01*
X163272500Y-115576250D01*
X163272500Y-114327000D01*
X163526500Y-114327000D01*
X163526500Y-115576250D01*
X163575250Y-115625000D01*
X163551500Y-115648750D01*
X163551500Y-116673000D01*
X164688250Y-116673000D01*
X164847000Y-116514250D01*
X164850072Y-116125000D01*
X164837812Y-116000518D01*
X164801502Y-115880820D01*
X164742537Y-115770506D01*
X164663185Y-115673815D01*
X164566494Y-115594463D01*
X164502276Y-115560137D01*
X164513185Y-115551185D01*
X164592537Y-115454494D01*
X164651502Y-115344180D01*
X164687812Y-115224482D01*
X164700072Y-115100000D01*
X164697000Y-114485750D01*
X164538250Y-114327000D01*
X163526500Y-114327000D01*
X163272500Y-114327000D01*
X162260750Y-114327000D01*
X162102000Y-114485750D01*
X162098928Y-115100000D01*
X162111188Y-115224482D01*
X162147498Y-115344180D01*
X162206463Y-115454494D01*
X162285815Y-115551185D01*
X162316445Y-115576322D01*
X162282506Y-115594463D01*
X162185815Y-115673815D01*
X162106463Y-115770506D01*
X162047498Y-115880820D01*
X162011188Y-116000518D01*
X161998928Y-116125000D01*
X158700000Y-116125000D01*
X158700000Y-114458178D01*
X158886632Y-114333475D01*
X159093475Y-114126632D01*
X159255990Y-113883411D01*
X159367932Y-113613158D01*
X159425000Y-113326260D01*
X159425000Y-113300000D01*
X162098928Y-113300000D01*
X162102000Y-113914250D01*
X162260750Y-114073000D01*
X163272500Y-114073000D01*
X163272500Y-112823750D01*
X163113750Y-112665000D01*
X162737000Y-112661928D01*
X162612518Y-112674188D01*
X162492820Y-112710498D01*
X162382506Y-112769463D01*
X162285815Y-112848815D01*
X162206463Y-112945506D01*
X162147498Y-113055820D01*
X162111188Y-113175518D01*
X162098928Y-113300000D01*
X159425000Y-113300000D01*
X159425000Y-113033740D01*
X159367932Y-112746842D01*
X159255990Y-112476589D01*
X159093475Y-112233368D01*
X158886632Y-112026525D01*
X158713271Y-111910689D01*
X158788792Y-111668397D01*
X157940000Y-110819605D01*
X157925858Y-110833748D01*
X157746253Y-110654143D01*
X157760395Y-110640000D01*
X158119605Y-110640000D01*
X158968397Y-111488792D01*
X159217472Y-111411157D01*
X159343371Y-111147117D01*
X159415339Y-110863589D01*
X159430611Y-110571469D01*
X159388599Y-110281981D01*
X159290919Y-110006253D01*
X159217472Y-109868843D01*
X158968397Y-109791208D01*
X158119605Y-110640000D01*
X157760395Y-110640000D01*
X157746253Y-110625858D01*
X157925858Y-110446253D01*
X157940000Y-110460395D01*
X158788792Y-109611603D01*
X158713271Y-109369311D01*
X158886632Y-109253475D01*
X159093475Y-109046632D01*
X159255990Y-108803411D01*
X159367932Y-108533158D01*
X159425000Y-108246260D01*
X159425000Y-107953740D01*
X159367932Y-107666842D01*
X159255990Y-107396589D01*
X159093475Y-107153368D01*
X158886632Y-106946525D01*
X158643411Y-106784010D01*
X158373158Y-106672068D01*
X158086260Y-106615000D01*
X157793740Y-106615000D01*
X157506842Y-106672068D01*
X157236589Y-106784010D01*
X156993368Y-106946525D01*
X156806285Y-107133608D01*
X156738405Y-107006614D01*
X156627962Y-106872038D01*
X156493386Y-106761595D01*
X156339850Y-106679528D01*
X156173254Y-106628992D01*
X156000000Y-106611928D01*
X154800000Y-106611928D01*
X154626746Y-106628992D01*
X154460150Y-106679528D01*
X154306614Y-106761595D01*
X154172038Y-106872038D01*
X154061595Y-107006614D01*
X153979528Y-107160150D01*
X153928992Y-107326746D01*
X153911928Y-107500000D01*
X153911928Y-108513270D01*
X150560101Y-111865098D01*
X150504494Y-111819463D01*
X150394180Y-111760498D01*
X150274482Y-111724188D01*
X150150000Y-111711928D01*
X150060000Y-111711928D01*
X150060000Y-111497313D01*
X150073254Y-111496008D01*
X150239850Y-111445472D01*
X150393386Y-111363405D01*
X150527962Y-111252962D01*
X150638405Y-111118386D01*
X150720472Y-110964850D01*
X150771008Y-110798254D01*
X150788072Y-110625000D01*
X150788072Y-109375000D01*
X150771008Y-109201746D01*
X150720472Y-109035150D01*
X150638405Y-108881614D01*
X150527962Y-108747038D01*
X150393386Y-108636595D01*
X150239850Y-108554528D01*
X150073254Y-108503992D01*
X149900000Y-108486928D01*
X149100000Y-108486928D01*
X148926746Y-108503992D01*
X148760150Y-108554528D01*
X148606614Y-108636595D01*
X148472038Y-108747038D01*
X148361595Y-108881614D01*
X148279528Y-109035150D01*
X148228992Y-109201746D01*
X148211928Y-109375000D01*
X148211928Y-110625000D01*
X148228992Y-110798254D01*
X148279528Y-110964850D01*
X148361595Y-111118386D01*
X148472038Y-111252962D01*
X148540000Y-111308737D01*
X148540001Y-111711928D01*
X148450000Y-111711928D01*
X148325518Y-111724188D01*
X148205820Y-111760498D01*
X148095506Y-111819463D01*
X147998815Y-111898815D01*
X147919463Y-111995506D01*
X147860498Y-112105820D01*
X147836034Y-112186466D01*
X147760269Y-112102412D01*
X147526920Y-111928359D01*
X147264099Y-111803175D01*
X147116890Y-111758524D01*
X146887000Y-111879845D01*
X146887000Y-113073000D01*
X146907000Y-113073000D01*
X146907000Y-113327000D01*
X146887000Y-113327000D01*
X146887000Y-114520155D01*
X147116890Y-114641476D01*
X147264099Y-114596825D01*
X147526920Y-114471641D01*
X147760269Y-114297588D01*
X147836034Y-114213534D01*
X147860498Y-114294180D01*
X147919463Y-114404494D01*
X147998815Y-114501185D01*
X148095506Y-114580537D01*
X148205820Y-114639502D01*
X148325518Y-114675812D01*
X148450000Y-114688072D01*
X150150000Y-114688072D01*
X150274482Y-114675812D01*
X150309901Y-114665068D01*
X150309901Y-115230276D01*
X150223254Y-115203992D01*
X150050000Y-115186928D01*
X149250000Y-115186928D01*
X149076746Y-115203992D01*
X148910150Y-115254528D01*
X148756614Y-115336595D01*
X148622038Y-115447038D01*
X148511595Y-115581614D01*
X148429528Y-115735150D01*
X148378992Y-115901746D01*
X148361928Y-116075000D01*
X148361928Y-117325000D01*
X148378992Y-117498254D01*
X148429528Y-117664850D01*
X148511595Y-117818386D01*
X148622038Y-117952962D01*
X148648086Y-117974339D01*
X148531614Y-118036595D01*
X148397038Y-118147038D01*
X148286595Y-118281614D01*
X148204528Y-118435150D01*
X148153992Y-118601746D01*
X148136928Y-118775000D01*
X148136928Y-120025000D01*
X148153992Y-120198254D01*
X148204528Y-120364850D01*
X148286595Y-120518386D01*
X148397038Y-120652962D01*
X148531614Y-120763405D01*
X148685150Y-120845472D01*
X148851746Y-120896008D01*
X149025000Y-120913072D01*
X149537026Y-120913072D01*
X147589003Y-122861096D01*
X147559999Y-122884899D01*
X147504871Y-122952074D01*
X147465026Y-123000624D01*
X147442519Y-123042732D01*
X147405532Y-123111928D01*
X147250000Y-123111928D01*
X147125518Y-123124188D01*
X147005820Y-123160498D01*
X146895506Y-123219463D01*
X146798815Y-123298815D01*
X146719463Y-123395506D01*
X146660498Y-123505820D01*
X146624188Y-123625518D01*
X146611928Y-123750000D01*
X146611928Y-125237126D01*
X145960000Y-124585199D01*
X145960000Y-120911920D01*
X146226750Y-120910000D01*
X146385500Y-120751250D01*
X146385500Y-119527000D01*
X146639500Y-119527000D01*
X146639500Y-120751250D01*
X146798250Y-120910000D01*
X147225000Y-120913072D01*
X147349482Y-120900812D01*
X147469180Y-120864502D01*
X147579494Y-120805537D01*
X147676185Y-120726185D01*
X147755537Y-120629494D01*
X147814502Y-120519180D01*
X147850812Y-120399482D01*
X147863072Y-120275000D01*
X147860000Y-119685750D01*
X147701250Y-119527000D01*
X146639500Y-119527000D01*
X146385500Y-119527000D01*
X146365500Y-119527000D01*
X146365500Y-119273000D01*
X146385500Y-119273000D01*
X146385500Y-119253000D01*
X146639500Y-119253000D01*
X146639500Y-119273000D01*
X147701250Y-119273000D01*
X147860000Y-119114250D01*
X147863072Y-118525000D01*
X147850812Y-118400518D01*
X147814502Y-118280820D01*
X147755537Y-118170506D01*
X147676185Y-118073815D01*
X147579494Y-117994463D01*
X147547943Y-117977598D01*
X147577962Y-117952962D01*
X147688405Y-117818386D01*
X147770472Y-117664850D01*
X147821008Y-117498254D01*
X147838072Y-117325000D01*
X147838072Y-116075000D01*
X147821008Y-115901746D01*
X147770472Y-115735150D01*
X147688405Y-115581614D01*
X147577962Y-115447038D01*
X147443386Y-115336595D01*
X147289850Y-115254528D01*
X147123254Y-115203992D01*
X146950000Y-115186928D01*
X146160000Y-115186928D01*
X146160000Y-114551146D01*
X146255901Y-114596825D01*
X146403110Y-114641476D01*
X146633000Y-114520155D01*
X146633000Y-113327000D01*
X146613000Y-113327000D01*
X146613000Y-113073000D01*
X146633000Y-113073000D01*
X146633000Y-111879845D01*
X146403110Y-111758524D01*
X146255901Y-111803175D01*
X146160000Y-111848854D01*
X146160000Y-111513072D01*
X146800000Y-111513072D01*
X146973254Y-111496008D01*
X147139850Y-111445472D01*
X147293386Y-111363405D01*
X147427962Y-111252962D01*
X147538405Y-111118386D01*
X147620472Y-110964850D01*
X147671008Y-110798254D01*
X147688072Y-110625000D01*
X147688072Y-109375000D01*
X147671008Y-109201746D01*
X147620472Y-109035150D01*
X147538405Y-108881614D01*
X147427962Y-108747038D01*
X147293386Y-108636595D01*
X147139850Y-108554528D01*
X146973254Y-108503992D01*
X146800000Y-108486928D01*
X146000000Y-108486928D01*
X145826746Y-108503992D01*
X145660150Y-108554528D01*
X145506614Y-108636595D01*
X145490000Y-108650230D01*
X145490000Y-107355745D01*
X145564822Y-107481355D01*
X145759731Y-107697588D01*
X145993080Y-107871641D01*
X146255901Y-107996825D01*
X146403110Y-108041476D01*
X146633000Y-107920155D01*
X146633000Y-106727000D01*
X146613000Y-106727000D01*
X146613000Y-106473000D01*
X146633000Y-106473000D01*
X146633000Y-105279845D01*
X146403110Y-105158524D01*
X146255901Y-105203175D01*
X145993080Y-105328359D01*
X145759731Y-105502412D01*
X145564822Y-105718645D01*
X145490000Y-105844255D01*
X145490000Y-104608737D01*
X145556614Y-104663405D01*
X145710150Y-104745472D01*
X145876746Y-104796008D01*
X146050000Y-104813072D01*
X146850000Y-104813072D01*
X147023254Y-104796008D01*
X147189850Y-104745472D01*
X147343386Y-104663405D01*
X147477962Y-104552962D01*
X147588405Y-104418386D01*
X147670472Y-104264850D01*
X147721008Y-104098254D01*
X147738072Y-103925000D01*
X147738072Y-103086729D01*
X148274178Y-102550624D01*
X148261928Y-102675000D01*
X148261928Y-103925000D01*
X148278992Y-104098254D01*
X148329528Y-104264850D01*
X148411595Y-104418386D01*
X148522038Y-104552962D01*
X148540000Y-104567703D01*
X148540001Y-105111928D01*
X148450000Y-105111928D01*
X148325518Y-105124188D01*
X148205820Y-105160498D01*
X148095506Y-105219463D01*
X147998815Y-105298815D01*
X147919463Y-105395506D01*
X147860498Y-105505820D01*
X147836034Y-105586466D01*
X147760269Y-105502412D01*
X147526920Y-105328359D01*
X147264099Y-105203175D01*
X147116890Y-105158524D01*
X146887000Y-105279845D01*
X146887000Y-106473000D01*
X146907000Y-106473000D01*
X146907000Y-106727000D01*
X146887000Y-106727000D01*
X146887000Y-107920155D01*
X147116890Y-108041476D01*
X147264099Y-107996825D01*
X147526920Y-107871641D01*
X147760269Y-107697588D01*
X147836034Y-107613534D01*
X147860498Y-107694180D01*
X147919463Y-107804494D01*
X147998815Y-107901185D01*
X148095506Y-107980537D01*
X148205820Y-108039502D01*
X148325518Y-108075812D01*
X148450000Y-108088072D01*
X150150000Y-108088072D01*
X150274482Y-108075812D01*
X150394180Y-108039502D01*
X150504494Y-107980537D01*
X150601185Y-107901185D01*
X150680537Y-107804494D01*
X150739502Y-107694180D01*
X150775812Y-107574482D01*
X150788072Y-107450000D01*
X150788072Y-105750000D01*
X150775812Y-105625518D01*
X150739502Y-105505820D01*
X150680537Y-105395506D01*
X150601185Y-105298815D01*
X150504494Y-105219463D01*
X150394180Y-105160498D01*
X150274482Y-105124188D01*
X150150000Y-105111928D01*
X150060000Y-105111928D01*
X150060000Y-104802238D01*
X150123254Y-104796008D01*
X150289850Y-104745472D01*
X150443386Y-104663405D01*
X150577962Y-104552962D01*
X150688405Y-104418386D01*
X150770472Y-104264850D01*
X150821008Y-104098254D01*
X150838072Y-103925000D01*
X150838072Y-102675000D01*
X150821008Y-102501746D01*
X150770472Y-102335150D01*
X150688405Y-102181614D01*
X150670667Y-102160000D01*
X159628599Y-102160000D01*
X159829200Y-102360602D01*
X159829200Y-102401878D01*
X159825524Y-102439200D01*
X159829200Y-102476522D01*
X159829200Y-102476532D01*
X159840197Y-102588185D01*
X159868283Y-102680774D01*
X159883654Y-102731446D01*
X159954226Y-102863476D01*
X159964278Y-102875724D01*
X160049199Y-102979201D01*
X160078203Y-103003004D01*
X162461928Y-105386730D01*
X162461928Y-106225000D01*
X162478992Y-106398254D01*
X162529528Y-106564850D01*
X162611595Y-106718386D01*
X162722038Y-106852962D01*
X162722476Y-106853321D01*
X162645506Y-106894463D01*
X162548815Y-106973815D01*
X162469463Y-107070506D01*
X162410498Y-107180820D01*
X162374188Y-107300518D01*
X162361928Y-107425000D01*
X162365000Y-108014250D01*
X162523750Y-108173000D01*
X163585500Y-108173000D01*
X163585500Y-108153000D01*
X163839500Y-108153000D01*
X163839500Y-108173000D01*
X163859500Y-108173000D01*
X163859500Y-108427000D01*
X163839500Y-108427000D01*
X163839500Y-108447000D01*
X163585500Y-108447000D01*
X163585500Y-108427000D01*
X162523750Y-108427000D01*
X162365000Y-108585750D01*
X162361928Y-109175000D01*
X162374188Y-109299482D01*
X162410498Y-109419180D01*
X162469463Y-109529494D01*
X162548815Y-109626185D01*
X162602795Y-109670485D01*
X162511595Y-109781614D01*
X162429528Y-109935150D01*
X162378992Y-110101746D01*
X162361928Y-110275000D01*
X162361928Y-111525000D01*
X162378992Y-111698254D01*
X162429528Y-111864850D01*
X162511595Y-112018386D01*
X162622038Y-112152962D01*
X162756614Y-112263405D01*
X162910150Y-112345472D01*
X163076746Y-112396008D01*
X163250000Y-112413072D01*
X163662771Y-112413072D01*
X163912843Y-112663144D01*
X163685250Y-112665000D01*
X163526500Y-112823750D01*
X163526500Y-114073000D01*
X164538250Y-114073000D01*
X164697000Y-113914250D01*
X164699324Y-113449625D01*
X165223928Y-113974230D01*
X165223928Y-114850001D01*
X165240992Y-115023255D01*
X165291528Y-115189851D01*
X165373595Y-115343387D01*
X165484038Y-115477962D01*
X165535454Y-115520158D01*
X165422149Y-115554528D01*
X165268613Y-115636595D01*
X165134038Y-115747038D01*
X165023595Y-115881613D01*
X164941528Y-116035149D01*
X164890992Y-116201745D01*
X164873928Y-116374999D01*
X164873928Y-117225001D01*
X164890992Y-117398255D01*
X164941528Y-117564851D01*
X165023595Y-117718387D01*
X165134038Y-117852962D01*
X165268613Y-117963405D01*
X165422149Y-118045472D01*
X165539501Y-118081070D01*
X165539500Y-122690599D01*
X165368998Y-122861101D01*
X165340000Y-122884899D01*
X165316202Y-122913897D01*
X165316201Y-122913898D01*
X165245026Y-123000624D01*
X165174454Y-123132654D01*
X165153063Y-123203175D01*
X165130998Y-123275914D01*
X165126933Y-123317189D01*
X164933368Y-123446525D01*
X164726525Y-123653368D01*
X164610000Y-123827760D01*
X164493475Y-123653368D01*
X164286632Y-123446525D01*
X164043411Y-123284010D01*
X163773158Y-123172068D01*
X163486260Y-123115000D01*
X163193740Y-123115000D01*
X162906842Y-123172068D01*
X162636589Y-123284010D01*
X162393368Y-123446525D01*
X162186525Y-123653368D01*
X162064805Y-123835534D01*
X161995178Y-123718645D01*
X161800269Y-123502412D01*
X161566920Y-123328359D01*
X161304099Y-123203175D01*
X161156890Y-123158524D01*
X160927000Y-123279845D01*
X160927000Y-124473000D01*
X160947000Y-124473000D01*
X160947000Y-124727000D01*
X160927000Y-124727000D01*
X160927000Y-125920155D01*
X161156890Y-126041476D01*
X161304099Y-125996825D01*
X161566920Y-125871641D01*
X161800269Y-125697588D01*
X161995178Y-125481355D01*
X162064805Y-125364466D01*
X162186525Y-125546632D01*
X162393368Y-125753475D01*
X162636589Y-125915990D01*
X162906842Y-126027932D01*
X163193740Y-126085000D01*
X163486260Y-126085000D01*
X163773158Y-126027932D01*
X164043411Y-125915990D01*
X164286632Y-125753475D01*
X164493475Y-125546632D01*
X164610000Y-125372240D01*
X164726525Y-125546632D01*
X164933368Y-125753475D01*
X165176589Y-125915990D01*
X165446842Y-126027932D01*
X165733740Y-126085000D01*
X166026260Y-126085000D01*
X166313158Y-126027932D01*
X166583411Y-125915990D01*
X166826632Y-125753475D01*
X167033475Y-125546632D01*
X167195990Y-125303411D01*
X167307932Y-125033158D01*
X167365000Y-124746260D01*
X167365000Y-124453740D01*
X167307932Y-124166842D01*
X167195990Y-123896589D01*
X167033475Y-123653368D01*
X166878269Y-123498162D01*
X166934474Y-123429676D01*
X167005046Y-123297647D01*
X167048503Y-123154386D01*
X167059500Y-123042733D01*
X167059500Y-123042732D01*
X167063177Y-123005400D01*
X167059500Y-122968067D01*
X167059500Y-118081070D01*
X167176851Y-118045472D01*
X167330387Y-117963405D01*
X167464962Y-117852962D01*
X167575405Y-117718387D01*
X167657472Y-117564851D01*
X167708008Y-117398255D01*
X167725072Y-117225001D01*
X167725072Y-116374999D01*
X167708008Y-116201745D01*
X167657472Y-116035149D01*
X167575405Y-115881613D01*
X167464962Y-115747038D01*
X167334269Y-115639781D01*
X167430387Y-115588405D01*
X167564962Y-115477962D01*
X167675405Y-115343387D01*
X167757472Y-115189851D01*
X167808008Y-115023255D01*
X167825072Y-114850001D01*
X167825072Y-113549999D01*
X167808008Y-113376745D01*
X167757472Y-113210149D01*
X167675405Y-113056613D01*
X167564962Y-112922038D01*
X167430387Y-112811595D01*
X167276851Y-112729528D01*
X167110255Y-112678992D01*
X166937001Y-112661928D01*
X166111999Y-112661928D01*
X166065782Y-112666480D01*
X164936837Y-111537536D01*
X164938072Y-111525000D01*
X164938072Y-110686729D01*
X165474178Y-110150624D01*
X165461928Y-110275000D01*
X165461928Y-111525000D01*
X165478992Y-111698254D01*
X165529528Y-111864850D01*
X165611595Y-112018386D01*
X165722038Y-112152962D01*
X165856614Y-112263405D01*
X166010150Y-112345472D01*
X166176746Y-112396008D01*
X166350000Y-112413072D01*
X167150000Y-112413072D01*
X167323254Y-112396008D01*
X167489850Y-112345472D01*
X167643386Y-112263405D01*
X167777962Y-112152962D01*
X167888405Y-112018386D01*
X167970472Y-111864850D01*
X168021008Y-111698254D01*
X168038072Y-111525000D01*
X168038072Y-110275000D01*
X168021008Y-110101746D01*
X167970472Y-109935150D01*
X167888405Y-109781614D01*
X167777962Y-109647038D01*
X167720646Y-109600000D01*
X167777962Y-109552962D01*
X167888405Y-109418386D01*
X167970472Y-109264850D01*
X168021008Y-109098254D01*
X168038072Y-108925000D01*
X168038072Y-107675000D01*
X168021008Y-107501746D01*
X167970472Y-107335150D01*
X167888405Y-107181614D01*
X167777962Y-107047038D01*
X167702611Y-106985200D01*
X167743386Y-106963405D01*
X167877962Y-106852962D01*
X167988405Y-106718386D01*
X168070472Y-106564850D01*
X168121008Y-106398254D01*
X168138072Y-106225000D01*
X168138072Y-104975000D01*
X168121008Y-104801746D01*
X168070472Y-104635150D01*
X167988405Y-104481614D01*
X167877962Y-104347038D01*
X167873697Y-104343537D01*
X167976405Y-104218386D01*
X168058472Y-104064850D01*
X168109008Y-103898254D01*
X168126072Y-103725000D01*
X168126072Y-102475000D01*
X168109008Y-102301746D01*
X168058472Y-102135150D01*
X167976405Y-101981614D01*
X167865962Y-101847038D01*
X167731386Y-101736595D01*
X167577850Y-101654528D01*
X167411254Y-101603992D01*
X167238000Y-101586928D01*
X166313000Y-101586928D01*
X166153100Y-101602677D01*
X166153100Y-100676801D01*
X166390997Y-100438904D01*
X166420001Y-100415101D01*
X166514974Y-100299376D01*
X166585546Y-100167347D01*
X166629003Y-100024086D01*
X166633068Y-99982810D01*
X166826632Y-99853475D01*
X167033475Y-99646632D01*
X167195990Y-99403411D01*
X167307932Y-99133158D01*
X167365000Y-98846260D01*
X167365000Y-98553740D01*
X167307932Y-98266842D01*
X167195990Y-97996589D01*
X167033475Y-97753368D01*
X166826632Y-97546525D01*
X166583411Y-97384010D01*
X166313158Y-97272068D01*
X166101670Y-97230000D01*
X168200001Y-97230000D01*
X168200000Y-126290000D01*
%TA.AperFunction,Conductor*%
D15*
G36*
X168200000Y-126290000D02*
G01*
X154940215Y-126290000D01*
X155227050Y-126003165D01*
X155286842Y-126027932D01*
X155573740Y-126085000D01*
X155866260Y-126085000D01*
X156153158Y-126027932D01*
X156423411Y-125915990D01*
X156666632Y-125753475D01*
X156873475Y-125546632D01*
X156990000Y-125372240D01*
X157106525Y-125546632D01*
X157313368Y-125753475D01*
X157556589Y-125915990D01*
X157826842Y-126027932D01*
X158113740Y-126085000D01*
X158406260Y-126085000D01*
X158693158Y-126027932D01*
X158963411Y-125915990D01*
X159206632Y-125753475D01*
X159413475Y-125546632D01*
X159535195Y-125364466D01*
X159604822Y-125481355D01*
X159799731Y-125697588D01*
X160033080Y-125871641D01*
X160295901Y-125996825D01*
X160443110Y-126041476D01*
X160673000Y-125920155D01*
X160673000Y-124727000D01*
X160653000Y-124727000D01*
X160653000Y-124473000D01*
X160673000Y-124473000D01*
X160673000Y-123279845D01*
X160443110Y-123158524D01*
X160295901Y-123203175D01*
X160033080Y-123328359D01*
X159799731Y-123502412D01*
X159604822Y-123718645D01*
X159535195Y-123835534D01*
X159413475Y-123653368D01*
X159206632Y-123446525D01*
X158963411Y-123284010D01*
X158693158Y-123172068D01*
X158406260Y-123115000D01*
X158113740Y-123115000D01*
X157826842Y-123172068D01*
X157556589Y-123284010D01*
X157313368Y-123446525D01*
X157106525Y-123653368D01*
X156990000Y-123827760D01*
X156873475Y-123653368D01*
X156719904Y-123499797D01*
X158451003Y-121768699D01*
X158480001Y-121744901D01*
X158539090Y-121672901D01*
X158574974Y-121629177D01*
X158645546Y-121497147D01*
X158655275Y-121465074D01*
X158689003Y-121353886D01*
X158700000Y-121242233D01*
X158700000Y-121242224D01*
X158703676Y-121204901D01*
X158700000Y-121167578D01*
X158700000Y-117475000D01*
X161998928Y-117475000D01*
X162011188Y-117599482D01*
X162047498Y-117719180D01*
X162106463Y-117829494D01*
X162185815Y-117926185D01*
X162282506Y-118005537D01*
X162392820Y-118064502D01*
X162512518Y-118100812D01*
X162637000Y-118113072D01*
X163138750Y-118110000D01*
X163297500Y-117951250D01*
X163297500Y-116927000D01*
X163551500Y-116927000D01*
X163551500Y-117951250D01*
X163710250Y-118110000D01*
X164212000Y-118113072D01*
X164336482Y-118100812D01*
X164456180Y-118064502D01*
X164566494Y-118005537D01*
X164663185Y-117926185D01*
X164742537Y-117829494D01*
X164801502Y-117719180D01*
X164837812Y-117599482D01*
X164850072Y-117475000D01*
X164847000Y-117085750D01*
X164688250Y-116927000D01*
X163551500Y-116927000D01*
X163297500Y-116927000D01*
X162160750Y-116927000D01*
X162002000Y-117085750D01*
X161998928Y-117475000D01*
X158700000Y-117475000D01*
X158700000Y-116125000D01*
X161998928Y-116125000D01*
X162002000Y-116514250D01*
X162160750Y-116673000D01*
X163297500Y-116673000D01*
X163297500Y-115648750D01*
X163248750Y-115600000D01*
X163272500Y-115576250D01*
X163272500Y-114327000D01*
X163526500Y-114327000D01*
X163526500Y-115576250D01*
X163575250Y-115625000D01*
X163551500Y-115648750D01*
X163551500Y-116673000D01*
X164688250Y-116673000D01*
X164847000Y-116514250D01*
X164850072Y-116125000D01*
X164837812Y-116000518D01*
X164801502Y-115880820D01*
X164742537Y-115770506D01*
X164663185Y-115673815D01*
X164566494Y-115594463D01*
X164502276Y-115560137D01*
X164513185Y-115551185D01*
X164592537Y-115454494D01*
X164651502Y-115344180D01*
X164687812Y-115224482D01*
X164700072Y-115100000D01*
X164697000Y-114485750D01*
X164538250Y-114327000D01*
X163526500Y-114327000D01*
X163272500Y-114327000D01*
X162260750Y-114327000D01*
X162102000Y-114485750D01*
X162098928Y-115100000D01*
X162111188Y-115224482D01*
X162147498Y-115344180D01*
X162206463Y-115454494D01*
X162285815Y-115551185D01*
X162316445Y-115576322D01*
X162282506Y-115594463D01*
X162185815Y-115673815D01*
X162106463Y-115770506D01*
X162047498Y-115880820D01*
X162011188Y-116000518D01*
X161998928Y-116125000D01*
X158700000Y-116125000D01*
X158700000Y-114458178D01*
X158886632Y-114333475D01*
X159093475Y-114126632D01*
X159255990Y-113883411D01*
X159367932Y-113613158D01*
X159425000Y-113326260D01*
X159425000Y-113300000D01*
X162098928Y-113300000D01*
X162102000Y-113914250D01*
X162260750Y-114073000D01*
X163272500Y-114073000D01*
X163272500Y-112823750D01*
X163113750Y-112665000D01*
X162737000Y-112661928D01*
X162612518Y-112674188D01*
X162492820Y-112710498D01*
X162382506Y-112769463D01*
X162285815Y-112848815D01*
X162206463Y-112945506D01*
X162147498Y-113055820D01*
X162111188Y-113175518D01*
X162098928Y-113300000D01*
X159425000Y-113300000D01*
X159425000Y-113033740D01*
X159367932Y-112746842D01*
X159255990Y-112476589D01*
X159093475Y-112233368D01*
X158886632Y-112026525D01*
X158713271Y-111910689D01*
X158788792Y-111668397D01*
X157940000Y-110819605D01*
X157925858Y-110833748D01*
X157746253Y-110654143D01*
X157760395Y-110640000D01*
X158119605Y-110640000D01*
X158968397Y-111488792D01*
X159217472Y-111411157D01*
X159343371Y-111147117D01*
X159415339Y-110863589D01*
X159430611Y-110571469D01*
X159388599Y-110281981D01*
X159290919Y-110006253D01*
X159217472Y-109868843D01*
X158968397Y-109791208D01*
X158119605Y-110640000D01*
X157760395Y-110640000D01*
X157746253Y-110625858D01*
X157925858Y-110446253D01*
X157940000Y-110460395D01*
X158788792Y-109611603D01*
X158713271Y-109369311D01*
X158886632Y-109253475D01*
X159093475Y-109046632D01*
X159255990Y-108803411D01*
X159367932Y-108533158D01*
X159425000Y-108246260D01*
X159425000Y-107953740D01*
X159367932Y-107666842D01*
X159255990Y-107396589D01*
X159093475Y-107153368D01*
X158886632Y-106946525D01*
X158643411Y-106784010D01*
X158373158Y-106672068D01*
X158086260Y-106615000D01*
X157793740Y-106615000D01*
X157506842Y-106672068D01*
X157236589Y-106784010D01*
X156993368Y-106946525D01*
X156806285Y-107133608D01*
X156738405Y-107006614D01*
X156627962Y-106872038D01*
X156493386Y-106761595D01*
X156339850Y-106679528D01*
X156173254Y-106628992D01*
X156000000Y-106611928D01*
X154800000Y-106611928D01*
X154626746Y-106628992D01*
X154460150Y-106679528D01*
X154306614Y-106761595D01*
X154172038Y-106872038D01*
X154061595Y-107006614D01*
X153979528Y-107160150D01*
X153928992Y-107326746D01*
X153911928Y-107500000D01*
X153911928Y-108513270D01*
X150560101Y-111865098D01*
X150504494Y-111819463D01*
X150394180Y-111760498D01*
X150274482Y-111724188D01*
X150150000Y-111711928D01*
X150060000Y-111711928D01*
X150060000Y-111497313D01*
X150073254Y-111496008D01*
X150239850Y-111445472D01*
X150393386Y-111363405D01*
X150527962Y-111252962D01*
X150638405Y-111118386D01*
X150720472Y-110964850D01*
X150771008Y-110798254D01*
X150788072Y-110625000D01*
X150788072Y-109375000D01*
X150771008Y-109201746D01*
X150720472Y-109035150D01*
X150638405Y-108881614D01*
X150527962Y-108747038D01*
X150393386Y-108636595D01*
X150239850Y-108554528D01*
X150073254Y-108503992D01*
X149900000Y-108486928D01*
X149100000Y-108486928D01*
X148926746Y-108503992D01*
X148760150Y-108554528D01*
X148606614Y-108636595D01*
X148472038Y-108747038D01*
X148361595Y-108881614D01*
X148279528Y-109035150D01*
X148228992Y-109201746D01*
X148211928Y-109375000D01*
X148211928Y-110625000D01*
X148228992Y-110798254D01*
X148279528Y-110964850D01*
X148361595Y-111118386D01*
X148472038Y-111252962D01*
X148540000Y-111308737D01*
X148540001Y-111711928D01*
X148450000Y-111711928D01*
X148325518Y-111724188D01*
X148205820Y-111760498D01*
X148095506Y-111819463D01*
X147998815Y-111898815D01*
X147919463Y-111995506D01*
X147860498Y-112105820D01*
X147836034Y-112186466D01*
X147760269Y-112102412D01*
X147526920Y-111928359D01*
X147264099Y-111803175D01*
X147116890Y-111758524D01*
X146887000Y-111879845D01*
X146887000Y-113073000D01*
X146907000Y-113073000D01*
X146907000Y-113327000D01*
X146887000Y-113327000D01*
X146887000Y-114520155D01*
X147116890Y-114641476D01*
X147264099Y-114596825D01*
X147526920Y-114471641D01*
X147760269Y-114297588D01*
X147836034Y-114213534D01*
X147860498Y-114294180D01*
X147919463Y-114404494D01*
X147998815Y-114501185D01*
X148095506Y-114580537D01*
X148205820Y-114639502D01*
X148325518Y-114675812D01*
X148450000Y-114688072D01*
X150150000Y-114688072D01*
X150274482Y-114675812D01*
X150309901Y-114665068D01*
X150309901Y-115230276D01*
X150223254Y-115203992D01*
X150050000Y-115186928D01*
X149250000Y-115186928D01*
X149076746Y-115203992D01*
X148910150Y-115254528D01*
X148756614Y-115336595D01*
X148622038Y-115447038D01*
X148511595Y-115581614D01*
X148429528Y-115735150D01*
X148378992Y-115901746D01*
X148361928Y-116075000D01*
X148361928Y-117325000D01*
X148378992Y-117498254D01*
X148429528Y-117664850D01*
X148511595Y-117818386D01*
X148622038Y-117952962D01*
X148648086Y-117974339D01*
X148531614Y-118036595D01*
X148397038Y-118147038D01*
X148286595Y-118281614D01*
X148204528Y-118435150D01*
X148153992Y-118601746D01*
X148136928Y-118775000D01*
X148136928Y-120025000D01*
X148153992Y-120198254D01*
X148204528Y-120364850D01*
X148286595Y-120518386D01*
X148397038Y-120652962D01*
X148531614Y-120763405D01*
X148685150Y-120845472D01*
X148851746Y-120896008D01*
X149025000Y-120913072D01*
X149537026Y-120913072D01*
X147589003Y-122861096D01*
X147559999Y-122884899D01*
X147504871Y-122952074D01*
X147465026Y-123000624D01*
X147442519Y-123042732D01*
X147405532Y-123111928D01*
X147250000Y-123111928D01*
X147125518Y-123124188D01*
X147005820Y-123160498D01*
X146895506Y-123219463D01*
X146798815Y-123298815D01*
X146719463Y-123395506D01*
X146660498Y-123505820D01*
X146624188Y-123625518D01*
X146611928Y-123750000D01*
X146611928Y-125237126D01*
X145960000Y-124585199D01*
X145960000Y-120911920D01*
X146226750Y-120910000D01*
X146385500Y-120751250D01*
X146385500Y-119527000D01*
X146639500Y-119527000D01*
X146639500Y-120751250D01*
X146798250Y-120910000D01*
X147225000Y-120913072D01*
X147349482Y-120900812D01*
X147469180Y-120864502D01*
X147579494Y-120805537D01*
X147676185Y-120726185D01*
X147755537Y-120629494D01*
X147814502Y-120519180D01*
X147850812Y-120399482D01*
X147863072Y-120275000D01*
X147860000Y-119685750D01*
X147701250Y-119527000D01*
X146639500Y-119527000D01*
X146385500Y-119527000D01*
X146365500Y-119527000D01*
X146365500Y-119273000D01*
X146385500Y-119273000D01*
X146385500Y-119253000D01*
X146639500Y-119253000D01*
X146639500Y-119273000D01*
X147701250Y-119273000D01*
X147860000Y-119114250D01*
X147863072Y-118525000D01*
X147850812Y-118400518D01*
X147814502Y-118280820D01*
X147755537Y-118170506D01*
X147676185Y-118073815D01*
X147579494Y-117994463D01*
X147547943Y-117977598D01*
X147577962Y-117952962D01*
X147688405Y-117818386D01*
X147770472Y-117664850D01*
X147821008Y-117498254D01*
X147838072Y-117325000D01*
X147838072Y-116075000D01*
X147821008Y-115901746D01*
X147770472Y-115735150D01*
X147688405Y-115581614D01*
X147577962Y-115447038D01*
X147443386Y-115336595D01*
X147289850Y-115254528D01*
X147123254Y-115203992D01*
X146950000Y-115186928D01*
X146160000Y-115186928D01*
X146160000Y-114551146D01*
X146255901Y-114596825D01*
X146403110Y-114641476D01*
X146633000Y-114520155D01*
X146633000Y-113327000D01*
X146613000Y-113327000D01*
X146613000Y-113073000D01*
X146633000Y-113073000D01*
X146633000Y-111879845D01*
X146403110Y-111758524D01*
X146255901Y-111803175D01*
X146160000Y-111848854D01*
X146160000Y-111513072D01*
X146800000Y-111513072D01*
X146973254Y-111496008D01*
X147139850Y-111445472D01*
X147293386Y-111363405D01*
X147427962Y-111252962D01*
X147538405Y-111118386D01*
X147620472Y-110964850D01*
X147671008Y-110798254D01*
X147688072Y-110625000D01*
X147688072Y-109375000D01*
X147671008Y-109201746D01*
X147620472Y-109035150D01*
X147538405Y-108881614D01*
X147427962Y-108747038D01*
X147293386Y-108636595D01*
X147139850Y-108554528D01*
X146973254Y-108503992D01*
X146800000Y-108486928D01*
X146000000Y-108486928D01*
X145826746Y-108503992D01*
X145660150Y-108554528D01*
X145506614Y-108636595D01*
X145490000Y-108650230D01*
X145490000Y-107355745D01*
X145564822Y-107481355D01*
X145759731Y-107697588D01*
X145993080Y-107871641D01*
X146255901Y-107996825D01*
X146403110Y-108041476D01*
X146633000Y-107920155D01*
X146633000Y-106727000D01*
X146613000Y-106727000D01*
X146613000Y-106473000D01*
X146633000Y-106473000D01*
X146633000Y-105279845D01*
X146403110Y-105158524D01*
X146255901Y-105203175D01*
X145993080Y-105328359D01*
X145759731Y-105502412D01*
X145564822Y-105718645D01*
X145490000Y-105844255D01*
X145490000Y-104608737D01*
X145556614Y-104663405D01*
X145710150Y-104745472D01*
X145876746Y-104796008D01*
X146050000Y-104813072D01*
X146850000Y-104813072D01*
X147023254Y-104796008D01*
X147189850Y-104745472D01*
X147343386Y-104663405D01*
X147477962Y-104552962D01*
X147588405Y-104418386D01*
X147670472Y-104264850D01*
X147721008Y-104098254D01*
X147738072Y-103925000D01*
X147738072Y-103086729D01*
X148274178Y-102550624D01*
X148261928Y-102675000D01*
X148261928Y-103925000D01*
X148278992Y-104098254D01*
X148329528Y-104264850D01*
X148411595Y-104418386D01*
X148522038Y-104552962D01*
X148540000Y-104567703D01*
X148540001Y-105111928D01*
X148450000Y-105111928D01*
X148325518Y-105124188D01*
X148205820Y-105160498D01*
X148095506Y-105219463D01*
X147998815Y-105298815D01*
X147919463Y-105395506D01*
X147860498Y-105505820D01*
X147836034Y-105586466D01*
X147760269Y-105502412D01*
X147526920Y-105328359D01*
X147264099Y-105203175D01*
X147116890Y-105158524D01*
X146887000Y-105279845D01*
X146887000Y-106473000D01*
X146907000Y-106473000D01*
X146907000Y-106727000D01*
X146887000Y-106727000D01*
X146887000Y-107920155D01*
X147116890Y-108041476D01*
X147264099Y-107996825D01*
X147526920Y-107871641D01*
X147760269Y-107697588D01*
X147836034Y-107613534D01*
X147860498Y-107694180D01*
X147919463Y-107804494D01*
X147998815Y-107901185D01*
X148095506Y-107980537D01*
X148205820Y-108039502D01*
X148325518Y-108075812D01*
X148450000Y-108088072D01*
X150150000Y-108088072D01*
X150274482Y-108075812D01*
X150394180Y-108039502D01*
X150504494Y-107980537D01*
X150601185Y-107901185D01*
X150680537Y-107804494D01*
X150739502Y-107694180D01*
X150775812Y-107574482D01*
X150788072Y-107450000D01*
X150788072Y-105750000D01*
X150775812Y-105625518D01*
X150739502Y-105505820D01*
X150680537Y-105395506D01*
X150601185Y-105298815D01*
X150504494Y-105219463D01*
X150394180Y-105160498D01*
X150274482Y-105124188D01*
X150150000Y-105111928D01*
X150060000Y-105111928D01*
X150060000Y-104802238D01*
X150123254Y-104796008D01*
X150289850Y-104745472D01*
X150443386Y-104663405D01*
X150577962Y-104552962D01*
X150688405Y-104418386D01*
X150770472Y-104264850D01*
X150821008Y-104098254D01*
X150838072Y-103925000D01*
X150838072Y-102675000D01*
X150821008Y-102501746D01*
X150770472Y-102335150D01*
X150688405Y-102181614D01*
X150670667Y-102160000D01*
X159628599Y-102160000D01*
X159829200Y-102360602D01*
X159829200Y-102401878D01*
X159825524Y-102439200D01*
X159829200Y-102476522D01*
X159829200Y-102476532D01*
X159840197Y-102588185D01*
X159868283Y-102680774D01*
X159883654Y-102731446D01*
X159954226Y-102863476D01*
X159964278Y-102875724D01*
X160049199Y-102979201D01*
X160078203Y-103003004D01*
X162461928Y-105386730D01*
X162461928Y-106225000D01*
X162478992Y-106398254D01*
X162529528Y-106564850D01*
X162611595Y-106718386D01*
X162722038Y-106852962D01*
X162722476Y-106853321D01*
X162645506Y-106894463D01*
X162548815Y-106973815D01*
X162469463Y-107070506D01*
X162410498Y-107180820D01*
X162374188Y-107300518D01*
X162361928Y-107425000D01*
X162365000Y-108014250D01*
X162523750Y-108173000D01*
X163585500Y-108173000D01*
X163585500Y-108153000D01*
X163839500Y-108153000D01*
X163839500Y-108173000D01*
X163859500Y-108173000D01*
X163859500Y-108427000D01*
X163839500Y-108427000D01*
X163839500Y-108447000D01*
X163585500Y-108447000D01*
X163585500Y-108427000D01*
X162523750Y-108427000D01*
X162365000Y-108585750D01*
X162361928Y-109175000D01*
X162374188Y-109299482D01*
X162410498Y-109419180D01*
X162469463Y-109529494D01*
X162548815Y-109626185D01*
X162602795Y-109670485D01*
X162511595Y-109781614D01*
X162429528Y-109935150D01*
X162378992Y-110101746D01*
X162361928Y-110275000D01*
X162361928Y-111525000D01*
X162378992Y-111698254D01*
X162429528Y-111864850D01*
X162511595Y-112018386D01*
X162622038Y-112152962D01*
X162756614Y-112263405D01*
X162910150Y-112345472D01*
X163076746Y-112396008D01*
X163250000Y-112413072D01*
X163662771Y-112413072D01*
X163912843Y-112663144D01*
X163685250Y-112665000D01*
X163526500Y-112823750D01*
X163526500Y-114073000D01*
X164538250Y-114073000D01*
X164697000Y-113914250D01*
X164699324Y-113449625D01*
X165223928Y-113974230D01*
X165223928Y-114850001D01*
X165240992Y-115023255D01*
X165291528Y-115189851D01*
X165373595Y-115343387D01*
X165484038Y-115477962D01*
X165535454Y-115520158D01*
X165422149Y-115554528D01*
X165268613Y-115636595D01*
X165134038Y-115747038D01*
X165023595Y-115881613D01*
X164941528Y-116035149D01*
X164890992Y-116201745D01*
X164873928Y-116374999D01*
X164873928Y-117225001D01*
X164890992Y-117398255D01*
X164941528Y-117564851D01*
X165023595Y-117718387D01*
X165134038Y-117852962D01*
X165268613Y-117963405D01*
X165422149Y-118045472D01*
X165539501Y-118081070D01*
X165539500Y-122690599D01*
X165368998Y-122861101D01*
X165340000Y-122884899D01*
X165316202Y-122913897D01*
X165316201Y-122913898D01*
X165245026Y-123000624D01*
X165174454Y-123132654D01*
X165153063Y-123203175D01*
X165130998Y-123275914D01*
X165126933Y-123317189D01*
X164933368Y-123446525D01*
X164726525Y-123653368D01*
X164610000Y-123827760D01*
X164493475Y-123653368D01*
X164286632Y-123446525D01*
X164043411Y-123284010D01*
X163773158Y-123172068D01*
X163486260Y-123115000D01*
X163193740Y-123115000D01*
X162906842Y-123172068D01*
X162636589Y-123284010D01*
X162393368Y-123446525D01*
X162186525Y-123653368D01*
X162064805Y-123835534D01*
X161995178Y-123718645D01*
X161800269Y-123502412D01*
X161566920Y-123328359D01*
X161304099Y-123203175D01*
X161156890Y-123158524D01*
X160927000Y-123279845D01*
X160927000Y-124473000D01*
X160947000Y-124473000D01*
X160947000Y-124727000D01*
X160927000Y-124727000D01*
X160927000Y-125920155D01*
X161156890Y-126041476D01*
X161304099Y-125996825D01*
X161566920Y-125871641D01*
X161800269Y-125697588D01*
X161995178Y-125481355D01*
X162064805Y-125364466D01*
X162186525Y-125546632D01*
X162393368Y-125753475D01*
X162636589Y-125915990D01*
X162906842Y-126027932D01*
X163193740Y-126085000D01*
X163486260Y-126085000D01*
X163773158Y-126027932D01*
X164043411Y-125915990D01*
X164286632Y-125753475D01*
X164493475Y-125546632D01*
X164610000Y-125372240D01*
X164726525Y-125546632D01*
X164933368Y-125753475D01*
X165176589Y-125915990D01*
X165446842Y-126027932D01*
X165733740Y-126085000D01*
X166026260Y-126085000D01*
X166313158Y-126027932D01*
X166583411Y-125915990D01*
X166826632Y-125753475D01*
X167033475Y-125546632D01*
X167195990Y-125303411D01*
X167307932Y-125033158D01*
X167365000Y-124746260D01*
X167365000Y-124453740D01*
X167307932Y-124166842D01*
X167195990Y-123896589D01*
X167033475Y-123653368D01*
X166878269Y-123498162D01*
X166934474Y-123429676D01*
X167005046Y-123297647D01*
X167048503Y-123154386D01*
X167059500Y-123042733D01*
X167059500Y-123042732D01*
X167063177Y-123005400D01*
X167059500Y-122968067D01*
X167059500Y-118081070D01*
X167176851Y-118045472D01*
X167330387Y-117963405D01*
X167464962Y-117852962D01*
X167575405Y-117718387D01*
X167657472Y-117564851D01*
X167708008Y-117398255D01*
X167725072Y-117225001D01*
X167725072Y-116374999D01*
X167708008Y-116201745D01*
X167657472Y-116035149D01*
X167575405Y-115881613D01*
X167464962Y-115747038D01*
X167334269Y-115639781D01*
X167430387Y-115588405D01*
X167564962Y-115477962D01*
X167675405Y-115343387D01*
X167757472Y-115189851D01*
X167808008Y-115023255D01*
X167825072Y-114850001D01*
X167825072Y-113549999D01*
X167808008Y-113376745D01*
X167757472Y-113210149D01*
X167675405Y-113056613D01*
X167564962Y-112922038D01*
X167430387Y-112811595D01*
X167276851Y-112729528D01*
X167110255Y-112678992D01*
X166937001Y-112661928D01*
X166111999Y-112661928D01*
X166065782Y-112666480D01*
X164936837Y-111537536D01*
X164938072Y-111525000D01*
X164938072Y-110686729D01*
X165474178Y-110150624D01*
X165461928Y-110275000D01*
X165461928Y-111525000D01*
X165478992Y-111698254D01*
X165529528Y-111864850D01*
X165611595Y-112018386D01*
X165722038Y-112152962D01*
X165856614Y-112263405D01*
X166010150Y-112345472D01*
X166176746Y-112396008D01*
X166350000Y-112413072D01*
X167150000Y-112413072D01*
X167323254Y-112396008D01*
X167489850Y-112345472D01*
X167643386Y-112263405D01*
X167777962Y-112152962D01*
X167888405Y-112018386D01*
X167970472Y-111864850D01*
X168021008Y-111698254D01*
X168038072Y-111525000D01*
X168038072Y-110275000D01*
X168021008Y-110101746D01*
X167970472Y-109935150D01*
X167888405Y-109781614D01*
X167777962Y-109647038D01*
X167720646Y-109600000D01*
X167777962Y-109552962D01*
X167888405Y-109418386D01*
X167970472Y-109264850D01*
X168021008Y-109098254D01*
X168038072Y-108925000D01*
X168038072Y-107675000D01*
X168021008Y-107501746D01*
X167970472Y-107335150D01*
X167888405Y-107181614D01*
X167777962Y-107047038D01*
X167702611Y-106985200D01*
X167743386Y-106963405D01*
X167877962Y-106852962D01*
X167988405Y-106718386D01*
X168070472Y-106564850D01*
X168121008Y-106398254D01*
X168138072Y-106225000D01*
X168138072Y-104975000D01*
X168121008Y-104801746D01*
X168070472Y-104635150D01*
X167988405Y-104481614D01*
X167877962Y-104347038D01*
X167873697Y-104343537D01*
X167976405Y-104218386D01*
X168058472Y-104064850D01*
X168109008Y-103898254D01*
X168126072Y-103725000D01*
X168126072Y-102475000D01*
X168109008Y-102301746D01*
X168058472Y-102135150D01*
X167976405Y-101981614D01*
X167865962Y-101847038D01*
X167731386Y-101736595D01*
X167577850Y-101654528D01*
X167411254Y-101603992D01*
X167238000Y-101586928D01*
X166313000Y-101586928D01*
X166153100Y-101602677D01*
X166153100Y-100676801D01*
X166390997Y-100438904D01*
X166420001Y-100415101D01*
X166514974Y-100299376D01*
X166585546Y-100167347D01*
X166629003Y-100024086D01*
X166633068Y-99982810D01*
X166826632Y-99853475D01*
X167033475Y-99646632D01*
X167195990Y-99403411D01*
X167307932Y-99133158D01*
X167365000Y-98846260D01*
X167365000Y-98553740D01*
X167307932Y-98266842D01*
X167195990Y-97996589D01*
X167033475Y-97753368D01*
X166826632Y-97546525D01*
X166583411Y-97384010D01*
X166313158Y-97272068D01*
X166101670Y-97230000D01*
X168200001Y-97230000D01*
X168200000Y-126290000D01*
G37*
%TD.AperFunction*%
D14*
X155593748Y-110625858D02*
X155579605Y-110640000D01*
X155593748Y-110654143D01*
X155414143Y-110833748D01*
X155400000Y-110819605D01*
X154551208Y-111668397D01*
X154626729Y-111910689D01*
X154453368Y-112026525D01*
X154246525Y-112233368D01*
X154084010Y-112476589D01*
X153972068Y-112746842D01*
X153915000Y-113033740D01*
X153915000Y-113326260D01*
X153972068Y-113613158D01*
X154084010Y-113883411D01*
X154246525Y-114126632D01*
X154453368Y-114333475D01*
X154696589Y-114495990D01*
X154966842Y-114607932D01*
X155253740Y-114665000D01*
X155546260Y-114665000D01*
X155833158Y-114607932D01*
X155910001Y-114576103D01*
X155910001Y-118255197D01*
X151006408Y-123158791D01*
X150786260Y-123115000D01*
X150493740Y-123115000D01*
X150206842Y-123172068D01*
X149936589Y-123284010D01*
X149693368Y-123446525D01*
X149561513Y-123578380D01*
X149539502Y-123505820D01*
X149480537Y-123395506D01*
X149401185Y-123298815D01*
X149346096Y-123253605D01*
X150459047Y-122140655D01*
X150482023Y-122140655D01*
X150519345Y-122144331D01*
X150556667Y-122140655D01*
X150556678Y-122140655D01*
X150668331Y-122129658D01*
X150811592Y-122086201D01*
X150943621Y-122015629D01*
X151059346Y-121920656D01*
X151083148Y-121891653D01*
X151580903Y-121393898D01*
X151609901Y-121370101D01*
X151704874Y-121254376D01*
X151775446Y-121122347D01*
X151818903Y-120979086D01*
X151829900Y-120867433D01*
X151829900Y-120867424D01*
X151833576Y-120830101D01*
X151829900Y-120792778D01*
X151829900Y-112744901D01*
X153911768Y-110663034D01*
X153909389Y-110708531D01*
X153951401Y-110998019D01*
X154049081Y-111273747D01*
X154122528Y-111411157D01*
X154371603Y-111488792D01*
X155220395Y-110640000D01*
X155206253Y-110625858D01*
X155385858Y-110446253D01*
X155400000Y-110460395D01*
X155414143Y-110446253D01*
X155593748Y-110625858D01*
%TA.AperFunction,Conductor*%
D15*
G36*
X155593748Y-110625858D02*
G01*
X155579605Y-110640000D01*
X155593748Y-110654143D01*
X155414143Y-110833748D01*
X155400000Y-110819605D01*
X154551208Y-111668397D01*
X154626729Y-111910689D01*
X154453368Y-112026525D01*
X154246525Y-112233368D01*
X154084010Y-112476589D01*
X153972068Y-112746842D01*
X153915000Y-113033740D01*
X153915000Y-113326260D01*
X153972068Y-113613158D01*
X154084010Y-113883411D01*
X154246525Y-114126632D01*
X154453368Y-114333475D01*
X154696589Y-114495990D01*
X154966842Y-114607932D01*
X155253740Y-114665000D01*
X155546260Y-114665000D01*
X155833158Y-114607932D01*
X155910001Y-114576103D01*
X155910001Y-118255197D01*
X151006408Y-123158791D01*
X150786260Y-123115000D01*
X150493740Y-123115000D01*
X150206842Y-123172068D01*
X149936589Y-123284010D01*
X149693368Y-123446525D01*
X149561513Y-123578380D01*
X149539502Y-123505820D01*
X149480537Y-123395506D01*
X149401185Y-123298815D01*
X149346096Y-123253605D01*
X150459047Y-122140655D01*
X150482023Y-122140655D01*
X150519345Y-122144331D01*
X150556667Y-122140655D01*
X150556678Y-122140655D01*
X150668331Y-122129658D01*
X150811592Y-122086201D01*
X150943621Y-122015629D01*
X151059346Y-121920656D01*
X151083148Y-121891653D01*
X151580903Y-121393898D01*
X151609901Y-121370101D01*
X151704874Y-121254376D01*
X151775446Y-121122347D01*
X151818903Y-120979086D01*
X151829900Y-120867433D01*
X151829900Y-120867424D01*
X151833576Y-120830101D01*
X151829900Y-120792778D01*
X151829900Y-112744901D01*
X153911768Y-110663034D01*
X153909389Y-110708531D01*
X153951401Y-110998019D01*
X154049081Y-111273747D01*
X154122528Y-111411157D01*
X154371603Y-111488792D01*
X155220395Y-110640000D01*
X155206253Y-110625858D01*
X155385858Y-110446253D01*
X155400000Y-110460395D01*
X155414143Y-110446253D01*
X155593748Y-110625858D01*
G37*
%TD.AperFunction*%
D14*
X164726525Y-99646632D02*
X164879899Y-99800006D01*
X164853100Y-99821999D01*
X164829302Y-99850997D01*
X164829301Y-99850998D01*
X164758126Y-99937724D01*
X164687554Y-100069754D01*
X164669907Y-100127932D01*
X164654764Y-100177854D01*
X164644098Y-100213015D01*
X164629424Y-100362000D01*
X164633101Y-100399332D01*
X164633101Y-101598757D01*
X164513000Y-101586928D01*
X164086250Y-101590000D01*
X163927500Y-101748750D01*
X163927500Y-102973000D01*
X163947500Y-102973000D01*
X163947500Y-103227000D01*
X163927500Y-103227000D01*
X163927500Y-103247000D01*
X163673500Y-103247000D01*
X163673500Y-103227000D01*
X162611750Y-103227000D01*
X162531776Y-103306974D01*
X161467301Y-102242500D01*
X161484801Y-102225000D01*
X162449928Y-102225000D01*
X162453000Y-102814250D01*
X162611750Y-102973000D01*
X163673500Y-102973000D01*
X163673500Y-101748750D01*
X163514750Y-101590000D01*
X163088000Y-101586928D01*
X162963518Y-101599188D01*
X162843820Y-101635498D01*
X162733506Y-101694463D01*
X162636815Y-101773815D01*
X162557463Y-101870506D01*
X162498498Y-101980820D01*
X162462188Y-102100518D01*
X162449928Y-102225000D01*
X161484801Y-102225000D01*
X162675904Y-101033898D01*
X162704901Y-101010101D01*
X162799874Y-100894376D01*
X162870446Y-100762347D01*
X162913903Y-100619086D01*
X162924900Y-100507433D01*
X162924900Y-100507424D01*
X162928576Y-100470101D01*
X162924900Y-100432778D01*
X162924900Y-100189901D01*
X162973592Y-100141209D01*
X163193740Y-100185000D01*
X163486260Y-100185000D01*
X163773158Y-100127932D01*
X164043411Y-100015990D01*
X164286632Y-99853475D01*
X164493475Y-99646632D01*
X164610000Y-99472240D01*
X164726525Y-99646632D01*
%TA.AperFunction,Conductor*%
D15*
G36*
X164726525Y-99646632D02*
G01*
X164879899Y-99800006D01*
X164853100Y-99821999D01*
X164829302Y-99850997D01*
X164829301Y-99850998D01*
X164758126Y-99937724D01*
X164687554Y-100069754D01*
X164669907Y-100127932D01*
X164654764Y-100177854D01*
X164644098Y-100213015D01*
X164629424Y-100362000D01*
X164633101Y-100399332D01*
X164633101Y-101598757D01*
X164513000Y-101586928D01*
X164086250Y-101590000D01*
X163927500Y-101748750D01*
X163927500Y-102973000D01*
X163947500Y-102973000D01*
X163947500Y-103227000D01*
X163927500Y-103227000D01*
X163927500Y-103247000D01*
X163673500Y-103247000D01*
X163673500Y-103227000D01*
X162611750Y-103227000D01*
X162531776Y-103306974D01*
X161467301Y-102242500D01*
X161484801Y-102225000D01*
X162449928Y-102225000D01*
X162453000Y-102814250D01*
X162611750Y-102973000D01*
X163673500Y-102973000D01*
X163673500Y-101748750D01*
X163514750Y-101590000D01*
X163088000Y-101586928D01*
X162963518Y-101599188D01*
X162843820Y-101635498D01*
X162733506Y-101694463D01*
X162636815Y-101773815D01*
X162557463Y-101870506D01*
X162498498Y-101980820D01*
X162462188Y-102100518D01*
X162449928Y-102225000D01*
X161484801Y-102225000D01*
X162675904Y-101033898D01*
X162704901Y-101010101D01*
X162799874Y-100894376D01*
X162870446Y-100762347D01*
X162913903Y-100619086D01*
X162924900Y-100507433D01*
X162924900Y-100507424D01*
X162928576Y-100470101D01*
X162924900Y-100432778D01*
X162924900Y-100189901D01*
X162973592Y-100141209D01*
X163193740Y-100185000D01*
X163486260Y-100185000D01*
X163773158Y-100127932D01*
X164043411Y-100015990D01*
X164286632Y-99853475D01*
X164493475Y-99646632D01*
X164610000Y-99472240D01*
X164726525Y-99646632D01*
G37*
%TD.AperFunction*%
D14*
X147005820Y-97260498D02*
X146895506Y-97319463D01*
X146798815Y-97398815D01*
X146719463Y-97495506D01*
X146660498Y-97605820D01*
X146624188Y-97725518D01*
X146611928Y-97850000D01*
X146611928Y-99550000D01*
X146624188Y-99674482D01*
X146660498Y-99794180D01*
X146719463Y-99904494D01*
X146798815Y-100001185D01*
X146895506Y-100080537D01*
X147005820Y-100139502D01*
X147125518Y-100175812D01*
X147250000Y-100188072D01*
X148950000Y-100188072D01*
X149074482Y-100175812D01*
X149194180Y-100139502D01*
X149304494Y-100080537D01*
X149401185Y-100001185D01*
X149480537Y-99904494D01*
X149539502Y-99794180D01*
X149561513Y-99721620D01*
X149693368Y-99853475D01*
X149936589Y-100015990D01*
X150206842Y-100127932D01*
X150493740Y-100185000D01*
X150786260Y-100185000D01*
X151073158Y-100127932D01*
X151343411Y-100015990D01*
X151586632Y-99853475D01*
X151793475Y-99646632D01*
X151910000Y-99472240D01*
X152026525Y-99646632D01*
X152233368Y-99853475D01*
X152476589Y-100015990D01*
X152746842Y-100127932D01*
X153033740Y-100185000D01*
X153326260Y-100185000D01*
X153613158Y-100127932D01*
X153883411Y-100015990D01*
X154126632Y-99853475D01*
X154333475Y-99646632D01*
X154450000Y-99472240D01*
X154566525Y-99646632D01*
X154773368Y-99853475D01*
X155016589Y-100015990D01*
X155286842Y-100127932D01*
X155573740Y-100185000D01*
X155866260Y-100185000D01*
X156153158Y-100127932D01*
X156423411Y-100015990D01*
X156666632Y-99853475D01*
X156873475Y-99646632D01*
X156990000Y-99472240D01*
X157106525Y-99646632D01*
X157313368Y-99853475D01*
X157556589Y-100015990D01*
X157826842Y-100127932D01*
X158113740Y-100185000D01*
X158406260Y-100185000D01*
X158693158Y-100127932D01*
X158963411Y-100015990D01*
X159206632Y-99853475D01*
X159413475Y-99646632D01*
X159535195Y-99464466D01*
X159604822Y-99581355D01*
X159799731Y-99797588D01*
X160033080Y-99971641D01*
X160295901Y-100096825D01*
X160443110Y-100141476D01*
X160673000Y-100020155D01*
X160673000Y-98827000D01*
X160653000Y-98827000D01*
X160653000Y-98573000D01*
X160673000Y-98573000D01*
X160673000Y-98553000D01*
X160927000Y-98553000D01*
X160927000Y-98573000D01*
X160947000Y-98573000D01*
X160947000Y-98827000D01*
X160927000Y-98827000D01*
X160927000Y-100020155D01*
X161156890Y-100141476D01*
X161304099Y-100096825D01*
X161404900Y-100048813D01*
X161404900Y-100155298D01*
X160589200Y-100970999D01*
X160507203Y-100889002D01*
X160483401Y-100859999D01*
X160367676Y-100765026D01*
X160235647Y-100694454D01*
X160092386Y-100650997D01*
X159980733Y-100640000D01*
X159980722Y-100640000D01*
X159943400Y-100636324D01*
X159906078Y-100640000D01*
X148387325Y-100640000D01*
X148350000Y-100636324D01*
X148312675Y-100640000D01*
X148312667Y-100640000D01*
X148201014Y-100650997D01*
X148057753Y-100694454D01*
X147925724Y-100765026D01*
X147809999Y-100859999D01*
X147786201Y-100888997D01*
X146884839Y-101790359D01*
X146850000Y-101786928D01*
X146050000Y-101786928D01*
X145876746Y-101803992D01*
X145710150Y-101854528D01*
X145556614Y-101936595D01*
X145490000Y-101991263D01*
X145490000Y-97230000D01*
X147106358Y-97230000D01*
X147005820Y-97260498D01*
%TA.AperFunction,Conductor*%
D15*
G36*
X147005820Y-97260498D02*
G01*
X146895506Y-97319463D01*
X146798815Y-97398815D01*
X146719463Y-97495506D01*
X146660498Y-97605820D01*
X146624188Y-97725518D01*
X146611928Y-97850000D01*
X146611928Y-99550000D01*
X146624188Y-99674482D01*
X146660498Y-99794180D01*
X146719463Y-99904494D01*
X146798815Y-100001185D01*
X146895506Y-100080537D01*
X147005820Y-100139502D01*
X147125518Y-100175812D01*
X147250000Y-100188072D01*
X148950000Y-100188072D01*
X149074482Y-100175812D01*
X149194180Y-100139502D01*
X149304494Y-100080537D01*
X149401185Y-100001185D01*
X149480537Y-99904494D01*
X149539502Y-99794180D01*
X149561513Y-99721620D01*
X149693368Y-99853475D01*
X149936589Y-100015990D01*
X150206842Y-100127932D01*
X150493740Y-100185000D01*
X150786260Y-100185000D01*
X151073158Y-100127932D01*
X151343411Y-100015990D01*
X151586632Y-99853475D01*
X151793475Y-99646632D01*
X151910000Y-99472240D01*
X152026525Y-99646632D01*
X152233368Y-99853475D01*
X152476589Y-100015990D01*
X152746842Y-100127932D01*
X153033740Y-100185000D01*
X153326260Y-100185000D01*
X153613158Y-100127932D01*
X153883411Y-100015990D01*
X154126632Y-99853475D01*
X154333475Y-99646632D01*
X154450000Y-99472240D01*
X154566525Y-99646632D01*
X154773368Y-99853475D01*
X155016589Y-100015990D01*
X155286842Y-100127932D01*
X155573740Y-100185000D01*
X155866260Y-100185000D01*
X156153158Y-100127932D01*
X156423411Y-100015990D01*
X156666632Y-99853475D01*
X156873475Y-99646632D01*
X156990000Y-99472240D01*
X157106525Y-99646632D01*
X157313368Y-99853475D01*
X157556589Y-100015990D01*
X157826842Y-100127932D01*
X158113740Y-100185000D01*
X158406260Y-100185000D01*
X158693158Y-100127932D01*
X158963411Y-100015990D01*
X159206632Y-99853475D01*
X159413475Y-99646632D01*
X159535195Y-99464466D01*
X159604822Y-99581355D01*
X159799731Y-99797588D01*
X160033080Y-99971641D01*
X160295901Y-100096825D01*
X160443110Y-100141476D01*
X160673000Y-100020155D01*
X160673000Y-98827000D01*
X160653000Y-98827000D01*
X160653000Y-98573000D01*
X160673000Y-98573000D01*
X160673000Y-98553000D01*
X160927000Y-98553000D01*
X160927000Y-98573000D01*
X160947000Y-98573000D01*
X160947000Y-98827000D01*
X160927000Y-98827000D01*
X160927000Y-100020155D01*
X161156890Y-100141476D01*
X161304099Y-100096825D01*
X161404900Y-100048813D01*
X161404900Y-100155298D01*
X160589200Y-100970999D01*
X160507203Y-100889002D01*
X160483401Y-100859999D01*
X160367676Y-100765026D01*
X160235647Y-100694454D01*
X160092386Y-100650997D01*
X159980733Y-100640000D01*
X159980722Y-100640000D01*
X159943400Y-100636324D01*
X159906078Y-100640000D01*
X148387325Y-100640000D01*
X148350000Y-100636324D01*
X148312675Y-100640000D01*
X148312667Y-100640000D01*
X148201014Y-100650997D01*
X148057753Y-100694454D01*
X147925724Y-100765026D01*
X147809999Y-100859999D01*
X147786201Y-100888997D01*
X146884839Y-101790359D01*
X146850000Y-101786928D01*
X146050000Y-101786928D01*
X145876746Y-101803992D01*
X145710150Y-101854528D01*
X145556614Y-101936595D01*
X145490000Y-101991263D01*
X145490000Y-97230000D01*
X147106358Y-97230000D01*
X147005820Y-97260498D01*
G37*
%TD.AperFunction*%
D14*
X165446842Y-97272068D02*
X165176589Y-97384010D01*
X164933368Y-97546525D01*
X164726525Y-97753368D01*
X164610000Y-97927760D01*
X164493475Y-97753368D01*
X164286632Y-97546525D01*
X164043411Y-97384010D01*
X163773158Y-97272068D01*
X163561670Y-97230000D01*
X165658330Y-97230000D01*
X165446842Y-97272068D01*
%TA.AperFunction,Conductor*%
D15*
G36*
X165446842Y-97272068D02*
G01*
X165176589Y-97384010D01*
X164933368Y-97546525D01*
X164726525Y-97753368D01*
X164610000Y-97927760D01*
X164493475Y-97753368D01*
X164286632Y-97546525D01*
X164043411Y-97384010D01*
X163773158Y-97272068D01*
X163561670Y-97230000D01*
X165658330Y-97230000D01*
X165446842Y-97272068D01*
G37*
%TD.AperFunction*%
%TD*%
M02*
