%TF.GenerationSoftware,KiCad,Pcbnew,4.0.2+dfsg1-stable*%
%TF.CreationDate,2019-03-01T15:28:12+01:00*%
%TF.ProjectId,A500MPU-Adapter,413530304D50552D416461707465722E,rev?*%
%TF.FileFunction,Copper,L2,Bot,Signal*%
%FSLAX46Y46*%
G04 Gerber Fmt 4.6, Leading zero omitted, Abs format (unit mm)*
G04 Created by KiCad (PCBNEW 4.0.2+dfsg1-stable) date Fri 01 Mar 2019 15:28:12 CET*
%MOMM*%
G01*
G04 APERTURE LIST*
%ADD10C,0.100000*%
%ADD11R,2.032000X2.032000*%
%ADD12O,2.032000X2.032000*%
%ADD13R,1.727200X2.032000*%
%ADD14O,1.727200X2.032000*%
%ADD15R,2.032000X1.524000*%
%ADD16R,1.600000X2.000000*%
%ADD17R,1.727200X1.727200*%
%ADD18O,1.727200X1.727200*%
%ADD19C,0.600000*%
%ADD20C,0.250000*%
%ADD21C,0.254000*%
G04 APERTURE END LIST*
D10*
D11*
X165100000Y-119380000D03*
D12*
X162560000Y-119380000D03*
D11*
X147320000Y-119380000D03*
D12*
X149860000Y-119380000D03*
D13*
X147320000Y-99060000D03*
D14*
X149860000Y-99060000D03*
X152400000Y-99060000D03*
X154940000Y-99060000D03*
X157480000Y-99060000D03*
X160020000Y-99060000D03*
X162560000Y-99060000D03*
X165100000Y-99060000D03*
D13*
X147320000Y-124460000D03*
D14*
X149860000Y-124460000D03*
X152400000Y-124460000D03*
X154940000Y-124460000D03*
X157480000Y-124460000D03*
X160020000Y-124460000D03*
X162560000Y-124460000D03*
X165100000Y-124460000D03*
D15*
X148590000Y-105664000D03*
X148590000Y-108966000D03*
D16*
X164465000Y-111665000D03*
X164465000Y-115665000D03*
D17*
X154940000Y-109220000D03*
D18*
X157480000Y-109220000D03*
X154940000Y-111760000D03*
X157480000Y-111760000D03*
X154940000Y-114300000D03*
X157480000Y-114300000D03*
D19*
X146685000Y-109855000D03*
X159766000Y-105537000D03*
X165608000Y-117094000D03*
X156591000Y-101219000D03*
X161290000Y-101092000D03*
X152908000Y-111252000D03*
X151384000Y-122682000D03*
X157734000Y-105791000D03*
X158877000Y-116840000D03*
X168275000Y-101854000D03*
X160655000Y-104775000D03*
X164465000Y-108585000D03*
X159258000Y-110998000D03*
X156591000Y-107442000D03*
X152908000Y-103505000D03*
X145796000Y-113792000D03*
X166243000Y-108458000D03*
X161290000Y-108712000D03*
X160655000Y-114681000D03*
D20*
X148590000Y-109601000D02*
X146939000Y-109601000D01*
X146939000Y-109601000D02*
X146685000Y-109855000D01*
X164465000Y-115665000D02*
X164370000Y-115665000D01*
X164370000Y-115665000D02*
X162560000Y-117475000D01*
X162560000Y-117475000D02*
X162560000Y-119380000D01*
X158877000Y-109982000D02*
X157480000Y-111379000D01*
X158877000Y-106426000D02*
X158877000Y-109982000D01*
X159766000Y-105537000D02*
X158877000Y-106426000D01*
X157480000Y-111379000D02*
X157480000Y-111760000D01*
X162560000Y-119380000D02*
X162179000Y-119380000D01*
X162179000Y-119380000D02*
X160020000Y-121539000D01*
X160020000Y-121539000D02*
X160020000Y-124460000D01*
X162560000Y-117856000D02*
X162560000Y-119380000D01*
X162814000Y-117602000D02*
X162560000Y-117856000D01*
X165100000Y-117602000D02*
X162814000Y-117602000D01*
X165608000Y-117094000D02*
X165100000Y-117602000D01*
X156591000Y-101219000D02*
X156718000Y-101092000D01*
X156718000Y-101092000D02*
X161290000Y-101092000D01*
X152908000Y-121158000D02*
X152908000Y-111252000D01*
X151384000Y-122682000D02*
X152908000Y-121158000D01*
X157480000Y-109220000D02*
X157480000Y-109601000D01*
X157480000Y-109601000D02*
X156591000Y-110490000D01*
X149860000Y-122936000D02*
X149860000Y-124460000D01*
X152273000Y-120523000D02*
X149860000Y-122936000D01*
X152273000Y-117602000D02*
X152273000Y-120523000D01*
X151892000Y-117221000D02*
X152273000Y-117602000D01*
X147066000Y-117221000D02*
X151892000Y-117221000D01*
X146431000Y-116586000D02*
X147066000Y-117221000D01*
X146431000Y-111887000D02*
X146431000Y-116586000D01*
X147828000Y-110490000D02*
X146431000Y-111887000D01*
X156591000Y-110490000D02*
X147828000Y-110490000D01*
X157480000Y-106045000D02*
X157480000Y-109220000D01*
X157734000Y-105791000D02*
X157480000Y-106045000D01*
X159893000Y-115824000D02*
X158877000Y-116840000D01*
X159893000Y-108077000D02*
X159893000Y-115824000D01*
X161036000Y-106934000D02*
X159893000Y-108077000D01*
X165862000Y-106934000D02*
X161036000Y-106934000D01*
X167259000Y-105537000D02*
X165862000Y-106934000D01*
X167259000Y-102870000D02*
X167259000Y-105537000D01*
X168275000Y-101854000D02*
X167259000Y-102870000D01*
X154940000Y-114300000D02*
X154940000Y-117602000D01*
X153670000Y-123190000D02*
X152400000Y-124460000D01*
X153670000Y-118872000D02*
X153670000Y-123190000D01*
X154940000Y-117602000D02*
X153670000Y-118872000D01*
X148590000Y-106299000D02*
X148590000Y-106045000D01*
X148590000Y-106045000D02*
X149860000Y-104775000D01*
X149860000Y-104775000D02*
X151638000Y-104775000D01*
X151638000Y-104775000D02*
X152908000Y-103505000D01*
X164465000Y-111665000D02*
X164465000Y-108585000D01*
X156591000Y-105791000D02*
X156591000Y-107442000D01*
X156210000Y-105410000D02*
X156591000Y-105791000D01*
X156210000Y-104775000D02*
X156210000Y-105410000D01*
X160655000Y-104775000D02*
X156210000Y-104775000D01*
X159258000Y-113157000D02*
X158115000Y-114300000D01*
X159258000Y-110998000D02*
X159258000Y-113157000D01*
X156591000Y-107188000D02*
X156591000Y-107442000D01*
X152908000Y-103505000D02*
X156591000Y-107188000D01*
X158115000Y-114300000D02*
X157480000Y-114300000D01*
X154940000Y-124460000D02*
X154940000Y-119888000D01*
X157480000Y-117348000D02*
X157480000Y-114300000D01*
X154940000Y-119888000D02*
X157480000Y-117348000D01*
X162560000Y-124460000D02*
X162560000Y-125349000D01*
X162560000Y-125349000D02*
X161417000Y-126492000D01*
X145796000Y-126111000D02*
X145796000Y-113792000D01*
X146177000Y-126492000D02*
X145796000Y-126111000D01*
X161417000Y-126492000D02*
X146177000Y-126492000D01*
X162560000Y-125603000D02*
X162560000Y-124460000D01*
X163322000Y-126365000D02*
X162560000Y-125603000D01*
X166878000Y-126365000D02*
X163322000Y-126365000D01*
X167767000Y-125476000D02*
X166878000Y-126365000D01*
X167767000Y-109982000D02*
X167767000Y-125476000D01*
X166243000Y-108458000D02*
X167767000Y-109982000D01*
X161290000Y-114046000D02*
X161290000Y-108712000D01*
X160655000Y-114681000D02*
X161290000Y-114046000D01*
D21*
G36*
X163936057Y-107791883D02*
X163672808Y-108054673D01*
X163530162Y-108398201D01*
X163529838Y-108770167D01*
X163671883Y-109113943D01*
X163705000Y-109147118D01*
X163705000Y-110017560D01*
X163665000Y-110017560D01*
X163429683Y-110061838D01*
X163213559Y-110200910D01*
X163068569Y-110413110D01*
X163017560Y-110665000D01*
X163017560Y-112665000D01*
X163061838Y-112900317D01*
X163200910Y-113116441D01*
X163413110Y-113261431D01*
X163665000Y-113312440D01*
X165265000Y-113312440D01*
X165500317Y-113268162D01*
X165716441Y-113129090D01*
X165861431Y-112916890D01*
X165912440Y-112665000D01*
X165912440Y-110665000D01*
X165868162Y-110429683D01*
X165729090Y-110213559D01*
X165516890Y-110068569D01*
X165265000Y-110017560D01*
X165225000Y-110017560D01*
X165225000Y-109147463D01*
X165257192Y-109115327D01*
X165380365Y-108818696D01*
X165449883Y-108986943D01*
X165712673Y-109250192D01*
X166056201Y-109392838D01*
X166103077Y-109392879D01*
X167007000Y-110296802D01*
X167007000Y-125161198D01*
X166563198Y-125605000D01*
X166226097Y-125605000D01*
X166484526Y-125218234D01*
X166598600Y-124644745D01*
X166598600Y-124275255D01*
X166484526Y-123701766D01*
X166159670Y-123215585D01*
X165673489Y-122890729D01*
X165100000Y-122776655D01*
X164526511Y-122890729D01*
X164040330Y-123215585D01*
X163830000Y-123530366D01*
X163619670Y-123215585D01*
X163133489Y-122890729D01*
X162560000Y-122776655D01*
X161986511Y-122890729D01*
X161500330Y-123215585D01*
X161293539Y-123525069D01*
X160922036Y-123109268D01*
X160394791Y-122855291D01*
X160379026Y-122852642D01*
X160147000Y-122973783D01*
X160147000Y-124333000D01*
X160167000Y-124333000D01*
X160167000Y-124587000D01*
X160147000Y-124587000D01*
X160147000Y-124607000D01*
X159893000Y-124607000D01*
X159893000Y-124587000D01*
X159873000Y-124587000D01*
X159873000Y-124333000D01*
X159893000Y-124333000D01*
X159893000Y-122973783D01*
X159660974Y-122852642D01*
X159645209Y-122855291D01*
X159117964Y-123109268D01*
X158746461Y-123525069D01*
X158539670Y-123215585D01*
X158053489Y-122890729D01*
X157480000Y-122776655D01*
X156906511Y-122890729D01*
X156420330Y-123215585D01*
X156210000Y-123530366D01*
X155999670Y-123215585D01*
X155700000Y-123015352D01*
X155700000Y-120202802D01*
X156139856Y-119762946D01*
X160954017Y-119762946D01*
X161222812Y-120348379D01*
X161695182Y-120786385D01*
X162177056Y-120985975D01*
X162433000Y-120866836D01*
X162433000Y-119507000D01*
X161072633Y-119507000D01*
X160954017Y-119762946D01*
X156139856Y-119762946D01*
X156905748Y-118997054D01*
X160954017Y-118997054D01*
X161072633Y-119253000D01*
X162433000Y-119253000D01*
X162433000Y-117893164D01*
X162687000Y-117893164D01*
X162687000Y-119253000D01*
X162707000Y-119253000D01*
X162707000Y-119507000D01*
X162687000Y-119507000D01*
X162687000Y-120866836D01*
X162942944Y-120985975D01*
X163424818Y-120786385D01*
X163522398Y-120695903D01*
X163619910Y-120847441D01*
X163832110Y-120992431D01*
X164084000Y-121043440D01*
X166116000Y-121043440D01*
X166351317Y-120999162D01*
X166567441Y-120860090D01*
X166712431Y-120647890D01*
X166763440Y-120396000D01*
X166763440Y-118364000D01*
X166719162Y-118128683D01*
X166580090Y-117912559D01*
X166367890Y-117767569D01*
X166116000Y-117716560D01*
X164084000Y-117716560D01*
X163848683Y-117760838D01*
X163632559Y-117899910D01*
X163521160Y-118062948D01*
X163424818Y-117973615D01*
X162942944Y-117774025D01*
X162687000Y-117893164D01*
X162433000Y-117893164D01*
X162177056Y-117774025D01*
X161695182Y-117973615D01*
X161222812Y-118411621D01*
X160954017Y-118997054D01*
X156905748Y-118997054D01*
X158017401Y-117885401D01*
X158182148Y-117638840D01*
X158207410Y-117511839D01*
X158210587Y-117495868D01*
X158346673Y-117632192D01*
X158690201Y-117774838D01*
X159062167Y-117775162D01*
X159405943Y-117633117D01*
X159669192Y-117370327D01*
X159811838Y-117026799D01*
X159811879Y-116979923D01*
X160430401Y-116361401D01*
X160595148Y-116114839D01*
X160627787Y-115950750D01*
X163030000Y-115950750D01*
X163030000Y-116791309D01*
X163126673Y-117024698D01*
X163305301Y-117203327D01*
X163538690Y-117300000D01*
X164179250Y-117300000D01*
X164338000Y-117141250D01*
X164338000Y-115792000D01*
X164592000Y-115792000D01*
X164592000Y-117141250D01*
X164750750Y-117300000D01*
X165391310Y-117300000D01*
X165624699Y-117203327D01*
X165803327Y-117024698D01*
X165900000Y-116791309D01*
X165900000Y-115950750D01*
X165741250Y-115792000D01*
X164592000Y-115792000D01*
X164338000Y-115792000D01*
X163188750Y-115792000D01*
X163030000Y-115950750D01*
X160627787Y-115950750D01*
X160653000Y-115824000D01*
X160653000Y-115615999D01*
X160840167Y-115616162D01*
X161183943Y-115474117D01*
X161447192Y-115211327D01*
X161589838Y-114867799D01*
X161589879Y-114820923D01*
X161827401Y-114583401D01*
X161857275Y-114538691D01*
X163030000Y-114538691D01*
X163030000Y-115379250D01*
X163188750Y-115538000D01*
X164338000Y-115538000D01*
X164338000Y-114188750D01*
X164592000Y-114188750D01*
X164592000Y-115538000D01*
X165741250Y-115538000D01*
X165900000Y-115379250D01*
X165900000Y-114538691D01*
X165803327Y-114305302D01*
X165624699Y-114126673D01*
X165391310Y-114030000D01*
X164750750Y-114030000D01*
X164592000Y-114188750D01*
X164338000Y-114188750D01*
X164179250Y-114030000D01*
X163538690Y-114030000D01*
X163305301Y-114126673D01*
X163126673Y-114305302D01*
X163030000Y-114538691D01*
X161857275Y-114538691D01*
X161992148Y-114336839D01*
X162050000Y-114046000D01*
X162050000Y-109274463D01*
X162082192Y-109242327D01*
X162224838Y-108898799D01*
X162225162Y-108526833D01*
X162083117Y-108183057D01*
X161820327Y-107919808D01*
X161476799Y-107777162D01*
X161267822Y-107776980D01*
X161350802Y-107694000D01*
X164172953Y-107694000D01*
X163936057Y-107791883D01*
X163936057Y-107791883D01*
G37*
X163936057Y-107791883D02*
X163672808Y-108054673D01*
X163530162Y-108398201D01*
X163529838Y-108770167D01*
X163671883Y-109113943D01*
X163705000Y-109147118D01*
X163705000Y-110017560D01*
X163665000Y-110017560D01*
X163429683Y-110061838D01*
X163213559Y-110200910D01*
X163068569Y-110413110D01*
X163017560Y-110665000D01*
X163017560Y-112665000D01*
X163061838Y-112900317D01*
X163200910Y-113116441D01*
X163413110Y-113261431D01*
X163665000Y-113312440D01*
X165265000Y-113312440D01*
X165500317Y-113268162D01*
X165716441Y-113129090D01*
X165861431Y-112916890D01*
X165912440Y-112665000D01*
X165912440Y-110665000D01*
X165868162Y-110429683D01*
X165729090Y-110213559D01*
X165516890Y-110068569D01*
X165265000Y-110017560D01*
X165225000Y-110017560D01*
X165225000Y-109147463D01*
X165257192Y-109115327D01*
X165380365Y-108818696D01*
X165449883Y-108986943D01*
X165712673Y-109250192D01*
X166056201Y-109392838D01*
X166103077Y-109392879D01*
X167007000Y-110296802D01*
X167007000Y-125161198D01*
X166563198Y-125605000D01*
X166226097Y-125605000D01*
X166484526Y-125218234D01*
X166598600Y-124644745D01*
X166598600Y-124275255D01*
X166484526Y-123701766D01*
X166159670Y-123215585D01*
X165673489Y-122890729D01*
X165100000Y-122776655D01*
X164526511Y-122890729D01*
X164040330Y-123215585D01*
X163830000Y-123530366D01*
X163619670Y-123215585D01*
X163133489Y-122890729D01*
X162560000Y-122776655D01*
X161986511Y-122890729D01*
X161500330Y-123215585D01*
X161293539Y-123525069D01*
X160922036Y-123109268D01*
X160394791Y-122855291D01*
X160379026Y-122852642D01*
X160147000Y-122973783D01*
X160147000Y-124333000D01*
X160167000Y-124333000D01*
X160167000Y-124587000D01*
X160147000Y-124587000D01*
X160147000Y-124607000D01*
X159893000Y-124607000D01*
X159893000Y-124587000D01*
X159873000Y-124587000D01*
X159873000Y-124333000D01*
X159893000Y-124333000D01*
X159893000Y-122973783D01*
X159660974Y-122852642D01*
X159645209Y-122855291D01*
X159117964Y-123109268D01*
X158746461Y-123525069D01*
X158539670Y-123215585D01*
X158053489Y-122890729D01*
X157480000Y-122776655D01*
X156906511Y-122890729D01*
X156420330Y-123215585D01*
X156210000Y-123530366D01*
X155999670Y-123215585D01*
X155700000Y-123015352D01*
X155700000Y-120202802D01*
X156139856Y-119762946D01*
X160954017Y-119762946D01*
X161222812Y-120348379D01*
X161695182Y-120786385D01*
X162177056Y-120985975D01*
X162433000Y-120866836D01*
X162433000Y-119507000D01*
X161072633Y-119507000D01*
X160954017Y-119762946D01*
X156139856Y-119762946D01*
X156905748Y-118997054D01*
X160954017Y-118997054D01*
X161072633Y-119253000D01*
X162433000Y-119253000D01*
X162433000Y-117893164D01*
X162687000Y-117893164D01*
X162687000Y-119253000D01*
X162707000Y-119253000D01*
X162707000Y-119507000D01*
X162687000Y-119507000D01*
X162687000Y-120866836D01*
X162942944Y-120985975D01*
X163424818Y-120786385D01*
X163522398Y-120695903D01*
X163619910Y-120847441D01*
X163832110Y-120992431D01*
X164084000Y-121043440D01*
X166116000Y-121043440D01*
X166351317Y-120999162D01*
X166567441Y-120860090D01*
X166712431Y-120647890D01*
X166763440Y-120396000D01*
X166763440Y-118364000D01*
X166719162Y-118128683D01*
X166580090Y-117912559D01*
X166367890Y-117767569D01*
X166116000Y-117716560D01*
X164084000Y-117716560D01*
X163848683Y-117760838D01*
X163632559Y-117899910D01*
X163521160Y-118062948D01*
X163424818Y-117973615D01*
X162942944Y-117774025D01*
X162687000Y-117893164D01*
X162433000Y-117893164D01*
X162177056Y-117774025D01*
X161695182Y-117973615D01*
X161222812Y-118411621D01*
X160954017Y-118997054D01*
X156905748Y-118997054D01*
X158017401Y-117885401D01*
X158182148Y-117638840D01*
X158207410Y-117511839D01*
X158210587Y-117495868D01*
X158346673Y-117632192D01*
X158690201Y-117774838D01*
X159062167Y-117775162D01*
X159405943Y-117633117D01*
X159669192Y-117370327D01*
X159811838Y-117026799D01*
X159811879Y-116979923D01*
X160430401Y-116361401D01*
X160595148Y-116114839D01*
X160627787Y-115950750D01*
X163030000Y-115950750D01*
X163030000Y-116791309D01*
X163126673Y-117024698D01*
X163305301Y-117203327D01*
X163538690Y-117300000D01*
X164179250Y-117300000D01*
X164338000Y-117141250D01*
X164338000Y-115792000D01*
X164592000Y-115792000D01*
X164592000Y-117141250D01*
X164750750Y-117300000D01*
X165391310Y-117300000D01*
X165624699Y-117203327D01*
X165803327Y-117024698D01*
X165900000Y-116791309D01*
X165900000Y-115950750D01*
X165741250Y-115792000D01*
X164592000Y-115792000D01*
X164338000Y-115792000D01*
X163188750Y-115792000D01*
X163030000Y-115950750D01*
X160627787Y-115950750D01*
X160653000Y-115824000D01*
X160653000Y-115615999D01*
X160840167Y-115616162D01*
X161183943Y-115474117D01*
X161447192Y-115211327D01*
X161589838Y-114867799D01*
X161589879Y-114820923D01*
X161827401Y-114583401D01*
X161857275Y-114538691D01*
X163030000Y-114538691D01*
X163030000Y-115379250D01*
X163188750Y-115538000D01*
X164338000Y-115538000D01*
X164338000Y-114188750D01*
X164592000Y-114188750D01*
X164592000Y-115538000D01*
X165741250Y-115538000D01*
X165900000Y-115379250D01*
X165900000Y-114538691D01*
X165803327Y-114305302D01*
X165624699Y-114126673D01*
X165391310Y-114030000D01*
X164750750Y-114030000D01*
X164592000Y-114188750D01*
X164338000Y-114188750D01*
X164179250Y-114030000D01*
X163538690Y-114030000D01*
X163305301Y-114126673D01*
X163126673Y-114305302D01*
X163030000Y-114538691D01*
X161857275Y-114538691D01*
X161992148Y-114336839D01*
X162050000Y-114046000D01*
X162050000Y-109274463D01*
X162082192Y-109242327D01*
X162224838Y-108898799D01*
X162225162Y-108526833D01*
X162083117Y-108183057D01*
X161820327Y-107919808D01*
X161476799Y-107777162D01*
X161267822Y-107776980D01*
X161350802Y-107694000D01*
X164172953Y-107694000D01*
X163936057Y-107791883D01*
G36*
X151513000Y-120208198D02*
X149322599Y-122398599D01*
X149157852Y-122645161D01*
X149100000Y-122936000D01*
X149100000Y-123015352D01*
X148800330Y-123215585D01*
X148790757Y-123229913D01*
X148786762Y-123208683D01*
X148647690Y-122992559D01*
X148435490Y-122847569D01*
X148183600Y-122796560D01*
X146556000Y-122796560D01*
X146556000Y-121043440D01*
X148336000Y-121043440D01*
X148571317Y-120999162D01*
X148787441Y-120860090D01*
X148898840Y-120697052D01*
X148995182Y-120786385D01*
X149477056Y-120985975D01*
X149733000Y-120866836D01*
X149733000Y-119507000D01*
X149987000Y-119507000D01*
X149987000Y-120866836D01*
X150242944Y-120985975D01*
X150724818Y-120786385D01*
X151197188Y-120348379D01*
X151465983Y-119762946D01*
X151347367Y-119507000D01*
X149987000Y-119507000D01*
X149733000Y-119507000D01*
X149713000Y-119507000D01*
X149713000Y-119253000D01*
X149733000Y-119253000D01*
X149733000Y-119233000D01*
X149987000Y-119233000D01*
X149987000Y-119253000D01*
X151347367Y-119253000D01*
X151465983Y-118997054D01*
X151197188Y-118411621D01*
X150732782Y-117981000D01*
X151513000Y-117981000D01*
X151513000Y-120208198D01*
X151513000Y-120208198D01*
G37*
X151513000Y-120208198D02*
X149322599Y-122398599D01*
X149157852Y-122645161D01*
X149100000Y-122936000D01*
X149100000Y-123015352D01*
X148800330Y-123215585D01*
X148790757Y-123229913D01*
X148786762Y-123208683D01*
X148647690Y-122992559D01*
X148435490Y-122847569D01*
X148183600Y-122796560D01*
X146556000Y-122796560D01*
X146556000Y-121043440D01*
X148336000Y-121043440D01*
X148571317Y-120999162D01*
X148787441Y-120860090D01*
X148898840Y-120697052D01*
X148995182Y-120786385D01*
X149477056Y-120985975D01*
X149733000Y-120866836D01*
X149733000Y-119507000D01*
X149987000Y-119507000D01*
X149987000Y-120866836D01*
X150242944Y-120985975D01*
X150724818Y-120786385D01*
X151197188Y-120348379D01*
X151465983Y-119762946D01*
X151347367Y-119507000D01*
X149987000Y-119507000D01*
X149733000Y-119507000D01*
X149713000Y-119507000D01*
X149713000Y-119253000D01*
X149733000Y-119253000D01*
X149733000Y-119233000D01*
X149987000Y-119233000D01*
X149987000Y-119253000D01*
X151347367Y-119253000D01*
X151465983Y-118997054D01*
X151197188Y-118411621D01*
X150732782Y-117981000D01*
X151513000Y-117981000D01*
X151513000Y-120208198D01*
G36*
X168148000Y-100918889D02*
X168089833Y-100918838D01*
X167746057Y-101060883D01*
X167482808Y-101323673D01*
X167340162Y-101667201D01*
X167340121Y-101714077D01*
X166721599Y-102332599D01*
X166556852Y-102579161D01*
X166499000Y-102870000D01*
X166499000Y-105222198D01*
X165547198Y-106174000D01*
X161036000Y-106174000D01*
X160745161Y-106231852D01*
X160498599Y-106396599D01*
X159355599Y-107539599D01*
X159190852Y-107786161D01*
X159133000Y-108077000D01*
X159133000Y-110062890D01*
X159072833Y-110062838D01*
X158729057Y-110204883D01*
X158465808Y-110467673D01*
X158410975Y-110599725D01*
X158368490Y-110553179D01*
X158245772Y-110495664D01*
X158569029Y-110279670D01*
X158893885Y-109793489D01*
X159007959Y-109220000D01*
X158893885Y-108646511D01*
X158569029Y-108160330D01*
X158240000Y-107940480D01*
X158240000Y-106593597D01*
X158262943Y-106584117D01*
X158526192Y-106321327D01*
X158668838Y-105977799D01*
X158669162Y-105605833D01*
X158639894Y-105535000D01*
X160092537Y-105535000D01*
X160124673Y-105567192D01*
X160468201Y-105709838D01*
X160840167Y-105710162D01*
X161183943Y-105568117D01*
X161447192Y-105305327D01*
X161589838Y-104961799D01*
X161590162Y-104589833D01*
X161448117Y-104246057D01*
X161185327Y-103982808D01*
X160841799Y-103840162D01*
X160469833Y-103839838D01*
X160126057Y-103981883D01*
X160092882Y-104015000D01*
X156210000Y-104015000D01*
X155919161Y-104072852D01*
X155672599Y-104237599D01*
X155507852Y-104484161D01*
X155450000Y-104775000D01*
X155450000Y-104972198D01*
X153843122Y-103365320D01*
X153843162Y-103319833D01*
X153701117Y-102976057D01*
X153438327Y-102712808D01*
X153094799Y-102570162D01*
X152722833Y-102569838D01*
X152379057Y-102711883D01*
X152115808Y-102974673D01*
X151973162Y-103318201D01*
X151973121Y-103365077D01*
X151323198Y-104015000D01*
X149860000Y-104015000D01*
X149569160Y-104072852D01*
X149322599Y-104237599D01*
X149305638Y-104254560D01*
X147574000Y-104254560D01*
X147338683Y-104298838D01*
X147122559Y-104437910D01*
X146977569Y-104650110D01*
X146926560Y-104902000D01*
X146926560Y-106426000D01*
X146970838Y-106661317D01*
X147109910Y-106877441D01*
X147322110Y-107022431D01*
X147574000Y-107073440D01*
X149606000Y-107073440D01*
X149841317Y-107029162D01*
X150057441Y-106890090D01*
X150202431Y-106677890D01*
X150253440Y-106426000D01*
X150253440Y-105535000D01*
X151638000Y-105535000D01*
X151928839Y-105477148D01*
X152175401Y-105312401D01*
X152908000Y-104579802D01*
X155656099Y-107327901D01*
X155655838Y-107627167D01*
X155689634Y-107708960D01*
X154076400Y-107708960D01*
X153841083Y-107753238D01*
X153624959Y-107892310D01*
X153479969Y-108104510D01*
X153428960Y-108356400D01*
X153428960Y-109730000D01*
X150241000Y-109730000D01*
X150241000Y-109251750D01*
X150082250Y-109093000D01*
X148717000Y-109093000D01*
X148717000Y-109113000D01*
X148463000Y-109113000D01*
X148463000Y-109093000D01*
X147097750Y-109093000D01*
X146939000Y-109251750D01*
X146939000Y-109854309D01*
X147035673Y-110087698D01*
X147095586Y-110147612D01*
X145893599Y-111349599D01*
X145728852Y-111596161D01*
X145671000Y-111887000D01*
X145671000Y-112856890D01*
X145610833Y-112856838D01*
X145542000Y-112885279D01*
X145542000Y-108077691D01*
X146939000Y-108077691D01*
X146939000Y-108680250D01*
X147097750Y-108839000D01*
X148463000Y-108839000D01*
X148463000Y-107727750D01*
X148717000Y-107727750D01*
X148717000Y-108839000D01*
X150082250Y-108839000D01*
X150241000Y-108680250D01*
X150241000Y-108077691D01*
X150144327Y-107844302D01*
X149965699Y-107665673D01*
X149732310Y-107569000D01*
X148875750Y-107569000D01*
X148717000Y-107727750D01*
X148463000Y-107727750D01*
X148304250Y-107569000D01*
X147447690Y-107569000D01*
X147214301Y-107665673D01*
X147035673Y-107844302D01*
X146939000Y-108077691D01*
X145542000Y-108077691D01*
X145542000Y-98044000D01*
X145808960Y-98044000D01*
X145808960Y-100076000D01*
X145853238Y-100311317D01*
X145992310Y-100527441D01*
X146204510Y-100672431D01*
X146456400Y-100723440D01*
X148183600Y-100723440D01*
X148418917Y-100679162D01*
X148635041Y-100540090D01*
X148780031Y-100327890D01*
X148788400Y-100286561D01*
X148800330Y-100304415D01*
X149286511Y-100629271D01*
X149860000Y-100743345D01*
X150433489Y-100629271D01*
X150919670Y-100304415D01*
X151130000Y-99989634D01*
X151340330Y-100304415D01*
X151826511Y-100629271D01*
X152400000Y-100743345D01*
X152973489Y-100629271D01*
X153459670Y-100304415D01*
X153670000Y-99989634D01*
X153880330Y-100304415D01*
X154366511Y-100629271D01*
X154940000Y-100743345D01*
X155513489Y-100629271D01*
X155999670Y-100304415D01*
X156210000Y-99989634D01*
X156406581Y-100283839D01*
X156405833Y-100283838D01*
X156062057Y-100425883D01*
X155798808Y-100688673D01*
X155656162Y-101032201D01*
X155655838Y-101404167D01*
X155797883Y-101747943D01*
X156060673Y-102011192D01*
X156404201Y-102153838D01*
X156776167Y-102154162D01*
X157119943Y-102012117D01*
X157280340Y-101852000D01*
X160727537Y-101852000D01*
X160759673Y-101884192D01*
X161103201Y-102026838D01*
X161475167Y-102027162D01*
X161818943Y-101885117D01*
X162082192Y-101622327D01*
X162224838Y-101278799D01*
X162225162Y-100906833D01*
X162121577Y-100656137D01*
X162560000Y-100743345D01*
X163133489Y-100629271D01*
X163619670Y-100304415D01*
X163830000Y-99989634D01*
X164040330Y-100304415D01*
X164526511Y-100629271D01*
X165100000Y-100743345D01*
X165673489Y-100629271D01*
X166159670Y-100304415D01*
X166484526Y-99818234D01*
X166598600Y-99244745D01*
X166598600Y-98875255D01*
X166484526Y-98301766D01*
X166159670Y-97815585D01*
X165673489Y-97490729D01*
X165100000Y-97376655D01*
X164526511Y-97490729D01*
X164040330Y-97815585D01*
X163830000Y-98130366D01*
X163619670Y-97815585D01*
X163133489Y-97490729D01*
X162560000Y-97376655D01*
X161986511Y-97490729D01*
X161500330Y-97815585D01*
X161293539Y-98125069D01*
X160922036Y-97709268D01*
X160394791Y-97455291D01*
X160379026Y-97452642D01*
X160147000Y-97573783D01*
X160147000Y-98933000D01*
X160167000Y-98933000D01*
X160167000Y-99187000D01*
X160147000Y-99187000D01*
X160147000Y-99207000D01*
X159893000Y-99207000D01*
X159893000Y-99187000D01*
X159873000Y-99187000D01*
X159873000Y-98933000D01*
X159893000Y-98933000D01*
X159893000Y-97573783D01*
X159660974Y-97452642D01*
X159645209Y-97455291D01*
X159117964Y-97709268D01*
X158746461Y-98125069D01*
X158539670Y-97815585D01*
X158053489Y-97490729D01*
X157480000Y-97376655D01*
X156906511Y-97490729D01*
X156420330Y-97815585D01*
X156210000Y-98130366D01*
X155999670Y-97815585D01*
X155513489Y-97490729D01*
X154940000Y-97376655D01*
X154366511Y-97490729D01*
X153880330Y-97815585D01*
X153670000Y-98130366D01*
X153459670Y-97815585D01*
X152973489Y-97490729D01*
X152400000Y-97376655D01*
X151826511Y-97490729D01*
X151340330Y-97815585D01*
X151130000Y-98130366D01*
X150919670Y-97815585D01*
X150433489Y-97490729D01*
X149860000Y-97376655D01*
X149286511Y-97490729D01*
X148800330Y-97815585D01*
X148790757Y-97829913D01*
X148786762Y-97808683D01*
X148647690Y-97592559D01*
X148435490Y-97447569D01*
X148183600Y-97396560D01*
X146456400Y-97396560D01*
X146221083Y-97440838D01*
X146004959Y-97579910D01*
X145859969Y-97792110D01*
X145808960Y-98044000D01*
X145542000Y-98044000D01*
X145542000Y-97282000D01*
X168148000Y-97282000D01*
X168148000Y-100918889D01*
X168148000Y-100918889D01*
G37*
X168148000Y-100918889D02*
X168089833Y-100918838D01*
X167746057Y-101060883D01*
X167482808Y-101323673D01*
X167340162Y-101667201D01*
X167340121Y-101714077D01*
X166721599Y-102332599D01*
X166556852Y-102579161D01*
X166499000Y-102870000D01*
X166499000Y-105222198D01*
X165547198Y-106174000D01*
X161036000Y-106174000D01*
X160745161Y-106231852D01*
X160498599Y-106396599D01*
X159355599Y-107539599D01*
X159190852Y-107786161D01*
X159133000Y-108077000D01*
X159133000Y-110062890D01*
X159072833Y-110062838D01*
X158729057Y-110204883D01*
X158465808Y-110467673D01*
X158410975Y-110599725D01*
X158368490Y-110553179D01*
X158245772Y-110495664D01*
X158569029Y-110279670D01*
X158893885Y-109793489D01*
X159007959Y-109220000D01*
X158893885Y-108646511D01*
X158569029Y-108160330D01*
X158240000Y-107940480D01*
X158240000Y-106593597D01*
X158262943Y-106584117D01*
X158526192Y-106321327D01*
X158668838Y-105977799D01*
X158669162Y-105605833D01*
X158639894Y-105535000D01*
X160092537Y-105535000D01*
X160124673Y-105567192D01*
X160468201Y-105709838D01*
X160840167Y-105710162D01*
X161183943Y-105568117D01*
X161447192Y-105305327D01*
X161589838Y-104961799D01*
X161590162Y-104589833D01*
X161448117Y-104246057D01*
X161185327Y-103982808D01*
X160841799Y-103840162D01*
X160469833Y-103839838D01*
X160126057Y-103981883D01*
X160092882Y-104015000D01*
X156210000Y-104015000D01*
X155919161Y-104072852D01*
X155672599Y-104237599D01*
X155507852Y-104484161D01*
X155450000Y-104775000D01*
X155450000Y-104972198D01*
X153843122Y-103365320D01*
X153843162Y-103319833D01*
X153701117Y-102976057D01*
X153438327Y-102712808D01*
X153094799Y-102570162D01*
X152722833Y-102569838D01*
X152379057Y-102711883D01*
X152115808Y-102974673D01*
X151973162Y-103318201D01*
X151973121Y-103365077D01*
X151323198Y-104015000D01*
X149860000Y-104015000D01*
X149569160Y-104072852D01*
X149322599Y-104237599D01*
X149305638Y-104254560D01*
X147574000Y-104254560D01*
X147338683Y-104298838D01*
X147122559Y-104437910D01*
X146977569Y-104650110D01*
X146926560Y-104902000D01*
X146926560Y-106426000D01*
X146970838Y-106661317D01*
X147109910Y-106877441D01*
X147322110Y-107022431D01*
X147574000Y-107073440D01*
X149606000Y-107073440D01*
X149841317Y-107029162D01*
X150057441Y-106890090D01*
X150202431Y-106677890D01*
X150253440Y-106426000D01*
X150253440Y-105535000D01*
X151638000Y-105535000D01*
X151928839Y-105477148D01*
X152175401Y-105312401D01*
X152908000Y-104579802D01*
X155656099Y-107327901D01*
X155655838Y-107627167D01*
X155689634Y-107708960D01*
X154076400Y-107708960D01*
X153841083Y-107753238D01*
X153624959Y-107892310D01*
X153479969Y-108104510D01*
X153428960Y-108356400D01*
X153428960Y-109730000D01*
X150241000Y-109730000D01*
X150241000Y-109251750D01*
X150082250Y-109093000D01*
X148717000Y-109093000D01*
X148717000Y-109113000D01*
X148463000Y-109113000D01*
X148463000Y-109093000D01*
X147097750Y-109093000D01*
X146939000Y-109251750D01*
X146939000Y-109854309D01*
X147035673Y-110087698D01*
X147095586Y-110147612D01*
X145893599Y-111349599D01*
X145728852Y-111596161D01*
X145671000Y-111887000D01*
X145671000Y-112856890D01*
X145610833Y-112856838D01*
X145542000Y-112885279D01*
X145542000Y-108077691D01*
X146939000Y-108077691D01*
X146939000Y-108680250D01*
X147097750Y-108839000D01*
X148463000Y-108839000D01*
X148463000Y-107727750D01*
X148717000Y-107727750D01*
X148717000Y-108839000D01*
X150082250Y-108839000D01*
X150241000Y-108680250D01*
X150241000Y-108077691D01*
X150144327Y-107844302D01*
X149965699Y-107665673D01*
X149732310Y-107569000D01*
X148875750Y-107569000D01*
X148717000Y-107727750D01*
X148463000Y-107727750D01*
X148304250Y-107569000D01*
X147447690Y-107569000D01*
X147214301Y-107665673D01*
X147035673Y-107844302D01*
X146939000Y-108077691D01*
X145542000Y-108077691D01*
X145542000Y-98044000D01*
X145808960Y-98044000D01*
X145808960Y-100076000D01*
X145853238Y-100311317D01*
X145992310Y-100527441D01*
X146204510Y-100672431D01*
X146456400Y-100723440D01*
X148183600Y-100723440D01*
X148418917Y-100679162D01*
X148635041Y-100540090D01*
X148780031Y-100327890D01*
X148788400Y-100286561D01*
X148800330Y-100304415D01*
X149286511Y-100629271D01*
X149860000Y-100743345D01*
X150433489Y-100629271D01*
X150919670Y-100304415D01*
X151130000Y-99989634D01*
X151340330Y-100304415D01*
X151826511Y-100629271D01*
X152400000Y-100743345D01*
X152973489Y-100629271D01*
X153459670Y-100304415D01*
X153670000Y-99989634D01*
X153880330Y-100304415D01*
X154366511Y-100629271D01*
X154940000Y-100743345D01*
X155513489Y-100629271D01*
X155999670Y-100304415D01*
X156210000Y-99989634D01*
X156406581Y-100283839D01*
X156405833Y-100283838D01*
X156062057Y-100425883D01*
X155798808Y-100688673D01*
X155656162Y-101032201D01*
X155655838Y-101404167D01*
X155797883Y-101747943D01*
X156060673Y-102011192D01*
X156404201Y-102153838D01*
X156776167Y-102154162D01*
X157119943Y-102012117D01*
X157280340Y-101852000D01*
X160727537Y-101852000D01*
X160759673Y-101884192D01*
X161103201Y-102026838D01*
X161475167Y-102027162D01*
X161818943Y-101885117D01*
X162082192Y-101622327D01*
X162224838Y-101278799D01*
X162225162Y-100906833D01*
X162121577Y-100656137D01*
X162560000Y-100743345D01*
X163133489Y-100629271D01*
X163619670Y-100304415D01*
X163830000Y-99989634D01*
X164040330Y-100304415D01*
X164526511Y-100629271D01*
X165100000Y-100743345D01*
X165673489Y-100629271D01*
X166159670Y-100304415D01*
X166484526Y-99818234D01*
X166598600Y-99244745D01*
X166598600Y-98875255D01*
X166484526Y-98301766D01*
X166159670Y-97815585D01*
X165673489Y-97490729D01*
X165100000Y-97376655D01*
X164526511Y-97490729D01*
X164040330Y-97815585D01*
X163830000Y-98130366D01*
X163619670Y-97815585D01*
X163133489Y-97490729D01*
X162560000Y-97376655D01*
X161986511Y-97490729D01*
X161500330Y-97815585D01*
X161293539Y-98125069D01*
X160922036Y-97709268D01*
X160394791Y-97455291D01*
X160379026Y-97452642D01*
X160147000Y-97573783D01*
X160147000Y-98933000D01*
X160167000Y-98933000D01*
X160167000Y-99187000D01*
X160147000Y-99187000D01*
X160147000Y-99207000D01*
X159893000Y-99207000D01*
X159893000Y-99187000D01*
X159873000Y-99187000D01*
X159873000Y-98933000D01*
X159893000Y-98933000D01*
X159893000Y-97573783D01*
X159660974Y-97452642D01*
X159645209Y-97455291D01*
X159117964Y-97709268D01*
X158746461Y-98125069D01*
X158539670Y-97815585D01*
X158053489Y-97490729D01*
X157480000Y-97376655D01*
X156906511Y-97490729D01*
X156420330Y-97815585D01*
X156210000Y-98130366D01*
X155999670Y-97815585D01*
X155513489Y-97490729D01*
X154940000Y-97376655D01*
X154366511Y-97490729D01*
X153880330Y-97815585D01*
X153670000Y-98130366D01*
X153459670Y-97815585D01*
X152973489Y-97490729D01*
X152400000Y-97376655D01*
X151826511Y-97490729D01*
X151340330Y-97815585D01*
X151130000Y-98130366D01*
X150919670Y-97815585D01*
X150433489Y-97490729D01*
X149860000Y-97376655D01*
X149286511Y-97490729D01*
X148800330Y-97815585D01*
X148790757Y-97829913D01*
X148786762Y-97808683D01*
X148647690Y-97592559D01*
X148435490Y-97447569D01*
X148183600Y-97396560D01*
X146456400Y-97396560D01*
X146221083Y-97440838D01*
X146004959Y-97579910D01*
X145859969Y-97792110D01*
X145808960Y-98044000D01*
X145542000Y-98044000D01*
X145542000Y-97282000D01*
X168148000Y-97282000D01*
X168148000Y-100918889D01*
G36*
X155067000Y-111633000D02*
X157353000Y-111633000D01*
X157353000Y-111613000D01*
X157607000Y-111613000D01*
X157607000Y-111633000D01*
X157627000Y-111633000D01*
X157627000Y-111887000D01*
X157607000Y-111887000D01*
X157607000Y-111907000D01*
X157353000Y-111907000D01*
X157353000Y-111887000D01*
X155067000Y-111887000D01*
X155067000Y-111907000D01*
X154813000Y-111907000D01*
X154813000Y-111887000D01*
X154793000Y-111887000D01*
X154793000Y-111633000D01*
X154813000Y-111633000D01*
X154813000Y-111613000D01*
X155067000Y-111613000D01*
X155067000Y-111633000D01*
X155067000Y-111633000D01*
G37*
X155067000Y-111633000D02*
X157353000Y-111633000D01*
X157353000Y-111613000D01*
X157607000Y-111613000D01*
X157607000Y-111633000D01*
X157627000Y-111633000D01*
X157627000Y-111887000D01*
X157607000Y-111887000D01*
X157607000Y-111907000D01*
X157353000Y-111907000D01*
X157353000Y-111887000D01*
X155067000Y-111887000D01*
X155067000Y-111907000D01*
X154813000Y-111907000D01*
X154813000Y-111887000D01*
X154793000Y-111887000D01*
X154793000Y-111633000D01*
X154813000Y-111633000D01*
X154813000Y-111613000D01*
X155067000Y-111613000D01*
X155067000Y-111633000D01*
M02*
