%TF.GenerationSoftware,KiCad,Pcbnew,5.1.9+dfsg1-1+deb11u1*%
%TF.CreationDate,2022-11-30T10:07:17+01:00*%
%TF.ProjectId,A500MPU-Adapter,41353030-4d50-4552-9d41-646170746572,2.0*%
%TF.SameCoordinates,Original*%
%TF.FileFunction,Legend,Top*%
%TF.FilePolarity,Positive*%
%FSLAX46Y46*%
G04 Gerber Fmt 4.6, Leading zero omitted, Abs format (unit mm)*
G04 Created by KiCad (PCBNEW 5.1.9+dfsg1-1+deb11u1) date 2022-11-30 10:07:17*
%MOMM*%
%LPD*%
G01*
G04 APERTURE LIST*
%ADD10C,0.170000*%
%ADD11C,0.120000*%
%ADD12C,0.150000*%
G04 APERTURE END LIST*
D10*
X148908476Y-122490666D02*
X148908476Y-121790666D01*
X149241809Y-122290666D01*
X149575142Y-121790666D01*
X149575142Y-122490666D01*
X150051333Y-122490666D02*
X150051333Y-121790666D01*
X150432285Y-121790666D01*
X150527523Y-121824000D01*
X150575142Y-121857333D01*
X150622761Y-121924000D01*
X150622761Y-122024000D01*
X150575142Y-122090666D01*
X150527523Y-122124000D01*
X150432285Y-122157333D01*
X150051333Y-122157333D01*
X151051333Y-121790666D02*
X151051333Y-122357333D01*
X151098952Y-122424000D01*
X151146571Y-122457333D01*
X151241809Y-122490666D01*
X151432285Y-122490666D01*
X151527523Y-122457333D01*
X151575142Y-122424000D01*
X151622761Y-122357333D01*
X151622761Y-121790666D01*
X152860857Y-122490666D02*
X152860857Y-121790666D01*
X153432285Y-122490666D02*
X153003714Y-122090666D01*
X153432285Y-121790666D02*
X152860857Y-122190666D01*
X153860857Y-122124000D02*
X154194190Y-122124000D01*
X154337047Y-122490666D02*
X153860857Y-122490666D01*
X153860857Y-121790666D01*
X154337047Y-121790666D01*
X154956095Y-122157333D02*
X154956095Y-122490666D01*
X154622761Y-121790666D02*
X154956095Y-122157333D01*
X155289428Y-121790666D01*
X155956095Y-122124000D02*
X156098952Y-122157333D01*
X156146571Y-122190666D01*
X156194190Y-122257333D01*
X156194190Y-122357333D01*
X156146571Y-122424000D01*
X156098952Y-122457333D01*
X156003714Y-122490666D01*
X155622761Y-122490666D01*
X155622761Y-121790666D01*
X155956095Y-121790666D01*
X156051333Y-121824000D01*
X156098952Y-121857333D01*
X156146571Y-121924000D01*
X156146571Y-121990666D01*
X156098952Y-122057333D01*
X156051333Y-122090666D01*
X155956095Y-122124000D01*
X155622761Y-122124000D01*
X156813238Y-121790666D02*
X157003714Y-121790666D01*
X157098952Y-121824000D01*
X157194190Y-121890666D01*
X157241809Y-122024000D01*
X157241809Y-122257333D01*
X157194190Y-122390666D01*
X157098952Y-122457333D01*
X157003714Y-122490666D01*
X156813238Y-122490666D01*
X156718000Y-122457333D01*
X156622761Y-122390666D01*
X156575142Y-122257333D01*
X156575142Y-122024000D01*
X156622761Y-121890666D01*
X156718000Y-121824000D01*
X156813238Y-121790666D01*
X157622761Y-122290666D02*
X158098952Y-122290666D01*
X157527523Y-122490666D02*
X157860857Y-121790666D01*
X158194190Y-122490666D01*
X159098952Y-122490666D02*
X158765619Y-122157333D01*
X158527523Y-122490666D02*
X158527523Y-121790666D01*
X158908476Y-121790666D01*
X159003714Y-121824000D01*
X159051333Y-121857333D01*
X159098952Y-121924000D01*
X159098952Y-122024000D01*
X159051333Y-122090666D01*
X159003714Y-122124000D01*
X158908476Y-122157333D01*
X158527523Y-122157333D01*
X159527523Y-122490666D02*
X159527523Y-121790666D01*
X159765619Y-121790666D01*
X159908476Y-121824000D01*
X160003714Y-121890666D01*
X160051333Y-121957333D01*
X160098952Y-122090666D01*
X160098952Y-122190666D01*
X160051333Y-122324000D01*
X160003714Y-122390666D01*
X159908476Y-122457333D01*
X159765619Y-122490666D01*
X159527523Y-122490666D01*
X161241809Y-122290666D02*
X161718000Y-122290666D01*
X161146571Y-122490666D02*
X161479904Y-121790666D01*
X161813238Y-122490666D01*
X162622761Y-121790666D02*
X162146571Y-121790666D01*
X162098952Y-122124000D01*
X162146571Y-122090666D01*
X162241809Y-122057333D01*
X162479904Y-122057333D01*
X162575142Y-122090666D01*
X162622761Y-122124000D01*
X162670380Y-122190666D01*
X162670380Y-122357333D01*
X162622761Y-122424000D01*
X162575142Y-122457333D01*
X162479904Y-122490666D01*
X162241809Y-122490666D01*
X162146571Y-122457333D01*
X162098952Y-122424000D01*
X163289428Y-121790666D02*
X163384666Y-121790666D01*
X163479904Y-121824000D01*
X163527523Y-121857333D01*
X163575142Y-121924000D01*
X163622761Y-122057333D01*
X163622761Y-122224000D01*
X163575142Y-122357333D01*
X163527523Y-122424000D01*
X163479904Y-122457333D01*
X163384666Y-122490666D01*
X163289428Y-122490666D01*
X163194190Y-122457333D01*
X163146571Y-122424000D01*
X163098952Y-122357333D01*
X163051333Y-122224000D01*
X163051333Y-122057333D01*
X163098952Y-121924000D01*
X163146571Y-121857333D01*
X163194190Y-121824000D01*
X163289428Y-121790666D01*
X164241809Y-121790666D02*
X164337047Y-121790666D01*
X164432285Y-121824000D01*
X164479904Y-121857333D01*
X164527523Y-121924000D01*
X164575142Y-122057333D01*
X164575142Y-122224000D01*
X164527523Y-122357333D01*
X164479904Y-122424000D01*
X164432285Y-122457333D01*
X164337047Y-122490666D01*
X164241809Y-122490666D01*
X164146571Y-122457333D01*
X164098952Y-122424000D01*
X164051333Y-122357333D01*
X164003714Y-122224000D01*
X164003714Y-122057333D01*
X164051333Y-121924000D01*
X164098952Y-121857333D01*
X164146571Y-121824000D01*
X164241809Y-121790666D01*
D11*
%TO.C,C1*%
X167347000Y-115865000D02*
X163262000Y-115865000D01*
X167347000Y-117735000D02*
X167347000Y-115865000D01*
X163262000Y-117735000D02*
X167347000Y-117735000D01*
%TO.C,C2*%
X165673252Y-113290000D02*
X164250748Y-113290000D01*
X165673252Y-115110000D02*
X164250748Y-115110000D01*
%TO.C,D1*%
X162828000Y-104235000D02*
X166888000Y-104235000D01*
X162828000Y-101965000D02*
X162828000Y-104235000D01*
X166888000Y-101965000D02*
X162828000Y-101965000D01*
%TO.C,D2*%
X162740000Y-109435000D02*
X166800000Y-109435000D01*
X162740000Y-107165000D02*
X162740000Y-109435000D01*
X166800000Y-107165000D02*
X162740000Y-107165000D01*
%TO.C,D3*%
X149600000Y-118265000D02*
X145540000Y-118265000D01*
X145540000Y-118265000D02*
X145540000Y-120535000D01*
X145540000Y-120535000D02*
X149600000Y-120535000D01*
%TO.C,P1*%
X146770000Y-125930000D02*
X146770000Y-124600000D01*
X148100000Y-125930000D02*
X146770000Y-125930000D01*
X149370000Y-125930000D02*
X149370000Y-123270000D01*
X149370000Y-123270000D02*
X167210000Y-123270000D01*
X149370000Y-125930000D02*
X167210000Y-125930000D01*
X167210000Y-125930000D02*
X167210000Y-123270000D01*
%TO.C,P3*%
X150720000Y-108600000D02*
X151720000Y-108100000D01*
X150720000Y-107600000D02*
X150720000Y-108600000D01*
X151720000Y-108100000D02*
X150720000Y-107600000D01*
X153420000Y-112690000D02*
X152110000Y-112690000D01*
X153420000Y-112690000D02*
X153420000Y-112690000D01*
X153420000Y-117090000D02*
X153420000Y-112690000D01*
X159920000Y-117090000D02*
X153420000Y-117090000D01*
X159920000Y-104190000D02*
X159920000Y-117090000D01*
X153420000Y-104190000D02*
X159920000Y-104190000D01*
X153420000Y-108590000D02*
X153420000Y-104190000D01*
X152110000Y-108590000D02*
X153420000Y-108590000D01*
X152110000Y-118390000D02*
X152110000Y-102890000D01*
X161230000Y-118390000D02*
X152110000Y-118390000D01*
X161230000Y-102890000D02*
X161230000Y-118390000D01*
X152110000Y-102890000D02*
X161230000Y-102890000D01*
%TO.C,P4*%
X150630000Y-105270000D02*
X150630000Y-106600000D01*
X149300000Y-105270000D02*
X150630000Y-105270000D01*
X148030000Y-105270000D02*
X148030000Y-107930000D01*
X148030000Y-107930000D02*
X145430000Y-107930000D01*
X148030000Y-105270000D02*
X145430000Y-105270000D01*
X145430000Y-105270000D02*
X145430000Y-107930000D01*
%TO.C,P5*%
X145430000Y-111870000D02*
X145430000Y-114530000D01*
X148030000Y-111870000D02*
X145430000Y-111870000D01*
X148030000Y-114530000D02*
X145430000Y-114530000D01*
X148030000Y-111870000D02*
X148030000Y-114530000D01*
X149300000Y-111870000D02*
X150630000Y-111870000D01*
X150630000Y-111870000D02*
X150630000Y-113200000D01*
%TO.C,R1*%
X164572936Y-106510000D02*
X166027064Y-106510000D01*
X164572936Y-104690000D02*
X166027064Y-104690000D01*
%TO.C,R2*%
X164472936Y-111810000D02*
X165927064Y-111810000D01*
X164472936Y-109990000D02*
X165927064Y-109990000D01*
%TO.C,R3*%
X147372936Y-115790000D02*
X148827064Y-115790000D01*
X147372936Y-117610000D02*
X148827064Y-117610000D01*
%TO.C,R4*%
X147272936Y-102390000D02*
X148727064Y-102390000D01*
X147272936Y-104210000D02*
X148727064Y-104210000D01*
%TO.C,R5*%
X147222936Y-110910000D02*
X148677064Y-110910000D01*
X147222936Y-109090000D02*
X148677064Y-109090000D01*
%TO.C,P1*%
D12*
X145361904Y-122452380D02*
X145361904Y-121452380D01*
X145742857Y-121452380D01*
X145838095Y-121500000D01*
X145885714Y-121547619D01*
X145933333Y-121642857D01*
X145933333Y-121785714D01*
X145885714Y-121880952D01*
X145838095Y-121928571D01*
X145742857Y-121976190D01*
X145361904Y-121976190D01*
X146885714Y-122452380D02*
X146314285Y-122452380D01*
X146600000Y-122452380D02*
X146600000Y-121452380D01*
X146504761Y-121595238D01*
X146409523Y-121690476D01*
X146314285Y-121738095D01*
%TO.C,P3*%
X151961904Y-102052380D02*
X151961904Y-101052380D01*
X152342857Y-101052380D01*
X152438095Y-101100000D01*
X152485714Y-101147619D01*
X152533333Y-101242857D01*
X152533333Y-101385714D01*
X152485714Y-101480952D01*
X152438095Y-101528571D01*
X152342857Y-101576190D01*
X151961904Y-101576190D01*
X152866666Y-101052380D02*
X153485714Y-101052380D01*
X153152380Y-101433333D01*
X153295238Y-101433333D01*
X153390476Y-101480952D01*
X153438095Y-101528571D01*
X153485714Y-101623809D01*
X153485714Y-101861904D01*
X153438095Y-101957142D01*
X153390476Y-102004761D01*
X153295238Y-102052380D01*
X153009523Y-102052380D01*
X152914285Y-102004761D01*
X152866666Y-101957142D01*
%TD*%
M02*
