%TF.GenerationSoftware,KiCad,Pcbnew,4.0.2+dfsg1-stable*%
%TF.CreationDate,2018-11-13T00:59:16+01:00*%
%TF.ProjectId,A500MPU-Adapter,413530304D50552D416461707465722E,rev?*%
%TF.FileFunction,Copper,L2,Bot,Signal*%
%FSLAX46Y46*%
G04 Gerber Fmt 4.6, Leading zero omitted, Abs format (unit mm)*
G04 Created by KiCad (PCBNEW 4.0.2+dfsg1-stable) date Tue 13 Nov 2018 00:59:16 CET*
%MOMM*%
G01*
G04 APERTURE LIST*
%ADD10C,0.100000*%
%ADD11R,1.727200X1.727200*%
%ADD12O,1.727200X1.727200*%
%ADD13R,2.032000X2.032000*%
%ADD14O,2.032000X2.032000*%
%ADD15R,1.727200X2.032000*%
%ADD16O,1.727200X2.032000*%
%ADD17C,0.600000*%
%ADD18C,0.250000*%
%ADD19C,0.254000*%
G04 APERTURE END LIST*
D10*
D11*
X154940000Y-109220000D03*
D12*
X157480000Y-109220000D03*
X154940000Y-111760000D03*
X157480000Y-111760000D03*
X154940000Y-114300000D03*
X157480000Y-114300000D03*
D13*
X165100000Y-119380000D03*
D14*
X162560000Y-119380000D03*
D13*
X147320000Y-119380000D03*
D14*
X149860000Y-119380000D03*
D15*
X147320000Y-99060000D03*
D16*
X149860000Y-99060000D03*
X152400000Y-99060000D03*
X154940000Y-99060000D03*
X157480000Y-99060000D03*
X160020000Y-99060000D03*
X162560000Y-99060000D03*
X165100000Y-99060000D03*
D15*
X147320000Y-124460000D03*
D16*
X149860000Y-124460000D03*
X152400000Y-124460000D03*
X154940000Y-124460000D03*
X157480000Y-124460000D03*
X160020000Y-124460000D03*
X162560000Y-124460000D03*
X165100000Y-124460000D03*
D17*
X159766000Y-105537000D03*
X165608000Y-117094000D03*
X156591000Y-101219000D03*
X161290000Y-101092000D03*
X152908000Y-111252000D03*
X151384000Y-122682000D03*
X157734000Y-105791000D03*
X158877000Y-116840000D03*
X168275000Y-101854000D03*
X159258000Y-110998000D03*
X156591000Y-107442000D03*
X152908000Y-103505000D03*
X145796000Y-113792000D03*
X166243000Y-108458000D03*
X161290000Y-108712000D03*
X160655000Y-114681000D03*
D18*
X158877000Y-109982000D02*
X157480000Y-111379000D01*
X158877000Y-106426000D02*
X158877000Y-109982000D01*
X159766000Y-105537000D02*
X158877000Y-106426000D01*
X157480000Y-111379000D02*
X157480000Y-111760000D01*
X162560000Y-119380000D02*
X162179000Y-119380000D01*
X162179000Y-119380000D02*
X160020000Y-121539000D01*
X160020000Y-121539000D02*
X160020000Y-124460000D01*
X162560000Y-117856000D02*
X162560000Y-119380000D01*
X162814000Y-117602000D02*
X162560000Y-117856000D01*
X165100000Y-117602000D02*
X162814000Y-117602000D01*
X165608000Y-117094000D02*
X165100000Y-117602000D01*
X156591000Y-101219000D02*
X156718000Y-101092000D01*
X156718000Y-101092000D02*
X161290000Y-101092000D01*
X152908000Y-121158000D02*
X152908000Y-111252000D01*
X151384000Y-122682000D02*
X152908000Y-121158000D01*
X157480000Y-109220000D02*
X157480000Y-109601000D01*
X157480000Y-109601000D02*
X156591000Y-110490000D01*
X149860000Y-122936000D02*
X149860000Y-124460000D01*
X152273000Y-120523000D02*
X149860000Y-122936000D01*
X152273000Y-117602000D02*
X152273000Y-120523000D01*
X151892000Y-117221000D02*
X152273000Y-117602000D01*
X147066000Y-117221000D02*
X151892000Y-117221000D01*
X146431000Y-116586000D02*
X147066000Y-117221000D01*
X146431000Y-111887000D02*
X146431000Y-116586000D01*
X147828000Y-110490000D02*
X146431000Y-111887000D01*
X156591000Y-110490000D02*
X147828000Y-110490000D01*
X157480000Y-106045000D02*
X157480000Y-109220000D01*
X157734000Y-105791000D02*
X157480000Y-106045000D01*
X159893000Y-115824000D02*
X158877000Y-116840000D01*
X159893000Y-108077000D02*
X159893000Y-115824000D01*
X161036000Y-106934000D02*
X159893000Y-108077000D01*
X165862000Y-106934000D02*
X161036000Y-106934000D01*
X167259000Y-105537000D02*
X165862000Y-106934000D01*
X167259000Y-102870000D02*
X167259000Y-105537000D01*
X168275000Y-101854000D02*
X167259000Y-102870000D01*
X154940000Y-114300000D02*
X154940000Y-117602000D01*
X153670000Y-123190000D02*
X152400000Y-124460000D01*
X153670000Y-118872000D02*
X153670000Y-123190000D01*
X154940000Y-117602000D02*
X153670000Y-118872000D01*
X159258000Y-113157000D02*
X158115000Y-114300000D01*
X159258000Y-110998000D02*
X159258000Y-113157000D01*
X156591000Y-107188000D02*
X156591000Y-107442000D01*
X152908000Y-103505000D02*
X156591000Y-107188000D01*
X158115000Y-114300000D02*
X157480000Y-114300000D01*
X154940000Y-124460000D02*
X154940000Y-119888000D01*
X157480000Y-117348000D02*
X157480000Y-114300000D01*
X154940000Y-119888000D02*
X157480000Y-117348000D01*
X162560000Y-124460000D02*
X162560000Y-125349000D01*
X162560000Y-125349000D02*
X161417000Y-126492000D01*
X145796000Y-126111000D02*
X145796000Y-113792000D01*
X146177000Y-126492000D02*
X145796000Y-126111000D01*
X161417000Y-126492000D02*
X146177000Y-126492000D01*
X162560000Y-125603000D02*
X162560000Y-124460000D01*
X163322000Y-126365000D02*
X162560000Y-125603000D01*
X166878000Y-126365000D02*
X163322000Y-126365000D01*
X167767000Y-125476000D02*
X166878000Y-126365000D01*
X167767000Y-109982000D02*
X167767000Y-125476000D01*
X166243000Y-108458000D02*
X167767000Y-109982000D01*
X161290000Y-114046000D02*
X161290000Y-108712000D01*
X160655000Y-114681000D02*
X161290000Y-114046000D01*
D19*
G36*
X165450808Y-107927673D02*
X165308162Y-108271201D01*
X165307838Y-108643167D01*
X165449883Y-108986943D01*
X165712673Y-109250192D01*
X166056201Y-109392838D01*
X166103077Y-109392879D01*
X167007000Y-110296802D01*
X167007000Y-125161198D01*
X166563198Y-125605000D01*
X166226097Y-125605000D01*
X166484526Y-125218234D01*
X166598600Y-124644745D01*
X166598600Y-124275255D01*
X166484526Y-123701766D01*
X166159670Y-123215585D01*
X165673489Y-122890729D01*
X165100000Y-122776655D01*
X164526511Y-122890729D01*
X164040330Y-123215585D01*
X163830000Y-123530366D01*
X163619670Y-123215585D01*
X163133489Y-122890729D01*
X162560000Y-122776655D01*
X161986511Y-122890729D01*
X161500330Y-123215585D01*
X161293539Y-123525069D01*
X160922036Y-123109268D01*
X160394791Y-122855291D01*
X160379026Y-122852642D01*
X160147000Y-122973783D01*
X160147000Y-124333000D01*
X160167000Y-124333000D01*
X160167000Y-124587000D01*
X160147000Y-124587000D01*
X160147000Y-124607000D01*
X159893000Y-124607000D01*
X159893000Y-124587000D01*
X159873000Y-124587000D01*
X159873000Y-124333000D01*
X159893000Y-124333000D01*
X159893000Y-122973783D01*
X159660974Y-122852642D01*
X159645209Y-122855291D01*
X159117964Y-123109268D01*
X158746461Y-123525069D01*
X158539670Y-123215585D01*
X158053489Y-122890729D01*
X157480000Y-122776655D01*
X156906511Y-122890729D01*
X156420330Y-123215585D01*
X156210000Y-123530366D01*
X155999670Y-123215585D01*
X155700000Y-123015352D01*
X155700000Y-120202802D01*
X156139856Y-119762946D01*
X160954017Y-119762946D01*
X161222812Y-120348379D01*
X161695182Y-120786385D01*
X162177056Y-120985975D01*
X162433000Y-120866836D01*
X162433000Y-119507000D01*
X161072633Y-119507000D01*
X160954017Y-119762946D01*
X156139856Y-119762946D01*
X156905748Y-118997054D01*
X160954017Y-118997054D01*
X161072633Y-119253000D01*
X162433000Y-119253000D01*
X162433000Y-117893164D01*
X162687000Y-117893164D01*
X162687000Y-119253000D01*
X162707000Y-119253000D01*
X162707000Y-119507000D01*
X162687000Y-119507000D01*
X162687000Y-120866836D01*
X162942944Y-120985975D01*
X163424818Y-120786385D01*
X163522398Y-120695903D01*
X163619910Y-120847441D01*
X163832110Y-120992431D01*
X164084000Y-121043440D01*
X166116000Y-121043440D01*
X166351317Y-120999162D01*
X166567441Y-120860090D01*
X166712431Y-120647890D01*
X166763440Y-120396000D01*
X166763440Y-118364000D01*
X166719162Y-118128683D01*
X166580090Y-117912559D01*
X166367890Y-117767569D01*
X166116000Y-117716560D01*
X164084000Y-117716560D01*
X163848683Y-117760838D01*
X163632559Y-117899910D01*
X163521160Y-118062948D01*
X163424818Y-117973615D01*
X162942944Y-117774025D01*
X162687000Y-117893164D01*
X162433000Y-117893164D01*
X162177056Y-117774025D01*
X161695182Y-117973615D01*
X161222812Y-118411621D01*
X160954017Y-118997054D01*
X156905748Y-118997054D01*
X158017401Y-117885401D01*
X158182148Y-117638840D01*
X158207410Y-117511839D01*
X158210587Y-117495868D01*
X158346673Y-117632192D01*
X158690201Y-117774838D01*
X159062167Y-117775162D01*
X159405943Y-117633117D01*
X159669192Y-117370327D01*
X159811838Y-117026799D01*
X159811879Y-116979923D01*
X160430401Y-116361401D01*
X160595148Y-116114839D01*
X160653000Y-115824000D01*
X160653000Y-115615999D01*
X160840167Y-115616162D01*
X161183943Y-115474117D01*
X161447192Y-115211327D01*
X161589838Y-114867799D01*
X161589879Y-114820923D01*
X161827401Y-114583401D01*
X161992148Y-114336839D01*
X162050000Y-114046000D01*
X162050000Y-109274463D01*
X162082192Y-109242327D01*
X162224838Y-108898799D01*
X162225162Y-108526833D01*
X162083117Y-108183057D01*
X161820327Y-107919808D01*
X161476799Y-107777162D01*
X161267822Y-107776980D01*
X161350802Y-107694000D01*
X165684889Y-107694000D01*
X165450808Y-107927673D01*
X165450808Y-107927673D01*
G37*
X165450808Y-107927673D02*
X165308162Y-108271201D01*
X165307838Y-108643167D01*
X165449883Y-108986943D01*
X165712673Y-109250192D01*
X166056201Y-109392838D01*
X166103077Y-109392879D01*
X167007000Y-110296802D01*
X167007000Y-125161198D01*
X166563198Y-125605000D01*
X166226097Y-125605000D01*
X166484526Y-125218234D01*
X166598600Y-124644745D01*
X166598600Y-124275255D01*
X166484526Y-123701766D01*
X166159670Y-123215585D01*
X165673489Y-122890729D01*
X165100000Y-122776655D01*
X164526511Y-122890729D01*
X164040330Y-123215585D01*
X163830000Y-123530366D01*
X163619670Y-123215585D01*
X163133489Y-122890729D01*
X162560000Y-122776655D01*
X161986511Y-122890729D01*
X161500330Y-123215585D01*
X161293539Y-123525069D01*
X160922036Y-123109268D01*
X160394791Y-122855291D01*
X160379026Y-122852642D01*
X160147000Y-122973783D01*
X160147000Y-124333000D01*
X160167000Y-124333000D01*
X160167000Y-124587000D01*
X160147000Y-124587000D01*
X160147000Y-124607000D01*
X159893000Y-124607000D01*
X159893000Y-124587000D01*
X159873000Y-124587000D01*
X159873000Y-124333000D01*
X159893000Y-124333000D01*
X159893000Y-122973783D01*
X159660974Y-122852642D01*
X159645209Y-122855291D01*
X159117964Y-123109268D01*
X158746461Y-123525069D01*
X158539670Y-123215585D01*
X158053489Y-122890729D01*
X157480000Y-122776655D01*
X156906511Y-122890729D01*
X156420330Y-123215585D01*
X156210000Y-123530366D01*
X155999670Y-123215585D01*
X155700000Y-123015352D01*
X155700000Y-120202802D01*
X156139856Y-119762946D01*
X160954017Y-119762946D01*
X161222812Y-120348379D01*
X161695182Y-120786385D01*
X162177056Y-120985975D01*
X162433000Y-120866836D01*
X162433000Y-119507000D01*
X161072633Y-119507000D01*
X160954017Y-119762946D01*
X156139856Y-119762946D01*
X156905748Y-118997054D01*
X160954017Y-118997054D01*
X161072633Y-119253000D01*
X162433000Y-119253000D01*
X162433000Y-117893164D01*
X162687000Y-117893164D01*
X162687000Y-119253000D01*
X162707000Y-119253000D01*
X162707000Y-119507000D01*
X162687000Y-119507000D01*
X162687000Y-120866836D01*
X162942944Y-120985975D01*
X163424818Y-120786385D01*
X163522398Y-120695903D01*
X163619910Y-120847441D01*
X163832110Y-120992431D01*
X164084000Y-121043440D01*
X166116000Y-121043440D01*
X166351317Y-120999162D01*
X166567441Y-120860090D01*
X166712431Y-120647890D01*
X166763440Y-120396000D01*
X166763440Y-118364000D01*
X166719162Y-118128683D01*
X166580090Y-117912559D01*
X166367890Y-117767569D01*
X166116000Y-117716560D01*
X164084000Y-117716560D01*
X163848683Y-117760838D01*
X163632559Y-117899910D01*
X163521160Y-118062948D01*
X163424818Y-117973615D01*
X162942944Y-117774025D01*
X162687000Y-117893164D01*
X162433000Y-117893164D01*
X162177056Y-117774025D01*
X161695182Y-117973615D01*
X161222812Y-118411621D01*
X160954017Y-118997054D01*
X156905748Y-118997054D01*
X158017401Y-117885401D01*
X158182148Y-117638840D01*
X158207410Y-117511839D01*
X158210587Y-117495868D01*
X158346673Y-117632192D01*
X158690201Y-117774838D01*
X159062167Y-117775162D01*
X159405943Y-117633117D01*
X159669192Y-117370327D01*
X159811838Y-117026799D01*
X159811879Y-116979923D01*
X160430401Y-116361401D01*
X160595148Y-116114839D01*
X160653000Y-115824000D01*
X160653000Y-115615999D01*
X160840167Y-115616162D01*
X161183943Y-115474117D01*
X161447192Y-115211327D01*
X161589838Y-114867799D01*
X161589879Y-114820923D01*
X161827401Y-114583401D01*
X161992148Y-114336839D01*
X162050000Y-114046000D01*
X162050000Y-109274463D01*
X162082192Y-109242327D01*
X162224838Y-108898799D01*
X162225162Y-108526833D01*
X162083117Y-108183057D01*
X161820327Y-107919808D01*
X161476799Y-107777162D01*
X161267822Y-107776980D01*
X161350802Y-107694000D01*
X165684889Y-107694000D01*
X165450808Y-107927673D01*
G36*
X151513000Y-120208198D02*
X149322599Y-122398599D01*
X149157852Y-122645161D01*
X149100000Y-122936000D01*
X149100000Y-123015352D01*
X148800330Y-123215585D01*
X148790757Y-123229913D01*
X148786762Y-123208683D01*
X148647690Y-122992559D01*
X148435490Y-122847569D01*
X148183600Y-122796560D01*
X146556000Y-122796560D01*
X146556000Y-121043440D01*
X148336000Y-121043440D01*
X148571317Y-120999162D01*
X148787441Y-120860090D01*
X148898840Y-120697052D01*
X148995182Y-120786385D01*
X149477056Y-120985975D01*
X149733000Y-120866836D01*
X149733000Y-119507000D01*
X149987000Y-119507000D01*
X149987000Y-120866836D01*
X150242944Y-120985975D01*
X150724818Y-120786385D01*
X151197188Y-120348379D01*
X151465983Y-119762946D01*
X151347367Y-119507000D01*
X149987000Y-119507000D01*
X149733000Y-119507000D01*
X149713000Y-119507000D01*
X149713000Y-119253000D01*
X149733000Y-119253000D01*
X149733000Y-119233000D01*
X149987000Y-119233000D01*
X149987000Y-119253000D01*
X151347367Y-119253000D01*
X151465983Y-118997054D01*
X151197188Y-118411621D01*
X150732782Y-117981000D01*
X151513000Y-117981000D01*
X151513000Y-120208198D01*
X151513000Y-120208198D01*
G37*
X151513000Y-120208198D02*
X149322599Y-122398599D01*
X149157852Y-122645161D01*
X149100000Y-122936000D01*
X149100000Y-123015352D01*
X148800330Y-123215585D01*
X148790757Y-123229913D01*
X148786762Y-123208683D01*
X148647690Y-122992559D01*
X148435490Y-122847569D01*
X148183600Y-122796560D01*
X146556000Y-122796560D01*
X146556000Y-121043440D01*
X148336000Y-121043440D01*
X148571317Y-120999162D01*
X148787441Y-120860090D01*
X148898840Y-120697052D01*
X148995182Y-120786385D01*
X149477056Y-120985975D01*
X149733000Y-120866836D01*
X149733000Y-119507000D01*
X149987000Y-119507000D01*
X149987000Y-120866836D01*
X150242944Y-120985975D01*
X150724818Y-120786385D01*
X151197188Y-120348379D01*
X151465983Y-119762946D01*
X151347367Y-119507000D01*
X149987000Y-119507000D01*
X149733000Y-119507000D01*
X149713000Y-119507000D01*
X149713000Y-119253000D01*
X149733000Y-119253000D01*
X149733000Y-119233000D01*
X149987000Y-119233000D01*
X149987000Y-119253000D01*
X151347367Y-119253000D01*
X151465983Y-118997054D01*
X151197188Y-118411621D01*
X150732782Y-117981000D01*
X151513000Y-117981000D01*
X151513000Y-120208198D01*
G36*
X168200000Y-100918934D02*
X168089833Y-100918838D01*
X167746057Y-101060883D01*
X167482808Y-101323673D01*
X167340162Y-101667201D01*
X167340121Y-101714077D01*
X166721599Y-102332599D01*
X166556852Y-102579161D01*
X166499000Y-102870000D01*
X166499000Y-105222198D01*
X165547198Y-106174000D01*
X161036000Y-106174000D01*
X160745161Y-106231852D01*
X160498599Y-106396599D01*
X159355599Y-107539599D01*
X159190852Y-107786161D01*
X159133000Y-108077000D01*
X159133000Y-110062890D01*
X159072833Y-110062838D01*
X158729057Y-110204883D01*
X158465808Y-110467673D01*
X158410975Y-110599725D01*
X158368490Y-110553179D01*
X158245772Y-110495664D01*
X158569029Y-110279670D01*
X158893885Y-109793489D01*
X159007959Y-109220000D01*
X158893885Y-108646511D01*
X158569029Y-108160330D01*
X158240000Y-107940480D01*
X158240000Y-106593597D01*
X158262943Y-106584117D01*
X158526192Y-106321327D01*
X158668838Y-105977799D01*
X158669162Y-105605833D01*
X158527117Y-105262057D01*
X158264327Y-104998808D01*
X157920799Y-104856162D01*
X157548833Y-104855838D01*
X157205057Y-104997883D01*
X156941808Y-105260673D01*
X156799162Y-105604201D01*
X156799059Y-105722422D01*
X156777852Y-105754161D01*
X156720000Y-106045000D01*
X156720000Y-106242198D01*
X153843122Y-103365320D01*
X153843162Y-103319833D01*
X153701117Y-102976057D01*
X153438327Y-102712808D01*
X153094799Y-102570162D01*
X152722833Y-102569838D01*
X152379057Y-102711883D01*
X152115808Y-102974673D01*
X151973162Y-103318201D01*
X151972838Y-103690167D01*
X152114883Y-104033943D01*
X152377673Y-104297192D01*
X152721201Y-104439838D01*
X152768077Y-104439879D01*
X155656099Y-107327901D01*
X155655838Y-107627167D01*
X155689634Y-107708960D01*
X154076400Y-107708960D01*
X153841083Y-107753238D01*
X153624959Y-107892310D01*
X153479969Y-108104510D01*
X153428960Y-108356400D01*
X153428960Y-109730000D01*
X147828000Y-109730000D01*
X147537160Y-109787852D01*
X147290599Y-109952599D01*
X145893599Y-111349599D01*
X145728852Y-111596161D01*
X145671000Y-111887000D01*
X145671000Y-112856890D01*
X145610833Y-112856838D01*
X145490000Y-112906765D01*
X145490000Y-98044000D01*
X145808960Y-98044000D01*
X145808960Y-100076000D01*
X145853238Y-100311317D01*
X145992310Y-100527441D01*
X146204510Y-100672431D01*
X146456400Y-100723440D01*
X148183600Y-100723440D01*
X148418917Y-100679162D01*
X148635041Y-100540090D01*
X148780031Y-100327890D01*
X148788400Y-100286561D01*
X148800330Y-100304415D01*
X149286511Y-100629271D01*
X149860000Y-100743345D01*
X150433489Y-100629271D01*
X150919670Y-100304415D01*
X151130000Y-99989634D01*
X151340330Y-100304415D01*
X151826511Y-100629271D01*
X152400000Y-100743345D01*
X152973489Y-100629271D01*
X153459670Y-100304415D01*
X153670000Y-99989634D01*
X153880330Y-100304415D01*
X154366511Y-100629271D01*
X154940000Y-100743345D01*
X155513489Y-100629271D01*
X155999670Y-100304415D01*
X156210000Y-99989634D01*
X156406581Y-100283839D01*
X156405833Y-100283838D01*
X156062057Y-100425883D01*
X155798808Y-100688673D01*
X155656162Y-101032201D01*
X155655838Y-101404167D01*
X155797883Y-101747943D01*
X156060673Y-102011192D01*
X156404201Y-102153838D01*
X156776167Y-102154162D01*
X157119943Y-102012117D01*
X157280340Y-101852000D01*
X160727537Y-101852000D01*
X160759673Y-101884192D01*
X161103201Y-102026838D01*
X161475167Y-102027162D01*
X161818943Y-101885117D01*
X162082192Y-101622327D01*
X162224838Y-101278799D01*
X162225162Y-100906833D01*
X162121577Y-100656137D01*
X162560000Y-100743345D01*
X163133489Y-100629271D01*
X163619670Y-100304415D01*
X163830000Y-99989634D01*
X164040330Y-100304415D01*
X164526511Y-100629271D01*
X165100000Y-100743345D01*
X165673489Y-100629271D01*
X166159670Y-100304415D01*
X166484526Y-99818234D01*
X166598600Y-99244745D01*
X166598600Y-98875255D01*
X166484526Y-98301766D01*
X166159670Y-97815585D01*
X165673489Y-97490729D01*
X165100000Y-97376655D01*
X164526511Y-97490729D01*
X164040330Y-97815585D01*
X163830000Y-98130366D01*
X163619670Y-97815585D01*
X163133489Y-97490729D01*
X162560000Y-97376655D01*
X161986511Y-97490729D01*
X161500330Y-97815585D01*
X161293539Y-98125069D01*
X160922036Y-97709268D01*
X160394791Y-97455291D01*
X160379026Y-97452642D01*
X160147000Y-97573783D01*
X160147000Y-98933000D01*
X160167000Y-98933000D01*
X160167000Y-99187000D01*
X160147000Y-99187000D01*
X160147000Y-99207000D01*
X159893000Y-99207000D01*
X159893000Y-99187000D01*
X159873000Y-99187000D01*
X159873000Y-98933000D01*
X159893000Y-98933000D01*
X159893000Y-97573783D01*
X159660974Y-97452642D01*
X159645209Y-97455291D01*
X159117964Y-97709268D01*
X158746461Y-98125069D01*
X158539670Y-97815585D01*
X158053489Y-97490729D01*
X157480000Y-97376655D01*
X156906511Y-97490729D01*
X156420330Y-97815585D01*
X156210000Y-98130366D01*
X155999670Y-97815585D01*
X155513489Y-97490729D01*
X154940000Y-97376655D01*
X154366511Y-97490729D01*
X153880330Y-97815585D01*
X153670000Y-98130366D01*
X153459670Y-97815585D01*
X152973489Y-97490729D01*
X152400000Y-97376655D01*
X151826511Y-97490729D01*
X151340330Y-97815585D01*
X151130000Y-98130366D01*
X150919670Y-97815585D01*
X150433489Y-97490729D01*
X149860000Y-97376655D01*
X149286511Y-97490729D01*
X148800330Y-97815585D01*
X148790757Y-97829913D01*
X148786762Y-97808683D01*
X148647690Y-97592559D01*
X148435490Y-97447569D01*
X148183600Y-97396560D01*
X146456400Y-97396560D01*
X146221083Y-97440838D01*
X146004959Y-97579910D01*
X145859969Y-97792110D01*
X145808960Y-98044000D01*
X145490000Y-98044000D01*
X145490000Y-97230000D01*
X168200000Y-97230000D01*
X168200000Y-100918934D01*
X168200000Y-100918934D01*
G37*
X168200000Y-100918934D02*
X168089833Y-100918838D01*
X167746057Y-101060883D01*
X167482808Y-101323673D01*
X167340162Y-101667201D01*
X167340121Y-101714077D01*
X166721599Y-102332599D01*
X166556852Y-102579161D01*
X166499000Y-102870000D01*
X166499000Y-105222198D01*
X165547198Y-106174000D01*
X161036000Y-106174000D01*
X160745161Y-106231852D01*
X160498599Y-106396599D01*
X159355599Y-107539599D01*
X159190852Y-107786161D01*
X159133000Y-108077000D01*
X159133000Y-110062890D01*
X159072833Y-110062838D01*
X158729057Y-110204883D01*
X158465808Y-110467673D01*
X158410975Y-110599725D01*
X158368490Y-110553179D01*
X158245772Y-110495664D01*
X158569029Y-110279670D01*
X158893885Y-109793489D01*
X159007959Y-109220000D01*
X158893885Y-108646511D01*
X158569029Y-108160330D01*
X158240000Y-107940480D01*
X158240000Y-106593597D01*
X158262943Y-106584117D01*
X158526192Y-106321327D01*
X158668838Y-105977799D01*
X158669162Y-105605833D01*
X158527117Y-105262057D01*
X158264327Y-104998808D01*
X157920799Y-104856162D01*
X157548833Y-104855838D01*
X157205057Y-104997883D01*
X156941808Y-105260673D01*
X156799162Y-105604201D01*
X156799059Y-105722422D01*
X156777852Y-105754161D01*
X156720000Y-106045000D01*
X156720000Y-106242198D01*
X153843122Y-103365320D01*
X153843162Y-103319833D01*
X153701117Y-102976057D01*
X153438327Y-102712808D01*
X153094799Y-102570162D01*
X152722833Y-102569838D01*
X152379057Y-102711883D01*
X152115808Y-102974673D01*
X151973162Y-103318201D01*
X151972838Y-103690167D01*
X152114883Y-104033943D01*
X152377673Y-104297192D01*
X152721201Y-104439838D01*
X152768077Y-104439879D01*
X155656099Y-107327901D01*
X155655838Y-107627167D01*
X155689634Y-107708960D01*
X154076400Y-107708960D01*
X153841083Y-107753238D01*
X153624959Y-107892310D01*
X153479969Y-108104510D01*
X153428960Y-108356400D01*
X153428960Y-109730000D01*
X147828000Y-109730000D01*
X147537160Y-109787852D01*
X147290599Y-109952599D01*
X145893599Y-111349599D01*
X145728852Y-111596161D01*
X145671000Y-111887000D01*
X145671000Y-112856890D01*
X145610833Y-112856838D01*
X145490000Y-112906765D01*
X145490000Y-98044000D01*
X145808960Y-98044000D01*
X145808960Y-100076000D01*
X145853238Y-100311317D01*
X145992310Y-100527441D01*
X146204510Y-100672431D01*
X146456400Y-100723440D01*
X148183600Y-100723440D01*
X148418917Y-100679162D01*
X148635041Y-100540090D01*
X148780031Y-100327890D01*
X148788400Y-100286561D01*
X148800330Y-100304415D01*
X149286511Y-100629271D01*
X149860000Y-100743345D01*
X150433489Y-100629271D01*
X150919670Y-100304415D01*
X151130000Y-99989634D01*
X151340330Y-100304415D01*
X151826511Y-100629271D01*
X152400000Y-100743345D01*
X152973489Y-100629271D01*
X153459670Y-100304415D01*
X153670000Y-99989634D01*
X153880330Y-100304415D01*
X154366511Y-100629271D01*
X154940000Y-100743345D01*
X155513489Y-100629271D01*
X155999670Y-100304415D01*
X156210000Y-99989634D01*
X156406581Y-100283839D01*
X156405833Y-100283838D01*
X156062057Y-100425883D01*
X155798808Y-100688673D01*
X155656162Y-101032201D01*
X155655838Y-101404167D01*
X155797883Y-101747943D01*
X156060673Y-102011192D01*
X156404201Y-102153838D01*
X156776167Y-102154162D01*
X157119943Y-102012117D01*
X157280340Y-101852000D01*
X160727537Y-101852000D01*
X160759673Y-101884192D01*
X161103201Y-102026838D01*
X161475167Y-102027162D01*
X161818943Y-101885117D01*
X162082192Y-101622327D01*
X162224838Y-101278799D01*
X162225162Y-100906833D01*
X162121577Y-100656137D01*
X162560000Y-100743345D01*
X163133489Y-100629271D01*
X163619670Y-100304415D01*
X163830000Y-99989634D01*
X164040330Y-100304415D01*
X164526511Y-100629271D01*
X165100000Y-100743345D01*
X165673489Y-100629271D01*
X166159670Y-100304415D01*
X166484526Y-99818234D01*
X166598600Y-99244745D01*
X166598600Y-98875255D01*
X166484526Y-98301766D01*
X166159670Y-97815585D01*
X165673489Y-97490729D01*
X165100000Y-97376655D01*
X164526511Y-97490729D01*
X164040330Y-97815585D01*
X163830000Y-98130366D01*
X163619670Y-97815585D01*
X163133489Y-97490729D01*
X162560000Y-97376655D01*
X161986511Y-97490729D01*
X161500330Y-97815585D01*
X161293539Y-98125069D01*
X160922036Y-97709268D01*
X160394791Y-97455291D01*
X160379026Y-97452642D01*
X160147000Y-97573783D01*
X160147000Y-98933000D01*
X160167000Y-98933000D01*
X160167000Y-99187000D01*
X160147000Y-99187000D01*
X160147000Y-99207000D01*
X159893000Y-99207000D01*
X159893000Y-99187000D01*
X159873000Y-99187000D01*
X159873000Y-98933000D01*
X159893000Y-98933000D01*
X159893000Y-97573783D01*
X159660974Y-97452642D01*
X159645209Y-97455291D01*
X159117964Y-97709268D01*
X158746461Y-98125069D01*
X158539670Y-97815585D01*
X158053489Y-97490729D01*
X157480000Y-97376655D01*
X156906511Y-97490729D01*
X156420330Y-97815585D01*
X156210000Y-98130366D01*
X155999670Y-97815585D01*
X155513489Y-97490729D01*
X154940000Y-97376655D01*
X154366511Y-97490729D01*
X153880330Y-97815585D01*
X153670000Y-98130366D01*
X153459670Y-97815585D01*
X152973489Y-97490729D01*
X152400000Y-97376655D01*
X151826511Y-97490729D01*
X151340330Y-97815585D01*
X151130000Y-98130366D01*
X150919670Y-97815585D01*
X150433489Y-97490729D01*
X149860000Y-97376655D01*
X149286511Y-97490729D01*
X148800330Y-97815585D01*
X148790757Y-97829913D01*
X148786762Y-97808683D01*
X148647690Y-97592559D01*
X148435490Y-97447569D01*
X148183600Y-97396560D01*
X146456400Y-97396560D01*
X146221083Y-97440838D01*
X146004959Y-97579910D01*
X145859969Y-97792110D01*
X145808960Y-98044000D01*
X145490000Y-98044000D01*
X145490000Y-97230000D01*
X168200000Y-97230000D01*
X168200000Y-100918934D01*
G36*
X155067000Y-111633000D02*
X157353000Y-111633000D01*
X157353000Y-111613000D01*
X157607000Y-111613000D01*
X157607000Y-111633000D01*
X157627000Y-111633000D01*
X157627000Y-111887000D01*
X157607000Y-111887000D01*
X157607000Y-111907000D01*
X157353000Y-111907000D01*
X157353000Y-111887000D01*
X155067000Y-111887000D01*
X155067000Y-111907000D01*
X154813000Y-111907000D01*
X154813000Y-111887000D01*
X154793000Y-111887000D01*
X154793000Y-111633000D01*
X154813000Y-111633000D01*
X154813000Y-111613000D01*
X155067000Y-111613000D01*
X155067000Y-111633000D01*
X155067000Y-111633000D01*
G37*
X155067000Y-111633000D02*
X157353000Y-111633000D01*
X157353000Y-111613000D01*
X157607000Y-111613000D01*
X157607000Y-111633000D01*
X157627000Y-111633000D01*
X157627000Y-111887000D01*
X157607000Y-111887000D01*
X157607000Y-111907000D01*
X157353000Y-111907000D01*
X157353000Y-111887000D01*
X155067000Y-111887000D01*
X155067000Y-111907000D01*
X154813000Y-111907000D01*
X154813000Y-111887000D01*
X154793000Y-111887000D01*
X154793000Y-111633000D01*
X154813000Y-111633000D01*
X154813000Y-111613000D01*
X155067000Y-111613000D01*
X155067000Y-111633000D01*
M02*
