M48
; DRILL file {KiCad 5.1.9+dfsg1-1+deb11u1} date Thu Feb 19 10:59:55 2026
; FORMAT={-:-/ absolute / metric / decimal}
; #@! TF.CreationDate,2026-02-19T10:59:55+01:00
; #@! TF.GenerationSoftware,Kicad,Pcbnew,5.1.9+dfsg1-1+deb11u1
; #@! TF.FileFunction,Plated,1,2,PTH
FMAT,2
METRIC
T1C0.400
T2C0.800
T3C1.000
%
G90
G05
T1
X144.6Y-104.1
X147.5Y-104.9
X148.3Y-97.9
X149.3Y-113.1
X152.0Y-106.8
T2
X153.78Y-97.7
X153.78Y-100.24
X153.78Y-102.78
X153.78Y-105.32
X153.78Y-107.86
X153.78Y-110.4
X156.32Y-95.16
X156.32Y-97.7
X156.32Y-100.24
X156.32Y-102.78
X156.32Y-105.32
X156.32Y-107.86
X156.32Y-110.4
X156.32Y-112.94
X158.86Y-95.16
X158.86Y-97.7
X158.86Y-110.4
X158.86Y-112.94
X161.4Y-95.16
X161.4Y-97.7
X161.4Y-110.4
X161.4Y-112.94
X163.94Y-95.16
X163.94Y-97.7
X163.94Y-110.4
X163.94Y-112.94
X166.48Y-95.16
X166.48Y-97.7
X166.48Y-110.4
X166.48Y-112.94
X169.02Y-95.16
X169.02Y-97.7
X169.02Y-100.24
X169.02Y-102.78
X169.02Y-105.32
X169.02Y-107.86
X169.02Y-110.4
X169.02Y-112.94
X171.56Y-97.7
X171.56Y-100.24
X171.56Y-102.78
X171.56Y-105.32
X171.56Y-107.86
X171.56Y-110.4
T3
X146.0Y-95.2
X146.0Y-97.74
X146.0Y-100.28
X161.3Y-101.6
X161.3Y-104.14
X161.3Y-106.68
X163.84Y-101.6
X163.84Y-104.14
X163.84Y-106.68
T0
M30
