%TF.GenerationSoftware,KiCad,Pcbnew,4.0.2+dfsg1-stable*%
%TF.CreationDate,2018-11-15T01:04:14+01:00*%
%TF.ProjectId,A600MPU-Adapter,413630304D50552D416461707465722E,rev?*%
%TF.FileFunction,Legend,Top*%
%FSLAX46Y46*%
G04 Gerber Fmt 4.6, Leading zero omitted, Abs format (unit mm)*
G04 Created by KiCad (PCBNEW 4.0.2+dfsg1-stable) date Thu 15 Nov 2018 01:04:14 CET*
%MOMM*%
G01*
G04 APERTURE LIST*
%ADD10C,0.100000*%
%ADD11C,0.300000*%
%ADD12C,0.200000*%
%ADD13C,0.150000*%
G04 APERTURE END LIST*
D10*
D11*
X150110000Y-112389999D02*
X150110000Y-111675713D01*
X150538571Y-112532856D02*
X149038571Y-112032856D01*
X150538571Y-111532856D01*
X149038571Y-110389999D02*
X149038571Y-110675713D01*
X149110000Y-110818570D01*
X149181429Y-110889999D01*
X149395714Y-111032856D01*
X149681429Y-111104285D01*
X150252857Y-111104285D01*
X150395714Y-111032856D01*
X150467143Y-110961428D01*
X150538571Y-110818570D01*
X150538571Y-110532856D01*
X150467143Y-110389999D01*
X150395714Y-110318570D01*
X150252857Y-110247142D01*
X149895714Y-110247142D01*
X149752857Y-110318570D01*
X149681429Y-110389999D01*
X149610000Y-110532856D01*
X149610000Y-110818570D01*
X149681429Y-110961428D01*
X149752857Y-111032856D01*
X149895714Y-111104285D01*
X149038571Y-109318571D02*
X149038571Y-109175714D01*
X149110000Y-109032857D01*
X149181429Y-108961428D01*
X149324286Y-108889999D01*
X149610000Y-108818571D01*
X149967143Y-108818571D01*
X150252857Y-108889999D01*
X150395714Y-108961428D01*
X150467143Y-109032857D01*
X150538571Y-109175714D01*
X150538571Y-109318571D01*
X150467143Y-109461428D01*
X150395714Y-109532857D01*
X150252857Y-109604285D01*
X149967143Y-109675714D01*
X149610000Y-109675714D01*
X149324286Y-109604285D01*
X149181429Y-109532857D01*
X149110000Y-109461428D01*
X149038571Y-109318571D01*
X149038571Y-107890000D02*
X149038571Y-107747143D01*
X149110000Y-107604286D01*
X149181429Y-107532857D01*
X149324286Y-107461428D01*
X149610000Y-107390000D01*
X149967143Y-107390000D01*
X150252857Y-107461428D01*
X150395714Y-107532857D01*
X150467143Y-107604286D01*
X150538571Y-107747143D01*
X150538571Y-107890000D01*
X150467143Y-108032857D01*
X150395714Y-108104286D01*
X150252857Y-108175714D01*
X149967143Y-108247143D01*
X149610000Y-108247143D01*
X149324286Y-108175714D01*
X149181429Y-108104286D01*
X149110000Y-108032857D01*
X149038571Y-107890000D01*
X150538571Y-105604286D02*
X149038571Y-105604286D01*
X150110000Y-105104286D01*
X149038571Y-104604286D01*
X150538571Y-104604286D01*
X150538571Y-103890000D02*
X149038571Y-103890000D01*
X149038571Y-103318572D01*
X149110000Y-103175714D01*
X149181429Y-103104286D01*
X149324286Y-103032857D01*
X149538571Y-103032857D01*
X149681429Y-103104286D01*
X149752857Y-103175714D01*
X149824286Y-103318572D01*
X149824286Y-103890000D01*
X149038571Y-102390000D02*
X150252857Y-102390000D01*
X150395714Y-102318572D01*
X150467143Y-102247143D01*
X150538571Y-102104286D01*
X150538571Y-101818572D01*
X150467143Y-101675714D01*
X150395714Y-101604286D01*
X150252857Y-101532857D01*
X149038571Y-101532857D01*
X149038571Y-99675714D02*
X150252857Y-99675714D01*
X150395714Y-99604286D01*
X150467143Y-99532857D01*
X150538571Y-99390000D01*
X150538571Y-99104286D01*
X150467143Y-98961428D01*
X150395714Y-98890000D01*
X150252857Y-98818571D01*
X149038571Y-98818571D01*
X150538571Y-97318571D02*
X150538571Y-98175714D01*
X150538571Y-97747142D02*
X149038571Y-97747142D01*
X149252857Y-97889999D01*
X149395714Y-98032857D01*
X149467143Y-98175714D01*
X149038571Y-96818571D02*
X149038571Y-95890000D01*
X149610000Y-96390000D01*
X149610000Y-96175714D01*
X149681429Y-96032857D01*
X149752857Y-95961428D01*
X149895714Y-95890000D01*
X150252857Y-95890000D01*
X150395714Y-95961428D01*
X150467143Y-96032857D01*
X150538571Y-96175714D01*
X150538571Y-96604286D01*
X150467143Y-96747143D01*
X150395714Y-96818571D01*
D12*
X173228000Y-105156000D02*
X173228000Y-103632000D01*
X172466000Y-104394000D02*
X173228000Y-105156000D01*
X173228000Y-103632000D02*
X172466000Y-104394000D01*
X151130000Y-115570000D02*
X151130000Y-92710000D01*
X173990000Y-115570000D02*
X151130000Y-115570000D01*
X173990000Y-96520000D02*
X173990000Y-115570000D01*
X170180000Y-92710000D02*
X173990000Y-96520000D01*
X151130000Y-92710000D02*
X170180000Y-92710000D01*
D13*
X144399000Y-111379000D02*
X144399000Y-114681000D01*
X144399000Y-114681000D02*
X146939000Y-114681000D01*
X146939000Y-114681000D02*
X147701000Y-113919000D01*
X147701000Y-113919000D02*
X147701000Y-112141000D01*
X147701000Y-112141000D02*
X146939000Y-111379000D01*
X146939000Y-111379000D02*
X144399000Y-111379000D01*
X144653000Y-112522000D02*
X144653000Y-113538000D01*
X144780000Y-112268000D02*
X144780000Y-113792000D01*
X144907000Y-112014000D02*
X144907000Y-114046000D01*
X145034000Y-111887000D02*
X145034000Y-114173000D01*
X147193000Y-113030000D02*
X146431000Y-113030000D01*
X146812000Y-112649000D02*
X146812000Y-113411000D01*
X147574000Y-113030000D02*
G75*
G03X147574000Y-113030000I-1524000J0D01*
G01*
X147670000Y-118710000D02*
X146970000Y-118710000D01*
X146970000Y-117510000D02*
X147670000Y-117510000D01*
X144399000Y-105029000D02*
X144399000Y-108331000D01*
X144399000Y-108331000D02*
X146939000Y-108331000D01*
X146939000Y-108331000D02*
X147701000Y-107569000D01*
X147701000Y-107569000D02*
X147701000Y-105791000D01*
X147701000Y-105791000D02*
X146939000Y-105029000D01*
X146939000Y-105029000D02*
X144399000Y-105029000D01*
X144653000Y-106172000D02*
X144653000Y-107188000D01*
X144780000Y-105918000D02*
X144780000Y-107442000D01*
X144907000Y-105664000D02*
X144907000Y-107696000D01*
X145034000Y-105537000D02*
X145034000Y-107823000D01*
X147193000Y-106680000D02*
X146431000Y-106680000D01*
X146812000Y-106299000D02*
X146812000Y-107061000D01*
X147574000Y-106680000D02*
G75*
G03X147574000Y-106680000I-1524000J0D01*
G01*
X152750000Y-118710000D02*
X152050000Y-118710000D01*
X152050000Y-117510000D02*
X152750000Y-117510000D01*
X165862000Y-116205000D02*
X165608000Y-116205000D01*
X165608000Y-116205000D02*
X165608000Y-118491000D01*
X165608000Y-118491000D02*
X165862000Y-118491000D01*
X165862000Y-116205000D02*
X165862000Y-118491000D01*
X165862000Y-118491000D02*
X167513000Y-118491000D01*
X169291000Y-116205000D02*
X170942000Y-116205000D01*
X170942000Y-116205000D02*
X170942000Y-118491000D01*
X170942000Y-118491000D02*
X169291000Y-118491000D01*
X167513000Y-116205000D02*
X165862000Y-116205000D01*
X147320000Y-99060000D02*
X147320000Y-93980000D01*
X147320000Y-93980000D02*
X144780000Y-93980000D01*
X144780000Y-93980000D02*
X144780000Y-99060000D01*
X144500000Y-101880000D02*
X144500000Y-100330000D01*
X144780000Y-99060000D02*
X147320000Y-99060000D01*
X147600000Y-100330000D02*
X147600000Y-101880000D01*
X147600000Y-101880000D02*
X144500000Y-101880000D01*
X158758000Y-116673000D02*
X159758000Y-116673000D01*
X159758000Y-118023000D02*
X158758000Y-118023000D01*
X160020000Y-102870000D02*
X160020000Y-107950000D01*
X159740000Y-100050000D02*
X161290000Y-100050000D01*
X162560000Y-100330000D02*
X162560000Y-102870000D01*
X162560000Y-102870000D02*
X160020000Y-102870000D01*
X160020000Y-107950000D02*
X165100000Y-107950000D01*
X165100000Y-107950000D02*
X165100000Y-102870000D01*
X159740000Y-100050000D02*
X159740000Y-101600000D01*
X165100000Y-100330000D02*
X162560000Y-100330000D01*
X165100000Y-102870000D02*
X165100000Y-100330000D01*
X145883334Y-110593143D02*
X145835715Y-110640762D01*
X145692858Y-110688381D01*
X145597620Y-110688381D01*
X145454762Y-110640762D01*
X145359524Y-110545524D01*
X145311905Y-110450286D01*
X145264286Y-110259810D01*
X145264286Y-110116952D01*
X145311905Y-109926476D01*
X145359524Y-109831238D01*
X145454762Y-109736000D01*
X145597620Y-109688381D01*
X145692858Y-109688381D01*
X145835715Y-109736000D01*
X145883334Y-109783619D01*
X146835715Y-110688381D02*
X146264286Y-110688381D01*
X146550000Y-110688381D02*
X146550000Y-109688381D01*
X146454762Y-109831238D01*
X146359524Y-109926476D01*
X146264286Y-109974095D01*
X147280334Y-120118143D02*
X147232715Y-120165762D01*
X147089858Y-120213381D01*
X146994620Y-120213381D01*
X146851762Y-120165762D01*
X146756524Y-120070524D01*
X146708905Y-119975286D01*
X146661286Y-119784810D01*
X146661286Y-119641952D01*
X146708905Y-119451476D01*
X146756524Y-119356238D01*
X146851762Y-119261000D01*
X146994620Y-119213381D01*
X147089858Y-119213381D01*
X147232715Y-119261000D01*
X147280334Y-119308619D01*
X147661286Y-119308619D02*
X147708905Y-119261000D01*
X147804143Y-119213381D01*
X148042239Y-119213381D01*
X148137477Y-119261000D01*
X148185096Y-119308619D01*
X148232715Y-119403857D01*
X148232715Y-119499095D01*
X148185096Y-119641952D01*
X147613667Y-120213381D01*
X148232715Y-120213381D01*
X145883334Y-104243143D02*
X145835715Y-104290762D01*
X145692858Y-104338381D01*
X145597620Y-104338381D01*
X145454762Y-104290762D01*
X145359524Y-104195524D01*
X145311905Y-104100286D01*
X145264286Y-103909810D01*
X145264286Y-103766952D01*
X145311905Y-103576476D01*
X145359524Y-103481238D01*
X145454762Y-103386000D01*
X145597620Y-103338381D01*
X145692858Y-103338381D01*
X145835715Y-103386000D01*
X145883334Y-103433619D01*
X146216667Y-103338381D02*
X146835715Y-103338381D01*
X146502381Y-103719333D01*
X146645239Y-103719333D01*
X146740477Y-103766952D01*
X146788096Y-103814571D01*
X146835715Y-103909810D01*
X146835715Y-104147905D01*
X146788096Y-104243143D01*
X146740477Y-104290762D01*
X146645239Y-104338381D01*
X146359524Y-104338381D01*
X146264286Y-104290762D01*
X146216667Y-104243143D01*
X152360334Y-120118143D02*
X152312715Y-120165762D01*
X152169858Y-120213381D01*
X152074620Y-120213381D01*
X151931762Y-120165762D01*
X151836524Y-120070524D01*
X151788905Y-119975286D01*
X151741286Y-119784810D01*
X151741286Y-119641952D01*
X151788905Y-119451476D01*
X151836524Y-119356238D01*
X151931762Y-119261000D01*
X152074620Y-119213381D01*
X152169858Y-119213381D01*
X152312715Y-119261000D01*
X152360334Y-119308619D01*
X153217477Y-119546714D02*
X153217477Y-120213381D01*
X152979381Y-119165762D02*
X152741286Y-119880048D01*
X153360334Y-119880048D01*
X167790905Y-119959381D02*
X167790905Y-118959381D01*
X168029000Y-118959381D01*
X168171858Y-119007000D01*
X168267096Y-119102238D01*
X168314715Y-119197476D01*
X168362334Y-119387952D01*
X168362334Y-119530810D01*
X168314715Y-119721286D01*
X168267096Y-119816524D01*
X168171858Y-119911762D01*
X168029000Y-119959381D01*
X167790905Y-119959381D01*
X169314715Y-119959381D02*
X168743286Y-119959381D01*
X169029000Y-119959381D02*
X169029000Y-118959381D01*
X168933762Y-119102238D01*
X168838524Y-119197476D01*
X168743286Y-119245095D01*
X143962381Y-98528095D02*
X142962381Y-98528095D01*
X142962381Y-98147142D01*
X143010000Y-98051904D01*
X143057619Y-98004285D01*
X143152857Y-97956666D01*
X143295714Y-97956666D01*
X143390952Y-98004285D01*
X143438571Y-98051904D01*
X143486190Y-98147142D01*
X143486190Y-98528095D01*
X143057619Y-97575714D02*
X143010000Y-97528095D01*
X142962381Y-97432857D01*
X142962381Y-97194761D01*
X143010000Y-97099523D01*
X143057619Y-97051904D01*
X143152857Y-97004285D01*
X143248095Y-97004285D01*
X143390952Y-97051904D01*
X143962381Y-97623333D01*
X143962381Y-97004285D01*
X159091334Y-119700381D02*
X158758000Y-119224190D01*
X158519905Y-119700381D02*
X158519905Y-118700381D01*
X158900858Y-118700381D01*
X158996096Y-118748000D01*
X159043715Y-118795619D01*
X159091334Y-118890857D01*
X159091334Y-119033714D01*
X159043715Y-119128952D01*
X158996096Y-119176571D01*
X158900858Y-119224190D01*
X158519905Y-119224190D01*
X160043715Y-119700381D02*
X159472286Y-119700381D01*
X159758000Y-119700381D02*
X159758000Y-118700381D01*
X159662762Y-118843238D01*
X159567524Y-118938476D01*
X159472286Y-118986095D01*
X166822381Y-104878095D02*
X165822381Y-104878095D01*
X165822381Y-104497142D01*
X165870000Y-104401904D01*
X165917619Y-104354285D01*
X166012857Y-104306666D01*
X166155714Y-104306666D01*
X166250952Y-104354285D01*
X166298571Y-104401904D01*
X166346190Y-104497142D01*
X166346190Y-104878095D01*
X166822381Y-103354285D02*
X166822381Y-103925714D01*
X166822381Y-103640000D02*
X165822381Y-103640000D01*
X165965238Y-103735238D01*
X166060476Y-103830476D01*
X166108095Y-103925714D01*
M02*
