%TF.GenerationSoftware,KiCad,Pcbnew,5.1.9+dfsg1-1+deb11u1*%
%TF.CreationDate,2026-02-20T14:02:03+01:00*%
%TF.ProjectId,A600MPU-Adapter,41363030-4d50-4552-9d41-646170746572,3.0*%
%TF.SameCoordinates,Original*%
%TF.FileFunction,Soldermask,Bot*%
%TF.FilePolarity,Negative*%
%FSLAX46Y46*%
G04 Gerber Fmt 4.6, Leading zero omitted, Abs format (unit mm)*
G04 Created by KiCad (PCBNEW 5.1.9+dfsg1-1+deb11u1) date 2026-02-20 14:02:03*
%MOMM*%
%LPD*%
G01*
G04 APERTURE LIST*
%ADD10O,1.700000X1.700000*%
%ADD11R,1.700000X1.700000*%
%ADD12C,1.700000*%
%ADD13R,1.422400X1.422400*%
%ADD14C,1.422400*%
%ADD15C,0.600000*%
G04 APERTURE END LIST*
D10*
%TO.C,P2*%
X146000000Y-100280000D03*
X146000000Y-97740000D03*
D11*
X146000000Y-95200000D03*
%TD*%
D12*
%TO.C,P1*%
X163840000Y-106680000D03*
X163840000Y-104140000D03*
X163840000Y-101600000D03*
X161300000Y-106680000D03*
X161300000Y-104140000D03*
G36*
G01*
X160450000Y-102200000D02*
X160450000Y-101000000D01*
G75*
G02*
X160700000Y-100750000I250000J0D01*
G01*
X161900000Y-100750000D01*
G75*
G02*
X162150000Y-101000000I0J-250000D01*
G01*
X162150000Y-102200000D01*
G75*
G02*
X161900000Y-102450000I-250000J0D01*
G01*
X160700000Y-102450000D01*
G75*
G02*
X160450000Y-102200000I0J250000D01*
G01*
G37*
%TD*%
D13*
%TO.C,U1*%
X161500000Y-97600000D03*
D14*
X164040000Y-97600000D03*
X166580000Y-97600000D03*
X158960000Y-97600000D03*
X156420000Y-97600000D03*
X164040000Y-95060000D03*
X166580000Y-95060000D03*
X169120000Y-95060000D03*
X161500000Y-95060000D03*
X158960000Y-95060000D03*
X169120000Y-97600000D03*
X169120000Y-100140000D03*
X169120000Y-102680000D03*
X169120000Y-105220000D03*
X169120000Y-107760000D03*
X171660000Y-97600000D03*
X171660000Y-100140000D03*
X171660000Y-102680000D03*
X171660000Y-105220000D03*
X171660000Y-107760000D03*
X171660000Y-110300000D03*
X169120000Y-110300000D03*
X166580000Y-110300000D03*
X164040000Y-110300000D03*
X161500000Y-110300000D03*
X158960000Y-110300000D03*
X153880000Y-110300000D03*
X169120000Y-112840000D03*
X166580000Y-112840000D03*
X164040000Y-112840000D03*
X161500000Y-112840000D03*
X158960000Y-112840000D03*
X156420000Y-112840000D03*
X156420000Y-110300000D03*
X156420000Y-107760000D03*
X156420000Y-105220000D03*
X156420000Y-102680000D03*
X156420000Y-100140000D03*
X156420000Y-95060000D03*
X153880000Y-107760000D03*
X153880000Y-105220000D03*
X153880000Y-102680000D03*
X153880000Y-100140000D03*
X153880000Y-97600000D03*
%TD*%
D15*
X149000000Y-113100000D03*
X144263037Y-117314643D03*
M02*
