M48
; DRILL file {KiCad 5.1.9+dfsg1-1+deb11u1} date Fri Feb 20 14:02:05 2026
; FORMAT={-:-/ absolute / metric / decimal}
; #@! TF.CreationDate,2026-02-20T14:02:05+01:00
; #@! TF.GenerationSoftware,Kicad,Pcbnew,5.1.9+dfsg1-1+deb11u1
; #@! TF.FileFunction,Plated,1,2,PTH
FMAT,2
METRIC
T1C0.400
T2C0.800
T3C1.000
%
G90
G05
T1
X144.263Y-117.315
X149.0Y-113.1
T2
X153.88Y-97.6
X153.88Y-100.14
X153.88Y-102.68
X153.88Y-105.22
X153.88Y-107.76
X153.88Y-110.3
X156.42Y-95.06
X156.42Y-97.6
X156.42Y-100.14
X156.42Y-102.68
X156.42Y-105.22
X156.42Y-107.76
X156.42Y-110.3
X156.42Y-112.84
X158.96Y-95.06
X158.96Y-97.6
X158.96Y-110.3
X158.96Y-112.84
X161.5Y-95.06
X161.5Y-97.6
X161.5Y-110.3
X161.5Y-112.84
X164.04Y-95.06
X164.04Y-97.6
X164.04Y-110.3
X164.04Y-112.84
X166.58Y-95.06
X166.58Y-97.6
X166.58Y-110.3
X166.58Y-112.84
X169.12Y-95.06
X169.12Y-97.6
X169.12Y-100.14
X169.12Y-102.68
X169.12Y-105.22
X169.12Y-107.76
X169.12Y-110.3
X169.12Y-112.84
X171.66Y-97.6
X171.66Y-100.14
X171.66Y-102.68
X171.66Y-105.22
X171.66Y-107.76
X171.66Y-110.3
T3
X146.0Y-95.2
X146.0Y-97.74
X146.0Y-100.28
X161.3Y-101.6
X161.3Y-104.14
X161.3Y-106.68
X163.84Y-101.6
X163.84Y-104.14
X163.84Y-106.68
T0
M30
