%TF.GenerationSoftware,KiCad,Pcbnew,5.1.9+dfsg1-1+deb11u1*%
%TF.CreationDate,2022-11-29T12:23:15+01:00*%
%TF.ProjectId,A600MPU-Adapter,41363030-4d50-4552-9d41-646170746572,2.0*%
%TF.SameCoordinates,Original*%
%TF.FileFunction,Legend,Bot*%
%TF.FilePolarity,Positive*%
%FSLAX46Y46*%
G04 Gerber Fmt 4.6, Leading zero omitted, Abs format (unit mm)*
G04 Created by KiCad (PCBNEW 5.1.9+dfsg1-1+deb11u1) date 2022-11-29 12:23:15*
%MOMM*%
%LPD*%
G01*
G04 APERTURE LIST*
%ADD10C,0.300000*%
%ADD11C,0.187500*%
%ADD12C,0.100000*%
%ADD13C,0.120000*%
%ADD14C,0.150000*%
G04 APERTURE END LIST*
D10*
X149578571Y-99464285D02*
X148864285Y-98964285D01*
X149578571Y-98607142D02*
X148078571Y-98607142D01*
X148078571Y-99178571D01*
X148150000Y-99321428D01*
X148221428Y-99392857D01*
X148364285Y-99464285D01*
X148578571Y-99464285D01*
X148721428Y-99392857D01*
X148792857Y-99321428D01*
X148864285Y-99178571D01*
X148864285Y-98607142D01*
X148792857Y-100607142D02*
X148864285Y-100821428D01*
X148935714Y-100892857D01*
X149078571Y-100964285D01*
X149292857Y-100964285D01*
X149435714Y-100892857D01*
X149507142Y-100821428D01*
X149578571Y-100678571D01*
X149578571Y-100107142D01*
X148078571Y-100107142D01*
X148078571Y-100607142D01*
X148150000Y-100750000D01*
X148221428Y-100821428D01*
X148364285Y-100892857D01*
X148507142Y-100892857D01*
X148650000Y-100821428D01*
X148721428Y-100750000D01*
X148792857Y-100607142D01*
X148792857Y-100107142D01*
X149578571Y-102321428D02*
X149578571Y-101607142D01*
X148078571Y-101607142D01*
X148078571Y-103107142D02*
X148078571Y-103250000D01*
X148150000Y-103392857D01*
X148221428Y-103464285D01*
X148364285Y-103535714D01*
X148650000Y-103607142D01*
X149007142Y-103607142D01*
X149292857Y-103535714D01*
X149435714Y-103464285D01*
X149507142Y-103392857D01*
X149578571Y-103250000D01*
X149578571Y-103107142D01*
X149507142Y-102964285D01*
X149435714Y-102892857D01*
X149292857Y-102821428D01*
X149007142Y-102750000D01*
X148650000Y-102750000D01*
X148364285Y-102821428D01*
X148221428Y-102892857D01*
X148150000Y-102964285D01*
X148078571Y-103107142D01*
X148078571Y-104535714D02*
X148078571Y-104678571D01*
X148150000Y-104821428D01*
X148221428Y-104892857D01*
X148364285Y-104964285D01*
X148650000Y-105035714D01*
X149007142Y-105035714D01*
X149292857Y-104964285D01*
X149435714Y-104892857D01*
X149507142Y-104821428D01*
X149578571Y-104678571D01*
X149578571Y-104535714D01*
X149507142Y-104392857D01*
X149435714Y-104321428D01*
X149292857Y-104250000D01*
X149007142Y-104178571D01*
X148650000Y-104178571D01*
X148364285Y-104250000D01*
X148221428Y-104321428D01*
X148150000Y-104392857D01*
X148078571Y-104535714D01*
X148078571Y-105535714D02*
X148078571Y-106535714D01*
X149578571Y-105892857D01*
X149435714Y-107107142D02*
X149507142Y-107178571D01*
X149578571Y-107107142D01*
X149507142Y-107035714D01*
X149435714Y-107107142D01*
X149578571Y-107107142D01*
X148078571Y-108107142D02*
X148078571Y-108250000D01*
X148150000Y-108392857D01*
X148221428Y-108464285D01*
X148364285Y-108535714D01*
X148650000Y-108607142D01*
X149007142Y-108607142D01*
X149292857Y-108535714D01*
X149435714Y-108464285D01*
X149507142Y-108392857D01*
X149578571Y-108250000D01*
X149578571Y-108107142D01*
X149507142Y-107964285D01*
X149435714Y-107892857D01*
X149292857Y-107821428D01*
X149007142Y-107750000D01*
X148650000Y-107750000D01*
X148364285Y-107821428D01*
X148221428Y-107892857D01*
X148150000Y-107964285D01*
X148078571Y-108107142D01*
X148078571Y-109535714D02*
X148078571Y-109678571D01*
X148150000Y-109821428D01*
X148221428Y-109892857D01*
X148364285Y-109964285D01*
X148650000Y-110035714D01*
X149007142Y-110035714D01*
X149292857Y-109964285D01*
X149435714Y-109892857D01*
X149507142Y-109821428D01*
X149578571Y-109678571D01*
X149578571Y-109535714D01*
X149507142Y-109392857D01*
X149435714Y-109321428D01*
X149292857Y-109250000D01*
X149007142Y-109178571D01*
X148650000Y-109178571D01*
X148364285Y-109250000D01*
X148221428Y-109321428D01*
X148150000Y-109392857D01*
X148078571Y-109535714D01*
X149578571Y-111464285D02*
X149578571Y-110607142D01*
X149578571Y-111035714D02*
X148078571Y-111035714D01*
X148292857Y-110892857D01*
X148435714Y-110750000D01*
X148507142Y-110607142D01*
D11*
X174306428Y-119846285D02*
X174306428Y-119346285D01*
X174306428Y-119096285D02*
X174354047Y-119132000D01*
X174306428Y-119167714D01*
X174258809Y-119132000D01*
X174306428Y-119096285D01*
X174306428Y-119167714D01*
X173830238Y-119346285D02*
X173830238Y-119846285D01*
X173830238Y-119417714D02*
X173782619Y-119382000D01*
X173687380Y-119346285D01*
X173544523Y-119346285D01*
X173449285Y-119382000D01*
X173401666Y-119453428D01*
X173401666Y-119846285D01*
X172163571Y-119846285D02*
X172163571Y-119346285D01*
X172163571Y-119417714D02*
X172115952Y-119382000D01*
X172020714Y-119346285D01*
X171877857Y-119346285D01*
X171782619Y-119382000D01*
X171735000Y-119453428D01*
X171735000Y-119846285D01*
X171735000Y-119453428D02*
X171687380Y-119382000D01*
X171592142Y-119346285D01*
X171449285Y-119346285D01*
X171354047Y-119382000D01*
X171306428Y-119453428D01*
X171306428Y-119846285D01*
X170449285Y-119810571D02*
X170544523Y-119846285D01*
X170734999Y-119846285D01*
X170830238Y-119810571D01*
X170877857Y-119739142D01*
X170877857Y-119453428D01*
X170830238Y-119382000D01*
X170734999Y-119346285D01*
X170544523Y-119346285D01*
X170449285Y-119382000D01*
X170401666Y-119453428D01*
X170401666Y-119524857D01*
X170877857Y-119596285D01*
X169973095Y-119846285D02*
X169973095Y-119346285D01*
X169973095Y-119417714D02*
X169925476Y-119382000D01*
X169830238Y-119346285D01*
X169687380Y-119346285D01*
X169592142Y-119382000D01*
X169544523Y-119453428D01*
X169544523Y-119846285D01*
X169544523Y-119453428D02*
X169496904Y-119382000D01*
X169401666Y-119346285D01*
X169258809Y-119346285D01*
X169163571Y-119382000D01*
X169115952Y-119453428D01*
X169115952Y-119846285D01*
X168496904Y-119846285D02*
X168592142Y-119810571D01*
X168639761Y-119774857D01*
X168687380Y-119703428D01*
X168687380Y-119489142D01*
X168639761Y-119417714D01*
X168592142Y-119382000D01*
X168496904Y-119346285D01*
X168354047Y-119346285D01*
X168258809Y-119382000D01*
X168211190Y-119417714D01*
X168163571Y-119489142D01*
X168163571Y-119703428D01*
X168211190Y-119774857D01*
X168258809Y-119810571D01*
X168354047Y-119846285D01*
X168496904Y-119846285D01*
X167734999Y-119846285D02*
X167734999Y-119346285D01*
X167734999Y-119489142D02*
X167687380Y-119417714D01*
X167639761Y-119382000D01*
X167544523Y-119346285D01*
X167449285Y-119346285D01*
X167115952Y-119846285D02*
X167115952Y-119346285D01*
X167115952Y-119096285D02*
X167163571Y-119132000D01*
X167115952Y-119167714D01*
X167068333Y-119132000D01*
X167115952Y-119096285D01*
X167115952Y-119167714D01*
X166211190Y-119846285D02*
X166211190Y-119453428D01*
X166258809Y-119382000D01*
X166354047Y-119346285D01*
X166544523Y-119346285D01*
X166639761Y-119382000D01*
X166211190Y-119810571D02*
X166306428Y-119846285D01*
X166544523Y-119846285D01*
X166639761Y-119810571D01*
X166687380Y-119739142D01*
X166687380Y-119667714D01*
X166639761Y-119596285D01*
X166544523Y-119560571D01*
X166306428Y-119560571D01*
X166211190Y-119524857D01*
X165734999Y-119846285D02*
X165734999Y-119346285D01*
X165734999Y-119417714D02*
X165687380Y-119382000D01*
X165592142Y-119346285D01*
X165449285Y-119346285D01*
X165354047Y-119382000D01*
X165306428Y-119453428D01*
X165306428Y-119846285D01*
X165306428Y-119453428D02*
X165258809Y-119382000D01*
X165163571Y-119346285D01*
X165020714Y-119346285D01*
X164925476Y-119382000D01*
X164877857Y-119453428D01*
X164877857Y-119846285D01*
X163687380Y-119632000D02*
X163211190Y-119632000D01*
X163782619Y-119846285D02*
X163449285Y-119096285D01*
X163115952Y-119846285D01*
X162782619Y-119774857D02*
X162734999Y-119810571D01*
X162782619Y-119846285D01*
X162830238Y-119810571D01*
X162782619Y-119774857D01*
X162782619Y-119846285D01*
X162354047Y-119810571D02*
X162211190Y-119846285D01*
X161973095Y-119846285D01*
X161877857Y-119810571D01*
X161830238Y-119774857D01*
X161782619Y-119703428D01*
X161782619Y-119632000D01*
X161830238Y-119560571D01*
X161877857Y-119524857D01*
X161973095Y-119489142D01*
X162163571Y-119453428D01*
X162258809Y-119417714D01*
X162306428Y-119382000D01*
X162354047Y-119310571D01*
X162354047Y-119239142D01*
X162306428Y-119167714D01*
X162258809Y-119132000D01*
X162163571Y-119096285D01*
X161925476Y-119096285D01*
X161782619Y-119132000D01*
X161354047Y-119774857D02*
X161306428Y-119810571D01*
X161354047Y-119846285D01*
X161401666Y-119810571D01*
X161354047Y-119774857D01*
X161354047Y-119846285D01*
X160877857Y-119560571D02*
X160115952Y-119560571D01*
X159115952Y-119132000D02*
X159211190Y-119096285D01*
X159354047Y-119096285D01*
X159496904Y-119132000D01*
X159592142Y-119203428D01*
X159639761Y-119274857D01*
X159687380Y-119417714D01*
X159687380Y-119524857D01*
X159639761Y-119667714D01*
X159592142Y-119739142D01*
X159496904Y-119810571D01*
X159354047Y-119846285D01*
X159258809Y-119846285D01*
X159115952Y-119810571D01*
X159068333Y-119774857D01*
X159068333Y-119524857D01*
X159258809Y-119524857D01*
X158639761Y-119774857D02*
X158592142Y-119810571D01*
X158639761Y-119846285D01*
X158687380Y-119810571D01*
X158639761Y-119774857D01*
X158639761Y-119846285D01*
X158163571Y-119846285D02*
X158163571Y-119096285D01*
X157925476Y-119096285D01*
X157782619Y-119132000D01*
X157687380Y-119203428D01*
X157639761Y-119274857D01*
X157592142Y-119417714D01*
X157592142Y-119524857D01*
X157639761Y-119667714D01*
X157687380Y-119739142D01*
X157782619Y-119810571D01*
X157925476Y-119846285D01*
X158163571Y-119846285D01*
X157163571Y-119774857D02*
X157115952Y-119810571D01*
X157163571Y-119846285D01*
X157211190Y-119810571D01*
X157163571Y-119774857D01*
X157163571Y-119846285D01*
D12*
X143482190Y-92966666D02*
X142982190Y-92966666D01*
X143458380Y-92966666D02*
X143482190Y-92900000D01*
X143482190Y-92766666D01*
X143458380Y-92700000D01*
X143434571Y-92666666D01*
X143386952Y-92633333D01*
X143244095Y-92633333D01*
X143196476Y-92666666D01*
X143172666Y-92700000D01*
X143148857Y-92766666D01*
X143148857Y-92900000D01*
X143172666Y-92966666D01*
X143458380Y-93566666D02*
X143482190Y-93500000D01*
X143482190Y-93366666D01*
X143458380Y-93300000D01*
X143410761Y-93266666D01*
X143220285Y-93266666D01*
X143172666Y-93300000D01*
X143148857Y-93366666D01*
X143148857Y-93500000D01*
X143172666Y-93566666D01*
X143220285Y-93600000D01*
X143267904Y-93600000D01*
X143315523Y-93266666D01*
X143458380Y-93866666D02*
X143482190Y-93933333D01*
X143482190Y-94066666D01*
X143458380Y-94133333D01*
X143410761Y-94166666D01*
X143386952Y-94166666D01*
X143339333Y-94133333D01*
X143315523Y-94066666D01*
X143315523Y-93966666D01*
X143291714Y-93900000D01*
X143244095Y-93866666D01*
X143220285Y-93866666D01*
X143172666Y-93900000D01*
X143148857Y-93966666D01*
X143148857Y-94066666D01*
X143172666Y-94133333D01*
X143482190Y-94466666D02*
X143148857Y-94466666D01*
X142982190Y-94466666D02*
X143006000Y-94433333D01*
X143029809Y-94466666D01*
X143006000Y-94500000D01*
X142982190Y-94466666D01*
X143029809Y-94466666D01*
X143148857Y-95100000D02*
X143553619Y-95100000D01*
X143601238Y-95066666D01*
X143625047Y-95033333D01*
X143648857Y-94966666D01*
X143648857Y-94866666D01*
X143625047Y-94800000D01*
X143458380Y-95100000D02*
X143482190Y-95033333D01*
X143482190Y-94900000D01*
X143458380Y-94833333D01*
X143434571Y-94800000D01*
X143386952Y-94766666D01*
X143244095Y-94766666D01*
X143196476Y-94800000D01*
X143172666Y-94833333D01*
X143148857Y-94900000D01*
X143148857Y-95033333D01*
X143172666Y-95100000D01*
X143148857Y-95433333D02*
X143482190Y-95433333D01*
X143196476Y-95433333D02*
X143172666Y-95466666D01*
X143148857Y-95533333D01*
X143148857Y-95633333D01*
X143172666Y-95700000D01*
X143220285Y-95733333D01*
X143482190Y-95733333D01*
X143458380Y-96333333D02*
X143482190Y-96266666D01*
X143482190Y-96133333D01*
X143458380Y-96066666D01*
X143410761Y-96033333D01*
X143220285Y-96033333D01*
X143172666Y-96066666D01*
X143148857Y-96133333D01*
X143148857Y-96266666D01*
X143172666Y-96333333D01*
X143220285Y-96366666D01*
X143267904Y-96366666D01*
X143315523Y-96033333D01*
X143482190Y-96966666D02*
X142982190Y-96966666D01*
X143458380Y-96966666D02*
X143482190Y-96900000D01*
X143482190Y-96766666D01*
X143458380Y-96700000D01*
X143434571Y-96666666D01*
X143386952Y-96633333D01*
X143244095Y-96633333D01*
X143196476Y-96666666D01*
X143172666Y-96700000D01*
X143148857Y-96766666D01*
X143148857Y-96900000D01*
X143172666Y-96966666D01*
X143482190Y-97833333D02*
X142982190Y-97833333D01*
X143172666Y-97833333D02*
X143148857Y-97900000D01*
X143148857Y-98033333D01*
X143172666Y-98100000D01*
X143196476Y-98133333D01*
X143244095Y-98166666D01*
X143386952Y-98166666D01*
X143434571Y-98133333D01*
X143458380Y-98100000D01*
X143482190Y-98033333D01*
X143482190Y-97900000D01*
X143458380Y-97833333D01*
X143148857Y-98400000D02*
X143482190Y-98566666D01*
X143148857Y-98733333D02*
X143482190Y-98566666D01*
X143601238Y-98500000D01*
X143625047Y-98466666D01*
X143648857Y-98400000D01*
X143482190Y-99933333D02*
X143244095Y-99700000D01*
X143482190Y-99533333D02*
X142982190Y-99533333D01*
X142982190Y-99800000D01*
X143006000Y-99866666D01*
X143029809Y-99900000D01*
X143077428Y-99933333D01*
X143148857Y-99933333D01*
X143196476Y-99900000D01*
X143220285Y-99866666D01*
X143244095Y-99800000D01*
X143244095Y-99533333D01*
X143434571Y-100233333D02*
X143458380Y-100266666D01*
X143482190Y-100233333D01*
X143458380Y-100200000D01*
X143434571Y-100233333D01*
X143482190Y-100233333D01*
X143006000Y-100933333D02*
X142982190Y-100866666D01*
X142982190Y-100766666D01*
X143006000Y-100666666D01*
X143053619Y-100600000D01*
X143101238Y-100566666D01*
X143196476Y-100533333D01*
X143267904Y-100533333D01*
X143363142Y-100566666D01*
X143410761Y-100600000D01*
X143458380Y-100666666D01*
X143482190Y-100766666D01*
X143482190Y-100833333D01*
X143458380Y-100933333D01*
X143434571Y-100966666D01*
X143267904Y-100966666D01*
X143267904Y-100833333D01*
X143434571Y-101266666D02*
X143458380Y-101300000D01*
X143482190Y-101266666D01*
X143458380Y-101233333D01*
X143434571Y-101266666D01*
X143482190Y-101266666D01*
X143029809Y-101566666D02*
X143006000Y-101600000D01*
X142982190Y-101666666D01*
X142982190Y-101833333D01*
X143006000Y-101900000D01*
X143029809Y-101933333D01*
X143077428Y-101966666D01*
X143125047Y-101966666D01*
X143196476Y-101933333D01*
X143482190Y-101533333D01*
X143482190Y-101966666D01*
X142982190Y-102400000D02*
X142982190Y-102466666D01*
X143006000Y-102533333D01*
X143029809Y-102566666D01*
X143077428Y-102600000D01*
X143172666Y-102633333D01*
X143291714Y-102633333D01*
X143386952Y-102600000D01*
X143434571Y-102566666D01*
X143458380Y-102533333D01*
X143482190Y-102466666D01*
X143482190Y-102400000D01*
X143458380Y-102333333D01*
X143434571Y-102300000D01*
X143386952Y-102266666D01*
X143291714Y-102233333D01*
X143172666Y-102233333D01*
X143077428Y-102266666D01*
X143029809Y-102300000D01*
X143006000Y-102333333D01*
X142982190Y-102400000D01*
X143482190Y-103300000D02*
X143482190Y-102900000D01*
X143482190Y-103100000D02*
X142982190Y-103100000D01*
X143053619Y-103033333D01*
X143101238Y-102966666D01*
X143125047Y-102900000D01*
X143196476Y-103700000D02*
X143172666Y-103633333D01*
X143148857Y-103600000D01*
X143101238Y-103566666D01*
X143077428Y-103566666D01*
X143029809Y-103600000D01*
X143006000Y-103633333D01*
X142982190Y-103700000D01*
X142982190Y-103833333D01*
X143006000Y-103900000D01*
X143029809Y-103933333D01*
X143077428Y-103966666D01*
X143101238Y-103966666D01*
X143148857Y-103933333D01*
X143172666Y-103900000D01*
X143196476Y-103833333D01*
X143196476Y-103700000D01*
X143220285Y-103633333D01*
X143244095Y-103600000D01*
X143291714Y-103566666D01*
X143386952Y-103566666D01*
X143434571Y-103600000D01*
X143458380Y-103633333D01*
X143482190Y-103700000D01*
X143482190Y-103833333D01*
X143458380Y-103900000D01*
X143434571Y-103933333D01*
X143386952Y-103966666D01*
X143291714Y-103966666D01*
X143244095Y-103933333D01*
X143220285Y-103900000D01*
X143196476Y-103833333D01*
X142958380Y-104766666D02*
X143601238Y-104166666D01*
X143029809Y-104966666D02*
X143006000Y-105000000D01*
X142982190Y-105066666D01*
X142982190Y-105233333D01*
X143006000Y-105300000D01*
X143029809Y-105333333D01*
X143077428Y-105366666D01*
X143125047Y-105366666D01*
X143196476Y-105333333D01*
X143482190Y-104933333D01*
X143482190Y-105366666D01*
X142982190Y-105800000D02*
X142982190Y-105866666D01*
X143006000Y-105933333D01*
X143029809Y-105966666D01*
X143077428Y-106000000D01*
X143172666Y-106033333D01*
X143291714Y-106033333D01*
X143386952Y-106000000D01*
X143434571Y-105966666D01*
X143458380Y-105933333D01*
X143482190Y-105866666D01*
X143482190Y-105800000D01*
X143458380Y-105733333D01*
X143434571Y-105700000D01*
X143386952Y-105666666D01*
X143291714Y-105633333D01*
X143172666Y-105633333D01*
X143077428Y-105666666D01*
X143029809Y-105700000D01*
X143006000Y-105733333D01*
X142982190Y-105800000D01*
X143029809Y-106300000D02*
X143006000Y-106333333D01*
X142982190Y-106400000D01*
X142982190Y-106566666D01*
X143006000Y-106633333D01*
X143029809Y-106666666D01*
X143077428Y-106700000D01*
X143125047Y-106700000D01*
X143196476Y-106666666D01*
X143482190Y-106266666D01*
X143482190Y-106700000D01*
X143029809Y-106966666D02*
X143006000Y-107000000D01*
X142982190Y-107066666D01*
X142982190Y-107233333D01*
X143006000Y-107300000D01*
X143029809Y-107333333D01*
X143077428Y-107366666D01*
X143125047Y-107366666D01*
X143196476Y-107333333D01*
X143482190Y-106933333D01*
X143482190Y-107366666D01*
D13*
%TO.C,U1*%
X174100000Y-105470000D02*
X174100000Y-115320000D01*
X174100000Y-115320000D02*
X173100000Y-116320000D01*
X173100000Y-116320000D02*
X150400000Y-116320000D01*
X150400000Y-116320000D02*
X150400000Y-92620000D01*
X150400000Y-92620000D02*
X174100000Y-92620000D01*
X174100000Y-92620000D02*
X174100000Y-103470000D01*
D14*
X174452380Y-103708095D02*
X175261904Y-103708095D01*
X175357142Y-103755714D01*
X175404761Y-103803333D01*
X175452380Y-103898571D01*
X175452380Y-104089047D01*
X175404761Y-104184285D01*
X175357142Y-104231904D01*
X175261904Y-104279523D01*
X174452380Y-104279523D01*
X175452380Y-105279523D02*
X175452380Y-104708095D01*
X175452380Y-104993809D02*
X174452380Y-104993809D01*
X174595238Y-104898571D01*
X174690476Y-104803333D01*
X174738095Y-104708095D01*
%TD*%
M02*
