%TF.GenerationSoftware,KiCad,Pcbnew,5.1.9+dfsg1-1+deb11u1*%
%TF.CreationDate,2022-11-29T11:57:58+01:00*%
%TF.ProjectId,A600MPU-Adapter,41363030-4d50-4552-9d41-646170746572,2.0*%
%TF.SameCoordinates,Original*%
%TF.FileFunction,Copper,L1,Top*%
%TF.FilePolarity,Positive*%
%FSLAX46Y46*%
G04 Gerber Fmt 4.6, Leading zero omitted, Abs format (unit mm)*
G04 Created by KiCad (PCBNEW 5.1.9+dfsg1-1+deb11u1) date 2022-11-29 11:57:58*
%MOMM*%
%LPD*%
G01*
G04 APERTURE LIST*
%TA.AperFunction,ComponentPad*%
%ADD10C,1.700000*%
%TD*%
%TA.AperFunction,ComponentPad*%
%ADD11R,1.700000X1.700000*%
%TD*%
%TA.AperFunction,ComponentPad*%
%ADD12O,1.700000X1.700000*%
%TD*%
%TA.AperFunction,ComponentPad*%
%ADD13R,1.422400X1.422400*%
%TD*%
%TA.AperFunction,ComponentPad*%
%ADD14C,1.422400*%
%TD*%
%TA.AperFunction,ViaPad*%
%ADD15C,0.600000*%
%TD*%
%TA.AperFunction,Conductor*%
%ADD16C,0.250000*%
%TD*%
%TA.AperFunction,Conductor*%
%ADD17C,0.254000*%
%TD*%
%TA.AperFunction,Conductor*%
%ADD18C,0.100000*%
%TD*%
G04 APERTURE END LIST*
%TO.P,C1,1*%
%TO.N,VCC*%
%TA.AperFunction,SMDPad,CuDef*%
G36*
G01*
X143825000Y-113455001D02*
X143825000Y-112604999D01*
G75*
G02*
X144074999Y-112355000I249999J0D01*
G01*
X145150001Y-112355000D01*
G75*
G02*
X145400000Y-112604999I0J-249999D01*
G01*
X145400000Y-113455001D01*
G75*
G02*
X145150001Y-113705000I-249999J0D01*
G01*
X144074999Y-113705000D01*
G75*
G02*
X143825000Y-113455001I0J249999D01*
G01*
G37*
%TD.AperFunction*%
%TO.P,C1,2*%
%TO.N,GND*%
%TA.AperFunction,SMDPad,CuDef*%
G36*
G01*
X146700000Y-113455001D02*
X146700000Y-112604999D01*
G75*
G02*
X146949999Y-112355000I249999J0D01*
G01*
X148025001Y-112355000D01*
G75*
G02*
X148275000Y-112604999I0J-249999D01*
G01*
X148275000Y-113455001D01*
G75*
G02*
X148025001Y-113705000I-249999J0D01*
G01*
X146949999Y-113705000D01*
G75*
G02*
X146700000Y-113455001I0J249999D01*
G01*
G37*
%TD.AperFunction*%
%TD*%
%TO.P,C2,1*%
%TO.N,VCC*%
%TA.AperFunction,SMDPad,CuDef*%
G36*
G01*
X149545000Y-117459999D02*
X149545000Y-118760001D01*
G75*
G02*
X149295001Y-119010000I-249999J0D01*
G01*
X148469999Y-119010000D01*
G75*
G02*
X148220000Y-118760001I0J249999D01*
G01*
X148220000Y-117459999D01*
G75*
G02*
X148469999Y-117210000I249999J0D01*
G01*
X149295001Y-117210000D01*
G75*
G02*
X149545000Y-117459999I0J-249999D01*
G01*
G37*
%TD.AperFunction*%
%TO.P,C2,2*%
%TO.N,GND*%
%TA.AperFunction,SMDPad,CuDef*%
G36*
G01*
X146420000Y-117459999D02*
X146420000Y-118760001D01*
G75*
G02*
X146170001Y-119010000I-249999J0D01*
G01*
X145344999Y-119010000D01*
G75*
G02*
X145095000Y-118760001I0J249999D01*
G01*
X145095000Y-117459999D01*
G75*
G02*
X145344999Y-117210000I249999J0D01*
G01*
X146170001Y-117210000D01*
G75*
G02*
X146420000Y-117459999I0J-249999D01*
G01*
G37*
%TD.AperFunction*%
%TD*%
%TO.P,C3,2*%
%TO.N,GND*%
%TA.AperFunction,SMDPad,CuDef*%
G36*
G01*
X146700000Y-107105001D02*
X146700000Y-106254999D01*
G75*
G02*
X146949999Y-106005000I249999J0D01*
G01*
X148025001Y-106005000D01*
G75*
G02*
X148275000Y-106254999I0J-249999D01*
G01*
X148275000Y-107105001D01*
G75*
G02*
X148025001Y-107355000I-249999J0D01*
G01*
X146949999Y-107355000D01*
G75*
G02*
X146700000Y-107105001I0J249999D01*
G01*
G37*
%TD.AperFunction*%
%TO.P,C3,1*%
%TO.N,VCC*%
%TA.AperFunction,SMDPad,CuDef*%
G36*
G01*
X143825000Y-107105001D02*
X143825000Y-106254999D01*
G75*
G02*
X144074999Y-106005000I249999J0D01*
G01*
X145150001Y-106005000D01*
G75*
G02*
X145400000Y-106254999I0J-249999D01*
G01*
X145400000Y-107105001D01*
G75*
G02*
X145150001Y-107355000I-249999J0D01*
G01*
X144074999Y-107355000D01*
G75*
G02*
X143825000Y-107105001I0J249999D01*
G01*
G37*
%TD.AperFunction*%
%TD*%
%TO.P,D1,1*%
%TO.N,Net-(D1-Pad1)*%
%TA.AperFunction,SMDPad,CuDef*%
G36*
G01*
X169300000Y-118825000D02*
X169300000Y-117575000D01*
G75*
G02*
X169550000Y-117325000I250000J0D01*
G01*
X170475000Y-117325000D01*
G75*
G02*
X170725000Y-117575000I0J-250000D01*
G01*
X170725000Y-118825000D01*
G75*
G02*
X170475000Y-119075000I-250000J0D01*
G01*
X169550000Y-119075000D01*
G75*
G02*
X169300000Y-118825000I0J250000D01*
G01*
G37*
%TD.AperFunction*%
%TO.P,D1,2*%
%TO.N,VCC*%
%TA.AperFunction,SMDPad,CuDef*%
G36*
G01*
X172275000Y-118825000D02*
X172275000Y-117575000D01*
G75*
G02*
X172525000Y-117325000I250000J0D01*
G01*
X173450000Y-117325000D01*
G75*
G02*
X173700000Y-117575000I0J-250000D01*
G01*
X173700000Y-118825000D01*
G75*
G02*
X173450000Y-119075000I-250000J0D01*
G01*
X172525000Y-119075000D01*
G75*
G02*
X172275000Y-118825000I0J250000D01*
G01*
G37*
%TD.AperFunction*%
%TD*%
%TO.P,P1,1*%
%TO.N,KBD_CLOCK*%
%TA.AperFunction,ComponentPad*%
G36*
G01*
X160440000Y-102200000D02*
X160440000Y-101000000D01*
G75*
G02*
X160690000Y-100750000I250000J0D01*
G01*
X161890000Y-100750000D01*
G75*
G02*
X162140000Y-101000000I0J-250000D01*
G01*
X162140000Y-102200000D01*
G75*
G02*
X161890000Y-102450000I-250000J0D01*
G01*
X160690000Y-102450000D01*
G75*
G02*
X160440000Y-102200000I0J250000D01*
G01*
G37*
%TD.AperFunction*%
D10*
%TO.P,P1,3*%
%TO.N,GND*%
X161290000Y-104140000D03*
%TO.P,P1,5*%
%TO.N,KBD_RESET*%
X161290000Y-106680000D03*
%TO.P,P1,2*%
%TO.N,KBD_DATA*%
X163830000Y-101600000D03*
%TO.P,P1,4*%
%TO.N,GND*%
X163830000Y-104140000D03*
%TO.P,P1,6*%
%TO.N,VCC*%
X163830000Y-106680000D03*
%TD*%
D11*
%TO.P,P2,1*%
%TO.N,~TRESET*%
X146050000Y-100330000D03*
D12*
%TO.P,P2,2*%
%TO.N,KBD_RESET*%
X146050000Y-97790000D03*
%TO.P,P2,3*%
%TO.N,~RST*%
X146050000Y-95250000D03*
%TD*%
%TO.P,R1,1*%
%TO.N,Net-(D1-Pad1)*%
%TA.AperFunction,SMDPad,CuDef*%
G36*
G01*
X165200000Y-117475000D02*
X165200000Y-118725000D01*
G75*
G02*
X164950000Y-118975000I-250000J0D01*
G01*
X164150000Y-118975000D01*
G75*
G02*
X163900000Y-118725000I0J250000D01*
G01*
X163900000Y-117475000D01*
G75*
G02*
X164150000Y-117225000I250000J0D01*
G01*
X164950000Y-117225000D01*
G75*
G02*
X165200000Y-117475000I0J-250000D01*
G01*
G37*
%TD.AperFunction*%
%TO.P,R1,2*%
%TO.N,GND*%
%TA.AperFunction,SMDPad,CuDef*%
G36*
G01*
X162100000Y-117475000D02*
X162100000Y-118725000D01*
G75*
G02*
X161850000Y-118975000I-250000J0D01*
G01*
X161050000Y-118975000D01*
G75*
G02*
X160800000Y-118725000I0J250000D01*
G01*
X160800000Y-117475000D01*
G75*
G02*
X161050000Y-117225000I250000J0D01*
G01*
X161850000Y-117225000D01*
G75*
G02*
X162100000Y-117475000I0J-250000D01*
G01*
G37*
%TD.AperFunction*%
%TD*%
D13*
%TO.P,U1,1*%
%TO.N,N/C*%
X168600000Y-103200000D03*
D14*
%TO.P,U1,3*%
X168600000Y-105740000D03*
%TO.P,U1,5*%
X168600000Y-108280000D03*
%TO.P,U1,43*%
X168600000Y-100660000D03*
%TO.P,U1,41*%
X168600000Y-98120000D03*
%TO.P,U1,2*%
X171140000Y-105740000D03*
%TO.P,U1,4*%
X171140000Y-108280000D03*
%TO.P,U1,6*%
X171140000Y-110820000D03*
%TO.P,U1,44*%
%TO.N,GND*%
X171140000Y-103200000D03*
%TO.P,U1,42*%
%TO.N,N/C*%
X171140000Y-100660000D03*
%TO.P,U1,8*%
X168600000Y-110820000D03*
%TO.P,U1,10*%
X166060000Y-110820000D03*
%TO.P,U1,12*%
X163520000Y-110820000D03*
%TO.P,U1,14*%
%TO.N,VCC*%
X160980000Y-110820000D03*
%TO.P,U1,16*%
%TO.N,~TRESET*%
X158440000Y-110820000D03*
%TO.P,U1,7*%
%TO.N,N/C*%
X168600000Y-113360000D03*
%TO.P,U1,9*%
X166060000Y-113360000D03*
%TO.P,U1,11*%
X163520000Y-113360000D03*
%TO.P,U1,13*%
%TO.N,VCC*%
X160980000Y-113360000D03*
%TO.P,U1,15*%
%TO.N,KBD_DATA*%
X158440000Y-113360000D03*
%TO.P,U1,17*%
%TO.N,N/C*%
X155900000Y-113360000D03*
%TO.P,U1,19*%
%TO.N,KBD_CLOCK*%
X155900000Y-110820000D03*
%TO.P,U1,21*%
%TO.N,N/C*%
X155900000Y-108280000D03*
%TO.P,U1,23*%
X155900000Y-105740000D03*
%TO.P,U1,25*%
%TO.N,~RST*%
X155900000Y-103200000D03*
%TO.P,U1,27*%
%TO.N,N/C*%
X155900000Y-100660000D03*
%TO.P,U1,29*%
X155900000Y-95580000D03*
%TO.P,U1,18*%
X153360000Y-110820000D03*
%TO.P,U1,20*%
X153360000Y-108280000D03*
%TO.P,U1,22*%
X153360000Y-105740000D03*
%TO.P,U1,24*%
%TO.N,VCC*%
X153360000Y-103200000D03*
%TO.P,U1,26*%
%TO.N,N/C*%
X153360000Y-100660000D03*
%TO.P,U1,28*%
X153360000Y-98120000D03*
%TO.P,U1,30*%
X155900000Y-98120000D03*
%TO.P,U1,32*%
X158440000Y-98120000D03*
%TO.P,U1,34*%
X160980000Y-98120000D03*
%TO.P,U1,36*%
X163520000Y-98120000D03*
%TO.P,U1,38*%
X166060000Y-98120000D03*
%TO.P,U1,40*%
X171140000Y-98120000D03*
%TO.P,U1,31*%
X158440000Y-95580000D03*
%TO.P,U1,33*%
%TO.N,VCC*%
X160980000Y-95580000D03*
%TO.P,U1,35*%
%TO.N,N/C*%
X163520000Y-95580000D03*
%TO.P,U1,37*%
X166060000Y-95580000D03*
%TO.P,U1,39*%
X168600000Y-95580000D03*
%TD*%
%TO.P,C4,1*%
%TO.N,VCC*%
%TA.AperFunction,SMDPad,CuDef*%
G36*
G01*
X151175000Y-118750001D02*
X151175000Y-117449999D01*
G75*
G02*
X151424999Y-117200000I249999J0D01*
G01*
X152250001Y-117200000D01*
G75*
G02*
X152500000Y-117449999I0J-249999D01*
G01*
X152500000Y-118750001D01*
G75*
G02*
X152250001Y-119000000I-249999J0D01*
G01*
X151424999Y-119000000D01*
G75*
G02*
X151175000Y-118750001I0J249999D01*
G01*
G37*
%TD.AperFunction*%
%TO.P,C4,2*%
%TO.N,GND*%
%TA.AperFunction,SMDPad,CuDef*%
G36*
G01*
X154300000Y-118750001D02*
X154300000Y-117449999D01*
G75*
G02*
X154549999Y-117200000I249999J0D01*
G01*
X155375001Y-117200000D01*
G75*
G02*
X155625000Y-117449999I0J-249999D01*
G01*
X155625000Y-118750001D01*
G75*
G02*
X155375001Y-119000000I-249999J0D01*
G01*
X154549999Y-119000000D01*
G75*
G02*
X154300000Y-118750001I0J249999D01*
G01*
G37*
%TD.AperFunction*%
%TD*%
D15*
%TO.N,GND*%
X157100000Y-115000000D03*
%TO.N,KBD_RESET*%
X146500000Y-104500000D03*
%TO.N,~TRESET*%
X149600000Y-106400000D03*
%TD*%
D16*
%TO.N,VCC*%
X154660000Y-101900000D02*
X153360000Y-103200000D01*
X159100000Y-101900000D02*
X154660000Y-101900000D01*
X159800000Y-101200000D02*
X159100000Y-101900000D01*
X159800000Y-96760000D02*
X159800000Y-101200000D01*
X160980000Y-95580000D02*
X159800000Y-96760000D01*
X160200000Y-105400000D02*
X159100000Y-104300000D01*
X162550000Y-105400000D02*
X160200000Y-105400000D01*
X159100000Y-104300000D02*
X159100000Y-101900000D01*
X163830000Y-106680000D02*
X162550000Y-105400000D01*
X163830000Y-106680000D02*
X162400000Y-108110000D01*
X162400000Y-109400000D02*
X160980000Y-110820000D01*
X162400000Y-108110000D02*
X162400000Y-109400000D01*
X160980000Y-110820000D02*
X160980000Y-113360000D01*
X172987500Y-116587500D02*
X172987500Y-118200000D01*
X171600000Y-115200000D02*
X172987500Y-116587500D01*
X162820000Y-115200000D02*
X171600000Y-115200000D01*
X160980000Y-113360000D02*
X162820000Y-115200000D01*
X148892500Y-118100000D02*
X148882500Y-118110000D01*
X151837500Y-118100000D02*
X148892500Y-118100000D01*
X148882500Y-118110000D02*
X148882500Y-119317500D01*
X148882500Y-119317500D02*
X148300000Y-119900000D01*
X148300000Y-119900000D02*
X144800000Y-119900000D01*
X144800000Y-119900000D02*
X144000000Y-119100000D01*
X144000000Y-113642500D02*
X144612500Y-113030000D01*
X144000000Y-119100000D02*
X144000000Y-113642500D01*
X144612500Y-106680000D02*
X144612500Y-113030000D01*
X153360000Y-103200000D02*
X146100000Y-103200000D01*
X144612500Y-104687500D02*
X144612500Y-106680000D01*
X146100000Y-103200000D02*
X144612500Y-104687500D01*
%TO.N,GND*%
X163830000Y-104140000D02*
X166940000Y-104140000D01*
X166940000Y-104140000D02*
X167300000Y-104500000D01*
X169840000Y-104500000D02*
X171140000Y-103200000D01*
X167300000Y-104500000D02*
X169840000Y-104500000D01*
X154962500Y-118100000D02*
X161450000Y-118100000D01*
X145757500Y-118110000D02*
X145757500Y-116542500D01*
X147487500Y-114812500D02*
X147487500Y-113030000D01*
X145757500Y-116542500D02*
X147487500Y-114812500D01*
X147487500Y-113030000D02*
X147487500Y-106680000D01*
X147487500Y-114812500D02*
X153612500Y-114812500D01*
X153612500Y-114812500D02*
X154962500Y-116162500D01*
X156300000Y-115000000D02*
X154962500Y-116337500D01*
X157100000Y-115000000D02*
X156300000Y-115000000D01*
X154962500Y-116337500D02*
X154962500Y-118100000D01*
X154962500Y-116162500D02*
X154962500Y-116337500D01*
%TO.N,Net-(D1-Pad1)*%
X169900000Y-117337500D02*
X169889500Y-117348000D01*
X169912500Y-118100000D02*
X170012500Y-118200000D01*
X164550000Y-118100000D02*
X169912500Y-118100000D01*
%TO.N,KBD_RESET*%
X161290000Y-106680000D02*
X159480000Y-106680000D01*
X157503799Y-104703799D02*
X157303799Y-104703799D01*
X159480000Y-106680000D02*
X157503799Y-104703799D01*
X157303799Y-104703799D02*
X157100000Y-104500000D01*
X157100000Y-104500000D02*
X146500000Y-104500000D01*
%TO.N,~TRESET*%
X158440000Y-110820000D02*
X157120000Y-109500000D01*
X153046422Y-109500000D02*
X152946422Y-109600000D01*
X157120000Y-109500000D02*
X153046422Y-109500000D01*
X152946422Y-109600000D02*
X152700000Y-109600000D01*
X149600000Y-106500000D02*
X149600000Y-106400000D01*
X152700000Y-109600000D02*
X149600000Y-106500000D01*
%TD*%
D17*
%TO.N,GND*%
X174550001Y-119940000D02*
X149334803Y-119940000D01*
X149393507Y-119881295D01*
X149422501Y-119857501D01*
X149446295Y-119828508D01*
X149446299Y-119828504D01*
X149509892Y-119751015D01*
X149517474Y-119741776D01*
X149588046Y-119609747D01*
X149593083Y-119593142D01*
X149634851Y-119580472D01*
X149788387Y-119498405D01*
X149922962Y-119387962D01*
X150033405Y-119253387D01*
X150115472Y-119099851D01*
X150166008Y-118933255D01*
X150173223Y-118860000D01*
X150547762Y-118860000D01*
X150553992Y-118923255D01*
X150604528Y-119089851D01*
X150686595Y-119243387D01*
X150797038Y-119377962D01*
X150931613Y-119488405D01*
X151085149Y-119570472D01*
X151251745Y-119621008D01*
X151424999Y-119638072D01*
X152250001Y-119638072D01*
X152423255Y-119621008D01*
X152589851Y-119570472D01*
X152743387Y-119488405D01*
X152877962Y-119377962D01*
X152988405Y-119243387D01*
X153070472Y-119089851D01*
X153097727Y-119000000D01*
X153661928Y-119000000D01*
X153674188Y-119124482D01*
X153710498Y-119244180D01*
X153769463Y-119354494D01*
X153848815Y-119451185D01*
X153945506Y-119530537D01*
X154055820Y-119589502D01*
X154175518Y-119625812D01*
X154300000Y-119638072D01*
X154676750Y-119635000D01*
X154835500Y-119476250D01*
X154835500Y-118227000D01*
X155089500Y-118227000D01*
X155089500Y-119476250D01*
X155248250Y-119635000D01*
X155625000Y-119638072D01*
X155749482Y-119625812D01*
X155869180Y-119589502D01*
X155979494Y-119530537D01*
X156076185Y-119451185D01*
X156155537Y-119354494D01*
X156214502Y-119244180D01*
X156250812Y-119124482D01*
X156263072Y-119000000D01*
X156262947Y-118975000D01*
X160161928Y-118975000D01*
X160174188Y-119099482D01*
X160210498Y-119219180D01*
X160269463Y-119329494D01*
X160348815Y-119426185D01*
X160445506Y-119505537D01*
X160555820Y-119564502D01*
X160675518Y-119600812D01*
X160800000Y-119613072D01*
X161164250Y-119610000D01*
X161323000Y-119451250D01*
X161323000Y-118227000D01*
X161577000Y-118227000D01*
X161577000Y-119451250D01*
X161735750Y-119610000D01*
X162100000Y-119613072D01*
X162224482Y-119600812D01*
X162344180Y-119564502D01*
X162454494Y-119505537D01*
X162551185Y-119426185D01*
X162630537Y-119329494D01*
X162689502Y-119219180D01*
X162725812Y-119099482D01*
X162738072Y-118975000D01*
X162735000Y-118385750D01*
X162576250Y-118227000D01*
X161577000Y-118227000D01*
X161323000Y-118227000D01*
X160323750Y-118227000D01*
X160165000Y-118385750D01*
X160161928Y-118975000D01*
X156262947Y-118975000D01*
X156260000Y-118385750D01*
X156101250Y-118227000D01*
X155089500Y-118227000D01*
X154835500Y-118227000D01*
X153823750Y-118227000D01*
X153665000Y-118385750D01*
X153661928Y-119000000D01*
X153097727Y-119000000D01*
X153121008Y-118923255D01*
X153138072Y-118750001D01*
X153138072Y-117449999D01*
X153121008Y-117276745D01*
X153097728Y-117200000D01*
X153661928Y-117200000D01*
X153665000Y-117814250D01*
X153823750Y-117973000D01*
X154835500Y-117973000D01*
X154835500Y-116723750D01*
X155089500Y-116723750D01*
X155089500Y-117973000D01*
X156101250Y-117973000D01*
X156260000Y-117814250D01*
X156262946Y-117225000D01*
X160161928Y-117225000D01*
X160165000Y-117814250D01*
X160323750Y-117973000D01*
X161323000Y-117973000D01*
X161323000Y-116748750D01*
X161577000Y-116748750D01*
X161577000Y-117973000D01*
X162576250Y-117973000D01*
X162735000Y-117814250D01*
X162736768Y-117475000D01*
X163261928Y-117475000D01*
X163261928Y-118725000D01*
X163278992Y-118898254D01*
X163329528Y-119064850D01*
X163411595Y-119218386D01*
X163522038Y-119352962D01*
X163656614Y-119463405D01*
X163810150Y-119545472D01*
X163976746Y-119596008D01*
X164150000Y-119613072D01*
X164950000Y-119613072D01*
X165123254Y-119596008D01*
X165289850Y-119545472D01*
X165443386Y-119463405D01*
X165577962Y-119352962D01*
X165688405Y-119218386D01*
X165770472Y-119064850D01*
X165821008Y-118898254D01*
X165824776Y-118860000D01*
X168665375Y-118860000D01*
X168678992Y-118998254D01*
X168729528Y-119164850D01*
X168811595Y-119318386D01*
X168922038Y-119452962D01*
X169056614Y-119563405D01*
X169210150Y-119645472D01*
X169376746Y-119696008D01*
X169550000Y-119713072D01*
X170475000Y-119713072D01*
X170648254Y-119696008D01*
X170814850Y-119645472D01*
X170968386Y-119563405D01*
X171102962Y-119452962D01*
X171213405Y-119318386D01*
X171295472Y-119164850D01*
X171346008Y-118998254D01*
X171363072Y-118825000D01*
X171363072Y-117575000D01*
X171346008Y-117401746D01*
X171295472Y-117235150D01*
X171213405Y-117081614D01*
X171102962Y-116947038D01*
X170968386Y-116836595D01*
X170814850Y-116754528D01*
X170648254Y-116703992D01*
X170475000Y-116686928D01*
X170295092Y-116686928D01*
X170192246Y-116631954D01*
X170048985Y-116588498D01*
X169899999Y-116573824D01*
X169751014Y-116588498D01*
X169607754Y-116631954D01*
X169494721Y-116692372D01*
X169376746Y-116703992D01*
X169210150Y-116754528D01*
X169056614Y-116836595D01*
X168922038Y-116947038D01*
X168811595Y-117081614D01*
X168729528Y-117235150D01*
X168697722Y-117340000D01*
X165824776Y-117340000D01*
X165821008Y-117301746D01*
X165770472Y-117135150D01*
X165688405Y-116981614D01*
X165577962Y-116847038D01*
X165443386Y-116736595D01*
X165289850Y-116654528D01*
X165123254Y-116603992D01*
X164950000Y-116586928D01*
X164150000Y-116586928D01*
X163976746Y-116603992D01*
X163810150Y-116654528D01*
X163656614Y-116736595D01*
X163522038Y-116847038D01*
X163411595Y-116981614D01*
X163329528Y-117135150D01*
X163278992Y-117301746D01*
X163261928Y-117475000D01*
X162736768Y-117475000D01*
X162738072Y-117225000D01*
X162725812Y-117100518D01*
X162689502Y-116980820D01*
X162630537Y-116870506D01*
X162551185Y-116773815D01*
X162454494Y-116694463D01*
X162344180Y-116635498D01*
X162224482Y-116599188D01*
X162100000Y-116586928D01*
X161735750Y-116590000D01*
X161577000Y-116748750D01*
X161323000Y-116748750D01*
X161164250Y-116590000D01*
X160800000Y-116586928D01*
X160675518Y-116599188D01*
X160555820Y-116635498D01*
X160445506Y-116694463D01*
X160348815Y-116773815D01*
X160269463Y-116870506D01*
X160210498Y-116980820D01*
X160174188Y-117100518D01*
X160161928Y-117225000D01*
X156262946Y-117225000D01*
X156263072Y-117200000D01*
X156250812Y-117075518D01*
X156214502Y-116955820D01*
X156155537Y-116845506D01*
X156076185Y-116748815D01*
X155979494Y-116669463D01*
X155869180Y-116610498D01*
X155749482Y-116574188D01*
X155625000Y-116561928D01*
X155248250Y-116565000D01*
X155089500Y-116723750D01*
X154835500Y-116723750D01*
X154676750Y-116565000D01*
X154300000Y-116561928D01*
X154175518Y-116574188D01*
X154055820Y-116610498D01*
X153945506Y-116669463D01*
X153848815Y-116748815D01*
X153769463Y-116845506D01*
X153710498Y-116955820D01*
X153674188Y-117075518D01*
X153661928Y-117200000D01*
X153097728Y-117200000D01*
X153070472Y-117110149D01*
X152988405Y-116956613D01*
X152877962Y-116822038D01*
X152743387Y-116711595D01*
X152589851Y-116629528D01*
X152423255Y-116578992D01*
X152250001Y-116561928D01*
X151424999Y-116561928D01*
X151251745Y-116578992D01*
X151085149Y-116629528D01*
X150931613Y-116711595D01*
X150797038Y-116822038D01*
X150686595Y-116956613D01*
X150604528Y-117110149D01*
X150553992Y-117276745D01*
X150547762Y-117340000D01*
X150171253Y-117340000D01*
X150166008Y-117286745D01*
X150115472Y-117120149D01*
X150033405Y-116966613D01*
X149922962Y-116832038D01*
X149788387Y-116721595D01*
X149634851Y-116639528D01*
X149468255Y-116588992D01*
X149295001Y-116571928D01*
X148469999Y-116571928D01*
X148296745Y-116588992D01*
X148130149Y-116639528D01*
X147976613Y-116721595D01*
X147842038Y-116832038D01*
X147731595Y-116966613D01*
X147649528Y-117120149D01*
X147598992Y-117286745D01*
X147581928Y-117459999D01*
X147581928Y-118760001D01*
X147598992Y-118933255D01*
X147649528Y-119099851D01*
X147670988Y-119140000D01*
X147044138Y-119140000D01*
X147045812Y-119134482D01*
X147058072Y-119010000D01*
X147055000Y-118395750D01*
X146896250Y-118237000D01*
X145884500Y-118237000D01*
X145884500Y-118257000D01*
X145630500Y-118257000D01*
X145630500Y-118237000D01*
X145610500Y-118237000D01*
X145610500Y-117983000D01*
X145630500Y-117983000D01*
X145630500Y-116733750D01*
X145884500Y-116733750D01*
X145884500Y-117983000D01*
X146896250Y-117983000D01*
X147055000Y-117824250D01*
X147058072Y-117210000D01*
X147045812Y-117085518D01*
X147009502Y-116965820D01*
X146950537Y-116855506D01*
X146871185Y-116758815D01*
X146774494Y-116679463D01*
X146664180Y-116620498D01*
X146544482Y-116584188D01*
X146420000Y-116571928D01*
X146043250Y-116575000D01*
X145884500Y-116733750D01*
X145630500Y-116733750D01*
X145471750Y-116575000D01*
X145095000Y-116571928D01*
X144970518Y-116584188D01*
X144850820Y-116620498D01*
X144760000Y-116669043D01*
X144760000Y-114343072D01*
X145150001Y-114343072D01*
X145323255Y-114326008D01*
X145489851Y-114275472D01*
X145643387Y-114193405D01*
X145777962Y-114082962D01*
X145888405Y-113948387D01*
X145970472Y-113794851D01*
X145997727Y-113705000D01*
X146061928Y-113705000D01*
X146074188Y-113829482D01*
X146110498Y-113949180D01*
X146169463Y-114059494D01*
X146248815Y-114156185D01*
X146345506Y-114235537D01*
X146455820Y-114294502D01*
X146575518Y-114330812D01*
X146700000Y-114343072D01*
X147201750Y-114340000D01*
X147360500Y-114181250D01*
X147360500Y-113157000D01*
X147614500Y-113157000D01*
X147614500Y-114181250D01*
X147773250Y-114340000D01*
X148275000Y-114343072D01*
X148399482Y-114330812D01*
X148519180Y-114294502D01*
X148629494Y-114235537D01*
X148726185Y-114156185D01*
X148805537Y-114059494D01*
X148864502Y-113949180D01*
X148900812Y-113829482D01*
X148913072Y-113705000D01*
X148910000Y-113315750D01*
X148751250Y-113157000D01*
X147614500Y-113157000D01*
X147360500Y-113157000D01*
X146223750Y-113157000D01*
X146065000Y-113315750D01*
X146061928Y-113705000D01*
X145997727Y-113705000D01*
X146021008Y-113628255D01*
X146038072Y-113455001D01*
X146038072Y-112604999D01*
X146021008Y-112431745D01*
X145997728Y-112355000D01*
X146061928Y-112355000D01*
X146065000Y-112744250D01*
X146223750Y-112903000D01*
X147360500Y-112903000D01*
X147360500Y-111878750D01*
X147614500Y-111878750D01*
X147614500Y-112903000D01*
X148751250Y-112903000D01*
X148910000Y-112744250D01*
X148913072Y-112355000D01*
X148900812Y-112230518D01*
X148864502Y-112110820D01*
X148805537Y-112000506D01*
X148726185Y-111903815D01*
X148629494Y-111824463D01*
X148519180Y-111765498D01*
X148399482Y-111729188D01*
X148275000Y-111716928D01*
X147773250Y-111720000D01*
X147614500Y-111878750D01*
X147360500Y-111878750D01*
X147201750Y-111720000D01*
X146700000Y-111716928D01*
X146575518Y-111729188D01*
X146455820Y-111765498D01*
X146345506Y-111824463D01*
X146248815Y-111903815D01*
X146169463Y-112000506D01*
X146110498Y-112110820D01*
X146074188Y-112230518D01*
X146061928Y-112355000D01*
X145997728Y-112355000D01*
X145970472Y-112265149D01*
X145888405Y-112111613D01*
X145777962Y-111977038D01*
X145643387Y-111866595D01*
X145489851Y-111784528D01*
X145372500Y-111748930D01*
X145372500Y-107961070D01*
X145489851Y-107925472D01*
X145643387Y-107843405D01*
X145777962Y-107732962D01*
X145888405Y-107598387D01*
X145970472Y-107444851D01*
X145997727Y-107355000D01*
X146061928Y-107355000D01*
X146074188Y-107479482D01*
X146110498Y-107599180D01*
X146169463Y-107709494D01*
X146248815Y-107806185D01*
X146345506Y-107885537D01*
X146455820Y-107944502D01*
X146575518Y-107980812D01*
X146700000Y-107993072D01*
X147201750Y-107990000D01*
X147360500Y-107831250D01*
X147360500Y-106807000D01*
X146223750Y-106807000D01*
X146065000Y-106965750D01*
X146061928Y-107355000D01*
X145997727Y-107355000D01*
X146021008Y-107278255D01*
X146038072Y-107105001D01*
X146038072Y-106254999D01*
X146021008Y-106081745D01*
X145970472Y-105915149D01*
X145888405Y-105761613D01*
X145777962Y-105627038D01*
X145643387Y-105516595D01*
X145489851Y-105434528D01*
X145372500Y-105398930D01*
X145372500Y-105002301D01*
X145601266Y-104773535D01*
X145671414Y-104942889D01*
X145773738Y-105096028D01*
X145903972Y-105226262D01*
X146057111Y-105328586D01*
X146227271Y-105399068D01*
X146407911Y-105435000D01*
X146419335Y-105435000D01*
X146345506Y-105474463D01*
X146248815Y-105553815D01*
X146169463Y-105650506D01*
X146110498Y-105760820D01*
X146074188Y-105880518D01*
X146061928Y-106005000D01*
X146065000Y-106394250D01*
X146223750Y-106553000D01*
X147360500Y-106553000D01*
X147360500Y-105528750D01*
X147201750Y-105370000D01*
X146848133Y-105367835D01*
X146942889Y-105328586D01*
X147045535Y-105260000D01*
X152101706Y-105260000D01*
X152065533Y-105347328D01*
X152013800Y-105607411D01*
X152013800Y-105872589D01*
X152065533Y-106132672D01*
X152167013Y-106377665D01*
X152314338Y-106598153D01*
X152501847Y-106785662D01*
X152722335Y-106932987D01*
X152908260Y-107010000D01*
X152722335Y-107087013D01*
X152501847Y-107234338D01*
X152314338Y-107421847D01*
X152167013Y-107642335D01*
X152065533Y-107887328D01*
X152064968Y-107890167D01*
X150535000Y-106360199D01*
X150535000Y-106307911D01*
X150499068Y-106127271D01*
X150428586Y-105957111D01*
X150326262Y-105803972D01*
X150196028Y-105673738D01*
X150042889Y-105571414D01*
X149872729Y-105500932D01*
X149692089Y-105465000D01*
X149507911Y-105465000D01*
X149327271Y-105500932D01*
X149157111Y-105571414D01*
X149003972Y-105673738D01*
X148876695Y-105801015D01*
X148864502Y-105760820D01*
X148805537Y-105650506D01*
X148726185Y-105553815D01*
X148629494Y-105474463D01*
X148519180Y-105415498D01*
X148399482Y-105379188D01*
X148275000Y-105366928D01*
X147773250Y-105370000D01*
X147614500Y-105528750D01*
X147614500Y-106553000D01*
X147634500Y-106553000D01*
X147634500Y-106807000D01*
X147614500Y-106807000D01*
X147614500Y-107831250D01*
X147773250Y-107990000D01*
X148275000Y-107993072D01*
X148399482Y-107980812D01*
X148519180Y-107944502D01*
X148629494Y-107885537D01*
X148726185Y-107806185D01*
X148805537Y-107709494D01*
X148864502Y-107599180D01*
X148900812Y-107479482D01*
X148913072Y-107355000D01*
X148910529Y-107032819D01*
X149003972Y-107126262D01*
X149157111Y-107228586D01*
X149322143Y-107296944D01*
X152136201Y-110111003D01*
X152159999Y-110140001D01*
X152182798Y-110158711D01*
X152167013Y-110182335D01*
X152065533Y-110427328D01*
X152013800Y-110687411D01*
X152013800Y-110952589D01*
X152065533Y-111212672D01*
X152167013Y-111457665D01*
X152314338Y-111678153D01*
X152501847Y-111865662D01*
X152722335Y-112012987D01*
X152967328Y-112114467D01*
X153227411Y-112166200D01*
X153492589Y-112166200D01*
X153752672Y-112114467D01*
X153997665Y-112012987D01*
X154218153Y-111865662D01*
X154405662Y-111678153D01*
X154552987Y-111457665D01*
X154630000Y-111271740D01*
X154707013Y-111457665D01*
X154854338Y-111678153D01*
X155041847Y-111865662D01*
X155262335Y-112012987D01*
X155448260Y-112090000D01*
X155262335Y-112167013D01*
X155041847Y-112314338D01*
X154854338Y-112501847D01*
X154707013Y-112722335D01*
X154605533Y-112967328D01*
X154553800Y-113227411D01*
X154553800Y-113492589D01*
X154605533Y-113752672D01*
X154707013Y-113997665D01*
X154854338Y-114218153D01*
X155041847Y-114405662D01*
X155262335Y-114552987D01*
X155507328Y-114654467D01*
X155767411Y-114706200D01*
X156032589Y-114706200D01*
X156292672Y-114654467D01*
X156537665Y-114552987D01*
X156758153Y-114405662D01*
X156945662Y-114218153D01*
X157092987Y-113997665D01*
X157170000Y-113811740D01*
X157247013Y-113997665D01*
X157394338Y-114218153D01*
X157581847Y-114405662D01*
X157802335Y-114552987D01*
X158047328Y-114654467D01*
X158307411Y-114706200D01*
X158572589Y-114706200D01*
X158832672Y-114654467D01*
X159077665Y-114552987D01*
X159298153Y-114405662D01*
X159485662Y-114218153D01*
X159632987Y-113997665D01*
X159710000Y-113811740D01*
X159787013Y-113997665D01*
X159934338Y-114218153D01*
X160121847Y-114405662D01*
X160342335Y-114552987D01*
X160587328Y-114654467D01*
X160847411Y-114706200D01*
X161112589Y-114706200D01*
X161228369Y-114683170D01*
X162256200Y-115711002D01*
X162279999Y-115740001D01*
X162308997Y-115763799D01*
X162395723Y-115834974D01*
X162483616Y-115881954D01*
X162527753Y-115905546D01*
X162671014Y-115949003D01*
X162782667Y-115960000D01*
X162782677Y-115960000D01*
X162820000Y-115963676D01*
X162857323Y-115960000D01*
X171285199Y-115960000D01*
X172116448Y-116791250D01*
X172031614Y-116836595D01*
X171897038Y-116947038D01*
X171786595Y-117081614D01*
X171704528Y-117235150D01*
X171653992Y-117401746D01*
X171636928Y-117575000D01*
X171636928Y-118825000D01*
X171653992Y-118998254D01*
X171704528Y-119164850D01*
X171786595Y-119318386D01*
X171897038Y-119452962D01*
X172031614Y-119563405D01*
X172185150Y-119645472D01*
X172351746Y-119696008D01*
X172525000Y-119713072D01*
X173450000Y-119713072D01*
X173623254Y-119696008D01*
X173789850Y-119645472D01*
X173943386Y-119563405D01*
X174077962Y-119452962D01*
X174188405Y-119318386D01*
X174270472Y-119164850D01*
X174321008Y-118998254D01*
X174338072Y-118825000D01*
X174338072Y-117575000D01*
X174321008Y-117401746D01*
X174270472Y-117235150D01*
X174188405Y-117081614D01*
X174077962Y-116947038D01*
X173943386Y-116836595D01*
X173789850Y-116754528D01*
X173747500Y-116741681D01*
X173747500Y-116624822D01*
X173751176Y-116587499D01*
X173747500Y-116550176D01*
X173747500Y-116550167D01*
X173736503Y-116438514D01*
X173693046Y-116295253D01*
X173622474Y-116163224D01*
X173527501Y-116047499D01*
X173498504Y-116023702D01*
X172163804Y-114689003D01*
X172140001Y-114659999D01*
X172024276Y-114565026D01*
X171892247Y-114494454D01*
X171748986Y-114450997D01*
X171637333Y-114440000D01*
X171637322Y-114440000D01*
X171600000Y-114436324D01*
X171562678Y-114440000D01*
X169406762Y-114440000D01*
X169458153Y-114405662D01*
X169645662Y-114218153D01*
X169792987Y-113997665D01*
X169894467Y-113752672D01*
X169946200Y-113492589D01*
X169946200Y-113227411D01*
X169894467Y-112967328D01*
X169792987Y-112722335D01*
X169645662Y-112501847D01*
X169458153Y-112314338D01*
X169237665Y-112167013D01*
X169051740Y-112090000D01*
X169237665Y-112012987D01*
X169458153Y-111865662D01*
X169645662Y-111678153D01*
X169792987Y-111457665D01*
X169870000Y-111271740D01*
X169947013Y-111457665D01*
X170094338Y-111678153D01*
X170281847Y-111865662D01*
X170502335Y-112012987D01*
X170747328Y-112114467D01*
X171007411Y-112166200D01*
X171272589Y-112166200D01*
X171532672Y-112114467D01*
X171777665Y-112012987D01*
X171998153Y-111865662D01*
X172185662Y-111678153D01*
X172332987Y-111457665D01*
X172434467Y-111212672D01*
X172486200Y-110952589D01*
X172486200Y-110687411D01*
X172434467Y-110427328D01*
X172332987Y-110182335D01*
X172185662Y-109961847D01*
X171998153Y-109774338D01*
X171777665Y-109627013D01*
X171591740Y-109550000D01*
X171777665Y-109472987D01*
X171998153Y-109325662D01*
X172185662Y-109138153D01*
X172332987Y-108917665D01*
X172434467Y-108672672D01*
X172486200Y-108412589D01*
X172486200Y-108147411D01*
X172434467Y-107887328D01*
X172332987Y-107642335D01*
X172185662Y-107421847D01*
X171998153Y-107234338D01*
X171777665Y-107087013D01*
X171591740Y-107010000D01*
X171777665Y-106932987D01*
X171998153Y-106785662D01*
X172185662Y-106598153D01*
X172332987Y-106377665D01*
X172434467Y-106132672D01*
X172486200Y-105872589D01*
X172486200Y-105607411D01*
X172434467Y-105347328D01*
X172332987Y-105102335D01*
X172185662Y-104881847D01*
X171998153Y-104694338D01*
X171777665Y-104547013D01*
X171589400Y-104469031D01*
X171725280Y-104419542D01*
X171828848Y-104364183D01*
X171889668Y-104129273D01*
X171140000Y-103379605D01*
X170390332Y-104129273D01*
X170451152Y-104364183D01*
X170682934Y-104472206D01*
X170502335Y-104547013D01*
X170281847Y-104694338D01*
X170094338Y-104881847D01*
X169947013Y-105102335D01*
X169870000Y-105288260D01*
X169792987Y-105102335D01*
X169645662Y-104881847D01*
X169458153Y-104694338D01*
X169241046Y-104549272D01*
X169311200Y-104549272D01*
X169435682Y-104537012D01*
X169555380Y-104500702D01*
X169665694Y-104441737D01*
X169762385Y-104362385D01*
X169841737Y-104265694D01*
X169900702Y-104155380D01*
X169937012Y-104035682D01*
X169949272Y-103911200D01*
X169949272Y-103839186D01*
X169975817Y-103888848D01*
X170210727Y-103949668D01*
X170960395Y-103200000D01*
X171319605Y-103200000D01*
X172069273Y-103949668D01*
X172304183Y-103888848D01*
X172416202Y-103648491D01*
X172479176Y-103390898D01*
X172490687Y-103125970D01*
X172450291Y-102863887D01*
X172359542Y-102614720D01*
X172304183Y-102511152D01*
X172069273Y-102450332D01*
X171319605Y-103200000D01*
X170960395Y-103200000D01*
X170210727Y-102450332D01*
X169975817Y-102511152D01*
X169949272Y-102568109D01*
X169949272Y-102488800D01*
X169937012Y-102364318D01*
X169900702Y-102244620D01*
X169841737Y-102134306D01*
X169762385Y-102037615D01*
X169665694Y-101958263D01*
X169555380Y-101899298D01*
X169435682Y-101862988D01*
X169311200Y-101850728D01*
X169241046Y-101850728D01*
X169458153Y-101705662D01*
X169645662Y-101518153D01*
X169792987Y-101297665D01*
X169870000Y-101111740D01*
X169947013Y-101297665D01*
X170094338Y-101518153D01*
X170281847Y-101705662D01*
X170502335Y-101852987D01*
X170690600Y-101930969D01*
X170554720Y-101980458D01*
X170451152Y-102035817D01*
X170390332Y-102270727D01*
X171140000Y-103020395D01*
X171889668Y-102270727D01*
X171828848Y-102035817D01*
X171597066Y-101927794D01*
X171777665Y-101852987D01*
X171998153Y-101705662D01*
X172185662Y-101518153D01*
X172332987Y-101297665D01*
X172434467Y-101052672D01*
X172486200Y-100792589D01*
X172486200Y-100527411D01*
X172434467Y-100267328D01*
X172332987Y-100022335D01*
X172185662Y-99801847D01*
X171998153Y-99614338D01*
X171777665Y-99467013D01*
X171591740Y-99390000D01*
X171777665Y-99312987D01*
X171998153Y-99165662D01*
X172185662Y-98978153D01*
X172332987Y-98757665D01*
X172434467Y-98512672D01*
X172486200Y-98252589D01*
X172486200Y-97987411D01*
X172434467Y-97727328D01*
X172332987Y-97482335D01*
X172185662Y-97261847D01*
X171998153Y-97074338D01*
X171777665Y-96927013D01*
X171532672Y-96825533D01*
X171272589Y-96773800D01*
X171007411Y-96773800D01*
X170747328Y-96825533D01*
X170502335Y-96927013D01*
X170281847Y-97074338D01*
X170094338Y-97261847D01*
X169947013Y-97482335D01*
X169870000Y-97668260D01*
X169792987Y-97482335D01*
X169645662Y-97261847D01*
X169458153Y-97074338D01*
X169237665Y-96927013D01*
X169051740Y-96850000D01*
X169237665Y-96772987D01*
X169458153Y-96625662D01*
X169645662Y-96438153D01*
X169792987Y-96217665D01*
X169894467Y-95972672D01*
X169946200Y-95712589D01*
X169946200Y-95447411D01*
X169894467Y-95187328D01*
X169792987Y-94942335D01*
X169645662Y-94721847D01*
X169458153Y-94534338D01*
X169237665Y-94387013D01*
X168992672Y-94285533D01*
X168732589Y-94233800D01*
X168467411Y-94233800D01*
X168207328Y-94285533D01*
X167962335Y-94387013D01*
X167741847Y-94534338D01*
X167554338Y-94721847D01*
X167407013Y-94942335D01*
X167330000Y-95128260D01*
X167252987Y-94942335D01*
X167105662Y-94721847D01*
X166918153Y-94534338D01*
X166697665Y-94387013D01*
X166452672Y-94285533D01*
X166192589Y-94233800D01*
X165927411Y-94233800D01*
X165667328Y-94285533D01*
X165422335Y-94387013D01*
X165201847Y-94534338D01*
X165014338Y-94721847D01*
X164867013Y-94942335D01*
X164790000Y-95128260D01*
X164712987Y-94942335D01*
X164565662Y-94721847D01*
X164378153Y-94534338D01*
X164157665Y-94387013D01*
X163912672Y-94285533D01*
X163652589Y-94233800D01*
X163387411Y-94233800D01*
X163127328Y-94285533D01*
X162882335Y-94387013D01*
X162661847Y-94534338D01*
X162474338Y-94721847D01*
X162327013Y-94942335D01*
X162250000Y-95128260D01*
X162172987Y-94942335D01*
X162025662Y-94721847D01*
X161838153Y-94534338D01*
X161617665Y-94387013D01*
X161372672Y-94285533D01*
X161112589Y-94233800D01*
X160847411Y-94233800D01*
X160587328Y-94285533D01*
X160342335Y-94387013D01*
X160121847Y-94534338D01*
X159934338Y-94721847D01*
X159787013Y-94942335D01*
X159710000Y-95128260D01*
X159632987Y-94942335D01*
X159485662Y-94721847D01*
X159298153Y-94534338D01*
X159077665Y-94387013D01*
X158832672Y-94285533D01*
X158572589Y-94233800D01*
X158307411Y-94233800D01*
X158047328Y-94285533D01*
X157802335Y-94387013D01*
X157581847Y-94534338D01*
X157394338Y-94721847D01*
X157247013Y-94942335D01*
X157170000Y-95128260D01*
X157092987Y-94942335D01*
X156945662Y-94721847D01*
X156758153Y-94534338D01*
X156537665Y-94387013D01*
X156292672Y-94285533D01*
X156032589Y-94233800D01*
X155767411Y-94233800D01*
X155507328Y-94285533D01*
X155262335Y-94387013D01*
X155041847Y-94534338D01*
X154854338Y-94721847D01*
X154707013Y-94942335D01*
X154605533Y-95187328D01*
X154553800Y-95447411D01*
X154553800Y-95712589D01*
X154605533Y-95972672D01*
X154707013Y-96217665D01*
X154854338Y-96438153D01*
X155041847Y-96625662D01*
X155262335Y-96772987D01*
X155448260Y-96850000D01*
X155262335Y-96927013D01*
X155041847Y-97074338D01*
X154854338Y-97261847D01*
X154707013Y-97482335D01*
X154630000Y-97668260D01*
X154552987Y-97482335D01*
X154405662Y-97261847D01*
X154218153Y-97074338D01*
X153997665Y-96927013D01*
X153752672Y-96825533D01*
X153492589Y-96773800D01*
X153227411Y-96773800D01*
X152967328Y-96825533D01*
X152722335Y-96927013D01*
X152501847Y-97074338D01*
X152314338Y-97261847D01*
X152167013Y-97482335D01*
X152065533Y-97727328D01*
X152013800Y-97987411D01*
X152013800Y-98252589D01*
X152065533Y-98512672D01*
X152167013Y-98757665D01*
X152314338Y-98978153D01*
X152501847Y-99165662D01*
X152722335Y-99312987D01*
X152908260Y-99390000D01*
X152722335Y-99467013D01*
X152501847Y-99614338D01*
X152314338Y-99801847D01*
X152167013Y-100022335D01*
X152065533Y-100267328D01*
X152013800Y-100527411D01*
X152013800Y-100792589D01*
X152065533Y-101052672D01*
X152167013Y-101297665D01*
X152314338Y-101518153D01*
X152501847Y-101705662D01*
X152722335Y-101852987D01*
X152908260Y-101930000D01*
X152722335Y-102007013D01*
X152501847Y-102154338D01*
X152314338Y-102341847D01*
X152248754Y-102440000D01*
X146137325Y-102440000D01*
X146100000Y-102436324D01*
X146062675Y-102440000D01*
X146062667Y-102440000D01*
X145951014Y-102450997D01*
X145807753Y-102494454D01*
X145675724Y-102565026D01*
X145559999Y-102659999D01*
X145536201Y-102688997D01*
X144101503Y-104123696D01*
X144072499Y-104147499D01*
X144022412Y-104208531D01*
X143977526Y-104263224D01*
X143923562Y-104364183D01*
X143906954Y-104395254D01*
X143863497Y-104538515D01*
X143852500Y-104650168D01*
X143852500Y-104650178D01*
X143848824Y-104687500D01*
X143852500Y-104724823D01*
X143852500Y-105398930D01*
X143735149Y-105434528D01*
X143581613Y-105516595D01*
X143447038Y-105627038D01*
X143336595Y-105761613D01*
X143254528Y-105915149D01*
X143203992Y-106081745D01*
X143186928Y-106254999D01*
X143186928Y-107105001D01*
X143203992Y-107278255D01*
X143254528Y-107444851D01*
X143336595Y-107598387D01*
X143447038Y-107732962D01*
X143581613Y-107843405D01*
X143735149Y-107925472D01*
X143852500Y-107961070D01*
X143852501Y-111748930D01*
X143735149Y-111784528D01*
X143581613Y-111866595D01*
X143447038Y-111977038D01*
X143336595Y-112111613D01*
X143254528Y-112265149D01*
X143203992Y-112431745D01*
X143186928Y-112604999D01*
X143186928Y-113455001D01*
X143203992Y-113628255D01*
X143240001Y-113746961D01*
X143240000Y-119062677D01*
X143236324Y-119100000D01*
X143240000Y-119137322D01*
X143240000Y-119137332D01*
X143250997Y-119248985D01*
X143293468Y-119388997D01*
X143294454Y-119392246D01*
X143365026Y-119524276D01*
X143397139Y-119563405D01*
X143459999Y-119640001D01*
X143489002Y-119663803D01*
X143765199Y-119940000D01*
X142950000Y-119940000D01*
X142950000Y-99480000D01*
X144561928Y-99480000D01*
X144561928Y-101180000D01*
X144574188Y-101304482D01*
X144610498Y-101424180D01*
X144669463Y-101534494D01*
X144748815Y-101631185D01*
X144845506Y-101710537D01*
X144955820Y-101769502D01*
X145075518Y-101805812D01*
X145200000Y-101818072D01*
X146900000Y-101818072D01*
X147024482Y-101805812D01*
X147144180Y-101769502D01*
X147254494Y-101710537D01*
X147351185Y-101631185D01*
X147430537Y-101534494D01*
X147489502Y-101424180D01*
X147525812Y-101304482D01*
X147538072Y-101180000D01*
X147538072Y-99480000D01*
X147525812Y-99355518D01*
X147489502Y-99235820D01*
X147430537Y-99125506D01*
X147351185Y-99028815D01*
X147254494Y-98949463D01*
X147144180Y-98890498D01*
X147071620Y-98868487D01*
X147203475Y-98736632D01*
X147365990Y-98493411D01*
X147477932Y-98223158D01*
X147535000Y-97936260D01*
X147535000Y-97643740D01*
X147477932Y-97356842D01*
X147365990Y-97086589D01*
X147203475Y-96843368D01*
X146996632Y-96636525D01*
X146822240Y-96520000D01*
X146996632Y-96403475D01*
X147203475Y-96196632D01*
X147365990Y-95953411D01*
X147477932Y-95683158D01*
X147535000Y-95396260D01*
X147535000Y-95103740D01*
X147477932Y-94816842D01*
X147365990Y-94546589D01*
X147203475Y-94303368D01*
X146996632Y-94096525D01*
X146753411Y-93934010D01*
X146483158Y-93822068D01*
X146196260Y-93765000D01*
X145903740Y-93765000D01*
X145616842Y-93822068D01*
X145346589Y-93934010D01*
X145103368Y-94096525D01*
X144896525Y-94303368D01*
X144734010Y-94546589D01*
X144622068Y-94816842D01*
X144565000Y-95103740D01*
X144565000Y-95396260D01*
X144622068Y-95683158D01*
X144734010Y-95953411D01*
X144896525Y-96196632D01*
X145103368Y-96403475D01*
X145277760Y-96520000D01*
X145103368Y-96636525D01*
X144896525Y-96843368D01*
X144734010Y-97086589D01*
X144622068Y-97356842D01*
X144565000Y-97643740D01*
X144565000Y-97936260D01*
X144622068Y-98223158D01*
X144734010Y-98493411D01*
X144896525Y-98736632D01*
X145028380Y-98868487D01*
X144955820Y-98890498D01*
X144845506Y-98949463D01*
X144748815Y-99028815D01*
X144669463Y-99125506D01*
X144610498Y-99235820D01*
X144574188Y-99355518D01*
X144561928Y-99480000D01*
X142950000Y-99480000D01*
X142950000Y-92150000D01*
X174550000Y-92150000D01*
X174550001Y-119940000D01*
%TA.AperFunction,Conductor*%
D18*
G36*
X174550001Y-119940000D02*
G01*
X149334803Y-119940000D01*
X149393507Y-119881295D01*
X149422501Y-119857501D01*
X149446295Y-119828508D01*
X149446299Y-119828504D01*
X149509892Y-119751015D01*
X149517474Y-119741776D01*
X149588046Y-119609747D01*
X149593083Y-119593142D01*
X149634851Y-119580472D01*
X149788387Y-119498405D01*
X149922962Y-119387962D01*
X150033405Y-119253387D01*
X150115472Y-119099851D01*
X150166008Y-118933255D01*
X150173223Y-118860000D01*
X150547762Y-118860000D01*
X150553992Y-118923255D01*
X150604528Y-119089851D01*
X150686595Y-119243387D01*
X150797038Y-119377962D01*
X150931613Y-119488405D01*
X151085149Y-119570472D01*
X151251745Y-119621008D01*
X151424999Y-119638072D01*
X152250001Y-119638072D01*
X152423255Y-119621008D01*
X152589851Y-119570472D01*
X152743387Y-119488405D01*
X152877962Y-119377962D01*
X152988405Y-119243387D01*
X153070472Y-119089851D01*
X153097727Y-119000000D01*
X153661928Y-119000000D01*
X153674188Y-119124482D01*
X153710498Y-119244180D01*
X153769463Y-119354494D01*
X153848815Y-119451185D01*
X153945506Y-119530537D01*
X154055820Y-119589502D01*
X154175518Y-119625812D01*
X154300000Y-119638072D01*
X154676750Y-119635000D01*
X154835500Y-119476250D01*
X154835500Y-118227000D01*
X155089500Y-118227000D01*
X155089500Y-119476250D01*
X155248250Y-119635000D01*
X155625000Y-119638072D01*
X155749482Y-119625812D01*
X155869180Y-119589502D01*
X155979494Y-119530537D01*
X156076185Y-119451185D01*
X156155537Y-119354494D01*
X156214502Y-119244180D01*
X156250812Y-119124482D01*
X156263072Y-119000000D01*
X156262947Y-118975000D01*
X160161928Y-118975000D01*
X160174188Y-119099482D01*
X160210498Y-119219180D01*
X160269463Y-119329494D01*
X160348815Y-119426185D01*
X160445506Y-119505537D01*
X160555820Y-119564502D01*
X160675518Y-119600812D01*
X160800000Y-119613072D01*
X161164250Y-119610000D01*
X161323000Y-119451250D01*
X161323000Y-118227000D01*
X161577000Y-118227000D01*
X161577000Y-119451250D01*
X161735750Y-119610000D01*
X162100000Y-119613072D01*
X162224482Y-119600812D01*
X162344180Y-119564502D01*
X162454494Y-119505537D01*
X162551185Y-119426185D01*
X162630537Y-119329494D01*
X162689502Y-119219180D01*
X162725812Y-119099482D01*
X162738072Y-118975000D01*
X162735000Y-118385750D01*
X162576250Y-118227000D01*
X161577000Y-118227000D01*
X161323000Y-118227000D01*
X160323750Y-118227000D01*
X160165000Y-118385750D01*
X160161928Y-118975000D01*
X156262947Y-118975000D01*
X156260000Y-118385750D01*
X156101250Y-118227000D01*
X155089500Y-118227000D01*
X154835500Y-118227000D01*
X153823750Y-118227000D01*
X153665000Y-118385750D01*
X153661928Y-119000000D01*
X153097727Y-119000000D01*
X153121008Y-118923255D01*
X153138072Y-118750001D01*
X153138072Y-117449999D01*
X153121008Y-117276745D01*
X153097728Y-117200000D01*
X153661928Y-117200000D01*
X153665000Y-117814250D01*
X153823750Y-117973000D01*
X154835500Y-117973000D01*
X154835500Y-116723750D01*
X155089500Y-116723750D01*
X155089500Y-117973000D01*
X156101250Y-117973000D01*
X156260000Y-117814250D01*
X156262946Y-117225000D01*
X160161928Y-117225000D01*
X160165000Y-117814250D01*
X160323750Y-117973000D01*
X161323000Y-117973000D01*
X161323000Y-116748750D01*
X161577000Y-116748750D01*
X161577000Y-117973000D01*
X162576250Y-117973000D01*
X162735000Y-117814250D01*
X162736768Y-117475000D01*
X163261928Y-117475000D01*
X163261928Y-118725000D01*
X163278992Y-118898254D01*
X163329528Y-119064850D01*
X163411595Y-119218386D01*
X163522038Y-119352962D01*
X163656614Y-119463405D01*
X163810150Y-119545472D01*
X163976746Y-119596008D01*
X164150000Y-119613072D01*
X164950000Y-119613072D01*
X165123254Y-119596008D01*
X165289850Y-119545472D01*
X165443386Y-119463405D01*
X165577962Y-119352962D01*
X165688405Y-119218386D01*
X165770472Y-119064850D01*
X165821008Y-118898254D01*
X165824776Y-118860000D01*
X168665375Y-118860000D01*
X168678992Y-118998254D01*
X168729528Y-119164850D01*
X168811595Y-119318386D01*
X168922038Y-119452962D01*
X169056614Y-119563405D01*
X169210150Y-119645472D01*
X169376746Y-119696008D01*
X169550000Y-119713072D01*
X170475000Y-119713072D01*
X170648254Y-119696008D01*
X170814850Y-119645472D01*
X170968386Y-119563405D01*
X171102962Y-119452962D01*
X171213405Y-119318386D01*
X171295472Y-119164850D01*
X171346008Y-118998254D01*
X171363072Y-118825000D01*
X171363072Y-117575000D01*
X171346008Y-117401746D01*
X171295472Y-117235150D01*
X171213405Y-117081614D01*
X171102962Y-116947038D01*
X170968386Y-116836595D01*
X170814850Y-116754528D01*
X170648254Y-116703992D01*
X170475000Y-116686928D01*
X170295092Y-116686928D01*
X170192246Y-116631954D01*
X170048985Y-116588498D01*
X169899999Y-116573824D01*
X169751014Y-116588498D01*
X169607754Y-116631954D01*
X169494721Y-116692372D01*
X169376746Y-116703992D01*
X169210150Y-116754528D01*
X169056614Y-116836595D01*
X168922038Y-116947038D01*
X168811595Y-117081614D01*
X168729528Y-117235150D01*
X168697722Y-117340000D01*
X165824776Y-117340000D01*
X165821008Y-117301746D01*
X165770472Y-117135150D01*
X165688405Y-116981614D01*
X165577962Y-116847038D01*
X165443386Y-116736595D01*
X165289850Y-116654528D01*
X165123254Y-116603992D01*
X164950000Y-116586928D01*
X164150000Y-116586928D01*
X163976746Y-116603992D01*
X163810150Y-116654528D01*
X163656614Y-116736595D01*
X163522038Y-116847038D01*
X163411595Y-116981614D01*
X163329528Y-117135150D01*
X163278992Y-117301746D01*
X163261928Y-117475000D01*
X162736768Y-117475000D01*
X162738072Y-117225000D01*
X162725812Y-117100518D01*
X162689502Y-116980820D01*
X162630537Y-116870506D01*
X162551185Y-116773815D01*
X162454494Y-116694463D01*
X162344180Y-116635498D01*
X162224482Y-116599188D01*
X162100000Y-116586928D01*
X161735750Y-116590000D01*
X161577000Y-116748750D01*
X161323000Y-116748750D01*
X161164250Y-116590000D01*
X160800000Y-116586928D01*
X160675518Y-116599188D01*
X160555820Y-116635498D01*
X160445506Y-116694463D01*
X160348815Y-116773815D01*
X160269463Y-116870506D01*
X160210498Y-116980820D01*
X160174188Y-117100518D01*
X160161928Y-117225000D01*
X156262946Y-117225000D01*
X156263072Y-117200000D01*
X156250812Y-117075518D01*
X156214502Y-116955820D01*
X156155537Y-116845506D01*
X156076185Y-116748815D01*
X155979494Y-116669463D01*
X155869180Y-116610498D01*
X155749482Y-116574188D01*
X155625000Y-116561928D01*
X155248250Y-116565000D01*
X155089500Y-116723750D01*
X154835500Y-116723750D01*
X154676750Y-116565000D01*
X154300000Y-116561928D01*
X154175518Y-116574188D01*
X154055820Y-116610498D01*
X153945506Y-116669463D01*
X153848815Y-116748815D01*
X153769463Y-116845506D01*
X153710498Y-116955820D01*
X153674188Y-117075518D01*
X153661928Y-117200000D01*
X153097728Y-117200000D01*
X153070472Y-117110149D01*
X152988405Y-116956613D01*
X152877962Y-116822038D01*
X152743387Y-116711595D01*
X152589851Y-116629528D01*
X152423255Y-116578992D01*
X152250001Y-116561928D01*
X151424999Y-116561928D01*
X151251745Y-116578992D01*
X151085149Y-116629528D01*
X150931613Y-116711595D01*
X150797038Y-116822038D01*
X150686595Y-116956613D01*
X150604528Y-117110149D01*
X150553992Y-117276745D01*
X150547762Y-117340000D01*
X150171253Y-117340000D01*
X150166008Y-117286745D01*
X150115472Y-117120149D01*
X150033405Y-116966613D01*
X149922962Y-116832038D01*
X149788387Y-116721595D01*
X149634851Y-116639528D01*
X149468255Y-116588992D01*
X149295001Y-116571928D01*
X148469999Y-116571928D01*
X148296745Y-116588992D01*
X148130149Y-116639528D01*
X147976613Y-116721595D01*
X147842038Y-116832038D01*
X147731595Y-116966613D01*
X147649528Y-117120149D01*
X147598992Y-117286745D01*
X147581928Y-117459999D01*
X147581928Y-118760001D01*
X147598992Y-118933255D01*
X147649528Y-119099851D01*
X147670988Y-119140000D01*
X147044138Y-119140000D01*
X147045812Y-119134482D01*
X147058072Y-119010000D01*
X147055000Y-118395750D01*
X146896250Y-118237000D01*
X145884500Y-118237000D01*
X145884500Y-118257000D01*
X145630500Y-118257000D01*
X145630500Y-118237000D01*
X145610500Y-118237000D01*
X145610500Y-117983000D01*
X145630500Y-117983000D01*
X145630500Y-116733750D01*
X145884500Y-116733750D01*
X145884500Y-117983000D01*
X146896250Y-117983000D01*
X147055000Y-117824250D01*
X147058072Y-117210000D01*
X147045812Y-117085518D01*
X147009502Y-116965820D01*
X146950537Y-116855506D01*
X146871185Y-116758815D01*
X146774494Y-116679463D01*
X146664180Y-116620498D01*
X146544482Y-116584188D01*
X146420000Y-116571928D01*
X146043250Y-116575000D01*
X145884500Y-116733750D01*
X145630500Y-116733750D01*
X145471750Y-116575000D01*
X145095000Y-116571928D01*
X144970518Y-116584188D01*
X144850820Y-116620498D01*
X144760000Y-116669043D01*
X144760000Y-114343072D01*
X145150001Y-114343072D01*
X145323255Y-114326008D01*
X145489851Y-114275472D01*
X145643387Y-114193405D01*
X145777962Y-114082962D01*
X145888405Y-113948387D01*
X145970472Y-113794851D01*
X145997727Y-113705000D01*
X146061928Y-113705000D01*
X146074188Y-113829482D01*
X146110498Y-113949180D01*
X146169463Y-114059494D01*
X146248815Y-114156185D01*
X146345506Y-114235537D01*
X146455820Y-114294502D01*
X146575518Y-114330812D01*
X146700000Y-114343072D01*
X147201750Y-114340000D01*
X147360500Y-114181250D01*
X147360500Y-113157000D01*
X147614500Y-113157000D01*
X147614500Y-114181250D01*
X147773250Y-114340000D01*
X148275000Y-114343072D01*
X148399482Y-114330812D01*
X148519180Y-114294502D01*
X148629494Y-114235537D01*
X148726185Y-114156185D01*
X148805537Y-114059494D01*
X148864502Y-113949180D01*
X148900812Y-113829482D01*
X148913072Y-113705000D01*
X148910000Y-113315750D01*
X148751250Y-113157000D01*
X147614500Y-113157000D01*
X147360500Y-113157000D01*
X146223750Y-113157000D01*
X146065000Y-113315750D01*
X146061928Y-113705000D01*
X145997727Y-113705000D01*
X146021008Y-113628255D01*
X146038072Y-113455001D01*
X146038072Y-112604999D01*
X146021008Y-112431745D01*
X145997728Y-112355000D01*
X146061928Y-112355000D01*
X146065000Y-112744250D01*
X146223750Y-112903000D01*
X147360500Y-112903000D01*
X147360500Y-111878750D01*
X147614500Y-111878750D01*
X147614500Y-112903000D01*
X148751250Y-112903000D01*
X148910000Y-112744250D01*
X148913072Y-112355000D01*
X148900812Y-112230518D01*
X148864502Y-112110820D01*
X148805537Y-112000506D01*
X148726185Y-111903815D01*
X148629494Y-111824463D01*
X148519180Y-111765498D01*
X148399482Y-111729188D01*
X148275000Y-111716928D01*
X147773250Y-111720000D01*
X147614500Y-111878750D01*
X147360500Y-111878750D01*
X147201750Y-111720000D01*
X146700000Y-111716928D01*
X146575518Y-111729188D01*
X146455820Y-111765498D01*
X146345506Y-111824463D01*
X146248815Y-111903815D01*
X146169463Y-112000506D01*
X146110498Y-112110820D01*
X146074188Y-112230518D01*
X146061928Y-112355000D01*
X145997728Y-112355000D01*
X145970472Y-112265149D01*
X145888405Y-112111613D01*
X145777962Y-111977038D01*
X145643387Y-111866595D01*
X145489851Y-111784528D01*
X145372500Y-111748930D01*
X145372500Y-107961070D01*
X145489851Y-107925472D01*
X145643387Y-107843405D01*
X145777962Y-107732962D01*
X145888405Y-107598387D01*
X145970472Y-107444851D01*
X145997727Y-107355000D01*
X146061928Y-107355000D01*
X146074188Y-107479482D01*
X146110498Y-107599180D01*
X146169463Y-107709494D01*
X146248815Y-107806185D01*
X146345506Y-107885537D01*
X146455820Y-107944502D01*
X146575518Y-107980812D01*
X146700000Y-107993072D01*
X147201750Y-107990000D01*
X147360500Y-107831250D01*
X147360500Y-106807000D01*
X146223750Y-106807000D01*
X146065000Y-106965750D01*
X146061928Y-107355000D01*
X145997727Y-107355000D01*
X146021008Y-107278255D01*
X146038072Y-107105001D01*
X146038072Y-106254999D01*
X146021008Y-106081745D01*
X145970472Y-105915149D01*
X145888405Y-105761613D01*
X145777962Y-105627038D01*
X145643387Y-105516595D01*
X145489851Y-105434528D01*
X145372500Y-105398930D01*
X145372500Y-105002301D01*
X145601266Y-104773535D01*
X145671414Y-104942889D01*
X145773738Y-105096028D01*
X145903972Y-105226262D01*
X146057111Y-105328586D01*
X146227271Y-105399068D01*
X146407911Y-105435000D01*
X146419335Y-105435000D01*
X146345506Y-105474463D01*
X146248815Y-105553815D01*
X146169463Y-105650506D01*
X146110498Y-105760820D01*
X146074188Y-105880518D01*
X146061928Y-106005000D01*
X146065000Y-106394250D01*
X146223750Y-106553000D01*
X147360500Y-106553000D01*
X147360500Y-105528750D01*
X147201750Y-105370000D01*
X146848133Y-105367835D01*
X146942889Y-105328586D01*
X147045535Y-105260000D01*
X152101706Y-105260000D01*
X152065533Y-105347328D01*
X152013800Y-105607411D01*
X152013800Y-105872589D01*
X152065533Y-106132672D01*
X152167013Y-106377665D01*
X152314338Y-106598153D01*
X152501847Y-106785662D01*
X152722335Y-106932987D01*
X152908260Y-107010000D01*
X152722335Y-107087013D01*
X152501847Y-107234338D01*
X152314338Y-107421847D01*
X152167013Y-107642335D01*
X152065533Y-107887328D01*
X152064968Y-107890167D01*
X150535000Y-106360199D01*
X150535000Y-106307911D01*
X150499068Y-106127271D01*
X150428586Y-105957111D01*
X150326262Y-105803972D01*
X150196028Y-105673738D01*
X150042889Y-105571414D01*
X149872729Y-105500932D01*
X149692089Y-105465000D01*
X149507911Y-105465000D01*
X149327271Y-105500932D01*
X149157111Y-105571414D01*
X149003972Y-105673738D01*
X148876695Y-105801015D01*
X148864502Y-105760820D01*
X148805537Y-105650506D01*
X148726185Y-105553815D01*
X148629494Y-105474463D01*
X148519180Y-105415498D01*
X148399482Y-105379188D01*
X148275000Y-105366928D01*
X147773250Y-105370000D01*
X147614500Y-105528750D01*
X147614500Y-106553000D01*
X147634500Y-106553000D01*
X147634500Y-106807000D01*
X147614500Y-106807000D01*
X147614500Y-107831250D01*
X147773250Y-107990000D01*
X148275000Y-107993072D01*
X148399482Y-107980812D01*
X148519180Y-107944502D01*
X148629494Y-107885537D01*
X148726185Y-107806185D01*
X148805537Y-107709494D01*
X148864502Y-107599180D01*
X148900812Y-107479482D01*
X148913072Y-107355000D01*
X148910529Y-107032819D01*
X149003972Y-107126262D01*
X149157111Y-107228586D01*
X149322143Y-107296944D01*
X152136201Y-110111003D01*
X152159999Y-110140001D01*
X152182798Y-110158711D01*
X152167013Y-110182335D01*
X152065533Y-110427328D01*
X152013800Y-110687411D01*
X152013800Y-110952589D01*
X152065533Y-111212672D01*
X152167013Y-111457665D01*
X152314338Y-111678153D01*
X152501847Y-111865662D01*
X152722335Y-112012987D01*
X152967328Y-112114467D01*
X153227411Y-112166200D01*
X153492589Y-112166200D01*
X153752672Y-112114467D01*
X153997665Y-112012987D01*
X154218153Y-111865662D01*
X154405662Y-111678153D01*
X154552987Y-111457665D01*
X154630000Y-111271740D01*
X154707013Y-111457665D01*
X154854338Y-111678153D01*
X155041847Y-111865662D01*
X155262335Y-112012987D01*
X155448260Y-112090000D01*
X155262335Y-112167013D01*
X155041847Y-112314338D01*
X154854338Y-112501847D01*
X154707013Y-112722335D01*
X154605533Y-112967328D01*
X154553800Y-113227411D01*
X154553800Y-113492589D01*
X154605533Y-113752672D01*
X154707013Y-113997665D01*
X154854338Y-114218153D01*
X155041847Y-114405662D01*
X155262335Y-114552987D01*
X155507328Y-114654467D01*
X155767411Y-114706200D01*
X156032589Y-114706200D01*
X156292672Y-114654467D01*
X156537665Y-114552987D01*
X156758153Y-114405662D01*
X156945662Y-114218153D01*
X157092987Y-113997665D01*
X157170000Y-113811740D01*
X157247013Y-113997665D01*
X157394338Y-114218153D01*
X157581847Y-114405662D01*
X157802335Y-114552987D01*
X158047328Y-114654467D01*
X158307411Y-114706200D01*
X158572589Y-114706200D01*
X158832672Y-114654467D01*
X159077665Y-114552987D01*
X159298153Y-114405662D01*
X159485662Y-114218153D01*
X159632987Y-113997665D01*
X159710000Y-113811740D01*
X159787013Y-113997665D01*
X159934338Y-114218153D01*
X160121847Y-114405662D01*
X160342335Y-114552987D01*
X160587328Y-114654467D01*
X160847411Y-114706200D01*
X161112589Y-114706200D01*
X161228369Y-114683170D01*
X162256200Y-115711002D01*
X162279999Y-115740001D01*
X162308997Y-115763799D01*
X162395723Y-115834974D01*
X162483616Y-115881954D01*
X162527753Y-115905546D01*
X162671014Y-115949003D01*
X162782667Y-115960000D01*
X162782677Y-115960000D01*
X162820000Y-115963676D01*
X162857323Y-115960000D01*
X171285199Y-115960000D01*
X172116448Y-116791250D01*
X172031614Y-116836595D01*
X171897038Y-116947038D01*
X171786595Y-117081614D01*
X171704528Y-117235150D01*
X171653992Y-117401746D01*
X171636928Y-117575000D01*
X171636928Y-118825000D01*
X171653992Y-118998254D01*
X171704528Y-119164850D01*
X171786595Y-119318386D01*
X171897038Y-119452962D01*
X172031614Y-119563405D01*
X172185150Y-119645472D01*
X172351746Y-119696008D01*
X172525000Y-119713072D01*
X173450000Y-119713072D01*
X173623254Y-119696008D01*
X173789850Y-119645472D01*
X173943386Y-119563405D01*
X174077962Y-119452962D01*
X174188405Y-119318386D01*
X174270472Y-119164850D01*
X174321008Y-118998254D01*
X174338072Y-118825000D01*
X174338072Y-117575000D01*
X174321008Y-117401746D01*
X174270472Y-117235150D01*
X174188405Y-117081614D01*
X174077962Y-116947038D01*
X173943386Y-116836595D01*
X173789850Y-116754528D01*
X173747500Y-116741681D01*
X173747500Y-116624822D01*
X173751176Y-116587499D01*
X173747500Y-116550176D01*
X173747500Y-116550167D01*
X173736503Y-116438514D01*
X173693046Y-116295253D01*
X173622474Y-116163224D01*
X173527501Y-116047499D01*
X173498504Y-116023702D01*
X172163804Y-114689003D01*
X172140001Y-114659999D01*
X172024276Y-114565026D01*
X171892247Y-114494454D01*
X171748986Y-114450997D01*
X171637333Y-114440000D01*
X171637322Y-114440000D01*
X171600000Y-114436324D01*
X171562678Y-114440000D01*
X169406762Y-114440000D01*
X169458153Y-114405662D01*
X169645662Y-114218153D01*
X169792987Y-113997665D01*
X169894467Y-113752672D01*
X169946200Y-113492589D01*
X169946200Y-113227411D01*
X169894467Y-112967328D01*
X169792987Y-112722335D01*
X169645662Y-112501847D01*
X169458153Y-112314338D01*
X169237665Y-112167013D01*
X169051740Y-112090000D01*
X169237665Y-112012987D01*
X169458153Y-111865662D01*
X169645662Y-111678153D01*
X169792987Y-111457665D01*
X169870000Y-111271740D01*
X169947013Y-111457665D01*
X170094338Y-111678153D01*
X170281847Y-111865662D01*
X170502335Y-112012987D01*
X170747328Y-112114467D01*
X171007411Y-112166200D01*
X171272589Y-112166200D01*
X171532672Y-112114467D01*
X171777665Y-112012987D01*
X171998153Y-111865662D01*
X172185662Y-111678153D01*
X172332987Y-111457665D01*
X172434467Y-111212672D01*
X172486200Y-110952589D01*
X172486200Y-110687411D01*
X172434467Y-110427328D01*
X172332987Y-110182335D01*
X172185662Y-109961847D01*
X171998153Y-109774338D01*
X171777665Y-109627013D01*
X171591740Y-109550000D01*
X171777665Y-109472987D01*
X171998153Y-109325662D01*
X172185662Y-109138153D01*
X172332987Y-108917665D01*
X172434467Y-108672672D01*
X172486200Y-108412589D01*
X172486200Y-108147411D01*
X172434467Y-107887328D01*
X172332987Y-107642335D01*
X172185662Y-107421847D01*
X171998153Y-107234338D01*
X171777665Y-107087013D01*
X171591740Y-107010000D01*
X171777665Y-106932987D01*
X171998153Y-106785662D01*
X172185662Y-106598153D01*
X172332987Y-106377665D01*
X172434467Y-106132672D01*
X172486200Y-105872589D01*
X172486200Y-105607411D01*
X172434467Y-105347328D01*
X172332987Y-105102335D01*
X172185662Y-104881847D01*
X171998153Y-104694338D01*
X171777665Y-104547013D01*
X171589400Y-104469031D01*
X171725280Y-104419542D01*
X171828848Y-104364183D01*
X171889668Y-104129273D01*
X171140000Y-103379605D01*
X170390332Y-104129273D01*
X170451152Y-104364183D01*
X170682934Y-104472206D01*
X170502335Y-104547013D01*
X170281847Y-104694338D01*
X170094338Y-104881847D01*
X169947013Y-105102335D01*
X169870000Y-105288260D01*
X169792987Y-105102335D01*
X169645662Y-104881847D01*
X169458153Y-104694338D01*
X169241046Y-104549272D01*
X169311200Y-104549272D01*
X169435682Y-104537012D01*
X169555380Y-104500702D01*
X169665694Y-104441737D01*
X169762385Y-104362385D01*
X169841737Y-104265694D01*
X169900702Y-104155380D01*
X169937012Y-104035682D01*
X169949272Y-103911200D01*
X169949272Y-103839186D01*
X169975817Y-103888848D01*
X170210727Y-103949668D01*
X170960395Y-103200000D01*
X171319605Y-103200000D01*
X172069273Y-103949668D01*
X172304183Y-103888848D01*
X172416202Y-103648491D01*
X172479176Y-103390898D01*
X172490687Y-103125970D01*
X172450291Y-102863887D01*
X172359542Y-102614720D01*
X172304183Y-102511152D01*
X172069273Y-102450332D01*
X171319605Y-103200000D01*
X170960395Y-103200000D01*
X170210727Y-102450332D01*
X169975817Y-102511152D01*
X169949272Y-102568109D01*
X169949272Y-102488800D01*
X169937012Y-102364318D01*
X169900702Y-102244620D01*
X169841737Y-102134306D01*
X169762385Y-102037615D01*
X169665694Y-101958263D01*
X169555380Y-101899298D01*
X169435682Y-101862988D01*
X169311200Y-101850728D01*
X169241046Y-101850728D01*
X169458153Y-101705662D01*
X169645662Y-101518153D01*
X169792987Y-101297665D01*
X169870000Y-101111740D01*
X169947013Y-101297665D01*
X170094338Y-101518153D01*
X170281847Y-101705662D01*
X170502335Y-101852987D01*
X170690600Y-101930969D01*
X170554720Y-101980458D01*
X170451152Y-102035817D01*
X170390332Y-102270727D01*
X171140000Y-103020395D01*
X171889668Y-102270727D01*
X171828848Y-102035817D01*
X171597066Y-101927794D01*
X171777665Y-101852987D01*
X171998153Y-101705662D01*
X172185662Y-101518153D01*
X172332987Y-101297665D01*
X172434467Y-101052672D01*
X172486200Y-100792589D01*
X172486200Y-100527411D01*
X172434467Y-100267328D01*
X172332987Y-100022335D01*
X172185662Y-99801847D01*
X171998153Y-99614338D01*
X171777665Y-99467013D01*
X171591740Y-99390000D01*
X171777665Y-99312987D01*
X171998153Y-99165662D01*
X172185662Y-98978153D01*
X172332987Y-98757665D01*
X172434467Y-98512672D01*
X172486200Y-98252589D01*
X172486200Y-97987411D01*
X172434467Y-97727328D01*
X172332987Y-97482335D01*
X172185662Y-97261847D01*
X171998153Y-97074338D01*
X171777665Y-96927013D01*
X171532672Y-96825533D01*
X171272589Y-96773800D01*
X171007411Y-96773800D01*
X170747328Y-96825533D01*
X170502335Y-96927013D01*
X170281847Y-97074338D01*
X170094338Y-97261847D01*
X169947013Y-97482335D01*
X169870000Y-97668260D01*
X169792987Y-97482335D01*
X169645662Y-97261847D01*
X169458153Y-97074338D01*
X169237665Y-96927013D01*
X169051740Y-96850000D01*
X169237665Y-96772987D01*
X169458153Y-96625662D01*
X169645662Y-96438153D01*
X169792987Y-96217665D01*
X169894467Y-95972672D01*
X169946200Y-95712589D01*
X169946200Y-95447411D01*
X169894467Y-95187328D01*
X169792987Y-94942335D01*
X169645662Y-94721847D01*
X169458153Y-94534338D01*
X169237665Y-94387013D01*
X168992672Y-94285533D01*
X168732589Y-94233800D01*
X168467411Y-94233800D01*
X168207328Y-94285533D01*
X167962335Y-94387013D01*
X167741847Y-94534338D01*
X167554338Y-94721847D01*
X167407013Y-94942335D01*
X167330000Y-95128260D01*
X167252987Y-94942335D01*
X167105662Y-94721847D01*
X166918153Y-94534338D01*
X166697665Y-94387013D01*
X166452672Y-94285533D01*
X166192589Y-94233800D01*
X165927411Y-94233800D01*
X165667328Y-94285533D01*
X165422335Y-94387013D01*
X165201847Y-94534338D01*
X165014338Y-94721847D01*
X164867013Y-94942335D01*
X164790000Y-95128260D01*
X164712987Y-94942335D01*
X164565662Y-94721847D01*
X164378153Y-94534338D01*
X164157665Y-94387013D01*
X163912672Y-94285533D01*
X163652589Y-94233800D01*
X163387411Y-94233800D01*
X163127328Y-94285533D01*
X162882335Y-94387013D01*
X162661847Y-94534338D01*
X162474338Y-94721847D01*
X162327013Y-94942335D01*
X162250000Y-95128260D01*
X162172987Y-94942335D01*
X162025662Y-94721847D01*
X161838153Y-94534338D01*
X161617665Y-94387013D01*
X161372672Y-94285533D01*
X161112589Y-94233800D01*
X160847411Y-94233800D01*
X160587328Y-94285533D01*
X160342335Y-94387013D01*
X160121847Y-94534338D01*
X159934338Y-94721847D01*
X159787013Y-94942335D01*
X159710000Y-95128260D01*
X159632987Y-94942335D01*
X159485662Y-94721847D01*
X159298153Y-94534338D01*
X159077665Y-94387013D01*
X158832672Y-94285533D01*
X158572589Y-94233800D01*
X158307411Y-94233800D01*
X158047328Y-94285533D01*
X157802335Y-94387013D01*
X157581847Y-94534338D01*
X157394338Y-94721847D01*
X157247013Y-94942335D01*
X157170000Y-95128260D01*
X157092987Y-94942335D01*
X156945662Y-94721847D01*
X156758153Y-94534338D01*
X156537665Y-94387013D01*
X156292672Y-94285533D01*
X156032589Y-94233800D01*
X155767411Y-94233800D01*
X155507328Y-94285533D01*
X155262335Y-94387013D01*
X155041847Y-94534338D01*
X154854338Y-94721847D01*
X154707013Y-94942335D01*
X154605533Y-95187328D01*
X154553800Y-95447411D01*
X154553800Y-95712589D01*
X154605533Y-95972672D01*
X154707013Y-96217665D01*
X154854338Y-96438153D01*
X155041847Y-96625662D01*
X155262335Y-96772987D01*
X155448260Y-96850000D01*
X155262335Y-96927013D01*
X155041847Y-97074338D01*
X154854338Y-97261847D01*
X154707013Y-97482335D01*
X154630000Y-97668260D01*
X154552987Y-97482335D01*
X154405662Y-97261847D01*
X154218153Y-97074338D01*
X153997665Y-96927013D01*
X153752672Y-96825533D01*
X153492589Y-96773800D01*
X153227411Y-96773800D01*
X152967328Y-96825533D01*
X152722335Y-96927013D01*
X152501847Y-97074338D01*
X152314338Y-97261847D01*
X152167013Y-97482335D01*
X152065533Y-97727328D01*
X152013800Y-97987411D01*
X152013800Y-98252589D01*
X152065533Y-98512672D01*
X152167013Y-98757665D01*
X152314338Y-98978153D01*
X152501847Y-99165662D01*
X152722335Y-99312987D01*
X152908260Y-99390000D01*
X152722335Y-99467013D01*
X152501847Y-99614338D01*
X152314338Y-99801847D01*
X152167013Y-100022335D01*
X152065533Y-100267328D01*
X152013800Y-100527411D01*
X152013800Y-100792589D01*
X152065533Y-101052672D01*
X152167013Y-101297665D01*
X152314338Y-101518153D01*
X152501847Y-101705662D01*
X152722335Y-101852987D01*
X152908260Y-101930000D01*
X152722335Y-102007013D01*
X152501847Y-102154338D01*
X152314338Y-102341847D01*
X152248754Y-102440000D01*
X146137325Y-102440000D01*
X146100000Y-102436324D01*
X146062675Y-102440000D01*
X146062667Y-102440000D01*
X145951014Y-102450997D01*
X145807753Y-102494454D01*
X145675724Y-102565026D01*
X145559999Y-102659999D01*
X145536201Y-102688997D01*
X144101503Y-104123696D01*
X144072499Y-104147499D01*
X144022412Y-104208531D01*
X143977526Y-104263224D01*
X143923562Y-104364183D01*
X143906954Y-104395254D01*
X143863497Y-104538515D01*
X143852500Y-104650168D01*
X143852500Y-104650178D01*
X143848824Y-104687500D01*
X143852500Y-104724823D01*
X143852500Y-105398930D01*
X143735149Y-105434528D01*
X143581613Y-105516595D01*
X143447038Y-105627038D01*
X143336595Y-105761613D01*
X143254528Y-105915149D01*
X143203992Y-106081745D01*
X143186928Y-106254999D01*
X143186928Y-107105001D01*
X143203992Y-107278255D01*
X143254528Y-107444851D01*
X143336595Y-107598387D01*
X143447038Y-107732962D01*
X143581613Y-107843405D01*
X143735149Y-107925472D01*
X143852500Y-107961070D01*
X143852501Y-111748930D01*
X143735149Y-111784528D01*
X143581613Y-111866595D01*
X143447038Y-111977038D01*
X143336595Y-112111613D01*
X143254528Y-112265149D01*
X143203992Y-112431745D01*
X143186928Y-112604999D01*
X143186928Y-113455001D01*
X143203992Y-113628255D01*
X143240001Y-113746961D01*
X143240000Y-119062677D01*
X143236324Y-119100000D01*
X143240000Y-119137322D01*
X143240000Y-119137332D01*
X143250997Y-119248985D01*
X143293468Y-119388997D01*
X143294454Y-119392246D01*
X143365026Y-119524276D01*
X143397139Y-119563405D01*
X143459999Y-119640001D01*
X143489002Y-119663803D01*
X143765199Y-119940000D01*
X142950000Y-119940000D01*
X142950000Y-99480000D01*
X144561928Y-99480000D01*
X144561928Y-101180000D01*
X144574188Y-101304482D01*
X144610498Y-101424180D01*
X144669463Y-101534494D01*
X144748815Y-101631185D01*
X144845506Y-101710537D01*
X144955820Y-101769502D01*
X145075518Y-101805812D01*
X145200000Y-101818072D01*
X146900000Y-101818072D01*
X147024482Y-101805812D01*
X147144180Y-101769502D01*
X147254494Y-101710537D01*
X147351185Y-101631185D01*
X147430537Y-101534494D01*
X147489502Y-101424180D01*
X147525812Y-101304482D01*
X147538072Y-101180000D01*
X147538072Y-99480000D01*
X147525812Y-99355518D01*
X147489502Y-99235820D01*
X147430537Y-99125506D01*
X147351185Y-99028815D01*
X147254494Y-98949463D01*
X147144180Y-98890498D01*
X147071620Y-98868487D01*
X147203475Y-98736632D01*
X147365990Y-98493411D01*
X147477932Y-98223158D01*
X147535000Y-97936260D01*
X147535000Y-97643740D01*
X147477932Y-97356842D01*
X147365990Y-97086589D01*
X147203475Y-96843368D01*
X146996632Y-96636525D01*
X146822240Y-96520000D01*
X146996632Y-96403475D01*
X147203475Y-96196632D01*
X147365990Y-95953411D01*
X147477932Y-95683158D01*
X147535000Y-95396260D01*
X147535000Y-95103740D01*
X147477932Y-94816842D01*
X147365990Y-94546589D01*
X147203475Y-94303368D01*
X146996632Y-94096525D01*
X146753411Y-93934010D01*
X146483158Y-93822068D01*
X146196260Y-93765000D01*
X145903740Y-93765000D01*
X145616842Y-93822068D01*
X145346589Y-93934010D01*
X145103368Y-94096525D01*
X144896525Y-94303368D01*
X144734010Y-94546589D01*
X144622068Y-94816842D01*
X144565000Y-95103740D01*
X144565000Y-95396260D01*
X144622068Y-95683158D01*
X144734010Y-95953411D01*
X144896525Y-96196632D01*
X145103368Y-96403475D01*
X145277760Y-96520000D01*
X145103368Y-96636525D01*
X144896525Y-96843368D01*
X144734010Y-97086589D01*
X144622068Y-97356842D01*
X144565000Y-97643740D01*
X144565000Y-97936260D01*
X144622068Y-98223158D01*
X144734010Y-98493411D01*
X144896525Y-98736632D01*
X145028380Y-98868487D01*
X144955820Y-98890498D01*
X144845506Y-98949463D01*
X144748815Y-99028815D01*
X144669463Y-99125506D01*
X144610498Y-99235820D01*
X144574188Y-99355518D01*
X144561928Y-99480000D01*
X142950000Y-99480000D01*
X142950000Y-92150000D01*
X174550000Y-92150000D01*
X174550001Y-119940000D01*
G37*
%TD.AperFunction*%
D17*
X167407013Y-98757665D02*
X167554338Y-98978153D01*
X167741847Y-99165662D01*
X167962335Y-99312987D01*
X168148260Y-99390000D01*
X167962335Y-99467013D01*
X167741847Y-99614338D01*
X167554338Y-99801847D01*
X167407013Y-100022335D01*
X167305533Y-100267328D01*
X167253800Y-100527411D01*
X167253800Y-100792589D01*
X167305533Y-101052672D01*
X167407013Y-101297665D01*
X167554338Y-101518153D01*
X167741847Y-101705662D01*
X167958954Y-101850728D01*
X167888800Y-101850728D01*
X167764318Y-101862988D01*
X167644620Y-101899298D01*
X167534306Y-101958263D01*
X167437615Y-102037615D01*
X167358263Y-102134306D01*
X167299298Y-102244620D01*
X167262988Y-102364318D01*
X167250728Y-102488800D01*
X167250728Y-103911200D01*
X167262988Y-104035682D01*
X167299298Y-104155380D01*
X167358263Y-104265694D01*
X167437615Y-104362385D01*
X167534306Y-104441737D01*
X167644620Y-104500702D01*
X167764318Y-104537012D01*
X167888800Y-104549272D01*
X167958954Y-104549272D01*
X167741847Y-104694338D01*
X167554338Y-104881847D01*
X167407013Y-105102335D01*
X167305533Y-105347328D01*
X167253800Y-105607411D01*
X167253800Y-105872589D01*
X167305533Y-106132672D01*
X167407013Y-106377665D01*
X167554338Y-106598153D01*
X167741847Y-106785662D01*
X167962335Y-106932987D01*
X168148260Y-107010000D01*
X167962335Y-107087013D01*
X167741847Y-107234338D01*
X167554338Y-107421847D01*
X167407013Y-107642335D01*
X167305533Y-107887328D01*
X167253800Y-108147411D01*
X167253800Y-108412589D01*
X167305533Y-108672672D01*
X167407013Y-108917665D01*
X167554338Y-109138153D01*
X167741847Y-109325662D01*
X167962335Y-109472987D01*
X168148260Y-109550000D01*
X167962335Y-109627013D01*
X167741847Y-109774338D01*
X167554338Y-109961847D01*
X167407013Y-110182335D01*
X167330000Y-110368260D01*
X167252987Y-110182335D01*
X167105662Y-109961847D01*
X166918153Y-109774338D01*
X166697665Y-109627013D01*
X166452672Y-109525533D01*
X166192589Y-109473800D01*
X165927411Y-109473800D01*
X165667328Y-109525533D01*
X165422335Y-109627013D01*
X165201847Y-109774338D01*
X165014338Y-109961847D01*
X164867013Y-110182335D01*
X164790000Y-110368260D01*
X164712987Y-110182335D01*
X164565662Y-109961847D01*
X164378153Y-109774338D01*
X164157665Y-109627013D01*
X163912672Y-109525533D01*
X163652589Y-109473800D01*
X163387411Y-109473800D01*
X163151792Y-109520667D01*
X163160000Y-109437333D01*
X163160000Y-109437324D01*
X163163676Y-109400001D01*
X163160000Y-109362678D01*
X163160000Y-108424801D01*
X163463592Y-108121210D01*
X163683740Y-108165000D01*
X163976260Y-108165000D01*
X164263158Y-108107932D01*
X164533411Y-107995990D01*
X164776632Y-107833475D01*
X164983475Y-107626632D01*
X165145990Y-107383411D01*
X165257932Y-107113158D01*
X165315000Y-106826260D01*
X165315000Y-106533740D01*
X165257932Y-106246842D01*
X165145990Y-105976589D01*
X164983475Y-105733368D01*
X164776632Y-105526525D01*
X164603271Y-105410689D01*
X164678792Y-105168397D01*
X163830000Y-104319605D01*
X163815858Y-104333748D01*
X163636253Y-104154143D01*
X163650395Y-104140000D01*
X164009605Y-104140000D01*
X164858397Y-104988792D01*
X165107472Y-104911157D01*
X165233371Y-104647117D01*
X165305339Y-104363589D01*
X165320611Y-104071469D01*
X165278599Y-103781981D01*
X165180919Y-103506253D01*
X165107472Y-103368843D01*
X164858397Y-103291208D01*
X164009605Y-104140000D01*
X163650395Y-104140000D01*
X162801603Y-103291208D01*
X162560000Y-103366514D01*
X162318397Y-103291208D01*
X161469605Y-104140000D01*
X161483748Y-104154143D01*
X161304143Y-104333748D01*
X161290000Y-104319605D01*
X161275858Y-104333748D01*
X161096253Y-104154143D01*
X161110395Y-104140000D01*
X160261603Y-103291208D01*
X160012528Y-103368843D01*
X159886629Y-103632883D01*
X159860000Y-103737792D01*
X159860000Y-102508440D01*
X159869528Y-102539850D01*
X159951595Y-102693386D01*
X160062038Y-102827962D01*
X160196614Y-102938405D01*
X160350150Y-103020472D01*
X160459293Y-103053580D01*
X160441208Y-103111603D01*
X161290000Y-103960395D01*
X162138792Y-103111603D01*
X162120707Y-103053580D01*
X162229850Y-103020472D01*
X162383386Y-102938405D01*
X162517962Y-102827962D01*
X162628405Y-102693386D01*
X162696285Y-102566392D01*
X162883368Y-102753475D01*
X163056729Y-102869311D01*
X162981208Y-103111603D01*
X163830000Y-103960395D01*
X164678792Y-103111603D01*
X164603271Y-102869311D01*
X164776632Y-102753475D01*
X164983475Y-102546632D01*
X165145990Y-102303411D01*
X165257932Y-102033158D01*
X165315000Y-101746260D01*
X165315000Y-101453740D01*
X165257932Y-101166842D01*
X165145990Y-100896589D01*
X164983475Y-100653368D01*
X164776632Y-100446525D01*
X164533411Y-100284010D01*
X164263158Y-100172068D01*
X163976260Y-100115000D01*
X163683740Y-100115000D01*
X163396842Y-100172068D01*
X163126589Y-100284010D01*
X162883368Y-100446525D01*
X162696285Y-100633608D01*
X162628405Y-100506614D01*
X162517962Y-100372038D01*
X162383386Y-100261595D01*
X162229850Y-100179528D01*
X162063254Y-100128992D01*
X161890000Y-100111928D01*
X160690000Y-100111928D01*
X160560000Y-100124732D01*
X160560000Y-99403147D01*
X160587328Y-99414467D01*
X160847411Y-99466200D01*
X161112589Y-99466200D01*
X161372672Y-99414467D01*
X161617665Y-99312987D01*
X161838153Y-99165662D01*
X162025662Y-98978153D01*
X162172987Y-98757665D01*
X162250000Y-98571740D01*
X162327013Y-98757665D01*
X162474338Y-98978153D01*
X162661847Y-99165662D01*
X162882335Y-99312987D01*
X163127328Y-99414467D01*
X163387411Y-99466200D01*
X163652589Y-99466200D01*
X163912672Y-99414467D01*
X164157665Y-99312987D01*
X164378153Y-99165662D01*
X164565662Y-98978153D01*
X164712987Y-98757665D01*
X164790000Y-98571740D01*
X164867013Y-98757665D01*
X165014338Y-98978153D01*
X165201847Y-99165662D01*
X165422335Y-99312987D01*
X165667328Y-99414467D01*
X165927411Y-99466200D01*
X166192589Y-99466200D01*
X166452672Y-99414467D01*
X166697665Y-99312987D01*
X166918153Y-99165662D01*
X167105662Y-98978153D01*
X167252987Y-98757665D01*
X167330000Y-98571740D01*
X167407013Y-98757665D01*
%TA.AperFunction,Conductor*%
D18*
G36*
X167407013Y-98757665D02*
G01*
X167554338Y-98978153D01*
X167741847Y-99165662D01*
X167962335Y-99312987D01*
X168148260Y-99390000D01*
X167962335Y-99467013D01*
X167741847Y-99614338D01*
X167554338Y-99801847D01*
X167407013Y-100022335D01*
X167305533Y-100267328D01*
X167253800Y-100527411D01*
X167253800Y-100792589D01*
X167305533Y-101052672D01*
X167407013Y-101297665D01*
X167554338Y-101518153D01*
X167741847Y-101705662D01*
X167958954Y-101850728D01*
X167888800Y-101850728D01*
X167764318Y-101862988D01*
X167644620Y-101899298D01*
X167534306Y-101958263D01*
X167437615Y-102037615D01*
X167358263Y-102134306D01*
X167299298Y-102244620D01*
X167262988Y-102364318D01*
X167250728Y-102488800D01*
X167250728Y-103911200D01*
X167262988Y-104035682D01*
X167299298Y-104155380D01*
X167358263Y-104265694D01*
X167437615Y-104362385D01*
X167534306Y-104441737D01*
X167644620Y-104500702D01*
X167764318Y-104537012D01*
X167888800Y-104549272D01*
X167958954Y-104549272D01*
X167741847Y-104694338D01*
X167554338Y-104881847D01*
X167407013Y-105102335D01*
X167305533Y-105347328D01*
X167253800Y-105607411D01*
X167253800Y-105872589D01*
X167305533Y-106132672D01*
X167407013Y-106377665D01*
X167554338Y-106598153D01*
X167741847Y-106785662D01*
X167962335Y-106932987D01*
X168148260Y-107010000D01*
X167962335Y-107087013D01*
X167741847Y-107234338D01*
X167554338Y-107421847D01*
X167407013Y-107642335D01*
X167305533Y-107887328D01*
X167253800Y-108147411D01*
X167253800Y-108412589D01*
X167305533Y-108672672D01*
X167407013Y-108917665D01*
X167554338Y-109138153D01*
X167741847Y-109325662D01*
X167962335Y-109472987D01*
X168148260Y-109550000D01*
X167962335Y-109627013D01*
X167741847Y-109774338D01*
X167554338Y-109961847D01*
X167407013Y-110182335D01*
X167330000Y-110368260D01*
X167252987Y-110182335D01*
X167105662Y-109961847D01*
X166918153Y-109774338D01*
X166697665Y-109627013D01*
X166452672Y-109525533D01*
X166192589Y-109473800D01*
X165927411Y-109473800D01*
X165667328Y-109525533D01*
X165422335Y-109627013D01*
X165201847Y-109774338D01*
X165014338Y-109961847D01*
X164867013Y-110182335D01*
X164790000Y-110368260D01*
X164712987Y-110182335D01*
X164565662Y-109961847D01*
X164378153Y-109774338D01*
X164157665Y-109627013D01*
X163912672Y-109525533D01*
X163652589Y-109473800D01*
X163387411Y-109473800D01*
X163151792Y-109520667D01*
X163160000Y-109437333D01*
X163160000Y-109437324D01*
X163163676Y-109400001D01*
X163160000Y-109362678D01*
X163160000Y-108424801D01*
X163463592Y-108121210D01*
X163683740Y-108165000D01*
X163976260Y-108165000D01*
X164263158Y-108107932D01*
X164533411Y-107995990D01*
X164776632Y-107833475D01*
X164983475Y-107626632D01*
X165145990Y-107383411D01*
X165257932Y-107113158D01*
X165315000Y-106826260D01*
X165315000Y-106533740D01*
X165257932Y-106246842D01*
X165145990Y-105976589D01*
X164983475Y-105733368D01*
X164776632Y-105526525D01*
X164603271Y-105410689D01*
X164678792Y-105168397D01*
X163830000Y-104319605D01*
X163815858Y-104333748D01*
X163636253Y-104154143D01*
X163650395Y-104140000D01*
X164009605Y-104140000D01*
X164858397Y-104988792D01*
X165107472Y-104911157D01*
X165233371Y-104647117D01*
X165305339Y-104363589D01*
X165320611Y-104071469D01*
X165278599Y-103781981D01*
X165180919Y-103506253D01*
X165107472Y-103368843D01*
X164858397Y-103291208D01*
X164009605Y-104140000D01*
X163650395Y-104140000D01*
X162801603Y-103291208D01*
X162560000Y-103366514D01*
X162318397Y-103291208D01*
X161469605Y-104140000D01*
X161483748Y-104154143D01*
X161304143Y-104333748D01*
X161290000Y-104319605D01*
X161275858Y-104333748D01*
X161096253Y-104154143D01*
X161110395Y-104140000D01*
X160261603Y-103291208D01*
X160012528Y-103368843D01*
X159886629Y-103632883D01*
X159860000Y-103737792D01*
X159860000Y-102508440D01*
X159869528Y-102539850D01*
X159951595Y-102693386D01*
X160062038Y-102827962D01*
X160196614Y-102938405D01*
X160350150Y-103020472D01*
X160459293Y-103053580D01*
X160441208Y-103111603D01*
X161290000Y-103960395D01*
X162138792Y-103111603D01*
X162120707Y-103053580D01*
X162229850Y-103020472D01*
X162383386Y-102938405D01*
X162517962Y-102827962D01*
X162628405Y-102693386D01*
X162696285Y-102566392D01*
X162883368Y-102753475D01*
X163056729Y-102869311D01*
X162981208Y-103111603D01*
X163830000Y-103960395D01*
X164678792Y-103111603D01*
X164603271Y-102869311D01*
X164776632Y-102753475D01*
X164983475Y-102546632D01*
X165145990Y-102303411D01*
X165257932Y-102033158D01*
X165315000Y-101746260D01*
X165315000Y-101453740D01*
X165257932Y-101166842D01*
X165145990Y-100896589D01*
X164983475Y-100653368D01*
X164776632Y-100446525D01*
X164533411Y-100284010D01*
X164263158Y-100172068D01*
X163976260Y-100115000D01*
X163683740Y-100115000D01*
X163396842Y-100172068D01*
X163126589Y-100284010D01*
X162883368Y-100446525D01*
X162696285Y-100633608D01*
X162628405Y-100506614D01*
X162517962Y-100372038D01*
X162383386Y-100261595D01*
X162229850Y-100179528D01*
X162063254Y-100128992D01*
X161890000Y-100111928D01*
X160690000Y-100111928D01*
X160560000Y-100124732D01*
X160560000Y-99403147D01*
X160587328Y-99414467D01*
X160847411Y-99466200D01*
X161112589Y-99466200D01*
X161372672Y-99414467D01*
X161617665Y-99312987D01*
X161838153Y-99165662D01*
X162025662Y-98978153D01*
X162172987Y-98757665D01*
X162250000Y-98571740D01*
X162327013Y-98757665D01*
X162474338Y-98978153D01*
X162661847Y-99165662D01*
X162882335Y-99312987D01*
X163127328Y-99414467D01*
X163387411Y-99466200D01*
X163652589Y-99466200D01*
X163912672Y-99414467D01*
X164157665Y-99312987D01*
X164378153Y-99165662D01*
X164565662Y-98978153D01*
X164712987Y-98757665D01*
X164790000Y-98571740D01*
X164867013Y-98757665D01*
X165014338Y-98978153D01*
X165201847Y-99165662D01*
X165422335Y-99312987D01*
X165667328Y-99414467D01*
X165927411Y-99466200D01*
X166192589Y-99466200D01*
X166452672Y-99414467D01*
X166697665Y-99312987D01*
X166918153Y-99165662D01*
X167105662Y-98978153D01*
X167252987Y-98757665D01*
X167330000Y-98571740D01*
X167407013Y-98757665D01*
G37*
%TD.AperFunction*%
%TD*%
M02*
