M48
; DRILL file {KiCad 5.1.9+dfsg1-1+deb11u1} date Tue Nov 29 11:58:06 2022
; FORMAT={-:-/ absolute / metric / decimal}
; #@! TF.CreationDate,2022-11-29T11:58:06+01:00
; #@! TF.GenerationSoftware,Kicad,Pcbnew,5.1.9+dfsg1-1+deb11u1
; #@! TF.FileFunction,Plated,1,2,PTH
FMAT,2
METRIC
T1C0.400
T2C0.800
T3C1.000
%
G90
G05
T1
X146.5Y-104.5
X149.6Y-106.4
X157.1Y-115.0
T2
X153.36Y-98.12
X153.36Y-100.66
X153.36Y-103.2
X153.36Y-105.74
X153.36Y-108.28
X153.36Y-110.82
X155.9Y-95.58
X155.9Y-98.12
X155.9Y-100.66
X155.9Y-103.2
X155.9Y-105.74
X155.9Y-108.28
X155.9Y-110.82
X155.9Y-113.36
X158.44Y-95.58
X158.44Y-98.12
X158.44Y-110.82
X158.44Y-113.36
X160.98Y-95.58
X160.98Y-98.12
X160.98Y-110.82
X160.98Y-113.36
X163.52Y-95.58
X163.52Y-98.12
X163.52Y-110.82
X163.52Y-113.36
X166.06Y-95.58
X166.06Y-98.12
X166.06Y-110.82
X166.06Y-113.36
X168.6Y-95.58
X168.6Y-98.12
X168.6Y-100.66
X168.6Y-103.2
X168.6Y-105.74
X168.6Y-108.28
X168.6Y-110.82
X168.6Y-113.36
X171.14Y-98.12
X171.14Y-100.66
X171.14Y-103.2
X171.14Y-105.74
X171.14Y-108.28
X171.14Y-110.82
T3
X146.05Y-95.25
X146.05Y-97.79
X146.05Y-100.33
X161.29Y-101.6
X161.29Y-104.14
X161.29Y-106.68
X163.83Y-101.6
X163.83Y-104.14
X163.83Y-106.68
T0
M30
