%TF.GenerationSoftware,KiCad,Pcbnew,4.0.2+dfsg1-stable*%
%TF.CreationDate,2018-11-15T01:04:14+01:00*%
%TF.ProjectId,A600MPU-Adapter,413630304D50552D416461707465722E,rev?*%
%TF.FileFunction,Soldermask,Top*%
%FSLAX46Y46*%
G04 Gerber Fmt 4.6, Leading zero omitted, Abs format (unit mm)*
G04 Created by KiCad (PCBNEW 4.0.2+dfsg1-stable) date Thu 15 Nov 2018 01:04:14 CET*
%MOMM*%
G01*
G04 APERTURE LIST*
%ADD10C,0.100000*%
%ADD11R,2.599640X2.000200*%
%ADD12R,1.600000X1.150000*%
%ADD13R,1.924000X2.432000*%
%ADD14R,2.432000X2.127200*%
%ADD15O,2.432000X2.127200*%
%ADD16R,1.600000X1.300000*%
%ADD17R,1.797000X1.797000*%
%ADD18C,1.797000*%
%ADD19R,2.127200X2.127200*%
%ADD20O,2.127200X2.127200*%
G04 APERTURE END LIST*
D10*
D11*
X147551140Y-113030000D03*
X144548860Y-113030000D03*
D12*
X148270000Y-118110000D03*
X146370000Y-118110000D03*
D11*
X147551140Y-106680000D03*
X144548860Y-106680000D03*
D12*
X153350000Y-118110000D03*
X151450000Y-118110000D03*
D13*
X166751000Y-117348000D03*
X170053000Y-117348000D03*
D14*
X146050000Y-100330000D03*
D15*
X146050000Y-97790000D03*
X146050000Y-95250000D03*
D16*
X160358000Y-117348000D03*
X158158000Y-117348000D03*
D17*
X161290000Y-97790000D03*
D18*
X163830000Y-95250000D03*
X163830000Y-97790000D03*
X166370000Y-95250000D03*
X166370000Y-97790000D03*
X168910000Y-95250000D03*
X171450000Y-97790000D03*
X168910000Y-97790000D03*
X171450000Y-100330000D03*
X168910000Y-100330000D03*
X171450000Y-102870000D03*
X168910000Y-102870000D03*
X171450000Y-105410000D03*
X168910000Y-105410000D03*
X171450000Y-107950000D03*
X168910000Y-107950000D03*
X171450000Y-110490000D03*
X168910000Y-113030000D03*
X168910000Y-110490000D03*
X166370000Y-113030000D03*
X166370000Y-110490000D03*
X163830000Y-113030000D03*
X163830000Y-110490000D03*
X161290000Y-113030000D03*
X161290000Y-110490000D03*
X158750000Y-113030000D03*
X158750000Y-110490000D03*
X156210000Y-113030000D03*
X153670000Y-110490000D03*
X156210000Y-110490000D03*
X153670000Y-107950000D03*
X156210000Y-107950000D03*
X153670000Y-105410000D03*
X156210000Y-105410000D03*
X153670000Y-102870000D03*
X156210000Y-102870000D03*
X153670000Y-100330000D03*
X156210000Y-100330000D03*
X153670000Y-97790000D03*
X156210000Y-95250000D03*
X156210000Y-97790000D03*
X158750000Y-95250000D03*
X158750000Y-97790000D03*
X161290000Y-95250000D03*
D19*
X161290000Y-101600000D03*
D20*
X163830000Y-101600000D03*
X161290000Y-104140000D03*
X163830000Y-104140000D03*
X161290000Y-106680000D03*
X163830000Y-106680000D03*
M02*
