%TF.GenerationSoftware,KiCad,Pcbnew,5.1.9+dfsg1-1+deb11u1*%
%TF.CreationDate,2026-02-20T14:02:03+01:00*%
%TF.ProjectId,A600MPU-Adapter,41363030-4d50-4552-9d41-646170746572,3.0*%
%TF.SameCoordinates,Original*%
%TF.FileFunction,Soldermask,Top*%
%TF.FilePolarity,Negative*%
%FSLAX46Y46*%
G04 Gerber Fmt 4.6, Leading zero omitted, Abs format (unit mm)*
G04 Created by KiCad (PCBNEW 5.1.9+dfsg1-1+deb11u1) date 2026-02-20 14:02:03*
%MOMM*%
%LPD*%
G01*
G04 APERTURE LIST*
%ADD10O,1.700000X1.700000*%
%ADD11R,1.700000X1.700000*%
%ADD12C,1.700000*%
%ADD13R,1.422400X1.422400*%
%ADD14C,1.422400*%
%ADD15C,0.600000*%
G04 APERTURE END LIST*
D10*
%TO.C,P2*%
X146000000Y-100280000D03*
X146000000Y-97740000D03*
D11*
X146000000Y-95200000D03*
%TD*%
D12*
%TO.C,P1*%
X163840000Y-106680000D03*
X163840000Y-104140000D03*
X163840000Y-101600000D03*
X161300000Y-106680000D03*
X161300000Y-104140000D03*
G36*
G01*
X160450000Y-102200000D02*
X160450000Y-101000000D01*
G75*
G02*
X160700000Y-100750000I250000J0D01*
G01*
X161900000Y-100750000D01*
G75*
G02*
X162150000Y-101000000I0J-250000D01*
G01*
X162150000Y-102200000D01*
G75*
G02*
X161900000Y-102450000I-250000J0D01*
G01*
X160700000Y-102450000D01*
G75*
G02*
X160450000Y-102200000I0J250000D01*
G01*
G37*
%TD*%
%TO.C,D1*%
G36*
G01*
X171975000Y-118725000D02*
X171975000Y-117475000D01*
G75*
G02*
X172225000Y-117225000I250000J0D01*
G01*
X173150000Y-117225000D01*
G75*
G02*
X173400000Y-117475000I0J-250000D01*
G01*
X173400000Y-118725000D01*
G75*
G02*
X173150000Y-118975000I-250000J0D01*
G01*
X172225000Y-118975000D01*
G75*
G02*
X171975000Y-118725000I0J250000D01*
G01*
G37*
G36*
G01*
X169000000Y-118725000D02*
X169000000Y-117475000D01*
G75*
G02*
X169250000Y-117225000I250000J0D01*
G01*
X170175000Y-117225000D01*
G75*
G02*
X170425000Y-117475000I0J-250000D01*
G01*
X170425000Y-118725000D01*
G75*
G02*
X170175000Y-118975000I-250000J0D01*
G01*
X169250000Y-118975000D01*
G75*
G02*
X169000000Y-118725000I0J250000D01*
G01*
G37*
%TD*%
%TO.C,C1*%
G36*
G01*
X143825000Y-113455001D02*
X143825000Y-112604999D01*
G75*
G02*
X144074999Y-112355000I249999J0D01*
G01*
X145150001Y-112355000D01*
G75*
G02*
X145400000Y-112604999I0J-249999D01*
G01*
X145400000Y-113455001D01*
G75*
G02*
X145150001Y-113705000I-249999J0D01*
G01*
X144074999Y-113705000D01*
G75*
G02*
X143825000Y-113455001I0J249999D01*
G01*
G37*
G36*
G01*
X146700000Y-113455001D02*
X146700000Y-112604999D01*
G75*
G02*
X146949999Y-112355000I249999J0D01*
G01*
X148025001Y-112355000D01*
G75*
G02*
X148275000Y-112604999I0J-249999D01*
G01*
X148275000Y-113455001D01*
G75*
G02*
X148025001Y-113705000I-249999J0D01*
G01*
X146949999Y-113705000D01*
G75*
G02*
X146700000Y-113455001I0J249999D01*
G01*
G37*
%TD*%
%TO.C,C2*%
G36*
G01*
X149545000Y-117459997D02*
X149545000Y-118760003D01*
G75*
G02*
X149295003Y-119010000I-249997J0D01*
G01*
X148469997Y-119010000D01*
G75*
G02*
X148220000Y-118760003I0J249997D01*
G01*
X148220000Y-117459997D01*
G75*
G02*
X148469997Y-117210000I249997J0D01*
G01*
X149295003Y-117210000D01*
G75*
G02*
X149545000Y-117459997I0J-249997D01*
G01*
G37*
G36*
G01*
X146420000Y-117459997D02*
X146420000Y-118760003D01*
G75*
G02*
X146170003Y-119010000I-249997J0D01*
G01*
X145344997Y-119010000D01*
G75*
G02*
X145095000Y-118760003I0J249997D01*
G01*
X145095000Y-117459997D01*
G75*
G02*
X145344997Y-117210000I249997J0D01*
G01*
X146170003Y-117210000D01*
G75*
G02*
X146420000Y-117459997I0J-249997D01*
G01*
G37*
%TD*%
%TO.C,C3*%
G36*
G01*
X146700000Y-107105001D02*
X146700000Y-106254999D01*
G75*
G02*
X146949999Y-106005000I249999J0D01*
G01*
X148025001Y-106005000D01*
G75*
G02*
X148275000Y-106254999I0J-249999D01*
G01*
X148275000Y-107105001D01*
G75*
G02*
X148025001Y-107355000I-249999J0D01*
G01*
X146949999Y-107355000D01*
G75*
G02*
X146700000Y-107105001I0J249999D01*
G01*
G37*
G36*
G01*
X143825000Y-107105001D02*
X143825000Y-106254999D01*
G75*
G02*
X144074999Y-106005000I249999J0D01*
G01*
X145150001Y-106005000D01*
G75*
G02*
X145400000Y-106254999I0J-249999D01*
G01*
X145400000Y-107105001D01*
G75*
G02*
X145150001Y-107355000I-249999J0D01*
G01*
X144074999Y-107355000D01*
G75*
G02*
X143825000Y-107105001I0J249999D01*
G01*
G37*
%TD*%
%TO.C,R1*%
G36*
G01*
X165200000Y-117474999D02*
X165200000Y-118725001D01*
G75*
G02*
X164950001Y-118975000I-249999J0D01*
G01*
X164149999Y-118975000D01*
G75*
G02*
X163900000Y-118725001I0J249999D01*
G01*
X163900000Y-117474999D01*
G75*
G02*
X164149999Y-117225000I249999J0D01*
G01*
X164950001Y-117225000D01*
G75*
G02*
X165200000Y-117474999I0J-249999D01*
G01*
G37*
G36*
G01*
X162100000Y-117474999D02*
X162100000Y-118725001D01*
G75*
G02*
X161850001Y-118975000I-249999J0D01*
G01*
X161049999Y-118975000D01*
G75*
G02*
X160800000Y-118725001I0J249999D01*
G01*
X160800000Y-117474999D01*
G75*
G02*
X161049999Y-117225000I249999J0D01*
G01*
X161850001Y-117225000D01*
G75*
G02*
X162100000Y-117474999I0J-249999D01*
G01*
G37*
%TD*%
%TO.C,C4*%
G36*
G01*
X151175000Y-118750003D02*
X151175000Y-117449997D01*
G75*
G02*
X151424997Y-117200000I249997J0D01*
G01*
X152250003Y-117200000D01*
G75*
G02*
X152500000Y-117449997I0J-249997D01*
G01*
X152500000Y-118750003D01*
G75*
G02*
X152250003Y-119000000I-249997J0D01*
G01*
X151424997Y-119000000D01*
G75*
G02*
X151175000Y-118750003I0J249997D01*
G01*
G37*
G36*
G01*
X154300000Y-118750003D02*
X154300000Y-117449997D01*
G75*
G02*
X154549997Y-117200000I249997J0D01*
G01*
X155375003Y-117200000D01*
G75*
G02*
X155625000Y-117449997I0J-249997D01*
G01*
X155625000Y-118750003D01*
G75*
G02*
X155375003Y-119000000I-249997J0D01*
G01*
X154549997Y-119000000D01*
G75*
G02*
X154300000Y-118750003I0J249997D01*
G01*
G37*
%TD*%
D13*
%TO.C,U1*%
X161500000Y-97600000D03*
D14*
X164040000Y-97600000D03*
X166580000Y-97600000D03*
X158960000Y-97600000D03*
X156420000Y-97600000D03*
X164040000Y-95060000D03*
X166580000Y-95060000D03*
X169120000Y-95060000D03*
X161500000Y-95060000D03*
X158960000Y-95060000D03*
X169120000Y-97600000D03*
X169120000Y-100140000D03*
X169120000Y-102680000D03*
X169120000Y-105220000D03*
X169120000Y-107760000D03*
X171660000Y-97600000D03*
X171660000Y-100140000D03*
X171660000Y-102680000D03*
X171660000Y-105220000D03*
X171660000Y-107760000D03*
X171660000Y-110300000D03*
X169120000Y-110300000D03*
X166580000Y-110300000D03*
X164040000Y-110300000D03*
X161500000Y-110300000D03*
X158960000Y-110300000D03*
X153880000Y-110300000D03*
X169120000Y-112840000D03*
X166580000Y-112840000D03*
X164040000Y-112840000D03*
X161500000Y-112840000D03*
X158960000Y-112840000D03*
X156420000Y-112840000D03*
X156420000Y-110300000D03*
X156420000Y-107760000D03*
X156420000Y-105220000D03*
X156420000Y-102680000D03*
X156420000Y-100140000D03*
X156420000Y-95060000D03*
X153880000Y-107760000D03*
X153880000Y-105220000D03*
X153880000Y-102680000D03*
X153880000Y-100140000D03*
X153880000Y-97600000D03*
%TD*%
D15*
X149000000Y-113100000D03*
X144263037Y-117314643D03*
M02*
