%TF.GenerationSoftware,KiCad,Pcbnew,4.0.2+dfsg1-stable*%
%TF.CreationDate,2018-11-15T01:04:14+01:00*%
%TF.ProjectId,A600MPU-Adapter,413630304D50552D416461707465722E,rev?*%
%TF.FileFunction,Copper,L2,Bot,Signal*%
%FSLAX46Y46*%
G04 Gerber Fmt 4.6, Leading zero omitted, Abs format (unit mm)*
G04 Created by KiCad (PCBNEW 4.0.2+dfsg1-stable) date Thu 15 Nov 2018 01:04:14 CET*
%MOMM*%
G01*
G04 APERTURE LIST*
%ADD10C,0.100000*%
%ADD11R,2.032000X1.727200*%
%ADD12O,2.032000X1.727200*%
%ADD13R,1.397000X1.397000*%
%ADD14C,1.397000*%
%ADD15R,1.727200X1.727200*%
%ADD16O,1.727200X1.727200*%
%ADD17C,0.250000*%
%ADD18C,0.254000*%
G04 APERTURE END LIST*
D10*
D11*
X146050000Y-100330000D03*
D12*
X146050000Y-97790000D03*
X146050000Y-95250000D03*
D13*
X161290000Y-97790000D03*
D14*
X163830000Y-95250000D03*
X163830000Y-97790000D03*
X166370000Y-95250000D03*
X166370000Y-97790000D03*
X168910000Y-95250000D03*
X171450000Y-97790000D03*
X168910000Y-97790000D03*
X171450000Y-100330000D03*
X168910000Y-100330000D03*
X171450000Y-102870000D03*
X168910000Y-102870000D03*
X171450000Y-105410000D03*
X168910000Y-105410000D03*
X171450000Y-107950000D03*
X168910000Y-107950000D03*
X171450000Y-110490000D03*
X168910000Y-113030000D03*
X168910000Y-110490000D03*
X166370000Y-113030000D03*
X166370000Y-110490000D03*
X163830000Y-113030000D03*
X163830000Y-110490000D03*
X161290000Y-113030000D03*
X161290000Y-110490000D03*
X158750000Y-113030000D03*
X158750000Y-110490000D03*
X156210000Y-113030000D03*
X153670000Y-110490000D03*
X156210000Y-110490000D03*
X153670000Y-107950000D03*
X156210000Y-107950000D03*
X153670000Y-105410000D03*
X156210000Y-105410000D03*
X153670000Y-102870000D03*
X156210000Y-102870000D03*
X153670000Y-100330000D03*
X156210000Y-100330000D03*
X153670000Y-97790000D03*
X156210000Y-95250000D03*
X156210000Y-97790000D03*
X158750000Y-95250000D03*
X158750000Y-97790000D03*
X161290000Y-95250000D03*
D15*
X161290000Y-101600000D03*
D16*
X163830000Y-101600000D03*
X161290000Y-104140000D03*
X163830000Y-104140000D03*
X161290000Y-106680000D03*
X163830000Y-106680000D03*
D17*
X162641100Y-109057800D02*
X163830000Y-107868900D01*
X162641100Y-111678900D02*
X162641100Y-109057800D01*
X161290000Y-113030000D02*
X162641100Y-111678900D01*
X163830000Y-106680000D02*
X163830000Y-107868900D01*
X168910000Y-105410000D02*
X171450000Y-105410000D01*
X162641100Y-96601100D02*
X161290000Y-95250000D01*
X162641100Y-102133800D02*
X162641100Y-96601100D01*
X163458400Y-102951100D02*
X162641100Y-102133800D01*
X163830000Y-102951100D02*
X163458400Y-102951100D01*
X163830000Y-104140000D02*
X163830000Y-102951100D01*
X145529900Y-96438900D02*
X146050000Y-96438900D01*
X144699000Y-97269800D02*
X145529900Y-96438900D01*
X144699000Y-101342100D02*
X144699000Y-97269800D01*
X150036900Y-106680000D02*
X144699000Y-101342100D01*
X157480000Y-106680000D02*
X150036900Y-106680000D01*
X161290000Y-110490000D02*
X157480000Y-106680000D01*
X146050000Y-95250000D02*
X146050000Y-96438900D01*
X168910000Y-109944000D02*
X168910000Y-110490000D01*
X164376000Y-105410000D02*
X168910000Y-109944000D01*
X163396700Y-105410000D02*
X164376000Y-105410000D01*
X162478900Y-104492200D02*
X163396700Y-105410000D01*
X162478900Y-103606200D02*
X162478900Y-104492200D01*
X161661600Y-102788900D02*
X162478900Y-103606200D01*
X161290000Y-102788900D02*
X161661600Y-102788900D01*
X161290000Y-101600000D02*
X161290000Y-102788900D01*
X170180000Y-106680000D02*
X171450000Y-107950000D01*
X168706400Y-106680000D02*
X170180000Y-106680000D01*
X163830000Y-101803600D02*
X168706400Y-106680000D01*
X163830000Y-101600000D02*
X163830000Y-101803600D01*
X147238900Y-98978900D02*
X146050000Y-98978900D01*
X149860000Y-101600000D02*
X147238900Y-98978900D01*
X156457300Y-101600000D02*
X149860000Y-101600000D01*
X160348400Y-105491100D02*
X156457300Y-101600000D01*
X161290000Y-105491100D02*
X160348400Y-105491100D01*
X161290000Y-106680000D02*
X161290000Y-105491100D01*
X146050000Y-97790000D02*
X146050000Y-98978900D01*
D18*
G36*
X174550000Y-119940000D02*
X142950000Y-119940000D01*
X142950000Y-97269800D01*
X143939000Y-97269800D01*
X143939000Y-101342100D01*
X143996852Y-101632939D01*
X144161599Y-101879501D01*
X149499499Y-107217401D01*
X149746061Y-107382148D01*
X150036900Y-107440000D01*
X152437878Y-107440000D01*
X152336732Y-107683587D01*
X152336269Y-108214086D01*
X152538854Y-108704380D01*
X152913647Y-109079827D01*
X153251446Y-109220094D01*
X152915620Y-109358854D01*
X152540173Y-109733647D01*
X152336732Y-110223587D01*
X152336269Y-110754086D01*
X152538854Y-111244380D01*
X152913647Y-111619827D01*
X153403587Y-111823268D01*
X153934086Y-111823731D01*
X154424380Y-111621146D01*
X154799827Y-111246353D01*
X154940094Y-110908554D01*
X155078854Y-111244380D01*
X155453647Y-111619827D01*
X155791446Y-111760094D01*
X155455620Y-111898854D01*
X155080173Y-112273647D01*
X154876732Y-112763587D01*
X154876269Y-113294086D01*
X155078854Y-113784380D01*
X155453647Y-114159827D01*
X155943587Y-114363268D01*
X156474086Y-114363731D01*
X156964380Y-114161146D01*
X157339827Y-113786353D01*
X157480094Y-113448554D01*
X157618854Y-113784380D01*
X157993647Y-114159827D01*
X158483587Y-114363268D01*
X159014086Y-114363731D01*
X159504380Y-114161146D01*
X159879827Y-113786353D01*
X160020094Y-113448554D01*
X160158854Y-113784380D01*
X160533647Y-114159827D01*
X161023587Y-114363268D01*
X161554086Y-114363731D01*
X162044380Y-114161146D01*
X162419827Y-113786353D01*
X162560094Y-113448554D01*
X162698854Y-113784380D01*
X163073647Y-114159827D01*
X163563587Y-114363268D01*
X164094086Y-114363731D01*
X164584380Y-114161146D01*
X164959827Y-113786353D01*
X165100094Y-113448554D01*
X165238854Y-113784380D01*
X165613647Y-114159827D01*
X166103587Y-114363268D01*
X166634086Y-114363731D01*
X167124380Y-114161146D01*
X167499827Y-113786353D01*
X167640094Y-113448554D01*
X167778854Y-113784380D01*
X168153647Y-114159827D01*
X168643587Y-114363268D01*
X169174086Y-114363731D01*
X169664380Y-114161146D01*
X170039827Y-113786353D01*
X170243268Y-113296413D01*
X170243731Y-112765914D01*
X170041146Y-112275620D01*
X169666353Y-111900173D01*
X169328554Y-111759906D01*
X169664380Y-111621146D01*
X170039827Y-111246353D01*
X170180094Y-110908554D01*
X170318854Y-111244380D01*
X170693647Y-111619827D01*
X171183587Y-111823268D01*
X171714086Y-111823731D01*
X172204380Y-111621146D01*
X172579827Y-111246353D01*
X172783268Y-110756413D01*
X172783731Y-110225914D01*
X172581146Y-109735620D01*
X172206353Y-109360173D01*
X171868554Y-109219906D01*
X172204380Y-109081146D01*
X172579827Y-108706353D01*
X172783268Y-108216413D01*
X172783731Y-107685914D01*
X172581146Y-107195620D01*
X172206353Y-106820173D01*
X171868554Y-106679906D01*
X172204380Y-106541146D01*
X172579827Y-106166353D01*
X172783268Y-105676413D01*
X172783731Y-105145914D01*
X172581146Y-104655620D01*
X172206353Y-104280173D01*
X171868554Y-104139906D01*
X172204380Y-104001146D01*
X172579827Y-103626353D01*
X172783268Y-103136413D01*
X172783731Y-102605914D01*
X172581146Y-102115620D01*
X172206353Y-101740173D01*
X171868554Y-101599906D01*
X172204380Y-101461146D01*
X172579827Y-101086353D01*
X172783268Y-100596413D01*
X172783731Y-100065914D01*
X172581146Y-99575620D01*
X172206353Y-99200173D01*
X171868554Y-99059906D01*
X172204380Y-98921146D01*
X172579827Y-98546353D01*
X172783268Y-98056413D01*
X172783731Y-97525914D01*
X172581146Y-97035620D01*
X172206353Y-96660173D01*
X171716413Y-96456732D01*
X171185914Y-96456269D01*
X170695620Y-96658854D01*
X170320173Y-97033647D01*
X170179906Y-97371446D01*
X170041146Y-97035620D01*
X169666353Y-96660173D01*
X169328554Y-96519906D01*
X169664380Y-96381146D01*
X170039827Y-96006353D01*
X170243268Y-95516413D01*
X170243731Y-94985914D01*
X170041146Y-94495620D01*
X169666353Y-94120173D01*
X169176413Y-93916732D01*
X168645914Y-93916269D01*
X168155620Y-94118854D01*
X167780173Y-94493647D01*
X167639906Y-94831446D01*
X167501146Y-94495620D01*
X167126353Y-94120173D01*
X166636413Y-93916732D01*
X166105914Y-93916269D01*
X165615620Y-94118854D01*
X165240173Y-94493647D01*
X165099906Y-94831446D01*
X164961146Y-94495620D01*
X164586353Y-94120173D01*
X164096413Y-93916732D01*
X163565914Y-93916269D01*
X163075620Y-94118854D01*
X162700173Y-94493647D01*
X162566686Y-94815118D01*
X162459800Y-94557071D01*
X162224188Y-94495417D01*
X161469605Y-95250000D01*
X162224188Y-96004583D01*
X162459800Y-95942929D01*
X162558083Y-95663688D01*
X162698854Y-96004380D01*
X163073647Y-96379827D01*
X163411446Y-96520094D01*
X163075620Y-96658854D01*
X162700173Y-97033647D01*
X162635940Y-97188337D01*
X162635940Y-97091500D01*
X162591662Y-96856183D01*
X162452590Y-96640059D01*
X162240390Y-96495069D01*
X161988500Y-96444060D01*
X161924360Y-96444060D01*
X161982929Y-96419800D01*
X162044583Y-96184188D01*
X161290000Y-95429605D01*
X160535417Y-96184188D01*
X160597071Y-96419800D01*
X160665998Y-96444060D01*
X160591500Y-96444060D01*
X160356183Y-96488338D01*
X160140059Y-96627410D01*
X159995069Y-96839610D01*
X159944060Y-97091500D01*
X159944060Y-97187884D01*
X159881146Y-97035620D01*
X159506353Y-96660173D01*
X159168554Y-96519906D01*
X159504380Y-96381146D01*
X159879827Y-96006353D01*
X160013314Y-95684882D01*
X160120200Y-95942929D01*
X160355812Y-96004583D01*
X161110395Y-95250000D01*
X160355812Y-94495417D01*
X160120200Y-94557071D01*
X160021917Y-94836312D01*
X159881146Y-94495620D01*
X159701652Y-94315812D01*
X160535417Y-94315812D01*
X161290000Y-95070395D01*
X162044583Y-94315812D01*
X161982929Y-94080200D01*
X161482520Y-93904073D01*
X160952801Y-93932852D01*
X160597071Y-94080200D01*
X160535417Y-94315812D01*
X159701652Y-94315812D01*
X159506353Y-94120173D01*
X159016413Y-93916732D01*
X158485914Y-93916269D01*
X157995620Y-94118854D01*
X157620173Y-94493647D01*
X157479906Y-94831446D01*
X157341146Y-94495620D01*
X156966353Y-94120173D01*
X156476413Y-93916732D01*
X155945914Y-93916269D01*
X155455620Y-94118854D01*
X155080173Y-94493647D01*
X154876732Y-94983587D01*
X154876269Y-95514086D01*
X155078854Y-96004380D01*
X155453647Y-96379827D01*
X155791446Y-96520094D01*
X155455620Y-96658854D01*
X155080173Y-97033647D01*
X154939906Y-97371446D01*
X154801146Y-97035620D01*
X154426353Y-96660173D01*
X153936413Y-96456732D01*
X153405914Y-96456269D01*
X152915620Y-96658854D01*
X152540173Y-97033647D01*
X152336732Y-97523587D01*
X152336269Y-98054086D01*
X152538854Y-98544380D01*
X152913647Y-98919827D01*
X153251446Y-99060094D01*
X152915620Y-99198854D01*
X152540173Y-99573647D01*
X152336732Y-100063587D01*
X152336269Y-100594086D01*
X152437878Y-100840000D01*
X150174802Y-100840000D01*
X147776301Y-98441499D01*
X147623996Y-98339733D01*
X147733345Y-97790000D01*
X147619271Y-97216511D01*
X147294415Y-96730330D01*
X146979634Y-96520000D01*
X147294415Y-96309670D01*
X147619271Y-95823489D01*
X147733345Y-95250000D01*
X147619271Y-94676511D01*
X147294415Y-94190330D01*
X146808234Y-93865474D01*
X146234745Y-93751400D01*
X145865255Y-93751400D01*
X145291766Y-93865474D01*
X144805585Y-94190330D01*
X144480729Y-94676511D01*
X144366655Y-95250000D01*
X144480729Y-95823489D01*
X144716962Y-96177036D01*
X144161599Y-96732399D01*
X143996852Y-96978961D01*
X143939000Y-97269800D01*
X142950000Y-97269800D01*
X142950000Y-92150000D01*
X174550000Y-92150000D01*
X174550000Y-119940000D01*
X174550000Y-119940000D01*
G37*
X174550000Y-119940000D02*
X142950000Y-119940000D01*
X142950000Y-97269800D01*
X143939000Y-97269800D01*
X143939000Y-101342100D01*
X143996852Y-101632939D01*
X144161599Y-101879501D01*
X149499499Y-107217401D01*
X149746061Y-107382148D01*
X150036900Y-107440000D01*
X152437878Y-107440000D01*
X152336732Y-107683587D01*
X152336269Y-108214086D01*
X152538854Y-108704380D01*
X152913647Y-109079827D01*
X153251446Y-109220094D01*
X152915620Y-109358854D01*
X152540173Y-109733647D01*
X152336732Y-110223587D01*
X152336269Y-110754086D01*
X152538854Y-111244380D01*
X152913647Y-111619827D01*
X153403587Y-111823268D01*
X153934086Y-111823731D01*
X154424380Y-111621146D01*
X154799827Y-111246353D01*
X154940094Y-110908554D01*
X155078854Y-111244380D01*
X155453647Y-111619827D01*
X155791446Y-111760094D01*
X155455620Y-111898854D01*
X155080173Y-112273647D01*
X154876732Y-112763587D01*
X154876269Y-113294086D01*
X155078854Y-113784380D01*
X155453647Y-114159827D01*
X155943587Y-114363268D01*
X156474086Y-114363731D01*
X156964380Y-114161146D01*
X157339827Y-113786353D01*
X157480094Y-113448554D01*
X157618854Y-113784380D01*
X157993647Y-114159827D01*
X158483587Y-114363268D01*
X159014086Y-114363731D01*
X159504380Y-114161146D01*
X159879827Y-113786353D01*
X160020094Y-113448554D01*
X160158854Y-113784380D01*
X160533647Y-114159827D01*
X161023587Y-114363268D01*
X161554086Y-114363731D01*
X162044380Y-114161146D01*
X162419827Y-113786353D01*
X162560094Y-113448554D01*
X162698854Y-113784380D01*
X163073647Y-114159827D01*
X163563587Y-114363268D01*
X164094086Y-114363731D01*
X164584380Y-114161146D01*
X164959827Y-113786353D01*
X165100094Y-113448554D01*
X165238854Y-113784380D01*
X165613647Y-114159827D01*
X166103587Y-114363268D01*
X166634086Y-114363731D01*
X167124380Y-114161146D01*
X167499827Y-113786353D01*
X167640094Y-113448554D01*
X167778854Y-113784380D01*
X168153647Y-114159827D01*
X168643587Y-114363268D01*
X169174086Y-114363731D01*
X169664380Y-114161146D01*
X170039827Y-113786353D01*
X170243268Y-113296413D01*
X170243731Y-112765914D01*
X170041146Y-112275620D01*
X169666353Y-111900173D01*
X169328554Y-111759906D01*
X169664380Y-111621146D01*
X170039827Y-111246353D01*
X170180094Y-110908554D01*
X170318854Y-111244380D01*
X170693647Y-111619827D01*
X171183587Y-111823268D01*
X171714086Y-111823731D01*
X172204380Y-111621146D01*
X172579827Y-111246353D01*
X172783268Y-110756413D01*
X172783731Y-110225914D01*
X172581146Y-109735620D01*
X172206353Y-109360173D01*
X171868554Y-109219906D01*
X172204380Y-109081146D01*
X172579827Y-108706353D01*
X172783268Y-108216413D01*
X172783731Y-107685914D01*
X172581146Y-107195620D01*
X172206353Y-106820173D01*
X171868554Y-106679906D01*
X172204380Y-106541146D01*
X172579827Y-106166353D01*
X172783268Y-105676413D01*
X172783731Y-105145914D01*
X172581146Y-104655620D01*
X172206353Y-104280173D01*
X171868554Y-104139906D01*
X172204380Y-104001146D01*
X172579827Y-103626353D01*
X172783268Y-103136413D01*
X172783731Y-102605914D01*
X172581146Y-102115620D01*
X172206353Y-101740173D01*
X171868554Y-101599906D01*
X172204380Y-101461146D01*
X172579827Y-101086353D01*
X172783268Y-100596413D01*
X172783731Y-100065914D01*
X172581146Y-99575620D01*
X172206353Y-99200173D01*
X171868554Y-99059906D01*
X172204380Y-98921146D01*
X172579827Y-98546353D01*
X172783268Y-98056413D01*
X172783731Y-97525914D01*
X172581146Y-97035620D01*
X172206353Y-96660173D01*
X171716413Y-96456732D01*
X171185914Y-96456269D01*
X170695620Y-96658854D01*
X170320173Y-97033647D01*
X170179906Y-97371446D01*
X170041146Y-97035620D01*
X169666353Y-96660173D01*
X169328554Y-96519906D01*
X169664380Y-96381146D01*
X170039827Y-96006353D01*
X170243268Y-95516413D01*
X170243731Y-94985914D01*
X170041146Y-94495620D01*
X169666353Y-94120173D01*
X169176413Y-93916732D01*
X168645914Y-93916269D01*
X168155620Y-94118854D01*
X167780173Y-94493647D01*
X167639906Y-94831446D01*
X167501146Y-94495620D01*
X167126353Y-94120173D01*
X166636413Y-93916732D01*
X166105914Y-93916269D01*
X165615620Y-94118854D01*
X165240173Y-94493647D01*
X165099906Y-94831446D01*
X164961146Y-94495620D01*
X164586353Y-94120173D01*
X164096413Y-93916732D01*
X163565914Y-93916269D01*
X163075620Y-94118854D01*
X162700173Y-94493647D01*
X162566686Y-94815118D01*
X162459800Y-94557071D01*
X162224188Y-94495417D01*
X161469605Y-95250000D01*
X162224188Y-96004583D01*
X162459800Y-95942929D01*
X162558083Y-95663688D01*
X162698854Y-96004380D01*
X163073647Y-96379827D01*
X163411446Y-96520094D01*
X163075620Y-96658854D01*
X162700173Y-97033647D01*
X162635940Y-97188337D01*
X162635940Y-97091500D01*
X162591662Y-96856183D01*
X162452590Y-96640059D01*
X162240390Y-96495069D01*
X161988500Y-96444060D01*
X161924360Y-96444060D01*
X161982929Y-96419800D01*
X162044583Y-96184188D01*
X161290000Y-95429605D01*
X160535417Y-96184188D01*
X160597071Y-96419800D01*
X160665998Y-96444060D01*
X160591500Y-96444060D01*
X160356183Y-96488338D01*
X160140059Y-96627410D01*
X159995069Y-96839610D01*
X159944060Y-97091500D01*
X159944060Y-97187884D01*
X159881146Y-97035620D01*
X159506353Y-96660173D01*
X159168554Y-96519906D01*
X159504380Y-96381146D01*
X159879827Y-96006353D01*
X160013314Y-95684882D01*
X160120200Y-95942929D01*
X160355812Y-96004583D01*
X161110395Y-95250000D01*
X160355812Y-94495417D01*
X160120200Y-94557071D01*
X160021917Y-94836312D01*
X159881146Y-94495620D01*
X159701652Y-94315812D01*
X160535417Y-94315812D01*
X161290000Y-95070395D01*
X162044583Y-94315812D01*
X161982929Y-94080200D01*
X161482520Y-93904073D01*
X160952801Y-93932852D01*
X160597071Y-94080200D01*
X160535417Y-94315812D01*
X159701652Y-94315812D01*
X159506353Y-94120173D01*
X159016413Y-93916732D01*
X158485914Y-93916269D01*
X157995620Y-94118854D01*
X157620173Y-94493647D01*
X157479906Y-94831446D01*
X157341146Y-94495620D01*
X156966353Y-94120173D01*
X156476413Y-93916732D01*
X155945914Y-93916269D01*
X155455620Y-94118854D01*
X155080173Y-94493647D01*
X154876732Y-94983587D01*
X154876269Y-95514086D01*
X155078854Y-96004380D01*
X155453647Y-96379827D01*
X155791446Y-96520094D01*
X155455620Y-96658854D01*
X155080173Y-97033647D01*
X154939906Y-97371446D01*
X154801146Y-97035620D01*
X154426353Y-96660173D01*
X153936413Y-96456732D01*
X153405914Y-96456269D01*
X152915620Y-96658854D01*
X152540173Y-97033647D01*
X152336732Y-97523587D01*
X152336269Y-98054086D01*
X152538854Y-98544380D01*
X152913647Y-98919827D01*
X153251446Y-99060094D01*
X152915620Y-99198854D01*
X152540173Y-99573647D01*
X152336732Y-100063587D01*
X152336269Y-100594086D01*
X152437878Y-100840000D01*
X150174802Y-100840000D01*
X147776301Y-98441499D01*
X147623996Y-98339733D01*
X147733345Y-97790000D01*
X147619271Y-97216511D01*
X147294415Y-96730330D01*
X146979634Y-96520000D01*
X147294415Y-96309670D01*
X147619271Y-95823489D01*
X147733345Y-95250000D01*
X147619271Y-94676511D01*
X147294415Y-94190330D01*
X146808234Y-93865474D01*
X146234745Y-93751400D01*
X145865255Y-93751400D01*
X145291766Y-93865474D01*
X144805585Y-94190330D01*
X144480729Y-94676511D01*
X144366655Y-95250000D01*
X144480729Y-95823489D01*
X144716962Y-96177036D01*
X144161599Y-96732399D01*
X143996852Y-96978961D01*
X143939000Y-97269800D01*
X142950000Y-97269800D01*
X142950000Y-92150000D01*
X174550000Y-92150000D01*
X174550000Y-119940000D01*
G36*
X163957000Y-104013000D02*
X163977000Y-104013000D01*
X163977000Y-104267000D01*
X163957000Y-104267000D01*
X163957000Y-104287000D01*
X163703000Y-104287000D01*
X163703000Y-104267000D01*
X163683000Y-104267000D01*
X163683000Y-104013000D01*
X163703000Y-104013000D01*
X163703000Y-103993000D01*
X163957000Y-103993000D01*
X163957000Y-104013000D01*
X163957000Y-104013000D01*
G37*
X163957000Y-104013000D02*
X163977000Y-104013000D01*
X163977000Y-104267000D01*
X163957000Y-104267000D01*
X163957000Y-104287000D01*
X163703000Y-104287000D01*
X163703000Y-104267000D01*
X163683000Y-104267000D01*
X163683000Y-104013000D01*
X163703000Y-104013000D01*
X163703000Y-103993000D01*
X163957000Y-103993000D01*
X163957000Y-104013000D01*
G36*
X161417000Y-104013000D02*
X161437000Y-104013000D01*
X161437000Y-104267000D01*
X161417000Y-104267000D01*
X161417000Y-104287000D01*
X161163000Y-104287000D01*
X161163000Y-104267000D01*
X161143000Y-104267000D01*
X161143000Y-104013000D01*
X161163000Y-104013000D01*
X161163000Y-103993000D01*
X161417000Y-103993000D01*
X161417000Y-104013000D01*
X161417000Y-104013000D01*
G37*
X161417000Y-104013000D02*
X161437000Y-104013000D01*
X161437000Y-104267000D01*
X161417000Y-104267000D01*
X161417000Y-104287000D01*
X161163000Y-104287000D01*
X161163000Y-104267000D01*
X161143000Y-104267000D01*
X161143000Y-104013000D01*
X161163000Y-104013000D01*
X161163000Y-103993000D01*
X161417000Y-103993000D01*
X161417000Y-104013000D01*
M02*
