M48
;DRILL file {KiCad 4.0.2+dfsg1-stable} date Thu 15 Nov 2018 01:04:19 CET
;FORMAT={-:-/ absolute / metric / decimal}
FMAT,2
METRIC,TZ
T1C0.813
T2C1.016
%
G90
G05
M71
T1
X153.67Y-97.79
X153.67Y-100.33
X153.67Y-102.87
X153.67Y-105.41
X153.67Y-107.95
X153.67Y-110.49
X156.21Y-95.25
X156.21Y-97.79
X156.21Y-100.33
X156.21Y-102.87
X156.21Y-105.41
X156.21Y-107.95
X156.21Y-110.49
X156.21Y-113.03
X158.75Y-95.25
X158.75Y-97.79
X158.75Y-110.49
X158.75Y-113.03
X161.29Y-95.25
X161.29Y-97.79
X161.29Y-110.49
X161.29Y-113.03
X163.83Y-95.25
X163.83Y-97.79
X163.83Y-110.49
X163.83Y-113.03
X166.37Y-95.25
X166.37Y-97.79
X166.37Y-110.49
X166.37Y-113.03
X168.91Y-95.25
X168.91Y-97.79
X168.91Y-100.33
X168.91Y-102.87
X168.91Y-105.41
X168.91Y-107.95
X168.91Y-110.49
X168.91Y-113.03
X171.45Y-97.79
X171.45Y-100.33
X171.45Y-102.87
X171.45Y-105.41
X171.45Y-107.95
X171.45Y-110.49
T2
X146.05Y-95.25
X146.05Y-97.79
X146.05Y-100.33
X161.29Y-101.6
X161.29Y-104.14
X161.29Y-106.68
X163.83Y-101.6
X163.83Y-104.14
X163.83Y-106.68
T0
M30
