%TF.GenerationSoftware,KiCad,Pcbnew,5.1.9+dfsg1-1+deb11u1*%
%TF.CreationDate,2022-11-29T11:57:58+01:00*%
%TF.ProjectId,A600MPU-Adapter,41363030-4d50-4552-9d41-646170746572,2.0*%
%TF.SameCoordinates,Original*%
%TF.FileFunction,Soldermask,Bot*%
%TF.FilePolarity,Negative*%
%FSLAX46Y46*%
G04 Gerber Fmt 4.6, Leading zero omitted, Abs format (unit mm)*
G04 Created by KiCad (PCBNEW 5.1.9+dfsg1-1+deb11u1) date 2022-11-29 11:57:58*
%MOMM*%
%LPD*%
G01*
G04 APERTURE LIST*
%ADD10C,1.700000*%
%ADD11R,1.700000X1.700000*%
%ADD12O,1.700000X1.700000*%
%ADD13R,1.422400X1.422400*%
%ADD14C,1.422400*%
%ADD15C,0.600000*%
G04 APERTURE END LIST*
%TO.C,P1*%
G36*
G01*
X160440000Y-102200000D02*
X160440000Y-101000000D01*
G75*
G02*
X160690000Y-100750000I250000J0D01*
G01*
X161890000Y-100750000D01*
G75*
G02*
X162140000Y-101000000I0J-250000D01*
G01*
X162140000Y-102200000D01*
G75*
G02*
X161890000Y-102450000I-250000J0D01*
G01*
X160690000Y-102450000D01*
G75*
G02*
X160440000Y-102200000I0J250000D01*
G01*
G37*
D10*
X161290000Y-104140000D03*
X161290000Y-106680000D03*
X163830000Y-101600000D03*
X163830000Y-104140000D03*
X163830000Y-106680000D03*
%TD*%
D11*
%TO.C,P2*%
X146050000Y-100330000D03*
D12*
X146050000Y-97790000D03*
X146050000Y-95250000D03*
%TD*%
D13*
%TO.C,U1*%
X168600000Y-103200000D03*
D14*
X168600000Y-105740000D03*
X168600000Y-108280000D03*
X168600000Y-100660000D03*
X168600000Y-98120000D03*
X171140000Y-105740000D03*
X171140000Y-108280000D03*
X171140000Y-110820000D03*
X171140000Y-103200000D03*
X171140000Y-100660000D03*
X168600000Y-110820000D03*
X166060000Y-110820000D03*
X163520000Y-110820000D03*
X160980000Y-110820000D03*
X158440000Y-110820000D03*
X168600000Y-113360000D03*
X166060000Y-113360000D03*
X163520000Y-113360000D03*
X160980000Y-113360000D03*
X158440000Y-113360000D03*
X155900000Y-113360000D03*
X155900000Y-110820000D03*
X155900000Y-108280000D03*
X155900000Y-105740000D03*
X155900000Y-103200000D03*
X155900000Y-100660000D03*
X155900000Y-95580000D03*
X153360000Y-110820000D03*
X153360000Y-108280000D03*
X153360000Y-105740000D03*
X153360000Y-103200000D03*
X153360000Y-100660000D03*
X153360000Y-98120000D03*
X155900000Y-98120000D03*
X158440000Y-98120000D03*
X160980000Y-98120000D03*
X163520000Y-98120000D03*
X166060000Y-98120000D03*
X171140000Y-98120000D03*
X158440000Y-95580000D03*
X160980000Y-95580000D03*
X163520000Y-95580000D03*
X166060000Y-95580000D03*
X168600000Y-95580000D03*
%TD*%
D15*
X157100000Y-115000000D03*
X146500000Y-104500000D03*
X149600000Y-106400000D03*
M02*
