%TF.GenerationSoftware,KiCad,Pcbnew,5.1.9+dfsg1-1+deb11u1*%
%TF.CreationDate,2026-02-19T10:59:52+01:00*%
%TF.ProjectId,A600MPU-Adapter,41363030-4d50-4552-9d41-646170746572,2.0*%
%TF.SameCoordinates,Original*%
%TF.FileFunction,Legend,Top*%
%TF.FilePolarity,Positive*%
%FSLAX46Y46*%
G04 Gerber Fmt 4.6, Leading zero omitted, Abs format (unit mm)*
G04 Created by KiCad (PCBNEW 5.1.9+dfsg1-1+deb11u1) date 2026-02-19 10:59:52*
%MOMM*%
%LPD*%
G01*
G04 APERTURE LIST*
%ADD10C,0.200000*%
%ADD11C,0.300000*%
%ADD12C,0.120000*%
%ADD13C,0.150000*%
G04 APERTURE END LIST*
D10*
X173990000Y-92720000D02*
X173990000Y-103632000D01*
D11*
X150110000Y-112390000D02*
X150110000Y-111675714D01*
X150538571Y-112532857D02*
X149038571Y-112032857D01*
X150538571Y-111532857D01*
X149038571Y-110390000D02*
X149038571Y-110675714D01*
X149110000Y-110818571D01*
X149181428Y-110890000D01*
X149395714Y-111032857D01*
X149681428Y-111104285D01*
X150252857Y-111104285D01*
X150395714Y-111032857D01*
X150467142Y-110961428D01*
X150538571Y-110818571D01*
X150538571Y-110532857D01*
X150467142Y-110390000D01*
X150395714Y-110318571D01*
X150252857Y-110247142D01*
X149895714Y-110247142D01*
X149752857Y-110318571D01*
X149681428Y-110390000D01*
X149610000Y-110532857D01*
X149610000Y-110818571D01*
X149681428Y-110961428D01*
X149752857Y-111032857D01*
X149895714Y-111104285D01*
X149038571Y-109318571D02*
X149038571Y-109175714D01*
X149110000Y-109032857D01*
X149181428Y-108961428D01*
X149324285Y-108890000D01*
X149610000Y-108818571D01*
X149967142Y-108818571D01*
X150252857Y-108890000D01*
X150395714Y-108961428D01*
X150467142Y-109032857D01*
X150538571Y-109175714D01*
X150538571Y-109318571D01*
X150467142Y-109461428D01*
X150395714Y-109532857D01*
X150252857Y-109604285D01*
X149967142Y-109675714D01*
X149610000Y-109675714D01*
X149324285Y-109604285D01*
X149181428Y-109532857D01*
X149110000Y-109461428D01*
X149038571Y-109318571D01*
X149038571Y-107890000D02*
X149038571Y-107747142D01*
X149110000Y-107604285D01*
X149181428Y-107532857D01*
X149324285Y-107461428D01*
X149610000Y-107390000D01*
X149967142Y-107390000D01*
X150252857Y-107461428D01*
X150395714Y-107532857D01*
X150467142Y-107604285D01*
X150538571Y-107747142D01*
X150538571Y-107890000D01*
X150467142Y-108032857D01*
X150395714Y-108104285D01*
X150252857Y-108175714D01*
X149967142Y-108247142D01*
X149610000Y-108247142D01*
X149324285Y-108175714D01*
X149181428Y-108104285D01*
X149110000Y-108032857D01*
X149038571Y-107890000D01*
X150538571Y-105604285D02*
X149038571Y-105604285D01*
X150110000Y-105104285D01*
X149038571Y-104604285D01*
X150538571Y-104604285D01*
X150538571Y-103890000D02*
X149038571Y-103890000D01*
X149038571Y-103318571D01*
X149110000Y-103175714D01*
X149181428Y-103104285D01*
X149324285Y-103032857D01*
X149538571Y-103032857D01*
X149681428Y-103104285D01*
X149752857Y-103175714D01*
X149824285Y-103318571D01*
X149824285Y-103890000D01*
X149038571Y-102390000D02*
X150252857Y-102390000D01*
X150395714Y-102318571D01*
X150467142Y-102247142D01*
X150538571Y-102104285D01*
X150538571Y-101818571D01*
X150467142Y-101675714D01*
X150395714Y-101604285D01*
X150252857Y-101532857D01*
X149038571Y-101532857D01*
X149038571Y-99675714D02*
X150252857Y-99675714D01*
X150395714Y-99604285D01*
X150467142Y-99532857D01*
X150538571Y-99390000D01*
X150538571Y-99104285D01*
X150467142Y-98961428D01*
X150395714Y-98890000D01*
X150252857Y-98818571D01*
X149038571Y-98818571D01*
X150538571Y-97318571D02*
X150538571Y-98175714D01*
X150538571Y-97747142D02*
X149038571Y-97747142D01*
X149252857Y-97890000D01*
X149395714Y-98032857D01*
X149467142Y-98175714D01*
X149038571Y-96818571D02*
X149038571Y-95890000D01*
X149610000Y-96390000D01*
X149610000Y-96175714D01*
X149681428Y-96032857D01*
X149752857Y-95961428D01*
X149895714Y-95890000D01*
X150252857Y-95890000D01*
X150395714Y-95961428D01*
X150467142Y-96032857D01*
X150538571Y-96175714D01*
X150538571Y-96604285D01*
X150467142Y-96747142D01*
X150395714Y-96818571D01*
D10*
X173226000Y-104394000D02*
X173988000Y-105156000D01*
X173988000Y-103632000D02*
X173226000Y-104394000D01*
X151130000Y-115570000D02*
X151130000Y-92710000D01*
X173990000Y-115570000D02*
X151130000Y-115570000D01*
X173988000Y-105156000D02*
X173990000Y-115570000D01*
X151130000Y-92710000D02*
X173990000Y-92720000D01*
D12*
%TO.C,P2*%
X144670000Y-93870000D02*
X146000000Y-93870000D01*
X144670000Y-95200000D02*
X144670000Y-93870000D01*
X144670000Y-96470000D02*
X147330000Y-96470000D01*
X147330000Y-96470000D02*
X147330000Y-101610000D01*
X144670000Y-96470000D02*
X144670000Y-101610000D01*
X144670000Y-101610000D02*
X147330000Y-101610000D01*
%TO.C,P1*%
X156620000Y-102100000D02*
X157620000Y-101600000D01*
X156620000Y-101100000D02*
X156620000Y-102100000D01*
X157620000Y-101600000D02*
X156620000Y-101100000D01*
X159320000Y-106190000D02*
X158010000Y-106190000D01*
X159320000Y-106190000D02*
X159320000Y-106190000D01*
X159320000Y-110590000D02*
X159320000Y-106190000D01*
X165820000Y-110590000D02*
X159320000Y-110590000D01*
X165820000Y-97690000D02*
X165820000Y-110590000D01*
X159320000Y-97690000D02*
X165820000Y-97690000D01*
X159320000Y-102090000D02*
X159320000Y-97690000D01*
X158010000Y-102090000D02*
X159320000Y-102090000D01*
X158010000Y-111890000D02*
X158010000Y-96390000D01*
X167130000Y-111890000D02*
X158010000Y-111890000D01*
X167130000Y-96390000D02*
X167130000Y-111890000D01*
X158010000Y-96390000D02*
X167130000Y-96390000D01*
%TO.C,D1*%
X168740000Y-119235000D02*
X172800000Y-119235000D01*
X168740000Y-116965000D02*
X168740000Y-119235000D01*
X172800000Y-116965000D02*
X168740000Y-116965000D01*
%TO.C,C1*%
X147650000Y-112095000D02*
X143565000Y-112095000D01*
X143565000Y-112095000D02*
X143565000Y-113965000D01*
X143565000Y-113965000D02*
X147650000Y-113965000D01*
%TO.C,C2*%
X148031252Y-119020000D02*
X146608748Y-119020000D01*
X148031252Y-117200000D02*
X146608748Y-117200000D01*
%TO.C,C3*%
X143565000Y-107615000D02*
X147650000Y-107615000D01*
X143565000Y-105745000D02*
X143565000Y-107615000D01*
X147650000Y-105745000D02*
X143565000Y-105745000D01*
%TO.C,R1*%
X163727064Y-119010000D02*
X162272936Y-119010000D01*
X163727064Y-117190000D02*
X162272936Y-117190000D01*
%TO.C,C4*%
X152688748Y-117190000D02*
X154111252Y-117190000D01*
X152688748Y-119010000D02*
X154111252Y-119010000D01*
%TO.C,P2*%
D13*
X145161904Y-103252380D02*
X145161904Y-102252380D01*
X145542857Y-102252380D01*
X145638095Y-102300000D01*
X145685714Y-102347619D01*
X145733333Y-102442857D01*
X145733333Y-102585714D01*
X145685714Y-102680952D01*
X145638095Y-102728571D01*
X145542857Y-102776190D01*
X145161904Y-102776190D01*
X146114285Y-102347619D02*
X146161904Y-102300000D01*
X146257142Y-102252380D01*
X146495238Y-102252380D01*
X146590476Y-102300000D01*
X146638095Y-102347619D01*
X146685714Y-102442857D01*
X146685714Y-102538095D01*
X146638095Y-102680952D01*
X146066666Y-103252380D01*
X146685714Y-103252380D01*
%TO.C,P1*%
X161861904Y-94352380D02*
X161861904Y-93352380D01*
X162242857Y-93352380D01*
X162338095Y-93400000D01*
X162385714Y-93447619D01*
X162433333Y-93542857D01*
X162433333Y-93685714D01*
X162385714Y-93780952D01*
X162338095Y-93828571D01*
X162242857Y-93876190D01*
X161861904Y-93876190D01*
X163385714Y-94352380D02*
X162814285Y-94352380D01*
X163100000Y-94352380D02*
X163100000Y-93352380D01*
X163004761Y-93495238D01*
X162909523Y-93590476D01*
X162814285Y-93638095D01*
%TO.C,D1*%
X166961904Y-118552380D02*
X166961904Y-117552380D01*
X167200000Y-117552380D01*
X167342857Y-117600000D01*
X167438095Y-117695238D01*
X167485714Y-117790476D01*
X167533333Y-117980952D01*
X167533333Y-118123809D01*
X167485714Y-118314285D01*
X167438095Y-118409523D01*
X167342857Y-118504761D01*
X167200000Y-118552380D01*
X166961904Y-118552380D01*
X168485714Y-118552380D02*
X167914285Y-118552380D01*
X168200000Y-118552380D02*
X168200000Y-117552380D01*
X168104761Y-117695238D01*
X168009523Y-117790476D01*
X167914285Y-117838095D01*
%TO.C,C1*%
X146033333Y-115257142D02*
X145985714Y-115304761D01*
X145842857Y-115352380D01*
X145747619Y-115352380D01*
X145604761Y-115304761D01*
X145509523Y-115209523D01*
X145461904Y-115114285D01*
X145414285Y-114923809D01*
X145414285Y-114780952D01*
X145461904Y-114590476D01*
X145509523Y-114495238D01*
X145604761Y-114400000D01*
X145747619Y-114352380D01*
X145842857Y-114352380D01*
X145985714Y-114400000D01*
X146033333Y-114447619D01*
X146985714Y-115352380D02*
X146414285Y-115352380D01*
X146700000Y-115352380D02*
X146700000Y-114352380D01*
X146604761Y-114495238D01*
X146509523Y-114590476D01*
X146414285Y-114638095D01*
%TO.C,C2*%
X143633333Y-118457142D02*
X143585714Y-118504761D01*
X143442857Y-118552380D01*
X143347619Y-118552380D01*
X143204761Y-118504761D01*
X143109523Y-118409523D01*
X143061904Y-118314285D01*
X143014285Y-118123809D01*
X143014285Y-117980952D01*
X143061904Y-117790476D01*
X143109523Y-117695238D01*
X143204761Y-117600000D01*
X143347619Y-117552380D01*
X143442857Y-117552380D01*
X143585714Y-117600000D01*
X143633333Y-117647619D01*
X144014285Y-117647619D02*
X144061904Y-117600000D01*
X144157142Y-117552380D01*
X144395238Y-117552380D01*
X144490476Y-117600000D01*
X144538095Y-117647619D01*
X144585714Y-117742857D01*
X144585714Y-117838095D01*
X144538095Y-117980952D01*
X143966666Y-118552380D01*
X144585714Y-118552380D01*
%TO.C,C3*%
X145883333Y-108957142D02*
X145835714Y-109004761D01*
X145692857Y-109052380D01*
X145597619Y-109052380D01*
X145454761Y-109004761D01*
X145359523Y-108909523D01*
X145311904Y-108814285D01*
X145264285Y-108623809D01*
X145264285Y-108480952D01*
X145311904Y-108290476D01*
X145359523Y-108195238D01*
X145454761Y-108100000D01*
X145597619Y-108052380D01*
X145692857Y-108052380D01*
X145835714Y-108100000D01*
X145883333Y-108147619D01*
X146216666Y-108052380D02*
X146835714Y-108052380D01*
X146502380Y-108433333D01*
X146645238Y-108433333D01*
X146740476Y-108480952D01*
X146788095Y-108528571D01*
X146835714Y-108623809D01*
X146835714Y-108861904D01*
X146788095Y-108957142D01*
X146740476Y-109004761D01*
X146645238Y-109052380D01*
X146359523Y-109052380D01*
X146264285Y-109004761D01*
X146216666Y-108957142D01*
%TO.C,R1*%
X159333333Y-118552380D02*
X159000000Y-118076190D01*
X158761904Y-118552380D02*
X158761904Y-117552380D01*
X159142857Y-117552380D01*
X159238095Y-117600000D01*
X159285714Y-117647619D01*
X159333333Y-117742857D01*
X159333333Y-117885714D01*
X159285714Y-117980952D01*
X159238095Y-118028571D01*
X159142857Y-118076190D01*
X158761904Y-118076190D01*
X160285714Y-118552380D02*
X159714285Y-118552380D01*
X160000000Y-118552380D02*
X160000000Y-117552380D01*
X159904761Y-117695238D01*
X159809523Y-117790476D01*
X159714285Y-117838095D01*
%TO.C,C4*%
X156733333Y-118457142D02*
X156685714Y-118504761D01*
X156542857Y-118552380D01*
X156447619Y-118552380D01*
X156304761Y-118504761D01*
X156209523Y-118409523D01*
X156161904Y-118314285D01*
X156114285Y-118123809D01*
X156114285Y-117980952D01*
X156161904Y-117790476D01*
X156209523Y-117695238D01*
X156304761Y-117600000D01*
X156447619Y-117552380D01*
X156542857Y-117552380D01*
X156685714Y-117600000D01*
X156733333Y-117647619D01*
X157590476Y-117885714D02*
X157590476Y-118552380D01*
X157352380Y-117504761D02*
X157114285Y-118219047D01*
X157733333Y-118219047D01*
%TD*%
M02*
