%TF.GenerationSoftware,KiCad,Pcbnew,5.1.9+dfsg1-1+deb11u1*%
%TF.CreationDate,2026-02-19T10:59:52+01:00*%
%TF.ProjectId,A600MPU-Adapter,41363030-4d50-4552-9d41-646170746572,2.0*%
%TF.SameCoordinates,Original*%
%TF.FileFunction,Legend,Bot*%
%TF.FilePolarity,Positive*%
%FSLAX46Y46*%
G04 Gerber Fmt 4.6, Leading zero omitted, Abs format (unit mm)*
G04 Created by KiCad (PCBNEW 5.1.9+dfsg1-1+deb11u1) date 2026-02-19 10:59:52*
%MOMM*%
%LPD*%
G01*
G04 APERTURE LIST*
%ADD10C,0.300000*%
%ADD11C,0.187500*%
%ADD12C,0.100000*%
%ADD13C,0.120000*%
%ADD14C,0.150000*%
G04 APERTURE END LIST*
D10*
X149578571Y-99464285D02*
X148864285Y-98964285D01*
X149578571Y-98607142D02*
X148078571Y-98607142D01*
X148078571Y-99178571D01*
X148150000Y-99321428D01*
X148221428Y-99392857D01*
X148364285Y-99464285D01*
X148578571Y-99464285D01*
X148721428Y-99392857D01*
X148792857Y-99321428D01*
X148864285Y-99178571D01*
X148864285Y-98607142D01*
X148792857Y-100607142D02*
X148864285Y-100821428D01*
X148935714Y-100892857D01*
X149078571Y-100964285D01*
X149292857Y-100964285D01*
X149435714Y-100892857D01*
X149507142Y-100821428D01*
X149578571Y-100678571D01*
X149578571Y-100107142D01*
X148078571Y-100107142D01*
X148078571Y-100607142D01*
X148150000Y-100750000D01*
X148221428Y-100821428D01*
X148364285Y-100892857D01*
X148507142Y-100892857D01*
X148650000Y-100821428D01*
X148721428Y-100750000D01*
X148792857Y-100607142D01*
X148792857Y-100107142D01*
X149578571Y-102321428D02*
X149578571Y-101607142D01*
X148078571Y-101607142D01*
X148078571Y-103107142D02*
X148078571Y-103250000D01*
X148150000Y-103392857D01*
X148221428Y-103464285D01*
X148364285Y-103535714D01*
X148650000Y-103607142D01*
X149007142Y-103607142D01*
X149292857Y-103535714D01*
X149435714Y-103464285D01*
X149507142Y-103392857D01*
X149578571Y-103250000D01*
X149578571Y-103107142D01*
X149507142Y-102964285D01*
X149435714Y-102892857D01*
X149292857Y-102821428D01*
X149007142Y-102750000D01*
X148650000Y-102750000D01*
X148364285Y-102821428D01*
X148221428Y-102892857D01*
X148150000Y-102964285D01*
X148078571Y-103107142D01*
X148078571Y-104535714D02*
X148078571Y-104678571D01*
X148150000Y-104821428D01*
X148221428Y-104892857D01*
X148364285Y-104964285D01*
X148650000Y-105035714D01*
X149007142Y-105035714D01*
X149292857Y-104964285D01*
X149435714Y-104892857D01*
X149507142Y-104821428D01*
X149578571Y-104678571D01*
X149578571Y-104535714D01*
X149507142Y-104392857D01*
X149435714Y-104321428D01*
X149292857Y-104250000D01*
X149007142Y-104178571D01*
X148650000Y-104178571D01*
X148364285Y-104250000D01*
X148221428Y-104321428D01*
X148150000Y-104392857D01*
X148078571Y-104535714D01*
X148078571Y-105535714D02*
X148078571Y-106535714D01*
X149578571Y-105892857D01*
X149435714Y-107107142D02*
X149507142Y-107178571D01*
X149578571Y-107107142D01*
X149507142Y-107035714D01*
X149435714Y-107107142D01*
X149578571Y-107107142D01*
X148078571Y-108107142D02*
X148078571Y-108250000D01*
X148150000Y-108392857D01*
X148221428Y-108464285D01*
X148364285Y-108535714D01*
X148650000Y-108607142D01*
X149007142Y-108607142D01*
X149292857Y-108535714D01*
X149435714Y-108464285D01*
X149507142Y-108392857D01*
X149578571Y-108250000D01*
X149578571Y-108107142D01*
X149507142Y-107964285D01*
X149435714Y-107892857D01*
X149292857Y-107821428D01*
X149007142Y-107750000D01*
X148650000Y-107750000D01*
X148364285Y-107821428D01*
X148221428Y-107892857D01*
X148150000Y-107964285D01*
X148078571Y-108107142D01*
X148078571Y-109535714D02*
X148078571Y-109678571D01*
X148150000Y-109821428D01*
X148221428Y-109892857D01*
X148364285Y-109964285D01*
X148650000Y-110035714D01*
X149007142Y-110035714D01*
X149292857Y-109964285D01*
X149435714Y-109892857D01*
X149507142Y-109821428D01*
X149578571Y-109678571D01*
X149578571Y-109535714D01*
X149507142Y-109392857D01*
X149435714Y-109321428D01*
X149292857Y-109250000D01*
X149007142Y-109178571D01*
X148650000Y-109178571D01*
X148364285Y-109250000D01*
X148221428Y-109321428D01*
X148150000Y-109392857D01*
X148078571Y-109535714D01*
X148221428Y-110607142D02*
X148150000Y-110678571D01*
X148078571Y-110821428D01*
X148078571Y-111178571D01*
X148150000Y-111321428D01*
X148221428Y-111392857D01*
X148364285Y-111464285D01*
X148507142Y-111464285D01*
X148721428Y-111392857D01*
X149578571Y-110535714D01*
X149578571Y-111464285D01*
D11*
X174306428Y-119846285D02*
X174306428Y-119346285D01*
X174306428Y-119096285D02*
X174354047Y-119132000D01*
X174306428Y-119167714D01*
X174258809Y-119132000D01*
X174306428Y-119096285D01*
X174306428Y-119167714D01*
X173830238Y-119346285D02*
X173830238Y-119846285D01*
X173830238Y-119417714D02*
X173782619Y-119382000D01*
X173687380Y-119346285D01*
X173544523Y-119346285D01*
X173449285Y-119382000D01*
X173401666Y-119453428D01*
X173401666Y-119846285D01*
X172163571Y-119846285D02*
X172163571Y-119346285D01*
X172163571Y-119417714D02*
X172115952Y-119382000D01*
X172020714Y-119346285D01*
X171877857Y-119346285D01*
X171782619Y-119382000D01*
X171735000Y-119453428D01*
X171735000Y-119846285D01*
X171735000Y-119453428D02*
X171687380Y-119382000D01*
X171592142Y-119346285D01*
X171449285Y-119346285D01*
X171354047Y-119382000D01*
X171306428Y-119453428D01*
X171306428Y-119846285D01*
X170449285Y-119810571D02*
X170544523Y-119846285D01*
X170734999Y-119846285D01*
X170830238Y-119810571D01*
X170877857Y-119739142D01*
X170877857Y-119453428D01*
X170830238Y-119382000D01*
X170734999Y-119346285D01*
X170544523Y-119346285D01*
X170449285Y-119382000D01*
X170401666Y-119453428D01*
X170401666Y-119524857D01*
X170877857Y-119596285D01*
X169973095Y-119846285D02*
X169973095Y-119346285D01*
X169973095Y-119417714D02*
X169925476Y-119382000D01*
X169830238Y-119346285D01*
X169687380Y-119346285D01*
X169592142Y-119382000D01*
X169544523Y-119453428D01*
X169544523Y-119846285D01*
X169544523Y-119453428D02*
X169496904Y-119382000D01*
X169401666Y-119346285D01*
X169258809Y-119346285D01*
X169163571Y-119382000D01*
X169115952Y-119453428D01*
X169115952Y-119846285D01*
X168496904Y-119846285D02*
X168592142Y-119810571D01*
X168639761Y-119774857D01*
X168687380Y-119703428D01*
X168687380Y-119489142D01*
X168639761Y-119417714D01*
X168592142Y-119382000D01*
X168496904Y-119346285D01*
X168354047Y-119346285D01*
X168258809Y-119382000D01*
X168211190Y-119417714D01*
X168163571Y-119489142D01*
X168163571Y-119703428D01*
X168211190Y-119774857D01*
X168258809Y-119810571D01*
X168354047Y-119846285D01*
X168496904Y-119846285D01*
X167734999Y-119846285D02*
X167734999Y-119346285D01*
X167734999Y-119489142D02*
X167687380Y-119417714D01*
X167639761Y-119382000D01*
X167544523Y-119346285D01*
X167449285Y-119346285D01*
X167115952Y-119846285D02*
X167115952Y-119346285D01*
X167115952Y-119096285D02*
X167163571Y-119132000D01*
X167115952Y-119167714D01*
X167068333Y-119132000D01*
X167115952Y-119096285D01*
X167115952Y-119167714D01*
X166211190Y-119846285D02*
X166211190Y-119453428D01*
X166258809Y-119382000D01*
X166354047Y-119346285D01*
X166544523Y-119346285D01*
X166639761Y-119382000D01*
X166211190Y-119810571D02*
X166306428Y-119846285D01*
X166544523Y-119846285D01*
X166639761Y-119810571D01*
X166687380Y-119739142D01*
X166687380Y-119667714D01*
X166639761Y-119596285D01*
X166544523Y-119560571D01*
X166306428Y-119560571D01*
X166211190Y-119524857D01*
X165734999Y-119846285D02*
X165734999Y-119346285D01*
X165734999Y-119417714D02*
X165687380Y-119382000D01*
X165592142Y-119346285D01*
X165449285Y-119346285D01*
X165354047Y-119382000D01*
X165306428Y-119453428D01*
X165306428Y-119846285D01*
X165306428Y-119453428D02*
X165258809Y-119382000D01*
X165163571Y-119346285D01*
X165020714Y-119346285D01*
X164925476Y-119382000D01*
X164877857Y-119453428D01*
X164877857Y-119846285D01*
X163687380Y-119632000D02*
X163211190Y-119632000D01*
X163782619Y-119846285D02*
X163449285Y-119096285D01*
X163115952Y-119846285D01*
X162782619Y-119774857D02*
X162734999Y-119810571D01*
X162782619Y-119846285D01*
X162830238Y-119810571D01*
X162782619Y-119774857D01*
X162782619Y-119846285D01*
X162354047Y-119810571D02*
X162211190Y-119846285D01*
X161973095Y-119846285D01*
X161877857Y-119810571D01*
X161830238Y-119774857D01*
X161782619Y-119703428D01*
X161782619Y-119632000D01*
X161830238Y-119560571D01*
X161877857Y-119524857D01*
X161973095Y-119489142D01*
X162163571Y-119453428D01*
X162258809Y-119417714D01*
X162306428Y-119382000D01*
X162354047Y-119310571D01*
X162354047Y-119239142D01*
X162306428Y-119167714D01*
X162258809Y-119132000D01*
X162163571Y-119096285D01*
X161925476Y-119096285D01*
X161782619Y-119132000D01*
X161354047Y-119774857D02*
X161306428Y-119810571D01*
X161354047Y-119846285D01*
X161401666Y-119810571D01*
X161354047Y-119774857D01*
X161354047Y-119846285D01*
X160877857Y-119560571D02*
X160115952Y-119560571D01*
X159115952Y-119132000D02*
X159211190Y-119096285D01*
X159354047Y-119096285D01*
X159496904Y-119132000D01*
X159592142Y-119203428D01*
X159639761Y-119274857D01*
X159687380Y-119417714D01*
X159687380Y-119524857D01*
X159639761Y-119667714D01*
X159592142Y-119739142D01*
X159496904Y-119810571D01*
X159354047Y-119846285D01*
X159258809Y-119846285D01*
X159115952Y-119810571D01*
X159068333Y-119774857D01*
X159068333Y-119524857D01*
X159258809Y-119524857D01*
X158639761Y-119774857D02*
X158592142Y-119810571D01*
X158639761Y-119846285D01*
X158687380Y-119810571D01*
X158639761Y-119774857D01*
X158639761Y-119846285D01*
X158163571Y-119846285D02*
X158163571Y-119096285D01*
X157925476Y-119096285D01*
X157782619Y-119132000D01*
X157687380Y-119203428D01*
X157639761Y-119274857D01*
X157592142Y-119417714D01*
X157592142Y-119524857D01*
X157639761Y-119667714D01*
X157687380Y-119739142D01*
X157782619Y-119810571D01*
X157925476Y-119846285D01*
X158163571Y-119846285D01*
X157163571Y-119774857D02*
X157115952Y-119810571D01*
X157163571Y-119846285D01*
X157211190Y-119810571D01*
X157163571Y-119774857D01*
X157163571Y-119846285D01*
D12*
X143482190Y-94066666D02*
X142982190Y-94066666D01*
X143458380Y-94066666D02*
X143482190Y-94000000D01*
X143482190Y-93866666D01*
X143458380Y-93800000D01*
X143434571Y-93766666D01*
X143386952Y-93733333D01*
X143244095Y-93733333D01*
X143196476Y-93766666D01*
X143172666Y-93800000D01*
X143148857Y-93866666D01*
X143148857Y-94000000D01*
X143172666Y-94066666D01*
X143458380Y-94666666D02*
X143482190Y-94600000D01*
X143482190Y-94466666D01*
X143458380Y-94400000D01*
X143410761Y-94366666D01*
X143220285Y-94366666D01*
X143172666Y-94400000D01*
X143148857Y-94466666D01*
X143148857Y-94600000D01*
X143172666Y-94666666D01*
X143220285Y-94700000D01*
X143267904Y-94700000D01*
X143315523Y-94366666D01*
X143458380Y-94966666D02*
X143482190Y-95033333D01*
X143482190Y-95166666D01*
X143458380Y-95233333D01*
X143410761Y-95266666D01*
X143386952Y-95266666D01*
X143339333Y-95233333D01*
X143315523Y-95166666D01*
X143315523Y-95066666D01*
X143291714Y-95000000D01*
X143244095Y-94966666D01*
X143220285Y-94966666D01*
X143172666Y-95000000D01*
X143148857Y-95066666D01*
X143148857Y-95166666D01*
X143172666Y-95233333D01*
X143482190Y-95566666D02*
X143148857Y-95566666D01*
X142982190Y-95566666D02*
X143006000Y-95533333D01*
X143029809Y-95566666D01*
X143006000Y-95600000D01*
X142982190Y-95566666D01*
X143029809Y-95566666D01*
X143148857Y-96200000D02*
X143553619Y-96200000D01*
X143601238Y-96166666D01*
X143625047Y-96133333D01*
X143648857Y-96066666D01*
X143648857Y-95966666D01*
X143625047Y-95900000D01*
X143458380Y-96200000D02*
X143482190Y-96133333D01*
X143482190Y-96000000D01*
X143458380Y-95933333D01*
X143434571Y-95900000D01*
X143386952Y-95866666D01*
X143244095Y-95866666D01*
X143196476Y-95900000D01*
X143172666Y-95933333D01*
X143148857Y-96000000D01*
X143148857Y-96133333D01*
X143172666Y-96200000D01*
X143148857Y-96533333D02*
X143482190Y-96533333D01*
X143196476Y-96533333D02*
X143172666Y-96566666D01*
X143148857Y-96633333D01*
X143148857Y-96733333D01*
X143172666Y-96800000D01*
X143220285Y-96833333D01*
X143482190Y-96833333D01*
X143458380Y-97433333D02*
X143482190Y-97366666D01*
X143482190Y-97233333D01*
X143458380Y-97166666D01*
X143410761Y-97133333D01*
X143220285Y-97133333D01*
X143172666Y-97166666D01*
X143148857Y-97233333D01*
X143148857Y-97366666D01*
X143172666Y-97433333D01*
X143220285Y-97466666D01*
X143267904Y-97466666D01*
X143315523Y-97133333D01*
X143482190Y-98066666D02*
X142982190Y-98066666D01*
X143458380Y-98066666D02*
X143482190Y-98000000D01*
X143482190Y-97866666D01*
X143458380Y-97800000D01*
X143434571Y-97766666D01*
X143386952Y-97733333D01*
X143244095Y-97733333D01*
X143196476Y-97766666D01*
X143172666Y-97800000D01*
X143148857Y-97866666D01*
X143148857Y-98000000D01*
X143172666Y-98066666D01*
X143482190Y-98933333D02*
X142982190Y-98933333D01*
X143172666Y-98933333D02*
X143148857Y-99000000D01*
X143148857Y-99133333D01*
X143172666Y-99200000D01*
X143196476Y-99233333D01*
X143244095Y-99266666D01*
X143386952Y-99266666D01*
X143434571Y-99233333D01*
X143458380Y-99200000D01*
X143482190Y-99133333D01*
X143482190Y-99000000D01*
X143458380Y-98933333D01*
X143148857Y-99500000D02*
X143482190Y-99666666D01*
X143148857Y-99833333D02*
X143482190Y-99666666D01*
X143601238Y-99600000D01*
X143625047Y-99566666D01*
X143648857Y-99500000D01*
X143482190Y-101033333D02*
X143244095Y-100800000D01*
X143482190Y-100633333D02*
X142982190Y-100633333D01*
X142982190Y-100900000D01*
X143006000Y-100966666D01*
X143029809Y-101000000D01*
X143077428Y-101033333D01*
X143148857Y-101033333D01*
X143196476Y-101000000D01*
X143220285Y-100966666D01*
X143244095Y-100900000D01*
X143244095Y-100633333D01*
X143434571Y-101333333D02*
X143458380Y-101366666D01*
X143482190Y-101333333D01*
X143458380Y-101300000D01*
X143434571Y-101333333D01*
X143482190Y-101333333D01*
X143006000Y-102033333D02*
X142982190Y-101966666D01*
X142982190Y-101866666D01*
X143006000Y-101766666D01*
X143053619Y-101700000D01*
X143101238Y-101666666D01*
X143196476Y-101633333D01*
X143267904Y-101633333D01*
X143363142Y-101666666D01*
X143410761Y-101700000D01*
X143458380Y-101766666D01*
X143482190Y-101866666D01*
X143482190Y-101933333D01*
X143458380Y-102033333D01*
X143434571Y-102066666D01*
X143267904Y-102066666D01*
X143267904Y-101933333D01*
X143434571Y-102366666D02*
X143458380Y-102400000D01*
X143482190Y-102366666D01*
X143458380Y-102333333D01*
X143434571Y-102366666D01*
X143482190Y-102366666D01*
X143029809Y-102666666D02*
X143006000Y-102700000D01*
X142982190Y-102766666D01*
X142982190Y-102933333D01*
X143006000Y-103000000D01*
X143029809Y-103033333D01*
X143077428Y-103066666D01*
X143125047Y-103066666D01*
X143196476Y-103033333D01*
X143482190Y-102633333D01*
X143482190Y-103066666D01*
X142982190Y-103500000D02*
X142982190Y-103566666D01*
X143006000Y-103633333D01*
X143029809Y-103666666D01*
X143077428Y-103700000D01*
X143172666Y-103733333D01*
X143291714Y-103733333D01*
X143386952Y-103700000D01*
X143434571Y-103666666D01*
X143458380Y-103633333D01*
X143482190Y-103566666D01*
X143482190Y-103500000D01*
X143458380Y-103433333D01*
X143434571Y-103400000D01*
X143386952Y-103366666D01*
X143291714Y-103333333D01*
X143172666Y-103333333D01*
X143077428Y-103366666D01*
X143029809Y-103400000D01*
X143006000Y-103433333D01*
X142982190Y-103500000D01*
X143482190Y-104400000D02*
X143482190Y-104000000D01*
X143482190Y-104200000D02*
X142982190Y-104200000D01*
X143053619Y-104133333D01*
X143101238Y-104066666D01*
X143125047Y-104000000D01*
X143196476Y-104800000D02*
X143172666Y-104733333D01*
X143148857Y-104700000D01*
X143101238Y-104666666D01*
X143077428Y-104666666D01*
X143029809Y-104700000D01*
X143006000Y-104733333D01*
X142982190Y-104800000D01*
X142982190Y-104933333D01*
X143006000Y-105000000D01*
X143029809Y-105033333D01*
X143077428Y-105066666D01*
X143101238Y-105066666D01*
X143148857Y-105033333D01*
X143172666Y-105000000D01*
X143196476Y-104933333D01*
X143196476Y-104800000D01*
X143220285Y-104733333D01*
X143244095Y-104700000D01*
X143291714Y-104666666D01*
X143386952Y-104666666D01*
X143434571Y-104700000D01*
X143458380Y-104733333D01*
X143482190Y-104800000D01*
X143482190Y-104933333D01*
X143458380Y-105000000D01*
X143434571Y-105033333D01*
X143386952Y-105066666D01*
X143291714Y-105066666D01*
X143244095Y-105033333D01*
X143220285Y-105000000D01*
X143196476Y-104933333D01*
X142958380Y-105866666D02*
X143601238Y-105266666D01*
X143029809Y-106066666D02*
X143006000Y-106100000D01*
X142982190Y-106166666D01*
X142982190Y-106333333D01*
X143006000Y-106400000D01*
X143029809Y-106433333D01*
X143077428Y-106466666D01*
X143125047Y-106466666D01*
X143196476Y-106433333D01*
X143482190Y-106033333D01*
X143482190Y-106466666D01*
X142982190Y-106900000D02*
X142982190Y-106966666D01*
X143006000Y-107033333D01*
X143029809Y-107066666D01*
X143077428Y-107100000D01*
X143172666Y-107133333D01*
X143291714Y-107133333D01*
X143386952Y-107100000D01*
X143434571Y-107066666D01*
X143458380Y-107033333D01*
X143482190Y-106966666D01*
X143482190Y-106900000D01*
X143458380Y-106833333D01*
X143434571Y-106800000D01*
X143386952Y-106766666D01*
X143291714Y-106733333D01*
X143172666Y-106733333D01*
X143077428Y-106766666D01*
X143029809Y-106800000D01*
X143006000Y-106833333D01*
X142982190Y-106900000D01*
X143029809Y-107400000D02*
X143006000Y-107433333D01*
X142982190Y-107500000D01*
X142982190Y-107666666D01*
X143006000Y-107733333D01*
X143029809Y-107766666D01*
X143077428Y-107800000D01*
X143125047Y-107800000D01*
X143196476Y-107766666D01*
X143482190Y-107366666D01*
X143482190Y-107800000D01*
X143029809Y-108066666D02*
X143006000Y-108100000D01*
X142982190Y-108166666D01*
X142982190Y-108333333D01*
X143006000Y-108400000D01*
X143029809Y-108433333D01*
X143077428Y-108466666D01*
X143125047Y-108466666D01*
X143196476Y-108433333D01*
X143482190Y-108033333D01*
X143482190Y-108466666D01*
X142958380Y-109266666D02*
X143601238Y-108666666D01*
X143029809Y-109466666D02*
X143006000Y-109500000D01*
X142982190Y-109566666D01*
X142982190Y-109733333D01*
X143006000Y-109800000D01*
X143029809Y-109833333D01*
X143077428Y-109866666D01*
X143125047Y-109866666D01*
X143196476Y-109833333D01*
X143482190Y-109433333D01*
X143482190Y-109866666D01*
X142982190Y-110300000D02*
X142982190Y-110366666D01*
X143006000Y-110433333D01*
X143029809Y-110466666D01*
X143077428Y-110500000D01*
X143172666Y-110533333D01*
X143291714Y-110533333D01*
X143386952Y-110500000D01*
X143434571Y-110466666D01*
X143458380Y-110433333D01*
X143482190Y-110366666D01*
X143482190Y-110300000D01*
X143458380Y-110233333D01*
X143434571Y-110200000D01*
X143386952Y-110166666D01*
X143291714Y-110133333D01*
X143172666Y-110133333D01*
X143077428Y-110166666D01*
X143029809Y-110200000D01*
X143006000Y-110233333D01*
X142982190Y-110300000D01*
X143029809Y-110800000D02*
X143006000Y-110833333D01*
X142982190Y-110900000D01*
X142982190Y-111066666D01*
X143006000Y-111133333D01*
X143029809Y-111166666D01*
X143077428Y-111200000D01*
X143125047Y-111200000D01*
X143196476Y-111166666D01*
X143482190Y-110766666D01*
X143482190Y-111200000D01*
X142982190Y-111800000D02*
X142982190Y-111666666D01*
X143006000Y-111600000D01*
X143029809Y-111566666D01*
X143101238Y-111500000D01*
X143196476Y-111466666D01*
X143386952Y-111466666D01*
X143434571Y-111500000D01*
X143458380Y-111533333D01*
X143482190Y-111600000D01*
X143482190Y-111733333D01*
X143458380Y-111800000D01*
X143434571Y-111833333D01*
X143386952Y-111866666D01*
X143267904Y-111866666D01*
X143220285Y-111833333D01*
X143196476Y-111800000D01*
X143172666Y-111733333D01*
X143172666Y-111600000D01*
X143196476Y-111533333D01*
X143220285Y-111500000D01*
X143267904Y-111466666D01*
D13*
%TO.C,U1*%
X163670000Y-92200000D02*
X173520000Y-92200000D01*
X173520000Y-92200000D02*
X174520000Y-93200000D01*
X174520000Y-93200000D02*
X174520000Y-115900000D01*
X174520000Y-115900000D02*
X150820000Y-115900000D01*
X150820000Y-115900000D02*
X150820000Y-92200000D01*
X150820000Y-92200000D02*
X161670000Y-92200000D01*
D14*
X149961904Y-92552380D02*
X149961904Y-93361904D01*
X149914285Y-93457142D01*
X149866666Y-93504761D01*
X149771428Y-93552380D01*
X149580952Y-93552380D01*
X149485714Y-93504761D01*
X149438095Y-93457142D01*
X149390476Y-93361904D01*
X149390476Y-92552380D01*
X148390476Y-93552380D02*
X148961904Y-93552380D01*
X148676190Y-93552380D02*
X148676190Y-92552380D01*
X148771428Y-92695238D01*
X148866666Y-92790476D01*
X148961904Y-92838095D01*
%TD*%
M02*
