%TF.GenerationSoftware,KiCad,Pcbnew,5.1.9+dfsg1-1+deb11u1*%
%TF.CreationDate,2022-11-29T12:23:15+01:00*%
%TF.ProjectId,A600MPU-Adapter,41363030-4d50-4552-9d41-646170746572,2.0*%
%TF.SameCoordinates,Original*%
%TF.FileFunction,Paste,Top*%
%TF.FilePolarity,Positive*%
%FSLAX46Y46*%
G04 Gerber Fmt 4.6, Leading zero omitted, Abs format (unit mm)*
G04 Created by KiCad (PCBNEW 5.1.9+dfsg1-1+deb11u1) date 2022-11-29 12:23:15*
%MOMM*%
%LPD*%
G01*
G04 APERTURE LIST*
G04 APERTURE END LIST*
%TO.C,D1*%
G36*
G01*
X171975000Y-118725000D02*
X171975000Y-117475000D01*
G75*
G02*
X172225000Y-117225000I250000J0D01*
G01*
X173150000Y-117225000D01*
G75*
G02*
X173400000Y-117475000I0J-250000D01*
G01*
X173400000Y-118725000D01*
G75*
G02*
X173150000Y-118975000I-250000J0D01*
G01*
X172225000Y-118975000D01*
G75*
G02*
X171975000Y-118725000I0J250000D01*
G01*
G37*
G36*
G01*
X169000000Y-118725000D02*
X169000000Y-117475000D01*
G75*
G02*
X169250000Y-117225000I250000J0D01*
G01*
X170175000Y-117225000D01*
G75*
G02*
X170425000Y-117475000I0J-250000D01*
G01*
X170425000Y-118725000D01*
G75*
G02*
X170175000Y-118975000I-250000J0D01*
G01*
X169250000Y-118975000D01*
G75*
G02*
X169000000Y-118725000I0J250000D01*
G01*
G37*
%TD*%
%TO.C,C1*%
G36*
G01*
X143825000Y-113455001D02*
X143825000Y-112604999D01*
G75*
G02*
X144074999Y-112355000I249999J0D01*
G01*
X145150001Y-112355000D01*
G75*
G02*
X145400000Y-112604999I0J-249999D01*
G01*
X145400000Y-113455001D01*
G75*
G02*
X145150001Y-113705000I-249999J0D01*
G01*
X144074999Y-113705000D01*
G75*
G02*
X143825000Y-113455001I0J249999D01*
G01*
G37*
G36*
G01*
X146700000Y-113455001D02*
X146700000Y-112604999D01*
G75*
G02*
X146949999Y-112355000I249999J0D01*
G01*
X148025001Y-112355000D01*
G75*
G02*
X148275000Y-112604999I0J-249999D01*
G01*
X148275000Y-113455001D01*
G75*
G02*
X148025001Y-113705000I-249999J0D01*
G01*
X146949999Y-113705000D01*
G75*
G02*
X146700000Y-113455001I0J249999D01*
G01*
G37*
%TD*%
%TO.C,C2*%
G36*
G01*
X149545000Y-117459998D02*
X149545000Y-118760002D01*
G75*
G02*
X149295002Y-119010000I-249998J0D01*
G01*
X148469998Y-119010000D01*
G75*
G02*
X148220000Y-118760002I0J249998D01*
G01*
X148220000Y-117459998D01*
G75*
G02*
X148469998Y-117210000I249998J0D01*
G01*
X149295002Y-117210000D01*
G75*
G02*
X149545000Y-117459998I0J-249998D01*
G01*
G37*
G36*
G01*
X146420000Y-117459998D02*
X146420000Y-118760002D01*
G75*
G02*
X146170002Y-119010000I-249998J0D01*
G01*
X145344998Y-119010000D01*
G75*
G02*
X145095000Y-118760002I0J249998D01*
G01*
X145095000Y-117459998D01*
G75*
G02*
X145344998Y-117210000I249998J0D01*
G01*
X146170002Y-117210000D01*
G75*
G02*
X146420000Y-117459998I0J-249998D01*
G01*
G37*
%TD*%
%TO.C,C3*%
G36*
G01*
X146700000Y-107105001D02*
X146700000Y-106254999D01*
G75*
G02*
X146949999Y-106005000I249999J0D01*
G01*
X148025001Y-106005000D01*
G75*
G02*
X148275000Y-106254999I0J-249999D01*
G01*
X148275000Y-107105001D01*
G75*
G02*
X148025001Y-107355000I-249999J0D01*
G01*
X146949999Y-107355000D01*
G75*
G02*
X146700000Y-107105001I0J249999D01*
G01*
G37*
G36*
G01*
X143825000Y-107105001D02*
X143825000Y-106254999D01*
G75*
G02*
X144074999Y-106005000I249999J0D01*
G01*
X145150001Y-106005000D01*
G75*
G02*
X145400000Y-106254999I0J-249999D01*
G01*
X145400000Y-107105001D01*
G75*
G02*
X145150001Y-107355000I-249999J0D01*
G01*
X144074999Y-107355000D01*
G75*
G02*
X143825000Y-107105001I0J249999D01*
G01*
G37*
%TD*%
%TO.C,R1*%
G36*
G01*
X165200000Y-117474999D02*
X165200000Y-118725001D01*
G75*
G02*
X164950001Y-118975000I-249999J0D01*
G01*
X164149999Y-118975000D01*
G75*
G02*
X163900000Y-118725001I0J249999D01*
G01*
X163900000Y-117474999D01*
G75*
G02*
X164149999Y-117225000I249999J0D01*
G01*
X164950001Y-117225000D01*
G75*
G02*
X165200000Y-117474999I0J-249999D01*
G01*
G37*
G36*
G01*
X162100000Y-117474999D02*
X162100000Y-118725001D01*
G75*
G02*
X161850001Y-118975000I-249999J0D01*
G01*
X161049999Y-118975000D01*
G75*
G02*
X160800000Y-118725001I0J249999D01*
G01*
X160800000Y-117474999D01*
G75*
G02*
X161049999Y-117225000I249999J0D01*
G01*
X161850001Y-117225000D01*
G75*
G02*
X162100000Y-117474999I0J-249999D01*
G01*
G37*
%TD*%
%TO.C,C4*%
G36*
G01*
X151175000Y-118750002D02*
X151175000Y-117449998D01*
G75*
G02*
X151424998Y-117200000I249998J0D01*
G01*
X152250002Y-117200000D01*
G75*
G02*
X152500000Y-117449998I0J-249998D01*
G01*
X152500000Y-118750002D01*
G75*
G02*
X152250002Y-119000000I-249998J0D01*
G01*
X151424998Y-119000000D01*
G75*
G02*
X151175000Y-118750002I0J249998D01*
G01*
G37*
G36*
G01*
X154300000Y-118750002D02*
X154300000Y-117449998D01*
G75*
G02*
X154549998Y-117200000I249998J0D01*
G01*
X155375002Y-117200000D01*
G75*
G02*
X155625000Y-117449998I0J-249998D01*
G01*
X155625000Y-118750002D01*
G75*
G02*
X155375002Y-119000000I-249998J0D01*
G01*
X154549998Y-119000000D01*
G75*
G02*
X154300000Y-118750002I0J249998D01*
G01*
G37*
%TD*%
M02*
