%TF.GenerationSoftware,KiCad,Pcbnew,5.1.9+dfsg1-1+deb11u1*%
%TF.CreationDate,2026-02-20T14:02:03+01:00*%
%TF.ProjectId,A600MPU-Adapter,41363030-4d50-4552-9d41-646170746572,3.0*%
%TF.SameCoordinates,Original*%
%TF.FileFunction,Copper,L2,Bot*%
%TF.FilePolarity,Positive*%
%FSLAX46Y46*%
G04 Gerber Fmt 4.6, Leading zero omitted, Abs format (unit mm)*
G04 Created by KiCad (PCBNEW 5.1.9+dfsg1-1+deb11u1) date 2026-02-20 14:02:03*
%MOMM*%
%LPD*%
G01*
G04 APERTURE LIST*
%TA.AperFunction,NonConductor*%
%ADD10C,0.150000*%
%TD*%
%TA.AperFunction,ComponentPad*%
%ADD11O,1.700000X1.700000*%
%TD*%
%TA.AperFunction,ComponentPad*%
%ADD12R,1.700000X1.700000*%
%TD*%
%TA.AperFunction,ComponentPad*%
%ADD13C,1.700000*%
%TD*%
%TA.AperFunction,ComponentPad*%
%ADD14R,1.422400X1.422400*%
%TD*%
%TA.AperFunction,ComponentPad*%
%ADD15C,1.422400*%
%TD*%
%TA.AperFunction,ViaPad*%
%ADD16C,0.600000*%
%TD*%
%TA.AperFunction,Conductor*%
%ADD17C,0.500000*%
%TD*%
%TA.AperFunction,Conductor*%
%ADD18C,0.250000*%
%TD*%
%TA.AperFunction,Conductor*%
%ADD19C,0.254000*%
%TD*%
%TA.AperFunction,Conductor*%
%ADD20C,0.100000*%
%TD*%
%TA.AperFunction,Conductor*%
%ADD21C,0.025400*%
%TD*%
G04 APERTURE END LIST*
D10*
X151323809Y-117852380D02*
X151323809Y-118661904D01*
X151276190Y-118757142D01*
X151228571Y-118804761D01*
X151133333Y-118852380D01*
X150942857Y-118852380D01*
X150847619Y-118804761D01*
X150800000Y-118757142D01*
X150752380Y-118661904D01*
X150752380Y-117852380D01*
X149752380Y-118852380D02*
X150323809Y-118852380D01*
X150038095Y-118852380D02*
X150038095Y-117852380D01*
X150133333Y-117995238D01*
X150228571Y-118090476D01*
X150323809Y-118138095D01*
X149419047Y-117852380D02*
X148800000Y-117852380D01*
X149133333Y-118233333D01*
X148990476Y-118233333D01*
X148895238Y-118280952D01*
X148847619Y-118328571D01*
X148800000Y-118423809D01*
X148800000Y-118661904D01*
X148847619Y-118757142D01*
X148895238Y-118804761D01*
X148990476Y-118852380D01*
X149276190Y-118852380D01*
X149371428Y-118804761D01*
X149419047Y-118757142D01*
X147180952Y-117852380D02*
X147371428Y-117852380D01*
X147466666Y-117900000D01*
X147514285Y-117947619D01*
X147609523Y-118090476D01*
X147657142Y-118280952D01*
X147657142Y-118661904D01*
X147609523Y-118757142D01*
X147561904Y-118804761D01*
X147466666Y-118852380D01*
X147276190Y-118852380D01*
X147180952Y-118804761D01*
X147133333Y-118757142D01*
X147085714Y-118661904D01*
X147085714Y-118423809D01*
X147133333Y-118328571D01*
X147180952Y-118280952D01*
X147276190Y-118233333D01*
X147466666Y-118233333D01*
X147561904Y-118280952D01*
X147609523Y-118328571D01*
X147657142Y-118423809D01*
X146180952Y-117852380D02*
X146657142Y-117852380D01*
X146704761Y-118328571D01*
X146657142Y-118280952D01*
X146561904Y-118233333D01*
X146323809Y-118233333D01*
X146228571Y-118280952D01*
X146180952Y-118328571D01*
X146133333Y-118423809D01*
X146133333Y-118661904D01*
X146180952Y-118757142D01*
X146228571Y-118804761D01*
X146323809Y-118852380D01*
X146561904Y-118852380D01*
X146657142Y-118804761D01*
X146704761Y-118757142D01*
X145800000Y-117852380D02*
X145133333Y-117852380D01*
X145561904Y-118852380D01*
X144561904Y-117852380D02*
X144466666Y-117852380D01*
X144371428Y-117900000D01*
X144323809Y-117947619D01*
X144276190Y-118042857D01*
X144228571Y-118233333D01*
X144228571Y-118471428D01*
X144276190Y-118661904D01*
X144323809Y-118757142D01*
X144371428Y-118804761D01*
X144466666Y-118852380D01*
X144561904Y-118852380D01*
X144657142Y-118804761D01*
X144704761Y-118757142D01*
X144752380Y-118661904D01*
X144800000Y-118471428D01*
X144800000Y-118233333D01*
X144752380Y-118042857D01*
X144704761Y-117947619D01*
X144657142Y-117900000D01*
X144561904Y-117852380D01*
D11*
%TO.P,P2,3*%
%TO.N,~TRESET*%
X146000000Y-100280000D03*
%TO.P,P2,2*%
%TO.N,KBD_RESET*%
X146000000Y-97740000D03*
D12*
%TO.P,P2,1*%
%TO.N,~RST*%
X146000000Y-95200000D03*
%TD*%
D13*
%TO.P,P1,6*%
%TO.N,VCC*%
X163840000Y-106680000D03*
%TO.P,P1,4*%
%TO.N,GND*%
X163840000Y-104140000D03*
%TO.P,P1,2*%
%TO.N,KBD_DATA*%
X163840000Y-101600000D03*
%TO.P,P1,5*%
%TO.N,KBD_RESET*%
X161300000Y-106680000D03*
%TO.P,P1,3*%
%TO.N,GND*%
X161300000Y-104140000D03*
%TO.P,P1,1*%
%TO.N,KBD_CLOCK*%
%TA.AperFunction,ComponentPad*%
G36*
G01*
X160450000Y-102200000D02*
X160450000Y-101000000D01*
G75*
G02*
X160700000Y-100750000I250000J0D01*
G01*
X161900000Y-100750000D01*
G75*
G02*
X162150000Y-101000000I0J-250000D01*
G01*
X162150000Y-102200000D01*
G75*
G02*
X161900000Y-102450000I-250000J0D01*
G01*
X160700000Y-102450000D01*
G75*
G02*
X160450000Y-102200000I0J250000D01*
G01*
G37*
%TD.AperFunction*%
%TD*%
D14*
%TO.P,U1,1*%
%TO.N,N/C*%
X161500000Y-97600000D03*
D15*
%TO.P,U1,3*%
X164040000Y-97600000D03*
%TO.P,U1,5*%
X166580000Y-97600000D03*
%TO.P,U1,43*%
X158960000Y-97600000D03*
%TO.P,U1,41*%
X156420000Y-97600000D03*
%TO.P,U1,2*%
X164040000Y-95060000D03*
%TO.P,U1,4*%
X166580000Y-95060000D03*
%TO.P,U1,6*%
X169120000Y-95060000D03*
%TO.P,U1,44*%
%TO.N,GND*%
X161500000Y-95060000D03*
%TO.P,U1,42*%
%TO.N,N/C*%
X158960000Y-95060000D03*
%TO.P,U1,8*%
X169120000Y-97600000D03*
%TO.P,U1,10*%
X169120000Y-100140000D03*
%TO.P,U1,12*%
%TO.N,VCC*%
X169120000Y-102680000D03*
%TO.P,U1,14*%
%TO.N,~TRESET*%
X169120000Y-105220000D03*
%TO.P,U1,16*%
%TO.N,KBD_CLOCK*%
X169120000Y-107760000D03*
%TO.P,U1,7*%
%TO.N,N/C*%
X171660000Y-97600000D03*
%TO.P,U1,9*%
X171660000Y-100140000D03*
%TO.P,U1,11*%
X171660000Y-102680000D03*
%TO.P,U1,13*%
X171660000Y-105220000D03*
%TO.P,U1,15*%
%TO.N,KBD_DATA*%
X171660000Y-107760000D03*
%TO.P,U1,17*%
%TO.N,N/C*%
X171660000Y-110300000D03*
%TO.P,U1,19*%
X169120000Y-110300000D03*
%TO.P,U1,21*%
X166580000Y-110300000D03*
%TO.P,U1,23*%
%TO.N,~RST*%
X164040000Y-110300000D03*
%TO.P,U1,25*%
%TO.N,N/C*%
X161500000Y-110300000D03*
%TO.P,U1,27*%
X158960000Y-110300000D03*
%TO.P,U1,29*%
X153880000Y-110300000D03*
%TO.P,U1,18*%
X169120000Y-112840000D03*
%TO.P,U1,20*%
X166580000Y-112840000D03*
%TO.P,U1,22*%
X164040000Y-112840000D03*
%TO.P,U1,24*%
%TO.N,VCC*%
X161500000Y-112840000D03*
%TO.P,U1,26*%
%TO.N,N/C*%
X158960000Y-112840000D03*
%TO.P,U1,28*%
X156420000Y-112840000D03*
%TO.P,U1,30*%
X156420000Y-110300000D03*
%TO.P,U1,32*%
X156420000Y-107760000D03*
%TO.P,U1,34*%
X156420000Y-105220000D03*
%TO.P,U1,36*%
X156420000Y-102680000D03*
%TO.P,U1,38*%
X156420000Y-100140000D03*
%TO.P,U1,40*%
X156420000Y-95060000D03*
%TO.P,U1,31*%
X153880000Y-107760000D03*
%TO.P,U1,33*%
%TO.N,VCC*%
X153880000Y-105220000D03*
%TO.P,U1,35*%
%TO.N,N/C*%
X153880000Y-102680000D03*
%TO.P,U1,37*%
X153880000Y-100140000D03*
%TO.P,U1,39*%
X153880000Y-97600000D03*
%TD*%
D16*
%TO.N,GND*%
X149000000Y-113100000D03*
X144263037Y-117314643D03*
%TD*%
D17*
%TO.N,VCC*%
X152780000Y-105220000D02*
X153880000Y-105220000D01*
X152400000Y-105600000D02*
X152780000Y-105220000D01*
X153800000Y-114200000D02*
X152400000Y-112800000D01*
X152400000Y-112800000D02*
X152400000Y-105600000D01*
X161200000Y-114200000D02*
X153800000Y-114200000D01*
X161500000Y-113900000D02*
X161200000Y-114200000D01*
X161500000Y-112840000D02*
X161500000Y-113900000D01*
D18*
%TO.N,~RST*%
X146800000Y-95200000D02*
X146000000Y-95200000D01*
X147175001Y-95575001D02*
X146800000Y-95200000D01*
X147175001Y-103175001D02*
X147175001Y-95575001D01*
X154700000Y-103900000D02*
X147900000Y-103900000D01*
X147900000Y-103900000D02*
X147175001Y-103175001D01*
X155700000Y-106500000D02*
X155100000Y-105900000D01*
X159663799Y-109263799D02*
X156900000Y-106500000D01*
X163003799Y-109263799D02*
X159663799Y-109263799D01*
X155100000Y-104300000D02*
X154700000Y-103900000D01*
X155100000Y-105900000D02*
X155100000Y-104300000D01*
X156900000Y-106500000D02*
X155700000Y-106500000D01*
X164040000Y-110300000D02*
X163003799Y-109263799D01*
%TO.N,KBD_CLOCK*%
X159700000Y-101600000D02*
X161300000Y-101600000D01*
X159100000Y-107900000D02*
X159100000Y-102200000D01*
X159671199Y-108471199D02*
X159100000Y-107900000D01*
X168408801Y-108471199D02*
X159671199Y-108471199D01*
X159100000Y-102200000D02*
X159700000Y-101600000D01*
X169120000Y-107760000D02*
X168408801Y-108471199D01*
%TO.N,KBD_DATA*%
X164040000Y-101400000D02*
X163840000Y-101600000D01*
X169700000Y-101400000D02*
X164040000Y-101400000D01*
X170400000Y-102100000D02*
X169700000Y-101400000D01*
X170400000Y-106500000D02*
X170400000Y-102100000D01*
X171660000Y-107760000D02*
X170400000Y-106500000D01*
%TO.N,~TRESET*%
X169120000Y-106020000D02*
X169120000Y-105220000D01*
X169724990Y-114775010D02*
X170400000Y-114100000D01*
X151675010Y-114775010D02*
X169724990Y-114775010D01*
X170400000Y-114100000D02*
X170400000Y-107300000D01*
X146000000Y-109100000D02*
X151675010Y-114775010D01*
X170400000Y-107300000D02*
X169120000Y-106020000D01*
X146000000Y-100280000D02*
X146000000Y-109100000D01*
%TD*%
D19*
%TO.N,GND*%
X174550001Y-119940000D02*
X142950000Y-119940000D01*
X142950000Y-117007500D01*
X143328095Y-117007500D01*
X143328095Y-119927500D01*
X152271905Y-119927500D01*
X152271905Y-117007500D01*
X143328095Y-117007500D01*
X142950000Y-117007500D01*
X142950000Y-94350000D01*
X144511928Y-94350000D01*
X144511928Y-96050000D01*
X144524188Y-96174482D01*
X144560498Y-96294180D01*
X144619463Y-96404494D01*
X144698815Y-96501185D01*
X144795506Y-96580537D01*
X144905820Y-96639502D01*
X144978380Y-96661513D01*
X144846525Y-96793368D01*
X144684010Y-97036589D01*
X144572068Y-97306842D01*
X144515000Y-97593740D01*
X144515000Y-97886260D01*
X144572068Y-98173158D01*
X144684010Y-98443411D01*
X144846525Y-98686632D01*
X145053368Y-98893475D01*
X145227760Y-99010000D01*
X145053368Y-99126525D01*
X144846525Y-99333368D01*
X144684010Y-99576589D01*
X144572068Y-99846842D01*
X144515000Y-100133740D01*
X144515000Y-100426260D01*
X144572068Y-100713158D01*
X144684010Y-100983411D01*
X144734077Y-101058341D01*
X144763887Y-101113049D01*
X144794125Y-101162940D01*
X144882548Y-101294767D01*
X144908732Y-101330981D01*
X144996494Y-101443778D01*
X145009425Y-101459852D01*
X145090065Y-101556824D01*
X145149925Y-101631641D01*
X145184139Y-101681766D01*
X145203298Y-101719100D01*
X145218627Y-101764775D01*
X145232593Y-101843040D01*
X145240000Y-101986397D01*
X145240001Y-109062668D01*
X145236324Y-109100000D01*
X145240001Y-109137333D01*
X145250998Y-109248986D01*
X145264180Y-109292442D01*
X145294454Y-109392246D01*
X145365026Y-109524276D01*
X145425333Y-109597759D01*
X145460000Y-109640001D01*
X145488998Y-109663799D01*
X151111211Y-115286013D01*
X151135009Y-115315011D01*
X151164007Y-115338809D01*
X151250733Y-115409984D01*
X151382763Y-115480556D01*
X151526024Y-115524013D01*
X151637677Y-115535010D01*
X151637686Y-115535010D01*
X151675009Y-115538686D01*
X151712332Y-115535010D01*
X169687668Y-115535010D01*
X169724990Y-115538686D01*
X169762312Y-115535010D01*
X169762323Y-115535010D01*
X169873976Y-115524013D01*
X170017237Y-115480556D01*
X170149266Y-115409984D01*
X170264991Y-115315011D01*
X170288793Y-115286008D01*
X170911004Y-114663798D01*
X170940001Y-114640001D01*
X171034974Y-114524276D01*
X171105546Y-114392247D01*
X171149003Y-114248986D01*
X171160000Y-114137333D01*
X171160000Y-114137324D01*
X171163676Y-114100001D01*
X171160000Y-114062678D01*
X171160000Y-111550010D01*
X171267328Y-111594467D01*
X171527411Y-111646200D01*
X171792589Y-111646200D01*
X172052672Y-111594467D01*
X172297665Y-111492987D01*
X172518153Y-111345662D01*
X172705662Y-111158153D01*
X172852987Y-110937665D01*
X172954467Y-110692672D01*
X173006200Y-110432589D01*
X173006200Y-110167411D01*
X172954467Y-109907328D01*
X172852987Y-109662335D01*
X172705662Y-109441847D01*
X172518153Y-109254338D01*
X172297665Y-109107013D01*
X172111740Y-109030000D01*
X172297665Y-108952987D01*
X172518153Y-108805662D01*
X172705662Y-108618153D01*
X172852987Y-108397665D01*
X172954467Y-108152672D01*
X173006200Y-107892589D01*
X173006200Y-107627411D01*
X172954467Y-107367328D01*
X172852987Y-107122335D01*
X172705662Y-106901847D01*
X172518153Y-106714338D01*
X172297665Y-106567013D01*
X172111740Y-106490000D01*
X172297665Y-106412987D01*
X172518153Y-106265662D01*
X172705662Y-106078153D01*
X172852987Y-105857665D01*
X172954467Y-105612672D01*
X173006200Y-105352589D01*
X173006200Y-105087411D01*
X172954467Y-104827328D01*
X172852987Y-104582335D01*
X172705662Y-104361847D01*
X172518153Y-104174338D01*
X172297665Y-104027013D01*
X172111740Y-103950000D01*
X172297665Y-103872987D01*
X172518153Y-103725662D01*
X172705662Y-103538153D01*
X172852987Y-103317665D01*
X172954467Y-103072672D01*
X173006200Y-102812589D01*
X173006200Y-102547411D01*
X172954467Y-102287328D01*
X172852987Y-102042335D01*
X172705662Y-101821847D01*
X172518153Y-101634338D01*
X172297665Y-101487013D01*
X172111740Y-101410000D01*
X172297665Y-101332987D01*
X172518153Y-101185662D01*
X172705662Y-100998153D01*
X172852987Y-100777665D01*
X172954467Y-100532672D01*
X173006200Y-100272589D01*
X173006200Y-100007411D01*
X172954467Y-99747328D01*
X172852987Y-99502335D01*
X172705662Y-99281847D01*
X172518153Y-99094338D01*
X172297665Y-98947013D01*
X172111740Y-98870000D01*
X172297665Y-98792987D01*
X172518153Y-98645662D01*
X172705662Y-98458153D01*
X172852987Y-98237665D01*
X172954467Y-97992672D01*
X173006200Y-97732589D01*
X173006200Y-97467411D01*
X172954467Y-97207328D01*
X172852987Y-96962335D01*
X172705662Y-96741847D01*
X172518153Y-96554338D01*
X172297665Y-96407013D01*
X172052672Y-96305533D01*
X171792589Y-96253800D01*
X171527411Y-96253800D01*
X171267328Y-96305533D01*
X171022335Y-96407013D01*
X170801847Y-96554338D01*
X170614338Y-96741847D01*
X170467013Y-96962335D01*
X170390000Y-97148260D01*
X170312987Y-96962335D01*
X170165662Y-96741847D01*
X169978153Y-96554338D01*
X169757665Y-96407013D01*
X169571740Y-96330000D01*
X169757665Y-96252987D01*
X169978153Y-96105662D01*
X170165662Y-95918153D01*
X170312987Y-95697665D01*
X170414467Y-95452672D01*
X170466200Y-95192589D01*
X170466200Y-94927411D01*
X170414467Y-94667328D01*
X170312987Y-94422335D01*
X170165662Y-94201847D01*
X169978153Y-94014338D01*
X169757665Y-93867013D01*
X169512672Y-93765533D01*
X169252589Y-93713800D01*
X168987411Y-93713800D01*
X168727328Y-93765533D01*
X168482335Y-93867013D01*
X168261847Y-94014338D01*
X168074338Y-94201847D01*
X167927013Y-94422335D01*
X167850000Y-94608260D01*
X167772987Y-94422335D01*
X167625662Y-94201847D01*
X167438153Y-94014338D01*
X167217665Y-93867013D01*
X166972672Y-93765533D01*
X166712589Y-93713800D01*
X166447411Y-93713800D01*
X166187328Y-93765533D01*
X165942335Y-93867013D01*
X165721847Y-94014338D01*
X165534338Y-94201847D01*
X165387013Y-94422335D01*
X165310000Y-94608260D01*
X165232987Y-94422335D01*
X165085662Y-94201847D01*
X164898153Y-94014338D01*
X164677665Y-93867013D01*
X164432672Y-93765533D01*
X164172589Y-93713800D01*
X163907411Y-93713800D01*
X163647328Y-93765533D01*
X163402335Y-93867013D01*
X163181847Y-94014338D01*
X162994338Y-94201847D01*
X162847013Y-94422335D01*
X162769031Y-94610600D01*
X162719542Y-94474720D01*
X162664183Y-94371152D01*
X162429273Y-94310332D01*
X161679605Y-95060000D01*
X162429273Y-95809668D01*
X162664183Y-95748848D01*
X162772206Y-95517066D01*
X162847013Y-95697665D01*
X162994338Y-95918153D01*
X163181847Y-96105662D01*
X163402335Y-96252987D01*
X163588260Y-96330000D01*
X163402335Y-96407013D01*
X163181847Y-96554338D01*
X162994338Y-96741847D01*
X162849272Y-96958954D01*
X162849272Y-96888800D01*
X162837012Y-96764318D01*
X162800702Y-96644620D01*
X162741737Y-96534306D01*
X162662385Y-96437615D01*
X162565694Y-96358263D01*
X162455380Y-96299298D01*
X162335682Y-96262988D01*
X162211200Y-96250728D01*
X162139186Y-96250728D01*
X162188848Y-96224183D01*
X162249668Y-95989273D01*
X161500000Y-95239605D01*
X160750332Y-95989273D01*
X160811152Y-96224183D01*
X160868109Y-96250728D01*
X160788800Y-96250728D01*
X160664318Y-96262988D01*
X160544620Y-96299298D01*
X160434306Y-96358263D01*
X160337615Y-96437615D01*
X160258263Y-96534306D01*
X160199298Y-96644620D01*
X160162988Y-96764318D01*
X160150728Y-96888800D01*
X160150728Y-96958954D01*
X160005662Y-96741847D01*
X159818153Y-96554338D01*
X159597665Y-96407013D01*
X159411740Y-96330000D01*
X159597665Y-96252987D01*
X159818153Y-96105662D01*
X160005662Y-95918153D01*
X160152987Y-95697665D01*
X160230969Y-95509400D01*
X160280458Y-95645280D01*
X160335817Y-95748848D01*
X160570727Y-95809668D01*
X161320395Y-95060000D01*
X160570727Y-94310332D01*
X160335817Y-94371152D01*
X160227794Y-94602934D01*
X160152987Y-94422335D01*
X160005662Y-94201847D01*
X159934542Y-94130727D01*
X160750332Y-94130727D01*
X161500000Y-94880395D01*
X162249668Y-94130727D01*
X162188848Y-93895817D01*
X161948491Y-93783798D01*
X161690898Y-93720824D01*
X161425970Y-93709313D01*
X161163887Y-93749709D01*
X160914720Y-93840458D01*
X160811152Y-93895817D01*
X160750332Y-94130727D01*
X159934542Y-94130727D01*
X159818153Y-94014338D01*
X159597665Y-93867013D01*
X159352672Y-93765533D01*
X159092589Y-93713800D01*
X158827411Y-93713800D01*
X158567328Y-93765533D01*
X158322335Y-93867013D01*
X158101847Y-94014338D01*
X157914338Y-94201847D01*
X157767013Y-94422335D01*
X157690000Y-94608260D01*
X157612987Y-94422335D01*
X157465662Y-94201847D01*
X157278153Y-94014338D01*
X157057665Y-93867013D01*
X156812672Y-93765533D01*
X156552589Y-93713800D01*
X156287411Y-93713800D01*
X156027328Y-93765533D01*
X155782335Y-93867013D01*
X155561847Y-94014338D01*
X155374338Y-94201847D01*
X155227013Y-94422335D01*
X155125533Y-94667328D01*
X155073800Y-94927411D01*
X155073800Y-95192589D01*
X155125533Y-95452672D01*
X155227013Y-95697665D01*
X155374338Y-95918153D01*
X155561847Y-96105662D01*
X155782335Y-96252987D01*
X155968260Y-96330000D01*
X155782335Y-96407013D01*
X155561847Y-96554338D01*
X155374338Y-96741847D01*
X155227013Y-96962335D01*
X155150000Y-97148260D01*
X155072987Y-96962335D01*
X154925662Y-96741847D01*
X154738153Y-96554338D01*
X154517665Y-96407013D01*
X154272672Y-96305533D01*
X154012589Y-96253800D01*
X153747411Y-96253800D01*
X153487328Y-96305533D01*
X153242335Y-96407013D01*
X153021847Y-96554338D01*
X152834338Y-96741847D01*
X152687013Y-96962335D01*
X152585533Y-97207328D01*
X152533800Y-97467411D01*
X152533800Y-97732589D01*
X152585533Y-97992672D01*
X152687013Y-98237665D01*
X152834338Y-98458153D01*
X153021847Y-98645662D01*
X153242335Y-98792987D01*
X153428260Y-98870000D01*
X153242335Y-98947013D01*
X153021847Y-99094338D01*
X152834338Y-99281847D01*
X152687013Y-99502335D01*
X152585533Y-99747328D01*
X152533800Y-100007411D01*
X152533800Y-100272589D01*
X152585533Y-100532672D01*
X152687013Y-100777665D01*
X152834338Y-100998153D01*
X153021847Y-101185662D01*
X153242335Y-101332987D01*
X153428260Y-101410000D01*
X153242335Y-101487013D01*
X153021847Y-101634338D01*
X152834338Y-101821847D01*
X152687013Y-102042335D01*
X152585533Y-102287328D01*
X152533800Y-102547411D01*
X152533800Y-102812589D01*
X152585533Y-103072672D01*
X152613421Y-103140000D01*
X148214802Y-103140000D01*
X147935001Y-102860199D01*
X147935001Y-95612334D01*
X147938678Y-95575001D01*
X147924004Y-95426015D01*
X147880547Y-95282754D01*
X147832352Y-95192589D01*
X147809975Y-95150725D01*
X147715002Y-95035000D01*
X147685998Y-95011197D01*
X147488072Y-94813271D01*
X147488072Y-94350000D01*
X147475812Y-94225518D01*
X147439502Y-94105820D01*
X147380537Y-93995506D01*
X147301185Y-93898815D01*
X147204494Y-93819463D01*
X147094180Y-93760498D01*
X146974482Y-93724188D01*
X146850000Y-93711928D01*
X145150000Y-93711928D01*
X145025518Y-93724188D01*
X144905820Y-93760498D01*
X144795506Y-93819463D01*
X144698815Y-93898815D01*
X144619463Y-93995506D01*
X144560498Y-94105820D01*
X144524188Y-94225518D01*
X144511928Y-94350000D01*
X142950000Y-94350000D01*
X142950000Y-92150000D01*
X174550000Y-92150000D01*
X174550001Y-119940000D01*
%TA.AperFunction,Conductor*%
D20*
G36*
X174550001Y-119940000D02*
G01*
X142950000Y-119940000D01*
X142950000Y-117007500D01*
X143328095Y-117007500D01*
X143328095Y-119927500D01*
X152271905Y-119927500D01*
X152271905Y-117007500D01*
X143328095Y-117007500D01*
X142950000Y-117007500D01*
X142950000Y-94350000D01*
X144511928Y-94350000D01*
X144511928Y-96050000D01*
X144524188Y-96174482D01*
X144560498Y-96294180D01*
X144619463Y-96404494D01*
X144698815Y-96501185D01*
X144795506Y-96580537D01*
X144905820Y-96639502D01*
X144978380Y-96661513D01*
X144846525Y-96793368D01*
X144684010Y-97036589D01*
X144572068Y-97306842D01*
X144515000Y-97593740D01*
X144515000Y-97886260D01*
X144572068Y-98173158D01*
X144684010Y-98443411D01*
X144846525Y-98686632D01*
X145053368Y-98893475D01*
X145227760Y-99010000D01*
X145053368Y-99126525D01*
X144846525Y-99333368D01*
X144684010Y-99576589D01*
X144572068Y-99846842D01*
X144515000Y-100133740D01*
X144515000Y-100426260D01*
X144572068Y-100713158D01*
X144684010Y-100983411D01*
X144734077Y-101058341D01*
X144763887Y-101113049D01*
X144794125Y-101162940D01*
X144882548Y-101294767D01*
X144908732Y-101330981D01*
X144996494Y-101443778D01*
X145009425Y-101459852D01*
X145090065Y-101556824D01*
X145149925Y-101631641D01*
X145184139Y-101681766D01*
X145203298Y-101719100D01*
X145218627Y-101764775D01*
X145232593Y-101843040D01*
X145240000Y-101986397D01*
X145240001Y-109062668D01*
X145236324Y-109100000D01*
X145240001Y-109137333D01*
X145250998Y-109248986D01*
X145264180Y-109292442D01*
X145294454Y-109392246D01*
X145365026Y-109524276D01*
X145425333Y-109597759D01*
X145460000Y-109640001D01*
X145488998Y-109663799D01*
X151111211Y-115286013D01*
X151135009Y-115315011D01*
X151164007Y-115338809D01*
X151250733Y-115409984D01*
X151382763Y-115480556D01*
X151526024Y-115524013D01*
X151637677Y-115535010D01*
X151637686Y-115535010D01*
X151675009Y-115538686D01*
X151712332Y-115535010D01*
X169687668Y-115535010D01*
X169724990Y-115538686D01*
X169762312Y-115535010D01*
X169762323Y-115535010D01*
X169873976Y-115524013D01*
X170017237Y-115480556D01*
X170149266Y-115409984D01*
X170264991Y-115315011D01*
X170288793Y-115286008D01*
X170911004Y-114663798D01*
X170940001Y-114640001D01*
X171034974Y-114524276D01*
X171105546Y-114392247D01*
X171149003Y-114248986D01*
X171160000Y-114137333D01*
X171160000Y-114137324D01*
X171163676Y-114100001D01*
X171160000Y-114062678D01*
X171160000Y-111550010D01*
X171267328Y-111594467D01*
X171527411Y-111646200D01*
X171792589Y-111646200D01*
X172052672Y-111594467D01*
X172297665Y-111492987D01*
X172518153Y-111345662D01*
X172705662Y-111158153D01*
X172852987Y-110937665D01*
X172954467Y-110692672D01*
X173006200Y-110432589D01*
X173006200Y-110167411D01*
X172954467Y-109907328D01*
X172852987Y-109662335D01*
X172705662Y-109441847D01*
X172518153Y-109254338D01*
X172297665Y-109107013D01*
X172111740Y-109030000D01*
X172297665Y-108952987D01*
X172518153Y-108805662D01*
X172705662Y-108618153D01*
X172852987Y-108397665D01*
X172954467Y-108152672D01*
X173006200Y-107892589D01*
X173006200Y-107627411D01*
X172954467Y-107367328D01*
X172852987Y-107122335D01*
X172705662Y-106901847D01*
X172518153Y-106714338D01*
X172297665Y-106567013D01*
X172111740Y-106490000D01*
X172297665Y-106412987D01*
X172518153Y-106265662D01*
X172705662Y-106078153D01*
X172852987Y-105857665D01*
X172954467Y-105612672D01*
X173006200Y-105352589D01*
X173006200Y-105087411D01*
X172954467Y-104827328D01*
X172852987Y-104582335D01*
X172705662Y-104361847D01*
X172518153Y-104174338D01*
X172297665Y-104027013D01*
X172111740Y-103950000D01*
X172297665Y-103872987D01*
X172518153Y-103725662D01*
X172705662Y-103538153D01*
X172852987Y-103317665D01*
X172954467Y-103072672D01*
X173006200Y-102812589D01*
X173006200Y-102547411D01*
X172954467Y-102287328D01*
X172852987Y-102042335D01*
X172705662Y-101821847D01*
X172518153Y-101634338D01*
X172297665Y-101487013D01*
X172111740Y-101410000D01*
X172297665Y-101332987D01*
X172518153Y-101185662D01*
X172705662Y-100998153D01*
X172852987Y-100777665D01*
X172954467Y-100532672D01*
X173006200Y-100272589D01*
X173006200Y-100007411D01*
X172954467Y-99747328D01*
X172852987Y-99502335D01*
X172705662Y-99281847D01*
X172518153Y-99094338D01*
X172297665Y-98947013D01*
X172111740Y-98870000D01*
X172297665Y-98792987D01*
X172518153Y-98645662D01*
X172705662Y-98458153D01*
X172852987Y-98237665D01*
X172954467Y-97992672D01*
X173006200Y-97732589D01*
X173006200Y-97467411D01*
X172954467Y-97207328D01*
X172852987Y-96962335D01*
X172705662Y-96741847D01*
X172518153Y-96554338D01*
X172297665Y-96407013D01*
X172052672Y-96305533D01*
X171792589Y-96253800D01*
X171527411Y-96253800D01*
X171267328Y-96305533D01*
X171022335Y-96407013D01*
X170801847Y-96554338D01*
X170614338Y-96741847D01*
X170467013Y-96962335D01*
X170390000Y-97148260D01*
X170312987Y-96962335D01*
X170165662Y-96741847D01*
X169978153Y-96554338D01*
X169757665Y-96407013D01*
X169571740Y-96330000D01*
X169757665Y-96252987D01*
X169978153Y-96105662D01*
X170165662Y-95918153D01*
X170312987Y-95697665D01*
X170414467Y-95452672D01*
X170466200Y-95192589D01*
X170466200Y-94927411D01*
X170414467Y-94667328D01*
X170312987Y-94422335D01*
X170165662Y-94201847D01*
X169978153Y-94014338D01*
X169757665Y-93867013D01*
X169512672Y-93765533D01*
X169252589Y-93713800D01*
X168987411Y-93713800D01*
X168727328Y-93765533D01*
X168482335Y-93867013D01*
X168261847Y-94014338D01*
X168074338Y-94201847D01*
X167927013Y-94422335D01*
X167850000Y-94608260D01*
X167772987Y-94422335D01*
X167625662Y-94201847D01*
X167438153Y-94014338D01*
X167217665Y-93867013D01*
X166972672Y-93765533D01*
X166712589Y-93713800D01*
X166447411Y-93713800D01*
X166187328Y-93765533D01*
X165942335Y-93867013D01*
X165721847Y-94014338D01*
X165534338Y-94201847D01*
X165387013Y-94422335D01*
X165310000Y-94608260D01*
X165232987Y-94422335D01*
X165085662Y-94201847D01*
X164898153Y-94014338D01*
X164677665Y-93867013D01*
X164432672Y-93765533D01*
X164172589Y-93713800D01*
X163907411Y-93713800D01*
X163647328Y-93765533D01*
X163402335Y-93867013D01*
X163181847Y-94014338D01*
X162994338Y-94201847D01*
X162847013Y-94422335D01*
X162769031Y-94610600D01*
X162719542Y-94474720D01*
X162664183Y-94371152D01*
X162429273Y-94310332D01*
X161679605Y-95060000D01*
X162429273Y-95809668D01*
X162664183Y-95748848D01*
X162772206Y-95517066D01*
X162847013Y-95697665D01*
X162994338Y-95918153D01*
X163181847Y-96105662D01*
X163402335Y-96252987D01*
X163588260Y-96330000D01*
X163402335Y-96407013D01*
X163181847Y-96554338D01*
X162994338Y-96741847D01*
X162849272Y-96958954D01*
X162849272Y-96888800D01*
X162837012Y-96764318D01*
X162800702Y-96644620D01*
X162741737Y-96534306D01*
X162662385Y-96437615D01*
X162565694Y-96358263D01*
X162455380Y-96299298D01*
X162335682Y-96262988D01*
X162211200Y-96250728D01*
X162139186Y-96250728D01*
X162188848Y-96224183D01*
X162249668Y-95989273D01*
X161500000Y-95239605D01*
X160750332Y-95989273D01*
X160811152Y-96224183D01*
X160868109Y-96250728D01*
X160788800Y-96250728D01*
X160664318Y-96262988D01*
X160544620Y-96299298D01*
X160434306Y-96358263D01*
X160337615Y-96437615D01*
X160258263Y-96534306D01*
X160199298Y-96644620D01*
X160162988Y-96764318D01*
X160150728Y-96888800D01*
X160150728Y-96958954D01*
X160005662Y-96741847D01*
X159818153Y-96554338D01*
X159597665Y-96407013D01*
X159411740Y-96330000D01*
X159597665Y-96252987D01*
X159818153Y-96105662D01*
X160005662Y-95918153D01*
X160152987Y-95697665D01*
X160230969Y-95509400D01*
X160280458Y-95645280D01*
X160335817Y-95748848D01*
X160570727Y-95809668D01*
X161320395Y-95060000D01*
X160570727Y-94310332D01*
X160335817Y-94371152D01*
X160227794Y-94602934D01*
X160152987Y-94422335D01*
X160005662Y-94201847D01*
X159934542Y-94130727D01*
X160750332Y-94130727D01*
X161500000Y-94880395D01*
X162249668Y-94130727D01*
X162188848Y-93895817D01*
X161948491Y-93783798D01*
X161690898Y-93720824D01*
X161425970Y-93709313D01*
X161163887Y-93749709D01*
X160914720Y-93840458D01*
X160811152Y-93895817D01*
X160750332Y-94130727D01*
X159934542Y-94130727D01*
X159818153Y-94014338D01*
X159597665Y-93867013D01*
X159352672Y-93765533D01*
X159092589Y-93713800D01*
X158827411Y-93713800D01*
X158567328Y-93765533D01*
X158322335Y-93867013D01*
X158101847Y-94014338D01*
X157914338Y-94201847D01*
X157767013Y-94422335D01*
X157690000Y-94608260D01*
X157612987Y-94422335D01*
X157465662Y-94201847D01*
X157278153Y-94014338D01*
X157057665Y-93867013D01*
X156812672Y-93765533D01*
X156552589Y-93713800D01*
X156287411Y-93713800D01*
X156027328Y-93765533D01*
X155782335Y-93867013D01*
X155561847Y-94014338D01*
X155374338Y-94201847D01*
X155227013Y-94422335D01*
X155125533Y-94667328D01*
X155073800Y-94927411D01*
X155073800Y-95192589D01*
X155125533Y-95452672D01*
X155227013Y-95697665D01*
X155374338Y-95918153D01*
X155561847Y-96105662D01*
X155782335Y-96252987D01*
X155968260Y-96330000D01*
X155782335Y-96407013D01*
X155561847Y-96554338D01*
X155374338Y-96741847D01*
X155227013Y-96962335D01*
X155150000Y-97148260D01*
X155072987Y-96962335D01*
X154925662Y-96741847D01*
X154738153Y-96554338D01*
X154517665Y-96407013D01*
X154272672Y-96305533D01*
X154012589Y-96253800D01*
X153747411Y-96253800D01*
X153487328Y-96305533D01*
X153242335Y-96407013D01*
X153021847Y-96554338D01*
X152834338Y-96741847D01*
X152687013Y-96962335D01*
X152585533Y-97207328D01*
X152533800Y-97467411D01*
X152533800Y-97732589D01*
X152585533Y-97992672D01*
X152687013Y-98237665D01*
X152834338Y-98458153D01*
X153021847Y-98645662D01*
X153242335Y-98792987D01*
X153428260Y-98870000D01*
X153242335Y-98947013D01*
X153021847Y-99094338D01*
X152834338Y-99281847D01*
X152687013Y-99502335D01*
X152585533Y-99747328D01*
X152533800Y-100007411D01*
X152533800Y-100272589D01*
X152585533Y-100532672D01*
X152687013Y-100777665D01*
X152834338Y-100998153D01*
X153021847Y-101185662D01*
X153242335Y-101332987D01*
X153428260Y-101410000D01*
X153242335Y-101487013D01*
X153021847Y-101634338D01*
X152834338Y-101821847D01*
X152687013Y-102042335D01*
X152585533Y-102287328D01*
X152533800Y-102547411D01*
X152533800Y-102812589D01*
X152585533Y-103072672D01*
X152613421Y-103140000D01*
X148214802Y-103140000D01*
X147935001Y-102860199D01*
X147935001Y-95612334D01*
X147938678Y-95575001D01*
X147924004Y-95426015D01*
X147880547Y-95282754D01*
X147832352Y-95192589D01*
X147809975Y-95150725D01*
X147715002Y-95035000D01*
X147685998Y-95011197D01*
X147488072Y-94813271D01*
X147488072Y-94350000D01*
X147475812Y-94225518D01*
X147439502Y-94105820D01*
X147380537Y-93995506D01*
X147301185Y-93898815D01*
X147204494Y-93819463D01*
X147094180Y-93760498D01*
X146974482Y-93724188D01*
X146850000Y-93711928D01*
X145150000Y-93711928D01*
X145025518Y-93724188D01*
X144905820Y-93760498D01*
X144795506Y-93819463D01*
X144698815Y-93898815D01*
X144619463Y-93995506D01*
X144560498Y-94105820D01*
X144524188Y-94225518D01*
X144511928Y-94350000D01*
X142950000Y-94350000D01*
X142950000Y-92150000D01*
X174550000Y-92150000D01*
X174550001Y-119940000D01*
G37*
%TD.AperFunction*%
D19*
X167825533Y-102287328D02*
X167773800Y-102547411D01*
X167773800Y-102812589D01*
X167825533Y-103072672D01*
X167927013Y-103317665D01*
X168074338Y-103538153D01*
X168261847Y-103725662D01*
X168482335Y-103872987D01*
X168668260Y-103950000D01*
X168482335Y-104027013D01*
X168261847Y-104174338D01*
X168074338Y-104361847D01*
X167927013Y-104582335D01*
X167825533Y-104827328D01*
X167773800Y-105087411D01*
X167773800Y-105352589D01*
X167825533Y-105612672D01*
X167927013Y-105857665D01*
X168074338Y-106078153D01*
X168261847Y-106265662D01*
X168264112Y-106267176D01*
X168272915Y-106275909D01*
X168276825Y-106279755D01*
X168365480Y-106366205D01*
X168369408Y-106370003D01*
X168447658Y-106445004D01*
X168450896Y-106448086D01*
X168522723Y-106515967D01*
X168524426Y-106517570D01*
X168548095Y-106539774D01*
X168482335Y-106567013D01*
X168261847Y-106714338D01*
X168074338Y-106901847D01*
X167927013Y-107122335D01*
X167825533Y-107367328D01*
X167806932Y-107460842D01*
X167803772Y-107472035D01*
X167790717Y-107527773D01*
X167768744Y-107645197D01*
X167764055Y-107673864D01*
X167758823Y-107711199D01*
X164908908Y-107711199D01*
X164993475Y-107626632D01*
X165155990Y-107383411D01*
X165267932Y-107113158D01*
X165325000Y-106826260D01*
X165325000Y-106533740D01*
X165267932Y-106246842D01*
X165155990Y-105976589D01*
X164993475Y-105733368D01*
X164786632Y-105526525D01*
X164613271Y-105410689D01*
X164688792Y-105168397D01*
X163840000Y-104319605D01*
X162991208Y-105168397D01*
X163066729Y-105410689D01*
X162893368Y-105526525D01*
X162686525Y-105733368D01*
X162570000Y-105907760D01*
X162453475Y-105733368D01*
X162246632Y-105526525D01*
X162073271Y-105410689D01*
X162148792Y-105168397D01*
X161300000Y-104319605D01*
X160451208Y-105168397D01*
X160526729Y-105410689D01*
X160353368Y-105526525D01*
X160146525Y-105733368D01*
X159984010Y-105976589D01*
X159872068Y-106246842D01*
X159860000Y-106307511D01*
X159860000Y-104522292D01*
X159949081Y-104773747D01*
X160022528Y-104911157D01*
X160271603Y-104988792D01*
X161120395Y-104140000D01*
X161479605Y-104140000D01*
X162328397Y-104988792D01*
X162570000Y-104913486D01*
X162811603Y-104988792D01*
X163660395Y-104140000D01*
X164019605Y-104140000D01*
X164868397Y-104988792D01*
X165117472Y-104911157D01*
X165243371Y-104647117D01*
X165315339Y-104363589D01*
X165330611Y-104071469D01*
X165288599Y-103781981D01*
X165190919Y-103506253D01*
X165117472Y-103368843D01*
X164868397Y-103291208D01*
X164019605Y-104140000D01*
X163660395Y-104140000D01*
X162811603Y-103291208D01*
X162570000Y-103366514D01*
X162328397Y-103291208D01*
X161479605Y-104140000D01*
X161120395Y-104140000D01*
X160271603Y-103291208D01*
X160022528Y-103368843D01*
X159896629Y-103632883D01*
X159860000Y-103777188D01*
X159860000Y-102514801D01*
X159869153Y-102505648D01*
X159879528Y-102539850D01*
X159961595Y-102693386D01*
X160072038Y-102827962D01*
X160206614Y-102938405D01*
X160360150Y-103020472D01*
X160469293Y-103053580D01*
X160451208Y-103111603D01*
X161300000Y-103960395D01*
X162148792Y-103111603D01*
X162130707Y-103053580D01*
X162239850Y-103020472D01*
X162393386Y-102938405D01*
X162527962Y-102827962D01*
X162638405Y-102693386D01*
X162706285Y-102566392D01*
X162893368Y-102753475D01*
X163066729Y-102869311D01*
X162991208Y-103111603D01*
X163840000Y-103960395D01*
X164688792Y-103111603D01*
X164613271Y-102869311D01*
X164786632Y-102753475D01*
X164870765Y-102669342D01*
X164928836Y-102617375D01*
X164962772Y-102584659D01*
X165067885Y-102475510D01*
X165087425Y-102454273D01*
X165178504Y-102350661D01*
X165180031Y-102348918D01*
X165253632Y-102264570D01*
X165302645Y-102213689D01*
X165328325Y-102192195D01*
X165340095Y-102185133D01*
X165360126Y-102177555D01*
X165414909Y-102166829D01*
X165537645Y-102160000D01*
X167878274Y-102160000D01*
X167825533Y-102287328D01*
%TA.AperFunction,Conductor*%
D20*
G36*
X167825533Y-102287328D02*
G01*
X167773800Y-102547411D01*
X167773800Y-102812589D01*
X167825533Y-103072672D01*
X167927013Y-103317665D01*
X168074338Y-103538153D01*
X168261847Y-103725662D01*
X168482335Y-103872987D01*
X168668260Y-103950000D01*
X168482335Y-104027013D01*
X168261847Y-104174338D01*
X168074338Y-104361847D01*
X167927013Y-104582335D01*
X167825533Y-104827328D01*
X167773800Y-105087411D01*
X167773800Y-105352589D01*
X167825533Y-105612672D01*
X167927013Y-105857665D01*
X168074338Y-106078153D01*
X168261847Y-106265662D01*
X168264112Y-106267176D01*
X168272915Y-106275909D01*
X168276825Y-106279755D01*
X168365480Y-106366205D01*
X168369408Y-106370003D01*
X168447658Y-106445004D01*
X168450896Y-106448086D01*
X168522723Y-106515967D01*
X168524426Y-106517570D01*
X168548095Y-106539774D01*
X168482335Y-106567013D01*
X168261847Y-106714338D01*
X168074338Y-106901847D01*
X167927013Y-107122335D01*
X167825533Y-107367328D01*
X167806932Y-107460842D01*
X167803772Y-107472035D01*
X167790717Y-107527773D01*
X167768744Y-107645197D01*
X167764055Y-107673864D01*
X167758823Y-107711199D01*
X164908908Y-107711199D01*
X164993475Y-107626632D01*
X165155990Y-107383411D01*
X165267932Y-107113158D01*
X165325000Y-106826260D01*
X165325000Y-106533740D01*
X165267932Y-106246842D01*
X165155990Y-105976589D01*
X164993475Y-105733368D01*
X164786632Y-105526525D01*
X164613271Y-105410689D01*
X164688792Y-105168397D01*
X163840000Y-104319605D01*
X162991208Y-105168397D01*
X163066729Y-105410689D01*
X162893368Y-105526525D01*
X162686525Y-105733368D01*
X162570000Y-105907760D01*
X162453475Y-105733368D01*
X162246632Y-105526525D01*
X162073271Y-105410689D01*
X162148792Y-105168397D01*
X161300000Y-104319605D01*
X160451208Y-105168397D01*
X160526729Y-105410689D01*
X160353368Y-105526525D01*
X160146525Y-105733368D01*
X159984010Y-105976589D01*
X159872068Y-106246842D01*
X159860000Y-106307511D01*
X159860000Y-104522292D01*
X159949081Y-104773747D01*
X160022528Y-104911157D01*
X160271603Y-104988792D01*
X161120395Y-104140000D01*
X161479605Y-104140000D01*
X162328397Y-104988792D01*
X162570000Y-104913486D01*
X162811603Y-104988792D01*
X163660395Y-104140000D01*
X164019605Y-104140000D01*
X164868397Y-104988792D01*
X165117472Y-104911157D01*
X165243371Y-104647117D01*
X165315339Y-104363589D01*
X165330611Y-104071469D01*
X165288599Y-103781981D01*
X165190919Y-103506253D01*
X165117472Y-103368843D01*
X164868397Y-103291208D01*
X164019605Y-104140000D01*
X163660395Y-104140000D01*
X162811603Y-103291208D01*
X162570000Y-103366514D01*
X162328397Y-103291208D01*
X161479605Y-104140000D01*
X161120395Y-104140000D01*
X160271603Y-103291208D01*
X160022528Y-103368843D01*
X159896629Y-103632883D01*
X159860000Y-103777188D01*
X159860000Y-102514801D01*
X159869153Y-102505648D01*
X159879528Y-102539850D01*
X159961595Y-102693386D01*
X160072038Y-102827962D01*
X160206614Y-102938405D01*
X160360150Y-103020472D01*
X160469293Y-103053580D01*
X160451208Y-103111603D01*
X161300000Y-103960395D01*
X162148792Y-103111603D01*
X162130707Y-103053580D01*
X162239850Y-103020472D01*
X162393386Y-102938405D01*
X162527962Y-102827962D01*
X162638405Y-102693386D01*
X162706285Y-102566392D01*
X162893368Y-102753475D01*
X163066729Y-102869311D01*
X162991208Y-103111603D01*
X163840000Y-103960395D01*
X164688792Y-103111603D01*
X164613271Y-102869311D01*
X164786632Y-102753475D01*
X164870765Y-102669342D01*
X164928836Y-102617375D01*
X164962772Y-102584659D01*
X165067885Y-102475510D01*
X165087425Y-102454273D01*
X165178504Y-102350661D01*
X165180031Y-102348918D01*
X165253632Y-102264570D01*
X165302645Y-102213689D01*
X165328325Y-102192195D01*
X165340095Y-102185133D01*
X165360126Y-102177555D01*
X165414909Y-102166829D01*
X165537645Y-102160000D01*
X167878274Y-102160000D01*
X167825533Y-102287328D01*
G37*
%TD.AperFunction*%
%TD*%
D21*
%TO.N,VCC*%
X154214703Y-105222477D02*
X153567986Y-105844394D01*
X153480167Y-105795164D01*
X153390757Y-105733991D01*
X153305885Y-105670408D01*
X153305833Y-105670370D01*
X153224317Y-105609941D01*
X153223684Y-105609501D01*
X153144313Y-105557815D01*
X153142851Y-105556994D01*
X153064192Y-105519473D01*
X153061523Y-105518548D01*
X152982146Y-105500616D01*
X152979675Y-105500308D01*
X152978248Y-105500352D01*
X152896719Y-105507431D01*
X152894272Y-105507888D01*
X152892696Y-105508462D01*
X152807585Y-105545976D01*
X152804689Y-105547748D01*
X152723456Y-105613883D01*
X152387508Y-105277935D01*
X152494902Y-105181950D01*
X152603902Y-105106577D01*
X152706645Y-105053343D01*
X152804864Y-105015366D01*
X152900364Y-104985825D01*
X152994308Y-104958068D01*
X152994900Y-104957878D01*
X153088526Y-104925148D01*
X153089738Y-104924652D01*
X153184379Y-104880161D01*
X153185894Y-104879318D01*
X153283000Y-104816241D01*
X153284450Y-104815145D01*
X153378587Y-104732692D01*
X154214703Y-105222477D01*
%TA.AperFunction,Conductor*%
D20*
G36*
X154214703Y-105222477D02*
G01*
X153567986Y-105844394D01*
X153480167Y-105795164D01*
X153390757Y-105733991D01*
X153305885Y-105670408D01*
X153305833Y-105670370D01*
X153224317Y-105609941D01*
X153223684Y-105609501D01*
X153144313Y-105557815D01*
X153142851Y-105556994D01*
X153064192Y-105519473D01*
X153061523Y-105518548D01*
X152982146Y-105500616D01*
X152979675Y-105500308D01*
X152978248Y-105500352D01*
X152896719Y-105507431D01*
X152894272Y-105507888D01*
X152892696Y-105508462D01*
X152807585Y-105545976D01*
X152804689Y-105547748D01*
X152723456Y-105613883D01*
X152387508Y-105277935D01*
X152494902Y-105181950D01*
X152603902Y-105106577D01*
X152706645Y-105053343D01*
X152804864Y-105015366D01*
X152900364Y-104985825D01*
X152994308Y-104958068D01*
X152994900Y-104957878D01*
X153088526Y-104925148D01*
X153089738Y-104924652D01*
X153184379Y-104880161D01*
X153185894Y-104879318D01*
X153283000Y-104816241D01*
X153284450Y-104815145D01*
X153378587Y-104732692D01*
X154214703Y-105222477D01*
G37*
%TD.AperFunction*%
%TD*%
D21*
%TO.N,VCC*%
X161987278Y-113341361D02*
X161903868Y-113435408D01*
X161902859Y-113436707D01*
X161837563Y-113532992D01*
X161836762Y-113534347D01*
X161789165Y-113627614D01*
X161788671Y-113628706D01*
X161752242Y-113720592D01*
X161752043Y-113721131D01*
X161720300Y-113813131D01*
X161686750Y-113906788D01*
X161645053Y-114003398D01*
X161588657Y-114104932D01*
X161510953Y-114213294D01*
X161413830Y-114320825D01*
X161077862Y-113984857D01*
X161143062Y-113905345D01*
X161144781Y-113902596D01*
X161183296Y-113818808D01*
X161184109Y-113816455D01*
X161184368Y-113815002D01*
X161193931Y-113734506D01*
X161193981Y-113732017D01*
X161193813Y-113730723D01*
X161179451Y-113652189D01*
X161178638Y-113649487D01*
X161145379Y-113571585D01*
X161144591Y-113570041D01*
X161097462Y-113491441D01*
X161097003Y-113490730D01*
X161041033Y-113410103D01*
X161040946Y-113409980D01*
X160981299Y-113326189D01*
X160923122Y-113238111D01*
X160875565Y-113152057D01*
X161497523Y-112505297D01*
X161987278Y-113341361D01*
%TA.AperFunction,Conductor*%
D20*
G36*
X161987278Y-113341361D02*
G01*
X161903868Y-113435408D01*
X161902859Y-113436707D01*
X161837563Y-113532992D01*
X161836762Y-113534347D01*
X161789165Y-113627614D01*
X161788671Y-113628706D01*
X161752242Y-113720592D01*
X161752043Y-113721131D01*
X161720300Y-113813131D01*
X161686750Y-113906788D01*
X161645053Y-114003398D01*
X161588657Y-114104932D01*
X161510953Y-114213294D01*
X161413830Y-114320825D01*
X161077862Y-113984857D01*
X161143062Y-113905345D01*
X161144781Y-113902596D01*
X161183296Y-113818808D01*
X161184109Y-113816455D01*
X161184368Y-113815002D01*
X161193931Y-113734506D01*
X161193981Y-113732017D01*
X161193813Y-113730723D01*
X161179451Y-113652189D01*
X161178638Y-113649487D01*
X161145379Y-113571585D01*
X161144591Y-113570041D01*
X161097462Y-113491441D01*
X161097003Y-113490730D01*
X161041033Y-113410103D01*
X161040946Y-113409980D01*
X160981299Y-113326189D01*
X160923122Y-113238111D01*
X160875565Y-113152057D01*
X161497523Y-112505297D01*
X161987278Y-113341361D01*
G37*
%TD.AperFunction*%
%TD*%
D21*
%TO.N,~RST*%
X146838712Y-95212484D02*
X146849991Y-95306114D01*
X146850863Y-95309447D01*
X146885063Y-95392169D01*
X146886667Y-95394973D01*
X146937067Y-95461681D01*
X146938581Y-95463353D01*
X146999781Y-95519904D01*
X147000561Y-95520568D01*
X147067095Y-95572770D01*
X147133091Y-95626095D01*
X147192962Y-95685998D01*
X147241806Y-95758208D01*
X147274936Y-95848921D01*
X147285881Y-95951969D01*
X147061096Y-95951969D01*
X147050277Y-95872155D01*
X147049702Y-95869733D01*
X147048592Y-95867344D01*
X147013917Y-95809351D01*
X147012436Y-95807349D01*
X147010593Y-95805675D01*
X147009174Y-95804760D01*
X146955506Y-95775015D01*
X146953220Y-95774027D01*
X146950456Y-95773471D01*
X146881171Y-95767407D01*
X146878057Y-95767519D01*
X146796529Y-95780570D01*
X146794827Y-95780964D01*
X146704432Y-95808563D01*
X146703507Y-95808885D01*
X146607619Y-95846466D01*
X146607151Y-95846660D01*
X146509145Y-95889656D01*
X146509005Y-95889718D01*
X146412309Y-95933538D01*
X146328576Y-95970011D01*
X145605314Y-95188556D01*
X146838712Y-95212484D01*
%TA.AperFunction,Conductor*%
D20*
G36*
X146838712Y-95212484D02*
G01*
X146849991Y-95306114D01*
X146850863Y-95309447D01*
X146885063Y-95392169D01*
X146886667Y-95394973D01*
X146937067Y-95461681D01*
X146938581Y-95463353D01*
X146999781Y-95519904D01*
X147000561Y-95520568D01*
X147067095Y-95572770D01*
X147133091Y-95626095D01*
X147192962Y-95685998D01*
X147241806Y-95758208D01*
X147274936Y-95848921D01*
X147285881Y-95951969D01*
X147061096Y-95951969D01*
X147050277Y-95872155D01*
X147049702Y-95869733D01*
X147048592Y-95867344D01*
X147013917Y-95809351D01*
X147012436Y-95807349D01*
X147010593Y-95805675D01*
X147009174Y-95804760D01*
X146955506Y-95775015D01*
X146953220Y-95774027D01*
X146950456Y-95773471D01*
X146881171Y-95767407D01*
X146878057Y-95767519D01*
X146796529Y-95780570D01*
X146794827Y-95780964D01*
X146704432Y-95808563D01*
X146703507Y-95808885D01*
X146607619Y-95846466D01*
X146607151Y-95846660D01*
X146509145Y-95889656D01*
X146509005Y-95889718D01*
X146412309Y-95933538D01*
X146328576Y-95970011D01*
X145605314Y-95188556D01*
X146838712Y-95212484D01*
G37*
%TD.AperFunction*%
%TD*%
D21*
%TO.N,~RST*%
X163238613Y-109328336D02*
X163239771Y-109329269D01*
X163353152Y-109410176D01*
X163354650Y-109411095D01*
X163460855Y-109466564D01*
X163462519Y-109467287D01*
X163564695Y-109503234D01*
X163566175Y-109503656D01*
X163667464Y-109525995D01*
X163668420Y-109526168D01*
X163771967Y-109540814D01*
X163772256Y-109540851D01*
X163881033Y-109553699D01*
X163997983Y-109570625D01*
X164126245Y-109597486D01*
X164260881Y-109637705D01*
X164278491Y-110538491D01*
X163377705Y-110520881D01*
X163337486Y-110386245D01*
X163310625Y-110257983D01*
X163293699Y-110141033D01*
X163280851Y-110032256D01*
X163280814Y-110031967D01*
X163266168Y-109928420D01*
X163265995Y-109927464D01*
X163243656Y-109826175D01*
X163243234Y-109824695D01*
X163207287Y-109722519D01*
X163206564Y-109720855D01*
X163151095Y-109614650D01*
X163150176Y-109613152D01*
X163069269Y-109499771D01*
X163068336Y-109498613D01*
X162964209Y-109383874D01*
X163123874Y-109224209D01*
X163238613Y-109328336D01*
%TA.AperFunction,Conductor*%
D20*
G36*
X163238613Y-109328336D02*
G01*
X163239771Y-109329269D01*
X163353152Y-109410176D01*
X163354650Y-109411095D01*
X163460855Y-109466564D01*
X163462519Y-109467287D01*
X163564695Y-109503234D01*
X163566175Y-109503656D01*
X163667464Y-109525995D01*
X163668420Y-109526168D01*
X163771967Y-109540814D01*
X163772256Y-109540851D01*
X163881033Y-109553699D01*
X163997983Y-109570625D01*
X164126245Y-109597486D01*
X164260881Y-109637705D01*
X164278491Y-110538491D01*
X163377705Y-110520881D01*
X163337486Y-110386245D01*
X163310625Y-110257983D01*
X163293699Y-110141033D01*
X163280851Y-110032256D01*
X163280814Y-110031967D01*
X163266168Y-109928420D01*
X163265995Y-109927464D01*
X163243656Y-109826175D01*
X163243234Y-109824695D01*
X163207287Y-109722519D01*
X163206564Y-109720855D01*
X163151095Y-109614650D01*
X163150176Y-109613152D01*
X163069269Y-109499771D01*
X163068336Y-109498613D01*
X162964209Y-109383874D01*
X163123874Y-109224209D01*
X163238613Y-109328336D01*
G37*
%TD.AperFunction*%
%TD*%
D21*
%TO.N,KBD_CLOCK*%
X161704103Y-101602477D02*
X160927772Y-102349037D01*
X160785222Y-102261468D01*
X160651521Y-102146672D01*
X160530283Y-102020047D01*
X160417907Y-101892756D01*
X160417739Y-101892570D01*
X160310742Y-101776080D01*
X160309865Y-101775213D01*
X160204643Y-101680914D01*
X160202440Y-101679330D01*
X160095226Y-101618422D01*
X160092951Y-101617410D01*
X160090768Y-101616894D01*
X159977793Y-101600578D01*
X159975306Y-101600466D01*
X159972083Y-101601060D01*
X159849581Y-101640538D01*
X159847297Y-101641530D01*
X159845640Y-101642632D01*
X159718698Y-101742160D01*
X159559458Y-101582920D01*
X159681495Y-101475660D01*
X159804656Y-101395625D01*
X159921260Y-101342520D01*
X160033325Y-101307758D01*
X160142841Y-101282883D01*
X160251203Y-101259515D01*
X160251944Y-101259331D01*
X160360411Y-101229023D01*
X160361867Y-101228520D01*
X160472002Y-101182751D01*
X160473781Y-101181841D01*
X160587223Y-101112076D01*
X160588873Y-101110868D01*
X160700385Y-101014513D01*
X161704103Y-101602477D01*
%TA.AperFunction,Conductor*%
D20*
G36*
X161704103Y-101602477D02*
G01*
X160927772Y-102349037D01*
X160785222Y-102261468D01*
X160651521Y-102146672D01*
X160530283Y-102020047D01*
X160417907Y-101892756D01*
X160417739Y-101892570D01*
X160310742Y-101776080D01*
X160309865Y-101775213D01*
X160204643Y-101680914D01*
X160202440Y-101679330D01*
X160095226Y-101618422D01*
X160092951Y-101617410D01*
X160090768Y-101616894D01*
X159977793Y-101600578D01*
X159975306Y-101600466D01*
X159972083Y-101601060D01*
X159849581Y-101640538D01*
X159847297Y-101641530D01*
X159845640Y-101642632D01*
X159718698Y-101742160D01*
X159559458Y-101582920D01*
X159681495Y-101475660D01*
X159804656Y-101395625D01*
X159921260Y-101342520D01*
X160033325Y-101307758D01*
X160142841Y-101282883D01*
X160251203Y-101259515D01*
X160251944Y-101259331D01*
X160360411Y-101229023D01*
X160361867Y-101228520D01*
X160472002Y-101182751D01*
X160473781Y-101181841D01*
X160587223Y-101112076D01*
X160588873Y-101110868D01*
X160700385Y-101014513D01*
X161704103Y-101602477D01*
G37*
%TD.AperFunction*%
%TD*%
D21*
%TO.N,KBD_CLOCK*%
X169110127Y-108458745D02*
X168981215Y-108462003D01*
X168980515Y-108462040D01*
X168862748Y-108471540D01*
X168862055Y-108471615D01*
X168759291Y-108485615D01*
X168758732Y-108485704D01*
X168665276Y-108502704D01*
X168664988Y-108502760D01*
X168575145Y-108521260D01*
X168483463Y-108539711D01*
X168384242Y-108556630D01*
X168271670Y-108570556D01*
X168139996Y-108580009D01*
X167996089Y-108583213D01*
X167996089Y-108357692D01*
X168108480Y-108346445D01*
X168111749Y-108345671D01*
X168204126Y-108310362D01*
X168206354Y-108309249D01*
X168207740Y-108308241D01*
X168274017Y-108252812D01*
X168275761Y-108251035D01*
X168276635Y-108249807D01*
X168322159Y-108177053D01*
X168323398Y-108174459D01*
X168353516Y-108087178D01*
X168353958Y-108085557D01*
X168374019Y-107986545D01*
X168374146Y-107985811D01*
X168389496Y-107877865D01*
X168389499Y-107877840D01*
X168405448Y-107764038D01*
X168427260Y-107647471D01*
X168457852Y-107539116D01*
X169354918Y-107521579D01*
X169110127Y-108458745D01*
%TA.AperFunction,Conductor*%
D20*
G36*
X169110127Y-108458745D02*
G01*
X168981215Y-108462003D01*
X168980515Y-108462040D01*
X168862748Y-108471540D01*
X168862055Y-108471615D01*
X168759291Y-108485615D01*
X168758732Y-108485704D01*
X168665276Y-108502704D01*
X168664988Y-108502760D01*
X168575145Y-108521260D01*
X168483463Y-108539711D01*
X168384242Y-108556630D01*
X168271670Y-108570556D01*
X168139996Y-108580009D01*
X167996089Y-108583213D01*
X167996089Y-108357692D01*
X168108480Y-108346445D01*
X168111749Y-108345671D01*
X168204126Y-108310362D01*
X168206354Y-108309249D01*
X168207740Y-108308241D01*
X168274017Y-108252812D01*
X168275761Y-108251035D01*
X168276635Y-108249807D01*
X168322159Y-108177053D01*
X168323398Y-108174459D01*
X168353516Y-108087178D01*
X168353958Y-108085557D01*
X168374019Y-107986545D01*
X168374146Y-107985811D01*
X168389496Y-107877865D01*
X168389499Y-107877840D01*
X168405448Y-107764038D01*
X168427260Y-107647471D01*
X168457852Y-107539116D01*
X169354918Y-107521579D01*
X169110127Y-108458745D01*
G37*
%TD.AperFunction*%
%TD*%
D21*
%TO.N,KBD_DATA*%
X164203456Y-100831870D02*
X164357867Y-100890819D01*
X164490223Y-100955490D01*
X164609318Y-101022718D01*
X164723332Y-101088979D01*
X164723792Y-101089234D01*
X164841206Y-101151114D01*
X164842227Y-101151596D01*
X164971434Y-101205626D01*
X164972840Y-101206119D01*
X165122367Y-101248910D01*
X165123881Y-101249245D01*
X165302260Y-101277405D01*
X165303644Y-101277546D01*
X165507300Y-101287117D01*
X165507300Y-101512987D01*
X165335178Y-101522564D01*
X165333444Y-101522781D01*
X165183113Y-101552215D01*
X165181060Y-101552799D01*
X165057682Y-101599471D01*
X165055640Y-101600460D01*
X164952385Y-101662421D01*
X164950769Y-101663572D01*
X164860804Y-101738871D01*
X164859808Y-101739799D01*
X164776304Y-101826486D01*
X164775882Y-101826947D01*
X164692035Y-101923036D01*
X164601147Y-102026430D01*
X164496557Y-102135036D01*
X164377831Y-102241283D01*
X163444638Y-101695267D01*
X164026674Y-100784181D01*
X164203456Y-100831870D01*
%TA.AperFunction,Conductor*%
D20*
G36*
X164203456Y-100831870D02*
G01*
X164357867Y-100890819D01*
X164490223Y-100955490D01*
X164609318Y-101022718D01*
X164723332Y-101088979D01*
X164723792Y-101089234D01*
X164841206Y-101151114D01*
X164842227Y-101151596D01*
X164971434Y-101205626D01*
X164972840Y-101206119D01*
X165122367Y-101248910D01*
X165123881Y-101249245D01*
X165302260Y-101277405D01*
X165303644Y-101277546D01*
X165507300Y-101287117D01*
X165507300Y-101512987D01*
X165335178Y-101522564D01*
X165333444Y-101522781D01*
X165183113Y-101552215D01*
X165181060Y-101552799D01*
X165057682Y-101599471D01*
X165055640Y-101600460D01*
X164952385Y-101662421D01*
X164950769Y-101663572D01*
X164860804Y-101738871D01*
X164859808Y-101739799D01*
X164776304Y-101826486D01*
X164775882Y-101826947D01*
X164692035Y-101923036D01*
X164601147Y-102026430D01*
X164496557Y-102135036D01*
X164377831Y-102241283D01*
X163444638Y-101695267D01*
X164026674Y-100784181D01*
X164203456Y-100831870D01*
G37*
%TD.AperFunction*%
%TD*%
D21*
%TO.N,KBD_DATA*%
X170858613Y-106788336D02*
X170859771Y-106789269D01*
X170973152Y-106870176D01*
X170974650Y-106871095D01*
X171080855Y-106926564D01*
X171082519Y-106927287D01*
X171184695Y-106963234D01*
X171186175Y-106963656D01*
X171287464Y-106985995D01*
X171288420Y-106986168D01*
X171391967Y-107000814D01*
X171392256Y-107000851D01*
X171501033Y-107013699D01*
X171617983Y-107030625D01*
X171746245Y-107057486D01*
X171880881Y-107097705D01*
X171898491Y-107998491D01*
X170997705Y-107980881D01*
X170957486Y-107846245D01*
X170930625Y-107717983D01*
X170913699Y-107601033D01*
X170900851Y-107492256D01*
X170900814Y-107491967D01*
X170886168Y-107388420D01*
X170885995Y-107387464D01*
X170863656Y-107286175D01*
X170863234Y-107284695D01*
X170827287Y-107182519D01*
X170826564Y-107180855D01*
X170771095Y-107074650D01*
X170770176Y-107073152D01*
X170689269Y-106959771D01*
X170688336Y-106958613D01*
X170584209Y-106843874D01*
X170743874Y-106684209D01*
X170858613Y-106788336D01*
%TA.AperFunction,Conductor*%
D20*
G36*
X170858613Y-106788336D02*
G01*
X170859771Y-106789269D01*
X170973152Y-106870176D01*
X170974650Y-106871095D01*
X171080855Y-106926564D01*
X171082519Y-106927287D01*
X171184695Y-106963234D01*
X171186175Y-106963656D01*
X171287464Y-106985995D01*
X171288420Y-106986168D01*
X171391967Y-107000814D01*
X171392256Y-107000851D01*
X171501033Y-107013699D01*
X171617983Y-107030625D01*
X171746245Y-107057486D01*
X171880881Y-107097705D01*
X171898491Y-107998491D01*
X170997705Y-107980881D01*
X170957486Y-107846245D01*
X170930625Y-107717983D01*
X170913699Y-107601033D01*
X170900851Y-107492256D01*
X170900814Y-107491967D01*
X170886168Y-107388420D01*
X170885995Y-107387464D01*
X170863656Y-107286175D01*
X170863234Y-107284695D01*
X170827287Y-107182519D01*
X170826564Y-107180855D01*
X170771095Y-107074650D01*
X170770176Y-107073152D01*
X170689269Y-106959771D01*
X170688336Y-106958613D01*
X170584209Y-106843874D01*
X170743874Y-106684209D01*
X170858613Y-106788336D01*
G37*
%TD.AperFunction*%
%TD*%
D21*
%TO.N,~TRESET*%
X169744602Y-105532231D02*
X169698063Y-105621600D01*
X169646248Y-105712642D01*
X169646249Y-105712642D01*
X169597038Y-105798754D01*
X169596793Y-105799203D01*
X169554028Y-105881574D01*
X169553536Y-105882637D01*
X169520986Y-105962591D01*
X169520387Y-105964469D01*
X169501810Y-106043350D01*
X169501473Y-106046125D01*
X169500623Y-106125278D01*
X169501017Y-106128558D01*
X169521653Y-106209325D01*
X169522821Y-106212284D01*
X169568700Y-106296010D01*
X169570163Y-106298135D01*
X169637450Y-106377241D01*
X169477906Y-106536785D01*
X169369979Y-106429608D01*
X169369909Y-106429540D01*
X169270471Y-106332306D01*
X169270398Y-106332234D01*
X169184446Y-106249531D01*
X169184379Y-106249468D01*
X169107931Y-106176965D01*
X169107888Y-106176924D01*
X169036962Y-106110292D01*
X169036955Y-106110286D01*
X168967569Y-106045194D01*
X168895841Y-105977406D01*
X168817591Y-105902405D01*
X168729093Y-105816108D01*
X168633042Y-105720814D01*
X169122477Y-104885297D01*
X169744602Y-105532231D01*
%TA.AperFunction,Conductor*%
D20*
G36*
X169744602Y-105532231D02*
G01*
X169698063Y-105621600D01*
X169646248Y-105712642D01*
X169646249Y-105712642D01*
X169597038Y-105798754D01*
X169596793Y-105799203D01*
X169554028Y-105881574D01*
X169553536Y-105882637D01*
X169520986Y-105962591D01*
X169520387Y-105964469D01*
X169501810Y-106043350D01*
X169501473Y-106046125D01*
X169500623Y-106125278D01*
X169501017Y-106128558D01*
X169521653Y-106209325D01*
X169522821Y-106212284D01*
X169568700Y-106296010D01*
X169570163Y-106298135D01*
X169637450Y-106377241D01*
X169477906Y-106536785D01*
X169369979Y-106429608D01*
X169369909Y-106429540D01*
X169270471Y-106332306D01*
X169270398Y-106332234D01*
X169184446Y-106249531D01*
X169184379Y-106249468D01*
X169107931Y-106176965D01*
X169107888Y-106176924D01*
X169036962Y-106110292D01*
X169036955Y-106110286D01*
X168967569Y-106045194D01*
X168895841Y-105977406D01*
X168817591Y-105902405D01*
X168729093Y-105816108D01*
X168633042Y-105720814D01*
X169122477Y-104885297D01*
X169744602Y-105532231D01*
G37*
%TD.AperFunction*%
%TD*%
D21*
%TO.N,~TRESET*%
X146749395Y-100652601D02*
X146667642Y-100802633D01*
X146579799Y-100933595D01*
X146492440Y-101045874D01*
X146408067Y-101147335D01*
X146407915Y-101147521D01*
X146329278Y-101245807D01*
X146328706Y-101246581D01*
X146258532Y-101349388D01*
X146257722Y-101350750D01*
X146198615Y-101465928D01*
X146197874Y-101467685D01*
X146152433Y-101603086D01*
X146151970Y-101604896D01*
X146122799Y-101768370D01*
X146122619Y-101769946D01*
X146112939Y-101957300D01*
X145887061Y-101957300D01*
X145877380Y-101769946D01*
X145877200Y-101768370D01*
X145848029Y-101604896D01*
X145847566Y-101603086D01*
X145802125Y-101467685D01*
X145801384Y-101465928D01*
X145742277Y-101350750D01*
X145741467Y-101349388D01*
X145671293Y-101246581D01*
X145670721Y-101245807D01*
X145592084Y-101147521D01*
X145591932Y-101147335D01*
X145507559Y-101045874D01*
X145420200Y-100933595D01*
X145332357Y-100802633D01*
X145250605Y-100652601D01*
X146000000Y-99873322D01*
X146749395Y-100652601D01*
%TA.AperFunction,Conductor*%
D20*
G36*
X146749395Y-100652601D02*
G01*
X146667642Y-100802633D01*
X146579799Y-100933595D01*
X146492440Y-101045874D01*
X146408067Y-101147335D01*
X146407915Y-101147521D01*
X146329278Y-101245807D01*
X146328706Y-101246581D01*
X146258532Y-101349388D01*
X146257722Y-101350750D01*
X146198615Y-101465928D01*
X146197874Y-101467685D01*
X146152433Y-101603086D01*
X146151970Y-101604896D01*
X146122799Y-101768370D01*
X146122619Y-101769946D01*
X146112939Y-101957300D01*
X145887061Y-101957300D01*
X145877380Y-101769946D01*
X145877200Y-101768370D01*
X145848029Y-101604896D01*
X145847566Y-101603086D01*
X145802125Y-101467685D01*
X145801384Y-101465928D01*
X145742277Y-101350750D01*
X145741467Y-101349388D01*
X145671293Y-101246581D01*
X145670721Y-101245807D01*
X145592084Y-101147521D01*
X145591932Y-101147335D01*
X145507559Y-101045874D01*
X145420200Y-100933595D01*
X145332357Y-100802633D01*
X145250605Y-100652601D01*
X146000000Y-99873322D01*
X146749395Y-100652601D01*
G37*
%TD.AperFunction*%
%TD*%
M02*
