M48
;DRILL file {KiCad 4.0.2+dfsg1-stable} date Tue 13 Nov 2018 01:00:24 CET
;FORMAT={-:-/ absolute / metric / decimal}
FMAT,2
METRIC,TZ
T1C0.400
T2C0.813
T3C1.016
%
G90
G05
M71
T1
X140.462Y-91.948
X143.129Y-102.997
X148.971Y-91.948
X155.194Y-91.694
T2
X138.43Y-97.79
X138.43Y-100.33
X138.43Y-102.87
X138.43Y-105.41
X138.43Y-107.95
X138.43Y-110.49
X140.97Y-95.25
X140.97Y-97.79
X140.97Y-100.33
X140.97Y-102.87
X140.97Y-105.41
X140.97Y-107.95
X140.97Y-110.49
X140.97Y-113.03
X143.51Y-95.25
X143.51Y-97.79
X143.51Y-110.49
X143.51Y-113.03
X146.05Y-95.25
X146.05Y-97.79
X146.05Y-110.49
X146.05Y-113.03
X148.59Y-95.25
X148.59Y-97.79
X148.59Y-110.49
X148.59Y-113.03
X151.13Y-95.25
X151.13Y-97.79
X151.13Y-110.49
X151.13Y-113.03
X153.67Y-95.25
X153.67Y-97.79
X153.67Y-100.33
X153.67Y-102.87
X153.67Y-105.41
X153.67Y-107.95
X153.67Y-110.49
X153.67Y-113.03
X156.21Y-97.79
X156.21Y-100.33
X156.21Y-102.87
X156.21Y-105.41
X156.21Y-107.95
X156.21Y-110.49
T3
X146.05Y-101.6
X146.05Y-104.14
X146.05Y-106.68
X148.59Y-101.6
X148.59Y-104.14
X148.59Y-106.68
T0
M30
