%TF.GenerationSoftware,KiCad,Pcbnew,4.0.2+dfsg1-stable*%
%TF.CreationDate,2018-12-23T01:09:08+01:00*%
%TF.ProjectId,A1200MPU-Adapter,41313230304D50552D41646170746572,rev?*%
%TF.FileFunction,Soldermask,Top*%
%FSLAX46Y46*%
G04 Gerber Fmt 4.6, Leading zero omitted, Abs format (unit mm)*
G04 Created by KiCad (PCBNEW 4.0.2+dfsg1-stable) date Sun 23 Dec 2018 01:09:08 CET*
%MOMM*%
G01*
G04 APERTURE LIST*
%ADD10C,0.100000*%
%ADD11R,1.797000X1.797000*%
%ADD12C,1.797000*%
%ADD13R,2.400000X2.100000*%
%ADD14R,2.127200X2.127200*%
%ADD15O,2.127200X2.127200*%
%ADD16R,2.432000X1.924000*%
%ADD17R,2.400000X2.000000*%
%ADD18R,1.924000X2.432000*%
%ADD19C,1.000000*%
G04 APERTURE END LIST*
D10*
D11*
X153670000Y-102870000D03*
D12*
X156210000Y-105410000D03*
X153670000Y-105410000D03*
X156210000Y-107950000D03*
X153670000Y-107950000D03*
X156210000Y-110490000D03*
X153670000Y-113030000D03*
X153670000Y-110490000D03*
X151130000Y-113030000D03*
X151130000Y-110490000D03*
X148590000Y-113030000D03*
X148590000Y-110490000D03*
X146050000Y-113030000D03*
X146050000Y-110490000D03*
X143510000Y-113030000D03*
X143510000Y-110490000D03*
X140970000Y-113030000D03*
X138430000Y-110490000D03*
X140970000Y-110490000D03*
X138430000Y-107950000D03*
X140970000Y-107950000D03*
X138430000Y-105410000D03*
X140970000Y-105410000D03*
X138430000Y-102870000D03*
X140970000Y-102870000D03*
X138430000Y-100330000D03*
X140970000Y-100330000D03*
X138430000Y-97790000D03*
X140970000Y-95250000D03*
X140970000Y-97790000D03*
X143510000Y-95250000D03*
X143510000Y-97790000D03*
X146050000Y-95250000D03*
X146050000Y-97790000D03*
X148590000Y-95250000D03*
X148590000Y-97790000D03*
X151130000Y-95250000D03*
X151130000Y-97790000D03*
X153670000Y-95250000D03*
X156210000Y-97790000D03*
X153670000Y-97790000D03*
X156210000Y-100330000D03*
X153670000Y-100330000D03*
X156210000Y-102870000D03*
D13*
X133890000Y-90170000D03*
X137890000Y-90170000D03*
D14*
X146050000Y-101600000D03*
D15*
X148590000Y-101600000D03*
X146050000Y-104140000D03*
X148590000Y-104140000D03*
X146050000Y-106680000D03*
X148590000Y-106680000D03*
D16*
X134112000Y-105918000D03*
X134112000Y-102616000D03*
D17*
X149130000Y-90170000D03*
X153130000Y-90170000D03*
X141510000Y-90170000D03*
X145510000Y-90170000D03*
D18*
X157099000Y-90170000D03*
X160401000Y-90170000D03*
D16*
X160782000Y-105791000D03*
X160782000Y-102489000D03*
D19*
X140462000Y-91948000D03*
X155194000Y-91694000D03*
X148971000Y-91948000D03*
X143129000Y-102997000D03*
M02*
