%TF.GenerationSoftware,KiCad,Pcbnew,4.0.2+dfsg1-stable*%
%TF.CreationDate,2018-11-13T01:00:21+01:00*%
%TF.ProjectId,A1200MPU-Adapter,41313230304D50552D41646170746572,rev?*%
%TF.FileFunction,Legend,Bot*%
%FSLAX46Y46*%
G04 Gerber Fmt 4.6, Leading zero omitted, Abs format (unit mm)*
G04 Created by KiCad (PCBNEW 4.0.2+dfsg1-stable) date Tue 13 Nov 2018 01:00:21 CET*
%MOMM*%
G01*
G04 APERTURE LIST*
%ADD10C,0.100000*%
%ADD11C,0.120000*%
%ADD12C,0.300000*%
%ADD13C,0.150000*%
G04 APERTURE END LIST*
D10*
D11*
X161063810Y-104267857D02*
X161397143Y-104267857D01*
X161563810Y-104267857D02*
X161540000Y-104229762D01*
X161516190Y-104267857D01*
X161540000Y-104305952D01*
X161563810Y-104267857D01*
X161516190Y-104267857D01*
X161397143Y-104648809D02*
X161063810Y-104648809D01*
X161349524Y-104648809D02*
X161373333Y-104686904D01*
X161397143Y-104763095D01*
X161397143Y-104877381D01*
X161373333Y-104953571D01*
X161325714Y-104991666D01*
X161063810Y-104991666D01*
X161063810Y-105982143D02*
X161397143Y-105982143D01*
X161349524Y-105982143D02*
X161373333Y-106020238D01*
X161397143Y-106096429D01*
X161397143Y-106210715D01*
X161373333Y-106286905D01*
X161325714Y-106325000D01*
X161063810Y-106325000D01*
X161325714Y-106325000D02*
X161373333Y-106363096D01*
X161397143Y-106439286D01*
X161397143Y-106553572D01*
X161373333Y-106629762D01*
X161325714Y-106667857D01*
X161063810Y-106667857D01*
X161087619Y-107353572D02*
X161063810Y-107277382D01*
X161063810Y-107125001D01*
X161087619Y-107048810D01*
X161135238Y-107010715D01*
X161325714Y-107010715D01*
X161373333Y-107048810D01*
X161397143Y-107125001D01*
X161397143Y-107277382D01*
X161373333Y-107353572D01*
X161325714Y-107391667D01*
X161278095Y-107391667D01*
X161230476Y-107010715D01*
X161063810Y-107734524D02*
X161397143Y-107734524D01*
X161349524Y-107734524D02*
X161373333Y-107772619D01*
X161397143Y-107848810D01*
X161397143Y-107963096D01*
X161373333Y-108039286D01*
X161325714Y-108077381D01*
X161063810Y-108077381D01*
X161325714Y-108077381D02*
X161373333Y-108115477D01*
X161397143Y-108191667D01*
X161397143Y-108305953D01*
X161373333Y-108382143D01*
X161325714Y-108420238D01*
X161063810Y-108420238D01*
X161063810Y-108915477D02*
X161087619Y-108839286D01*
X161111429Y-108801191D01*
X161159048Y-108763096D01*
X161301905Y-108763096D01*
X161349524Y-108801191D01*
X161373333Y-108839286D01*
X161397143Y-108915477D01*
X161397143Y-109029763D01*
X161373333Y-109105953D01*
X161349524Y-109144048D01*
X161301905Y-109182144D01*
X161159048Y-109182144D01*
X161111429Y-109144048D01*
X161087619Y-109105953D01*
X161063810Y-109029763D01*
X161063810Y-108915477D01*
X161063810Y-109525001D02*
X161397143Y-109525001D01*
X161301905Y-109525001D02*
X161349524Y-109563096D01*
X161373333Y-109601192D01*
X161397143Y-109677382D01*
X161397143Y-109753573D01*
X161063810Y-110020239D02*
X161397143Y-110020239D01*
X161563810Y-110020239D02*
X161540000Y-109982144D01*
X161516190Y-110020239D01*
X161540000Y-110058334D01*
X161563810Y-110020239D01*
X161516190Y-110020239D01*
X161063810Y-110744048D02*
X161325714Y-110744048D01*
X161373333Y-110705953D01*
X161397143Y-110629763D01*
X161397143Y-110477382D01*
X161373333Y-110401191D01*
X161087619Y-110744048D02*
X161063810Y-110667858D01*
X161063810Y-110477382D01*
X161087619Y-110401191D01*
X161135238Y-110363096D01*
X161182857Y-110363096D01*
X161230476Y-110401191D01*
X161254286Y-110477382D01*
X161254286Y-110667858D01*
X161278095Y-110744048D01*
X161063810Y-111125001D02*
X161397143Y-111125001D01*
X161349524Y-111125001D02*
X161373333Y-111163096D01*
X161397143Y-111239287D01*
X161397143Y-111353573D01*
X161373333Y-111429763D01*
X161325714Y-111467858D01*
X161063810Y-111467858D01*
X161325714Y-111467858D02*
X161373333Y-111505954D01*
X161397143Y-111582144D01*
X161397143Y-111696430D01*
X161373333Y-111772620D01*
X161325714Y-111810715D01*
X161063810Y-111810715D01*
X161206667Y-112763097D02*
X161206667Y-113144049D01*
X161063810Y-112686906D02*
X161563810Y-112953573D01*
X161063810Y-113220240D01*
X161111429Y-113486906D02*
X161087619Y-113525001D01*
X161063810Y-113486906D01*
X161087619Y-113448811D01*
X161111429Y-113486906D01*
X161063810Y-113486906D01*
X161087619Y-113829763D02*
X161063810Y-113944049D01*
X161063810Y-114134525D01*
X161087619Y-114210715D01*
X161111429Y-114248811D01*
X161159048Y-114286906D01*
X161206667Y-114286906D01*
X161254286Y-114248811D01*
X161278095Y-114210715D01*
X161301905Y-114134525D01*
X161325714Y-113982144D01*
X161349524Y-113905953D01*
X161373333Y-113867858D01*
X161420952Y-113829763D01*
X161468571Y-113829763D01*
X161516190Y-113867858D01*
X161540000Y-113905953D01*
X161563810Y-113982144D01*
X161563810Y-114172620D01*
X161540000Y-114286906D01*
X161111429Y-114629763D02*
X161087619Y-114667858D01*
X161063810Y-114629763D01*
X161087619Y-114591668D01*
X161111429Y-114629763D01*
X161063810Y-114629763D01*
X161254286Y-115010715D02*
X161254286Y-115620239D01*
X161540000Y-116420239D02*
X161563810Y-116344048D01*
X161563810Y-116229763D01*
X161540000Y-116115477D01*
X161492381Y-116039286D01*
X161444762Y-116001191D01*
X161349524Y-115963096D01*
X161278095Y-115963096D01*
X161182857Y-116001191D01*
X161135238Y-116039286D01*
X161087619Y-116115477D01*
X161063810Y-116229763D01*
X161063810Y-116305953D01*
X161087619Y-116420239D01*
X161111429Y-116458334D01*
X161278095Y-116458334D01*
X161278095Y-116305953D01*
X161111429Y-116801191D02*
X161087619Y-116839286D01*
X161063810Y-116801191D01*
X161087619Y-116763096D01*
X161111429Y-116801191D01*
X161063810Y-116801191D01*
X161063810Y-117182143D02*
X161563810Y-117182143D01*
X161563810Y-117372619D01*
X161540000Y-117486905D01*
X161492381Y-117563096D01*
X161444762Y-117601191D01*
X161349524Y-117639286D01*
X161278095Y-117639286D01*
X161182857Y-117601191D01*
X161135238Y-117563096D01*
X161087619Y-117486905D01*
X161063810Y-117372619D01*
X161063810Y-117182143D01*
X161111429Y-117982143D02*
X161087619Y-118020238D01*
X161063810Y-117982143D01*
X161087619Y-117944048D01*
X161111429Y-117982143D01*
X161063810Y-117982143D01*
X133576190Y-117728239D02*
X133076190Y-117728239D01*
X133552381Y-117728239D02*
X133576190Y-117804429D01*
X133576190Y-117956810D01*
X133552381Y-118033001D01*
X133528571Y-118071096D01*
X133480952Y-118109191D01*
X133338095Y-118109191D01*
X133290476Y-118071096D01*
X133266667Y-118033001D01*
X133242857Y-117956810D01*
X133242857Y-117804429D01*
X133266667Y-117728239D01*
X133552381Y-117042524D02*
X133576190Y-117118714D01*
X133576190Y-117271095D01*
X133552381Y-117347286D01*
X133504762Y-117385381D01*
X133314286Y-117385381D01*
X133266667Y-117347286D01*
X133242857Y-117271095D01*
X133242857Y-117118714D01*
X133266667Y-117042524D01*
X133314286Y-117004429D01*
X133361905Y-117004429D01*
X133409524Y-117385381D01*
X133552381Y-116699667D02*
X133576190Y-116623477D01*
X133576190Y-116471096D01*
X133552381Y-116394905D01*
X133504762Y-116356810D01*
X133480952Y-116356810D01*
X133433333Y-116394905D01*
X133409524Y-116471096D01*
X133409524Y-116585381D01*
X133385714Y-116661572D01*
X133338095Y-116699667D01*
X133314286Y-116699667D01*
X133266667Y-116661572D01*
X133242857Y-116585381D01*
X133242857Y-116471096D01*
X133266667Y-116394905D01*
X133576190Y-116013953D02*
X133242857Y-116013953D01*
X133076190Y-116013953D02*
X133100000Y-116052048D01*
X133123810Y-116013953D01*
X133100000Y-115975858D01*
X133076190Y-116013953D01*
X133123810Y-116013953D01*
X133242857Y-115290144D02*
X133647619Y-115290144D01*
X133695238Y-115328239D01*
X133719048Y-115366334D01*
X133742857Y-115442525D01*
X133742857Y-115556810D01*
X133719048Y-115633001D01*
X133552381Y-115290144D02*
X133576190Y-115366334D01*
X133576190Y-115518715D01*
X133552381Y-115594906D01*
X133528571Y-115633001D01*
X133480952Y-115671096D01*
X133338095Y-115671096D01*
X133290476Y-115633001D01*
X133266667Y-115594906D01*
X133242857Y-115518715D01*
X133242857Y-115366334D01*
X133266667Y-115290144D01*
X133242857Y-114909191D02*
X133576190Y-114909191D01*
X133290476Y-114909191D02*
X133266667Y-114871096D01*
X133242857Y-114794905D01*
X133242857Y-114680619D01*
X133266667Y-114604429D01*
X133314286Y-114566334D01*
X133576190Y-114566334D01*
X133552381Y-113880619D02*
X133576190Y-113956809D01*
X133576190Y-114109190D01*
X133552381Y-114185381D01*
X133504762Y-114223476D01*
X133314286Y-114223476D01*
X133266667Y-114185381D01*
X133242857Y-114109190D01*
X133242857Y-113956809D01*
X133266667Y-113880619D01*
X133314286Y-113842524D01*
X133361905Y-113842524D01*
X133409524Y-114223476D01*
X133576190Y-113156810D02*
X133076190Y-113156810D01*
X133552381Y-113156810D02*
X133576190Y-113233000D01*
X133576190Y-113385381D01*
X133552381Y-113461572D01*
X133528571Y-113499667D01*
X133480952Y-113537762D01*
X133338095Y-113537762D01*
X133290476Y-113499667D01*
X133266667Y-113461572D01*
X133242857Y-113385381D01*
X133242857Y-113233000D01*
X133266667Y-113156810D01*
X133576190Y-112166333D02*
X133076190Y-112166333D01*
X133266667Y-112166333D02*
X133242857Y-112090142D01*
X133242857Y-111937761D01*
X133266667Y-111861571D01*
X133290476Y-111823476D01*
X133338095Y-111785380D01*
X133480952Y-111785380D01*
X133528571Y-111823476D01*
X133552381Y-111861571D01*
X133576190Y-111937761D01*
X133576190Y-112090142D01*
X133552381Y-112166333D01*
X133242857Y-111518713D02*
X133576190Y-111328237D01*
X133242857Y-111137761D02*
X133576190Y-111328237D01*
X133695238Y-111404428D01*
X133719048Y-111442523D01*
X133742857Y-111518713D01*
X133576190Y-109766332D02*
X133338095Y-110032999D01*
X133576190Y-110223475D02*
X133076190Y-110223475D01*
X133076190Y-109918713D01*
X133100000Y-109842522D01*
X133123810Y-109804427D01*
X133171429Y-109766332D01*
X133242857Y-109766332D01*
X133290476Y-109804427D01*
X133314286Y-109842522D01*
X133338095Y-109918713D01*
X133338095Y-110223475D01*
X133528571Y-109423475D02*
X133552381Y-109385380D01*
X133576190Y-109423475D01*
X133552381Y-109461570D01*
X133528571Y-109423475D01*
X133576190Y-109423475D01*
X133100000Y-108623475D02*
X133076190Y-108699666D01*
X133076190Y-108813951D01*
X133100000Y-108928237D01*
X133147619Y-109004428D01*
X133195238Y-109042523D01*
X133290476Y-109080618D01*
X133361905Y-109080618D01*
X133457143Y-109042523D01*
X133504762Y-109004428D01*
X133552381Y-108928237D01*
X133576190Y-108813951D01*
X133576190Y-108737761D01*
X133552381Y-108623475D01*
X133528571Y-108585380D01*
X133361905Y-108585380D01*
X133361905Y-108737761D01*
X133528571Y-108242523D02*
X133552381Y-108204428D01*
X133576190Y-108242523D01*
X133552381Y-108280618D01*
X133528571Y-108242523D01*
X133576190Y-108242523D01*
X133123810Y-107899666D02*
X133100000Y-107861571D01*
X133076190Y-107785380D01*
X133076190Y-107594904D01*
X133100000Y-107518714D01*
X133123810Y-107480618D01*
X133171429Y-107442523D01*
X133219048Y-107442523D01*
X133290476Y-107480618D01*
X133576190Y-107937761D01*
X133576190Y-107442523D01*
X133076190Y-106947285D02*
X133076190Y-106871094D01*
X133100000Y-106794904D01*
X133123810Y-106756809D01*
X133171429Y-106718713D01*
X133266667Y-106680618D01*
X133385714Y-106680618D01*
X133480952Y-106718713D01*
X133528571Y-106756809D01*
X133552381Y-106794904D01*
X133576190Y-106871094D01*
X133576190Y-106947285D01*
X133552381Y-107023475D01*
X133528571Y-107061571D01*
X133480952Y-107099666D01*
X133385714Y-107137761D01*
X133266667Y-107137761D01*
X133171429Y-107099666D01*
X133123810Y-107061571D01*
X133100000Y-107023475D01*
X133076190Y-106947285D01*
X133576190Y-105918713D02*
X133576190Y-106375856D01*
X133576190Y-106147285D02*
X133076190Y-106147285D01*
X133147619Y-106223475D01*
X133195238Y-106299666D01*
X133219048Y-106375856D01*
X133290476Y-105461570D02*
X133266667Y-105537761D01*
X133242857Y-105575856D01*
X133195238Y-105613951D01*
X133171429Y-105613951D01*
X133123810Y-105575856D01*
X133100000Y-105537761D01*
X133076190Y-105461570D01*
X133076190Y-105309189D01*
X133100000Y-105232999D01*
X133123810Y-105194903D01*
X133171429Y-105156808D01*
X133195238Y-105156808D01*
X133242857Y-105194903D01*
X133266667Y-105232999D01*
X133290476Y-105309189D01*
X133290476Y-105461570D01*
X133314286Y-105537761D01*
X133338095Y-105575856D01*
X133385714Y-105613951D01*
X133480952Y-105613951D01*
X133528571Y-105575856D01*
X133552381Y-105537761D01*
X133576190Y-105461570D01*
X133576190Y-105309189D01*
X133552381Y-105232999D01*
X133528571Y-105194903D01*
X133480952Y-105156808D01*
X133385714Y-105156808D01*
X133338095Y-105194903D01*
X133314286Y-105232999D01*
X133290476Y-105309189D01*
D12*
X143133573Y-118153571D02*
X142633573Y-117439286D01*
X142276430Y-118153571D02*
X142276430Y-116653571D01*
X142847858Y-116653571D01*
X142990716Y-116725000D01*
X143062144Y-116796429D01*
X143133573Y-116939286D01*
X143133573Y-117153571D01*
X143062144Y-117296429D01*
X142990716Y-117367857D01*
X142847858Y-117439286D01*
X142276430Y-117439286D01*
X144276430Y-117367857D02*
X144490716Y-117439286D01*
X144562144Y-117510714D01*
X144633573Y-117653571D01*
X144633573Y-117867857D01*
X144562144Y-118010714D01*
X144490716Y-118082143D01*
X144347858Y-118153571D01*
X143776430Y-118153571D01*
X143776430Y-116653571D01*
X144276430Y-116653571D01*
X144419287Y-116725000D01*
X144490716Y-116796429D01*
X144562144Y-116939286D01*
X144562144Y-117082143D01*
X144490716Y-117225000D01*
X144419287Y-117296429D01*
X144276430Y-117367857D01*
X143776430Y-117367857D01*
X145990716Y-118153571D02*
X145276430Y-118153571D01*
X145276430Y-116653571D01*
X146776430Y-116653571D02*
X146919287Y-116653571D01*
X147062144Y-116725000D01*
X147133573Y-116796429D01*
X147205002Y-116939286D01*
X147276430Y-117225000D01*
X147276430Y-117582143D01*
X147205002Y-117867857D01*
X147133573Y-118010714D01*
X147062144Y-118082143D01*
X146919287Y-118153571D01*
X146776430Y-118153571D01*
X146633573Y-118082143D01*
X146562144Y-118010714D01*
X146490716Y-117867857D01*
X146419287Y-117582143D01*
X146419287Y-117225000D01*
X146490716Y-116939286D01*
X146562144Y-116796429D01*
X146633573Y-116725000D01*
X146776430Y-116653571D01*
X148205001Y-116653571D02*
X148347858Y-116653571D01*
X148490715Y-116725000D01*
X148562144Y-116796429D01*
X148633573Y-116939286D01*
X148705001Y-117225000D01*
X148705001Y-117582143D01*
X148633573Y-117867857D01*
X148562144Y-118010714D01*
X148490715Y-118082143D01*
X148347858Y-118153571D01*
X148205001Y-118153571D01*
X148062144Y-118082143D01*
X147990715Y-118010714D01*
X147919287Y-117867857D01*
X147847858Y-117582143D01*
X147847858Y-117225000D01*
X147919287Y-116939286D01*
X147990715Y-116796429D01*
X148062144Y-116725000D01*
X148205001Y-116653571D01*
X150062144Y-116653571D02*
X149347858Y-116653571D01*
X149276429Y-117367857D01*
X149347858Y-117296429D01*
X149490715Y-117225000D01*
X149847858Y-117225000D01*
X149990715Y-117296429D01*
X150062144Y-117367857D01*
X150133572Y-117510714D01*
X150133572Y-117867857D01*
X150062144Y-118010714D01*
X149990715Y-118082143D01*
X149847858Y-118153571D01*
X149490715Y-118153571D01*
X149347858Y-118082143D01*
X149276429Y-118010714D01*
X150776429Y-118010714D02*
X150847857Y-118082143D01*
X150776429Y-118153571D01*
X150705000Y-118082143D01*
X150776429Y-118010714D01*
X150776429Y-118153571D01*
X151776429Y-116653571D02*
X151919286Y-116653571D01*
X152062143Y-116725000D01*
X152133572Y-116796429D01*
X152205001Y-116939286D01*
X152276429Y-117225000D01*
X152276429Y-117582143D01*
X152205001Y-117867857D01*
X152133572Y-118010714D01*
X152062143Y-118082143D01*
X151919286Y-118153571D01*
X151776429Y-118153571D01*
X151633572Y-118082143D01*
X151562143Y-118010714D01*
X151490715Y-117867857D01*
X151419286Y-117582143D01*
X151419286Y-117225000D01*
X151490715Y-116939286D01*
X151562143Y-116796429D01*
X151633572Y-116725000D01*
X151776429Y-116653571D01*
X153705000Y-118153571D02*
X152847857Y-118153571D01*
X153276429Y-118153571D02*
X153276429Y-116653571D01*
X153133572Y-116867857D01*
X152990714Y-117010714D01*
X152847857Y-117082143D01*
D13*
X158750000Y-111760000D02*
X154940000Y-115570000D01*
X154940000Y-115570000D02*
X135890000Y-115570000D01*
X135890000Y-115570000D02*
X135890000Y-92710000D01*
X135890000Y-92710000D02*
X158750000Y-92710000D01*
X158750000Y-92710000D02*
X158750000Y-111760000D01*
X135254905Y-91654381D02*
X135254905Y-92463905D01*
X135207286Y-92559143D01*
X135159667Y-92606762D01*
X135064429Y-92654381D01*
X134873952Y-92654381D01*
X134778714Y-92606762D01*
X134731095Y-92559143D01*
X134683476Y-92463905D01*
X134683476Y-91654381D01*
X133683476Y-92654381D02*
X134254905Y-92654381D01*
X133969191Y-92654381D02*
X133969191Y-91654381D01*
X134064429Y-91797238D01*
X134159667Y-91892476D01*
X134254905Y-91940095D01*
M02*
