%TF.GenerationSoftware,KiCad,Pcbnew,5.1.9+dfsg1-1+deb11u1*%
%TF.CreationDate,2022-11-30T10:20:37+01:00*%
%TF.ProjectId,A1200MPU-Adapter,41313230-304d-4505-952d-416461707465,2.0*%
%TF.SameCoordinates,Original*%
%TF.FileFunction,Soldermask,Top*%
%TF.FilePolarity,Negative*%
%FSLAX46Y46*%
G04 Gerber Fmt 4.6, Leading zero omitted, Abs format (unit mm)*
G04 Created by KiCad (PCBNEW 5.1.9+dfsg1-1+deb11u1) date 2022-11-30 10:20:37*
%MOMM*%
%LPD*%
G01*
G04 APERTURE LIST*
%ADD10C,1.700000*%
%ADD11R,1.422400X1.422400*%
%ADD12C,1.422400*%
G04 APERTURE END LIST*
%TO.C,C1*%
G36*
G01*
X161207001Y-106365000D02*
X160356999Y-106365000D01*
G75*
G02*
X160107000Y-106115001I0J249999D01*
G01*
X160107000Y-105039999D01*
G75*
G02*
X160356999Y-104790000I249999J0D01*
G01*
X161207001Y-104790000D01*
G75*
G02*
X161457000Y-105039999I0J-249999D01*
G01*
X161457000Y-106115001D01*
G75*
G02*
X161207001Y-106365000I-249999J0D01*
G01*
G37*
G36*
G01*
X161207001Y-103490000D02*
X160356999Y-103490000D01*
G75*
G02*
X160107000Y-103240001I0J249999D01*
G01*
X160107000Y-102164999D01*
G75*
G02*
X160356999Y-101915000I249999J0D01*
G01*
X161207001Y-101915000D01*
G75*
G02*
X161457000Y-102164999I0J-249999D01*
G01*
X161457000Y-103240001D01*
G75*
G02*
X161207001Y-103490000I-249999J0D01*
G01*
G37*
%TD*%
%TO.C,C2*%
G36*
G01*
X159400000Y-90595001D02*
X159400000Y-89744999D01*
G75*
G02*
X159649999Y-89495000I249999J0D01*
G01*
X160725001Y-89495000D01*
G75*
G02*
X160975000Y-89744999I0J-249999D01*
G01*
X160975000Y-90595001D01*
G75*
G02*
X160725001Y-90845000I-249999J0D01*
G01*
X159649999Y-90845000D01*
G75*
G02*
X159400000Y-90595001I0J249999D01*
G01*
G37*
G36*
G01*
X156525000Y-90595001D02*
X156525000Y-89744999D01*
G75*
G02*
X156774999Y-89495000I249999J0D01*
G01*
X157850001Y-89495000D01*
G75*
G02*
X158100000Y-89744999I0J-249999D01*
G01*
X158100000Y-90595001D01*
G75*
G02*
X157850001Y-90845000I-249999J0D01*
G01*
X156774999Y-90845000D01*
G75*
G02*
X156525000Y-90595001I0J249999D01*
G01*
G37*
%TD*%
%TO.C,C3*%
G36*
G01*
X141285000Y-90820002D02*
X141285000Y-89519998D01*
G75*
G02*
X141534998Y-89270000I249998J0D01*
G01*
X142360002Y-89270000D01*
G75*
G02*
X142610000Y-89519998I0J-249998D01*
G01*
X142610000Y-90820002D01*
G75*
G02*
X142360002Y-91070000I-249998J0D01*
G01*
X141534998Y-91070000D01*
G75*
G02*
X141285000Y-90820002I0J249998D01*
G01*
G37*
G36*
G01*
X144410000Y-90820002D02*
X144410000Y-89519998D01*
G75*
G02*
X144659998Y-89270000I249998J0D01*
G01*
X145485002Y-89270000D01*
G75*
G02*
X145735000Y-89519998I0J-249998D01*
G01*
X145735000Y-90820002D01*
G75*
G02*
X145485002Y-91070000I-249998J0D01*
G01*
X144659998Y-91070000D01*
G75*
G02*
X144410000Y-90820002I0J249998D01*
G01*
G37*
%TD*%
%TO.C,C4*%
G36*
G01*
X152030000Y-90820002D02*
X152030000Y-89519998D01*
G75*
G02*
X152279998Y-89270000I249998J0D01*
G01*
X153105002Y-89270000D01*
G75*
G02*
X153355000Y-89519998I0J-249998D01*
G01*
X153355000Y-90820002D01*
G75*
G02*
X153105002Y-91070000I-249998J0D01*
G01*
X152279998Y-91070000D01*
G75*
G02*
X152030000Y-90820002I0J249998D01*
G01*
G37*
G36*
G01*
X148905000Y-90820002D02*
X148905000Y-89519998D01*
G75*
G02*
X149154998Y-89270000I249998J0D01*
G01*
X149980002Y-89270000D01*
G75*
G02*
X150230000Y-89519998I0J-249998D01*
G01*
X150230000Y-90820002D01*
G75*
G02*
X149980002Y-91070000I-249998J0D01*
G01*
X149154998Y-91070000D01*
G75*
G02*
X148905000Y-90820002I0J249998D01*
G01*
G37*
%TD*%
%TO.C,D1*%
G36*
G01*
X134356000Y-106340000D02*
X133106000Y-106340000D01*
G75*
G02*
X132856000Y-106090000I0J250000D01*
G01*
X132856000Y-105165000D01*
G75*
G02*
X133106000Y-104915000I250000J0D01*
G01*
X134356000Y-104915000D01*
G75*
G02*
X134606000Y-105165000I0J-250000D01*
G01*
X134606000Y-106090000D01*
G75*
G02*
X134356000Y-106340000I-250000J0D01*
G01*
G37*
G36*
G01*
X134356000Y-103365000D02*
X133106000Y-103365000D01*
G75*
G02*
X132856000Y-103115000I0J250000D01*
G01*
X132856000Y-102190000D01*
G75*
G02*
X133106000Y-101940000I250000J0D01*
G01*
X134356000Y-101940000D01*
G75*
G02*
X134606000Y-102190000I0J-250000D01*
G01*
X134606000Y-103115000D01*
G75*
G02*
X134356000Y-103365000I-250000J0D01*
G01*
G37*
%TD*%
%TO.C,P1*%
G36*
G01*
X145200000Y-102454000D02*
X145200000Y-101254000D01*
G75*
G02*
X145450000Y-101004000I250000J0D01*
G01*
X146650000Y-101004000D01*
G75*
G02*
X146900000Y-101254000I0J-250000D01*
G01*
X146900000Y-102454000D01*
G75*
G02*
X146650000Y-102704000I-250000J0D01*
G01*
X145450000Y-102704000D01*
G75*
G02*
X145200000Y-102454000I0J250000D01*
G01*
G37*
D10*
X146050000Y-104394000D03*
X146050000Y-106934000D03*
X148590000Y-101854000D03*
X148590000Y-104394000D03*
X148590000Y-106934000D03*
%TD*%
%TO.C,R1*%
G36*
G01*
X133690000Y-90795001D02*
X133690000Y-89544999D01*
G75*
G02*
X133939999Y-89295000I249999J0D01*
G01*
X134740001Y-89295000D01*
G75*
G02*
X134990000Y-89544999I0J-249999D01*
G01*
X134990000Y-90795001D01*
G75*
G02*
X134740001Y-91045000I-249999J0D01*
G01*
X133939999Y-91045000D01*
G75*
G02*
X133690000Y-90795001I0J249999D01*
G01*
G37*
G36*
G01*
X136790000Y-90795001D02*
X136790000Y-89544999D01*
G75*
G02*
X137039999Y-89295000I249999J0D01*
G01*
X137840001Y-89295000D01*
G75*
G02*
X138090000Y-89544999I0J-249999D01*
G01*
X138090000Y-90795001D01*
G75*
G02*
X137840001Y-91045000I-249999J0D01*
G01*
X137039999Y-91045000D01*
G75*
G02*
X136790000Y-90795001I0J249999D01*
G01*
G37*
%TD*%
D11*
%TO.C,U1*%
X153670000Y-103124000D03*
D12*
X153670000Y-105664000D03*
X153670000Y-108204000D03*
X153670000Y-100584000D03*
X153670000Y-98044000D03*
X156210000Y-105664000D03*
X156210000Y-108204000D03*
X156210000Y-110744000D03*
X156210000Y-103124000D03*
X156210000Y-100584000D03*
X153670000Y-110744000D03*
X151130000Y-110744000D03*
X148590000Y-110744000D03*
X146050000Y-110744000D03*
X143510000Y-110744000D03*
X153670000Y-113284000D03*
X151130000Y-113284000D03*
X148590000Y-113284000D03*
X146050000Y-113284000D03*
X143510000Y-113284000D03*
X140970000Y-113284000D03*
X140970000Y-110744000D03*
X140970000Y-108204000D03*
X140970000Y-105664000D03*
X140970000Y-103124000D03*
X140970000Y-100584000D03*
X140970000Y-95504000D03*
X138430000Y-110744000D03*
X138430000Y-108204000D03*
X138430000Y-105664000D03*
X138430000Y-103124000D03*
X138430000Y-100584000D03*
X138430000Y-98044000D03*
X140970000Y-98044000D03*
X143510000Y-98044000D03*
X146050000Y-98044000D03*
X148590000Y-98044000D03*
X151130000Y-98044000D03*
X156210000Y-98044000D03*
X143510000Y-95504000D03*
X146050000Y-95504000D03*
X148590000Y-95504000D03*
X151130000Y-95504000D03*
X153670000Y-95504000D03*
%TD*%
M02*
