%TF.GenerationSoftware,KiCad,Pcbnew,5.1.9+dfsg1-1+deb11u1*%
%TF.CreationDate,2022-11-10T09:50:42+01:00*%
%TF.ProjectId,A1200MPU-Adapter,41313230-304d-4505-952d-416461707465,2.0*%
%TF.SameCoordinates,Original*%
%TF.FileFunction,Copper,L1,Top*%
%TF.FilePolarity,Positive*%
%FSLAX46Y46*%
G04 Gerber Fmt 4.6, Leading zero omitted, Abs format (unit mm)*
G04 Created by KiCad (PCBNEW 5.1.9+dfsg1-1+deb11u1) date 2022-11-10 09:50:42*
%MOMM*%
%LPD*%
G01*
G04 APERTURE LIST*
%TA.AperFunction,ComponentPad*%
%ADD10C,1.700000*%
%TD*%
%TA.AperFunction,ComponentPad*%
%ADD11R,1.422400X1.422400*%
%TD*%
%TA.AperFunction,ComponentPad*%
%ADD12C,1.422400*%
%TD*%
%TA.AperFunction,Conductor*%
%ADD13C,0.300000*%
%TD*%
%TA.AperFunction,Conductor*%
%ADD14C,0.254000*%
%TD*%
%TA.AperFunction,Conductor*%
%ADD15C,0.100000*%
%TD*%
G04 APERTURE END LIST*
%TO.P,C1,1*%
%TO.N,VCC5V*%
%TA.AperFunction,SMDPad,CuDef*%
G36*
G01*
X161207001Y-106365000D02*
X160356999Y-106365000D01*
G75*
G02*
X160107000Y-106115001I0J249999D01*
G01*
X160107000Y-105039999D01*
G75*
G02*
X160356999Y-104790000I249999J0D01*
G01*
X161207001Y-104790000D01*
G75*
G02*
X161457000Y-105039999I0J-249999D01*
G01*
X161457000Y-106115001D01*
G75*
G02*
X161207001Y-106365000I-249999J0D01*
G01*
G37*
%TD.AperFunction*%
%TO.P,C1,2*%
%TO.N,GND*%
%TA.AperFunction,SMDPad,CuDef*%
G36*
G01*
X161207001Y-103490000D02*
X160356999Y-103490000D01*
G75*
G02*
X160107000Y-103240001I0J249999D01*
G01*
X160107000Y-102164999D01*
G75*
G02*
X160356999Y-101915000I249999J0D01*
G01*
X161207001Y-101915000D01*
G75*
G02*
X161457000Y-102164999I0J-249999D01*
G01*
X161457000Y-103240001D01*
G75*
G02*
X161207001Y-103490000I-249999J0D01*
G01*
G37*
%TD.AperFunction*%
%TD*%
%TO.P,C2,2*%
%TO.N,GND*%
%TA.AperFunction,SMDPad,CuDef*%
G36*
G01*
X159400000Y-90595001D02*
X159400000Y-89744999D01*
G75*
G02*
X159649999Y-89495000I249999J0D01*
G01*
X160725001Y-89495000D01*
G75*
G02*
X160975000Y-89744999I0J-249999D01*
G01*
X160975000Y-90595001D01*
G75*
G02*
X160725001Y-90845000I-249999J0D01*
G01*
X159649999Y-90845000D01*
G75*
G02*
X159400000Y-90595001I0J249999D01*
G01*
G37*
%TD.AperFunction*%
%TO.P,C2,1*%
%TO.N,VCC5V*%
%TA.AperFunction,SMDPad,CuDef*%
G36*
G01*
X156525000Y-90595001D02*
X156525000Y-89744999D01*
G75*
G02*
X156774999Y-89495000I249999J0D01*
G01*
X157850001Y-89495000D01*
G75*
G02*
X158100000Y-89744999I0J-249999D01*
G01*
X158100000Y-90595001D01*
G75*
G02*
X157850001Y-90845000I-249999J0D01*
G01*
X156774999Y-90845000D01*
G75*
G02*
X156525000Y-90595001I0J249999D01*
G01*
G37*
%TD.AperFunction*%
%TD*%
%TO.P,C3,1*%
%TO.N,VCC5V*%
%TA.AperFunction,SMDPad,CuDef*%
G36*
G01*
X141285000Y-90820001D02*
X141285000Y-89519999D01*
G75*
G02*
X141534999Y-89270000I249999J0D01*
G01*
X142360001Y-89270000D01*
G75*
G02*
X142610000Y-89519999I0J-249999D01*
G01*
X142610000Y-90820001D01*
G75*
G02*
X142360001Y-91070000I-249999J0D01*
G01*
X141534999Y-91070000D01*
G75*
G02*
X141285000Y-90820001I0J249999D01*
G01*
G37*
%TD.AperFunction*%
%TO.P,C3,2*%
%TO.N,GND*%
%TA.AperFunction,SMDPad,CuDef*%
G36*
G01*
X144410000Y-90820001D02*
X144410000Y-89519999D01*
G75*
G02*
X144659999Y-89270000I249999J0D01*
G01*
X145485001Y-89270000D01*
G75*
G02*
X145735000Y-89519999I0J-249999D01*
G01*
X145735000Y-90820001D01*
G75*
G02*
X145485001Y-91070000I-249999J0D01*
G01*
X144659999Y-91070000D01*
G75*
G02*
X144410000Y-90820001I0J249999D01*
G01*
G37*
%TD.AperFunction*%
%TD*%
%TO.P,C4,2*%
%TO.N,GND*%
%TA.AperFunction,SMDPad,CuDef*%
G36*
G01*
X152030000Y-90820001D02*
X152030000Y-89519999D01*
G75*
G02*
X152279999Y-89270000I249999J0D01*
G01*
X153105001Y-89270000D01*
G75*
G02*
X153355000Y-89519999I0J-249999D01*
G01*
X153355000Y-90820001D01*
G75*
G02*
X153105001Y-91070000I-249999J0D01*
G01*
X152279999Y-91070000D01*
G75*
G02*
X152030000Y-90820001I0J249999D01*
G01*
G37*
%TD.AperFunction*%
%TO.P,C4,1*%
%TO.N,VCC5V*%
%TA.AperFunction,SMDPad,CuDef*%
G36*
G01*
X148905000Y-90820001D02*
X148905000Y-89519999D01*
G75*
G02*
X149154999Y-89270000I249999J0D01*
G01*
X149980001Y-89270000D01*
G75*
G02*
X150230000Y-89519999I0J-249999D01*
G01*
X150230000Y-90820001D01*
G75*
G02*
X149980001Y-91070000I-249999J0D01*
G01*
X149154999Y-91070000D01*
G75*
G02*
X148905000Y-90820001I0J249999D01*
G01*
G37*
%TD.AperFunction*%
%TD*%
%TO.P,D1,1*%
%TO.N,GND*%
%TA.AperFunction,SMDPad,CuDef*%
G36*
G01*
X134356000Y-106340000D02*
X133106000Y-106340000D01*
G75*
G02*
X132856000Y-106090000I0J250000D01*
G01*
X132856000Y-105165000D01*
G75*
G02*
X133106000Y-104915000I250000J0D01*
G01*
X134356000Y-104915000D01*
G75*
G02*
X134606000Y-105165000I0J-250000D01*
G01*
X134606000Y-106090000D01*
G75*
G02*
X134356000Y-106340000I-250000J0D01*
G01*
G37*
%TD.AperFunction*%
%TO.P,D1,2*%
%TO.N,Net-(D1-Pad2)*%
%TA.AperFunction,SMDPad,CuDef*%
G36*
G01*
X134356000Y-103365000D02*
X133106000Y-103365000D01*
G75*
G02*
X132856000Y-103115000I0J250000D01*
G01*
X132856000Y-102190000D01*
G75*
G02*
X133106000Y-101940000I250000J0D01*
G01*
X134356000Y-101940000D01*
G75*
G02*
X134606000Y-102190000I0J-250000D01*
G01*
X134606000Y-103115000D01*
G75*
G02*
X134356000Y-103365000I-250000J0D01*
G01*
G37*
%TD.AperFunction*%
%TD*%
%TO.P,P1,1*%
%TO.N,mKBD_CLOCK*%
%TA.AperFunction,ComponentPad*%
G36*
G01*
X145200000Y-102454000D02*
X145200000Y-101254000D01*
G75*
G02*
X145450000Y-101004000I250000J0D01*
G01*
X146650000Y-101004000D01*
G75*
G02*
X146900000Y-101254000I0J-250000D01*
G01*
X146900000Y-102454000D01*
G75*
G02*
X146650000Y-102704000I-250000J0D01*
G01*
X145450000Y-102704000D01*
G75*
G02*
X145200000Y-102454000I0J250000D01*
G01*
G37*
%TD.AperFunction*%
D10*
%TO.P,P1,3*%
%TO.N,GND*%
X146050000Y-104394000D03*
%TO.P,P1,5*%
%TO.N,mKBD_RESET*%
X146050000Y-106934000D03*
%TO.P,P1,2*%
%TO.N,mKBD_DATA*%
X148590000Y-101854000D03*
%TO.P,P1,4*%
%TO.N,GND*%
X148590000Y-104394000D03*
%TO.P,P1,6*%
%TO.N,VCC5V*%
X148590000Y-106934000D03*
%TD*%
%TO.P,R1,1*%
%TO.N,Net-(D1-Pad2)*%
%TA.AperFunction,SMDPad,CuDef*%
G36*
G01*
X133690000Y-90795000D02*
X133690000Y-89545000D01*
G75*
G02*
X133940000Y-89295000I250000J0D01*
G01*
X134740000Y-89295000D01*
G75*
G02*
X134990000Y-89545000I0J-250000D01*
G01*
X134990000Y-90795000D01*
G75*
G02*
X134740000Y-91045000I-250000J0D01*
G01*
X133940000Y-91045000D01*
G75*
G02*
X133690000Y-90795000I0J250000D01*
G01*
G37*
%TD.AperFunction*%
%TO.P,R1,2*%
%TO.N,VCC5V*%
%TA.AperFunction,SMDPad,CuDef*%
G36*
G01*
X136790000Y-90795000D02*
X136790000Y-89545000D01*
G75*
G02*
X137040000Y-89295000I250000J0D01*
G01*
X137840000Y-89295000D01*
G75*
G02*
X138090000Y-89545000I0J-250000D01*
G01*
X138090000Y-90795000D01*
G75*
G02*
X137840000Y-91045000I-250000J0D01*
G01*
X137040000Y-91045000D01*
G75*
G02*
X136790000Y-90795000I0J250000D01*
G01*
G37*
%TD.AperFunction*%
%TD*%
D11*
%TO.P,U1,1*%
%TO.N,N/C*%
X153670000Y-103124000D03*
D12*
%TO.P,U1,3*%
X153670000Y-105664000D03*
%TO.P,U1,5*%
X153670000Y-108204000D03*
%TO.P,U1,43*%
%TO.N,mKBD_CLOCK*%
X153670000Y-100584000D03*
%TO.P,U1,41*%
%TO.N,N/C*%
X153670000Y-98044000D03*
%TO.P,U1,2*%
X156210000Y-105664000D03*
%TO.P,U1,4*%
X156210000Y-108204000D03*
%TO.P,U1,6*%
X156210000Y-110744000D03*
%TO.P,U1,44*%
%TO.N,mKBD_DATA*%
X156210000Y-103124000D03*
%TO.P,U1,42*%
%TO.N,N/C*%
X156210000Y-100584000D03*
%TO.P,U1,8*%
X153670000Y-110744000D03*
%TO.P,U1,10*%
X151130000Y-110744000D03*
%TO.P,U1,12*%
X148590000Y-110744000D03*
%TO.P,U1,14*%
X146050000Y-110744000D03*
%TO.P,U1,16*%
X143510000Y-110744000D03*
%TO.P,U1,7*%
X153670000Y-113284000D03*
%TO.P,U1,9*%
X151130000Y-113284000D03*
%TO.P,U1,11*%
%TO.N,VCC5V*%
X148590000Y-113284000D03*
%TO.P,U1,13*%
X146050000Y-113284000D03*
%TO.P,U1,15*%
%TO.N,N/C*%
X143510000Y-113284000D03*
%TO.P,U1,17*%
X140970000Y-113284000D03*
%TO.P,U1,19*%
%TO.N,mKBD_RESET*%
X140970000Y-110744000D03*
%TO.P,U1,21*%
%TO.N,N/C*%
X140970000Y-108204000D03*
%TO.P,U1,23*%
X140970000Y-105664000D03*
%TO.P,U1,25*%
X140970000Y-103124000D03*
%TO.P,U1,27*%
X140970000Y-100584000D03*
%TO.P,U1,29*%
X140970000Y-95504000D03*
%TO.P,U1,18*%
X138430000Y-110744000D03*
%TO.P,U1,20*%
X138430000Y-108204000D03*
%TO.P,U1,22*%
X138430000Y-105664000D03*
%TO.P,U1,24*%
X138430000Y-103124000D03*
%TO.P,U1,26*%
X138430000Y-100584000D03*
%TO.P,U1,28*%
X138430000Y-98044000D03*
%TO.P,U1,30*%
X140970000Y-98044000D03*
%TO.P,U1,32*%
X143510000Y-98044000D03*
%TO.P,U1,34*%
X146050000Y-98044000D03*
%TO.P,U1,36*%
X148590000Y-98044000D03*
%TO.P,U1,38*%
X151130000Y-98044000D03*
%TO.P,U1,40*%
X156210000Y-98044000D03*
%TO.P,U1,31*%
X143510000Y-95504000D03*
%TO.P,U1,33*%
X146050000Y-95504000D03*
%TO.P,U1,35*%
%TO.N,GND*%
X148590000Y-95504000D03*
%TO.P,U1,37*%
%TO.N,N/C*%
X151130000Y-95504000D03*
%TO.P,U1,39*%
X153670000Y-95504000D03*
%TD*%
D13*
%TO.N,VCC5V*%
X149567500Y-90170000D02*
X150851900Y-88885600D01*
X150851900Y-88885600D02*
X156028100Y-88885600D01*
X156028100Y-88885600D02*
X157312500Y-90170000D01*
X141948000Y-90170000D02*
X143203200Y-88914800D01*
X143203200Y-88914800D02*
X148312300Y-88914800D01*
X148312300Y-88914800D02*
X149567500Y-90170000D01*
X160782000Y-105577500D02*
X161817200Y-104542300D01*
X161817200Y-104542300D02*
X161817200Y-89961700D01*
X161817200Y-89961700D02*
X160961900Y-89106400D01*
X160961900Y-89106400D02*
X158376100Y-89106400D01*
X158376100Y-89106400D02*
X157312500Y-90170000D01*
X160782000Y-105578000D02*
X160782000Y-105577500D01*
X148590000Y-106934000D02*
X160576000Y-106934000D01*
X160576000Y-106934000D02*
X160782000Y-106728000D01*
X160782000Y-106728000D02*
X160782000Y-105578000D01*
X141947500Y-90170000D02*
X141948000Y-90170000D01*
X137440000Y-90170000D02*
X141947500Y-90170000D01*
X146050000Y-113284000D02*
X147326000Y-113284000D01*
X148590000Y-106934000D02*
X147514000Y-108010000D01*
X147514000Y-108010000D02*
X147514000Y-108326000D01*
X147514000Y-108326000D02*
X147326000Y-108514000D01*
X147326000Y-108514000D02*
X147326000Y-113284000D01*
X147326000Y-113284000D02*
X148590000Y-113284000D01*
%TO.N,GND*%
X160187500Y-90170000D02*
X160188000Y-90170000D01*
X148700000Y-92330000D02*
X151600000Y-92330000D01*
X151600000Y-92330000D02*
X152156800Y-91772900D01*
X160188000Y-90977500D02*
X160782000Y-91572000D01*
X160782000Y-91572000D02*
X160782000Y-102702000D01*
X160188000Y-90170000D02*
X160188000Y-90977500D01*
X152156800Y-91772900D02*
X159392600Y-91772900D01*
X159392600Y-91772900D02*
X160188000Y-90977500D01*
X152156800Y-91772900D02*
X152692000Y-91237500D01*
X152692000Y-91237500D02*
X152692000Y-90703700D01*
X145072000Y-90511200D02*
X145072500Y-90510700D01*
X145072500Y-90510700D02*
X145072500Y-90170000D01*
X145072000Y-90511200D02*
X145072000Y-90852500D01*
X145072000Y-90852500D02*
X146550000Y-92330000D01*
X146550000Y-92330000D02*
X148700000Y-92330000D01*
X145072000Y-90170000D02*
X145072000Y-90511200D01*
X152692000Y-90703700D02*
X152692500Y-90703200D01*
X152692500Y-90703200D02*
X152692500Y-90170000D01*
X152692000Y-90703700D02*
X152692000Y-90170000D01*
X160782000Y-102702000D02*
X160782000Y-102702500D01*
X133731500Y-105628000D02*
X133731000Y-105627500D01*
X133731500Y-105628000D02*
X135712000Y-105628000D01*
X135712000Y-105628000D02*
X136737000Y-104603000D01*
X136737000Y-104603000D02*
X136737000Y-104573000D01*
X136737000Y-104573000D02*
X136916000Y-104394000D01*
X136916000Y-104394000D02*
X146050000Y-104394000D01*
X133731000Y-105628000D02*
X133731500Y-105628000D01*
X146050000Y-104394000D02*
X148590000Y-104394000D01*
X148590000Y-95504000D02*
X148590000Y-92440000D01*
X148590000Y-92440000D02*
X148700000Y-92330000D01*
%TO.N,Net-(D1-Pad2)*%
X133731000Y-102652000D02*
X133731000Y-102652500D01*
X133731000Y-102652000D02*
X133731000Y-92639000D01*
X133731000Y-92639000D02*
X134340000Y-92030000D01*
X134340000Y-92030000D02*
X134340000Y-90170000D01*
%TO.N,mKBD_CLOCK*%
X146050000Y-101854000D02*
X146050000Y-101530000D01*
X146050000Y-101530000D02*
X146996000Y-100584000D01*
X146996000Y-100584000D02*
X153670000Y-100584000D01*
%TO.N,mKBD_DATA*%
X148590000Y-101854000D02*
X150644000Y-101854000D01*
X150644000Y-101854000D02*
X151570000Y-102780000D01*
X151570000Y-102780000D02*
X151570000Y-103660000D01*
X151570000Y-103660000D02*
X152360000Y-104450000D01*
X152360000Y-104450000D02*
X154884000Y-104450000D01*
X154884000Y-104450000D02*
X156210000Y-103124000D01*
%TD*%
D14*
%TO.N,GND*%
X136301595Y-89051614D02*
X136219528Y-89205150D01*
X136168992Y-89371746D01*
X136151928Y-89545000D01*
X136151928Y-90795000D01*
X136168992Y-90968254D01*
X136219528Y-91134850D01*
X136301595Y-91288386D01*
X136412038Y-91422962D01*
X136546614Y-91533405D01*
X136700150Y-91615472D01*
X136866746Y-91666008D01*
X137040000Y-91683072D01*
X137840000Y-91683072D01*
X138013254Y-91666008D01*
X138179850Y-91615472D01*
X138333386Y-91533405D01*
X138467962Y-91422962D01*
X138578405Y-91288386D01*
X138660472Y-91134850D01*
X138711008Y-90968254D01*
X138712313Y-90955000D01*
X140660224Y-90955000D01*
X140663992Y-90993255D01*
X140714528Y-91159851D01*
X140796595Y-91313387D01*
X140907038Y-91447962D01*
X141041613Y-91558405D01*
X141195149Y-91640472D01*
X141361745Y-91691008D01*
X141534999Y-91708072D01*
X142360001Y-91708072D01*
X142533255Y-91691008D01*
X142699851Y-91640472D01*
X142853387Y-91558405D01*
X142987962Y-91447962D01*
X143098405Y-91313387D01*
X143180472Y-91159851D01*
X143207727Y-91070000D01*
X143771928Y-91070000D01*
X143784188Y-91194482D01*
X143820498Y-91314180D01*
X143879463Y-91424494D01*
X143958815Y-91521185D01*
X144055506Y-91600537D01*
X144165820Y-91659502D01*
X144285518Y-91695812D01*
X144410000Y-91708072D01*
X144786750Y-91705000D01*
X144945500Y-91546250D01*
X144945500Y-90297000D01*
X145199500Y-90297000D01*
X145199500Y-91546250D01*
X145358250Y-91705000D01*
X145735000Y-91708072D01*
X145859482Y-91695812D01*
X145979180Y-91659502D01*
X146089494Y-91600537D01*
X146186185Y-91521185D01*
X146265537Y-91424494D01*
X146324502Y-91314180D01*
X146360812Y-91194482D01*
X146373072Y-91070000D01*
X146370000Y-90455750D01*
X146211250Y-90297000D01*
X145199500Y-90297000D01*
X144945500Y-90297000D01*
X143933750Y-90297000D01*
X143775000Y-90455750D01*
X143771928Y-91070000D01*
X143207727Y-91070000D01*
X143231008Y-90993255D01*
X143248072Y-90820001D01*
X143248072Y-89980085D01*
X143528357Y-89699800D01*
X143774078Y-89699800D01*
X143775000Y-89884250D01*
X143933750Y-90043000D01*
X144945500Y-90043000D01*
X144945500Y-90023000D01*
X145199500Y-90023000D01*
X145199500Y-90043000D01*
X146211250Y-90043000D01*
X146370000Y-89884250D01*
X146370922Y-89699800D01*
X147987143Y-89699800D01*
X148266928Y-89979585D01*
X148266928Y-90820001D01*
X148283992Y-90993255D01*
X148334528Y-91159851D01*
X148416595Y-91313387D01*
X148527038Y-91447962D01*
X148661613Y-91558405D01*
X148815149Y-91640472D01*
X148981745Y-91691008D01*
X149154999Y-91708072D01*
X149980001Y-91708072D01*
X150153255Y-91691008D01*
X150319851Y-91640472D01*
X150473387Y-91558405D01*
X150607962Y-91447962D01*
X150718405Y-91313387D01*
X150800472Y-91159851D01*
X150827727Y-91070000D01*
X151391928Y-91070000D01*
X151404188Y-91194482D01*
X151440498Y-91314180D01*
X151499463Y-91424494D01*
X151578815Y-91521185D01*
X151675506Y-91600537D01*
X151785820Y-91659502D01*
X151905518Y-91695812D01*
X152030000Y-91708072D01*
X152406750Y-91705000D01*
X152565500Y-91546250D01*
X152565500Y-90297000D01*
X152819500Y-90297000D01*
X152819500Y-91546250D01*
X152978250Y-91705000D01*
X153355000Y-91708072D01*
X153479482Y-91695812D01*
X153599180Y-91659502D01*
X153709494Y-91600537D01*
X153806185Y-91521185D01*
X153885537Y-91424494D01*
X153944502Y-91314180D01*
X153980812Y-91194482D01*
X153993072Y-91070000D01*
X153990000Y-90455750D01*
X153831250Y-90297000D01*
X152819500Y-90297000D01*
X152565500Y-90297000D01*
X151553750Y-90297000D01*
X151395000Y-90455750D01*
X151391928Y-91070000D01*
X150827727Y-91070000D01*
X150851008Y-90993255D01*
X150868072Y-90820001D01*
X150868072Y-89979586D01*
X151177058Y-89670600D01*
X151393931Y-89670600D01*
X151395000Y-89884250D01*
X151553750Y-90043000D01*
X152565500Y-90043000D01*
X152565500Y-90023000D01*
X152819500Y-90023000D01*
X152819500Y-90043000D01*
X153831250Y-90043000D01*
X153990000Y-89884250D01*
X153991069Y-89670600D01*
X155702943Y-89670600D01*
X155886928Y-89854585D01*
X155886928Y-90595001D01*
X155903992Y-90768255D01*
X155954528Y-90934851D01*
X156036595Y-91088387D01*
X156147038Y-91222962D01*
X156281613Y-91333405D01*
X156435149Y-91415472D01*
X156601745Y-91466008D01*
X156774999Y-91483072D01*
X157850001Y-91483072D01*
X158023255Y-91466008D01*
X158189851Y-91415472D01*
X158343387Y-91333405D01*
X158477962Y-91222962D01*
X158588405Y-91088387D01*
X158670472Y-90934851D01*
X158697727Y-90845000D01*
X158761928Y-90845000D01*
X158774188Y-90969482D01*
X158810498Y-91089180D01*
X158869463Y-91199494D01*
X158948815Y-91296185D01*
X159045506Y-91375537D01*
X159155820Y-91434502D01*
X159275518Y-91470812D01*
X159400000Y-91483072D01*
X159901750Y-91480000D01*
X160060500Y-91321250D01*
X160060500Y-90297000D01*
X158923750Y-90297000D01*
X158765000Y-90455750D01*
X158761928Y-90845000D01*
X158697727Y-90845000D01*
X158721008Y-90768255D01*
X158738072Y-90595001D01*
X158738072Y-89891400D01*
X158772150Y-89891400D01*
X158923750Y-90043000D01*
X160060500Y-90043000D01*
X160060500Y-90023000D01*
X160314500Y-90023000D01*
X160314500Y-90043000D01*
X160334500Y-90043000D01*
X160334500Y-90297000D01*
X160314500Y-90297000D01*
X160314500Y-91321250D01*
X160473250Y-91480000D01*
X160975000Y-91483072D01*
X161032201Y-91477438D01*
X161032200Y-101315550D01*
X160909000Y-101438750D01*
X160909000Y-102575500D01*
X160929000Y-102575500D01*
X160929000Y-102829500D01*
X160909000Y-102829500D01*
X160909000Y-103966250D01*
X161032200Y-104089450D01*
X161032200Y-104151928D01*
X160356999Y-104151928D01*
X160183745Y-104168992D01*
X160017149Y-104219528D01*
X159863613Y-104301595D01*
X159729038Y-104412038D01*
X159618595Y-104546613D01*
X159536528Y-104700149D01*
X159485992Y-104866745D01*
X159468928Y-105039999D01*
X159468928Y-106115001D01*
X159472277Y-106149000D01*
X157466223Y-106149000D01*
X157504467Y-106056672D01*
X157556200Y-105796589D01*
X157556200Y-105531411D01*
X157504467Y-105271328D01*
X157402987Y-105026335D01*
X157255662Y-104805847D01*
X157068153Y-104618338D01*
X156847665Y-104471013D01*
X156661740Y-104394000D01*
X156847665Y-104316987D01*
X157068153Y-104169662D01*
X157255662Y-103982153D01*
X157402987Y-103761665D01*
X157504467Y-103516672D01*
X157509772Y-103490000D01*
X159468928Y-103490000D01*
X159481188Y-103614482D01*
X159517498Y-103734180D01*
X159576463Y-103844494D01*
X159655815Y-103941185D01*
X159752506Y-104020537D01*
X159862820Y-104079502D01*
X159982518Y-104115812D01*
X160107000Y-104128072D01*
X160496250Y-104125000D01*
X160655000Y-103966250D01*
X160655000Y-102829500D01*
X159630750Y-102829500D01*
X159472000Y-102988250D01*
X159468928Y-103490000D01*
X157509772Y-103490000D01*
X157556200Y-103256589D01*
X157556200Y-102991411D01*
X157504467Y-102731328D01*
X157402987Y-102486335D01*
X157255662Y-102265847D01*
X157068153Y-102078338D01*
X156847665Y-101931013D01*
X156809007Y-101915000D01*
X159468928Y-101915000D01*
X159472000Y-102416750D01*
X159630750Y-102575500D01*
X160655000Y-102575500D01*
X160655000Y-101438750D01*
X160496250Y-101280000D01*
X160107000Y-101276928D01*
X159982518Y-101289188D01*
X159862820Y-101325498D01*
X159752506Y-101384463D01*
X159655815Y-101463815D01*
X159576463Y-101560506D01*
X159517498Y-101670820D01*
X159481188Y-101790518D01*
X159468928Y-101915000D01*
X156809007Y-101915000D01*
X156661740Y-101854000D01*
X156847665Y-101776987D01*
X157068153Y-101629662D01*
X157255662Y-101442153D01*
X157402987Y-101221665D01*
X157504467Y-100976672D01*
X157556200Y-100716589D01*
X157556200Y-100451411D01*
X157504467Y-100191328D01*
X157402987Y-99946335D01*
X157255662Y-99725847D01*
X157068153Y-99538338D01*
X156847665Y-99391013D01*
X156661740Y-99314000D01*
X156847665Y-99236987D01*
X157068153Y-99089662D01*
X157255662Y-98902153D01*
X157402987Y-98681665D01*
X157504467Y-98436672D01*
X157556200Y-98176589D01*
X157556200Y-97911411D01*
X157504467Y-97651328D01*
X157402987Y-97406335D01*
X157255662Y-97185847D01*
X157068153Y-96998338D01*
X156847665Y-96851013D01*
X156602672Y-96749533D01*
X156342589Y-96697800D01*
X156077411Y-96697800D01*
X155817328Y-96749533D01*
X155572335Y-96851013D01*
X155351847Y-96998338D01*
X155164338Y-97185847D01*
X155017013Y-97406335D01*
X154940000Y-97592260D01*
X154862987Y-97406335D01*
X154715662Y-97185847D01*
X154528153Y-96998338D01*
X154307665Y-96851013D01*
X154121740Y-96774000D01*
X154307665Y-96696987D01*
X154528153Y-96549662D01*
X154715662Y-96362153D01*
X154862987Y-96141665D01*
X154964467Y-95896672D01*
X155016200Y-95636589D01*
X155016200Y-95371411D01*
X154964467Y-95111328D01*
X154862987Y-94866335D01*
X154715662Y-94645847D01*
X154528153Y-94458338D01*
X154307665Y-94311013D01*
X154062672Y-94209533D01*
X153802589Y-94157800D01*
X153537411Y-94157800D01*
X153277328Y-94209533D01*
X153032335Y-94311013D01*
X152811847Y-94458338D01*
X152624338Y-94645847D01*
X152477013Y-94866335D01*
X152400000Y-95052260D01*
X152322987Y-94866335D01*
X152175662Y-94645847D01*
X151988153Y-94458338D01*
X151767665Y-94311013D01*
X151522672Y-94209533D01*
X151262589Y-94157800D01*
X150997411Y-94157800D01*
X150737328Y-94209533D01*
X150492335Y-94311013D01*
X150271847Y-94458338D01*
X150084338Y-94645847D01*
X149937013Y-94866335D01*
X149859031Y-95054600D01*
X149809542Y-94918720D01*
X149754183Y-94815152D01*
X149519273Y-94754332D01*
X148769605Y-95504000D01*
X149519273Y-96253668D01*
X149754183Y-96192848D01*
X149862206Y-95961066D01*
X149937013Y-96141665D01*
X150084338Y-96362153D01*
X150271847Y-96549662D01*
X150492335Y-96696987D01*
X150678260Y-96774000D01*
X150492335Y-96851013D01*
X150271847Y-96998338D01*
X150084338Y-97185847D01*
X149937013Y-97406335D01*
X149860000Y-97592260D01*
X149782987Y-97406335D01*
X149635662Y-97185847D01*
X149448153Y-96998338D01*
X149227665Y-96851013D01*
X149039400Y-96773031D01*
X149175280Y-96723542D01*
X149278848Y-96668183D01*
X149339668Y-96433273D01*
X148590000Y-95683605D01*
X147840332Y-96433273D01*
X147901152Y-96668183D01*
X148132934Y-96776206D01*
X147952335Y-96851013D01*
X147731847Y-96998338D01*
X147544338Y-97185847D01*
X147397013Y-97406335D01*
X147320000Y-97592260D01*
X147242987Y-97406335D01*
X147095662Y-97185847D01*
X146908153Y-96998338D01*
X146687665Y-96851013D01*
X146501740Y-96774000D01*
X146687665Y-96696987D01*
X146908153Y-96549662D01*
X147095662Y-96362153D01*
X147242987Y-96141665D01*
X147320969Y-95953400D01*
X147370458Y-96089280D01*
X147425817Y-96192848D01*
X147660727Y-96253668D01*
X148410395Y-95504000D01*
X147660727Y-94754332D01*
X147425817Y-94815152D01*
X147317794Y-95046934D01*
X147242987Y-94866335D01*
X147095662Y-94645847D01*
X147024542Y-94574727D01*
X147840332Y-94574727D01*
X148590000Y-95324395D01*
X149339668Y-94574727D01*
X149278848Y-94339817D01*
X149038491Y-94227798D01*
X148780898Y-94164824D01*
X148515970Y-94153313D01*
X148253887Y-94193709D01*
X148004720Y-94284458D01*
X147901152Y-94339817D01*
X147840332Y-94574727D01*
X147024542Y-94574727D01*
X146908153Y-94458338D01*
X146687665Y-94311013D01*
X146442672Y-94209533D01*
X146182589Y-94157800D01*
X145917411Y-94157800D01*
X145657328Y-94209533D01*
X145412335Y-94311013D01*
X145191847Y-94458338D01*
X145004338Y-94645847D01*
X144857013Y-94866335D01*
X144780000Y-95052260D01*
X144702987Y-94866335D01*
X144555662Y-94645847D01*
X144368153Y-94458338D01*
X144147665Y-94311013D01*
X143902672Y-94209533D01*
X143642589Y-94157800D01*
X143377411Y-94157800D01*
X143117328Y-94209533D01*
X142872335Y-94311013D01*
X142651847Y-94458338D01*
X142464338Y-94645847D01*
X142317013Y-94866335D01*
X142240000Y-95052260D01*
X142162987Y-94866335D01*
X142015662Y-94645847D01*
X141828153Y-94458338D01*
X141607665Y-94311013D01*
X141362672Y-94209533D01*
X141102589Y-94157800D01*
X140837411Y-94157800D01*
X140577328Y-94209533D01*
X140332335Y-94311013D01*
X140111847Y-94458338D01*
X139924338Y-94645847D01*
X139777013Y-94866335D01*
X139675533Y-95111328D01*
X139623800Y-95371411D01*
X139623800Y-95636589D01*
X139675533Y-95896672D01*
X139777013Y-96141665D01*
X139924338Y-96362153D01*
X140111847Y-96549662D01*
X140332335Y-96696987D01*
X140518260Y-96774000D01*
X140332335Y-96851013D01*
X140111847Y-96998338D01*
X139924338Y-97185847D01*
X139777013Y-97406335D01*
X139700000Y-97592260D01*
X139622987Y-97406335D01*
X139475662Y-97185847D01*
X139288153Y-96998338D01*
X139067665Y-96851013D01*
X138822672Y-96749533D01*
X138562589Y-96697800D01*
X138297411Y-96697800D01*
X138037328Y-96749533D01*
X137792335Y-96851013D01*
X137571847Y-96998338D01*
X137384338Y-97185847D01*
X137237013Y-97406335D01*
X137135533Y-97651328D01*
X137083800Y-97911411D01*
X137083800Y-98176589D01*
X137135533Y-98436672D01*
X137237013Y-98681665D01*
X137384338Y-98902153D01*
X137571847Y-99089662D01*
X137792335Y-99236987D01*
X137978260Y-99314000D01*
X137792335Y-99391013D01*
X137571847Y-99538338D01*
X137384338Y-99725847D01*
X137237013Y-99946335D01*
X137135533Y-100191328D01*
X137083800Y-100451411D01*
X137083800Y-100716589D01*
X137135533Y-100976672D01*
X137237013Y-101221665D01*
X137384338Y-101442153D01*
X137571847Y-101629662D01*
X137792335Y-101776987D01*
X137978260Y-101854000D01*
X137792335Y-101931013D01*
X137571847Y-102078338D01*
X137384338Y-102265847D01*
X137237013Y-102486335D01*
X137135533Y-102731328D01*
X137083800Y-102991411D01*
X137083800Y-103256589D01*
X137135533Y-103516672D01*
X137237013Y-103761665D01*
X137384338Y-103982153D01*
X137571847Y-104169662D01*
X137792335Y-104316987D01*
X137978260Y-104394000D01*
X137792335Y-104471013D01*
X137571847Y-104618338D01*
X137384338Y-104805847D01*
X137237013Y-105026335D01*
X137135533Y-105271328D01*
X137083800Y-105531411D01*
X137083800Y-105796589D01*
X137135533Y-106056672D01*
X137237013Y-106301665D01*
X137384338Y-106522153D01*
X137571847Y-106709662D01*
X137792335Y-106856987D01*
X137978260Y-106934000D01*
X137792335Y-107011013D01*
X137571847Y-107158338D01*
X137384338Y-107345847D01*
X137237013Y-107566335D01*
X137135533Y-107811328D01*
X137083800Y-108071411D01*
X137083800Y-108336589D01*
X137135533Y-108596672D01*
X137237013Y-108841665D01*
X137384338Y-109062153D01*
X137571847Y-109249662D01*
X137792335Y-109396987D01*
X137978260Y-109474000D01*
X137792335Y-109551013D01*
X137571847Y-109698338D01*
X137384338Y-109885847D01*
X137237013Y-110106335D01*
X137135533Y-110351328D01*
X137083800Y-110611411D01*
X137083800Y-110876589D01*
X137135533Y-111136672D01*
X137237013Y-111381665D01*
X137384338Y-111602153D01*
X137571847Y-111789662D01*
X137792335Y-111936987D01*
X138037328Y-112038467D01*
X138297411Y-112090200D01*
X138562589Y-112090200D01*
X138822672Y-112038467D01*
X139067665Y-111936987D01*
X139288153Y-111789662D01*
X139475662Y-111602153D01*
X139622987Y-111381665D01*
X139700000Y-111195740D01*
X139777013Y-111381665D01*
X139924338Y-111602153D01*
X140111847Y-111789662D01*
X140332335Y-111936987D01*
X140518260Y-112014000D01*
X140332335Y-112091013D01*
X140111847Y-112238338D01*
X139924338Y-112425847D01*
X139777013Y-112646335D01*
X139675533Y-112891328D01*
X139623800Y-113151411D01*
X139623800Y-113416589D01*
X139675533Y-113676672D01*
X139777013Y-113921665D01*
X139924338Y-114142153D01*
X140111847Y-114329662D01*
X140332335Y-114476987D01*
X140577328Y-114578467D01*
X140837411Y-114630200D01*
X141102589Y-114630200D01*
X141362672Y-114578467D01*
X141607665Y-114476987D01*
X141828153Y-114329662D01*
X142015662Y-114142153D01*
X142162987Y-113921665D01*
X142240000Y-113735740D01*
X142317013Y-113921665D01*
X142464338Y-114142153D01*
X142651847Y-114329662D01*
X142872335Y-114476987D01*
X143117328Y-114578467D01*
X143377411Y-114630200D01*
X143642589Y-114630200D01*
X143902672Y-114578467D01*
X144147665Y-114476987D01*
X144368153Y-114329662D01*
X144555662Y-114142153D01*
X144702987Y-113921665D01*
X144780000Y-113735740D01*
X144857013Y-113921665D01*
X145004338Y-114142153D01*
X145191847Y-114329662D01*
X145412335Y-114476987D01*
X145657328Y-114578467D01*
X145917411Y-114630200D01*
X146182589Y-114630200D01*
X146442672Y-114578467D01*
X146687665Y-114476987D01*
X146908153Y-114329662D01*
X147095662Y-114142153D01*
X147144541Y-114069000D01*
X147287440Y-114069000D01*
X147326000Y-114072798D01*
X147364561Y-114069000D01*
X147495459Y-114069000D01*
X147544338Y-114142153D01*
X147731847Y-114329662D01*
X147952335Y-114476987D01*
X148197328Y-114578467D01*
X148457411Y-114630200D01*
X148722589Y-114630200D01*
X148982672Y-114578467D01*
X149227665Y-114476987D01*
X149448153Y-114329662D01*
X149635662Y-114142153D01*
X149782987Y-113921665D01*
X149860000Y-113735740D01*
X149937013Y-113921665D01*
X150084338Y-114142153D01*
X150271847Y-114329662D01*
X150492335Y-114476987D01*
X150737328Y-114578467D01*
X150997411Y-114630200D01*
X151262589Y-114630200D01*
X151522672Y-114578467D01*
X151767665Y-114476987D01*
X151988153Y-114329662D01*
X152175662Y-114142153D01*
X152322987Y-113921665D01*
X152400000Y-113735740D01*
X152477013Y-113921665D01*
X152624338Y-114142153D01*
X152811847Y-114329662D01*
X153032335Y-114476987D01*
X153277328Y-114578467D01*
X153537411Y-114630200D01*
X153802589Y-114630200D01*
X154062672Y-114578467D01*
X154307665Y-114476987D01*
X154528153Y-114329662D01*
X154715662Y-114142153D01*
X154862987Y-113921665D01*
X154964467Y-113676672D01*
X155016200Y-113416589D01*
X155016200Y-113151411D01*
X154964467Y-112891328D01*
X154862987Y-112646335D01*
X154715662Y-112425847D01*
X154528153Y-112238338D01*
X154307665Y-112091013D01*
X154121740Y-112014000D01*
X154307665Y-111936987D01*
X154528153Y-111789662D01*
X154715662Y-111602153D01*
X154862987Y-111381665D01*
X154940000Y-111195740D01*
X155017013Y-111381665D01*
X155164338Y-111602153D01*
X155351847Y-111789662D01*
X155572335Y-111936987D01*
X155817328Y-112038467D01*
X156077411Y-112090200D01*
X156342589Y-112090200D01*
X156602672Y-112038467D01*
X156847665Y-111936987D01*
X157068153Y-111789662D01*
X157255662Y-111602153D01*
X157402987Y-111381665D01*
X157504467Y-111136672D01*
X157556200Y-110876589D01*
X157556200Y-110611411D01*
X157504467Y-110351328D01*
X157402987Y-110106335D01*
X157255662Y-109885847D01*
X157068153Y-109698338D01*
X156847665Y-109551013D01*
X156661740Y-109474000D01*
X156847665Y-109396987D01*
X157068153Y-109249662D01*
X157255662Y-109062153D01*
X157402987Y-108841665D01*
X157504467Y-108596672D01*
X157556200Y-108336589D01*
X157556200Y-108071411D01*
X157504467Y-107811328D01*
X157466223Y-107719000D01*
X160537447Y-107719000D01*
X160576000Y-107722797D01*
X160614553Y-107719000D01*
X160614561Y-107719000D01*
X160729887Y-107707641D01*
X160877860Y-107662754D01*
X161014233Y-107589862D01*
X161133764Y-107491764D01*
X161158347Y-107461810D01*
X161309811Y-107310346D01*
X161339764Y-107285764D01*
X161437862Y-107166233D01*
X161510754Y-107029860D01*
X161538630Y-106937966D01*
X161546851Y-106935472D01*
X161700387Y-106853405D01*
X161834962Y-106742962D01*
X161850001Y-106724637D01*
X161850001Y-118670000D01*
X132790000Y-118670000D01*
X132790000Y-106971572D01*
X132856000Y-106978072D01*
X133445250Y-106975000D01*
X133604000Y-106816250D01*
X133604000Y-105754500D01*
X133858000Y-105754500D01*
X133858000Y-106816250D01*
X134016750Y-106975000D01*
X134606000Y-106978072D01*
X134730482Y-106965812D01*
X134850180Y-106929502D01*
X134960494Y-106870537D01*
X135057185Y-106791185D01*
X135136537Y-106694494D01*
X135195502Y-106584180D01*
X135231812Y-106464482D01*
X135244072Y-106340000D01*
X135241000Y-105913250D01*
X135082250Y-105754500D01*
X133858000Y-105754500D01*
X133604000Y-105754500D01*
X133584000Y-105754500D01*
X133584000Y-105500500D01*
X133604000Y-105500500D01*
X133604000Y-104438750D01*
X133858000Y-104438750D01*
X133858000Y-105500500D01*
X135082250Y-105500500D01*
X135241000Y-105341750D01*
X135244072Y-104915000D01*
X135231812Y-104790518D01*
X135195502Y-104670820D01*
X135136537Y-104560506D01*
X135057185Y-104463815D01*
X134960494Y-104384463D01*
X134850180Y-104325498D01*
X134730482Y-104289188D01*
X134606000Y-104276928D01*
X134016750Y-104280000D01*
X133858000Y-104438750D01*
X133604000Y-104438750D01*
X133445250Y-104280000D01*
X132856000Y-104276928D01*
X132790000Y-104283428D01*
X132790000Y-103942707D01*
X132932746Y-103986008D01*
X133106000Y-104003072D01*
X134356000Y-104003072D01*
X134529254Y-103986008D01*
X134695850Y-103935472D01*
X134849386Y-103853405D01*
X134983962Y-103742962D01*
X135094405Y-103608386D01*
X135176472Y-103454850D01*
X135227008Y-103288254D01*
X135244072Y-103115000D01*
X135244072Y-102190000D01*
X135227008Y-102016746D01*
X135176472Y-101850150D01*
X135094405Y-101696614D01*
X134983962Y-101562038D01*
X134849386Y-101451595D01*
X134695850Y-101369528D01*
X134529254Y-101318992D01*
X134516000Y-101317687D01*
X134516000Y-92964157D01*
X134867816Y-92612342D01*
X134897764Y-92587764D01*
X134995862Y-92468233D01*
X135068754Y-92331860D01*
X135113641Y-92183887D01*
X135125000Y-92068561D01*
X135125000Y-92068554D01*
X135128797Y-92030001D01*
X135125000Y-91991448D01*
X135125000Y-91591339D01*
X135233386Y-91533405D01*
X135367962Y-91422962D01*
X135478405Y-91288386D01*
X135560472Y-91134850D01*
X135611008Y-90968254D01*
X135628072Y-90795000D01*
X135628072Y-89545000D01*
X135611008Y-89371746D01*
X135560472Y-89205150D01*
X135478405Y-89051614D01*
X135415530Y-88975000D01*
X136364470Y-88975000D01*
X136301595Y-89051614D01*
%TA.AperFunction,Conductor*%
D15*
G36*
X136301595Y-89051614D02*
G01*
X136219528Y-89205150D01*
X136168992Y-89371746D01*
X136151928Y-89545000D01*
X136151928Y-90795000D01*
X136168992Y-90968254D01*
X136219528Y-91134850D01*
X136301595Y-91288386D01*
X136412038Y-91422962D01*
X136546614Y-91533405D01*
X136700150Y-91615472D01*
X136866746Y-91666008D01*
X137040000Y-91683072D01*
X137840000Y-91683072D01*
X138013254Y-91666008D01*
X138179850Y-91615472D01*
X138333386Y-91533405D01*
X138467962Y-91422962D01*
X138578405Y-91288386D01*
X138660472Y-91134850D01*
X138711008Y-90968254D01*
X138712313Y-90955000D01*
X140660224Y-90955000D01*
X140663992Y-90993255D01*
X140714528Y-91159851D01*
X140796595Y-91313387D01*
X140907038Y-91447962D01*
X141041613Y-91558405D01*
X141195149Y-91640472D01*
X141361745Y-91691008D01*
X141534999Y-91708072D01*
X142360001Y-91708072D01*
X142533255Y-91691008D01*
X142699851Y-91640472D01*
X142853387Y-91558405D01*
X142987962Y-91447962D01*
X143098405Y-91313387D01*
X143180472Y-91159851D01*
X143207727Y-91070000D01*
X143771928Y-91070000D01*
X143784188Y-91194482D01*
X143820498Y-91314180D01*
X143879463Y-91424494D01*
X143958815Y-91521185D01*
X144055506Y-91600537D01*
X144165820Y-91659502D01*
X144285518Y-91695812D01*
X144410000Y-91708072D01*
X144786750Y-91705000D01*
X144945500Y-91546250D01*
X144945500Y-90297000D01*
X145199500Y-90297000D01*
X145199500Y-91546250D01*
X145358250Y-91705000D01*
X145735000Y-91708072D01*
X145859482Y-91695812D01*
X145979180Y-91659502D01*
X146089494Y-91600537D01*
X146186185Y-91521185D01*
X146265537Y-91424494D01*
X146324502Y-91314180D01*
X146360812Y-91194482D01*
X146373072Y-91070000D01*
X146370000Y-90455750D01*
X146211250Y-90297000D01*
X145199500Y-90297000D01*
X144945500Y-90297000D01*
X143933750Y-90297000D01*
X143775000Y-90455750D01*
X143771928Y-91070000D01*
X143207727Y-91070000D01*
X143231008Y-90993255D01*
X143248072Y-90820001D01*
X143248072Y-89980085D01*
X143528357Y-89699800D01*
X143774078Y-89699800D01*
X143775000Y-89884250D01*
X143933750Y-90043000D01*
X144945500Y-90043000D01*
X144945500Y-90023000D01*
X145199500Y-90023000D01*
X145199500Y-90043000D01*
X146211250Y-90043000D01*
X146370000Y-89884250D01*
X146370922Y-89699800D01*
X147987143Y-89699800D01*
X148266928Y-89979585D01*
X148266928Y-90820001D01*
X148283992Y-90993255D01*
X148334528Y-91159851D01*
X148416595Y-91313387D01*
X148527038Y-91447962D01*
X148661613Y-91558405D01*
X148815149Y-91640472D01*
X148981745Y-91691008D01*
X149154999Y-91708072D01*
X149980001Y-91708072D01*
X150153255Y-91691008D01*
X150319851Y-91640472D01*
X150473387Y-91558405D01*
X150607962Y-91447962D01*
X150718405Y-91313387D01*
X150800472Y-91159851D01*
X150827727Y-91070000D01*
X151391928Y-91070000D01*
X151404188Y-91194482D01*
X151440498Y-91314180D01*
X151499463Y-91424494D01*
X151578815Y-91521185D01*
X151675506Y-91600537D01*
X151785820Y-91659502D01*
X151905518Y-91695812D01*
X152030000Y-91708072D01*
X152406750Y-91705000D01*
X152565500Y-91546250D01*
X152565500Y-90297000D01*
X152819500Y-90297000D01*
X152819500Y-91546250D01*
X152978250Y-91705000D01*
X153355000Y-91708072D01*
X153479482Y-91695812D01*
X153599180Y-91659502D01*
X153709494Y-91600537D01*
X153806185Y-91521185D01*
X153885537Y-91424494D01*
X153944502Y-91314180D01*
X153980812Y-91194482D01*
X153993072Y-91070000D01*
X153990000Y-90455750D01*
X153831250Y-90297000D01*
X152819500Y-90297000D01*
X152565500Y-90297000D01*
X151553750Y-90297000D01*
X151395000Y-90455750D01*
X151391928Y-91070000D01*
X150827727Y-91070000D01*
X150851008Y-90993255D01*
X150868072Y-90820001D01*
X150868072Y-89979586D01*
X151177058Y-89670600D01*
X151393931Y-89670600D01*
X151395000Y-89884250D01*
X151553750Y-90043000D01*
X152565500Y-90043000D01*
X152565500Y-90023000D01*
X152819500Y-90023000D01*
X152819500Y-90043000D01*
X153831250Y-90043000D01*
X153990000Y-89884250D01*
X153991069Y-89670600D01*
X155702943Y-89670600D01*
X155886928Y-89854585D01*
X155886928Y-90595001D01*
X155903992Y-90768255D01*
X155954528Y-90934851D01*
X156036595Y-91088387D01*
X156147038Y-91222962D01*
X156281613Y-91333405D01*
X156435149Y-91415472D01*
X156601745Y-91466008D01*
X156774999Y-91483072D01*
X157850001Y-91483072D01*
X158023255Y-91466008D01*
X158189851Y-91415472D01*
X158343387Y-91333405D01*
X158477962Y-91222962D01*
X158588405Y-91088387D01*
X158670472Y-90934851D01*
X158697727Y-90845000D01*
X158761928Y-90845000D01*
X158774188Y-90969482D01*
X158810498Y-91089180D01*
X158869463Y-91199494D01*
X158948815Y-91296185D01*
X159045506Y-91375537D01*
X159155820Y-91434502D01*
X159275518Y-91470812D01*
X159400000Y-91483072D01*
X159901750Y-91480000D01*
X160060500Y-91321250D01*
X160060500Y-90297000D01*
X158923750Y-90297000D01*
X158765000Y-90455750D01*
X158761928Y-90845000D01*
X158697727Y-90845000D01*
X158721008Y-90768255D01*
X158738072Y-90595001D01*
X158738072Y-89891400D01*
X158772150Y-89891400D01*
X158923750Y-90043000D01*
X160060500Y-90043000D01*
X160060500Y-90023000D01*
X160314500Y-90023000D01*
X160314500Y-90043000D01*
X160334500Y-90043000D01*
X160334500Y-90297000D01*
X160314500Y-90297000D01*
X160314500Y-91321250D01*
X160473250Y-91480000D01*
X160975000Y-91483072D01*
X161032201Y-91477438D01*
X161032200Y-101315550D01*
X160909000Y-101438750D01*
X160909000Y-102575500D01*
X160929000Y-102575500D01*
X160929000Y-102829500D01*
X160909000Y-102829500D01*
X160909000Y-103966250D01*
X161032200Y-104089450D01*
X161032200Y-104151928D01*
X160356999Y-104151928D01*
X160183745Y-104168992D01*
X160017149Y-104219528D01*
X159863613Y-104301595D01*
X159729038Y-104412038D01*
X159618595Y-104546613D01*
X159536528Y-104700149D01*
X159485992Y-104866745D01*
X159468928Y-105039999D01*
X159468928Y-106115001D01*
X159472277Y-106149000D01*
X157466223Y-106149000D01*
X157504467Y-106056672D01*
X157556200Y-105796589D01*
X157556200Y-105531411D01*
X157504467Y-105271328D01*
X157402987Y-105026335D01*
X157255662Y-104805847D01*
X157068153Y-104618338D01*
X156847665Y-104471013D01*
X156661740Y-104394000D01*
X156847665Y-104316987D01*
X157068153Y-104169662D01*
X157255662Y-103982153D01*
X157402987Y-103761665D01*
X157504467Y-103516672D01*
X157509772Y-103490000D01*
X159468928Y-103490000D01*
X159481188Y-103614482D01*
X159517498Y-103734180D01*
X159576463Y-103844494D01*
X159655815Y-103941185D01*
X159752506Y-104020537D01*
X159862820Y-104079502D01*
X159982518Y-104115812D01*
X160107000Y-104128072D01*
X160496250Y-104125000D01*
X160655000Y-103966250D01*
X160655000Y-102829500D01*
X159630750Y-102829500D01*
X159472000Y-102988250D01*
X159468928Y-103490000D01*
X157509772Y-103490000D01*
X157556200Y-103256589D01*
X157556200Y-102991411D01*
X157504467Y-102731328D01*
X157402987Y-102486335D01*
X157255662Y-102265847D01*
X157068153Y-102078338D01*
X156847665Y-101931013D01*
X156809007Y-101915000D01*
X159468928Y-101915000D01*
X159472000Y-102416750D01*
X159630750Y-102575500D01*
X160655000Y-102575500D01*
X160655000Y-101438750D01*
X160496250Y-101280000D01*
X160107000Y-101276928D01*
X159982518Y-101289188D01*
X159862820Y-101325498D01*
X159752506Y-101384463D01*
X159655815Y-101463815D01*
X159576463Y-101560506D01*
X159517498Y-101670820D01*
X159481188Y-101790518D01*
X159468928Y-101915000D01*
X156809007Y-101915000D01*
X156661740Y-101854000D01*
X156847665Y-101776987D01*
X157068153Y-101629662D01*
X157255662Y-101442153D01*
X157402987Y-101221665D01*
X157504467Y-100976672D01*
X157556200Y-100716589D01*
X157556200Y-100451411D01*
X157504467Y-100191328D01*
X157402987Y-99946335D01*
X157255662Y-99725847D01*
X157068153Y-99538338D01*
X156847665Y-99391013D01*
X156661740Y-99314000D01*
X156847665Y-99236987D01*
X157068153Y-99089662D01*
X157255662Y-98902153D01*
X157402987Y-98681665D01*
X157504467Y-98436672D01*
X157556200Y-98176589D01*
X157556200Y-97911411D01*
X157504467Y-97651328D01*
X157402987Y-97406335D01*
X157255662Y-97185847D01*
X157068153Y-96998338D01*
X156847665Y-96851013D01*
X156602672Y-96749533D01*
X156342589Y-96697800D01*
X156077411Y-96697800D01*
X155817328Y-96749533D01*
X155572335Y-96851013D01*
X155351847Y-96998338D01*
X155164338Y-97185847D01*
X155017013Y-97406335D01*
X154940000Y-97592260D01*
X154862987Y-97406335D01*
X154715662Y-97185847D01*
X154528153Y-96998338D01*
X154307665Y-96851013D01*
X154121740Y-96774000D01*
X154307665Y-96696987D01*
X154528153Y-96549662D01*
X154715662Y-96362153D01*
X154862987Y-96141665D01*
X154964467Y-95896672D01*
X155016200Y-95636589D01*
X155016200Y-95371411D01*
X154964467Y-95111328D01*
X154862987Y-94866335D01*
X154715662Y-94645847D01*
X154528153Y-94458338D01*
X154307665Y-94311013D01*
X154062672Y-94209533D01*
X153802589Y-94157800D01*
X153537411Y-94157800D01*
X153277328Y-94209533D01*
X153032335Y-94311013D01*
X152811847Y-94458338D01*
X152624338Y-94645847D01*
X152477013Y-94866335D01*
X152400000Y-95052260D01*
X152322987Y-94866335D01*
X152175662Y-94645847D01*
X151988153Y-94458338D01*
X151767665Y-94311013D01*
X151522672Y-94209533D01*
X151262589Y-94157800D01*
X150997411Y-94157800D01*
X150737328Y-94209533D01*
X150492335Y-94311013D01*
X150271847Y-94458338D01*
X150084338Y-94645847D01*
X149937013Y-94866335D01*
X149859031Y-95054600D01*
X149809542Y-94918720D01*
X149754183Y-94815152D01*
X149519273Y-94754332D01*
X148769605Y-95504000D01*
X149519273Y-96253668D01*
X149754183Y-96192848D01*
X149862206Y-95961066D01*
X149937013Y-96141665D01*
X150084338Y-96362153D01*
X150271847Y-96549662D01*
X150492335Y-96696987D01*
X150678260Y-96774000D01*
X150492335Y-96851013D01*
X150271847Y-96998338D01*
X150084338Y-97185847D01*
X149937013Y-97406335D01*
X149860000Y-97592260D01*
X149782987Y-97406335D01*
X149635662Y-97185847D01*
X149448153Y-96998338D01*
X149227665Y-96851013D01*
X149039400Y-96773031D01*
X149175280Y-96723542D01*
X149278848Y-96668183D01*
X149339668Y-96433273D01*
X148590000Y-95683605D01*
X147840332Y-96433273D01*
X147901152Y-96668183D01*
X148132934Y-96776206D01*
X147952335Y-96851013D01*
X147731847Y-96998338D01*
X147544338Y-97185847D01*
X147397013Y-97406335D01*
X147320000Y-97592260D01*
X147242987Y-97406335D01*
X147095662Y-97185847D01*
X146908153Y-96998338D01*
X146687665Y-96851013D01*
X146501740Y-96774000D01*
X146687665Y-96696987D01*
X146908153Y-96549662D01*
X147095662Y-96362153D01*
X147242987Y-96141665D01*
X147320969Y-95953400D01*
X147370458Y-96089280D01*
X147425817Y-96192848D01*
X147660727Y-96253668D01*
X148410395Y-95504000D01*
X147660727Y-94754332D01*
X147425817Y-94815152D01*
X147317794Y-95046934D01*
X147242987Y-94866335D01*
X147095662Y-94645847D01*
X147024542Y-94574727D01*
X147840332Y-94574727D01*
X148590000Y-95324395D01*
X149339668Y-94574727D01*
X149278848Y-94339817D01*
X149038491Y-94227798D01*
X148780898Y-94164824D01*
X148515970Y-94153313D01*
X148253887Y-94193709D01*
X148004720Y-94284458D01*
X147901152Y-94339817D01*
X147840332Y-94574727D01*
X147024542Y-94574727D01*
X146908153Y-94458338D01*
X146687665Y-94311013D01*
X146442672Y-94209533D01*
X146182589Y-94157800D01*
X145917411Y-94157800D01*
X145657328Y-94209533D01*
X145412335Y-94311013D01*
X145191847Y-94458338D01*
X145004338Y-94645847D01*
X144857013Y-94866335D01*
X144780000Y-95052260D01*
X144702987Y-94866335D01*
X144555662Y-94645847D01*
X144368153Y-94458338D01*
X144147665Y-94311013D01*
X143902672Y-94209533D01*
X143642589Y-94157800D01*
X143377411Y-94157800D01*
X143117328Y-94209533D01*
X142872335Y-94311013D01*
X142651847Y-94458338D01*
X142464338Y-94645847D01*
X142317013Y-94866335D01*
X142240000Y-95052260D01*
X142162987Y-94866335D01*
X142015662Y-94645847D01*
X141828153Y-94458338D01*
X141607665Y-94311013D01*
X141362672Y-94209533D01*
X141102589Y-94157800D01*
X140837411Y-94157800D01*
X140577328Y-94209533D01*
X140332335Y-94311013D01*
X140111847Y-94458338D01*
X139924338Y-94645847D01*
X139777013Y-94866335D01*
X139675533Y-95111328D01*
X139623800Y-95371411D01*
X139623800Y-95636589D01*
X139675533Y-95896672D01*
X139777013Y-96141665D01*
X139924338Y-96362153D01*
X140111847Y-96549662D01*
X140332335Y-96696987D01*
X140518260Y-96774000D01*
X140332335Y-96851013D01*
X140111847Y-96998338D01*
X139924338Y-97185847D01*
X139777013Y-97406335D01*
X139700000Y-97592260D01*
X139622987Y-97406335D01*
X139475662Y-97185847D01*
X139288153Y-96998338D01*
X139067665Y-96851013D01*
X138822672Y-96749533D01*
X138562589Y-96697800D01*
X138297411Y-96697800D01*
X138037328Y-96749533D01*
X137792335Y-96851013D01*
X137571847Y-96998338D01*
X137384338Y-97185847D01*
X137237013Y-97406335D01*
X137135533Y-97651328D01*
X137083800Y-97911411D01*
X137083800Y-98176589D01*
X137135533Y-98436672D01*
X137237013Y-98681665D01*
X137384338Y-98902153D01*
X137571847Y-99089662D01*
X137792335Y-99236987D01*
X137978260Y-99314000D01*
X137792335Y-99391013D01*
X137571847Y-99538338D01*
X137384338Y-99725847D01*
X137237013Y-99946335D01*
X137135533Y-100191328D01*
X137083800Y-100451411D01*
X137083800Y-100716589D01*
X137135533Y-100976672D01*
X137237013Y-101221665D01*
X137384338Y-101442153D01*
X137571847Y-101629662D01*
X137792335Y-101776987D01*
X137978260Y-101854000D01*
X137792335Y-101931013D01*
X137571847Y-102078338D01*
X137384338Y-102265847D01*
X137237013Y-102486335D01*
X137135533Y-102731328D01*
X137083800Y-102991411D01*
X137083800Y-103256589D01*
X137135533Y-103516672D01*
X137237013Y-103761665D01*
X137384338Y-103982153D01*
X137571847Y-104169662D01*
X137792335Y-104316987D01*
X137978260Y-104394000D01*
X137792335Y-104471013D01*
X137571847Y-104618338D01*
X137384338Y-104805847D01*
X137237013Y-105026335D01*
X137135533Y-105271328D01*
X137083800Y-105531411D01*
X137083800Y-105796589D01*
X137135533Y-106056672D01*
X137237013Y-106301665D01*
X137384338Y-106522153D01*
X137571847Y-106709662D01*
X137792335Y-106856987D01*
X137978260Y-106934000D01*
X137792335Y-107011013D01*
X137571847Y-107158338D01*
X137384338Y-107345847D01*
X137237013Y-107566335D01*
X137135533Y-107811328D01*
X137083800Y-108071411D01*
X137083800Y-108336589D01*
X137135533Y-108596672D01*
X137237013Y-108841665D01*
X137384338Y-109062153D01*
X137571847Y-109249662D01*
X137792335Y-109396987D01*
X137978260Y-109474000D01*
X137792335Y-109551013D01*
X137571847Y-109698338D01*
X137384338Y-109885847D01*
X137237013Y-110106335D01*
X137135533Y-110351328D01*
X137083800Y-110611411D01*
X137083800Y-110876589D01*
X137135533Y-111136672D01*
X137237013Y-111381665D01*
X137384338Y-111602153D01*
X137571847Y-111789662D01*
X137792335Y-111936987D01*
X138037328Y-112038467D01*
X138297411Y-112090200D01*
X138562589Y-112090200D01*
X138822672Y-112038467D01*
X139067665Y-111936987D01*
X139288153Y-111789662D01*
X139475662Y-111602153D01*
X139622987Y-111381665D01*
X139700000Y-111195740D01*
X139777013Y-111381665D01*
X139924338Y-111602153D01*
X140111847Y-111789662D01*
X140332335Y-111936987D01*
X140518260Y-112014000D01*
X140332335Y-112091013D01*
X140111847Y-112238338D01*
X139924338Y-112425847D01*
X139777013Y-112646335D01*
X139675533Y-112891328D01*
X139623800Y-113151411D01*
X139623800Y-113416589D01*
X139675533Y-113676672D01*
X139777013Y-113921665D01*
X139924338Y-114142153D01*
X140111847Y-114329662D01*
X140332335Y-114476987D01*
X140577328Y-114578467D01*
X140837411Y-114630200D01*
X141102589Y-114630200D01*
X141362672Y-114578467D01*
X141607665Y-114476987D01*
X141828153Y-114329662D01*
X142015662Y-114142153D01*
X142162987Y-113921665D01*
X142240000Y-113735740D01*
X142317013Y-113921665D01*
X142464338Y-114142153D01*
X142651847Y-114329662D01*
X142872335Y-114476987D01*
X143117328Y-114578467D01*
X143377411Y-114630200D01*
X143642589Y-114630200D01*
X143902672Y-114578467D01*
X144147665Y-114476987D01*
X144368153Y-114329662D01*
X144555662Y-114142153D01*
X144702987Y-113921665D01*
X144780000Y-113735740D01*
X144857013Y-113921665D01*
X145004338Y-114142153D01*
X145191847Y-114329662D01*
X145412335Y-114476987D01*
X145657328Y-114578467D01*
X145917411Y-114630200D01*
X146182589Y-114630200D01*
X146442672Y-114578467D01*
X146687665Y-114476987D01*
X146908153Y-114329662D01*
X147095662Y-114142153D01*
X147144541Y-114069000D01*
X147287440Y-114069000D01*
X147326000Y-114072798D01*
X147364561Y-114069000D01*
X147495459Y-114069000D01*
X147544338Y-114142153D01*
X147731847Y-114329662D01*
X147952335Y-114476987D01*
X148197328Y-114578467D01*
X148457411Y-114630200D01*
X148722589Y-114630200D01*
X148982672Y-114578467D01*
X149227665Y-114476987D01*
X149448153Y-114329662D01*
X149635662Y-114142153D01*
X149782987Y-113921665D01*
X149860000Y-113735740D01*
X149937013Y-113921665D01*
X150084338Y-114142153D01*
X150271847Y-114329662D01*
X150492335Y-114476987D01*
X150737328Y-114578467D01*
X150997411Y-114630200D01*
X151262589Y-114630200D01*
X151522672Y-114578467D01*
X151767665Y-114476987D01*
X151988153Y-114329662D01*
X152175662Y-114142153D01*
X152322987Y-113921665D01*
X152400000Y-113735740D01*
X152477013Y-113921665D01*
X152624338Y-114142153D01*
X152811847Y-114329662D01*
X153032335Y-114476987D01*
X153277328Y-114578467D01*
X153537411Y-114630200D01*
X153802589Y-114630200D01*
X154062672Y-114578467D01*
X154307665Y-114476987D01*
X154528153Y-114329662D01*
X154715662Y-114142153D01*
X154862987Y-113921665D01*
X154964467Y-113676672D01*
X155016200Y-113416589D01*
X155016200Y-113151411D01*
X154964467Y-112891328D01*
X154862987Y-112646335D01*
X154715662Y-112425847D01*
X154528153Y-112238338D01*
X154307665Y-112091013D01*
X154121740Y-112014000D01*
X154307665Y-111936987D01*
X154528153Y-111789662D01*
X154715662Y-111602153D01*
X154862987Y-111381665D01*
X154940000Y-111195740D01*
X155017013Y-111381665D01*
X155164338Y-111602153D01*
X155351847Y-111789662D01*
X155572335Y-111936987D01*
X155817328Y-112038467D01*
X156077411Y-112090200D01*
X156342589Y-112090200D01*
X156602672Y-112038467D01*
X156847665Y-111936987D01*
X157068153Y-111789662D01*
X157255662Y-111602153D01*
X157402987Y-111381665D01*
X157504467Y-111136672D01*
X157556200Y-110876589D01*
X157556200Y-110611411D01*
X157504467Y-110351328D01*
X157402987Y-110106335D01*
X157255662Y-109885847D01*
X157068153Y-109698338D01*
X156847665Y-109551013D01*
X156661740Y-109474000D01*
X156847665Y-109396987D01*
X157068153Y-109249662D01*
X157255662Y-109062153D01*
X157402987Y-108841665D01*
X157504467Y-108596672D01*
X157556200Y-108336589D01*
X157556200Y-108071411D01*
X157504467Y-107811328D01*
X157466223Y-107719000D01*
X160537447Y-107719000D01*
X160576000Y-107722797D01*
X160614553Y-107719000D01*
X160614561Y-107719000D01*
X160729887Y-107707641D01*
X160877860Y-107662754D01*
X161014233Y-107589862D01*
X161133764Y-107491764D01*
X161158347Y-107461810D01*
X161309811Y-107310346D01*
X161339764Y-107285764D01*
X161437862Y-107166233D01*
X161510754Y-107029860D01*
X161538630Y-106937966D01*
X161546851Y-106935472D01*
X161700387Y-106853405D01*
X161834962Y-106742962D01*
X161850001Y-106724637D01*
X161850001Y-118670000D01*
X132790000Y-118670000D01*
X132790000Y-106971572D01*
X132856000Y-106978072D01*
X133445250Y-106975000D01*
X133604000Y-106816250D01*
X133604000Y-105754500D01*
X133858000Y-105754500D01*
X133858000Y-106816250D01*
X134016750Y-106975000D01*
X134606000Y-106978072D01*
X134730482Y-106965812D01*
X134850180Y-106929502D01*
X134960494Y-106870537D01*
X135057185Y-106791185D01*
X135136537Y-106694494D01*
X135195502Y-106584180D01*
X135231812Y-106464482D01*
X135244072Y-106340000D01*
X135241000Y-105913250D01*
X135082250Y-105754500D01*
X133858000Y-105754500D01*
X133604000Y-105754500D01*
X133584000Y-105754500D01*
X133584000Y-105500500D01*
X133604000Y-105500500D01*
X133604000Y-104438750D01*
X133858000Y-104438750D01*
X133858000Y-105500500D01*
X135082250Y-105500500D01*
X135241000Y-105341750D01*
X135244072Y-104915000D01*
X135231812Y-104790518D01*
X135195502Y-104670820D01*
X135136537Y-104560506D01*
X135057185Y-104463815D01*
X134960494Y-104384463D01*
X134850180Y-104325498D01*
X134730482Y-104289188D01*
X134606000Y-104276928D01*
X134016750Y-104280000D01*
X133858000Y-104438750D01*
X133604000Y-104438750D01*
X133445250Y-104280000D01*
X132856000Y-104276928D01*
X132790000Y-104283428D01*
X132790000Y-103942707D01*
X132932746Y-103986008D01*
X133106000Y-104003072D01*
X134356000Y-104003072D01*
X134529254Y-103986008D01*
X134695850Y-103935472D01*
X134849386Y-103853405D01*
X134983962Y-103742962D01*
X135094405Y-103608386D01*
X135176472Y-103454850D01*
X135227008Y-103288254D01*
X135244072Y-103115000D01*
X135244072Y-102190000D01*
X135227008Y-102016746D01*
X135176472Y-101850150D01*
X135094405Y-101696614D01*
X134983962Y-101562038D01*
X134849386Y-101451595D01*
X134695850Y-101369528D01*
X134529254Y-101318992D01*
X134516000Y-101317687D01*
X134516000Y-92964157D01*
X134867816Y-92612342D01*
X134897764Y-92587764D01*
X134995862Y-92468233D01*
X135068754Y-92331860D01*
X135113641Y-92183887D01*
X135125000Y-92068561D01*
X135125000Y-92068554D01*
X135128797Y-92030001D01*
X135125000Y-91991448D01*
X135125000Y-91591339D01*
X135233386Y-91533405D01*
X135367962Y-91422962D01*
X135478405Y-91288386D01*
X135560472Y-91134850D01*
X135611008Y-90968254D01*
X135628072Y-90795000D01*
X135628072Y-89545000D01*
X135611008Y-89371746D01*
X135560472Y-89205150D01*
X135478405Y-89051614D01*
X135415530Y-88975000D01*
X136364470Y-88975000D01*
X136301595Y-89051614D01*
G37*
%TD.AperFunction*%
D14*
X152477013Y-98681665D02*
X152624338Y-98902153D01*
X152811847Y-99089662D01*
X153032335Y-99236987D01*
X153218260Y-99314000D01*
X153032335Y-99391013D01*
X152811847Y-99538338D01*
X152624338Y-99725847D01*
X152575459Y-99799000D01*
X147034552Y-99799000D01*
X146995999Y-99795203D01*
X146957446Y-99799000D01*
X146957439Y-99799000D01*
X146842113Y-99810359D01*
X146694140Y-99855246D01*
X146557767Y-99928138D01*
X146497559Y-99977550D01*
X146468187Y-100001655D01*
X146468184Y-100001658D01*
X146438236Y-100026236D01*
X146413657Y-100056185D01*
X146103914Y-100365928D01*
X145450000Y-100365928D01*
X145276746Y-100382992D01*
X145110150Y-100433528D01*
X144956614Y-100515595D01*
X144822038Y-100626038D01*
X144711595Y-100760614D01*
X144629528Y-100914150D01*
X144578992Y-101080746D01*
X144561928Y-101254000D01*
X144561928Y-102454000D01*
X144578992Y-102627254D01*
X144629528Y-102793850D01*
X144711595Y-102947386D01*
X144822038Y-103081962D01*
X144956614Y-103192405D01*
X145110150Y-103274472D01*
X145219293Y-103307580D01*
X145201208Y-103365603D01*
X146050000Y-104214395D01*
X146898792Y-103365603D01*
X146880707Y-103307580D01*
X146989850Y-103274472D01*
X147143386Y-103192405D01*
X147277962Y-103081962D01*
X147388405Y-102947386D01*
X147456285Y-102820392D01*
X147643368Y-103007475D01*
X147816729Y-103123311D01*
X147741208Y-103365603D01*
X148590000Y-104214395D01*
X149438792Y-103365603D01*
X149363271Y-103123311D01*
X149536632Y-103007475D01*
X149743475Y-102800632D01*
X149851474Y-102639000D01*
X150318843Y-102639000D01*
X150785000Y-103105157D01*
X150785000Y-103621447D01*
X150781203Y-103660000D01*
X150785000Y-103698553D01*
X150785000Y-103698561D01*
X150787235Y-103721246D01*
X150796359Y-103813886D01*
X150841246Y-103961859D01*
X150867923Y-104011768D01*
X150914139Y-104098233D01*
X150938628Y-104128072D01*
X150987655Y-104187812D01*
X150987659Y-104187816D01*
X151012237Y-104217764D01*
X151042185Y-104242342D01*
X151777653Y-104977810D01*
X151802236Y-105007764D01*
X151921767Y-105105862D01*
X152058140Y-105178754D01*
X152206113Y-105223642D01*
X152281026Y-105231020D01*
X152321439Y-105235000D01*
X152321444Y-105235000D01*
X152360000Y-105238797D01*
X152390241Y-105235819D01*
X152375533Y-105271328D01*
X152323800Y-105531411D01*
X152323800Y-105796589D01*
X152375533Y-106056672D01*
X152413777Y-106149000D01*
X149851474Y-106149000D01*
X149743475Y-105987368D01*
X149536632Y-105780525D01*
X149363271Y-105664689D01*
X149438792Y-105422397D01*
X148590000Y-104573605D01*
X147741208Y-105422397D01*
X147816729Y-105664689D01*
X147643368Y-105780525D01*
X147436525Y-105987368D01*
X147320000Y-106161760D01*
X147203475Y-105987368D01*
X146996632Y-105780525D01*
X146823271Y-105664689D01*
X146898792Y-105422397D01*
X146050000Y-104573605D01*
X145201208Y-105422397D01*
X145276729Y-105664689D01*
X145103368Y-105780525D01*
X144896525Y-105987368D01*
X144734010Y-106230589D01*
X144622068Y-106500842D01*
X144565000Y-106787740D01*
X144565000Y-107080260D01*
X144622068Y-107367158D01*
X144734010Y-107637411D01*
X144896525Y-107880632D01*
X145103368Y-108087475D01*
X145346589Y-108249990D01*
X145616842Y-108361932D01*
X145903740Y-108419000D01*
X146196260Y-108419000D01*
X146483158Y-108361932D01*
X146561673Y-108329410D01*
X146552359Y-108360114D01*
X146541000Y-108475440D01*
X146541000Y-108475447D01*
X146537203Y-108514000D01*
X146541000Y-108552553D01*
X146541000Y-109490262D01*
X146442672Y-109449533D01*
X146182589Y-109397800D01*
X145917411Y-109397800D01*
X145657328Y-109449533D01*
X145412335Y-109551013D01*
X145191847Y-109698338D01*
X145004338Y-109885847D01*
X144857013Y-110106335D01*
X144780000Y-110292260D01*
X144702987Y-110106335D01*
X144555662Y-109885847D01*
X144368153Y-109698338D01*
X144147665Y-109551013D01*
X143902672Y-109449533D01*
X143642589Y-109397800D01*
X143377411Y-109397800D01*
X143117328Y-109449533D01*
X142872335Y-109551013D01*
X142651847Y-109698338D01*
X142464338Y-109885847D01*
X142317013Y-110106335D01*
X142240000Y-110292260D01*
X142162987Y-110106335D01*
X142015662Y-109885847D01*
X141828153Y-109698338D01*
X141607665Y-109551013D01*
X141421740Y-109474000D01*
X141607665Y-109396987D01*
X141828153Y-109249662D01*
X142015662Y-109062153D01*
X142162987Y-108841665D01*
X142264467Y-108596672D01*
X142316200Y-108336589D01*
X142316200Y-108071411D01*
X142264467Y-107811328D01*
X142162987Y-107566335D01*
X142015662Y-107345847D01*
X141828153Y-107158338D01*
X141607665Y-107011013D01*
X141421740Y-106934000D01*
X141607665Y-106856987D01*
X141828153Y-106709662D01*
X142015662Y-106522153D01*
X142162987Y-106301665D01*
X142264467Y-106056672D01*
X142316200Y-105796589D01*
X142316200Y-105531411D01*
X142264467Y-105271328D01*
X142162987Y-105026335D01*
X142015662Y-104805847D01*
X141828153Y-104618338D01*
X141607665Y-104471013D01*
X141587188Y-104462531D01*
X144559389Y-104462531D01*
X144601401Y-104752019D01*
X144699081Y-105027747D01*
X144772528Y-105165157D01*
X145021603Y-105242792D01*
X145870395Y-104394000D01*
X146229605Y-104394000D01*
X147078397Y-105242792D01*
X147320000Y-105167486D01*
X147561603Y-105242792D01*
X148410395Y-104394000D01*
X148769605Y-104394000D01*
X149618397Y-105242792D01*
X149867472Y-105165157D01*
X149993371Y-104901117D01*
X150065339Y-104617589D01*
X150080611Y-104325469D01*
X150038599Y-104035981D01*
X149940919Y-103760253D01*
X149867472Y-103622843D01*
X149618397Y-103545208D01*
X148769605Y-104394000D01*
X148410395Y-104394000D01*
X147561603Y-103545208D01*
X147320000Y-103620514D01*
X147078397Y-103545208D01*
X146229605Y-104394000D01*
X145870395Y-104394000D01*
X145021603Y-103545208D01*
X144772528Y-103622843D01*
X144646629Y-103886883D01*
X144574661Y-104170411D01*
X144559389Y-104462531D01*
X141587188Y-104462531D01*
X141421740Y-104394000D01*
X141607665Y-104316987D01*
X141828153Y-104169662D01*
X142015662Y-103982153D01*
X142162987Y-103761665D01*
X142264467Y-103516672D01*
X142316200Y-103256589D01*
X142316200Y-102991411D01*
X142264467Y-102731328D01*
X142162987Y-102486335D01*
X142015662Y-102265847D01*
X141828153Y-102078338D01*
X141607665Y-101931013D01*
X141421740Y-101854000D01*
X141607665Y-101776987D01*
X141828153Y-101629662D01*
X142015662Y-101442153D01*
X142162987Y-101221665D01*
X142264467Y-100976672D01*
X142316200Y-100716589D01*
X142316200Y-100451411D01*
X142264467Y-100191328D01*
X142162987Y-99946335D01*
X142015662Y-99725847D01*
X141828153Y-99538338D01*
X141607665Y-99391013D01*
X141421740Y-99314000D01*
X141607665Y-99236987D01*
X141828153Y-99089662D01*
X142015662Y-98902153D01*
X142162987Y-98681665D01*
X142240000Y-98495740D01*
X142317013Y-98681665D01*
X142464338Y-98902153D01*
X142651847Y-99089662D01*
X142872335Y-99236987D01*
X143117328Y-99338467D01*
X143377411Y-99390200D01*
X143642589Y-99390200D01*
X143902672Y-99338467D01*
X144147665Y-99236987D01*
X144368153Y-99089662D01*
X144555662Y-98902153D01*
X144702987Y-98681665D01*
X144780000Y-98495740D01*
X144857013Y-98681665D01*
X145004338Y-98902153D01*
X145191847Y-99089662D01*
X145412335Y-99236987D01*
X145657328Y-99338467D01*
X145917411Y-99390200D01*
X146182589Y-99390200D01*
X146442672Y-99338467D01*
X146687665Y-99236987D01*
X146908153Y-99089662D01*
X147095662Y-98902153D01*
X147242987Y-98681665D01*
X147320000Y-98495740D01*
X147397013Y-98681665D01*
X147544338Y-98902153D01*
X147731847Y-99089662D01*
X147952335Y-99236987D01*
X148197328Y-99338467D01*
X148457411Y-99390200D01*
X148722589Y-99390200D01*
X148982672Y-99338467D01*
X149227665Y-99236987D01*
X149448153Y-99089662D01*
X149635662Y-98902153D01*
X149782987Y-98681665D01*
X149860000Y-98495740D01*
X149937013Y-98681665D01*
X150084338Y-98902153D01*
X150271847Y-99089662D01*
X150492335Y-99236987D01*
X150737328Y-99338467D01*
X150997411Y-99390200D01*
X151262589Y-99390200D01*
X151522672Y-99338467D01*
X151767665Y-99236987D01*
X151988153Y-99089662D01*
X152175662Y-98902153D01*
X152322987Y-98681665D01*
X152400000Y-98495740D01*
X152477013Y-98681665D01*
%TA.AperFunction,Conductor*%
D15*
G36*
X152477013Y-98681665D02*
G01*
X152624338Y-98902153D01*
X152811847Y-99089662D01*
X153032335Y-99236987D01*
X153218260Y-99314000D01*
X153032335Y-99391013D01*
X152811847Y-99538338D01*
X152624338Y-99725847D01*
X152575459Y-99799000D01*
X147034552Y-99799000D01*
X146995999Y-99795203D01*
X146957446Y-99799000D01*
X146957439Y-99799000D01*
X146842113Y-99810359D01*
X146694140Y-99855246D01*
X146557767Y-99928138D01*
X146497559Y-99977550D01*
X146468187Y-100001655D01*
X146468184Y-100001658D01*
X146438236Y-100026236D01*
X146413657Y-100056185D01*
X146103914Y-100365928D01*
X145450000Y-100365928D01*
X145276746Y-100382992D01*
X145110150Y-100433528D01*
X144956614Y-100515595D01*
X144822038Y-100626038D01*
X144711595Y-100760614D01*
X144629528Y-100914150D01*
X144578992Y-101080746D01*
X144561928Y-101254000D01*
X144561928Y-102454000D01*
X144578992Y-102627254D01*
X144629528Y-102793850D01*
X144711595Y-102947386D01*
X144822038Y-103081962D01*
X144956614Y-103192405D01*
X145110150Y-103274472D01*
X145219293Y-103307580D01*
X145201208Y-103365603D01*
X146050000Y-104214395D01*
X146898792Y-103365603D01*
X146880707Y-103307580D01*
X146989850Y-103274472D01*
X147143386Y-103192405D01*
X147277962Y-103081962D01*
X147388405Y-102947386D01*
X147456285Y-102820392D01*
X147643368Y-103007475D01*
X147816729Y-103123311D01*
X147741208Y-103365603D01*
X148590000Y-104214395D01*
X149438792Y-103365603D01*
X149363271Y-103123311D01*
X149536632Y-103007475D01*
X149743475Y-102800632D01*
X149851474Y-102639000D01*
X150318843Y-102639000D01*
X150785000Y-103105157D01*
X150785000Y-103621447D01*
X150781203Y-103660000D01*
X150785000Y-103698553D01*
X150785000Y-103698561D01*
X150787235Y-103721246D01*
X150796359Y-103813886D01*
X150841246Y-103961859D01*
X150867923Y-104011768D01*
X150914139Y-104098233D01*
X150938628Y-104128072D01*
X150987655Y-104187812D01*
X150987659Y-104187816D01*
X151012237Y-104217764D01*
X151042185Y-104242342D01*
X151777653Y-104977810D01*
X151802236Y-105007764D01*
X151921767Y-105105862D01*
X152058140Y-105178754D01*
X152206113Y-105223642D01*
X152281026Y-105231020D01*
X152321439Y-105235000D01*
X152321444Y-105235000D01*
X152360000Y-105238797D01*
X152390241Y-105235819D01*
X152375533Y-105271328D01*
X152323800Y-105531411D01*
X152323800Y-105796589D01*
X152375533Y-106056672D01*
X152413777Y-106149000D01*
X149851474Y-106149000D01*
X149743475Y-105987368D01*
X149536632Y-105780525D01*
X149363271Y-105664689D01*
X149438792Y-105422397D01*
X148590000Y-104573605D01*
X147741208Y-105422397D01*
X147816729Y-105664689D01*
X147643368Y-105780525D01*
X147436525Y-105987368D01*
X147320000Y-106161760D01*
X147203475Y-105987368D01*
X146996632Y-105780525D01*
X146823271Y-105664689D01*
X146898792Y-105422397D01*
X146050000Y-104573605D01*
X145201208Y-105422397D01*
X145276729Y-105664689D01*
X145103368Y-105780525D01*
X144896525Y-105987368D01*
X144734010Y-106230589D01*
X144622068Y-106500842D01*
X144565000Y-106787740D01*
X144565000Y-107080260D01*
X144622068Y-107367158D01*
X144734010Y-107637411D01*
X144896525Y-107880632D01*
X145103368Y-108087475D01*
X145346589Y-108249990D01*
X145616842Y-108361932D01*
X145903740Y-108419000D01*
X146196260Y-108419000D01*
X146483158Y-108361932D01*
X146561673Y-108329410D01*
X146552359Y-108360114D01*
X146541000Y-108475440D01*
X146541000Y-108475447D01*
X146537203Y-108514000D01*
X146541000Y-108552553D01*
X146541000Y-109490262D01*
X146442672Y-109449533D01*
X146182589Y-109397800D01*
X145917411Y-109397800D01*
X145657328Y-109449533D01*
X145412335Y-109551013D01*
X145191847Y-109698338D01*
X145004338Y-109885847D01*
X144857013Y-110106335D01*
X144780000Y-110292260D01*
X144702987Y-110106335D01*
X144555662Y-109885847D01*
X144368153Y-109698338D01*
X144147665Y-109551013D01*
X143902672Y-109449533D01*
X143642589Y-109397800D01*
X143377411Y-109397800D01*
X143117328Y-109449533D01*
X142872335Y-109551013D01*
X142651847Y-109698338D01*
X142464338Y-109885847D01*
X142317013Y-110106335D01*
X142240000Y-110292260D01*
X142162987Y-110106335D01*
X142015662Y-109885847D01*
X141828153Y-109698338D01*
X141607665Y-109551013D01*
X141421740Y-109474000D01*
X141607665Y-109396987D01*
X141828153Y-109249662D01*
X142015662Y-109062153D01*
X142162987Y-108841665D01*
X142264467Y-108596672D01*
X142316200Y-108336589D01*
X142316200Y-108071411D01*
X142264467Y-107811328D01*
X142162987Y-107566335D01*
X142015662Y-107345847D01*
X141828153Y-107158338D01*
X141607665Y-107011013D01*
X141421740Y-106934000D01*
X141607665Y-106856987D01*
X141828153Y-106709662D01*
X142015662Y-106522153D01*
X142162987Y-106301665D01*
X142264467Y-106056672D01*
X142316200Y-105796589D01*
X142316200Y-105531411D01*
X142264467Y-105271328D01*
X142162987Y-105026335D01*
X142015662Y-104805847D01*
X141828153Y-104618338D01*
X141607665Y-104471013D01*
X141587188Y-104462531D01*
X144559389Y-104462531D01*
X144601401Y-104752019D01*
X144699081Y-105027747D01*
X144772528Y-105165157D01*
X145021603Y-105242792D01*
X145870395Y-104394000D01*
X146229605Y-104394000D01*
X147078397Y-105242792D01*
X147320000Y-105167486D01*
X147561603Y-105242792D01*
X148410395Y-104394000D01*
X148769605Y-104394000D01*
X149618397Y-105242792D01*
X149867472Y-105165157D01*
X149993371Y-104901117D01*
X150065339Y-104617589D01*
X150080611Y-104325469D01*
X150038599Y-104035981D01*
X149940919Y-103760253D01*
X149867472Y-103622843D01*
X149618397Y-103545208D01*
X148769605Y-104394000D01*
X148410395Y-104394000D01*
X147561603Y-103545208D01*
X147320000Y-103620514D01*
X147078397Y-103545208D01*
X146229605Y-104394000D01*
X145870395Y-104394000D01*
X145021603Y-103545208D01*
X144772528Y-103622843D01*
X144646629Y-103886883D01*
X144574661Y-104170411D01*
X144559389Y-104462531D01*
X141587188Y-104462531D01*
X141421740Y-104394000D01*
X141607665Y-104316987D01*
X141828153Y-104169662D01*
X142015662Y-103982153D01*
X142162987Y-103761665D01*
X142264467Y-103516672D01*
X142316200Y-103256589D01*
X142316200Y-102991411D01*
X142264467Y-102731328D01*
X142162987Y-102486335D01*
X142015662Y-102265847D01*
X141828153Y-102078338D01*
X141607665Y-101931013D01*
X141421740Y-101854000D01*
X141607665Y-101776987D01*
X141828153Y-101629662D01*
X142015662Y-101442153D01*
X142162987Y-101221665D01*
X142264467Y-100976672D01*
X142316200Y-100716589D01*
X142316200Y-100451411D01*
X142264467Y-100191328D01*
X142162987Y-99946335D01*
X142015662Y-99725847D01*
X141828153Y-99538338D01*
X141607665Y-99391013D01*
X141421740Y-99314000D01*
X141607665Y-99236987D01*
X141828153Y-99089662D01*
X142015662Y-98902153D01*
X142162987Y-98681665D01*
X142240000Y-98495740D01*
X142317013Y-98681665D01*
X142464338Y-98902153D01*
X142651847Y-99089662D01*
X142872335Y-99236987D01*
X143117328Y-99338467D01*
X143377411Y-99390200D01*
X143642589Y-99390200D01*
X143902672Y-99338467D01*
X144147665Y-99236987D01*
X144368153Y-99089662D01*
X144555662Y-98902153D01*
X144702987Y-98681665D01*
X144780000Y-98495740D01*
X144857013Y-98681665D01*
X145004338Y-98902153D01*
X145191847Y-99089662D01*
X145412335Y-99236987D01*
X145657328Y-99338467D01*
X145917411Y-99390200D01*
X146182589Y-99390200D01*
X146442672Y-99338467D01*
X146687665Y-99236987D01*
X146908153Y-99089662D01*
X147095662Y-98902153D01*
X147242987Y-98681665D01*
X147320000Y-98495740D01*
X147397013Y-98681665D01*
X147544338Y-98902153D01*
X147731847Y-99089662D01*
X147952335Y-99236987D01*
X148197328Y-99338467D01*
X148457411Y-99390200D01*
X148722589Y-99390200D01*
X148982672Y-99338467D01*
X149227665Y-99236987D01*
X149448153Y-99089662D01*
X149635662Y-98902153D01*
X149782987Y-98681665D01*
X149860000Y-98495740D01*
X149937013Y-98681665D01*
X150084338Y-98902153D01*
X150271847Y-99089662D01*
X150492335Y-99236987D01*
X150737328Y-99338467D01*
X150997411Y-99390200D01*
X151262589Y-99390200D01*
X151522672Y-99338467D01*
X151767665Y-99236987D01*
X151988153Y-99089662D01*
X152175662Y-98902153D01*
X152322987Y-98681665D01*
X152400000Y-98495740D01*
X152477013Y-98681665D01*
G37*
%TD.AperFunction*%
%TD*%
M02*
