%TF.GenerationSoftware,KiCad,Pcbnew,4.0.2+dfsg1-stable*%
%TF.CreationDate,2019-03-01T15:19:43+01:00*%
%TF.ProjectId,A1200MPU-Adapter,41313230304D50552D41646170746572,rev?*%
%TF.FileFunction,Copper,L1,Top,Signal*%
%FSLAX46Y46*%
G04 Gerber Fmt 4.6, Leading zero omitted, Abs format (unit mm)*
G04 Created by KiCad (PCBNEW 4.0.2+dfsg1-stable) date Fri 01 Mar 2019 15:19:43 CET*
%MOMM*%
G01*
G04 APERTURE LIST*
%ADD10C,0.100000*%
%ADD11R,1.397000X1.397000*%
%ADD12C,1.397000*%
%ADD13R,2.000000X1.700000*%
%ADD14R,2.032000X1.524000*%
%ADD15R,2.000000X1.600000*%
%ADD16R,1.524000X2.032000*%
%ADD17R,1.727200X1.727200*%
%ADD18O,1.727200X1.727200*%
%ADD19C,0.600000*%
%ADD20C,0.300000*%
%ADD21C,0.254000*%
G04 APERTURE END LIST*
D10*
D11*
X153670000Y-102870000D03*
D12*
X156210000Y-105410000D03*
X153670000Y-105410000D03*
X156210000Y-107950000D03*
X153670000Y-107950000D03*
X156210000Y-110490000D03*
X153670000Y-113030000D03*
X153670000Y-110490000D03*
X151130000Y-113030000D03*
X151130000Y-110490000D03*
X148590000Y-113030000D03*
X148590000Y-110490000D03*
X146050000Y-113030000D03*
X146050000Y-110490000D03*
X143510000Y-113030000D03*
X143510000Y-110490000D03*
X140970000Y-113030000D03*
X138430000Y-110490000D03*
X140970000Y-110490000D03*
X138430000Y-107950000D03*
X140970000Y-107950000D03*
X138430000Y-105410000D03*
X140970000Y-105410000D03*
X138430000Y-102870000D03*
X140970000Y-102870000D03*
X138430000Y-100330000D03*
X140970000Y-100330000D03*
X138430000Y-97790000D03*
X140970000Y-95250000D03*
X140970000Y-97790000D03*
X143510000Y-95250000D03*
X143510000Y-97790000D03*
X146050000Y-95250000D03*
X146050000Y-97790000D03*
X148590000Y-95250000D03*
X148590000Y-97790000D03*
X151130000Y-95250000D03*
X151130000Y-97790000D03*
X153670000Y-95250000D03*
X156210000Y-97790000D03*
X153670000Y-97790000D03*
X156210000Y-100330000D03*
X153670000Y-100330000D03*
X156210000Y-102870000D03*
D13*
X133890000Y-90170000D03*
X137890000Y-90170000D03*
D14*
X134112000Y-105918000D03*
X134112000Y-102616000D03*
D15*
X149130000Y-90170000D03*
X153130000Y-90170000D03*
X141510000Y-90170000D03*
X145510000Y-90170000D03*
D16*
X157099000Y-90170000D03*
X160401000Y-90170000D03*
D14*
X160782000Y-105791000D03*
X160782000Y-102489000D03*
D17*
X146050000Y-101600000D03*
D18*
X148590000Y-101600000D03*
X146050000Y-104140000D03*
X148590000Y-104140000D03*
X146050000Y-106680000D03*
X148590000Y-106680000D03*
D19*
X140462000Y-91948000D03*
X155194000Y-91694000D03*
X148971000Y-91948000D03*
X143129000Y-102997000D03*
D20*
X140843000Y-91567000D02*
X141510000Y-91567000D01*
X140462000Y-91948000D02*
X140843000Y-91567000D01*
X157099000Y-90170000D02*
X156718000Y-90170000D01*
X156718000Y-90170000D02*
X155194000Y-91694000D01*
X148971000Y-91948000D02*
X149130000Y-91789000D01*
X149130000Y-91789000D02*
X149130000Y-90170000D01*
X141510000Y-90170000D02*
X141510000Y-91567000D01*
X141510000Y-91567000D02*
X141510000Y-92361000D01*
X141510000Y-92361000D02*
X142240000Y-93091000D01*
X142240000Y-93091000D02*
X142240000Y-99695000D01*
X142240000Y-99695000D02*
X143129000Y-100584000D01*
X143129000Y-100584000D02*
X143129000Y-102997000D01*
X137890000Y-90170000D02*
X141510000Y-90170000D01*
X148590000Y-113030000D02*
X147320000Y-111760000D01*
X148590000Y-107823000D02*
X148590000Y-106680000D01*
X147320000Y-109093000D02*
X148590000Y-107823000D01*
X147320000Y-111760000D02*
X147320000Y-109093000D01*
X146050000Y-113030000D02*
X148590000Y-113030000D01*
X148590000Y-106680000D02*
X160528000Y-106680000D01*
X160528000Y-106680000D02*
X160782000Y-106426000D01*
X160782000Y-106426000D02*
X160782000Y-105791000D01*
X160401000Y-90170000D02*
X160401000Y-102108000D01*
X160401000Y-102108000D02*
X160782000Y-102489000D01*
X160401000Y-90170000D02*
X160401000Y-92202000D01*
X153289000Y-92583000D02*
X152654000Y-91948000D01*
X160020000Y-92583000D02*
X153289000Y-92583000D01*
X160401000Y-92202000D02*
X160020000Y-92583000D01*
X148590000Y-95250000D02*
X148717000Y-95250000D01*
X148717000Y-95250000D02*
X152019000Y-91948000D01*
X153130000Y-91472000D02*
X153130000Y-90170000D01*
X152654000Y-91948000D02*
X153130000Y-91472000D01*
X152019000Y-91948000D02*
X152654000Y-91948000D01*
X148590000Y-95250000D02*
X148590000Y-94869000D01*
X148590000Y-94869000D02*
X145510000Y-91789000D01*
X145510000Y-91789000D02*
X145510000Y-90170000D01*
X146050000Y-104140000D02*
X145923000Y-104140000D01*
X145923000Y-104140000D02*
X144526000Y-102743000D01*
X148590000Y-96266000D02*
X148590000Y-95250000D01*
X148336000Y-96520000D02*
X148590000Y-96266000D01*
X147828000Y-96520000D02*
X148336000Y-96520000D01*
X147447000Y-96901000D02*
X147828000Y-96520000D01*
X147447000Y-98298000D02*
X147447000Y-96901000D01*
X146558000Y-99187000D02*
X147447000Y-98298000D01*
X145923000Y-99187000D02*
X146558000Y-99187000D01*
X144526000Y-100584000D02*
X145923000Y-99187000D01*
X144526000Y-102743000D02*
X144526000Y-100584000D01*
X148590000Y-104140000D02*
X146050000Y-104140000D01*
X146050000Y-104140000D02*
X136906000Y-104140000D01*
X136906000Y-104140000D02*
X136398000Y-104648000D01*
X136398000Y-104648000D02*
X136398000Y-105918000D01*
X136398000Y-105918000D02*
X134112000Y-105918000D01*
X134112000Y-102616000D02*
X134112000Y-90392000D01*
X134112000Y-90392000D02*
X133890000Y-90170000D01*
X153670000Y-100330000D02*
X147320000Y-100330000D01*
X147320000Y-100330000D02*
X146050000Y-101600000D01*
X148590000Y-101600000D02*
X149479000Y-101600000D01*
X154813000Y-104267000D02*
X156210000Y-102870000D01*
X152146000Y-104267000D02*
X154813000Y-104267000D01*
X149479000Y-101600000D02*
X152146000Y-104267000D01*
X146050000Y-106680000D02*
X144780000Y-106680000D01*
X144780000Y-106680000D02*
X140970000Y-110490000D01*
D21*
G36*
X136293569Y-89068110D02*
X136242560Y-89320000D01*
X136242560Y-91020000D01*
X136286838Y-91255317D01*
X136425910Y-91471441D01*
X136638110Y-91616431D01*
X136890000Y-91667440D01*
X138890000Y-91667440D01*
X139125317Y-91623162D01*
X139341441Y-91484090D01*
X139486431Y-91271890D01*
X139537440Y-91020000D01*
X139537440Y-90955000D01*
X139862560Y-90955000D01*
X139862560Y-90970000D01*
X139902995Y-91184893D01*
X139669808Y-91417673D01*
X139527162Y-91761201D01*
X139526838Y-92133167D01*
X139668883Y-92476943D01*
X139931673Y-92740192D01*
X140275201Y-92882838D01*
X140647167Y-92883162D01*
X140871102Y-92790634D01*
X140954921Y-92916079D01*
X141455000Y-93416158D01*
X141455000Y-94007497D01*
X141236413Y-93916732D01*
X140705914Y-93916269D01*
X140215620Y-94118854D01*
X139840173Y-94493647D01*
X139636732Y-94983587D01*
X139636269Y-95514086D01*
X139838854Y-96004380D01*
X140213647Y-96379827D01*
X140551446Y-96520094D01*
X140215620Y-96658854D01*
X139840173Y-97033647D01*
X139699906Y-97371446D01*
X139561146Y-97035620D01*
X139186353Y-96660173D01*
X138696413Y-96456732D01*
X138165914Y-96456269D01*
X137675620Y-96658854D01*
X137300173Y-97033647D01*
X137096732Y-97523587D01*
X137096269Y-98054086D01*
X137298854Y-98544380D01*
X137673647Y-98919827D01*
X138011446Y-99060094D01*
X137675620Y-99198854D01*
X137300173Y-99573647D01*
X137096732Y-100063587D01*
X137096269Y-100594086D01*
X137298854Y-101084380D01*
X137673647Y-101459827D01*
X138011446Y-101600094D01*
X137675620Y-101738854D01*
X137300173Y-102113647D01*
X137096732Y-102603587D01*
X137096269Y-103134086D01*
X137298854Y-103624380D01*
X137673647Y-103999827D01*
X138011446Y-104140094D01*
X137675620Y-104278854D01*
X137300173Y-104653647D01*
X137096732Y-105143587D01*
X137096269Y-105674086D01*
X137298854Y-106164380D01*
X137673647Y-106539827D01*
X138011446Y-106680094D01*
X137675620Y-106818854D01*
X137300173Y-107193647D01*
X137096732Y-107683587D01*
X137096269Y-108214086D01*
X137298854Y-108704380D01*
X137673647Y-109079827D01*
X138011446Y-109220094D01*
X137675620Y-109358854D01*
X137300173Y-109733647D01*
X137096732Y-110223587D01*
X137096269Y-110754086D01*
X137298854Y-111244380D01*
X137673647Y-111619827D01*
X138163587Y-111823268D01*
X138694086Y-111823731D01*
X139184380Y-111621146D01*
X139559827Y-111246353D01*
X139700094Y-110908554D01*
X139838854Y-111244380D01*
X140213647Y-111619827D01*
X140551446Y-111760094D01*
X140215620Y-111898854D01*
X139840173Y-112273647D01*
X139636732Y-112763587D01*
X139636269Y-113294086D01*
X139838854Y-113784380D01*
X140213647Y-114159827D01*
X140703587Y-114363268D01*
X141234086Y-114363731D01*
X141724380Y-114161146D01*
X142099827Y-113786353D01*
X142240094Y-113448554D01*
X142378854Y-113784380D01*
X142753647Y-114159827D01*
X143243587Y-114363268D01*
X143774086Y-114363731D01*
X144264380Y-114161146D01*
X144639827Y-113786353D01*
X144780094Y-113448554D01*
X144918854Y-113784380D01*
X145293647Y-114159827D01*
X145783587Y-114363268D01*
X146314086Y-114363731D01*
X146804380Y-114161146D01*
X147151130Y-113815000D01*
X147489421Y-113815000D01*
X147833647Y-114159827D01*
X148323587Y-114363268D01*
X148854086Y-114363731D01*
X149344380Y-114161146D01*
X149719827Y-113786353D01*
X149860094Y-113448554D01*
X149998854Y-113784380D01*
X150373647Y-114159827D01*
X150863587Y-114363268D01*
X151394086Y-114363731D01*
X151884380Y-114161146D01*
X152259827Y-113786353D01*
X152400094Y-113448554D01*
X152538854Y-113784380D01*
X152913647Y-114159827D01*
X153403587Y-114363268D01*
X153934086Y-114363731D01*
X154424380Y-114161146D01*
X154799827Y-113786353D01*
X155003268Y-113296413D01*
X155003731Y-112765914D01*
X154801146Y-112275620D01*
X154426353Y-111900173D01*
X154088554Y-111759906D01*
X154424380Y-111621146D01*
X154799827Y-111246353D01*
X154940094Y-110908554D01*
X155078854Y-111244380D01*
X155453647Y-111619827D01*
X155943587Y-111823268D01*
X156474086Y-111823731D01*
X156964380Y-111621146D01*
X157339827Y-111246353D01*
X157543268Y-110756413D01*
X157543731Y-110225914D01*
X157341146Y-109735620D01*
X156966353Y-109360173D01*
X156628554Y-109219906D01*
X156964380Y-109081146D01*
X157339827Y-108706353D01*
X157543268Y-108216413D01*
X157543731Y-107685914D01*
X157452451Y-107465000D01*
X160528000Y-107465000D01*
X160828407Y-107405245D01*
X161083079Y-107235079D01*
X161117718Y-107200440D01*
X161798000Y-107200440D01*
X161850000Y-107190656D01*
X161850000Y-118670000D01*
X132790000Y-118670000D01*
X132790000Y-107240570D01*
X132969690Y-107315000D01*
X133826250Y-107315000D01*
X133985000Y-107156250D01*
X133985000Y-106045000D01*
X134239000Y-106045000D01*
X134239000Y-107156250D01*
X134397750Y-107315000D01*
X135254310Y-107315000D01*
X135487699Y-107218327D01*
X135666327Y-107039698D01*
X135763000Y-106806309D01*
X135763000Y-106203750D01*
X135604250Y-106045000D01*
X134239000Y-106045000D01*
X133985000Y-106045000D01*
X133965000Y-106045000D01*
X133965000Y-105791000D01*
X133985000Y-105791000D01*
X133985000Y-104679750D01*
X134239000Y-104679750D01*
X134239000Y-105791000D01*
X135604250Y-105791000D01*
X135763000Y-105632250D01*
X135763000Y-105029691D01*
X135666327Y-104796302D01*
X135487699Y-104617673D01*
X135254310Y-104521000D01*
X134397750Y-104521000D01*
X134239000Y-104679750D01*
X133985000Y-104679750D01*
X133826250Y-104521000D01*
X132969690Y-104521000D01*
X132790000Y-104595430D01*
X132790000Y-103937459D01*
X132844110Y-103974431D01*
X133096000Y-104025440D01*
X135128000Y-104025440D01*
X135363317Y-103981162D01*
X135579441Y-103842090D01*
X135724431Y-103629890D01*
X135775440Y-103378000D01*
X135775440Y-101854000D01*
X135731162Y-101618683D01*
X135592090Y-101402559D01*
X135379890Y-101257569D01*
X135128000Y-101206560D01*
X134897000Y-101206560D01*
X134897000Y-91666123D01*
X135125317Y-91623162D01*
X135341441Y-91484090D01*
X135486431Y-91271890D01*
X135537440Y-91020000D01*
X135537440Y-89320000D01*
X135493162Y-89084683D01*
X135422583Y-88975000D01*
X136357188Y-88975000D01*
X136293569Y-89068110D01*
X136293569Y-89068110D01*
G37*
X136293569Y-89068110D02*
X136242560Y-89320000D01*
X136242560Y-91020000D01*
X136286838Y-91255317D01*
X136425910Y-91471441D01*
X136638110Y-91616431D01*
X136890000Y-91667440D01*
X138890000Y-91667440D01*
X139125317Y-91623162D01*
X139341441Y-91484090D01*
X139486431Y-91271890D01*
X139537440Y-91020000D01*
X139537440Y-90955000D01*
X139862560Y-90955000D01*
X139862560Y-90970000D01*
X139902995Y-91184893D01*
X139669808Y-91417673D01*
X139527162Y-91761201D01*
X139526838Y-92133167D01*
X139668883Y-92476943D01*
X139931673Y-92740192D01*
X140275201Y-92882838D01*
X140647167Y-92883162D01*
X140871102Y-92790634D01*
X140954921Y-92916079D01*
X141455000Y-93416158D01*
X141455000Y-94007497D01*
X141236413Y-93916732D01*
X140705914Y-93916269D01*
X140215620Y-94118854D01*
X139840173Y-94493647D01*
X139636732Y-94983587D01*
X139636269Y-95514086D01*
X139838854Y-96004380D01*
X140213647Y-96379827D01*
X140551446Y-96520094D01*
X140215620Y-96658854D01*
X139840173Y-97033647D01*
X139699906Y-97371446D01*
X139561146Y-97035620D01*
X139186353Y-96660173D01*
X138696413Y-96456732D01*
X138165914Y-96456269D01*
X137675620Y-96658854D01*
X137300173Y-97033647D01*
X137096732Y-97523587D01*
X137096269Y-98054086D01*
X137298854Y-98544380D01*
X137673647Y-98919827D01*
X138011446Y-99060094D01*
X137675620Y-99198854D01*
X137300173Y-99573647D01*
X137096732Y-100063587D01*
X137096269Y-100594086D01*
X137298854Y-101084380D01*
X137673647Y-101459827D01*
X138011446Y-101600094D01*
X137675620Y-101738854D01*
X137300173Y-102113647D01*
X137096732Y-102603587D01*
X137096269Y-103134086D01*
X137298854Y-103624380D01*
X137673647Y-103999827D01*
X138011446Y-104140094D01*
X137675620Y-104278854D01*
X137300173Y-104653647D01*
X137096732Y-105143587D01*
X137096269Y-105674086D01*
X137298854Y-106164380D01*
X137673647Y-106539827D01*
X138011446Y-106680094D01*
X137675620Y-106818854D01*
X137300173Y-107193647D01*
X137096732Y-107683587D01*
X137096269Y-108214086D01*
X137298854Y-108704380D01*
X137673647Y-109079827D01*
X138011446Y-109220094D01*
X137675620Y-109358854D01*
X137300173Y-109733647D01*
X137096732Y-110223587D01*
X137096269Y-110754086D01*
X137298854Y-111244380D01*
X137673647Y-111619827D01*
X138163587Y-111823268D01*
X138694086Y-111823731D01*
X139184380Y-111621146D01*
X139559827Y-111246353D01*
X139700094Y-110908554D01*
X139838854Y-111244380D01*
X140213647Y-111619827D01*
X140551446Y-111760094D01*
X140215620Y-111898854D01*
X139840173Y-112273647D01*
X139636732Y-112763587D01*
X139636269Y-113294086D01*
X139838854Y-113784380D01*
X140213647Y-114159827D01*
X140703587Y-114363268D01*
X141234086Y-114363731D01*
X141724380Y-114161146D01*
X142099827Y-113786353D01*
X142240094Y-113448554D01*
X142378854Y-113784380D01*
X142753647Y-114159827D01*
X143243587Y-114363268D01*
X143774086Y-114363731D01*
X144264380Y-114161146D01*
X144639827Y-113786353D01*
X144780094Y-113448554D01*
X144918854Y-113784380D01*
X145293647Y-114159827D01*
X145783587Y-114363268D01*
X146314086Y-114363731D01*
X146804380Y-114161146D01*
X147151130Y-113815000D01*
X147489421Y-113815000D01*
X147833647Y-114159827D01*
X148323587Y-114363268D01*
X148854086Y-114363731D01*
X149344380Y-114161146D01*
X149719827Y-113786353D01*
X149860094Y-113448554D01*
X149998854Y-113784380D01*
X150373647Y-114159827D01*
X150863587Y-114363268D01*
X151394086Y-114363731D01*
X151884380Y-114161146D01*
X152259827Y-113786353D01*
X152400094Y-113448554D01*
X152538854Y-113784380D01*
X152913647Y-114159827D01*
X153403587Y-114363268D01*
X153934086Y-114363731D01*
X154424380Y-114161146D01*
X154799827Y-113786353D01*
X155003268Y-113296413D01*
X155003731Y-112765914D01*
X154801146Y-112275620D01*
X154426353Y-111900173D01*
X154088554Y-111759906D01*
X154424380Y-111621146D01*
X154799827Y-111246353D01*
X154940094Y-110908554D01*
X155078854Y-111244380D01*
X155453647Y-111619827D01*
X155943587Y-111823268D01*
X156474086Y-111823731D01*
X156964380Y-111621146D01*
X157339827Y-111246353D01*
X157543268Y-110756413D01*
X157543731Y-110225914D01*
X157341146Y-109735620D01*
X156966353Y-109360173D01*
X156628554Y-109219906D01*
X156964380Y-109081146D01*
X157339827Y-108706353D01*
X157543268Y-108216413D01*
X157543731Y-107685914D01*
X157452451Y-107465000D01*
X160528000Y-107465000D01*
X160828407Y-107405245D01*
X161083079Y-107235079D01*
X161117718Y-107200440D01*
X161798000Y-107200440D01*
X161850000Y-107190656D01*
X161850000Y-118670000D01*
X132790000Y-118670000D01*
X132790000Y-107240570D01*
X132969690Y-107315000D01*
X133826250Y-107315000D01*
X133985000Y-107156250D01*
X133985000Y-106045000D01*
X134239000Y-106045000D01*
X134239000Y-107156250D01*
X134397750Y-107315000D01*
X135254310Y-107315000D01*
X135487699Y-107218327D01*
X135666327Y-107039698D01*
X135763000Y-106806309D01*
X135763000Y-106203750D01*
X135604250Y-106045000D01*
X134239000Y-106045000D01*
X133985000Y-106045000D01*
X133965000Y-106045000D01*
X133965000Y-105791000D01*
X133985000Y-105791000D01*
X133985000Y-104679750D01*
X134239000Y-104679750D01*
X134239000Y-105791000D01*
X135604250Y-105791000D01*
X135763000Y-105632250D01*
X135763000Y-105029691D01*
X135666327Y-104796302D01*
X135487699Y-104617673D01*
X135254310Y-104521000D01*
X134397750Y-104521000D01*
X134239000Y-104679750D01*
X133985000Y-104679750D01*
X133826250Y-104521000D01*
X132969690Y-104521000D01*
X132790000Y-104595430D01*
X132790000Y-103937459D01*
X132844110Y-103974431D01*
X133096000Y-104025440D01*
X135128000Y-104025440D01*
X135363317Y-103981162D01*
X135579441Y-103842090D01*
X135724431Y-103629890D01*
X135775440Y-103378000D01*
X135775440Y-101854000D01*
X135731162Y-101618683D01*
X135592090Y-101402559D01*
X135379890Y-101257569D01*
X135128000Y-101206560D01*
X134897000Y-101206560D01*
X134897000Y-91666123D01*
X135125317Y-91623162D01*
X135341441Y-91484090D01*
X135486431Y-91271890D01*
X135537440Y-91020000D01*
X135537440Y-89320000D01*
X135493162Y-89084683D01*
X135422583Y-88975000D01*
X136357188Y-88975000D01*
X136293569Y-89068110D01*
G36*
X152538854Y-98544380D02*
X152913647Y-98919827D01*
X153251446Y-99060094D01*
X152915620Y-99198854D01*
X152568870Y-99545000D01*
X147320000Y-99545000D01*
X147019593Y-99604755D01*
X146764921Y-99774921D01*
X146450882Y-100088960D01*
X145186400Y-100088960D01*
X144951083Y-100133238D01*
X144734959Y-100272310D01*
X144589969Y-100484510D01*
X144538960Y-100736400D01*
X144538960Y-102463600D01*
X144583238Y-102698917D01*
X144722310Y-102915041D01*
X144934510Y-103060031D01*
X145028375Y-103079039D01*
X144767312Y-103365053D01*
X144595042Y-103780974D01*
X144716183Y-104013000D01*
X145923000Y-104013000D01*
X145923000Y-103993000D01*
X146177000Y-103993000D01*
X146177000Y-104013000D01*
X148463000Y-104013000D01*
X148463000Y-103993000D01*
X148717000Y-103993000D01*
X148717000Y-104013000D01*
X149923817Y-104013000D01*
X150044958Y-103780974D01*
X149872688Y-103365053D01*
X149478490Y-102933179D01*
X149355772Y-102875664D01*
X149528855Y-102760013D01*
X151590921Y-104822079D01*
X151845594Y-104992245D01*
X152146000Y-105052001D01*
X152146005Y-105052000D01*
X152374762Y-105052000D01*
X152336732Y-105143587D01*
X152336269Y-105674086D01*
X152427549Y-105895000D01*
X149862558Y-105895000D01*
X149679029Y-105620330D01*
X149355772Y-105404336D01*
X149478490Y-105346821D01*
X149872688Y-104914947D01*
X150044958Y-104499026D01*
X149923817Y-104267000D01*
X148717000Y-104267000D01*
X148717000Y-104287000D01*
X148463000Y-104287000D01*
X148463000Y-104267000D01*
X146177000Y-104267000D01*
X146177000Y-104287000D01*
X145923000Y-104287000D01*
X145923000Y-104267000D01*
X144716183Y-104267000D01*
X144595042Y-104499026D01*
X144767312Y-104914947D01*
X145161510Y-105346821D01*
X145284228Y-105404336D01*
X144960971Y-105620330D01*
X144777050Y-105895587D01*
X144479594Y-105954755D01*
X144224921Y-106124921D01*
X142303416Y-108046426D01*
X142303731Y-107685914D01*
X142101146Y-107195620D01*
X141726353Y-106820173D01*
X141388554Y-106679906D01*
X141724380Y-106541146D01*
X142099827Y-106166353D01*
X142303268Y-105676413D01*
X142303731Y-105145914D01*
X142101146Y-104655620D01*
X141726353Y-104280173D01*
X141388554Y-104139906D01*
X141724380Y-104001146D01*
X142099827Y-103626353D01*
X142238942Y-103291327D01*
X142335883Y-103525943D01*
X142598673Y-103789192D01*
X142942201Y-103931838D01*
X143314167Y-103932162D01*
X143657943Y-103790117D01*
X143921192Y-103527327D01*
X144063838Y-103183799D01*
X144064162Y-102811833D01*
X143922117Y-102468057D01*
X143914000Y-102459926D01*
X143914000Y-100584000D01*
X143854245Y-100283594D01*
X143684079Y-100028921D01*
X143025000Y-99369842D01*
X143025000Y-99032503D01*
X143243587Y-99123268D01*
X143774086Y-99123731D01*
X144264380Y-98921146D01*
X144639827Y-98546353D01*
X144780094Y-98208554D01*
X144918854Y-98544380D01*
X145293647Y-98919827D01*
X145783587Y-99123268D01*
X146314086Y-99123731D01*
X146804380Y-98921146D01*
X147179827Y-98546353D01*
X147320094Y-98208554D01*
X147458854Y-98544380D01*
X147833647Y-98919827D01*
X148323587Y-99123268D01*
X148854086Y-99123731D01*
X149344380Y-98921146D01*
X149719827Y-98546353D01*
X149860094Y-98208554D01*
X149998854Y-98544380D01*
X150373647Y-98919827D01*
X150863587Y-99123268D01*
X151394086Y-99123731D01*
X151884380Y-98921146D01*
X152259827Y-98546353D01*
X152400094Y-98208554D01*
X152538854Y-98544380D01*
X152538854Y-98544380D01*
G37*
X152538854Y-98544380D02*
X152913647Y-98919827D01*
X153251446Y-99060094D01*
X152915620Y-99198854D01*
X152568870Y-99545000D01*
X147320000Y-99545000D01*
X147019593Y-99604755D01*
X146764921Y-99774921D01*
X146450882Y-100088960D01*
X145186400Y-100088960D01*
X144951083Y-100133238D01*
X144734959Y-100272310D01*
X144589969Y-100484510D01*
X144538960Y-100736400D01*
X144538960Y-102463600D01*
X144583238Y-102698917D01*
X144722310Y-102915041D01*
X144934510Y-103060031D01*
X145028375Y-103079039D01*
X144767312Y-103365053D01*
X144595042Y-103780974D01*
X144716183Y-104013000D01*
X145923000Y-104013000D01*
X145923000Y-103993000D01*
X146177000Y-103993000D01*
X146177000Y-104013000D01*
X148463000Y-104013000D01*
X148463000Y-103993000D01*
X148717000Y-103993000D01*
X148717000Y-104013000D01*
X149923817Y-104013000D01*
X150044958Y-103780974D01*
X149872688Y-103365053D01*
X149478490Y-102933179D01*
X149355772Y-102875664D01*
X149528855Y-102760013D01*
X151590921Y-104822079D01*
X151845594Y-104992245D01*
X152146000Y-105052001D01*
X152146005Y-105052000D01*
X152374762Y-105052000D01*
X152336732Y-105143587D01*
X152336269Y-105674086D01*
X152427549Y-105895000D01*
X149862558Y-105895000D01*
X149679029Y-105620330D01*
X149355772Y-105404336D01*
X149478490Y-105346821D01*
X149872688Y-104914947D01*
X150044958Y-104499026D01*
X149923817Y-104267000D01*
X148717000Y-104267000D01*
X148717000Y-104287000D01*
X148463000Y-104287000D01*
X148463000Y-104267000D01*
X146177000Y-104267000D01*
X146177000Y-104287000D01*
X145923000Y-104287000D01*
X145923000Y-104267000D01*
X144716183Y-104267000D01*
X144595042Y-104499026D01*
X144767312Y-104914947D01*
X145161510Y-105346821D01*
X145284228Y-105404336D01*
X144960971Y-105620330D01*
X144777050Y-105895587D01*
X144479594Y-105954755D01*
X144224921Y-106124921D01*
X142303416Y-108046426D01*
X142303731Y-107685914D01*
X142101146Y-107195620D01*
X141726353Y-106820173D01*
X141388554Y-106679906D01*
X141724380Y-106541146D01*
X142099827Y-106166353D01*
X142303268Y-105676413D01*
X142303731Y-105145914D01*
X142101146Y-104655620D01*
X141726353Y-104280173D01*
X141388554Y-104139906D01*
X141724380Y-104001146D01*
X142099827Y-103626353D01*
X142238942Y-103291327D01*
X142335883Y-103525943D01*
X142598673Y-103789192D01*
X142942201Y-103931838D01*
X143314167Y-103932162D01*
X143657943Y-103790117D01*
X143921192Y-103527327D01*
X144063838Y-103183799D01*
X144064162Y-102811833D01*
X143922117Y-102468057D01*
X143914000Y-102459926D01*
X143914000Y-100584000D01*
X143854245Y-100283594D01*
X143684079Y-100028921D01*
X143025000Y-99369842D01*
X143025000Y-99032503D01*
X143243587Y-99123268D01*
X143774086Y-99123731D01*
X144264380Y-98921146D01*
X144639827Y-98546353D01*
X144780094Y-98208554D01*
X144918854Y-98544380D01*
X145293647Y-98919827D01*
X145783587Y-99123268D01*
X146314086Y-99123731D01*
X146804380Y-98921146D01*
X147179827Y-98546353D01*
X147320094Y-98208554D01*
X147458854Y-98544380D01*
X147833647Y-98919827D01*
X148323587Y-99123268D01*
X148854086Y-99123731D01*
X149344380Y-98921146D01*
X149719827Y-98546353D01*
X149860094Y-98208554D01*
X149998854Y-98544380D01*
X150373647Y-98919827D01*
X150863587Y-99123268D01*
X151394086Y-99123731D01*
X151884380Y-98921146D01*
X152259827Y-98546353D01*
X152400094Y-98208554D01*
X152538854Y-98544380D01*
G36*
X143971673Y-89010301D02*
X143875000Y-89243690D01*
X143875000Y-89884250D01*
X144033750Y-90043000D01*
X145383000Y-90043000D01*
X145383000Y-90023000D01*
X145637000Y-90023000D01*
X145637000Y-90043000D01*
X146986250Y-90043000D01*
X147145000Y-89884250D01*
X147145000Y-89243690D01*
X147048327Y-89010301D01*
X147013026Y-88975000D01*
X147631352Y-88975000D01*
X147533569Y-89118110D01*
X147482560Y-89370000D01*
X147482560Y-90970000D01*
X147526838Y-91205317D01*
X147665910Y-91421441D01*
X147878110Y-91566431D01*
X148098505Y-91611062D01*
X148036162Y-91761201D01*
X148035838Y-92133167D01*
X148177883Y-92476943D01*
X148440673Y-92740192D01*
X148784201Y-92882838D01*
X149156167Y-92883162D01*
X149499943Y-92741117D01*
X149763192Y-92478327D01*
X149905838Y-92134799D01*
X149906100Y-91833742D01*
X149915000Y-91789000D01*
X149915000Y-91617440D01*
X150130000Y-91617440D01*
X150365317Y-91573162D01*
X150581441Y-91434090D01*
X150726431Y-91221890D01*
X150777440Y-90970000D01*
X150777440Y-90455750D01*
X151495000Y-90455750D01*
X151495000Y-91096310D01*
X151591673Y-91329699D01*
X151770302Y-91508327D01*
X152003691Y-91605000D01*
X152844250Y-91605000D01*
X153003000Y-91446250D01*
X153003000Y-90297000D01*
X151653750Y-90297000D01*
X151495000Y-90455750D01*
X150777440Y-90455750D01*
X150777440Y-89370000D01*
X150733162Y-89134683D01*
X150630409Y-88975000D01*
X151626974Y-88975000D01*
X151591673Y-89010301D01*
X151495000Y-89243690D01*
X151495000Y-89884250D01*
X151653750Y-90043000D01*
X153003000Y-90043000D01*
X153003000Y-90023000D01*
X153257000Y-90023000D01*
X153257000Y-90043000D01*
X154606250Y-90043000D01*
X154765000Y-89884250D01*
X154765000Y-89243690D01*
X154668327Y-89010301D01*
X154633026Y-88975000D01*
X155725808Y-88975000D01*
X155689560Y-89154000D01*
X155689560Y-90088283D01*
X155018995Y-90758847D01*
X155008833Y-90758838D01*
X154765000Y-90859587D01*
X154765000Y-90455750D01*
X154606250Y-90297000D01*
X153257000Y-90297000D01*
X153257000Y-91446250D01*
X153415750Y-91605000D01*
X154256309Y-91605000D01*
X154259078Y-91603853D01*
X154258838Y-91879167D01*
X154400883Y-92222943D01*
X154663673Y-92486192D01*
X155007201Y-92628838D01*
X155379167Y-92629162D01*
X155722943Y-92487117D01*
X155986192Y-92224327D01*
X156128838Y-91880799D01*
X156128848Y-91869310D01*
X156193731Y-91804427D01*
X156337000Y-91833440D01*
X157861000Y-91833440D01*
X158096317Y-91789162D01*
X158312441Y-91650090D01*
X158457431Y-91437890D01*
X158508440Y-91186000D01*
X158508440Y-90455750D01*
X159004000Y-90455750D01*
X159004000Y-91312310D01*
X159100673Y-91545699D01*
X159279302Y-91724327D01*
X159512691Y-91821000D01*
X160115250Y-91821000D01*
X160274000Y-91662250D01*
X160274000Y-90297000D01*
X160528000Y-90297000D01*
X160528000Y-91662250D01*
X160686750Y-91821000D01*
X161289309Y-91821000D01*
X161522698Y-91724327D01*
X161701327Y-91545699D01*
X161798000Y-91312310D01*
X161798000Y-90455750D01*
X161639250Y-90297000D01*
X160528000Y-90297000D01*
X160274000Y-90297000D01*
X159162750Y-90297000D01*
X159004000Y-90455750D01*
X158508440Y-90455750D01*
X158508440Y-89154000D01*
X158474759Y-88975000D01*
X159025825Y-88975000D01*
X159004000Y-89027690D01*
X159004000Y-89884250D01*
X159162750Y-90043000D01*
X160274000Y-90043000D01*
X160274000Y-90023000D01*
X160528000Y-90023000D01*
X160528000Y-90043000D01*
X161639250Y-90043000D01*
X161798000Y-89884250D01*
X161798000Y-89027690D01*
X161776175Y-88975000D01*
X161850000Y-88975000D01*
X161850000Y-101092000D01*
X161067750Y-101092000D01*
X160909000Y-101250750D01*
X160909000Y-102362000D01*
X160929000Y-102362000D01*
X160929000Y-102616000D01*
X160909000Y-102616000D01*
X160909000Y-103727250D01*
X161067750Y-103886000D01*
X161850000Y-103886000D01*
X161850000Y-104392090D01*
X161798000Y-104381560D01*
X159766000Y-104381560D01*
X159530683Y-104425838D01*
X159314559Y-104564910D01*
X159169569Y-104777110D01*
X159118560Y-105029000D01*
X159118560Y-105895000D01*
X157452503Y-105895000D01*
X157543268Y-105676413D01*
X157543731Y-105145914D01*
X157341146Y-104655620D01*
X156966353Y-104280173D01*
X156628554Y-104139906D01*
X156964380Y-104001146D01*
X157339827Y-103626353D01*
X157543268Y-103136413D01*
X157543583Y-102774750D01*
X159131000Y-102774750D01*
X159131000Y-103377309D01*
X159227673Y-103610698D01*
X159406301Y-103789327D01*
X159639690Y-103886000D01*
X160496250Y-103886000D01*
X160655000Y-103727250D01*
X160655000Y-102616000D01*
X159289750Y-102616000D01*
X159131000Y-102774750D01*
X157543583Y-102774750D01*
X157543731Y-102605914D01*
X157341146Y-102115620D01*
X156966353Y-101740173D01*
X156630445Y-101600691D01*
X159131000Y-101600691D01*
X159131000Y-102203250D01*
X159289750Y-102362000D01*
X160655000Y-102362000D01*
X160655000Y-101250750D01*
X160496250Y-101092000D01*
X159639690Y-101092000D01*
X159406301Y-101188673D01*
X159227673Y-101367302D01*
X159131000Y-101600691D01*
X156630445Y-101600691D01*
X156628554Y-101599906D01*
X156964380Y-101461146D01*
X157339827Y-101086353D01*
X157543268Y-100596413D01*
X157543731Y-100065914D01*
X157341146Y-99575620D01*
X156966353Y-99200173D01*
X156628554Y-99059906D01*
X156964380Y-98921146D01*
X157339827Y-98546353D01*
X157543268Y-98056413D01*
X157543731Y-97525914D01*
X157341146Y-97035620D01*
X156966353Y-96660173D01*
X156476413Y-96456732D01*
X155945914Y-96456269D01*
X155455620Y-96658854D01*
X155080173Y-97033647D01*
X154939906Y-97371446D01*
X154801146Y-97035620D01*
X154426353Y-96660173D01*
X154088554Y-96519906D01*
X154424380Y-96381146D01*
X154799827Y-96006353D01*
X155003268Y-95516413D01*
X155003731Y-94985914D01*
X154801146Y-94495620D01*
X154426353Y-94120173D01*
X153936413Y-93916732D01*
X153405914Y-93916269D01*
X152915620Y-94118854D01*
X152540173Y-94493647D01*
X152399906Y-94831446D01*
X152261146Y-94495620D01*
X151886353Y-94120173D01*
X151396413Y-93916732D01*
X150865914Y-93916269D01*
X150375620Y-94118854D01*
X150000173Y-94493647D01*
X149866686Y-94815118D01*
X149759800Y-94557071D01*
X149524188Y-94495417D01*
X148769605Y-95250000D01*
X149524188Y-96004583D01*
X149759800Y-95942929D01*
X149858083Y-95663688D01*
X149998854Y-96004380D01*
X150373647Y-96379827D01*
X150711446Y-96520094D01*
X150375620Y-96658854D01*
X150000173Y-97033647D01*
X149859906Y-97371446D01*
X149721146Y-97035620D01*
X149346353Y-96660173D01*
X149024882Y-96526686D01*
X149282929Y-96419800D01*
X149344583Y-96184188D01*
X148590000Y-95429605D01*
X147835417Y-96184188D01*
X147897071Y-96419800D01*
X148176312Y-96518083D01*
X147835620Y-96658854D01*
X147460173Y-97033647D01*
X147319906Y-97371446D01*
X147181146Y-97035620D01*
X146806353Y-96660173D01*
X146468554Y-96519906D01*
X146804380Y-96381146D01*
X147179827Y-96006353D01*
X147313314Y-95684882D01*
X147420200Y-95942929D01*
X147655812Y-96004583D01*
X148410395Y-95250000D01*
X147655812Y-94495417D01*
X147420200Y-94557071D01*
X147321917Y-94836312D01*
X147181146Y-94495620D01*
X147001652Y-94315812D01*
X147835417Y-94315812D01*
X148590000Y-95070395D01*
X149344583Y-94315812D01*
X149282929Y-94080200D01*
X148782520Y-93904073D01*
X148252801Y-93932852D01*
X147897071Y-94080200D01*
X147835417Y-94315812D01*
X147001652Y-94315812D01*
X146806353Y-94120173D01*
X146316413Y-93916732D01*
X145785914Y-93916269D01*
X145295620Y-94118854D01*
X144920173Y-94493647D01*
X144779906Y-94831446D01*
X144641146Y-94495620D01*
X144266353Y-94120173D01*
X143776413Y-93916732D01*
X143245914Y-93916269D01*
X143025000Y-94007549D01*
X143025000Y-93091000D01*
X142965245Y-92790594D01*
X142795079Y-92535921D01*
X142295000Y-92035842D01*
X142295000Y-91617440D01*
X142510000Y-91617440D01*
X142745317Y-91573162D01*
X142961441Y-91434090D01*
X143106431Y-91221890D01*
X143157440Y-90970000D01*
X143157440Y-90455750D01*
X143875000Y-90455750D01*
X143875000Y-91096310D01*
X143971673Y-91329699D01*
X144150302Y-91508327D01*
X144383691Y-91605000D01*
X145224250Y-91605000D01*
X145383000Y-91446250D01*
X145383000Y-90297000D01*
X145637000Y-90297000D01*
X145637000Y-91446250D01*
X145795750Y-91605000D01*
X146636309Y-91605000D01*
X146869698Y-91508327D01*
X147048327Y-91329699D01*
X147145000Y-91096310D01*
X147145000Y-90455750D01*
X146986250Y-90297000D01*
X145637000Y-90297000D01*
X145383000Y-90297000D01*
X144033750Y-90297000D01*
X143875000Y-90455750D01*
X143157440Y-90455750D01*
X143157440Y-89370000D01*
X143113162Y-89134683D01*
X143010409Y-88975000D01*
X144006974Y-88975000D01*
X143971673Y-89010301D01*
X143971673Y-89010301D01*
G37*
X143971673Y-89010301D02*
X143875000Y-89243690D01*
X143875000Y-89884250D01*
X144033750Y-90043000D01*
X145383000Y-90043000D01*
X145383000Y-90023000D01*
X145637000Y-90023000D01*
X145637000Y-90043000D01*
X146986250Y-90043000D01*
X147145000Y-89884250D01*
X147145000Y-89243690D01*
X147048327Y-89010301D01*
X147013026Y-88975000D01*
X147631352Y-88975000D01*
X147533569Y-89118110D01*
X147482560Y-89370000D01*
X147482560Y-90970000D01*
X147526838Y-91205317D01*
X147665910Y-91421441D01*
X147878110Y-91566431D01*
X148098505Y-91611062D01*
X148036162Y-91761201D01*
X148035838Y-92133167D01*
X148177883Y-92476943D01*
X148440673Y-92740192D01*
X148784201Y-92882838D01*
X149156167Y-92883162D01*
X149499943Y-92741117D01*
X149763192Y-92478327D01*
X149905838Y-92134799D01*
X149906100Y-91833742D01*
X149915000Y-91789000D01*
X149915000Y-91617440D01*
X150130000Y-91617440D01*
X150365317Y-91573162D01*
X150581441Y-91434090D01*
X150726431Y-91221890D01*
X150777440Y-90970000D01*
X150777440Y-90455750D01*
X151495000Y-90455750D01*
X151495000Y-91096310D01*
X151591673Y-91329699D01*
X151770302Y-91508327D01*
X152003691Y-91605000D01*
X152844250Y-91605000D01*
X153003000Y-91446250D01*
X153003000Y-90297000D01*
X151653750Y-90297000D01*
X151495000Y-90455750D01*
X150777440Y-90455750D01*
X150777440Y-89370000D01*
X150733162Y-89134683D01*
X150630409Y-88975000D01*
X151626974Y-88975000D01*
X151591673Y-89010301D01*
X151495000Y-89243690D01*
X151495000Y-89884250D01*
X151653750Y-90043000D01*
X153003000Y-90043000D01*
X153003000Y-90023000D01*
X153257000Y-90023000D01*
X153257000Y-90043000D01*
X154606250Y-90043000D01*
X154765000Y-89884250D01*
X154765000Y-89243690D01*
X154668327Y-89010301D01*
X154633026Y-88975000D01*
X155725808Y-88975000D01*
X155689560Y-89154000D01*
X155689560Y-90088283D01*
X155018995Y-90758847D01*
X155008833Y-90758838D01*
X154765000Y-90859587D01*
X154765000Y-90455750D01*
X154606250Y-90297000D01*
X153257000Y-90297000D01*
X153257000Y-91446250D01*
X153415750Y-91605000D01*
X154256309Y-91605000D01*
X154259078Y-91603853D01*
X154258838Y-91879167D01*
X154400883Y-92222943D01*
X154663673Y-92486192D01*
X155007201Y-92628838D01*
X155379167Y-92629162D01*
X155722943Y-92487117D01*
X155986192Y-92224327D01*
X156128838Y-91880799D01*
X156128848Y-91869310D01*
X156193731Y-91804427D01*
X156337000Y-91833440D01*
X157861000Y-91833440D01*
X158096317Y-91789162D01*
X158312441Y-91650090D01*
X158457431Y-91437890D01*
X158508440Y-91186000D01*
X158508440Y-90455750D01*
X159004000Y-90455750D01*
X159004000Y-91312310D01*
X159100673Y-91545699D01*
X159279302Y-91724327D01*
X159512691Y-91821000D01*
X160115250Y-91821000D01*
X160274000Y-91662250D01*
X160274000Y-90297000D01*
X160528000Y-90297000D01*
X160528000Y-91662250D01*
X160686750Y-91821000D01*
X161289309Y-91821000D01*
X161522698Y-91724327D01*
X161701327Y-91545699D01*
X161798000Y-91312310D01*
X161798000Y-90455750D01*
X161639250Y-90297000D01*
X160528000Y-90297000D01*
X160274000Y-90297000D01*
X159162750Y-90297000D01*
X159004000Y-90455750D01*
X158508440Y-90455750D01*
X158508440Y-89154000D01*
X158474759Y-88975000D01*
X159025825Y-88975000D01*
X159004000Y-89027690D01*
X159004000Y-89884250D01*
X159162750Y-90043000D01*
X160274000Y-90043000D01*
X160274000Y-90023000D01*
X160528000Y-90023000D01*
X160528000Y-90043000D01*
X161639250Y-90043000D01*
X161798000Y-89884250D01*
X161798000Y-89027690D01*
X161776175Y-88975000D01*
X161850000Y-88975000D01*
X161850000Y-101092000D01*
X161067750Y-101092000D01*
X160909000Y-101250750D01*
X160909000Y-102362000D01*
X160929000Y-102362000D01*
X160929000Y-102616000D01*
X160909000Y-102616000D01*
X160909000Y-103727250D01*
X161067750Y-103886000D01*
X161850000Y-103886000D01*
X161850000Y-104392090D01*
X161798000Y-104381560D01*
X159766000Y-104381560D01*
X159530683Y-104425838D01*
X159314559Y-104564910D01*
X159169569Y-104777110D01*
X159118560Y-105029000D01*
X159118560Y-105895000D01*
X157452503Y-105895000D01*
X157543268Y-105676413D01*
X157543731Y-105145914D01*
X157341146Y-104655620D01*
X156966353Y-104280173D01*
X156628554Y-104139906D01*
X156964380Y-104001146D01*
X157339827Y-103626353D01*
X157543268Y-103136413D01*
X157543583Y-102774750D01*
X159131000Y-102774750D01*
X159131000Y-103377309D01*
X159227673Y-103610698D01*
X159406301Y-103789327D01*
X159639690Y-103886000D01*
X160496250Y-103886000D01*
X160655000Y-103727250D01*
X160655000Y-102616000D01*
X159289750Y-102616000D01*
X159131000Y-102774750D01*
X157543583Y-102774750D01*
X157543731Y-102605914D01*
X157341146Y-102115620D01*
X156966353Y-101740173D01*
X156630445Y-101600691D01*
X159131000Y-101600691D01*
X159131000Y-102203250D01*
X159289750Y-102362000D01*
X160655000Y-102362000D01*
X160655000Y-101250750D01*
X160496250Y-101092000D01*
X159639690Y-101092000D01*
X159406301Y-101188673D01*
X159227673Y-101367302D01*
X159131000Y-101600691D01*
X156630445Y-101600691D01*
X156628554Y-101599906D01*
X156964380Y-101461146D01*
X157339827Y-101086353D01*
X157543268Y-100596413D01*
X157543731Y-100065914D01*
X157341146Y-99575620D01*
X156966353Y-99200173D01*
X156628554Y-99059906D01*
X156964380Y-98921146D01*
X157339827Y-98546353D01*
X157543268Y-98056413D01*
X157543731Y-97525914D01*
X157341146Y-97035620D01*
X156966353Y-96660173D01*
X156476413Y-96456732D01*
X155945914Y-96456269D01*
X155455620Y-96658854D01*
X155080173Y-97033647D01*
X154939906Y-97371446D01*
X154801146Y-97035620D01*
X154426353Y-96660173D01*
X154088554Y-96519906D01*
X154424380Y-96381146D01*
X154799827Y-96006353D01*
X155003268Y-95516413D01*
X155003731Y-94985914D01*
X154801146Y-94495620D01*
X154426353Y-94120173D01*
X153936413Y-93916732D01*
X153405914Y-93916269D01*
X152915620Y-94118854D01*
X152540173Y-94493647D01*
X152399906Y-94831446D01*
X152261146Y-94495620D01*
X151886353Y-94120173D01*
X151396413Y-93916732D01*
X150865914Y-93916269D01*
X150375620Y-94118854D01*
X150000173Y-94493647D01*
X149866686Y-94815118D01*
X149759800Y-94557071D01*
X149524188Y-94495417D01*
X148769605Y-95250000D01*
X149524188Y-96004583D01*
X149759800Y-95942929D01*
X149858083Y-95663688D01*
X149998854Y-96004380D01*
X150373647Y-96379827D01*
X150711446Y-96520094D01*
X150375620Y-96658854D01*
X150000173Y-97033647D01*
X149859906Y-97371446D01*
X149721146Y-97035620D01*
X149346353Y-96660173D01*
X149024882Y-96526686D01*
X149282929Y-96419800D01*
X149344583Y-96184188D01*
X148590000Y-95429605D01*
X147835417Y-96184188D01*
X147897071Y-96419800D01*
X148176312Y-96518083D01*
X147835620Y-96658854D01*
X147460173Y-97033647D01*
X147319906Y-97371446D01*
X147181146Y-97035620D01*
X146806353Y-96660173D01*
X146468554Y-96519906D01*
X146804380Y-96381146D01*
X147179827Y-96006353D01*
X147313314Y-95684882D01*
X147420200Y-95942929D01*
X147655812Y-96004583D01*
X148410395Y-95250000D01*
X147655812Y-94495417D01*
X147420200Y-94557071D01*
X147321917Y-94836312D01*
X147181146Y-94495620D01*
X147001652Y-94315812D01*
X147835417Y-94315812D01*
X148590000Y-95070395D01*
X149344583Y-94315812D01*
X149282929Y-94080200D01*
X148782520Y-93904073D01*
X148252801Y-93932852D01*
X147897071Y-94080200D01*
X147835417Y-94315812D01*
X147001652Y-94315812D01*
X146806353Y-94120173D01*
X146316413Y-93916732D01*
X145785914Y-93916269D01*
X145295620Y-94118854D01*
X144920173Y-94493647D01*
X144779906Y-94831446D01*
X144641146Y-94495620D01*
X144266353Y-94120173D01*
X143776413Y-93916732D01*
X143245914Y-93916269D01*
X143025000Y-94007549D01*
X143025000Y-93091000D01*
X142965245Y-92790594D01*
X142795079Y-92535921D01*
X142295000Y-92035842D01*
X142295000Y-91617440D01*
X142510000Y-91617440D01*
X142745317Y-91573162D01*
X142961441Y-91434090D01*
X143106431Y-91221890D01*
X143157440Y-90970000D01*
X143157440Y-90455750D01*
X143875000Y-90455750D01*
X143875000Y-91096310D01*
X143971673Y-91329699D01*
X144150302Y-91508327D01*
X144383691Y-91605000D01*
X145224250Y-91605000D01*
X145383000Y-91446250D01*
X145383000Y-90297000D01*
X145637000Y-90297000D01*
X145637000Y-91446250D01*
X145795750Y-91605000D01*
X146636309Y-91605000D01*
X146869698Y-91508327D01*
X147048327Y-91329699D01*
X147145000Y-91096310D01*
X147145000Y-90455750D01*
X146986250Y-90297000D01*
X145637000Y-90297000D01*
X145383000Y-90297000D01*
X144033750Y-90297000D01*
X143875000Y-90455750D01*
X143157440Y-90455750D01*
X143157440Y-89370000D01*
X143113162Y-89134683D01*
X143010409Y-88975000D01*
X144006974Y-88975000D01*
X143971673Y-89010301D01*
M02*
