%TF.GenerationSoftware,KiCad,Pcbnew,5.1.9+dfsg1-1+deb11u1*%
%TF.CreationDate,2022-11-30T10:20:37+01:00*%
%TF.ProjectId,A1200MPU-Adapter,41313230-304d-4505-952d-416461707465,2.0*%
%TF.SameCoordinates,Original*%
%TF.FileFunction,Legend,Top*%
%TF.FilePolarity,Positive*%
%FSLAX46Y46*%
G04 Gerber Fmt 4.6, Leading zero omitted, Abs format (unit mm)*
G04 Created by KiCad (PCBNEW 5.1.9+dfsg1-1+deb11u1) date 2022-11-30 10:20:37*
%MOMM*%
%LPD*%
G01*
G04 APERTURE LIST*
%ADD10C,0.200000*%
%ADD11C,0.300000*%
%ADD12C,0.120000*%
%ADD13C,0.150000*%
%ADD14C,0.100000*%
G04 APERTURE END LIST*
D10*
X147320000Y-113792000D02*
X146050000Y-115062000D01*
X148590000Y-115062000D02*
X147320000Y-113792000D01*
X146050000Y-115062000D02*
X148590000Y-115062000D01*
X135890000Y-115570000D02*
X135890000Y-92837000D01*
X154940000Y-115570000D02*
X135890000Y-115570000D01*
X158750000Y-111760000D02*
X154940000Y-115570000D01*
X158750000Y-92710000D02*
X158750000Y-111760000D01*
X135890000Y-92710000D02*
X158750000Y-92710000D01*
D11*
X135272428Y-118280571D02*
X135272428Y-116780571D01*
X135772428Y-117852000D01*
X136272428Y-116780571D01*
X136272428Y-118280571D01*
X136986714Y-118280571D02*
X136986714Y-116780571D01*
X137558142Y-116780571D01*
X137701000Y-116852000D01*
X137772428Y-116923428D01*
X137843857Y-117066285D01*
X137843857Y-117280571D01*
X137772428Y-117423428D01*
X137701000Y-117494857D01*
X137558142Y-117566285D01*
X136986714Y-117566285D01*
X138486714Y-116780571D02*
X138486714Y-117994857D01*
X138558142Y-118137714D01*
X138629571Y-118209142D01*
X138772428Y-118280571D01*
X139058142Y-118280571D01*
X139201000Y-118209142D01*
X139272428Y-118137714D01*
X139343857Y-117994857D01*
X139343857Y-116780571D01*
X141201000Y-118280571D02*
X141201000Y-116780571D01*
X142058142Y-118280571D02*
X141415285Y-117423428D01*
X142058142Y-116780571D02*
X141201000Y-117637714D01*
X142701000Y-117494857D02*
X143201000Y-117494857D01*
X143415285Y-118280571D02*
X142701000Y-118280571D01*
X142701000Y-116780571D01*
X143415285Y-116780571D01*
X144343857Y-117566285D02*
X144343857Y-118280571D01*
X143843857Y-116780571D02*
X144343857Y-117566285D01*
X144843857Y-116780571D01*
X145843857Y-117494857D02*
X146058142Y-117566285D01*
X146129571Y-117637714D01*
X146201000Y-117780571D01*
X146201000Y-117994857D01*
X146129571Y-118137714D01*
X146058142Y-118209142D01*
X145915285Y-118280571D01*
X145343857Y-118280571D01*
X145343857Y-116780571D01*
X145843857Y-116780571D01*
X145986714Y-116852000D01*
X146058142Y-116923428D01*
X146129571Y-117066285D01*
X146129571Y-117209142D01*
X146058142Y-117352000D01*
X145986714Y-117423428D01*
X145843857Y-117494857D01*
X145343857Y-117494857D01*
X147129571Y-116780571D02*
X147415285Y-116780571D01*
X147558142Y-116852000D01*
X147701000Y-116994857D01*
X147772428Y-117280571D01*
X147772428Y-117780571D01*
X147701000Y-118066285D01*
X147558142Y-118209142D01*
X147415285Y-118280571D01*
X147129571Y-118280571D01*
X146986714Y-118209142D01*
X146843857Y-118066285D01*
X146772428Y-117780571D01*
X146772428Y-117280571D01*
X146843857Y-116994857D01*
X146986714Y-116852000D01*
X147129571Y-116780571D01*
X148343857Y-117852000D02*
X149058142Y-117852000D01*
X148201000Y-118280571D02*
X148701000Y-116780571D01*
X149201000Y-118280571D01*
X150558142Y-118280571D02*
X150058142Y-117566285D01*
X149700999Y-118280571D02*
X149700999Y-116780571D01*
X150272428Y-116780571D01*
X150415285Y-116852000D01*
X150486714Y-116923428D01*
X150558142Y-117066285D01*
X150558142Y-117280571D01*
X150486714Y-117423428D01*
X150415285Y-117494857D01*
X150272428Y-117566285D01*
X149700999Y-117566285D01*
X151200999Y-118280571D02*
X151200999Y-116780571D01*
X151558142Y-116780571D01*
X151772428Y-116852000D01*
X151915285Y-116994857D01*
X151986714Y-117137714D01*
X152058142Y-117423428D01*
X152058142Y-117637714D01*
X151986714Y-117923428D01*
X151915285Y-118066285D01*
X151772428Y-118209142D01*
X151558142Y-118280571D01*
X151200999Y-118280571D01*
X153772428Y-117852000D02*
X154486714Y-117852000D01*
X153629571Y-118280571D02*
X154129571Y-116780571D01*
X154629571Y-118280571D01*
X155915285Y-118280571D02*
X155058142Y-118280571D01*
X155486714Y-118280571D02*
X155486714Y-116780571D01*
X155343857Y-116994857D01*
X155201000Y-117137714D01*
X155058142Y-117209142D01*
X156486714Y-116923428D02*
X156558142Y-116852000D01*
X156701000Y-116780571D01*
X157058142Y-116780571D01*
X157201000Y-116852000D01*
X157272428Y-116923428D01*
X157343857Y-117066285D01*
X157343857Y-117209142D01*
X157272428Y-117423428D01*
X156415285Y-118280571D01*
X157343857Y-118280571D01*
X158272428Y-116780571D02*
X158415285Y-116780571D01*
X158558142Y-116852000D01*
X158629571Y-116923428D01*
X158701000Y-117066285D01*
X158772428Y-117352000D01*
X158772428Y-117709142D01*
X158701000Y-117994857D01*
X158629571Y-118137714D01*
X158558142Y-118209142D01*
X158415285Y-118280571D01*
X158272428Y-118280571D01*
X158129571Y-118209142D01*
X158058142Y-118137714D01*
X157986714Y-117994857D01*
X157915285Y-117709142D01*
X157915285Y-117352000D01*
X157986714Y-117066285D01*
X158058142Y-116923428D01*
X158129571Y-116852000D01*
X158272428Y-116780571D01*
X159701000Y-116780571D02*
X159843857Y-116780571D01*
X159986714Y-116852000D01*
X160058142Y-116923428D01*
X160129571Y-117066285D01*
X160201000Y-117352000D01*
X160201000Y-117709142D01*
X160129571Y-117994857D01*
X160058142Y-118137714D01*
X159986714Y-118209142D01*
X159843857Y-118280571D01*
X159701000Y-118280571D01*
X159558142Y-118209142D01*
X159486714Y-118137714D01*
X159415285Y-117994857D01*
X159343857Y-117709142D01*
X159343857Y-117352000D01*
X159415285Y-117066285D01*
X159486714Y-116923428D01*
X159558142Y-116852000D01*
X159701000Y-116780571D01*
D12*
%TO.C,C1*%
X159847000Y-102540000D02*
X159847000Y-106625000D01*
X159847000Y-106625000D02*
X161717000Y-106625000D01*
X161717000Y-106625000D02*
X161717000Y-102540000D01*
%TO.C,C2*%
X156265000Y-91105000D02*
X160350000Y-91105000D01*
X156265000Y-89235000D02*
X156265000Y-91105000D01*
X160350000Y-89235000D02*
X156265000Y-89235000D01*
%TO.C,C3*%
X142798748Y-89260000D02*
X144221252Y-89260000D01*
X142798748Y-91080000D02*
X144221252Y-91080000D01*
%TO.C,C4*%
X150418748Y-91080000D02*
X151841252Y-91080000D01*
X150418748Y-89260000D02*
X151841252Y-89260000D01*
%TO.C,D1*%
X132596000Y-102540000D02*
X132596000Y-106600000D01*
X132596000Y-106600000D02*
X134866000Y-106600000D01*
X134866000Y-106600000D02*
X134866000Y-102540000D01*
%TO.C,P1*%
X142760000Y-96644000D02*
X151880000Y-96644000D01*
X151880000Y-96644000D02*
X151880000Y-112144000D01*
X151880000Y-112144000D02*
X142760000Y-112144000D01*
X142760000Y-112144000D02*
X142760000Y-96644000D01*
X142760000Y-102344000D02*
X144070000Y-102344000D01*
X144070000Y-102344000D02*
X144070000Y-97944000D01*
X144070000Y-97944000D02*
X150570000Y-97944000D01*
X150570000Y-97944000D02*
X150570000Y-110844000D01*
X150570000Y-110844000D02*
X144070000Y-110844000D01*
X144070000Y-110844000D02*
X144070000Y-106444000D01*
X144070000Y-106444000D02*
X144070000Y-106444000D01*
X144070000Y-106444000D02*
X142760000Y-106444000D01*
X142370000Y-101854000D02*
X141370000Y-101354000D01*
X141370000Y-101354000D02*
X141370000Y-102354000D01*
X141370000Y-102354000D02*
X142370000Y-101854000D01*
%TO.C,R1*%
X135162936Y-89260000D02*
X136617064Y-89260000D01*
X135162936Y-91080000D02*
X136617064Y-91080000D01*
%TO.C,C1*%
D13*
X161139142Y-100369666D02*
X161186761Y-100417285D01*
X161234380Y-100560142D01*
X161234380Y-100655380D01*
X161186761Y-100798238D01*
X161091523Y-100893476D01*
X160996285Y-100941095D01*
X160805809Y-100988714D01*
X160662952Y-100988714D01*
X160472476Y-100941095D01*
X160377238Y-100893476D01*
X160282000Y-100798238D01*
X160234380Y-100655380D01*
X160234380Y-100560142D01*
X160282000Y-100417285D01*
X160329619Y-100369666D01*
X161234380Y-99417285D02*
X161234380Y-99988714D01*
X161234380Y-99703000D02*
X160234380Y-99703000D01*
X160377238Y-99798238D01*
X160472476Y-99893476D01*
X160520095Y-99988714D01*
%TO.C,C2*%
D14*
X158666666Y-92178571D02*
X158642857Y-92202380D01*
X158571428Y-92226190D01*
X158523809Y-92226190D01*
X158452380Y-92202380D01*
X158404761Y-92154761D01*
X158380952Y-92107142D01*
X158357142Y-92011904D01*
X158357142Y-91940476D01*
X158380952Y-91845238D01*
X158404761Y-91797619D01*
X158452380Y-91750000D01*
X158523809Y-91726190D01*
X158571428Y-91726190D01*
X158642857Y-91750000D01*
X158666666Y-91773809D01*
X158857142Y-91773809D02*
X158880952Y-91750000D01*
X158928571Y-91726190D01*
X159047619Y-91726190D01*
X159095238Y-91750000D01*
X159119047Y-91773809D01*
X159142857Y-91821428D01*
X159142857Y-91869047D01*
X159119047Y-91940476D01*
X158833333Y-92226190D01*
X159142857Y-92226190D01*
%TO.C,C3*%
X143426666Y-92178571D02*
X143402857Y-92202380D01*
X143331428Y-92226190D01*
X143283809Y-92226190D01*
X143212380Y-92202380D01*
X143164761Y-92154761D01*
X143140952Y-92107142D01*
X143117142Y-92011904D01*
X143117142Y-91940476D01*
X143140952Y-91845238D01*
X143164761Y-91797619D01*
X143212380Y-91750000D01*
X143283809Y-91726190D01*
X143331428Y-91726190D01*
X143402857Y-91750000D01*
X143426666Y-91773809D01*
X143593333Y-91726190D02*
X143902857Y-91726190D01*
X143736190Y-91916666D01*
X143807619Y-91916666D01*
X143855238Y-91940476D01*
X143879047Y-91964285D01*
X143902857Y-92011904D01*
X143902857Y-92130952D01*
X143879047Y-92178571D01*
X143855238Y-92202380D01*
X143807619Y-92226190D01*
X143664761Y-92226190D01*
X143617142Y-92202380D01*
X143593333Y-92178571D01*
%TO.C,C4*%
X151046666Y-92178571D02*
X151022857Y-92202380D01*
X150951428Y-92226190D01*
X150903809Y-92226190D01*
X150832380Y-92202380D01*
X150784761Y-92154761D01*
X150760952Y-92107142D01*
X150737142Y-92011904D01*
X150737142Y-91940476D01*
X150760952Y-91845238D01*
X150784761Y-91797619D01*
X150832380Y-91750000D01*
X150903809Y-91726190D01*
X150951428Y-91726190D01*
X151022857Y-91750000D01*
X151046666Y-91773809D01*
X151475238Y-91892857D02*
X151475238Y-92226190D01*
X151356190Y-91702380D02*
X151237142Y-92059523D01*
X151546666Y-92059523D01*
%TO.C,D1*%
D13*
X134437380Y-101195095D02*
X133437380Y-101195095D01*
X133437380Y-100957000D01*
X133485000Y-100814142D01*
X133580238Y-100718904D01*
X133675476Y-100671285D01*
X133865952Y-100623666D01*
X134008809Y-100623666D01*
X134199285Y-100671285D01*
X134294523Y-100718904D01*
X134389761Y-100814142D01*
X134437380Y-100957000D01*
X134437380Y-101195095D01*
X134437380Y-99671285D02*
X134437380Y-100242714D01*
X134437380Y-99957000D02*
X133437380Y-99957000D01*
X133580238Y-100052238D01*
X133675476Y-100147476D01*
X133723095Y-100242714D01*
%TO.C,P1*%
X138261904Y-94452380D02*
X138261904Y-93452380D01*
X138642857Y-93452380D01*
X138738095Y-93500000D01*
X138785714Y-93547619D01*
X138833333Y-93642857D01*
X138833333Y-93785714D01*
X138785714Y-93880952D01*
X138738095Y-93928571D01*
X138642857Y-93976190D01*
X138261904Y-93976190D01*
X139785714Y-94452380D02*
X139214285Y-94452380D01*
X139500000Y-94452380D02*
X139500000Y-93452380D01*
X139404761Y-93595238D01*
X139309523Y-93690476D01*
X139214285Y-93738095D01*
%TO.C,R1*%
D14*
X135806666Y-92226190D02*
X135640000Y-91988095D01*
X135520952Y-92226190D02*
X135520952Y-91726190D01*
X135711428Y-91726190D01*
X135759047Y-91750000D01*
X135782857Y-91773809D01*
X135806666Y-91821428D01*
X135806666Y-91892857D01*
X135782857Y-91940476D01*
X135759047Y-91964285D01*
X135711428Y-91988095D01*
X135520952Y-91988095D01*
X136282857Y-92226190D02*
X135997142Y-92226190D01*
X136140000Y-92226190D02*
X136140000Y-91726190D01*
X136092380Y-91797619D01*
X136044761Y-91845238D01*
X135997142Y-91869047D01*
%TD*%
M02*
