%TF.GenerationSoftware,KiCad,Pcbnew,5.1.9+dfsg1-1+deb11u1*%
%TF.CreationDate,2026-02-19T10:33:16+01:00*%
%TF.ProjectId,A1200MPU-Adapter,41313230-304d-4505-952d-416461707465,2.0*%
%TF.SameCoordinates,Original*%
%TF.FileFunction,Legend,Top*%
%TF.FilePolarity,Positive*%
%FSLAX46Y46*%
G04 Gerber Fmt 4.6, Leading zero omitted, Abs format (unit mm)*
G04 Created by KiCad (PCBNEW 5.1.9+dfsg1-1+deb11u1) date 2026-02-19 10:33:16*
%MOMM*%
%LPD*%
G01*
G04 APERTURE LIST*
%ADD10C,0.200000*%
%ADD11C,0.300000*%
%ADD12C,0.120000*%
%ADD13C,0.150000*%
G04 APERTURE END LIST*
D10*
X147320000Y-113792000D02*
X146050000Y-115062000D01*
X148590000Y-115062000D02*
X147320000Y-113792000D01*
X146050000Y-115062000D02*
X148590000Y-115062000D01*
X135890000Y-115570000D02*
X135890000Y-92837000D01*
X154940000Y-115570000D02*
X135890000Y-115570000D01*
X158750000Y-111760000D02*
X154940000Y-115570000D01*
X158750000Y-92710000D02*
X158750000Y-111760000D01*
X135890000Y-92710000D02*
X158750000Y-92710000D01*
D11*
X135272428Y-118280571D02*
X135272428Y-116780571D01*
X135772428Y-117852000D01*
X136272428Y-116780571D01*
X136272428Y-118280571D01*
X136986714Y-118280571D02*
X136986714Y-116780571D01*
X137558142Y-116780571D01*
X137701000Y-116852000D01*
X137772428Y-116923428D01*
X137843857Y-117066285D01*
X137843857Y-117280571D01*
X137772428Y-117423428D01*
X137701000Y-117494857D01*
X137558142Y-117566285D01*
X136986714Y-117566285D01*
X138486714Y-116780571D02*
X138486714Y-117994857D01*
X138558142Y-118137714D01*
X138629571Y-118209142D01*
X138772428Y-118280571D01*
X139058142Y-118280571D01*
X139201000Y-118209142D01*
X139272428Y-118137714D01*
X139343857Y-117994857D01*
X139343857Y-116780571D01*
X141201000Y-118280571D02*
X141201000Y-116780571D01*
X142058142Y-118280571D02*
X141415285Y-117423428D01*
X142058142Y-116780571D02*
X141201000Y-117637714D01*
X142701000Y-117494857D02*
X143201000Y-117494857D01*
X143415285Y-118280571D02*
X142701000Y-118280571D01*
X142701000Y-116780571D01*
X143415285Y-116780571D01*
X144343857Y-117566285D02*
X144343857Y-118280571D01*
X143843857Y-116780571D02*
X144343857Y-117566285D01*
X144843857Y-116780571D01*
X145843857Y-117494857D02*
X146058142Y-117566285D01*
X146129571Y-117637714D01*
X146201000Y-117780571D01*
X146201000Y-117994857D01*
X146129571Y-118137714D01*
X146058142Y-118209142D01*
X145915285Y-118280571D01*
X145343857Y-118280571D01*
X145343857Y-116780571D01*
X145843857Y-116780571D01*
X145986714Y-116852000D01*
X146058142Y-116923428D01*
X146129571Y-117066285D01*
X146129571Y-117209142D01*
X146058142Y-117352000D01*
X145986714Y-117423428D01*
X145843857Y-117494857D01*
X145343857Y-117494857D01*
X147129571Y-116780571D02*
X147415285Y-116780571D01*
X147558142Y-116852000D01*
X147701000Y-116994857D01*
X147772428Y-117280571D01*
X147772428Y-117780571D01*
X147701000Y-118066285D01*
X147558142Y-118209142D01*
X147415285Y-118280571D01*
X147129571Y-118280571D01*
X146986714Y-118209142D01*
X146843857Y-118066285D01*
X146772428Y-117780571D01*
X146772428Y-117280571D01*
X146843857Y-116994857D01*
X146986714Y-116852000D01*
X147129571Y-116780571D01*
X148343857Y-117852000D02*
X149058142Y-117852000D01*
X148201000Y-118280571D02*
X148701000Y-116780571D01*
X149201000Y-118280571D01*
X150558142Y-118280571D02*
X150058142Y-117566285D01*
X149700999Y-118280571D02*
X149700999Y-116780571D01*
X150272428Y-116780571D01*
X150415285Y-116852000D01*
X150486714Y-116923428D01*
X150558142Y-117066285D01*
X150558142Y-117280571D01*
X150486714Y-117423428D01*
X150415285Y-117494857D01*
X150272428Y-117566285D01*
X149700999Y-117566285D01*
X151200999Y-118280571D02*
X151200999Y-116780571D01*
X151558142Y-116780571D01*
X151772428Y-116852000D01*
X151915285Y-116994857D01*
X151986714Y-117137714D01*
X152058142Y-117423428D01*
X152058142Y-117637714D01*
X151986714Y-117923428D01*
X151915285Y-118066285D01*
X151772428Y-118209142D01*
X151558142Y-118280571D01*
X151200999Y-118280571D01*
X153772428Y-117852000D02*
X154486714Y-117852000D01*
X153629571Y-118280571D02*
X154129571Y-116780571D01*
X154629571Y-118280571D01*
X155915285Y-118280571D02*
X155058142Y-118280571D01*
X155486714Y-118280571D02*
X155486714Y-116780571D01*
X155343857Y-116994857D01*
X155201000Y-117137714D01*
X155058142Y-117209142D01*
X156486714Y-116923428D02*
X156558142Y-116852000D01*
X156701000Y-116780571D01*
X157058142Y-116780571D01*
X157201000Y-116852000D01*
X157272428Y-116923428D01*
X157343857Y-117066285D01*
X157343857Y-117209142D01*
X157272428Y-117423428D01*
X156415285Y-118280571D01*
X157343857Y-118280571D01*
X158272428Y-116780571D02*
X158415285Y-116780571D01*
X158558142Y-116852000D01*
X158629571Y-116923428D01*
X158701000Y-117066285D01*
X158772428Y-117352000D01*
X158772428Y-117709142D01*
X158701000Y-117994857D01*
X158629571Y-118137714D01*
X158558142Y-118209142D01*
X158415285Y-118280571D01*
X158272428Y-118280571D01*
X158129571Y-118209142D01*
X158058142Y-118137714D01*
X157986714Y-117994857D01*
X157915285Y-117709142D01*
X157915285Y-117352000D01*
X157986714Y-117066285D01*
X158058142Y-116923428D01*
X158129571Y-116852000D01*
X158272428Y-116780571D01*
X159701000Y-116780571D02*
X159843857Y-116780571D01*
X159986714Y-116852000D01*
X160058142Y-116923428D01*
X160129571Y-117066285D01*
X160201000Y-117352000D01*
X160201000Y-117709142D01*
X160129571Y-117994857D01*
X160058142Y-118137714D01*
X159986714Y-118209142D01*
X159843857Y-118280571D01*
X159701000Y-118280571D01*
X159558142Y-118209142D01*
X159486714Y-118137714D01*
X159415285Y-117994857D01*
X159343857Y-117709142D01*
X159343857Y-117352000D01*
X159415285Y-117066285D01*
X159486714Y-116923428D01*
X159558142Y-116852000D01*
X159701000Y-116780571D01*
D12*
%TO.C,C1*%
X161717000Y-106625000D02*
X161717000Y-102540000D01*
X159847000Y-106625000D02*
X161717000Y-106625000D01*
X159847000Y-102540000D02*
X159847000Y-106625000D01*
%TO.C,C3*%
X142798748Y-91080000D02*
X144221252Y-91080000D01*
X142798748Y-89260000D02*
X144221252Y-89260000D01*
%TO.C,D1*%
X134866000Y-106600000D02*
X134866000Y-102540000D01*
X132596000Y-106600000D02*
X134866000Y-106600000D01*
X132596000Y-102540000D02*
X132596000Y-106600000D01*
%TO.C,P1*%
X141370000Y-102354000D02*
X142370000Y-101854000D01*
X141370000Y-101354000D02*
X141370000Y-102354000D01*
X142370000Y-101854000D02*
X141370000Y-101354000D01*
X144070000Y-106444000D02*
X142760000Y-106444000D01*
X144070000Y-106444000D02*
X144070000Y-106444000D01*
X144070000Y-110844000D02*
X144070000Y-106444000D01*
X150570000Y-110844000D02*
X144070000Y-110844000D01*
X150570000Y-97944000D02*
X150570000Y-110844000D01*
X144070000Y-97944000D02*
X150570000Y-97944000D01*
X144070000Y-102344000D02*
X144070000Y-97944000D01*
X142760000Y-102344000D02*
X144070000Y-102344000D01*
X142760000Y-112144000D02*
X142760000Y-96644000D01*
X151880000Y-112144000D02*
X142760000Y-112144000D01*
X151880000Y-96644000D02*
X151880000Y-112144000D01*
X142760000Y-96644000D02*
X151880000Y-96644000D01*
%TO.C,R1*%
X135162936Y-91080000D02*
X136617064Y-91080000D01*
X135162936Y-89260000D02*
X136617064Y-89260000D01*
%TO.C,C1*%
D13*
X160615333Y-100560142D02*
X160567714Y-100607761D01*
X160424857Y-100655380D01*
X160329619Y-100655380D01*
X160186761Y-100607761D01*
X160091523Y-100512523D01*
X160043904Y-100417285D01*
X159996285Y-100226809D01*
X159996285Y-100083952D01*
X160043904Y-99893476D01*
X160091523Y-99798238D01*
X160186761Y-99703000D01*
X160329619Y-99655380D01*
X160424857Y-99655380D01*
X160567714Y-99703000D01*
X160615333Y-99750619D01*
X161567714Y-100655380D02*
X160996285Y-100655380D01*
X161282000Y-100655380D02*
X161282000Y-99655380D01*
X161186761Y-99798238D01*
X161091523Y-99893476D01*
X160996285Y-99941095D01*
%TO.C,C3*%
X146833333Y-90457142D02*
X146785714Y-90504761D01*
X146642857Y-90552380D01*
X146547619Y-90552380D01*
X146404761Y-90504761D01*
X146309523Y-90409523D01*
X146261904Y-90314285D01*
X146214285Y-90123809D01*
X146214285Y-89980952D01*
X146261904Y-89790476D01*
X146309523Y-89695238D01*
X146404761Y-89600000D01*
X146547619Y-89552380D01*
X146642857Y-89552380D01*
X146785714Y-89600000D01*
X146833333Y-89647619D01*
X147166666Y-89552380D02*
X147785714Y-89552380D01*
X147452380Y-89933333D01*
X147595238Y-89933333D01*
X147690476Y-89980952D01*
X147738095Y-90028571D01*
X147785714Y-90123809D01*
X147785714Y-90361904D01*
X147738095Y-90457142D01*
X147690476Y-90504761D01*
X147595238Y-90552380D01*
X147309523Y-90552380D01*
X147214285Y-90504761D01*
X147166666Y-90457142D01*
%TO.C,D1*%
X133246904Y-100909380D02*
X133246904Y-99909380D01*
X133485000Y-99909380D01*
X133627857Y-99957000D01*
X133723095Y-100052238D01*
X133770714Y-100147476D01*
X133818333Y-100337952D01*
X133818333Y-100480809D01*
X133770714Y-100671285D01*
X133723095Y-100766523D01*
X133627857Y-100861761D01*
X133485000Y-100909380D01*
X133246904Y-100909380D01*
X134770714Y-100909380D02*
X134199285Y-100909380D01*
X134485000Y-100909380D02*
X134485000Y-99909380D01*
X134389761Y-100052238D01*
X134294523Y-100147476D01*
X134199285Y-100195095D01*
%TO.C,P1*%
X136661904Y-94252380D02*
X136661904Y-93252380D01*
X137042857Y-93252380D01*
X137138095Y-93300000D01*
X137185714Y-93347619D01*
X137233333Y-93442857D01*
X137233333Y-93585714D01*
X137185714Y-93680952D01*
X137138095Y-93728571D01*
X137042857Y-93776190D01*
X136661904Y-93776190D01*
X138185714Y-94252380D02*
X137614285Y-94252380D01*
X137900000Y-94252380D02*
X137900000Y-93252380D01*
X137804761Y-93395238D01*
X137709523Y-93490476D01*
X137614285Y-93538095D01*
%TO.C,R1*%
X139233333Y-90652380D02*
X138900000Y-90176190D01*
X138661904Y-90652380D02*
X138661904Y-89652380D01*
X139042857Y-89652380D01*
X139138095Y-89700000D01*
X139185714Y-89747619D01*
X139233333Y-89842857D01*
X139233333Y-89985714D01*
X139185714Y-90080952D01*
X139138095Y-90128571D01*
X139042857Y-90176190D01*
X138661904Y-90176190D01*
X140185714Y-90652380D02*
X139614285Y-90652380D01*
X139900000Y-90652380D02*
X139900000Y-89652380D01*
X139804761Y-89795238D01*
X139709523Y-89890476D01*
X139614285Y-89938095D01*
%TD*%
M02*
