%TF.GenerationSoftware,KiCad,Pcbnew,5.1.9+dfsg1-1+deb11u1*%
%TF.CreationDate,2022-11-10T09:50:42+01:00*%
%TF.ProjectId,A1200MPU-Adapter,41313230-304d-4505-952d-416461707465,2.0*%
%TF.SameCoordinates,Original*%
%TF.FileFunction,Legend,Bot*%
%TF.FilePolarity,Positive*%
%FSLAX46Y46*%
G04 Gerber Fmt 4.6, Leading zero omitted, Abs format (unit mm)*
G04 Created by KiCad (PCBNEW 5.1.9+dfsg1-1+deb11u1) date 2022-11-10 09:50:42*
%MOMM*%
%LPD*%
G01*
G04 APERTURE LIST*
%ADD10C,0.120000*%
%ADD11C,0.300000*%
%ADD12C,0.150000*%
G04 APERTURE END LIST*
D10*
X161516190Y-89027857D02*
X161182857Y-89027857D01*
X161016190Y-89027857D02*
X161040000Y-88989761D01*
X161063809Y-89027857D01*
X161040000Y-89065952D01*
X161016190Y-89027857D01*
X161063809Y-89027857D01*
X161182857Y-89408809D02*
X161516190Y-89408809D01*
X161230476Y-89408809D02*
X161206666Y-89446904D01*
X161182857Y-89523095D01*
X161182857Y-89637380D01*
X161206666Y-89713571D01*
X161254285Y-89751666D01*
X161516190Y-89751666D01*
X161516190Y-90742142D02*
X161182857Y-90742142D01*
X161230476Y-90742142D02*
X161206666Y-90780238D01*
X161182857Y-90856428D01*
X161182857Y-90970714D01*
X161206666Y-91046904D01*
X161254285Y-91085000D01*
X161516190Y-91085000D01*
X161254285Y-91085000D02*
X161206666Y-91123095D01*
X161182857Y-91199285D01*
X161182857Y-91313571D01*
X161206666Y-91389761D01*
X161254285Y-91427857D01*
X161516190Y-91427857D01*
X161492380Y-92113571D02*
X161516190Y-92037380D01*
X161516190Y-91885000D01*
X161492380Y-91808809D01*
X161444761Y-91770714D01*
X161254285Y-91770714D01*
X161206666Y-91808809D01*
X161182857Y-91885000D01*
X161182857Y-92037380D01*
X161206666Y-92113571D01*
X161254285Y-92151666D01*
X161301904Y-92151666D01*
X161349523Y-91770714D01*
X161516190Y-92494523D02*
X161182857Y-92494523D01*
X161230476Y-92494523D02*
X161206666Y-92532619D01*
X161182857Y-92608809D01*
X161182857Y-92723095D01*
X161206666Y-92799285D01*
X161254285Y-92837380D01*
X161516190Y-92837380D01*
X161254285Y-92837380D02*
X161206666Y-92875476D01*
X161182857Y-92951666D01*
X161182857Y-93065952D01*
X161206666Y-93142142D01*
X161254285Y-93180238D01*
X161516190Y-93180238D01*
X161516190Y-93675476D02*
X161492380Y-93599285D01*
X161468571Y-93561190D01*
X161420952Y-93523095D01*
X161278095Y-93523095D01*
X161230476Y-93561190D01*
X161206666Y-93599285D01*
X161182857Y-93675476D01*
X161182857Y-93789761D01*
X161206666Y-93865952D01*
X161230476Y-93904047D01*
X161278095Y-93942142D01*
X161420952Y-93942142D01*
X161468571Y-93904047D01*
X161492380Y-93865952D01*
X161516190Y-93789761D01*
X161516190Y-93675476D01*
X161516190Y-94285000D02*
X161182857Y-94285000D01*
X161278095Y-94285000D02*
X161230476Y-94323095D01*
X161206666Y-94361190D01*
X161182857Y-94437380D01*
X161182857Y-94513571D01*
X161516190Y-94780238D02*
X161182857Y-94780238D01*
X161016190Y-94780238D02*
X161040000Y-94742142D01*
X161063809Y-94780238D01*
X161040000Y-94818333D01*
X161016190Y-94780238D01*
X161063809Y-94780238D01*
X161516190Y-95504047D02*
X161254285Y-95504047D01*
X161206666Y-95465952D01*
X161182857Y-95389761D01*
X161182857Y-95237380D01*
X161206666Y-95161190D01*
X161492380Y-95504047D02*
X161516190Y-95427857D01*
X161516190Y-95237380D01*
X161492380Y-95161190D01*
X161444761Y-95123095D01*
X161397142Y-95123095D01*
X161349523Y-95161190D01*
X161325714Y-95237380D01*
X161325714Y-95427857D01*
X161301904Y-95504047D01*
X161516190Y-95885000D02*
X161182857Y-95885000D01*
X161230476Y-95885000D02*
X161206666Y-95923095D01*
X161182857Y-95999285D01*
X161182857Y-96113571D01*
X161206666Y-96189761D01*
X161254285Y-96227857D01*
X161516190Y-96227857D01*
X161254285Y-96227857D02*
X161206666Y-96265952D01*
X161182857Y-96342142D01*
X161182857Y-96456428D01*
X161206666Y-96532619D01*
X161254285Y-96570714D01*
X161516190Y-96570714D01*
X161373333Y-97523095D02*
X161373333Y-97904047D01*
X161516190Y-97446904D02*
X161016190Y-97713571D01*
X161516190Y-97980238D01*
X161468571Y-98246904D02*
X161492380Y-98285000D01*
X161516190Y-98246904D01*
X161492380Y-98208809D01*
X161468571Y-98246904D01*
X161516190Y-98246904D01*
X161492380Y-98589761D02*
X161516190Y-98704047D01*
X161516190Y-98894523D01*
X161492380Y-98970714D01*
X161468571Y-99008809D01*
X161420952Y-99046904D01*
X161373333Y-99046904D01*
X161325714Y-99008809D01*
X161301904Y-98970714D01*
X161278095Y-98894523D01*
X161254285Y-98742142D01*
X161230476Y-98665952D01*
X161206666Y-98627857D01*
X161159047Y-98589761D01*
X161111428Y-98589761D01*
X161063809Y-98627857D01*
X161040000Y-98665952D01*
X161016190Y-98742142D01*
X161016190Y-98932619D01*
X161040000Y-99046904D01*
X161468571Y-99389761D02*
X161492380Y-99427857D01*
X161516190Y-99389761D01*
X161492380Y-99351666D01*
X161468571Y-99389761D01*
X161516190Y-99389761D01*
X161325714Y-99770714D02*
X161325714Y-100380238D01*
X161040000Y-101180238D02*
X161016190Y-101104047D01*
X161016190Y-100989761D01*
X161040000Y-100875476D01*
X161087619Y-100799285D01*
X161135238Y-100761190D01*
X161230476Y-100723095D01*
X161301904Y-100723095D01*
X161397142Y-100761190D01*
X161444761Y-100799285D01*
X161492380Y-100875476D01*
X161516190Y-100989761D01*
X161516190Y-101065952D01*
X161492380Y-101180238D01*
X161468571Y-101218333D01*
X161301904Y-101218333D01*
X161301904Y-101065952D01*
X161468571Y-101561190D02*
X161492380Y-101599285D01*
X161516190Y-101561190D01*
X161492380Y-101523095D01*
X161468571Y-101561190D01*
X161516190Y-101561190D01*
X161516190Y-101942142D02*
X161016190Y-101942142D01*
X161016190Y-102132619D01*
X161040000Y-102246904D01*
X161087619Y-102323095D01*
X161135238Y-102361190D01*
X161230476Y-102399285D01*
X161301904Y-102399285D01*
X161397142Y-102361190D01*
X161444761Y-102323095D01*
X161492380Y-102246904D01*
X161516190Y-102132619D01*
X161516190Y-101942142D01*
X161468571Y-102742142D02*
X161492380Y-102780238D01*
X161516190Y-102742142D01*
X161492380Y-102704047D01*
X161468571Y-102742142D01*
X161516190Y-102742142D01*
X133576190Y-101816904D02*
X133076190Y-101816904D01*
X133552380Y-101816904D02*
X133576190Y-101740714D01*
X133576190Y-101588333D01*
X133552380Y-101512142D01*
X133528571Y-101474047D01*
X133480952Y-101435952D01*
X133338095Y-101435952D01*
X133290476Y-101474047D01*
X133266666Y-101512142D01*
X133242857Y-101588333D01*
X133242857Y-101740714D01*
X133266666Y-101816904D01*
X133552380Y-102502619D02*
X133576190Y-102426428D01*
X133576190Y-102274047D01*
X133552380Y-102197857D01*
X133504761Y-102159761D01*
X133314285Y-102159761D01*
X133266666Y-102197857D01*
X133242857Y-102274047D01*
X133242857Y-102426428D01*
X133266666Y-102502619D01*
X133314285Y-102540714D01*
X133361904Y-102540714D01*
X133409523Y-102159761D01*
X133552380Y-102845476D02*
X133576190Y-102921666D01*
X133576190Y-103074047D01*
X133552380Y-103150238D01*
X133504761Y-103188333D01*
X133480952Y-103188333D01*
X133433333Y-103150238D01*
X133409523Y-103074047D01*
X133409523Y-102959761D01*
X133385714Y-102883571D01*
X133338095Y-102845476D01*
X133314285Y-102845476D01*
X133266666Y-102883571D01*
X133242857Y-102959761D01*
X133242857Y-103074047D01*
X133266666Y-103150238D01*
X133576190Y-103531190D02*
X133242857Y-103531190D01*
X133076190Y-103531190D02*
X133100000Y-103493095D01*
X133123809Y-103531190D01*
X133100000Y-103569285D01*
X133076190Y-103531190D01*
X133123809Y-103531190D01*
X133242857Y-104255000D02*
X133647619Y-104255000D01*
X133695238Y-104216904D01*
X133719047Y-104178809D01*
X133742857Y-104102619D01*
X133742857Y-103988333D01*
X133719047Y-103912142D01*
X133552380Y-104255000D02*
X133576190Y-104178809D01*
X133576190Y-104026428D01*
X133552380Y-103950238D01*
X133528571Y-103912142D01*
X133480952Y-103874047D01*
X133338095Y-103874047D01*
X133290476Y-103912142D01*
X133266666Y-103950238D01*
X133242857Y-104026428D01*
X133242857Y-104178809D01*
X133266666Y-104255000D01*
X133242857Y-104635952D02*
X133576190Y-104635952D01*
X133290476Y-104635952D02*
X133266666Y-104674047D01*
X133242857Y-104750238D01*
X133242857Y-104864523D01*
X133266666Y-104940714D01*
X133314285Y-104978809D01*
X133576190Y-104978809D01*
X133552380Y-105664523D02*
X133576190Y-105588333D01*
X133576190Y-105435952D01*
X133552380Y-105359761D01*
X133504761Y-105321666D01*
X133314285Y-105321666D01*
X133266666Y-105359761D01*
X133242857Y-105435952D01*
X133242857Y-105588333D01*
X133266666Y-105664523D01*
X133314285Y-105702619D01*
X133361904Y-105702619D01*
X133409523Y-105321666D01*
X133576190Y-106388333D02*
X133076190Y-106388333D01*
X133552380Y-106388333D02*
X133576190Y-106312142D01*
X133576190Y-106159761D01*
X133552380Y-106083571D01*
X133528571Y-106045476D01*
X133480952Y-106007380D01*
X133338095Y-106007380D01*
X133290476Y-106045476D01*
X133266666Y-106083571D01*
X133242857Y-106159761D01*
X133242857Y-106312142D01*
X133266666Y-106388333D01*
X133576190Y-107378809D02*
X133076190Y-107378809D01*
X133266666Y-107378809D02*
X133242857Y-107455000D01*
X133242857Y-107607380D01*
X133266666Y-107683571D01*
X133290476Y-107721666D01*
X133338095Y-107759761D01*
X133480952Y-107759761D01*
X133528571Y-107721666D01*
X133552380Y-107683571D01*
X133576190Y-107607380D01*
X133576190Y-107455000D01*
X133552380Y-107378809D01*
X133242857Y-108026428D02*
X133576190Y-108216904D01*
X133242857Y-108407380D02*
X133576190Y-108216904D01*
X133695238Y-108140714D01*
X133719047Y-108102619D01*
X133742857Y-108026428D01*
X133576190Y-109778809D02*
X133338095Y-109512142D01*
X133576190Y-109321666D02*
X133076190Y-109321666D01*
X133076190Y-109626428D01*
X133100000Y-109702619D01*
X133123809Y-109740714D01*
X133171428Y-109778809D01*
X133242857Y-109778809D01*
X133290476Y-109740714D01*
X133314285Y-109702619D01*
X133338095Y-109626428D01*
X133338095Y-109321666D01*
X133528571Y-110121666D02*
X133552380Y-110159761D01*
X133576190Y-110121666D01*
X133552380Y-110083571D01*
X133528571Y-110121666D01*
X133576190Y-110121666D01*
X133100000Y-110921666D02*
X133076190Y-110845476D01*
X133076190Y-110731190D01*
X133100000Y-110616904D01*
X133147619Y-110540714D01*
X133195238Y-110502619D01*
X133290476Y-110464523D01*
X133361904Y-110464523D01*
X133457142Y-110502619D01*
X133504761Y-110540714D01*
X133552380Y-110616904D01*
X133576190Y-110731190D01*
X133576190Y-110807380D01*
X133552380Y-110921666D01*
X133528571Y-110959761D01*
X133361904Y-110959761D01*
X133361904Y-110807380D01*
X133528571Y-111302619D02*
X133552380Y-111340714D01*
X133576190Y-111302619D01*
X133552380Y-111264523D01*
X133528571Y-111302619D01*
X133576190Y-111302619D01*
X133123809Y-111645476D02*
X133100000Y-111683571D01*
X133076190Y-111759761D01*
X133076190Y-111950238D01*
X133100000Y-112026428D01*
X133123809Y-112064523D01*
X133171428Y-112102619D01*
X133219047Y-112102619D01*
X133290476Y-112064523D01*
X133576190Y-111607380D01*
X133576190Y-112102619D01*
X133076190Y-112597857D02*
X133076190Y-112674047D01*
X133100000Y-112750238D01*
X133123809Y-112788333D01*
X133171428Y-112826428D01*
X133266666Y-112864523D01*
X133385714Y-112864523D01*
X133480952Y-112826428D01*
X133528571Y-112788333D01*
X133552380Y-112750238D01*
X133576190Y-112674047D01*
X133576190Y-112597857D01*
X133552380Y-112521666D01*
X133528571Y-112483571D01*
X133480952Y-112445476D01*
X133385714Y-112407380D01*
X133266666Y-112407380D01*
X133171428Y-112445476D01*
X133123809Y-112483571D01*
X133100000Y-112521666D01*
X133076190Y-112597857D01*
X133576190Y-113626428D02*
X133576190Y-113169285D01*
X133576190Y-113397857D02*
X133076190Y-113397857D01*
X133147619Y-113321666D01*
X133195238Y-113245476D01*
X133219047Y-113169285D01*
X133290476Y-114083571D02*
X133266666Y-114007380D01*
X133242857Y-113969285D01*
X133195238Y-113931190D01*
X133171428Y-113931190D01*
X133123809Y-113969285D01*
X133100000Y-114007380D01*
X133076190Y-114083571D01*
X133076190Y-114235952D01*
X133100000Y-114312142D01*
X133123809Y-114350238D01*
X133171428Y-114388333D01*
X133195238Y-114388333D01*
X133242857Y-114350238D01*
X133266666Y-114312142D01*
X133290476Y-114235952D01*
X133290476Y-114083571D01*
X133314285Y-114007380D01*
X133338095Y-113969285D01*
X133385714Y-113931190D01*
X133480952Y-113931190D01*
X133528571Y-113969285D01*
X133552380Y-114007380D01*
X133576190Y-114083571D01*
X133576190Y-114235952D01*
X133552380Y-114312142D01*
X133528571Y-114350238D01*
X133480952Y-114388333D01*
X133385714Y-114388333D01*
X133338095Y-114350238D01*
X133314285Y-114312142D01*
X133290476Y-114235952D01*
X133052380Y-115302619D02*
X133695238Y-114616904D01*
X133123809Y-115531190D02*
X133100000Y-115569285D01*
X133076190Y-115645476D01*
X133076190Y-115835952D01*
X133100000Y-115912142D01*
X133123809Y-115950238D01*
X133171428Y-115988333D01*
X133219047Y-115988333D01*
X133290476Y-115950238D01*
X133576190Y-115493095D01*
X133576190Y-115988333D01*
X133076190Y-116483571D02*
X133076190Y-116559761D01*
X133100000Y-116635952D01*
X133123809Y-116674047D01*
X133171428Y-116712142D01*
X133266666Y-116750238D01*
X133385714Y-116750238D01*
X133480952Y-116712142D01*
X133528571Y-116674047D01*
X133552380Y-116635952D01*
X133576190Y-116559761D01*
X133576190Y-116483571D01*
X133552380Y-116407380D01*
X133528571Y-116369285D01*
X133480952Y-116331190D01*
X133385714Y-116293095D01*
X133266666Y-116293095D01*
X133171428Y-116331190D01*
X133123809Y-116369285D01*
X133100000Y-116407380D01*
X133076190Y-116483571D01*
X133123809Y-117055000D02*
X133100000Y-117093095D01*
X133076190Y-117169285D01*
X133076190Y-117359761D01*
X133100000Y-117435952D01*
X133123809Y-117474047D01*
X133171428Y-117512142D01*
X133219047Y-117512142D01*
X133290476Y-117474047D01*
X133576190Y-117016904D01*
X133576190Y-117512142D01*
X133123809Y-117816904D02*
X133100000Y-117855000D01*
X133076190Y-117931190D01*
X133076190Y-118121666D01*
X133100000Y-118197857D01*
X133123809Y-118235952D01*
X133171428Y-118274047D01*
X133219047Y-118274047D01*
X133290476Y-118235952D01*
X133576190Y-117778809D01*
X133576190Y-118274047D01*
D11*
X151506428Y-118534571D02*
X152006428Y-117820285D01*
X152363571Y-118534571D02*
X152363571Y-117034571D01*
X151792142Y-117034571D01*
X151649285Y-117106000D01*
X151577857Y-117177428D01*
X151506428Y-117320285D01*
X151506428Y-117534571D01*
X151577857Y-117677428D01*
X151649285Y-117748857D01*
X151792142Y-117820285D01*
X152363571Y-117820285D01*
X150363571Y-117748857D02*
X150149285Y-117820285D01*
X150077857Y-117891714D01*
X150006428Y-118034571D01*
X150006428Y-118248857D01*
X150077857Y-118391714D01*
X150149285Y-118463142D01*
X150292142Y-118534571D01*
X150863571Y-118534571D01*
X150863571Y-117034571D01*
X150363571Y-117034571D01*
X150220714Y-117106000D01*
X150149285Y-117177428D01*
X150077857Y-117320285D01*
X150077857Y-117463142D01*
X150149285Y-117606000D01*
X150220714Y-117677428D01*
X150363571Y-117748857D01*
X150863571Y-117748857D01*
X148649285Y-118534571D02*
X149363571Y-118534571D01*
X149363571Y-117034571D01*
X147863571Y-117034571D02*
X147720714Y-117034571D01*
X147577857Y-117106000D01*
X147506428Y-117177428D01*
X147435000Y-117320285D01*
X147363571Y-117606000D01*
X147363571Y-117963142D01*
X147435000Y-118248857D01*
X147506428Y-118391714D01*
X147577857Y-118463142D01*
X147720714Y-118534571D01*
X147863571Y-118534571D01*
X148006428Y-118463142D01*
X148077857Y-118391714D01*
X148149285Y-118248857D01*
X148220714Y-117963142D01*
X148220714Y-117606000D01*
X148149285Y-117320285D01*
X148077857Y-117177428D01*
X148006428Y-117106000D01*
X147863571Y-117034571D01*
X146435000Y-117034571D02*
X146292142Y-117034571D01*
X146149285Y-117106000D01*
X146077857Y-117177428D01*
X146006428Y-117320285D01*
X145935000Y-117606000D01*
X145935000Y-117963142D01*
X146006428Y-118248857D01*
X146077857Y-118391714D01*
X146149285Y-118463142D01*
X146292142Y-118534571D01*
X146435000Y-118534571D01*
X146577857Y-118463142D01*
X146649285Y-118391714D01*
X146720714Y-118248857D01*
X146792142Y-117963142D01*
X146792142Y-117606000D01*
X146720714Y-117320285D01*
X146649285Y-117177428D01*
X146577857Y-117106000D01*
X146435000Y-117034571D01*
X144577857Y-117034571D02*
X145292142Y-117034571D01*
X145363571Y-117748857D01*
X145292142Y-117677428D01*
X145149285Y-117606000D01*
X144792142Y-117606000D01*
X144649285Y-117677428D01*
X144577857Y-117748857D01*
X144506428Y-117891714D01*
X144506428Y-118248857D01*
X144577857Y-118391714D01*
X144649285Y-118463142D01*
X144792142Y-118534571D01*
X145149285Y-118534571D01*
X145292142Y-118463142D01*
X145363571Y-118391714D01*
X143863571Y-118391714D02*
X143792142Y-118463142D01*
X143863571Y-118534571D01*
X143935000Y-118463142D01*
X143863571Y-118391714D01*
X143863571Y-118534571D01*
X142863571Y-117034571D02*
X142720714Y-117034571D01*
X142577857Y-117106000D01*
X142506428Y-117177428D01*
X142435000Y-117320285D01*
X142363571Y-117606000D01*
X142363571Y-117963142D01*
X142435000Y-118248857D01*
X142506428Y-118391714D01*
X142577857Y-118463142D01*
X142720714Y-118534571D01*
X142863571Y-118534571D01*
X143006428Y-118463142D01*
X143077857Y-118391714D01*
X143149285Y-118248857D01*
X143220714Y-117963142D01*
X143220714Y-117606000D01*
X143149285Y-117320285D01*
X143077857Y-117177428D01*
X143006428Y-117106000D01*
X142863571Y-117034571D01*
X140935000Y-118534571D02*
X141792142Y-118534571D01*
X141363571Y-118534571D02*
X141363571Y-117034571D01*
X141506428Y-117248857D01*
X141649285Y-117391714D01*
X141792142Y-117463142D01*
D10*
%TO.C,U1*%
X159170000Y-92544000D02*
X159170000Y-103394000D01*
X135470000Y-92544000D02*
X159170000Y-92544000D01*
X135470000Y-116244000D02*
X135470000Y-92544000D01*
X158170000Y-116244000D02*
X135470000Y-116244000D01*
X159170000Y-115244000D02*
X158170000Y-116244000D01*
X159170000Y-105394000D02*
X159170000Y-115244000D01*
D12*
X159522380Y-103632095D02*
X160331904Y-103632095D01*
X160427142Y-103679714D01*
X160474761Y-103727333D01*
X160522380Y-103822571D01*
X160522380Y-104013047D01*
X160474761Y-104108285D01*
X160427142Y-104155904D01*
X160331904Y-104203523D01*
X159522380Y-104203523D01*
X160522380Y-105203523D02*
X160522380Y-104632095D01*
X160522380Y-104917809D02*
X159522380Y-104917809D01*
X159665238Y-104822571D01*
X159760476Y-104727333D01*
X159808095Y-104632095D01*
%TD*%
M02*
