%TF.GenerationSoftware,KiCad,Pcbnew,4.0.2+dfsg1-stable*%
%TF.CreationDate,2019-03-01T15:19:43+01:00*%
%TF.ProjectId,A1200MPU-Adapter,41313230304D50552D41646170746572,rev?*%
%TF.FileFunction,Legend,Top*%
%FSLAX46Y46*%
G04 Gerber Fmt 4.6, Leading zero omitted, Abs format (unit mm)*
G04 Created by KiCad (PCBNEW 4.0.2+dfsg1-stable) date Fri 01 Mar 2019 15:19:43 CET*
%MOMM*%
G01*
G04 APERTURE LIST*
%ADD10C,0.100000*%
%ADD11C,0.200000*%
%ADD12C,0.300000*%
%ADD13C,0.150000*%
%ADD14C,0.120000*%
G04 APERTURE END LIST*
D10*
D11*
X147320000Y-113792000D02*
X146050000Y-115062000D01*
X148590000Y-115062000D02*
X147320000Y-113792000D01*
X146050000Y-115062000D02*
X148590000Y-115062000D01*
X135890000Y-115570000D02*
X135890000Y-92837000D01*
X154940000Y-115570000D02*
X135890000Y-115570000D01*
X158750000Y-111760000D02*
X154940000Y-115570000D01*
X158750000Y-92710000D02*
X158750000Y-111760000D01*
X135890000Y-92710000D02*
X158750000Y-92710000D01*
D12*
X135272430Y-118280571D02*
X135272430Y-116780571D01*
X135772430Y-117852000D01*
X136272430Y-116780571D01*
X136272430Y-118280571D01*
X136986716Y-118280571D02*
X136986716Y-116780571D01*
X137558144Y-116780571D01*
X137701002Y-116852000D01*
X137772430Y-116923429D01*
X137843859Y-117066286D01*
X137843859Y-117280571D01*
X137772430Y-117423429D01*
X137701002Y-117494857D01*
X137558144Y-117566286D01*
X136986716Y-117566286D01*
X138486716Y-116780571D02*
X138486716Y-117994857D01*
X138558144Y-118137714D01*
X138629573Y-118209143D01*
X138772430Y-118280571D01*
X139058144Y-118280571D01*
X139201002Y-118209143D01*
X139272430Y-118137714D01*
X139343859Y-117994857D01*
X139343859Y-116780571D01*
X141201002Y-118280571D02*
X141201002Y-116780571D01*
X142058145Y-118280571D02*
X141415288Y-117423429D01*
X142058145Y-116780571D02*
X141201002Y-117637714D01*
X142701002Y-117494857D02*
X143201002Y-117494857D01*
X143415288Y-118280571D02*
X142701002Y-118280571D01*
X142701002Y-116780571D01*
X143415288Y-116780571D01*
X144343859Y-117566286D02*
X144343859Y-118280571D01*
X143843859Y-116780571D02*
X144343859Y-117566286D01*
X144843859Y-116780571D01*
X145843859Y-117494857D02*
X146058145Y-117566286D01*
X146129573Y-117637714D01*
X146201002Y-117780571D01*
X146201002Y-117994857D01*
X146129573Y-118137714D01*
X146058145Y-118209143D01*
X145915287Y-118280571D01*
X145343859Y-118280571D01*
X145343859Y-116780571D01*
X145843859Y-116780571D01*
X145986716Y-116852000D01*
X146058145Y-116923429D01*
X146129573Y-117066286D01*
X146129573Y-117209143D01*
X146058145Y-117352000D01*
X145986716Y-117423429D01*
X145843859Y-117494857D01*
X145343859Y-117494857D01*
X147129573Y-116780571D02*
X147415287Y-116780571D01*
X147558145Y-116852000D01*
X147701002Y-116994857D01*
X147772430Y-117280571D01*
X147772430Y-117780571D01*
X147701002Y-118066286D01*
X147558145Y-118209143D01*
X147415287Y-118280571D01*
X147129573Y-118280571D01*
X146986716Y-118209143D01*
X146843859Y-118066286D01*
X146772430Y-117780571D01*
X146772430Y-117280571D01*
X146843859Y-116994857D01*
X146986716Y-116852000D01*
X147129573Y-116780571D01*
X148343859Y-117852000D02*
X149058145Y-117852000D01*
X148201002Y-118280571D02*
X148701002Y-116780571D01*
X149201002Y-118280571D01*
X150558145Y-118280571D02*
X150058145Y-117566286D01*
X149701002Y-118280571D02*
X149701002Y-116780571D01*
X150272430Y-116780571D01*
X150415288Y-116852000D01*
X150486716Y-116923429D01*
X150558145Y-117066286D01*
X150558145Y-117280571D01*
X150486716Y-117423429D01*
X150415288Y-117494857D01*
X150272430Y-117566286D01*
X149701002Y-117566286D01*
X151201002Y-118280571D02*
X151201002Y-116780571D01*
X151558145Y-116780571D01*
X151772430Y-116852000D01*
X151915288Y-116994857D01*
X151986716Y-117137714D01*
X152058145Y-117423429D01*
X152058145Y-117637714D01*
X151986716Y-117923429D01*
X151915288Y-118066286D01*
X151772430Y-118209143D01*
X151558145Y-118280571D01*
X151201002Y-118280571D01*
X153772430Y-117852000D02*
X154486716Y-117852000D01*
X153629573Y-118280571D02*
X154129573Y-116780571D01*
X154629573Y-118280571D01*
X155915287Y-118280571D02*
X155058144Y-118280571D01*
X155486716Y-118280571D02*
X155486716Y-116780571D01*
X155343859Y-116994857D01*
X155201001Y-117137714D01*
X155058144Y-117209143D01*
X156486715Y-116923429D02*
X156558144Y-116852000D01*
X156701001Y-116780571D01*
X157058144Y-116780571D01*
X157201001Y-116852000D01*
X157272430Y-116923429D01*
X157343858Y-117066286D01*
X157343858Y-117209143D01*
X157272430Y-117423429D01*
X156415287Y-118280571D01*
X157343858Y-118280571D01*
X158272429Y-116780571D02*
X158415286Y-116780571D01*
X158558143Y-116852000D01*
X158629572Y-116923429D01*
X158701001Y-117066286D01*
X158772429Y-117352000D01*
X158772429Y-117709143D01*
X158701001Y-117994857D01*
X158629572Y-118137714D01*
X158558143Y-118209143D01*
X158415286Y-118280571D01*
X158272429Y-118280571D01*
X158129572Y-118209143D01*
X158058143Y-118137714D01*
X157986715Y-117994857D01*
X157915286Y-117709143D01*
X157915286Y-117352000D01*
X157986715Y-117066286D01*
X158058143Y-116923429D01*
X158129572Y-116852000D01*
X158272429Y-116780571D01*
X159701000Y-116780571D02*
X159843857Y-116780571D01*
X159986714Y-116852000D01*
X160058143Y-116923429D01*
X160129572Y-117066286D01*
X160201000Y-117352000D01*
X160201000Y-117709143D01*
X160129572Y-117994857D01*
X160058143Y-118137714D01*
X159986714Y-118209143D01*
X159843857Y-118280571D01*
X159701000Y-118280571D01*
X159558143Y-118209143D01*
X159486714Y-118137714D01*
X159415286Y-117994857D01*
X159343857Y-117709143D01*
X159343857Y-117352000D01*
X159415286Y-117066286D01*
X159486714Y-116923429D01*
X159558143Y-116852000D01*
X159701000Y-116780571D01*
D13*
X136890000Y-91245000D02*
X134890000Y-91245000D01*
X134890000Y-89095000D02*
X136890000Y-89095000D01*
X132969000Y-106807000D02*
X132969000Y-107061000D01*
X132969000Y-107061000D02*
X135255000Y-107061000D01*
X135255000Y-107061000D02*
X135255000Y-106807000D01*
X132969000Y-106807000D02*
X135255000Y-106807000D01*
X135255000Y-106807000D02*
X135255000Y-105156000D01*
X132969000Y-103378000D02*
X132969000Y-101727000D01*
X132969000Y-101727000D02*
X135255000Y-101727000D01*
X135255000Y-101727000D02*
X135255000Y-103378000D01*
X132969000Y-105156000D02*
X132969000Y-106807000D01*
X152130000Y-89145000D02*
X150130000Y-89145000D01*
X150130000Y-91195000D02*
X152130000Y-91195000D01*
X144510000Y-89145000D02*
X142510000Y-89145000D01*
X142510000Y-91195000D02*
X144510000Y-91195000D01*
X156210000Y-89027000D02*
X155956000Y-89027000D01*
X155956000Y-89027000D02*
X155956000Y-91313000D01*
X155956000Y-91313000D02*
X156210000Y-91313000D01*
X156210000Y-89027000D02*
X156210000Y-91313000D01*
X156210000Y-91313000D02*
X157861000Y-91313000D01*
X159639000Y-89027000D02*
X161290000Y-89027000D01*
X161290000Y-89027000D02*
X161290000Y-91313000D01*
X161290000Y-91313000D02*
X159639000Y-91313000D01*
X157861000Y-89027000D02*
X156210000Y-89027000D01*
X159639000Y-106680000D02*
X159639000Y-106934000D01*
X159639000Y-106934000D02*
X161925000Y-106934000D01*
X161925000Y-106934000D02*
X161925000Y-106680000D01*
X159639000Y-106680000D02*
X161925000Y-106680000D01*
X161925000Y-106680000D02*
X161925000Y-105029000D01*
X159639000Y-103251000D02*
X159639000Y-101600000D01*
X159639000Y-101600000D02*
X161925000Y-101600000D01*
X161925000Y-101600000D02*
X161925000Y-103251000D01*
X159639000Y-105029000D02*
X159639000Y-106680000D01*
D14*
X151995000Y-96250000D02*
X151995000Y-112030000D01*
X151995000Y-112030000D02*
X142645000Y-112030000D01*
X142645000Y-112030000D02*
X142645000Y-96250000D01*
X142645000Y-96250000D02*
X151995000Y-96250000D01*
X142395000Y-96000000D02*
X142395000Y-98540000D01*
X142395000Y-96000000D02*
X144935000Y-96000000D01*
D10*
X135806667Y-92174190D02*
X135640000Y-91936095D01*
X135520953Y-92174190D02*
X135520953Y-91674190D01*
X135711429Y-91674190D01*
X135759048Y-91698000D01*
X135782857Y-91721810D01*
X135806667Y-91769429D01*
X135806667Y-91840857D01*
X135782857Y-91888476D01*
X135759048Y-91912286D01*
X135711429Y-91936095D01*
X135520953Y-91936095D01*
X136282857Y-92174190D02*
X135997143Y-92174190D01*
X136140000Y-92174190D02*
X136140000Y-91674190D01*
X136092381Y-91745619D01*
X136044762Y-91793238D01*
X135997143Y-91817048D01*
D13*
X134564381Y-99925095D02*
X133564381Y-99925095D01*
X133564381Y-99687000D01*
X133612000Y-99544142D01*
X133707238Y-99448904D01*
X133802476Y-99401285D01*
X133992952Y-99353666D01*
X134135810Y-99353666D01*
X134326286Y-99401285D01*
X134421524Y-99448904D01*
X134516762Y-99544142D01*
X134564381Y-99687000D01*
X134564381Y-99925095D01*
X134564381Y-98401285D02*
X134564381Y-98972714D01*
X134564381Y-98687000D02*
X133564381Y-98687000D01*
X133707238Y-98782238D01*
X133802476Y-98877476D01*
X133850095Y-98972714D01*
D10*
X151046667Y-92126571D02*
X151022857Y-92150381D01*
X150951429Y-92174190D01*
X150903810Y-92174190D01*
X150832381Y-92150381D01*
X150784762Y-92102762D01*
X150760953Y-92055143D01*
X150737143Y-91959905D01*
X150737143Y-91888476D01*
X150760953Y-91793238D01*
X150784762Y-91745619D01*
X150832381Y-91698000D01*
X150903810Y-91674190D01*
X150951429Y-91674190D01*
X151022857Y-91698000D01*
X151046667Y-91721810D01*
X151475238Y-91840857D02*
X151475238Y-92174190D01*
X151356191Y-91650381D02*
X151237143Y-92007524D01*
X151546667Y-92007524D01*
X143553667Y-92126571D02*
X143529857Y-92150381D01*
X143458429Y-92174190D01*
X143410810Y-92174190D01*
X143339381Y-92150381D01*
X143291762Y-92102762D01*
X143267953Y-92055143D01*
X143244143Y-91959905D01*
X143244143Y-91888476D01*
X143267953Y-91793238D01*
X143291762Y-91745619D01*
X143339381Y-91698000D01*
X143410810Y-91674190D01*
X143458429Y-91674190D01*
X143529857Y-91698000D01*
X143553667Y-91721810D01*
X143720334Y-91674190D02*
X144029857Y-91674190D01*
X143863191Y-91864667D01*
X143934619Y-91864667D01*
X143982238Y-91888476D01*
X144006048Y-91912286D01*
X144029857Y-91959905D01*
X144029857Y-92078952D01*
X144006048Y-92126571D01*
X143982238Y-92150381D01*
X143934619Y-92174190D01*
X143791762Y-92174190D01*
X143744143Y-92150381D01*
X143720334Y-92126571D01*
X158793667Y-92126571D02*
X158769857Y-92150381D01*
X158698429Y-92174190D01*
X158650810Y-92174190D01*
X158579381Y-92150381D01*
X158531762Y-92102762D01*
X158507953Y-92055143D01*
X158484143Y-91959905D01*
X158484143Y-91888476D01*
X158507953Y-91793238D01*
X158531762Y-91745619D01*
X158579381Y-91698000D01*
X158650810Y-91674190D01*
X158698429Y-91674190D01*
X158769857Y-91698000D01*
X158793667Y-91721810D01*
X158984143Y-91721810D02*
X159007953Y-91698000D01*
X159055572Y-91674190D01*
X159174619Y-91674190D01*
X159222238Y-91698000D01*
X159246048Y-91721810D01*
X159269857Y-91769429D01*
X159269857Y-91817048D01*
X159246048Y-91888476D01*
X158960334Y-92174190D01*
X159269857Y-92174190D01*
D13*
X161139143Y-99226666D02*
X161186762Y-99274285D01*
X161234381Y-99417142D01*
X161234381Y-99512380D01*
X161186762Y-99655238D01*
X161091524Y-99750476D01*
X160996286Y-99798095D01*
X160805810Y-99845714D01*
X160662952Y-99845714D01*
X160472476Y-99798095D01*
X160377238Y-99750476D01*
X160282000Y-99655238D01*
X160234381Y-99512380D01*
X160234381Y-99417142D01*
X160282000Y-99274285D01*
X160329619Y-99226666D01*
X161234381Y-98274285D02*
X161234381Y-98845714D01*
X161234381Y-98560000D02*
X160234381Y-98560000D01*
X160377238Y-98655238D01*
X160472476Y-98750476D01*
X160520095Y-98845714D01*
X146581905Y-95448381D02*
X146581905Y-94448381D01*
X146962858Y-94448381D01*
X147058096Y-94496000D01*
X147105715Y-94543619D01*
X147153334Y-94638857D01*
X147153334Y-94781714D01*
X147105715Y-94876952D01*
X147058096Y-94924571D01*
X146962858Y-94972190D01*
X146581905Y-94972190D01*
X148105715Y-95448381D02*
X147534286Y-95448381D01*
X147820000Y-95448381D02*
X147820000Y-94448381D01*
X147724762Y-94591238D01*
X147629524Y-94686476D01*
X147534286Y-94734095D01*
M02*
