M48
; DRILL file {KiCad 5.1.9+dfsg1-1+deb11u1} date Thu Nov 10 09:50:45 2022
; FORMAT={-:-/ absolute / metric / decimal}
; #@! TF.CreationDate,2022-11-10T09:50:45+01:00
; #@! TF.GenerationSoftware,Kicad,Pcbnew,5.1.9+dfsg1-1+deb11u1
; #@! TF.FileFunction,Plated,1,2,PTH
FMAT,2
METRIC
T1C0.800
T2C1.000
%
G90
G05
T1
X138.43Y-98.044
X138.43Y-100.584
X138.43Y-103.124
X138.43Y-105.664
X138.43Y-108.204
X138.43Y-110.744
X140.97Y-95.504
X140.97Y-98.044
X140.97Y-100.584
X140.97Y-103.124
X140.97Y-105.664
X140.97Y-108.204
X140.97Y-110.744
X140.97Y-113.284
X143.51Y-95.504
X143.51Y-98.044
X143.51Y-110.744
X143.51Y-113.284
X146.05Y-95.504
X146.05Y-98.044
X146.05Y-110.744
X146.05Y-113.284
X148.59Y-95.504
X148.59Y-98.044
X148.59Y-110.744
X148.59Y-113.284
X151.13Y-95.504
X151.13Y-98.044
X151.13Y-110.744
X151.13Y-113.284
X153.67Y-95.504
X153.67Y-98.044
X153.67Y-100.584
X153.67Y-103.124
X153.67Y-105.664
X153.67Y-108.204
X153.67Y-110.744
X153.67Y-113.284
X156.21Y-98.044
X156.21Y-100.584
X156.21Y-103.124
X156.21Y-105.664
X156.21Y-108.204
X156.21Y-110.744
T2
X146.05Y-101.854
X146.05Y-104.394
X146.05Y-106.934
X148.59Y-101.854
X148.59Y-104.394
X148.59Y-106.934
T0
M30
