%TF.GenerationSoftware,KiCad,Pcbnew,5.1.9+dfsg1-1+deb11u1*%
%TF.CreationDate,2022-11-10T09:50:42+01:00*%
%TF.ProjectId,A1200MPU-Adapter,41313230-304d-4505-952d-416461707465,2.0*%
%TF.SameCoordinates,Original*%
%TF.FileFunction,Copper,L2,Bot*%
%TF.FilePolarity,Positive*%
%FSLAX46Y46*%
G04 Gerber Fmt 4.6, Leading zero omitted, Abs format (unit mm)*
G04 Created by KiCad (PCBNEW 5.1.9+dfsg1-1+deb11u1) date 2022-11-10 09:50:42*
%MOMM*%
%LPD*%
G01*
G04 APERTURE LIST*
%TA.AperFunction,ComponentPad*%
%ADD10C,1.700000*%
%TD*%
%TA.AperFunction,ComponentPad*%
%ADD11R,1.422400X1.422400*%
%TD*%
%TA.AperFunction,ComponentPad*%
%ADD12C,1.422400*%
%TD*%
%TA.AperFunction,Conductor*%
%ADD13C,0.300000*%
%TD*%
%TA.AperFunction,Conductor*%
%ADD14C,0.254000*%
%TD*%
%TA.AperFunction,Conductor*%
%ADD15C,0.100000*%
%TD*%
G04 APERTURE END LIST*
%TO.P,P1,1*%
%TO.N,mKBD_CLOCK*%
%TA.AperFunction,ComponentPad*%
G36*
G01*
X145200000Y-102454000D02*
X145200000Y-101254000D01*
G75*
G02*
X145450000Y-101004000I250000J0D01*
G01*
X146650000Y-101004000D01*
G75*
G02*
X146900000Y-101254000I0J-250000D01*
G01*
X146900000Y-102454000D01*
G75*
G02*
X146650000Y-102704000I-250000J0D01*
G01*
X145450000Y-102704000D01*
G75*
G02*
X145200000Y-102454000I0J250000D01*
G01*
G37*
%TD.AperFunction*%
D10*
%TO.P,P1,3*%
%TO.N,GND*%
X146050000Y-104394000D03*
%TO.P,P1,5*%
%TO.N,mKBD_RESET*%
X146050000Y-106934000D03*
%TO.P,P1,2*%
%TO.N,mKBD_DATA*%
X148590000Y-101854000D03*
%TO.P,P1,4*%
%TO.N,GND*%
X148590000Y-104394000D03*
%TO.P,P1,6*%
%TO.N,VCC5V*%
X148590000Y-106934000D03*
%TD*%
D11*
%TO.P,U1,1*%
%TO.N,N/C*%
X153670000Y-103124000D03*
D12*
%TO.P,U1,3*%
X153670000Y-105664000D03*
%TO.P,U1,5*%
X153670000Y-108204000D03*
%TO.P,U1,43*%
%TO.N,mKBD_CLOCK*%
X153670000Y-100584000D03*
%TO.P,U1,41*%
%TO.N,N/C*%
X153670000Y-98044000D03*
%TO.P,U1,2*%
X156210000Y-105664000D03*
%TO.P,U1,4*%
X156210000Y-108204000D03*
%TO.P,U1,6*%
X156210000Y-110744000D03*
%TO.P,U1,44*%
%TO.N,mKBD_DATA*%
X156210000Y-103124000D03*
%TO.P,U1,42*%
%TO.N,N/C*%
X156210000Y-100584000D03*
%TO.P,U1,8*%
X153670000Y-110744000D03*
%TO.P,U1,10*%
X151130000Y-110744000D03*
%TO.P,U1,12*%
X148590000Y-110744000D03*
%TO.P,U1,14*%
X146050000Y-110744000D03*
%TO.P,U1,16*%
X143510000Y-110744000D03*
%TO.P,U1,7*%
X153670000Y-113284000D03*
%TO.P,U1,9*%
X151130000Y-113284000D03*
%TO.P,U1,11*%
%TO.N,VCC5V*%
X148590000Y-113284000D03*
%TO.P,U1,13*%
X146050000Y-113284000D03*
%TO.P,U1,15*%
%TO.N,N/C*%
X143510000Y-113284000D03*
%TO.P,U1,17*%
X140970000Y-113284000D03*
%TO.P,U1,19*%
%TO.N,mKBD_RESET*%
X140970000Y-110744000D03*
%TO.P,U1,21*%
%TO.N,N/C*%
X140970000Y-108204000D03*
%TO.P,U1,23*%
X140970000Y-105664000D03*
%TO.P,U1,25*%
X140970000Y-103124000D03*
%TO.P,U1,27*%
X140970000Y-100584000D03*
%TO.P,U1,29*%
X140970000Y-95504000D03*
%TO.P,U1,18*%
X138430000Y-110744000D03*
%TO.P,U1,20*%
X138430000Y-108204000D03*
%TO.P,U1,22*%
X138430000Y-105664000D03*
%TO.P,U1,24*%
X138430000Y-103124000D03*
%TO.P,U1,26*%
X138430000Y-100584000D03*
%TO.P,U1,28*%
X138430000Y-98044000D03*
%TO.P,U1,30*%
X140970000Y-98044000D03*
%TO.P,U1,32*%
X143510000Y-98044000D03*
%TO.P,U1,34*%
X146050000Y-98044000D03*
%TO.P,U1,36*%
X148590000Y-98044000D03*
%TO.P,U1,38*%
X151130000Y-98044000D03*
%TO.P,U1,40*%
X156210000Y-98044000D03*
%TO.P,U1,31*%
X143510000Y-95504000D03*
%TO.P,U1,33*%
X146050000Y-95504000D03*
%TO.P,U1,35*%
%TO.N,GND*%
X148590000Y-95504000D03*
%TO.P,U1,37*%
%TO.N,N/C*%
X151130000Y-95504000D03*
%TO.P,U1,39*%
X153670000Y-95504000D03*
%TD*%
D13*
%TO.N,GND*%
X148590000Y-104394000D02*
X150014000Y-102970000D01*
X150014000Y-102970000D02*
X150014000Y-99104000D01*
X150014000Y-99104000D02*
X149880000Y-98970000D01*
X149880000Y-98970000D02*
X149880000Y-96794000D01*
X149880000Y-96794000D02*
X148590000Y-95504000D01*
%TO.N,mKBD_RESET*%
X140970000Y-110744000D02*
X144780000Y-106934000D01*
X144780000Y-106934000D02*
X146050000Y-106934000D01*
%TD*%
D14*
%TO.N,GND*%
X161850001Y-118670000D02*
X132790000Y-118670000D01*
X132790000Y-97911411D01*
X137083800Y-97911411D01*
X137083800Y-98176589D01*
X137135533Y-98436672D01*
X137237013Y-98681665D01*
X137384338Y-98902153D01*
X137571847Y-99089662D01*
X137792335Y-99236987D01*
X137978260Y-99314000D01*
X137792335Y-99391013D01*
X137571847Y-99538338D01*
X137384338Y-99725847D01*
X137237013Y-99946335D01*
X137135533Y-100191328D01*
X137083800Y-100451411D01*
X137083800Y-100716589D01*
X137135533Y-100976672D01*
X137237013Y-101221665D01*
X137384338Y-101442153D01*
X137571847Y-101629662D01*
X137792335Y-101776987D01*
X137978260Y-101854000D01*
X137792335Y-101931013D01*
X137571847Y-102078338D01*
X137384338Y-102265847D01*
X137237013Y-102486335D01*
X137135533Y-102731328D01*
X137083800Y-102991411D01*
X137083800Y-103256589D01*
X137135533Y-103516672D01*
X137237013Y-103761665D01*
X137384338Y-103982153D01*
X137571847Y-104169662D01*
X137792335Y-104316987D01*
X137978260Y-104394000D01*
X137792335Y-104471013D01*
X137571847Y-104618338D01*
X137384338Y-104805847D01*
X137237013Y-105026335D01*
X137135533Y-105271328D01*
X137083800Y-105531411D01*
X137083800Y-105796589D01*
X137135533Y-106056672D01*
X137237013Y-106301665D01*
X137384338Y-106522153D01*
X137571847Y-106709662D01*
X137792335Y-106856987D01*
X137978260Y-106934000D01*
X137792335Y-107011013D01*
X137571847Y-107158338D01*
X137384338Y-107345847D01*
X137237013Y-107566335D01*
X137135533Y-107811328D01*
X137083800Y-108071411D01*
X137083800Y-108336589D01*
X137135533Y-108596672D01*
X137237013Y-108841665D01*
X137384338Y-109062153D01*
X137571847Y-109249662D01*
X137792335Y-109396987D01*
X137978260Y-109474000D01*
X137792335Y-109551013D01*
X137571847Y-109698338D01*
X137384338Y-109885847D01*
X137237013Y-110106335D01*
X137135533Y-110351328D01*
X137083800Y-110611411D01*
X137083800Y-110876589D01*
X137135533Y-111136672D01*
X137237013Y-111381665D01*
X137384338Y-111602153D01*
X137571847Y-111789662D01*
X137792335Y-111936987D01*
X138037328Y-112038467D01*
X138297411Y-112090200D01*
X138562589Y-112090200D01*
X138822672Y-112038467D01*
X139067665Y-111936987D01*
X139288153Y-111789662D01*
X139475662Y-111602153D01*
X139622987Y-111381665D01*
X139700000Y-111195740D01*
X139777013Y-111381665D01*
X139924338Y-111602153D01*
X140111847Y-111789662D01*
X140332335Y-111936987D01*
X140518260Y-112014000D01*
X140332335Y-112091013D01*
X140111847Y-112238338D01*
X139924338Y-112425847D01*
X139777013Y-112646335D01*
X139675533Y-112891328D01*
X139623800Y-113151411D01*
X139623800Y-113416589D01*
X139675533Y-113676672D01*
X139777013Y-113921665D01*
X139924338Y-114142153D01*
X140111847Y-114329662D01*
X140332335Y-114476987D01*
X140577328Y-114578467D01*
X140837411Y-114630200D01*
X141102589Y-114630200D01*
X141362672Y-114578467D01*
X141607665Y-114476987D01*
X141828153Y-114329662D01*
X142015662Y-114142153D01*
X142162987Y-113921665D01*
X142240000Y-113735740D01*
X142317013Y-113921665D01*
X142464338Y-114142153D01*
X142651847Y-114329662D01*
X142872335Y-114476987D01*
X143117328Y-114578467D01*
X143377411Y-114630200D01*
X143642589Y-114630200D01*
X143902672Y-114578467D01*
X144147665Y-114476987D01*
X144368153Y-114329662D01*
X144555662Y-114142153D01*
X144702987Y-113921665D01*
X144780000Y-113735740D01*
X144857013Y-113921665D01*
X145004338Y-114142153D01*
X145191847Y-114329662D01*
X145412335Y-114476987D01*
X145657328Y-114578467D01*
X145917411Y-114630200D01*
X146182589Y-114630200D01*
X146442672Y-114578467D01*
X146687665Y-114476987D01*
X146908153Y-114329662D01*
X147095662Y-114142153D01*
X147242987Y-113921665D01*
X147320000Y-113735740D01*
X147397013Y-113921665D01*
X147544338Y-114142153D01*
X147731847Y-114329662D01*
X147952335Y-114476987D01*
X148197328Y-114578467D01*
X148457411Y-114630200D01*
X148722589Y-114630200D01*
X148982672Y-114578467D01*
X149227665Y-114476987D01*
X149448153Y-114329662D01*
X149635662Y-114142153D01*
X149782987Y-113921665D01*
X149860000Y-113735740D01*
X149937013Y-113921665D01*
X150084338Y-114142153D01*
X150271847Y-114329662D01*
X150492335Y-114476987D01*
X150737328Y-114578467D01*
X150997411Y-114630200D01*
X151262589Y-114630200D01*
X151522672Y-114578467D01*
X151767665Y-114476987D01*
X151988153Y-114329662D01*
X152175662Y-114142153D01*
X152322987Y-113921665D01*
X152400000Y-113735740D01*
X152477013Y-113921665D01*
X152624338Y-114142153D01*
X152811847Y-114329662D01*
X153032335Y-114476987D01*
X153277328Y-114578467D01*
X153537411Y-114630200D01*
X153802589Y-114630200D01*
X154062672Y-114578467D01*
X154307665Y-114476987D01*
X154528153Y-114329662D01*
X154715662Y-114142153D01*
X154862987Y-113921665D01*
X154964467Y-113676672D01*
X155016200Y-113416589D01*
X155016200Y-113151411D01*
X154964467Y-112891328D01*
X154862987Y-112646335D01*
X154715662Y-112425847D01*
X154528153Y-112238338D01*
X154307665Y-112091013D01*
X154121740Y-112014000D01*
X154307665Y-111936987D01*
X154528153Y-111789662D01*
X154715662Y-111602153D01*
X154862987Y-111381665D01*
X154940000Y-111195740D01*
X155017013Y-111381665D01*
X155164338Y-111602153D01*
X155351847Y-111789662D01*
X155572335Y-111936987D01*
X155817328Y-112038467D01*
X156077411Y-112090200D01*
X156342589Y-112090200D01*
X156602672Y-112038467D01*
X156847665Y-111936987D01*
X157068153Y-111789662D01*
X157255662Y-111602153D01*
X157402987Y-111381665D01*
X157504467Y-111136672D01*
X157556200Y-110876589D01*
X157556200Y-110611411D01*
X157504467Y-110351328D01*
X157402987Y-110106335D01*
X157255662Y-109885847D01*
X157068153Y-109698338D01*
X156847665Y-109551013D01*
X156661740Y-109474000D01*
X156847665Y-109396987D01*
X157068153Y-109249662D01*
X157255662Y-109062153D01*
X157402987Y-108841665D01*
X157504467Y-108596672D01*
X157556200Y-108336589D01*
X157556200Y-108071411D01*
X157504467Y-107811328D01*
X157402987Y-107566335D01*
X157255662Y-107345847D01*
X157068153Y-107158338D01*
X156847665Y-107011013D01*
X156661740Y-106934000D01*
X156847665Y-106856987D01*
X157068153Y-106709662D01*
X157255662Y-106522153D01*
X157402987Y-106301665D01*
X157504467Y-106056672D01*
X157556200Y-105796589D01*
X157556200Y-105531411D01*
X157504467Y-105271328D01*
X157402987Y-105026335D01*
X157255662Y-104805847D01*
X157068153Y-104618338D01*
X156847665Y-104471013D01*
X156661740Y-104394000D01*
X156847665Y-104316987D01*
X157068153Y-104169662D01*
X157255662Y-103982153D01*
X157402987Y-103761665D01*
X157504467Y-103516672D01*
X157556200Y-103256589D01*
X157556200Y-102991411D01*
X157504467Y-102731328D01*
X157402987Y-102486335D01*
X157255662Y-102265847D01*
X157068153Y-102078338D01*
X156847665Y-101931013D01*
X156661740Y-101854000D01*
X156847665Y-101776987D01*
X157068153Y-101629662D01*
X157255662Y-101442153D01*
X157402987Y-101221665D01*
X157504467Y-100976672D01*
X157556200Y-100716589D01*
X157556200Y-100451411D01*
X157504467Y-100191328D01*
X157402987Y-99946335D01*
X157255662Y-99725847D01*
X157068153Y-99538338D01*
X156847665Y-99391013D01*
X156661740Y-99314000D01*
X156847665Y-99236987D01*
X157068153Y-99089662D01*
X157255662Y-98902153D01*
X157402987Y-98681665D01*
X157504467Y-98436672D01*
X157556200Y-98176589D01*
X157556200Y-97911411D01*
X157504467Y-97651328D01*
X157402987Y-97406335D01*
X157255662Y-97185847D01*
X157068153Y-96998338D01*
X156847665Y-96851013D01*
X156602672Y-96749533D01*
X156342589Y-96697800D01*
X156077411Y-96697800D01*
X155817328Y-96749533D01*
X155572335Y-96851013D01*
X155351847Y-96998338D01*
X155164338Y-97185847D01*
X155017013Y-97406335D01*
X154940000Y-97592260D01*
X154862987Y-97406335D01*
X154715662Y-97185847D01*
X154528153Y-96998338D01*
X154307665Y-96851013D01*
X154121740Y-96774000D01*
X154307665Y-96696987D01*
X154528153Y-96549662D01*
X154715662Y-96362153D01*
X154862987Y-96141665D01*
X154964467Y-95896672D01*
X155016200Y-95636589D01*
X155016200Y-95371411D01*
X154964467Y-95111328D01*
X154862987Y-94866335D01*
X154715662Y-94645847D01*
X154528153Y-94458338D01*
X154307665Y-94311013D01*
X154062672Y-94209533D01*
X153802589Y-94157800D01*
X153537411Y-94157800D01*
X153277328Y-94209533D01*
X153032335Y-94311013D01*
X152811847Y-94458338D01*
X152624338Y-94645847D01*
X152477013Y-94866335D01*
X152400000Y-95052260D01*
X152322987Y-94866335D01*
X152175662Y-94645847D01*
X151988153Y-94458338D01*
X151767665Y-94311013D01*
X151522672Y-94209533D01*
X151262589Y-94157800D01*
X150997411Y-94157800D01*
X150737328Y-94209533D01*
X150492335Y-94311013D01*
X150271847Y-94458338D01*
X150084338Y-94645847D01*
X149937013Y-94866335D01*
X149859031Y-95054600D01*
X149809542Y-94918720D01*
X149754183Y-94815152D01*
X149519273Y-94754332D01*
X148769605Y-95504000D01*
X149519273Y-96253668D01*
X149754183Y-96192848D01*
X149862206Y-95961066D01*
X149937013Y-96141665D01*
X150084338Y-96362153D01*
X150271847Y-96549662D01*
X150492335Y-96696987D01*
X150678260Y-96774000D01*
X150492335Y-96851013D01*
X150271847Y-96998338D01*
X150084338Y-97185847D01*
X149937013Y-97406335D01*
X149860000Y-97592260D01*
X149782987Y-97406335D01*
X149635662Y-97185847D01*
X149448153Y-96998338D01*
X149227665Y-96851013D01*
X149039400Y-96773031D01*
X149175280Y-96723542D01*
X149278848Y-96668183D01*
X149339668Y-96433273D01*
X148590000Y-95683605D01*
X147840332Y-96433273D01*
X147901152Y-96668183D01*
X148132934Y-96776206D01*
X147952335Y-96851013D01*
X147731847Y-96998338D01*
X147544338Y-97185847D01*
X147397013Y-97406335D01*
X147320000Y-97592260D01*
X147242987Y-97406335D01*
X147095662Y-97185847D01*
X146908153Y-96998338D01*
X146687665Y-96851013D01*
X146501740Y-96774000D01*
X146687665Y-96696987D01*
X146908153Y-96549662D01*
X147095662Y-96362153D01*
X147242987Y-96141665D01*
X147320969Y-95953400D01*
X147370458Y-96089280D01*
X147425817Y-96192848D01*
X147660727Y-96253668D01*
X148410395Y-95504000D01*
X147660727Y-94754332D01*
X147425817Y-94815152D01*
X147317794Y-95046934D01*
X147242987Y-94866335D01*
X147095662Y-94645847D01*
X147024542Y-94574727D01*
X147840332Y-94574727D01*
X148590000Y-95324395D01*
X149339668Y-94574727D01*
X149278848Y-94339817D01*
X149038491Y-94227798D01*
X148780898Y-94164824D01*
X148515970Y-94153313D01*
X148253887Y-94193709D01*
X148004720Y-94284458D01*
X147901152Y-94339817D01*
X147840332Y-94574727D01*
X147024542Y-94574727D01*
X146908153Y-94458338D01*
X146687665Y-94311013D01*
X146442672Y-94209533D01*
X146182589Y-94157800D01*
X145917411Y-94157800D01*
X145657328Y-94209533D01*
X145412335Y-94311013D01*
X145191847Y-94458338D01*
X145004338Y-94645847D01*
X144857013Y-94866335D01*
X144780000Y-95052260D01*
X144702987Y-94866335D01*
X144555662Y-94645847D01*
X144368153Y-94458338D01*
X144147665Y-94311013D01*
X143902672Y-94209533D01*
X143642589Y-94157800D01*
X143377411Y-94157800D01*
X143117328Y-94209533D01*
X142872335Y-94311013D01*
X142651847Y-94458338D01*
X142464338Y-94645847D01*
X142317013Y-94866335D01*
X142240000Y-95052260D01*
X142162987Y-94866335D01*
X142015662Y-94645847D01*
X141828153Y-94458338D01*
X141607665Y-94311013D01*
X141362672Y-94209533D01*
X141102589Y-94157800D01*
X140837411Y-94157800D01*
X140577328Y-94209533D01*
X140332335Y-94311013D01*
X140111847Y-94458338D01*
X139924338Y-94645847D01*
X139777013Y-94866335D01*
X139675533Y-95111328D01*
X139623800Y-95371411D01*
X139623800Y-95636589D01*
X139675533Y-95896672D01*
X139777013Y-96141665D01*
X139924338Y-96362153D01*
X140111847Y-96549662D01*
X140332335Y-96696987D01*
X140518260Y-96774000D01*
X140332335Y-96851013D01*
X140111847Y-96998338D01*
X139924338Y-97185847D01*
X139777013Y-97406335D01*
X139700000Y-97592260D01*
X139622987Y-97406335D01*
X139475662Y-97185847D01*
X139288153Y-96998338D01*
X139067665Y-96851013D01*
X138822672Y-96749533D01*
X138562589Y-96697800D01*
X138297411Y-96697800D01*
X138037328Y-96749533D01*
X137792335Y-96851013D01*
X137571847Y-96998338D01*
X137384338Y-97185847D01*
X137237013Y-97406335D01*
X137135533Y-97651328D01*
X137083800Y-97911411D01*
X132790000Y-97911411D01*
X132790000Y-88975000D01*
X161850000Y-88975000D01*
X161850001Y-118670000D01*
%TA.AperFunction,Conductor*%
D15*
G36*
X161850001Y-118670000D02*
G01*
X132790000Y-118670000D01*
X132790000Y-97911411D01*
X137083800Y-97911411D01*
X137083800Y-98176589D01*
X137135533Y-98436672D01*
X137237013Y-98681665D01*
X137384338Y-98902153D01*
X137571847Y-99089662D01*
X137792335Y-99236987D01*
X137978260Y-99314000D01*
X137792335Y-99391013D01*
X137571847Y-99538338D01*
X137384338Y-99725847D01*
X137237013Y-99946335D01*
X137135533Y-100191328D01*
X137083800Y-100451411D01*
X137083800Y-100716589D01*
X137135533Y-100976672D01*
X137237013Y-101221665D01*
X137384338Y-101442153D01*
X137571847Y-101629662D01*
X137792335Y-101776987D01*
X137978260Y-101854000D01*
X137792335Y-101931013D01*
X137571847Y-102078338D01*
X137384338Y-102265847D01*
X137237013Y-102486335D01*
X137135533Y-102731328D01*
X137083800Y-102991411D01*
X137083800Y-103256589D01*
X137135533Y-103516672D01*
X137237013Y-103761665D01*
X137384338Y-103982153D01*
X137571847Y-104169662D01*
X137792335Y-104316987D01*
X137978260Y-104394000D01*
X137792335Y-104471013D01*
X137571847Y-104618338D01*
X137384338Y-104805847D01*
X137237013Y-105026335D01*
X137135533Y-105271328D01*
X137083800Y-105531411D01*
X137083800Y-105796589D01*
X137135533Y-106056672D01*
X137237013Y-106301665D01*
X137384338Y-106522153D01*
X137571847Y-106709662D01*
X137792335Y-106856987D01*
X137978260Y-106934000D01*
X137792335Y-107011013D01*
X137571847Y-107158338D01*
X137384338Y-107345847D01*
X137237013Y-107566335D01*
X137135533Y-107811328D01*
X137083800Y-108071411D01*
X137083800Y-108336589D01*
X137135533Y-108596672D01*
X137237013Y-108841665D01*
X137384338Y-109062153D01*
X137571847Y-109249662D01*
X137792335Y-109396987D01*
X137978260Y-109474000D01*
X137792335Y-109551013D01*
X137571847Y-109698338D01*
X137384338Y-109885847D01*
X137237013Y-110106335D01*
X137135533Y-110351328D01*
X137083800Y-110611411D01*
X137083800Y-110876589D01*
X137135533Y-111136672D01*
X137237013Y-111381665D01*
X137384338Y-111602153D01*
X137571847Y-111789662D01*
X137792335Y-111936987D01*
X138037328Y-112038467D01*
X138297411Y-112090200D01*
X138562589Y-112090200D01*
X138822672Y-112038467D01*
X139067665Y-111936987D01*
X139288153Y-111789662D01*
X139475662Y-111602153D01*
X139622987Y-111381665D01*
X139700000Y-111195740D01*
X139777013Y-111381665D01*
X139924338Y-111602153D01*
X140111847Y-111789662D01*
X140332335Y-111936987D01*
X140518260Y-112014000D01*
X140332335Y-112091013D01*
X140111847Y-112238338D01*
X139924338Y-112425847D01*
X139777013Y-112646335D01*
X139675533Y-112891328D01*
X139623800Y-113151411D01*
X139623800Y-113416589D01*
X139675533Y-113676672D01*
X139777013Y-113921665D01*
X139924338Y-114142153D01*
X140111847Y-114329662D01*
X140332335Y-114476987D01*
X140577328Y-114578467D01*
X140837411Y-114630200D01*
X141102589Y-114630200D01*
X141362672Y-114578467D01*
X141607665Y-114476987D01*
X141828153Y-114329662D01*
X142015662Y-114142153D01*
X142162987Y-113921665D01*
X142240000Y-113735740D01*
X142317013Y-113921665D01*
X142464338Y-114142153D01*
X142651847Y-114329662D01*
X142872335Y-114476987D01*
X143117328Y-114578467D01*
X143377411Y-114630200D01*
X143642589Y-114630200D01*
X143902672Y-114578467D01*
X144147665Y-114476987D01*
X144368153Y-114329662D01*
X144555662Y-114142153D01*
X144702987Y-113921665D01*
X144780000Y-113735740D01*
X144857013Y-113921665D01*
X145004338Y-114142153D01*
X145191847Y-114329662D01*
X145412335Y-114476987D01*
X145657328Y-114578467D01*
X145917411Y-114630200D01*
X146182589Y-114630200D01*
X146442672Y-114578467D01*
X146687665Y-114476987D01*
X146908153Y-114329662D01*
X147095662Y-114142153D01*
X147242987Y-113921665D01*
X147320000Y-113735740D01*
X147397013Y-113921665D01*
X147544338Y-114142153D01*
X147731847Y-114329662D01*
X147952335Y-114476987D01*
X148197328Y-114578467D01*
X148457411Y-114630200D01*
X148722589Y-114630200D01*
X148982672Y-114578467D01*
X149227665Y-114476987D01*
X149448153Y-114329662D01*
X149635662Y-114142153D01*
X149782987Y-113921665D01*
X149860000Y-113735740D01*
X149937013Y-113921665D01*
X150084338Y-114142153D01*
X150271847Y-114329662D01*
X150492335Y-114476987D01*
X150737328Y-114578467D01*
X150997411Y-114630200D01*
X151262589Y-114630200D01*
X151522672Y-114578467D01*
X151767665Y-114476987D01*
X151988153Y-114329662D01*
X152175662Y-114142153D01*
X152322987Y-113921665D01*
X152400000Y-113735740D01*
X152477013Y-113921665D01*
X152624338Y-114142153D01*
X152811847Y-114329662D01*
X153032335Y-114476987D01*
X153277328Y-114578467D01*
X153537411Y-114630200D01*
X153802589Y-114630200D01*
X154062672Y-114578467D01*
X154307665Y-114476987D01*
X154528153Y-114329662D01*
X154715662Y-114142153D01*
X154862987Y-113921665D01*
X154964467Y-113676672D01*
X155016200Y-113416589D01*
X155016200Y-113151411D01*
X154964467Y-112891328D01*
X154862987Y-112646335D01*
X154715662Y-112425847D01*
X154528153Y-112238338D01*
X154307665Y-112091013D01*
X154121740Y-112014000D01*
X154307665Y-111936987D01*
X154528153Y-111789662D01*
X154715662Y-111602153D01*
X154862987Y-111381665D01*
X154940000Y-111195740D01*
X155017013Y-111381665D01*
X155164338Y-111602153D01*
X155351847Y-111789662D01*
X155572335Y-111936987D01*
X155817328Y-112038467D01*
X156077411Y-112090200D01*
X156342589Y-112090200D01*
X156602672Y-112038467D01*
X156847665Y-111936987D01*
X157068153Y-111789662D01*
X157255662Y-111602153D01*
X157402987Y-111381665D01*
X157504467Y-111136672D01*
X157556200Y-110876589D01*
X157556200Y-110611411D01*
X157504467Y-110351328D01*
X157402987Y-110106335D01*
X157255662Y-109885847D01*
X157068153Y-109698338D01*
X156847665Y-109551013D01*
X156661740Y-109474000D01*
X156847665Y-109396987D01*
X157068153Y-109249662D01*
X157255662Y-109062153D01*
X157402987Y-108841665D01*
X157504467Y-108596672D01*
X157556200Y-108336589D01*
X157556200Y-108071411D01*
X157504467Y-107811328D01*
X157402987Y-107566335D01*
X157255662Y-107345847D01*
X157068153Y-107158338D01*
X156847665Y-107011013D01*
X156661740Y-106934000D01*
X156847665Y-106856987D01*
X157068153Y-106709662D01*
X157255662Y-106522153D01*
X157402987Y-106301665D01*
X157504467Y-106056672D01*
X157556200Y-105796589D01*
X157556200Y-105531411D01*
X157504467Y-105271328D01*
X157402987Y-105026335D01*
X157255662Y-104805847D01*
X157068153Y-104618338D01*
X156847665Y-104471013D01*
X156661740Y-104394000D01*
X156847665Y-104316987D01*
X157068153Y-104169662D01*
X157255662Y-103982153D01*
X157402987Y-103761665D01*
X157504467Y-103516672D01*
X157556200Y-103256589D01*
X157556200Y-102991411D01*
X157504467Y-102731328D01*
X157402987Y-102486335D01*
X157255662Y-102265847D01*
X157068153Y-102078338D01*
X156847665Y-101931013D01*
X156661740Y-101854000D01*
X156847665Y-101776987D01*
X157068153Y-101629662D01*
X157255662Y-101442153D01*
X157402987Y-101221665D01*
X157504467Y-100976672D01*
X157556200Y-100716589D01*
X157556200Y-100451411D01*
X157504467Y-100191328D01*
X157402987Y-99946335D01*
X157255662Y-99725847D01*
X157068153Y-99538338D01*
X156847665Y-99391013D01*
X156661740Y-99314000D01*
X156847665Y-99236987D01*
X157068153Y-99089662D01*
X157255662Y-98902153D01*
X157402987Y-98681665D01*
X157504467Y-98436672D01*
X157556200Y-98176589D01*
X157556200Y-97911411D01*
X157504467Y-97651328D01*
X157402987Y-97406335D01*
X157255662Y-97185847D01*
X157068153Y-96998338D01*
X156847665Y-96851013D01*
X156602672Y-96749533D01*
X156342589Y-96697800D01*
X156077411Y-96697800D01*
X155817328Y-96749533D01*
X155572335Y-96851013D01*
X155351847Y-96998338D01*
X155164338Y-97185847D01*
X155017013Y-97406335D01*
X154940000Y-97592260D01*
X154862987Y-97406335D01*
X154715662Y-97185847D01*
X154528153Y-96998338D01*
X154307665Y-96851013D01*
X154121740Y-96774000D01*
X154307665Y-96696987D01*
X154528153Y-96549662D01*
X154715662Y-96362153D01*
X154862987Y-96141665D01*
X154964467Y-95896672D01*
X155016200Y-95636589D01*
X155016200Y-95371411D01*
X154964467Y-95111328D01*
X154862987Y-94866335D01*
X154715662Y-94645847D01*
X154528153Y-94458338D01*
X154307665Y-94311013D01*
X154062672Y-94209533D01*
X153802589Y-94157800D01*
X153537411Y-94157800D01*
X153277328Y-94209533D01*
X153032335Y-94311013D01*
X152811847Y-94458338D01*
X152624338Y-94645847D01*
X152477013Y-94866335D01*
X152400000Y-95052260D01*
X152322987Y-94866335D01*
X152175662Y-94645847D01*
X151988153Y-94458338D01*
X151767665Y-94311013D01*
X151522672Y-94209533D01*
X151262589Y-94157800D01*
X150997411Y-94157800D01*
X150737328Y-94209533D01*
X150492335Y-94311013D01*
X150271847Y-94458338D01*
X150084338Y-94645847D01*
X149937013Y-94866335D01*
X149859031Y-95054600D01*
X149809542Y-94918720D01*
X149754183Y-94815152D01*
X149519273Y-94754332D01*
X148769605Y-95504000D01*
X149519273Y-96253668D01*
X149754183Y-96192848D01*
X149862206Y-95961066D01*
X149937013Y-96141665D01*
X150084338Y-96362153D01*
X150271847Y-96549662D01*
X150492335Y-96696987D01*
X150678260Y-96774000D01*
X150492335Y-96851013D01*
X150271847Y-96998338D01*
X150084338Y-97185847D01*
X149937013Y-97406335D01*
X149860000Y-97592260D01*
X149782987Y-97406335D01*
X149635662Y-97185847D01*
X149448153Y-96998338D01*
X149227665Y-96851013D01*
X149039400Y-96773031D01*
X149175280Y-96723542D01*
X149278848Y-96668183D01*
X149339668Y-96433273D01*
X148590000Y-95683605D01*
X147840332Y-96433273D01*
X147901152Y-96668183D01*
X148132934Y-96776206D01*
X147952335Y-96851013D01*
X147731847Y-96998338D01*
X147544338Y-97185847D01*
X147397013Y-97406335D01*
X147320000Y-97592260D01*
X147242987Y-97406335D01*
X147095662Y-97185847D01*
X146908153Y-96998338D01*
X146687665Y-96851013D01*
X146501740Y-96774000D01*
X146687665Y-96696987D01*
X146908153Y-96549662D01*
X147095662Y-96362153D01*
X147242987Y-96141665D01*
X147320969Y-95953400D01*
X147370458Y-96089280D01*
X147425817Y-96192848D01*
X147660727Y-96253668D01*
X148410395Y-95504000D01*
X147660727Y-94754332D01*
X147425817Y-94815152D01*
X147317794Y-95046934D01*
X147242987Y-94866335D01*
X147095662Y-94645847D01*
X147024542Y-94574727D01*
X147840332Y-94574727D01*
X148590000Y-95324395D01*
X149339668Y-94574727D01*
X149278848Y-94339817D01*
X149038491Y-94227798D01*
X148780898Y-94164824D01*
X148515970Y-94153313D01*
X148253887Y-94193709D01*
X148004720Y-94284458D01*
X147901152Y-94339817D01*
X147840332Y-94574727D01*
X147024542Y-94574727D01*
X146908153Y-94458338D01*
X146687665Y-94311013D01*
X146442672Y-94209533D01*
X146182589Y-94157800D01*
X145917411Y-94157800D01*
X145657328Y-94209533D01*
X145412335Y-94311013D01*
X145191847Y-94458338D01*
X145004338Y-94645847D01*
X144857013Y-94866335D01*
X144780000Y-95052260D01*
X144702987Y-94866335D01*
X144555662Y-94645847D01*
X144368153Y-94458338D01*
X144147665Y-94311013D01*
X143902672Y-94209533D01*
X143642589Y-94157800D01*
X143377411Y-94157800D01*
X143117328Y-94209533D01*
X142872335Y-94311013D01*
X142651847Y-94458338D01*
X142464338Y-94645847D01*
X142317013Y-94866335D01*
X142240000Y-95052260D01*
X142162987Y-94866335D01*
X142015662Y-94645847D01*
X141828153Y-94458338D01*
X141607665Y-94311013D01*
X141362672Y-94209533D01*
X141102589Y-94157800D01*
X140837411Y-94157800D01*
X140577328Y-94209533D01*
X140332335Y-94311013D01*
X140111847Y-94458338D01*
X139924338Y-94645847D01*
X139777013Y-94866335D01*
X139675533Y-95111328D01*
X139623800Y-95371411D01*
X139623800Y-95636589D01*
X139675533Y-95896672D01*
X139777013Y-96141665D01*
X139924338Y-96362153D01*
X140111847Y-96549662D01*
X140332335Y-96696987D01*
X140518260Y-96774000D01*
X140332335Y-96851013D01*
X140111847Y-96998338D01*
X139924338Y-97185847D01*
X139777013Y-97406335D01*
X139700000Y-97592260D01*
X139622987Y-97406335D01*
X139475662Y-97185847D01*
X139288153Y-96998338D01*
X139067665Y-96851013D01*
X138822672Y-96749533D01*
X138562589Y-96697800D01*
X138297411Y-96697800D01*
X138037328Y-96749533D01*
X137792335Y-96851013D01*
X137571847Y-96998338D01*
X137384338Y-97185847D01*
X137237013Y-97406335D01*
X137135533Y-97651328D01*
X137083800Y-97911411D01*
X132790000Y-97911411D01*
X132790000Y-88975000D01*
X161850000Y-88975000D01*
X161850001Y-118670000D01*
G37*
%TD.AperFunction*%
D14*
X152477013Y-98681665D02*
X152624338Y-98902153D01*
X152811847Y-99089662D01*
X153032335Y-99236987D01*
X153218260Y-99314000D01*
X153032335Y-99391013D01*
X152811847Y-99538338D01*
X152624338Y-99725847D01*
X152477013Y-99946335D01*
X152375533Y-100191328D01*
X152323800Y-100451411D01*
X152323800Y-100716589D01*
X152375533Y-100976672D01*
X152477013Y-101221665D01*
X152624338Y-101442153D01*
X152811847Y-101629662D01*
X153028954Y-101774728D01*
X152958800Y-101774728D01*
X152834318Y-101786988D01*
X152714620Y-101823298D01*
X152604306Y-101882263D01*
X152507615Y-101961615D01*
X152428263Y-102058306D01*
X152369298Y-102168620D01*
X152332988Y-102288318D01*
X152320728Y-102412800D01*
X152320728Y-103835200D01*
X152332988Y-103959682D01*
X152369298Y-104079380D01*
X152428263Y-104189694D01*
X152507615Y-104286385D01*
X152604306Y-104365737D01*
X152714620Y-104424702D01*
X152834318Y-104461012D01*
X152958800Y-104473272D01*
X153028954Y-104473272D01*
X152811847Y-104618338D01*
X152624338Y-104805847D01*
X152477013Y-105026335D01*
X152375533Y-105271328D01*
X152323800Y-105531411D01*
X152323800Y-105796589D01*
X152375533Y-106056672D01*
X152477013Y-106301665D01*
X152624338Y-106522153D01*
X152811847Y-106709662D01*
X153032335Y-106856987D01*
X153218260Y-106934000D01*
X153032335Y-107011013D01*
X152811847Y-107158338D01*
X152624338Y-107345847D01*
X152477013Y-107566335D01*
X152375533Y-107811328D01*
X152323800Y-108071411D01*
X152323800Y-108336589D01*
X152375533Y-108596672D01*
X152477013Y-108841665D01*
X152624338Y-109062153D01*
X152811847Y-109249662D01*
X153032335Y-109396987D01*
X153218260Y-109474000D01*
X153032335Y-109551013D01*
X152811847Y-109698338D01*
X152624338Y-109885847D01*
X152477013Y-110106335D01*
X152400000Y-110292260D01*
X152322987Y-110106335D01*
X152175662Y-109885847D01*
X151988153Y-109698338D01*
X151767665Y-109551013D01*
X151522672Y-109449533D01*
X151262589Y-109397800D01*
X150997411Y-109397800D01*
X150737328Y-109449533D01*
X150492335Y-109551013D01*
X150271847Y-109698338D01*
X150084338Y-109885847D01*
X149937013Y-110106335D01*
X149860000Y-110292260D01*
X149782987Y-110106335D01*
X149635662Y-109885847D01*
X149448153Y-109698338D01*
X149227665Y-109551013D01*
X148982672Y-109449533D01*
X148722589Y-109397800D01*
X148457411Y-109397800D01*
X148197328Y-109449533D01*
X147952335Y-109551013D01*
X147731847Y-109698338D01*
X147544338Y-109885847D01*
X147397013Y-110106335D01*
X147320000Y-110292260D01*
X147242987Y-110106335D01*
X147095662Y-109885847D01*
X146908153Y-109698338D01*
X146687665Y-109551013D01*
X146442672Y-109449533D01*
X146182589Y-109397800D01*
X145917411Y-109397800D01*
X145657328Y-109449533D01*
X145412335Y-109551013D01*
X145191847Y-109698338D01*
X145004338Y-109885847D01*
X144857013Y-110106335D01*
X144780000Y-110292260D01*
X144702987Y-110106335D01*
X144555662Y-109885847D01*
X144368153Y-109698338D01*
X144147665Y-109551013D01*
X143902672Y-109449533D01*
X143642589Y-109397800D01*
X143426357Y-109397800D01*
X144920025Y-107904132D01*
X145103368Y-108087475D01*
X145346589Y-108249990D01*
X145616842Y-108361932D01*
X145903740Y-108419000D01*
X146196260Y-108419000D01*
X146483158Y-108361932D01*
X146753411Y-108249990D01*
X146996632Y-108087475D01*
X147203475Y-107880632D01*
X147320000Y-107706240D01*
X147436525Y-107880632D01*
X147643368Y-108087475D01*
X147886589Y-108249990D01*
X148156842Y-108361932D01*
X148443740Y-108419000D01*
X148736260Y-108419000D01*
X149023158Y-108361932D01*
X149293411Y-108249990D01*
X149536632Y-108087475D01*
X149743475Y-107880632D01*
X149905990Y-107637411D01*
X150017932Y-107367158D01*
X150075000Y-107080260D01*
X150075000Y-106787740D01*
X150017932Y-106500842D01*
X149905990Y-106230589D01*
X149743475Y-105987368D01*
X149536632Y-105780525D01*
X149363271Y-105664689D01*
X149438792Y-105422397D01*
X148590000Y-104573605D01*
X147741208Y-105422397D01*
X147816729Y-105664689D01*
X147643368Y-105780525D01*
X147436525Y-105987368D01*
X147320000Y-106161760D01*
X147203475Y-105987368D01*
X146996632Y-105780525D01*
X146823271Y-105664689D01*
X146898792Y-105422397D01*
X146050000Y-104573605D01*
X145201208Y-105422397D01*
X145276729Y-105664689D01*
X145103368Y-105780525D01*
X144896525Y-105987368D01*
X144790380Y-106146225D01*
X144780000Y-106145203D01*
X144741444Y-106149000D01*
X144741439Y-106149000D01*
X144701026Y-106152980D01*
X144626113Y-106160358D01*
X144478140Y-106205246D01*
X144341767Y-106278138D01*
X144222236Y-106376236D01*
X144197653Y-106406190D01*
X142316200Y-108287643D01*
X142316200Y-108071411D01*
X142264467Y-107811328D01*
X142162987Y-107566335D01*
X142015662Y-107345847D01*
X141828153Y-107158338D01*
X141607665Y-107011013D01*
X141421740Y-106934000D01*
X141607665Y-106856987D01*
X141828153Y-106709662D01*
X142015662Y-106522153D01*
X142162987Y-106301665D01*
X142264467Y-106056672D01*
X142316200Y-105796589D01*
X142316200Y-105531411D01*
X142264467Y-105271328D01*
X142162987Y-105026335D01*
X142015662Y-104805847D01*
X141828153Y-104618338D01*
X141607665Y-104471013D01*
X141587188Y-104462531D01*
X144559389Y-104462531D01*
X144601401Y-104752019D01*
X144699081Y-105027747D01*
X144772528Y-105165157D01*
X145021603Y-105242792D01*
X145870395Y-104394000D01*
X146229605Y-104394000D01*
X147078397Y-105242792D01*
X147320000Y-105167486D01*
X147561603Y-105242792D01*
X148410395Y-104394000D01*
X148769605Y-104394000D01*
X149618397Y-105242792D01*
X149867472Y-105165157D01*
X149993371Y-104901117D01*
X150065339Y-104617589D01*
X150080611Y-104325469D01*
X150038599Y-104035981D01*
X149940919Y-103760253D01*
X149867472Y-103622843D01*
X149618397Y-103545208D01*
X148769605Y-104394000D01*
X148410395Y-104394000D01*
X147561603Y-103545208D01*
X147320000Y-103620514D01*
X147078397Y-103545208D01*
X146229605Y-104394000D01*
X145870395Y-104394000D01*
X145021603Y-103545208D01*
X144772528Y-103622843D01*
X144646629Y-103886883D01*
X144574661Y-104170411D01*
X144559389Y-104462531D01*
X141587188Y-104462531D01*
X141421740Y-104394000D01*
X141607665Y-104316987D01*
X141828153Y-104169662D01*
X142015662Y-103982153D01*
X142162987Y-103761665D01*
X142264467Y-103516672D01*
X142316200Y-103256589D01*
X142316200Y-102991411D01*
X142264467Y-102731328D01*
X142162987Y-102486335D01*
X142015662Y-102265847D01*
X141828153Y-102078338D01*
X141607665Y-101931013D01*
X141421740Y-101854000D01*
X141607665Y-101776987D01*
X141828153Y-101629662D01*
X142015662Y-101442153D01*
X142141381Y-101254000D01*
X144561928Y-101254000D01*
X144561928Y-102454000D01*
X144578992Y-102627254D01*
X144629528Y-102793850D01*
X144711595Y-102947386D01*
X144822038Y-103081962D01*
X144956614Y-103192405D01*
X145110150Y-103274472D01*
X145219293Y-103307580D01*
X145201208Y-103365603D01*
X146050000Y-104214395D01*
X146898792Y-103365603D01*
X146880707Y-103307580D01*
X146989850Y-103274472D01*
X147143386Y-103192405D01*
X147277962Y-103081962D01*
X147388405Y-102947386D01*
X147456285Y-102820392D01*
X147643368Y-103007475D01*
X147816729Y-103123311D01*
X147741208Y-103365603D01*
X148590000Y-104214395D01*
X149438792Y-103365603D01*
X149363271Y-103123311D01*
X149536632Y-103007475D01*
X149743475Y-102800632D01*
X149905990Y-102557411D01*
X150017932Y-102287158D01*
X150075000Y-102000260D01*
X150075000Y-101707740D01*
X150017932Y-101420842D01*
X149905990Y-101150589D01*
X149743475Y-100907368D01*
X149536632Y-100700525D01*
X149293411Y-100538010D01*
X149023158Y-100426068D01*
X148736260Y-100369000D01*
X148443740Y-100369000D01*
X148156842Y-100426068D01*
X147886589Y-100538010D01*
X147643368Y-100700525D01*
X147456285Y-100887608D01*
X147388405Y-100760614D01*
X147277962Y-100626038D01*
X147143386Y-100515595D01*
X146989850Y-100433528D01*
X146823254Y-100382992D01*
X146650000Y-100365928D01*
X145450000Y-100365928D01*
X145276746Y-100382992D01*
X145110150Y-100433528D01*
X144956614Y-100515595D01*
X144822038Y-100626038D01*
X144711595Y-100760614D01*
X144629528Y-100914150D01*
X144578992Y-101080746D01*
X144561928Y-101254000D01*
X142141381Y-101254000D01*
X142162987Y-101221665D01*
X142264467Y-100976672D01*
X142316200Y-100716589D01*
X142316200Y-100451411D01*
X142264467Y-100191328D01*
X142162987Y-99946335D01*
X142015662Y-99725847D01*
X141828153Y-99538338D01*
X141607665Y-99391013D01*
X141421740Y-99314000D01*
X141607665Y-99236987D01*
X141828153Y-99089662D01*
X142015662Y-98902153D01*
X142162987Y-98681665D01*
X142240000Y-98495740D01*
X142317013Y-98681665D01*
X142464338Y-98902153D01*
X142651847Y-99089662D01*
X142872335Y-99236987D01*
X143117328Y-99338467D01*
X143377411Y-99390200D01*
X143642589Y-99390200D01*
X143902672Y-99338467D01*
X144147665Y-99236987D01*
X144368153Y-99089662D01*
X144555662Y-98902153D01*
X144702987Y-98681665D01*
X144780000Y-98495740D01*
X144857013Y-98681665D01*
X145004338Y-98902153D01*
X145191847Y-99089662D01*
X145412335Y-99236987D01*
X145657328Y-99338467D01*
X145917411Y-99390200D01*
X146182589Y-99390200D01*
X146442672Y-99338467D01*
X146687665Y-99236987D01*
X146908153Y-99089662D01*
X147095662Y-98902153D01*
X147242987Y-98681665D01*
X147320000Y-98495740D01*
X147397013Y-98681665D01*
X147544338Y-98902153D01*
X147731847Y-99089662D01*
X147952335Y-99236987D01*
X148197328Y-99338467D01*
X148457411Y-99390200D01*
X148722589Y-99390200D01*
X148982672Y-99338467D01*
X149227665Y-99236987D01*
X149448153Y-99089662D01*
X149635662Y-98902153D01*
X149782987Y-98681665D01*
X149860000Y-98495740D01*
X149937013Y-98681665D01*
X150084338Y-98902153D01*
X150271847Y-99089662D01*
X150492335Y-99236987D01*
X150737328Y-99338467D01*
X150997411Y-99390200D01*
X151262589Y-99390200D01*
X151522672Y-99338467D01*
X151767665Y-99236987D01*
X151988153Y-99089662D01*
X152175662Y-98902153D01*
X152322987Y-98681665D01*
X152400000Y-98495740D01*
X152477013Y-98681665D01*
%TA.AperFunction,Conductor*%
D15*
G36*
X152477013Y-98681665D02*
G01*
X152624338Y-98902153D01*
X152811847Y-99089662D01*
X153032335Y-99236987D01*
X153218260Y-99314000D01*
X153032335Y-99391013D01*
X152811847Y-99538338D01*
X152624338Y-99725847D01*
X152477013Y-99946335D01*
X152375533Y-100191328D01*
X152323800Y-100451411D01*
X152323800Y-100716589D01*
X152375533Y-100976672D01*
X152477013Y-101221665D01*
X152624338Y-101442153D01*
X152811847Y-101629662D01*
X153028954Y-101774728D01*
X152958800Y-101774728D01*
X152834318Y-101786988D01*
X152714620Y-101823298D01*
X152604306Y-101882263D01*
X152507615Y-101961615D01*
X152428263Y-102058306D01*
X152369298Y-102168620D01*
X152332988Y-102288318D01*
X152320728Y-102412800D01*
X152320728Y-103835200D01*
X152332988Y-103959682D01*
X152369298Y-104079380D01*
X152428263Y-104189694D01*
X152507615Y-104286385D01*
X152604306Y-104365737D01*
X152714620Y-104424702D01*
X152834318Y-104461012D01*
X152958800Y-104473272D01*
X153028954Y-104473272D01*
X152811847Y-104618338D01*
X152624338Y-104805847D01*
X152477013Y-105026335D01*
X152375533Y-105271328D01*
X152323800Y-105531411D01*
X152323800Y-105796589D01*
X152375533Y-106056672D01*
X152477013Y-106301665D01*
X152624338Y-106522153D01*
X152811847Y-106709662D01*
X153032335Y-106856987D01*
X153218260Y-106934000D01*
X153032335Y-107011013D01*
X152811847Y-107158338D01*
X152624338Y-107345847D01*
X152477013Y-107566335D01*
X152375533Y-107811328D01*
X152323800Y-108071411D01*
X152323800Y-108336589D01*
X152375533Y-108596672D01*
X152477013Y-108841665D01*
X152624338Y-109062153D01*
X152811847Y-109249662D01*
X153032335Y-109396987D01*
X153218260Y-109474000D01*
X153032335Y-109551013D01*
X152811847Y-109698338D01*
X152624338Y-109885847D01*
X152477013Y-110106335D01*
X152400000Y-110292260D01*
X152322987Y-110106335D01*
X152175662Y-109885847D01*
X151988153Y-109698338D01*
X151767665Y-109551013D01*
X151522672Y-109449533D01*
X151262589Y-109397800D01*
X150997411Y-109397800D01*
X150737328Y-109449533D01*
X150492335Y-109551013D01*
X150271847Y-109698338D01*
X150084338Y-109885847D01*
X149937013Y-110106335D01*
X149860000Y-110292260D01*
X149782987Y-110106335D01*
X149635662Y-109885847D01*
X149448153Y-109698338D01*
X149227665Y-109551013D01*
X148982672Y-109449533D01*
X148722589Y-109397800D01*
X148457411Y-109397800D01*
X148197328Y-109449533D01*
X147952335Y-109551013D01*
X147731847Y-109698338D01*
X147544338Y-109885847D01*
X147397013Y-110106335D01*
X147320000Y-110292260D01*
X147242987Y-110106335D01*
X147095662Y-109885847D01*
X146908153Y-109698338D01*
X146687665Y-109551013D01*
X146442672Y-109449533D01*
X146182589Y-109397800D01*
X145917411Y-109397800D01*
X145657328Y-109449533D01*
X145412335Y-109551013D01*
X145191847Y-109698338D01*
X145004338Y-109885847D01*
X144857013Y-110106335D01*
X144780000Y-110292260D01*
X144702987Y-110106335D01*
X144555662Y-109885847D01*
X144368153Y-109698338D01*
X144147665Y-109551013D01*
X143902672Y-109449533D01*
X143642589Y-109397800D01*
X143426357Y-109397800D01*
X144920025Y-107904132D01*
X145103368Y-108087475D01*
X145346589Y-108249990D01*
X145616842Y-108361932D01*
X145903740Y-108419000D01*
X146196260Y-108419000D01*
X146483158Y-108361932D01*
X146753411Y-108249990D01*
X146996632Y-108087475D01*
X147203475Y-107880632D01*
X147320000Y-107706240D01*
X147436525Y-107880632D01*
X147643368Y-108087475D01*
X147886589Y-108249990D01*
X148156842Y-108361932D01*
X148443740Y-108419000D01*
X148736260Y-108419000D01*
X149023158Y-108361932D01*
X149293411Y-108249990D01*
X149536632Y-108087475D01*
X149743475Y-107880632D01*
X149905990Y-107637411D01*
X150017932Y-107367158D01*
X150075000Y-107080260D01*
X150075000Y-106787740D01*
X150017932Y-106500842D01*
X149905990Y-106230589D01*
X149743475Y-105987368D01*
X149536632Y-105780525D01*
X149363271Y-105664689D01*
X149438792Y-105422397D01*
X148590000Y-104573605D01*
X147741208Y-105422397D01*
X147816729Y-105664689D01*
X147643368Y-105780525D01*
X147436525Y-105987368D01*
X147320000Y-106161760D01*
X147203475Y-105987368D01*
X146996632Y-105780525D01*
X146823271Y-105664689D01*
X146898792Y-105422397D01*
X146050000Y-104573605D01*
X145201208Y-105422397D01*
X145276729Y-105664689D01*
X145103368Y-105780525D01*
X144896525Y-105987368D01*
X144790380Y-106146225D01*
X144780000Y-106145203D01*
X144741444Y-106149000D01*
X144741439Y-106149000D01*
X144701026Y-106152980D01*
X144626113Y-106160358D01*
X144478140Y-106205246D01*
X144341767Y-106278138D01*
X144222236Y-106376236D01*
X144197653Y-106406190D01*
X142316200Y-108287643D01*
X142316200Y-108071411D01*
X142264467Y-107811328D01*
X142162987Y-107566335D01*
X142015662Y-107345847D01*
X141828153Y-107158338D01*
X141607665Y-107011013D01*
X141421740Y-106934000D01*
X141607665Y-106856987D01*
X141828153Y-106709662D01*
X142015662Y-106522153D01*
X142162987Y-106301665D01*
X142264467Y-106056672D01*
X142316200Y-105796589D01*
X142316200Y-105531411D01*
X142264467Y-105271328D01*
X142162987Y-105026335D01*
X142015662Y-104805847D01*
X141828153Y-104618338D01*
X141607665Y-104471013D01*
X141587188Y-104462531D01*
X144559389Y-104462531D01*
X144601401Y-104752019D01*
X144699081Y-105027747D01*
X144772528Y-105165157D01*
X145021603Y-105242792D01*
X145870395Y-104394000D01*
X146229605Y-104394000D01*
X147078397Y-105242792D01*
X147320000Y-105167486D01*
X147561603Y-105242792D01*
X148410395Y-104394000D01*
X148769605Y-104394000D01*
X149618397Y-105242792D01*
X149867472Y-105165157D01*
X149993371Y-104901117D01*
X150065339Y-104617589D01*
X150080611Y-104325469D01*
X150038599Y-104035981D01*
X149940919Y-103760253D01*
X149867472Y-103622843D01*
X149618397Y-103545208D01*
X148769605Y-104394000D01*
X148410395Y-104394000D01*
X147561603Y-103545208D01*
X147320000Y-103620514D01*
X147078397Y-103545208D01*
X146229605Y-104394000D01*
X145870395Y-104394000D01*
X145021603Y-103545208D01*
X144772528Y-103622843D01*
X144646629Y-103886883D01*
X144574661Y-104170411D01*
X144559389Y-104462531D01*
X141587188Y-104462531D01*
X141421740Y-104394000D01*
X141607665Y-104316987D01*
X141828153Y-104169662D01*
X142015662Y-103982153D01*
X142162987Y-103761665D01*
X142264467Y-103516672D01*
X142316200Y-103256589D01*
X142316200Y-102991411D01*
X142264467Y-102731328D01*
X142162987Y-102486335D01*
X142015662Y-102265847D01*
X141828153Y-102078338D01*
X141607665Y-101931013D01*
X141421740Y-101854000D01*
X141607665Y-101776987D01*
X141828153Y-101629662D01*
X142015662Y-101442153D01*
X142141381Y-101254000D01*
X144561928Y-101254000D01*
X144561928Y-102454000D01*
X144578992Y-102627254D01*
X144629528Y-102793850D01*
X144711595Y-102947386D01*
X144822038Y-103081962D01*
X144956614Y-103192405D01*
X145110150Y-103274472D01*
X145219293Y-103307580D01*
X145201208Y-103365603D01*
X146050000Y-104214395D01*
X146898792Y-103365603D01*
X146880707Y-103307580D01*
X146989850Y-103274472D01*
X147143386Y-103192405D01*
X147277962Y-103081962D01*
X147388405Y-102947386D01*
X147456285Y-102820392D01*
X147643368Y-103007475D01*
X147816729Y-103123311D01*
X147741208Y-103365603D01*
X148590000Y-104214395D01*
X149438792Y-103365603D01*
X149363271Y-103123311D01*
X149536632Y-103007475D01*
X149743475Y-102800632D01*
X149905990Y-102557411D01*
X150017932Y-102287158D01*
X150075000Y-102000260D01*
X150075000Y-101707740D01*
X150017932Y-101420842D01*
X149905990Y-101150589D01*
X149743475Y-100907368D01*
X149536632Y-100700525D01*
X149293411Y-100538010D01*
X149023158Y-100426068D01*
X148736260Y-100369000D01*
X148443740Y-100369000D01*
X148156842Y-100426068D01*
X147886589Y-100538010D01*
X147643368Y-100700525D01*
X147456285Y-100887608D01*
X147388405Y-100760614D01*
X147277962Y-100626038D01*
X147143386Y-100515595D01*
X146989850Y-100433528D01*
X146823254Y-100382992D01*
X146650000Y-100365928D01*
X145450000Y-100365928D01*
X145276746Y-100382992D01*
X145110150Y-100433528D01*
X144956614Y-100515595D01*
X144822038Y-100626038D01*
X144711595Y-100760614D01*
X144629528Y-100914150D01*
X144578992Y-101080746D01*
X144561928Y-101254000D01*
X142141381Y-101254000D01*
X142162987Y-101221665D01*
X142264467Y-100976672D01*
X142316200Y-100716589D01*
X142316200Y-100451411D01*
X142264467Y-100191328D01*
X142162987Y-99946335D01*
X142015662Y-99725847D01*
X141828153Y-99538338D01*
X141607665Y-99391013D01*
X141421740Y-99314000D01*
X141607665Y-99236987D01*
X141828153Y-99089662D01*
X142015662Y-98902153D01*
X142162987Y-98681665D01*
X142240000Y-98495740D01*
X142317013Y-98681665D01*
X142464338Y-98902153D01*
X142651847Y-99089662D01*
X142872335Y-99236987D01*
X143117328Y-99338467D01*
X143377411Y-99390200D01*
X143642589Y-99390200D01*
X143902672Y-99338467D01*
X144147665Y-99236987D01*
X144368153Y-99089662D01*
X144555662Y-98902153D01*
X144702987Y-98681665D01*
X144780000Y-98495740D01*
X144857013Y-98681665D01*
X145004338Y-98902153D01*
X145191847Y-99089662D01*
X145412335Y-99236987D01*
X145657328Y-99338467D01*
X145917411Y-99390200D01*
X146182589Y-99390200D01*
X146442672Y-99338467D01*
X146687665Y-99236987D01*
X146908153Y-99089662D01*
X147095662Y-98902153D01*
X147242987Y-98681665D01*
X147320000Y-98495740D01*
X147397013Y-98681665D01*
X147544338Y-98902153D01*
X147731847Y-99089662D01*
X147952335Y-99236987D01*
X148197328Y-99338467D01*
X148457411Y-99390200D01*
X148722589Y-99390200D01*
X148982672Y-99338467D01*
X149227665Y-99236987D01*
X149448153Y-99089662D01*
X149635662Y-98902153D01*
X149782987Y-98681665D01*
X149860000Y-98495740D01*
X149937013Y-98681665D01*
X150084338Y-98902153D01*
X150271847Y-99089662D01*
X150492335Y-99236987D01*
X150737328Y-99338467D01*
X150997411Y-99390200D01*
X151262589Y-99390200D01*
X151522672Y-99338467D01*
X151767665Y-99236987D01*
X151988153Y-99089662D01*
X152175662Y-98902153D01*
X152322987Y-98681665D01*
X152400000Y-98495740D01*
X152477013Y-98681665D01*
G37*
%TD.AperFunction*%
%TD*%
M02*
