%TF.GenerationSoftware,KiCad,Pcbnew,5.1.9+dfsg1-1+deb11u1*%
%TF.CreationDate,2026-02-19T10:33:16+01:00*%
%TF.ProjectId,A1200MPU-Adapter,41313230-304d-4505-952d-416461707465,2.0*%
%TF.SameCoordinates,Original*%
%TF.FileFunction,Copper,L1,Top*%
%TF.FilePolarity,Positive*%
%FSLAX46Y46*%
G04 Gerber Fmt 4.6, Leading zero omitted, Abs format (unit mm)*
G04 Created by KiCad (PCBNEW 5.1.9+dfsg1-1+deb11u1) date 2026-02-19 10:33:16*
%MOMM*%
%LPD*%
G01*
G04 APERTURE LIST*
%TA.AperFunction,ComponentPad*%
%ADD10C,1.700000*%
%TD*%
%TA.AperFunction,ComponentPad*%
%ADD11R,1.422400X1.422400*%
%TD*%
%TA.AperFunction,ComponentPad*%
%ADD12C,1.422400*%
%TD*%
%TA.AperFunction,Conductor*%
%ADD13C,0.300000*%
%TD*%
%TA.AperFunction,Conductor*%
%ADD14C,0.254000*%
%TD*%
%TA.AperFunction,Conductor*%
%ADD15C,0.100000*%
%TD*%
%TA.AperFunction,Conductor*%
%ADD16C,0.025400*%
%TD*%
G04 APERTURE END LIST*
%TO.P,C1,1*%
%TO.N,VCC5V*%
%TA.AperFunction,SMDPad,CuDef*%
G36*
G01*
X161207001Y-106365000D02*
X160356999Y-106365000D01*
G75*
G02*
X160107000Y-106115001I0J249999D01*
G01*
X160107000Y-105039999D01*
G75*
G02*
X160356999Y-104790000I249999J0D01*
G01*
X161207001Y-104790000D01*
G75*
G02*
X161457000Y-105039999I0J-249999D01*
G01*
X161457000Y-106115001D01*
G75*
G02*
X161207001Y-106365000I-249999J0D01*
G01*
G37*
%TD.AperFunction*%
%TO.P,C1,2*%
%TO.N,GND*%
%TA.AperFunction,SMDPad,CuDef*%
G36*
G01*
X161207001Y-103490000D02*
X160356999Y-103490000D01*
G75*
G02*
X160107000Y-103240001I0J249999D01*
G01*
X160107000Y-102164999D01*
G75*
G02*
X160356999Y-101915000I249999J0D01*
G01*
X161207001Y-101915000D01*
G75*
G02*
X161457000Y-102164999I0J-249999D01*
G01*
X161457000Y-103240001D01*
G75*
G02*
X161207001Y-103490000I-249999J0D01*
G01*
G37*
%TD.AperFunction*%
%TD*%
%TO.P,C3,1*%
%TO.N,VCC5V*%
%TA.AperFunction,SMDPad,CuDef*%
G36*
G01*
X141285000Y-90820003D02*
X141285000Y-89519997D01*
G75*
G02*
X141534997Y-89270000I249997J0D01*
G01*
X142360003Y-89270000D01*
G75*
G02*
X142610000Y-89519997I0J-249997D01*
G01*
X142610000Y-90820003D01*
G75*
G02*
X142360003Y-91070000I-249997J0D01*
G01*
X141534997Y-91070000D01*
G75*
G02*
X141285000Y-90820003I0J249997D01*
G01*
G37*
%TD.AperFunction*%
%TO.P,C3,2*%
%TO.N,GND*%
%TA.AperFunction,SMDPad,CuDef*%
G36*
G01*
X144410000Y-90820003D02*
X144410000Y-89519997D01*
G75*
G02*
X144659997Y-89270000I249997J0D01*
G01*
X145485003Y-89270000D01*
G75*
G02*
X145735000Y-89519997I0J-249997D01*
G01*
X145735000Y-90820003D01*
G75*
G02*
X145485003Y-91070000I-249997J0D01*
G01*
X144659997Y-91070000D01*
G75*
G02*
X144410000Y-90820003I0J249997D01*
G01*
G37*
%TD.AperFunction*%
%TD*%
%TO.P,D1,1*%
%TO.N,GND*%
%TA.AperFunction,SMDPad,CuDef*%
G36*
G01*
X134356000Y-106340000D02*
X133106000Y-106340000D01*
G75*
G02*
X132856000Y-106090000I0J250000D01*
G01*
X132856000Y-105165000D01*
G75*
G02*
X133106000Y-104915000I250000J0D01*
G01*
X134356000Y-104915000D01*
G75*
G02*
X134606000Y-105165000I0J-250000D01*
G01*
X134606000Y-106090000D01*
G75*
G02*
X134356000Y-106340000I-250000J0D01*
G01*
G37*
%TD.AperFunction*%
%TO.P,D1,2*%
%TO.N,Net-(D1-Pad2)*%
%TA.AperFunction,SMDPad,CuDef*%
G36*
G01*
X134356000Y-103365000D02*
X133106000Y-103365000D01*
G75*
G02*
X132856000Y-103115000I0J250000D01*
G01*
X132856000Y-102190000D01*
G75*
G02*
X133106000Y-101940000I250000J0D01*
G01*
X134356000Y-101940000D01*
G75*
G02*
X134606000Y-102190000I0J-250000D01*
G01*
X134606000Y-103115000D01*
G75*
G02*
X134356000Y-103365000I-250000J0D01*
G01*
G37*
%TD.AperFunction*%
%TD*%
%TO.P,P1,1*%
%TO.N,mKBD_CLOCK*%
%TA.AperFunction,ComponentPad*%
G36*
G01*
X145200000Y-102454000D02*
X145200000Y-101254000D01*
G75*
G02*
X145450000Y-101004000I250000J0D01*
G01*
X146650000Y-101004000D01*
G75*
G02*
X146900000Y-101254000I0J-250000D01*
G01*
X146900000Y-102454000D01*
G75*
G02*
X146650000Y-102704000I-250000J0D01*
G01*
X145450000Y-102704000D01*
G75*
G02*
X145200000Y-102454000I0J250000D01*
G01*
G37*
%TD.AperFunction*%
D10*
%TO.P,P1,3*%
%TO.N,GND*%
X146050000Y-104394000D03*
%TO.P,P1,5*%
%TO.N,mKBD_RESET*%
X146050000Y-106934000D03*
%TO.P,P1,2*%
%TO.N,mKBD_DATA*%
X148590000Y-101854000D03*
%TO.P,P1,4*%
%TO.N,GND*%
X148590000Y-104394000D03*
%TO.P,P1,6*%
%TO.N,VCC5V*%
X148590000Y-106934000D03*
%TD*%
%TO.P,R1,1*%
%TO.N,Net-(D1-Pad2)*%
%TA.AperFunction,SMDPad,CuDef*%
G36*
G01*
X133690000Y-90795001D02*
X133690000Y-89544999D01*
G75*
G02*
X133939999Y-89295000I249999J0D01*
G01*
X134740001Y-89295000D01*
G75*
G02*
X134990000Y-89544999I0J-249999D01*
G01*
X134990000Y-90795001D01*
G75*
G02*
X134740001Y-91045000I-249999J0D01*
G01*
X133939999Y-91045000D01*
G75*
G02*
X133690000Y-90795001I0J249999D01*
G01*
G37*
%TD.AperFunction*%
%TO.P,R1,2*%
%TO.N,VCC5V*%
%TA.AperFunction,SMDPad,CuDef*%
G36*
G01*
X136790000Y-90795001D02*
X136790000Y-89544999D01*
G75*
G02*
X137039999Y-89295000I249999J0D01*
G01*
X137840001Y-89295000D01*
G75*
G02*
X138090000Y-89544999I0J-249999D01*
G01*
X138090000Y-90795001D01*
G75*
G02*
X137840001Y-91045000I-249999J0D01*
G01*
X137039999Y-91045000D01*
G75*
G02*
X136790000Y-90795001I0J249999D01*
G01*
G37*
%TD.AperFunction*%
%TD*%
D11*
%TO.P,U1,1*%
%TO.N,N/C*%
X153670000Y-103124000D03*
D12*
%TO.P,U1,3*%
X153670000Y-105664000D03*
%TO.P,U1,5*%
X153670000Y-108204000D03*
%TO.P,U1,43*%
%TO.N,mKBD_CLOCK*%
X153670000Y-100584000D03*
%TO.P,U1,41*%
%TO.N,N/C*%
X153670000Y-98044000D03*
%TO.P,U1,2*%
X156210000Y-105664000D03*
%TO.P,U1,4*%
X156210000Y-108204000D03*
%TO.P,U1,6*%
X156210000Y-110744000D03*
%TO.P,U1,44*%
%TO.N,mKBD_DATA*%
X156210000Y-103124000D03*
%TO.P,U1,42*%
%TO.N,N/C*%
X156210000Y-100584000D03*
%TO.P,U1,8*%
X153670000Y-110744000D03*
%TO.P,U1,10*%
X151130000Y-110744000D03*
%TO.P,U1,12*%
X148590000Y-110744000D03*
%TO.P,U1,14*%
X146050000Y-110744000D03*
%TO.P,U1,16*%
X143510000Y-110744000D03*
%TO.P,U1,7*%
X153670000Y-113284000D03*
%TO.P,U1,9*%
X151130000Y-113284000D03*
%TO.P,U1,11*%
%TO.N,Net-(U1-Pad11)*%
X148590000Y-113284000D03*
%TO.P,U1,13*%
%TO.N,VCC5V*%
X146050000Y-113284000D03*
%TO.P,U1,15*%
%TO.N,N/C*%
X143510000Y-113284000D03*
%TO.P,U1,17*%
X140970000Y-113284000D03*
%TO.P,U1,19*%
%TO.N,mKBD_RESET*%
X140970000Y-110744000D03*
%TO.P,U1,21*%
%TO.N,N/C*%
X140970000Y-108204000D03*
%TO.P,U1,23*%
X140970000Y-105664000D03*
%TO.P,U1,25*%
X140970000Y-103124000D03*
%TO.P,U1,27*%
X140970000Y-100584000D03*
%TO.P,U1,29*%
X140970000Y-95504000D03*
%TO.P,U1,18*%
X138430000Y-110744000D03*
%TO.P,U1,20*%
X138430000Y-108204000D03*
%TO.P,U1,22*%
X138430000Y-105664000D03*
%TO.P,U1,24*%
X138430000Y-103124000D03*
%TO.P,U1,26*%
X138430000Y-100584000D03*
%TO.P,U1,28*%
X138430000Y-98044000D03*
%TO.P,U1,30*%
X140970000Y-98044000D03*
%TO.P,U1,32*%
X143510000Y-98044000D03*
%TO.P,U1,34*%
X146050000Y-98044000D03*
%TO.P,U1,36*%
X148590000Y-98044000D03*
%TO.P,U1,38*%
X151130000Y-98044000D03*
%TO.P,U1,40*%
X156210000Y-98044000D03*
%TO.P,U1,31*%
X143510000Y-95504000D03*
%TO.P,U1,33*%
X146050000Y-95504000D03*
%TO.P,U1,35*%
%TO.N,GND*%
X148590000Y-95504000D03*
%TO.P,U1,37*%
%TO.N,N/C*%
X151130000Y-95504000D03*
%TO.P,U1,39*%
X153670000Y-95504000D03*
%TD*%
D13*
%TO.N,VCC5V*%
X160782000Y-105578000D02*
X160782000Y-105577500D01*
X148590000Y-106934000D02*
X160576000Y-106934000D01*
X160576000Y-106934000D02*
X160782000Y-106728000D01*
X160782000Y-106728000D02*
X160782000Y-105578000D01*
X137440000Y-90170000D02*
X141947500Y-90170000D01*
X147300000Y-112034000D02*
X146050000Y-113284000D01*
X147300000Y-108224000D02*
X147300000Y-112034000D01*
X148590000Y-106934000D02*
X147300000Y-108224000D01*
X161817200Y-89961700D02*
X161817200Y-104542300D01*
X160770300Y-88914800D02*
X161817200Y-89961700D01*
X143203200Y-88914800D02*
X160770300Y-88914800D01*
X161817200Y-104542300D02*
X160782000Y-105577500D01*
X141948000Y-90170000D02*
X143203200Y-88914800D01*
X141947500Y-90170000D02*
X141948000Y-90170000D01*
%TO.N,GND*%
X148700000Y-92330000D02*
X151600000Y-92330000D01*
X151600000Y-92330000D02*
X152156800Y-91772900D01*
X152156800Y-91772900D02*
X159392600Y-91772900D01*
X145072000Y-90511200D02*
X145072500Y-90510700D01*
X145072500Y-90510700D02*
X145072500Y-90170000D01*
X145072000Y-90511200D02*
X145072000Y-90852500D01*
X145072000Y-90852500D02*
X146550000Y-92330000D01*
X146550000Y-92330000D02*
X148700000Y-92330000D01*
X145072000Y-90170000D02*
X145072000Y-90511200D01*
X160782000Y-102702000D02*
X160782000Y-102702500D01*
X133731500Y-105628000D02*
X133731000Y-105627500D01*
X133731500Y-105628000D02*
X135712000Y-105628000D01*
X135712000Y-105628000D02*
X136737000Y-104603000D01*
X136737000Y-104603000D02*
X136737000Y-104573000D01*
X136737000Y-104573000D02*
X136916000Y-104394000D01*
X136916000Y-104394000D02*
X146050000Y-104394000D01*
X133731000Y-105628000D02*
X133731500Y-105628000D01*
X146050000Y-104394000D02*
X148590000Y-104394000D01*
X148590000Y-95504000D02*
X148590000Y-92440000D01*
X148590000Y-92440000D02*
X148700000Y-92330000D01*
X160782000Y-93162300D02*
X159392600Y-91772900D01*
X160782000Y-102702500D02*
X160782000Y-93162300D01*
%TO.N,Net-(D1-Pad2)*%
X133731000Y-102652000D02*
X133731000Y-102652500D01*
X133731000Y-102652000D02*
X133731000Y-92639000D01*
X133731000Y-92639000D02*
X134340000Y-92030000D01*
X134340000Y-92030000D02*
X134340000Y-90170000D01*
%TO.N,mKBD_CLOCK*%
X146216000Y-100584000D02*
X153670000Y-100584000D01*
X146050000Y-100750000D02*
X146216000Y-100584000D01*
X146050000Y-101854000D02*
X146050000Y-100750000D01*
%TO.N,mKBD_DATA*%
X148590000Y-101854000D02*
X150644000Y-101854000D01*
X150644000Y-101854000D02*
X151570000Y-102780000D01*
X151570000Y-102780000D02*
X151570000Y-103660000D01*
X151570000Y-103660000D02*
X152360000Y-104450000D01*
X152360000Y-104450000D02*
X154884000Y-104450000D01*
X154884000Y-104450000D02*
X156210000Y-103124000D01*
%TD*%
D14*
%TO.N,GND*%
X136301595Y-89051613D02*
X136219528Y-89205149D01*
X136168992Y-89371745D01*
X136151928Y-89544999D01*
X136151928Y-90795001D01*
X136168992Y-90968255D01*
X136219528Y-91134851D01*
X136301595Y-91288387D01*
X136412038Y-91422962D01*
X136546613Y-91533405D01*
X136700149Y-91615472D01*
X136866745Y-91666008D01*
X137039999Y-91683072D01*
X137840001Y-91683072D01*
X138013255Y-91666008D01*
X138179851Y-91615472D01*
X138333387Y-91533405D01*
X138467962Y-91422962D01*
X138578405Y-91288387D01*
X138660472Y-91134851D01*
X138711008Y-90968255D01*
X138712177Y-90956390D01*
X138743896Y-90955000D01*
X140611128Y-90955000D01*
X140660436Y-90957156D01*
X140663992Y-90993257D01*
X140714528Y-91159852D01*
X140796595Y-91313388D01*
X140907037Y-91447963D01*
X141041612Y-91558405D01*
X141195148Y-91640472D01*
X141361743Y-91691008D01*
X141534997Y-91708072D01*
X142360003Y-91708072D01*
X142533257Y-91691008D01*
X142699852Y-91640472D01*
X142853388Y-91558405D01*
X142987963Y-91447963D01*
X143098405Y-91313388D01*
X143180472Y-91159852D01*
X143207728Y-91070000D01*
X143771928Y-91070000D01*
X143784188Y-91194482D01*
X143820498Y-91314180D01*
X143879463Y-91424494D01*
X143958815Y-91521185D01*
X144055506Y-91600537D01*
X144165820Y-91659502D01*
X144285518Y-91695812D01*
X144410000Y-91708072D01*
X144786750Y-91705000D01*
X144945500Y-91546250D01*
X144945500Y-90297000D01*
X145199500Y-90297000D01*
X145199500Y-91546250D01*
X145358250Y-91705000D01*
X145735000Y-91708072D01*
X145859482Y-91695812D01*
X145979180Y-91659502D01*
X146089494Y-91600537D01*
X146186185Y-91521185D01*
X146265537Y-91424494D01*
X146324502Y-91314180D01*
X146360812Y-91194482D01*
X146373072Y-91070000D01*
X146370000Y-90455750D01*
X146211250Y-90297000D01*
X145199500Y-90297000D01*
X144945500Y-90297000D01*
X143933750Y-90297000D01*
X143775000Y-90455750D01*
X143771928Y-91070000D01*
X143207728Y-91070000D01*
X143231008Y-90993257D01*
X143248072Y-90820003D01*
X143248072Y-90329185D01*
X143259118Y-90280921D01*
X143265531Y-90249207D01*
X143284274Y-90142599D01*
X143285993Y-90132328D01*
X143300245Y-90042664D01*
X143311709Y-89981977D01*
X143320591Y-89949111D01*
X143328562Y-89929113D01*
X143342904Y-89903529D01*
X143375966Y-89858775D01*
X143448035Y-89780122D01*
X143528357Y-89699800D01*
X143774078Y-89699800D01*
X143775000Y-89884250D01*
X143933750Y-90043000D01*
X144945500Y-90043000D01*
X144945500Y-90023000D01*
X145199500Y-90023000D01*
X145199500Y-90043000D01*
X146211250Y-90043000D01*
X146370000Y-89884250D01*
X146370922Y-89699800D01*
X160445143Y-89699800D01*
X161032200Y-90286858D01*
X161032201Y-101315549D01*
X160909000Y-101438750D01*
X160909000Y-102575500D01*
X160929000Y-102575500D01*
X160929000Y-102829500D01*
X160909000Y-102829500D01*
X160909000Y-103966250D01*
X161032201Y-104089451D01*
X161032201Y-104151928D01*
X160356999Y-104151928D01*
X160183745Y-104168992D01*
X160017149Y-104219528D01*
X159863613Y-104301595D01*
X159729038Y-104412038D01*
X159618595Y-104546613D01*
X159536528Y-104700149D01*
X159485992Y-104866745D01*
X159468928Y-105039999D01*
X159468928Y-106115001D01*
X159472277Y-106149000D01*
X157466223Y-106149000D01*
X157504467Y-106056672D01*
X157556200Y-105796589D01*
X157556200Y-105531411D01*
X157504467Y-105271328D01*
X157402987Y-105026335D01*
X157255662Y-104805847D01*
X157068153Y-104618338D01*
X156847665Y-104471013D01*
X156661740Y-104394000D01*
X156847665Y-104316987D01*
X157068153Y-104169662D01*
X157255662Y-103982153D01*
X157402987Y-103761665D01*
X157504467Y-103516672D01*
X157509772Y-103490000D01*
X159468928Y-103490000D01*
X159481188Y-103614482D01*
X159517498Y-103734180D01*
X159576463Y-103844494D01*
X159655815Y-103941185D01*
X159752506Y-104020537D01*
X159862820Y-104079502D01*
X159982518Y-104115812D01*
X160107000Y-104128072D01*
X160496250Y-104125000D01*
X160655000Y-103966250D01*
X160655000Y-102829500D01*
X159630750Y-102829500D01*
X159472000Y-102988250D01*
X159468928Y-103490000D01*
X157509772Y-103490000D01*
X157556200Y-103256589D01*
X157556200Y-102991411D01*
X157504467Y-102731328D01*
X157402987Y-102486335D01*
X157255662Y-102265847D01*
X157068153Y-102078338D01*
X156847665Y-101931013D01*
X156809007Y-101915000D01*
X159468928Y-101915000D01*
X159472000Y-102416750D01*
X159630750Y-102575500D01*
X160655000Y-102575500D01*
X160655000Y-101438750D01*
X160496250Y-101280000D01*
X160107000Y-101276928D01*
X159982518Y-101289188D01*
X159862820Y-101325498D01*
X159752506Y-101384463D01*
X159655815Y-101463815D01*
X159576463Y-101560506D01*
X159517498Y-101670820D01*
X159481188Y-101790518D01*
X159468928Y-101915000D01*
X156809007Y-101915000D01*
X156661740Y-101854000D01*
X156847665Y-101776987D01*
X157068153Y-101629662D01*
X157255662Y-101442153D01*
X157402987Y-101221665D01*
X157504467Y-100976672D01*
X157556200Y-100716589D01*
X157556200Y-100451411D01*
X157504467Y-100191328D01*
X157402987Y-99946335D01*
X157255662Y-99725847D01*
X157068153Y-99538338D01*
X156847665Y-99391013D01*
X156661740Y-99314000D01*
X156847665Y-99236987D01*
X157068153Y-99089662D01*
X157255662Y-98902153D01*
X157402987Y-98681665D01*
X157504467Y-98436672D01*
X157556200Y-98176589D01*
X157556200Y-97911411D01*
X157504467Y-97651328D01*
X157402987Y-97406335D01*
X157255662Y-97185847D01*
X157068153Y-96998338D01*
X156847665Y-96851013D01*
X156602672Y-96749533D01*
X156342589Y-96697800D01*
X156077411Y-96697800D01*
X155817328Y-96749533D01*
X155572335Y-96851013D01*
X155351847Y-96998338D01*
X155164338Y-97185847D01*
X155017013Y-97406335D01*
X154940000Y-97592260D01*
X154862987Y-97406335D01*
X154715662Y-97185847D01*
X154528153Y-96998338D01*
X154307665Y-96851013D01*
X154121740Y-96774000D01*
X154307665Y-96696987D01*
X154528153Y-96549662D01*
X154715662Y-96362153D01*
X154862987Y-96141665D01*
X154964467Y-95896672D01*
X155016200Y-95636589D01*
X155016200Y-95371411D01*
X154964467Y-95111328D01*
X154862987Y-94866335D01*
X154715662Y-94645847D01*
X154528153Y-94458338D01*
X154307665Y-94311013D01*
X154062672Y-94209533D01*
X153802589Y-94157800D01*
X153537411Y-94157800D01*
X153277328Y-94209533D01*
X153032335Y-94311013D01*
X152811847Y-94458338D01*
X152624338Y-94645847D01*
X152477013Y-94866335D01*
X152400000Y-95052260D01*
X152322987Y-94866335D01*
X152175662Y-94645847D01*
X151988153Y-94458338D01*
X151767665Y-94311013D01*
X151522672Y-94209533D01*
X151262589Y-94157800D01*
X150997411Y-94157800D01*
X150737328Y-94209533D01*
X150492335Y-94311013D01*
X150271847Y-94458338D01*
X150084338Y-94645847D01*
X149937013Y-94866335D01*
X149859031Y-95054600D01*
X149809542Y-94918720D01*
X149754183Y-94815152D01*
X149519273Y-94754332D01*
X148769605Y-95504000D01*
X149519273Y-96253668D01*
X149754183Y-96192848D01*
X149862206Y-95961066D01*
X149937013Y-96141665D01*
X150084338Y-96362153D01*
X150271847Y-96549662D01*
X150492335Y-96696987D01*
X150678260Y-96774000D01*
X150492335Y-96851013D01*
X150271847Y-96998338D01*
X150084338Y-97185847D01*
X149937013Y-97406335D01*
X149860000Y-97592260D01*
X149782987Y-97406335D01*
X149635662Y-97185847D01*
X149448153Y-96998338D01*
X149227665Y-96851013D01*
X149039400Y-96773031D01*
X149175280Y-96723542D01*
X149278848Y-96668183D01*
X149339668Y-96433273D01*
X148590000Y-95683605D01*
X147840332Y-96433273D01*
X147901152Y-96668183D01*
X148132934Y-96776206D01*
X147952335Y-96851013D01*
X147731847Y-96998338D01*
X147544338Y-97185847D01*
X147397013Y-97406335D01*
X147320000Y-97592260D01*
X147242987Y-97406335D01*
X147095662Y-97185847D01*
X146908153Y-96998338D01*
X146687665Y-96851013D01*
X146501740Y-96774000D01*
X146687665Y-96696987D01*
X146908153Y-96549662D01*
X147095662Y-96362153D01*
X147242987Y-96141665D01*
X147320969Y-95953400D01*
X147370458Y-96089280D01*
X147425817Y-96192848D01*
X147660727Y-96253668D01*
X148410395Y-95504000D01*
X147660727Y-94754332D01*
X147425817Y-94815152D01*
X147317794Y-95046934D01*
X147242987Y-94866335D01*
X147095662Y-94645847D01*
X147024542Y-94574727D01*
X147840332Y-94574727D01*
X148590000Y-95324395D01*
X149339668Y-94574727D01*
X149278848Y-94339817D01*
X149038491Y-94227798D01*
X148780898Y-94164824D01*
X148515970Y-94153313D01*
X148253887Y-94193709D01*
X148004720Y-94284458D01*
X147901152Y-94339817D01*
X147840332Y-94574727D01*
X147024542Y-94574727D01*
X146908153Y-94458338D01*
X146687665Y-94311013D01*
X146442672Y-94209533D01*
X146182589Y-94157800D01*
X145917411Y-94157800D01*
X145657328Y-94209533D01*
X145412335Y-94311013D01*
X145191847Y-94458338D01*
X145004338Y-94645847D01*
X144857013Y-94866335D01*
X144780000Y-95052260D01*
X144702987Y-94866335D01*
X144555662Y-94645847D01*
X144368153Y-94458338D01*
X144147665Y-94311013D01*
X143902672Y-94209533D01*
X143642589Y-94157800D01*
X143377411Y-94157800D01*
X143117328Y-94209533D01*
X142872335Y-94311013D01*
X142651847Y-94458338D01*
X142464338Y-94645847D01*
X142317013Y-94866335D01*
X142240000Y-95052260D01*
X142162987Y-94866335D01*
X142015662Y-94645847D01*
X141828153Y-94458338D01*
X141607665Y-94311013D01*
X141362672Y-94209533D01*
X141102589Y-94157800D01*
X140837411Y-94157800D01*
X140577328Y-94209533D01*
X140332335Y-94311013D01*
X140111847Y-94458338D01*
X139924338Y-94645847D01*
X139777013Y-94866335D01*
X139675533Y-95111328D01*
X139623800Y-95371411D01*
X139623800Y-95636589D01*
X139675533Y-95896672D01*
X139777013Y-96141665D01*
X139924338Y-96362153D01*
X140111847Y-96549662D01*
X140332335Y-96696987D01*
X140518260Y-96774000D01*
X140332335Y-96851013D01*
X140111847Y-96998338D01*
X139924338Y-97185847D01*
X139777013Y-97406335D01*
X139700000Y-97592260D01*
X139622987Y-97406335D01*
X139475662Y-97185847D01*
X139288153Y-96998338D01*
X139067665Y-96851013D01*
X138822672Y-96749533D01*
X138562589Y-96697800D01*
X138297411Y-96697800D01*
X138037328Y-96749533D01*
X137792335Y-96851013D01*
X137571847Y-96998338D01*
X137384338Y-97185847D01*
X137237013Y-97406335D01*
X137135533Y-97651328D01*
X137083800Y-97911411D01*
X137083800Y-98176589D01*
X137135533Y-98436672D01*
X137237013Y-98681665D01*
X137384338Y-98902153D01*
X137571847Y-99089662D01*
X137792335Y-99236987D01*
X137978260Y-99314000D01*
X137792335Y-99391013D01*
X137571847Y-99538338D01*
X137384338Y-99725847D01*
X137237013Y-99946335D01*
X137135533Y-100191328D01*
X137083800Y-100451411D01*
X137083800Y-100716589D01*
X137135533Y-100976672D01*
X137237013Y-101221665D01*
X137384338Y-101442153D01*
X137571847Y-101629662D01*
X137792335Y-101776987D01*
X137978260Y-101854000D01*
X137792335Y-101931013D01*
X137571847Y-102078338D01*
X137384338Y-102265847D01*
X137237013Y-102486335D01*
X137135533Y-102731328D01*
X137083800Y-102991411D01*
X137083800Y-103256589D01*
X137135533Y-103516672D01*
X137237013Y-103761665D01*
X137384338Y-103982153D01*
X137571847Y-104169662D01*
X137792335Y-104316987D01*
X137978260Y-104394000D01*
X137792335Y-104471013D01*
X137571847Y-104618338D01*
X137384338Y-104805847D01*
X137237013Y-105026335D01*
X137135533Y-105271328D01*
X137083800Y-105531411D01*
X137083800Y-105796589D01*
X137135533Y-106056672D01*
X137237013Y-106301665D01*
X137384338Y-106522153D01*
X137571847Y-106709662D01*
X137792335Y-106856987D01*
X137978260Y-106934000D01*
X137792335Y-107011013D01*
X137571847Y-107158338D01*
X137384338Y-107345847D01*
X137237013Y-107566335D01*
X137135533Y-107811328D01*
X137083800Y-108071411D01*
X137083800Y-108336589D01*
X137135533Y-108596672D01*
X137237013Y-108841665D01*
X137384338Y-109062153D01*
X137571847Y-109249662D01*
X137792335Y-109396987D01*
X137978260Y-109474000D01*
X137792335Y-109551013D01*
X137571847Y-109698338D01*
X137384338Y-109885847D01*
X137237013Y-110106335D01*
X137135533Y-110351328D01*
X137083800Y-110611411D01*
X137083800Y-110876589D01*
X137135533Y-111136672D01*
X137237013Y-111381665D01*
X137384338Y-111602153D01*
X137571847Y-111789662D01*
X137792335Y-111936987D01*
X138037328Y-112038467D01*
X138297411Y-112090200D01*
X138562589Y-112090200D01*
X138822672Y-112038467D01*
X139067665Y-111936987D01*
X139288153Y-111789662D01*
X139475662Y-111602153D01*
X139622987Y-111381665D01*
X139700000Y-111195740D01*
X139777013Y-111381665D01*
X139924338Y-111602153D01*
X140111847Y-111789662D01*
X140332335Y-111936987D01*
X140518260Y-112014000D01*
X140332335Y-112091013D01*
X140111847Y-112238338D01*
X139924338Y-112425847D01*
X139777013Y-112646335D01*
X139675533Y-112891328D01*
X139623800Y-113151411D01*
X139623800Y-113416589D01*
X139675533Y-113676672D01*
X139777013Y-113921665D01*
X139924338Y-114142153D01*
X140111847Y-114329662D01*
X140332335Y-114476987D01*
X140577328Y-114578467D01*
X140837411Y-114630200D01*
X141102589Y-114630200D01*
X141362672Y-114578467D01*
X141607665Y-114476987D01*
X141828153Y-114329662D01*
X142015662Y-114142153D01*
X142162987Y-113921665D01*
X142240000Y-113735740D01*
X142317013Y-113921665D01*
X142464338Y-114142153D01*
X142651847Y-114329662D01*
X142872335Y-114476987D01*
X143117328Y-114578467D01*
X143377411Y-114630200D01*
X143642589Y-114630200D01*
X143902672Y-114578467D01*
X144147665Y-114476987D01*
X144368153Y-114329662D01*
X144555662Y-114142153D01*
X144702987Y-113921665D01*
X144780000Y-113735740D01*
X144857013Y-113921665D01*
X145004338Y-114142153D01*
X145191847Y-114329662D01*
X145412335Y-114476987D01*
X145657328Y-114578467D01*
X145917411Y-114630200D01*
X146182589Y-114630200D01*
X146442672Y-114578467D01*
X146687665Y-114476987D01*
X146908153Y-114329662D01*
X147095662Y-114142153D01*
X147242987Y-113921665D01*
X147320000Y-113735740D01*
X147397013Y-113921665D01*
X147544338Y-114142153D01*
X147731847Y-114329662D01*
X147952335Y-114476987D01*
X148197328Y-114578467D01*
X148457411Y-114630200D01*
X148722589Y-114630200D01*
X148982672Y-114578467D01*
X149227665Y-114476987D01*
X149448153Y-114329662D01*
X149635662Y-114142153D01*
X149782987Y-113921665D01*
X149860000Y-113735740D01*
X149937013Y-113921665D01*
X150084338Y-114142153D01*
X150271847Y-114329662D01*
X150492335Y-114476987D01*
X150737328Y-114578467D01*
X150997411Y-114630200D01*
X151262589Y-114630200D01*
X151522672Y-114578467D01*
X151767665Y-114476987D01*
X151988153Y-114329662D01*
X152175662Y-114142153D01*
X152322987Y-113921665D01*
X152400000Y-113735740D01*
X152477013Y-113921665D01*
X152624338Y-114142153D01*
X152811847Y-114329662D01*
X153032335Y-114476987D01*
X153277328Y-114578467D01*
X153537411Y-114630200D01*
X153802589Y-114630200D01*
X154062672Y-114578467D01*
X154307665Y-114476987D01*
X154528153Y-114329662D01*
X154715662Y-114142153D01*
X154862987Y-113921665D01*
X154964467Y-113676672D01*
X155016200Y-113416589D01*
X155016200Y-113151411D01*
X154964467Y-112891328D01*
X154862987Y-112646335D01*
X154715662Y-112425847D01*
X154528153Y-112238338D01*
X154307665Y-112091013D01*
X154121740Y-112014000D01*
X154307665Y-111936987D01*
X154528153Y-111789662D01*
X154715662Y-111602153D01*
X154862987Y-111381665D01*
X154940000Y-111195740D01*
X155017013Y-111381665D01*
X155164338Y-111602153D01*
X155351847Y-111789662D01*
X155572335Y-111936987D01*
X155817328Y-112038467D01*
X156077411Y-112090200D01*
X156342589Y-112090200D01*
X156602672Y-112038467D01*
X156847665Y-111936987D01*
X157068153Y-111789662D01*
X157255662Y-111602153D01*
X157402987Y-111381665D01*
X157504467Y-111136672D01*
X157556200Y-110876589D01*
X157556200Y-110611411D01*
X157504467Y-110351328D01*
X157402987Y-110106335D01*
X157255662Y-109885847D01*
X157068153Y-109698338D01*
X156847665Y-109551013D01*
X156661740Y-109474000D01*
X156847665Y-109396987D01*
X157068153Y-109249662D01*
X157255662Y-109062153D01*
X157402987Y-108841665D01*
X157504467Y-108596672D01*
X157556200Y-108336589D01*
X157556200Y-108071411D01*
X157504467Y-107811328D01*
X157466223Y-107719000D01*
X160537447Y-107719000D01*
X160576000Y-107722797D01*
X160614553Y-107719000D01*
X160614561Y-107719000D01*
X160729887Y-107707641D01*
X160877860Y-107662754D01*
X161014233Y-107589862D01*
X161133764Y-107491764D01*
X161158347Y-107461810D01*
X161309811Y-107310346D01*
X161339764Y-107285764D01*
X161437862Y-107166233D01*
X161510754Y-107029860D01*
X161538630Y-106937966D01*
X161546851Y-106935472D01*
X161700387Y-106853405D01*
X161834962Y-106742962D01*
X161850001Y-106724637D01*
X161850001Y-118670000D01*
X132790000Y-118670000D01*
X132790000Y-106971572D01*
X132856000Y-106978072D01*
X133445250Y-106975000D01*
X133604000Y-106816250D01*
X133604000Y-105754500D01*
X133858000Y-105754500D01*
X133858000Y-106816250D01*
X134016750Y-106975000D01*
X134606000Y-106978072D01*
X134730482Y-106965812D01*
X134850180Y-106929502D01*
X134960494Y-106870537D01*
X135057185Y-106791185D01*
X135136537Y-106694494D01*
X135195502Y-106584180D01*
X135231812Y-106464482D01*
X135244072Y-106340000D01*
X135241000Y-105913250D01*
X135082250Y-105754500D01*
X133858000Y-105754500D01*
X133604000Y-105754500D01*
X133584000Y-105754500D01*
X133584000Y-105500500D01*
X133604000Y-105500500D01*
X133604000Y-104438750D01*
X133858000Y-104438750D01*
X133858000Y-105500500D01*
X135082250Y-105500500D01*
X135241000Y-105341750D01*
X135244072Y-104915000D01*
X135231812Y-104790518D01*
X135195502Y-104670820D01*
X135136537Y-104560506D01*
X135057185Y-104463815D01*
X134960494Y-104384463D01*
X134850180Y-104325498D01*
X134730482Y-104289188D01*
X134606000Y-104276928D01*
X134016750Y-104280000D01*
X133858000Y-104438750D01*
X133604000Y-104438750D01*
X133445250Y-104280000D01*
X132856000Y-104276928D01*
X132790000Y-104283428D01*
X132790000Y-103942707D01*
X132932746Y-103986008D01*
X133106000Y-104003072D01*
X134356000Y-104003072D01*
X134529254Y-103986008D01*
X134695850Y-103935472D01*
X134849386Y-103853405D01*
X134983962Y-103742962D01*
X135094405Y-103608386D01*
X135176472Y-103454850D01*
X135227008Y-103288254D01*
X135244072Y-103115000D01*
X135244072Y-102190000D01*
X135227008Y-102016746D01*
X135176472Y-101850150D01*
X135094405Y-101696614D01*
X134983962Y-101562038D01*
X134849386Y-101451595D01*
X134695850Y-101369528D01*
X134529254Y-101318992D01*
X134520657Y-101318145D01*
X134516000Y-101215152D01*
X134516000Y-92964157D01*
X134867816Y-92612342D01*
X134897764Y-92587764D01*
X134995862Y-92468233D01*
X135068754Y-92331860D01*
X135113641Y-92183887D01*
X135125000Y-92068561D01*
X135125000Y-92068554D01*
X135128797Y-92030001D01*
X135125000Y-91991448D01*
X135125000Y-91591339D01*
X135233387Y-91533405D01*
X135367962Y-91422962D01*
X135478405Y-91288387D01*
X135560472Y-91134851D01*
X135611008Y-90968255D01*
X135628072Y-90795001D01*
X135628072Y-89544999D01*
X135611008Y-89371745D01*
X135560472Y-89205149D01*
X135478405Y-89051613D01*
X135415530Y-88975000D01*
X136364470Y-88975000D01*
X136301595Y-89051613D01*
%TA.AperFunction,Conductor*%
D15*
G36*
X136301595Y-89051613D02*
G01*
X136219528Y-89205149D01*
X136168992Y-89371745D01*
X136151928Y-89544999D01*
X136151928Y-90795001D01*
X136168992Y-90968255D01*
X136219528Y-91134851D01*
X136301595Y-91288387D01*
X136412038Y-91422962D01*
X136546613Y-91533405D01*
X136700149Y-91615472D01*
X136866745Y-91666008D01*
X137039999Y-91683072D01*
X137840001Y-91683072D01*
X138013255Y-91666008D01*
X138179851Y-91615472D01*
X138333387Y-91533405D01*
X138467962Y-91422962D01*
X138578405Y-91288387D01*
X138660472Y-91134851D01*
X138711008Y-90968255D01*
X138712177Y-90956390D01*
X138743896Y-90955000D01*
X140611128Y-90955000D01*
X140660436Y-90957156D01*
X140663992Y-90993257D01*
X140714528Y-91159852D01*
X140796595Y-91313388D01*
X140907037Y-91447963D01*
X141041612Y-91558405D01*
X141195148Y-91640472D01*
X141361743Y-91691008D01*
X141534997Y-91708072D01*
X142360003Y-91708072D01*
X142533257Y-91691008D01*
X142699852Y-91640472D01*
X142853388Y-91558405D01*
X142987963Y-91447963D01*
X143098405Y-91313388D01*
X143180472Y-91159852D01*
X143207728Y-91070000D01*
X143771928Y-91070000D01*
X143784188Y-91194482D01*
X143820498Y-91314180D01*
X143879463Y-91424494D01*
X143958815Y-91521185D01*
X144055506Y-91600537D01*
X144165820Y-91659502D01*
X144285518Y-91695812D01*
X144410000Y-91708072D01*
X144786750Y-91705000D01*
X144945500Y-91546250D01*
X144945500Y-90297000D01*
X145199500Y-90297000D01*
X145199500Y-91546250D01*
X145358250Y-91705000D01*
X145735000Y-91708072D01*
X145859482Y-91695812D01*
X145979180Y-91659502D01*
X146089494Y-91600537D01*
X146186185Y-91521185D01*
X146265537Y-91424494D01*
X146324502Y-91314180D01*
X146360812Y-91194482D01*
X146373072Y-91070000D01*
X146370000Y-90455750D01*
X146211250Y-90297000D01*
X145199500Y-90297000D01*
X144945500Y-90297000D01*
X143933750Y-90297000D01*
X143775000Y-90455750D01*
X143771928Y-91070000D01*
X143207728Y-91070000D01*
X143231008Y-90993257D01*
X143248072Y-90820003D01*
X143248072Y-90329185D01*
X143259118Y-90280921D01*
X143265531Y-90249207D01*
X143284274Y-90142599D01*
X143285993Y-90132328D01*
X143300245Y-90042664D01*
X143311709Y-89981977D01*
X143320591Y-89949111D01*
X143328562Y-89929113D01*
X143342904Y-89903529D01*
X143375966Y-89858775D01*
X143448035Y-89780122D01*
X143528357Y-89699800D01*
X143774078Y-89699800D01*
X143775000Y-89884250D01*
X143933750Y-90043000D01*
X144945500Y-90043000D01*
X144945500Y-90023000D01*
X145199500Y-90023000D01*
X145199500Y-90043000D01*
X146211250Y-90043000D01*
X146370000Y-89884250D01*
X146370922Y-89699800D01*
X160445143Y-89699800D01*
X161032200Y-90286858D01*
X161032201Y-101315549D01*
X160909000Y-101438750D01*
X160909000Y-102575500D01*
X160929000Y-102575500D01*
X160929000Y-102829500D01*
X160909000Y-102829500D01*
X160909000Y-103966250D01*
X161032201Y-104089451D01*
X161032201Y-104151928D01*
X160356999Y-104151928D01*
X160183745Y-104168992D01*
X160017149Y-104219528D01*
X159863613Y-104301595D01*
X159729038Y-104412038D01*
X159618595Y-104546613D01*
X159536528Y-104700149D01*
X159485992Y-104866745D01*
X159468928Y-105039999D01*
X159468928Y-106115001D01*
X159472277Y-106149000D01*
X157466223Y-106149000D01*
X157504467Y-106056672D01*
X157556200Y-105796589D01*
X157556200Y-105531411D01*
X157504467Y-105271328D01*
X157402987Y-105026335D01*
X157255662Y-104805847D01*
X157068153Y-104618338D01*
X156847665Y-104471013D01*
X156661740Y-104394000D01*
X156847665Y-104316987D01*
X157068153Y-104169662D01*
X157255662Y-103982153D01*
X157402987Y-103761665D01*
X157504467Y-103516672D01*
X157509772Y-103490000D01*
X159468928Y-103490000D01*
X159481188Y-103614482D01*
X159517498Y-103734180D01*
X159576463Y-103844494D01*
X159655815Y-103941185D01*
X159752506Y-104020537D01*
X159862820Y-104079502D01*
X159982518Y-104115812D01*
X160107000Y-104128072D01*
X160496250Y-104125000D01*
X160655000Y-103966250D01*
X160655000Y-102829500D01*
X159630750Y-102829500D01*
X159472000Y-102988250D01*
X159468928Y-103490000D01*
X157509772Y-103490000D01*
X157556200Y-103256589D01*
X157556200Y-102991411D01*
X157504467Y-102731328D01*
X157402987Y-102486335D01*
X157255662Y-102265847D01*
X157068153Y-102078338D01*
X156847665Y-101931013D01*
X156809007Y-101915000D01*
X159468928Y-101915000D01*
X159472000Y-102416750D01*
X159630750Y-102575500D01*
X160655000Y-102575500D01*
X160655000Y-101438750D01*
X160496250Y-101280000D01*
X160107000Y-101276928D01*
X159982518Y-101289188D01*
X159862820Y-101325498D01*
X159752506Y-101384463D01*
X159655815Y-101463815D01*
X159576463Y-101560506D01*
X159517498Y-101670820D01*
X159481188Y-101790518D01*
X159468928Y-101915000D01*
X156809007Y-101915000D01*
X156661740Y-101854000D01*
X156847665Y-101776987D01*
X157068153Y-101629662D01*
X157255662Y-101442153D01*
X157402987Y-101221665D01*
X157504467Y-100976672D01*
X157556200Y-100716589D01*
X157556200Y-100451411D01*
X157504467Y-100191328D01*
X157402987Y-99946335D01*
X157255662Y-99725847D01*
X157068153Y-99538338D01*
X156847665Y-99391013D01*
X156661740Y-99314000D01*
X156847665Y-99236987D01*
X157068153Y-99089662D01*
X157255662Y-98902153D01*
X157402987Y-98681665D01*
X157504467Y-98436672D01*
X157556200Y-98176589D01*
X157556200Y-97911411D01*
X157504467Y-97651328D01*
X157402987Y-97406335D01*
X157255662Y-97185847D01*
X157068153Y-96998338D01*
X156847665Y-96851013D01*
X156602672Y-96749533D01*
X156342589Y-96697800D01*
X156077411Y-96697800D01*
X155817328Y-96749533D01*
X155572335Y-96851013D01*
X155351847Y-96998338D01*
X155164338Y-97185847D01*
X155017013Y-97406335D01*
X154940000Y-97592260D01*
X154862987Y-97406335D01*
X154715662Y-97185847D01*
X154528153Y-96998338D01*
X154307665Y-96851013D01*
X154121740Y-96774000D01*
X154307665Y-96696987D01*
X154528153Y-96549662D01*
X154715662Y-96362153D01*
X154862987Y-96141665D01*
X154964467Y-95896672D01*
X155016200Y-95636589D01*
X155016200Y-95371411D01*
X154964467Y-95111328D01*
X154862987Y-94866335D01*
X154715662Y-94645847D01*
X154528153Y-94458338D01*
X154307665Y-94311013D01*
X154062672Y-94209533D01*
X153802589Y-94157800D01*
X153537411Y-94157800D01*
X153277328Y-94209533D01*
X153032335Y-94311013D01*
X152811847Y-94458338D01*
X152624338Y-94645847D01*
X152477013Y-94866335D01*
X152400000Y-95052260D01*
X152322987Y-94866335D01*
X152175662Y-94645847D01*
X151988153Y-94458338D01*
X151767665Y-94311013D01*
X151522672Y-94209533D01*
X151262589Y-94157800D01*
X150997411Y-94157800D01*
X150737328Y-94209533D01*
X150492335Y-94311013D01*
X150271847Y-94458338D01*
X150084338Y-94645847D01*
X149937013Y-94866335D01*
X149859031Y-95054600D01*
X149809542Y-94918720D01*
X149754183Y-94815152D01*
X149519273Y-94754332D01*
X148769605Y-95504000D01*
X149519273Y-96253668D01*
X149754183Y-96192848D01*
X149862206Y-95961066D01*
X149937013Y-96141665D01*
X150084338Y-96362153D01*
X150271847Y-96549662D01*
X150492335Y-96696987D01*
X150678260Y-96774000D01*
X150492335Y-96851013D01*
X150271847Y-96998338D01*
X150084338Y-97185847D01*
X149937013Y-97406335D01*
X149860000Y-97592260D01*
X149782987Y-97406335D01*
X149635662Y-97185847D01*
X149448153Y-96998338D01*
X149227665Y-96851013D01*
X149039400Y-96773031D01*
X149175280Y-96723542D01*
X149278848Y-96668183D01*
X149339668Y-96433273D01*
X148590000Y-95683605D01*
X147840332Y-96433273D01*
X147901152Y-96668183D01*
X148132934Y-96776206D01*
X147952335Y-96851013D01*
X147731847Y-96998338D01*
X147544338Y-97185847D01*
X147397013Y-97406335D01*
X147320000Y-97592260D01*
X147242987Y-97406335D01*
X147095662Y-97185847D01*
X146908153Y-96998338D01*
X146687665Y-96851013D01*
X146501740Y-96774000D01*
X146687665Y-96696987D01*
X146908153Y-96549662D01*
X147095662Y-96362153D01*
X147242987Y-96141665D01*
X147320969Y-95953400D01*
X147370458Y-96089280D01*
X147425817Y-96192848D01*
X147660727Y-96253668D01*
X148410395Y-95504000D01*
X147660727Y-94754332D01*
X147425817Y-94815152D01*
X147317794Y-95046934D01*
X147242987Y-94866335D01*
X147095662Y-94645847D01*
X147024542Y-94574727D01*
X147840332Y-94574727D01*
X148590000Y-95324395D01*
X149339668Y-94574727D01*
X149278848Y-94339817D01*
X149038491Y-94227798D01*
X148780898Y-94164824D01*
X148515970Y-94153313D01*
X148253887Y-94193709D01*
X148004720Y-94284458D01*
X147901152Y-94339817D01*
X147840332Y-94574727D01*
X147024542Y-94574727D01*
X146908153Y-94458338D01*
X146687665Y-94311013D01*
X146442672Y-94209533D01*
X146182589Y-94157800D01*
X145917411Y-94157800D01*
X145657328Y-94209533D01*
X145412335Y-94311013D01*
X145191847Y-94458338D01*
X145004338Y-94645847D01*
X144857013Y-94866335D01*
X144780000Y-95052260D01*
X144702987Y-94866335D01*
X144555662Y-94645847D01*
X144368153Y-94458338D01*
X144147665Y-94311013D01*
X143902672Y-94209533D01*
X143642589Y-94157800D01*
X143377411Y-94157800D01*
X143117328Y-94209533D01*
X142872335Y-94311013D01*
X142651847Y-94458338D01*
X142464338Y-94645847D01*
X142317013Y-94866335D01*
X142240000Y-95052260D01*
X142162987Y-94866335D01*
X142015662Y-94645847D01*
X141828153Y-94458338D01*
X141607665Y-94311013D01*
X141362672Y-94209533D01*
X141102589Y-94157800D01*
X140837411Y-94157800D01*
X140577328Y-94209533D01*
X140332335Y-94311013D01*
X140111847Y-94458338D01*
X139924338Y-94645847D01*
X139777013Y-94866335D01*
X139675533Y-95111328D01*
X139623800Y-95371411D01*
X139623800Y-95636589D01*
X139675533Y-95896672D01*
X139777013Y-96141665D01*
X139924338Y-96362153D01*
X140111847Y-96549662D01*
X140332335Y-96696987D01*
X140518260Y-96774000D01*
X140332335Y-96851013D01*
X140111847Y-96998338D01*
X139924338Y-97185847D01*
X139777013Y-97406335D01*
X139700000Y-97592260D01*
X139622987Y-97406335D01*
X139475662Y-97185847D01*
X139288153Y-96998338D01*
X139067665Y-96851013D01*
X138822672Y-96749533D01*
X138562589Y-96697800D01*
X138297411Y-96697800D01*
X138037328Y-96749533D01*
X137792335Y-96851013D01*
X137571847Y-96998338D01*
X137384338Y-97185847D01*
X137237013Y-97406335D01*
X137135533Y-97651328D01*
X137083800Y-97911411D01*
X137083800Y-98176589D01*
X137135533Y-98436672D01*
X137237013Y-98681665D01*
X137384338Y-98902153D01*
X137571847Y-99089662D01*
X137792335Y-99236987D01*
X137978260Y-99314000D01*
X137792335Y-99391013D01*
X137571847Y-99538338D01*
X137384338Y-99725847D01*
X137237013Y-99946335D01*
X137135533Y-100191328D01*
X137083800Y-100451411D01*
X137083800Y-100716589D01*
X137135533Y-100976672D01*
X137237013Y-101221665D01*
X137384338Y-101442153D01*
X137571847Y-101629662D01*
X137792335Y-101776987D01*
X137978260Y-101854000D01*
X137792335Y-101931013D01*
X137571847Y-102078338D01*
X137384338Y-102265847D01*
X137237013Y-102486335D01*
X137135533Y-102731328D01*
X137083800Y-102991411D01*
X137083800Y-103256589D01*
X137135533Y-103516672D01*
X137237013Y-103761665D01*
X137384338Y-103982153D01*
X137571847Y-104169662D01*
X137792335Y-104316987D01*
X137978260Y-104394000D01*
X137792335Y-104471013D01*
X137571847Y-104618338D01*
X137384338Y-104805847D01*
X137237013Y-105026335D01*
X137135533Y-105271328D01*
X137083800Y-105531411D01*
X137083800Y-105796589D01*
X137135533Y-106056672D01*
X137237013Y-106301665D01*
X137384338Y-106522153D01*
X137571847Y-106709662D01*
X137792335Y-106856987D01*
X137978260Y-106934000D01*
X137792335Y-107011013D01*
X137571847Y-107158338D01*
X137384338Y-107345847D01*
X137237013Y-107566335D01*
X137135533Y-107811328D01*
X137083800Y-108071411D01*
X137083800Y-108336589D01*
X137135533Y-108596672D01*
X137237013Y-108841665D01*
X137384338Y-109062153D01*
X137571847Y-109249662D01*
X137792335Y-109396987D01*
X137978260Y-109474000D01*
X137792335Y-109551013D01*
X137571847Y-109698338D01*
X137384338Y-109885847D01*
X137237013Y-110106335D01*
X137135533Y-110351328D01*
X137083800Y-110611411D01*
X137083800Y-110876589D01*
X137135533Y-111136672D01*
X137237013Y-111381665D01*
X137384338Y-111602153D01*
X137571847Y-111789662D01*
X137792335Y-111936987D01*
X138037328Y-112038467D01*
X138297411Y-112090200D01*
X138562589Y-112090200D01*
X138822672Y-112038467D01*
X139067665Y-111936987D01*
X139288153Y-111789662D01*
X139475662Y-111602153D01*
X139622987Y-111381665D01*
X139700000Y-111195740D01*
X139777013Y-111381665D01*
X139924338Y-111602153D01*
X140111847Y-111789662D01*
X140332335Y-111936987D01*
X140518260Y-112014000D01*
X140332335Y-112091013D01*
X140111847Y-112238338D01*
X139924338Y-112425847D01*
X139777013Y-112646335D01*
X139675533Y-112891328D01*
X139623800Y-113151411D01*
X139623800Y-113416589D01*
X139675533Y-113676672D01*
X139777013Y-113921665D01*
X139924338Y-114142153D01*
X140111847Y-114329662D01*
X140332335Y-114476987D01*
X140577328Y-114578467D01*
X140837411Y-114630200D01*
X141102589Y-114630200D01*
X141362672Y-114578467D01*
X141607665Y-114476987D01*
X141828153Y-114329662D01*
X142015662Y-114142153D01*
X142162987Y-113921665D01*
X142240000Y-113735740D01*
X142317013Y-113921665D01*
X142464338Y-114142153D01*
X142651847Y-114329662D01*
X142872335Y-114476987D01*
X143117328Y-114578467D01*
X143377411Y-114630200D01*
X143642589Y-114630200D01*
X143902672Y-114578467D01*
X144147665Y-114476987D01*
X144368153Y-114329662D01*
X144555662Y-114142153D01*
X144702987Y-113921665D01*
X144780000Y-113735740D01*
X144857013Y-113921665D01*
X145004338Y-114142153D01*
X145191847Y-114329662D01*
X145412335Y-114476987D01*
X145657328Y-114578467D01*
X145917411Y-114630200D01*
X146182589Y-114630200D01*
X146442672Y-114578467D01*
X146687665Y-114476987D01*
X146908153Y-114329662D01*
X147095662Y-114142153D01*
X147242987Y-113921665D01*
X147320000Y-113735740D01*
X147397013Y-113921665D01*
X147544338Y-114142153D01*
X147731847Y-114329662D01*
X147952335Y-114476987D01*
X148197328Y-114578467D01*
X148457411Y-114630200D01*
X148722589Y-114630200D01*
X148982672Y-114578467D01*
X149227665Y-114476987D01*
X149448153Y-114329662D01*
X149635662Y-114142153D01*
X149782987Y-113921665D01*
X149860000Y-113735740D01*
X149937013Y-113921665D01*
X150084338Y-114142153D01*
X150271847Y-114329662D01*
X150492335Y-114476987D01*
X150737328Y-114578467D01*
X150997411Y-114630200D01*
X151262589Y-114630200D01*
X151522672Y-114578467D01*
X151767665Y-114476987D01*
X151988153Y-114329662D01*
X152175662Y-114142153D01*
X152322987Y-113921665D01*
X152400000Y-113735740D01*
X152477013Y-113921665D01*
X152624338Y-114142153D01*
X152811847Y-114329662D01*
X153032335Y-114476987D01*
X153277328Y-114578467D01*
X153537411Y-114630200D01*
X153802589Y-114630200D01*
X154062672Y-114578467D01*
X154307665Y-114476987D01*
X154528153Y-114329662D01*
X154715662Y-114142153D01*
X154862987Y-113921665D01*
X154964467Y-113676672D01*
X155016200Y-113416589D01*
X155016200Y-113151411D01*
X154964467Y-112891328D01*
X154862987Y-112646335D01*
X154715662Y-112425847D01*
X154528153Y-112238338D01*
X154307665Y-112091013D01*
X154121740Y-112014000D01*
X154307665Y-111936987D01*
X154528153Y-111789662D01*
X154715662Y-111602153D01*
X154862987Y-111381665D01*
X154940000Y-111195740D01*
X155017013Y-111381665D01*
X155164338Y-111602153D01*
X155351847Y-111789662D01*
X155572335Y-111936987D01*
X155817328Y-112038467D01*
X156077411Y-112090200D01*
X156342589Y-112090200D01*
X156602672Y-112038467D01*
X156847665Y-111936987D01*
X157068153Y-111789662D01*
X157255662Y-111602153D01*
X157402987Y-111381665D01*
X157504467Y-111136672D01*
X157556200Y-110876589D01*
X157556200Y-110611411D01*
X157504467Y-110351328D01*
X157402987Y-110106335D01*
X157255662Y-109885847D01*
X157068153Y-109698338D01*
X156847665Y-109551013D01*
X156661740Y-109474000D01*
X156847665Y-109396987D01*
X157068153Y-109249662D01*
X157255662Y-109062153D01*
X157402987Y-108841665D01*
X157504467Y-108596672D01*
X157556200Y-108336589D01*
X157556200Y-108071411D01*
X157504467Y-107811328D01*
X157466223Y-107719000D01*
X160537447Y-107719000D01*
X160576000Y-107722797D01*
X160614553Y-107719000D01*
X160614561Y-107719000D01*
X160729887Y-107707641D01*
X160877860Y-107662754D01*
X161014233Y-107589862D01*
X161133764Y-107491764D01*
X161158347Y-107461810D01*
X161309811Y-107310346D01*
X161339764Y-107285764D01*
X161437862Y-107166233D01*
X161510754Y-107029860D01*
X161538630Y-106937966D01*
X161546851Y-106935472D01*
X161700387Y-106853405D01*
X161834962Y-106742962D01*
X161850001Y-106724637D01*
X161850001Y-118670000D01*
X132790000Y-118670000D01*
X132790000Y-106971572D01*
X132856000Y-106978072D01*
X133445250Y-106975000D01*
X133604000Y-106816250D01*
X133604000Y-105754500D01*
X133858000Y-105754500D01*
X133858000Y-106816250D01*
X134016750Y-106975000D01*
X134606000Y-106978072D01*
X134730482Y-106965812D01*
X134850180Y-106929502D01*
X134960494Y-106870537D01*
X135057185Y-106791185D01*
X135136537Y-106694494D01*
X135195502Y-106584180D01*
X135231812Y-106464482D01*
X135244072Y-106340000D01*
X135241000Y-105913250D01*
X135082250Y-105754500D01*
X133858000Y-105754500D01*
X133604000Y-105754500D01*
X133584000Y-105754500D01*
X133584000Y-105500500D01*
X133604000Y-105500500D01*
X133604000Y-104438750D01*
X133858000Y-104438750D01*
X133858000Y-105500500D01*
X135082250Y-105500500D01*
X135241000Y-105341750D01*
X135244072Y-104915000D01*
X135231812Y-104790518D01*
X135195502Y-104670820D01*
X135136537Y-104560506D01*
X135057185Y-104463815D01*
X134960494Y-104384463D01*
X134850180Y-104325498D01*
X134730482Y-104289188D01*
X134606000Y-104276928D01*
X134016750Y-104280000D01*
X133858000Y-104438750D01*
X133604000Y-104438750D01*
X133445250Y-104280000D01*
X132856000Y-104276928D01*
X132790000Y-104283428D01*
X132790000Y-103942707D01*
X132932746Y-103986008D01*
X133106000Y-104003072D01*
X134356000Y-104003072D01*
X134529254Y-103986008D01*
X134695850Y-103935472D01*
X134849386Y-103853405D01*
X134983962Y-103742962D01*
X135094405Y-103608386D01*
X135176472Y-103454850D01*
X135227008Y-103288254D01*
X135244072Y-103115000D01*
X135244072Y-102190000D01*
X135227008Y-102016746D01*
X135176472Y-101850150D01*
X135094405Y-101696614D01*
X134983962Y-101562038D01*
X134849386Y-101451595D01*
X134695850Y-101369528D01*
X134529254Y-101318992D01*
X134520657Y-101318145D01*
X134516000Y-101215152D01*
X134516000Y-92964157D01*
X134867816Y-92612342D01*
X134897764Y-92587764D01*
X134995862Y-92468233D01*
X135068754Y-92331860D01*
X135113641Y-92183887D01*
X135125000Y-92068561D01*
X135125000Y-92068554D01*
X135128797Y-92030001D01*
X135125000Y-91991448D01*
X135125000Y-91591339D01*
X135233387Y-91533405D01*
X135367962Y-91422962D01*
X135478405Y-91288387D01*
X135560472Y-91134851D01*
X135611008Y-90968255D01*
X135628072Y-90795001D01*
X135628072Y-89544999D01*
X135611008Y-89371745D01*
X135560472Y-89205149D01*
X135478405Y-89051613D01*
X135415530Y-88975000D01*
X136364470Y-88975000D01*
X136301595Y-89051613D01*
G37*
%TD.AperFunction*%
D14*
X152477013Y-98681665D02*
X152624338Y-98902153D01*
X152811847Y-99089662D01*
X153032335Y-99236987D01*
X153218260Y-99314000D01*
X153032335Y-99391013D01*
X152972112Y-99431252D01*
X152929854Y-99453851D01*
X152888610Y-99477944D01*
X152778766Y-99547781D01*
X152750106Y-99567118D01*
X152654921Y-99635182D01*
X152645016Y-99642411D01*
X152565264Y-99701800D01*
X152507967Y-99742084D01*
X152472740Y-99762992D01*
X152447629Y-99774160D01*
X152413665Y-99784050D01*
X152351359Y-99793725D01*
X152234484Y-99799000D01*
X146254552Y-99799000D01*
X146215999Y-99795203D01*
X146177446Y-99799000D01*
X146177439Y-99799000D01*
X146076490Y-99808943D01*
X146062112Y-99810359D01*
X146034175Y-99818834D01*
X145914140Y-99855246D01*
X145777767Y-99928138D01*
X145658236Y-100026236D01*
X145633653Y-100056190D01*
X145522185Y-100167658D01*
X145492237Y-100192236D01*
X145467659Y-100222184D01*
X145467655Y-100222188D01*
X145434690Y-100262356D01*
X145394139Y-100311767D01*
X145384620Y-100329576D01*
X145360477Y-100374745D01*
X145276746Y-100382992D01*
X145110150Y-100433528D01*
X144956614Y-100515595D01*
X144822038Y-100626038D01*
X144711595Y-100760614D01*
X144629528Y-100914150D01*
X144578992Y-101080746D01*
X144561928Y-101254000D01*
X144561928Y-102454000D01*
X144578992Y-102627254D01*
X144629528Y-102793850D01*
X144711595Y-102947386D01*
X144822038Y-103081962D01*
X144956614Y-103192405D01*
X145110150Y-103274472D01*
X145219293Y-103307580D01*
X145201208Y-103365603D01*
X146050000Y-104214395D01*
X146898792Y-103365603D01*
X146880707Y-103307580D01*
X146989850Y-103274472D01*
X147143386Y-103192405D01*
X147277962Y-103081962D01*
X147388405Y-102947386D01*
X147456285Y-102820392D01*
X147643368Y-103007475D01*
X147816729Y-103123311D01*
X147741208Y-103365603D01*
X148590000Y-104214395D01*
X149438792Y-103365603D01*
X149363271Y-103123311D01*
X149364810Y-103122283D01*
X149419639Y-103092642D01*
X149465878Y-103065050D01*
X149597088Y-102979006D01*
X149630147Y-102955790D01*
X149743043Y-102871021D01*
X149756555Y-102860588D01*
X149853156Y-102783908D01*
X149927264Y-102727754D01*
X149978047Y-102695064D01*
X150017970Y-102675762D01*
X150067798Y-102659995D01*
X150150224Y-102646103D01*
X150295520Y-102639000D01*
X150318843Y-102639000D01*
X150785000Y-103105157D01*
X150785000Y-103621447D01*
X150781203Y-103660000D01*
X150785000Y-103698553D01*
X150785000Y-103698561D01*
X150787235Y-103721246D01*
X150796359Y-103813886D01*
X150841246Y-103961859D01*
X150867923Y-104011768D01*
X150914139Y-104098233D01*
X150938628Y-104128072D01*
X150987655Y-104187812D01*
X150987659Y-104187816D01*
X151012237Y-104217764D01*
X151042185Y-104242342D01*
X151777653Y-104977810D01*
X151802236Y-105007764D01*
X151921767Y-105105862D01*
X152058140Y-105178754D01*
X152206113Y-105223642D01*
X152281026Y-105231020D01*
X152321439Y-105235000D01*
X152321444Y-105235000D01*
X152360000Y-105238797D01*
X152390241Y-105235819D01*
X152375533Y-105271328D01*
X152323800Y-105531411D01*
X152323800Y-105796589D01*
X152375533Y-106056672D01*
X152413777Y-106149000D01*
X150295503Y-106149000D01*
X150150233Y-106141898D01*
X150067798Y-106128004D01*
X150017970Y-106112237D01*
X149978047Y-106092935D01*
X149927264Y-106060245D01*
X149853156Y-106004091D01*
X149756555Y-105927411D01*
X149743043Y-105916978D01*
X149630147Y-105832209D01*
X149597088Y-105808993D01*
X149465878Y-105722949D01*
X149419636Y-105695356D01*
X149364809Y-105665717D01*
X149363271Y-105664689D01*
X149438792Y-105422397D01*
X148590000Y-104573605D01*
X147741208Y-105422397D01*
X147816729Y-105664689D01*
X147643368Y-105780525D01*
X147436525Y-105987368D01*
X147320000Y-106161760D01*
X147203475Y-105987368D01*
X146996632Y-105780525D01*
X146823271Y-105664689D01*
X146898792Y-105422397D01*
X146050000Y-104573605D01*
X145201208Y-105422397D01*
X145276729Y-105664689D01*
X145103368Y-105780525D01*
X144896525Y-105987368D01*
X144734010Y-106230589D01*
X144622068Y-106500842D01*
X144565000Y-106787740D01*
X144565000Y-107080260D01*
X144622068Y-107367158D01*
X144734010Y-107637411D01*
X144896525Y-107880632D01*
X145103368Y-108087475D01*
X145346589Y-108249990D01*
X145616842Y-108361932D01*
X145903740Y-108419000D01*
X146196260Y-108419000D01*
X146483158Y-108361932D01*
X146515000Y-108348743D01*
X146515000Y-109479493D01*
X146442672Y-109449533D01*
X146182589Y-109397800D01*
X145917411Y-109397800D01*
X145657328Y-109449533D01*
X145412335Y-109551013D01*
X145191847Y-109698338D01*
X145004338Y-109885847D01*
X144857013Y-110106335D01*
X144780000Y-110292260D01*
X144702987Y-110106335D01*
X144555662Y-109885847D01*
X144368153Y-109698338D01*
X144147665Y-109551013D01*
X143902672Y-109449533D01*
X143642589Y-109397800D01*
X143377411Y-109397800D01*
X143117328Y-109449533D01*
X142872335Y-109551013D01*
X142651847Y-109698338D01*
X142464338Y-109885847D01*
X142317013Y-110106335D01*
X142240000Y-110292260D01*
X142162987Y-110106335D01*
X142015662Y-109885847D01*
X141828153Y-109698338D01*
X141607665Y-109551013D01*
X141421740Y-109474000D01*
X141607665Y-109396987D01*
X141828153Y-109249662D01*
X142015662Y-109062153D01*
X142162987Y-108841665D01*
X142264467Y-108596672D01*
X142316200Y-108336589D01*
X142316200Y-108071411D01*
X142264467Y-107811328D01*
X142162987Y-107566335D01*
X142015662Y-107345847D01*
X141828153Y-107158338D01*
X141607665Y-107011013D01*
X141421740Y-106934000D01*
X141607665Y-106856987D01*
X141828153Y-106709662D01*
X142015662Y-106522153D01*
X142162987Y-106301665D01*
X142264467Y-106056672D01*
X142316200Y-105796589D01*
X142316200Y-105531411D01*
X142264467Y-105271328D01*
X142162987Y-105026335D01*
X142015662Y-104805847D01*
X141828153Y-104618338D01*
X141607665Y-104471013D01*
X141587188Y-104462531D01*
X144559389Y-104462531D01*
X144601401Y-104752019D01*
X144699081Y-105027747D01*
X144772528Y-105165157D01*
X145021603Y-105242792D01*
X145870395Y-104394000D01*
X146229605Y-104394000D01*
X147078397Y-105242792D01*
X147320000Y-105167486D01*
X147561603Y-105242792D01*
X148410395Y-104394000D01*
X148769605Y-104394000D01*
X149618397Y-105242792D01*
X149867472Y-105165157D01*
X149993371Y-104901117D01*
X150065339Y-104617589D01*
X150080611Y-104325469D01*
X150038599Y-104035981D01*
X149940919Y-103760253D01*
X149867472Y-103622843D01*
X149618397Y-103545208D01*
X148769605Y-104394000D01*
X148410395Y-104394000D01*
X147561603Y-103545208D01*
X147320000Y-103620514D01*
X147078397Y-103545208D01*
X146229605Y-104394000D01*
X145870395Y-104394000D01*
X145021603Y-103545208D01*
X144772528Y-103622843D01*
X144646629Y-103886883D01*
X144574661Y-104170411D01*
X144559389Y-104462531D01*
X141587188Y-104462531D01*
X141421740Y-104394000D01*
X141607665Y-104316987D01*
X141828153Y-104169662D01*
X142015662Y-103982153D01*
X142162987Y-103761665D01*
X142264467Y-103516672D01*
X142316200Y-103256589D01*
X142316200Y-102991411D01*
X142264467Y-102731328D01*
X142162987Y-102486335D01*
X142015662Y-102265847D01*
X141828153Y-102078338D01*
X141607665Y-101931013D01*
X141421740Y-101854000D01*
X141607665Y-101776987D01*
X141828153Y-101629662D01*
X142015662Y-101442153D01*
X142162987Y-101221665D01*
X142264467Y-100976672D01*
X142316200Y-100716589D01*
X142316200Y-100451411D01*
X142264467Y-100191328D01*
X142162987Y-99946335D01*
X142015662Y-99725847D01*
X141828153Y-99538338D01*
X141607665Y-99391013D01*
X141421740Y-99314000D01*
X141607665Y-99236987D01*
X141828153Y-99089662D01*
X142015662Y-98902153D01*
X142162987Y-98681665D01*
X142240000Y-98495740D01*
X142317013Y-98681665D01*
X142464338Y-98902153D01*
X142651847Y-99089662D01*
X142872335Y-99236987D01*
X143117328Y-99338467D01*
X143377411Y-99390200D01*
X143642589Y-99390200D01*
X143902672Y-99338467D01*
X144147665Y-99236987D01*
X144368153Y-99089662D01*
X144555662Y-98902153D01*
X144702987Y-98681665D01*
X144780000Y-98495740D01*
X144857013Y-98681665D01*
X145004338Y-98902153D01*
X145191847Y-99089662D01*
X145412335Y-99236987D01*
X145657328Y-99338467D01*
X145917411Y-99390200D01*
X146182589Y-99390200D01*
X146442672Y-99338467D01*
X146687665Y-99236987D01*
X146908153Y-99089662D01*
X147095662Y-98902153D01*
X147242987Y-98681665D01*
X147320000Y-98495740D01*
X147397013Y-98681665D01*
X147544338Y-98902153D01*
X147731847Y-99089662D01*
X147952335Y-99236987D01*
X148197328Y-99338467D01*
X148457411Y-99390200D01*
X148722589Y-99390200D01*
X148982672Y-99338467D01*
X149227665Y-99236987D01*
X149448153Y-99089662D01*
X149635662Y-98902153D01*
X149782987Y-98681665D01*
X149860000Y-98495740D01*
X149937013Y-98681665D01*
X150084338Y-98902153D01*
X150271847Y-99089662D01*
X150492335Y-99236987D01*
X150737328Y-99338467D01*
X150997411Y-99390200D01*
X151262589Y-99390200D01*
X151522672Y-99338467D01*
X151767665Y-99236987D01*
X151988153Y-99089662D01*
X152175662Y-98902153D01*
X152322987Y-98681665D01*
X152400000Y-98495740D01*
X152477013Y-98681665D01*
%TA.AperFunction,Conductor*%
D15*
G36*
X152477013Y-98681665D02*
G01*
X152624338Y-98902153D01*
X152811847Y-99089662D01*
X153032335Y-99236987D01*
X153218260Y-99314000D01*
X153032335Y-99391013D01*
X152972112Y-99431252D01*
X152929854Y-99453851D01*
X152888610Y-99477944D01*
X152778766Y-99547781D01*
X152750106Y-99567118D01*
X152654921Y-99635182D01*
X152645016Y-99642411D01*
X152565264Y-99701800D01*
X152507967Y-99742084D01*
X152472740Y-99762992D01*
X152447629Y-99774160D01*
X152413665Y-99784050D01*
X152351359Y-99793725D01*
X152234484Y-99799000D01*
X146254552Y-99799000D01*
X146215999Y-99795203D01*
X146177446Y-99799000D01*
X146177439Y-99799000D01*
X146076490Y-99808943D01*
X146062112Y-99810359D01*
X146034175Y-99818834D01*
X145914140Y-99855246D01*
X145777767Y-99928138D01*
X145658236Y-100026236D01*
X145633653Y-100056190D01*
X145522185Y-100167658D01*
X145492237Y-100192236D01*
X145467659Y-100222184D01*
X145467655Y-100222188D01*
X145434690Y-100262356D01*
X145394139Y-100311767D01*
X145384620Y-100329576D01*
X145360477Y-100374745D01*
X145276746Y-100382992D01*
X145110150Y-100433528D01*
X144956614Y-100515595D01*
X144822038Y-100626038D01*
X144711595Y-100760614D01*
X144629528Y-100914150D01*
X144578992Y-101080746D01*
X144561928Y-101254000D01*
X144561928Y-102454000D01*
X144578992Y-102627254D01*
X144629528Y-102793850D01*
X144711595Y-102947386D01*
X144822038Y-103081962D01*
X144956614Y-103192405D01*
X145110150Y-103274472D01*
X145219293Y-103307580D01*
X145201208Y-103365603D01*
X146050000Y-104214395D01*
X146898792Y-103365603D01*
X146880707Y-103307580D01*
X146989850Y-103274472D01*
X147143386Y-103192405D01*
X147277962Y-103081962D01*
X147388405Y-102947386D01*
X147456285Y-102820392D01*
X147643368Y-103007475D01*
X147816729Y-103123311D01*
X147741208Y-103365603D01*
X148590000Y-104214395D01*
X149438792Y-103365603D01*
X149363271Y-103123311D01*
X149364810Y-103122283D01*
X149419639Y-103092642D01*
X149465878Y-103065050D01*
X149597088Y-102979006D01*
X149630147Y-102955790D01*
X149743043Y-102871021D01*
X149756555Y-102860588D01*
X149853156Y-102783908D01*
X149927264Y-102727754D01*
X149978047Y-102695064D01*
X150017970Y-102675762D01*
X150067798Y-102659995D01*
X150150224Y-102646103D01*
X150295520Y-102639000D01*
X150318843Y-102639000D01*
X150785000Y-103105157D01*
X150785000Y-103621447D01*
X150781203Y-103660000D01*
X150785000Y-103698553D01*
X150785000Y-103698561D01*
X150787235Y-103721246D01*
X150796359Y-103813886D01*
X150841246Y-103961859D01*
X150867923Y-104011768D01*
X150914139Y-104098233D01*
X150938628Y-104128072D01*
X150987655Y-104187812D01*
X150987659Y-104187816D01*
X151012237Y-104217764D01*
X151042185Y-104242342D01*
X151777653Y-104977810D01*
X151802236Y-105007764D01*
X151921767Y-105105862D01*
X152058140Y-105178754D01*
X152206113Y-105223642D01*
X152281026Y-105231020D01*
X152321439Y-105235000D01*
X152321444Y-105235000D01*
X152360000Y-105238797D01*
X152390241Y-105235819D01*
X152375533Y-105271328D01*
X152323800Y-105531411D01*
X152323800Y-105796589D01*
X152375533Y-106056672D01*
X152413777Y-106149000D01*
X150295503Y-106149000D01*
X150150233Y-106141898D01*
X150067798Y-106128004D01*
X150017970Y-106112237D01*
X149978047Y-106092935D01*
X149927264Y-106060245D01*
X149853156Y-106004091D01*
X149756555Y-105927411D01*
X149743043Y-105916978D01*
X149630147Y-105832209D01*
X149597088Y-105808993D01*
X149465878Y-105722949D01*
X149419636Y-105695356D01*
X149364809Y-105665717D01*
X149363271Y-105664689D01*
X149438792Y-105422397D01*
X148590000Y-104573605D01*
X147741208Y-105422397D01*
X147816729Y-105664689D01*
X147643368Y-105780525D01*
X147436525Y-105987368D01*
X147320000Y-106161760D01*
X147203475Y-105987368D01*
X146996632Y-105780525D01*
X146823271Y-105664689D01*
X146898792Y-105422397D01*
X146050000Y-104573605D01*
X145201208Y-105422397D01*
X145276729Y-105664689D01*
X145103368Y-105780525D01*
X144896525Y-105987368D01*
X144734010Y-106230589D01*
X144622068Y-106500842D01*
X144565000Y-106787740D01*
X144565000Y-107080260D01*
X144622068Y-107367158D01*
X144734010Y-107637411D01*
X144896525Y-107880632D01*
X145103368Y-108087475D01*
X145346589Y-108249990D01*
X145616842Y-108361932D01*
X145903740Y-108419000D01*
X146196260Y-108419000D01*
X146483158Y-108361932D01*
X146515000Y-108348743D01*
X146515000Y-109479493D01*
X146442672Y-109449533D01*
X146182589Y-109397800D01*
X145917411Y-109397800D01*
X145657328Y-109449533D01*
X145412335Y-109551013D01*
X145191847Y-109698338D01*
X145004338Y-109885847D01*
X144857013Y-110106335D01*
X144780000Y-110292260D01*
X144702987Y-110106335D01*
X144555662Y-109885847D01*
X144368153Y-109698338D01*
X144147665Y-109551013D01*
X143902672Y-109449533D01*
X143642589Y-109397800D01*
X143377411Y-109397800D01*
X143117328Y-109449533D01*
X142872335Y-109551013D01*
X142651847Y-109698338D01*
X142464338Y-109885847D01*
X142317013Y-110106335D01*
X142240000Y-110292260D01*
X142162987Y-110106335D01*
X142015662Y-109885847D01*
X141828153Y-109698338D01*
X141607665Y-109551013D01*
X141421740Y-109474000D01*
X141607665Y-109396987D01*
X141828153Y-109249662D01*
X142015662Y-109062153D01*
X142162987Y-108841665D01*
X142264467Y-108596672D01*
X142316200Y-108336589D01*
X142316200Y-108071411D01*
X142264467Y-107811328D01*
X142162987Y-107566335D01*
X142015662Y-107345847D01*
X141828153Y-107158338D01*
X141607665Y-107011013D01*
X141421740Y-106934000D01*
X141607665Y-106856987D01*
X141828153Y-106709662D01*
X142015662Y-106522153D01*
X142162987Y-106301665D01*
X142264467Y-106056672D01*
X142316200Y-105796589D01*
X142316200Y-105531411D01*
X142264467Y-105271328D01*
X142162987Y-105026335D01*
X142015662Y-104805847D01*
X141828153Y-104618338D01*
X141607665Y-104471013D01*
X141587188Y-104462531D01*
X144559389Y-104462531D01*
X144601401Y-104752019D01*
X144699081Y-105027747D01*
X144772528Y-105165157D01*
X145021603Y-105242792D01*
X145870395Y-104394000D01*
X146229605Y-104394000D01*
X147078397Y-105242792D01*
X147320000Y-105167486D01*
X147561603Y-105242792D01*
X148410395Y-104394000D01*
X148769605Y-104394000D01*
X149618397Y-105242792D01*
X149867472Y-105165157D01*
X149993371Y-104901117D01*
X150065339Y-104617589D01*
X150080611Y-104325469D01*
X150038599Y-104035981D01*
X149940919Y-103760253D01*
X149867472Y-103622843D01*
X149618397Y-103545208D01*
X148769605Y-104394000D01*
X148410395Y-104394000D01*
X147561603Y-103545208D01*
X147320000Y-103620514D01*
X147078397Y-103545208D01*
X146229605Y-104394000D01*
X145870395Y-104394000D01*
X145021603Y-103545208D01*
X144772528Y-103622843D01*
X144646629Y-103886883D01*
X144574661Y-104170411D01*
X144559389Y-104462531D01*
X141587188Y-104462531D01*
X141421740Y-104394000D01*
X141607665Y-104316987D01*
X141828153Y-104169662D01*
X142015662Y-103982153D01*
X142162987Y-103761665D01*
X142264467Y-103516672D01*
X142316200Y-103256589D01*
X142316200Y-102991411D01*
X142264467Y-102731328D01*
X142162987Y-102486335D01*
X142015662Y-102265847D01*
X141828153Y-102078338D01*
X141607665Y-101931013D01*
X141421740Y-101854000D01*
X141607665Y-101776987D01*
X141828153Y-101629662D01*
X142015662Y-101442153D01*
X142162987Y-101221665D01*
X142264467Y-100976672D01*
X142316200Y-100716589D01*
X142316200Y-100451411D01*
X142264467Y-100191328D01*
X142162987Y-99946335D01*
X142015662Y-99725847D01*
X141828153Y-99538338D01*
X141607665Y-99391013D01*
X141421740Y-99314000D01*
X141607665Y-99236987D01*
X141828153Y-99089662D01*
X142015662Y-98902153D01*
X142162987Y-98681665D01*
X142240000Y-98495740D01*
X142317013Y-98681665D01*
X142464338Y-98902153D01*
X142651847Y-99089662D01*
X142872335Y-99236987D01*
X143117328Y-99338467D01*
X143377411Y-99390200D01*
X143642589Y-99390200D01*
X143902672Y-99338467D01*
X144147665Y-99236987D01*
X144368153Y-99089662D01*
X144555662Y-98902153D01*
X144702987Y-98681665D01*
X144780000Y-98495740D01*
X144857013Y-98681665D01*
X145004338Y-98902153D01*
X145191847Y-99089662D01*
X145412335Y-99236987D01*
X145657328Y-99338467D01*
X145917411Y-99390200D01*
X146182589Y-99390200D01*
X146442672Y-99338467D01*
X146687665Y-99236987D01*
X146908153Y-99089662D01*
X147095662Y-98902153D01*
X147242987Y-98681665D01*
X147320000Y-98495740D01*
X147397013Y-98681665D01*
X147544338Y-98902153D01*
X147731847Y-99089662D01*
X147952335Y-99236987D01*
X148197328Y-99338467D01*
X148457411Y-99390200D01*
X148722589Y-99390200D01*
X148982672Y-99338467D01*
X149227665Y-99236987D01*
X149448153Y-99089662D01*
X149635662Y-98902153D01*
X149782987Y-98681665D01*
X149860000Y-98495740D01*
X149937013Y-98681665D01*
X150084338Y-98902153D01*
X150271847Y-99089662D01*
X150492335Y-99236987D01*
X150737328Y-99338467D01*
X150997411Y-99390200D01*
X151262589Y-99390200D01*
X151522672Y-99338467D01*
X151767665Y-99236987D01*
X151988153Y-99089662D01*
X152175662Y-98902153D01*
X152322987Y-98681665D01*
X152400000Y-98495740D01*
X152477013Y-98681665D01*
G37*
%TD.AperFunction*%
%TD*%
D16*
%TO.N,VCC5V*%
X142971637Y-89341301D02*
X142875774Y-89445922D01*
X142874923Y-89446956D01*
X142798272Y-89550712D01*
X142797409Y-89552048D01*
X142743105Y-89648918D01*
X142742385Y-89650426D01*
X142705348Y-89743357D01*
X142704886Y-89744746D01*
X142680040Y-89836679D01*
X142679821Y-89837635D01*
X142662087Y-89931516D01*
X142662023Y-89931879D01*
X142646333Y-90030589D01*
X142627672Y-90136732D01*
X142600979Y-90253360D01*
X142563739Y-90375228D01*
X141726108Y-90391154D01*
X141742931Y-89553542D01*
X141864783Y-89516446D01*
X141981424Y-89489873D01*
X142087598Y-89471304D01*
X142186262Y-89455700D01*
X142186628Y-89455637D01*
X142280497Y-89437966D01*
X142281455Y-89437747D01*
X142373372Y-89412952D01*
X142374762Y-89412489D01*
X142467671Y-89375496D01*
X142469181Y-89374776D01*
X142566025Y-89320510D01*
X142567362Y-89319646D01*
X142671084Y-89243034D01*
X142672119Y-89242183D01*
X142776699Y-89146363D01*
X142971637Y-89341301D01*
%TA.AperFunction,Conductor*%
D15*
G36*
X142971637Y-89341301D02*
G01*
X142875774Y-89445922D01*
X142874923Y-89446956D01*
X142798272Y-89550712D01*
X142797409Y-89552048D01*
X142743105Y-89648918D01*
X142742385Y-89650426D01*
X142705348Y-89743357D01*
X142704886Y-89744746D01*
X142680040Y-89836679D01*
X142679821Y-89837635D01*
X142662087Y-89931516D01*
X142662023Y-89931879D01*
X142646333Y-90030589D01*
X142627672Y-90136732D01*
X142600979Y-90253360D01*
X142563739Y-90375228D01*
X141726108Y-90391154D01*
X141742931Y-89553542D01*
X141864783Y-89516446D01*
X141981424Y-89489873D01*
X142087598Y-89471304D01*
X142186262Y-89455700D01*
X142186628Y-89455637D01*
X142280497Y-89437966D01*
X142281455Y-89437747D01*
X142373372Y-89412952D01*
X142374762Y-89412489D01*
X142467671Y-89375496D01*
X142469181Y-89374776D01*
X142566025Y-89320510D01*
X142567362Y-89319646D01*
X142671084Y-89243034D01*
X142672119Y-89242183D01*
X142776699Y-89146363D01*
X142971637Y-89341301D01*
G37*
%TD.AperFunction*%
%TD*%
D16*
%TO.N,VCC5V*%
X161821553Y-104732897D02*
X161723972Y-104839521D01*
X161723111Y-104840570D01*
X161645404Y-104946210D01*
X161644533Y-104947566D01*
X161589692Y-105046243D01*
X161588972Y-105047770D01*
X161551789Y-105142471D01*
X161551331Y-105143872D01*
X161526597Y-105237582D01*
X161526383Y-105238539D01*
X161508888Y-105334245D01*
X161508828Y-105334601D01*
X161493379Y-105435190D01*
X161474815Y-105543383D01*
X161447955Y-105662232D01*
X161410150Y-105786500D01*
X160556308Y-105803192D01*
X160573000Y-104949350D01*
X160697267Y-104911544D01*
X160816116Y-104884684D01*
X160924309Y-104866120D01*
X161024898Y-104850671D01*
X161025254Y-104850611D01*
X161120960Y-104833116D01*
X161121917Y-104832902D01*
X161215627Y-104808168D01*
X161217028Y-104807710D01*
X161311729Y-104770527D01*
X161313256Y-104769807D01*
X161411933Y-104714966D01*
X161413289Y-104714095D01*
X161518929Y-104636388D01*
X161519978Y-104635527D01*
X161626603Y-104537947D01*
X161821553Y-104732897D01*
%TA.AperFunction,Conductor*%
D15*
G36*
X161821553Y-104732897D02*
G01*
X161723972Y-104839521D01*
X161723111Y-104840570D01*
X161645404Y-104946210D01*
X161644533Y-104947566D01*
X161589692Y-105046243D01*
X161588972Y-105047770D01*
X161551789Y-105142471D01*
X161551331Y-105143872D01*
X161526597Y-105237582D01*
X161526383Y-105238539D01*
X161508888Y-105334245D01*
X161508828Y-105334601D01*
X161493379Y-105435190D01*
X161474815Y-105543383D01*
X161447955Y-105662232D01*
X161410150Y-105786500D01*
X160556308Y-105803192D01*
X160573000Y-104949350D01*
X160697267Y-104911544D01*
X160816116Y-104884684D01*
X160924309Y-104866120D01*
X161024898Y-104850671D01*
X161025254Y-104850611D01*
X161120960Y-104833116D01*
X161121917Y-104832902D01*
X161215627Y-104808168D01*
X161217028Y-104807710D01*
X161311729Y-104770527D01*
X161313256Y-104769807D01*
X161411933Y-104714966D01*
X161413289Y-104714095D01*
X161518929Y-104636388D01*
X161519978Y-104635527D01*
X161626603Y-104537947D01*
X161821553Y-104732897D01*
G37*
%TD.AperFunction*%
%TD*%
D16*
%TO.N,VCC5V*%
X149111150Y-106264875D02*
X149241556Y-106350392D01*
X149354014Y-106434832D01*
X149456078Y-106515848D01*
X149456304Y-106516023D01*
X149555456Y-106591154D01*
X149556252Y-106591711D01*
X149659975Y-106658479D01*
X149661321Y-106659234D01*
X149777241Y-106715278D01*
X149778937Y-106715952D01*
X149914684Y-106758908D01*
X149916405Y-106759323D01*
X150079606Y-106786829D01*
X150081097Y-106786991D01*
X150267300Y-106796094D01*
X150267300Y-107071906D01*
X150081097Y-107081008D01*
X150079606Y-107081170D01*
X149916405Y-107108676D01*
X149914684Y-107109091D01*
X149778937Y-107152047D01*
X149777241Y-107152721D01*
X149661321Y-107208765D01*
X149659975Y-107209520D01*
X149556252Y-107276288D01*
X149555456Y-107276845D01*
X149456304Y-107351976D01*
X149456078Y-107352151D01*
X149354014Y-107433167D01*
X149241556Y-107517607D01*
X149111150Y-107603124D01*
X148962624Y-107683418D01*
X148183322Y-106934000D01*
X148962624Y-106184582D01*
X149111150Y-106264875D01*
%TA.AperFunction,Conductor*%
D15*
G36*
X149111150Y-106264875D02*
G01*
X149241556Y-106350392D01*
X149354014Y-106434832D01*
X149456078Y-106515848D01*
X149456304Y-106516023D01*
X149555456Y-106591154D01*
X149556252Y-106591711D01*
X149659975Y-106658479D01*
X149661321Y-106659234D01*
X149777241Y-106715278D01*
X149778937Y-106715952D01*
X149914684Y-106758908D01*
X149916405Y-106759323D01*
X150079606Y-106786829D01*
X150081097Y-106786991D01*
X150267300Y-106796094D01*
X150267300Y-107071906D01*
X150081097Y-107081008D01*
X150079606Y-107081170D01*
X149916405Y-107108676D01*
X149914684Y-107109091D01*
X149778937Y-107152047D01*
X149777241Y-107152721D01*
X149661321Y-107208765D01*
X149659975Y-107209520D01*
X149556252Y-107276288D01*
X149555456Y-107276845D01*
X149456304Y-107351976D01*
X149456078Y-107352151D01*
X149354014Y-107433167D01*
X149241556Y-107517607D01*
X149111150Y-107603124D01*
X148962624Y-107683418D01*
X148183322Y-106934000D01*
X148962624Y-106184582D01*
X149111150Y-106264875D01*
G37*
%TD.AperFunction*%
%TD*%
D16*
%TO.N,VCC5V*%
X161243701Y-106053298D02*
X161166159Y-106141435D01*
X161165080Y-106142851D01*
X161105687Y-106233255D01*
X161104836Y-106234765D01*
X161063240Y-106322062D01*
X161062727Y-106323303D01*
X161032514Y-106409009D01*
X161032310Y-106409640D01*
X161007087Y-106495201D01*
X160980544Y-106581809D01*
X160946413Y-106670769D01*
X160898293Y-106763941D01*
X160829711Y-106863124D01*
X160742594Y-106960546D01*
X160547977Y-106765929D01*
X160618654Y-106677156D01*
X160620006Y-106675066D01*
X160620617Y-106673684D01*
X160654184Y-106583690D01*
X160654821Y-106581284D01*
X160654974Y-106578728D01*
X160651485Y-106494191D01*
X160651139Y-106491726D01*
X160650541Y-106489884D01*
X160617111Y-106408614D01*
X160615763Y-106406152D01*
X160559507Y-106325957D01*
X160558620Y-106324833D01*
X160486655Y-106243523D01*
X160486343Y-106243183D01*
X160405887Y-106158676D01*
X160324257Y-106069010D01*
X160248663Y-105972239D01*
X160190344Y-105873571D01*
X160779523Y-105260897D01*
X161243701Y-106053298D01*
%TA.AperFunction,Conductor*%
D15*
G36*
X161243701Y-106053298D02*
G01*
X161166159Y-106141435D01*
X161165080Y-106142851D01*
X161105687Y-106233255D01*
X161104836Y-106234765D01*
X161063240Y-106322062D01*
X161062727Y-106323303D01*
X161032514Y-106409009D01*
X161032310Y-106409640D01*
X161007087Y-106495201D01*
X160980544Y-106581809D01*
X160946413Y-106670769D01*
X160898293Y-106763941D01*
X160829711Y-106863124D01*
X160742594Y-106960546D01*
X160547977Y-106765929D01*
X160618654Y-106677156D01*
X160620006Y-106675066D01*
X160620617Y-106673684D01*
X160654184Y-106583690D01*
X160654821Y-106581284D01*
X160654974Y-106578728D01*
X160651485Y-106494191D01*
X160651139Y-106491726D01*
X160650541Y-106489884D01*
X160617111Y-106408614D01*
X160615763Y-106406152D01*
X160559507Y-106325957D01*
X160558620Y-106324833D01*
X160486655Y-106243523D01*
X160486343Y-106243183D01*
X160405887Y-106158676D01*
X160324257Y-106069010D01*
X160248663Y-105972239D01*
X160190344Y-105873571D01*
X160779523Y-105260897D01*
X161243701Y-106053298D01*
G37*
%TD.AperFunction*%
%TD*%
D16*
%TO.N,VCC5V*%
X142260428Y-90170000D02*
X141656561Y-90750710D01*
X141544145Y-90690838D01*
X141442883Y-90627210D01*
X141354650Y-90565287D01*
X141273864Y-90506590D01*
X141273562Y-90506377D01*
X141194696Y-90452511D01*
X141193864Y-90451989D01*
X141111344Y-90404534D01*
X141110035Y-90403878D01*
X141018192Y-90364341D01*
X141016615Y-90363782D01*
X140909778Y-90333673D01*
X140908221Y-90333338D01*
X140780721Y-90314166D01*
X140779388Y-90314037D01*
X140637700Y-90307843D01*
X140637700Y-90032157D01*
X140779388Y-90025962D01*
X140780721Y-90025833D01*
X140908221Y-90006661D01*
X140909778Y-90006326D01*
X141016615Y-89976217D01*
X141018192Y-89975658D01*
X141110035Y-89936121D01*
X141111344Y-89935465D01*
X141193864Y-89888010D01*
X141194696Y-89887488D01*
X141273562Y-89833622D01*
X141273864Y-89833409D01*
X141354650Y-89774712D01*
X141442883Y-89712789D01*
X141544145Y-89649161D01*
X141656561Y-89589290D01*
X142260428Y-90170000D01*
%TA.AperFunction,Conductor*%
D15*
G36*
X142260428Y-90170000D02*
G01*
X141656561Y-90750710D01*
X141544145Y-90690838D01*
X141442883Y-90627210D01*
X141354650Y-90565287D01*
X141273864Y-90506590D01*
X141273562Y-90506377D01*
X141194696Y-90452511D01*
X141193864Y-90451989D01*
X141111344Y-90404534D01*
X141110035Y-90403878D01*
X141018192Y-90364341D01*
X141016615Y-90363782D01*
X140909778Y-90333673D01*
X140908221Y-90333338D01*
X140780721Y-90314166D01*
X140779388Y-90314037D01*
X140637700Y-90307843D01*
X140637700Y-90032157D01*
X140779388Y-90025962D01*
X140780721Y-90025833D01*
X140908221Y-90006661D01*
X140909778Y-90006326D01*
X141016615Y-89976217D01*
X141018192Y-89975658D01*
X141110035Y-89936121D01*
X141111344Y-89935465D01*
X141193864Y-89888010D01*
X141194696Y-89887488D01*
X141273562Y-89833622D01*
X141273864Y-89833409D01*
X141354650Y-89774712D01*
X141442883Y-89712789D01*
X141544145Y-89649161D01*
X141656561Y-89589290D01*
X142260428Y-90170000D01*
G37*
%TD.AperFunction*%
%TD*%
D16*
%TO.N,VCC5V*%
X137834670Y-89658706D02*
X137933211Y-89720665D01*
X138019077Y-89780984D01*
X138097761Y-89838218D01*
X138098063Y-89838431D01*
X138174875Y-89890958D01*
X138175706Y-89891481D01*
X138256087Y-89937771D01*
X138257397Y-89938427D01*
X138346866Y-89977001D01*
X138348443Y-89977561D01*
X138452516Y-90006943D01*
X138454075Y-90007279D01*
X138578271Y-90025992D01*
X138579607Y-90026122D01*
X138717300Y-90032156D01*
X138717300Y-90307844D01*
X138579607Y-90313877D01*
X138578271Y-90314007D01*
X138454075Y-90332720D01*
X138452516Y-90333056D01*
X138348443Y-90362438D01*
X138346866Y-90362998D01*
X138257397Y-90401572D01*
X138256087Y-90402228D01*
X138175706Y-90448518D01*
X138174875Y-90449041D01*
X138098063Y-90501568D01*
X138097761Y-90501781D01*
X138019077Y-90559015D01*
X137933211Y-90619334D01*
X137834670Y-90681293D01*
X137725489Y-90739459D01*
X137133322Y-90170000D01*
X137725489Y-89600541D01*
X137834670Y-89658706D01*
%TA.AperFunction,Conductor*%
D15*
G36*
X137834670Y-89658706D02*
G01*
X137933211Y-89720665D01*
X138019077Y-89780984D01*
X138097761Y-89838218D01*
X138098063Y-89838431D01*
X138174875Y-89890958D01*
X138175706Y-89891481D01*
X138256087Y-89937771D01*
X138257397Y-89938427D01*
X138346866Y-89977001D01*
X138348443Y-89977561D01*
X138452516Y-90006943D01*
X138454075Y-90007279D01*
X138578271Y-90025992D01*
X138579607Y-90026122D01*
X138717300Y-90032156D01*
X138717300Y-90307844D01*
X138579607Y-90313877D01*
X138578271Y-90314007D01*
X138454075Y-90332720D01*
X138452516Y-90333056D01*
X138348443Y-90362438D01*
X138346866Y-90362998D01*
X138257397Y-90401572D01*
X138256087Y-90402228D01*
X138175706Y-90448518D01*
X138174875Y-90449041D01*
X138098063Y-90501568D01*
X138097761Y-90501781D01*
X138019077Y-90559015D01*
X137933211Y-90619334D01*
X137834670Y-90681293D01*
X137725489Y-90739459D01*
X137133322Y-90170000D01*
X137725489Y-89600541D01*
X137834670Y-89658706D01*
G37*
%TD.AperFunction*%
%TD*%
D16*
%TO.N,VCC5V*%
X147143441Y-112385523D02*
X147039691Y-112499079D01*
X147038815Y-112500149D01*
X146956901Y-112612181D01*
X146956020Y-112613565D01*
X146898540Y-112718269D01*
X146897818Y-112719825D01*
X146859181Y-112820359D01*
X146858730Y-112821776D01*
X146833344Y-112921299D01*
X146833139Y-112922257D01*
X146815413Y-113023925D01*
X146815358Y-113024267D01*
X146799719Y-113131128D01*
X146780620Y-113246092D01*
X146752512Y-113372333D01*
X146712335Y-113504880D01*
X145811509Y-113522491D01*
X145829120Y-112621665D01*
X145961666Y-112581487D01*
X146087907Y-112553379D01*
X146202871Y-112534280D01*
X146309732Y-112518641D01*
X146310074Y-112518586D01*
X146411742Y-112500860D01*
X146412700Y-112500655D01*
X146512223Y-112475269D01*
X146513640Y-112474818D01*
X146614174Y-112436181D01*
X146615730Y-112435459D01*
X146720434Y-112377979D01*
X146721818Y-112377098D01*
X146833850Y-112295184D01*
X146834920Y-112294308D01*
X146948477Y-112190559D01*
X147143441Y-112385523D01*
%TA.AperFunction,Conductor*%
D15*
G36*
X147143441Y-112385523D02*
G01*
X147039691Y-112499079D01*
X147038815Y-112500149D01*
X146956901Y-112612181D01*
X146956020Y-112613565D01*
X146898540Y-112718269D01*
X146897818Y-112719825D01*
X146859181Y-112820359D01*
X146858730Y-112821776D01*
X146833344Y-112921299D01*
X146833139Y-112922257D01*
X146815413Y-113023925D01*
X146815358Y-113024267D01*
X146799719Y-113131128D01*
X146780620Y-113246092D01*
X146752512Y-113372333D01*
X146712335Y-113504880D01*
X145811509Y-113522491D01*
X145829120Y-112621665D01*
X145961666Y-112581487D01*
X146087907Y-112553379D01*
X146202871Y-112534280D01*
X146309732Y-112518641D01*
X146310074Y-112518586D01*
X146411742Y-112500860D01*
X146412700Y-112500655D01*
X146512223Y-112475269D01*
X146513640Y-112474818D01*
X146614174Y-112436181D01*
X146615730Y-112435459D01*
X146720434Y-112377979D01*
X146721818Y-112377098D01*
X146833850Y-112295184D01*
X146834920Y-112294308D01*
X146948477Y-112190559D01*
X147143441Y-112385523D01*
G37*
%TD.AperFunction*%
%TD*%
D16*
%TO.N,VCC5V*%
X148856432Y-107727404D02*
X148694643Y-107775648D01*
X148541937Y-107807394D01*
X148402759Y-107827199D01*
X148273267Y-107842087D01*
X148272984Y-107842123D01*
X148149748Y-107859108D01*
X148148792Y-107859277D01*
X148028236Y-107885408D01*
X148026750Y-107885826D01*
X147905154Y-107928165D01*
X147903478Y-107928888D01*
X147777116Y-107994501D01*
X147775605Y-107995424D01*
X147640755Y-108091374D01*
X147639587Y-108092314D01*
X147501485Y-108217543D01*
X147306457Y-108022515D01*
X147431685Y-107884412D01*
X147432625Y-107883244D01*
X147528575Y-107748394D01*
X147529498Y-107746883D01*
X147595111Y-107620521D01*
X147595834Y-107618845D01*
X147638173Y-107497249D01*
X147638591Y-107495763D01*
X147664722Y-107375207D01*
X147664891Y-107374251D01*
X147681876Y-107251015D01*
X147681912Y-107250732D01*
X147696800Y-107121240D01*
X147716605Y-106982062D01*
X147748351Y-106829356D01*
X147796596Y-106667568D01*
X148877564Y-106646436D01*
X148856432Y-107727404D01*
%TA.AperFunction,Conductor*%
D15*
G36*
X148856432Y-107727404D02*
G01*
X148694643Y-107775648D01*
X148541937Y-107807394D01*
X148402759Y-107827199D01*
X148273267Y-107842087D01*
X148272984Y-107842123D01*
X148149748Y-107859108D01*
X148148792Y-107859277D01*
X148028236Y-107885408D01*
X148026750Y-107885826D01*
X147905154Y-107928165D01*
X147903478Y-107928888D01*
X147777116Y-107994501D01*
X147775605Y-107995424D01*
X147640755Y-108091374D01*
X147639587Y-108092314D01*
X147501485Y-108217543D01*
X147306457Y-108022515D01*
X147431685Y-107884412D01*
X147432625Y-107883244D01*
X147528575Y-107748394D01*
X147529498Y-107746883D01*
X147595111Y-107620521D01*
X147595834Y-107618845D01*
X147638173Y-107497249D01*
X147638591Y-107495763D01*
X147664722Y-107375207D01*
X147664891Y-107374251D01*
X147681876Y-107251015D01*
X147681912Y-107250732D01*
X147696800Y-107121240D01*
X147716605Y-106982062D01*
X147748351Y-106829356D01*
X147796596Y-106667568D01*
X148877564Y-106646436D01*
X148856432Y-107727404D01*
G37*
%TD.AperFunction*%
%TD*%
D16*
%TO.N,Net-(D1-Pad2)*%
X133875818Y-101396070D02*
X133875956Y-101397449D01*
X133897320Y-101534751D01*
X133897677Y-101536355D01*
X133931171Y-101651158D01*
X133931763Y-101652770D01*
X133975658Y-101751275D01*
X133976342Y-101752597D01*
X134028909Y-101841000D01*
X134029442Y-101841822D01*
X134088954Y-101926321D01*
X134089156Y-101926600D01*
X134153795Y-102013275D01*
X134221757Y-102108211D01*
X134291273Y-102217470D01*
X134356697Y-102339780D01*
X133731000Y-102990428D01*
X133105303Y-102339780D01*
X133170726Y-102217470D01*
X133240242Y-102108211D01*
X133308204Y-102013275D01*
X133372843Y-101926600D01*
X133373045Y-101926321D01*
X133432557Y-101841822D01*
X133433090Y-101841000D01*
X133485657Y-101752597D01*
X133486341Y-101751275D01*
X133530236Y-101652770D01*
X133530828Y-101651158D01*
X133564322Y-101536355D01*
X133564679Y-101534751D01*
X133586043Y-101397449D01*
X133586181Y-101396070D01*
X133593139Y-101242200D01*
X133868861Y-101242200D01*
X133875818Y-101396070D01*
%TA.AperFunction,Conductor*%
D15*
G36*
X133875818Y-101396070D02*
G01*
X133875956Y-101397449D01*
X133897320Y-101534751D01*
X133897677Y-101536355D01*
X133931171Y-101651158D01*
X133931763Y-101652770D01*
X133975658Y-101751275D01*
X133976342Y-101752597D01*
X134028909Y-101841000D01*
X134029442Y-101841822D01*
X134088954Y-101926321D01*
X134089156Y-101926600D01*
X134153795Y-102013275D01*
X134221757Y-102108211D01*
X134291273Y-102217470D01*
X134356697Y-102339780D01*
X133731000Y-102990428D01*
X133105303Y-102339780D01*
X133170726Y-102217470D01*
X133240242Y-102108211D01*
X133308204Y-102013275D01*
X133372843Y-101926600D01*
X133373045Y-101926321D01*
X133432557Y-101841822D01*
X133433090Y-101841000D01*
X133485657Y-101752597D01*
X133486341Y-101751275D01*
X133530236Y-101652770D01*
X133530828Y-101651158D01*
X133564322Y-101536355D01*
X133564679Y-101534751D01*
X133586043Y-101397449D01*
X133586181Y-101396070D01*
X133593139Y-101242200D01*
X133868861Y-101242200D01*
X133875818Y-101396070D01*
G37*
%TD.AperFunction*%
%TD*%
D16*
%TO.N,Net-(D1-Pad2)*%
X134909459Y-90455489D02*
X134851293Y-90564670D01*
X134789334Y-90663211D01*
X134729015Y-90749077D01*
X134671781Y-90827761D01*
X134671568Y-90828063D01*
X134619041Y-90904875D01*
X134618518Y-90905706D01*
X134572228Y-90986087D01*
X134571572Y-90987397D01*
X134532998Y-91076866D01*
X134532438Y-91078443D01*
X134503056Y-91182516D01*
X134502720Y-91184075D01*
X134484007Y-91308271D01*
X134483877Y-91309607D01*
X134477844Y-91447300D01*
X134202156Y-91447300D01*
X134196122Y-91309607D01*
X134195992Y-91308271D01*
X134177279Y-91184075D01*
X134176943Y-91182516D01*
X134147561Y-91078443D01*
X134147001Y-91076866D01*
X134108427Y-90987397D01*
X134107771Y-90986087D01*
X134061481Y-90905706D01*
X134060958Y-90904875D01*
X134008431Y-90828063D01*
X134008218Y-90827761D01*
X133950984Y-90749077D01*
X133890665Y-90663211D01*
X133828706Y-90564670D01*
X133770541Y-90455489D01*
X134340000Y-89863322D01*
X134909459Y-90455489D01*
%TA.AperFunction,Conductor*%
D15*
G36*
X134909459Y-90455489D02*
G01*
X134851293Y-90564670D01*
X134789334Y-90663211D01*
X134729015Y-90749077D01*
X134671781Y-90827761D01*
X134671568Y-90828063D01*
X134619041Y-90904875D01*
X134618518Y-90905706D01*
X134572228Y-90986087D01*
X134571572Y-90987397D01*
X134532998Y-91076866D01*
X134532438Y-91078443D01*
X134503056Y-91182516D01*
X134502720Y-91184075D01*
X134484007Y-91308271D01*
X134483877Y-91309607D01*
X134477844Y-91447300D01*
X134202156Y-91447300D01*
X134196122Y-91309607D01*
X134195992Y-91308271D01*
X134177279Y-91184075D01*
X134176943Y-91182516D01*
X134147561Y-91078443D01*
X134147001Y-91076866D01*
X134108427Y-90987397D01*
X134107771Y-90986087D01*
X134061481Y-90905706D01*
X134060958Y-90904875D01*
X134008431Y-90828063D01*
X134008218Y-90827761D01*
X133950984Y-90749077D01*
X133890665Y-90663211D01*
X133828706Y-90564670D01*
X133770541Y-90455489D01*
X134340000Y-89863322D01*
X134909459Y-90455489D01*
G37*
%TD.AperFunction*%
%TD*%
D16*
%TO.N,mKBD_CLOCK*%
X154007278Y-100584000D02*
X153357846Y-101208528D01*
X153235715Y-101143215D01*
X153126574Y-101073825D01*
X153031746Y-101006016D01*
X152945150Y-100941531D01*
X152944869Y-100941328D01*
X152860445Y-100881972D01*
X152859623Y-100881440D01*
X152771299Y-100829017D01*
X152769978Y-100828334D01*
X152671569Y-100784567D01*
X152669959Y-100783977D01*
X152555277Y-100750584D01*
X152553675Y-100750228D01*
X152416534Y-100728931D01*
X152415158Y-100728794D01*
X152261500Y-100721860D01*
X152261500Y-100446140D01*
X152415158Y-100439205D01*
X152416534Y-100439068D01*
X152553675Y-100417771D01*
X152555277Y-100417415D01*
X152669959Y-100384022D01*
X152671569Y-100383432D01*
X152769978Y-100339665D01*
X152771299Y-100338982D01*
X152859623Y-100286559D01*
X152860445Y-100286027D01*
X152944869Y-100226671D01*
X152945150Y-100226468D01*
X153031746Y-100161983D01*
X153126574Y-100094174D01*
X153235715Y-100024784D01*
X153357846Y-99959472D01*
X154007278Y-100584000D01*
%TA.AperFunction,Conductor*%
D15*
G36*
X154007278Y-100584000D02*
G01*
X153357846Y-101208528D01*
X153235715Y-101143215D01*
X153126574Y-101073825D01*
X153031746Y-101006016D01*
X152945150Y-100941531D01*
X152944869Y-100941328D01*
X152860445Y-100881972D01*
X152859623Y-100881440D01*
X152771299Y-100829017D01*
X152769978Y-100828334D01*
X152671569Y-100784567D01*
X152669959Y-100783977D01*
X152555277Y-100750584D01*
X152553675Y-100750228D01*
X152416534Y-100728931D01*
X152415158Y-100728794D01*
X152261500Y-100721860D01*
X152261500Y-100446140D01*
X152415158Y-100439205D01*
X152416534Y-100439068D01*
X152553675Y-100417771D01*
X152555277Y-100417415D01*
X152669959Y-100384022D01*
X152671569Y-100383432D01*
X152769978Y-100339665D01*
X152771299Y-100338982D01*
X152859623Y-100286559D01*
X152860445Y-100286027D01*
X152944869Y-100226671D01*
X152945150Y-100226468D01*
X153031746Y-100161983D01*
X153126574Y-100094174D01*
X153235715Y-100024784D01*
X153357846Y-99959472D01*
X154007278Y-100584000D01*
G37*
%TD.AperFunction*%
%TD*%
D16*
%TO.N,mKBD_CLOCK*%
X146564540Y-100722905D02*
X146482591Y-100734007D01*
X146480169Y-100734581D01*
X146477905Y-100735617D01*
X146476718Y-100736401D01*
X146428965Y-100771912D01*
X146427122Y-100773586D01*
X146425641Y-100775588D01*
X146424580Y-100777840D01*
X146424039Y-100779880D01*
X146414256Y-100834913D01*
X146414063Y-100837395D01*
X146414578Y-100840726D01*
X146435546Y-100911881D01*
X146436509Y-100914243D01*
X146481008Y-100998122D01*
X146481591Y-100999110D01*
X146542402Y-101092316D01*
X146542659Y-101092695D01*
X146612561Y-101191828D01*
X146612565Y-101191834D01*
X146684225Y-101293336D01*
X146750282Y-101393568D01*
X146799328Y-101481469D01*
X146062700Y-102247472D01*
X146062700Y-101014585D01*
X146139451Y-101000532D01*
X146141845Y-100999846D01*
X146144487Y-100998416D01*
X146205862Y-100955096D01*
X146207746Y-100953468D01*
X146209119Y-100951745D01*
X146251507Y-100887905D01*
X146252761Y-100885490D01*
X146282961Y-100807970D01*
X146283311Y-100806944D01*
X146308110Y-100722633D01*
X146334074Y-100639124D01*
X146367594Y-100563682D01*
X146414673Y-100502914D01*
X146481813Y-100462108D01*
X146564540Y-100448890D01*
X146564540Y-100722905D01*
%TA.AperFunction,Conductor*%
D15*
G36*
X146564540Y-100722905D02*
G01*
X146482591Y-100734007D01*
X146480169Y-100734581D01*
X146477905Y-100735617D01*
X146476718Y-100736401D01*
X146428965Y-100771912D01*
X146427122Y-100773586D01*
X146425641Y-100775588D01*
X146424580Y-100777840D01*
X146424039Y-100779880D01*
X146414256Y-100834913D01*
X146414063Y-100837395D01*
X146414578Y-100840726D01*
X146435546Y-100911881D01*
X146436509Y-100914243D01*
X146481008Y-100998122D01*
X146481591Y-100999110D01*
X146542402Y-101092316D01*
X146542659Y-101092695D01*
X146612561Y-101191828D01*
X146612565Y-101191834D01*
X146684225Y-101293336D01*
X146750282Y-101393568D01*
X146799328Y-101481469D01*
X146062700Y-102247472D01*
X146062700Y-101014585D01*
X146139451Y-101000532D01*
X146141845Y-100999846D01*
X146144487Y-100998416D01*
X146205862Y-100955096D01*
X146207746Y-100953468D01*
X146209119Y-100951745D01*
X146251507Y-100887905D01*
X146252761Y-100885490D01*
X146282961Y-100807970D01*
X146283311Y-100806944D01*
X146308110Y-100722633D01*
X146334074Y-100639124D01*
X146367594Y-100563682D01*
X146414673Y-100502914D01*
X146481813Y-100462108D01*
X146564540Y-100448890D01*
X146564540Y-100722905D01*
G37*
%TD.AperFunction*%
%TD*%
D16*
%TO.N,mKBD_DATA*%
X149111150Y-101184875D02*
X149241556Y-101270392D01*
X149354014Y-101354832D01*
X149456078Y-101435848D01*
X149456304Y-101436023D01*
X149555456Y-101511154D01*
X149556252Y-101511711D01*
X149659975Y-101578479D01*
X149661321Y-101579234D01*
X149777241Y-101635278D01*
X149778937Y-101635952D01*
X149914684Y-101678908D01*
X149916405Y-101679323D01*
X150079606Y-101706829D01*
X150081097Y-101706991D01*
X150267300Y-101716094D01*
X150267300Y-101991906D01*
X150081097Y-102001008D01*
X150079606Y-102001170D01*
X149916405Y-102028676D01*
X149914684Y-102029091D01*
X149778937Y-102072047D01*
X149777241Y-102072721D01*
X149661321Y-102128765D01*
X149659975Y-102129520D01*
X149556252Y-102196288D01*
X149555456Y-102196845D01*
X149456304Y-102271976D01*
X149456078Y-102272151D01*
X149354014Y-102353167D01*
X149241556Y-102437607D01*
X149111150Y-102523124D01*
X148962624Y-102603418D01*
X148183322Y-101854000D01*
X148962624Y-101104582D01*
X149111150Y-101184875D01*
%TA.AperFunction,Conductor*%
D15*
G36*
X149111150Y-101184875D02*
G01*
X149241556Y-101270392D01*
X149354014Y-101354832D01*
X149456078Y-101435848D01*
X149456304Y-101436023D01*
X149555456Y-101511154D01*
X149556252Y-101511711D01*
X149659975Y-101578479D01*
X149661321Y-101579234D01*
X149777241Y-101635278D01*
X149778937Y-101635952D01*
X149914684Y-101678908D01*
X149916405Y-101679323D01*
X150079606Y-101706829D01*
X150081097Y-101706991D01*
X150267300Y-101716094D01*
X150267300Y-101991906D01*
X150081097Y-102001008D01*
X150079606Y-102001170D01*
X149916405Y-102028676D01*
X149914684Y-102029091D01*
X149778937Y-102072047D01*
X149777241Y-102072721D01*
X149661321Y-102128765D01*
X149659975Y-102129520D01*
X149556252Y-102196288D01*
X149555456Y-102196845D01*
X149456304Y-102271976D01*
X149456078Y-102272151D01*
X149354014Y-102353167D01*
X149241556Y-102437607D01*
X149111150Y-102523124D01*
X148962624Y-102603418D01*
X148183322Y-101854000D01*
X148962624Y-101104582D01*
X149111150Y-101184875D01*
G37*
%TD.AperFunction*%
%TD*%
D16*
%TO.N,mKBD_DATA*%
X156430880Y-103786335D02*
X156298333Y-103826512D01*
X156172092Y-103854620D01*
X156057128Y-103873719D01*
X155950267Y-103889358D01*
X155949925Y-103889413D01*
X155848257Y-103907139D01*
X155847299Y-103907344D01*
X155747776Y-103932730D01*
X155746359Y-103933181D01*
X155645825Y-103971818D01*
X155644269Y-103972540D01*
X155539565Y-104030020D01*
X155538181Y-104030901D01*
X155426149Y-104112815D01*
X155425079Y-104113691D01*
X155311523Y-104217441D01*
X155116559Y-104022477D01*
X155220308Y-103908920D01*
X155221184Y-103907850D01*
X155303098Y-103795818D01*
X155303979Y-103794434D01*
X155361459Y-103689730D01*
X155362181Y-103688174D01*
X155400818Y-103587640D01*
X155401269Y-103586223D01*
X155426655Y-103486700D01*
X155426860Y-103485742D01*
X155444586Y-103384074D01*
X155444641Y-103383732D01*
X155460280Y-103276871D01*
X155479379Y-103161907D01*
X155507487Y-103035666D01*
X155547665Y-102903120D01*
X156448491Y-102885509D01*
X156430880Y-103786335D01*
%TA.AperFunction,Conductor*%
D15*
G36*
X156430880Y-103786335D02*
G01*
X156298333Y-103826512D01*
X156172092Y-103854620D01*
X156057128Y-103873719D01*
X155950267Y-103889358D01*
X155949925Y-103889413D01*
X155848257Y-103907139D01*
X155847299Y-103907344D01*
X155747776Y-103932730D01*
X155746359Y-103933181D01*
X155645825Y-103971818D01*
X155644269Y-103972540D01*
X155539565Y-104030020D01*
X155538181Y-104030901D01*
X155426149Y-104112815D01*
X155425079Y-104113691D01*
X155311523Y-104217441D01*
X155116559Y-104022477D01*
X155220308Y-103908920D01*
X155221184Y-103907850D01*
X155303098Y-103795818D01*
X155303979Y-103794434D01*
X155361459Y-103689730D01*
X155362181Y-103688174D01*
X155400818Y-103587640D01*
X155401269Y-103586223D01*
X155426655Y-103486700D01*
X155426860Y-103485742D01*
X155444586Y-103384074D01*
X155444641Y-103383732D01*
X155460280Y-103276871D01*
X155479379Y-103161907D01*
X155507487Y-103035666D01*
X155547665Y-102903120D01*
X156448491Y-102885509D01*
X156430880Y-103786335D01*
G37*
%TD.AperFunction*%
%TD*%
M02*
