%TF.GenerationSoftware,KiCad,Pcbnew,5.1.9+dfsg1-1+deb11u1*%
%TF.CreationDate,2022-11-07T14:16:16+01:00*%
%TF.ProjectId,StandAlone-Adapter,5374616e-6441-46c6-9f6e-652d41646170,SMD Production*%
%TF.SameCoordinates,Original*%
%TF.FileFunction,Copper,L2,Bot*%
%TF.FilePolarity,Positive*%
%FSLAX46Y46*%
G04 Gerber Fmt 4.6, Leading zero omitted, Abs format (unit mm)*
G04 Created by KiCad (PCBNEW 5.1.9+dfsg1-1+deb11u1) date 2022-11-07 14:16:16*
%MOMM*%
%LPD*%
G01*
G04 APERTURE LIST*
%TA.AperFunction,ComponentPad*%
%ADD10O,1.700000X1.700000*%
%TD*%
%TA.AperFunction,ComponentPad*%
%ADD11R,1.700000X1.700000*%
%TD*%
%TA.AperFunction,ComponentPad*%
%ADD12C,4.000000*%
%TD*%
%TA.AperFunction,ComponentPad*%
%ADD13C,1.270000*%
%TD*%
%TA.AperFunction,ComponentPad*%
%ADD14C,3.600000*%
%TD*%
%TA.AperFunction,ComponentPad*%
%ADD15O,1.727200X1.727200*%
%TD*%
%TA.AperFunction,ComponentPad*%
%ADD16R,1.727200X1.727200*%
%TD*%
%TA.AperFunction,WasherPad*%
%ADD17C,2.000000*%
%TD*%
%TA.AperFunction,ViaPad*%
%ADD18C,0.600000*%
%TD*%
%TA.AperFunction,Conductor*%
%ADD19C,0.250000*%
%TD*%
%TA.AperFunction,Conductor*%
%ADD20C,0.254000*%
%TD*%
%TA.AperFunction,Conductor*%
%ADD21C,0.100000*%
%TD*%
G04 APERTURE END LIST*
D10*
%TO.P,EN1,2*%
%TO.N,GND*%
X130000000Y-96040000D03*
D11*
%TO.P,EN1,1*%
%TO.N,NRST*%
X130000000Y-93500000D03*
%TD*%
D12*
%TO.P,H1,1*%
%TO.N,Net-(H1-Pad1)*%
X111760000Y-121920000D03*
%TD*%
%TO.P,H2,1*%
%TO.N,Net-(H2-Pad1)*%
X185420000Y-68580000D03*
%TD*%
%TO.P,H3,1*%
%TO.N,Net-(H3-Pad1)*%
X185420000Y-121920000D03*
%TD*%
%TO.P,H4,1*%
%TO.N,Net-(H4-Pad1)*%
X111760000Y-68580000D03*
%TD*%
D13*
%TO.P,J1,3*%
%TO.N,KBD_DATA*%
X150965000Y-107770000D03*
D14*
%TO.P,J1,5*%
%TO.N,N/C*%
X147790000Y-116650000D03*
X155410000Y-116650000D03*
D13*
%TO.P,J1,1*%
%TO.N,+5V*%
X153505000Y-107770000D03*
%TO.P,J1,4*%
%TO.N,GND*%
X149695000Y-110300000D03*
%TO.P,J1,2*%
%TO.N,KBD_CLOCK*%
X152235000Y-110300000D03*
%TD*%
D10*
%TO.P,J2,3*%
%TO.N,GND*%
X138580000Y-72500000D03*
%TO.P,J2,2*%
%TO.N,BOOT0*%
X136040000Y-72500000D03*
D11*
%TO.P,J2,1*%
%TO.N,VCC3V3*%
X133500000Y-72500000D03*
%TD*%
D15*
%TO.P,J3,6*%
%TO.N,+5V*%
X125040000Y-115080000D03*
%TO.P,J3,5*%
%TO.N,KBD_RESET*%
X122500000Y-115080000D03*
%TO.P,J3,4*%
%TO.N,GND*%
X125040000Y-112540000D03*
%TO.P,J3,3*%
X122500000Y-112540000D03*
%TO.P,J3,2*%
%TO.N,KBD_DATA*%
X125040000Y-110000000D03*
D16*
%TO.P,J3,1*%
%TO.N,KBD_CLOCK*%
X122500000Y-110000000D03*
%TD*%
D10*
%TO.P,J4,4*%
%TO.N,VCC3V3*%
X127620000Y-76000000D03*
%TO.P,J4,3*%
%TO.N,SWDCLK*%
X125080000Y-76000000D03*
%TO.P,J4,2*%
%TO.N,SWDIO*%
X122540000Y-76000000D03*
D11*
%TO.P,J4,1*%
%TO.N,GND*%
X120000000Y-76000000D03*
%TD*%
D10*
%TO.P,J5,5*%
%TO.N,+5V*%
X177000000Y-114160000D03*
%TO.P,J5,4*%
%TO.N,GND*%
X177000000Y-111620000D03*
%TO.P,J5,3*%
%TO.N,Net-(J5-Pad3)*%
X177000000Y-109080000D03*
%TO.P,J5,2*%
%TO.N,KBD_DATA*%
X177000000Y-106540000D03*
D11*
%TO.P,J5,1*%
%TO.N,KBD_CLOCK*%
X177000000Y-104000000D03*
%TD*%
D10*
%TO.P,J6,3*%
%TO.N,GND*%
X138580000Y-68500000D03*
%TO.P,J6,2*%
%TO.N,BOOT1*%
X136040000Y-68500000D03*
D11*
%TO.P,J6,1*%
%TO.N,VCC3V3*%
X133500000Y-68500000D03*
%TD*%
D10*
%TO.P,J7,3*%
%TO.N,UART_TX_TTL*%
X124580000Y-84000000D03*
%TO.P,J7,2*%
%TO.N,UART_RX_TTL*%
X122040000Y-84000000D03*
D11*
%TO.P,J7,1*%
%TO.N,GND*%
X119500000Y-84000000D03*
%TD*%
D10*
%TO.P,J8,2*%
%TO.N,GND*%
X177000000Y-120000000D03*
D11*
%TO.P,J8,1*%
%TO.N,KBD_RESET*%
X174460000Y-120000000D03*
%TD*%
D10*
%TO.P,J9,2*%
%TO.N,TP1*%
X131000000Y-84540000D03*
D11*
%TO.P,J9,1*%
%TO.N,TP2*%
X131000000Y-82000000D03*
%TD*%
D10*
%TO.P,J10,4*%
%TO.N,VCC12V*%
X177000000Y-86620000D03*
%TO.P,J10,3*%
%TO.N,GND*%
X177000000Y-84080000D03*
%TO.P,J10,2*%
X177000000Y-81540000D03*
D11*
%TO.P,J10,1*%
%TO.N,+5V*%
X177000000Y-79000000D03*
%TD*%
D10*
%TO.P,J11,2*%
%TO.N,USB_ID*%
X161500000Y-71040000D03*
D11*
%TO.P,J11,1*%
%TO.N,GND*%
X161500000Y-68500000D03*
%TD*%
D17*
%TO.P,USB1,*%
%TO.N,*%
X152430000Y-76440000D03*
X148230000Y-76440000D03*
%TD*%
D18*
%TO.N,GND*%
X140900300Y-96880000D03*
X138026900Y-99933500D03*
%TO.N,VCC3V3*%
X141453300Y-84528700D03*
%TO.N,KBD_3v3_DATA*%
X145194300Y-106650400D03*
X150079900Y-98582900D03*
%TO.N,KBD_3v3_CLOCK*%
X144824400Y-109357600D03*
X149841400Y-101178300D03*
%TO.N,TP1*%
X151550000Y-97269600D03*
%TO.N,SWDIO*%
X145706400Y-89830300D03*
%TO.N,SWDCLK*%
X141847600Y-90450000D03*
%TO.N,TP2*%
X152204400Y-97931000D03*
%TO.N,UART_RX_TTL*%
X153052700Y-98781000D03*
%TO.N,UART_TX_TTL*%
X153206700Y-99681000D03*
%TO.N,Net-(R7-Pad2)*%
X138034200Y-83788800D03*
X152564200Y-92450000D03*
%TD*%
D19*
%TO.N,KBD_CLOCK*%
X152235000Y-110300000D02*
X151266000Y-111269000D01*
X151266000Y-111269000D02*
X124586300Y-111269000D01*
X124586300Y-111269000D02*
X123688900Y-110371600D01*
X123688900Y-110371600D02*
X123688900Y-110000000D01*
X122500000Y-110000000D02*
X123688900Y-110000000D01*
%TO.N,KBD_DATA*%
X125040000Y-110000000D02*
X148524800Y-110000000D01*
X148524800Y-110000000D02*
X150754800Y-107770000D01*
X150754800Y-107770000D02*
X150965000Y-107770000D01*
%TO.N,GND*%
X138026900Y-99097600D02*
X134232900Y-99097600D01*
X134232900Y-99097600D02*
X131175300Y-96040000D01*
X138026900Y-99933500D02*
X138026900Y-99097600D01*
X138026900Y-99097600D02*
X138682700Y-99097600D01*
X138682700Y-99097600D02*
X140900300Y-96880000D01*
X130000000Y-96040000D02*
X130000000Y-97215300D01*
X122500000Y-112540000D02*
X122500000Y-111351100D01*
X122500000Y-111351100D02*
X121608300Y-111351100D01*
X121608300Y-111351100D02*
X121311000Y-111053800D01*
X121311000Y-111053800D02*
X121311000Y-105904300D01*
X121311000Y-105904300D02*
X130000000Y-97215300D01*
X130000000Y-96040000D02*
X131175300Y-96040000D01*
X119500000Y-84000000D02*
X119500000Y-85175300D01*
X130000000Y-96040000D02*
X130000000Y-94864700D01*
X119500000Y-85175300D02*
X129189400Y-94864700D01*
X129189400Y-94864700D02*
X130000000Y-94864700D01*
X120000000Y-77175300D02*
X119500000Y-77675300D01*
X119500000Y-77675300D02*
X119500000Y-84000000D01*
X120000000Y-76000000D02*
X120000000Y-77175300D01*
%TO.N,VCC3V3*%
X134675300Y-72500000D02*
X134675300Y-77750700D01*
X134675300Y-77750700D02*
X141453300Y-84528700D01*
X133500000Y-72500000D02*
X134675300Y-72500000D01*
X133500000Y-68500000D02*
X133500000Y-72500000D01*
%TO.N,+5V*%
X153505000Y-107770000D02*
X153505000Y-110403700D01*
X153505000Y-110403700D02*
X150017600Y-113891100D01*
X150017600Y-113891100D02*
X127417800Y-113891100D01*
X127417800Y-113891100D02*
X126228900Y-115080000D01*
X175824700Y-107770000D02*
X153505000Y-107770000D01*
X125040000Y-115080000D02*
X126228900Y-115080000D01*
X175824700Y-107770000D02*
X175824700Y-112176800D01*
X175824700Y-112176800D02*
X176632600Y-112984700D01*
X176632600Y-112984700D02*
X177000000Y-112984700D01*
X177000000Y-80175300D02*
X176632700Y-80175300D01*
X176632700Y-80175300D02*
X175824700Y-80983300D01*
X175824700Y-80983300D02*
X175824700Y-107770000D01*
X177000000Y-114160000D02*
X177000000Y-112984700D01*
X177000000Y-79000000D02*
X177000000Y-80175300D01*
%TO.N,KBD_3v3_DATA*%
X150079900Y-98582900D02*
X145194300Y-103468500D01*
X145194300Y-103468500D02*
X145194300Y-106650400D01*
%TO.N,KBD_3v3_CLOCK*%
X149841400Y-101178300D02*
X149841400Y-104340600D01*
X149841400Y-104340600D02*
X144824400Y-109357600D01*
%TO.N,TP1*%
X132175300Y-84540000D02*
X142539100Y-94903800D01*
X142539100Y-94903800D02*
X149184200Y-94903800D01*
X149184200Y-94903800D02*
X151550000Y-97269600D01*
X131000000Y-84540000D02*
X132175300Y-84540000D01*
%TO.N,SWDIO*%
X123715300Y-76000000D02*
X123715300Y-75632600D01*
X123715300Y-75632600D02*
X124523200Y-74824700D01*
X124523200Y-74824700D02*
X128176300Y-74824700D01*
X128176300Y-74824700D02*
X143181900Y-89830300D01*
X143181900Y-89830300D02*
X145706400Y-89830300D01*
X122540000Y-76000000D02*
X123715300Y-76000000D01*
%TO.N,SWDCLK*%
X126255300Y-76000000D02*
X126255300Y-76367400D01*
X126255300Y-76367400D02*
X127063200Y-77175300D01*
X127063200Y-77175300D02*
X128572900Y-77175300D01*
X128572900Y-77175300D02*
X141847600Y-90450000D01*
X125080000Y-76000000D02*
X126255300Y-76000000D01*
%TO.N,TP2*%
X132175300Y-82000000D02*
X142386700Y-92211400D01*
X142386700Y-92211400D02*
X147432700Y-92211400D01*
X147432700Y-92211400D02*
X152204400Y-96983100D01*
X152204400Y-96983100D02*
X152204400Y-97931000D01*
X131000000Y-82000000D02*
X132175300Y-82000000D01*
%TO.N,UART_RX_TTL*%
X122040000Y-84000000D02*
X123215300Y-84000000D01*
X153052700Y-98781000D02*
X152148900Y-98781000D01*
X152148900Y-98781000D02*
X148947200Y-95579300D01*
X148947200Y-95579300D02*
X139121300Y-95579300D01*
X139121300Y-95579300D02*
X126346200Y-82804200D01*
X126346200Y-82804200D02*
X124045800Y-82804200D01*
X124045800Y-82804200D02*
X123215300Y-83634700D01*
X123215300Y-83634700D02*
X123215300Y-84000000D01*
%TO.N,UART_TX_TTL*%
X125755300Y-84000000D02*
X138009900Y-96254600D01*
X138009900Y-96254600D02*
X148654300Y-96254600D01*
X148654300Y-96254600D02*
X152080700Y-99681000D01*
X152080700Y-99681000D02*
X153206700Y-99681000D01*
X124580000Y-84000000D02*
X125755300Y-84000000D01*
%TO.N,Net-(R7-Pad2)*%
X152564200Y-92450000D02*
X148453500Y-88339300D01*
X148453500Y-88339300D02*
X142584700Y-88339300D01*
X142584700Y-88339300D02*
X138034200Y-83788800D01*
%TD*%
D20*
%TO.N,GND*%
X183373262Y-66900285D02*
X183084893Y-67331859D01*
X182886261Y-67811399D01*
X182785000Y-68320475D01*
X182785000Y-68839525D01*
X182886261Y-69348601D01*
X183084893Y-69828141D01*
X183373262Y-70259715D01*
X183740285Y-70626738D01*
X184171859Y-70915107D01*
X184651399Y-71113739D01*
X185160475Y-71215000D01*
X185679525Y-71215000D01*
X186188601Y-71113739D01*
X186668141Y-70915107D01*
X187099715Y-70626738D01*
X187250000Y-70476453D01*
X187250001Y-120023548D01*
X187099715Y-119873262D01*
X186668141Y-119584893D01*
X186188601Y-119386261D01*
X185679525Y-119285000D01*
X185160475Y-119285000D01*
X184651399Y-119386261D01*
X184171859Y-119584893D01*
X183740285Y-119873262D01*
X183373262Y-120240285D01*
X183084893Y-120671859D01*
X182886261Y-121151399D01*
X182785000Y-121660475D01*
X182785000Y-122179525D01*
X182886261Y-122688601D01*
X183084893Y-123168141D01*
X183373262Y-123599715D01*
X183523547Y-123750000D01*
X113656453Y-123750000D01*
X113806738Y-123599715D01*
X114095107Y-123168141D01*
X114293739Y-122688601D01*
X114395000Y-122179525D01*
X114395000Y-121660475D01*
X114293739Y-121151399D01*
X114095107Y-120671859D01*
X113806738Y-120240285D01*
X113439715Y-119873262D01*
X113008141Y-119584893D01*
X112528601Y-119386261D01*
X112019525Y-119285000D01*
X111500475Y-119285000D01*
X110991399Y-119386261D01*
X110511859Y-119584893D01*
X110080285Y-119873262D01*
X109930000Y-120023547D01*
X109930000Y-119150000D01*
X172971928Y-119150000D01*
X172971928Y-120850000D01*
X172984188Y-120974482D01*
X173020498Y-121094180D01*
X173079463Y-121204494D01*
X173158815Y-121301185D01*
X173255506Y-121380537D01*
X173365820Y-121439502D01*
X173485518Y-121475812D01*
X173610000Y-121488072D01*
X175310000Y-121488072D01*
X175434482Y-121475812D01*
X175554180Y-121439502D01*
X175664494Y-121380537D01*
X175761185Y-121301185D01*
X175840537Y-121204494D01*
X175899502Y-121094180D01*
X175923966Y-121013534D01*
X175999731Y-121097588D01*
X176233080Y-121271641D01*
X176495901Y-121396825D01*
X176643110Y-121441476D01*
X176873000Y-121320155D01*
X176873000Y-120127000D01*
X177127000Y-120127000D01*
X177127000Y-121320155D01*
X177356890Y-121441476D01*
X177504099Y-121396825D01*
X177766920Y-121271641D01*
X178000269Y-121097588D01*
X178195178Y-120881355D01*
X178344157Y-120631252D01*
X178441481Y-120356891D01*
X178320814Y-120127000D01*
X177127000Y-120127000D01*
X176873000Y-120127000D01*
X176853000Y-120127000D01*
X176853000Y-119873000D01*
X176873000Y-119873000D01*
X176873000Y-118679845D01*
X177127000Y-118679845D01*
X177127000Y-119873000D01*
X178320814Y-119873000D01*
X178441481Y-119643109D01*
X178344157Y-119368748D01*
X178195178Y-119118645D01*
X178000269Y-118902412D01*
X177766920Y-118728359D01*
X177504099Y-118603175D01*
X177356890Y-118558524D01*
X177127000Y-118679845D01*
X176873000Y-118679845D01*
X176643110Y-118558524D01*
X176495901Y-118603175D01*
X176233080Y-118728359D01*
X175999731Y-118902412D01*
X175923966Y-118986466D01*
X175899502Y-118905820D01*
X175840537Y-118795506D01*
X175761185Y-118698815D01*
X175664494Y-118619463D01*
X175554180Y-118560498D01*
X175434482Y-118524188D01*
X175310000Y-118511928D01*
X173610000Y-118511928D01*
X173485518Y-118524188D01*
X173365820Y-118560498D01*
X173255506Y-118619463D01*
X173158815Y-118698815D01*
X173079463Y-118795506D01*
X173020498Y-118905820D01*
X172984188Y-119025518D01*
X172971928Y-119150000D01*
X109930000Y-119150000D01*
X109930000Y-96396890D01*
X128558524Y-96396890D01*
X128603175Y-96544099D01*
X128728359Y-96806920D01*
X128902412Y-97040269D01*
X129118645Y-97235178D01*
X129368748Y-97384157D01*
X129643109Y-97481481D01*
X129873000Y-97360814D01*
X129873000Y-96167000D01*
X130127000Y-96167000D01*
X130127000Y-97360814D01*
X130356891Y-97481481D01*
X130631252Y-97384157D01*
X130881355Y-97235178D01*
X131097588Y-97040269D01*
X131271641Y-96806920D01*
X131396825Y-96544099D01*
X131441476Y-96396890D01*
X131320155Y-96167000D01*
X130127000Y-96167000D01*
X129873000Y-96167000D01*
X128679845Y-96167000D01*
X128558524Y-96396890D01*
X109930000Y-96396890D01*
X109930000Y-92650000D01*
X128511928Y-92650000D01*
X128511928Y-94350000D01*
X128524188Y-94474482D01*
X128560498Y-94594180D01*
X128619463Y-94704494D01*
X128698815Y-94801185D01*
X128795506Y-94880537D01*
X128905820Y-94939502D01*
X128986466Y-94963966D01*
X128902412Y-95039731D01*
X128728359Y-95273080D01*
X128603175Y-95535901D01*
X128558524Y-95683110D01*
X128679845Y-95913000D01*
X129873000Y-95913000D01*
X129873000Y-95893000D01*
X130127000Y-95893000D01*
X130127000Y-95913000D01*
X131320155Y-95913000D01*
X131441476Y-95683110D01*
X131396825Y-95535901D01*
X131271641Y-95273080D01*
X131097588Y-95039731D01*
X131013534Y-94963966D01*
X131094180Y-94939502D01*
X131204494Y-94880537D01*
X131301185Y-94801185D01*
X131380537Y-94704494D01*
X131439502Y-94594180D01*
X131475812Y-94474482D01*
X131488072Y-94350000D01*
X131488072Y-92650000D01*
X131475812Y-92525518D01*
X131439502Y-92405820D01*
X131380537Y-92295506D01*
X131301185Y-92198815D01*
X131204494Y-92119463D01*
X131094180Y-92060498D01*
X130974482Y-92024188D01*
X130850000Y-92011928D01*
X129150000Y-92011928D01*
X129025518Y-92024188D01*
X128905820Y-92060498D01*
X128795506Y-92119463D01*
X128698815Y-92198815D01*
X128619463Y-92295506D01*
X128560498Y-92405820D01*
X128524188Y-92525518D01*
X128511928Y-92650000D01*
X109930000Y-92650000D01*
X109930000Y-84850000D01*
X118011928Y-84850000D01*
X118024188Y-84974482D01*
X118060498Y-85094180D01*
X118119463Y-85204494D01*
X118198815Y-85301185D01*
X118295506Y-85380537D01*
X118405820Y-85439502D01*
X118525518Y-85475812D01*
X118650000Y-85488072D01*
X119214250Y-85485000D01*
X119373000Y-85326250D01*
X119373000Y-84127000D01*
X118173750Y-84127000D01*
X118015000Y-84285750D01*
X118011928Y-84850000D01*
X109930000Y-84850000D01*
X109930000Y-83150000D01*
X118011928Y-83150000D01*
X118015000Y-83714250D01*
X118173750Y-83873000D01*
X119373000Y-83873000D01*
X119373000Y-82673750D01*
X119627000Y-82673750D01*
X119627000Y-83873000D01*
X119647000Y-83873000D01*
X119647000Y-84127000D01*
X119627000Y-84127000D01*
X119627000Y-85326250D01*
X119785750Y-85485000D01*
X120350000Y-85488072D01*
X120474482Y-85475812D01*
X120594180Y-85439502D01*
X120704494Y-85380537D01*
X120801185Y-85301185D01*
X120880537Y-85204494D01*
X120939502Y-85094180D01*
X120961513Y-85021620D01*
X121093368Y-85153475D01*
X121336589Y-85315990D01*
X121606842Y-85427932D01*
X121893740Y-85485000D01*
X122186260Y-85485000D01*
X122473158Y-85427932D01*
X122743411Y-85315990D01*
X122986632Y-85153475D01*
X123193475Y-84946632D01*
X123310000Y-84772240D01*
X123426525Y-84946632D01*
X123633368Y-85153475D01*
X123876589Y-85315990D01*
X124146842Y-85427932D01*
X124433740Y-85485000D01*
X124726260Y-85485000D01*
X125013158Y-85427932D01*
X125283411Y-85315990D01*
X125526632Y-85153475D01*
X125680303Y-84999804D01*
X137446100Y-96765602D01*
X137469899Y-96794601D01*
X137498897Y-96818399D01*
X137585624Y-96889574D01*
X137717653Y-96960146D01*
X137860914Y-97003603D01*
X138009900Y-97018277D01*
X138047233Y-97014600D01*
X148339499Y-97014600D01*
X149336868Y-98011970D01*
X149251314Y-98140011D01*
X149180832Y-98310171D01*
X149156747Y-98431251D01*
X144683303Y-102904696D01*
X144654299Y-102928499D01*
X144599171Y-102995674D01*
X144559326Y-103044224D01*
X144502787Y-103150000D01*
X144488754Y-103176254D01*
X144445297Y-103319515D01*
X144434300Y-103431168D01*
X144434300Y-103431178D01*
X144430624Y-103468500D01*
X144434300Y-103505823D01*
X144434301Y-106104863D01*
X144365714Y-106207511D01*
X144295232Y-106377671D01*
X144259300Y-106558311D01*
X144259300Y-106742489D01*
X144295232Y-106923129D01*
X144365714Y-107093289D01*
X144468038Y-107246428D01*
X144598272Y-107376662D01*
X144751411Y-107478986D01*
X144921571Y-107549468D01*
X145102211Y-107585400D01*
X145286389Y-107585400D01*
X145467029Y-107549468D01*
X145621865Y-107485333D01*
X144672752Y-108434447D01*
X144551671Y-108458532D01*
X144381511Y-108529014D01*
X144228372Y-108631338D01*
X144098138Y-108761572D01*
X143995814Y-108914711D01*
X143925332Y-109084871D01*
X143894475Y-109240000D01*
X126334535Y-109240000D01*
X126204039Y-109044698D01*
X125995302Y-108835961D01*
X125749853Y-108671958D01*
X125477125Y-108558990D01*
X125187599Y-108501400D01*
X124892401Y-108501400D01*
X124602875Y-108558990D01*
X124330147Y-108671958D01*
X124084698Y-108835961D01*
X123970636Y-108950023D01*
X123953102Y-108892220D01*
X123894137Y-108781906D01*
X123814785Y-108685215D01*
X123718094Y-108605863D01*
X123607780Y-108546898D01*
X123488082Y-108510588D01*
X123363600Y-108498328D01*
X121636400Y-108498328D01*
X121511918Y-108510588D01*
X121392220Y-108546898D01*
X121281906Y-108605863D01*
X121185215Y-108685215D01*
X121105863Y-108781906D01*
X121046898Y-108892220D01*
X121010588Y-109011918D01*
X120998328Y-109136400D01*
X120998328Y-110863600D01*
X121010588Y-110988082D01*
X121046898Y-111107780D01*
X121105863Y-111218094D01*
X121185215Y-111314785D01*
X121281906Y-111394137D01*
X121392220Y-111453102D01*
X121456574Y-111472624D01*
X121393146Y-111529707D01*
X121217316Y-111765056D01*
X121090778Y-112030186D01*
X121045042Y-112180974D01*
X121166183Y-112413000D01*
X122373000Y-112413000D01*
X122373000Y-112393000D01*
X122627000Y-112393000D01*
X122627000Y-112413000D01*
X124913000Y-112413000D01*
X124913000Y-112393000D01*
X125167000Y-112393000D01*
X125167000Y-112413000D01*
X126373817Y-112413000D01*
X126494958Y-112180974D01*
X126449222Y-112030186D01*
X126448656Y-112029000D01*
X150804898Y-112029000D01*
X149702799Y-113131100D01*
X127455133Y-113131100D01*
X127417800Y-113127423D01*
X127380467Y-113131100D01*
X127268814Y-113142097D01*
X127125553Y-113185554D01*
X126993524Y-113256126D01*
X126877799Y-113351099D01*
X126854001Y-113380097D01*
X126156720Y-114077379D01*
X125995302Y-113915961D01*
X125829897Y-113805441D01*
X125928488Y-113746817D01*
X126146854Y-113550293D01*
X126322684Y-113314944D01*
X126449222Y-113049814D01*
X126494958Y-112899026D01*
X126373817Y-112667000D01*
X125167000Y-112667000D01*
X125167000Y-112687000D01*
X124913000Y-112687000D01*
X124913000Y-112667000D01*
X122627000Y-112667000D01*
X122627000Y-112687000D01*
X122373000Y-112687000D01*
X122373000Y-112667000D01*
X121166183Y-112667000D01*
X121045042Y-112899026D01*
X121090778Y-113049814D01*
X121217316Y-113314944D01*
X121393146Y-113550293D01*
X121611512Y-113746817D01*
X121710103Y-113805441D01*
X121544698Y-113915961D01*
X121335961Y-114124698D01*
X121171958Y-114370147D01*
X121058990Y-114642875D01*
X121001400Y-114932401D01*
X121001400Y-115227599D01*
X121058990Y-115517125D01*
X121171958Y-115789853D01*
X121335961Y-116035302D01*
X121544698Y-116244039D01*
X121790147Y-116408042D01*
X122062875Y-116521010D01*
X122352401Y-116578600D01*
X122647599Y-116578600D01*
X122937125Y-116521010D01*
X123209853Y-116408042D01*
X123455302Y-116244039D01*
X123664039Y-116035302D01*
X123770000Y-115876719D01*
X123875961Y-116035302D01*
X124084698Y-116244039D01*
X124330147Y-116408042D01*
X124602875Y-116521010D01*
X124892401Y-116578600D01*
X125187599Y-116578600D01*
X125477125Y-116521010D01*
X125749853Y-116408042D01*
X125995302Y-116244039D01*
X126204039Y-116035302D01*
X126339347Y-115832799D01*
X126377886Y-115829003D01*
X126521147Y-115785546D01*
X126653176Y-115714974D01*
X126768901Y-115620001D01*
X126792704Y-115590997D01*
X127732602Y-114651100D01*
X146398681Y-114651100D01*
X146237778Y-114758612D01*
X145898612Y-115097778D01*
X145632131Y-115496595D01*
X145448576Y-115939737D01*
X145355000Y-116410173D01*
X145355000Y-116889827D01*
X145448576Y-117360263D01*
X145632131Y-117803405D01*
X145898612Y-118202222D01*
X146237778Y-118541388D01*
X146636595Y-118807869D01*
X147079737Y-118991424D01*
X147550173Y-119085000D01*
X148029827Y-119085000D01*
X148500263Y-118991424D01*
X148943405Y-118807869D01*
X149342222Y-118541388D01*
X149681388Y-118202222D01*
X149947869Y-117803405D01*
X150131424Y-117360263D01*
X150225000Y-116889827D01*
X150225000Y-116410173D01*
X152975000Y-116410173D01*
X152975000Y-116889827D01*
X153068576Y-117360263D01*
X153252131Y-117803405D01*
X153518612Y-118202222D01*
X153857778Y-118541388D01*
X154256595Y-118807869D01*
X154699737Y-118991424D01*
X155170173Y-119085000D01*
X155649827Y-119085000D01*
X156120263Y-118991424D01*
X156563405Y-118807869D01*
X156962222Y-118541388D01*
X157301388Y-118202222D01*
X157567869Y-117803405D01*
X157751424Y-117360263D01*
X157845000Y-116889827D01*
X157845000Y-116410173D01*
X157751424Y-115939737D01*
X157567869Y-115496595D01*
X157301388Y-115097778D01*
X156962222Y-114758612D01*
X156563405Y-114492131D01*
X156120263Y-114308576D01*
X155649827Y-114215000D01*
X155170173Y-114215000D01*
X154699737Y-114308576D01*
X154256595Y-114492131D01*
X153857778Y-114758612D01*
X153518612Y-115097778D01*
X153252131Y-115496595D01*
X153068576Y-115939737D01*
X152975000Y-116410173D01*
X150225000Y-116410173D01*
X150131424Y-115939737D01*
X149947869Y-115496595D01*
X149681388Y-115097778D01*
X149342222Y-114758612D01*
X149181319Y-114651100D01*
X149980278Y-114651100D01*
X150017600Y-114654776D01*
X150054922Y-114651100D01*
X150054933Y-114651100D01*
X150166586Y-114640103D01*
X150309847Y-114596646D01*
X150441876Y-114526074D01*
X150557601Y-114431101D01*
X150581404Y-114402097D01*
X154016008Y-110967495D01*
X154045001Y-110943701D01*
X154068795Y-110914708D01*
X154068799Y-110914704D01*
X154139973Y-110827977D01*
X154149046Y-110811003D01*
X154210546Y-110695947D01*
X154254003Y-110552686D01*
X154265000Y-110441033D01*
X154265000Y-110441024D01*
X154268676Y-110403701D01*
X154265000Y-110366378D01*
X154265000Y-108789600D01*
X154314578Y-108756473D01*
X154491473Y-108579578D01*
X154524600Y-108530000D01*
X175064700Y-108530000D01*
X175064701Y-112139468D01*
X175061024Y-112176800D01*
X175075698Y-112325785D01*
X175119154Y-112469046D01*
X175189726Y-112601076D01*
X175243829Y-112667000D01*
X175284700Y-112716801D01*
X175313698Y-112740599D01*
X175822469Y-113249371D01*
X175684010Y-113456589D01*
X175572068Y-113726842D01*
X175515000Y-114013740D01*
X175515000Y-114306260D01*
X175572068Y-114593158D01*
X175684010Y-114863411D01*
X175846525Y-115106632D01*
X176053368Y-115313475D01*
X176296589Y-115475990D01*
X176566842Y-115587932D01*
X176853740Y-115645000D01*
X177146260Y-115645000D01*
X177433158Y-115587932D01*
X177703411Y-115475990D01*
X177946632Y-115313475D01*
X178153475Y-115106632D01*
X178315990Y-114863411D01*
X178427932Y-114593158D01*
X178485000Y-114306260D01*
X178485000Y-114013740D01*
X178427932Y-113726842D01*
X178315990Y-113456589D01*
X178153475Y-113213368D01*
X177946632Y-113006525D01*
X177764466Y-112884805D01*
X177881355Y-112815178D01*
X178097588Y-112620269D01*
X178271641Y-112386920D01*
X178396825Y-112124099D01*
X178441476Y-111976890D01*
X178320155Y-111747000D01*
X177127000Y-111747000D01*
X177127000Y-111767000D01*
X176873000Y-111767000D01*
X176873000Y-111747000D01*
X176853000Y-111747000D01*
X176853000Y-111493000D01*
X176873000Y-111493000D01*
X176873000Y-111473000D01*
X177127000Y-111473000D01*
X177127000Y-111493000D01*
X178320155Y-111493000D01*
X178441476Y-111263110D01*
X178396825Y-111115901D01*
X178271641Y-110853080D01*
X178097588Y-110619731D01*
X177881355Y-110424822D01*
X177764466Y-110355195D01*
X177946632Y-110233475D01*
X178153475Y-110026632D01*
X178315990Y-109783411D01*
X178427932Y-109513158D01*
X178485000Y-109226260D01*
X178485000Y-108933740D01*
X178427932Y-108646842D01*
X178315990Y-108376589D01*
X178153475Y-108133368D01*
X177946632Y-107926525D01*
X177772240Y-107810000D01*
X177946632Y-107693475D01*
X178153475Y-107486632D01*
X178315990Y-107243411D01*
X178427932Y-106973158D01*
X178485000Y-106686260D01*
X178485000Y-106393740D01*
X178427932Y-106106842D01*
X178315990Y-105836589D01*
X178153475Y-105593368D01*
X178021620Y-105461513D01*
X178094180Y-105439502D01*
X178204494Y-105380537D01*
X178301185Y-105301185D01*
X178380537Y-105204494D01*
X178439502Y-105094180D01*
X178475812Y-104974482D01*
X178488072Y-104850000D01*
X178488072Y-103150000D01*
X178475812Y-103025518D01*
X178439502Y-102905820D01*
X178380537Y-102795506D01*
X178301185Y-102698815D01*
X178204494Y-102619463D01*
X178094180Y-102560498D01*
X177974482Y-102524188D01*
X177850000Y-102511928D01*
X176584700Y-102511928D01*
X176584700Y-88051484D01*
X176853740Y-88105000D01*
X177146260Y-88105000D01*
X177433158Y-88047932D01*
X177703411Y-87935990D01*
X177946632Y-87773475D01*
X178153475Y-87566632D01*
X178315990Y-87323411D01*
X178427932Y-87053158D01*
X178485000Y-86766260D01*
X178485000Y-86473740D01*
X178427932Y-86186842D01*
X178315990Y-85916589D01*
X178153475Y-85673368D01*
X177946632Y-85466525D01*
X177764466Y-85344805D01*
X177881355Y-85275178D01*
X178097588Y-85080269D01*
X178271641Y-84846920D01*
X178396825Y-84584099D01*
X178441476Y-84436890D01*
X178320155Y-84207000D01*
X177127000Y-84207000D01*
X177127000Y-84227000D01*
X176873000Y-84227000D01*
X176873000Y-84207000D01*
X176853000Y-84207000D01*
X176853000Y-83953000D01*
X176873000Y-83953000D01*
X176873000Y-81667000D01*
X177127000Y-81667000D01*
X177127000Y-83953000D01*
X178320155Y-83953000D01*
X178441476Y-83723110D01*
X178396825Y-83575901D01*
X178271641Y-83313080D01*
X178097588Y-83079731D01*
X177881355Y-82884822D01*
X177755745Y-82810000D01*
X177881355Y-82735178D01*
X178097588Y-82540269D01*
X178271641Y-82306920D01*
X178396825Y-82044099D01*
X178441476Y-81896890D01*
X178320155Y-81667000D01*
X177127000Y-81667000D01*
X176873000Y-81667000D01*
X176853000Y-81667000D01*
X176853000Y-81413000D01*
X176873000Y-81413000D01*
X176873000Y-81393000D01*
X177127000Y-81393000D01*
X177127000Y-81413000D01*
X178320155Y-81413000D01*
X178441476Y-81183110D01*
X178396825Y-81035901D01*
X178271641Y-80773080D01*
X178097588Y-80539731D01*
X178013534Y-80463966D01*
X178094180Y-80439502D01*
X178204494Y-80380537D01*
X178301185Y-80301185D01*
X178380537Y-80204494D01*
X178439502Y-80094180D01*
X178475812Y-79974482D01*
X178488072Y-79850000D01*
X178488072Y-78150000D01*
X178475812Y-78025518D01*
X178439502Y-77905820D01*
X178380537Y-77795506D01*
X178301185Y-77698815D01*
X178204494Y-77619463D01*
X178094180Y-77560498D01*
X177974482Y-77524188D01*
X177850000Y-77511928D01*
X176150000Y-77511928D01*
X176025518Y-77524188D01*
X175905820Y-77560498D01*
X175795506Y-77619463D01*
X175698815Y-77698815D01*
X175619463Y-77795506D01*
X175560498Y-77905820D01*
X175524188Y-78025518D01*
X175511928Y-78150000D01*
X175511928Y-79850000D01*
X175524188Y-79974482D01*
X175560498Y-80094180D01*
X175587849Y-80145350D01*
X175313702Y-80419497D01*
X175284699Y-80443299D01*
X175258017Y-80475812D01*
X175189726Y-80559024D01*
X175121693Y-80686303D01*
X175119154Y-80691054D01*
X175075697Y-80834315D01*
X175064700Y-80945968D01*
X175064700Y-80945978D01*
X175061024Y-80983300D01*
X175064700Y-81020622D01*
X175064701Y-107010000D01*
X154524600Y-107010000D01*
X154491473Y-106960422D01*
X154314578Y-106783527D01*
X154106571Y-106644541D01*
X153875445Y-106548805D01*
X153630084Y-106500000D01*
X153379916Y-106500000D01*
X153134555Y-106548805D01*
X152903429Y-106644541D01*
X152695422Y-106783527D01*
X152518527Y-106960422D01*
X152379541Y-107168429D01*
X152283805Y-107399555D01*
X152235000Y-107644916D01*
X152186195Y-107399555D01*
X152090459Y-107168429D01*
X151951473Y-106960422D01*
X151774578Y-106783527D01*
X151566571Y-106644541D01*
X151335445Y-106548805D01*
X151090084Y-106500000D01*
X150839916Y-106500000D01*
X150594555Y-106548805D01*
X150363429Y-106644541D01*
X150155422Y-106783527D01*
X149978527Y-106960422D01*
X149839541Y-107168429D01*
X149743805Y-107399555D01*
X149695000Y-107644916D01*
X149695000Y-107754998D01*
X148209999Y-109240000D01*
X146016801Y-109240000D01*
X150352408Y-104904395D01*
X150381401Y-104880601D01*
X150405195Y-104851608D01*
X150405199Y-104851604D01*
X150476373Y-104764877D01*
X150476374Y-104764876D01*
X150546946Y-104632847D01*
X150590403Y-104489586D01*
X150601400Y-104377933D01*
X150601400Y-104377924D01*
X150605076Y-104340601D01*
X150601400Y-104303278D01*
X150601400Y-101723835D01*
X150669986Y-101621189D01*
X150740468Y-101451029D01*
X150776400Y-101270389D01*
X150776400Y-101086211D01*
X150740468Y-100905571D01*
X150669986Y-100735411D01*
X150567662Y-100582272D01*
X150437428Y-100452038D01*
X150284289Y-100349714D01*
X150114129Y-100279232D01*
X149933489Y-100243300D01*
X149749311Y-100243300D01*
X149568671Y-100279232D01*
X149398511Y-100349714D01*
X149366496Y-100371106D01*
X150231549Y-99506053D01*
X150352629Y-99481968D01*
X150522789Y-99411486D01*
X150650830Y-99325932D01*
X151516901Y-100192003D01*
X151540699Y-100221001D01*
X151656424Y-100315974D01*
X151788453Y-100386546D01*
X151931714Y-100430003D01*
X152043367Y-100441000D01*
X152043376Y-100441000D01*
X152080699Y-100444676D01*
X152118022Y-100441000D01*
X152661165Y-100441000D01*
X152763811Y-100509586D01*
X152933971Y-100580068D01*
X153114611Y-100616000D01*
X153298789Y-100616000D01*
X153479429Y-100580068D01*
X153649589Y-100509586D01*
X153802728Y-100407262D01*
X153932962Y-100277028D01*
X154035286Y-100123889D01*
X154105768Y-99953729D01*
X154141700Y-99773089D01*
X154141700Y-99588911D01*
X154105768Y-99408271D01*
X154035286Y-99238111D01*
X153936582Y-99090390D01*
X153951768Y-99053729D01*
X153987700Y-98873089D01*
X153987700Y-98688911D01*
X153951768Y-98508271D01*
X153881286Y-98338111D01*
X153778962Y-98184972D01*
X153648728Y-98054738D01*
X153495589Y-97952414D01*
X153325429Y-97881932D01*
X153144789Y-97846000D01*
X153139400Y-97846000D01*
X153139400Y-97838911D01*
X153103468Y-97658271D01*
X153032986Y-97488111D01*
X152964400Y-97385465D01*
X152964400Y-97020423D01*
X152968076Y-96983100D01*
X152964400Y-96945777D01*
X152964400Y-96945767D01*
X152953403Y-96834114D01*
X152909946Y-96690853D01*
X152839374Y-96558824D01*
X152744401Y-96443099D01*
X152715404Y-96419302D01*
X147996504Y-91700403D01*
X147972701Y-91671399D01*
X147856976Y-91576426D01*
X147724947Y-91505854D01*
X147581686Y-91462397D01*
X147470033Y-91451400D01*
X147470022Y-91451400D01*
X147432700Y-91447724D01*
X147395378Y-91451400D01*
X142701502Y-91451400D01*
X142433279Y-91183177D01*
X142443628Y-91176262D01*
X142573862Y-91046028D01*
X142676186Y-90892889D01*
X142746668Y-90722729D01*
X142782600Y-90542089D01*
X142782600Y-90478625D01*
X142889653Y-90535846D01*
X143032914Y-90579303D01*
X143144567Y-90590300D01*
X143144576Y-90590300D01*
X143181899Y-90593976D01*
X143219222Y-90590300D01*
X145160865Y-90590300D01*
X145263511Y-90658886D01*
X145433671Y-90729368D01*
X145614311Y-90765300D01*
X145798489Y-90765300D01*
X145979129Y-90729368D01*
X146149289Y-90658886D01*
X146302428Y-90556562D01*
X146432662Y-90426328D01*
X146534986Y-90273189D01*
X146605468Y-90103029D01*
X146641400Y-89922389D01*
X146641400Y-89738211D01*
X146605468Y-89557571D01*
X146534986Y-89387411D01*
X146432662Y-89234272D01*
X146302428Y-89104038D01*
X146295337Y-89099300D01*
X148138699Y-89099300D01*
X151641047Y-92601649D01*
X151665132Y-92722729D01*
X151735614Y-92892889D01*
X151837938Y-93046028D01*
X151968172Y-93176262D01*
X152121311Y-93278586D01*
X152291471Y-93349068D01*
X152472111Y-93385000D01*
X152656289Y-93385000D01*
X152836929Y-93349068D01*
X153007089Y-93278586D01*
X153160228Y-93176262D01*
X153290462Y-93046028D01*
X153392786Y-92892889D01*
X153463268Y-92722729D01*
X153499200Y-92542089D01*
X153499200Y-92357911D01*
X153463268Y-92177271D01*
X153392786Y-92007111D01*
X153290462Y-91853972D01*
X153160228Y-91723738D01*
X153007089Y-91621414D01*
X152836929Y-91550932D01*
X152715849Y-91526847D01*
X149017304Y-87828303D01*
X148993501Y-87799299D01*
X148877776Y-87704326D01*
X148745747Y-87633754D01*
X148602486Y-87590297D01*
X148490833Y-87579300D01*
X148490822Y-87579300D01*
X148453500Y-87575624D01*
X148416178Y-87579300D01*
X142899502Y-87579300D01*
X138957353Y-83637152D01*
X138933268Y-83516071D01*
X138862786Y-83345911D01*
X138760462Y-83192772D01*
X138630228Y-83062538D01*
X138477089Y-82960214D01*
X138306929Y-82889732D01*
X138126289Y-82853800D01*
X137942111Y-82853800D01*
X137761471Y-82889732D01*
X137591311Y-82960214D01*
X137468605Y-83042203D01*
X128740104Y-74313703D01*
X128716301Y-74284699D01*
X128600576Y-74189726D01*
X128468547Y-74119154D01*
X128325286Y-74075697D01*
X128213633Y-74064700D01*
X128213622Y-74064700D01*
X128176300Y-74061024D01*
X128138978Y-74064700D01*
X124560522Y-74064700D01*
X124523199Y-74061024D01*
X124485876Y-74064700D01*
X124485867Y-74064700D01*
X124374214Y-74075697D01*
X124230953Y-74119154D01*
X124098923Y-74189726D01*
X124015283Y-74258368D01*
X123983199Y-74284699D01*
X123959401Y-74313698D01*
X123450630Y-74822469D01*
X123243411Y-74684010D01*
X122973158Y-74572068D01*
X122686260Y-74515000D01*
X122393740Y-74515000D01*
X122106842Y-74572068D01*
X121836589Y-74684010D01*
X121593368Y-74846525D01*
X121461513Y-74978380D01*
X121439502Y-74905820D01*
X121380537Y-74795506D01*
X121301185Y-74698815D01*
X121204494Y-74619463D01*
X121094180Y-74560498D01*
X120974482Y-74524188D01*
X120850000Y-74511928D01*
X120285750Y-74515000D01*
X120127000Y-74673750D01*
X120127000Y-75873000D01*
X120147000Y-75873000D01*
X120147000Y-76127000D01*
X120127000Y-76127000D01*
X120127000Y-77326250D01*
X120285750Y-77485000D01*
X120850000Y-77488072D01*
X120974482Y-77475812D01*
X121094180Y-77439502D01*
X121204494Y-77380537D01*
X121301185Y-77301185D01*
X121380537Y-77204494D01*
X121439502Y-77094180D01*
X121461513Y-77021620D01*
X121593368Y-77153475D01*
X121836589Y-77315990D01*
X122106842Y-77427932D01*
X122393740Y-77485000D01*
X122686260Y-77485000D01*
X122973158Y-77427932D01*
X123243411Y-77315990D01*
X123486632Y-77153475D01*
X123693475Y-76946632D01*
X123810000Y-76772240D01*
X123926525Y-76946632D01*
X124133368Y-77153475D01*
X124376589Y-77315990D01*
X124646842Y-77427932D01*
X124933740Y-77485000D01*
X125226260Y-77485000D01*
X125513158Y-77427932D01*
X125783411Y-77315990D01*
X125990630Y-77177531D01*
X126499401Y-77686302D01*
X126523199Y-77715301D01*
X126552197Y-77739099D01*
X126638923Y-77810274D01*
X126770953Y-77880846D01*
X126914214Y-77924303D01*
X127025867Y-77935300D01*
X127025876Y-77935300D01*
X127063199Y-77938976D01*
X127100522Y-77935300D01*
X128258099Y-77935300D01*
X130834727Y-80511928D01*
X130150000Y-80511928D01*
X130025518Y-80524188D01*
X129905820Y-80560498D01*
X129795506Y-80619463D01*
X129698815Y-80698815D01*
X129619463Y-80795506D01*
X129560498Y-80905820D01*
X129524188Y-81025518D01*
X129511928Y-81150000D01*
X129511928Y-82850000D01*
X129524188Y-82974482D01*
X129560498Y-83094180D01*
X129619463Y-83204494D01*
X129698815Y-83301185D01*
X129795506Y-83380537D01*
X129905820Y-83439502D01*
X129978380Y-83461513D01*
X129846525Y-83593368D01*
X129684010Y-83836589D01*
X129572068Y-84106842D01*
X129515000Y-84393740D01*
X129515000Y-84686260D01*
X129567626Y-84950824D01*
X126910004Y-82293203D01*
X126886201Y-82264199D01*
X126770476Y-82169226D01*
X126638447Y-82098654D01*
X126495186Y-82055197D01*
X126383533Y-82044200D01*
X126383522Y-82044200D01*
X126346200Y-82040524D01*
X126308878Y-82044200D01*
X124083122Y-82044200D01*
X124045799Y-82040524D01*
X124008476Y-82044200D01*
X124008467Y-82044200D01*
X123896814Y-82055197D01*
X123753553Y-82098654D01*
X123621524Y-82169226D01*
X123505799Y-82264199D01*
X123482001Y-82293198D01*
X122951889Y-82823310D01*
X122743411Y-82684010D01*
X122473158Y-82572068D01*
X122186260Y-82515000D01*
X121893740Y-82515000D01*
X121606842Y-82572068D01*
X121336589Y-82684010D01*
X121093368Y-82846525D01*
X120961513Y-82978380D01*
X120939502Y-82905820D01*
X120880537Y-82795506D01*
X120801185Y-82698815D01*
X120704494Y-82619463D01*
X120594180Y-82560498D01*
X120474482Y-82524188D01*
X120350000Y-82511928D01*
X119785750Y-82515000D01*
X119627000Y-82673750D01*
X119373000Y-82673750D01*
X119214250Y-82515000D01*
X118650000Y-82511928D01*
X118525518Y-82524188D01*
X118405820Y-82560498D01*
X118295506Y-82619463D01*
X118198815Y-82698815D01*
X118119463Y-82795506D01*
X118060498Y-82905820D01*
X118024188Y-83025518D01*
X118011928Y-83150000D01*
X109930000Y-83150000D01*
X109930000Y-76850000D01*
X118511928Y-76850000D01*
X118524188Y-76974482D01*
X118560498Y-77094180D01*
X118619463Y-77204494D01*
X118698815Y-77301185D01*
X118795506Y-77380537D01*
X118905820Y-77439502D01*
X119025518Y-77475812D01*
X119150000Y-77488072D01*
X119714250Y-77485000D01*
X119873000Y-77326250D01*
X119873000Y-76127000D01*
X118673750Y-76127000D01*
X118515000Y-76285750D01*
X118511928Y-76850000D01*
X109930000Y-76850000D01*
X109930000Y-75150000D01*
X118511928Y-75150000D01*
X118515000Y-75714250D01*
X118673750Y-75873000D01*
X119873000Y-75873000D01*
X119873000Y-74673750D01*
X119714250Y-74515000D01*
X119150000Y-74511928D01*
X119025518Y-74524188D01*
X118905820Y-74560498D01*
X118795506Y-74619463D01*
X118698815Y-74698815D01*
X118619463Y-74795506D01*
X118560498Y-74905820D01*
X118524188Y-75025518D01*
X118511928Y-75150000D01*
X109930000Y-75150000D01*
X109930000Y-70476453D01*
X110080285Y-70626738D01*
X110511859Y-70915107D01*
X110991399Y-71113739D01*
X111500475Y-71215000D01*
X112019525Y-71215000D01*
X112528601Y-71113739D01*
X113008141Y-70915107D01*
X113439715Y-70626738D01*
X113806738Y-70259715D01*
X114095107Y-69828141D01*
X114293739Y-69348601D01*
X114395000Y-68839525D01*
X114395000Y-68320475D01*
X114293739Y-67811399D01*
X114226886Y-67650000D01*
X132011928Y-67650000D01*
X132011928Y-69350000D01*
X132024188Y-69474482D01*
X132060498Y-69594180D01*
X132119463Y-69704494D01*
X132198815Y-69801185D01*
X132295506Y-69880537D01*
X132405820Y-69939502D01*
X132525518Y-69975812D01*
X132650000Y-69988072D01*
X132740000Y-69988072D01*
X132740001Y-71011928D01*
X132650000Y-71011928D01*
X132525518Y-71024188D01*
X132405820Y-71060498D01*
X132295506Y-71119463D01*
X132198815Y-71198815D01*
X132119463Y-71295506D01*
X132060498Y-71405820D01*
X132024188Y-71525518D01*
X132011928Y-71650000D01*
X132011928Y-73350000D01*
X132024188Y-73474482D01*
X132060498Y-73594180D01*
X132119463Y-73704494D01*
X132198815Y-73801185D01*
X132295506Y-73880537D01*
X132405820Y-73939502D01*
X132525518Y-73975812D01*
X132650000Y-73988072D01*
X133915300Y-73988072D01*
X133915301Y-77713368D01*
X133911624Y-77750700D01*
X133915301Y-77788033D01*
X133925238Y-77888918D01*
X133926298Y-77899685D01*
X133969754Y-78042946D01*
X134040326Y-78174976D01*
X134090673Y-78236323D01*
X134135300Y-78290701D01*
X134164298Y-78314499D01*
X140530147Y-84680349D01*
X140554232Y-84801429D01*
X140624714Y-84971589D01*
X140727038Y-85124728D01*
X140857272Y-85254962D01*
X141010411Y-85357286D01*
X141180571Y-85427768D01*
X141361211Y-85463700D01*
X141545389Y-85463700D01*
X141726029Y-85427768D01*
X141896189Y-85357286D01*
X142049328Y-85254962D01*
X142179562Y-85124728D01*
X142281886Y-84971589D01*
X142352368Y-84801429D01*
X142388300Y-84620789D01*
X142388300Y-84436611D01*
X142352368Y-84255971D01*
X142281886Y-84085811D01*
X142179562Y-83932672D01*
X142049328Y-83802438D01*
X141896189Y-83700114D01*
X141726029Y-83629632D01*
X141604949Y-83605547D01*
X135435300Y-77435899D01*
X135435300Y-76278967D01*
X146595000Y-76278967D01*
X146595000Y-76601033D01*
X146657832Y-76916912D01*
X146781082Y-77214463D01*
X146960013Y-77482252D01*
X147187748Y-77709987D01*
X147455537Y-77888918D01*
X147753088Y-78012168D01*
X148068967Y-78075000D01*
X148391033Y-78075000D01*
X148706912Y-78012168D01*
X149004463Y-77888918D01*
X149272252Y-77709987D01*
X149499987Y-77482252D01*
X149678918Y-77214463D01*
X149802168Y-76916912D01*
X149865000Y-76601033D01*
X149865000Y-76278967D01*
X150795000Y-76278967D01*
X150795000Y-76601033D01*
X150857832Y-76916912D01*
X150981082Y-77214463D01*
X151160013Y-77482252D01*
X151387748Y-77709987D01*
X151655537Y-77888918D01*
X151953088Y-78012168D01*
X152268967Y-78075000D01*
X152591033Y-78075000D01*
X152906912Y-78012168D01*
X153204463Y-77888918D01*
X153472252Y-77709987D01*
X153699987Y-77482252D01*
X153878918Y-77214463D01*
X154002168Y-76916912D01*
X154065000Y-76601033D01*
X154065000Y-76278967D01*
X154002168Y-75963088D01*
X153878918Y-75665537D01*
X153699987Y-75397748D01*
X153472252Y-75170013D01*
X153204463Y-74991082D01*
X152906912Y-74867832D01*
X152591033Y-74805000D01*
X152268967Y-74805000D01*
X151953088Y-74867832D01*
X151655537Y-74991082D01*
X151387748Y-75170013D01*
X151160013Y-75397748D01*
X150981082Y-75665537D01*
X150857832Y-75963088D01*
X150795000Y-76278967D01*
X149865000Y-76278967D01*
X149802168Y-75963088D01*
X149678918Y-75665537D01*
X149499987Y-75397748D01*
X149272252Y-75170013D01*
X149004463Y-74991082D01*
X148706912Y-74867832D01*
X148391033Y-74805000D01*
X148068967Y-74805000D01*
X147753088Y-74867832D01*
X147455537Y-74991082D01*
X147187748Y-75170013D01*
X146960013Y-75397748D01*
X146781082Y-75665537D01*
X146657832Y-75963088D01*
X146595000Y-76278967D01*
X135435300Y-76278967D01*
X135435300Y-73856877D01*
X135606842Y-73927932D01*
X135893740Y-73985000D01*
X136186260Y-73985000D01*
X136473158Y-73927932D01*
X136743411Y-73815990D01*
X136986632Y-73653475D01*
X137193475Y-73446632D01*
X137315195Y-73264466D01*
X137384822Y-73381355D01*
X137579731Y-73597588D01*
X137813080Y-73771641D01*
X138075901Y-73896825D01*
X138223110Y-73941476D01*
X138453000Y-73820155D01*
X138453000Y-72627000D01*
X138707000Y-72627000D01*
X138707000Y-73820155D01*
X138936890Y-73941476D01*
X139084099Y-73896825D01*
X139346920Y-73771641D01*
X139580269Y-73597588D01*
X139775178Y-73381355D01*
X139924157Y-73131252D01*
X140021481Y-72856891D01*
X139900814Y-72627000D01*
X138707000Y-72627000D01*
X138453000Y-72627000D01*
X138433000Y-72627000D01*
X138433000Y-72373000D01*
X138453000Y-72373000D01*
X138453000Y-71179845D01*
X138707000Y-71179845D01*
X138707000Y-72373000D01*
X139900814Y-72373000D01*
X140021481Y-72143109D01*
X139924157Y-71868748D01*
X139775178Y-71618645D01*
X139580269Y-71402412D01*
X139346920Y-71228359D01*
X139084099Y-71103175D01*
X138936890Y-71058524D01*
X138707000Y-71179845D01*
X138453000Y-71179845D01*
X138223110Y-71058524D01*
X138075901Y-71103175D01*
X137813080Y-71228359D01*
X137579731Y-71402412D01*
X137384822Y-71618645D01*
X137315195Y-71735534D01*
X137193475Y-71553368D01*
X136986632Y-71346525D01*
X136743411Y-71184010D01*
X136473158Y-71072068D01*
X136186260Y-71015000D01*
X135893740Y-71015000D01*
X135606842Y-71072068D01*
X135336589Y-71184010D01*
X135093368Y-71346525D01*
X134961513Y-71478380D01*
X134939502Y-71405820D01*
X134880537Y-71295506D01*
X134801185Y-71198815D01*
X134704494Y-71119463D01*
X134594180Y-71060498D01*
X134474482Y-71024188D01*
X134350000Y-71011928D01*
X134260000Y-71011928D01*
X134260000Y-69988072D01*
X134350000Y-69988072D01*
X134474482Y-69975812D01*
X134594180Y-69939502D01*
X134704494Y-69880537D01*
X134801185Y-69801185D01*
X134880537Y-69704494D01*
X134939502Y-69594180D01*
X134961513Y-69521620D01*
X135093368Y-69653475D01*
X135336589Y-69815990D01*
X135606842Y-69927932D01*
X135893740Y-69985000D01*
X136186260Y-69985000D01*
X136473158Y-69927932D01*
X136743411Y-69815990D01*
X136986632Y-69653475D01*
X137193475Y-69446632D01*
X137315195Y-69264466D01*
X137384822Y-69381355D01*
X137579731Y-69597588D01*
X137813080Y-69771641D01*
X138075901Y-69896825D01*
X138223110Y-69941476D01*
X138453000Y-69820155D01*
X138453000Y-68627000D01*
X138707000Y-68627000D01*
X138707000Y-69820155D01*
X138936890Y-69941476D01*
X139084099Y-69896825D01*
X139346920Y-69771641D01*
X139580269Y-69597588D01*
X139775178Y-69381355D01*
X139793855Y-69350000D01*
X160011928Y-69350000D01*
X160024188Y-69474482D01*
X160060498Y-69594180D01*
X160119463Y-69704494D01*
X160198815Y-69801185D01*
X160295506Y-69880537D01*
X160405820Y-69939502D01*
X160478380Y-69961513D01*
X160346525Y-70093368D01*
X160184010Y-70336589D01*
X160072068Y-70606842D01*
X160015000Y-70893740D01*
X160015000Y-71186260D01*
X160072068Y-71473158D01*
X160184010Y-71743411D01*
X160346525Y-71986632D01*
X160553368Y-72193475D01*
X160796589Y-72355990D01*
X161066842Y-72467932D01*
X161353740Y-72525000D01*
X161646260Y-72525000D01*
X161933158Y-72467932D01*
X162203411Y-72355990D01*
X162446632Y-72193475D01*
X162653475Y-71986632D01*
X162815990Y-71743411D01*
X162927932Y-71473158D01*
X162985000Y-71186260D01*
X162985000Y-70893740D01*
X162927932Y-70606842D01*
X162815990Y-70336589D01*
X162653475Y-70093368D01*
X162521620Y-69961513D01*
X162594180Y-69939502D01*
X162704494Y-69880537D01*
X162801185Y-69801185D01*
X162880537Y-69704494D01*
X162939502Y-69594180D01*
X162975812Y-69474482D01*
X162988072Y-69350000D01*
X162985000Y-68785750D01*
X162826250Y-68627000D01*
X161627000Y-68627000D01*
X161627000Y-68647000D01*
X161373000Y-68647000D01*
X161373000Y-68627000D01*
X160173750Y-68627000D01*
X160015000Y-68785750D01*
X160011928Y-69350000D01*
X139793855Y-69350000D01*
X139924157Y-69131252D01*
X140021481Y-68856891D01*
X139900814Y-68627000D01*
X138707000Y-68627000D01*
X138453000Y-68627000D01*
X138433000Y-68627000D01*
X138433000Y-68373000D01*
X138453000Y-68373000D01*
X138453000Y-67179845D01*
X138707000Y-67179845D01*
X138707000Y-68373000D01*
X139900814Y-68373000D01*
X140021481Y-68143109D01*
X139924157Y-67868748D01*
X139793856Y-67650000D01*
X160011928Y-67650000D01*
X160015000Y-68214250D01*
X160173750Y-68373000D01*
X161373000Y-68373000D01*
X161373000Y-67173750D01*
X161627000Y-67173750D01*
X161627000Y-68373000D01*
X162826250Y-68373000D01*
X162985000Y-68214250D01*
X162988072Y-67650000D01*
X162975812Y-67525518D01*
X162939502Y-67405820D01*
X162880537Y-67295506D01*
X162801185Y-67198815D01*
X162704494Y-67119463D01*
X162594180Y-67060498D01*
X162474482Y-67024188D01*
X162350000Y-67011928D01*
X161785750Y-67015000D01*
X161627000Y-67173750D01*
X161373000Y-67173750D01*
X161214250Y-67015000D01*
X160650000Y-67011928D01*
X160525518Y-67024188D01*
X160405820Y-67060498D01*
X160295506Y-67119463D01*
X160198815Y-67198815D01*
X160119463Y-67295506D01*
X160060498Y-67405820D01*
X160024188Y-67525518D01*
X160011928Y-67650000D01*
X139793856Y-67650000D01*
X139775178Y-67618645D01*
X139580269Y-67402412D01*
X139346920Y-67228359D01*
X139084099Y-67103175D01*
X138936890Y-67058524D01*
X138707000Y-67179845D01*
X138453000Y-67179845D01*
X138223110Y-67058524D01*
X138075901Y-67103175D01*
X137813080Y-67228359D01*
X137579731Y-67402412D01*
X137384822Y-67618645D01*
X137315195Y-67735534D01*
X137193475Y-67553368D01*
X136986632Y-67346525D01*
X136743411Y-67184010D01*
X136473158Y-67072068D01*
X136186260Y-67015000D01*
X135893740Y-67015000D01*
X135606842Y-67072068D01*
X135336589Y-67184010D01*
X135093368Y-67346525D01*
X134961513Y-67478380D01*
X134939502Y-67405820D01*
X134880537Y-67295506D01*
X134801185Y-67198815D01*
X134704494Y-67119463D01*
X134594180Y-67060498D01*
X134474482Y-67024188D01*
X134350000Y-67011928D01*
X132650000Y-67011928D01*
X132525518Y-67024188D01*
X132405820Y-67060498D01*
X132295506Y-67119463D01*
X132198815Y-67198815D01*
X132119463Y-67295506D01*
X132060498Y-67405820D01*
X132024188Y-67525518D01*
X132011928Y-67650000D01*
X114226886Y-67650000D01*
X114095107Y-67331859D01*
X113806738Y-66900285D01*
X113656453Y-66750000D01*
X183523547Y-66750000D01*
X183373262Y-66900285D01*
%TA.AperFunction,Conductor*%
D21*
G36*
X183373262Y-66900285D02*
G01*
X183084893Y-67331859D01*
X182886261Y-67811399D01*
X182785000Y-68320475D01*
X182785000Y-68839525D01*
X182886261Y-69348601D01*
X183084893Y-69828141D01*
X183373262Y-70259715D01*
X183740285Y-70626738D01*
X184171859Y-70915107D01*
X184651399Y-71113739D01*
X185160475Y-71215000D01*
X185679525Y-71215000D01*
X186188601Y-71113739D01*
X186668141Y-70915107D01*
X187099715Y-70626738D01*
X187250000Y-70476453D01*
X187250001Y-120023548D01*
X187099715Y-119873262D01*
X186668141Y-119584893D01*
X186188601Y-119386261D01*
X185679525Y-119285000D01*
X185160475Y-119285000D01*
X184651399Y-119386261D01*
X184171859Y-119584893D01*
X183740285Y-119873262D01*
X183373262Y-120240285D01*
X183084893Y-120671859D01*
X182886261Y-121151399D01*
X182785000Y-121660475D01*
X182785000Y-122179525D01*
X182886261Y-122688601D01*
X183084893Y-123168141D01*
X183373262Y-123599715D01*
X183523547Y-123750000D01*
X113656453Y-123750000D01*
X113806738Y-123599715D01*
X114095107Y-123168141D01*
X114293739Y-122688601D01*
X114395000Y-122179525D01*
X114395000Y-121660475D01*
X114293739Y-121151399D01*
X114095107Y-120671859D01*
X113806738Y-120240285D01*
X113439715Y-119873262D01*
X113008141Y-119584893D01*
X112528601Y-119386261D01*
X112019525Y-119285000D01*
X111500475Y-119285000D01*
X110991399Y-119386261D01*
X110511859Y-119584893D01*
X110080285Y-119873262D01*
X109930000Y-120023547D01*
X109930000Y-119150000D01*
X172971928Y-119150000D01*
X172971928Y-120850000D01*
X172984188Y-120974482D01*
X173020498Y-121094180D01*
X173079463Y-121204494D01*
X173158815Y-121301185D01*
X173255506Y-121380537D01*
X173365820Y-121439502D01*
X173485518Y-121475812D01*
X173610000Y-121488072D01*
X175310000Y-121488072D01*
X175434482Y-121475812D01*
X175554180Y-121439502D01*
X175664494Y-121380537D01*
X175761185Y-121301185D01*
X175840537Y-121204494D01*
X175899502Y-121094180D01*
X175923966Y-121013534D01*
X175999731Y-121097588D01*
X176233080Y-121271641D01*
X176495901Y-121396825D01*
X176643110Y-121441476D01*
X176873000Y-121320155D01*
X176873000Y-120127000D01*
X177127000Y-120127000D01*
X177127000Y-121320155D01*
X177356890Y-121441476D01*
X177504099Y-121396825D01*
X177766920Y-121271641D01*
X178000269Y-121097588D01*
X178195178Y-120881355D01*
X178344157Y-120631252D01*
X178441481Y-120356891D01*
X178320814Y-120127000D01*
X177127000Y-120127000D01*
X176873000Y-120127000D01*
X176853000Y-120127000D01*
X176853000Y-119873000D01*
X176873000Y-119873000D01*
X176873000Y-118679845D01*
X177127000Y-118679845D01*
X177127000Y-119873000D01*
X178320814Y-119873000D01*
X178441481Y-119643109D01*
X178344157Y-119368748D01*
X178195178Y-119118645D01*
X178000269Y-118902412D01*
X177766920Y-118728359D01*
X177504099Y-118603175D01*
X177356890Y-118558524D01*
X177127000Y-118679845D01*
X176873000Y-118679845D01*
X176643110Y-118558524D01*
X176495901Y-118603175D01*
X176233080Y-118728359D01*
X175999731Y-118902412D01*
X175923966Y-118986466D01*
X175899502Y-118905820D01*
X175840537Y-118795506D01*
X175761185Y-118698815D01*
X175664494Y-118619463D01*
X175554180Y-118560498D01*
X175434482Y-118524188D01*
X175310000Y-118511928D01*
X173610000Y-118511928D01*
X173485518Y-118524188D01*
X173365820Y-118560498D01*
X173255506Y-118619463D01*
X173158815Y-118698815D01*
X173079463Y-118795506D01*
X173020498Y-118905820D01*
X172984188Y-119025518D01*
X172971928Y-119150000D01*
X109930000Y-119150000D01*
X109930000Y-96396890D01*
X128558524Y-96396890D01*
X128603175Y-96544099D01*
X128728359Y-96806920D01*
X128902412Y-97040269D01*
X129118645Y-97235178D01*
X129368748Y-97384157D01*
X129643109Y-97481481D01*
X129873000Y-97360814D01*
X129873000Y-96167000D01*
X130127000Y-96167000D01*
X130127000Y-97360814D01*
X130356891Y-97481481D01*
X130631252Y-97384157D01*
X130881355Y-97235178D01*
X131097588Y-97040269D01*
X131271641Y-96806920D01*
X131396825Y-96544099D01*
X131441476Y-96396890D01*
X131320155Y-96167000D01*
X130127000Y-96167000D01*
X129873000Y-96167000D01*
X128679845Y-96167000D01*
X128558524Y-96396890D01*
X109930000Y-96396890D01*
X109930000Y-92650000D01*
X128511928Y-92650000D01*
X128511928Y-94350000D01*
X128524188Y-94474482D01*
X128560498Y-94594180D01*
X128619463Y-94704494D01*
X128698815Y-94801185D01*
X128795506Y-94880537D01*
X128905820Y-94939502D01*
X128986466Y-94963966D01*
X128902412Y-95039731D01*
X128728359Y-95273080D01*
X128603175Y-95535901D01*
X128558524Y-95683110D01*
X128679845Y-95913000D01*
X129873000Y-95913000D01*
X129873000Y-95893000D01*
X130127000Y-95893000D01*
X130127000Y-95913000D01*
X131320155Y-95913000D01*
X131441476Y-95683110D01*
X131396825Y-95535901D01*
X131271641Y-95273080D01*
X131097588Y-95039731D01*
X131013534Y-94963966D01*
X131094180Y-94939502D01*
X131204494Y-94880537D01*
X131301185Y-94801185D01*
X131380537Y-94704494D01*
X131439502Y-94594180D01*
X131475812Y-94474482D01*
X131488072Y-94350000D01*
X131488072Y-92650000D01*
X131475812Y-92525518D01*
X131439502Y-92405820D01*
X131380537Y-92295506D01*
X131301185Y-92198815D01*
X131204494Y-92119463D01*
X131094180Y-92060498D01*
X130974482Y-92024188D01*
X130850000Y-92011928D01*
X129150000Y-92011928D01*
X129025518Y-92024188D01*
X128905820Y-92060498D01*
X128795506Y-92119463D01*
X128698815Y-92198815D01*
X128619463Y-92295506D01*
X128560498Y-92405820D01*
X128524188Y-92525518D01*
X128511928Y-92650000D01*
X109930000Y-92650000D01*
X109930000Y-84850000D01*
X118011928Y-84850000D01*
X118024188Y-84974482D01*
X118060498Y-85094180D01*
X118119463Y-85204494D01*
X118198815Y-85301185D01*
X118295506Y-85380537D01*
X118405820Y-85439502D01*
X118525518Y-85475812D01*
X118650000Y-85488072D01*
X119214250Y-85485000D01*
X119373000Y-85326250D01*
X119373000Y-84127000D01*
X118173750Y-84127000D01*
X118015000Y-84285750D01*
X118011928Y-84850000D01*
X109930000Y-84850000D01*
X109930000Y-83150000D01*
X118011928Y-83150000D01*
X118015000Y-83714250D01*
X118173750Y-83873000D01*
X119373000Y-83873000D01*
X119373000Y-82673750D01*
X119627000Y-82673750D01*
X119627000Y-83873000D01*
X119647000Y-83873000D01*
X119647000Y-84127000D01*
X119627000Y-84127000D01*
X119627000Y-85326250D01*
X119785750Y-85485000D01*
X120350000Y-85488072D01*
X120474482Y-85475812D01*
X120594180Y-85439502D01*
X120704494Y-85380537D01*
X120801185Y-85301185D01*
X120880537Y-85204494D01*
X120939502Y-85094180D01*
X120961513Y-85021620D01*
X121093368Y-85153475D01*
X121336589Y-85315990D01*
X121606842Y-85427932D01*
X121893740Y-85485000D01*
X122186260Y-85485000D01*
X122473158Y-85427932D01*
X122743411Y-85315990D01*
X122986632Y-85153475D01*
X123193475Y-84946632D01*
X123310000Y-84772240D01*
X123426525Y-84946632D01*
X123633368Y-85153475D01*
X123876589Y-85315990D01*
X124146842Y-85427932D01*
X124433740Y-85485000D01*
X124726260Y-85485000D01*
X125013158Y-85427932D01*
X125283411Y-85315990D01*
X125526632Y-85153475D01*
X125680303Y-84999804D01*
X137446100Y-96765602D01*
X137469899Y-96794601D01*
X137498897Y-96818399D01*
X137585624Y-96889574D01*
X137717653Y-96960146D01*
X137860914Y-97003603D01*
X138009900Y-97018277D01*
X138047233Y-97014600D01*
X148339499Y-97014600D01*
X149336868Y-98011970D01*
X149251314Y-98140011D01*
X149180832Y-98310171D01*
X149156747Y-98431251D01*
X144683303Y-102904696D01*
X144654299Y-102928499D01*
X144599171Y-102995674D01*
X144559326Y-103044224D01*
X144502787Y-103150000D01*
X144488754Y-103176254D01*
X144445297Y-103319515D01*
X144434300Y-103431168D01*
X144434300Y-103431178D01*
X144430624Y-103468500D01*
X144434300Y-103505823D01*
X144434301Y-106104863D01*
X144365714Y-106207511D01*
X144295232Y-106377671D01*
X144259300Y-106558311D01*
X144259300Y-106742489D01*
X144295232Y-106923129D01*
X144365714Y-107093289D01*
X144468038Y-107246428D01*
X144598272Y-107376662D01*
X144751411Y-107478986D01*
X144921571Y-107549468D01*
X145102211Y-107585400D01*
X145286389Y-107585400D01*
X145467029Y-107549468D01*
X145621865Y-107485333D01*
X144672752Y-108434447D01*
X144551671Y-108458532D01*
X144381511Y-108529014D01*
X144228372Y-108631338D01*
X144098138Y-108761572D01*
X143995814Y-108914711D01*
X143925332Y-109084871D01*
X143894475Y-109240000D01*
X126334535Y-109240000D01*
X126204039Y-109044698D01*
X125995302Y-108835961D01*
X125749853Y-108671958D01*
X125477125Y-108558990D01*
X125187599Y-108501400D01*
X124892401Y-108501400D01*
X124602875Y-108558990D01*
X124330147Y-108671958D01*
X124084698Y-108835961D01*
X123970636Y-108950023D01*
X123953102Y-108892220D01*
X123894137Y-108781906D01*
X123814785Y-108685215D01*
X123718094Y-108605863D01*
X123607780Y-108546898D01*
X123488082Y-108510588D01*
X123363600Y-108498328D01*
X121636400Y-108498328D01*
X121511918Y-108510588D01*
X121392220Y-108546898D01*
X121281906Y-108605863D01*
X121185215Y-108685215D01*
X121105863Y-108781906D01*
X121046898Y-108892220D01*
X121010588Y-109011918D01*
X120998328Y-109136400D01*
X120998328Y-110863600D01*
X121010588Y-110988082D01*
X121046898Y-111107780D01*
X121105863Y-111218094D01*
X121185215Y-111314785D01*
X121281906Y-111394137D01*
X121392220Y-111453102D01*
X121456574Y-111472624D01*
X121393146Y-111529707D01*
X121217316Y-111765056D01*
X121090778Y-112030186D01*
X121045042Y-112180974D01*
X121166183Y-112413000D01*
X122373000Y-112413000D01*
X122373000Y-112393000D01*
X122627000Y-112393000D01*
X122627000Y-112413000D01*
X124913000Y-112413000D01*
X124913000Y-112393000D01*
X125167000Y-112393000D01*
X125167000Y-112413000D01*
X126373817Y-112413000D01*
X126494958Y-112180974D01*
X126449222Y-112030186D01*
X126448656Y-112029000D01*
X150804898Y-112029000D01*
X149702799Y-113131100D01*
X127455133Y-113131100D01*
X127417800Y-113127423D01*
X127380467Y-113131100D01*
X127268814Y-113142097D01*
X127125553Y-113185554D01*
X126993524Y-113256126D01*
X126877799Y-113351099D01*
X126854001Y-113380097D01*
X126156720Y-114077379D01*
X125995302Y-113915961D01*
X125829897Y-113805441D01*
X125928488Y-113746817D01*
X126146854Y-113550293D01*
X126322684Y-113314944D01*
X126449222Y-113049814D01*
X126494958Y-112899026D01*
X126373817Y-112667000D01*
X125167000Y-112667000D01*
X125167000Y-112687000D01*
X124913000Y-112687000D01*
X124913000Y-112667000D01*
X122627000Y-112667000D01*
X122627000Y-112687000D01*
X122373000Y-112687000D01*
X122373000Y-112667000D01*
X121166183Y-112667000D01*
X121045042Y-112899026D01*
X121090778Y-113049814D01*
X121217316Y-113314944D01*
X121393146Y-113550293D01*
X121611512Y-113746817D01*
X121710103Y-113805441D01*
X121544698Y-113915961D01*
X121335961Y-114124698D01*
X121171958Y-114370147D01*
X121058990Y-114642875D01*
X121001400Y-114932401D01*
X121001400Y-115227599D01*
X121058990Y-115517125D01*
X121171958Y-115789853D01*
X121335961Y-116035302D01*
X121544698Y-116244039D01*
X121790147Y-116408042D01*
X122062875Y-116521010D01*
X122352401Y-116578600D01*
X122647599Y-116578600D01*
X122937125Y-116521010D01*
X123209853Y-116408042D01*
X123455302Y-116244039D01*
X123664039Y-116035302D01*
X123770000Y-115876719D01*
X123875961Y-116035302D01*
X124084698Y-116244039D01*
X124330147Y-116408042D01*
X124602875Y-116521010D01*
X124892401Y-116578600D01*
X125187599Y-116578600D01*
X125477125Y-116521010D01*
X125749853Y-116408042D01*
X125995302Y-116244039D01*
X126204039Y-116035302D01*
X126339347Y-115832799D01*
X126377886Y-115829003D01*
X126521147Y-115785546D01*
X126653176Y-115714974D01*
X126768901Y-115620001D01*
X126792704Y-115590997D01*
X127732602Y-114651100D01*
X146398681Y-114651100D01*
X146237778Y-114758612D01*
X145898612Y-115097778D01*
X145632131Y-115496595D01*
X145448576Y-115939737D01*
X145355000Y-116410173D01*
X145355000Y-116889827D01*
X145448576Y-117360263D01*
X145632131Y-117803405D01*
X145898612Y-118202222D01*
X146237778Y-118541388D01*
X146636595Y-118807869D01*
X147079737Y-118991424D01*
X147550173Y-119085000D01*
X148029827Y-119085000D01*
X148500263Y-118991424D01*
X148943405Y-118807869D01*
X149342222Y-118541388D01*
X149681388Y-118202222D01*
X149947869Y-117803405D01*
X150131424Y-117360263D01*
X150225000Y-116889827D01*
X150225000Y-116410173D01*
X152975000Y-116410173D01*
X152975000Y-116889827D01*
X153068576Y-117360263D01*
X153252131Y-117803405D01*
X153518612Y-118202222D01*
X153857778Y-118541388D01*
X154256595Y-118807869D01*
X154699737Y-118991424D01*
X155170173Y-119085000D01*
X155649827Y-119085000D01*
X156120263Y-118991424D01*
X156563405Y-118807869D01*
X156962222Y-118541388D01*
X157301388Y-118202222D01*
X157567869Y-117803405D01*
X157751424Y-117360263D01*
X157845000Y-116889827D01*
X157845000Y-116410173D01*
X157751424Y-115939737D01*
X157567869Y-115496595D01*
X157301388Y-115097778D01*
X156962222Y-114758612D01*
X156563405Y-114492131D01*
X156120263Y-114308576D01*
X155649827Y-114215000D01*
X155170173Y-114215000D01*
X154699737Y-114308576D01*
X154256595Y-114492131D01*
X153857778Y-114758612D01*
X153518612Y-115097778D01*
X153252131Y-115496595D01*
X153068576Y-115939737D01*
X152975000Y-116410173D01*
X150225000Y-116410173D01*
X150131424Y-115939737D01*
X149947869Y-115496595D01*
X149681388Y-115097778D01*
X149342222Y-114758612D01*
X149181319Y-114651100D01*
X149980278Y-114651100D01*
X150017600Y-114654776D01*
X150054922Y-114651100D01*
X150054933Y-114651100D01*
X150166586Y-114640103D01*
X150309847Y-114596646D01*
X150441876Y-114526074D01*
X150557601Y-114431101D01*
X150581404Y-114402097D01*
X154016008Y-110967495D01*
X154045001Y-110943701D01*
X154068795Y-110914708D01*
X154068799Y-110914704D01*
X154139973Y-110827977D01*
X154149046Y-110811003D01*
X154210546Y-110695947D01*
X154254003Y-110552686D01*
X154265000Y-110441033D01*
X154265000Y-110441024D01*
X154268676Y-110403701D01*
X154265000Y-110366378D01*
X154265000Y-108789600D01*
X154314578Y-108756473D01*
X154491473Y-108579578D01*
X154524600Y-108530000D01*
X175064700Y-108530000D01*
X175064701Y-112139468D01*
X175061024Y-112176800D01*
X175075698Y-112325785D01*
X175119154Y-112469046D01*
X175189726Y-112601076D01*
X175243829Y-112667000D01*
X175284700Y-112716801D01*
X175313698Y-112740599D01*
X175822469Y-113249371D01*
X175684010Y-113456589D01*
X175572068Y-113726842D01*
X175515000Y-114013740D01*
X175515000Y-114306260D01*
X175572068Y-114593158D01*
X175684010Y-114863411D01*
X175846525Y-115106632D01*
X176053368Y-115313475D01*
X176296589Y-115475990D01*
X176566842Y-115587932D01*
X176853740Y-115645000D01*
X177146260Y-115645000D01*
X177433158Y-115587932D01*
X177703411Y-115475990D01*
X177946632Y-115313475D01*
X178153475Y-115106632D01*
X178315990Y-114863411D01*
X178427932Y-114593158D01*
X178485000Y-114306260D01*
X178485000Y-114013740D01*
X178427932Y-113726842D01*
X178315990Y-113456589D01*
X178153475Y-113213368D01*
X177946632Y-113006525D01*
X177764466Y-112884805D01*
X177881355Y-112815178D01*
X178097588Y-112620269D01*
X178271641Y-112386920D01*
X178396825Y-112124099D01*
X178441476Y-111976890D01*
X178320155Y-111747000D01*
X177127000Y-111747000D01*
X177127000Y-111767000D01*
X176873000Y-111767000D01*
X176873000Y-111747000D01*
X176853000Y-111747000D01*
X176853000Y-111493000D01*
X176873000Y-111493000D01*
X176873000Y-111473000D01*
X177127000Y-111473000D01*
X177127000Y-111493000D01*
X178320155Y-111493000D01*
X178441476Y-111263110D01*
X178396825Y-111115901D01*
X178271641Y-110853080D01*
X178097588Y-110619731D01*
X177881355Y-110424822D01*
X177764466Y-110355195D01*
X177946632Y-110233475D01*
X178153475Y-110026632D01*
X178315990Y-109783411D01*
X178427932Y-109513158D01*
X178485000Y-109226260D01*
X178485000Y-108933740D01*
X178427932Y-108646842D01*
X178315990Y-108376589D01*
X178153475Y-108133368D01*
X177946632Y-107926525D01*
X177772240Y-107810000D01*
X177946632Y-107693475D01*
X178153475Y-107486632D01*
X178315990Y-107243411D01*
X178427932Y-106973158D01*
X178485000Y-106686260D01*
X178485000Y-106393740D01*
X178427932Y-106106842D01*
X178315990Y-105836589D01*
X178153475Y-105593368D01*
X178021620Y-105461513D01*
X178094180Y-105439502D01*
X178204494Y-105380537D01*
X178301185Y-105301185D01*
X178380537Y-105204494D01*
X178439502Y-105094180D01*
X178475812Y-104974482D01*
X178488072Y-104850000D01*
X178488072Y-103150000D01*
X178475812Y-103025518D01*
X178439502Y-102905820D01*
X178380537Y-102795506D01*
X178301185Y-102698815D01*
X178204494Y-102619463D01*
X178094180Y-102560498D01*
X177974482Y-102524188D01*
X177850000Y-102511928D01*
X176584700Y-102511928D01*
X176584700Y-88051484D01*
X176853740Y-88105000D01*
X177146260Y-88105000D01*
X177433158Y-88047932D01*
X177703411Y-87935990D01*
X177946632Y-87773475D01*
X178153475Y-87566632D01*
X178315990Y-87323411D01*
X178427932Y-87053158D01*
X178485000Y-86766260D01*
X178485000Y-86473740D01*
X178427932Y-86186842D01*
X178315990Y-85916589D01*
X178153475Y-85673368D01*
X177946632Y-85466525D01*
X177764466Y-85344805D01*
X177881355Y-85275178D01*
X178097588Y-85080269D01*
X178271641Y-84846920D01*
X178396825Y-84584099D01*
X178441476Y-84436890D01*
X178320155Y-84207000D01*
X177127000Y-84207000D01*
X177127000Y-84227000D01*
X176873000Y-84227000D01*
X176873000Y-84207000D01*
X176853000Y-84207000D01*
X176853000Y-83953000D01*
X176873000Y-83953000D01*
X176873000Y-81667000D01*
X177127000Y-81667000D01*
X177127000Y-83953000D01*
X178320155Y-83953000D01*
X178441476Y-83723110D01*
X178396825Y-83575901D01*
X178271641Y-83313080D01*
X178097588Y-83079731D01*
X177881355Y-82884822D01*
X177755745Y-82810000D01*
X177881355Y-82735178D01*
X178097588Y-82540269D01*
X178271641Y-82306920D01*
X178396825Y-82044099D01*
X178441476Y-81896890D01*
X178320155Y-81667000D01*
X177127000Y-81667000D01*
X176873000Y-81667000D01*
X176853000Y-81667000D01*
X176853000Y-81413000D01*
X176873000Y-81413000D01*
X176873000Y-81393000D01*
X177127000Y-81393000D01*
X177127000Y-81413000D01*
X178320155Y-81413000D01*
X178441476Y-81183110D01*
X178396825Y-81035901D01*
X178271641Y-80773080D01*
X178097588Y-80539731D01*
X178013534Y-80463966D01*
X178094180Y-80439502D01*
X178204494Y-80380537D01*
X178301185Y-80301185D01*
X178380537Y-80204494D01*
X178439502Y-80094180D01*
X178475812Y-79974482D01*
X178488072Y-79850000D01*
X178488072Y-78150000D01*
X178475812Y-78025518D01*
X178439502Y-77905820D01*
X178380537Y-77795506D01*
X178301185Y-77698815D01*
X178204494Y-77619463D01*
X178094180Y-77560498D01*
X177974482Y-77524188D01*
X177850000Y-77511928D01*
X176150000Y-77511928D01*
X176025518Y-77524188D01*
X175905820Y-77560498D01*
X175795506Y-77619463D01*
X175698815Y-77698815D01*
X175619463Y-77795506D01*
X175560498Y-77905820D01*
X175524188Y-78025518D01*
X175511928Y-78150000D01*
X175511928Y-79850000D01*
X175524188Y-79974482D01*
X175560498Y-80094180D01*
X175587849Y-80145350D01*
X175313702Y-80419497D01*
X175284699Y-80443299D01*
X175258017Y-80475812D01*
X175189726Y-80559024D01*
X175121693Y-80686303D01*
X175119154Y-80691054D01*
X175075697Y-80834315D01*
X175064700Y-80945968D01*
X175064700Y-80945978D01*
X175061024Y-80983300D01*
X175064700Y-81020622D01*
X175064701Y-107010000D01*
X154524600Y-107010000D01*
X154491473Y-106960422D01*
X154314578Y-106783527D01*
X154106571Y-106644541D01*
X153875445Y-106548805D01*
X153630084Y-106500000D01*
X153379916Y-106500000D01*
X153134555Y-106548805D01*
X152903429Y-106644541D01*
X152695422Y-106783527D01*
X152518527Y-106960422D01*
X152379541Y-107168429D01*
X152283805Y-107399555D01*
X152235000Y-107644916D01*
X152186195Y-107399555D01*
X152090459Y-107168429D01*
X151951473Y-106960422D01*
X151774578Y-106783527D01*
X151566571Y-106644541D01*
X151335445Y-106548805D01*
X151090084Y-106500000D01*
X150839916Y-106500000D01*
X150594555Y-106548805D01*
X150363429Y-106644541D01*
X150155422Y-106783527D01*
X149978527Y-106960422D01*
X149839541Y-107168429D01*
X149743805Y-107399555D01*
X149695000Y-107644916D01*
X149695000Y-107754998D01*
X148209999Y-109240000D01*
X146016801Y-109240000D01*
X150352408Y-104904395D01*
X150381401Y-104880601D01*
X150405195Y-104851608D01*
X150405199Y-104851604D01*
X150476373Y-104764877D01*
X150476374Y-104764876D01*
X150546946Y-104632847D01*
X150590403Y-104489586D01*
X150601400Y-104377933D01*
X150601400Y-104377924D01*
X150605076Y-104340601D01*
X150601400Y-104303278D01*
X150601400Y-101723835D01*
X150669986Y-101621189D01*
X150740468Y-101451029D01*
X150776400Y-101270389D01*
X150776400Y-101086211D01*
X150740468Y-100905571D01*
X150669986Y-100735411D01*
X150567662Y-100582272D01*
X150437428Y-100452038D01*
X150284289Y-100349714D01*
X150114129Y-100279232D01*
X149933489Y-100243300D01*
X149749311Y-100243300D01*
X149568671Y-100279232D01*
X149398511Y-100349714D01*
X149366496Y-100371106D01*
X150231549Y-99506053D01*
X150352629Y-99481968D01*
X150522789Y-99411486D01*
X150650830Y-99325932D01*
X151516901Y-100192003D01*
X151540699Y-100221001D01*
X151656424Y-100315974D01*
X151788453Y-100386546D01*
X151931714Y-100430003D01*
X152043367Y-100441000D01*
X152043376Y-100441000D01*
X152080699Y-100444676D01*
X152118022Y-100441000D01*
X152661165Y-100441000D01*
X152763811Y-100509586D01*
X152933971Y-100580068D01*
X153114611Y-100616000D01*
X153298789Y-100616000D01*
X153479429Y-100580068D01*
X153649589Y-100509586D01*
X153802728Y-100407262D01*
X153932962Y-100277028D01*
X154035286Y-100123889D01*
X154105768Y-99953729D01*
X154141700Y-99773089D01*
X154141700Y-99588911D01*
X154105768Y-99408271D01*
X154035286Y-99238111D01*
X153936582Y-99090390D01*
X153951768Y-99053729D01*
X153987700Y-98873089D01*
X153987700Y-98688911D01*
X153951768Y-98508271D01*
X153881286Y-98338111D01*
X153778962Y-98184972D01*
X153648728Y-98054738D01*
X153495589Y-97952414D01*
X153325429Y-97881932D01*
X153144789Y-97846000D01*
X153139400Y-97846000D01*
X153139400Y-97838911D01*
X153103468Y-97658271D01*
X153032986Y-97488111D01*
X152964400Y-97385465D01*
X152964400Y-97020423D01*
X152968076Y-96983100D01*
X152964400Y-96945777D01*
X152964400Y-96945767D01*
X152953403Y-96834114D01*
X152909946Y-96690853D01*
X152839374Y-96558824D01*
X152744401Y-96443099D01*
X152715404Y-96419302D01*
X147996504Y-91700403D01*
X147972701Y-91671399D01*
X147856976Y-91576426D01*
X147724947Y-91505854D01*
X147581686Y-91462397D01*
X147470033Y-91451400D01*
X147470022Y-91451400D01*
X147432700Y-91447724D01*
X147395378Y-91451400D01*
X142701502Y-91451400D01*
X142433279Y-91183177D01*
X142443628Y-91176262D01*
X142573862Y-91046028D01*
X142676186Y-90892889D01*
X142746668Y-90722729D01*
X142782600Y-90542089D01*
X142782600Y-90478625D01*
X142889653Y-90535846D01*
X143032914Y-90579303D01*
X143144567Y-90590300D01*
X143144576Y-90590300D01*
X143181899Y-90593976D01*
X143219222Y-90590300D01*
X145160865Y-90590300D01*
X145263511Y-90658886D01*
X145433671Y-90729368D01*
X145614311Y-90765300D01*
X145798489Y-90765300D01*
X145979129Y-90729368D01*
X146149289Y-90658886D01*
X146302428Y-90556562D01*
X146432662Y-90426328D01*
X146534986Y-90273189D01*
X146605468Y-90103029D01*
X146641400Y-89922389D01*
X146641400Y-89738211D01*
X146605468Y-89557571D01*
X146534986Y-89387411D01*
X146432662Y-89234272D01*
X146302428Y-89104038D01*
X146295337Y-89099300D01*
X148138699Y-89099300D01*
X151641047Y-92601649D01*
X151665132Y-92722729D01*
X151735614Y-92892889D01*
X151837938Y-93046028D01*
X151968172Y-93176262D01*
X152121311Y-93278586D01*
X152291471Y-93349068D01*
X152472111Y-93385000D01*
X152656289Y-93385000D01*
X152836929Y-93349068D01*
X153007089Y-93278586D01*
X153160228Y-93176262D01*
X153290462Y-93046028D01*
X153392786Y-92892889D01*
X153463268Y-92722729D01*
X153499200Y-92542089D01*
X153499200Y-92357911D01*
X153463268Y-92177271D01*
X153392786Y-92007111D01*
X153290462Y-91853972D01*
X153160228Y-91723738D01*
X153007089Y-91621414D01*
X152836929Y-91550932D01*
X152715849Y-91526847D01*
X149017304Y-87828303D01*
X148993501Y-87799299D01*
X148877776Y-87704326D01*
X148745747Y-87633754D01*
X148602486Y-87590297D01*
X148490833Y-87579300D01*
X148490822Y-87579300D01*
X148453500Y-87575624D01*
X148416178Y-87579300D01*
X142899502Y-87579300D01*
X138957353Y-83637152D01*
X138933268Y-83516071D01*
X138862786Y-83345911D01*
X138760462Y-83192772D01*
X138630228Y-83062538D01*
X138477089Y-82960214D01*
X138306929Y-82889732D01*
X138126289Y-82853800D01*
X137942111Y-82853800D01*
X137761471Y-82889732D01*
X137591311Y-82960214D01*
X137468605Y-83042203D01*
X128740104Y-74313703D01*
X128716301Y-74284699D01*
X128600576Y-74189726D01*
X128468547Y-74119154D01*
X128325286Y-74075697D01*
X128213633Y-74064700D01*
X128213622Y-74064700D01*
X128176300Y-74061024D01*
X128138978Y-74064700D01*
X124560522Y-74064700D01*
X124523199Y-74061024D01*
X124485876Y-74064700D01*
X124485867Y-74064700D01*
X124374214Y-74075697D01*
X124230953Y-74119154D01*
X124098923Y-74189726D01*
X124015283Y-74258368D01*
X123983199Y-74284699D01*
X123959401Y-74313698D01*
X123450630Y-74822469D01*
X123243411Y-74684010D01*
X122973158Y-74572068D01*
X122686260Y-74515000D01*
X122393740Y-74515000D01*
X122106842Y-74572068D01*
X121836589Y-74684010D01*
X121593368Y-74846525D01*
X121461513Y-74978380D01*
X121439502Y-74905820D01*
X121380537Y-74795506D01*
X121301185Y-74698815D01*
X121204494Y-74619463D01*
X121094180Y-74560498D01*
X120974482Y-74524188D01*
X120850000Y-74511928D01*
X120285750Y-74515000D01*
X120127000Y-74673750D01*
X120127000Y-75873000D01*
X120147000Y-75873000D01*
X120147000Y-76127000D01*
X120127000Y-76127000D01*
X120127000Y-77326250D01*
X120285750Y-77485000D01*
X120850000Y-77488072D01*
X120974482Y-77475812D01*
X121094180Y-77439502D01*
X121204494Y-77380537D01*
X121301185Y-77301185D01*
X121380537Y-77204494D01*
X121439502Y-77094180D01*
X121461513Y-77021620D01*
X121593368Y-77153475D01*
X121836589Y-77315990D01*
X122106842Y-77427932D01*
X122393740Y-77485000D01*
X122686260Y-77485000D01*
X122973158Y-77427932D01*
X123243411Y-77315990D01*
X123486632Y-77153475D01*
X123693475Y-76946632D01*
X123810000Y-76772240D01*
X123926525Y-76946632D01*
X124133368Y-77153475D01*
X124376589Y-77315990D01*
X124646842Y-77427932D01*
X124933740Y-77485000D01*
X125226260Y-77485000D01*
X125513158Y-77427932D01*
X125783411Y-77315990D01*
X125990630Y-77177531D01*
X126499401Y-77686302D01*
X126523199Y-77715301D01*
X126552197Y-77739099D01*
X126638923Y-77810274D01*
X126770953Y-77880846D01*
X126914214Y-77924303D01*
X127025867Y-77935300D01*
X127025876Y-77935300D01*
X127063199Y-77938976D01*
X127100522Y-77935300D01*
X128258099Y-77935300D01*
X130834727Y-80511928D01*
X130150000Y-80511928D01*
X130025518Y-80524188D01*
X129905820Y-80560498D01*
X129795506Y-80619463D01*
X129698815Y-80698815D01*
X129619463Y-80795506D01*
X129560498Y-80905820D01*
X129524188Y-81025518D01*
X129511928Y-81150000D01*
X129511928Y-82850000D01*
X129524188Y-82974482D01*
X129560498Y-83094180D01*
X129619463Y-83204494D01*
X129698815Y-83301185D01*
X129795506Y-83380537D01*
X129905820Y-83439502D01*
X129978380Y-83461513D01*
X129846525Y-83593368D01*
X129684010Y-83836589D01*
X129572068Y-84106842D01*
X129515000Y-84393740D01*
X129515000Y-84686260D01*
X129567626Y-84950824D01*
X126910004Y-82293203D01*
X126886201Y-82264199D01*
X126770476Y-82169226D01*
X126638447Y-82098654D01*
X126495186Y-82055197D01*
X126383533Y-82044200D01*
X126383522Y-82044200D01*
X126346200Y-82040524D01*
X126308878Y-82044200D01*
X124083122Y-82044200D01*
X124045799Y-82040524D01*
X124008476Y-82044200D01*
X124008467Y-82044200D01*
X123896814Y-82055197D01*
X123753553Y-82098654D01*
X123621524Y-82169226D01*
X123505799Y-82264199D01*
X123482001Y-82293198D01*
X122951889Y-82823310D01*
X122743411Y-82684010D01*
X122473158Y-82572068D01*
X122186260Y-82515000D01*
X121893740Y-82515000D01*
X121606842Y-82572068D01*
X121336589Y-82684010D01*
X121093368Y-82846525D01*
X120961513Y-82978380D01*
X120939502Y-82905820D01*
X120880537Y-82795506D01*
X120801185Y-82698815D01*
X120704494Y-82619463D01*
X120594180Y-82560498D01*
X120474482Y-82524188D01*
X120350000Y-82511928D01*
X119785750Y-82515000D01*
X119627000Y-82673750D01*
X119373000Y-82673750D01*
X119214250Y-82515000D01*
X118650000Y-82511928D01*
X118525518Y-82524188D01*
X118405820Y-82560498D01*
X118295506Y-82619463D01*
X118198815Y-82698815D01*
X118119463Y-82795506D01*
X118060498Y-82905820D01*
X118024188Y-83025518D01*
X118011928Y-83150000D01*
X109930000Y-83150000D01*
X109930000Y-76850000D01*
X118511928Y-76850000D01*
X118524188Y-76974482D01*
X118560498Y-77094180D01*
X118619463Y-77204494D01*
X118698815Y-77301185D01*
X118795506Y-77380537D01*
X118905820Y-77439502D01*
X119025518Y-77475812D01*
X119150000Y-77488072D01*
X119714250Y-77485000D01*
X119873000Y-77326250D01*
X119873000Y-76127000D01*
X118673750Y-76127000D01*
X118515000Y-76285750D01*
X118511928Y-76850000D01*
X109930000Y-76850000D01*
X109930000Y-75150000D01*
X118511928Y-75150000D01*
X118515000Y-75714250D01*
X118673750Y-75873000D01*
X119873000Y-75873000D01*
X119873000Y-74673750D01*
X119714250Y-74515000D01*
X119150000Y-74511928D01*
X119025518Y-74524188D01*
X118905820Y-74560498D01*
X118795506Y-74619463D01*
X118698815Y-74698815D01*
X118619463Y-74795506D01*
X118560498Y-74905820D01*
X118524188Y-75025518D01*
X118511928Y-75150000D01*
X109930000Y-75150000D01*
X109930000Y-70476453D01*
X110080285Y-70626738D01*
X110511859Y-70915107D01*
X110991399Y-71113739D01*
X111500475Y-71215000D01*
X112019525Y-71215000D01*
X112528601Y-71113739D01*
X113008141Y-70915107D01*
X113439715Y-70626738D01*
X113806738Y-70259715D01*
X114095107Y-69828141D01*
X114293739Y-69348601D01*
X114395000Y-68839525D01*
X114395000Y-68320475D01*
X114293739Y-67811399D01*
X114226886Y-67650000D01*
X132011928Y-67650000D01*
X132011928Y-69350000D01*
X132024188Y-69474482D01*
X132060498Y-69594180D01*
X132119463Y-69704494D01*
X132198815Y-69801185D01*
X132295506Y-69880537D01*
X132405820Y-69939502D01*
X132525518Y-69975812D01*
X132650000Y-69988072D01*
X132740000Y-69988072D01*
X132740001Y-71011928D01*
X132650000Y-71011928D01*
X132525518Y-71024188D01*
X132405820Y-71060498D01*
X132295506Y-71119463D01*
X132198815Y-71198815D01*
X132119463Y-71295506D01*
X132060498Y-71405820D01*
X132024188Y-71525518D01*
X132011928Y-71650000D01*
X132011928Y-73350000D01*
X132024188Y-73474482D01*
X132060498Y-73594180D01*
X132119463Y-73704494D01*
X132198815Y-73801185D01*
X132295506Y-73880537D01*
X132405820Y-73939502D01*
X132525518Y-73975812D01*
X132650000Y-73988072D01*
X133915300Y-73988072D01*
X133915301Y-77713368D01*
X133911624Y-77750700D01*
X133915301Y-77788033D01*
X133925238Y-77888918D01*
X133926298Y-77899685D01*
X133969754Y-78042946D01*
X134040326Y-78174976D01*
X134090673Y-78236323D01*
X134135300Y-78290701D01*
X134164298Y-78314499D01*
X140530147Y-84680349D01*
X140554232Y-84801429D01*
X140624714Y-84971589D01*
X140727038Y-85124728D01*
X140857272Y-85254962D01*
X141010411Y-85357286D01*
X141180571Y-85427768D01*
X141361211Y-85463700D01*
X141545389Y-85463700D01*
X141726029Y-85427768D01*
X141896189Y-85357286D01*
X142049328Y-85254962D01*
X142179562Y-85124728D01*
X142281886Y-84971589D01*
X142352368Y-84801429D01*
X142388300Y-84620789D01*
X142388300Y-84436611D01*
X142352368Y-84255971D01*
X142281886Y-84085811D01*
X142179562Y-83932672D01*
X142049328Y-83802438D01*
X141896189Y-83700114D01*
X141726029Y-83629632D01*
X141604949Y-83605547D01*
X135435300Y-77435899D01*
X135435300Y-76278967D01*
X146595000Y-76278967D01*
X146595000Y-76601033D01*
X146657832Y-76916912D01*
X146781082Y-77214463D01*
X146960013Y-77482252D01*
X147187748Y-77709987D01*
X147455537Y-77888918D01*
X147753088Y-78012168D01*
X148068967Y-78075000D01*
X148391033Y-78075000D01*
X148706912Y-78012168D01*
X149004463Y-77888918D01*
X149272252Y-77709987D01*
X149499987Y-77482252D01*
X149678918Y-77214463D01*
X149802168Y-76916912D01*
X149865000Y-76601033D01*
X149865000Y-76278967D01*
X150795000Y-76278967D01*
X150795000Y-76601033D01*
X150857832Y-76916912D01*
X150981082Y-77214463D01*
X151160013Y-77482252D01*
X151387748Y-77709987D01*
X151655537Y-77888918D01*
X151953088Y-78012168D01*
X152268967Y-78075000D01*
X152591033Y-78075000D01*
X152906912Y-78012168D01*
X153204463Y-77888918D01*
X153472252Y-77709987D01*
X153699987Y-77482252D01*
X153878918Y-77214463D01*
X154002168Y-76916912D01*
X154065000Y-76601033D01*
X154065000Y-76278967D01*
X154002168Y-75963088D01*
X153878918Y-75665537D01*
X153699987Y-75397748D01*
X153472252Y-75170013D01*
X153204463Y-74991082D01*
X152906912Y-74867832D01*
X152591033Y-74805000D01*
X152268967Y-74805000D01*
X151953088Y-74867832D01*
X151655537Y-74991082D01*
X151387748Y-75170013D01*
X151160013Y-75397748D01*
X150981082Y-75665537D01*
X150857832Y-75963088D01*
X150795000Y-76278967D01*
X149865000Y-76278967D01*
X149802168Y-75963088D01*
X149678918Y-75665537D01*
X149499987Y-75397748D01*
X149272252Y-75170013D01*
X149004463Y-74991082D01*
X148706912Y-74867832D01*
X148391033Y-74805000D01*
X148068967Y-74805000D01*
X147753088Y-74867832D01*
X147455537Y-74991082D01*
X147187748Y-75170013D01*
X146960013Y-75397748D01*
X146781082Y-75665537D01*
X146657832Y-75963088D01*
X146595000Y-76278967D01*
X135435300Y-76278967D01*
X135435300Y-73856877D01*
X135606842Y-73927932D01*
X135893740Y-73985000D01*
X136186260Y-73985000D01*
X136473158Y-73927932D01*
X136743411Y-73815990D01*
X136986632Y-73653475D01*
X137193475Y-73446632D01*
X137315195Y-73264466D01*
X137384822Y-73381355D01*
X137579731Y-73597588D01*
X137813080Y-73771641D01*
X138075901Y-73896825D01*
X138223110Y-73941476D01*
X138453000Y-73820155D01*
X138453000Y-72627000D01*
X138707000Y-72627000D01*
X138707000Y-73820155D01*
X138936890Y-73941476D01*
X139084099Y-73896825D01*
X139346920Y-73771641D01*
X139580269Y-73597588D01*
X139775178Y-73381355D01*
X139924157Y-73131252D01*
X140021481Y-72856891D01*
X139900814Y-72627000D01*
X138707000Y-72627000D01*
X138453000Y-72627000D01*
X138433000Y-72627000D01*
X138433000Y-72373000D01*
X138453000Y-72373000D01*
X138453000Y-71179845D01*
X138707000Y-71179845D01*
X138707000Y-72373000D01*
X139900814Y-72373000D01*
X140021481Y-72143109D01*
X139924157Y-71868748D01*
X139775178Y-71618645D01*
X139580269Y-71402412D01*
X139346920Y-71228359D01*
X139084099Y-71103175D01*
X138936890Y-71058524D01*
X138707000Y-71179845D01*
X138453000Y-71179845D01*
X138223110Y-71058524D01*
X138075901Y-71103175D01*
X137813080Y-71228359D01*
X137579731Y-71402412D01*
X137384822Y-71618645D01*
X137315195Y-71735534D01*
X137193475Y-71553368D01*
X136986632Y-71346525D01*
X136743411Y-71184010D01*
X136473158Y-71072068D01*
X136186260Y-71015000D01*
X135893740Y-71015000D01*
X135606842Y-71072068D01*
X135336589Y-71184010D01*
X135093368Y-71346525D01*
X134961513Y-71478380D01*
X134939502Y-71405820D01*
X134880537Y-71295506D01*
X134801185Y-71198815D01*
X134704494Y-71119463D01*
X134594180Y-71060498D01*
X134474482Y-71024188D01*
X134350000Y-71011928D01*
X134260000Y-71011928D01*
X134260000Y-69988072D01*
X134350000Y-69988072D01*
X134474482Y-69975812D01*
X134594180Y-69939502D01*
X134704494Y-69880537D01*
X134801185Y-69801185D01*
X134880537Y-69704494D01*
X134939502Y-69594180D01*
X134961513Y-69521620D01*
X135093368Y-69653475D01*
X135336589Y-69815990D01*
X135606842Y-69927932D01*
X135893740Y-69985000D01*
X136186260Y-69985000D01*
X136473158Y-69927932D01*
X136743411Y-69815990D01*
X136986632Y-69653475D01*
X137193475Y-69446632D01*
X137315195Y-69264466D01*
X137384822Y-69381355D01*
X137579731Y-69597588D01*
X137813080Y-69771641D01*
X138075901Y-69896825D01*
X138223110Y-69941476D01*
X138453000Y-69820155D01*
X138453000Y-68627000D01*
X138707000Y-68627000D01*
X138707000Y-69820155D01*
X138936890Y-69941476D01*
X139084099Y-69896825D01*
X139346920Y-69771641D01*
X139580269Y-69597588D01*
X139775178Y-69381355D01*
X139793855Y-69350000D01*
X160011928Y-69350000D01*
X160024188Y-69474482D01*
X160060498Y-69594180D01*
X160119463Y-69704494D01*
X160198815Y-69801185D01*
X160295506Y-69880537D01*
X160405820Y-69939502D01*
X160478380Y-69961513D01*
X160346525Y-70093368D01*
X160184010Y-70336589D01*
X160072068Y-70606842D01*
X160015000Y-70893740D01*
X160015000Y-71186260D01*
X160072068Y-71473158D01*
X160184010Y-71743411D01*
X160346525Y-71986632D01*
X160553368Y-72193475D01*
X160796589Y-72355990D01*
X161066842Y-72467932D01*
X161353740Y-72525000D01*
X161646260Y-72525000D01*
X161933158Y-72467932D01*
X162203411Y-72355990D01*
X162446632Y-72193475D01*
X162653475Y-71986632D01*
X162815990Y-71743411D01*
X162927932Y-71473158D01*
X162985000Y-71186260D01*
X162985000Y-70893740D01*
X162927932Y-70606842D01*
X162815990Y-70336589D01*
X162653475Y-70093368D01*
X162521620Y-69961513D01*
X162594180Y-69939502D01*
X162704494Y-69880537D01*
X162801185Y-69801185D01*
X162880537Y-69704494D01*
X162939502Y-69594180D01*
X162975812Y-69474482D01*
X162988072Y-69350000D01*
X162985000Y-68785750D01*
X162826250Y-68627000D01*
X161627000Y-68627000D01*
X161627000Y-68647000D01*
X161373000Y-68647000D01*
X161373000Y-68627000D01*
X160173750Y-68627000D01*
X160015000Y-68785750D01*
X160011928Y-69350000D01*
X139793855Y-69350000D01*
X139924157Y-69131252D01*
X140021481Y-68856891D01*
X139900814Y-68627000D01*
X138707000Y-68627000D01*
X138453000Y-68627000D01*
X138433000Y-68627000D01*
X138433000Y-68373000D01*
X138453000Y-68373000D01*
X138453000Y-67179845D01*
X138707000Y-67179845D01*
X138707000Y-68373000D01*
X139900814Y-68373000D01*
X140021481Y-68143109D01*
X139924157Y-67868748D01*
X139793856Y-67650000D01*
X160011928Y-67650000D01*
X160015000Y-68214250D01*
X160173750Y-68373000D01*
X161373000Y-68373000D01*
X161373000Y-67173750D01*
X161627000Y-67173750D01*
X161627000Y-68373000D01*
X162826250Y-68373000D01*
X162985000Y-68214250D01*
X162988072Y-67650000D01*
X162975812Y-67525518D01*
X162939502Y-67405820D01*
X162880537Y-67295506D01*
X162801185Y-67198815D01*
X162704494Y-67119463D01*
X162594180Y-67060498D01*
X162474482Y-67024188D01*
X162350000Y-67011928D01*
X161785750Y-67015000D01*
X161627000Y-67173750D01*
X161373000Y-67173750D01*
X161214250Y-67015000D01*
X160650000Y-67011928D01*
X160525518Y-67024188D01*
X160405820Y-67060498D01*
X160295506Y-67119463D01*
X160198815Y-67198815D01*
X160119463Y-67295506D01*
X160060498Y-67405820D01*
X160024188Y-67525518D01*
X160011928Y-67650000D01*
X139793856Y-67650000D01*
X139775178Y-67618645D01*
X139580269Y-67402412D01*
X139346920Y-67228359D01*
X139084099Y-67103175D01*
X138936890Y-67058524D01*
X138707000Y-67179845D01*
X138453000Y-67179845D01*
X138223110Y-67058524D01*
X138075901Y-67103175D01*
X137813080Y-67228359D01*
X137579731Y-67402412D01*
X137384822Y-67618645D01*
X137315195Y-67735534D01*
X137193475Y-67553368D01*
X136986632Y-67346525D01*
X136743411Y-67184010D01*
X136473158Y-67072068D01*
X136186260Y-67015000D01*
X135893740Y-67015000D01*
X135606842Y-67072068D01*
X135336589Y-67184010D01*
X135093368Y-67346525D01*
X134961513Y-67478380D01*
X134939502Y-67405820D01*
X134880537Y-67295506D01*
X134801185Y-67198815D01*
X134704494Y-67119463D01*
X134594180Y-67060498D01*
X134474482Y-67024188D01*
X134350000Y-67011928D01*
X132650000Y-67011928D01*
X132525518Y-67024188D01*
X132405820Y-67060498D01*
X132295506Y-67119463D01*
X132198815Y-67198815D01*
X132119463Y-67295506D01*
X132060498Y-67405820D01*
X132024188Y-67525518D01*
X132011928Y-67650000D01*
X114226886Y-67650000D01*
X114095107Y-67331859D01*
X113806738Y-66900285D01*
X113656453Y-66750000D01*
X183523547Y-66750000D01*
X183373262Y-66900285D01*
G37*
%TD.AperFunction*%
D20*
X152283805Y-108140445D02*
X152379541Y-108371571D01*
X152518527Y-108579578D01*
X152695422Y-108756473D01*
X152745000Y-108789600D01*
X152745001Y-109136611D01*
X152605445Y-109078805D01*
X152360084Y-109030000D01*
X152109916Y-109030000D01*
X151864555Y-109078805D01*
X151633429Y-109174541D01*
X151425422Y-109313527D01*
X151248527Y-109490422D01*
X151109541Y-109698429D01*
X151013805Y-109929555D01*
X150965000Y-110174916D01*
X150965000Y-110199078D01*
X150929310Y-109975922D01*
X150842369Y-109741347D01*
X150796946Y-109656369D01*
X150569800Y-109604805D01*
X149874605Y-110300000D01*
X149888748Y-110314143D01*
X149709143Y-110493748D01*
X149695000Y-110479605D01*
X149680858Y-110493748D01*
X149501253Y-110314143D01*
X149515395Y-110300000D01*
X149501253Y-110285858D01*
X149680858Y-110106253D01*
X149695000Y-110120395D01*
X150390195Y-109425200D01*
X150350271Y-109249330D01*
X150606109Y-108993493D01*
X150839916Y-109040000D01*
X151090084Y-109040000D01*
X151335445Y-108991195D01*
X151566571Y-108895459D01*
X151774578Y-108756473D01*
X151951473Y-108579578D01*
X152090459Y-108371571D01*
X152186195Y-108140445D01*
X152235000Y-107895084D01*
X152283805Y-108140445D01*
%TA.AperFunction,Conductor*%
D21*
G36*
X152283805Y-108140445D02*
G01*
X152379541Y-108371571D01*
X152518527Y-108579578D01*
X152695422Y-108756473D01*
X152745000Y-108789600D01*
X152745001Y-109136611D01*
X152605445Y-109078805D01*
X152360084Y-109030000D01*
X152109916Y-109030000D01*
X151864555Y-109078805D01*
X151633429Y-109174541D01*
X151425422Y-109313527D01*
X151248527Y-109490422D01*
X151109541Y-109698429D01*
X151013805Y-109929555D01*
X150965000Y-110174916D01*
X150965000Y-110199078D01*
X150929310Y-109975922D01*
X150842369Y-109741347D01*
X150796946Y-109656369D01*
X150569800Y-109604805D01*
X149874605Y-110300000D01*
X149888748Y-110314143D01*
X149709143Y-110493748D01*
X149695000Y-110479605D01*
X149680858Y-110493748D01*
X149501253Y-110314143D01*
X149515395Y-110300000D01*
X149501253Y-110285858D01*
X149680858Y-110106253D01*
X149695000Y-110120395D01*
X150390195Y-109425200D01*
X150350271Y-109249330D01*
X150606109Y-108993493D01*
X150839916Y-109040000D01*
X151090084Y-109040000D01*
X151335445Y-108991195D01*
X151566571Y-108895459D01*
X151774578Y-108756473D01*
X151951473Y-108579578D01*
X152090459Y-108371571D01*
X152186195Y-108140445D01*
X152235000Y-107895084D01*
X152283805Y-108140445D01*
G37*
%TD.AperFunction*%
%TD*%
M02*
