M48
;DRILL file {KiCad 4.0.2+dfsg1-stable} date Sat 07 Sep 2019 15:32:07 CEST
;FORMAT={-:-/ absolute / metric / decimal}
FMAT,2
METRIC,TZ
T1C0.400
T2C0.800
T3C0.800
T4C0.900
T5C1.001
T6C1.016
T7C2.301
T8C3.048
T9C3.200
%
G90
G05
M71
T1
X125.341Y-99.657
X127.348Y-95.255
X128.Y-101.
X132.448Y-110.134
X133.605Y-107.06
X134.Y-99.
X136.896Y-88.701
X138.117Y-95.677
X139.132Y-106.522
X139.335Y-95.136
X140.249Y-110.541
X140.684Y-86.068
X142.266Y-95.549
X142.278Y-105.771
X142.964Y-92.775
X143.062Y-94.23
X145.Y-111.5
X145.169Y-96.23
X145.411Y-87.659
X145.64Y-95.08
X146.778Y-103.357
X146.99Y-84.42
X147.Y-117.
X147.11Y-98.284
X148.11Y-89.331
X149.925Y-104.859
X150.619Y-109.235
X152.561Y-110.8
X154.25Y-100.585
X154.364Y-104.248
X159.Y-115.
X162.Y-115.
X162.Y-118.
X166.197Y-94.649
X166.592Y-91.344
T2
X138.684Y-92.964
X138.684Y-97.844
T3
X113.03Y-86.36
T4
X149.745Y-114.29
X151.015Y-111.76
X152.285Y-114.29
X153.555Y-111.76
T5
X145.287Y-78.742
X147.827Y-78.742
X149.859Y-78.742
X152.399Y-78.742
T6
X119.38Y-76.2
X119.38Y-83.82
X121.92Y-76.2
X121.92Y-83.82
X121.92Y-109.22
X121.92Y-111.76
X121.92Y-114.3
X124.46Y-76.2
X124.46Y-83.82
X124.46Y-109.22
X124.46Y-111.76
X124.46Y-114.3
X127.Y-76.2
X129.54Y-84.455
X129.54Y-86.995
X130.175Y-93.345
X130.175Y-95.885
X132.08Y-70.485
X132.08Y-74.93
X134.62Y-70.485
X134.62Y-74.93
X137.16Y-70.485
X137.16Y-74.93
X161.29Y-71.12
X161.29Y-73.66
X175.26Y-78.74
X175.26Y-81.28
X175.26Y-83.82
X175.26Y-86.36
X175.26Y-104.14
X175.26Y-106.68
X175.26Y-109.22
X175.26Y-111.76
X175.26Y-114.3
X175.26Y-119.38
X177.8Y-119.38
T7
X142.239Y-76.075
X155.955Y-76.075
T8
X113.03Y-69.85
X113.03Y-120.65
X184.15Y-69.85
X184.15Y-120.65
T9
X147.84Y-120.64
X155.46Y-120.64
T0
M30
