%TF.GenerationSoftware,KiCad,Pcbnew,4.0.2+dfsg1-stable*%
%TF.CreationDate,2019-09-07T15:32:04+02:00*%
%TF.ProjectId,StandAlone-Adapter,5374616E64416C6F6E652D4164617074,rev?*%
%TF.FileFunction,Paste,Top*%
%FSLAX46Y46*%
G04 Gerber Fmt 4.6, Leading zero omitted, Abs format (unit mm)*
G04 Created by KiCad (PCBNEW 4.0.2+dfsg1-stable) date Sat 07 Sep 2019 15:32:04 CEST*
%MOMM*%
G01*
G04 APERTURE LIST*
%ADD10C,0.100000*%
%ADD11R,1.000000X0.250000*%
%ADD12R,0.250000X1.000000*%
%ADD13R,3.657600X2.032000*%
%ADD14R,1.016000X2.032000*%
%ADD15R,0.800100X0.800100*%
%ADD16R,1.597660X1.800860*%
%ADD17R,1.800860X1.597660*%
%ADD18R,2.000000X1.700000*%
%ADD19R,1.700000X2.000000*%
%ADD20R,2.000000X1.600000*%
%ADD21R,1.600000X2.000000*%
%ADD22R,1.600000X2.180000*%
%ADD23R,2.999740X1.501140*%
%ADD24R,1.501140X2.999740*%
G04 APERTURE END LIST*
D10*
D11*
X144160000Y-90230000D03*
X144160000Y-90730000D03*
X144160000Y-91230000D03*
X144160000Y-91730000D03*
X144160000Y-92230000D03*
X144160000Y-92730000D03*
X144160000Y-93230000D03*
X144160000Y-93730000D03*
X144160000Y-94230000D03*
X144160000Y-94730000D03*
X144160000Y-95230000D03*
X144160000Y-95730000D03*
X144160000Y-96230000D03*
X144160000Y-96730000D03*
X144160000Y-97230000D03*
X144160000Y-97730000D03*
D12*
X146110000Y-99680000D03*
X146610000Y-99680000D03*
X147110000Y-99680000D03*
X147610000Y-99680000D03*
X148110000Y-99680000D03*
X148610000Y-99680000D03*
X149110000Y-99680000D03*
X149610000Y-99680000D03*
X150110000Y-99680000D03*
X150610000Y-99680000D03*
X151110000Y-99680000D03*
X151610000Y-99680000D03*
X152110000Y-99680000D03*
X152610000Y-99680000D03*
X153110000Y-99680000D03*
X153610000Y-99680000D03*
D11*
X155560000Y-97730000D03*
X155560000Y-97230000D03*
X155560000Y-96730000D03*
X155560000Y-96230000D03*
X155560000Y-95730000D03*
X155560000Y-95230000D03*
X155560000Y-94730000D03*
X155560000Y-94230000D03*
X155560000Y-93730000D03*
X155560000Y-93230000D03*
X155560000Y-92730000D03*
X155560000Y-92230000D03*
X155560000Y-91730000D03*
X155560000Y-91230000D03*
X155560000Y-90730000D03*
X155560000Y-90230000D03*
D12*
X153610000Y-88280000D03*
X153110000Y-88280000D03*
X152610000Y-88280000D03*
X152110000Y-88280000D03*
X151610000Y-88280000D03*
X151110000Y-88280000D03*
X150610000Y-88280000D03*
X150110000Y-88280000D03*
X149610000Y-88280000D03*
X149110000Y-88280000D03*
X148610000Y-88280000D03*
X148110000Y-88280000D03*
X147610000Y-88280000D03*
X147110000Y-88280000D03*
X146610000Y-88280000D03*
X146110000Y-88280000D03*
D13*
X167767000Y-70612000D03*
D14*
X167767000Y-77216000D03*
X170053000Y-77216000D03*
X165481000Y-77216000D03*
D15*
X134604760Y-108646000D03*
X134604760Y-106746000D03*
X132605780Y-107696000D03*
X140954760Y-108392000D03*
X140954760Y-106492000D03*
X138955780Y-107442000D03*
X153146760Y-108900000D03*
X153146760Y-107000000D03*
X151147780Y-107950000D03*
D16*
X176171860Y-73406000D03*
X173332140Y-73406000D03*
D17*
X166370000Y-89049860D03*
X166370000Y-86210140D03*
D16*
X179428140Y-90424000D03*
X182267860Y-90424000D03*
D17*
X138938000Y-81384140D03*
X138938000Y-84223860D03*
D18*
X183356000Y-73660000D03*
X179356000Y-73660000D03*
D19*
X163068000Y-84614000D03*
X163068000Y-88614000D03*
X123190000Y-99790000D03*
X123190000Y-95790000D03*
X123190000Y-92805000D03*
X123190000Y-88805000D03*
X118745000Y-92805000D03*
X118745000Y-88805000D03*
D18*
X170466000Y-93726000D03*
X174466000Y-93726000D03*
X160750000Y-107188000D03*
X156750000Y-107188000D03*
X163544000Y-111760000D03*
X159544000Y-111760000D03*
X148304000Y-106934000D03*
X144304000Y-106934000D03*
X142716000Y-111506000D03*
X138716000Y-111506000D03*
X135350000Y-111506000D03*
X131350000Y-111506000D03*
X129572000Y-103886000D03*
X133572000Y-103886000D03*
D19*
X134366000Y-84296000D03*
X134366000Y-80296000D03*
D20*
X155416000Y-85852000D03*
X151416000Y-85852000D03*
X144304000Y-85852000D03*
X148304000Y-85852000D03*
X144304000Y-102616000D03*
X148304000Y-102616000D03*
D21*
X158496000Y-91980000D03*
X158496000Y-95980000D03*
D20*
X136684000Y-103124000D03*
X140684000Y-103124000D03*
X136684000Y-87376000D03*
X140684000Y-87376000D03*
D22*
X114300000Y-101110000D03*
X114300000Y-91930000D03*
D21*
X170434000Y-81058000D03*
X170434000Y-85058000D03*
X160020000Y-99600000D03*
X160020000Y-103600000D03*
X118745000Y-95790000D03*
X118745000Y-99790000D03*
X167894000Y-100362000D03*
X167894000Y-104362000D03*
D20*
X174720000Y-90170000D03*
X170720000Y-90170000D03*
D18*
X147352000Y-83058000D03*
X151352000Y-83058000D03*
X155924000Y-102616000D03*
X151924000Y-102616000D03*
X162592000Y-92710000D03*
X166592000Y-92710000D03*
X162592000Y-96012000D03*
X166592000Y-96012000D03*
D23*
X173261020Y-68834000D03*
X177258980Y-68834000D03*
X160815020Y-81026000D03*
X164812980Y-81026000D03*
D24*
X163830000Y-104106980D03*
X163830000Y-100109020D03*
M02*
