%TF.GenerationSoftware,KiCad,Pcbnew,4.0.2+dfsg1-stable*%
%TF.CreationDate,2019-04-18T12:55:26+02:00*%
%TF.ProjectId,StandAlone-Adapter,5374616E64416C6F6E652D4164617074,rev?*%
%TF.FileFunction,Copper,L2,Bot,Signal*%
%FSLAX46Y46*%
G04 Gerber Fmt 4.6, Leading zero omitted, Abs format (unit mm)*
G04 Created by KiCad (PCBNEW 4.0.2+dfsg1-stable) date gio 18 apr 2019 12:55:26 CEST*
%MOMM*%
G01*
G04 APERTURE LIST*
%ADD10C,0.100000*%
%ADD11C,4.064000*%
%ADD12C,1.998980*%
%ADD13C,1.270000*%
%ADD14C,3.600000*%
%ADD15C,1.501140*%
%ADD16C,2.999740*%
%ADD17C,1.500000*%
%ADD18R,1.727200X2.032000*%
%ADD19O,1.727200X2.032000*%
%ADD20R,2.032000X2.032000*%
%ADD21O,2.032000X2.032000*%
%ADD22R,2.032000X1.727200*%
%ADD23O,2.032000X1.727200*%
%ADD24R,1.727200X1.727200*%
%ADD25O,1.727200X1.727200*%
%ADD26C,0.600000*%
%ADD27C,0.250000*%
%ADD28C,0.254000*%
G04 APERTURE END LIST*
D10*
D11*
X113030000Y-120650000D03*
X184150000Y-120650000D03*
X184150000Y-69850000D03*
X113030000Y-69850000D03*
D12*
X113030000Y-86360000D03*
D13*
X152285000Y-114290000D03*
X149745000Y-114290000D03*
X153555000Y-111760000D03*
D14*
X155460000Y-120640000D03*
X147840000Y-120640000D03*
D13*
X151015000Y-111760000D03*
D15*
X145287140Y-78742120D03*
X147827140Y-78742120D03*
X149859140Y-78742120D03*
X152399140Y-78742120D03*
D16*
X142239140Y-76075120D03*
X155955140Y-76075120D03*
D17*
X138684000Y-92964000D03*
X138684000Y-97844000D03*
D18*
X119380000Y-76200000D03*
D19*
X121920000Y-76200000D03*
X124460000Y-76200000D03*
X127000000Y-76200000D03*
D18*
X119380000Y-83820000D03*
D19*
X121920000Y-83820000D03*
X124460000Y-83820000D03*
D20*
X129540000Y-86995000D03*
D21*
X129540000Y-84455000D03*
D18*
X137160000Y-70485000D03*
D19*
X134620000Y-70485000D03*
X132080000Y-70485000D03*
D20*
X161290000Y-71120000D03*
D21*
X161290000Y-73660000D03*
D22*
X175260000Y-78740000D03*
D23*
X175260000Y-81280000D03*
X175260000Y-83820000D03*
X175260000Y-86360000D03*
D22*
X175260000Y-104140000D03*
D23*
X175260000Y-106680000D03*
X175260000Y-109220000D03*
X175260000Y-111760000D03*
X175260000Y-114300000D03*
D20*
X175260000Y-119380000D03*
D21*
X177800000Y-119380000D03*
D20*
X130175000Y-93345000D03*
D21*
X130175000Y-95885000D03*
D24*
X121920000Y-109220000D03*
D25*
X124460000Y-109220000D03*
X121920000Y-111760000D03*
X124460000Y-111760000D03*
X121920000Y-114300000D03*
X124460000Y-114300000D03*
D18*
X137160000Y-74930000D03*
D19*
X134620000Y-74930000D03*
X132080000Y-74930000D03*
D26*
X150618600Y-109234600D03*
X152560700Y-110799600D03*
X154363500Y-104248400D03*
X154250500Y-100585300D03*
X140684000Y-86068300D03*
X145169000Y-96230000D03*
X147110000Y-98283700D03*
X145411200Y-87659500D03*
X136896100Y-88700800D03*
X142963500Y-92774600D03*
X140249200Y-110540800D03*
X139131500Y-106521900D03*
X149925000Y-104859200D03*
X145640200Y-95079900D03*
X142277500Y-105770600D03*
X143061800Y-94230000D03*
X133605300Y-107060000D03*
X142266400Y-95548800D03*
X132448500Y-110134100D03*
X139334700Y-95136400D03*
X127347500Y-95255100D03*
X138117300Y-95676700D03*
X146778100Y-103357200D03*
X125341000Y-99656900D03*
X146990000Y-84419700D03*
X148109900Y-89331300D03*
X166592000Y-91344300D03*
X166196700Y-94648800D03*
D27*
X151015000Y-114400800D02*
X151015000Y-111760000D01*
X150153000Y-115262800D02*
X151015000Y-114400800D01*
X137601900Y-115262800D02*
X150153000Y-115262800D01*
X135369100Y-113030000D02*
X137601900Y-115262800D01*
X124026700Y-113030000D02*
X135369100Y-113030000D01*
X123108900Y-112112200D02*
X124026700Y-113030000D01*
X123108900Y-111226200D02*
X123108900Y-112112200D01*
X122291600Y-110408900D02*
X123108900Y-111226200D01*
X121920000Y-110408900D02*
X122291600Y-110408900D01*
X121920000Y-109220000D02*
X121920000Y-110408900D01*
X152285000Y-111005000D02*
X152337000Y-110953000D01*
X152285000Y-114290000D02*
X152285000Y-111005000D01*
X152337000Y-110953000D02*
X150618600Y-109234600D01*
X152490400Y-110799600D02*
X152560700Y-110799600D01*
X152337000Y-110953000D02*
X152490400Y-110799600D01*
X119380000Y-83820000D02*
X119380000Y-76200000D01*
X154363500Y-110951500D02*
X154363500Y-104248400D01*
X153555000Y-111760000D02*
X154363500Y-110951500D01*
X124831500Y-110571100D02*
X124460000Y-110571100D01*
X130175000Y-105227600D02*
X124831500Y-110571100D01*
X130175000Y-95885000D02*
X130175000Y-105227600D01*
X124460000Y-111760000D02*
X124460000Y-110571100D01*
X154250500Y-104135400D02*
X154250500Y-100585300D01*
X154363500Y-104248400D02*
X154250500Y-104135400D01*
X175260000Y-81280000D02*
X175260000Y-83820000D01*
X177800000Y-114968800D02*
X177800000Y-119380000D01*
X175780100Y-112948900D02*
X177800000Y-114968800D01*
X175260000Y-112948900D02*
X175780100Y-112948900D01*
X175260000Y-111760000D02*
X175260000Y-112948900D01*
X140684000Y-83345200D02*
X140684000Y-86068300D01*
X145287100Y-78742100D02*
X140684000Y-83345200D01*
X128239500Y-76200000D02*
X127000000Y-76200000D01*
X133431000Y-71008500D02*
X128239500Y-76200000D01*
X133431000Y-69802300D02*
X133431000Y-71008500D01*
X134142800Y-69090500D02*
X133431000Y-69802300D01*
X135096700Y-69090500D02*
X134142800Y-69090500D01*
X135971100Y-69964900D02*
X135096700Y-69090500D01*
X135971100Y-70485000D02*
X135971100Y-69964900D01*
X137160000Y-70485000D02*
X135971100Y-70485000D01*
X147110000Y-98171000D02*
X147110000Y-98283700D01*
X145169000Y-96230000D02*
X147110000Y-98171000D01*
X145006100Y-96067100D02*
X145006100Y-88064600D01*
X145169000Y-96230000D02*
X145006100Y-96067100D01*
X145006100Y-88064600D02*
X145411200Y-87659500D01*
X137160000Y-74930000D02*
X137365500Y-74930000D01*
X137365500Y-74930000D02*
X137570900Y-74930000D01*
X137365500Y-72031800D02*
X137160000Y-71826300D01*
X137365500Y-74930000D02*
X137365500Y-72031800D01*
X137160000Y-70485000D02*
X137160000Y-71826300D01*
X137570900Y-83904500D02*
X137570900Y-74930000D01*
X141731000Y-88064600D02*
X137570900Y-83904500D01*
X145006100Y-88064600D02*
X141731000Y-88064600D01*
X160847700Y-99887700D02*
X175260000Y-114300000D01*
X153107800Y-99887700D02*
X160847700Y-99887700D01*
X153107800Y-102560800D02*
X153107800Y-99887700D01*
X149745000Y-105923600D02*
X153107800Y-102560800D01*
X149745000Y-114290000D02*
X149745000Y-105923600D01*
X153107800Y-79450800D02*
X152399100Y-78742100D01*
X153107800Y-99887700D02*
X153107800Y-79450800D01*
X138684000Y-90488700D02*
X138684000Y-92964000D01*
X136896100Y-88700800D02*
X138684000Y-90488700D01*
X138684000Y-97054100D02*
X142963500Y-92774600D01*
X138684000Y-97844000D02*
X138684000Y-97054100D01*
X139131500Y-109423100D02*
X140249200Y-110540800D01*
X139131500Y-106521900D02*
X139131500Y-109423100D01*
X149925000Y-99364700D02*
X145640200Y-95079900D01*
X149925000Y-104859200D02*
X149925000Y-99364700D01*
X143061800Y-104986300D02*
X143061800Y-94230000D01*
X142277500Y-105770600D02*
X143061800Y-104986300D01*
X142266400Y-98398900D02*
X142266400Y-95548800D01*
X133605300Y-107060000D02*
X142266400Y-98398900D01*
X133605300Y-108977300D02*
X132448500Y-110134100D01*
X133605300Y-107060000D02*
X133605300Y-108977300D01*
X137460700Y-93262400D02*
X139334700Y-95136400D01*
X137460700Y-92375700D02*
X137460700Y-93262400D01*
X129540000Y-84455000D02*
X137460700Y-92375700D01*
X121920000Y-83820000D02*
X123108900Y-83820000D01*
X123108900Y-91016500D02*
X127347500Y-95255100D01*
X123108900Y-83820000D02*
X123108900Y-91016500D01*
X124460000Y-83820000D02*
X124460000Y-85161300D01*
X135707300Y-95676700D02*
X138117300Y-95676700D01*
X125191900Y-85161300D02*
X135707300Y-95676700D01*
X124460000Y-85161300D02*
X125191900Y-85161300D01*
X143812300Y-100391400D02*
X146778100Y-103357200D01*
X143812300Y-91596400D02*
X143812300Y-100391400D01*
X135971000Y-83755100D02*
X143812300Y-91596400D01*
X135971000Y-71836000D02*
X135971000Y-83755100D01*
X134620000Y-70485000D02*
X135971000Y-71836000D01*
X125341000Y-98179000D02*
X130175000Y-93345000D01*
X125341000Y-99656900D02*
X125341000Y-98179000D01*
X148109900Y-85539600D02*
X146990000Y-84419700D01*
X148109900Y-89331300D02*
X148109900Y-85539600D01*
X166592000Y-90702100D02*
X166592000Y-91344300D01*
X153060000Y-77170100D02*
X166592000Y-90702100D01*
X149399100Y-77170100D02*
X153060000Y-77170100D01*
X147827100Y-78742100D02*
X149399100Y-77170100D01*
X165746400Y-94198500D02*
X166196700Y-94648800D01*
X165746400Y-90493400D02*
X165746400Y-94198500D01*
X152881000Y-77628000D02*
X165746400Y-90493400D01*
X150973200Y-77628000D02*
X152881000Y-77628000D01*
X149859100Y-78742100D02*
X150973200Y-77628000D01*
D28*
G36*
X182641239Y-67587709D02*
X181890345Y-68337293D01*
X181483464Y-69317173D01*
X181482538Y-70378172D01*
X181887709Y-71358761D01*
X182637293Y-72109655D01*
X183617173Y-72516536D01*
X184678172Y-72517462D01*
X185658761Y-72112291D01*
X186409655Y-71362707D01*
X186563000Y-70993411D01*
X186563000Y-119505983D01*
X186412291Y-119141239D01*
X185662707Y-118390345D01*
X184682827Y-117983464D01*
X183621828Y-117982538D01*
X182641239Y-118387709D01*
X181890345Y-119137293D01*
X181483464Y-120117173D01*
X181482538Y-121178172D01*
X181736580Y-121793000D01*
X157617811Y-121793000D01*
X157894576Y-121126476D01*
X157895421Y-120157774D01*
X157525496Y-119262486D01*
X156841117Y-118576912D01*
X156328369Y-118364000D01*
X173596560Y-118364000D01*
X173596560Y-120396000D01*
X173640838Y-120631317D01*
X173779910Y-120847441D01*
X173992110Y-120992431D01*
X174244000Y-121043440D01*
X176276000Y-121043440D01*
X176511317Y-120999162D01*
X176727441Y-120860090D01*
X176838840Y-120697052D01*
X176935182Y-120786385D01*
X177417056Y-120985975D01*
X177673000Y-120866836D01*
X177673000Y-119507000D01*
X177927000Y-119507000D01*
X177927000Y-120866836D01*
X178182944Y-120985975D01*
X178664818Y-120786385D01*
X179137188Y-120348379D01*
X179405983Y-119762946D01*
X179287367Y-119507000D01*
X177927000Y-119507000D01*
X177673000Y-119507000D01*
X177653000Y-119507000D01*
X177653000Y-119253000D01*
X177673000Y-119253000D01*
X177673000Y-117893164D01*
X177927000Y-117893164D01*
X177927000Y-119253000D01*
X179287367Y-119253000D01*
X179405983Y-118997054D01*
X179137188Y-118411621D01*
X178664818Y-117973615D01*
X178182944Y-117774025D01*
X177927000Y-117893164D01*
X177673000Y-117893164D01*
X177417056Y-117774025D01*
X176935182Y-117973615D01*
X176837602Y-118064097D01*
X176740090Y-117912559D01*
X176527890Y-117767569D01*
X176276000Y-117716560D01*
X174244000Y-117716560D01*
X174008683Y-117760838D01*
X173792559Y-117899910D01*
X173647569Y-118112110D01*
X173596560Y-118364000D01*
X156328369Y-118364000D01*
X155946476Y-118205424D01*
X154977774Y-118204579D01*
X154082486Y-118574504D01*
X153396912Y-119258883D01*
X153025424Y-120153524D01*
X153024579Y-121122226D01*
X153301737Y-121793000D01*
X149997811Y-121793000D01*
X150274576Y-121126476D01*
X150275421Y-120157774D01*
X149905496Y-119262486D01*
X149221117Y-118576912D01*
X148326476Y-118205424D01*
X147357774Y-118204579D01*
X146462486Y-118574504D01*
X145776912Y-119258883D01*
X145405424Y-120153524D01*
X145404579Y-121122226D01*
X145681737Y-121793000D01*
X115443170Y-121793000D01*
X115696536Y-121182827D01*
X115697462Y-120121828D01*
X115292291Y-119141239D01*
X114542707Y-118390345D01*
X113562827Y-117983464D01*
X112501828Y-117982538D01*
X111521239Y-118387709D01*
X110770345Y-119137293D01*
X110617000Y-119506589D01*
X110617000Y-87512163D01*
X112057443Y-87512163D01*
X112156042Y-87778965D01*
X112765582Y-88005401D01*
X113415377Y-87981341D01*
X113903958Y-87778965D01*
X114002557Y-87512163D01*
X113030000Y-86539605D01*
X112057443Y-87512163D01*
X110617000Y-87512163D01*
X110617000Y-86095582D01*
X111384599Y-86095582D01*
X111408659Y-86745377D01*
X111611035Y-87233958D01*
X111877837Y-87332557D01*
X112850395Y-86360000D01*
X113209605Y-86360000D01*
X114182163Y-87332557D01*
X114448965Y-87233958D01*
X114675401Y-86624418D01*
X114651341Y-85974623D01*
X114448965Y-85486042D01*
X114182163Y-85387443D01*
X113209605Y-86360000D01*
X112850395Y-86360000D01*
X111877837Y-85387443D01*
X111611035Y-85486042D01*
X111384599Y-86095582D01*
X110617000Y-86095582D01*
X110617000Y-85207837D01*
X112057443Y-85207837D01*
X113030000Y-86180395D01*
X114002557Y-85207837D01*
X113903958Y-84941035D01*
X113294418Y-84714599D01*
X112644623Y-84738659D01*
X112156042Y-84941035D01*
X112057443Y-85207837D01*
X110617000Y-85207837D01*
X110617000Y-84105750D01*
X117881400Y-84105750D01*
X117881400Y-84962309D01*
X117978073Y-85195698D01*
X118156701Y-85374327D01*
X118390090Y-85471000D01*
X119094250Y-85471000D01*
X119253000Y-85312250D01*
X119253000Y-83947000D01*
X118040150Y-83947000D01*
X117881400Y-84105750D01*
X110617000Y-84105750D01*
X110617000Y-82677691D01*
X117881400Y-82677691D01*
X117881400Y-83534250D01*
X118040150Y-83693000D01*
X119253000Y-83693000D01*
X119253000Y-82327750D01*
X119094250Y-82169000D01*
X118390090Y-82169000D01*
X118156701Y-82265673D01*
X117978073Y-82444302D01*
X117881400Y-82677691D01*
X110617000Y-82677691D01*
X110617000Y-76485750D01*
X117881400Y-76485750D01*
X117881400Y-77342309D01*
X117978073Y-77575698D01*
X118156701Y-77754327D01*
X118390090Y-77851000D01*
X119094250Y-77851000D01*
X119253000Y-77692250D01*
X119253000Y-76327000D01*
X118040150Y-76327000D01*
X117881400Y-76485750D01*
X110617000Y-76485750D01*
X110617000Y-75057691D01*
X117881400Y-75057691D01*
X117881400Y-75914250D01*
X118040150Y-76073000D01*
X119253000Y-76073000D01*
X119253000Y-74707750D01*
X119507000Y-74707750D01*
X119507000Y-76073000D01*
X119527000Y-76073000D01*
X119527000Y-76327000D01*
X119507000Y-76327000D01*
X119507000Y-77692250D01*
X119665750Y-77851000D01*
X120369910Y-77851000D01*
X120603299Y-77754327D01*
X120781927Y-77575698D01*
X120845500Y-77422220D01*
X120860330Y-77444415D01*
X121346511Y-77769271D01*
X121920000Y-77883345D01*
X122493489Y-77769271D01*
X122979670Y-77444415D01*
X123190000Y-77129634D01*
X123400330Y-77444415D01*
X123886511Y-77769271D01*
X124460000Y-77883345D01*
X125033489Y-77769271D01*
X125519670Y-77444415D01*
X125730000Y-77129634D01*
X125940330Y-77444415D01*
X126426511Y-77769271D01*
X127000000Y-77883345D01*
X127573489Y-77769271D01*
X128059670Y-77444415D01*
X128384526Y-76958234D01*
X128390135Y-76930037D01*
X128530339Y-76902148D01*
X128776901Y-76737401D01*
X130581400Y-74932902D01*
X130581400Y-75057002D01*
X130739075Y-75057002D01*
X130594816Y-75291913D01*
X130788046Y-75844320D01*
X131177964Y-76280732D01*
X131705209Y-76534709D01*
X131720974Y-76537358D01*
X131953000Y-76416217D01*
X131953000Y-75057000D01*
X131933000Y-75057000D01*
X131933000Y-74803000D01*
X131953000Y-74803000D01*
X131953000Y-74783000D01*
X132207000Y-74783000D01*
X132207000Y-74803000D01*
X132227000Y-74803000D01*
X132227000Y-75057000D01*
X132207000Y-75057000D01*
X132207000Y-76416217D01*
X132439026Y-76537358D01*
X132454791Y-76534709D01*
X132982036Y-76280732D01*
X133353539Y-75864931D01*
X133560330Y-76174415D01*
X134046511Y-76499271D01*
X134620000Y-76613345D01*
X135193489Y-76499271D01*
X135211000Y-76487571D01*
X135211000Y-83755100D01*
X135268852Y-84045939D01*
X135433599Y-84292501D01*
X142980712Y-91839614D01*
X142778333Y-91839438D01*
X142434557Y-91981483D01*
X142171308Y-92244273D01*
X142028662Y-92587801D01*
X142028621Y-92634677D01*
X140091860Y-94571438D01*
X139865027Y-94344208D01*
X139521499Y-94201562D01*
X139474623Y-94201521D01*
X139428184Y-94155082D01*
X139467515Y-94138831D01*
X139857461Y-93749564D01*
X140068759Y-93240702D01*
X140069240Y-92689715D01*
X139858831Y-92180485D01*
X139469564Y-91790539D01*
X139444000Y-91779924D01*
X139444000Y-90488700D01*
X139386148Y-90197861D01*
X139386148Y-90197860D01*
X139221401Y-89951299D01*
X137831222Y-88561120D01*
X137831262Y-88515633D01*
X137689217Y-88171857D01*
X137426427Y-87908608D01*
X137082899Y-87765962D01*
X136710933Y-87765638D01*
X136367157Y-87907683D01*
X136103908Y-88170473D01*
X135961262Y-88514001D01*
X135960938Y-88885967D01*
X136102983Y-89229743D01*
X136365773Y-89492992D01*
X136709301Y-89635638D01*
X136756177Y-89635679D01*
X137924000Y-90803502D01*
X137924000Y-91764198D01*
X131122381Y-84962579D01*
X131223345Y-84455000D01*
X131097670Y-83823190D01*
X130739778Y-83287567D01*
X130204155Y-82929675D01*
X129572345Y-82804000D01*
X129507655Y-82804000D01*
X128875845Y-82929675D01*
X128340222Y-83287567D01*
X127982330Y-83823190D01*
X127856655Y-84455000D01*
X127982330Y-85086810D01*
X128209499Y-85426792D01*
X128072559Y-85514910D01*
X127927569Y-85727110D01*
X127876560Y-85979000D01*
X127876560Y-86771158D01*
X125780082Y-84674680D01*
X125844526Y-84578234D01*
X125958600Y-84004745D01*
X125958600Y-83635255D01*
X125844526Y-83061766D01*
X125519670Y-82575585D01*
X125033489Y-82250729D01*
X124460000Y-82136655D01*
X123886511Y-82250729D01*
X123400330Y-82575585D01*
X123190000Y-82890366D01*
X122979670Y-82575585D01*
X122493489Y-82250729D01*
X121920000Y-82136655D01*
X121346511Y-82250729D01*
X120860330Y-82575585D01*
X120845500Y-82597780D01*
X120781927Y-82444302D01*
X120603299Y-82265673D01*
X120369910Y-82169000D01*
X119665750Y-82169000D01*
X119507000Y-82327750D01*
X119507000Y-83693000D01*
X119527000Y-83693000D01*
X119527000Y-83947000D01*
X119507000Y-83947000D01*
X119507000Y-85312250D01*
X119665750Y-85471000D01*
X120369910Y-85471000D01*
X120603299Y-85374327D01*
X120781927Y-85195698D01*
X120845500Y-85042220D01*
X120860330Y-85064415D01*
X121346511Y-85389271D01*
X121920000Y-85503345D01*
X122348900Y-85418032D01*
X122348900Y-91016500D01*
X122406752Y-91307339D01*
X122571499Y-91553901D01*
X126412378Y-95394780D01*
X126412338Y-95440267D01*
X126554383Y-95784043D01*
X126607722Y-95837476D01*
X124803599Y-97641599D01*
X124638852Y-97888161D01*
X124581000Y-98179000D01*
X124581000Y-99094437D01*
X124548808Y-99126573D01*
X124406162Y-99470101D01*
X124405838Y-99842067D01*
X124547883Y-100185843D01*
X124810673Y-100449092D01*
X125154201Y-100591738D01*
X125526167Y-100592062D01*
X125869943Y-100450017D01*
X126133192Y-100187227D01*
X126275838Y-99843699D01*
X126276162Y-99471733D01*
X126134117Y-99127957D01*
X126101000Y-99094782D01*
X126101000Y-98493802D01*
X128582800Y-96012002D01*
X128688163Y-96012002D01*
X128569025Y-96267944D01*
X128768615Y-96749818D01*
X129206621Y-97222188D01*
X129792054Y-97490983D01*
X130048000Y-97372367D01*
X130048000Y-96012000D01*
X130302000Y-96012000D01*
X130302000Y-97372367D01*
X130557946Y-97490983D01*
X131143379Y-97222188D01*
X131581385Y-96749818D01*
X131780975Y-96267944D01*
X131661836Y-96012000D01*
X130302000Y-96012000D01*
X130048000Y-96012000D01*
X130028000Y-96012000D01*
X130028000Y-95758000D01*
X130048000Y-95758000D01*
X130048000Y-95738000D01*
X130302000Y-95738000D01*
X130302000Y-95758000D01*
X131661836Y-95758000D01*
X131780975Y-95502056D01*
X131581385Y-95020182D01*
X131490903Y-94922602D01*
X131642441Y-94825090D01*
X131787431Y-94612890D01*
X131838440Y-94361000D01*
X131838440Y-92882642D01*
X135169899Y-96214101D01*
X135416460Y-96378848D01*
X135707300Y-96436700D01*
X137554837Y-96436700D01*
X137586973Y-96468892D01*
X137930501Y-96611538D01*
X138039733Y-96611633D01*
X137900485Y-96669169D01*
X137510539Y-97058436D01*
X137299241Y-97567298D01*
X137298760Y-98118285D01*
X137509169Y-98627515D01*
X137898436Y-99017461D01*
X138407298Y-99228759D01*
X138958285Y-99229240D01*
X139467515Y-99018831D01*
X139857461Y-98629564D01*
X140068759Y-98120702D01*
X140069240Y-97569715D01*
X139858831Y-97060485D01*
X139805670Y-97007232D01*
X141331458Y-95481444D01*
X141331238Y-95733967D01*
X141473283Y-96077743D01*
X141506400Y-96110918D01*
X141506400Y-98084098D01*
X133465620Y-106124878D01*
X133420133Y-106124838D01*
X133076357Y-106266883D01*
X132813108Y-106529673D01*
X132670462Y-106873201D01*
X132670138Y-107245167D01*
X132812183Y-107588943D01*
X132845300Y-107622118D01*
X132845300Y-108662498D01*
X132308820Y-109198978D01*
X132263333Y-109198938D01*
X131919557Y-109340983D01*
X131656308Y-109603773D01*
X131513662Y-109947301D01*
X131513338Y-110319267D01*
X131655383Y-110663043D01*
X131918173Y-110926292D01*
X132261701Y-111068938D01*
X132633667Y-111069262D01*
X132977443Y-110927217D01*
X133240692Y-110664427D01*
X133383338Y-110320899D01*
X133383379Y-110274023D01*
X134142701Y-109514701D01*
X134307448Y-109268140D01*
X134365300Y-108977300D01*
X134365300Y-107622463D01*
X134397492Y-107590327D01*
X134540138Y-107246799D01*
X134540179Y-107199923D01*
X135033035Y-106707067D01*
X138196338Y-106707067D01*
X138338383Y-107050843D01*
X138371500Y-107084018D01*
X138371500Y-109423100D01*
X138429352Y-109713939D01*
X138594099Y-109960501D01*
X139314078Y-110680480D01*
X139314038Y-110725967D01*
X139456083Y-111069743D01*
X139718873Y-111332992D01*
X140062401Y-111475638D01*
X140434367Y-111475962D01*
X140778143Y-111333917D01*
X141041392Y-111071127D01*
X141184038Y-110727599D01*
X141184362Y-110355633D01*
X141042317Y-110011857D01*
X140779527Y-109748608D01*
X140435999Y-109605962D01*
X140389124Y-109605921D01*
X139891500Y-109108298D01*
X139891500Y-107084363D01*
X139923692Y-107052227D01*
X140066338Y-106708699D01*
X140066662Y-106336733D01*
X139924617Y-105992957D01*
X139661827Y-105729708D01*
X139318299Y-105587062D01*
X138946333Y-105586738D01*
X138602557Y-105728783D01*
X138339308Y-105991573D01*
X138196662Y-106335101D01*
X138196338Y-106707067D01*
X135033035Y-106707067D01*
X142301800Y-99438302D01*
X142301800Y-104671498D01*
X142137820Y-104835478D01*
X142092333Y-104835438D01*
X141748557Y-104977483D01*
X141485308Y-105240273D01*
X141342662Y-105583801D01*
X141342338Y-105955767D01*
X141484383Y-106299543D01*
X141747173Y-106562792D01*
X142090701Y-106705438D01*
X142462667Y-106705762D01*
X142806443Y-106563717D01*
X143069692Y-106300927D01*
X143212338Y-105957399D01*
X143212379Y-105910523D01*
X143599201Y-105523701D01*
X143763948Y-105277139D01*
X143821800Y-104986300D01*
X143821800Y-101475702D01*
X145842978Y-103496880D01*
X145842938Y-103542367D01*
X145984983Y-103886143D01*
X146247773Y-104149392D01*
X146591301Y-104292038D01*
X146963267Y-104292362D01*
X147307043Y-104150317D01*
X147570292Y-103887527D01*
X147712938Y-103543999D01*
X147713262Y-103172033D01*
X147571217Y-102828257D01*
X147308427Y-102565008D01*
X146964899Y-102422362D01*
X146918023Y-102422321D01*
X144572300Y-100076598D01*
X144572300Y-96955703D01*
X144638673Y-97022192D01*
X144982201Y-97164838D01*
X145029077Y-97164879D01*
X146174976Y-98310778D01*
X146174838Y-98468867D01*
X146316883Y-98812643D01*
X146579673Y-99075892D01*
X146923201Y-99218538D01*
X147295167Y-99218862D01*
X147638943Y-99076817D01*
X147902192Y-98814027D01*
X148018772Y-98533274D01*
X149165000Y-99679502D01*
X149165000Y-104296737D01*
X149132808Y-104328873D01*
X148990162Y-104672401D01*
X148989838Y-105044367D01*
X149131883Y-105388143D01*
X149176462Y-105432799D01*
X149042852Y-105632761D01*
X148985000Y-105923600D01*
X148985000Y-113254188D01*
X148668974Y-113569663D01*
X148475221Y-114036273D01*
X148474814Y-114502800D01*
X137916702Y-114502800D01*
X135906501Y-112492599D01*
X135659939Y-112327852D01*
X135369100Y-112270000D01*
X125852426Y-112270000D01*
X125914958Y-112119026D01*
X125793817Y-111887000D01*
X124587000Y-111887000D01*
X124587000Y-111907000D01*
X124333000Y-111907000D01*
X124333000Y-111887000D01*
X124313000Y-111887000D01*
X124313000Y-111633000D01*
X124333000Y-111633000D01*
X124333000Y-111613000D01*
X124587000Y-111613000D01*
X124587000Y-111633000D01*
X125793817Y-111633000D01*
X125914958Y-111400974D01*
X125742688Y-110985053D01*
X125348490Y-110553179D01*
X125225772Y-110495664D01*
X125549029Y-110279670D01*
X125873885Y-109793489D01*
X125987959Y-109220000D01*
X125873885Y-108646511D01*
X125549029Y-108160330D01*
X125062848Y-107835474D01*
X124489359Y-107721400D01*
X124430641Y-107721400D01*
X123857152Y-107835474D01*
X123391558Y-108146574D01*
X123386762Y-108121083D01*
X123247690Y-107904959D01*
X123035490Y-107759969D01*
X122783600Y-107708960D01*
X121056400Y-107708960D01*
X120821083Y-107753238D01*
X120604959Y-107892310D01*
X120459969Y-108104510D01*
X120408960Y-108356400D01*
X120408960Y-110083600D01*
X120453238Y-110318917D01*
X120592310Y-110535041D01*
X120804510Y-110680031D01*
X120898375Y-110699039D01*
X120637312Y-110985053D01*
X120465042Y-111400974D01*
X120586183Y-111633000D01*
X121793000Y-111633000D01*
X121793000Y-111613000D01*
X122047000Y-111613000D01*
X122047000Y-111633000D01*
X122067000Y-111633000D01*
X122067000Y-111887000D01*
X122047000Y-111887000D01*
X122047000Y-111907000D01*
X121793000Y-111907000D01*
X121793000Y-111887000D01*
X120586183Y-111887000D01*
X120465042Y-112119026D01*
X120637312Y-112534947D01*
X121031510Y-112966821D01*
X121154228Y-113024336D01*
X120830971Y-113240330D01*
X120506115Y-113726511D01*
X120392041Y-114300000D01*
X120506115Y-114873489D01*
X120830971Y-115359670D01*
X121317152Y-115684526D01*
X121890641Y-115798600D01*
X121949359Y-115798600D01*
X122522848Y-115684526D01*
X123009029Y-115359670D01*
X123190000Y-115088828D01*
X123370971Y-115359670D01*
X123857152Y-115684526D01*
X124430641Y-115798600D01*
X124489359Y-115798600D01*
X125062848Y-115684526D01*
X125549029Y-115359670D01*
X125873885Y-114873489D01*
X125987959Y-114300000D01*
X125886514Y-113790000D01*
X135054298Y-113790000D01*
X137064499Y-115800201D01*
X137311061Y-115964948D01*
X137601900Y-116022800D01*
X150153000Y-116022800D01*
X150443839Y-115964948D01*
X150690401Y-115800201D01*
X151344811Y-115145791D01*
X151564663Y-115366026D01*
X152031273Y-115559779D01*
X152536510Y-115560220D01*
X153003458Y-115367282D01*
X153361026Y-115010337D01*
X153554779Y-114543727D01*
X153555220Y-114038490D01*
X153362282Y-113571542D01*
X153045000Y-113253706D01*
X153045000Y-112927346D01*
X153377664Y-113042681D01*
X153882023Y-113012906D01*
X154209697Y-112877179D01*
X154263528Y-112648133D01*
X153555000Y-111939605D01*
X153540858Y-111953748D01*
X153361253Y-111774143D01*
X153375395Y-111760000D01*
X153734605Y-111760000D01*
X154443133Y-112468528D01*
X154672179Y-112414697D01*
X154837681Y-111937336D01*
X154807906Y-111432977D01*
X154672179Y-111105303D01*
X154443133Y-111051472D01*
X153734605Y-111760000D01*
X153375395Y-111760000D01*
X153361253Y-111745858D01*
X153540858Y-111566253D01*
X153555000Y-111580395D01*
X154263528Y-110871867D01*
X154209697Y-110642821D01*
X153732336Y-110477319D01*
X153446188Y-110494212D01*
X153353817Y-110270657D01*
X153091027Y-110007408D01*
X152747499Y-109864762D01*
X152375533Y-109864438D01*
X152338529Y-109879727D01*
X151553722Y-109094920D01*
X151553762Y-109049433D01*
X151411717Y-108705657D01*
X151148927Y-108442408D01*
X150805399Y-108299762D01*
X150505000Y-108299500D01*
X150505000Y-106238402D01*
X153645201Y-103098201D01*
X153809948Y-102851640D01*
X153867800Y-102560800D01*
X153867800Y-100647700D01*
X160532898Y-100647700D01*
X173677619Y-113792421D01*
X173576655Y-114300000D01*
X173690729Y-114873489D01*
X174015585Y-115359670D01*
X174501766Y-115684526D01*
X175075255Y-115798600D01*
X175444745Y-115798600D01*
X176018234Y-115684526D01*
X176504415Y-115359670D01*
X176829271Y-114873489D01*
X176943345Y-114300000D01*
X176829271Y-113726511D01*
X176504415Y-113240330D01*
X176194931Y-113033539D01*
X176610732Y-112662036D01*
X176864709Y-112134791D01*
X176867358Y-112119026D01*
X176746217Y-111887000D01*
X175387000Y-111887000D01*
X175387000Y-111907000D01*
X175133000Y-111907000D01*
X175133000Y-111887000D01*
X175113000Y-111887000D01*
X175113000Y-111633000D01*
X175133000Y-111633000D01*
X175133000Y-111613000D01*
X175387000Y-111613000D01*
X175387000Y-111633000D01*
X176746217Y-111633000D01*
X176867358Y-111400974D01*
X176864709Y-111385209D01*
X176610732Y-110857964D01*
X176194931Y-110486461D01*
X176504415Y-110279670D01*
X176829271Y-109793489D01*
X176943345Y-109220000D01*
X176829271Y-108646511D01*
X176504415Y-108160330D01*
X176189634Y-107950000D01*
X176504415Y-107739670D01*
X176829271Y-107253489D01*
X176943345Y-106680000D01*
X176829271Y-106106511D01*
X176504415Y-105620330D01*
X176490087Y-105610757D01*
X176511317Y-105606762D01*
X176727441Y-105467690D01*
X176872431Y-105255490D01*
X176923440Y-105003600D01*
X176923440Y-103276400D01*
X176879162Y-103041083D01*
X176740090Y-102824959D01*
X176527890Y-102679969D01*
X176276000Y-102628960D01*
X174244000Y-102628960D01*
X174008683Y-102673238D01*
X173792559Y-102812310D01*
X173647569Y-103024510D01*
X173596560Y-103276400D01*
X173596560Y-105003600D01*
X173640838Y-105238917D01*
X173779910Y-105455041D01*
X173992110Y-105600031D01*
X174033439Y-105608400D01*
X174015585Y-105620330D01*
X173690729Y-106106511D01*
X173576655Y-106680000D01*
X173690729Y-107253489D01*
X174015585Y-107739670D01*
X174330366Y-107950000D01*
X174015585Y-108160330D01*
X173690729Y-108646511D01*
X173576655Y-109220000D01*
X173690729Y-109793489D01*
X174015585Y-110279670D01*
X174325069Y-110486461D01*
X173909268Y-110857964D01*
X173655291Y-111385209D01*
X173652642Y-111400974D01*
X173773782Y-111632998D01*
X173667800Y-111632998D01*
X161385101Y-99350299D01*
X161138539Y-99185552D01*
X160847700Y-99127700D01*
X153867800Y-99127700D01*
X153867800Y-79689602D01*
X164986400Y-90808202D01*
X164986400Y-94198500D01*
X165044252Y-94489339D01*
X165208999Y-94735901D01*
X165261578Y-94788480D01*
X165261538Y-94833967D01*
X165403583Y-95177743D01*
X165666373Y-95440992D01*
X166009901Y-95583638D01*
X166381867Y-95583962D01*
X166725643Y-95441917D01*
X166988892Y-95179127D01*
X167131538Y-94835599D01*
X167131862Y-94463633D01*
X166989817Y-94119857D01*
X166727027Y-93856608D01*
X166506400Y-93764995D01*
X166506400Y-92279226D01*
X166777167Y-92279462D01*
X167120943Y-92137417D01*
X167384192Y-91874627D01*
X167526838Y-91531099D01*
X167527162Y-91159133D01*
X167385117Y-90815357D01*
X167352000Y-90782182D01*
X167352000Y-90702100D01*
X167294148Y-90411261D01*
X167129401Y-90164699D01*
X163324702Y-86360000D01*
X173576655Y-86360000D01*
X173690729Y-86933489D01*
X174015585Y-87419670D01*
X174501766Y-87744526D01*
X175075255Y-87858600D01*
X175444745Y-87858600D01*
X176018234Y-87744526D01*
X176504415Y-87419670D01*
X176829271Y-86933489D01*
X176943345Y-86360000D01*
X176829271Y-85786511D01*
X176504415Y-85300330D01*
X176194931Y-85093539D01*
X176610732Y-84722036D01*
X176864709Y-84194791D01*
X176867358Y-84179026D01*
X176746217Y-83947000D01*
X175387000Y-83947000D01*
X175387000Y-83967000D01*
X175133000Y-83967000D01*
X175133000Y-83947000D01*
X173773783Y-83947000D01*
X173652642Y-84179026D01*
X173655291Y-84194791D01*
X173909268Y-84722036D01*
X174325069Y-85093539D01*
X174015585Y-85300330D01*
X173690729Y-85786511D01*
X173576655Y-86360000D01*
X163324702Y-86360000D01*
X158603728Y-81639026D01*
X173652642Y-81639026D01*
X173655291Y-81654791D01*
X173909268Y-82182036D01*
X174321108Y-82550000D01*
X173909268Y-82917964D01*
X173655291Y-83445209D01*
X173652642Y-83460974D01*
X173773783Y-83693000D01*
X175133000Y-83693000D01*
X175133000Y-81407000D01*
X175387000Y-81407000D01*
X175387000Y-83693000D01*
X176746217Y-83693000D01*
X176867358Y-83460974D01*
X176864709Y-83445209D01*
X176610732Y-82917964D01*
X176198892Y-82550000D01*
X176610732Y-82182036D01*
X176864709Y-81654791D01*
X176867358Y-81639026D01*
X176746217Y-81407000D01*
X175387000Y-81407000D01*
X175133000Y-81407000D01*
X173773783Y-81407000D01*
X173652642Y-81639026D01*
X158603728Y-81639026D01*
X154922733Y-77958031D01*
X155528625Y-78209619D01*
X156377929Y-78210360D01*
X157162867Y-77886030D01*
X157172513Y-77876400D01*
X173596560Y-77876400D01*
X173596560Y-79603600D01*
X173640838Y-79838917D01*
X173779910Y-80055041D01*
X173992110Y-80200031D01*
X174086927Y-80219232D01*
X173909268Y-80377964D01*
X173655291Y-80905209D01*
X173652642Y-80920974D01*
X173773783Y-81153000D01*
X175133000Y-81153000D01*
X175133000Y-81133000D01*
X175387000Y-81133000D01*
X175387000Y-81153000D01*
X176746217Y-81153000D01*
X176867358Y-80920974D01*
X176864709Y-80905209D01*
X176610732Y-80377964D01*
X176435155Y-80221093D01*
X176511317Y-80206762D01*
X176727441Y-80067690D01*
X176872431Y-79855490D01*
X176923440Y-79603600D01*
X176923440Y-77876400D01*
X176879162Y-77641083D01*
X176740090Y-77424959D01*
X176527890Y-77279969D01*
X176276000Y-77228960D01*
X174244000Y-77228960D01*
X174008683Y-77273238D01*
X173792559Y-77412310D01*
X173647569Y-77624510D01*
X173596560Y-77876400D01*
X157172513Y-77876400D01*
X157763940Y-77286006D01*
X158089639Y-76501635D01*
X158090380Y-75652331D01*
X157766050Y-74867393D01*
X157166026Y-74266320D01*
X156381655Y-73940621D01*
X155532351Y-73939880D01*
X154747413Y-74264210D01*
X154146340Y-74864234D01*
X153820641Y-75648605D01*
X153819900Y-76497909D01*
X154071480Y-77106778D01*
X153597401Y-76632699D01*
X153350839Y-76467952D01*
X153060000Y-76410100D01*
X149399100Y-76410100D01*
X149108261Y-76467952D01*
X148861699Y-76632699D01*
X148127734Y-77366664D01*
X148103956Y-77356791D01*
X147552742Y-77356310D01*
X147043303Y-77566806D01*
X146653196Y-77956233D01*
X146563761Y-78171616D01*
X146500071Y-78017855D01*
X146259070Y-77949795D01*
X145466745Y-78742120D01*
X146259070Y-79534445D01*
X146500071Y-79466385D01*
X146558909Y-79301080D01*
X146651826Y-79525957D01*
X147041253Y-79916064D01*
X147550324Y-80127449D01*
X148101538Y-80127930D01*
X148610977Y-79917434D01*
X148843203Y-79685613D01*
X149073253Y-79916064D01*
X149582324Y-80127449D01*
X150133538Y-80127930D01*
X150642977Y-79917434D01*
X151033084Y-79528007D01*
X151129115Y-79296739D01*
X151223826Y-79525957D01*
X151613253Y-79916064D01*
X152122324Y-80127449D01*
X152347800Y-80127646D01*
X152347800Y-102245998D01*
X150685000Y-103908798D01*
X150685000Y-99364700D01*
X150658055Y-99229240D01*
X150627148Y-99073860D01*
X150462401Y-98827299D01*
X146575322Y-94940220D01*
X146575362Y-94894733D01*
X146433317Y-94550957D01*
X146170527Y-94287708D01*
X145826999Y-94145062D01*
X145766100Y-94145009D01*
X145766100Y-88524530D01*
X145940143Y-88452617D01*
X146203392Y-88189827D01*
X146346038Y-87846299D01*
X146346362Y-87474333D01*
X146204317Y-87130557D01*
X145941527Y-86867308D01*
X145597999Y-86724662D01*
X145226033Y-86724338D01*
X144882257Y-86866383D01*
X144619008Y-87129173D01*
X144546164Y-87304600D01*
X142045802Y-87304600D01*
X139346069Y-84604867D01*
X146054838Y-84604867D01*
X146196883Y-84948643D01*
X146459673Y-85211892D01*
X146803201Y-85354538D01*
X146850077Y-85354579D01*
X147349900Y-85854402D01*
X147349900Y-88768837D01*
X147317708Y-88800973D01*
X147175062Y-89144501D01*
X147174738Y-89516467D01*
X147316783Y-89860243D01*
X147579573Y-90123492D01*
X147923101Y-90266138D01*
X148295067Y-90266462D01*
X148638843Y-90124417D01*
X148902092Y-89861627D01*
X149044738Y-89518099D01*
X149045062Y-89146133D01*
X148903017Y-88802357D01*
X148869900Y-88769182D01*
X148869900Y-85539600D01*
X148812048Y-85248761D01*
X148647301Y-85002199D01*
X147925122Y-84280020D01*
X147925162Y-84234533D01*
X147783117Y-83890757D01*
X147520327Y-83627508D01*
X147176799Y-83484862D01*
X146804833Y-83484538D01*
X146461057Y-83626583D01*
X146197808Y-83889373D01*
X146055162Y-84232901D01*
X146054838Y-84604867D01*
X139346069Y-84604867D01*
X138330900Y-83589698D01*
X138330900Y-79714050D01*
X144494815Y-79714050D01*
X144562875Y-79955051D01*
X145082174Y-80139887D01*
X145632678Y-80111925D01*
X146011405Y-79955051D01*
X146079465Y-79714050D01*
X145287140Y-78921725D01*
X144494815Y-79714050D01*
X138330900Y-79714050D01*
X138330900Y-78537154D01*
X143889373Y-78537154D01*
X143917335Y-79087658D01*
X144074209Y-79466385D01*
X144315210Y-79534445D01*
X145107535Y-78742120D01*
X144315210Y-77949795D01*
X144074209Y-78017855D01*
X143889373Y-78537154D01*
X138330900Y-78537154D01*
X138330900Y-76502842D01*
X138338566Y-76497909D01*
X140103900Y-76497909D01*
X140428230Y-77282847D01*
X141028254Y-77883920D01*
X141812625Y-78209619D01*
X142661929Y-78210360D01*
X143446867Y-77886030D01*
X143562909Y-77770190D01*
X144494815Y-77770190D01*
X145287140Y-78562515D01*
X146079465Y-77770190D01*
X146011405Y-77529189D01*
X145492106Y-77344353D01*
X144941602Y-77372315D01*
X144562875Y-77529189D01*
X144494815Y-77770190D01*
X143562909Y-77770190D01*
X144047940Y-77286006D01*
X144373639Y-76501635D01*
X144374380Y-75652331D01*
X144050050Y-74867393D01*
X143450026Y-74266320D01*
X142665655Y-73940621D01*
X141816351Y-73939880D01*
X141031413Y-74264210D01*
X140430340Y-74864234D01*
X140104641Y-75648605D01*
X140103900Y-76497909D01*
X138338566Y-76497909D01*
X138475041Y-76410090D01*
X138620031Y-76197890D01*
X138671040Y-75946000D01*
X138671040Y-73914000D01*
X138626762Y-73678683D01*
X138614740Y-73660000D01*
X159606655Y-73660000D01*
X159732330Y-74291810D01*
X160090222Y-74827433D01*
X160625845Y-75185325D01*
X161257655Y-75311000D01*
X161322345Y-75311000D01*
X161954155Y-75185325D01*
X162489778Y-74827433D01*
X162847670Y-74291810D01*
X162973345Y-73660000D01*
X162847670Y-73028190D01*
X162623034Y-72691999D01*
X162665698Y-72674327D01*
X162844327Y-72495699D01*
X162941000Y-72262310D01*
X162941000Y-71405750D01*
X162782250Y-71247000D01*
X161417000Y-71247000D01*
X161417000Y-71267000D01*
X161163000Y-71267000D01*
X161163000Y-71247000D01*
X159797750Y-71247000D01*
X159639000Y-71405750D01*
X159639000Y-72262310D01*
X159735673Y-72495699D01*
X159914302Y-72674327D01*
X159956966Y-72691999D01*
X159732330Y-73028190D01*
X159606655Y-73660000D01*
X138614740Y-73660000D01*
X138487690Y-73462559D01*
X138275490Y-73317569D01*
X138125500Y-73287195D01*
X138125500Y-72129266D01*
X138258917Y-72104162D01*
X138475041Y-71965090D01*
X138620031Y-71752890D01*
X138671040Y-71501000D01*
X138671040Y-69977690D01*
X159639000Y-69977690D01*
X159639000Y-70834250D01*
X159797750Y-70993000D01*
X161163000Y-70993000D01*
X161163000Y-69627750D01*
X161417000Y-69627750D01*
X161417000Y-70993000D01*
X162782250Y-70993000D01*
X162941000Y-70834250D01*
X162941000Y-69977690D01*
X162844327Y-69744301D01*
X162665698Y-69565673D01*
X162432309Y-69469000D01*
X161575750Y-69469000D01*
X161417000Y-69627750D01*
X161163000Y-69627750D01*
X161004250Y-69469000D01*
X160147691Y-69469000D01*
X159914302Y-69565673D01*
X159735673Y-69744301D01*
X159639000Y-69977690D01*
X138671040Y-69977690D01*
X138671040Y-69469000D01*
X138626762Y-69233683D01*
X138487690Y-69017559D01*
X138275490Y-68872569D01*
X138023600Y-68821560D01*
X136296400Y-68821560D01*
X136061083Y-68865838D01*
X135991570Y-68910568D01*
X135634101Y-68553099D01*
X135387539Y-68388352D01*
X135096700Y-68330500D01*
X134142800Y-68330500D01*
X133851960Y-68388352D01*
X133605399Y-68553099D01*
X133001946Y-69156552D01*
X132982036Y-69134268D01*
X132454791Y-68880291D01*
X132439026Y-68877642D01*
X132207000Y-68998783D01*
X132207000Y-70358000D01*
X132227000Y-70358000D01*
X132227000Y-70612000D01*
X132207000Y-70612000D01*
X132207000Y-70632000D01*
X131953000Y-70632000D01*
X131953000Y-70612000D01*
X130739076Y-70612000D01*
X130594816Y-70846913D01*
X130788046Y-71399320D01*
X131177964Y-71835732D01*
X131414854Y-71949844D01*
X128199637Y-75165061D01*
X128059670Y-74955585D01*
X127573489Y-74630729D01*
X127000000Y-74516655D01*
X126426511Y-74630729D01*
X125940330Y-74955585D01*
X125730000Y-75270366D01*
X125519670Y-74955585D01*
X125033489Y-74630729D01*
X124460000Y-74516655D01*
X123886511Y-74630729D01*
X123400330Y-74955585D01*
X123190000Y-75270366D01*
X122979670Y-74955585D01*
X122493489Y-74630729D01*
X121920000Y-74516655D01*
X121346511Y-74630729D01*
X120860330Y-74955585D01*
X120845500Y-74977780D01*
X120781927Y-74824302D01*
X120603299Y-74645673D01*
X120369910Y-74549000D01*
X119665750Y-74549000D01*
X119507000Y-74707750D01*
X119253000Y-74707750D01*
X119094250Y-74549000D01*
X118390090Y-74549000D01*
X118156701Y-74645673D01*
X117978073Y-74824302D01*
X117881400Y-75057691D01*
X110617000Y-75057691D01*
X110617000Y-70994017D01*
X110767709Y-71358761D01*
X111517293Y-72109655D01*
X112497173Y-72516536D01*
X113558172Y-72517462D01*
X114538761Y-72112291D01*
X115289655Y-71362707D01*
X115696536Y-70382827D01*
X115696762Y-70123087D01*
X130594816Y-70123087D01*
X130739076Y-70358000D01*
X131953000Y-70358000D01*
X131953000Y-68998783D01*
X131720974Y-68877642D01*
X131705209Y-68880291D01*
X131177964Y-69134268D01*
X130788046Y-69570680D01*
X130594816Y-70123087D01*
X115696762Y-70123087D01*
X115697462Y-69321828D01*
X115292291Y-68341239D01*
X114542707Y-67590345D01*
X114173411Y-67437000D01*
X183005983Y-67437000D01*
X182641239Y-67587709D01*
X182641239Y-67587709D01*
G37*
X182641239Y-67587709D02*
X181890345Y-68337293D01*
X181483464Y-69317173D01*
X181482538Y-70378172D01*
X181887709Y-71358761D01*
X182637293Y-72109655D01*
X183617173Y-72516536D01*
X184678172Y-72517462D01*
X185658761Y-72112291D01*
X186409655Y-71362707D01*
X186563000Y-70993411D01*
X186563000Y-119505983D01*
X186412291Y-119141239D01*
X185662707Y-118390345D01*
X184682827Y-117983464D01*
X183621828Y-117982538D01*
X182641239Y-118387709D01*
X181890345Y-119137293D01*
X181483464Y-120117173D01*
X181482538Y-121178172D01*
X181736580Y-121793000D01*
X157617811Y-121793000D01*
X157894576Y-121126476D01*
X157895421Y-120157774D01*
X157525496Y-119262486D01*
X156841117Y-118576912D01*
X156328369Y-118364000D01*
X173596560Y-118364000D01*
X173596560Y-120396000D01*
X173640838Y-120631317D01*
X173779910Y-120847441D01*
X173992110Y-120992431D01*
X174244000Y-121043440D01*
X176276000Y-121043440D01*
X176511317Y-120999162D01*
X176727441Y-120860090D01*
X176838840Y-120697052D01*
X176935182Y-120786385D01*
X177417056Y-120985975D01*
X177673000Y-120866836D01*
X177673000Y-119507000D01*
X177927000Y-119507000D01*
X177927000Y-120866836D01*
X178182944Y-120985975D01*
X178664818Y-120786385D01*
X179137188Y-120348379D01*
X179405983Y-119762946D01*
X179287367Y-119507000D01*
X177927000Y-119507000D01*
X177673000Y-119507000D01*
X177653000Y-119507000D01*
X177653000Y-119253000D01*
X177673000Y-119253000D01*
X177673000Y-117893164D01*
X177927000Y-117893164D01*
X177927000Y-119253000D01*
X179287367Y-119253000D01*
X179405983Y-118997054D01*
X179137188Y-118411621D01*
X178664818Y-117973615D01*
X178182944Y-117774025D01*
X177927000Y-117893164D01*
X177673000Y-117893164D01*
X177417056Y-117774025D01*
X176935182Y-117973615D01*
X176837602Y-118064097D01*
X176740090Y-117912559D01*
X176527890Y-117767569D01*
X176276000Y-117716560D01*
X174244000Y-117716560D01*
X174008683Y-117760838D01*
X173792559Y-117899910D01*
X173647569Y-118112110D01*
X173596560Y-118364000D01*
X156328369Y-118364000D01*
X155946476Y-118205424D01*
X154977774Y-118204579D01*
X154082486Y-118574504D01*
X153396912Y-119258883D01*
X153025424Y-120153524D01*
X153024579Y-121122226D01*
X153301737Y-121793000D01*
X149997811Y-121793000D01*
X150274576Y-121126476D01*
X150275421Y-120157774D01*
X149905496Y-119262486D01*
X149221117Y-118576912D01*
X148326476Y-118205424D01*
X147357774Y-118204579D01*
X146462486Y-118574504D01*
X145776912Y-119258883D01*
X145405424Y-120153524D01*
X145404579Y-121122226D01*
X145681737Y-121793000D01*
X115443170Y-121793000D01*
X115696536Y-121182827D01*
X115697462Y-120121828D01*
X115292291Y-119141239D01*
X114542707Y-118390345D01*
X113562827Y-117983464D01*
X112501828Y-117982538D01*
X111521239Y-118387709D01*
X110770345Y-119137293D01*
X110617000Y-119506589D01*
X110617000Y-87512163D01*
X112057443Y-87512163D01*
X112156042Y-87778965D01*
X112765582Y-88005401D01*
X113415377Y-87981341D01*
X113903958Y-87778965D01*
X114002557Y-87512163D01*
X113030000Y-86539605D01*
X112057443Y-87512163D01*
X110617000Y-87512163D01*
X110617000Y-86095582D01*
X111384599Y-86095582D01*
X111408659Y-86745377D01*
X111611035Y-87233958D01*
X111877837Y-87332557D01*
X112850395Y-86360000D01*
X113209605Y-86360000D01*
X114182163Y-87332557D01*
X114448965Y-87233958D01*
X114675401Y-86624418D01*
X114651341Y-85974623D01*
X114448965Y-85486042D01*
X114182163Y-85387443D01*
X113209605Y-86360000D01*
X112850395Y-86360000D01*
X111877837Y-85387443D01*
X111611035Y-85486042D01*
X111384599Y-86095582D01*
X110617000Y-86095582D01*
X110617000Y-85207837D01*
X112057443Y-85207837D01*
X113030000Y-86180395D01*
X114002557Y-85207837D01*
X113903958Y-84941035D01*
X113294418Y-84714599D01*
X112644623Y-84738659D01*
X112156042Y-84941035D01*
X112057443Y-85207837D01*
X110617000Y-85207837D01*
X110617000Y-84105750D01*
X117881400Y-84105750D01*
X117881400Y-84962309D01*
X117978073Y-85195698D01*
X118156701Y-85374327D01*
X118390090Y-85471000D01*
X119094250Y-85471000D01*
X119253000Y-85312250D01*
X119253000Y-83947000D01*
X118040150Y-83947000D01*
X117881400Y-84105750D01*
X110617000Y-84105750D01*
X110617000Y-82677691D01*
X117881400Y-82677691D01*
X117881400Y-83534250D01*
X118040150Y-83693000D01*
X119253000Y-83693000D01*
X119253000Y-82327750D01*
X119094250Y-82169000D01*
X118390090Y-82169000D01*
X118156701Y-82265673D01*
X117978073Y-82444302D01*
X117881400Y-82677691D01*
X110617000Y-82677691D01*
X110617000Y-76485750D01*
X117881400Y-76485750D01*
X117881400Y-77342309D01*
X117978073Y-77575698D01*
X118156701Y-77754327D01*
X118390090Y-77851000D01*
X119094250Y-77851000D01*
X119253000Y-77692250D01*
X119253000Y-76327000D01*
X118040150Y-76327000D01*
X117881400Y-76485750D01*
X110617000Y-76485750D01*
X110617000Y-75057691D01*
X117881400Y-75057691D01*
X117881400Y-75914250D01*
X118040150Y-76073000D01*
X119253000Y-76073000D01*
X119253000Y-74707750D01*
X119507000Y-74707750D01*
X119507000Y-76073000D01*
X119527000Y-76073000D01*
X119527000Y-76327000D01*
X119507000Y-76327000D01*
X119507000Y-77692250D01*
X119665750Y-77851000D01*
X120369910Y-77851000D01*
X120603299Y-77754327D01*
X120781927Y-77575698D01*
X120845500Y-77422220D01*
X120860330Y-77444415D01*
X121346511Y-77769271D01*
X121920000Y-77883345D01*
X122493489Y-77769271D01*
X122979670Y-77444415D01*
X123190000Y-77129634D01*
X123400330Y-77444415D01*
X123886511Y-77769271D01*
X124460000Y-77883345D01*
X125033489Y-77769271D01*
X125519670Y-77444415D01*
X125730000Y-77129634D01*
X125940330Y-77444415D01*
X126426511Y-77769271D01*
X127000000Y-77883345D01*
X127573489Y-77769271D01*
X128059670Y-77444415D01*
X128384526Y-76958234D01*
X128390135Y-76930037D01*
X128530339Y-76902148D01*
X128776901Y-76737401D01*
X130581400Y-74932902D01*
X130581400Y-75057002D01*
X130739075Y-75057002D01*
X130594816Y-75291913D01*
X130788046Y-75844320D01*
X131177964Y-76280732D01*
X131705209Y-76534709D01*
X131720974Y-76537358D01*
X131953000Y-76416217D01*
X131953000Y-75057000D01*
X131933000Y-75057000D01*
X131933000Y-74803000D01*
X131953000Y-74803000D01*
X131953000Y-74783000D01*
X132207000Y-74783000D01*
X132207000Y-74803000D01*
X132227000Y-74803000D01*
X132227000Y-75057000D01*
X132207000Y-75057000D01*
X132207000Y-76416217D01*
X132439026Y-76537358D01*
X132454791Y-76534709D01*
X132982036Y-76280732D01*
X133353539Y-75864931D01*
X133560330Y-76174415D01*
X134046511Y-76499271D01*
X134620000Y-76613345D01*
X135193489Y-76499271D01*
X135211000Y-76487571D01*
X135211000Y-83755100D01*
X135268852Y-84045939D01*
X135433599Y-84292501D01*
X142980712Y-91839614D01*
X142778333Y-91839438D01*
X142434557Y-91981483D01*
X142171308Y-92244273D01*
X142028662Y-92587801D01*
X142028621Y-92634677D01*
X140091860Y-94571438D01*
X139865027Y-94344208D01*
X139521499Y-94201562D01*
X139474623Y-94201521D01*
X139428184Y-94155082D01*
X139467515Y-94138831D01*
X139857461Y-93749564D01*
X140068759Y-93240702D01*
X140069240Y-92689715D01*
X139858831Y-92180485D01*
X139469564Y-91790539D01*
X139444000Y-91779924D01*
X139444000Y-90488700D01*
X139386148Y-90197861D01*
X139386148Y-90197860D01*
X139221401Y-89951299D01*
X137831222Y-88561120D01*
X137831262Y-88515633D01*
X137689217Y-88171857D01*
X137426427Y-87908608D01*
X137082899Y-87765962D01*
X136710933Y-87765638D01*
X136367157Y-87907683D01*
X136103908Y-88170473D01*
X135961262Y-88514001D01*
X135960938Y-88885967D01*
X136102983Y-89229743D01*
X136365773Y-89492992D01*
X136709301Y-89635638D01*
X136756177Y-89635679D01*
X137924000Y-90803502D01*
X137924000Y-91764198D01*
X131122381Y-84962579D01*
X131223345Y-84455000D01*
X131097670Y-83823190D01*
X130739778Y-83287567D01*
X130204155Y-82929675D01*
X129572345Y-82804000D01*
X129507655Y-82804000D01*
X128875845Y-82929675D01*
X128340222Y-83287567D01*
X127982330Y-83823190D01*
X127856655Y-84455000D01*
X127982330Y-85086810D01*
X128209499Y-85426792D01*
X128072559Y-85514910D01*
X127927569Y-85727110D01*
X127876560Y-85979000D01*
X127876560Y-86771158D01*
X125780082Y-84674680D01*
X125844526Y-84578234D01*
X125958600Y-84004745D01*
X125958600Y-83635255D01*
X125844526Y-83061766D01*
X125519670Y-82575585D01*
X125033489Y-82250729D01*
X124460000Y-82136655D01*
X123886511Y-82250729D01*
X123400330Y-82575585D01*
X123190000Y-82890366D01*
X122979670Y-82575585D01*
X122493489Y-82250729D01*
X121920000Y-82136655D01*
X121346511Y-82250729D01*
X120860330Y-82575585D01*
X120845500Y-82597780D01*
X120781927Y-82444302D01*
X120603299Y-82265673D01*
X120369910Y-82169000D01*
X119665750Y-82169000D01*
X119507000Y-82327750D01*
X119507000Y-83693000D01*
X119527000Y-83693000D01*
X119527000Y-83947000D01*
X119507000Y-83947000D01*
X119507000Y-85312250D01*
X119665750Y-85471000D01*
X120369910Y-85471000D01*
X120603299Y-85374327D01*
X120781927Y-85195698D01*
X120845500Y-85042220D01*
X120860330Y-85064415D01*
X121346511Y-85389271D01*
X121920000Y-85503345D01*
X122348900Y-85418032D01*
X122348900Y-91016500D01*
X122406752Y-91307339D01*
X122571499Y-91553901D01*
X126412378Y-95394780D01*
X126412338Y-95440267D01*
X126554383Y-95784043D01*
X126607722Y-95837476D01*
X124803599Y-97641599D01*
X124638852Y-97888161D01*
X124581000Y-98179000D01*
X124581000Y-99094437D01*
X124548808Y-99126573D01*
X124406162Y-99470101D01*
X124405838Y-99842067D01*
X124547883Y-100185843D01*
X124810673Y-100449092D01*
X125154201Y-100591738D01*
X125526167Y-100592062D01*
X125869943Y-100450017D01*
X126133192Y-100187227D01*
X126275838Y-99843699D01*
X126276162Y-99471733D01*
X126134117Y-99127957D01*
X126101000Y-99094782D01*
X126101000Y-98493802D01*
X128582800Y-96012002D01*
X128688163Y-96012002D01*
X128569025Y-96267944D01*
X128768615Y-96749818D01*
X129206621Y-97222188D01*
X129792054Y-97490983D01*
X130048000Y-97372367D01*
X130048000Y-96012000D01*
X130302000Y-96012000D01*
X130302000Y-97372367D01*
X130557946Y-97490983D01*
X131143379Y-97222188D01*
X131581385Y-96749818D01*
X131780975Y-96267944D01*
X131661836Y-96012000D01*
X130302000Y-96012000D01*
X130048000Y-96012000D01*
X130028000Y-96012000D01*
X130028000Y-95758000D01*
X130048000Y-95758000D01*
X130048000Y-95738000D01*
X130302000Y-95738000D01*
X130302000Y-95758000D01*
X131661836Y-95758000D01*
X131780975Y-95502056D01*
X131581385Y-95020182D01*
X131490903Y-94922602D01*
X131642441Y-94825090D01*
X131787431Y-94612890D01*
X131838440Y-94361000D01*
X131838440Y-92882642D01*
X135169899Y-96214101D01*
X135416460Y-96378848D01*
X135707300Y-96436700D01*
X137554837Y-96436700D01*
X137586973Y-96468892D01*
X137930501Y-96611538D01*
X138039733Y-96611633D01*
X137900485Y-96669169D01*
X137510539Y-97058436D01*
X137299241Y-97567298D01*
X137298760Y-98118285D01*
X137509169Y-98627515D01*
X137898436Y-99017461D01*
X138407298Y-99228759D01*
X138958285Y-99229240D01*
X139467515Y-99018831D01*
X139857461Y-98629564D01*
X140068759Y-98120702D01*
X140069240Y-97569715D01*
X139858831Y-97060485D01*
X139805670Y-97007232D01*
X141331458Y-95481444D01*
X141331238Y-95733967D01*
X141473283Y-96077743D01*
X141506400Y-96110918D01*
X141506400Y-98084098D01*
X133465620Y-106124878D01*
X133420133Y-106124838D01*
X133076357Y-106266883D01*
X132813108Y-106529673D01*
X132670462Y-106873201D01*
X132670138Y-107245167D01*
X132812183Y-107588943D01*
X132845300Y-107622118D01*
X132845300Y-108662498D01*
X132308820Y-109198978D01*
X132263333Y-109198938D01*
X131919557Y-109340983D01*
X131656308Y-109603773D01*
X131513662Y-109947301D01*
X131513338Y-110319267D01*
X131655383Y-110663043D01*
X131918173Y-110926292D01*
X132261701Y-111068938D01*
X132633667Y-111069262D01*
X132977443Y-110927217D01*
X133240692Y-110664427D01*
X133383338Y-110320899D01*
X133383379Y-110274023D01*
X134142701Y-109514701D01*
X134307448Y-109268140D01*
X134365300Y-108977300D01*
X134365300Y-107622463D01*
X134397492Y-107590327D01*
X134540138Y-107246799D01*
X134540179Y-107199923D01*
X135033035Y-106707067D01*
X138196338Y-106707067D01*
X138338383Y-107050843D01*
X138371500Y-107084018D01*
X138371500Y-109423100D01*
X138429352Y-109713939D01*
X138594099Y-109960501D01*
X139314078Y-110680480D01*
X139314038Y-110725967D01*
X139456083Y-111069743D01*
X139718873Y-111332992D01*
X140062401Y-111475638D01*
X140434367Y-111475962D01*
X140778143Y-111333917D01*
X141041392Y-111071127D01*
X141184038Y-110727599D01*
X141184362Y-110355633D01*
X141042317Y-110011857D01*
X140779527Y-109748608D01*
X140435999Y-109605962D01*
X140389124Y-109605921D01*
X139891500Y-109108298D01*
X139891500Y-107084363D01*
X139923692Y-107052227D01*
X140066338Y-106708699D01*
X140066662Y-106336733D01*
X139924617Y-105992957D01*
X139661827Y-105729708D01*
X139318299Y-105587062D01*
X138946333Y-105586738D01*
X138602557Y-105728783D01*
X138339308Y-105991573D01*
X138196662Y-106335101D01*
X138196338Y-106707067D01*
X135033035Y-106707067D01*
X142301800Y-99438302D01*
X142301800Y-104671498D01*
X142137820Y-104835478D01*
X142092333Y-104835438D01*
X141748557Y-104977483D01*
X141485308Y-105240273D01*
X141342662Y-105583801D01*
X141342338Y-105955767D01*
X141484383Y-106299543D01*
X141747173Y-106562792D01*
X142090701Y-106705438D01*
X142462667Y-106705762D01*
X142806443Y-106563717D01*
X143069692Y-106300927D01*
X143212338Y-105957399D01*
X143212379Y-105910523D01*
X143599201Y-105523701D01*
X143763948Y-105277139D01*
X143821800Y-104986300D01*
X143821800Y-101475702D01*
X145842978Y-103496880D01*
X145842938Y-103542367D01*
X145984983Y-103886143D01*
X146247773Y-104149392D01*
X146591301Y-104292038D01*
X146963267Y-104292362D01*
X147307043Y-104150317D01*
X147570292Y-103887527D01*
X147712938Y-103543999D01*
X147713262Y-103172033D01*
X147571217Y-102828257D01*
X147308427Y-102565008D01*
X146964899Y-102422362D01*
X146918023Y-102422321D01*
X144572300Y-100076598D01*
X144572300Y-96955703D01*
X144638673Y-97022192D01*
X144982201Y-97164838D01*
X145029077Y-97164879D01*
X146174976Y-98310778D01*
X146174838Y-98468867D01*
X146316883Y-98812643D01*
X146579673Y-99075892D01*
X146923201Y-99218538D01*
X147295167Y-99218862D01*
X147638943Y-99076817D01*
X147902192Y-98814027D01*
X148018772Y-98533274D01*
X149165000Y-99679502D01*
X149165000Y-104296737D01*
X149132808Y-104328873D01*
X148990162Y-104672401D01*
X148989838Y-105044367D01*
X149131883Y-105388143D01*
X149176462Y-105432799D01*
X149042852Y-105632761D01*
X148985000Y-105923600D01*
X148985000Y-113254188D01*
X148668974Y-113569663D01*
X148475221Y-114036273D01*
X148474814Y-114502800D01*
X137916702Y-114502800D01*
X135906501Y-112492599D01*
X135659939Y-112327852D01*
X135369100Y-112270000D01*
X125852426Y-112270000D01*
X125914958Y-112119026D01*
X125793817Y-111887000D01*
X124587000Y-111887000D01*
X124587000Y-111907000D01*
X124333000Y-111907000D01*
X124333000Y-111887000D01*
X124313000Y-111887000D01*
X124313000Y-111633000D01*
X124333000Y-111633000D01*
X124333000Y-111613000D01*
X124587000Y-111613000D01*
X124587000Y-111633000D01*
X125793817Y-111633000D01*
X125914958Y-111400974D01*
X125742688Y-110985053D01*
X125348490Y-110553179D01*
X125225772Y-110495664D01*
X125549029Y-110279670D01*
X125873885Y-109793489D01*
X125987959Y-109220000D01*
X125873885Y-108646511D01*
X125549029Y-108160330D01*
X125062848Y-107835474D01*
X124489359Y-107721400D01*
X124430641Y-107721400D01*
X123857152Y-107835474D01*
X123391558Y-108146574D01*
X123386762Y-108121083D01*
X123247690Y-107904959D01*
X123035490Y-107759969D01*
X122783600Y-107708960D01*
X121056400Y-107708960D01*
X120821083Y-107753238D01*
X120604959Y-107892310D01*
X120459969Y-108104510D01*
X120408960Y-108356400D01*
X120408960Y-110083600D01*
X120453238Y-110318917D01*
X120592310Y-110535041D01*
X120804510Y-110680031D01*
X120898375Y-110699039D01*
X120637312Y-110985053D01*
X120465042Y-111400974D01*
X120586183Y-111633000D01*
X121793000Y-111633000D01*
X121793000Y-111613000D01*
X122047000Y-111613000D01*
X122047000Y-111633000D01*
X122067000Y-111633000D01*
X122067000Y-111887000D01*
X122047000Y-111887000D01*
X122047000Y-111907000D01*
X121793000Y-111907000D01*
X121793000Y-111887000D01*
X120586183Y-111887000D01*
X120465042Y-112119026D01*
X120637312Y-112534947D01*
X121031510Y-112966821D01*
X121154228Y-113024336D01*
X120830971Y-113240330D01*
X120506115Y-113726511D01*
X120392041Y-114300000D01*
X120506115Y-114873489D01*
X120830971Y-115359670D01*
X121317152Y-115684526D01*
X121890641Y-115798600D01*
X121949359Y-115798600D01*
X122522848Y-115684526D01*
X123009029Y-115359670D01*
X123190000Y-115088828D01*
X123370971Y-115359670D01*
X123857152Y-115684526D01*
X124430641Y-115798600D01*
X124489359Y-115798600D01*
X125062848Y-115684526D01*
X125549029Y-115359670D01*
X125873885Y-114873489D01*
X125987959Y-114300000D01*
X125886514Y-113790000D01*
X135054298Y-113790000D01*
X137064499Y-115800201D01*
X137311061Y-115964948D01*
X137601900Y-116022800D01*
X150153000Y-116022800D01*
X150443839Y-115964948D01*
X150690401Y-115800201D01*
X151344811Y-115145791D01*
X151564663Y-115366026D01*
X152031273Y-115559779D01*
X152536510Y-115560220D01*
X153003458Y-115367282D01*
X153361026Y-115010337D01*
X153554779Y-114543727D01*
X153555220Y-114038490D01*
X153362282Y-113571542D01*
X153045000Y-113253706D01*
X153045000Y-112927346D01*
X153377664Y-113042681D01*
X153882023Y-113012906D01*
X154209697Y-112877179D01*
X154263528Y-112648133D01*
X153555000Y-111939605D01*
X153540858Y-111953748D01*
X153361253Y-111774143D01*
X153375395Y-111760000D01*
X153734605Y-111760000D01*
X154443133Y-112468528D01*
X154672179Y-112414697D01*
X154837681Y-111937336D01*
X154807906Y-111432977D01*
X154672179Y-111105303D01*
X154443133Y-111051472D01*
X153734605Y-111760000D01*
X153375395Y-111760000D01*
X153361253Y-111745858D01*
X153540858Y-111566253D01*
X153555000Y-111580395D01*
X154263528Y-110871867D01*
X154209697Y-110642821D01*
X153732336Y-110477319D01*
X153446188Y-110494212D01*
X153353817Y-110270657D01*
X153091027Y-110007408D01*
X152747499Y-109864762D01*
X152375533Y-109864438D01*
X152338529Y-109879727D01*
X151553722Y-109094920D01*
X151553762Y-109049433D01*
X151411717Y-108705657D01*
X151148927Y-108442408D01*
X150805399Y-108299762D01*
X150505000Y-108299500D01*
X150505000Y-106238402D01*
X153645201Y-103098201D01*
X153809948Y-102851640D01*
X153867800Y-102560800D01*
X153867800Y-100647700D01*
X160532898Y-100647700D01*
X173677619Y-113792421D01*
X173576655Y-114300000D01*
X173690729Y-114873489D01*
X174015585Y-115359670D01*
X174501766Y-115684526D01*
X175075255Y-115798600D01*
X175444745Y-115798600D01*
X176018234Y-115684526D01*
X176504415Y-115359670D01*
X176829271Y-114873489D01*
X176943345Y-114300000D01*
X176829271Y-113726511D01*
X176504415Y-113240330D01*
X176194931Y-113033539D01*
X176610732Y-112662036D01*
X176864709Y-112134791D01*
X176867358Y-112119026D01*
X176746217Y-111887000D01*
X175387000Y-111887000D01*
X175387000Y-111907000D01*
X175133000Y-111907000D01*
X175133000Y-111887000D01*
X175113000Y-111887000D01*
X175113000Y-111633000D01*
X175133000Y-111633000D01*
X175133000Y-111613000D01*
X175387000Y-111613000D01*
X175387000Y-111633000D01*
X176746217Y-111633000D01*
X176867358Y-111400974D01*
X176864709Y-111385209D01*
X176610732Y-110857964D01*
X176194931Y-110486461D01*
X176504415Y-110279670D01*
X176829271Y-109793489D01*
X176943345Y-109220000D01*
X176829271Y-108646511D01*
X176504415Y-108160330D01*
X176189634Y-107950000D01*
X176504415Y-107739670D01*
X176829271Y-107253489D01*
X176943345Y-106680000D01*
X176829271Y-106106511D01*
X176504415Y-105620330D01*
X176490087Y-105610757D01*
X176511317Y-105606762D01*
X176727441Y-105467690D01*
X176872431Y-105255490D01*
X176923440Y-105003600D01*
X176923440Y-103276400D01*
X176879162Y-103041083D01*
X176740090Y-102824959D01*
X176527890Y-102679969D01*
X176276000Y-102628960D01*
X174244000Y-102628960D01*
X174008683Y-102673238D01*
X173792559Y-102812310D01*
X173647569Y-103024510D01*
X173596560Y-103276400D01*
X173596560Y-105003600D01*
X173640838Y-105238917D01*
X173779910Y-105455041D01*
X173992110Y-105600031D01*
X174033439Y-105608400D01*
X174015585Y-105620330D01*
X173690729Y-106106511D01*
X173576655Y-106680000D01*
X173690729Y-107253489D01*
X174015585Y-107739670D01*
X174330366Y-107950000D01*
X174015585Y-108160330D01*
X173690729Y-108646511D01*
X173576655Y-109220000D01*
X173690729Y-109793489D01*
X174015585Y-110279670D01*
X174325069Y-110486461D01*
X173909268Y-110857964D01*
X173655291Y-111385209D01*
X173652642Y-111400974D01*
X173773782Y-111632998D01*
X173667800Y-111632998D01*
X161385101Y-99350299D01*
X161138539Y-99185552D01*
X160847700Y-99127700D01*
X153867800Y-99127700D01*
X153867800Y-79689602D01*
X164986400Y-90808202D01*
X164986400Y-94198500D01*
X165044252Y-94489339D01*
X165208999Y-94735901D01*
X165261578Y-94788480D01*
X165261538Y-94833967D01*
X165403583Y-95177743D01*
X165666373Y-95440992D01*
X166009901Y-95583638D01*
X166381867Y-95583962D01*
X166725643Y-95441917D01*
X166988892Y-95179127D01*
X167131538Y-94835599D01*
X167131862Y-94463633D01*
X166989817Y-94119857D01*
X166727027Y-93856608D01*
X166506400Y-93764995D01*
X166506400Y-92279226D01*
X166777167Y-92279462D01*
X167120943Y-92137417D01*
X167384192Y-91874627D01*
X167526838Y-91531099D01*
X167527162Y-91159133D01*
X167385117Y-90815357D01*
X167352000Y-90782182D01*
X167352000Y-90702100D01*
X167294148Y-90411261D01*
X167129401Y-90164699D01*
X163324702Y-86360000D01*
X173576655Y-86360000D01*
X173690729Y-86933489D01*
X174015585Y-87419670D01*
X174501766Y-87744526D01*
X175075255Y-87858600D01*
X175444745Y-87858600D01*
X176018234Y-87744526D01*
X176504415Y-87419670D01*
X176829271Y-86933489D01*
X176943345Y-86360000D01*
X176829271Y-85786511D01*
X176504415Y-85300330D01*
X176194931Y-85093539D01*
X176610732Y-84722036D01*
X176864709Y-84194791D01*
X176867358Y-84179026D01*
X176746217Y-83947000D01*
X175387000Y-83947000D01*
X175387000Y-83967000D01*
X175133000Y-83967000D01*
X175133000Y-83947000D01*
X173773783Y-83947000D01*
X173652642Y-84179026D01*
X173655291Y-84194791D01*
X173909268Y-84722036D01*
X174325069Y-85093539D01*
X174015585Y-85300330D01*
X173690729Y-85786511D01*
X173576655Y-86360000D01*
X163324702Y-86360000D01*
X158603728Y-81639026D01*
X173652642Y-81639026D01*
X173655291Y-81654791D01*
X173909268Y-82182036D01*
X174321108Y-82550000D01*
X173909268Y-82917964D01*
X173655291Y-83445209D01*
X173652642Y-83460974D01*
X173773783Y-83693000D01*
X175133000Y-83693000D01*
X175133000Y-81407000D01*
X175387000Y-81407000D01*
X175387000Y-83693000D01*
X176746217Y-83693000D01*
X176867358Y-83460974D01*
X176864709Y-83445209D01*
X176610732Y-82917964D01*
X176198892Y-82550000D01*
X176610732Y-82182036D01*
X176864709Y-81654791D01*
X176867358Y-81639026D01*
X176746217Y-81407000D01*
X175387000Y-81407000D01*
X175133000Y-81407000D01*
X173773783Y-81407000D01*
X173652642Y-81639026D01*
X158603728Y-81639026D01*
X154922733Y-77958031D01*
X155528625Y-78209619D01*
X156377929Y-78210360D01*
X157162867Y-77886030D01*
X157172513Y-77876400D01*
X173596560Y-77876400D01*
X173596560Y-79603600D01*
X173640838Y-79838917D01*
X173779910Y-80055041D01*
X173992110Y-80200031D01*
X174086927Y-80219232D01*
X173909268Y-80377964D01*
X173655291Y-80905209D01*
X173652642Y-80920974D01*
X173773783Y-81153000D01*
X175133000Y-81153000D01*
X175133000Y-81133000D01*
X175387000Y-81133000D01*
X175387000Y-81153000D01*
X176746217Y-81153000D01*
X176867358Y-80920974D01*
X176864709Y-80905209D01*
X176610732Y-80377964D01*
X176435155Y-80221093D01*
X176511317Y-80206762D01*
X176727441Y-80067690D01*
X176872431Y-79855490D01*
X176923440Y-79603600D01*
X176923440Y-77876400D01*
X176879162Y-77641083D01*
X176740090Y-77424959D01*
X176527890Y-77279969D01*
X176276000Y-77228960D01*
X174244000Y-77228960D01*
X174008683Y-77273238D01*
X173792559Y-77412310D01*
X173647569Y-77624510D01*
X173596560Y-77876400D01*
X157172513Y-77876400D01*
X157763940Y-77286006D01*
X158089639Y-76501635D01*
X158090380Y-75652331D01*
X157766050Y-74867393D01*
X157166026Y-74266320D01*
X156381655Y-73940621D01*
X155532351Y-73939880D01*
X154747413Y-74264210D01*
X154146340Y-74864234D01*
X153820641Y-75648605D01*
X153819900Y-76497909D01*
X154071480Y-77106778D01*
X153597401Y-76632699D01*
X153350839Y-76467952D01*
X153060000Y-76410100D01*
X149399100Y-76410100D01*
X149108261Y-76467952D01*
X148861699Y-76632699D01*
X148127734Y-77366664D01*
X148103956Y-77356791D01*
X147552742Y-77356310D01*
X147043303Y-77566806D01*
X146653196Y-77956233D01*
X146563761Y-78171616D01*
X146500071Y-78017855D01*
X146259070Y-77949795D01*
X145466745Y-78742120D01*
X146259070Y-79534445D01*
X146500071Y-79466385D01*
X146558909Y-79301080D01*
X146651826Y-79525957D01*
X147041253Y-79916064D01*
X147550324Y-80127449D01*
X148101538Y-80127930D01*
X148610977Y-79917434D01*
X148843203Y-79685613D01*
X149073253Y-79916064D01*
X149582324Y-80127449D01*
X150133538Y-80127930D01*
X150642977Y-79917434D01*
X151033084Y-79528007D01*
X151129115Y-79296739D01*
X151223826Y-79525957D01*
X151613253Y-79916064D01*
X152122324Y-80127449D01*
X152347800Y-80127646D01*
X152347800Y-102245998D01*
X150685000Y-103908798D01*
X150685000Y-99364700D01*
X150658055Y-99229240D01*
X150627148Y-99073860D01*
X150462401Y-98827299D01*
X146575322Y-94940220D01*
X146575362Y-94894733D01*
X146433317Y-94550957D01*
X146170527Y-94287708D01*
X145826999Y-94145062D01*
X145766100Y-94145009D01*
X145766100Y-88524530D01*
X145940143Y-88452617D01*
X146203392Y-88189827D01*
X146346038Y-87846299D01*
X146346362Y-87474333D01*
X146204317Y-87130557D01*
X145941527Y-86867308D01*
X145597999Y-86724662D01*
X145226033Y-86724338D01*
X144882257Y-86866383D01*
X144619008Y-87129173D01*
X144546164Y-87304600D01*
X142045802Y-87304600D01*
X139346069Y-84604867D01*
X146054838Y-84604867D01*
X146196883Y-84948643D01*
X146459673Y-85211892D01*
X146803201Y-85354538D01*
X146850077Y-85354579D01*
X147349900Y-85854402D01*
X147349900Y-88768837D01*
X147317708Y-88800973D01*
X147175062Y-89144501D01*
X147174738Y-89516467D01*
X147316783Y-89860243D01*
X147579573Y-90123492D01*
X147923101Y-90266138D01*
X148295067Y-90266462D01*
X148638843Y-90124417D01*
X148902092Y-89861627D01*
X149044738Y-89518099D01*
X149045062Y-89146133D01*
X148903017Y-88802357D01*
X148869900Y-88769182D01*
X148869900Y-85539600D01*
X148812048Y-85248761D01*
X148647301Y-85002199D01*
X147925122Y-84280020D01*
X147925162Y-84234533D01*
X147783117Y-83890757D01*
X147520327Y-83627508D01*
X147176799Y-83484862D01*
X146804833Y-83484538D01*
X146461057Y-83626583D01*
X146197808Y-83889373D01*
X146055162Y-84232901D01*
X146054838Y-84604867D01*
X139346069Y-84604867D01*
X138330900Y-83589698D01*
X138330900Y-79714050D01*
X144494815Y-79714050D01*
X144562875Y-79955051D01*
X145082174Y-80139887D01*
X145632678Y-80111925D01*
X146011405Y-79955051D01*
X146079465Y-79714050D01*
X145287140Y-78921725D01*
X144494815Y-79714050D01*
X138330900Y-79714050D01*
X138330900Y-78537154D01*
X143889373Y-78537154D01*
X143917335Y-79087658D01*
X144074209Y-79466385D01*
X144315210Y-79534445D01*
X145107535Y-78742120D01*
X144315210Y-77949795D01*
X144074209Y-78017855D01*
X143889373Y-78537154D01*
X138330900Y-78537154D01*
X138330900Y-76502842D01*
X138338566Y-76497909D01*
X140103900Y-76497909D01*
X140428230Y-77282847D01*
X141028254Y-77883920D01*
X141812625Y-78209619D01*
X142661929Y-78210360D01*
X143446867Y-77886030D01*
X143562909Y-77770190D01*
X144494815Y-77770190D01*
X145287140Y-78562515D01*
X146079465Y-77770190D01*
X146011405Y-77529189D01*
X145492106Y-77344353D01*
X144941602Y-77372315D01*
X144562875Y-77529189D01*
X144494815Y-77770190D01*
X143562909Y-77770190D01*
X144047940Y-77286006D01*
X144373639Y-76501635D01*
X144374380Y-75652331D01*
X144050050Y-74867393D01*
X143450026Y-74266320D01*
X142665655Y-73940621D01*
X141816351Y-73939880D01*
X141031413Y-74264210D01*
X140430340Y-74864234D01*
X140104641Y-75648605D01*
X140103900Y-76497909D01*
X138338566Y-76497909D01*
X138475041Y-76410090D01*
X138620031Y-76197890D01*
X138671040Y-75946000D01*
X138671040Y-73914000D01*
X138626762Y-73678683D01*
X138614740Y-73660000D01*
X159606655Y-73660000D01*
X159732330Y-74291810D01*
X160090222Y-74827433D01*
X160625845Y-75185325D01*
X161257655Y-75311000D01*
X161322345Y-75311000D01*
X161954155Y-75185325D01*
X162489778Y-74827433D01*
X162847670Y-74291810D01*
X162973345Y-73660000D01*
X162847670Y-73028190D01*
X162623034Y-72691999D01*
X162665698Y-72674327D01*
X162844327Y-72495699D01*
X162941000Y-72262310D01*
X162941000Y-71405750D01*
X162782250Y-71247000D01*
X161417000Y-71247000D01*
X161417000Y-71267000D01*
X161163000Y-71267000D01*
X161163000Y-71247000D01*
X159797750Y-71247000D01*
X159639000Y-71405750D01*
X159639000Y-72262310D01*
X159735673Y-72495699D01*
X159914302Y-72674327D01*
X159956966Y-72691999D01*
X159732330Y-73028190D01*
X159606655Y-73660000D01*
X138614740Y-73660000D01*
X138487690Y-73462559D01*
X138275490Y-73317569D01*
X138125500Y-73287195D01*
X138125500Y-72129266D01*
X138258917Y-72104162D01*
X138475041Y-71965090D01*
X138620031Y-71752890D01*
X138671040Y-71501000D01*
X138671040Y-69977690D01*
X159639000Y-69977690D01*
X159639000Y-70834250D01*
X159797750Y-70993000D01*
X161163000Y-70993000D01*
X161163000Y-69627750D01*
X161417000Y-69627750D01*
X161417000Y-70993000D01*
X162782250Y-70993000D01*
X162941000Y-70834250D01*
X162941000Y-69977690D01*
X162844327Y-69744301D01*
X162665698Y-69565673D01*
X162432309Y-69469000D01*
X161575750Y-69469000D01*
X161417000Y-69627750D01*
X161163000Y-69627750D01*
X161004250Y-69469000D01*
X160147691Y-69469000D01*
X159914302Y-69565673D01*
X159735673Y-69744301D01*
X159639000Y-69977690D01*
X138671040Y-69977690D01*
X138671040Y-69469000D01*
X138626762Y-69233683D01*
X138487690Y-69017559D01*
X138275490Y-68872569D01*
X138023600Y-68821560D01*
X136296400Y-68821560D01*
X136061083Y-68865838D01*
X135991570Y-68910568D01*
X135634101Y-68553099D01*
X135387539Y-68388352D01*
X135096700Y-68330500D01*
X134142800Y-68330500D01*
X133851960Y-68388352D01*
X133605399Y-68553099D01*
X133001946Y-69156552D01*
X132982036Y-69134268D01*
X132454791Y-68880291D01*
X132439026Y-68877642D01*
X132207000Y-68998783D01*
X132207000Y-70358000D01*
X132227000Y-70358000D01*
X132227000Y-70612000D01*
X132207000Y-70612000D01*
X132207000Y-70632000D01*
X131953000Y-70632000D01*
X131953000Y-70612000D01*
X130739076Y-70612000D01*
X130594816Y-70846913D01*
X130788046Y-71399320D01*
X131177964Y-71835732D01*
X131414854Y-71949844D01*
X128199637Y-75165061D01*
X128059670Y-74955585D01*
X127573489Y-74630729D01*
X127000000Y-74516655D01*
X126426511Y-74630729D01*
X125940330Y-74955585D01*
X125730000Y-75270366D01*
X125519670Y-74955585D01*
X125033489Y-74630729D01*
X124460000Y-74516655D01*
X123886511Y-74630729D01*
X123400330Y-74955585D01*
X123190000Y-75270366D01*
X122979670Y-74955585D01*
X122493489Y-74630729D01*
X121920000Y-74516655D01*
X121346511Y-74630729D01*
X120860330Y-74955585D01*
X120845500Y-74977780D01*
X120781927Y-74824302D01*
X120603299Y-74645673D01*
X120369910Y-74549000D01*
X119665750Y-74549000D01*
X119507000Y-74707750D01*
X119253000Y-74707750D01*
X119094250Y-74549000D01*
X118390090Y-74549000D01*
X118156701Y-74645673D01*
X117978073Y-74824302D01*
X117881400Y-75057691D01*
X110617000Y-75057691D01*
X110617000Y-70994017D01*
X110767709Y-71358761D01*
X111517293Y-72109655D01*
X112497173Y-72516536D01*
X113558172Y-72517462D01*
X114538761Y-72112291D01*
X115289655Y-71362707D01*
X115696536Y-70382827D01*
X115696762Y-70123087D01*
X130594816Y-70123087D01*
X130739076Y-70358000D01*
X131953000Y-70358000D01*
X131953000Y-68998783D01*
X131720974Y-68877642D01*
X131705209Y-68880291D01*
X131177964Y-69134268D01*
X130788046Y-69570680D01*
X130594816Y-70123087D01*
X115696762Y-70123087D01*
X115697462Y-69321828D01*
X115292291Y-68341239D01*
X114542707Y-67590345D01*
X114173411Y-67437000D01*
X183005983Y-67437000D01*
X182641239Y-67587709D01*
M02*
