%TF.GenerationSoftware,KiCad,Pcbnew,4.0.2+dfsg1-stable*%
%TF.CreationDate,2018-11-13T01:07:12+01:00*%
%TF.ProjectId,StandAlone-Adapter,5374616E64416C6F6E652D4164617074,rev?*%
%TF.FileFunction,Paste,Top*%
%FSLAX46Y46*%
G04 Gerber Fmt 4.6, Leading zero omitted, Abs format (unit mm)*
G04 Created by KiCad (PCBNEW 4.0.2+dfsg1-stable) date Tue 13 Nov 2018 01:07:12 CET*
%MOMM*%
G01*
G04 APERTURE LIST*
%ADD10C,0.100000*%
%ADD11R,2.600960X1.600200*%
%ADD12R,1.200000X0.750000*%
%ADD13R,0.750000X1.200000*%
%ADD14R,0.797560X0.797560*%
%ADD15R,1.998980X1.998980*%
%ADD16R,0.800100X0.800100*%
%ADD17R,0.900000X1.200000*%
%ADD18R,1.200000X0.900000*%
%ADD19R,1.600000X2.180000*%
%ADD20R,3.657600X2.032000*%
%ADD21R,1.016000X2.032000*%
%ADD22R,1.800860X1.399540*%
G04 APERTURE END LIST*
D10*
D11*
X171980860Y-104140000D03*
X168379140Y-104140000D03*
X182140860Y-111760000D03*
X178539140Y-111760000D03*
X153139140Y-104140000D03*
X156740860Y-104140000D03*
D12*
X149926000Y-114300000D03*
X151826000Y-114300000D03*
X155006000Y-120904000D03*
X156906000Y-120904000D03*
X171770000Y-109220000D03*
X173670000Y-109220000D03*
D13*
X175260000Y-117790000D03*
X175260000Y-115890000D03*
X172720000Y-120330000D03*
X172720000Y-118430000D03*
D12*
X171770000Y-111760000D03*
X173670000Y-111760000D03*
D14*
X175260000Y-99809300D03*
X175260000Y-98310700D03*
X151650700Y-109220000D03*
X153149300Y-109220000D03*
X193789300Y-111760000D03*
X192290700Y-111760000D03*
X131330700Y-109220000D03*
X132829300Y-109220000D03*
D15*
X187960000Y-88392000D03*
X187960000Y-94488000D03*
X177292000Y-104140000D03*
X183388000Y-104140000D03*
D16*
X173670000Y-128539240D03*
X171770000Y-128539240D03*
X172720000Y-130538220D03*
X163510000Y-125999240D03*
X161610000Y-125999240D03*
X162560000Y-127998220D03*
X153350000Y-128539240D03*
X151450000Y-128539240D03*
X152400000Y-130538220D03*
D17*
X172720000Y-97960000D03*
X172720000Y-100160000D03*
D18*
X146220000Y-109220000D03*
X148420000Y-109220000D03*
D17*
X139700000Y-113200000D03*
X139700000Y-115400000D03*
D18*
X156380000Y-124968000D03*
X158580000Y-124968000D03*
X167048000Y-124460000D03*
X169248000Y-124460000D03*
X186860000Y-111760000D03*
X189060000Y-111760000D03*
X173820000Y-124460000D03*
X171620000Y-124460000D03*
D17*
X177800000Y-128440000D03*
X177800000Y-130640000D03*
D18*
X156380000Y-129540000D03*
X158580000Y-129540000D03*
X168740000Y-129540000D03*
X166540000Y-129540000D03*
D17*
X147320000Y-130640000D03*
X147320000Y-128440000D03*
D18*
X153500000Y-124460000D03*
X151300000Y-124460000D03*
X136060000Y-109220000D03*
X138260000Y-109220000D03*
D19*
X126997680Y-121442430D03*
X127002320Y-112237570D03*
D20*
X180340000Y-97282000D03*
D21*
X180340000Y-90678000D03*
X178054000Y-90678000D03*
X182626000Y-90678000D03*
D10*
G36*
X155612676Y-116120800D02*
X155435899Y-115944023D01*
X156143006Y-115236916D01*
X156319783Y-115413693D01*
X155612676Y-116120800D01*
X155612676Y-116120800D01*
G37*
G36*
X155966229Y-116474354D02*
X155789452Y-116297577D01*
X156496559Y-115590470D01*
X156673336Y-115767247D01*
X155966229Y-116474354D01*
X155966229Y-116474354D01*
G37*
G36*
X156319783Y-116827907D02*
X156143006Y-116651130D01*
X156850113Y-115944023D01*
X157026890Y-116120800D01*
X156319783Y-116827907D01*
X156319783Y-116827907D01*
G37*
G36*
X156673336Y-117181460D02*
X156496559Y-117004683D01*
X157203666Y-116297576D01*
X157380443Y-116474353D01*
X156673336Y-117181460D01*
X156673336Y-117181460D01*
G37*
G36*
X157026889Y-117535014D02*
X156850112Y-117358237D01*
X157557219Y-116651130D01*
X157733996Y-116827907D01*
X157026889Y-117535014D01*
X157026889Y-117535014D01*
G37*
G36*
X157380443Y-117888567D02*
X157203666Y-117711790D01*
X157910773Y-117004683D01*
X158087550Y-117181460D01*
X157380443Y-117888567D01*
X157380443Y-117888567D01*
G37*
G36*
X157733996Y-118242121D02*
X157557219Y-118065344D01*
X158264326Y-117358237D01*
X158441103Y-117535014D01*
X157733996Y-118242121D01*
X157733996Y-118242121D01*
G37*
G36*
X158087550Y-118595674D02*
X157910773Y-118418897D01*
X158617880Y-117711790D01*
X158794657Y-117888567D01*
X158087550Y-118595674D01*
X158087550Y-118595674D01*
G37*
G36*
X158441103Y-118949227D02*
X158264326Y-118772450D01*
X158971433Y-118065343D01*
X159148210Y-118242120D01*
X158441103Y-118949227D01*
X158441103Y-118949227D01*
G37*
G36*
X158794656Y-119302781D02*
X158617879Y-119126004D01*
X159324986Y-118418897D01*
X159501763Y-118595674D01*
X158794656Y-119302781D01*
X158794656Y-119302781D01*
G37*
G36*
X159148210Y-119656334D02*
X158971433Y-119479557D01*
X159678540Y-118772450D01*
X159855317Y-118949227D01*
X159148210Y-119656334D01*
X159148210Y-119656334D01*
G37*
G36*
X159501763Y-120009888D02*
X159324986Y-119833111D01*
X160032093Y-119126004D01*
X160208870Y-119302781D01*
X159501763Y-120009888D01*
X159501763Y-120009888D01*
G37*
G36*
X159855317Y-120363441D02*
X159678540Y-120186664D01*
X160385647Y-119479557D01*
X160562424Y-119656334D01*
X159855317Y-120363441D01*
X159855317Y-120363441D01*
G37*
G36*
X160208870Y-120716994D02*
X160032093Y-120540217D01*
X160739200Y-119833110D01*
X160915977Y-120009887D01*
X160208870Y-120716994D01*
X160208870Y-120716994D01*
G37*
G36*
X160562423Y-121070548D02*
X160385646Y-120893771D01*
X161092753Y-120186664D01*
X161269530Y-120363441D01*
X160562423Y-121070548D01*
X160562423Y-121070548D01*
G37*
G36*
X160915977Y-121424101D02*
X160739200Y-121247324D01*
X161446307Y-120540217D01*
X161623084Y-120716994D01*
X160915977Y-121424101D01*
X160915977Y-121424101D01*
G37*
G36*
X164380800Y-121247324D02*
X164204023Y-121424101D01*
X163496916Y-120716994D01*
X163673693Y-120540217D01*
X164380800Y-121247324D01*
X164380800Y-121247324D01*
G37*
G36*
X164734354Y-120893771D02*
X164557577Y-121070548D01*
X163850470Y-120363441D01*
X164027247Y-120186664D01*
X164734354Y-120893771D01*
X164734354Y-120893771D01*
G37*
G36*
X165087907Y-120540217D02*
X164911130Y-120716994D01*
X164204023Y-120009887D01*
X164380800Y-119833110D01*
X165087907Y-120540217D01*
X165087907Y-120540217D01*
G37*
G36*
X165441460Y-120186664D02*
X165264683Y-120363441D01*
X164557576Y-119656334D01*
X164734353Y-119479557D01*
X165441460Y-120186664D01*
X165441460Y-120186664D01*
G37*
G36*
X165795014Y-119833111D02*
X165618237Y-120009888D01*
X164911130Y-119302781D01*
X165087907Y-119126004D01*
X165795014Y-119833111D01*
X165795014Y-119833111D01*
G37*
G36*
X166148567Y-119479557D02*
X165971790Y-119656334D01*
X165264683Y-118949227D01*
X165441460Y-118772450D01*
X166148567Y-119479557D01*
X166148567Y-119479557D01*
G37*
G36*
X166502121Y-119126004D02*
X166325344Y-119302781D01*
X165618237Y-118595674D01*
X165795014Y-118418897D01*
X166502121Y-119126004D01*
X166502121Y-119126004D01*
G37*
G36*
X166855674Y-118772450D02*
X166678897Y-118949227D01*
X165971790Y-118242120D01*
X166148567Y-118065343D01*
X166855674Y-118772450D01*
X166855674Y-118772450D01*
G37*
G36*
X167209227Y-118418897D02*
X167032450Y-118595674D01*
X166325343Y-117888567D01*
X166502120Y-117711790D01*
X167209227Y-118418897D01*
X167209227Y-118418897D01*
G37*
G36*
X167562781Y-118065344D02*
X167386004Y-118242121D01*
X166678897Y-117535014D01*
X166855674Y-117358237D01*
X167562781Y-118065344D01*
X167562781Y-118065344D01*
G37*
G36*
X167916334Y-117711790D02*
X167739557Y-117888567D01*
X167032450Y-117181460D01*
X167209227Y-117004683D01*
X167916334Y-117711790D01*
X167916334Y-117711790D01*
G37*
G36*
X168269888Y-117358237D02*
X168093111Y-117535014D01*
X167386004Y-116827907D01*
X167562781Y-116651130D01*
X168269888Y-117358237D01*
X168269888Y-117358237D01*
G37*
G36*
X168623441Y-117004683D02*
X168446664Y-117181460D01*
X167739557Y-116474353D01*
X167916334Y-116297576D01*
X168623441Y-117004683D01*
X168623441Y-117004683D01*
G37*
G36*
X168976994Y-116651130D02*
X168800217Y-116827907D01*
X168093110Y-116120800D01*
X168269887Y-115944023D01*
X168976994Y-116651130D01*
X168976994Y-116651130D01*
G37*
G36*
X169330548Y-116297577D02*
X169153771Y-116474354D01*
X168446664Y-115767247D01*
X168623441Y-115590470D01*
X169330548Y-116297577D01*
X169330548Y-116297577D01*
G37*
G36*
X169684101Y-115944023D02*
X169507324Y-116120800D01*
X168800217Y-115413693D01*
X168976994Y-115236916D01*
X169684101Y-115944023D01*
X169684101Y-115944023D01*
G37*
G36*
X168976994Y-113363084D02*
X168800217Y-113186307D01*
X169507324Y-112479200D01*
X169684101Y-112655977D01*
X168976994Y-113363084D01*
X168976994Y-113363084D01*
G37*
G36*
X168623441Y-113009530D02*
X168446664Y-112832753D01*
X169153771Y-112125646D01*
X169330548Y-112302423D01*
X168623441Y-113009530D01*
X168623441Y-113009530D01*
G37*
G36*
X168269887Y-112655977D02*
X168093110Y-112479200D01*
X168800217Y-111772093D01*
X168976994Y-111948870D01*
X168269887Y-112655977D01*
X168269887Y-112655977D01*
G37*
G36*
X167916334Y-112302424D02*
X167739557Y-112125647D01*
X168446664Y-111418540D01*
X168623441Y-111595317D01*
X167916334Y-112302424D01*
X167916334Y-112302424D01*
G37*
G36*
X167562781Y-111948870D02*
X167386004Y-111772093D01*
X168093111Y-111064986D01*
X168269888Y-111241763D01*
X167562781Y-111948870D01*
X167562781Y-111948870D01*
G37*
G36*
X167209227Y-111595317D02*
X167032450Y-111418540D01*
X167739557Y-110711433D01*
X167916334Y-110888210D01*
X167209227Y-111595317D01*
X167209227Y-111595317D01*
G37*
G36*
X166855674Y-111241763D02*
X166678897Y-111064986D01*
X167386004Y-110357879D01*
X167562781Y-110534656D01*
X166855674Y-111241763D01*
X166855674Y-111241763D01*
G37*
G36*
X166502120Y-110888210D02*
X166325343Y-110711433D01*
X167032450Y-110004326D01*
X167209227Y-110181103D01*
X166502120Y-110888210D01*
X166502120Y-110888210D01*
G37*
G36*
X166148567Y-110534657D02*
X165971790Y-110357880D01*
X166678897Y-109650773D01*
X166855674Y-109827550D01*
X166148567Y-110534657D01*
X166148567Y-110534657D01*
G37*
G36*
X165795014Y-110181103D02*
X165618237Y-110004326D01*
X166325344Y-109297219D01*
X166502121Y-109473996D01*
X165795014Y-110181103D01*
X165795014Y-110181103D01*
G37*
G36*
X165441460Y-109827550D02*
X165264683Y-109650773D01*
X165971790Y-108943666D01*
X166148567Y-109120443D01*
X165441460Y-109827550D01*
X165441460Y-109827550D01*
G37*
G36*
X165087907Y-109473996D02*
X164911130Y-109297219D01*
X165618237Y-108590112D01*
X165795014Y-108766889D01*
X165087907Y-109473996D01*
X165087907Y-109473996D01*
G37*
G36*
X164734353Y-109120443D02*
X164557576Y-108943666D01*
X165264683Y-108236559D01*
X165441460Y-108413336D01*
X164734353Y-109120443D01*
X164734353Y-109120443D01*
G37*
G36*
X164380800Y-108766890D02*
X164204023Y-108590113D01*
X164911130Y-107883006D01*
X165087907Y-108059783D01*
X164380800Y-108766890D01*
X164380800Y-108766890D01*
G37*
G36*
X164027247Y-108413336D02*
X163850470Y-108236559D01*
X164557577Y-107529452D01*
X164734354Y-107706229D01*
X164027247Y-108413336D01*
X164027247Y-108413336D01*
G37*
G36*
X163673693Y-108059783D02*
X163496916Y-107883006D01*
X164204023Y-107175899D01*
X164380800Y-107352676D01*
X163673693Y-108059783D01*
X163673693Y-108059783D01*
G37*
G36*
X161623084Y-107883006D02*
X161446307Y-108059783D01*
X160739200Y-107352676D01*
X160915977Y-107175899D01*
X161623084Y-107883006D01*
X161623084Y-107883006D01*
G37*
G36*
X161269530Y-108236559D02*
X161092753Y-108413336D01*
X160385646Y-107706229D01*
X160562423Y-107529452D01*
X161269530Y-108236559D01*
X161269530Y-108236559D01*
G37*
G36*
X160915977Y-108590113D02*
X160739200Y-108766890D01*
X160032093Y-108059783D01*
X160208870Y-107883006D01*
X160915977Y-108590113D01*
X160915977Y-108590113D01*
G37*
G36*
X160562424Y-108943666D02*
X160385647Y-109120443D01*
X159678540Y-108413336D01*
X159855317Y-108236559D01*
X160562424Y-108943666D01*
X160562424Y-108943666D01*
G37*
G36*
X160208870Y-109297219D02*
X160032093Y-109473996D01*
X159324986Y-108766889D01*
X159501763Y-108590112D01*
X160208870Y-109297219D01*
X160208870Y-109297219D01*
G37*
G36*
X159855317Y-109650773D02*
X159678540Y-109827550D01*
X158971433Y-109120443D01*
X159148210Y-108943666D01*
X159855317Y-109650773D01*
X159855317Y-109650773D01*
G37*
G36*
X159501763Y-110004326D02*
X159324986Y-110181103D01*
X158617879Y-109473996D01*
X158794656Y-109297219D01*
X159501763Y-110004326D01*
X159501763Y-110004326D01*
G37*
G36*
X159148210Y-110357880D02*
X158971433Y-110534657D01*
X158264326Y-109827550D01*
X158441103Y-109650773D01*
X159148210Y-110357880D01*
X159148210Y-110357880D01*
G37*
G36*
X158794657Y-110711433D02*
X158617880Y-110888210D01*
X157910773Y-110181103D01*
X158087550Y-110004326D01*
X158794657Y-110711433D01*
X158794657Y-110711433D01*
G37*
G36*
X158441103Y-111064986D02*
X158264326Y-111241763D01*
X157557219Y-110534656D01*
X157733996Y-110357879D01*
X158441103Y-111064986D01*
X158441103Y-111064986D01*
G37*
G36*
X158087550Y-111418540D02*
X157910773Y-111595317D01*
X157203666Y-110888210D01*
X157380443Y-110711433D01*
X158087550Y-111418540D01*
X158087550Y-111418540D01*
G37*
G36*
X157733996Y-111772093D02*
X157557219Y-111948870D01*
X156850112Y-111241763D01*
X157026889Y-111064986D01*
X157733996Y-111772093D01*
X157733996Y-111772093D01*
G37*
G36*
X157380443Y-112125647D02*
X157203666Y-112302424D01*
X156496559Y-111595317D01*
X156673336Y-111418540D01*
X157380443Y-112125647D01*
X157380443Y-112125647D01*
G37*
G36*
X157026890Y-112479200D02*
X156850113Y-112655977D01*
X156143006Y-111948870D01*
X156319783Y-111772093D01*
X157026890Y-112479200D01*
X157026890Y-112479200D01*
G37*
G36*
X156673336Y-112832753D02*
X156496559Y-113009530D01*
X155789452Y-112302423D01*
X155966229Y-112125646D01*
X156673336Y-112832753D01*
X156673336Y-112832753D01*
G37*
G36*
X156319783Y-113186307D02*
X156143006Y-113363084D01*
X155435899Y-112655977D01*
X155612676Y-112479200D01*
X156319783Y-113186307D01*
X156319783Y-113186307D01*
G37*
D22*
X148295360Y-120324880D03*
X152694640Y-120324880D03*
X152694640Y-117927120D03*
X148295360Y-117927120D03*
M02*
