M48
;DRILL file {KiCad 4.0.2+dfsg1-stable} date Sun 31 Mar 2019 18:37:32 CEST
;FORMAT={-:-/ absolute / metric / decimal}
FMAT,2
METRIC,TZ
T1C0.400
T2C0.800
T3C0.800
T4C0.900
T5C1.001
T6C1.016
T7C2.301
T8C3.048
T9C3.200
%
G90
G05
M71
T1
X132.787Y-87.532
X133.481Y-83.418
X133.667Y-97.17
X138.343Y-106.116
X139.307Y-100.824
X139.6Y-98.54
X141.003Y-110.218
X141.261Y-109.22
X141.525Y-107.05
X144.197Y-99.475
X146.026Y-92.643
X146.168Y-99.785
X146.679Y-97.44
X147.46Y-94.366
X147.898Y-86.431
X148.284Y-109.22
X148.288Y-104.648
X148.466Y-88.739
X148.509Y-106.187
X148.622Y-97.573
X149.354Y-99.789
X151.693Y-98.787
X152.214Y-112.724
X152.411Y-106.493
X153.292Y-112.904
X153.555Y-109.566
X159.663Y-104.823
X159.663Y-107.284
T2
X131.318Y-99.06
X136.198Y-99.06
T3
X113.03Y-106.68
T4
X149.745Y-114.29
X151.015Y-111.76
X152.285Y-114.29
X153.555Y-111.76
T5
X145.287Y-78.742
X147.827Y-78.742
X149.859Y-78.742
X152.399Y-78.742
T6
X119.38Y-76.2
X119.38Y-83.82
X121.92Y-76.2
X121.92Y-83.82
X121.92Y-93.98
X121.92Y-96.52
X121.92Y-109.22
X121.92Y-111.76
X121.92Y-114.3
X124.46Y-76.2
X124.46Y-83.82
X124.46Y-109.22
X124.46Y-111.76
X124.46Y-114.3
X127.Y-76.2
X129.54Y-81.28
X129.54Y-83.82
X132.08Y-73.66
X134.62Y-73.66
X137.16Y-73.66
X161.29Y-71.12
X161.29Y-73.66
X175.26Y-78.74
X175.26Y-81.28
X175.26Y-83.82
X175.26Y-86.36
X175.26Y-104.14
X175.26Y-106.68
X175.26Y-109.22
X175.26Y-111.76
X175.26Y-114.3
X175.26Y-119.38
X177.8Y-119.38
T7
X142.239Y-76.075
X155.955Y-76.075
T8
X113.03Y-69.85
X113.03Y-120.65
X184.15Y-69.85
X184.15Y-120.65
T9
X147.84Y-120.64
X155.46Y-120.64
T0
M30
