%TF.GenerationSoftware,KiCad,Pcbnew,4.0.2+dfsg1-stable*%
%TF.CreationDate,2019-04-14T19:17:55+02:00*%
%TF.ProjectId,StandAlone-Adapter,5374616E64416C6F6E652D4164617074,rev?*%
%TF.FileFunction,Copper,L1,Top,Signal*%
%FSLAX46Y46*%
G04 Gerber Fmt 4.6, Leading zero omitted, Abs format (unit mm)*
G04 Created by KiCad (PCBNEW 4.0.2+dfsg1-stable) date Sun 14 Apr 2019 19:17:55 CEST*
%MOMM*%
G01*
G04 APERTURE LIST*
%ADD10C,0.100000*%
%ADD11C,4.064000*%
%ADD12R,3.657600X2.032000*%
%ADD13R,1.016000X2.032000*%
%ADD14C,1.998980*%
%ADD15R,0.800100X0.800100*%
%ADD16C,1.270000*%
%ADD17C,3.600000*%
%ADD18R,1.800860X1.597660*%
%ADD19R,1.597660X1.800860*%
%ADD20R,1.700000X2.000000*%
%ADD21R,2.000000X1.700000*%
%ADD22C,1.501140*%
%ADD23C,2.999740*%
%ADD24C,1.500000*%
%ADD25R,2.000000X1.600000*%
%ADD26R,1.600000X2.000000*%
%ADD27R,1.727200X2.032000*%
%ADD28O,1.727200X2.032000*%
%ADD29R,2.032000X2.032000*%
%ADD30O,2.032000X2.032000*%
%ADD31R,1.600000X2.180000*%
%ADD32R,2.032000X1.727200*%
%ADD33O,2.032000X1.727200*%
%ADD34R,1.727200X1.727200*%
%ADD35O,1.727200X1.727200*%
%ADD36R,2.999740X1.501140*%
%ADD37C,0.600000*%
%ADD38C,0.250000*%
%ADD39C,0.254000*%
G04 APERTURE END LIST*
D10*
G36*
X142912676Y-95800800D02*
X142735899Y-95624023D01*
X143443006Y-94916916D01*
X143619783Y-95093693D01*
X142912676Y-95800800D01*
X142912676Y-95800800D01*
G37*
G36*
X143266229Y-96154354D02*
X143089452Y-95977577D01*
X143796559Y-95270470D01*
X143973336Y-95447247D01*
X143266229Y-96154354D01*
X143266229Y-96154354D01*
G37*
G36*
X143619783Y-96507907D02*
X143443006Y-96331130D01*
X144150113Y-95624023D01*
X144326890Y-95800800D01*
X143619783Y-96507907D01*
X143619783Y-96507907D01*
G37*
G36*
X143973336Y-96861460D02*
X143796559Y-96684683D01*
X144503666Y-95977576D01*
X144680443Y-96154353D01*
X143973336Y-96861460D01*
X143973336Y-96861460D01*
G37*
G36*
X144326889Y-97215014D02*
X144150112Y-97038237D01*
X144857219Y-96331130D01*
X145033996Y-96507907D01*
X144326889Y-97215014D01*
X144326889Y-97215014D01*
G37*
G36*
X144680443Y-97568567D02*
X144503666Y-97391790D01*
X145210773Y-96684683D01*
X145387550Y-96861460D01*
X144680443Y-97568567D01*
X144680443Y-97568567D01*
G37*
G36*
X145033996Y-97922121D02*
X144857219Y-97745344D01*
X145564326Y-97038237D01*
X145741103Y-97215014D01*
X145033996Y-97922121D01*
X145033996Y-97922121D01*
G37*
G36*
X145387550Y-98275674D02*
X145210773Y-98098897D01*
X145917880Y-97391790D01*
X146094657Y-97568567D01*
X145387550Y-98275674D01*
X145387550Y-98275674D01*
G37*
G36*
X145741103Y-98629227D02*
X145564326Y-98452450D01*
X146271433Y-97745343D01*
X146448210Y-97922120D01*
X145741103Y-98629227D01*
X145741103Y-98629227D01*
G37*
G36*
X146094656Y-98982781D02*
X145917879Y-98806004D01*
X146624986Y-98098897D01*
X146801763Y-98275674D01*
X146094656Y-98982781D01*
X146094656Y-98982781D01*
G37*
G36*
X146448210Y-99336334D02*
X146271433Y-99159557D01*
X146978540Y-98452450D01*
X147155317Y-98629227D01*
X146448210Y-99336334D01*
X146448210Y-99336334D01*
G37*
G36*
X146801763Y-99689888D02*
X146624986Y-99513111D01*
X147332093Y-98806004D01*
X147508870Y-98982781D01*
X146801763Y-99689888D01*
X146801763Y-99689888D01*
G37*
G36*
X147155317Y-100043441D02*
X146978540Y-99866664D01*
X147685647Y-99159557D01*
X147862424Y-99336334D01*
X147155317Y-100043441D01*
X147155317Y-100043441D01*
G37*
G36*
X147508870Y-100396994D02*
X147332093Y-100220217D01*
X148039200Y-99513110D01*
X148215977Y-99689887D01*
X147508870Y-100396994D01*
X147508870Y-100396994D01*
G37*
G36*
X147862423Y-100750548D02*
X147685646Y-100573771D01*
X148392753Y-99866664D01*
X148569530Y-100043441D01*
X147862423Y-100750548D01*
X147862423Y-100750548D01*
G37*
G36*
X148215977Y-101104101D02*
X148039200Y-100927324D01*
X148746307Y-100220217D01*
X148923084Y-100396994D01*
X148215977Y-101104101D01*
X148215977Y-101104101D01*
G37*
G36*
X151680800Y-100927324D02*
X151504023Y-101104101D01*
X150796916Y-100396994D01*
X150973693Y-100220217D01*
X151680800Y-100927324D01*
X151680800Y-100927324D01*
G37*
G36*
X152034354Y-100573771D02*
X151857577Y-100750548D01*
X151150470Y-100043441D01*
X151327247Y-99866664D01*
X152034354Y-100573771D01*
X152034354Y-100573771D01*
G37*
G36*
X152387907Y-100220217D02*
X152211130Y-100396994D01*
X151504023Y-99689887D01*
X151680800Y-99513110D01*
X152387907Y-100220217D01*
X152387907Y-100220217D01*
G37*
G36*
X152741460Y-99866664D02*
X152564683Y-100043441D01*
X151857576Y-99336334D01*
X152034353Y-99159557D01*
X152741460Y-99866664D01*
X152741460Y-99866664D01*
G37*
G36*
X153095014Y-99513111D02*
X152918237Y-99689888D01*
X152211130Y-98982781D01*
X152387907Y-98806004D01*
X153095014Y-99513111D01*
X153095014Y-99513111D01*
G37*
G36*
X153448567Y-99159557D02*
X153271790Y-99336334D01*
X152564683Y-98629227D01*
X152741460Y-98452450D01*
X153448567Y-99159557D01*
X153448567Y-99159557D01*
G37*
G36*
X153802121Y-98806004D02*
X153625344Y-98982781D01*
X152918237Y-98275674D01*
X153095014Y-98098897D01*
X153802121Y-98806004D01*
X153802121Y-98806004D01*
G37*
G36*
X154155674Y-98452450D02*
X153978897Y-98629227D01*
X153271790Y-97922120D01*
X153448567Y-97745343D01*
X154155674Y-98452450D01*
X154155674Y-98452450D01*
G37*
G36*
X154509227Y-98098897D02*
X154332450Y-98275674D01*
X153625343Y-97568567D01*
X153802120Y-97391790D01*
X154509227Y-98098897D01*
X154509227Y-98098897D01*
G37*
G36*
X154862781Y-97745344D02*
X154686004Y-97922121D01*
X153978897Y-97215014D01*
X154155674Y-97038237D01*
X154862781Y-97745344D01*
X154862781Y-97745344D01*
G37*
G36*
X155216334Y-97391790D02*
X155039557Y-97568567D01*
X154332450Y-96861460D01*
X154509227Y-96684683D01*
X155216334Y-97391790D01*
X155216334Y-97391790D01*
G37*
G36*
X155569888Y-97038237D02*
X155393111Y-97215014D01*
X154686004Y-96507907D01*
X154862781Y-96331130D01*
X155569888Y-97038237D01*
X155569888Y-97038237D01*
G37*
G36*
X155923441Y-96684683D02*
X155746664Y-96861460D01*
X155039557Y-96154353D01*
X155216334Y-95977576D01*
X155923441Y-96684683D01*
X155923441Y-96684683D01*
G37*
G36*
X156276994Y-96331130D02*
X156100217Y-96507907D01*
X155393110Y-95800800D01*
X155569887Y-95624023D01*
X156276994Y-96331130D01*
X156276994Y-96331130D01*
G37*
G36*
X156630548Y-95977577D02*
X156453771Y-96154354D01*
X155746664Y-95447247D01*
X155923441Y-95270470D01*
X156630548Y-95977577D01*
X156630548Y-95977577D01*
G37*
G36*
X156984101Y-95624023D02*
X156807324Y-95800800D01*
X156100217Y-95093693D01*
X156276994Y-94916916D01*
X156984101Y-95624023D01*
X156984101Y-95624023D01*
G37*
G36*
X156276994Y-93043084D02*
X156100217Y-92866307D01*
X156807324Y-92159200D01*
X156984101Y-92335977D01*
X156276994Y-93043084D01*
X156276994Y-93043084D01*
G37*
G36*
X155923441Y-92689530D02*
X155746664Y-92512753D01*
X156453771Y-91805646D01*
X156630548Y-91982423D01*
X155923441Y-92689530D01*
X155923441Y-92689530D01*
G37*
G36*
X155569887Y-92335977D02*
X155393110Y-92159200D01*
X156100217Y-91452093D01*
X156276994Y-91628870D01*
X155569887Y-92335977D01*
X155569887Y-92335977D01*
G37*
G36*
X155216334Y-91982424D02*
X155039557Y-91805647D01*
X155746664Y-91098540D01*
X155923441Y-91275317D01*
X155216334Y-91982424D01*
X155216334Y-91982424D01*
G37*
G36*
X154862781Y-91628870D02*
X154686004Y-91452093D01*
X155393111Y-90744986D01*
X155569888Y-90921763D01*
X154862781Y-91628870D01*
X154862781Y-91628870D01*
G37*
G36*
X154509227Y-91275317D02*
X154332450Y-91098540D01*
X155039557Y-90391433D01*
X155216334Y-90568210D01*
X154509227Y-91275317D01*
X154509227Y-91275317D01*
G37*
G36*
X154155674Y-90921763D02*
X153978897Y-90744986D01*
X154686004Y-90037879D01*
X154862781Y-90214656D01*
X154155674Y-90921763D01*
X154155674Y-90921763D01*
G37*
G36*
X153802120Y-90568210D02*
X153625343Y-90391433D01*
X154332450Y-89684326D01*
X154509227Y-89861103D01*
X153802120Y-90568210D01*
X153802120Y-90568210D01*
G37*
G36*
X153448567Y-90214657D02*
X153271790Y-90037880D01*
X153978897Y-89330773D01*
X154155674Y-89507550D01*
X153448567Y-90214657D01*
X153448567Y-90214657D01*
G37*
G36*
X153095014Y-89861103D02*
X152918237Y-89684326D01*
X153625344Y-88977219D01*
X153802121Y-89153996D01*
X153095014Y-89861103D01*
X153095014Y-89861103D01*
G37*
G36*
X152741460Y-89507550D02*
X152564683Y-89330773D01*
X153271790Y-88623666D01*
X153448567Y-88800443D01*
X152741460Y-89507550D01*
X152741460Y-89507550D01*
G37*
G36*
X152387907Y-89153996D02*
X152211130Y-88977219D01*
X152918237Y-88270112D01*
X153095014Y-88446889D01*
X152387907Y-89153996D01*
X152387907Y-89153996D01*
G37*
G36*
X152034353Y-88800443D02*
X151857576Y-88623666D01*
X152564683Y-87916559D01*
X152741460Y-88093336D01*
X152034353Y-88800443D01*
X152034353Y-88800443D01*
G37*
G36*
X151680800Y-88446890D02*
X151504023Y-88270113D01*
X152211130Y-87563006D01*
X152387907Y-87739783D01*
X151680800Y-88446890D01*
X151680800Y-88446890D01*
G37*
G36*
X151327247Y-88093336D02*
X151150470Y-87916559D01*
X151857577Y-87209452D01*
X152034354Y-87386229D01*
X151327247Y-88093336D01*
X151327247Y-88093336D01*
G37*
G36*
X150973693Y-87739783D02*
X150796916Y-87563006D01*
X151504023Y-86855899D01*
X151680800Y-87032676D01*
X150973693Y-87739783D01*
X150973693Y-87739783D01*
G37*
G36*
X148923084Y-87563006D02*
X148746307Y-87739783D01*
X148039200Y-87032676D01*
X148215977Y-86855899D01*
X148923084Y-87563006D01*
X148923084Y-87563006D01*
G37*
G36*
X148569530Y-87916559D02*
X148392753Y-88093336D01*
X147685646Y-87386229D01*
X147862423Y-87209452D01*
X148569530Y-87916559D01*
X148569530Y-87916559D01*
G37*
G36*
X148215977Y-88270113D02*
X148039200Y-88446890D01*
X147332093Y-87739783D01*
X147508870Y-87563006D01*
X148215977Y-88270113D01*
X148215977Y-88270113D01*
G37*
G36*
X147862424Y-88623666D02*
X147685647Y-88800443D01*
X146978540Y-88093336D01*
X147155317Y-87916559D01*
X147862424Y-88623666D01*
X147862424Y-88623666D01*
G37*
G36*
X147508870Y-88977219D02*
X147332093Y-89153996D01*
X146624986Y-88446889D01*
X146801763Y-88270112D01*
X147508870Y-88977219D01*
X147508870Y-88977219D01*
G37*
G36*
X147155317Y-89330773D02*
X146978540Y-89507550D01*
X146271433Y-88800443D01*
X146448210Y-88623666D01*
X147155317Y-89330773D01*
X147155317Y-89330773D01*
G37*
G36*
X146801763Y-89684326D02*
X146624986Y-89861103D01*
X145917879Y-89153996D01*
X146094656Y-88977219D01*
X146801763Y-89684326D01*
X146801763Y-89684326D01*
G37*
G36*
X146448210Y-90037880D02*
X146271433Y-90214657D01*
X145564326Y-89507550D01*
X145741103Y-89330773D01*
X146448210Y-90037880D01*
X146448210Y-90037880D01*
G37*
G36*
X146094657Y-90391433D02*
X145917880Y-90568210D01*
X145210773Y-89861103D01*
X145387550Y-89684326D01*
X146094657Y-90391433D01*
X146094657Y-90391433D01*
G37*
G36*
X145741103Y-90744986D02*
X145564326Y-90921763D01*
X144857219Y-90214656D01*
X145033996Y-90037879D01*
X145741103Y-90744986D01*
X145741103Y-90744986D01*
G37*
G36*
X145387550Y-91098540D02*
X145210773Y-91275317D01*
X144503666Y-90568210D01*
X144680443Y-90391433D01*
X145387550Y-91098540D01*
X145387550Y-91098540D01*
G37*
G36*
X145033996Y-91452093D02*
X144857219Y-91628870D01*
X144150112Y-90921763D01*
X144326889Y-90744986D01*
X145033996Y-91452093D01*
X145033996Y-91452093D01*
G37*
G36*
X144680443Y-91805647D02*
X144503666Y-91982424D01*
X143796559Y-91275317D01*
X143973336Y-91098540D01*
X144680443Y-91805647D01*
X144680443Y-91805647D01*
G37*
G36*
X144326890Y-92159200D02*
X144150113Y-92335977D01*
X143443006Y-91628870D01*
X143619783Y-91452093D01*
X144326890Y-92159200D01*
X144326890Y-92159200D01*
G37*
G36*
X143973336Y-92512753D02*
X143796559Y-92689530D01*
X143089452Y-91982423D01*
X143266229Y-91805646D01*
X143973336Y-92512753D01*
X143973336Y-92512753D01*
G37*
G36*
X143619783Y-92866307D02*
X143443006Y-93043084D01*
X142735899Y-92335977D01*
X142912676Y-92159200D01*
X143619783Y-92866307D01*
X143619783Y-92866307D01*
G37*
D11*
X113030000Y-120650000D03*
X184150000Y-120650000D03*
X184150000Y-69850000D03*
X113030000Y-69850000D03*
D12*
X167640000Y-76962000D03*
D13*
X167640000Y-70358000D03*
X165354000Y-70358000D03*
X169926000Y-70358000D03*
D14*
X113030000Y-106680000D03*
D15*
X139380000Y-108219240D03*
X137480000Y-108219240D03*
X138430000Y-110218220D03*
X151318000Y-106187240D03*
X149418000Y-106187240D03*
X150368000Y-108186220D03*
X162494000Y-108219240D03*
X160594000Y-108219240D03*
X161544000Y-110218220D03*
D16*
X152285000Y-114290000D03*
X149745000Y-114290000D03*
X153555000Y-111760000D03*
D17*
X155460000Y-120640000D03*
X147840000Y-120640000D03*
D16*
X151015000Y-111760000D03*
D18*
X163576000Y-81175860D03*
X163576000Y-78336140D03*
D19*
X139296140Y-88900000D03*
X142135860Y-88900000D03*
X182775860Y-91440000D03*
X179936140Y-91440000D03*
X117960140Y-88900000D03*
X120799860Y-88900000D03*
D20*
X160528000Y-77248000D03*
X160528000Y-81248000D03*
D21*
X132620000Y-88900000D03*
X136620000Y-88900000D03*
D20*
X126365000Y-91980000D03*
X126365000Y-95980000D03*
D21*
X142780000Y-104648000D03*
X146780000Y-104648000D03*
X153956000Y-104140000D03*
X157956000Y-104140000D03*
X173260000Y-91440000D03*
X177260000Y-91440000D03*
X165195000Y-104140000D03*
X161195000Y-104140000D03*
D20*
X165608000Y-107220000D03*
X165608000Y-111220000D03*
D21*
X142780000Y-109220000D03*
X146780000Y-109220000D03*
X157956000Y-108204000D03*
X153956000Y-108204000D03*
D20*
X134620000Y-111220000D03*
X134620000Y-107220000D03*
D21*
X139795000Y-104140000D03*
X135795000Y-104140000D03*
X123984000Y-88900000D03*
X127984000Y-88900000D03*
D22*
X145287140Y-78742120D03*
X147827140Y-78742120D03*
X149859140Y-78742120D03*
X152399140Y-78742120D03*
D23*
X142239140Y-76075120D03*
X155955140Y-76075120D03*
D24*
X131318000Y-99060000D03*
X136198000Y-99060000D03*
D25*
X158528000Y-86614000D03*
X162528000Y-86614000D03*
D26*
X162560000Y-101060000D03*
X162560000Y-97060000D03*
X160020000Y-101060000D03*
X160020000Y-97060000D03*
D25*
X157004000Y-89408000D03*
X161004000Y-89408000D03*
X141256000Y-101600000D03*
X145256000Y-101600000D03*
X134652000Y-92964000D03*
X138652000Y-92964000D03*
D27*
X119380000Y-76200000D03*
D28*
X121920000Y-76200000D03*
X124460000Y-76200000D03*
X127000000Y-76200000D03*
D27*
X119380000Y-83820000D03*
D28*
X121920000Y-83820000D03*
X124460000Y-83820000D03*
D29*
X129540000Y-83820000D03*
D30*
X129540000Y-81280000D03*
D27*
X137160000Y-70485000D03*
D28*
X134620000Y-70485000D03*
X132080000Y-70485000D03*
D31*
X114300000Y-101110000D03*
X114300000Y-91930000D03*
D29*
X161290000Y-71120000D03*
D30*
X161290000Y-73660000D03*
D32*
X175260000Y-78740000D03*
D33*
X175260000Y-81280000D03*
X175260000Y-83820000D03*
X175260000Y-86360000D03*
D32*
X175260000Y-104140000D03*
D33*
X175260000Y-106680000D03*
X175260000Y-109220000D03*
X175260000Y-111760000D03*
X175260000Y-114300000D03*
D29*
X175260000Y-119380000D03*
D30*
X177800000Y-119380000D03*
D29*
X121920000Y-96520000D03*
D30*
X121920000Y-93980000D03*
D34*
X121920000Y-109220000D03*
D35*
X124460000Y-109220000D03*
X121920000Y-111760000D03*
X124460000Y-111760000D03*
X121920000Y-114300000D03*
X124460000Y-114300000D03*
D27*
X137160000Y-74930000D03*
D28*
X134620000Y-74930000D03*
X132080000Y-74930000D03*
D25*
X144240000Y-83820000D03*
X140240000Y-83820000D03*
X161195000Y-114935000D03*
X165195000Y-114935000D03*
D26*
X130175000Y-111220000D03*
X130175000Y-107220000D03*
D25*
X167545000Y-96520000D03*
X171545000Y-96520000D03*
X179800000Y-96520000D03*
X175800000Y-96520000D03*
D21*
X166275000Y-85725000D03*
X170275000Y-85725000D03*
X166910000Y-81280000D03*
X170910000Y-81280000D03*
X134715000Y-115570000D03*
X130715000Y-115570000D03*
X142970000Y-115570000D03*
X138970000Y-115570000D03*
D36*
X157446980Y-83820000D03*
X153449020Y-83820000D03*
X169892980Y-90932000D03*
X165895020Y-90932000D03*
X165193980Y-120015000D03*
X161196020Y-120015000D03*
D37*
X157913600Y-110816100D03*
X141626700Y-82694700D03*
X142670100Y-90515900D03*
X150078300Y-98474500D03*
X140658500Y-93524900D03*
X158386900Y-97314500D03*
X156179500Y-105067700D03*
X154438900Y-106604400D03*
X157272000Y-95136200D03*
X139935300Y-112079000D03*
X141781100Y-90963100D03*
X152821200Y-115497600D03*
X168756900Y-85725000D03*
X150935400Y-105280700D03*
X133702000Y-94691800D03*
X143392400Y-100435200D03*
X161780200Y-107306800D03*
X162800400Y-104557300D03*
X145244500Y-109291800D03*
X146274700Y-106529600D03*
X144859600Y-106099800D03*
X145135900Y-98855900D03*
X137503900Y-107220000D03*
X144676300Y-99720000D03*
X150077100Y-101818700D03*
X144733700Y-115076000D03*
X151852600Y-89721800D03*
X140873000Y-114268500D03*
X150544800Y-90793100D03*
X148864900Y-101173700D03*
X149439600Y-100228000D03*
X147706100Y-103284300D03*
X160642600Y-79290000D03*
X144184700Y-98096100D03*
X159956300Y-85482700D03*
X150506400Y-88468200D03*
X137448600Y-115100100D03*
X140974000Y-115100100D03*
D38*
X121920000Y-109220000D02*
X122508600Y-109220000D01*
X135795000Y-104140000D02*
X134469700Y-104140000D01*
X138430000Y-110218200D02*
X137704600Y-110218200D01*
X123959800Y-108017700D02*
X122768100Y-109209400D01*
X126821600Y-108017700D02*
X123959800Y-108017700D01*
X127349300Y-108545400D02*
X126821600Y-108017700D01*
X131131200Y-108545400D02*
X127349300Y-108545400D01*
X132372500Y-107304100D02*
X131131200Y-108545400D01*
X132372500Y-106237200D02*
X132372500Y-107304100D01*
X134469700Y-104140000D02*
X132372500Y-106237200D01*
X122768000Y-109209400D02*
X122768100Y-109209400D01*
X122519200Y-109209400D02*
X122768000Y-109209400D01*
X122508600Y-109220000D02*
X122519200Y-109209400D01*
X125649000Y-109894600D02*
X133389600Y-109894600D01*
X125131200Y-110412400D02*
X125649000Y-109894600D01*
X123971000Y-110412400D02*
X125131200Y-110412400D01*
X122768100Y-109209400D02*
X123971000Y-110412400D01*
X137381000Y-109894600D02*
X137704600Y-110218200D01*
X133389600Y-109894600D02*
X137381000Y-109894600D01*
X133389600Y-112320000D02*
X133389600Y-109894600D01*
X133624300Y-112554700D02*
X133389600Y-112320000D01*
X139526700Y-112554700D02*
X133624300Y-112554700D01*
X139676300Y-112704300D02*
X139526700Y-112554700D01*
X141649700Y-112704300D02*
X139676300Y-112704300D01*
X144547400Y-109806600D02*
X141649700Y-112704300D01*
X144547400Y-109098300D02*
X144547400Y-109806600D01*
X145636600Y-108009100D02*
X144547400Y-109098300D01*
X146403400Y-108009100D02*
X145636600Y-108009100D01*
X146951700Y-107460800D02*
X146403400Y-108009100D01*
X150940200Y-107460800D02*
X146951700Y-107460800D01*
X151125300Y-107645900D02*
X150940200Y-107460800D01*
X151125300Y-111649700D02*
X151125300Y-107645900D01*
X151015000Y-111760000D02*
X151125300Y-111649700D01*
X164033300Y-108454200D02*
X162269300Y-110218200D01*
X164033300Y-106445500D02*
X164033300Y-108454200D01*
X164584200Y-105894600D02*
X164033300Y-106445500D01*
X173133300Y-105894600D02*
X164584200Y-105894600D01*
X173918700Y-106680000D02*
X173133300Y-105894600D01*
X175260000Y-106680000D02*
X173918700Y-106680000D01*
X161544000Y-110218200D02*
X162269300Y-110218200D01*
X163430900Y-110218200D02*
X162269300Y-110218200D01*
X164432700Y-111220000D02*
X163430900Y-110218200D01*
X165608000Y-111220000D02*
X164432700Y-111220000D01*
X160220700Y-110816100D02*
X160818600Y-110218200D01*
X157913600Y-110816100D02*
X160220700Y-110816100D01*
X161544000Y-110218200D02*
X160818600Y-110218200D01*
X152285000Y-108168700D02*
X152285000Y-114290000D01*
X151126800Y-107010500D02*
X152285000Y-108168700D01*
X146765100Y-107010500D02*
X151126800Y-107010500D01*
X146441800Y-107333800D02*
X146765100Y-107010500D01*
X141831500Y-107333800D02*
X146441800Y-107333800D01*
X139945300Y-109220000D02*
X141831500Y-107333800D01*
X124460000Y-109220000D02*
X139945300Y-109220000D01*
X158039800Y-85488700D02*
X158528000Y-85488700D01*
X157447000Y-84895900D02*
X158039800Y-85488700D01*
X157447000Y-83820000D02*
X157447000Y-84895900D01*
X158528000Y-86614000D02*
X158528000Y-85488700D01*
X161290000Y-71120000D02*
X162631300Y-71120000D01*
X169926000Y-70358000D02*
X169926000Y-71699300D01*
X140240000Y-83820000D02*
X140240000Y-82694700D01*
X140240000Y-82694700D02*
X141626700Y-82694700D01*
X157984600Y-88282700D02*
X158528000Y-87739300D01*
X157004000Y-88282700D02*
X157984600Y-88282700D01*
X158528000Y-86614000D02*
X158528000Y-87739300D01*
X157004000Y-89200200D02*
X157004000Y-88282700D01*
X171545000Y-96520000D02*
X171545000Y-97645300D01*
X163576000Y-78336100D02*
X162350300Y-78336100D01*
X162631300Y-71120000D02*
X163210600Y-71699300D01*
X163210600Y-71699300D02*
X169926000Y-71699300D01*
X142135900Y-88900000D02*
X142135900Y-90125700D01*
X152283300Y-86960500D02*
X151592400Y-87651400D01*
X152283300Y-85738300D02*
X152283300Y-86960500D01*
X145287100Y-78742100D02*
X152283300Y-85738300D01*
X121920000Y-111760000D02*
X124460000Y-111760000D01*
X128509700Y-111760000D02*
X129049700Y-111220000D01*
X124460000Y-111760000D02*
X128509700Y-111760000D01*
X130175000Y-111220000D02*
X129049700Y-111220000D01*
X142526100Y-90515900D02*
X142135900Y-90125700D01*
X142670100Y-90515900D02*
X142526100Y-90515900D01*
X142670100Y-91386300D02*
X142670100Y-90515900D01*
X143531400Y-92247600D02*
X142670100Y-91386300D01*
X145256000Y-101600000D02*
X144714900Y-101600000D01*
X146483400Y-99831500D02*
X146483400Y-99831400D01*
X144714900Y-101600000D02*
X146483400Y-99831500D01*
X147066900Y-99247900D02*
X146483400Y-99831400D01*
X165194000Y-120015000D02*
X165194000Y-118939100D01*
X119380000Y-83820000D02*
X118191100Y-83820000D01*
X151592400Y-100308600D02*
X151008900Y-99725000D01*
X157447000Y-83820000D02*
X157447000Y-82744100D01*
X168130300Y-101060000D02*
X162560000Y-101060000D01*
X171545000Y-97645300D02*
X168130300Y-101060000D01*
X173260000Y-86488800D02*
X173260000Y-91440000D01*
X174739900Y-85008900D02*
X173260000Y-86488800D01*
X175260000Y-85008900D02*
X174739900Y-85008900D01*
X175260000Y-83820000D02*
X175260000Y-85008900D01*
X171718200Y-91223500D02*
X171934700Y-91440000D01*
X171718200Y-90932000D02*
X171718200Y-91223500D01*
X169893000Y-90932000D02*
X171718200Y-90932000D01*
X172597400Y-91440000D02*
X172597500Y-91440000D01*
X172597400Y-91440000D02*
X171934700Y-91440000D01*
X173260000Y-91440000D02*
X172597500Y-91440000D01*
X171545000Y-96520000D02*
X171545000Y-95394700D01*
X174474700Y-96219400D02*
X172597500Y-94342200D01*
X174474700Y-96520000D02*
X174474700Y-96219400D01*
X172597500Y-91440000D02*
X172597500Y-94342200D01*
X172597500Y-94342200D02*
X171545000Y-95394700D01*
X175800000Y-96520000D02*
X174474700Y-96520000D01*
X162560000Y-101060000D02*
X160020000Y-101060000D01*
X152343800Y-101060000D02*
X151592400Y-100308600D01*
X160020000Y-101060000D02*
X152343800Y-101060000D01*
X121920000Y-93980000D02*
X120578700Y-93980000D01*
X116825600Y-85185500D02*
X116825600Y-91140400D01*
X118191100Y-83820000D02*
X116825600Y-85185500D01*
X116214900Y-91140400D02*
X116825600Y-91140400D01*
X115425300Y-91930000D02*
X116214900Y-91140400D01*
X117739100Y-91140400D02*
X120578700Y-93980000D01*
X116825600Y-91140400D02*
X117739100Y-91140400D01*
X114300000Y-91930000D02*
X115425300Y-91930000D01*
X120568900Y-75679900D02*
X120568900Y-76200000D01*
X121400300Y-74848500D02*
X120568900Y-75679900D01*
X130809600Y-74848500D02*
X121400300Y-74848500D01*
X130891100Y-74930000D02*
X130809600Y-74848500D01*
X132080000Y-74930000D02*
X130891100Y-74930000D01*
X119380000Y-76200000D02*
X120568900Y-76200000D01*
X156188600Y-95712400D02*
X155605100Y-95128800D01*
X155448500Y-95285400D02*
X155605100Y-95128800D01*
X155128600Y-95285400D02*
X155448500Y-95285400D01*
X151008900Y-99405100D02*
X155128600Y-95285400D01*
X151008900Y-99725000D02*
X151008900Y-99405100D01*
X151008900Y-99405100D02*
X150078300Y-98474500D01*
X157004000Y-89200200D02*
X157004000Y-89408000D01*
X155605100Y-95128600D02*
X155605100Y-95128800D01*
X157365200Y-93368500D02*
X155605100Y-95128600D01*
X157365200Y-90894500D02*
X157365200Y-93368500D01*
X157004000Y-90533300D02*
X157365200Y-90894500D01*
X157004000Y-89408000D02*
X157004000Y-90533300D01*
X157447000Y-80611400D02*
X159485000Y-78573400D01*
X157447000Y-82744100D02*
X157447000Y-80611400D01*
X159300000Y-78388400D02*
X159485000Y-78573400D01*
X159300000Y-76116700D02*
X159300000Y-78388400D01*
X159556600Y-75860100D02*
X159300000Y-76116700D01*
X161012300Y-75860100D02*
X159556600Y-75860100D01*
X163210600Y-73661800D02*
X161012300Y-75860100D01*
X163210600Y-71699300D02*
X163210600Y-73661800D01*
X162113000Y-78573400D02*
X162350300Y-78336100D01*
X159485000Y-78573400D02*
X162113000Y-78573400D01*
X165195000Y-114935000D02*
X165195000Y-115497600D01*
X165195000Y-115497600D02*
X165195000Y-116060300D01*
X166413100Y-117278400D02*
X165195000Y-116060300D01*
X166413100Y-117720000D02*
X166413100Y-117278400D01*
X176140000Y-117720000D02*
X166413100Y-117720000D01*
X177800000Y-119380000D02*
X176140000Y-117720000D01*
X166413100Y-117720000D02*
X165194000Y-118939100D01*
X163113800Y-113416400D02*
X165195000Y-115497600D01*
X155211400Y-113416400D02*
X163113800Y-113416400D01*
X153555000Y-111760000D02*
X155211400Y-113416400D01*
X138652000Y-92964000D02*
X139977300Y-92964000D01*
X140538200Y-93524900D02*
X139977300Y-92964000D01*
X140658500Y-93524900D02*
X140538200Y-93524900D01*
X143672800Y-101600000D02*
X144714900Y-101600000D01*
X140658500Y-98585700D02*
X143672800Y-101600000D01*
X140658500Y-93524900D02*
X140658500Y-98585700D01*
X151946000Y-99955100D02*
X152529500Y-100538600D01*
X160020000Y-97060000D02*
X162560000Y-97060000D01*
X160020000Y-97060000D02*
X158894700Y-97060000D01*
X153956000Y-104140000D02*
X152630700Y-104140000D01*
X158640200Y-97314500D02*
X158894700Y-97060000D01*
X158386900Y-97314500D02*
X158640200Y-97314500D01*
X155162800Y-100538600D02*
X152529500Y-100538600D01*
X158386900Y-97314500D02*
X155162800Y-100538600D01*
X117960100Y-88900000D02*
X119084200Y-88900000D01*
X147420500Y-99601500D02*
X146836800Y-100185200D01*
X137160000Y-74930000D02*
X137160000Y-76158700D01*
X127000000Y-76200000D02*
X128188900Y-76200000D01*
X126365000Y-95980000D02*
X127540300Y-95980000D01*
X142780000Y-104648000D02*
X142780000Y-103472700D01*
X161196000Y-116061300D02*
X161195000Y-116060300D01*
X161196000Y-120015000D02*
X161196000Y-116061300D01*
X155281300Y-104169500D02*
X156179500Y-105067700D01*
X155281300Y-104140000D02*
X155281300Y-104169500D01*
X165195000Y-104140000D02*
X163869700Y-104140000D01*
X137160000Y-70485000D02*
X137160000Y-74930000D01*
X128260200Y-76271300D02*
X128188900Y-76200000D01*
X133350000Y-76271300D02*
X128260200Y-76271300D01*
X132620000Y-88900000D02*
X132620000Y-90075300D01*
X119084200Y-86455500D02*
X119084200Y-88900000D01*
X120568900Y-84970800D02*
X119084200Y-86455500D01*
X120568900Y-81565000D02*
X120568900Y-84970800D01*
X118191000Y-79187100D02*
X120568900Y-81565000D01*
X118191000Y-74996000D02*
X118191000Y-79187100D01*
X119621800Y-73565200D02*
X118191000Y-74996000D01*
X132573200Y-73565200D02*
X119621800Y-73565200D01*
X133350000Y-74342000D02*
X132573200Y-73565200D01*
X133350000Y-76271300D02*
X133350000Y-74342000D01*
X130446500Y-90125800D02*
X131508000Y-91187300D01*
X119850200Y-90125800D02*
X130446500Y-90125800D01*
X119084200Y-89359800D02*
X119850200Y-90125800D01*
X119084200Y-88900000D02*
X119084200Y-89359800D01*
X131508000Y-91187300D02*
X132620000Y-90075300D01*
X142780000Y-109220000D02*
X141454700Y-109220000D01*
X147817900Y-102350200D02*
X146836800Y-102350200D01*
X149607700Y-104140000D02*
X147817900Y-102350200D01*
X152630700Y-104140000D02*
X149607700Y-104140000D01*
X146836800Y-102350200D02*
X146836800Y-100185200D01*
X153956000Y-104140000D02*
X155281300Y-104140000D01*
X137160000Y-76158700D02*
X137160000Y-76186800D01*
X137075500Y-76271300D02*
X133350000Y-76271300D01*
X137160000Y-76186800D02*
X137075500Y-76271300D01*
X144240000Y-83820000D02*
X144240000Y-82716500D01*
X144240000Y-82716500D02*
X144240000Y-82694700D01*
X147824600Y-82716500D02*
X151822400Y-86714300D01*
X144240000Y-82716500D02*
X147824600Y-82716500D01*
X151238900Y-87297800D02*
X151822400Y-86714300D01*
X151318000Y-106187200D02*
X152043300Y-106187200D01*
X152460500Y-106604400D02*
X154438900Y-106604400D01*
X152043300Y-106187200D02*
X152460500Y-106604400D01*
X161768600Y-108309900D02*
X161768600Y-108219200D01*
X160699100Y-109379400D02*
X161768600Y-108309900D01*
X156772800Y-109379400D02*
X160699100Y-109379400D01*
X155281400Y-107888000D02*
X156772800Y-109379400D01*
X155281400Y-107209900D02*
X155281400Y-107888000D01*
X154675900Y-106604400D02*
X155281400Y-107209900D01*
X154438900Y-106604400D02*
X154675900Y-106604400D01*
X162494000Y-108219200D02*
X161768600Y-108219200D01*
X163869700Y-104372400D02*
X163869700Y-104140000D01*
X162870300Y-105371800D02*
X163869700Y-104372400D01*
X156483600Y-105371800D02*
X162870300Y-105371800D01*
X156179500Y-105067700D02*
X156483600Y-105371800D01*
X156764900Y-95136200D02*
X156542200Y-95358900D01*
X157272000Y-95136200D02*
X156764900Y-95136200D01*
X162528000Y-86614000D02*
X162528000Y-87739300D01*
X161004000Y-91404200D02*
X161004000Y-89408000D01*
X157272000Y-95136200D02*
X161004000Y-91404200D01*
X161004000Y-89408000D02*
X162329300Y-89408000D01*
X165895000Y-90932000D02*
X164069800Y-90932000D01*
X167640000Y-70358000D02*
X167640000Y-69016700D01*
X153420800Y-69016700D02*
X167640000Y-69016700D01*
X141991400Y-80446100D02*
X153420800Y-69016700D01*
X141419300Y-80446100D02*
X141991400Y-80446100D01*
X137160000Y-76186800D02*
X141419300Y-80446100D01*
X141991400Y-80446100D02*
X144240000Y-82694700D01*
X164069800Y-90932000D02*
X162437600Y-89299700D01*
X162329300Y-89408000D02*
X162437600Y-89299700D01*
X162528000Y-89209300D02*
X162528000Y-87739300D01*
X162437600Y-89299700D02*
X162528000Y-89209300D01*
X139454700Y-111598400D02*
X139454700Y-111220000D01*
X139935300Y-112079000D02*
X139454700Y-111598400D01*
X134620000Y-111220000D02*
X139454700Y-111220000D01*
X139454700Y-111220000D02*
X141454700Y-109220000D01*
X145714300Y-103472700D02*
X142780000Y-103472700D01*
X146836800Y-102350200D02*
X145714300Y-103472700D01*
X139380000Y-108219200D02*
X138654600Y-108219200D01*
X127540300Y-95980000D02*
X131508000Y-95980000D01*
X131508000Y-95980000D02*
X131508000Y-91187300D01*
X142271900Y-102964600D02*
X138469600Y-102964600D01*
X142780000Y-103472700D02*
X142271900Y-102964600D01*
X138469600Y-102941600D02*
X138469600Y-102964600D01*
X131508000Y-95980000D02*
X138469600Y-102941600D01*
X138469600Y-108034200D02*
X138654600Y-108219200D01*
X138469600Y-102964600D02*
X138469600Y-108034200D01*
X141781100Y-91204400D02*
X143177800Y-92601100D01*
X141781100Y-90963100D02*
X141781100Y-91204400D01*
X161195000Y-114935000D02*
X161195000Y-115497600D01*
X161195000Y-115497600D02*
X161195000Y-116060300D01*
X161195000Y-115497600D02*
X152821200Y-115497600D01*
X170275000Y-85725000D02*
X168949700Y-85725000D01*
X168949700Y-85725000D02*
X168756900Y-85725000D01*
X157956000Y-108204000D02*
X157956000Y-107028700D01*
X153449000Y-83820000D02*
X153449000Y-82744100D01*
X152399100Y-81694200D02*
X152399100Y-78742100D01*
X153449000Y-82744100D02*
X152399100Y-81694200D01*
X164774600Y-69778600D02*
X165354000Y-70358000D01*
X159626800Y-69778600D02*
X164774600Y-69778600D01*
X152399100Y-77006300D02*
X159626800Y-69778600D01*
X152399100Y-78742100D02*
X152399100Y-77006300D01*
X175260000Y-114300000D02*
X175260000Y-113111100D01*
X165608000Y-107220000D02*
X166783300Y-107220000D01*
X176611000Y-112280200D02*
X176611000Y-107950000D01*
X175780100Y-113111100D02*
X176611000Y-112280200D01*
X175260000Y-113111100D02*
X175780100Y-113111100D01*
X167513300Y-107950000D02*
X166783300Y-107220000D01*
X176611000Y-107950000D02*
X167513300Y-107950000D01*
X139795000Y-104140000D02*
X139795000Y-105315300D01*
X150935400Y-105432100D02*
X150935400Y-105280700D01*
X152600900Y-105432100D02*
X150935400Y-105432100D01*
X153147900Y-105979100D02*
X152600900Y-105432100D01*
X156906400Y-105979100D02*
X153147900Y-105979100D01*
X157956000Y-107028700D02*
X156906400Y-105979100D01*
X161762500Y-77188800D02*
X161703300Y-77248000D01*
X164601500Y-77188800D02*
X161762500Y-77188800D01*
X165307200Y-77894500D02*
X164601500Y-77188800D01*
X165307200Y-77992200D02*
X165307200Y-77894500D01*
X166055000Y-78740000D02*
X165307200Y-77992200D01*
X173918700Y-78740000D02*
X166055000Y-78740000D01*
X160528000Y-77248000D02*
X161703300Y-77248000D01*
X174747700Y-78740000D02*
X173918700Y-78740000D01*
X174747700Y-78740000D02*
X175260000Y-78740000D01*
X183900100Y-93745200D02*
X181125300Y-96520000D01*
X183900100Y-88048900D02*
X183900100Y-93745200D01*
X175780100Y-79928900D02*
X183900100Y-88048900D01*
X175260000Y-79928900D02*
X175780100Y-79928900D01*
X175260000Y-78740000D02*
X175260000Y-79928900D01*
X179800000Y-96520000D02*
X181125300Y-96520000D01*
X179800000Y-101965700D02*
X179800000Y-96520000D01*
X176092000Y-105673700D02*
X179800000Y-101965700D01*
X176611000Y-106192800D02*
X176092000Y-105673700D01*
X176611000Y-107950000D02*
X176611000Y-106192800D01*
X158559300Y-106425400D02*
X157956000Y-107028700D01*
X162747200Y-106425400D02*
X158559300Y-106425400D01*
X163734800Y-105437800D02*
X162747200Y-106425400D01*
X175856000Y-105437800D02*
X163734800Y-105437800D01*
X176092000Y-105673700D02*
X175856000Y-105437800D01*
X140324700Y-105845000D02*
X139795000Y-105315300D01*
X144230100Y-105845000D02*
X140324700Y-105845000D01*
X144600600Y-105474500D02*
X144230100Y-105845000D01*
X145118700Y-105474500D02*
X144600600Y-105474500D01*
X145484900Y-105840700D02*
X145118700Y-105474500D01*
X148402200Y-105840700D02*
X145484900Y-105840700D01*
X148810800Y-105432100D02*
X148402200Y-105840700D01*
X150935400Y-105432100D02*
X148810800Y-105432100D01*
X126305700Y-113643200D02*
X125648900Y-114300000D01*
X149098200Y-113643200D02*
X126305700Y-113643200D01*
X149745000Y-114290000D02*
X149098200Y-113643200D01*
X124460000Y-114300000D02*
X125648900Y-114300000D01*
X134652000Y-92964000D02*
X134652000Y-94089300D01*
X144592100Y-96773100D02*
X144008600Y-97356600D01*
X134652000Y-92964000D02*
X135977300Y-92964000D01*
X134304500Y-94089300D02*
X134652000Y-94089300D01*
X133702000Y-94691800D02*
X134304500Y-94089300D01*
X136777900Y-92163400D02*
X135977300Y-92964000D01*
X136860800Y-92163400D02*
X136777900Y-92163400D01*
X137185500Y-91838700D02*
X136860800Y-92163400D01*
X139790200Y-91838700D02*
X137185500Y-91838700D01*
X140851100Y-92899600D02*
X139790200Y-91838700D01*
X140917600Y-92899600D02*
X140851100Y-92899600D01*
X141283800Y-93265800D02*
X140917600Y-92899600D01*
X141283800Y-93332300D02*
X141283800Y-93265800D01*
X141406900Y-93455400D02*
X141283800Y-93332300D01*
X141406900Y-94799100D02*
X141406900Y-93455400D01*
X143827300Y-97219500D02*
X141406900Y-94799100D01*
X143871400Y-97219500D02*
X143827300Y-97219500D01*
X144008600Y-97356600D02*
X143871400Y-97219500D01*
X138738000Y-101600000D02*
X136198000Y-99060000D01*
X141256000Y-101600000D02*
X138738000Y-101600000D01*
X133066200Y-95928200D02*
X136198000Y-99060000D01*
X133066200Y-92225000D02*
X133066200Y-95928200D01*
X133902800Y-91388400D02*
X133066200Y-92225000D01*
X139976800Y-91388400D02*
X133902800Y-91388400D01*
X141037700Y-92449300D02*
X139976800Y-91388400D01*
X141104200Y-92449300D02*
X141037700Y-92449300D01*
X143235000Y-94580100D02*
X141104200Y-92449300D01*
X143566300Y-94580100D02*
X143235000Y-94580100D01*
X145370100Y-96383900D02*
X143566300Y-94580100D01*
X145370100Y-96702100D02*
X145370100Y-96383900D01*
X144945600Y-97126600D02*
X145370100Y-96702100D01*
X162278200Y-81248000D02*
X162350300Y-81175900D01*
X160528000Y-81248000D02*
X162278200Y-81248000D01*
X163576000Y-81175900D02*
X162350300Y-81175900D01*
X136620000Y-88900000D02*
X139296100Y-88900000D01*
X181651800Y-90878000D02*
X181651800Y-91440000D01*
X177133800Y-86360000D02*
X181651800Y-90878000D01*
X175260000Y-86360000D02*
X177133800Y-86360000D01*
X182775900Y-91440000D02*
X181651800Y-91440000D01*
X177260000Y-91440000D02*
X179936100Y-91440000D01*
X123984000Y-88900000D02*
X120799900Y-88900000D01*
X121920000Y-114300000D02*
X123108900Y-114300000D01*
X150368000Y-108186200D02*
X149642600Y-108186200D01*
X149642600Y-112967200D02*
X149642600Y-108186200D01*
X175260000Y-119380000D02*
X174589400Y-119380000D01*
X174589400Y-119380000D02*
X173918700Y-119380000D01*
X157383800Y-112807100D02*
X153956000Y-109379300D01*
X167367500Y-112807100D02*
X157383800Y-112807100D01*
X171830000Y-117269600D02*
X167367500Y-112807100D01*
X177635700Y-117269600D02*
X171830000Y-117269600D01*
X179168000Y-118801900D02*
X177635700Y-117269600D01*
X179168000Y-119943400D02*
X179168000Y-118801900D01*
X178340400Y-120771000D02*
X179168000Y-119943400D01*
X175980400Y-120771000D02*
X178340400Y-120771000D01*
X174589400Y-119380000D02*
X175980400Y-120771000D01*
X153956000Y-108204000D02*
X153956000Y-109379300D01*
X123108900Y-113928400D02*
X123108900Y-114300000D01*
X123926200Y-113111100D02*
X123108900Y-113928400D01*
X139446200Y-113111100D02*
X123926200Y-113111100D01*
X139489700Y-113154600D02*
X139446200Y-113111100D01*
X149455200Y-113154600D02*
X139489700Y-113154600D01*
X149642600Y-112967200D02*
X149455200Y-113154600D01*
X172207700Y-121091000D02*
X173918700Y-119380000D01*
X158933000Y-121091000D02*
X172207700Y-121091000D01*
X154340600Y-116498600D02*
X158933000Y-121091000D01*
X152910300Y-116498600D02*
X154340600Y-116498600D01*
X151015100Y-114603400D02*
X152910300Y-116498600D01*
X151015100Y-114182700D02*
X151015100Y-114603400D01*
X149799600Y-112967200D02*
X151015100Y-114182700D01*
X149642600Y-112967200D02*
X149799600Y-112967200D01*
X145172600Y-100435200D02*
X146713400Y-98894400D01*
X143392400Y-100435200D02*
X145172600Y-100435200D01*
X161506400Y-107306800D02*
X161780200Y-107306800D01*
X160594000Y-108219200D02*
X161506400Y-107306800D01*
X162520300Y-104277200D02*
X162800400Y-104557300D01*
X162520300Y-104140000D02*
X162520300Y-104277200D01*
X161195000Y-104140000D02*
X162520300Y-104140000D01*
X149418000Y-106187200D02*
X148692600Y-106187200D01*
X146780000Y-109220000D02*
X145454700Y-109220000D01*
X145316300Y-109220000D02*
X145244500Y-109291800D01*
X145454700Y-109220000D02*
X145316300Y-109220000D01*
X148350200Y-106529600D02*
X146274700Y-106529600D01*
X148692600Y-106187200D02*
X148350200Y-106529600D01*
X145289400Y-106529600D02*
X144859600Y-106099800D01*
X146274700Y-106529600D02*
X145289400Y-106529600D01*
X145337700Y-98855900D02*
X145135900Y-98855900D01*
X146006300Y-98187300D02*
X145337700Y-98855900D01*
X137480000Y-108219200D02*
X137480000Y-107493900D01*
X134620000Y-107220000D02*
X137503900Y-107220000D01*
X137503900Y-107470000D02*
X137480000Y-107493900D01*
X137503900Y-107220000D02*
X137503900Y-107470000D01*
X145180600Y-99720000D02*
X144676300Y-99720000D01*
X146359800Y-98540800D02*
X145180600Y-99720000D01*
X127984000Y-82836000D02*
X127984000Y-88900000D01*
X129540000Y-81280000D02*
X127984000Y-82836000D01*
X147348000Y-100381100D02*
X147774000Y-99955100D01*
X147348000Y-100726600D02*
X147348000Y-100381100D01*
X148440100Y-101818700D02*
X147348000Y-100726600D01*
X150077100Y-101818700D02*
X148440100Y-101818700D01*
X121920000Y-76200000D02*
X123108900Y-76200000D01*
X123108900Y-76720100D02*
X123108900Y-76200000D01*
X125647000Y-79258200D02*
X123108900Y-76720100D01*
X129435800Y-79258200D02*
X125647000Y-79258200D01*
X136857000Y-86679400D02*
X129435800Y-79258200D01*
X139236500Y-86679400D02*
X136857000Y-86679400D01*
X140466100Y-87909000D02*
X139236500Y-86679400D01*
X140466100Y-90537500D02*
X140466100Y-87909000D01*
X140466200Y-90537500D02*
X140466100Y-90537500D01*
X143299600Y-93370900D02*
X140466200Y-90537500D01*
X146580000Y-93370900D02*
X143299600Y-93370900D01*
X151946000Y-88004900D02*
X146580000Y-93370900D01*
X124460000Y-76200000D02*
X125648900Y-76200000D01*
X125648900Y-76720100D02*
X125648900Y-76200000D01*
X127374800Y-78446000D02*
X125648900Y-76720100D01*
X129524000Y-78446000D02*
X127374800Y-78446000D01*
X136312300Y-85234300D02*
X129524000Y-78446000D01*
X146417600Y-85234300D02*
X136312300Y-85234300D01*
X148481100Y-87297800D02*
X146417600Y-85234300D01*
X129540000Y-83820000D02*
X130881300Y-83820000D01*
X148127600Y-100308600D02*
X148711200Y-99725000D01*
X133945400Y-86884100D02*
X130881300Y-83820000D01*
X133945400Y-88603800D02*
X133945400Y-86884100D01*
X135791100Y-90449500D02*
X133945400Y-88603800D01*
X136116200Y-90449500D02*
X135791100Y-90449500D01*
X136129200Y-90462500D02*
X136116200Y-90449500D01*
X136674200Y-90462500D02*
X136129200Y-90462500D01*
X137149800Y-90938100D02*
X136674200Y-90462500D01*
X140163400Y-90938100D02*
X137149800Y-90938100D01*
X141224300Y-91999000D02*
X140163400Y-90938100D01*
X141290800Y-91999000D02*
X141224300Y-91999000D01*
X143115500Y-93823700D02*
X141290800Y-91999000D01*
X143446800Y-93823700D02*
X143115500Y-93823700D01*
X148454400Y-98831300D02*
X143446800Y-93823700D01*
X148454400Y-99468200D02*
X148454400Y-98831300D01*
X148563500Y-99577300D02*
X148454400Y-99468200D01*
X148563500Y-99577400D02*
X148563500Y-99577300D01*
X148711200Y-99725000D02*
X148563500Y-99577400D01*
X155621700Y-86450500D02*
X153006600Y-89065600D01*
X155621700Y-79132600D02*
X155621700Y-86450500D01*
X159948700Y-74805600D02*
X155621700Y-79132600D01*
X159948700Y-73660000D02*
X159948700Y-74805600D01*
X161290000Y-73660000D02*
X159948700Y-73660000D01*
X144295300Y-115514400D02*
X144733700Y-115076000D01*
X144295300Y-115570000D02*
X144295300Y-115514400D01*
X142970000Y-115570000D02*
X144295300Y-115570000D01*
X151852600Y-89512600D02*
X152653100Y-88712100D01*
X151852600Y-89721800D02*
X151852600Y-89512600D01*
X134715000Y-115570000D02*
X134715000Y-114394700D01*
X140746800Y-114394700D02*
X140873000Y-114268500D01*
X134715000Y-114394700D02*
X140746800Y-114394700D01*
X150544800Y-90113200D02*
X152299500Y-88358500D01*
X150544800Y-90793100D02*
X150544800Y-90113200D01*
X149560200Y-101173700D02*
X150655300Y-100078600D01*
X148864900Y-101173700D02*
X149560200Y-101173700D01*
X151238900Y-100662200D02*
X150655300Y-100078600D01*
X153541400Y-102964700D02*
X151238900Y-100662200D01*
X157956000Y-102964700D02*
X153541400Y-102964700D01*
X157956000Y-104140000D02*
X157956000Y-102964700D01*
X149214100Y-100228000D02*
X149064700Y-100078600D01*
X149439600Y-100228000D02*
X149214100Y-100228000D01*
X148481100Y-100662200D02*
X149064700Y-100078600D01*
X146780000Y-104648000D02*
X146780000Y-103472700D01*
X147517700Y-103472700D02*
X147706100Y-103284300D01*
X146780000Y-103472700D02*
X147517700Y-103472700D01*
X166265600Y-79460300D02*
X166910000Y-80104700D01*
X160812900Y-79460300D02*
X166265600Y-79460300D01*
X160642600Y-79290000D02*
X160812900Y-79460300D01*
X166910000Y-81280000D02*
X166910000Y-80104700D01*
X123261300Y-96409000D02*
X126365000Y-93305300D01*
X123261300Y-96520000D02*
X123261300Y-96409000D01*
X126365000Y-91980000D02*
X126365000Y-93305300D01*
X115988700Y-101110000D02*
X120578700Y-96520000D01*
X114300000Y-101110000D02*
X115988700Y-101110000D01*
X121920000Y-96520000D02*
X120578700Y-96520000D01*
X122590700Y-96520000D02*
X122675200Y-96520000D01*
X121920000Y-96520000D02*
X122590700Y-96520000D01*
X122675200Y-96520000D02*
X123261300Y-96520000D01*
X130175000Y-104019800D02*
X130175000Y-107220000D01*
X122675200Y-96520000D02*
X130175000Y-104019800D01*
X145299200Y-97480200D02*
X144715700Y-98063700D01*
X144683300Y-98096100D02*
X144184700Y-98096100D01*
X144715700Y-98063700D02*
X144683300Y-98096100D01*
X167545000Y-96520000D02*
X166219700Y-96520000D01*
X155835100Y-96066000D02*
X156418600Y-96649500D01*
X156656300Y-96649500D02*
X156418600Y-96649500D01*
X158072000Y-95233800D02*
X156656300Y-96649500D01*
X164933500Y-95233800D02*
X158072000Y-95233800D01*
X166219700Y-96520000D02*
X164933500Y-95233800D01*
X145289300Y-91656800D02*
X145175700Y-91770400D01*
X147317800Y-91656800D02*
X145289300Y-91656800D01*
X150506400Y-88468200D02*
X147317800Y-91656800D01*
X144592100Y-91186900D02*
X145175700Y-91770400D01*
X166275000Y-85725000D02*
X164949700Y-85725000D01*
X164707400Y-85482700D02*
X159956300Y-85482700D01*
X164949700Y-85725000D02*
X164707400Y-85482700D01*
X168050000Y-85315300D02*
X170910000Y-82455300D01*
X168050000Y-93683600D02*
X168050000Y-85315300D01*
X168870400Y-94504000D02*
X168050000Y-93683600D01*
X168870400Y-97518800D02*
X168870400Y-94504000D01*
X168743800Y-97645400D02*
X168870400Y-97518800D01*
X165405500Y-97645400D02*
X168743800Y-97645400D01*
X163494700Y-95734600D02*
X165405500Y-97645400D01*
X158392100Y-95734600D02*
X163494700Y-95734600D01*
X156890500Y-97236200D02*
X158392100Y-95734600D01*
X155831900Y-97236200D02*
X156890500Y-97236200D01*
X155711500Y-97356600D02*
X155831900Y-97236200D01*
X155127900Y-96773100D02*
X155711500Y-97356600D01*
X170910000Y-81280000D02*
X170910000Y-82455300D01*
X130715000Y-115570000D02*
X130715000Y-116745300D01*
X135929000Y-116745300D02*
X130715000Y-116745300D01*
X137448600Y-115225700D02*
X135929000Y-116745300D01*
X137448600Y-115100100D02*
X137448600Y-115225700D01*
X138970000Y-115570000D02*
X140295300Y-115570000D01*
X140765200Y-115100100D02*
X140974000Y-115100100D01*
X140295300Y-115570000D02*
X140765200Y-115100100D01*
D39*
G36*
X182641239Y-67587709D02*
X181890345Y-68337293D01*
X181483464Y-69317173D01*
X181482538Y-70378172D01*
X181887709Y-71358761D01*
X182637293Y-72109655D01*
X183617173Y-72516536D01*
X184678172Y-72517462D01*
X185658761Y-72112291D01*
X186409655Y-71362707D01*
X186563000Y-70993411D01*
X186563000Y-119505983D01*
X186412291Y-119141239D01*
X185662707Y-118390345D01*
X184682827Y-117983464D01*
X183621828Y-117982538D01*
X182641239Y-118387709D01*
X181890345Y-119137293D01*
X181483464Y-120117173D01*
X181482538Y-121178172D01*
X181887709Y-122158761D01*
X182637293Y-122909655D01*
X183617173Y-123316536D01*
X184678172Y-123317462D01*
X185658761Y-122912291D01*
X186409655Y-122162707D01*
X186563000Y-121793411D01*
X186563000Y-123698000D01*
X110617000Y-123698000D01*
X110617000Y-121794017D01*
X110767709Y-122158761D01*
X111517293Y-122909655D01*
X112497173Y-123316536D01*
X113558172Y-123317462D01*
X114538761Y-122912291D01*
X115289655Y-122162707D01*
X115696536Y-121182827D01*
X115696588Y-121122226D01*
X145404579Y-121122226D01*
X145774504Y-122017514D01*
X146458883Y-122703088D01*
X147353524Y-123074576D01*
X148322226Y-123075421D01*
X149217514Y-122705496D01*
X149903088Y-122021117D01*
X150274576Y-121126476D01*
X150275421Y-120157774D01*
X149905496Y-119262486D01*
X149221117Y-118576912D01*
X148326476Y-118205424D01*
X147357774Y-118204579D01*
X146462486Y-118574504D01*
X145776912Y-119258883D01*
X145405424Y-120153524D01*
X145404579Y-121122226D01*
X115696588Y-121122226D01*
X115697462Y-120121828D01*
X115292291Y-119141239D01*
X114542707Y-118390345D01*
X113562827Y-117983464D01*
X112501828Y-117982538D01*
X111521239Y-118387709D01*
X110770345Y-119137293D01*
X110617000Y-119506589D01*
X110617000Y-107832163D01*
X112057443Y-107832163D01*
X112156042Y-108098965D01*
X112765582Y-108325401D01*
X113415377Y-108301341D01*
X113903958Y-108098965D01*
X114002557Y-107832163D01*
X113030000Y-106859605D01*
X112057443Y-107832163D01*
X110617000Y-107832163D01*
X110617000Y-106415582D01*
X111384599Y-106415582D01*
X111408659Y-107065377D01*
X111611035Y-107553958D01*
X111877837Y-107652557D01*
X112850395Y-106680000D01*
X113209605Y-106680000D01*
X114182163Y-107652557D01*
X114448965Y-107553958D01*
X114675401Y-106944418D01*
X114651341Y-106294623D01*
X114448965Y-105806042D01*
X114182163Y-105707443D01*
X113209605Y-106680000D01*
X112850395Y-106680000D01*
X111877837Y-105707443D01*
X111611035Y-105806042D01*
X111384599Y-106415582D01*
X110617000Y-106415582D01*
X110617000Y-105527837D01*
X112057443Y-105527837D01*
X113030000Y-106500395D01*
X114002557Y-105527837D01*
X113903958Y-105261035D01*
X113294418Y-105034599D01*
X112644623Y-105058659D01*
X112156042Y-105261035D01*
X112057443Y-105527837D01*
X110617000Y-105527837D01*
X110617000Y-100020000D01*
X112852560Y-100020000D01*
X112852560Y-102200000D01*
X112896838Y-102435317D01*
X113035910Y-102651441D01*
X113248110Y-102796431D01*
X113500000Y-102847440D01*
X115100000Y-102847440D01*
X115335317Y-102803162D01*
X115551441Y-102664090D01*
X115696431Y-102451890D01*
X115747440Y-102200000D01*
X115747440Y-101870000D01*
X115988700Y-101870000D01*
X116279539Y-101812148D01*
X116526101Y-101647401D01*
X120340519Y-97832983D01*
X120439910Y-97987441D01*
X120652110Y-98132431D01*
X120904000Y-98183440D01*
X122936000Y-98183440D01*
X123171317Y-98139162D01*
X123200671Y-98120273D01*
X129415000Y-104334602D01*
X129415000Y-105572560D01*
X129375000Y-105572560D01*
X129139683Y-105616838D01*
X128923559Y-105755910D01*
X128778569Y-105968110D01*
X128727560Y-106220000D01*
X128727560Y-107785400D01*
X127664103Y-107785400D01*
X127359001Y-107480299D01*
X127112439Y-107315552D01*
X126821600Y-107257700D01*
X123959800Y-107257700D01*
X123668960Y-107315552D01*
X123422399Y-107480299D01*
X123099199Y-107803499D01*
X123035490Y-107759969D01*
X122783600Y-107708960D01*
X121056400Y-107708960D01*
X120821083Y-107753238D01*
X120604959Y-107892310D01*
X120459969Y-108104510D01*
X120408960Y-108356400D01*
X120408960Y-110083600D01*
X120453238Y-110318917D01*
X120592310Y-110535041D01*
X120804510Y-110680031D01*
X120898375Y-110699039D01*
X120637312Y-110985053D01*
X120465042Y-111400974D01*
X120586183Y-111633000D01*
X121793000Y-111633000D01*
X121793000Y-111613000D01*
X122047000Y-111613000D01*
X122047000Y-111633000D01*
X124333000Y-111633000D01*
X124333000Y-111613000D01*
X124587000Y-111613000D01*
X124587000Y-111633000D01*
X125793817Y-111633000D01*
X125914958Y-111400974D01*
X125742688Y-110985053D01*
X125690512Y-110927890D01*
X125963802Y-110654600D01*
X128740000Y-110654600D01*
X128740000Y-110934250D01*
X128898750Y-111093000D01*
X130048000Y-111093000D01*
X130048000Y-111073000D01*
X130302000Y-111073000D01*
X130302000Y-111093000D01*
X131451250Y-111093000D01*
X131610000Y-110934250D01*
X131610000Y-110654600D01*
X132629600Y-110654600D01*
X132629600Y-112320000D01*
X132635786Y-112351100D01*
X131608016Y-112351100D01*
X131610000Y-112346309D01*
X131610000Y-111505750D01*
X131451250Y-111347000D01*
X130302000Y-111347000D01*
X130302000Y-111367000D01*
X130048000Y-111367000D01*
X130048000Y-111347000D01*
X128898750Y-111347000D01*
X128740000Y-111505750D01*
X128740000Y-112346309D01*
X128741984Y-112351100D01*
X125818835Y-112351100D01*
X125914958Y-112119026D01*
X125793817Y-111887000D01*
X124587000Y-111887000D01*
X124587000Y-111907000D01*
X124333000Y-111907000D01*
X124333000Y-111887000D01*
X122047000Y-111887000D01*
X122047000Y-111907000D01*
X121793000Y-111907000D01*
X121793000Y-111887000D01*
X120586183Y-111887000D01*
X120465042Y-112119026D01*
X120637312Y-112534947D01*
X121031510Y-112966821D01*
X121154228Y-113024336D01*
X120830971Y-113240330D01*
X120506115Y-113726511D01*
X120392041Y-114300000D01*
X120506115Y-114873489D01*
X120830971Y-115359670D01*
X121317152Y-115684526D01*
X121890641Y-115798600D01*
X121949359Y-115798600D01*
X122522848Y-115684526D01*
X123009029Y-115359670D01*
X123190000Y-115088828D01*
X123370971Y-115359670D01*
X123857152Y-115684526D01*
X124430641Y-115798600D01*
X124489359Y-115798600D01*
X125062848Y-115684526D01*
X125549029Y-115359670D01*
X125764646Y-115036976D01*
X125939739Y-115002148D01*
X126186301Y-114837401D01*
X126620502Y-114403200D01*
X129162920Y-114403200D01*
X129118569Y-114468110D01*
X129067560Y-114720000D01*
X129067560Y-116420000D01*
X129111838Y-116655317D01*
X129250910Y-116871441D01*
X129463110Y-117016431D01*
X129715000Y-117067440D01*
X130033767Y-117067440D01*
X130177599Y-117282701D01*
X130424161Y-117447448D01*
X130715000Y-117505300D01*
X135929000Y-117505300D01*
X136219839Y-117447448D01*
X136466401Y-117282701D01*
X137323596Y-116425506D01*
X137366838Y-116655317D01*
X137505910Y-116871441D01*
X137718110Y-117016431D01*
X137970000Y-117067440D01*
X139970000Y-117067440D01*
X140205317Y-117023162D01*
X140421441Y-116884090D01*
X140566431Y-116671890D01*
X140617440Y-116420000D01*
X140617440Y-116251233D01*
X140832701Y-116107401D01*
X140905061Y-116035041D01*
X141159167Y-116035262D01*
X141322560Y-115967750D01*
X141322560Y-116420000D01*
X141366838Y-116655317D01*
X141505910Y-116871441D01*
X141718110Y-117016431D01*
X141970000Y-117067440D01*
X143970000Y-117067440D01*
X144205317Y-117023162D01*
X144421441Y-116884090D01*
X144566431Y-116671890D01*
X144617440Y-116420000D01*
X144617440Y-116251233D01*
X144832701Y-116107401D01*
X144897018Y-116011143D01*
X144918867Y-116011162D01*
X145262643Y-115869117D01*
X145525892Y-115606327D01*
X145668538Y-115262799D01*
X145668862Y-114890833D01*
X145526817Y-114547057D01*
X145383211Y-114403200D01*
X148474901Y-114403200D01*
X148474780Y-114541510D01*
X148667718Y-115008458D01*
X149024663Y-115366026D01*
X149491273Y-115559779D01*
X149996510Y-115560220D01*
X150463458Y-115367282D01*
X150583924Y-115247026D01*
X152372899Y-117036001D01*
X152619461Y-117200748D01*
X152910300Y-117258600D01*
X154025798Y-117258600D01*
X154973530Y-118206332D01*
X154082486Y-118574504D01*
X153396912Y-119258883D01*
X153025424Y-120153524D01*
X153024579Y-121122226D01*
X153394504Y-122017514D01*
X154078883Y-122703088D01*
X154973524Y-123074576D01*
X155942226Y-123075421D01*
X156837514Y-122705496D01*
X157523088Y-122021117D01*
X157894311Y-121127113D01*
X158395599Y-121628401D01*
X158642160Y-121793148D01*
X158933000Y-121851000D01*
X172207700Y-121851000D01*
X172498539Y-121793148D01*
X172745101Y-121628401D01*
X173680519Y-120692983D01*
X173779910Y-120847441D01*
X173992110Y-120992431D01*
X174244000Y-121043440D01*
X175178038Y-121043440D01*
X175442999Y-121308401D01*
X175689561Y-121473148D01*
X175980400Y-121531000D01*
X178340400Y-121531000D01*
X178631239Y-121473148D01*
X178877801Y-121308401D01*
X179705401Y-120480801D01*
X179870148Y-120234239D01*
X179928000Y-119943400D01*
X179928000Y-118801900D01*
X179870148Y-118511061D01*
X179870148Y-118511060D01*
X179705401Y-118264499D01*
X178173101Y-116732199D01*
X177926539Y-116567452D01*
X177635700Y-116509600D01*
X172144802Y-116509600D01*
X167904901Y-112269699D01*
X167658339Y-112104952D01*
X167367500Y-112047100D01*
X167105440Y-112047100D01*
X167105440Y-110220000D01*
X167061162Y-109984683D01*
X166922090Y-109768559D01*
X166709890Y-109623569D01*
X166458000Y-109572560D01*
X164758000Y-109572560D01*
X164522683Y-109616838D01*
X164306559Y-109755910D01*
X164199743Y-109912241D01*
X163968301Y-109680799D01*
X163916269Y-109646033D01*
X164570701Y-108991601D01*
X164666098Y-108848829D01*
X164758000Y-108867440D01*
X166458000Y-108867440D01*
X166693317Y-108823162D01*
X166909441Y-108684090D01*
X167022539Y-108518565D01*
X167222461Y-108652148D01*
X167513300Y-108710000D01*
X173678100Y-108710000D01*
X173576655Y-109220000D01*
X173690729Y-109793489D01*
X174015585Y-110279670D01*
X174325069Y-110486461D01*
X173909268Y-110857964D01*
X173655291Y-111385209D01*
X173652642Y-111400974D01*
X173773783Y-111633000D01*
X175133000Y-111633000D01*
X175133000Y-111613000D01*
X175387000Y-111613000D01*
X175387000Y-111633000D01*
X175407000Y-111633000D01*
X175407000Y-111887000D01*
X175387000Y-111887000D01*
X175387000Y-111907000D01*
X175133000Y-111907000D01*
X175133000Y-111887000D01*
X173773783Y-111887000D01*
X173652642Y-112119026D01*
X173655291Y-112134791D01*
X173909268Y-112662036D01*
X174325069Y-113033539D01*
X174015585Y-113240330D01*
X173690729Y-113726511D01*
X173576655Y-114300000D01*
X173690729Y-114873489D01*
X174015585Y-115359670D01*
X174501766Y-115684526D01*
X175075255Y-115798600D01*
X175444745Y-115798600D01*
X176018234Y-115684526D01*
X176504415Y-115359670D01*
X176829271Y-114873489D01*
X176943345Y-114300000D01*
X176829271Y-113726511D01*
X176593038Y-113372964D01*
X177148401Y-112817601D01*
X177313148Y-112571039D01*
X177371000Y-112280200D01*
X177371000Y-106192800D01*
X177341845Y-106046227D01*
X177313176Y-105902029D01*
X177313155Y-105901998D01*
X177313148Y-105901961D01*
X177230384Y-105778096D01*
X177163110Y-105677392D01*
X180337401Y-102503101D01*
X180502148Y-102256539D01*
X180560000Y-101965700D01*
X180560000Y-97967440D01*
X180800000Y-97967440D01*
X181035317Y-97923162D01*
X181251441Y-97784090D01*
X181396431Y-97571890D01*
X181447440Y-97320000D01*
X181447440Y-97201233D01*
X181662701Y-97057401D01*
X184437501Y-94282601D01*
X184602248Y-94036039D01*
X184660100Y-93745200D01*
X184660100Y-88048900D01*
X184602248Y-87758061D01*
X184437501Y-87511499D01*
X176835517Y-79909515D01*
X176872431Y-79855490D01*
X176923440Y-79603600D01*
X176923440Y-77876400D01*
X176879162Y-77641083D01*
X176740090Y-77424959D01*
X176527890Y-77279969D01*
X176276000Y-77228960D01*
X174244000Y-77228960D01*
X174008683Y-77273238D01*
X173792559Y-77412310D01*
X173647569Y-77624510D01*
X173596560Y-77876400D01*
X173596560Y-77980000D01*
X170115835Y-77980000D01*
X170116240Y-77978000D01*
X170116240Y-75946000D01*
X170071962Y-75710683D01*
X169932890Y-75494559D01*
X169720690Y-75349569D01*
X169468800Y-75298560D01*
X165811200Y-75298560D01*
X165575883Y-75342838D01*
X165359759Y-75481910D01*
X165214769Y-75694110D01*
X165163760Y-75946000D01*
X165163760Y-76676258D01*
X165138901Y-76651399D01*
X164892339Y-76486652D01*
X164601500Y-76428800D01*
X162025440Y-76428800D01*
X162025440Y-76248000D01*
X161981162Y-76012683D01*
X161842090Y-75796559D01*
X161629890Y-75651569D01*
X161378000Y-75600560D01*
X160228542Y-75600560D01*
X160486101Y-75343001D01*
X160602071Y-75169440D01*
X160625845Y-75185325D01*
X161257655Y-75311000D01*
X161322345Y-75311000D01*
X161954155Y-75185325D01*
X162489778Y-74827433D01*
X162847670Y-74291810D01*
X162973345Y-73660000D01*
X162847670Y-73028190D01*
X162623034Y-72691999D01*
X162665698Y-72674327D01*
X162844327Y-72495699D01*
X162941000Y-72262310D01*
X162941000Y-71405750D01*
X162782250Y-71247000D01*
X161417000Y-71247000D01*
X161417000Y-71267000D01*
X161163000Y-71267000D01*
X161163000Y-71247000D01*
X159797750Y-71247000D01*
X159639000Y-71405750D01*
X159639000Y-72262310D01*
X159735673Y-72495699D01*
X159914302Y-72674327D01*
X159956966Y-72691999D01*
X159797947Y-72929987D01*
X159657861Y-72957852D01*
X159411299Y-73122599D01*
X159246552Y-73369161D01*
X159188700Y-73660000D01*
X159188700Y-74490798D01*
X158071898Y-75607600D01*
X157766050Y-74867393D01*
X157166026Y-74266320D01*
X156493245Y-73986957D01*
X159642476Y-70837726D01*
X159797750Y-70993000D01*
X161163000Y-70993000D01*
X161163000Y-70973000D01*
X161417000Y-70973000D01*
X161417000Y-70993000D01*
X162782250Y-70993000D01*
X162941000Y-70834250D01*
X162941000Y-70538600D01*
X164198560Y-70538600D01*
X164198560Y-71374000D01*
X164242838Y-71609317D01*
X164381910Y-71825441D01*
X164594110Y-71970431D01*
X164846000Y-72021440D01*
X165862000Y-72021440D01*
X166097317Y-71977162D01*
X166313441Y-71838090D01*
X166458431Y-71625890D01*
X166496543Y-71437686D01*
X166528838Y-71609317D01*
X166667910Y-71825441D01*
X166880110Y-71970431D01*
X167132000Y-72021440D01*
X168148000Y-72021440D01*
X168383317Y-71977162D01*
X168599441Y-71838090D01*
X168744431Y-71625890D01*
X168783000Y-71435431D01*
X168783000Y-71500310D01*
X168879673Y-71733699D01*
X169058302Y-71912327D01*
X169291691Y-72009000D01*
X169640250Y-72009000D01*
X169799000Y-71850250D01*
X169799000Y-70485000D01*
X170053000Y-70485000D01*
X170053000Y-71850250D01*
X170211750Y-72009000D01*
X170560309Y-72009000D01*
X170793698Y-71912327D01*
X170972327Y-71733699D01*
X171069000Y-71500310D01*
X171069000Y-70643750D01*
X170910250Y-70485000D01*
X170053000Y-70485000D01*
X169799000Y-70485000D01*
X169779000Y-70485000D01*
X169779000Y-70231000D01*
X169799000Y-70231000D01*
X169799000Y-68865750D01*
X170053000Y-68865750D01*
X170053000Y-70231000D01*
X170910250Y-70231000D01*
X171069000Y-70072250D01*
X171069000Y-69215690D01*
X170972327Y-68982301D01*
X170793698Y-68803673D01*
X170560309Y-68707000D01*
X170211750Y-68707000D01*
X170053000Y-68865750D01*
X169799000Y-68865750D01*
X169640250Y-68707000D01*
X169291691Y-68707000D01*
X169058302Y-68803673D01*
X168879673Y-68982301D01*
X168783000Y-69215690D01*
X168783000Y-69275887D01*
X168751162Y-69106683D01*
X168612090Y-68890559D01*
X168399890Y-68745569D01*
X168343809Y-68734212D01*
X168342148Y-68725861D01*
X168177401Y-68479299D01*
X167930839Y-68314552D01*
X167640000Y-68256700D01*
X153420800Y-68256700D01*
X153129961Y-68314552D01*
X153129959Y-68314553D01*
X153129960Y-68314553D01*
X152883398Y-68479299D01*
X141705350Y-79657348D01*
X138545911Y-76497909D01*
X140103900Y-76497909D01*
X140428230Y-77282847D01*
X141028254Y-77883920D01*
X141812625Y-78209619D01*
X142661929Y-78210360D01*
X143446867Y-77886030D01*
X144047940Y-77286006D01*
X144373639Y-76501635D01*
X144374380Y-75652331D01*
X144050050Y-74867393D01*
X143450026Y-74266320D01*
X142665655Y-73940621D01*
X141816351Y-73939880D01*
X141031413Y-74264210D01*
X140430340Y-74864234D01*
X140104641Y-75648605D01*
X140103900Y-76497909D01*
X138545911Y-76497909D01*
X138464728Y-76416726D01*
X138475041Y-76410090D01*
X138620031Y-76197890D01*
X138671040Y-75946000D01*
X138671040Y-73914000D01*
X138626762Y-73678683D01*
X138487690Y-73462559D01*
X138275490Y-73317569D01*
X138023600Y-73266560D01*
X137920000Y-73266560D01*
X137920000Y-72148440D01*
X138023600Y-72148440D01*
X138258917Y-72104162D01*
X138475041Y-71965090D01*
X138620031Y-71752890D01*
X138671040Y-71501000D01*
X138671040Y-69469000D01*
X138626762Y-69233683D01*
X138487690Y-69017559D01*
X138275490Y-68872569D01*
X138023600Y-68821560D01*
X136296400Y-68821560D01*
X136061083Y-68865838D01*
X135844959Y-69004910D01*
X135699969Y-69217110D01*
X135691600Y-69258439D01*
X135679670Y-69240585D01*
X135193489Y-68915729D01*
X134620000Y-68801655D01*
X134046511Y-68915729D01*
X133560330Y-69240585D01*
X133353539Y-69550069D01*
X132982036Y-69134268D01*
X132454791Y-68880291D01*
X132439026Y-68877642D01*
X132207000Y-68998783D01*
X132207000Y-70358000D01*
X132227000Y-70358000D01*
X132227000Y-70612000D01*
X132207000Y-70612000D01*
X132207000Y-71971217D01*
X132439026Y-72092358D01*
X132454791Y-72089709D01*
X132982036Y-71835732D01*
X133353539Y-71419931D01*
X133560330Y-71729415D01*
X134046511Y-72054271D01*
X134620000Y-72168345D01*
X135193489Y-72054271D01*
X135679670Y-71729415D01*
X135689243Y-71715087D01*
X135693238Y-71736317D01*
X135832310Y-71952441D01*
X136044510Y-72097431D01*
X136296400Y-72148440D01*
X136400000Y-72148440D01*
X136400000Y-73266560D01*
X136296400Y-73266560D01*
X136061083Y-73310838D01*
X135844959Y-73449910D01*
X135699969Y-73662110D01*
X135691600Y-73703439D01*
X135679670Y-73685585D01*
X135193489Y-73360729D01*
X134620000Y-73246655D01*
X134046511Y-73360729D01*
X133685051Y-73602249D01*
X133110601Y-73027799D01*
X132864039Y-72863052D01*
X132573200Y-72805200D01*
X119621800Y-72805200D01*
X119330961Y-72863052D01*
X119084399Y-73027799D01*
X117653599Y-74458599D01*
X117488852Y-74705161D01*
X117431000Y-74996000D01*
X117431000Y-79187100D01*
X117488852Y-79477939D01*
X117653599Y-79724501D01*
X119808900Y-81879802D01*
X119808900Y-82169000D01*
X119665750Y-82169000D01*
X119507000Y-82327750D01*
X119507000Y-83693000D01*
X119527000Y-83693000D01*
X119527000Y-83947000D01*
X119507000Y-83947000D01*
X119507000Y-83967000D01*
X119253000Y-83967000D01*
X119253000Y-83947000D01*
X118040150Y-83947000D01*
X117881400Y-84105750D01*
X117881400Y-84962309D01*
X117978073Y-85195698D01*
X118156701Y-85374327D01*
X118390090Y-85471000D01*
X118993898Y-85471000D01*
X118546799Y-85918099D01*
X118382052Y-86164661D01*
X118324200Y-86455500D01*
X118324200Y-87352130D01*
X117161310Y-87352130D01*
X116925993Y-87396408D01*
X116709869Y-87535480D01*
X116564879Y-87747680D01*
X116513870Y-87999570D01*
X116513870Y-89800430D01*
X116558148Y-90035747D01*
X116697220Y-90251871D01*
X116909420Y-90396861D01*
X117161310Y-90447870D01*
X118758970Y-90447870D01*
X118994287Y-90403592D01*
X119030127Y-90380529D01*
X119312799Y-90663201D01*
X119559361Y-90827948D01*
X119850200Y-90885800D01*
X124886636Y-90885800D01*
X124867560Y-90980000D01*
X124867560Y-92980000D01*
X124911838Y-93215317D01*
X125050910Y-93431441D01*
X125118129Y-93477369D01*
X123456021Y-95139477D01*
X123400090Y-95052559D01*
X123237052Y-94941160D01*
X123326385Y-94844818D01*
X123525975Y-94362944D01*
X123406836Y-94107000D01*
X122047000Y-94107000D01*
X122047000Y-94127000D01*
X121793000Y-94127000D01*
X121793000Y-94107000D01*
X120433164Y-94107000D01*
X120314025Y-94362944D01*
X120513615Y-94844818D01*
X120604097Y-94942398D01*
X120452559Y-95039910D01*
X120307569Y-95252110D01*
X120256560Y-95504000D01*
X120256560Y-95838766D01*
X120041299Y-95982599D01*
X115747440Y-100276458D01*
X115747440Y-100020000D01*
X115703162Y-99784683D01*
X115564090Y-99568559D01*
X115351890Y-99423569D01*
X115100000Y-99372560D01*
X113500000Y-99372560D01*
X113264683Y-99416838D01*
X113048559Y-99555910D01*
X112903569Y-99768110D01*
X112852560Y-100020000D01*
X110617000Y-100020000D01*
X110617000Y-92215750D01*
X112865000Y-92215750D01*
X112865000Y-93146309D01*
X112961673Y-93379698D01*
X113140301Y-93558327D01*
X113373690Y-93655000D01*
X114014250Y-93655000D01*
X114173000Y-93496250D01*
X114173000Y-92057000D01*
X114427000Y-92057000D01*
X114427000Y-93496250D01*
X114585750Y-93655000D01*
X115226310Y-93655000D01*
X115366199Y-93597056D01*
X120314025Y-93597056D01*
X120433164Y-93853000D01*
X121793000Y-93853000D01*
X121793000Y-92492633D01*
X122047000Y-92492633D01*
X122047000Y-93853000D01*
X123406836Y-93853000D01*
X123525975Y-93597056D01*
X123326385Y-93115182D01*
X122888379Y-92642812D01*
X122302946Y-92374017D01*
X122047000Y-92492633D01*
X121793000Y-92492633D01*
X121537054Y-92374017D01*
X120951621Y-92642812D01*
X120513615Y-93115182D01*
X120314025Y-93597056D01*
X115366199Y-93597056D01*
X115459699Y-93558327D01*
X115638327Y-93379698D01*
X115735000Y-93146309D01*
X115735000Y-92215750D01*
X115576250Y-92057000D01*
X114427000Y-92057000D01*
X114173000Y-92057000D01*
X113023750Y-92057000D01*
X112865000Y-92215750D01*
X110617000Y-92215750D01*
X110617000Y-90713691D01*
X112865000Y-90713691D01*
X112865000Y-91644250D01*
X113023750Y-91803000D01*
X114173000Y-91803000D01*
X114173000Y-90363750D01*
X114427000Y-90363750D01*
X114427000Y-91803000D01*
X115576250Y-91803000D01*
X115735000Y-91644250D01*
X115735000Y-90713691D01*
X115638327Y-90480302D01*
X115459699Y-90301673D01*
X115226310Y-90205000D01*
X114585750Y-90205000D01*
X114427000Y-90363750D01*
X114173000Y-90363750D01*
X114014250Y-90205000D01*
X113373690Y-90205000D01*
X113140301Y-90301673D01*
X112961673Y-90480302D01*
X112865000Y-90713691D01*
X110617000Y-90713691D01*
X110617000Y-82677691D01*
X117881400Y-82677691D01*
X117881400Y-83534250D01*
X118040150Y-83693000D01*
X119253000Y-83693000D01*
X119253000Y-82327750D01*
X119094250Y-82169000D01*
X118390090Y-82169000D01*
X118156701Y-82265673D01*
X117978073Y-82444302D01*
X117881400Y-82677691D01*
X110617000Y-82677691D01*
X110617000Y-70994017D01*
X110767709Y-71358761D01*
X111517293Y-72109655D01*
X112497173Y-72516536D01*
X113558172Y-72517462D01*
X114538761Y-72112291D01*
X115289655Y-71362707D01*
X115503830Y-70846913D01*
X130594816Y-70846913D01*
X130788046Y-71399320D01*
X131177964Y-71835732D01*
X131705209Y-72089709D01*
X131720974Y-72092358D01*
X131953000Y-71971217D01*
X131953000Y-70612000D01*
X130739076Y-70612000D01*
X130594816Y-70846913D01*
X115503830Y-70846913D01*
X115696536Y-70382827D01*
X115696762Y-70123087D01*
X130594816Y-70123087D01*
X130739076Y-70358000D01*
X131953000Y-70358000D01*
X131953000Y-68998783D01*
X131720974Y-68877642D01*
X131705209Y-68880291D01*
X131177964Y-69134268D01*
X130788046Y-69570680D01*
X130594816Y-70123087D01*
X115696762Y-70123087D01*
X115697462Y-69321828D01*
X115292291Y-68341239D01*
X114542707Y-67590345D01*
X114173411Y-67437000D01*
X183005983Y-67437000D01*
X182641239Y-67587709D01*
X182641239Y-67587709D01*
G37*
X182641239Y-67587709D02*
X181890345Y-68337293D01*
X181483464Y-69317173D01*
X181482538Y-70378172D01*
X181887709Y-71358761D01*
X182637293Y-72109655D01*
X183617173Y-72516536D01*
X184678172Y-72517462D01*
X185658761Y-72112291D01*
X186409655Y-71362707D01*
X186563000Y-70993411D01*
X186563000Y-119505983D01*
X186412291Y-119141239D01*
X185662707Y-118390345D01*
X184682827Y-117983464D01*
X183621828Y-117982538D01*
X182641239Y-118387709D01*
X181890345Y-119137293D01*
X181483464Y-120117173D01*
X181482538Y-121178172D01*
X181887709Y-122158761D01*
X182637293Y-122909655D01*
X183617173Y-123316536D01*
X184678172Y-123317462D01*
X185658761Y-122912291D01*
X186409655Y-122162707D01*
X186563000Y-121793411D01*
X186563000Y-123698000D01*
X110617000Y-123698000D01*
X110617000Y-121794017D01*
X110767709Y-122158761D01*
X111517293Y-122909655D01*
X112497173Y-123316536D01*
X113558172Y-123317462D01*
X114538761Y-122912291D01*
X115289655Y-122162707D01*
X115696536Y-121182827D01*
X115696588Y-121122226D01*
X145404579Y-121122226D01*
X145774504Y-122017514D01*
X146458883Y-122703088D01*
X147353524Y-123074576D01*
X148322226Y-123075421D01*
X149217514Y-122705496D01*
X149903088Y-122021117D01*
X150274576Y-121126476D01*
X150275421Y-120157774D01*
X149905496Y-119262486D01*
X149221117Y-118576912D01*
X148326476Y-118205424D01*
X147357774Y-118204579D01*
X146462486Y-118574504D01*
X145776912Y-119258883D01*
X145405424Y-120153524D01*
X145404579Y-121122226D01*
X115696588Y-121122226D01*
X115697462Y-120121828D01*
X115292291Y-119141239D01*
X114542707Y-118390345D01*
X113562827Y-117983464D01*
X112501828Y-117982538D01*
X111521239Y-118387709D01*
X110770345Y-119137293D01*
X110617000Y-119506589D01*
X110617000Y-107832163D01*
X112057443Y-107832163D01*
X112156042Y-108098965D01*
X112765582Y-108325401D01*
X113415377Y-108301341D01*
X113903958Y-108098965D01*
X114002557Y-107832163D01*
X113030000Y-106859605D01*
X112057443Y-107832163D01*
X110617000Y-107832163D01*
X110617000Y-106415582D01*
X111384599Y-106415582D01*
X111408659Y-107065377D01*
X111611035Y-107553958D01*
X111877837Y-107652557D01*
X112850395Y-106680000D01*
X113209605Y-106680000D01*
X114182163Y-107652557D01*
X114448965Y-107553958D01*
X114675401Y-106944418D01*
X114651341Y-106294623D01*
X114448965Y-105806042D01*
X114182163Y-105707443D01*
X113209605Y-106680000D01*
X112850395Y-106680000D01*
X111877837Y-105707443D01*
X111611035Y-105806042D01*
X111384599Y-106415582D01*
X110617000Y-106415582D01*
X110617000Y-105527837D01*
X112057443Y-105527837D01*
X113030000Y-106500395D01*
X114002557Y-105527837D01*
X113903958Y-105261035D01*
X113294418Y-105034599D01*
X112644623Y-105058659D01*
X112156042Y-105261035D01*
X112057443Y-105527837D01*
X110617000Y-105527837D01*
X110617000Y-100020000D01*
X112852560Y-100020000D01*
X112852560Y-102200000D01*
X112896838Y-102435317D01*
X113035910Y-102651441D01*
X113248110Y-102796431D01*
X113500000Y-102847440D01*
X115100000Y-102847440D01*
X115335317Y-102803162D01*
X115551441Y-102664090D01*
X115696431Y-102451890D01*
X115747440Y-102200000D01*
X115747440Y-101870000D01*
X115988700Y-101870000D01*
X116279539Y-101812148D01*
X116526101Y-101647401D01*
X120340519Y-97832983D01*
X120439910Y-97987441D01*
X120652110Y-98132431D01*
X120904000Y-98183440D01*
X122936000Y-98183440D01*
X123171317Y-98139162D01*
X123200671Y-98120273D01*
X129415000Y-104334602D01*
X129415000Y-105572560D01*
X129375000Y-105572560D01*
X129139683Y-105616838D01*
X128923559Y-105755910D01*
X128778569Y-105968110D01*
X128727560Y-106220000D01*
X128727560Y-107785400D01*
X127664103Y-107785400D01*
X127359001Y-107480299D01*
X127112439Y-107315552D01*
X126821600Y-107257700D01*
X123959800Y-107257700D01*
X123668960Y-107315552D01*
X123422399Y-107480299D01*
X123099199Y-107803499D01*
X123035490Y-107759969D01*
X122783600Y-107708960D01*
X121056400Y-107708960D01*
X120821083Y-107753238D01*
X120604959Y-107892310D01*
X120459969Y-108104510D01*
X120408960Y-108356400D01*
X120408960Y-110083600D01*
X120453238Y-110318917D01*
X120592310Y-110535041D01*
X120804510Y-110680031D01*
X120898375Y-110699039D01*
X120637312Y-110985053D01*
X120465042Y-111400974D01*
X120586183Y-111633000D01*
X121793000Y-111633000D01*
X121793000Y-111613000D01*
X122047000Y-111613000D01*
X122047000Y-111633000D01*
X124333000Y-111633000D01*
X124333000Y-111613000D01*
X124587000Y-111613000D01*
X124587000Y-111633000D01*
X125793817Y-111633000D01*
X125914958Y-111400974D01*
X125742688Y-110985053D01*
X125690512Y-110927890D01*
X125963802Y-110654600D01*
X128740000Y-110654600D01*
X128740000Y-110934250D01*
X128898750Y-111093000D01*
X130048000Y-111093000D01*
X130048000Y-111073000D01*
X130302000Y-111073000D01*
X130302000Y-111093000D01*
X131451250Y-111093000D01*
X131610000Y-110934250D01*
X131610000Y-110654600D01*
X132629600Y-110654600D01*
X132629600Y-112320000D01*
X132635786Y-112351100D01*
X131608016Y-112351100D01*
X131610000Y-112346309D01*
X131610000Y-111505750D01*
X131451250Y-111347000D01*
X130302000Y-111347000D01*
X130302000Y-111367000D01*
X130048000Y-111367000D01*
X130048000Y-111347000D01*
X128898750Y-111347000D01*
X128740000Y-111505750D01*
X128740000Y-112346309D01*
X128741984Y-112351100D01*
X125818835Y-112351100D01*
X125914958Y-112119026D01*
X125793817Y-111887000D01*
X124587000Y-111887000D01*
X124587000Y-111907000D01*
X124333000Y-111907000D01*
X124333000Y-111887000D01*
X122047000Y-111887000D01*
X122047000Y-111907000D01*
X121793000Y-111907000D01*
X121793000Y-111887000D01*
X120586183Y-111887000D01*
X120465042Y-112119026D01*
X120637312Y-112534947D01*
X121031510Y-112966821D01*
X121154228Y-113024336D01*
X120830971Y-113240330D01*
X120506115Y-113726511D01*
X120392041Y-114300000D01*
X120506115Y-114873489D01*
X120830971Y-115359670D01*
X121317152Y-115684526D01*
X121890641Y-115798600D01*
X121949359Y-115798600D01*
X122522848Y-115684526D01*
X123009029Y-115359670D01*
X123190000Y-115088828D01*
X123370971Y-115359670D01*
X123857152Y-115684526D01*
X124430641Y-115798600D01*
X124489359Y-115798600D01*
X125062848Y-115684526D01*
X125549029Y-115359670D01*
X125764646Y-115036976D01*
X125939739Y-115002148D01*
X126186301Y-114837401D01*
X126620502Y-114403200D01*
X129162920Y-114403200D01*
X129118569Y-114468110D01*
X129067560Y-114720000D01*
X129067560Y-116420000D01*
X129111838Y-116655317D01*
X129250910Y-116871441D01*
X129463110Y-117016431D01*
X129715000Y-117067440D01*
X130033767Y-117067440D01*
X130177599Y-117282701D01*
X130424161Y-117447448D01*
X130715000Y-117505300D01*
X135929000Y-117505300D01*
X136219839Y-117447448D01*
X136466401Y-117282701D01*
X137323596Y-116425506D01*
X137366838Y-116655317D01*
X137505910Y-116871441D01*
X137718110Y-117016431D01*
X137970000Y-117067440D01*
X139970000Y-117067440D01*
X140205317Y-117023162D01*
X140421441Y-116884090D01*
X140566431Y-116671890D01*
X140617440Y-116420000D01*
X140617440Y-116251233D01*
X140832701Y-116107401D01*
X140905061Y-116035041D01*
X141159167Y-116035262D01*
X141322560Y-115967750D01*
X141322560Y-116420000D01*
X141366838Y-116655317D01*
X141505910Y-116871441D01*
X141718110Y-117016431D01*
X141970000Y-117067440D01*
X143970000Y-117067440D01*
X144205317Y-117023162D01*
X144421441Y-116884090D01*
X144566431Y-116671890D01*
X144617440Y-116420000D01*
X144617440Y-116251233D01*
X144832701Y-116107401D01*
X144897018Y-116011143D01*
X144918867Y-116011162D01*
X145262643Y-115869117D01*
X145525892Y-115606327D01*
X145668538Y-115262799D01*
X145668862Y-114890833D01*
X145526817Y-114547057D01*
X145383211Y-114403200D01*
X148474901Y-114403200D01*
X148474780Y-114541510D01*
X148667718Y-115008458D01*
X149024663Y-115366026D01*
X149491273Y-115559779D01*
X149996510Y-115560220D01*
X150463458Y-115367282D01*
X150583924Y-115247026D01*
X152372899Y-117036001D01*
X152619461Y-117200748D01*
X152910300Y-117258600D01*
X154025798Y-117258600D01*
X154973530Y-118206332D01*
X154082486Y-118574504D01*
X153396912Y-119258883D01*
X153025424Y-120153524D01*
X153024579Y-121122226D01*
X153394504Y-122017514D01*
X154078883Y-122703088D01*
X154973524Y-123074576D01*
X155942226Y-123075421D01*
X156837514Y-122705496D01*
X157523088Y-122021117D01*
X157894311Y-121127113D01*
X158395599Y-121628401D01*
X158642160Y-121793148D01*
X158933000Y-121851000D01*
X172207700Y-121851000D01*
X172498539Y-121793148D01*
X172745101Y-121628401D01*
X173680519Y-120692983D01*
X173779910Y-120847441D01*
X173992110Y-120992431D01*
X174244000Y-121043440D01*
X175178038Y-121043440D01*
X175442999Y-121308401D01*
X175689561Y-121473148D01*
X175980400Y-121531000D01*
X178340400Y-121531000D01*
X178631239Y-121473148D01*
X178877801Y-121308401D01*
X179705401Y-120480801D01*
X179870148Y-120234239D01*
X179928000Y-119943400D01*
X179928000Y-118801900D01*
X179870148Y-118511061D01*
X179870148Y-118511060D01*
X179705401Y-118264499D01*
X178173101Y-116732199D01*
X177926539Y-116567452D01*
X177635700Y-116509600D01*
X172144802Y-116509600D01*
X167904901Y-112269699D01*
X167658339Y-112104952D01*
X167367500Y-112047100D01*
X167105440Y-112047100D01*
X167105440Y-110220000D01*
X167061162Y-109984683D01*
X166922090Y-109768559D01*
X166709890Y-109623569D01*
X166458000Y-109572560D01*
X164758000Y-109572560D01*
X164522683Y-109616838D01*
X164306559Y-109755910D01*
X164199743Y-109912241D01*
X163968301Y-109680799D01*
X163916269Y-109646033D01*
X164570701Y-108991601D01*
X164666098Y-108848829D01*
X164758000Y-108867440D01*
X166458000Y-108867440D01*
X166693317Y-108823162D01*
X166909441Y-108684090D01*
X167022539Y-108518565D01*
X167222461Y-108652148D01*
X167513300Y-108710000D01*
X173678100Y-108710000D01*
X173576655Y-109220000D01*
X173690729Y-109793489D01*
X174015585Y-110279670D01*
X174325069Y-110486461D01*
X173909268Y-110857964D01*
X173655291Y-111385209D01*
X173652642Y-111400974D01*
X173773783Y-111633000D01*
X175133000Y-111633000D01*
X175133000Y-111613000D01*
X175387000Y-111613000D01*
X175387000Y-111633000D01*
X175407000Y-111633000D01*
X175407000Y-111887000D01*
X175387000Y-111887000D01*
X175387000Y-111907000D01*
X175133000Y-111907000D01*
X175133000Y-111887000D01*
X173773783Y-111887000D01*
X173652642Y-112119026D01*
X173655291Y-112134791D01*
X173909268Y-112662036D01*
X174325069Y-113033539D01*
X174015585Y-113240330D01*
X173690729Y-113726511D01*
X173576655Y-114300000D01*
X173690729Y-114873489D01*
X174015585Y-115359670D01*
X174501766Y-115684526D01*
X175075255Y-115798600D01*
X175444745Y-115798600D01*
X176018234Y-115684526D01*
X176504415Y-115359670D01*
X176829271Y-114873489D01*
X176943345Y-114300000D01*
X176829271Y-113726511D01*
X176593038Y-113372964D01*
X177148401Y-112817601D01*
X177313148Y-112571039D01*
X177371000Y-112280200D01*
X177371000Y-106192800D01*
X177341845Y-106046227D01*
X177313176Y-105902029D01*
X177313155Y-105901998D01*
X177313148Y-105901961D01*
X177230384Y-105778096D01*
X177163110Y-105677392D01*
X180337401Y-102503101D01*
X180502148Y-102256539D01*
X180560000Y-101965700D01*
X180560000Y-97967440D01*
X180800000Y-97967440D01*
X181035317Y-97923162D01*
X181251441Y-97784090D01*
X181396431Y-97571890D01*
X181447440Y-97320000D01*
X181447440Y-97201233D01*
X181662701Y-97057401D01*
X184437501Y-94282601D01*
X184602248Y-94036039D01*
X184660100Y-93745200D01*
X184660100Y-88048900D01*
X184602248Y-87758061D01*
X184437501Y-87511499D01*
X176835517Y-79909515D01*
X176872431Y-79855490D01*
X176923440Y-79603600D01*
X176923440Y-77876400D01*
X176879162Y-77641083D01*
X176740090Y-77424959D01*
X176527890Y-77279969D01*
X176276000Y-77228960D01*
X174244000Y-77228960D01*
X174008683Y-77273238D01*
X173792559Y-77412310D01*
X173647569Y-77624510D01*
X173596560Y-77876400D01*
X173596560Y-77980000D01*
X170115835Y-77980000D01*
X170116240Y-77978000D01*
X170116240Y-75946000D01*
X170071962Y-75710683D01*
X169932890Y-75494559D01*
X169720690Y-75349569D01*
X169468800Y-75298560D01*
X165811200Y-75298560D01*
X165575883Y-75342838D01*
X165359759Y-75481910D01*
X165214769Y-75694110D01*
X165163760Y-75946000D01*
X165163760Y-76676258D01*
X165138901Y-76651399D01*
X164892339Y-76486652D01*
X164601500Y-76428800D01*
X162025440Y-76428800D01*
X162025440Y-76248000D01*
X161981162Y-76012683D01*
X161842090Y-75796559D01*
X161629890Y-75651569D01*
X161378000Y-75600560D01*
X160228542Y-75600560D01*
X160486101Y-75343001D01*
X160602071Y-75169440D01*
X160625845Y-75185325D01*
X161257655Y-75311000D01*
X161322345Y-75311000D01*
X161954155Y-75185325D01*
X162489778Y-74827433D01*
X162847670Y-74291810D01*
X162973345Y-73660000D01*
X162847670Y-73028190D01*
X162623034Y-72691999D01*
X162665698Y-72674327D01*
X162844327Y-72495699D01*
X162941000Y-72262310D01*
X162941000Y-71405750D01*
X162782250Y-71247000D01*
X161417000Y-71247000D01*
X161417000Y-71267000D01*
X161163000Y-71267000D01*
X161163000Y-71247000D01*
X159797750Y-71247000D01*
X159639000Y-71405750D01*
X159639000Y-72262310D01*
X159735673Y-72495699D01*
X159914302Y-72674327D01*
X159956966Y-72691999D01*
X159797947Y-72929987D01*
X159657861Y-72957852D01*
X159411299Y-73122599D01*
X159246552Y-73369161D01*
X159188700Y-73660000D01*
X159188700Y-74490798D01*
X158071898Y-75607600D01*
X157766050Y-74867393D01*
X157166026Y-74266320D01*
X156493245Y-73986957D01*
X159642476Y-70837726D01*
X159797750Y-70993000D01*
X161163000Y-70993000D01*
X161163000Y-70973000D01*
X161417000Y-70973000D01*
X161417000Y-70993000D01*
X162782250Y-70993000D01*
X162941000Y-70834250D01*
X162941000Y-70538600D01*
X164198560Y-70538600D01*
X164198560Y-71374000D01*
X164242838Y-71609317D01*
X164381910Y-71825441D01*
X164594110Y-71970431D01*
X164846000Y-72021440D01*
X165862000Y-72021440D01*
X166097317Y-71977162D01*
X166313441Y-71838090D01*
X166458431Y-71625890D01*
X166496543Y-71437686D01*
X166528838Y-71609317D01*
X166667910Y-71825441D01*
X166880110Y-71970431D01*
X167132000Y-72021440D01*
X168148000Y-72021440D01*
X168383317Y-71977162D01*
X168599441Y-71838090D01*
X168744431Y-71625890D01*
X168783000Y-71435431D01*
X168783000Y-71500310D01*
X168879673Y-71733699D01*
X169058302Y-71912327D01*
X169291691Y-72009000D01*
X169640250Y-72009000D01*
X169799000Y-71850250D01*
X169799000Y-70485000D01*
X170053000Y-70485000D01*
X170053000Y-71850250D01*
X170211750Y-72009000D01*
X170560309Y-72009000D01*
X170793698Y-71912327D01*
X170972327Y-71733699D01*
X171069000Y-71500310D01*
X171069000Y-70643750D01*
X170910250Y-70485000D01*
X170053000Y-70485000D01*
X169799000Y-70485000D01*
X169779000Y-70485000D01*
X169779000Y-70231000D01*
X169799000Y-70231000D01*
X169799000Y-68865750D01*
X170053000Y-68865750D01*
X170053000Y-70231000D01*
X170910250Y-70231000D01*
X171069000Y-70072250D01*
X171069000Y-69215690D01*
X170972327Y-68982301D01*
X170793698Y-68803673D01*
X170560309Y-68707000D01*
X170211750Y-68707000D01*
X170053000Y-68865750D01*
X169799000Y-68865750D01*
X169640250Y-68707000D01*
X169291691Y-68707000D01*
X169058302Y-68803673D01*
X168879673Y-68982301D01*
X168783000Y-69215690D01*
X168783000Y-69275887D01*
X168751162Y-69106683D01*
X168612090Y-68890559D01*
X168399890Y-68745569D01*
X168343809Y-68734212D01*
X168342148Y-68725861D01*
X168177401Y-68479299D01*
X167930839Y-68314552D01*
X167640000Y-68256700D01*
X153420800Y-68256700D01*
X153129961Y-68314552D01*
X153129959Y-68314553D01*
X153129960Y-68314553D01*
X152883398Y-68479299D01*
X141705350Y-79657348D01*
X138545911Y-76497909D01*
X140103900Y-76497909D01*
X140428230Y-77282847D01*
X141028254Y-77883920D01*
X141812625Y-78209619D01*
X142661929Y-78210360D01*
X143446867Y-77886030D01*
X144047940Y-77286006D01*
X144373639Y-76501635D01*
X144374380Y-75652331D01*
X144050050Y-74867393D01*
X143450026Y-74266320D01*
X142665655Y-73940621D01*
X141816351Y-73939880D01*
X141031413Y-74264210D01*
X140430340Y-74864234D01*
X140104641Y-75648605D01*
X140103900Y-76497909D01*
X138545911Y-76497909D01*
X138464728Y-76416726D01*
X138475041Y-76410090D01*
X138620031Y-76197890D01*
X138671040Y-75946000D01*
X138671040Y-73914000D01*
X138626762Y-73678683D01*
X138487690Y-73462559D01*
X138275490Y-73317569D01*
X138023600Y-73266560D01*
X137920000Y-73266560D01*
X137920000Y-72148440D01*
X138023600Y-72148440D01*
X138258917Y-72104162D01*
X138475041Y-71965090D01*
X138620031Y-71752890D01*
X138671040Y-71501000D01*
X138671040Y-69469000D01*
X138626762Y-69233683D01*
X138487690Y-69017559D01*
X138275490Y-68872569D01*
X138023600Y-68821560D01*
X136296400Y-68821560D01*
X136061083Y-68865838D01*
X135844959Y-69004910D01*
X135699969Y-69217110D01*
X135691600Y-69258439D01*
X135679670Y-69240585D01*
X135193489Y-68915729D01*
X134620000Y-68801655D01*
X134046511Y-68915729D01*
X133560330Y-69240585D01*
X133353539Y-69550069D01*
X132982036Y-69134268D01*
X132454791Y-68880291D01*
X132439026Y-68877642D01*
X132207000Y-68998783D01*
X132207000Y-70358000D01*
X132227000Y-70358000D01*
X132227000Y-70612000D01*
X132207000Y-70612000D01*
X132207000Y-71971217D01*
X132439026Y-72092358D01*
X132454791Y-72089709D01*
X132982036Y-71835732D01*
X133353539Y-71419931D01*
X133560330Y-71729415D01*
X134046511Y-72054271D01*
X134620000Y-72168345D01*
X135193489Y-72054271D01*
X135679670Y-71729415D01*
X135689243Y-71715087D01*
X135693238Y-71736317D01*
X135832310Y-71952441D01*
X136044510Y-72097431D01*
X136296400Y-72148440D01*
X136400000Y-72148440D01*
X136400000Y-73266560D01*
X136296400Y-73266560D01*
X136061083Y-73310838D01*
X135844959Y-73449910D01*
X135699969Y-73662110D01*
X135691600Y-73703439D01*
X135679670Y-73685585D01*
X135193489Y-73360729D01*
X134620000Y-73246655D01*
X134046511Y-73360729D01*
X133685051Y-73602249D01*
X133110601Y-73027799D01*
X132864039Y-72863052D01*
X132573200Y-72805200D01*
X119621800Y-72805200D01*
X119330961Y-72863052D01*
X119084399Y-73027799D01*
X117653599Y-74458599D01*
X117488852Y-74705161D01*
X117431000Y-74996000D01*
X117431000Y-79187100D01*
X117488852Y-79477939D01*
X117653599Y-79724501D01*
X119808900Y-81879802D01*
X119808900Y-82169000D01*
X119665750Y-82169000D01*
X119507000Y-82327750D01*
X119507000Y-83693000D01*
X119527000Y-83693000D01*
X119527000Y-83947000D01*
X119507000Y-83947000D01*
X119507000Y-83967000D01*
X119253000Y-83967000D01*
X119253000Y-83947000D01*
X118040150Y-83947000D01*
X117881400Y-84105750D01*
X117881400Y-84962309D01*
X117978073Y-85195698D01*
X118156701Y-85374327D01*
X118390090Y-85471000D01*
X118993898Y-85471000D01*
X118546799Y-85918099D01*
X118382052Y-86164661D01*
X118324200Y-86455500D01*
X118324200Y-87352130D01*
X117161310Y-87352130D01*
X116925993Y-87396408D01*
X116709869Y-87535480D01*
X116564879Y-87747680D01*
X116513870Y-87999570D01*
X116513870Y-89800430D01*
X116558148Y-90035747D01*
X116697220Y-90251871D01*
X116909420Y-90396861D01*
X117161310Y-90447870D01*
X118758970Y-90447870D01*
X118994287Y-90403592D01*
X119030127Y-90380529D01*
X119312799Y-90663201D01*
X119559361Y-90827948D01*
X119850200Y-90885800D01*
X124886636Y-90885800D01*
X124867560Y-90980000D01*
X124867560Y-92980000D01*
X124911838Y-93215317D01*
X125050910Y-93431441D01*
X125118129Y-93477369D01*
X123456021Y-95139477D01*
X123400090Y-95052559D01*
X123237052Y-94941160D01*
X123326385Y-94844818D01*
X123525975Y-94362944D01*
X123406836Y-94107000D01*
X122047000Y-94107000D01*
X122047000Y-94127000D01*
X121793000Y-94127000D01*
X121793000Y-94107000D01*
X120433164Y-94107000D01*
X120314025Y-94362944D01*
X120513615Y-94844818D01*
X120604097Y-94942398D01*
X120452559Y-95039910D01*
X120307569Y-95252110D01*
X120256560Y-95504000D01*
X120256560Y-95838766D01*
X120041299Y-95982599D01*
X115747440Y-100276458D01*
X115747440Y-100020000D01*
X115703162Y-99784683D01*
X115564090Y-99568559D01*
X115351890Y-99423569D01*
X115100000Y-99372560D01*
X113500000Y-99372560D01*
X113264683Y-99416838D01*
X113048559Y-99555910D01*
X112903569Y-99768110D01*
X112852560Y-100020000D01*
X110617000Y-100020000D01*
X110617000Y-92215750D01*
X112865000Y-92215750D01*
X112865000Y-93146309D01*
X112961673Y-93379698D01*
X113140301Y-93558327D01*
X113373690Y-93655000D01*
X114014250Y-93655000D01*
X114173000Y-93496250D01*
X114173000Y-92057000D01*
X114427000Y-92057000D01*
X114427000Y-93496250D01*
X114585750Y-93655000D01*
X115226310Y-93655000D01*
X115366199Y-93597056D01*
X120314025Y-93597056D01*
X120433164Y-93853000D01*
X121793000Y-93853000D01*
X121793000Y-92492633D01*
X122047000Y-92492633D01*
X122047000Y-93853000D01*
X123406836Y-93853000D01*
X123525975Y-93597056D01*
X123326385Y-93115182D01*
X122888379Y-92642812D01*
X122302946Y-92374017D01*
X122047000Y-92492633D01*
X121793000Y-92492633D01*
X121537054Y-92374017D01*
X120951621Y-92642812D01*
X120513615Y-93115182D01*
X120314025Y-93597056D01*
X115366199Y-93597056D01*
X115459699Y-93558327D01*
X115638327Y-93379698D01*
X115735000Y-93146309D01*
X115735000Y-92215750D01*
X115576250Y-92057000D01*
X114427000Y-92057000D01*
X114173000Y-92057000D01*
X113023750Y-92057000D01*
X112865000Y-92215750D01*
X110617000Y-92215750D01*
X110617000Y-90713691D01*
X112865000Y-90713691D01*
X112865000Y-91644250D01*
X113023750Y-91803000D01*
X114173000Y-91803000D01*
X114173000Y-90363750D01*
X114427000Y-90363750D01*
X114427000Y-91803000D01*
X115576250Y-91803000D01*
X115735000Y-91644250D01*
X115735000Y-90713691D01*
X115638327Y-90480302D01*
X115459699Y-90301673D01*
X115226310Y-90205000D01*
X114585750Y-90205000D01*
X114427000Y-90363750D01*
X114173000Y-90363750D01*
X114014250Y-90205000D01*
X113373690Y-90205000D01*
X113140301Y-90301673D01*
X112961673Y-90480302D01*
X112865000Y-90713691D01*
X110617000Y-90713691D01*
X110617000Y-82677691D01*
X117881400Y-82677691D01*
X117881400Y-83534250D01*
X118040150Y-83693000D01*
X119253000Y-83693000D01*
X119253000Y-82327750D01*
X119094250Y-82169000D01*
X118390090Y-82169000D01*
X118156701Y-82265673D01*
X117978073Y-82444302D01*
X117881400Y-82677691D01*
X110617000Y-82677691D01*
X110617000Y-70994017D01*
X110767709Y-71358761D01*
X111517293Y-72109655D01*
X112497173Y-72516536D01*
X113558172Y-72517462D01*
X114538761Y-72112291D01*
X115289655Y-71362707D01*
X115503830Y-70846913D01*
X130594816Y-70846913D01*
X130788046Y-71399320D01*
X131177964Y-71835732D01*
X131705209Y-72089709D01*
X131720974Y-72092358D01*
X131953000Y-71971217D01*
X131953000Y-70612000D01*
X130739076Y-70612000D01*
X130594816Y-70846913D01*
X115503830Y-70846913D01*
X115696536Y-70382827D01*
X115696762Y-70123087D01*
X130594816Y-70123087D01*
X130739076Y-70358000D01*
X131953000Y-70358000D01*
X131953000Y-68998783D01*
X131720974Y-68877642D01*
X131705209Y-68880291D01*
X131177964Y-69134268D01*
X130788046Y-69570680D01*
X130594816Y-70123087D01*
X115696762Y-70123087D01*
X115697462Y-69321828D01*
X115292291Y-68341239D01*
X114542707Y-67590345D01*
X114173411Y-67437000D01*
X183005983Y-67437000D01*
X182641239Y-67587709D01*
G36*
X163835302Y-113596673D02*
X163656673Y-113775301D01*
X163560000Y-114008690D01*
X163560000Y-114649250D01*
X163718750Y-114808000D01*
X165068000Y-114808000D01*
X165068000Y-114788000D01*
X165322000Y-114788000D01*
X165322000Y-114808000D01*
X166671250Y-114808000D01*
X166830000Y-114649250D01*
X166830000Y-114008690D01*
X166733327Y-113775301D01*
X166554698Y-113596673D01*
X166483303Y-113567100D01*
X167052698Y-113567100D01*
X171292599Y-117807001D01*
X171539161Y-117971748D01*
X171830000Y-118029600D01*
X173703946Y-118029600D01*
X173647569Y-118112110D01*
X173596560Y-118364000D01*
X173596560Y-118698766D01*
X173381299Y-118842599D01*
X171892898Y-120331000D01*
X167328850Y-120331000D01*
X167328850Y-120300750D01*
X167170100Y-120142000D01*
X165320980Y-120142000D01*
X165320980Y-120162000D01*
X165066980Y-120162000D01*
X165066980Y-120142000D01*
X165046980Y-120142000D01*
X165046980Y-119888000D01*
X165066980Y-119888000D01*
X165066980Y-118788180D01*
X165320980Y-118788180D01*
X165320980Y-119888000D01*
X167170100Y-119888000D01*
X167328850Y-119729250D01*
X167328850Y-119138120D01*
X167232177Y-118904731D01*
X167053548Y-118726103D01*
X166820159Y-118629430D01*
X165479730Y-118629430D01*
X165320980Y-118788180D01*
X165066980Y-118788180D01*
X164908230Y-118629430D01*
X163567801Y-118629430D01*
X163334412Y-118726103D01*
X163194257Y-118866257D01*
X163159980Y-118812989D01*
X162947780Y-118667999D01*
X162695890Y-118616990D01*
X161956000Y-118616990D01*
X161956000Y-116382440D01*
X162195000Y-116382440D01*
X162430317Y-116338162D01*
X162646441Y-116199090D01*
X162791431Y-115986890D01*
X162842440Y-115735000D01*
X162842440Y-115220750D01*
X163560000Y-115220750D01*
X163560000Y-115861310D01*
X163656673Y-116094699D01*
X163835302Y-116273327D01*
X164068691Y-116370000D01*
X164909250Y-116370000D01*
X165068000Y-116211250D01*
X165068000Y-115062000D01*
X165322000Y-115062000D01*
X165322000Y-116211250D01*
X165480750Y-116370000D01*
X166321309Y-116370000D01*
X166554698Y-116273327D01*
X166733327Y-116094699D01*
X166830000Y-115861310D01*
X166830000Y-115220750D01*
X166671250Y-115062000D01*
X165322000Y-115062000D01*
X165068000Y-115062000D01*
X163718750Y-115062000D01*
X163560000Y-115220750D01*
X162842440Y-115220750D01*
X162842440Y-114135000D01*
X162798162Y-113899683D01*
X162659090Y-113683559D01*
X162488647Y-113567100D01*
X163906697Y-113567100D01*
X163835302Y-113596673D01*
X163835302Y-113596673D01*
G37*
X163835302Y-113596673D02*
X163656673Y-113775301D01*
X163560000Y-114008690D01*
X163560000Y-114649250D01*
X163718750Y-114808000D01*
X165068000Y-114808000D01*
X165068000Y-114788000D01*
X165322000Y-114788000D01*
X165322000Y-114808000D01*
X166671250Y-114808000D01*
X166830000Y-114649250D01*
X166830000Y-114008690D01*
X166733327Y-113775301D01*
X166554698Y-113596673D01*
X166483303Y-113567100D01*
X167052698Y-113567100D01*
X171292599Y-117807001D01*
X171539161Y-117971748D01*
X171830000Y-118029600D01*
X173703946Y-118029600D01*
X173647569Y-118112110D01*
X173596560Y-118364000D01*
X173596560Y-118698766D01*
X173381299Y-118842599D01*
X171892898Y-120331000D01*
X167328850Y-120331000D01*
X167328850Y-120300750D01*
X167170100Y-120142000D01*
X165320980Y-120142000D01*
X165320980Y-120162000D01*
X165066980Y-120162000D01*
X165066980Y-120142000D01*
X165046980Y-120142000D01*
X165046980Y-119888000D01*
X165066980Y-119888000D01*
X165066980Y-118788180D01*
X165320980Y-118788180D01*
X165320980Y-119888000D01*
X167170100Y-119888000D01*
X167328850Y-119729250D01*
X167328850Y-119138120D01*
X167232177Y-118904731D01*
X167053548Y-118726103D01*
X166820159Y-118629430D01*
X165479730Y-118629430D01*
X165320980Y-118788180D01*
X165066980Y-118788180D01*
X164908230Y-118629430D01*
X163567801Y-118629430D01*
X163334412Y-118726103D01*
X163194257Y-118866257D01*
X163159980Y-118812989D01*
X162947780Y-118667999D01*
X162695890Y-118616990D01*
X161956000Y-118616990D01*
X161956000Y-116382440D01*
X162195000Y-116382440D01*
X162430317Y-116338162D01*
X162646441Y-116199090D01*
X162791431Y-115986890D01*
X162842440Y-115735000D01*
X162842440Y-115220750D01*
X163560000Y-115220750D01*
X163560000Y-115861310D01*
X163656673Y-116094699D01*
X163835302Y-116273327D01*
X164068691Y-116370000D01*
X164909250Y-116370000D01*
X165068000Y-116211250D01*
X165068000Y-115062000D01*
X165322000Y-115062000D01*
X165322000Y-116211250D01*
X165480750Y-116370000D01*
X166321309Y-116370000D01*
X166554698Y-116273327D01*
X166733327Y-116094699D01*
X166830000Y-115861310D01*
X166830000Y-115220750D01*
X166671250Y-115062000D01*
X165322000Y-115062000D01*
X165068000Y-115062000D01*
X163718750Y-115062000D01*
X163560000Y-115220750D01*
X162842440Y-115220750D01*
X162842440Y-114135000D01*
X162798162Y-113899683D01*
X162659090Y-113683559D01*
X162488647Y-113567100D01*
X163906697Y-113567100D01*
X163835302Y-113596673D01*
G36*
X177927000Y-119253000D02*
X177947000Y-119253000D01*
X177947000Y-119507000D01*
X177927000Y-119507000D01*
X177927000Y-119527000D01*
X177673000Y-119527000D01*
X177673000Y-119507000D01*
X177653000Y-119507000D01*
X177653000Y-119253000D01*
X177673000Y-119253000D01*
X177673000Y-119233000D01*
X177927000Y-119233000D01*
X177927000Y-119253000D01*
X177927000Y-119253000D01*
G37*
X177927000Y-119253000D02*
X177947000Y-119253000D01*
X177947000Y-119507000D01*
X177927000Y-119507000D01*
X177927000Y-119527000D01*
X177673000Y-119527000D01*
X177673000Y-119507000D01*
X177653000Y-119507000D01*
X177653000Y-119253000D01*
X177673000Y-119253000D01*
X177673000Y-119233000D01*
X177927000Y-119233000D01*
X177927000Y-119253000D01*
G36*
X156846399Y-113344501D02*
X157092960Y-113509248D01*
X157383800Y-113567100D01*
X159904884Y-113567100D01*
X159743559Y-113670910D01*
X159598569Y-113883110D01*
X159547560Y-114135000D01*
X159547560Y-114737600D01*
X153474276Y-114737600D01*
X153554779Y-114543727D01*
X153555220Y-114038490D01*
X153362282Y-113571542D01*
X153045000Y-113253706D01*
X153045000Y-112927346D01*
X153377664Y-113042681D01*
X153882023Y-113012906D01*
X154209697Y-112877179D01*
X154263528Y-112648133D01*
X153555000Y-111939605D01*
X153540858Y-111953748D01*
X153361253Y-111774143D01*
X153375395Y-111760000D01*
X153361253Y-111745858D01*
X153540858Y-111566253D01*
X153555000Y-111580395D01*
X153569143Y-111566253D01*
X153748748Y-111745858D01*
X153734605Y-111760000D01*
X154443133Y-112468528D01*
X154672179Y-112414697D01*
X154837681Y-111937336D01*
X154807906Y-111432977D01*
X154718125Y-111216227D01*
X156846399Y-113344501D01*
X156846399Y-113344501D01*
G37*
X156846399Y-113344501D02*
X157092960Y-113509248D01*
X157383800Y-113567100D01*
X159904884Y-113567100D01*
X159743559Y-113670910D01*
X159598569Y-113883110D01*
X159547560Y-114135000D01*
X159547560Y-114737600D01*
X153474276Y-114737600D01*
X153554779Y-114543727D01*
X153555220Y-114038490D01*
X153362282Y-113571542D01*
X153045000Y-113253706D01*
X153045000Y-112927346D01*
X153377664Y-113042681D01*
X153882023Y-113012906D01*
X154209697Y-112877179D01*
X154263528Y-112648133D01*
X153555000Y-111939605D01*
X153540858Y-111953748D01*
X153361253Y-111774143D01*
X153375395Y-111760000D01*
X153361253Y-111745858D01*
X153540858Y-111566253D01*
X153555000Y-111580395D01*
X153569143Y-111566253D01*
X153748748Y-111745858D01*
X153734605Y-111760000D01*
X154443133Y-112468528D01*
X154672179Y-112414697D01*
X154837681Y-111937336D01*
X154807906Y-111432977D01*
X154718125Y-111216227D01*
X156846399Y-113344501D01*
G36*
X159030560Y-78248000D02*
X159074838Y-78483317D01*
X159213910Y-78699441D01*
X159426110Y-78844431D01*
X159678000Y-78895440D01*
X159794032Y-78895440D01*
X159707762Y-79103201D01*
X159707438Y-79475167D01*
X159759249Y-79600560D01*
X159678000Y-79600560D01*
X159442683Y-79644838D01*
X159226559Y-79783910D01*
X159081569Y-79996110D01*
X159030560Y-80248000D01*
X159030560Y-82248000D01*
X159065639Y-82434430D01*
X157732730Y-82434430D01*
X157573980Y-82593180D01*
X157573980Y-83693000D01*
X159423100Y-83693000D01*
X159581850Y-83534250D01*
X159581850Y-82943120D01*
X159551488Y-82869821D01*
X159678000Y-82895440D01*
X161378000Y-82895440D01*
X161613317Y-82851162D01*
X161829441Y-82712090D01*
X161974431Y-82499890D01*
X162025440Y-82248000D01*
X162025440Y-82008000D01*
X162034398Y-82008000D01*
X162072408Y-82210007D01*
X162211480Y-82426131D01*
X162423680Y-82571121D01*
X162675570Y-82622130D01*
X164476430Y-82622130D01*
X164711747Y-82577852D01*
X164927871Y-82438780D01*
X165072861Y-82226580D01*
X165123870Y-81974690D01*
X165123870Y-80377030D01*
X165094379Y-80220300D01*
X165305025Y-80220300D01*
X165262560Y-80430000D01*
X165262560Y-82130000D01*
X165306838Y-82365317D01*
X165445910Y-82581441D01*
X165658110Y-82726431D01*
X165910000Y-82777440D01*
X167910000Y-82777440D01*
X168145317Y-82733162D01*
X168361441Y-82594090D01*
X168506431Y-82381890D01*
X168557440Y-82130000D01*
X168557440Y-80430000D01*
X168513162Y-80194683D01*
X168374090Y-79978559D01*
X168161890Y-79833569D01*
X167910000Y-79782560D01*
X167591234Y-79782560D01*
X167447401Y-79567299D01*
X167380102Y-79500000D01*
X173596560Y-79500000D01*
X173596560Y-79603600D01*
X173640838Y-79838917D01*
X173779910Y-80055041D01*
X173992110Y-80200031D01*
X174086927Y-80219232D01*
X173909268Y-80377964D01*
X173655291Y-80905209D01*
X173652642Y-80920974D01*
X173773783Y-81153000D01*
X175133000Y-81153000D01*
X175133000Y-81133000D01*
X175387000Y-81133000D01*
X175387000Y-81153000D01*
X175407000Y-81153000D01*
X175407000Y-81407000D01*
X175387000Y-81407000D01*
X175387000Y-83693000D01*
X176746217Y-83693000D01*
X176867358Y-83460974D01*
X176864709Y-83445209D01*
X176610732Y-82917964D01*
X176198892Y-82550000D01*
X176610732Y-82182036D01*
X176723771Y-81947373D01*
X183140100Y-88363702D01*
X183140100Y-89892130D01*
X181977030Y-89892130D01*
X181778153Y-89929551D01*
X177671201Y-85822599D01*
X177424639Y-85657852D01*
X177133800Y-85600000D01*
X176704648Y-85600000D01*
X176504415Y-85300330D01*
X176194931Y-85093539D01*
X176610732Y-84722036D01*
X176864709Y-84194791D01*
X176867358Y-84179026D01*
X176746217Y-83947000D01*
X175387000Y-83947000D01*
X175387000Y-83967000D01*
X175133000Y-83967000D01*
X175133000Y-83947000D01*
X173773783Y-83947000D01*
X173652642Y-84179026D01*
X173655291Y-84194791D01*
X173909268Y-84722036D01*
X174325069Y-85093539D01*
X174015585Y-85300330D01*
X173690729Y-85786511D01*
X173576655Y-86360000D01*
X173690729Y-86933489D01*
X174015585Y-87419670D01*
X174501766Y-87744526D01*
X175075255Y-87858600D01*
X175444745Y-87858600D01*
X176018234Y-87744526D01*
X176504415Y-87419670D01*
X176704648Y-87120000D01*
X176818998Y-87120000D01*
X179591128Y-89892130D01*
X179137310Y-89892130D01*
X178901993Y-89936408D01*
X178685869Y-90075480D01*
X178668651Y-90100679D01*
X178511890Y-89993569D01*
X178260000Y-89942560D01*
X176260000Y-89942560D01*
X176024683Y-89986838D01*
X175808559Y-90125910D01*
X175663569Y-90338110D01*
X175612560Y-90590000D01*
X175612560Y-92290000D01*
X175656838Y-92525317D01*
X175795910Y-92741441D01*
X176008110Y-92886431D01*
X176260000Y-92937440D01*
X178260000Y-92937440D01*
X178495317Y-92893162D01*
X178667219Y-92782546D01*
X178673220Y-92791871D01*
X178885420Y-92936861D01*
X179137310Y-92987870D01*
X180734970Y-92987870D01*
X180970287Y-92943592D01*
X181186411Y-92804520D01*
X181331401Y-92592320D01*
X181355030Y-92475634D01*
X181373868Y-92575747D01*
X181512940Y-92791871D01*
X181725140Y-92936861D01*
X181977030Y-92987870D01*
X183140100Y-92987870D01*
X183140100Y-93430398D01*
X181278909Y-95291589D01*
X181264090Y-95268559D01*
X181051890Y-95123569D01*
X180800000Y-95072560D01*
X178800000Y-95072560D01*
X178564683Y-95116838D01*
X178348559Y-95255910D01*
X178203569Y-95468110D01*
X178152560Y-95720000D01*
X178152560Y-97320000D01*
X178196838Y-97555317D01*
X178335910Y-97771441D01*
X178548110Y-97916431D01*
X178800000Y-97967440D01*
X179040000Y-97967440D01*
X179040000Y-101650898D01*
X176923440Y-103767458D01*
X176923440Y-103276400D01*
X176879162Y-103041083D01*
X176740090Y-102824959D01*
X176527890Y-102679969D01*
X176276000Y-102628960D01*
X174244000Y-102628960D01*
X174008683Y-102673238D01*
X173792559Y-102812310D01*
X173647569Y-103024510D01*
X173596560Y-103276400D01*
X173596560Y-104677800D01*
X166842440Y-104677800D01*
X166842440Y-103290000D01*
X166798162Y-103054683D01*
X166659090Y-102838559D01*
X166446890Y-102693569D01*
X166195000Y-102642560D01*
X164195000Y-102642560D01*
X163959683Y-102686838D01*
X163743559Y-102825910D01*
X163598569Y-103038110D01*
X163547560Y-103290000D01*
X163547560Y-103458767D01*
X163332299Y-103602599D01*
X163246957Y-103730323D01*
X163103142Y-103670606D01*
X163057701Y-103602599D01*
X162842440Y-103458767D01*
X162842440Y-103290000D01*
X162798162Y-103054683D01*
X162659090Y-102838559D01*
X162446890Y-102693569D01*
X162304513Y-102664737D01*
X162433000Y-102536250D01*
X162433000Y-101187000D01*
X162687000Y-101187000D01*
X162687000Y-102536250D01*
X162845750Y-102695000D01*
X163486310Y-102695000D01*
X163719699Y-102598327D01*
X163898327Y-102419698D01*
X163995000Y-102186309D01*
X163995000Y-101345750D01*
X163836250Y-101187000D01*
X162687000Y-101187000D01*
X162433000Y-101187000D01*
X160147000Y-101187000D01*
X160147000Y-101207000D01*
X159893000Y-101207000D01*
X159893000Y-101187000D01*
X158743750Y-101187000D01*
X158585000Y-101345750D01*
X158585000Y-102186309D01*
X158681673Y-102419698D01*
X158860301Y-102598327D01*
X158977695Y-102646953D01*
X158956000Y-102642560D01*
X158637233Y-102642560D01*
X158493401Y-102427299D01*
X158246839Y-102262552D01*
X157956000Y-102204700D01*
X153856202Y-102204700D01*
X152950102Y-101298600D01*
X155162800Y-101298600D01*
X155453639Y-101240748D01*
X155700201Y-101076001D01*
X156842511Y-99933691D01*
X158585000Y-99933691D01*
X158585000Y-100774250D01*
X158743750Y-100933000D01*
X159893000Y-100933000D01*
X159893000Y-99583750D01*
X160147000Y-99583750D01*
X160147000Y-100933000D01*
X162433000Y-100933000D01*
X162433000Y-99583750D01*
X162687000Y-99583750D01*
X162687000Y-100933000D01*
X163836250Y-100933000D01*
X163995000Y-100774250D01*
X163995000Y-99933691D01*
X163898327Y-99700302D01*
X163719699Y-99521673D01*
X163486310Y-99425000D01*
X162845750Y-99425000D01*
X162687000Y-99583750D01*
X162433000Y-99583750D01*
X162274250Y-99425000D01*
X161633690Y-99425000D01*
X161400301Y-99521673D01*
X161290000Y-99631975D01*
X161179699Y-99521673D01*
X160946310Y-99425000D01*
X160305750Y-99425000D01*
X160147000Y-99583750D01*
X159893000Y-99583750D01*
X159734250Y-99425000D01*
X159093690Y-99425000D01*
X158860301Y-99521673D01*
X158681673Y-99700302D01*
X158585000Y-99933691D01*
X156842511Y-99933691D01*
X158526580Y-98249622D01*
X158572067Y-98249662D01*
X158605637Y-98235791D01*
X158616838Y-98295317D01*
X158755910Y-98511441D01*
X158968110Y-98656431D01*
X159220000Y-98707440D01*
X160820000Y-98707440D01*
X161055317Y-98663162D01*
X161271441Y-98524090D01*
X161288234Y-98499512D01*
X161295910Y-98511441D01*
X161508110Y-98656431D01*
X161760000Y-98707440D01*
X163360000Y-98707440D01*
X163595317Y-98663162D01*
X163811441Y-98524090D01*
X163956431Y-98311890D01*
X164007440Y-98060000D01*
X164007440Y-97322142D01*
X164868099Y-98182801D01*
X165114660Y-98347548D01*
X165405500Y-98405400D01*
X168743800Y-98405400D01*
X169034639Y-98347548D01*
X169281201Y-98182801D01*
X169407801Y-98056201D01*
X169572548Y-97809640D01*
X169598395Y-97679699D01*
X169630400Y-97518800D01*
X169630400Y-96805750D01*
X169910000Y-96805750D01*
X169910000Y-97446310D01*
X170006673Y-97679699D01*
X170185302Y-97858327D01*
X170418691Y-97955000D01*
X171259250Y-97955000D01*
X171418000Y-97796250D01*
X171418000Y-96647000D01*
X171672000Y-96647000D01*
X171672000Y-97796250D01*
X171830750Y-97955000D01*
X172671309Y-97955000D01*
X172904698Y-97858327D01*
X173083327Y-97679699D01*
X173180000Y-97446310D01*
X173180000Y-96805750D01*
X174165000Y-96805750D01*
X174165000Y-97446310D01*
X174261673Y-97679699D01*
X174440302Y-97858327D01*
X174673691Y-97955000D01*
X175514250Y-97955000D01*
X175673000Y-97796250D01*
X175673000Y-96647000D01*
X175927000Y-96647000D01*
X175927000Y-97796250D01*
X176085750Y-97955000D01*
X176926309Y-97955000D01*
X177159698Y-97858327D01*
X177338327Y-97679699D01*
X177435000Y-97446310D01*
X177435000Y-96805750D01*
X177276250Y-96647000D01*
X175927000Y-96647000D01*
X175673000Y-96647000D01*
X174323750Y-96647000D01*
X174165000Y-96805750D01*
X173180000Y-96805750D01*
X173021250Y-96647000D01*
X171672000Y-96647000D01*
X171418000Y-96647000D01*
X170068750Y-96647000D01*
X169910000Y-96805750D01*
X169630400Y-96805750D01*
X169630400Y-95593690D01*
X169910000Y-95593690D01*
X169910000Y-96234250D01*
X170068750Y-96393000D01*
X171418000Y-96393000D01*
X171418000Y-95243750D01*
X171672000Y-95243750D01*
X171672000Y-96393000D01*
X173021250Y-96393000D01*
X173180000Y-96234250D01*
X173180000Y-95593690D01*
X174165000Y-95593690D01*
X174165000Y-96234250D01*
X174323750Y-96393000D01*
X175673000Y-96393000D01*
X175673000Y-95243750D01*
X175927000Y-95243750D01*
X175927000Y-96393000D01*
X177276250Y-96393000D01*
X177435000Y-96234250D01*
X177435000Y-95593690D01*
X177338327Y-95360301D01*
X177159698Y-95181673D01*
X176926309Y-95085000D01*
X176085750Y-95085000D01*
X175927000Y-95243750D01*
X175673000Y-95243750D01*
X175514250Y-95085000D01*
X174673691Y-95085000D01*
X174440302Y-95181673D01*
X174261673Y-95360301D01*
X174165000Y-95593690D01*
X173180000Y-95593690D01*
X173083327Y-95360301D01*
X172904698Y-95181673D01*
X172671309Y-95085000D01*
X171830750Y-95085000D01*
X171672000Y-95243750D01*
X171418000Y-95243750D01*
X171259250Y-95085000D01*
X170418691Y-95085000D01*
X170185302Y-95181673D01*
X170006673Y-95360301D01*
X169910000Y-95593690D01*
X169630400Y-95593690D01*
X169630400Y-94504000D01*
X169572548Y-94213161D01*
X169407801Y-93966599D01*
X168810000Y-93368798D01*
X168810000Y-92317570D01*
X169607230Y-92317570D01*
X169765980Y-92158820D01*
X169765980Y-91059000D01*
X169745980Y-91059000D01*
X169745980Y-90805000D01*
X169765980Y-90805000D01*
X169765980Y-89705180D01*
X170019980Y-89705180D01*
X170019980Y-90805000D01*
X170039980Y-90805000D01*
X170039980Y-91059000D01*
X170019980Y-91059000D01*
X170019980Y-92158820D01*
X170178730Y-92317570D01*
X171519159Y-92317570D01*
X171625000Y-92273729D01*
X171625000Y-92416310D01*
X171721673Y-92649699D01*
X171900302Y-92828327D01*
X172133691Y-92925000D01*
X172974250Y-92925000D01*
X173133000Y-92766250D01*
X173133000Y-91567000D01*
X173387000Y-91567000D01*
X173387000Y-92766250D01*
X173545750Y-92925000D01*
X174386309Y-92925000D01*
X174619698Y-92828327D01*
X174798327Y-92649699D01*
X174895000Y-92416310D01*
X174895000Y-91725750D01*
X174736250Y-91567000D01*
X173387000Y-91567000D01*
X173133000Y-91567000D01*
X173113000Y-91567000D01*
X173113000Y-91313000D01*
X173133000Y-91313000D01*
X173133000Y-90113750D01*
X173387000Y-90113750D01*
X173387000Y-91313000D01*
X174736250Y-91313000D01*
X174895000Y-91154250D01*
X174895000Y-90463690D01*
X174798327Y-90230301D01*
X174619698Y-90051673D01*
X174386309Y-89955000D01*
X173545750Y-89955000D01*
X173387000Y-90113750D01*
X173133000Y-90113750D01*
X172974250Y-89955000D01*
X172133691Y-89955000D01*
X172007952Y-90007083D01*
X171931177Y-89821731D01*
X171752548Y-89643103D01*
X171519159Y-89546430D01*
X170178730Y-89546430D01*
X170019980Y-89705180D01*
X169765980Y-89705180D01*
X169607230Y-89546430D01*
X168810000Y-89546430D01*
X168810000Y-87025027D01*
X168810910Y-87026441D01*
X169023110Y-87171431D01*
X169275000Y-87222440D01*
X171275000Y-87222440D01*
X171510317Y-87178162D01*
X171726441Y-87039090D01*
X171871431Y-86826890D01*
X171922440Y-86575000D01*
X171922440Y-84875000D01*
X171878162Y-84639683D01*
X171739090Y-84423559D01*
X171526890Y-84278569D01*
X171275000Y-84227560D01*
X170212542Y-84227560D01*
X171447401Y-82992701D01*
X171591233Y-82777440D01*
X171910000Y-82777440D01*
X172145317Y-82733162D01*
X172361441Y-82594090D01*
X172506431Y-82381890D01*
X172557440Y-82130000D01*
X172557440Y-81639026D01*
X173652642Y-81639026D01*
X173655291Y-81654791D01*
X173909268Y-82182036D01*
X174321108Y-82550000D01*
X173909268Y-82917964D01*
X173655291Y-83445209D01*
X173652642Y-83460974D01*
X173773783Y-83693000D01*
X175133000Y-83693000D01*
X175133000Y-81407000D01*
X173773783Y-81407000D01*
X173652642Y-81639026D01*
X172557440Y-81639026D01*
X172557440Y-80430000D01*
X172513162Y-80194683D01*
X172374090Y-79978559D01*
X172161890Y-79833569D01*
X171910000Y-79782560D01*
X169910000Y-79782560D01*
X169674683Y-79826838D01*
X169458559Y-79965910D01*
X169313569Y-80178110D01*
X169262560Y-80430000D01*
X169262560Y-82130000D01*
X169306838Y-82365317D01*
X169445910Y-82581441D01*
X169602241Y-82688257D01*
X167789147Y-84501351D01*
X167739090Y-84423559D01*
X167526890Y-84278569D01*
X167275000Y-84227560D01*
X165275000Y-84227560D01*
X165039683Y-84271838D01*
X164823559Y-84410910D01*
X164678569Y-84623110D01*
X164658402Y-84722700D01*
X160518763Y-84722700D01*
X160486627Y-84690508D01*
X160143099Y-84547862D01*
X159771133Y-84547538D01*
X159581850Y-84625748D01*
X159581850Y-84105750D01*
X159423100Y-83947000D01*
X157573980Y-83947000D01*
X157573980Y-83967000D01*
X157319980Y-83967000D01*
X157319980Y-83947000D01*
X157299980Y-83947000D01*
X157299980Y-83693000D01*
X157319980Y-83693000D01*
X157319980Y-82593180D01*
X157161230Y-82434430D01*
X156381700Y-82434430D01*
X156381700Y-79447402D01*
X159030560Y-76798542D01*
X159030560Y-78248000D01*
X159030560Y-78248000D01*
G37*
X159030560Y-78248000D02*
X159074838Y-78483317D01*
X159213910Y-78699441D01*
X159426110Y-78844431D01*
X159678000Y-78895440D01*
X159794032Y-78895440D01*
X159707762Y-79103201D01*
X159707438Y-79475167D01*
X159759249Y-79600560D01*
X159678000Y-79600560D01*
X159442683Y-79644838D01*
X159226559Y-79783910D01*
X159081569Y-79996110D01*
X159030560Y-80248000D01*
X159030560Y-82248000D01*
X159065639Y-82434430D01*
X157732730Y-82434430D01*
X157573980Y-82593180D01*
X157573980Y-83693000D01*
X159423100Y-83693000D01*
X159581850Y-83534250D01*
X159581850Y-82943120D01*
X159551488Y-82869821D01*
X159678000Y-82895440D01*
X161378000Y-82895440D01*
X161613317Y-82851162D01*
X161829441Y-82712090D01*
X161974431Y-82499890D01*
X162025440Y-82248000D01*
X162025440Y-82008000D01*
X162034398Y-82008000D01*
X162072408Y-82210007D01*
X162211480Y-82426131D01*
X162423680Y-82571121D01*
X162675570Y-82622130D01*
X164476430Y-82622130D01*
X164711747Y-82577852D01*
X164927871Y-82438780D01*
X165072861Y-82226580D01*
X165123870Y-81974690D01*
X165123870Y-80377030D01*
X165094379Y-80220300D01*
X165305025Y-80220300D01*
X165262560Y-80430000D01*
X165262560Y-82130000D01*
X165306838Y-82365317D01*
X165445910Y-82581441D01*
X165658110Y-82726431D01*
X165910000Y-82777440D01*
X167910000Y-82777440D01*
X168145317Y-82733162D01*
X168361441Y-82594090D01*
X168506431Y-82381890D01*
X168557440Y-82130000D01*
X168557440Y-80430000D01*
X168513162Y-80194683D01*
X168374090Y-79978559D01*
X168161890Y-79833569D01*
X167910000Y-79782560D01*
X167591234Y-79782560D01*
X167447401Y-79567299D01*
X167380102Y-79500000D01*
X173596560Y-79500000D01*
X173596560Y-79603600D01*
X173640838Y-79838917D01*
X173779910Y-80055041D01*
X173992110Y-80200031D01*
X174086927Y-80219232D01*
X173909268Y-80377964D01*
X173655291Y-80905209D01*
X173652642Y-80920974D01*
X173773783Y-81153000D01*
X175133000Y-81153000D01*
X175133000Y-81133000D01*
X175387000Y-81133000D01*
X175387000Y-81153000D01*
X175407000Y-81153000D01*
X175407000Y-81407000D01*
X175387000Y-81407000D01*
X175387000Y-83693000D01*
X176746217Y-83693000D01*
X176867358Y-83460974D01*
X176864709Y-83445209D01*
X176610732Y-82917964D01*
X176198892Y-82550000D01*
X176610732Y-82182036D01*
X176723771Y-81947373D01*
X183140100Y-88363702D01*
X183140100Y-89892130D01*
X181977030Y-89892130D01*
X181778153Y-89929551D01*
X177671201Y-85822599D01*
X177424639Y-85657852D01*
X177133800Y-85600000D01*
X176704648Y-85600000D01*
X176504415Y-85300330D01*
X176194931Y-85093539D01*
X176610732Y-84722036D01*
X176864709Y-84194791D01*
X176867358Y-84179026D01*
X176746217Y-83947000D01*
X175387000Y-83947000D01*
X175387000Y-83967000D01*
X175133000Y-83967000D01*
X175133000Y-83947000D01*
X173773783Y-83947000D01*
X173652642Y-84179026D01*
X173655291Y-84194791D01*
X173909268Y-84722036D01*
X174325069Y-85093539D01*
X174015585Y-85300330D01*
X173690729Y-85786511D01*
X173576655Y-86360000D01*
X173690729Y-86933489D01*
X174015585Y-87419670D01*
X174501766Y-87744526D01*
X175075255Y-87858600D01*
X175444745Y-87858600D01*
X176018234Y-87744526D01*
X176504415Y-87419670D01*
X176704648Y-87120000D01*
X176818998Y-87120000D01*
X179591128Y-89892130D01*
X179137310Y-89892130D01*
X178901993Y-89936408D01*
X178685869Y-90075480D01*
X178668651Y-90100679D01*
X178511890Y-89993569D01*
X178260000Y-89942560D01*
X176260000Y-89942560D01*
X176024683Y-89986838D01*
X175808559Y-90125910D01*
X175663569Y-90338110D01*
X175612560Y-90590000D01*
X175612560Y-92290000D01*
X175656838Y-92525317D01*
X175795910Y-92741441D01*
X176008110Y-92886431D01*
X176260000Y-92937440D01*
X178260000Y-92937440D01*
X178495317Y-92893162D01*
X178667219Y-92782546D01*
X178673220Y-92791871D01*
X178885420Y-92936861D01*
X179137310Y-92987870D01*
X180734970Y-92987870D01*
X180970287Y-92943592D01*
X181186411Y-92804520D01*
X181331401Y-92592320D01*
X181355030Y-92475634D01*
X181373868Y-92575747D01*
X181512940Y-92791871D01*
X181725140Y-92936861D01*
X181977030Y-92987870D01*
X183140100Y-92987870D01*
X183140100Y-93430398D01*
X181278909Y-95291589D01*
X181264090Y-95268559D01*
X181051890Y-95123569D01*
X180800000Y-95072560D01*
X178800000Y-95072560D01*
X178564683Y-95116838D01*
X178348559Y-95255910D01*
X178203569Y-95468110D01*
X178152560Y-95720000D01*
X178152560Y-97320000D01*
X178196838Y-97555317D01*
X178335910Y-97771441D01*
X178548110Y-97916431D01*
X178800000Y-97967440D01*
X179040000Y-97967440D01*
X179040000Y-101650898D01*
X176923440Y-103767458D01*
X176923440Y-103276400D01*
X176879162Y-103041083D01*
X176740090Y-102824959D01*
X176527890Y-102679969D01*
X176276000Y-102628960D01*
X174244000Y-102628960D01*
X174008683Y-102673238D01*
X173792559Y-102812310D01*
X173647569Y-103024510D01*
X173596560Y-103276400D01*
X173596560Y-104677800D01*
X166842440Y-104677800D01*
X166842440Y-103290000D01*
X166798162Y-103054683D01*
X166659090Y-102838559D01*
X166446890Y-102693569D01*
X166195000Y-102642560D01*
X164195000Y-102642560D01*
X163959683Y-102686838D01*
X163743559Y-102825910D01*
X163598569Y-103038110D01*
X163547560Y-103290000D01*
X163547560Y-103458767D01*
X163332299Y-103602599D01*
X163246957Y-103730323D01*
X163103142Y-103670606D01*
X163057701Y-103602599D01*
X162842440Y-103458767D01*
X162842440Y-103290000D01*
X162798162Y-103054683D01*
X162659090Y-102838559D01*
X162446890Y-102693569D01*
X162304513Y-102664737D01*
X162433000Y-102536250D01*
X162433000Y-101187000D01*
X162687000Y-101187000D01*
X162687000Y-102536250D01*
X162845750Y-102695000D01*
X163486310Y-102695000D01*
X163719699Y-102598327D01*
X163898327Y-102419698D01*
X163995000Y-102186309D01*
X163995000Y-101345750D01*
X163836250Y-101187000D01*
X162687000Y-101187000D01*
X162433000Y-101187000D01*
X160147000Y-101187000D01*
X160147000Y-101207000D01*
X159893000Y-101207000D01*
X159893000Y-101187000D01*
X158743750Y-101187000D01*
X158585000Y-101345750D01*
X158585000Y-102186309D01*
X158681673Y-102419698D01*
X158860301Y-102598327D01*
X158977695Y-102646953D01*
X158956000Y-102642560D01*
X158637233Y-102642560D01*
X158493401Y-102427299D01*
X158246839Y-102262552D01*
X157956000Y-102204700D01*
X153856202Y-102204700D01*
X152950102Y-101298600D01*
X155162800Y-101298600D01*
X155453639Y-101240748D01*
X155700201Y-101076001D01*
X156842511Y-99933691D01*
X158585000Y-99933691D01*
X158585000Y-100774250D01*
X158743750Y-100933000D01*
X159893000Y-100933000D01*
X159893000Y-99583750D01*
X160147000Y-99583750D01*
X160147000Y-100933000D01*
X162433000Y-100933000D01*
X162433000Y-99583750D01*
X162687000Y-99583750D01*
X162687000Y-100933000D01*
X163836250Y-100933000D01*
X163995000Y-100774250D01*
X163995000Y-99933691D01*
X163898327Y-99700302D01*
X163719699Y-99521673D01*
X163486310Y-99425000D01*
X162845750Y-99425000D01*
X162687000Y-99583750D01*
X162433000Y-99583750D01*
X162274250Y-99425000D01*
X161633690Y-99425000D01*
X161400301Y-99521673D01*
X161290000Y-99631975D01*
X161179699Y-99521673D01*
X160946310Y-99425000D01*
X160305750Y-99425000D01*
X160147000Y-99583750D01*
X159893000Y-99583750D01*
X159734250Y-99425000D01*
X159093690Y-99425000D01*
X158860301Y-99521673D01*
X158681673Y-99700302D01*
X158585000Y-99933691D01*
X156842511Y-99933691D01*
X158526580Y-98249622D01*
X158572067Y-98249662D01*
X158605637Y-98235791D01*
X158616838Y-98295317D01*
X158755910Y-98511441D01*
X158968110Y-98656431D01*
X159220000Y-98707440D01*
X160820000Y-98707440D01*
X161055317Y-98663162D01*
X161271441Y-98524090D01*
X161288234Y-98499512D01*
X161295910Y-98511441D01*
X161508110Y-98656431D01*
X161760000Y-98707440D01*
X163360000Y-98707440D01*
X163595317Y-98663162D01*
X163811441Y-98524090D01*
X163956431Y-98311890D01*
X164007440Y-98060000D01*
X164007440Y-97322142D01*
X164868099Y-98182801D01*
X165114660Y-98347548D01*
X165405500Y-98405400D01*
X168743800Y-98405400D01*
X169034639Y-98347548D01*
X169281201Y-98182801D01*
X169407801Y-98056201D01*
X169572548Y-97809640D01*
X169598395Y-97679699D01*
X169630400Y-97518800D01*
X169630400Y-96805750D01*
X169910000Y-96805750D01*
X169910000Y-97446310D01*
X170006673Y-97679699D01*
X170185302Y-97858327D01*
X170418691Y-97955000D01*
X171259250Y-97955000D01*
X171418000Y-97796250D01*
X171418000Y-96647000D01*
X171672000Y-96647000D01*
X171672000Y-97796250D01*
X171830750Y-97955000D01*
X172671309Y-97955000D01*
X172904698Y-97858327D01*
X173083327Y-97679699D01*
X173180000Y-97446310D01*
X173180000Y-96805750D01*
X174165000Y-96805750D01*
X174165000Y-97446310D01*
X174261673Y-97679699D01*
X174440302Y-97858327D01*
X174673691Y-97955000D01*
X175514250Y-97955000D01*
X175673000Y-97796250D01*
X175673000Y-96647000D01*
X175927000Y-96647000D01*
X175927000Y-97796250D01*
X176085750Y-97955000D01*
X176926309Y-97955000D01*
X177159698Y-97858327D01*
X177338327Y-97679699D01*
X177435000Y-97446310D01*
X177435000Y-96805750D01*
X177276250Y-96647000D01*
X175927000Y-96647000D01*
X175673000Y-96647000D01*
X174323750Y-96647000D01*
X174165000Y-96805750D01*
X173180000Y-96805750D01*
X173021250Y-96647000D01*
X171672000Y-96647000D01*
X171418000Y-96647000D01*
X170068750Y-96647000D01*
X169910000Y-96805750D01*
X169630400Y-96805750D01*
X169630400Y-95593690D01*
X169910000Y-95593690D01*
X169910000Y-96234250D01*
X170068750Y-96393000D01*
X171418000Y-96393000D01*
X171418000Y-95243750D01*
X171672000Y-95243750D01*
X171672000Y-96393000D01*
X173021250Y-96393000D01*
X173180000Y-96234250D01*
X173180000Y-95593690D01*
X174165000Y-95593690D01*
X174165000Y-96234250D01*
X174323750Y-96393000D01*
X175673000Y-96393000D01*
X175673000Y-95243750D01*
X175927000Y-95243750D01*
X175927000Y-96393000D01*
X177276250Y-96393000D01*
X177435000Y-96234250D01*
X177435000Y-95593690D01*
X177338327Y-95360301D01*
X177159698Y-95181673D01*
X176926309Y-95085000D01*
X176085750Y-95085000D01*
X175927000Y-95243750D01*
X175673000Y-95243750D01*
X175514250Y-95085000D01*
X174673691Y-95085000D01*
X174440302Y-95181673D01*
X174261673Y-95360301D01*
X174165000Y-95593690D01*
X173180000Y-95593690D01*
X173083327Y-95360301D01*
X172904698Y-95181673D01*
X172671309Y-95085000D01*
X171830750Y-95085000D01*
X171672000Y-95243750D01*
X171418000Y-95243750D01*
X171259250Y-95085000D01*
X170418691Y-95085000D01*
X170185302Y-95181673D01*
X170006673Y-95360301D01*
X169910000Y-95593690D01*
X169630400Y-95593690D01*
X169630400Y-94504000D01*
X169572548Y-94213161D01*
X169407801Y-93966599D01*
X168810000Y-93368798D01*
X168810000Y-92317570D01*
X169607230Y-92317570D01*
X169765980Y-92158820D01*
X169765980Y-91059000D01*
X169745980Y-91059000D01*
X169745980Y-90805000D01*
X169765980Y-90805000D01*
X169765980Y-89705180D01*
X170019980Y-89705180D01*
X170019980Y-90805000D01*
X170039980Y-90805000D01*
X170039980Y-91059000D01*
X170019980Y-91059000D01*
X170019980Y-92158820D01*
X170178730Y-92317570D01*
X171519159Y-92317570D01*
X171625000Y-92273729D01*
X171625000Y-92416310D01*
X171721673Y-92649699D01*
X171900302Y-92828327D01*
X172133691Y-92925000D01*
X172974250Y-92925000D01*
X173133000Y-92766250D01*
X173133000Y-91567000D01*
X173387000Y-91567000D01*
X173387000Y-92766250D01*
X173545750Y-92925000D01*
X174386309Y-92925000D01*
X174619698Y-92828327D01*
X174798327Y-92649699D01*
X174895000Y-92416310D01*
X174895000Y-91725750D01*
X174736250Y-91567000D01*
X173387000Y-91567000D01*
X173133000Y-91567000D01*
X173113000Y-91567000D01*
X173113000Y-91313000D01*
X173133000Y-91313000D01*
X173133000Y-90113750D01*
X173387000Y-90113750D01*
X173387000Y-91313000D01*
X174736250Y-91313000D01*
X174895000Y-91154250D01*
X174895000Y-90463690D01*
X174798327Y-90230301D01*
X174619698Y-90051673D01*
X174386309Y-89955000D01*
X173545750Y-89955000D01*
X173387000Y-90113750D01*
X173133000Y-90113750D01*
X172974250Y-89955000D01*
X172133691Y-89955000D01*
X172007952Y-90007083D01*
X171931177Y-89821731D01*
X171752548Y-89643103D01*
X171519159Y-89546430D01*
X170178730Y-89546430D01*
X170019980Y-89705180D01*
X169765980Y-89705180D01*
X169607230Y-89546430D01*
X168810000Y-89546430D01*
X168810000Y-87025027D01*
X168810910Y-87026441D01*
X169023110Y-87171431D01*
X169275000Y-87222440D01*
X171275000Y-87222440D01*
X171510317Y-87178162D01*
X171726441Y-87039090D01*
X171871431Y-86826890D01*
X171922440Y-86575000D01*
X171922440Y-84875000D01*
X171878162Y-84639683D01*
X171739090Y-84423559D01*
X171526890Y-84278569D01*
X171275000Y-84227560D01*
X170212542Y-84227560D01*
X171447401Y-82992701D01*
X171591233Y-82777440D01*
X171910000Y-82777440D01*
X172145317Y-82733162D01*
X172361441Y-82594090D01*
X172506431Y-82381890D01*
X172557440Y-82130000D01*
X172557440Y-81639026D01*
X173652642Y-81639026D01*
X173655291Y-81654791D01*
X173909268Y-82182036D01*
X174321108Y-82550000D01*
X173909268Y-82917964D01*
X173655291Y-83445209D01*
X173652642Y-83460974D01*
X173773783Y-83693000D01*
X175133000Y-83693000D01*
X175133000Y-81407000D01*
X173773783Y-81407000D01*
X173652642Y-81639026D01*
X172557440Y-81639026D01*
X172557440Y-80430000D01*
X172513162Y-80194683D01*
X172374090Y-79978559D01*
X172161890Y-79833569D01*
X171910000Y-79782560D01*
X169910000Y-79782560D01*
X169674683Y-79826838D01*
X169458559Y-79965910D01*
X169313569Y-80178110D01*
X169262560Y-80430000D01*
X169262560Y-82130000D01*
X169306838Y-82365317D01*
X169445910Y-82581441D01*
X169602241Y-82688257D01*
X167789147Y-84501351D01*
X167739090Y-84423559D01*
X167526890Y-84278569D01*
X167275000Y-84227560D01*
X165275000Y-84227560D01*
X165039683Y-84271838D01*
X164823559Y-84410910D01*
X164678569Y-84623110D01*
X164658402Y-84722700D01*
X160518763Y-84722700D01*
X160486627Y-84690508D01*
X160143099Y-84547862D01*
X159771133Y-84547538D01*
X159581850Y-84625748D01*
X159581850Y-84105750D01*
X159423100Y-83947000D01*
X157573980Y-83947000D01*
X157573980Y-83967000D01*
X157319980Y-83967000D01*
X157319980Y-83947000D01*
X157299980Y-83947000D01*
X157299980Y-83693000D01*
X157319980Y-83693000D01*
X157319980Y-82593180D01*
X157161230Y-82434430D01*
X156381700Y-82434430D01*
X156381700Y-79447402D01*
X159030560Y-76798542D01*
X159030560Y-78248000D01*
G36*
X143205601Y-101370038D02*
X143577567Y-101370362D01*
X143648007Y-101341257D01*
X143779750Y-101473000D01*
X145129000Y-101473000D01*
X145129000Y-101453000D01*
X145383000Y-101453000D01*
X145383000Y-101473000D01*
X145403000Y-101473000D01*
X145403000Y-101727000D01*
X145383000Y-101727000D01*
X145383000Y-101747000D01*
X145129000Y-101747000D01*
X145129000Y-101727000D01*
X143779750Y-101727000D01*
X143621000Y-101885750D01*
X143621000Y-102526310D01*
X143698205Y-102712700D01*
X143094802Y-102712700D01*
X142883006Y-102500904D01*
X142903440Y-102400000D01*
X142903440Y-101244569D01*
X143205601Y-101370038D01*
X143205601Y-101370038D01*
G37*
X143205601Y-101370038D02*
X143577567Y-101370362D01*
X143648007Y-101341257D01*
X143779750Y-101473000D01*
X145129000Y-101473000D01*
X145129000Y-101453000D01*
X145383000Y-101453000D01*
X145383000Y-101473000D01*
X145403000Y-101473000D01*
X145403000Y-101727000D01*
X145383000Y-101727000D01*
X145383000Y-101747000D01*
X145129000Y-101747000D01*
X145129000Y-101727000D01*
X143779750Y-101727000D01*
X143621000Y-101885750D01*
X143621000Y-102526310D01*
X143698205Y-102712700D01*
X143094802Y-102712700D01*
X142883006Y-102500904D01*
X142903440Y-102400000D01*
X142903440Y-101244569D01*
X143205601Y-101370038D01*
G36*
X138779000Y-92837000D02*
X138799000Y-92837000D01*
X138799000Y-93091000D01*
X138779000Y-93091000D01*
X138779000Y-94240250D01*
X138937750Y-94399000D01*
X139778309Y-94399000D01*
X140011698Y-94302327D01*
X140190327Y-94123699D01*
X140287000Y-93890310D01*
X140287000Y-93410302D01*
X140313699Y-93437001D01*
X140514109Y-93570911D01*
X140612491Y-93669293D01*
X140646900Y-93720790D01*
X140646900Y-94799100D01*
X140704752Y-95089939D01*
X140869499Y-95336501D01*
X143289899Y-97756902D01*
X143308095Y-97769060D01*
X143249862Y-97909301D01*
X143249538Y-98281267D01*
X143391583Y-98625043D01*
X143654373Y-98888292D01*
X143997901Y-99030938D01*
X144043081Y-99030977D01*
X143884108Y-99189673D01*
X143741462Y-99533201D01*
X143741432Y-99567727D01*
X143579199Y-99500362D01*
X143207233Y-99500038D01*
X142863457Y-99642083D01*
X142600208Y-99904873D01*
X142478638Y-100197645D01*
X142256000Y-100152560D01*
X140256000Y-100152560D01*
X140020683Y-100196838D01*
X139804559Y-100335910D01*
X139659569Y-100548110D01*
X139608560Y-100800000D01*
X139608560Y-100840000D01*
X139052802Y-100840000D01*
X137573002Y-99360200D01*
X137582759Y-99336702D01*
X137583240Y-98785715D01*
X137372831Y-98276485D01*
X136983564Y-97886539D01*
X136474702Y-97675241D01*
X135923715Y-97674760D01*
X135898132Y-97685330D01*
X133839723Y-95626921D01*
X133887167Y-95626962D01*
X134230943Y-95484917D01*
X134494192Y-95222127D01*
X134636838Y-94878599D01*
X134636864Y-94849300D01*
X134652000Y-94849300D01*
X134942839Y-94791448D01*
X135189401Y-94626701D01*
X135333233Y-94411440D01*
X135652000Y-94411440D01*
X135887317Y-94367162D01*
X136103441Y-94228090D01*
X136248431Y-94015890D01*
X136299440Y-93764000D01*
X136299440Y-93645233D01*
X136514701Y-93501401D01*
X137017000Y-92999102D01*
X137017000Y-93091002D01*
X137175748Y-93091002D01*
X137017000Y-93249750D01*
X137017000Y-93890310D01*
X137113673Y-94123699D01*
X137292302Y-94302327D01*
X137525691Y-94399000D01*
X138366250Y-94399000D01*
X138525000Y-94240250D01*
X138525000Y-93091000D01*
X138505000Y-93091000D01*
X138505000Y-92837000D01*
X138525000Y-92837000D01*
X138525000Y-92817000D01*
X138779000Y-92817000D01*
X138779000Y-92837000D01*
X138779000Y-92837000D01*
G37*
X138779000Y-92837000D02*
X138799000Y-92837000D01*
X138799000Y-93091000D01*
X138779000Y-93091000D01*
X138779000Y-94240250D01*
X138937750Y-94399000D01*
X139778309Y-94399000D01*
X140011698Y-94302327D01*
X140190327Y-94123699D01*
X140287000Y-93890310D01*
X140287000Y-93410302D01*
X140313699Y-93437001D01*
X140514109Y-93570911D01*
X140612491Y-93669293D01*
X140646900Y-93720790D01*
X140646900Y-94799100D01*
X140704752Y-95089939D01*
X140869499Y-95336501D01*
X143289899Y-97756902D01*
X143308095Y-97769060D01*
X143249862Y-97909301D01*
X143249538Y-98281267D01*
X143391583Y-98625043D01*
X143654373Y-98888292D01*
X143997901Y-99030938D01*
X144043081Y-99030977D01*
X143884108Y-99189673D01*
X143741462Y-99533201D01*
X143741432Y-99567727D01*
X143579199Y-99500362D01*
X143207233Y-99500038D01*
X142863457Y-99642083D01*
X142600208Y-99904873D01*
X142478638Y-100197645D01*
X142256000Y-100152560D01*
X140256000Y-100152560D01*
X140020683Y-100196838D01*
X139804559Y-100335910D01*
X139659569Y-100548110D01*
X139608560Y-100800000D01*
X139608560Y-100840000D01*
X139052802Y-100840000D01*
X137573002Y-99360200D01*
X137582759Y-99336702D01*
X137583240Y-98785715D01*
X137372831Y-98276485D01*
X136983564Y-97886539D01*
X136474702Y-97675241D01*
X135923715Y-97674760D01*
X135898132Y-97685330D01*
X133839723Y-95626921D01*
X133887167Y-95626962D01*
X134230943Y-95484917D01*
X134494192Y-95222127D01*
X134636838Y-94878599D01*
X134636864Y-94849300D01*
X134652000Y-94849300D01*
X134942839Y-94791448D01*
X135189401Y-94626701D01*
X135333233Y-94411440D01*
X135652000Y-94411440D01*
X135887317Y-94367162D01*
X136103441Y-94228090D01*
X136248431Y-94015890D01*
X136299440Y-93764000D01*
X136299440Y-93645233D01*
X136514701Y-93501401D01*
X137017000Y-92999102D01*
X137017000Y-93091002D01*
X137175748Y-93091002D01*
X137017000Y-93249750D01*
X137017000Y-93890310D01*
X137113673Y-94123699D01*
X137292302Y-94302327D01*
X137525691Y-94399000D01*
X138366250Y-94399000D01*
X138525000Y-94240250D01*
X138525000Y-93091000D01*
X138505000Y-93091000D01*
X138505000Y-92837000D01*
X138525000Y-92837000D01*
X138525000Y-92817000D01*
X138779000Y-92817000D01*
X138779000Y-92837000D01*
G36*
X157319978Y-85205570D02*
X157337545Y-85205570D01*
X157168302Y-85275673D01*
X156989673Y-85454301D01*
X156893000Y-85687690D01*
X156893000Y-86328250D01*
X157051750Y-86487000D01*
X158401000Y-86487000D01*
X158401000Y-86467000D01*
X158655000Y-86467000D01*
X158655000Y-86487000D01*
X160004250Y-86487000D01*
X160073447Y-86417803D01*
X160141467Y-86417862D01*
X160485243Y-86275817D01*
X160518418Y-86242700D01*
X160880560Y-86242700D01*
X160880560Y-87414000D01*
X160924838Y-87649317D01*
X161063910Y-87865441D01*
X161203121Y-87960560D01*
X160004000Y-87960560D01*
X159768683Y-88004838D01*
X159552559Y-88143910D01*
X159407569Y-88356110D01*
X159356560Y-88608000D01*
X159356560Y-90208000D01*
X159400838Y-90443317D01*
X159539910Y-90659441D01*
X159752110Y-90804431D01*
X160004000Y-90855440D01*
X160244000Y-90855440D01*
X160244000Y-91089398D01*
X157132320Y-94201078D01*
X157086833Y-94201038D01*
X156743057Y-94343083D01*
X156696191Y-94389867D01*
X156647610Y-94399531D01*
X156537100Y-94324022D01*
X156285938Y-94269538D01*
X156033367Y-94317062D01*
X155819185Y-94459107D01*
X155642408Y-94635884D01*
X155581727Y-94724694D01*
X155563743Y-94732143D01*
X155542487Y-94753399D01*
X155542487Y-94782123D01*
X155507323Y-94833587D01*
X155471926Y-94996760D01*
X155326260Y-95024169D01*
X155262743Y-95066293D01*
X155229593Y-95066293D01*
X155208337Y-95087549D01*
X155199870Y-95107991D01*
X155112078Y-95166214D01*
X154935301Y-95342991D01*
X154860910Y-95451865D01*
X154758525Y-95519767D01*
X154581748Y-95696544D01*
X154507356Y-95805420D01*
X154404972Y-95873321D01*
X154228195Y-96050098D01*
X154153805Y-96158971D01*
X154051418Y-96226874D01*
X153874641Y-96403651D01*
X153800249Y-96512527D01*
X153697865Y-96580428D01*
X153521088Y-96757205D01*
X153446698Y-96866078D01*
X153344311Y-96933981D01*
X153167534Y-97110758D01*
X153093143Y-97219632D01*
X152990758Y-97287534D01*
X152813981Y-97464311D01*
X152739589Y-97573187D01*
X152637205Y-97641088D01*
X152460428Y-97817865D01*
X152386038Y-97926738D01*
X152283651Y-97994641D01*
X152106874Y-98171418D01*
X152032482Y-98280294D01*
X151930098Y-98348195D01*
X151753321Y-98524972D01*
X151678931Y-98633845D01*
X151576544Y-98701748D01*
X151399767Y-98878525D01*
X151325376Y-98987399D01*
X151222991Y-99055301D01*
X151046214Y-99232078D01*
X150985533Y-99320888D01*
X150967549Y-99328337D01*
X150946293Y-99349593D01*
X150946293Y-99349592D01*
X150923864Y-99372021D01*
X150655300Y-99318600D01*
X150364460Y-99376452D01*
X150117899Y-99541199D01*
X150096498Y-99562600D01*
X149969927Y-99435808D01*
X149626399Y-99293162D01*
X149318957Y-99292894D01*
X149248601Y-99187599D01*
X149248492Y-99187526D01*
X149248419Y-99187417D01*
X149214400Y-99153421D01*
X149214400Y-98831300D01*
X149156548Y-98540461D01*
X148991801Y-98293899D01*
X145764195Y-95066293D01*
X155229592Y-95066293D01*
X155229593Y-95066293D01*
X155299125Y-94996760D01*
X155229592Y-95066293D01*
X145764195Y-95066293D01*
X145497002Y-94799100D01*
X155496785Y-94799100D01*
X155542487Y-94753399D01*
X155542487Y-94753398D01*
X155496785Y-94799100D01*
X145497002Y-94799100D01*
X144828802Y-94130900D01*
X146580000Y-94130900D01*
X146870839Y-94073048D01*
X147117401Y-93908301D01*
X149737642Y-91288060D01*
X149751683Y-91322043D01*
X150014473Y-91585292D01*
X150358001Y-91727938D01*
X150729967Y-91728262D01*
X151073743Y-91586217D01*
X151336992Y-91323427D01*
X151479638Y-90979899D01*
X151479962Y-90607933D01*
X151465766Y-90573576D01*
X151665801Y-90656638D01*
X152037767Y-90656962D01*
X152381543Y-90514917D01*
X152607574Y-90289281D01*
X152637205Y-90318912D01*
X152746078Y-90393302D01*
X152813981Y-90495689D01*
X152990758Y-90672466D01*
X153099632Y-90746857D01*
X153167534Y-90849242D01*
X153344311Y-91026019D01*
X153453187Y-91100411D01*
X153521088Y-91202795D01*
X153697865Y-91379572D01*
X153806738Y-91453962D01*
X153874641Y-91556349D01*
X154051418Y-91733126D01*
X154160294Y-91807518D01*
X154228195Y-91909902D01*
X154404972Y-92086679D01*
X154513845Y-92161069D01*
X154581748Y-92263456D01*
X154758525Y-92440233D01*
X154867399Y-92514624D01*
X154935301Y-92617009D01*
X155112078Y-92793786D01*
X155220954Y-92868178D01*
X155288855Y-92970562D01*
X155465632Y-93147339D01*
X155574505Y-93221729D01*
X155642408Y-93324116D01*
X155819185Y-93500893D01*
X156016888Y-93635978D01*
X156268050Y-93690462D01*
X156520621Y-93642938D01*
X156734803Y-93500893D01*
X157441910Y-92793786D01*
X157576995Y-92596083D01*
X157631479Y-92344921D01*
X157583955Y-92092350D01*
X157441910Y-91878168D01*
X157265133Y-91701391D01*
X157156260Y-91627001D01*
X157088357Y-91524614D01*
X156911580Y-91347837D01*
X156802704Y-91273445D01*
X156734803Y-91171061D01*
X156558026Y-90994284D01*
X156449152Y-90919893D01*
X156398156Y-90843000D01*
X156718250Y-90843000D01*
X156877000Y-90684250D01*
X156877000Y-89535000D01*
X157131000Y-89535000D01*
X157131000Y-90684250D01*
X157289750Y-90843000D01*
X158130309Y-90843000D01*
X158363698Y-90746327D01*
X158542327Y-90567699D01*
X158639000Y-90334310D01*
X158639000Y-89693750D01*
X158480250Y-89535000D01*
X157131000Y-89535000D01*
X156877000Y-89535000D01*
X155527750Y-89535000D01*
X155369000Y-89693750D01*
X155369000Y-89829842D01*
X155320590Y-89756847D01*
X155143813Y-89580070D01*
X155034937Y-89505678D01*
X154967036Y-89403294D01*
X154790259Y-89226517D01*
X154681385Y-89152126D01*
X154613483Y-89049741D01*
X154436706Y-88872964D01*
X154340068Y-88806934D01*
X154665312Y-88481690D01*
X155369000Y-88481690D01*
X155369000Y-89122250D01*
X155527750Y-89281000D01*
X156877000Y-89281000D01*
X156877000Y-88131750D01*
X156718250Y-87973000D01*
X155877691Y-87973000D01*
X155644302Y-88069673D01*
X155465673Y-88248301D01*
X155369000Y-88481690D01*
X154665312Y-88481690D01*
X156159101Y-86987901D01*
X156218001Y-86899750D01*
X156893000Y-86899750D01*
X156893000Y-87540310D01*
X156989673Y-87773699D01*
X157168302Y-87952327D01*
X157268797Y-87993953D01*
X157131000Y-88131750D01*
X157131000Y-89281000D01*
X158480250Y-89281000D01*
X158639000Y-89122250D01*
X158639000Y-88481690D01*
X158542327Y-88248301D01*
X158363698Y-88069673D01*
X158263203Y-88028047D01*
X158401000Y-87890250D01*
X158401000Y-86741000D01*
X158655000Y-86741000D01*
X158655000Y-87890250D01*
X158813750Y-88049000D01*
X159654309Y-88049000D01*
X159887698Y-87952327D01*
X160066327Y-87773699D01*
X160163000Y-87540310D01*
X160163000Y-86899750D01*
X160004250Y-86741000D01*
X158655000Y-86741000D01*
X158401000Y-86741000D01*
X157051750Y-86741000D01*
X156893000Y-86899750D01*
X156218001Y-86899750D01*
X156323848Y-86741339D01*
X156381700Y-86450500D01*
X156381700Y-85205570D01*
X157161230Y-85205570D01*
X157319978Y-85046822D01*
X157319978Y-85205570D01*
X157319978Y-85205570D01*
G37*
X157319978Y-85205570D02*
X157337545Y-85205570D01*
X157168302Y-85275673D01*
X156989673Y-85454301D01*
X156893000Y-85687690D01*
X156893000Y-86328250D01*
X157051750Y-86487000D01*
X158401000Y-86487000D01*
X158401000Y-86467000D01*
X158655000Y-86467000D01*
X158655000Y-86487000D01*
X160004250Y-86487000D01*
X160073447Y-86417803D01*
X160141467Y-86417862D01*
X160485243Y-86275817D01*
X160518418Y-86242700D01*
X160880560Y-86242700D01*
X160880560Y-87414000D01*
X160924838Y-87649317D01*
X161063910Y-87865441D01*
X161203121Y-87960560D01*
X160004000Y-87960560D01*
X159768683Y-88004838D01*
X159552559Y-88143910D01*
X159407569Y-88356110D01*
X159356560Y-88608000D01*
X159356560Y-90208000D01*
X159400838Y-90443317D01*
X159539910Y-90659441D01*
X159752110Y-90804431D01*
X160004000Y-90855440D01*
X160244000Y-90855440D01*
X160244000Y-91089398D01*
X157132320Y-94201078D01*
X157086833Y-94201038D01*
X156743057Y-94343083D01*
X156696191Y-94389867D01*
X156647610Y-94399531D01*
X156537100Y-94324022D01*
X156285938Y-94269538D01*
X156033367Y-94317062D01*
X155819185Y-94459107D01*
X155642408Y-94635884D01*
X155581727Y-94724694D01*
X155563743Y-94732143D01*
X155542487Y-94753399D01*
X155542487Y-94782123D01*
X155507323Y-94833587D01*
X155471926Y-94996760D01*
X155326260Y-95024169D01*
X155262743Y-95066293D01*
X155229593Y-95066293D01*
X155208337Y-95087549D01*
X155199870Y-95107991D01*
X155112078Y-95166214D01*
X154935301Y-95342991D01*
X154860910Y-95451865D01*
X154758525Y-95519767D01*
X154581748Y-95696544D01*
X154507356Y-95805420D01*
X154404972Y-95873321D01*
X154228195Y-96050098D01*
X154153805Y-96158971D01*
X154051418Y-96226874D01*
X153874641Y-96403651D01*
X153800249Y-96512527D01*
X153697865Y-96580428D01*
X153521088Y-96757205D01*
X153446698Y-96866078D01*
X153344311Y-96933981D01*
X153167534Y-97110758D01*
X153093143Y-97219632D01*
X152990758Y-97287534D01*
X152813981Y-97464311D01*
X152739589Y-97573187D01*
X152637205Y-97641088D01*
X152460428Y-97817865D01*
X152386038Y-97926738D01*
X152283651Y-97994641D01*
X152106874Y-98171418D01*
X152032482Y-98280294D01*
X151930098Y-98348195D01*
X151753321Y-98524972D01*
X151678931Y-98633845D01*
X151576544Y-98701748D01*
X151399767Y-98878525D01*
X151325376Y-98987399D01*
X151222991Y-99055301D01*
X151046214Y-99232078D01*
X150985533Y-99320888D01*
X150967549Y-99328337D01*
X150946293Y-99349593D01*
X150946293Y-99349592D01*
X150923864Y-99372021D01*
X150655300Y-99318600D01*
X150364460Y-99376452D01*
X150117899Y-99541199D01*
X150096498Y-99562600D01*
X149969927Y-99435808D01*
X149626399Y-99293162D01*
X149318957Y-99292894D01*
X149248601Y-99187599D01*
X149248492Y-99187526D01*
X149248419Y-99187417D01*
X149214400Y-99153421D01*
X149214400Y-98831300D01*
X149156548Y-98540461D01*
X148991801Y-98293899D01*
X145764195Y-95066293D01*
X155229592Y-95066293D01*
X155229593Y-95066293D01*
X155299125Y-94996760D01*
X155229592Y-95066293D01*
X145764195Y-95066293D01*
X145497002Y-94799100D01*
X155496785Y-94799100D01*
X155542487Y-94753399D01*
X155542487Y-94753398D01*
X155496785Y-94799100D01*
X145497002Y-94799100D01*
X144828802Y-94130900D01*
X146580000Y-94130900D01*
X146870839Y-94073048D01*
X147117401Y-93908301D01*
X149737642Y-91288060D01*
X149751683Y-91322043D01*
X150014473Y-91585292D01*
X150358001Y-91727938D01*
X150729967Y-91728262D01*
X151073743Y-91586217D01*
X151336992Y-91323427D01*
X151479638Y-90979899D01*
X151479962Y-90607933D01*
X151465766Y-90573576D01*
X151665801Y-90656638D01*
X152037767Y-90656962D01*
X152381543Y-90514917D01*
X152607574Y-90289281D01*
X152637205Y-90318912D01*
X152746078Y-90393302D01*
X152813981Y-90495689D01*
X152990758Y-90672466D01*
X153099632Y-90746857D01*
X153167534Y-90849242D01*
X153344311Y-91026019D01*
X153453187Y-91100411D01*
X153521088Y-91202795D01*
X153697865Y-91379572D01*
X153806738Y-91453962D01*
X153874641Y-91556349D01*
X154051418Y-91733126D01*
X154160294Y-91807518D01*
X154228195Y-91909902D01*
X154404972Y-92086679D01*
X154513845Y-92161069D01*
X154581748Y-92263456D01*
X154758525Y-92440233D01*
X154867399Y-92514624D01*
X154935301Y-92617009D01*
X155112078Y-92793786D01*
X155220954Y-92868178D01*
X155288855Y-92970562D01*
X155465632Y-93147339D01*
X155574505Y-93221729D01*
X155642408Y-93324116D01*
X155819185Y-93500893D01*
X156016888Y-93635978D01*
X156268050Y-93690462D01*
X156520621Y-93642938D01*
X156734803Y-93500893D01*
X157441910Y-92793786D01*
X157576995Y-92596083D01*
X157631479Y-92344921D01*
X157583955Y-92092350D01*
X157441910Y-91878168D01*
X157265133Y-91701391D01*
X157156260Y-91627001D01*
X157088357Y-91524614D01*
X156911580Y-91347837D01*
X156802704Y-91273445D01*
X156734803Y-91171061D01*
X156558026Y-90994284D01*
X156449152Y-90919893D01*
X156398156Y-90843000D01*
X156718250Y-90843000D01*
X156877000Y-90684250D01*
X156877000Y-89535000D01*
X157131000Y-89535000D01*
X157131000Y-90684250D01*
X157289750Y-90843000D01*
X158130309Y-90843000D01*
X158363698Y-90746327D01*
X158542327Y-90567699D01*
X158639000Y-90334310D01*
X158639000Y-89693750D01*
X158480250Y-89535000D01*
X157131000Y-89535000D01*
X156877000Y-89535000D01*
X155527750Y-89535000D01*
X155369000Y-89693750D01*
X155369000Y-89829842D01*
X155320590Y-89756847D01*
X155143813Y-89580070D01*
X155034937Y-89505678D01*
X154967036Y-89403294D01*
X154790259Y-89226517D01*
X154681385Y-89152126D01*
X154613483Y-89049741D01*
X154436706Y-88872964D01*
X154340068Y-88806934D01*
X154665312Y-88481690D01*
X155369000Y-88481690D01*
X155369000Y-89122250D01*
X155527750Y-89281000D01*
X156877000Y-89281000D01*
X156877000Y-88131750D01*
X156718250Y-87973000D01*
X155877691Y-87973000D01*
X155644302Y-88069673D01*
X155465673Y-88248301D01*
X155369000Y-88481690D01*
X154665312Y-88481690D01*
X156159101Y-86987901D01*
X156218001Y-86899750D01*
X156893000Y-86899750D01*
X156893000Y-87540310D01*
X156989673Y-87773699D01*
X157168302Y-87952327D01*
X157268797Y-87993953D01*
X157131000Y-88131750D01*
X157131000Y-89281000D01*
X158480250Y-89281000D01*
X158639000Y-89122250D01*
X158639000Y-88481690D01*
X158542327Y-88248301D01*
X158363698Y-88069673D01*
X158263203Y-88028047D01*
X158401000Y-87890250D01*
X158401000Y-86741000D01*
X158655000Y-86741000D01*
X158655000Y-87890250D01*
X158813750Y-88049000D01*
X159654309Y-88049000D01*
X159887698Y-87952327D01*
X160066327Y-87773699D01*
X160163000Y-87540310D01*
X160163000Y-86899750D01*
X160004250Y-86741000D01*
X158655000Y-86741000D01*
X158401000Y-86741000D01*
X157051750Y-86741000D01*
X156893000Y-86899750D01*
X156218001Y-86899750D01*
X156323848Y-86741339D01*
X156381700Y-86450500D01*
X156381700Y-85205570D01*
X157161230Y-85205570D01*
X157319978Y-85046822D01*
X157319978Y-85205570D01*
G36*
X147148845Y-87040347D02*
X147051061Y-87105197D01*
X146874284Y-87281974D01*
X146799893Y-87390848D01*
X146697508Y-87458750D01*
X146520731Y-87635527D01*
X146446341Y-87744400D01*
X146343954Y-87812303D01*
X146167177Y-87989080D01*
X146092785Y-88097956D01*
X145990401Y-88165857D01*
X145813624Y-88342634D01*
X145739234Y-88451507D01*
X145636847Y-88519410D01*
X145460070Y-88696187D01*
X145385678Y-88805063D01*
X145283294Y-88872964D01*
X145106517Y-89049741D01*
X145032126Y-89158615D01*
X144929741Y-89226517D01*
X144752964Y-89403294D01*
X144678574Y-89512167D01*
X144576187Y-89580070D01*
X144399410Y-89756847D01*
X144325018Y-89865723D01*
X144222634Y-89933624D01*
X144045857Y-90110401D01*
X143971467Y-90219274D01*
X143869080Y-90287177D01*
X143692303Y-90463954D01*
X143617911Y-90572830D01*
X143515527Y-90640731D01*
X143338750Y-90817508D01*
X143264359Y-90926382D01*
X143161974Y-90994284D01*
X142985197Y-91171061D01*
X142924517Y-91259869D01*
X142915221Y-91263719D01*
X142716012Y-91064510D01*
X142716262Y-90777933D01*
X142574743Y-90435430D01*
X143060999Y-90435430D01*
X143294388Y-90338757D01*
X143473017Y-90160129D01*
X143569690Y-89926740D01*
X143569690Y-89185750D01*
X143410940Y-89027000D01*
X142262860Y-89027000D01*
X142262860Y-89047000D01*
X142008860Y-89047000D01*
X142008860Y-89027000D01*
X141988860Y-89027000D01*
X141988860Y-88773000D01*
X142008860Y-88773000D01*
X142008860Y-87523320D01*
X142262860Y-87523320D01*
X142262860Y-88773000D01*
X143410940Y-88773000D01*
X143569690Y-88614250D01*
X143569690Y-87873260D01*
X143473017Y-87639871D01*
X143294388Y-87461243D01*
X143060999Y-87364570D01*
X142421610Y-87364570D01*
X142262860Y-87523320D01*
X142008860Y-87523320D01*
X141850110Y-87364570D01*
X141210721Y-87364570D01*
X141044742Y-87433321D01*
X141003501Y-87371599D01*
X139773901Y-86141999D01*
X139552853Y-85994300D01*
X146102798Y-85994300D01*
X147148845Y-87040347D01*
X147148845Y-87040347D01*
G37*
X147148845Y-87040347D02*
X147051061Y-87105197D01*
X146874284Y-87281974D01*
X146799893Y-87390848D01*
X146697508Y-87458750D01*
X146520731Y-87635527D01*
X146446341Y-87744400D01*
X146343954Y-87812303D01*
X146167177Y-87989080D01*
X146092785Y-88097956D01*
X145990401Y-88165857D01*
X145813624Y-88342634D01*
X145739234Y-88451507D01*
X145636847Y-88519410D01*
X145460070Y-88696187D01*
X145385678Y-88805063D01*
X145283294Y-88872964D01*
X145106517Y-89049741D01*
X145032126Y-89158615D01*
X144929741Y-89226517D01*
X144752964Y-89403294D01*
X144678574Y-89512167D01*
X144576187Y-89580070D01*
X144399410Y-89756847D01*
X144325018Y-89865723D01*
X144222634Y-89933624D01*
X144045857Y-90110401D01*
X143971467Y-90219274D01*
X143869080Y-90287177D01*
X143692303Y-90463954D01*
X143617911Y-90572830D01*
X143515527Y-90640731D01*
X143338750Y-90817508D01*
X143264359Y-90926382D01*
X143161974Y-90994284D01*
X142985197Y-91171061D01*
X142924517Y-91259869D01*
X142915221Y-91263719D01*
X142716012Y-91064510D01*
X142716262Y-90777933D01*
X142574743Y-90435430D01*
X143060999Y-90435430D01*
X143294388Y-90338757D01*
X143473017Y-90160129D01*
X143569690Y-89926740D01*
X143569690Y-89185750D01*
X143410940Y-89027000D01*
X142262860Y-89027000D01*
X142262860Y-89047000D01*
X142008860Y-89047000D01*
X142008860Y-89027000D01*
X141988860Y-89027000D01*
X141988860Y-88773000D01*
X142008860Y-88773000D01*
X142008860Y-87523320D01*
X142262860Y-87523320D01*
X142262860Y-88773000D01*
X143410940Y-88773000D01*
X143569690Y-88614250D01*
X143569690Y-87873260D01*
X143473017Y-87639871D01*
X143294388Y-87461243D01*
X143060999Y-87364570D01*
X142421610Y-87364570D01*
X142262860Y-87523320D01*
X142008860Y-87523320D01*
X141850110Y-87364570D01*
X141210721Y-87364570D01*
X141044742Y-87433321D01*
X141003501Y-87371599D01*
X139773901Y-86141999D01*
X139552853Y-85994300D01*
X146102798Y-85994300D01*
X147148845Y-87040347D01*
G36*
X119507000Y-76073000D02*
X119527000Y-76073000D01*
X119527000Y-76327000D01*
X119507000Y-76327000D01*
X119507000Y-77692250D01*
X119665750Y-77851000D01*
X120369910Y-77851000D01*
X120603299Y-77754327D01*
X120781927Y-77575698D01*
X120845500Y-77422220D01*
X120860330Y-77444415D01*
X121346511Y-77769271D01*
X121920000Y-77883345D01*
X122493489Y-77769271D01*
X122847036Y-77533038D01*
X125109599Y-79795601D01*
X125356160Y-79960348D01*
X125404414Y-79969946D01*
X125647000Y-80018200D01*
X128481452Y-80018200D01*
X128340222Y-80112567D01*
X127982330Y-80648190D01*
X127856655Y-81280000D01*
X127957619Y-81787579D01*
X127446599Y-82298599D01*
X127281852Y-82545161D01*
X127224000Y-82836000D01*
X127224000Y-87402560D01*
X126984000Y-87402560D01*
X126748683Y-87446838D01*
X126532559Y-87585910D01*
X126387569Y-87798110D01*
X126336560Y-88050000D01*
X126336560Y-89365800D01*
X125631440Y-89365800D01*
X125631440Y-88050000D01*
X125587162Y-87814683D01*
X125448090Y-87598559D01*
X125235890Y-87453569D01*
X124984000Y-87402560D01*
X122984000Y-87402560D01*
X122748683Y-87446838D01*
X122532559Y-87585910D01*
X122387569Y-87798110D01*
X122336560Y-88050000D01*
X122336560Y-88140000D01*
X122246130Y-88140000D01*
X122246130Y-87999570D01*
X122201852Y-87764253D01*
X122062780Y-87548129D01*
X121850580Y-87403139D01*
X121598690Y-87352130D01*
X120001030Y-87352130D01*
X119844200Y-87381640D01*
X119844200Y-86770302D01*
X121106301Y-85508201D01*
X121235382Y-85315017D01*
X121346511Y-85389271D01*
X121920000Y-85503345D01*
X122493489Y-85389271D01*
X122979670Y-85064415D01*
X123190000Y-84749634D01*
X123400330Y-85064415D01*
X123886511Y-85389271D01*
X124460000Y-85503345D01*
X125033489Y-85389271D01*
X125519670Y-85064415D01*
X125844526Y-84578234D01*
X125958600Y-84004745D01*
X125958600Y-83635255D01*
X125844526Y-83061766D01*
X125519670Y-82575585D01*
X125033489Y-82250729D01*
X124460000Y-82136655D01*
X123886511Y-82250729D01*
X123400330Y-82575585D01*
X123190000Y-82890366D01*
X122979670Y-82575585D01*
X122493489Y-82250729D01*
X121920000Y-82136655D01*
X121346511Y-82250729D01*
X121328900Y-82262496D01*
X121328900Y-81565000D01*
X121280646Y-81322414D01*
X121271048Y-81274160D01*
X121106301Y-81027599D01*
X118951000Y-78872298D01*
X118951000Y-77851000D01*
X119094250Y-77851000D01*
X119253000Y-77692250D01*
X119253000Y-76327000D01*
X119233000Y-76327000D01*
X119233000Y-76073000D01*
X119253000Y-76073000D01*
X119253000Y-76053000D01*
X119507000Y-76053000D01*
X119507000Y-76073000D01*
X119507000Y-76073000D01*
G37*
X119507000Y-76073000D02*
X119527000Y-76073000D01*
X119527000Y-76327000D01*
X119507000Y-76327000D01*
X119507000Y-77692250D01*
X119665750Y-77851000D01*
X120369910Y-77851000D01*
X120603299Y-77754327D01*
X120781927Y-77575698D01*
X120845500Y-77422220D01*
X120860330Y-77444415D01*
X121346511Y-77769271D01*
X121920000Y-77883345D01*
X122493489Y-77769271D01*
X122847036Y-77533038D01*
X125109599Y-79795601D01*
X125356160Y-79960348D01*
X125404414Y-79969946D01*
X125647000Y-80018200D01*
X128481452Y-80018200D01*
X128340222Y-80112567D01*
X127982330Y-80648190D01*
X127856655Y-81280000D01*
X127957619Y-81787579D01*
X127446599Y-82298599D01*
X127281852Y-82545161D01*
X127224000Y-82836000D01*
X127224000Y-87402560D01*
X126984000Y-87402560D01*
X126748683Y-87446838D01*
X126532559Y-87585910D01*
X126387569Y-87798110D01*
X126336560Y-88050000D01*
X126336560Y-89365800D01*
X125631440Y-89365800D01*
X125631440Y-88050000D01*
X125587162Y-87814683D01*
X125448090Y-87598559D01*
X125235890Y-87453569D01*
X124984000Y-87402560D01*
X122984000Y-87402560D01*
X122748683Y-87446838D01*
X122532559Y-87585910D01*
X122387569Y-87798110D01*
X122336560Y-88050000D01*
X122336560Y-88140000D01*
X122246130Y-88140000D01*
X122246130Y-87999570D01*
X122201852Y-87764253D01*
X122062780Y-87548129D01*
X121850580Y-87403139D01*
X121598690Y-87352130D01*
X120001030Y-87352130D01*
X119844200Y-87381640D01*
X119844200Y-86770302D01*
X121106301Y-85508201D01*
X121235382Y-85315017D01*
X121346511Y-85389271D01*
X121920000Y-85503345D01*
X122493489Y-85389271D01*
X122979670Y-85064415D01*
X123190000Y-84749634D01*
X123400330Y-85064415D01*
X123886511Y-85389271D01*
X124460000Y-85503345D01*
X125033489Y-85389271D01*
X125519670Y-85064415D01*
X125844526Y-84578234D01*
X125958600Y-84004745D01*
X125958600Y-83635255D01*
X125844526Y-83061766D01*
X125519670Y-82575585D01*
X125033489Y-82250729D01*
X124460000Y-82136655D01*
X123886511Y-82250729D01*
X123400330Y-82575585D01*
X123190000Y-82890366D01*
X122979670Y-82575585D01*
X122493489Y-82250729D01*
X121920000Y-82136655D01*
X121346511Y-82250729D01*
X121328900Y-82262496D01*
X121328900Y-81565000D01*
X121280646Y-81322414D01*
X121271048Y-81274160D01*
X121106301Y-81027599D01*
X118951000Y-78872298D01*
X118951000Y-77851000D01*
X119094250Y-77851000D01*
X119253000Y-77692250D01*
X119253000Y-76327000D01*
X119233000Y-76327000D01*
X119233000Y-76073000D01*
X119253000Y-76073000D01*
X119253000Y-76053000D01*
X119507000Y-76053000D01*
X119507000Y-76073000D01*
G36*
X140881899Y-80983501D02*
X141128461Y-81148248D01*
X141419300Y-81206100D01*
X141676598Y-81206100D01*
X142933282Y-82462784D01*
X142788559Y-82555910D01*
X142643569Y-82768110D01*
X142592560Y-83020000D01*
X142592560Y-84474300D01*
X141875000Y-84474300D01*
X141875000Y-84105750D01*
X141716250Y-83947000D01*
X140367000Y-83947000D01*
X140367000Y-83967000D01*
X140113000Y-83967000D01*
X140113000Y-83947000D01*
X138763750Y-83947000D01*
X138605000Y-84105750D01*
X138605000Y-84474300D01*
X136627102Y-84474300D01*
X135046492Y-82893690D01*
X138605000Y-82893690D01*
X138605000Y-83534250D01*
X138763750Y-83693000D01*
X140113000Y-83693000D01*
X140113000Y-82543750D01*
X140367000Y-82543750D01*
X140367000Y-83693000D01*
X141716250Y-83693000D01*
X141875000Y-83534250D01*
X141875000Y-82893690D01*
X141778327Y-82660301D01*
X141599698Y-82481673D01*
X141366309Y-82385000D01*
X140525750Y-82385000D01*
X140367000Y-82543750D01*
X140113000Y-82543750D01*
X139954250Y-82385000D01*
X139113691Y-82385000D01*
X138880302Y-82481673D01*
X138701673Y-82660301D01*
X138605000Y-82893690D01*
X135046492Y-82893690D01*
X130061401Y-77908599D01*
X129814839Y-77743852D01*
X129524000Y-77686000D01*
X127698113Y-77686000D01*
X128059670Y-77444415D01*
X128335705Y-77031300D01*
X136929698Y-77031300D01*
X140881899Y-80983501D01*
X140881899Y-80983501D01*
G37*
X140881899Y-80983501D02*
X141128461Y-81148248D01*
X141419300Y-81206100D01*
X141676598Y-81206100D01*
X142933282Y-82462784D01*
X142788559Y-82555910D01*
X142643569Y-82768110D01*
X142592560Y-83020000D01*
X142592560Y-84474300D01*
X141875000Y-84474300D01*
X141875000Y-84105750D01*
X141716250Y-83947000D01*
X140367000Y-83947000D01*
X140367000Y-83967000D01*
X140113000Y-83967000D01*
X140113000Y-83947000D01*
X138763750Y-83947000D01*
X138605000Y-84105750D01*
X138605000Y-84474300D01*
X136627102Y-84474300D01*
X135046492Y-82893690D01*
X138605000Y-82893690D01*
X138605000Y-83534250D01*
X138763750Y-83693000D01*
X140113000Y-83693000D01*
X140113000Y-82543750D01*
X140367000Y-82543750D01*
X140367000Y-83693000D01*
X141716250Y-83693000D01*
X141875000Y-83534250D01*
X141875000Y-82893690D01*
X141778327Y-82660301D01*
X141599698Y-82481673D01*
X141366309Y-82385000D01*
X140525750Y-82385000D01*
X140367000Y-82543750D01*
X140113000Y-82543750D01*
X139954250Y-82385000D01*
X139113691Y-82385000D01*
X138880302Y-82481673D01*
X138701673Y-82660301D01*
X138605000Y-82893690D01*
X135046492Y-82893690D01*
X130061401Y-77908599D01*
X129814839Y-77743852D01*
X129524000Y-77686000D01*
X127698113Y-77686000D01*
X128059670Y-77444415D01*
X128335705Y-77031300D01*
X136929698Y-77031300D01*
X140881899Y-80983501D01*
G36*
X162040570Y-78050390D02*
X162199320Y-78209140D01*
X163449000Y-78209140D01*
X163449000Y-78189140D01*
X163703000Y-78189140D01*
X163703000Y-78209140D01*
X163723000Y-78209140D01*
X163723000Y-78463140D01*
X163703000Y-78463140D01*
X163703000Y-78483140D01*
X163449000Y-78483140D01*
X163449000Y-78463140D01*
X162199320Y-78463140D01*
X162040570Y-78621890D01*
X162040570Y-78700300D01*
X161837497Y-78700300D01*
X161974431Y-78499890D01*
X162025440Y-78248000D01*
X162025440Y-77948800D01*
X162040570Y-77948800D01*
X162040570Y-78050390D01*
X162040570Y-78050390D01*
G37*
X162040570Y-78050390D02*
X162199320Y-78209140D01*
X163449000Y-78209140D01*
X163449000Y-78189140D01*
X163703000Y-78189140D01*
X163703000Y-78209140D01*
X163723000Y-78209140D01*
X163723000Y-78463140D01*
X163703000Y-78463140D01*
X163703000Y-78483140D01*
X163449000Y-78483140D01*
X163449000Y-78463140D01*
X162199320Y-78463140D01*
X162040570Y-78621890D01*
X162040570Y-78700300D01*
X161837497Y-78700300D01*
X161974431Y-78499890D01*
X162025440Y-78248000D01*
X162025440Y-77948800D01*
X162040570Y-77948800D01*
X162040570Y-78050390D01*
G36*
X130594816Y-74568087D02*
X130739076Y-74803000D01*
X131953000Y-74803000D01*
X131953000Y-74783000D01*
X132207000Y-74783000D01*
X132207000Y-74803000D01*
X132227000Y-74803000D01*
X132227000Y-75057000D01*
X132207000Y-75057000D01*
X132207000Y-75077000D01*
X131953000Y-75077000D01*
X131953000Y-75057000D01*
X130739076Y-75057000D01*
X130594816Y-75291913D01*
X130671557Y-75511300D01*
X128499865Y-75511300D01*
X128479739Y-75497852D01*
X128392219Y-75480443D01*
X128384526Y-75441766D01*
X128059670Y-74955585D01*
X127573489Y-74630729D01*
X127000000Y-74516655D01*
X126426511Y-74630729D01*
X125940330Y-74955585D01*
X125730000Y-75270366D01*
X125519670Y-74955585D01*
X125033489Y-74630729D01*
X124460000Y-74516655D01*
X123886511Y-74630729D01*
X123400330Y-74955585D01*
X123190000Y-75270366D01*
X122979670Y-74955585D01*
X122493489Y-74630729D01*
X121920000Y-74516655D01*
X121346511Y-74630729D01*
X120860330Y-74955585D01*
X120845500Y-74977780D01*
X120781927Y-74824302D01*
X120603299Y-74645673D01*
X120369910Y-74549000D01*
X119712802Y-74549000D01*
X119936602Y-74325200D01*
X130679777Y-74325200D01*
X130594816Y-74568087D01*
X130594816Y-74568087D01*
G37*
X130594816Y-74568087D02*
X130739076Y-74803000D01*
X131953000Y-74803000D01*
X131953000Y-74783000D01*
X132207000Y-74783000D01*
X132207000Y-74803000D01*
X132227000Y-74803000D01*
X132227000Y-75057000D01*
X132207000Y-75057000D01*
X132207000Y-75077000D01*
X131953000Y-75077000D01*
X131953000Y-75057000D01*
X130739076Y-75057000D01*
X130594816Y-75291913D01*
X130671557Y-75511300D01*
X128499865Y-75511300D01*
X128479739Y-75497852D01*
X128392219Y-75480443D01*
X128384526Y-75441766D01*
X128059670Y-74955585D01*
X127573489Y-74630729D01*
X127000000Y-74516655D01*
X126426511Y-74630729D01*
X125940330Y-74955585D01*
X125730000Y-75270366D01*
X125519670Y-74955585D01*
X125033489Y-74630729D01*
X124460000Y-74516655D01*
X123886511Y-74630729D01*
X123400330Y-74955585D01*
X123190000Y-75270366D01*
X122979670Y-74955585D01*
X122493489Y-74630729D01*
X121920000Y-74516655D01*
X121346511Y-74630729D01*
X120860330Y-74955585D01*
X120845500Y-74977780D01*
X120781927Y-74824302D01*
X120603299Y-74645673D01*
X120369910Y-74549000D01*
X119712802Y-74549000D01*
X119936602Y-74325200D01*
X130679777Y-74325200D01*
X130594816Y-74568087D01*
G36*
X152524457Y-87005275D02*
X152524548Y-87005139D01*
X152527977Y-86987901D01*
X152534052Y-86987901D01*
X152551425Y-87005275D01*
X152551426Y-87005275D01*
X152534052Y-86987901D01*
X152527977Y-86987901D01*
X152528985Y-86982834D01*
X152582400Y-86714300D01*
X152524548Y-86423460D01*
X152359801Y-86176899D01*
X148362001Y-82179099D01*
X148115439Y-82014352D01*
X147824600Y-81956500D01*
X144576602Y-81956500D01*
X143066202Y-80446100D01*
X143798252Y-79714050D01*
X144494815Y-79714050D01*
X144562875Y-79955051D01*
X145082174Y-80139887D01*
X145632678Y-80111925D01*
X146011405Y-79955051D01*
X146079465Y-79714050D01*
X145287140Y-78921725D01*
X144494815Y-79714050D01*
X143798252Y-79714050D01*
X144065922Y-79446380D01*
X144074209Y-79466385D01*
X144315210Y-79534445D01*
X145107535Y-78742120D01*
X145093393Y-78727978D01*
X145272998Y-78548373D01*
X145287140Y-78562515D01*
X146079465Y-77770190D01*
X146011405Y-77529189D01*
X145990540Y-77521762D01*
X153735603Y-69776700D01*
X158553898Y-69776700D01*
X151861699Y-76468899D01*
X151696952Y-76715461D01*
X151639100Y-77006300D01*
X151639100Y-77556973D01*
X151615303Y-77566806D01*
X151225196Y-77956233D01*
X151129165Y-78187501D01*
X151034454Y-77958283D01*
X150645027Y-77568176D01*
X150135956Y-77356791D01*
X149584742Y-77356310D01*
X149075303Y-77566806D01*
X148843077Y-77798627D01*
X148613027Y-77568176D01*
X148103956Y-77356791D01*
X147552742Y-77356310D01*
X147043303Y-77566806D01*
X146653196Y-77956233D01*
X146563761Y-78171616D01*
X146500071Y-78017855D01*
X146259070Y-77949795D01*
X145466745Y-78742120D01*
X146259070Y-79534445D01*
X146500071Y-79466385D01*
X146558909Y-79301080D01*
X146651826Y-79525957D01*
X147041253Y-79916064D01*
X147550324Y-80127449D01*
X148101538Y-80127930D01*
X148610977Y-79917434D01*
X148843203Y-79685613D01*
X149073253Y-79916064D01*
X149582324Y-80127449D01*
X150133538Y-80127930D01*
X150642977Y-79917434D01*
X151033084Y-79528007D01*
X151129115Y-79296739D01*
X151223826Y-79525957D01*
X151613253Y-79916064D01*
X151639100Y-79926797D01*
X151639100Y-81694200D01*
X151696952Y-81985039D01*
X151861699Y-82231601D01*
X152052088Y-82421990D01*
X151949150Y-82421990D01*
X151713833Y-82466268D01*
X151497709Y-82605340D01*
X151352719Y-82817540D01*
X151301710Y-83069430D01*
X151301710Y-84570570D01*
X151345988Y-84805887D01*
X151485060Y-85022011D01*
X151697260Y-85167001D01*
X151949150Y-85218010D01*
X154861700Y-85218010D01*
X154861700Y-86135698D01*
X153264106Y-87733292D01*
X153199269Y-87635527D01*
X153022492Y-87458750D01*
X152913618Y-87384359D01*
X152845716Y-87281974D01*
X152668939Y-87105197D01*
X152580131Y-87044517D01*
X152572681Y-87026531D01*
X152551425Y-87005275D01*
X152524457Y-87005275D01*
X152524457Y-87005275D01*
G37*
X152524457Y-87005275D02*
X152524548Y-87005139D01*
X152527977Y-86987901D01*
X152534052Y-86987901D01*
X152551425Y-87005275D01*
X152551426Y-87005275D01*
X152534052Y-86987901D01*
X152527977Y-86987901D01*
X152528985Y-86982834D01*
X152582400Y-86714300D01*
X152524548Y-86423460D01*
X152359801Y-86176899D01*
X148362001Y-82179099D01*
X148115439Y-82014352D01*
X147824600Y-81956500D01*
X144576602Y-81956500D01*
X143066202Y-80446100D01*
X143798252Y-79714050D01*
X144494815Y-79714050D01*
X144562875Y-79955051D01*
X145082174Y-80139887D01*
X145632678Y-80111925D01*
X146011405Y-79955051D01*
X146079465Y-79714050D01*
X145287140Y-78921725D01*
X144494815Y-79714050D01*
X143798252Y-79714050D01*
X144065922Y-79446380D01*
X144074209Y-79466385D01*
X144315210Y-79534445D01*
X145107535Y-78742120D01*
X145093393Y-78727978D01*
X145272998Y-78548373D01*
X145287140Y-78562515D01*
X146079465Y-77770190D01*
X146011405Y-77529189D01*
X145990540Y-77521762D01*
X153735603Y-69776700D01*
X158553898Y-69776700D01*
X151861699Y-76468899D01*
X151696952Y-76715461D01*
X151639100Y-77006300D01*
X151639100Y-77556973D01*
X151615303Y-77566806D01*
X151225196Y-77956233D01*
X151129165Y-78187501D01*
X151034454Y-77958283D01*
X150645027Y-77568176D01*
X150135956Y-77356791D01*
X149584742Y-77356310D01*
X149075303Y-77566806D01*
X148843077Y-77798627D01*
X148613027Y-77568176D01*
X148103956Y-77356791D01*
X147552742Y-77356310D01*
X147043303Y-77566806D01*
X146653196Y-77956233D01*
X146563761Y-78171616D01*
X146500071Y-78017855D01*
X146259070Y-77949795D01*
X145466745Y-78742120D01*
X146259070Y-79534445D01*
X146500071Y-79466385D01*
X146558909Y-79301080D01*
X146651826Y-79525957D01*
X147041253Y-79916064D01*
X147550324Y-80127449D01*
X148101538Y-80127930D01*
X148610977Y-79917434D01*
X148843203Y-79685613D01*
X149073253Y-79916064D01*
X149582324Y-80127449D01*
X150133538Y-80127930D01*
X150642977Y-79917434D01*
X151033084Y-79528007D01*
X151129115Y-79296739D01*
X151223826Y-79525957D01*
X151613253Y-79916064D01*
X151639100Y-79926797D01*
X151639100Y-81694200D01*
X151696952Y-81985039D01*
X151861699Y-82231601D01*
X152052088Y-82421990D01*
X151949150Y-82421990D01*
X151713833Y-82466268D01*
X151497709Y-82605340D01*
X151352719Y-82817540D01*
X151301710Y-83069430D01*
X151301710Y-84570570D01*
X151345988Y-84805887D01*
X151485060Y-85022011D01*
X151697260Y-85167001D01*
X151949150Y-85218010D01*
X154861700Y-85218010D01*
X154861700Y-86135698D01*
X153264106Y-87733292D01*
X153199269Y-87635527D01*
X153022492Y-87458750D01*
X152913618Y-87384359D01*
X152845716Y-87281974D01*
X152668939Y-87105197D01*
X152580131Y-87044517D01*
X152572681Y-87026531D01*
X152551425Y-87005275D01*
X152524457Y-87005275D01*
M02*
