%TF.GenerationSoftware,KiCad,Pcbnew,4.0.2+dfsg1-stable*%
%TF.CreationDate,2019-03-31T18:37:28+02:00*%
%TF.ProjectId,StandAlone-Adapter,5374616E64416C6F6E652D4164617074,rev?*%
%TF.FileFunction,Copper,L1,Top,Signal*%
%FSLAX46Y46*%
G04 Gerber Fmt 4.6, Leading zero omitted, Abs format (unit mm)*
G04 Created by KiCad (PCBNEW 4.0.2+dfsg1-stable) date Sun 31 Mar 2019 18:37:28 CEST*
%MOMM*%
G01*
G04 APERTURE LIST*
%ADD10C,0.100000*%
%ADD11C,0.381000*%
%ADD12R,2.600960X1.600200*%
%ADD13C,4.064000*%
%ADD14R,3.657600X2.032000*%
%ADD15R,1.016000X2.032000*%
%ADD16C,1.998980*%
%ADD17R,0.800100X0.800100*%
%ADD18C,1.270000*%
%ADD19C,3.600000*%
%ADD20R,1.800860X1.597660*%
%ADD21R,1.597660X1.800860*%
%ADD22R,1.700000X2.000000*%
%ADD23R,2.000000X1.700000*%
%ADD24C,1.501140*%
%ADD25C,2.999740*%
%ADD26C,1.500000*%
%ADD27R,2.000000X1.600000*%
%ADD28R,1.600000X2.000000*%
%ADD29R,1.727200X2.032000*%
%ADD30O,1.727200X2.032000*%
%ADD31R,2.032000X2.032000*%
%ADD32O,2.032000X2.032000*%
%ADD33R,1.600000X2.180000*%
%ADD34R,1.998980X1.998980*%
%ADD35R,2.032000X1.727200*%
%ADD36O,2.032000X1.727200*%
%ADD37R,1.727200X1.727200*%
%ADD38O,1.727200X1.727200*%
%ADD39C,0.600000*%
%ADD40C,0.250000*%
%ADD41C,0.254000*%
G04 APERTURE END LIST*
D10*
D11*
X177868580Y-98597720D02*
X177868580Y-100197920D01*
X177868580Y-100197920D02*
X179067460Y-100197920D01*
X175369220Y-100197920D02*
X175369220Y-98696780D01*
X175369220Y-98696780D02*
X176268380Y-98696780D01*
X176268380Y-98696780D02*
X176469040Y-98696780D01*
X176469040Y-98696780D02*
X176667160Y-98798380D01*
X176667160Y-98798380D02*
X176768760Y-98999040D01*
X176768760Y-98999040D02*
X176768760Y-99197160D01*
X176768760Y-99197160D02*
X176568100Y-99397820D01*
X176568100Y-99397820D02*
X176268380Y-99496880D01*
X176268380Y-99496880D02*
X175369220Y-99496880D01*
X174167800Y-98798380D02*
X173967140Y-98696780D01*
X173967140Y-98696780D02*
X173466760Y-98696780D01*
X173466760Y-98696780D02*
X173167040Y-98798380D01*
X173167040Y-98798380D02*
X172968920Y-98897440D01*
X172968920Y-98897440D02*
X172768260Y-99197160D01*
X172768260Y-99197160D02*
X172768260Y-99496880D01*
X172768260Y-99496880D02*
X172867320Y-99898200D01*
X172867320Y-99898200D02*
X173167040Y-100098860D01*
X173167040Y-100098860D02*
X173466760Y-100197920D01*
X173466760Y-100197920D02*
X173769020Y-100197920D01*
X173769020Y-100197920D02*
X174266860Y-100098860D01*
X174266860Y-100098860D02*
X174266860Y-99598480D01*
X174266860Y-99598480D02*
X173769020Y-99598480D01*
X177568860Y-96098360D02*
X177568860Y-97398840D01*
X177568860Y-97398840D02*
X177868580Y-97596960D01*
X177868580Y-97596960D02*
X178168300Y-97596960D01*
X178168300Y-97596960D02*
X178567080Y-97596960D01*
X178567080Y-97596960D02*
X178866800Y-97497900D01*
X178866800Y-97497900D02*
X179067460Y-97398840D01*
X179067460Y-97398840D02*
X179067460Y-96098360D01*
X174967900Y-97596960D02*
X174967900Y-96098360D01*
X174967900Y-96098360D02*
X176469040Y-97596960D01*
X176469040Y-97596960D02*
X176469040Y-96098360D01*
X173769020Y-96197420D02*
X173466760Y-96098360D01*
X173466760Y-96098360D02*
X172968920Y-96197420D01*
X172968920Y-96197420D02*
X172567600Y-96398080D01*
X172567600Y-96398080D02*
X172366940Y-96796860D01*
X172366940Y-96796860D02*
X172468540Y-97198180D01*
X172468540Y-97198180D02*
X172768260Y-97497900D01*
X172768260Y-97497900D02*
X173268640Y-97698560D01*
X173268640Y-97698560D02*
X173967140Y-97497900D01*
X173967140Y-97497900D02*
X173967140Y-96997520D01*
X173967140Y-96997520D02*
X173466760Y-96997520D01*
X171704000Y-95250000D02*
X179832000Y-95250000D01*
X179832000Y-95250000D02*
X179832000Y-100838000D01*
X179832000Y-100838000D02*
X171704000Y-100838000D01*
X171704000Y-100838000D02*
X171704000Y-95250000D01*
D12*
X157248860Y-83820000D03*
X153647140Y-83820000D03*
X140439140Y-83820000D03*
X144040860Y-83820000D03*
D10*
G36*
X142912676Y-95800800D02*
X142735899Y-95624023D01*
X143443006Y-94916916D01*
X143619783Y-95093693D01*
X142912676Y-95800800D01*
X142912676Y-95800800D01*
G37*
G36*
X143266229Y-96154354D02*
X143089452Y-95977577D01*
X143796559Y-95270470D01*
X143973336Y-95447247D01*
X143266229Y-96154354D01*
X143266229Y-96154354D01*
G37*
G36*
X143619783Y-96507907D02*
X143443006Y-96331130D01*
X144150113Y-95624023D01*
X144326890Y-95800800D01*
X143619783Y-96507907D01*
X143619783Y-96507907D01*
G37*
G36*
X143973336Y-96861460D02*
X143796559Y-96684683D01*
X144503666Y-95977576D01*
X144680443Y-96154353D01*
X143973336Y-96861460D01*
X143973336Y-96861460D01*
G37*
G36*
X144326889Y-97215014D02*
X144150112Y-97038237D01*
X144857219Y-96331130D01*
X145033996Y-96507907D01*
X144326889Y-97215014D01*
X144326889Y-97215014D01*
G37*
G36*
X144680443Y-97568567D02*
X144503666Y-97391790D01*
X145210773Y-96684683D01*
X145387550Y-96861460D01*
X144680443Y-97568567D01*
X144680443Y-97568567D01*
G37*
G36*
X145033996Y-97922121D02*
X144857219Y-97745344D01*
X145564326Y-97038237D01*
X145741103Y-97215014D01*
X145033996Y-97922121D01*
X145033996Y-97922121D01*
G37*
G36*
X145387550Y-98275674D02*
X145210773Y-98098897D01*
X145917880Y-97391790D01*
X146094657Y-97568567D01*
X145387550Y-98275674D01*
X145387550Y-98275674D01*
G37*
G36*
X145741103Y-98629227D02*
X145564326Y-98452450D01*
X146271433Y-97745343D01*
X146448210Y-97922120D01*
X145741103Y-98629227D01*
X145741103Y-98629227D01*
G37*
G36*
X146094656Y-98982781D02*
X145917879Y-98806004D01*
X146624986Y-98098897D01*
X146801763Y-98275674D01*
X146094656Y-98982781D01*
X146094656Y-98982781D01*
G37*
G36*
X146448210Y-99336334D02*
X146271433Y-99159557D01*
X146978540Y-98452450D01*
X147155317Y-98629227D01*
X146448210Y-99336334D01*
X146448210Y-99336334D01*
G37*
G36*
X146801763Y-99689888D02*
X146624986Y-99513111D01*
X147332093Y-98806004D01*
X147508870Y-98982781D01*
X146801763Y-99689888D01*
X146801763Y-99689888D01*
G37*
G36*
X147155317Y-100043441D02*
X146978540Y-99866664D01*
X147685647Y-99159557D01*
X147862424Y-99336334D01*
X147155317Y-100043441D01*
X147155317Y-100043441D01*
G37*
G36*
X147508870Y-100396994D02*
X147332093Y-100220217D01*
X148039200Y-99513110D01*
X148215977Y-99689887D01*
X147508870Y-100396994D01*
X147508870Y-100396994D01*
G37*
G36*
X147862423Y-100750548D02*
X147685646Y-100573771D01*
X148392753Y-99866664D01*
X148569530Y-100043441D01*
X147862423Y-100750548D01*
X147862423Y-100750548D01*
G37*
G36*
X148215977Y-101104101D02*
X148039200Y-100927324D01*
X148746307Y-100220217D01*
X148923084Y-100396994D01*
X148215977Y-101104101D01*
X148215977Y-101104101D01*
G37*
G36*
X151680800Y-100927324D02*
X151504023Y-101104101D01*
X150796916Y-100396994D01*
X150973693Y-100220217D01*
X151680800Y-100927324D01*
X151680800Y-100927324D01*
G37*
G36*
X152034354Y-100573771D02*
X151857577Y-100750548D01*
X151150470Y-100043441D01*
X151327247Y-99866664D01*
X152034354Y-100573771D01*
X152034354Y-100573771D01*
G37*
G36*
X152387907Y-100220217D02*
X152211130Y-100396994D01*
X151504023Y-99689887D01*
X151680800Y-99513110D01*
X152387907Y-100220217D01*
X152387907Y-100220217D01*
G37*
G36*
X152741460Y-99866664D02*
X152564683Y-100043441D01*
X151857576Y-99336334D01*
X152034353Y-99159557D01*
X152741460Y-99866664D01*
X152741460Y-99866664D01*
G37*
G36*
X153095014Y-99513111D02*
X152918237Y-99689888D01*
X152211130Y-98982781D01*
X152387907Y-98806004D01*
X153095014Y-99513111D01*
X153095014Y-99513111D01*
G37*
G36*
X153448567Y-99159557D02*
X153271790Y-99336334D01*
X152564683Y-98629227D01*
X152741460Y-98452450D01*
X153448567Y-99159557D01*
X153448567Y-99159557D01*
G37*
G36*
X153802121Y-98806004D02*
X153625344Y-98982781D01*
X152918237Y-98275674D01*
X153095014Y-98098897D01*
X153802121Y-98806004D01*
X153802121Y-98806004D01*
G37*
G36*
X154155674Y-98452450D02*
X153978897Y-98629227D01*
X153271790Y-97922120D01*
X153448567Y-97745343D01*
X154155674Y-98452450D01*
X154155674Y-98452450D01*
G37*
G36*
X154509227Y-98098897D02*
X154332450Y-98275674D01*
X153625343Y-97568567D01*
X153802120Y-97391790D01*
X154509227Y-98098897D01*
X154509227Y-98098897D01*
G37*
G36*
X154862781Y-97745344D02*
X154686004Y-97922121D01*
X153978897Y-97215014D01*
X154155674Y-97038237D01*
X154862781Y-97745344D01*
X154862781Y-97745344D01*
G37*
G36*
X155216334Y-97391790D02*
X155039557Y-97568567D01*
X154332450Y-96861460D01*
X154509227Y-96684683D01*
X155216334Y-97391790D01*
X155216334Y-97391790D01*
G37*
G36*
X155569888Y-97038237D02*
X155393111Y-97215014D01*
X154686004Y-96507907D01*
X154862781Y-96331130D01*
X155569888Y-97038237D01*
X155569888Y-97038237D01*
G37*
G36*
X155923441Y-96684683D02*
X155746664Y-96861460D01*
X155039557Y-96154353D01*
X155216334Y-95977576D01*
X155923441Y-96684683D01*
X155923441Y-96684683D01*
G37*
G36*
X156276994Y-96331130D02*
X156100217Y-96507907D01*
X155393110Y-95800800D01*
X155569887Y-95624023D01*
X156276994Y-96331130D01*
X156276994Y-96331130D01*
G37*
G36*
X156630548Y-95977577D02*
X156453771Y-96154354D01*
X155746664Y-95447247D01*
X155923441Y-95270470D01*
X156630548Y-95977577D01*
X156630548Y-95977577D01*
G37*
G36*
X156984101Y-95624023D02*
X156807324Y-95800800D01*
X156100217Y-95093693D01*
X156276994Y-94916916D01*
X156984101Y-95624023D01*
X156984101Y-95624023D01*
G37*
G36*
X156276994Y-93043084D02*
X156100217Y-92866307D01*
X156807324Y-92159200D01*
X156984101Y-92335977D01*
X156276994Y-93043084D01*
X156276994Y-93043084D01*
G37*
G36*
X155923441Y-92689530D02*
X155746664Y-92512753D01*
X156453771Y-91805646D01*
X156630548Y-91982423D01*
X155923441Y-92689530D01*
X155923441Y-92689530D01*
G37*
G36*
X155569887Y-92335977D02*
X155393110Y-92159200D01*
X156100217Y-91452093D01*
X156276994Y-91628870D01*
X155569887Y-92335977D01*
X155569887Y-92335977D01*
G37*
G36*
X155216334Y-91982424D02*
X155039557Y-91805647D01*
X155746664Y-91098540D01*
X155923441Y-91275317D01*
X155216334Y-91982424D01*
X155216334Y-91982424D01*
G37*
G36*
X154862781Y-91628870D02*
X154686004Y-91452093D01*
X155393111Y-90744986D01*
X155569888Y-90921763D01*
X154862781Y-91628870D01*
X154862781Y-91628870D01*
G37*
G36*
X154509227Y-91275317D02*
X154332450Y-91098540D01*
X155039557Y-90391433D01*
X155216334Y-90568210D01*
X154509227Y-91275317D01*
X154509227Y-91275317D01*
G37*
G36*
X154155674Y-90921763D02*
X153978897Y-90744986D01*
X154686004Y-90037879D01*
X154862781Y-90214656D01*
X154155674Y-90921763D01*
X154155674Y-90921763D01*
G37*
G36*
X153802120Y-90568210D02*
X153625343Y-90391433D01*
X154332450Y-89684326D01*
X154509227Y-89861103D01*
X153802120Y-90568210D01*
X153802120Y-90568210D01*
G37*
G36*
X153448567Y-90214657D02*
X153271790Y-90037880D01*
X153978897Y-89330773D01*
X154155674Y-89507550D01*
X153448567Y-90214657D01*
X153448567Y-90214657D01*
G37*
G36*
X153095014Y-89861103D02*
X152918237Y-89684326D01*
X153625344Y-88977219D01*
X153802121Y-89153996D01*
X153095014Y-89861103D01*
X153095014Y-89861103D01*
G37*
G36*
X152741460Y-89507550D02*
X152564683Y-89330773D01*
X153271790Y-88623666D01*
X153448567Y-88800443D01*
X152741460Y-89507550D01*
X152741460Y-89507550D01*
G37*
G36*
X152387907Y-89153996D02*
X152211130Y-88977219D01*
X152918237Y-88270112D01*
X153095014Y-88446889D01*
X152387907Y-89153996D01*
X152387907Y-89153996D01*
G37*
G36*
X152034353Y-88800443D02*
X151857576Y-88623666D01*
X152564683Y-87916559D01*
X152741460Y-88093336D01*
X152034353Y-88800443D01*
X152034353Y-88800443D01*
G37*
G36*
X151680800Y-88446890D02*
X151504023Y-88270113D01*
X152211130Y-87563006D01*
X152387907Y-87739783D01*
X151680800Y-88446890D01*
X151680800Y-88446890D01*
G37*
G36*
X151327247Y-88093336D02*
X151150470Y-87916559D01*
X151857577Y-87209452D01*
X152034354Y-87386229D01*
X151327247Y-88093336D01*
X151327247Y-88093336D01*
G37*
G36*
X150973693Y-87739783D02*
X150796916Y-87563006D01*
X151504023Y-86855899D01*
X151680800Y-87032676D01*
X150973693Y-87739783D01*
X150973693Y-87739783D01*
G37*
G36*
X148923084Y-87563006D02*
X148746307Y-87739783D01*
X148039200Y-87032676D01*
X148215977Y-86855899D01*
X148923084Y-87563006D01*
X148923084Y-87563006D01*
G37*
G36*
X148569530Y-87916559D02*
X148392753Y-88093336D01*
X147685646Y-87386229D01*
X147862423Y-87209452D01*
X148569530Y-87916559D01*
X148569530Y-87916559D01*
G37*
G36*
X148215977Y-88270113D02*
X148039200Y-88446890D01*
X147332093Y-87739783D01*
X147508870Y-87563006D01*
X148215977Y-88270113D01*
X148215977Y-88270113D01*
G37*
G36*
X147862424Y-88623666D02*
X147685647Y-88800443D01*
X146978540Y-88093336D01*
X147155317Y-87916559D01*
X147862424Y-88623666D01*
X147862424Y-88623666D01*
G37*
G36*
X147508870Y-88977219D02*
X147332093Y-89153996D01*
X146624986Y-88446889D01*
X146801763Y-88270112D01*
X147508870Y-88977219D01*
X147508870Y-88977219D01*
G37*
G36*
X147155317Y-89330773D02*
X146978540Y-89507550D01*
X146271433Y-88800443D01*
X146448210Y-88623666D01*
X147155317Y-89330773D01*
X147155317Y-89330773D01*
G37*
G36*
X146801763Y-89684326D02*
X146624986Y-89861103D01*
X145917879Y-89153996D01*
X146094656Y-88977219D01*
X146801763Y-89684326D01*
X146801763Y-89684326D01*
G37*
G36*
X146448210Y-90037880D02*
X146271433Y-90214657D01*
X145564326Y-89507550D01*
X145741103Y-89330773D01*
X146448210Y-90037880D01*
X146448210Y-90037880D01*
G37*
G36*
X146094657Y-90391433D02*
X145917880Y-90568210D01*
X145210773Y-89861103D01*
X145387550Y-89684326D01*
X146094657Y-90391433D01*
X146094657Y-90391433D01*
G37*
G36*
X145741103Y-90744986D02*
X145564326Y-90921763D01*
X144857219Y-90214656D01*
X145033996Y-90037879D01*
X145741103Y-90744986D01*
X145741103Y-90744986D01*
G37*
G36*
X145387550Y-91098540D02*
X145210773Y-91275317D01*
X144503666Y-90568210D01*
X144680443Y-90391433D01*
X145387550Y-91098540D01*
X145387550Y-91098540D01*
G37*
G36*
X145033996Y-91452093D02*
X144857219Y-91628870D01*
X144150112Y-90921763D01*
X144326889Y-90744986D01*
X145033996Y-91452093D01*
X145033996Y-91452093D01*
G37*
G36*
X144680443Y-91805647D02*
X144503666Y-91982424D01*
X143796559Y-91275317D01*
X143973336Y-91098540D01*
X144680443Y-91805647D01*
X144680443Y-91805647D01*
G37*
G36*
X144326890Y-92159200D02*
X144150113Y-92335977D01*
X143443006Y-91628870D01*
X143619783Y-91452093D01*
X144326890Y-92159200D01*
X144326890Y-92159200D01*
G37*
G36*
X143973336Y-92512753D02*
X143796559Y-92689530D01*
X143089452Y-91982423D01*
X143266229Y-91805646D01*
X143973336Y-92512753D01*
X143973336Y-92512753D01*
G37*
G36*
X143619783Y-92866307D02*
X143443006Y-93043084D01*
X142735899Y-92335977D01*
X142912676Y-92159200D01*
X143619783Y-92866307D01*
X143619783Y-92866307D01*
G37*
D13*
X113030000Y-120650000D03*
X184150000Y-120650000D03*
X184150000Y-69850000D03*
X113030000Y-69850000D03*
D14*
X167640000Y-76962000D03*
D15*
X167640000Y-70358000D03*
X165354000Y-70358000D03*
X169926000Y-70358000D03*
D16*
X113030000Y-106680000D03*
D17*
X139380000Y-108219240D03*
X137480000Y-108219240D03*
X138430000Y-110218220D03*
X151318000Y-106187240D03*
X149418000Y-106187240D03*
X150368000Y-108186220D03*
X162494000Y-108219240D03*
X160594000Y-108219240D03*
X161544000Y-110218220D03*
D12*
X169440860Y-91440000D03*
X165839140Y-91440000D03*
D18*
X152285000Y-114290000D03*
X149745000Y-114290000D03*
X153555000Y-111760000D03*
D19*
X155460000Y-120640000D03*
X147840000Y-120640000D03*
D18*
X151015000Y-111760000D03*
D20*
X163576000Y-81175860D03*
X163576000Y-78336140D03*
D21*
X139296140Y-88900000D03*
X142135860Y-88900000D03*
X182775860Y-91440000D03*
X179936140Y-91440000D03*
X117960140Y-88900000D03*
X120799860Y-88900000D03*
D22*
X160528000Y-77248000D03*
X160528000Y-81248000D03*
D23*
X132620000Y-88900000D03*
X136620000Y-88900000D03*
D22*
X126365000Y-91980000D03*
X126365000Y-95980000D03*
D23*
X142780000Y-104648000D03*
X146780000Y-104648000D03*
X153956000Y-104140000D03*
X157956000Y-104140000D03*
X173260000Y-91440000D03*
X177260000Y-91440000D03*
X165195000Y-104140000D03*
X161195000Y-104140000D03*
D22*
X165608000Y-107220000D03*
X165608000Y-111220000D03*
D23*
X142780000Y-109220000D03*
X146780000Y-109220000D03*
X157956000Y-108204000D03*
X153956000Y-108204000D03*
D22*
X134620000Y-111220000D03*
X134620000Y-107220000D03*
D23*
X139795000Y-104140000D03*
X135795000Y-104140000D03*
X123984000Y-88900000D03*
X127984000Y-88900000D03*
D24*
X145287140Y-78742120D03*
X147827140Y-78742120D03*
X149859140Y-78742120D03*
X152399140Y-78742120D03*
D25*
X142239140Y-76075120D03*
X155955140Y-76075120D03*
D26*
X131318000Y-99060000D03*
X136198000Y-99060000D03*
D27*
X158528000Y-87884000D03*
X162528000Y-87884000D03*
D28*
X162560000Y-101060000D03*
X162560000Y-97060000D03*
X160020000Y-101060000D03*
X160020000Y-97060000D03*
D27*
X158528000Y-90424000D03*
X162528000Y-90424000D03*
X141256000Y-101600000D03*
X145256000Y-101600000D03*
X134652000Y-92964000D03*
X138652000Y-92964000D03*
D29*
X119380000Y-76200000D03*
D30*
X121920000Y-76200000D03*
X124460000Y-76200000D03*
X127000000Y-76200000D03*
D29*
X119380000Y-83820000D03*
D30*
X121920000Y-83820000D03*
X124460000Y-83820000D03*
D31*
X129540000Y-83820000D03*
D32*
X129540000Y-81280000D03*
D29*
X137160000Y-73660000D03*
D30*
X134620000Y-73660000D03*
X132080000Y-73660000D03*
D33*
X114300000Y-101110000D03*
X114300000Y-91930000D03*
D31*
X161290000Y-71120000D03*
D32*
X161290000Y-73660000D03*
D34*
X164592000Y-84328000D03*
X170688000Y-84328000D03*
X175260000Y-68072000D03*
X175260000Y-74168000D03*
D35*
X175260000Y-78740000D03*
D36*
X175260000Y-81280000D03*
X175260000Y-83820000D03*
X175260000Y-86360000D03*
D35*
X175260000Y-104140000D03*
D36*
X175260000Y-106680000D03*
X175260000Y-109220000D03*
X175260000Y-111760000D03*
X175260000Y-114300000D03*
D31*
X175260000Y-119380000D03*
D32*
X177800000Y-119380000D03*
D31*
X121920000Y-96520000D03*
D32*
X121920000Y-93980000D03*
D37*
X121920000Y-109220000D03*
D38*
X124460000Y-109220000D03*
X121920000Y-111760000D03*
X124460000Y-111760000D03*
X121920000Y-114300000D03*
X124460000Y-114300000D03*
D39*
X141003300Y-110218200D03*
X153292000Y-112903700D03*
X147460200Y-94365800D03*
X146025700Y-92643100D03*
X151693200Y-98787000D03*
X152410900Y-106493100D03*
X141524800Y-107050100D03*
X141261000Y-109220000D03*
X133480500Y-83418200D03*
X132787000Y-87531700D03*
X133667100Y-97170300D03*
X139307000Y-100823600D03*
X139600000Y-98539800D03*
X153555500Y-109566200D03*
X152213800Y-112723700D03*
X146168100Y-99784900D03*
X159663200Y-107284300D03*
X159663200Y-104823300D03*
X148509100Y-106187200D03*
X146679500Y-97439900D03*
X148284100Y-109220000D03*
X138342700Y-106116400D03*
X144196700Y-99475000D03*
X148465900Y-88738700D03*
X147897600Y-86430600D03*
X148622000Y-97573400D03*
X149354400Y-99788900D03*
X148287800Y-104648000D03*
D40*
X127817400Y-104140000D02*
X135795000Y-104140000D01*
X123108900Y-108848500D02*
X127817400Y-104140000D01*
X123108900Y-109220000D02*
X123108900Y-108848500D01*
X121920000Y-109220000D02*
X123108900Y-109220000D01*
X141003300Y-110218200D02*
X138430000Y-110218200D01*
X123108900Y-109635500D02*
X123108900Y-109220000D01*
X123882300Y-110408900D02*
X123108900Y-109635500D01*
X129264700Y-110408900D02*
X123882300Y-110408900D01*
X129779000Y-109894600D02*
X129264700Y-110408900D01*
X137381000Y-109894600D02*
X129779000Y-109894600D01*
X137704600Y-110218200D02*
X137381000Y-109894600D01*
X138430000Y-110218200D02*
X137704600Y-110218200D01*
X165608000Y-111220000D02*
X164432700Y-111220000D01*
X163430900Y-107047900D02*
X163430900Y-110218200D01*
X164584200Y-105894600D02*
X163430900Y-107047900D01*
X173133300Y-105894600D02*
X164584200Y-105894600D01*
X173918700Y-106680000D02*
X173133300Y-105894600D01*
X161544000Y-110218200D02*
X163430900Y-110218200D01*
X163430900Y-110218200D02*
X164432700Y-111220000D01*
X175260000Y-106680000D02*
X173918700Y-106680000D01*
X161544000Y-110218200D02*
X160818600Y-110218200D01*
X152528900Y-110218200D02*
X160818600Y-110218200D01*
X152528900Y-109082800D02*
X152528900Y-110218200D01*
X150906900Y-107460800D02*
X152528900Y-109082800D01*
X142080700Y-107460800D02*
X150906900Y-107460800D01*
X140321500Y-109220000D02*
X142080700Y-107460800D01*
X124460000Y-109220000D02*
X140321500Y-109220000D01*
X152528900Y-112140600D02*
X153292000Y-112903700D01*
X152528900Y-110218200D02*
X152528900Y-112140600D01*
X124460000Y-111760000D02*
X121920000Y-111760000D01*
X121920000Y-93980000D02*
X120578700Y-93980000D01*
X155124600Y-113329600D02*
X153555000Y-111760000D01*
X171749600Y-113329600D02*
X155124600Y-113329600D01*
X177800000Y-119380000D02*
X171749600Y-113329600D01*
X169926000Y-70358000D02*
X169926000Y-71699300D01*
X138652000Y-92964000D02*
X139977300Y-92964000D01*
X150889700Y-99844200D02*
X151008900Y-99725000D01*
X150405800Y-99844200D02*
X150889700Y-99844200D01*
X148650000Y-101600000D02*
X150405800Y-99844200D01*
X146581300Y-101600000D02*
X148650000Y-101600000D01*
X145256000Y-101600000D02*
X146581300Y-101600000D01*
X151592400Y-100308600D02*
X151008900Y-99725000D01*
X162560000Y-101060000D02*
X160020000Y-101060000D01*
X152343800Y-101060000D02*
X151592400Y-100308600D01*
X160020000Y-101060000D02*
X152343800Y-101060000D01*
X156188600Y-95712400D02*
X155605100Y-95128800D01*
X170882800Y-92565400D02*
X165839100Y-92565400D01*
X171934700Y-91513500D02*
X170882800Y-92565400D01*
X171934700Y-91440000D02*
X171934700Y-91513500D01*
X173260000Y-91440000D02*
X171934700Y-91440000D01*
X165839100Y-91440000D02*
X165839100Y-92565400D01*
X173260000Y-86488800D02*
X173260000Y-91440000D01*
X174739900Y-85008900D02*
X173260000Y-86488800D01*
X175260000Y-85008900D02*
X174739900Y-85008900D01*
X175260000Y-83820000D02*
X175260000Y-85008900D01*
X142135900Y-90852100D02*
X143531400Y-92247600D01*
X142135900Y-88900000D02*
X142135900Y-90852100D01*
X158528000Y-90874100D02*
X158528000Y-91549300D01*
X158528000Y-90874100D02*
X158528000Y-90424000D01*
X158528000Y-90424000D02*
X158528000Y-87884000D01*
X118110000Y-111760000D02*
X113030000Y-106680000D01*
X121920000Y-111760000D02*
X118110000Y-111760000D01*
X113174700Y-106535300D02*
X113030000Y-106680000D01*
X113174700Y-91930000D02*
X113174700Y-106535300D01*
X114300000Y-91930000D02*
X113174700Y-91930000D01*
X119380000Y-83820000D02*
X118191100Y-83820000D01*
X116778900Y-85232200D02*
X118191100Y-83820000D01*
X116778900Y-91930000D02*
X116778900Y-85232200D01*
X114300000Y-91930000D02*
X116778900Y-91930000D01*
X118528700Y-91930000D02*
X120578700Y-93980000D01*
X116778900Y-91930000D02*
X118528700Y-91930000D01*
X144249300Y-92696800D02*
X144115000Y-92831100D01*
X145972000Y-92696800D02*
X144249300Y-92696800D01*
X146025700Y-92643100D02*
X145972000Y-92696800D01*
X143531400Y-92247600D02*
X144115000Y-92831100D01*
X141379100Y-94365800D02*
X139977300Y-92964000D01*
X147460200Y-94365800D02*
X141379100Y-94365800D01*
X151592400Y-87651400D02*
X151008900Y-88234900D01*
X144040900Y-83820000D02*
X145666700Y-83820000D01*
X147491400Y-98823400D02*
X147066900Y-99247900D01*
X147491400Y-94397000D02*
X147491400Y-98823400D01*
X147460200Y-94365800D02*
X147491400Y-94397000D01*
X153647100Y-75756000D02*
X153647100Y-83820000D01*
X158283100Y-71120000D02*
X153647100Y-75756000D01*
X161290000Y-71120000D02*
X158283100Y-71120000D01*
X163576000Y-78336100D02*
X162350300Y-78336100D01*
X162113000Y-78573400D02*
X162350300Y-78336100D01*
X159526400Y-78573400D02*
X162113000Y-78573400D01*
X159303500Y-78350500D02*
X159526400Y-78573400D01*
X159303500Y-76155900D02*
X159303500Y-78350500D01*
X160293000Y-75166400D02*
X159303500Y-76155900D01*
X161727300Y-75166400D02*
X160293000Y-75166400D01*
X162708600Y-74185100D02*
X161727300Y-75166400D01*
X162708600Y-72538600D02*
X162708600Y-74185100D01*
X162631300Y-72461300D02*
X162708600Y-72538600D01*
X162631300Y-71120000D02*
X162631300Y-72461300D01*
X169086700Y-72538600D02*
X169926000Y-71699300D01*
X162708600Y-72538600D02*
X169086700Y-72538600D01*
X161290000Y-71120000D02*
X162631300Y-71120000D01*
X173440200Y-79460200D02*
X163576000Y-79460200D01*
X174071100Y-80091100D02*
X173440200Y-79460200D01*
X175260000Y-80091100D02*
X174071100Y-80091100D01*
X163576000Y-78336100D02*
X163576000Y-79460200D01*
X175260000Y-81280000D02*
X175260000Y-80091100D01*
X145799100Y-79254100D02*
X145799100Y-83687600D01*
X145287100Y-78742100D02*
X145799100Y-79254100D01*
X146461400Y-83687600D02*
X145799100Y-83687600D01*
X150862900Y-88089100D02*
X146461400Y-83687600D01*
X150863000Y-88089100D02*
X150862900Y-88089100D01*
X151008900Y-88234900D02*
X150863000Y-88089100D01*
X145799100Y-83687600D02*
X145666700Y-83820000D01*
X155605100Y-95128800D02*
X155664800Y-95069100D01*
X158528000Y-92001500D02*
X158528000Y-91549300D01*
X155664900Y-94864600D02*
X158528000Y-92001500D01*
X155664900Y-95069000D02*
X155664900Y-94864600D01*
X155664800Y-95069000D02*
X155664900Y-95069000D01*
X155664800Y-95069100D02*
X155664800Y-95069000D01*
X151820000Y-98913800D02*
X151693200Y-98787000D01*
X155664700Y-95069100D02*
X151820000Y-98913800D01*
X155664800Y-95069100D02*
X155664700Y-95069100D01*
X151008800Y-99725000D02*
X151008900Y-99725000D01*
X151820000Y-98913800D02*
X151008800Y-99725000D01*
X149735000Y-114300000D02*
X149745000Y-114290000D01*
X124460000Y-114300000D02*
X149735000Y-114300000D01*
X175260000Y-114300000D02*
X175260000Y-113111100D01*
X165608000Y-107220000D02*
X166783300Y-107220000D01*
X160528000Y-77248000D02*
X161703300Y-77248000D01*
X163331600Y-75619700D02*
X161703300Y-77248000D01*
X175260000Y-75619700D02*
X163331600Y-75619700D01*
X175260000Y-74168000D02*
X175260000Y-75619700D01*
X175260000Y-75619700D02*
X175260000Y-78740000D01*
X139795000Y-104140000D02*
X141120300Y-104140000D01*
X157956000Y-108204000D02*
X157956000Y-107373900D01*
X157956000Y-107373900D02*
X157956000Y-107028700D01*
X173886400Y-112252700D02*
X173886400Y-107950000D01*
X174744800Y-113111100D02*
X173886400Y-112252700D01*
X175260000Y-113111100D02*
X174744800Y-113111100D01*
X167513300Y-107950000D02*
X166783300Y-107220000D01*
X173886400Y-107950000D02*
X167513300Y-107950000D01*
X157420400Y-106493100D02*
X152410900Y-106493100D01*
X157956000Y-107028700D02*
X157420400Y-106493100D01*
X141120300Y-103973000D02*
X141120300Y-104140000D01*
X141634200Y-103459100D02*
X141120300Y-103973000D01*
X149854000Y-103459100D02*
X141634200Y-103459100D01*
X152410900Y-106016000D02*
X149854000Y-103459100D01*
X152410900Y-106493100D02*
X152410900Y-106016000D01*
X175869600Y-107950000D02*
X173886400Y-107950000D01*
X176601400Y-107218200D02*
X175869600Y-107950000D01*
X176601400Y-106124600D02*
X176601400Y-107218200D01*
X175905200Y-105428400D02*
X176601400Y-106124600D01*
X160352700Y-105428400D02*
X175905200Y-105428400D01*
X158407200Y-107373900D02*
X160352700Y-105428400D01*
X157956000Y-107373900D02*
X158407200Y-107373900D01*
X163486100Y-86758700D02*
X162528000Y-86758700D01*
X164592000Y-85652800D02*
X163486100Y-86758700D01*
X164592000Y-84328000D02*
X164592000Y-85652800D01*
X162528000Y-87884000D02*
X162528000Y-86758700D01*
X162528000Y-90424000D02*
X162528000Y-87884000D01*
X162528000Y-90424000D02*
X162528000Y-91549300D01*
X146557100Y-81449000D02*
X151822400Y-86714300D01*
X146557100Y-77772700D02*
X146557100Y-81449000D01*
X142444400Y-73660000D02*
X146557100Y-77772700D01*
X137160000Y-73660000D02*
X142444400Y-73660000D01*
X151238900Y-87297800D02*
X151822400Y-86714300D01*
X147420500Y-99601500D02*
X148004200Y-99017800D01*
X139380000Y-108219200D02*
X140105300Y-108219200D01*
X117960100Y-88900000D02*
X118430300Y-88900000D01*
X140307700Y-108016800D02*
X140105300Y-108219200D01*
X140307700Y-107050100D02*
X140307700Y-108016800D01*
X156542200Y-95358900D02*
X157125700Y-95942400D01*
X160020000Y-97060000D02*
X159007300Y-97060000D01*
X151946000Y-99955100D02*
X152529500Y-100538600D01*
X159007300Y-97060000D02*
X158012300Y-96065000D01*
X162528000Y-91549300D02*
X158012300Y-96065000D01*
X158012300Y-96065000D02*
X157200700Y-96065000D01*
X157200700Y-96017400D02*
X157200700Y-96065000D01*
X157125700Y-95942400D02*
X157200700Y-96017400D01*
X152727100Y-100538600D02*
X152529500Y-100538600D01*
X157200700Y-96065000D02*
X152727100Y-100538600D01*
X160020000Y-97060000D02*
X162560000Y-97060000D01*
X162560000Y-97060000D02*
X163685300Y-97060000D01*
X165195000Y-104140000D02*
X165195000Y-102964700D01*
X153956000Y-104140000D02*
X153956000Y-102964700D01*
X163685300Y-97060000D02*
X163685300Y-102562400D01*
X164792700Y-102562400D02*
X163685300Y-102562400D01*
X165195000Y-102964700D02*
X164792700Y-102562400D01*
X154358300Y-102562400D02*
X153956000Y-102964700D01*
X163685300Y-102562400D02*
X154358300Y-102562400D01*
X118430300Y-88900000D02*
X118538900Y-88900000D01*
X127000000Y-76200000D02*
X128188900Y-76200000D01*
X121379800Y-82464400D02*
X126365000Y-82464400D01*
X120569000Y-83275200D02*
X121379800Y-82464400D01*
X120569000Y-86869900D02*
X120569000Y-83275200D01*
X118538900Y-88900000D02*
X120569000Y-86869900D01*
X126365000Y-82464400D02*
X126365000Y-91980000D01*
X130891000Y-80696200D02*
X129512100Y-79317300D01*
X130891000Y-81724300D02*
X130891000Y-80696200D01*
X133310400Y-84143700D02*
X130891000Y-81724300D01*
X136705700Y-84143700D02*
X133310400Y-84143700D01*
X140585800Y-88023800D02*
X136705700Y-84143700D01*
X140585800Y-90009100D02*
X140585800Y-88023800D01*
X143177800Y-92601100D02*
X140585800Y-90009100D01*
X129512100Y-77523200D02*
X129512100Y-79317300D01*
X128188900Y-76200000D02*
X129512100Y-77523200D01*
X129512100Y-79317300D02*
X126365000Y-82464400D01*
X156447500Y-93391100D02*
X148085500Y-93391100D01*
X157315300Y-92523300D02*
X156447500Y-93391100D01*
X157315300Y-91847000D02*
X157315300Y-92523300D01*
X157132200Y-91663900D02*
X157315300Y-91847000D01*
X157132200Y-86984200D02*
X157132200Y-91663900D01*
X157357700Y-86758700D02*
X157132200Y-86984200D01*
X162528000Y-86758700D02*
X157357700Y-86758700D01*
X143967800Y-93391100D02*
X143177800Y-92601100D01*
X148085500Y-93391100D02*
X143967800Y-93391100D01*
X147941700Y-98955400D02*
X148004200Y-99017800D01*
X147941700Y-94768700D02*
X147941700Y-98955400D01*
X148085500Y-94624900D02*
X147941700Y-94768700D01*
X148085500Y-93391100D02*
X148085500Y-94624900D01*
X121494600Y-91855700D02*
X118538900Y-88900000D01*
X122017300Y-91855700D02*
X121494600Y-91855700D01*
X124435500Y-94273900D02*
X122017300Y-91855700D01*
X128052700Y-94273900D02*
X124435500Y-94273900D01*
X136518500Y-102739700D02*
X128052700Y-94273900D01*
X136799200Y-102739700D02*
X136518500Y-102739700D01*
X138458500Y-104399000D02*
X136799200Y-102739700D01*
X138458500Y-105200900D02*
X138458500Y-104399000D01*
X140307700Y-107050100D02*
X138458500Y-105200900D01*
X140886600Y-111220000D02*
X134620000Y-111220000D01*
X141643400Y-110463200D02*
X140886600Y-111220000D01*
X141643400Y-109220000D02*
X141643400Y-110463200D01*
X141261000Y-109220000D02*
X141643400Y-109220000D01*
X141643400Y-109220000D02*
X142780000Y-109220000D01*
X140307700Y-107050100D02*
X141524800Y-107050100D01*
X142780000Y-104648000D02*
X142780000Y-105823300D01*
X141553200Y-107050100D02*
X142780000Y-105823300D01*
X141524800Y-107050100D02*
X141553200Y-107050100D01*
X151318000Y-106187200D02*
X150592600Y-106187200D01*
X162494000Y-108219200D02*
X161768600Y-108219200D01*
X151469400Y-107154800D02*
X150592600Y-106278000D01*
X152633600Y-107154800D02*
X151469400Y-107154800D01*
X152759700Y-107028700D02*
X152633600Y-107154800D01*
X155115300Y-107028700D02*
X152759700Y-107028700D01*
X155956000Y-107869400D02*
X155115300Y-107028700D01*
X155956000Y-108523400D02*
X155956000Y-107869400D01*
X156812000Y-109379400D02*
X155956000Y-108523400D01*
X160699100Y-109379400D02*
X156812000Y-109379400D01*
X161768600Y-108309900D02*
X160699100Y-109379400D01*
X161768600Y-108219200D02*
X161768600Y-108309900D01*
X149958000Y-106912600D02*
X150592600Y-106278000D01*
X143869300Y-106912600D02*
X149958000Y-106912600D01*
X142780000Y-105823300D02*
X143869300Y-106912600D01*
X150592600Y-106278000D02*
X150592600Y-106187200D01*
X143559900Y-90154700D02*
X144592100Y-91186900D01*
X143559900Y-86609600D02*
X143559900Y-90154700D01*
X142065000Y-85114700D02*
X143559900Y-86609600D01*
X142065000Y-81105000D02*
X142065000Y-85114700D01*
X135808900Y-74848900D02*
X142065000Y-81105000D01*
X135808900Y-73660000D02*
X135808900Y-74848900D01*
X134620000Y-73660000D02*
X135808900Y-73660000D01*
X157248900Y-83820000D02*
X157248900Y-82694600D01*
X157370200Y-82573300D02*
X157248900Y-82694600D01*
X175808300Y-82573300D02*
X157370200Y-82573300D01*
X176638100Y-81743500D02*
X175808300Y-82573300D01*
X176638100Y-70774900D02*
X176638100Y-81743500D01*
X175260000Y-69396800D02*
X176638100Y-70774900D01*
X175260000Y-68072000D02*
X175260000Y-68656900D01*
X175260000Y-68656900D02*
X175260000Y-69396800D01*
X165713800Y-68656900D02*
X165354000Y-69016700D01*
X175260000Y-68656900D02*
X165713800Y-68656900D01*
X165354000Y-70358000D02*
X165354000Y-69016700D01*
X140439100Y-83820000D02*
X138813300Y-83820000D01*
X132620000Y-87698700D02*
X132620000Y-88900000D01*
X132787000Y-87531700D02*
X132620000Y-87698700D01*
X138411500Y-83418200D02*
X133480500Y-83418200D01*
X138813300Y-83820000D02*
X138411500Y-83418200D01*
X170688000Y-84328000D02*
X170688000Y-85652800D01*
X167640000Y-70358000D02*
X167640000Y-71699300D01*
X169440900Y-86899900D02*
X169440900Y-90259600D01*
X170688000Y-85652800D02*
X169440900Y-86899900D01*
X169440900Y-90259600D02*
X169440900Y-91440000D01*
X166914200Y-66735300D02*
X163330700Y-70318800D01*
X176430800Y-66735300D02*
X166914200Y-66735300D01*
X183900100Y-74204600D02*
X176430800Y-66735300D01*
X183900100Y-92526800D02*
X183900100Y-74204600D01*
X183352600Y-93074300D02*
X183900100Y-92526800D01*
X164834600Y-93074300D02*
X183352600Y-93074300D01*
X164213200Y-92452900D02*
X164834600Y-93074300D01*
X164213200Y-90442800D02*
X164213200Y-92452900D01*
X164396400Y-90259600D02*
X164213200Y-90442800D01*
X169440900Y-90259600D02*
X164396400Y-90259600D01*
X164711200Y-71699300D02*
X163330700Y-70318800D01*
X167640000Y-71699300D02*
X164711200Y-71699300D01*
X133415600Y-83353300D02*
X133480500Y-83418200D01*
X133415600Y-72993800D02*
X133415600Y-83353300D01*
X136630800Y-69778600D02*
X133415600Y-72993800D01*
X162790500Y-69778600D02*
X136630800Y-69778600D01*
X163330700Y-70318800D02*
X162790500Y-69778600D01*
X134652000Y-92964000D02*
X134652000Y-94089300D01*
X144592100Y-96773100D02*
X144008600Y-97356600D01*
X134652000Y-94089300D02*
X134652000Y-96307600D01*
X136870300Y-96307600D02*
X134652000Y-96307600D01*
X137794700Y-97232000D02*
X136870300Y-96307600D01*
X143883900Y-97232000D02*
X137794700Y-97232000D01*
X144008600Y-97356600D02*
X143883900Y-97232000D01*
X134529800Y-96307600D02*
X133667100Y-97170300D01*
X134652000Y-96307600D02*
X134529800Y-96307600D01*
X137343500Y-97914500D02*
X136198000Y-99060000D01*
X144157700Y-97914500D02*
X137343500Y-97914500D01*
X144945600Y-97126600D02*
X144157700Y-97914500D01*
X139930700Y-101447300D02*
X139307000Y-100823600D01*
X139930700Y-101600000D02*
X139930700Y-101447300D01*
X141256000Y-101600000D02*
X139930700Y-101600000D01*
X162278200Y-81248000D02*
X162350300Y-81175900D01*
X160528000Y-81248000D02*
X162278200Y-81248000D01*
X163576000Y-81175900D02*
X162350300Y-81175900D01*
X136620000Y-88900000D02*
X139296100Y-88900000D01*
X181651800Y-90878000D02*
X181651800Y-91440000D01*
X177133800Y-86360000D02*
X181651800Y-90878000D01*
X175260000Y-86360000D02*
X177133800Y-86360000D01*
X182775900Y-91440000D02*
X181651800Y-91440000D01*
X177260000Y-91440000D02*
X179936100Y-91440000D01*
X123984000Y-88900000D02*
X120799900Y-88900000D01*
X124649700Y-96520000D02*
X125189700Y-95980000D01*
X121920000Y-96520000D02*
X124649700Y-96520000D01*
X126365000Y-95980000D02*
X125189700Y-95980000D01*
X115988700Y-101110000D02*
X120578700Y-96520000D01*
X114300000Y-101110000D02*
X115988700Y-101110000D01*
X121920000Y-96520000D02*
X120578700Y-96520000D01*
X144239600Y-98539800D02*
X139600000Y-98539800D01*
X145299200Y-97480200D02*
X144239600Y-98539800D01*
X158870100Y-119380000D02*
X152213800Y-112723700D01*
X175260000Y-119380000D02*
X158870100Y-119380000D01*
X153956000Y-108204000D02*
X153956000Y-109379300D01*
X153742400Y-109379300D02*
X153555500Y-109566200D01*
X153956000Y-109379300D02*
X153742400Y-109379300D01*
X121920000Y-114300000D02*
X123108900Y-114300000D01*
X150037600Y-112723700D02*
X152213800Y-112723700D01*
X149650200Y-113111100D02*
X150037600Y-112723700D01*
X123926200Y-113111100D02*
X149650200Y-113111100D01*
X123108900Y-113928400D02*
X123926200Y-113111100D01*
X123108900Y-114300000D02*
X123108900Y-113928400D01*
X150037600Y-109242000D02*
X150368000Y-108911600D01*
X150037600Y-112723700D02*
X150037600Y-109242000D01*
X150368000Y-108186200D02*
X150368000Y-108911600D01*
X146168100Y-99516500D02*
X146129700Y-99478100D01*
X146168100Y-99784900D02*
X146168100Y-99516500D01*
X146713400Y-98894400D02*
X146129700Y-99478100D01*
X159872800Y-107493900D02*
X159663200Y-107284300D01*
X160594000Y-107493900D02*
X159872800Y-107493900D01*
X160594000Y-108219200D02*
X160594000Y-107493900D01*
X161195000Y-104140000D02*
X159869700Y-104140000D01*
X159869700Y-104616800D02*
X159663200Y-104823300D01*
X159869700Y-104140000D02*
X159869700Y-104616800D01*
X149418000Y-106187200D02*
X148692600Y-106187200D01*
X148692600Y-106187200D02*
X148509100Y-106187200D01*
X146006300Y-98187300D02*
X146589900Y-97603700D01*
X146589900Y-97529500D02*
X146679500Y-97439900D01*
X146589900Y-97603700D02*
X146589900Y-97529500D01*
X146780000Y-109220000D02*
X148105300Y-109220000D01*
X148105300Y-109220000D02*
X148284100Y-109220000D01*
X145425600Y-99475000D02*
X146359800Y-98540800D01*
X144196700Y-99475000D02*
X145425600Y-99475000D01*
X136754600Y-108179300D02*
X135795300Y-107220000D01*
X136754600Y-108219200D02*
X136754600Y-108179300D01*
X137480000Y-106979100D02*
X138342700Y-106116400D01*
X137480000Y-108219200D02*
X137480000Y-106979100D01*
X134620000Y-107220000D02*
X135795300Y-107220000D01*
X137480000Y-108219200D02*
X136754600Y-108219200D01*
X147774000Y-99955100D02*
X147190500Y-100538600D01*
X127984000Y-82836000D02*
X127984000Y-88900000D01*
X129540000Y-81280000D02*
X127984000Y-82836000D01*
X127984000Y-92412000D02*
X127984000Y-88900000D01*
X135770300Y-100198300D02*
X127984000Y-92412000D01*
X139566100Y-100198300D02*
X135770300Y-100198300D01*
X139778000Y-100410200D02*
X139566100Y-100198300D01*
X147062100Y-100410200D02*
X139778000Y-100410200D01*
X147190500Y-100538600D02*
X147062100Y-100410200D01*
X151212200Y-88738700D02*
X148465900Y-88738700D01*
X151946000Y-88004900D02*
X151212200Y-88738700D01*
X148481100Y-87297800D02*
X147897600Y-86714300D01*
X147897600Y-86430600D02*
X147897600Y-86714300D01*
X148127600Y-100308600D02*
X148711200Y-99725000D01*
X148622000Y-99635900D02*
X148711200Y-99725000D01*
X148622000Y-97573400D02*
X148622000Y-99635900D01*
X161290000Y-73660000D02*
X159948700Y-73660000D01*
X155623000Y-86449200D02*
X153006600Y-89065600D01*
X155623000Y-79199500D02*
X155623000Y-86449200D01*
X159948700Y-74873800D02*
X155623000Y-79199500D01*
X159948700Y-73660000D02*
X159948700Y-74873800D01*
X152653100Y-88712100D02*
X153236700Y-88128500D01*
X149859100Y-80592600D02*
X149859100Y-78742100D01*
X150309400Y-81042900D02*
X149859100Y-80592600D01*
X150309400Y-83095900D02*
X150309400Y-81042900D01*
X153227200Y-86013700D02*
X150309400Y-83095900D01*
X153227200Y-88119100D02*
X153227200Y-86013700D01*
X153236700Y-88128500D02*
X153227200Y-88119100D01*
X152717100Y-87940900D02*
X152299500Y-88358500D01*
X152717100Y-86649300D02*
X152717100Y-87940900D01*
X147827100Y-81759300D02*
X152717100Y-86649300D01*
X147827100Y-78742100D02*
X147827100Y-81759300D01*
X151238900Y-100662200D02*
X151822400Y-101245700D01*
X150328400Y-102860600D02*
X150328400Y-102739700D01*
X152783100Y-105315300D02*
X150328400Y-102860600D01*
X157956000Y-105315300D02*
X152783100Y-105315300D01*
X150328400Y-102739700D02*
X151822400Y-101245700D01*
X157956000Y-104140000D02*
X157956000Y-105315300D01*
X121920000Y-83820000D02*
X121920000Y-85161300D01*
X122588700Y-85161300D02*
X121920000Y-85161300D01*
X125358600Y-87931200D02*
X122588700Y-85161300D01*
X125358600Y-89956800D02*
X125358600Y-87931200D01*
X125166100Y-90149300D02*
X125358600Y-89956800D01*
X125166100Y-93123500D02*
X125166100Y-90149300D01*
X125804100Y-93761500D02*
X125166100Y-93123500D01*
X128177300Y-93761500D02*
X125804100Y-93761500D01*
X136705200Y-102289400D02*
X128177300Y-93761500D01*
X137413100Y-102289400D02*
X136705200Y-102289400D01*
X137863400Y-102739700D02*
X137413100Y-102289400D01*
X150328400Y-102739700D02*
X137863400Y-102739700D01*
X149354400Y-99788900D02*
X148481100Y-100662200D01*
X146780000Y-104648000D02*
X148105300Y-104648000D01*
X148105300Y-104648000D02*
X148287800Y-104648000D01*
D41*
G36*
X163330700Y-69243998D02*
X163327901Y-69241199D01*
X163081339Y-69076452D01*
X162790500Y-69018600D01*
X136630800Y-69018600D01*
X136388214Y-69066854D01*
X136339960Y-69076452D01*
X136093399Y-69241199D01*
X133002465Y-72332133D01*
X132982036Y-72309268D01*
X132454791Y-72055291D01*
X132439026Y-72052642D01*
X132207000Y-72173783D01*
X132207000Y-73533000D01*
X132227000Y-73533000D01*
X132227000Y-73787000D01*
X132207000Y-73787000D01*
X132207000Y-75146217D01*
X132439026Y-75267358D01*
X132454791Y-75264709D01*
X132655600Y-75167978D01*
X132655600Y-82414098D01*
X131651000Y-81409498D01*
X131651000Y-80696200D01*
X131593148Y-80405361D01*
X131428401Y-80158799D01*
X130272100Y-79002498D01*
X130272100Y-77523200D01*
X130256429Y-77444415D01*
X130214248Y-77232360D01*
X130049501Y-76985799D01*
X128726301Y-75662599D01*
X128479739Y-75497852D01*
X128392219Y-75480443D01*
X128384526Y-75441766D01*
X128059670Y-74955585D01*
X127573489Y-74630729D01*
X127000000Y-74516655D01*
X126426511Y-74630729D01*
X125940330Y-74955585D01*
X125730000Y-75270366D01*
X125519670Y-74955585D01*
X125033489Y-74630729D01*
X124460000Y-74516655D01*
X123886511Y-74630729D01*
X123400330Y-74955585D01*
X123190000Y-75270366D01*
X122979670Y-74955585D01*
X122493489Y-74630729D01*
X121920000Y-74516655D01*
X121346511Y-74630729D01*
X120860330Y-74955585D01*
X120845500Y-74977780D01*
X120781927Y-74824302D01*
X120603299Y-74645673D01*
X120369910Y-74549000D01*
X119665750Y-74549000D01*
X119507000Y-74707750D01*
X119507000Y-76073000D01*
X119527000Y-76073000D01*
X119527000Y-76327000D01*
X119507000Y-76327000D01*
X119507000Y-77692250D01*
X119665750Y-77851000D01*
X120369910Y-77851000D01*
X120603299Y-77754327D01*
X120781927Y-77575698D01*
X120845500Y-77422220D01*
X120860330Y-77444415D01*
X121346511Y-77769271D01*
X121920000Y-77883345D01*
X122493489Y-77769271D01*
X122979670Y-77444415D01*
X123190000Y-77129634D01*
X123400330Y-77444415D01*
X123886511Y-77769271D01*
X124460000Y-77883345D01*
X125033489Y-77769271D01*
X125519670Y-77444415D01*
X125730000Y-77129634D01*
X125940330Y-77444415D01*
X126426511Y-77769271D01*
X127000000Y-77883345D01*
X127573489Y-77769271D01*
X128059670Y-77444415D01*
X128179370Y-77265272D01*
X128752100Y-77838002D01*
X128752100Y-79002497D01*
X126050198Y-81704400D01*
X121379800Y-81704400D01*
X121088960Y-81762252D01*
X120842399Y-81926999D01*
X120532890Y-82236508D01*
X120369910Y-82169000D01*
X119665750Y-82169000D01*
X119507000Y-82327750D01*
X119507000Y-83693000D01*
X119527000Y-83693000D01*
X119527000Y-83947000D01*
X119507000Y-83947000D01*
X119507000Y-85312250D01*
X119665750Y-85471000D01*
X119809000Y-85471000D01*
X119809000Y-86555098D01*
X118969362Y-87394736D01*
X118758970Y-87352130D01*
X117161310Y-87352130D01*
X116925993Y-87396408D01*
X116709869Y-87535480D01*
X116564879Y-87747680D01*
X116513870Y-87999570D01*
X116513870Y-89800430D01*
X116558148Y-90035747D01*
X116697220Y-90251871D01*
X116909420Y-90396861D01*
X117161310Y-90447870D01*
X118758970Y-90447870D01*
X118971902Y-90407804D01*
X120957199Y-92393101D01*
X121176437Y-92539590D01*
X120951621Y-92642812D01*
X120513615Y-93115182D01*
X120314025Y-93597056D01*
X120433164Y-93853000D01*
X121793000Y-93853000D01*
X121793000Y-93833000D01*
X122047000Y-93833000D01*
X122047000Y-93853000D01*
X122067000Y-93853000D01*
X122067000Y-94107000D01*
X122047000Y-94107000D01*
X122047000Y-94127000D01*
X121793000Y-94127000D01*
X121793000Y-94107000D01*
X120433164Y-94107000D01*
X120314025Y-94362944D01*
X120513615Y-94844818D01*
X120604097Y-94942398D01*
X120452559Y-95039910D01*
X120307569Y-95252110D01*
X120256560Y-95504000D01*
X120256560Y-95838766D01*
X120041299Y-95982599D01*
X115747440Y-100276458D01*
X115747440Y-100020000D01*
X115703162Y-99784683D01*
X115564090Y-99568559D01*
X115351890Y-99423569D01*
X115100000Y-99372560D01*
X113500000Y-99372560D01*
X113264683Y-99416838D01*
X113048559Y-99555910D01*
X112903569Y-99768110D01*
X112852560Y-100020000D01*
X112852560Y-102200000D01*
X112896838Y-102435317D01*
X113035910Y-102651441D01*
X113248110Y-102796431D01*
X113500000Y-102847440D01*
X115100000Y-102847440D01*
X115335317Y-102803162D01*
X115551441Y-102664090D01*
X115696431Y-102451890D01*
X115747440Y-102200000D01*
X115747440Y-101870000D01*
X115988700Y-101870000D01*
X116279539Y-101812148D01*
X116526101Y-101647401D01*
X120340519Y-97832983D01*
X120439910Y-97987441D01*
X120652110Y-98132431D01*
X120904000Y-98183440D01*
X122936000Y-98183440D01*
X123171317Y-98139162D01*
X123387441Y-98000090D01*
X123532431Y-97787890D01*
X123583440Y-97536000D01*
X123583440Y-97280000D01*
X124649700Y-97280000D01*
X124918992Y-97226434D01*
X125050910Y-97431441D01*
X125263110Y-97576431D01*
X125515000Y-97627440D01*
X127215000Y-97627440D01*
X127450317Y-97583162D01*
X127666441Y-97444090D01*
X127811431Y-97231890D01*
X127862440Y-96980000D01*
X127862440Y-95158442D01*
X130573179Y-97869181D01*
X130534485Y-97885169D01*
X130144539Y-98274436D01*
X129933241Y-98783298D01*
X129932760Y-99334285D01*
X130143169Y-99843515D01*
X130532436Y-100233461D01*
X131041298Y-100444759D01*
X131592285Y-100445240D01*
X132101515Y-100234831D01*
X132491461Y-99845564D01*
X132508508Y-99804510D01*
X135346558Y-102642560D01*
X134795000Y-102642560D01*
X134559683Y-102686838D01*
X134343559Y-102825910D01*
X134198569Y-103038110D01*
X134147560Y-103290000D01*
X134147560Y-103380000D01*
X127817400Y-103380000D01*
X127526561Y-103437852D01*
X127279999Y-103602599D01*
X123087258Y-107795340D01*
X123035490Y-107759969D01*
X122783600Y-107708960D01*
X121056400Y-107708960D01*
X120821083Y-107753238D01*
X120604959Y-107892310D01*
X120459969Y-108104510D01*
X120408960Y-108356400D01*
X120408960Y-110083600D01*
X120453238Y-110318917D01*
X120592310Y-110535041D01*
X120804510Y-110680031D01*
X120898375Y-110699039D01*
X120637312Y-110985053D01*
X120465042Y-111400974D01*
X120586183Y-111633000D01*
X121793000Y-111633000D01*
X121793000Y-111613000D01*
X122047000Y-111613000D01*
X122047000Y-111633000D01*
X124333000Y-111633000D01*
X124333000Y-111613000D01*
X124587000Y-111613000D01*
X124587000Y-111633000D01*
X125793817Y-111633000D01*
X125914958Y-111400974D01*
X125818835Y-111168900D01*
X129264700Y-111168900D01*
X129555539Y-111111048D01*
X129802101Y-110946301D01*
X130093802Y-110654600D01*
X133122560Y-110654600D01*
X133122560Y-112220000D01*
X133147228Y-112351100D01*
X125818835Y-112351100D01*
X125914958Y-112119026D01*
X125793817Y-111887000D01*
X124587000Y-111887000D01*
X124587000Y-111907000D01*
X124333000Y-111907000D01*
X124333000Y-111887000D01*
X122047000Y-111887000D01*
X122047000Y-111907000D01*
X121793000Y-111907000D01*
X121793000Y-111887000D01*
X120586183Y-111887000D01*
X120465042Y-112119026D01*
X120637312Y-112534947D01*
X121031510Y-112966821D01*
X121154228Y-113024336D01*
X120830971Y-113240330D01*
X120506115Y-113726511D01*
X120392041Y-114300000D01*
X120506115Y-114873489D01*
X120830971Y-115359670D01*
X121317152Y-115684526D01*
X121890641Y-115798600D01*
X121949359Y-115798600D01*
X122522848Y-115684526D01*
X123009029Y-115359670D01*
X123190000Y-115088828D01*
X123370971Y-115359670D01*
X123857152Y-115684526D01*
X124430641Y-115798600D01*
X124489359Y-115798600D01*
X125062848Y-115684526D01*
X125549029Y-115359670D01*
X125749262Y-115060000D01*
X148719170Y-115060000D01*
X149024663Y-115366026D01*
X149491273Y-115559779D01*
X149996510Y-115560220D01*
X150463458Y-115367282D01*
X150821026Y-115010337D01*
X151014779Y-114543727D01*
X151014781Y-114541512D01*
X151207718Y-115008458D01*
X151564663Y-115366026D01*
X152031273Y-115559779D01*
X152536510Y-115560220D01*
X153003458Y-115367282D01*
X153361026Y-115010337D01*
X153379983Y-114964685D01*
X158332699Y-119917401D01*
X158579261Y-120082148D01*
X158870100Y-120140000D01*
X173596560Y-120140000D01*
X173596560Y-120396000D01*
X173640838Y-120631317D01*
X173779910Y-120847441D01*
X173992110Y-120992431D01*
X174244000Y-121043440D01*
X176276000Y-121043440D01*
X176511317Y-120999162D01*
X176727441Y-120860090D01*
X176838840Y-120697052D01*
X176935182Y-120786385D01*
X177417056Y-120985975D01*
X177673000Y-120866836D01*
X177673000Y-119507000D01*
X177927000Y-119507000D01*
X177927000Y-120866836D01*
X178182944Y-120985975D01*
X178664818Y-120786385D01*
X179137188Y-120348379D01*
X179405983Y-119762946D01*
X179287367Y-119507000D01*
X177927000Y-119507000D01*
X177673000Y-119507000D01*
X177653000Y-119507000D01*
X177653000Y-119253000D01*
X177673000Y-119253000D01*
X177673000Y-117893164D01*
X177927000Y-117893164D01*
X177927000Y-119253000D01*
X179287367Y-119253000D01*
X179405983Y-118997054D01*
X179137188Y-118411621D01*
X178664818Y-117973615D01*
X178182944Y-117774025D01*
X177927000Y-117893164D01*
X177673000Y-117893164D01*
X177417056Y-117774025D01*
X176935182Y-117973615D01*
X176837602Y-118064097D01*
X176740090Y-117912559D01*
X176527890Y-117767569D01*
X176276000Y-117716560D01*
X174244000Y-117716560D01*
X174008683Y-117760838D01*
X173792559Y-117899910D01*
X173647569Y-118112110D01*
X173596560Y-118364000D01*
X173596560Y-118620000D01*
X159184902Y-118620000D01*
X154041523Y-113476621D01*
X154084192Y-113434027D01*
X154226838Y-113090499D01*
X154227088Y-112803181D01*
X154263528Y-112648133D01*
X154151985Y-112536590D01*
X154085117Y-112374757D01*
X153822327Y-112111508D01*
X153659143Y-112043748D01*
X153555000Y-111939605D01*
X153540858Y-111953748D01*
X153361253Y-111774143D01*
X153375395Y-111760000D01*
X153361253Y-111745858D01*
X153540858Y-111566253D01*
X153555000Y-111580395D01*
X153569143Y-111566253D01*
X153748748Y-111745858D01*
X153734605Y-111760000D01*
X154443133Y-112468528D01*
X154672179Y-112414697D01*
X154837681Y-111937336D01*
X154807906Y-111432977D01*
X154672179Y-111105303D01*
X154443135Y-111051473D01*
X154516408Y-110978200D01*
X160620974Y-110978200D01*
X160679860Y-111069711D01*
X160892060Y-111214701D01*
X161143950Y-111265710D01*
X161944050Y-111265710D01*
X162179367Y-111221432D01*
X162395491Y-111082360D01*
X162466660Y-110978200D01*
X163116098Y-110978200D01*
X163895299Y-111757401D01*
X164110560Y-111901233D01*
X164110560Y-112220000D01*
X164154838Y-112455317D01*
X164293910Y-112671441D01*
X164506110Y-112816431D01*
X164758000Y-112867440D01*
X166458000Y-112867440D01*
X166693317Y-112823162D01*
X166909441Y-112684090D01*
X167054431Y-112471890D01*
X167105440Y-112220000D01*
X167105440Y-110220000D01*
X167061162Y-109984683D01*
X166922090Y-109768559D01*
X166709890Y-109623569D01*
X166458000Y-109572560D01*
X164758000Y-109572560D01*
X164522683Y-109616838D01*
X164306559Y-109755910D01*
X164199743Y-109912241D01*
X164190900Y-109903398D01*
X164190900Y-108511359D01*
X164293910Y-108671441D01*
X164506110Y-108816431D01*
X164758000Y-108867440D01*
X166458000Y-108867440D01*
X166693317Y-108823162D01*
X166909441Y-108684090D01*
X167022539Y-108518565D01*
X167222461Y-108652148D01*
X167513300Y-108710000D01*
X173126400Y-108710000D01*
X173126400Y-112252700D01*
X173184252Y-112543539D01*
X173348999Y-112790101D01*
X173928925Y-113370027D01*
X173690729Y-113726511D01*
X173576655Y-114300000D01*
X173690729Y-114873489D01*
X174015585Y-115359670D01*
X174501766Y-115684526D01*
X175075255Y-115798600D01*
X175444745Y-115798600D01*
X176018234Y-115684526D01*
X176504415Y-115359670D01*
X176829271Y-114873489D01*
X176943345Y-114300000D01*
X176829271Y-113726511D01*
X176504415Y-113240330D01*
X176194931Y-113033539D01*
X176610732Y-112662036D01*
X176864709Y-112134791D01*
X176867358Y-112119026D01*
X176746217Y-111887000D01*
X175387000Y-111887000D01*
X175387000Y-111907000D01*
X175133000Y-111907000D01*
X175133000Y-111887000D01*
X175113000Y-111887000D01*
X175113000Y-111633000D01*
X175133000Y-111633000D01*
X175133000Y-111613000D01*
X175387000Y-111613000D01*
X175387000Y-111633000D01*
X176746217Y-111633000D01*
X176867358Y-111400974D01*
X176864709Y-111385209D01*
X176610732Y-110857964D01*
X176194931Y-110486461D01*
X176504415Y-110279670D01*
X176829271Y-109793489D01*
X176943345Y-109220000D01*
X176829271Y-108646511D01*
X176596403Y-108297999D01*
X177138801Y-107755601D01*
X177203240Y-107659161D01*
X177303548Y-107509039D01*
X177361400Y-107218200D01*
X177361400Y-106124600D01*
X177313146Y-105882014D01*
X177303548Y-105833760D01*
X177138801Y-105587199D01*
X176845909Y-105294307D01*
X176872431Y-105255490D01*
X176923440Y-105003600D01*
X176923440Y-103276400D01*
X176879162Y-103041083D01*
X176740090Y-102824959D01*
X176527890Y-102679969D01*
X176276000Y-102628960D01*
X174244000Y-102628960D01*
X174008683Y-102673238D01*
X173792559Y-102812310D01*
X173647569Y-103024510D01*
X173596560Y-103276400D01*
X173596560Y-104668400D01*
X166842440Y-104668400D01*
X166842440Y-103290000D01*
X166798162Y-103054683D01*
X166659090Y-102838559D01*
X166446890Y-102693569D01*
X166195000Y-102642560D01*
X165876233Y-102642560D01*
X165732401Y-102427299D01*
X165330101Y-102024999D01*
X165083539Y-101860252D01*
X164792700Y-101802400D01*
X164445300Y-101802400D01*
X164445300Y-97060000D01*
X164387448Y-96769161D01*
X164222701Y-96522599D01*
X164007440Y-96378767D01*
X164007440Y-96060000D01*
X163963162Y-95824683D01*
X163824090Y-95608559D01*
X163611890Y-95463569D01*
X163360000Y-95412560D01*
X161760000Y-95412560D01*
X161524683Y-95456838D01*
X161308559Y-95595910D01*
X161291766Y-95620488D01*
X161284090Y-95608559D01*
X161071890Y-95463569D01*
X160820000Y-95412560D01*
X159739542Y-95412560D01*
X159902102Y-95250000D01*
X170878500Y-95250000D01*
X170878500Y-100838000D01*
X170941337Y-101153905D01*
X171120283Y-101421717D01*
X171388095Y-101600663D01*
X171704000Y-101663500D01*
X179832000Y-101663500D01*
X180147905Y-101600663D01*
X180415717Y-101421717D01*
X180594663Y-101153905D01*
X180657500Y-100838000D01*
X180657500Y-95250000D01*
X180594663Y-94934095D01*
X180415717Y-94666283D01*
X180147905Y-94487337D01*
X179832000Y-94424500D01*
X171704000Y-94424500D01*
X171388095Y-94487337D01*
X171120283Y-94666283D01*
X170941337Y-94934095D01*
X170878500Y-95250000D01*
X159902102Y-95250000D01*
X163065401Y-92086701D01*
X163209234Y-91871440D01*
X163453200Y-91871440D01*
X163453200Y-92452900D01*
X163511052Y-92743739D01*
X163675799Y-92990301D01*
X164297199Y-93611701D01*
X164543760Y-93776448D01*
X164834600Y-93834300D01*
X183352600Y-93834300D01*
X183643439Y-93776448D01*
X183890001Y-93611701D01*
X184437501Y-93064201D01*
X184602248Y-92817639D01*
X184660100Y-92526800D01*
X184660100Y-74204600D01*
X184623761Y-74021913D01*
X184602248Y-73913760D01*
X184437501Y-73667199D01*
X183052270Y-72281968D01*
X183617173Y-72516536D01*
X184678172Y-72517462D01*
X185658761Y-72112291D01*
X186409655Y-71362707D01*
X186816536Y-70382827D01*
X186817462Y-69321828D01*
X186412291Y-68341239D01*
X185662707Y-67590345D01*
X184682827Y-67183464D01*
X183621828Y-67182538D01*
X182641239Y-67587709D01*
X181890345Y-68337293D01*
X181483464Y-69317173D01*
X181482538Y-70378172D01*
X181717764Y-70947462D01*
X177572302Y-66802000D01*
X187198000Y-66802000D01*
X187198000Y-123698000D01*
X109982000Y-123698000D01*
X109982000Y-121178172D01*
X110362538Y-121178172D01*
X110767709Y-122158761D01*
X111517293Y-122909655D01*
X112497173Y-123316536D01*
X113558172Y-123317462D01*
X114538761Y-122912291D01*
X115289655Y-122162707D01*
X115696536Y-121182827D01*
X115696588Y-121122226D01*
X145404579Y-121122226D01*
X145774504Y-122017514D01*
X146458883Y-122703088D01*
X147353524Y-123074576D01*
X148322226Y-123075421D01*
X149217514Y-122705496D01*
X149903088Y-122021117D01*
X150274576Y-121126476D01*
X150274579Y-121122226D01*
X153024579Y-121122226D01*
X153394504Y-122017514D01*
X154078883Y-122703088D01*
X154973524Y-123074576D01*
X155942226Y-123075421D01*
X156837514Y-122705496D01*
X157523088Y-122021117D01*
X157873109Y-121178172D01*
X181482538Y-121178172D01*
X181887709Y-122158761D01*
X182637293Y-122909655D01*
X183617173Y-123316536D01*
X184678172Y-123317462D01*
X185658761Y-122912291D01*
X186409655Y-122162707D01*
X186816536Y-121182827D01*
X186817462Y-120121828D01*
X186412291Y-119141239D01*
X185662707Y-118390345D01*
X184682827Y-117983464D01*
X183621828Y-117982538D01*
X182641239Y-118387709D01*
X181890345Y-119137293D01*
X181483464Y-120117173D01*
X181482538Y-121178172D01*
X157873109Y-121178172D01*
X157894576Y-121126476D01*
X157895421Y-120157774D01*
X157525496Y-119262486D01*
X156841117Y-118576912D01*
X155946476Y-118205424D01*
X154977774Y-118204579D01*
X154082486Y-118574504D01*
X153396912Y-119258883D01*
X153025424Y-120153524D01*
X153024579Y-121122226D01*
X150274579Y-121122226D01*
X150275421Y-120157774D01*
X149905496Y-119262486D01*
X149221117Y-118576912D01*
X148326476Y-118205424D01*
X147357774Y-118204579D01*
X146462486Y-118574504D01*
X145776912Y-119258883D01*
X145405424Y-120153524D01*
X145404579Y-121122226D01*
X115696588Y-121122226D01*
X115697462Y-120121828D01*
X115292291Y-119141239D01*
X114542707Y-118390345D01*
X113562827Y-117983464D01*
X112501828Y-117982538D01*
X111521239Y-118387709D01*
X110770345Y-119137293D01*
X110363464Y-120117173D01*
X110362538Y-121178172D01*
X109982000Y-121178172D01*
X109982000Y-107832163D01*
X112057443Y-107832163D01*
X112156042Y-108098965D01*
X112765582Y-108325401D01*
X113415377Y-108301341D01*
X113903958Y-108098965D01*
X114002557Y-107832163D01*
X113030000Y-106859605D01*
X112057443Y-107832163D01*
X109982000Y-107832163D01*
X109982000Y-106415582D01*
X111384599Y-106415582D01*
X111408659Y-107065377D01*
X111611035Y-107553958D01*
X111877837Y-107652557D01*
X112850395Y-106680000D01*
X113209605Y-106680000D01*
X114182163Y-107652557D01*
X114448965Y-107553958D01*
X114675401Y-106944418D01*
X114651341Y-106294623D01*
X114448965Y-105806042D01*
X114182163Y-105707443D01*
X113209605Y-106680000D01*
X112850395Y-106680000D01*
X111877837Y-105707443D01*
X111611035Y-105806042D01*
X111384599Y-106415582D01*
X109982000Y-106415582D01*
X109982000Y-105527837D01*
X112057443Y-105527837D01*
X113030000Y-106500395D01*
X114002557Y-105527837D01*
X113903958Y-105261035D01*
X113294418Y-105034599D01*
X112644623Y-105058659D01*
X112156042Y-105261035D01*
X112057443Y-105527837D01*
X109982000Y-105527837D01*
X109982000Y-92215750D01*
X112865000Y-92215750D01*
X112865000Y-93146309D01*
X112961673Y-93379698D01*
X113140301Y-93558327D01*
X113373690Y-93655000D01*
X114014250Y-93655000D01*
X114173000Y-93496250D01*
X114173000Y-92057000D01*
X114427000Y-92057000D01*
X114427000Y-93496250D01*
X114585750Y-93655000D01*
X115226310Y-93655000D01*
X115459699Y-93558327D01*
X115638327Y-93379698D01*
X115735000Y-93146309D01*
X115735000Y-92215750D01*
X115576250Y-92057000D01*
X114427000Y-92057000D01*
X114173000Y-92057000D01*
X113023750Y-92057000D01*
X112865000Y-92215750D01*
X109982000Y-92215750D01*
X109982000Y-90713691D01*
X112865000Y-90713691D01*
X112865000Y-91644250D01*
X113023750Y-91803000D01*
X114173000Y-91803000D01*
X114173000Y-90363750D01*
X114427000Y-90363750D01*
X114427000Y-91803000D01*
X115576250Y-91803000D01*
X115735000Y-91644250D01*
X115735000Y-90713691D01*
X115638327Y-90480302D01*
X115459699Y-90301673D01*
X115226310Y-90205000D01*
X114585750Y-90205000D01*
X114427000Y-90363750D01*
X114173000Y-90363750D01*
X114014250Y-90205000D01*
X113373690Y-90205000D01*
X113140301Y-90301673D01*
X112961673Y-90480302D01*
X112865000Y-90713691D01*
X109982000Y-90713691D01*
X109982000Y-84105750D01*
X117881400Y-84105750D01*
X117881400Y-84962309D01*
X117978073Y-85195698D01*
X118156701Y-85374327D01*
X118390090Y-85471000D01*
X119094250Y-85471000D01*
X119253000Y-85312250D01*
X119253000Y-83947000D01*
X118040150Y-83947000D01*
X117881400Y-84105750D01*
X109982000Y-84105750D01*
X109982000Y-82677691D01*
X117881400Y-82677691D01*
X117881400Y-83534250D01*
X118040150Y-83693000D01*
X119253000Y-83693000D01*
X119253000Y-82327750D01*
X119094250Y-82169000D01*
X118390090Y-82169000D01*
X118156701Y-82265673D01*
X117978073Y-82444302D01*
X117881400Y-82677691D01*
X109982000Y-82677691D01*
X109982000Y-76485750D01*
X117881400Y-76485750D01*
X117881400Y-77342309D01*
X117978073Y-77575698D01*
X118156701Y-77754327D01*
X118390090Y-77851000D01*
X119094250Y-77851000D01*
X119253000Y-77692250D01*
X119253000Y-76327000D01*
X118040150Y-76327000D01*
X117881400Y-76485750D01*
X109982000Y-76485750D01*
X109982000Y-75057691D01*
X117881400Y-75057691D01*
X117881400Y-75914250D01*
X118040150Y-76073000D01*
X119253000Y-76073000D01*
X119253000Y-74707750D01*
X119094250Y-74549000D01*
X118390090Y-74549000D01*
X118156701Y-74645673D01*
X117978073Y-74824302D01*
X117881400Y-75057691D01*
X109982000Y-75057691D01*
X109982000Y-74021913D01*
X130594816Y-74021913D01*
X130788046Y-74574320D01*
X131177964Y-75010732D01*
X131705209Y-75264709D01*
X131720974Y-75267358D01*
X131953000Y-75146217D01*
X131953000Y-73787000D01*
X130739076Y-73787000D01*
X130594816Y-74021913D01*
X109982000Y-74021913D01*
X109982000Y-73298087D01*
X130594816Y-73298087D01*
X130739076Y-73533000D01*
X131953000Y-73533000D01*
X131953000Y-72173783D01*
X131720974Y-72052642D01*
X131705209Y-72055291D01*
X131177964Y-72309268D01*
X130788046Y-72745680D01*
X130594816Y-73298087D01*
X109982000Y-73298087D01*
X109982000Y-70378172D01*
X110362538Y-70378172D01*
X110767709Y-71358761D01*
X111517293Y-72109655D01*
X112497173Y-72516536D01*
X113558172Y-72517462D01*
X114538761Y-72112291D01*
X115289655Y-71362707D01*
X115696536Y-70382827D01*
X115697462Y-69321828D01*
X115292291Y-68341239D01*
X114542707Y-67590345D01*
X113562827Y-67183464D01*
X112501828Y-67182538D01*
X111521239Y-67587709D01*
X110770345Y-68337293D01*
X110363464Y-69317173D01*
X110362538Y-70378172D01*
X109982000Y-70378172D01*
X109982000Y-66802000D01*
X165772698Y-66802000D01*
X163330700Y-69243998D01*
X163330700Y-69243998D01*
G37*
X163330700Y-69243998D02*
X163327901Y-69241199D01*
X163081339Y-69076452D01*
X162790500Y-69018600D01*
X136630800Y-69018600D01*
X136388214Y-69066854D01*
X136339960Y-69076452D01*
X136093399Y-69241199D01*
X133002465Y-72332133D01*
X132982036Y-72309268D01*
X132454791Y-72055291D01*
X132439026Y-72052642D01*
X132207000Y-72173783D01*
X132207000Y-73533000D01*
X132227000Y-73533000D01*
X132227000Y-73787000D01*
X132207000Y-73787000D01*
X132207000Y-75146217D01*
X132439026Y-75267358D01*
X132454791Y-75264709D01*
X132655600Y-75167978D01*
X132655600Y-82414098D01*
X131651000Y-81409498D01*
X131651000Y-80696200D01*
X131593148Y-80405361D01*
X131428401Y-80158799D01*
X130272100Y-79002498D01*
X130272100Y-77523200D01*
X130256429Y-77444415D01*
X130214248Y-77232360D01*
X130049501Y-76985799D01*
X128726301Y-75662599D01*
X128479739Y-75497852D01*
X128392219Y-75480443D01*
X128384526Y-75441766D01*
X128059670Y-74955585D01*
X127573489Y-74630729D01*
X127000000Y-74516655D01*
X126426511Y-74630729D01*
X125940330Y-74955585D01*
X125730000Y-75270366D01*
X125519670Y-74955585D01*
X125033489Y-74630729D01*
X124460000Y-74516655D01*
X123886511Y-74630729D01*
X123400330Y-74955585D01*
X123190000Y-75270366D01*
X122979670Y-74955585D01*
X122493489Y-74630729D01*
X121920000Y-74516655D01*
X121346511Y-74630729D01*
X120860330Y-74955585D01*
X120845500Y-74977780D01*
X120781927Y-74824302D01*
X120603299Y-74645673D01*
X120369910Y-74549000D01*
X119665750Y-74549000D01*
X119507000Y-74707750D01*
X119507000Y-76073000D01*
X119527000Y-76073000D01*
X119527000Y-76327000D01*
X119507000Y-76327000D01*
X119507000Y-77692250D01*
X119665750Y-77851000D01*
X120369910Y-77851000D01*
X120603299Y-77754327D01*
X120781927Y-77575698D01*
X120845500Y-77422220D01*
X120860330Y-77444415D01*
X121346511Y-77769271D01*
X121920000Y-77883345D01*
X122493489Y-77769271D01*
X122979670Y-77444415D01*
X123190000Y-77129634D01*
X123400330Y-77444415D01*
X123886511Y-77769271D01*
X124460000Y-77883345D01*
X125033489Y-77769271D01*
X125519670Y-77444415D01*
X125730000Y-77129634D01*
X125940330Y-77444415D01*
X126426511Y-77769271D01*
X127000000Y-77883345D01*
X127573489Y-77769271D01*
X128059670Y-77444415D01*
X128179370Y-77265272D01*
X128752100Y-77838002D01*
X128752100Y-79002497D01*
X126050198Y-81704400D01*
X121379800Y-81704400D01*
X121088960Y-81762252D01*
X120842399Y-81926999D01*
X120532890Y-82236508D01*
X120369910Y-82169000D01*
X119665750Y-82169000D01*
X119507000Y-82327750D01*
X119507000Y-83693000D01*
X119527000Y-83693000D01*
X119527000Y-83947000D01*
X119507000Y-83947000D01*
X119507000Y-85312250D01*
X119665750Y-85471000D01*
X119809000Y-85471000D01*
X119809000Y-86555098D01*
X118969362Y-87394736D01*
X118758970Y-87352130D01*
X117161310Y-87352130D01*
X116925993Y-87396408D01*
X116709869Y-87535480D01*
X116564879Y-87747680D01*
X116513870Y-87999570D01*
X116513870Y-89800430D01*
X116558148Y-90035747D01*
X116697220Y-90251871D01*
X116909420Y-90396861D01*
X117161310Y-90447870D01*
X118758970Y-90447870D01*
X118971902Y-90407804D01*
X120957199Y-92393101D01*
X121176437Y-92539590D01*
X120951621Y-92642812D01*
X120513615Y-93115182D01*
X120314025Y-93597056D01*
X120433164Y-93853000D01*
X121793000Y-93853000D01*
X121793000Y-93833000D01*
X122047000Y-93833000D01*
X122047000Y-93853000D01*
X122067000Y-93853000D01*
X122067000Y-94107000D01*
X122047000Y-94107000D01*
X122047000Y-94127000D01*
X121793000Y-94127000D01*
X121793000Y-94107000D01*
X120433164Y-94107000D01*
X120314025Y-94362944D01*
X120513615Y-94844818D01*
X120604097Y-94942398D01*
X120452559Y-95039910D01*
X120307569Y-95252110D01*
X120256560Y-95504000D01*
X120256560Y-95838766D01*
X120041299Y-95982599D01*
X115747440Y-100276458D01*
X115747440Y-100020000D01*
X115703162Y-99784683D01*
X115564090Y-99568559D01*
X115351890Y-99423569D01*
X115100000Y-99372560D01*
X113500000Y-99372560D01*
X113264683Y-99416838D01*
X113048559Y-99555910D01*
X112903569Y-99768110D01*
X112852560Y-100020000D01*
X112852560Y-102200000D01*
X112896838Y-102435317D01*
X113035910Y-102651441D01*
X113248110Y-102796431D01*
X113500000Y-102847440D01*
X115100000Y-102847440D01*
X115335317Y-102803162D01*
X115551441Y-102664090D01*
X115696431Y-102451890D01*
X115747440Y-102200000D01*
X115747440Y-101870000D01*
X115988700Y-101870000D01*
X116279539Y-101812148D01*
X116526101Y-101647401D01*
X120340519Y-97832983D01*
X120439910Y-97987441D01*
X120652110Y-98132431D01*
X120904000Y-98183440D01*
X122936000Y-98183440D01*
X123171317Y-98139162D01*
X123387441Y-98000090D01*
X123532431Y-97787890D01*
X123583440Y-97536000D01*
X123583440Y-97280000D01*
X124649700Y-97280000D01*
X124918992Y-97226434D01*
X125050910Y-97431441D01*
X125263110Y-97576431D01*
X125515000Y-97627440D01*
X127215000Y-97627440D01*
X127450317Y-97583162D01*
X127666441Y-97444090D01*
X127811431Y-97231890D01*
X127862440Y-96980000D01*
X127862440Y-95158442D01*
X130573179Y-97869181D01*
X130534485Y-97885169D01*
X130144539Y-98274436D01*
X129933241Y-98783298D01*
X129932760Y-99334285D01*
X130143169Y-99843515D01*
X130532436Y-100233461D01*
X131041298Y-100444759D01*
X131592285Y-100445240D01*
X132101515Y-100234831D01*
X132491461Y-99845564D01*
X132508508Y-99804510D01*
X135346558Y-102642560D01*
X134795000Y-102642560D01*
X134559683Y-102686838D01*
X134343559Y-102825910D01*
X134198569Y-103038110D01*
X134147560Y-103290000D01*
X134147560Y-103380000D01*
X127817400Y-103380000D01*
X127526561Y-103437852D01*
X127279999Y-103602599D01*
X123087258Y-107795340D01*
X123035490Y-107759969D01*
X122783600Y-107708960D01*
X121056400Y-107708960D01*
X120821083Y-107753238D01*
X120604959Y-107892310D01*
X120459969Y-108104510D01*
X120408960Y-108356400D01*
X120408960Y-110083600D01*
X120453238Y-110318917D01*
X120592310Y-110535041D01*
X120804510Y-110680031D01*
X120898375Y-110699039D01*
X120637312Y-110985053D01*
X120465042Y-111400974D01*
X120586183Y-111633000D01*
X121793000Y-111633000D01*
X121793000Y-111613000D01*
X122047000Y-111613000D01*
X122047000Y-111633000D01*
X124333000Y-111633000D01*
X124333000Y-111613000D01*
X124587000Y-111613000D01*
X124587000Y-111633000D01*
X125793817Y-111633000D01*
X125914958Y-111400974D01*
X125818835Y-111168900D01*
X129264700Y-111168900D01*
X129555539Y-111111048D01*
X129802101Y-110946301D01*
X130093802Y-110654600D01*
X133122560Y-110654600D01*
X133122560Y-112220000D01*
X133147228Y-112351100D01*
X125818835Y-112351100D01*
X125914958Y-112119026D01*
X125793817Y-111887000D01*
X124587000Y-111887000D01*
X124587000Y-111907000D01*
X124333000Y-111907000D01*
X124333000Y-111887000D01*
X122047000Y-111887000D01*
X122047000Y-111907000D01*
X121793000Y-111907000D01*
X121793000Y-111887000D01*
X120586183Y-111887000D01*
X120465042Y-112119026D01*
X120637312Y-112534947D01*
X121031510Y-112966821D01*
X121154228Y-113024336D01*
X120830971Y-113240330D01*
X120506115Y-113726511D01*
X120392041Y-114300000D01*
X120506115Y-114873489D01*
X120830971Y-115359670D01*
X121317152Y-115684526D01*
X121890641Y-115798600D01*
X121949359Y-115798600D01*
X122522848Y-115684526D01*
X123009029Y-115359670D01*
X123190000Y-115088828D01*
X123370971Y-115359670D01*
X123857152Y-115684526D01*
X124430641Y-115798600D01*
X124489359Y-115798600D01*
X125062848Y-115684526D01*
X125549029Y-115359670D01*
X125749262Y-115060000D01*
X148719170Y-115060000D01*
X149024663Y-115366026D01*
X149491273Y-115559779D01*
X149996510Y-115560220D01*
X150463458Y-115367282D01*
X150821026Y-115010337D01*
X151014779Y-114543727D01*
X151014781Y-114541512D01*
X151207718Y-115008458D01*
X151564663Y-115366026D01*
X152031273Y-115559779D01*
X152536510Y-115560220D01*
X153003458Y-115367282D01*
X153361026Y-115010337D01*
X153379983Y-114964685D01*
X158332699Y-119917401D01*
X158579261Y-120082148D01*
X158870100Y-120140000D01*
X173596560Y-120140000D01*
X173596560Y-120396000D01*
X173640838Y-120631317D01*
X173779910Y-120847441D01*
X173992110Y-120992431D01*
X174244000Y-121043440D01*
X176276000Y-121043440D01*
X176511317Y-120999162D01*
X176727441Y-120860090D01*
X176838840Y-120697052D01*
X176935182Y-120786385D01*
X177417056Y-120985975D01*
X177673000Y-120866836D01*
X177673000Y-119507000D01*
X177927000Y-119507000D01*
X177927000Y-120866836D01*
X178182944Y-120985975D01*
X178664818Y-120786385D01*
X179137188Y-120348379D01*
X179405983Y-119762946D01*
X179287367Y-119507000D01*
X177927000Y-119507000D01*
X177673000Y-119507000D01*
X177653000Y-119507000D01*
X177653000Y-119253000D01*
X177673000Y-119253000D01*
X177673000Y-117893164D01*
X177927000Y-117893164D01*
X177927000Y-119253000D01*
X179287367Y-119253000D01*
X179405983Y-118997054D01*
X179137188Y-118411621D01*
X178664818Y-117973615D01*
X178182944Y-117774025D01*
X177927000Y-117893164D01*
X177673000Y-117893164D01*
X177417056Y-117774025D01*
X176935182Y-117973615D01*
X176837602Y-118064097D01*
X176740090Y-117912559D01*
X176527890Y-117767569D01*
X176276000Y-117716560D01*
X174244000Y-117716560D01*
X174008683Y-117760838D01*
X173792559Y-117899910D01*
X173647569Y-118112110D01*
X173596560Y-118364000D01*
X173596560Y-118620000D01*
X159184902Y-118620000D01*
X154041523Y-113476621D01*
X154084192Y-113434027D01*
X154226838Y-113090499D01*
X154227088Y-112803181D01*
X154263528Y-112648133D01*
X154151985Y-112536590D01*
X154085117Y-112374757D01*
X153822327Y-112111508D01*
X153659143Y-112043748D01*
X153555000Y-111939605D01*
X153540858Y-111953748D01*
X153361253Y-111774143D01*
X153375395Y-111760000D01*
X153361253Y-111745858D01*
X153540858Y-111566253D01*
X153555000Y-111580395D01*
X153569143Y-111566253D01*
X153748748Y-111745858D01*
X153734605Y-111760000D01*
X154443133Y-112468528D01*
X154672179Y-112414697D01*
X154837681Y-111937336D01*
X154807906Y-111432977D01*
X154672179Y-111105303D01*
X154443135Y-111051473D01*
X154516408Y-110978200D01*
X160620974Y-110978200D01*
X160679860Y-111069711D01*
X160892060Y-111214701D01*
X161143950Y-111265710D01*
X161944050Y-111265710D01*
X162179367Y-111221432D01*
X162395491Y-111082360D01*
X162466660Y-110978200D01*
X163116098Y-110978200D01*
X163895299Y-111757401D01*
X164110560Y-111901233D01*
X164110560Y-112220000D01*
X164154838Y-112455317D01*
X164293910Y-112671441D01*
X164506110Y-112816431D01*
X164758000Y-112867440D01*
X166458000Y-112867440D01*
X166693317Y-112823162D01*
X166909441Y-112684090D01*
X167054431Y-112471890D01*
X167105440Y-112220000D01*
X167105440Y-110220000D01*
X167061162Y-109984683D01*
X166922090Y-109768559D01*
X166709890Y-109623569D01*
X166458000Y-109572560D01*
X164758000Y-109572560D01*
X164522683Y-109616838D01*
X164306559Y-109755910D01*
X164199743Y-109912241D01*
X164190900Y-109903398D01*
X164190900Y-108511359D01*
X164293910Y-108671441D01*
X164506110Y-108816431D01*
X164758000Y-108867440D01*
X166458000Y-108867440D01*
X166693317Y-108823162D01*
X166909441Y-108684090D01*
X167022539Y-108518565D01*
X167222461Y-108652148D01*
X167513300Y-108710000D01*
X173126400Y-108710000D01*
X173126400Y-112252700D01*
X173184252Y-112543539D01*
X173348999Y-112790101D01*
X173928925Y-113370027D01*
X173690729Y-113726511D01*
X173576655Y-114300000D01*
X173690729Y-114873489D01*
X174015585Y-115359670D01*
X174501766Y-115684526D01*
X175075255Y-115798600D01*
X175444745Y-115798600D01*
X176018234Y-115684526D01*
X176504415Y-115359670D01*
X176829271Y-114873489D01*
X176943345Y-114300000D01*
X176829271Y-113726511D01*
X176504415Y-113240330D01*
X176194931Y-113033539D01*
X176610732Y-112662036D01*
X176864709Y-112134791D01*
X176867358Y-112119026D01*
X176746217Y-111887000D01*
X175387000Y-111887000D01*
X175387000Y-111907000D01*
X175133000Y-111907000D01*
X175133000Y-111887000D01*
X175113000Y-111887000D01*
X175113000Y-111633000D01*
X175133000Y-111633000D01*
X175133000Y-111613000D01*
X175387000Y-111613000D01*
X175387000Y-111633000D01*
X176746217Y-111633000D01*
X176867358Y-111400974D01*
X176864709Y-111385209D01*
X176610732Y-110857964D01*
X176194931Y-110486461D01*
X176504415Y-110279670D01*
X176829271Y-109793489D01*
X176943345Y-109220000D01*
X176829271Y-108646511D01*
X176596403Y-108297999D01*
X177138801Y-107755601D01*
X177203240Y-107659161D01*
X177303548Y-107509039D01*
X177361400Y-107218200D01*
X177361400Y-106124600D01*
X177313146Y-105882014D01*
X177303548Y-105833760D01*
X177138801Y-105587199D01*
X176845909Y-105294307D01*
X176872431Y-105255490D01*
X176923440Y-105003600D01*
X176923440Y-103276400D01*
X176879162Y-103041083D01*
X176740090Y-102824959D01*
X176527890Y-102679969D01*
X176276000Y-102628960D01*
X174244000Y-102628960D01*
X174008683Y-102673238D01*
X173792559Y-102812310D01*
X173647569Y-103024510D01*
X173596560Y-103276400D01*
X173596560Y-104668400D01*
X166842440Y-104668400D01*
X166842440Y-103290000D01*
X166798162Y-103054683D01*
X166659090Y-102838559D01*
X166446890Y-102693569D01*
X166195000Y-102642560D01*
X165876233Y-102642560D01*
X165732401Y-102427299D01*
X165330101Y-102024999D01*
X165083539Y-101860252D01*
X164792700Y-101802400D01*
X164445300Y-101802400D01*
X164445300Y-97060000D01*
X164387448Y-96769161D01*
X164222701Y-96522599D01*
X164007440Y-96378767D01*
X164007440Y-96060000D01*
X163963162Y-95824683D01*
X163824090Y-95608559D01*
X163611890Y-95463569D01*
X163360000Y-95412560D01*
X161760000Y-95412560D01*
X161524683Y-95456838D01*
X161308559Y-95595910D01*
X161291766Y-95620488D01*
X161284090Y-95608559D01*
X161071890Y-95463569D01*
X160820000Y-95412560D01*
X159739542Y-95412560D01*
X159902102Y-95250000D01*
X170878500Y-95250000D01*
X170878500Y-100838000D01*
X170941337Y-101153905D01*
X171120283Y-101421717D01*
X171388095Y-101600663D01*
X171704000Y-101663500D01*
X179832000Y-101663500D01*
X180147905Y-101600663D01*
X180415717Y-101421717D01*
X180594663Y-101153905D01*
X180657500Y-100838000D01*
X180657500Y-95250000D01*
X180594663Y-94934095D01*
X180415717Y-94666283D01*
X180147905Y-94487337D01*
X179832000Y-94424500D01*
X171704000Y-94424500D01*
X171388095Y-94487337D01*
X171120283Y-94666283D01*
X170941337Y-94934095D01*
X170878500Y-95250000D01*
X159902102Y-95250000D01*
X163065401Y-92086701D01*
X163209234Y-91871440D01*
X163453200Y-91871440D01*
X163453200Y-92452900D01*
X163511052Y-92743739D01*
X163675799Y-92990301D01*
X164297199Y-93611701D01*
X164543760Y-93776448D01*
X164834600Y-93834300D01*
X183352600Y-93834300D01*
X183643439Y-93776448D01*
X183890001Y-93611701D01*
X184437501Y-93064201D01*
X184602248Y-92817639D01*
X184660100Y-92526800D01*
X184660100Y-74204600D01*
X184623761Y-74021913D01*
X184602248Y-73913760D01*
X184437501Y-73667199D01*
X183052270Y-72281968D01*
X183617173Y-72516536D01*
X184678172Y-72517462D01*
X185658761Y-72112291D01*
X186409655Y-71362707D01*
X186816536Y-70382827D01*
X186817462Y-69321828D01*
X186412291Y-68341239D01*
X185662707Y-67590345D01*
X184682827Y-67183464D01*
X183621828Y-67182538D01*
X182641239Y-67587709D01*
X181890345Y-68337293D01*
X181483464Y-69317173D01*
X181482538Y-70378172D01*
X181717764Y-70947462D01*
X177572302Y-66802000D01*
X187198000Y-66802000D01*
X187198000Y-123698000D01*
X109982000Y-123698000D01*
X109982000Y-121178172D01*
X110362538Y-121178172D01*
X110767709Y-122158761D01*
X111517293Y-122909655D01*
X112497173Y-123316536D01*
X113558172Y-123317462D01*
X114538761Y-122912291D01*
X115289655Y-122162707D01*
X115696536Y-121182827D01*
X115696588Y-121122226D01*
X145404579Y-121122226D01*
X145774504Y-122017514D01*
X146458883Y-122703088D01*
X147353524Y-123074576D01*
X148322226Y-123075421D01*
X149217514Y-122705496D01*
X149903088Y-122021117D01*
X150274576Y-121126476D01*
X150274579Y-121122226D01*
X153024579Y-121122226D01*
X153394504Y-122017514D01*
X154078883Y-122703088D01*
X154973524Y-123074576D01*
X155942226Y-123075421D01*
X156837514Y-122705496D01*
X157523088Y-122021117D01*
X157873109Y-121178172D01*
X181482538Y-121178172D01*
X181887709Y-122158761D01*
X182637293Y-122909655D01*
X183617173Y-123316536D01*
X184678172Y-123317462D01*
X185658761Y-122912291D01*
X186409655Y-122162707D01*
X186816536Y-121182827D01*
X186817462Y-120121828D01*
X186412291Y-119141239D01*
X185662707Y-118390345D01*
X184682827Y-117983464D01*
X183621828Y-117982538D01*
X182641239Y-118387709D01*
X181890345Y-119137293D01*
X181483464Y-120117173D01*
X181482538Y-121178172D01*
X157873109Y-121178172D01*
X157894576Y-121126476D01*
X157895421Y-120157774D01*
X157525496Y-119262486D01*
X156841117Y-118576912D01*
X155946476Y-118205424D01*
X154977774Y-118204579D01*
X154082486Y-118574504D01*
X153396912Y-119258883D01*
X153025424Y-120153524D01*
X153024579Y-121122226D01*
X150274579Y-121122226D01*
X150275421Y-120157774D01*
X149905496Y-119262486D01*
X149221117Y-118576912D01*
X148326476Y-118205424D01*
X147357774Y-118204579D01*
X146462486Y-118574504D01*
X145776912Y-119258883D01*
X145405424Y-120153524D01*
X145404579Y-121122226D01*
X115696588Y-121122226D01*
X115697462Y-120121828D01*
X115292291Y-119141239D01*
X114542707Y-118390345D01*
X113562827Y-117983464D01*
X112501828Y-117982538D01*
X111521239Y-118387709D01*
X110770345Y-119137293D01*
X110363464Y-120117173D01*
X110362538Y-121178172D01*
X109982000Y-121178172D01*
X109982000Y-107832163D01*
X112057443Y-107832163D01*
X112156042Y-108098965D01*
X112765582Y-108325401D01*
X113415377Y-108301341D01*
X113903958Y-108098965D01*
X114002557Y-107832163D01*
X113030000Y-106859605D01*
X112057443Y-107832163D01*
X109982000Y-107832163D01*
X109982000Y-106415582D01*
X111384599Y-106415582D01*
X111408659Y-107065377D01*
X111611035Y-107553958D01*
X111877837Y-107652557D01*
X112850395Y-106680000D01*
X113209605Y-106680000D01*
X114182163Y-107652557D01*
X114448965Y-107553958D01*
X114675401Y-106944418D01*
X114651341Y-106294623D01*
X114448965Y-105806042D01*
X114182163Y-105707443D01*
X113209605Y-106680000D01*
X112850395Y-106680000D01*
X111877837Y-105707443D01*
X111611035Y-105806042D01*
X111384599Y-106415582D01*
X109982000Y-106415582D01*
X109982000Y-105527837D01*
X112057443Y-105527837D01*
X113030000Y-106500395D01*
X114002557Y-105527837D01*
X113903958Y-105261035D01*
X113294418Y-105034599D01*
X112644623Y-105058659D01*
X112156042Y-105261035D01*
X112057443Y-105527837D01*
X109982000Y-105527837D01*
X109982000Y-92215750D01*
X112865000Y-92215750D01*
X112865000Y-93146309D01*
X112961673Y-93379698D01*
X113140301Y-93558327D01*
X113373690Y-93655000D01*
X114014250Y-93655000D01*
X114173000Y-93496250D01*
X114173000Y-92057000D01*
X114427000Y-92057000D01*
X114427000Y-93496250D01*
X114585750Y-93655000D01*
X115226310Y-93655000D01*
X115459699Y-93558327D01*
X115638327Y-93379698D01*
X115735000Y-93146309D01*
X115735000Y-92215750D01*
X115576250Y-92057000D01*
X114427000Y-92057000D01*
X114173000Y-92057000D01*
X113023750Y-92057000D01*
X112865000Y-92215750D01*
X109982000Y-92215750D01*
X109982000Y-90713691D01*
X112865000Y-90713691D01*
X112865000Y-91644250D01*
X113023750Y-91803000D01*
X114173000Y-91803000D01*
X114173000Y-90363750D01*
X114427000Y-90363750D01*
X114427000Y-91803000D01*
X115576250Y-91803000D01*
X115735000Y-91644250D01*
X115735000Y-90713691D01*
X115638327Y-90480302D01*
X115459699Y-90301673D01*
X115226310Y-90205000D01*
X114585750Y-90205000D01*
X114427000Y-90363750D01*
X114173000Y-90363750D01*
X114014250Y-90205000D01*
X113373690Y-90205000D01*
X113140301Y-90301673D01*
X112961673Y-90480302D01*
X112865000Y-90713691D01*
X109982000Y-90713691D01*
X109982000Y-84105750D01*
X117881400Y-84105750D01*
X117881400Y-84962309D01*
X117978073Y-85195698D01*
X118156701Y-85374327D01*
X118390090Y-85471000D01*
X119094250Y-85471000D01*
X119253000Y-85312250D01*
X119253000Y-83947000D01*
X118040150Y-83947000D01*
X117881400Y-84105750D01*
X109982000Y-84105750D01*
X109982000Y-82677691D01*
X117881400Y-82677691D01*
X117881400Y-83534250D01*
X118040150Y-83693000D01*
X119253000Y-83693000D01*
X119253000Y-82327750D01*
X119094250Y-82169000D01*
X118390090Y-82169000D01*
X118156701Y-82265673D01*
X117978073Y-82444302D01*
X117881400Y-82677691D01*
X109982000Y-82677691D01*
X109982000Y-76485750D01*
X117881400Y-76485750D01*
X117881400Y-77342309D01*
X117978073Y-77575698D01*
X118156701Y-77754327D01*
X118390090Y-77851000D01*
X119094250Y-77851000D01*
X119253000Y-77692250D01*
X119253000Y-76327000D01*
X118040150Y-76327000D01*
X117881400Y-76485750D01*
X109982000Y-76485750D01*
X109982000Y-75057691D01*
X117881400Y-75057691D01*
X117881400Y-75914250D01*
X118040150Y-76073000D01*
X119253000Y-76073000D01*
X119253000Y-74707750D01*
X119094250Y-74549000D01*
X118390090Y-74549000D01*
X118156701Y-74645673D01*
X117978073Y-74824302D01*
X117881400Y-75057691D01*
X109982000Y-75057691D01*
X109982000Y-74021913D01*
X130594816Y-74021913D01*
X130788046Y-74574320D01*
X131177964Y-75010732D01*
X131705209Y-75264709D01*
X131720974Y-75267358D01*
X131953000Y-75146217D01*
X131953000Y-73787000D01*
X130739076Y-73787000D01*
X130594816Y-74021913D01*
X109982000Y-74021913D01*
X109982000Y-73298087D01*
X130594816Y-73298087D01*
X130739076Y-73533000D01*
X131953000Y-73533000D01*
X131953000Y-72173783D01*
X131720974Y-72052642D01*
X131705209Y-72055291D01*
X131177964Y-72309268D01*
X130788046Y-72745680D01*
X130594816Y-73298087D01*
X109982000Y-73298087D01*
X109982000Y-70378172D01*
X110362538Y-70378172D01*
X110767709Y-71358761D01*
X111517293Y-72109655D01*
X112497173Y-72516536D01*
X113558172Y-72517462D01*
X114538761Y-72112291D01*
X115289655Y-71362707D01*
X115696536Y-70382827D01*
X115697462Y-69321828D01*
X115292291Y-68341239D01*
X114542707Y-67590345D01*
X113562827Y-67183464D01*
X112501828Y-67182538D01*
X111521239Y-67587709D01*
X110770345Y-68337293D01*
X110363464Y-69317173D01*
X110362538Y-70378172D01*
X109982000Y-70378172D01*
X109982000Y-66802000D01*
X165772698Y-66802000D01*
X163330700Y-69243998D01*
G36*
X158469898Y-97597401D02*
X158566599Y-97662014D01*
X158572560Y-97665997D01*
X158572560Y-98060000D01*
X158616838Y-98295317D01*
X158755910Y-98511441D01*
X158968110Y-98656431D01*
X159220000Y-98707440D01*
X160820000Y-98707440D01*
X161055317Y-98663162D01*
X161271441Y-98524090D01*
X161288234Y-98499512D01*
X161295910Y-98511441D01*
X161508110Y-98656431D01*
X161760000Y-98707440D01*
X162925300Y-98707440D01*
X162925300Y-99425000D01*
X162845750Y-99425000D01*
X162687000Y-99583750D01*
X162687000Y-100933000D01*
X162707000Y-100933000D01*
X162707000Y-101187000D01*
X162687000Y-101187000D01*
X162687000Y-101207000D01*
X162433000Y-101207000D01*
X162433000Y-101187000D01*
X160147000Y-101187000D01*
X160147000Y-101207000D01*
X159893000Y-101207000D01*
X159893000Y-101187000D01*
X158743750Y-101187000D01*
X158585000Y-101345750D01*
X158585000Y-101802400D01*
X154358300Y-101802400D01*
X154067461Y-101860252D01*
X153820899Y-102024999D01*
X153418599Y-102427299D01*
X153274767Y-102642560D01*
X152956000Y-102642560D01*
X152720683Y-102686838D01*
X152504559Y-102825910D01*
X152359569Y-103038110D01*
X152308560Y-103290000D01*
X152308560Y-103765958D01*
X151342752Y-102800150D01*
X152359801Y-101783101D01*
X152389844Y-101738139D01*
X152524548Y-101536540D01*
X152571877Y-101298600D01*
X152727100Y-101298600D01*
X153017939Y-101240748D01*
X153264501Y-101076001D01*
X154406811Y-99933691D01*
X158585000Y-99933691D01*
X158585000Y-100774250D01*
X158743750Y-100933000D01*
X159893000Y-100933000D01*
X159893000Y-99583750D01*
X160147000Y-99583750D01*
X160147000Y-100933000D01*
X162433000Y-100933000D01*
X162433000Y-99583750D01*
X162274250Y-99425000D01*
X161633690Y-99425000D01*
X161400301Y-99521673D01*
X161290000Y-99631975D01*
X161179699Y-99521673D01*
X160946310Y-99425000D01*
X160305750Y-99425000D01*
X160147000Y-99583750D01*
X159893000Y-99583750D01*
X159734250Y-99425000D01*
X159093690Y-99425000D01*
X158860301Y-99521673D01*
X158681673Y-99700302D01*
X158585000Y-99933691D01*
X154406811Y-99933691D01*
X157515502Y-96825000D01*
X157697498Y-96825000D01*
X158469898Y-97597401D01*
X158469898Y-97597401D01*
G37*
X158469898Y-97597401D02*
X158566599Y-97662014D01*
X158572560Y-97665997D01*
X158572560Y-98060000D01*
X158616838Y-98295317D01*
X158755910Y-98511441D01*
X158968110Y-98656431D01*
X159220000Y-98707440D01*
X160820000Y-98707440D01*
X161055317Y-98663162D01*
X161271441Y-98524090D01*
X161288234Y-98499512D01*
X161295910Y-98511441D01*
X161508110Y-98656431D01*
X161760000Y-98707440D01*
X162925300Y-98707440D01*
X162925300Y-99425000D01*
X162845750Y-99425000D01*
X162687000Y-99583750D01*
X162687000Y-100933000D01*
X162707000Y-100933000D01*
X162707000Y-101187000D01*
X162687000Y-101187000D01*
X162687000Y-101207000D01*
X162433000Y-101207000D01*
X162433000Y-101187000D01*
X160147000Y-101187000D01*
X160147000Y-101207000D01*
X159893000Y-101207000D01*
X159893000Y-101187000D01*
X158743750Y-101187000D01*
X158585000Y-101345750D01*
X158585000Y-101802400D01*
X154358300Y-101802400D01*
X154067461Y-101860252D01*
X153820899Y-102024999D01*
X153418599Y-102427299D01*
X153274767Y-102642560D01*
X152956000Y-102642560D01*
X152720683Y-102686838D01*
X152504559Y-102825910D01*
X152359569Y-103038110D01*
X152308560Y-103290000D01*
X152308560Y-103765958D01*
X151342752Y-102800150D01*
X152359801Y-101783101D01*
X152389844Y-101738139D01*
X152524548Y-101536540D01*
X152571877Y-101298600D01*
X152727100Y-101298600D01*
X153017939Y-101240748D01*
X153264501Y-101076001D01*
X154406811Y-99933691D01*
X158585000Y-99933691D01*
X158585000Y-100774250D01*
X158743750Y-100933000D01*
X159893000Y-100933000D01*
X159893000Y-99583750D01*
X160147000Y-99583750D01*
X160147000Y-100933000D01*
X162433000Y-100933000D01*
X162433000Y-99583750D01*
X162274250Y-99425000D01*
X161633690Y-99425000D01*
X161400301Y-99521673D01*
X161290000Y-99631975D01*
X161179699Y-99521673D01*
X160946310Y-99425000D01*
X160305750Y-99425000D01*
X160147000Y-99583750D01*
X159893000Y-99583750D01*
X159734250Y-99425000D01*
X159093690Y-99425000D01*
X158860301Y-99521673D01*
X158681673Y-99700302D01*
X158585000Y-99933691D01*
X154406811Y-99933691D01*
X157515502Y-96825000D01*
X157697498Y-96825000D01*
X158469898Y-97597401D01*
G36*
X150149538Y-100388050D02*
X150197062Y-100640621D01*
X150339107Y-100854803D01*
X150738801Y-101254497D01*
X150013598Y-101979700D01*
X146891000Y-101979700D01*
X146891000Y-101885750D01*
X146732250Y-101727000D01*
X145383000Y-101727000D01*
X145383000Y-101747000D01*
X145129000Y-101747000D01*
X145129000Y-101727000D01*
X143779750Y-101727000D01*
X143621000Y-101885750D01*
X143621000Y-101979700D01*
X142903440Y-101979700D01*
X142903440Y-101170200D01*
X143621000Y-101170200D01*
X143621000Y-101314250D01*
X143779750Y-101473000D01*
X145129000Y-101473000D01*
X145129000Y-101453000D01*
X145383000Y-101453000D01*
X145383000Y-101473000D01*
X146732250Y-101473000D01*
X146891000Y-101314250D01*
X146891000Y-101234961D01*
X146899661Y-101240748D01*
X147190500Y-101298600D01*
X147458631Y-101245265D01*
X147513490Y-101282749D01*
X147581391Y-101385133D01*
X147758168Y-101561910D01*
X147955871Y-101696995D01*
X148207033Y-101751479D01*
X148459604Y-101703955D01*
X148673786Y-101561910D01*
X149380893Y-100854803D01*
X149418848Y-100799254D01*
X149494080Y-100724022D01*
X149539567Y-100724062D01*
X149883343Y-100582017D01*
X150146592Y-100319227D01*
X150184021Y-100229088D01*
X150149538Y-100388050D01*
X150149538Y-100388050D01*
G37*
X150149538Y-100388050D02*
X150197062Y-100640621D01*
X150339107Y-100854803D01*
X150738801Y-101254497D01*
X150013598Y-101979700D01*
X146891000Y-101979700D01*
X146891000Y-101885750D01*
X146732250Y-101727000D01*
X145383000Y-101727000D01*
X145383000Y-101747000D01*
X145129000Y-101747000D01*
X145129000Y-101727000D01*
X143779750Y-101727000D01*
X143621000Y-101885750D01*
X143621000Y-101979700D01*
X142903440Y-101979700D01*
X142903440Y-101170200D01*
X143621000Y-101170200D01*
X143621000Y-101314250D01*
X143779750Y-101473000D01*
X145129000Y-101473000D01*
X145129000Y-101453000D01*
X145383000Y-101453000D01*
X145383000Y-101473000D01*
X146732250Y-101473000D01*
X146891000Y-101314250D01*
X146891000Y-101234961D01*
X146899661Y-101240748D01*
X147190500Y-101298600D01*
X147458631Y-101245265D01*
X147513490Y-101282749D01*
X147581391Y-101385133D01*
X147758168Y-101561910D01*
X147955871Y-101696995D01*
X148207033Y-101751479D01*
X148459604Y-101703955D01*
X148673786Y-101561910D01*
X149380893Y-100854803D01*
X149418848Y-100799254D01*
X149494080Y-100724022D01*
X149539567Y-100724062D01*
X149883343Y-100582017D01*
X150146592Y-100319227D01*
X150184021Y-100229088D01*
X150149538Y-100388050D01*
G36*
X160880560Y-88684000D02*
X160924838Y-88919317D01*
X161063910Y-89135441D01*
X161088488Y-89152234D01*
X161076559Y-89159910D01*
X160931569Y-89372110D01*
X160880560Y-89624000D01*
X160880560Y-91224000D01*
X160924838Y-91459317D01*
X161063910Y-91675441D01*
X161220241Y-91782257D01*
X157697498Y-95305000D01*
X157563102Y-95305000D01*
X157476554Y-95218452D01*
X157441910Y-95166214D01*
X156734803Y-94459107D01*
X156537100Y-94324022D01*
X156285938Y-94269538D01*
X156033367Y-94317062D01*
X155819185Y-94459107D01*
X155642408Y-94635884D01*
X155581727Y-94724694D01*
X155563743Y-94732143D01*
X155542487Y-94753399D01*
X155542487Y-94782123D01*
X155507323Y-94833587D01*
X155471926Y-94996760D01*
X155326260Y-95024169D01*
X155262743Y-95066293D01*
X155229593Y-95066293D01*
X155208337Y-95087549D01*
X155199870Y-95107991D01*
X155112078Y-95166214D01*
X154935301Y-95342991D01*
X154860910Y-95451865D01*
X154758525Y-95519767D01*
X154581748Y-95696544D01*
X154507356Y-95805420D01*
X154404972Y-95873321D01*
X154228195Y-96050098D01*
X154153805Y-96158971D01*
X154051418Y-96226874D01*
X153874641Y-96403651D01*
X153800249Y-96512527D01*
X153697865Y-96580428D01*
X153521088Y-96757205D01*
X153446698Y-96866078D01*
X153344311Y-96933981D01*
X153167534Y-97110758D01*
X153093143Y-97219632D01*
X152990758Y-97287534D01*
X152813981Y-97464311D01*
X152739589Y-97573187D01*
X152637205Y-97641088D01*
X152460428Y-97817865D01*
X152386038Y-97926738D01*
X152283651Y-97994641D01*
X152106874Y-98171418D01*
X152032482Y-98280294D01*
X151930098Y-98348195D01*
X151753321Y-98524972D01*
X151678931Y-98633845D01*
X151576544Y-98701748D01*
X151399767Y-98878525D01*
X151325376Y-98987399D01*
X151222991Y-99055301D01*
X151046214Y-99232078D01*
X150985533Y-99320888D01*
X150967549Y-99328337D01*
X150946293Y-99349593D01*
X150946293Y-99378317D01*
X150911129Y-99429781D01*
X150875732Y-99592954D01*
X150730066Y-99620363D01*
X150666549Y-99662487D01*
X150633399Y-99662487D01*
X150612143Y-99683743D01*
X150603676Y-99704185D01*
X150515884Y-99762408D01*
X150339107Y-99939185D01*
X150250632Y-100068672D01*
X150289238Y-99975699D01*
X150289510Y-99662487D01*
X150633398Y-99662487D01*
X150633399Y-99662487D01*
X150675522Y-99620363D01*
X150633398Y-99662487D01*
X150289510Y-99662487D01*
X150289562Y-99603733D01*
X150212339Y-99416838D01*
X150879047Y-99416838D01*
X150946293Y-99349593D01*
X150946293Y-99349592D01*
X150879047Y-99416838D01*
X150212339Y-99416838D01*
X150147517Y-99259957D01*
X149884727Y-98996708D01*
X149541199Y-98854062D01*
X149382000Y-98853923D01*
X149382000Y-98135863D01*
X149414192Y-98103727D01*
X149556838Y-97760199D01*
X149557162Y-97388233D01*
X149415117Y-97044457D01*
X149152327Y-96781208D01*
X148808799Y-96638562D01*
X148701700Y-96638469D01*
X148701700Y-95066293D01*
X155229592Y-95066293D01*
X155229593Y-95066293D01*
X155299125Y-94996760D01*
X155229592Y-95066293D01*
X148701700Y-95066293D01*
X148701700Y-95044370D01*
X148787648Y-94915739D01*
X148808422Y-94811301D01*
X155484584Y-94811301D01*
X155542487Y-94753399D01*
X155542487Y-94753398D01*
X155484584Y-94811301D01*
X148808422Y-94811301D01*
X148845500Y-94624900D01*
X148845500Y-94151100D01*
X156447500Y-94151100D01*
X156738339Y-94093248D01*
X156984901Y-93928501D01*
X157852701Y-93060701D01*
X158017448Y-92814139D01*
X158075300Y-92523300D01*
X158075300Y-91859000D01*
X158242250Y-91859000D01*
X158401000Y-91700250D01*
X158401000Y-90551000D01*
X158655000Y-90551000D01*
X158655000Y-91700250D01*
X158813750Y-91859000D01*
X159654309Y-91859000D01*
X159887698Y-91762327D01*
X160066327Y-91583699D01*
X160163000Y-91350310D01*
X160163000Y-90709750D01*
X160004250Y-90551000D01*
X158655000Y-90551000D01*
X158401000Y-90551000D01*
X158381000Y-90551000D01*
X158381000Y-90297000D01*
X158401000Y-90297000D01*
X158401000Y-88011000D01*
X158655000Y-88011000D01*
X158655000Y-90297000D01*
X160004250Y-90297000D01*
X160163000Y-90138250D01*
X160163000Y-89497690D01*
X160066327Y-89264301D01*
X159956025Y-89154000D01*
X160066327Y-89043699D01*
X160163000Y-88810310D01*
X160163000Y-88169750D01*
X160004250Y-88011000D01*
X158655000Y-88011000D01*
X158401000Y-88011000D01*
X158381000Y-88011000D01*
X158381000Y-87757000D01*
X158401000Y-87757000D01*
X158401000Y-87737000D01*
X158655000Y-87737000D01*
X158655000Y-87757000D01*
X160004250Y-87757000D01*
X160163000Y-87598250D01*
X160163000Y-87518700D01*
X160880560Y-87518700D01*
X160880560Y-88684000D01*
X160880560Y-88684000D01*
G37*
X160880560Y-88684000D02*
X160924838Y-88919317D01*
X161063910Y-89135441D01*
X161088488Y-89152234D01*
X161076559Y-89159910D01*
X160931569Y-89372110D01*
X160880560Y-89624000D01*
X160880560Y-91224000D01*
X160924838Y-91459317D01*
X161063910Y-91675441D01*
X161220241Y-91782257D01*
X157697498Y-95305000D01*
X157563102Y-95305000D01*
X157476554Y-95218452D01*
X157441910Y-95166214D01*
X156734803Y-94459107D01*
X156537100Y-94324022D01*
X156285938Y-94269538D01*
X156033367Y-94317062D01*
X155819185Y-94459107D01*
X155642408Y-94635884D01*
X155581727Y-94724694D01*
X155563743Y-94732143D01*
X155542487Y-94753399D01*
X155542487Y-94782123D01*
X155507323Y-94833587D01*
X155471926Y-94996760D01*
X155326260Y-95024169D01*
X155262743Y-95066293D01*
X155229593Y-95066293D01*
X155208337Y-95087549D01*
X155199870Y-95107991D01*
X155112078Y-95166214D01*
X154935301Y-95342991D01*
X154860910Y-95451865D01*
X154758525Y-95519767D01*
X154581748Y-95696544D01*
X154507356Y-95805420D01*
X154404972Y-95873321D01*
X154228195Y-96050098D01*
X154153805Y-96158971D01*
X154051418Y-96226874D01*
X153874641Y-96403651D01*
X153800249Y-96512527D01*
X153697865Y-96580428D01*
X153521088Y-96757205D01*
X153446698Y-96866078D01*
X153344311Y-96933981D01*
X153167534Y-97110758D01*
X153093143Y-97219632D01*
X152990758Y-97287534D01*
X152813981Y-97464311D01*
X152739589Y-97573187D01*
X152637205Y-97641088D01*
X152460428Y-97817865D01*
X152386038Y-97926738D01*
X152283651Y-97994641D01*
X152106874Y-98171418D01*
X152032482Y-98280294D01*
X151930098Y-98348195D01*
X151753321Y-98524972D01*
X151678931Y-98633845D01*
X151576544Y-98701748D01*
X151399767Y-98878525D01*
X151325376Y-98987399D01*
X151222991Y-99055301D01*
X151046214Y-99232078D01*
X150985533Y-99320888D01*
X150967549Y-99328337D01*
X150946293Y-99349593D01*
X150946293Y-99378317D01*
X150911129Y-99429781D01*
X150875732Y-99592954D01*
X150730066Y-99620363D01*
X150666549Y-99662487D01*
X150633399Y-99662487D01*
X150612143Y-99683743D01*
X150603676Y-99704185D01*
X150515884Y-99762408D01*
X150339107Y-99939185D01*
X150250632Y-100068672D01*
X150289238Y-99975699D01*
X150289510Y-99662487D01*
X150633398Y-99662487D01*
X150633399Y-99662487D01*
X150675522Y-99620363D01*
X150633398Y-99662487D01*
X150289510Y-99662487D01*
X150289562Y-99603733D01*
X150212339Y-99416838D01*
X150879047Y-99416838D01*
X150946293Y-99349593D01*
X150946293Y-99349592D01*
X150879047Y-99416838D01*
X150212339Y-99416838D01*
X150147517Y-99259957D01*
X149884727Y-98996708D01*
X149541199Y-98854062D01*
X149382000Y-98853923D01*
X149382000Y-98135863D01*
X149414192Y-98103727D01*
X149556838Y-97760199D01*
X149557162Y-97388233D01*
X149415117Y-97044457D01*
X149152327Y-96781208D01*
X148808799Y-96638562D01*
X148701700Y-96638469D01*
X148701700Y-95066293D01*
X155229592Y-95066293D01*
X155229593Y-95066293D01*
X155299125Y-94996760D01*
X155229592Y-95066293D01*
X148701700Y-95066293D01*
X148701700Y-95044370D01*
X148787648Y-94915739D01*
X148808422Y-94811301D01*
X155484584Y-94811301D01*
X155542487Y-94753399D01*
X155542487Y-94753398D01*
X155484584Y-94811301D01*
X148808422Y-94811301D01*
X148845500Y-94624900D01*
X148845500Y-94151100D01*
X156447500Y-94151100D01*
X156738339Y-94093248D01*
X156984901Y-93928501D01*
X157852701Y-93060701D01*
X158017448Y-92814139D01*
X158075300Y-92523300D01*
X158075300Y-91859000D01*
X158242250Y-91859000D01*
X158401000Y-91700250D01*
X158401000Y-90551000D01*
X158655000Y-90551000D01*
X158655000Y-91700250D01*
X158813750Y-91859000D01*
X159654309Y-91859000D01*
X159887698Y-91762327D01*
X160066327Y-91583699D01*
X160163000Y-91350310D01*
X160163000Y-90709750D01*
X160004250Y-90551000D01*
X158655000Y-90551000D01*
X158401000Y-90551000D01*
X158381000Y-90551000D01*
X158381000Y-90297000D01*
X158401000Y-90297000D01*
X158401000Y-88011000D01*
X158655000Y-88011000D01*
X158655000Y-90297000D01*
X160004250Y-90297000D01*
X160163000Y-90138250D01*
X160163000Y-89497690D01*
X160066327Y-89264301D01*
X159956025Y-89154000D01*
X160066327Y-89043699D01*
X160163000Y-88810310D01*
X160163000Y-88169750D01*
X160004250Y-88011000D01*
X158655000Y-88011000D01*
X158401000Y-88011000D01*
X158381000Y-88011000D01*
X158381000Y-87757000D01*
X158401000Y-87757000D01*
X158401000Y-87737000D01*
X158655000Y-87737000D01*
X158655000Y-87757000D01*
X160004250Y-87757000D01*
X160163000Y-87598250D01*
X160163000Y-87518700D01*
X160880560Y-87518700D01*
X160880560Y-88684000D01*
G36*
X132772999Y-84681101D02*
X133019560Y-84845848D01*
X133310400Y-84903700D01*
X136390898Y-84903700D01*
X138839328Y-87352130D01*
X138497310Y-87352130D01*
X138261993Y-87396408D01*
X138045869Y-87535480D01*
X138028651Y-87560679D01*
X137871890Y-87453569D01*
X137620000Y-87402560D01*
X135620000Y-87402560D01*
X135384683Y-87446838D01*
X135168559Y-87585910D01*
X135023569Y-87798110D01*
X134972560Y-88050000D01*
X134972560Y-89750000D01*
X135016838Y-89985317D01*
X135155910Y-90201441D01*
X135368110Y-90346431D01*
X135620000Y-90397440D01*
X137620000Y-90397440D01*
X137855317Y-90353162D01*
X138027219Y-90242546D01*
X138033220Y-90251871D01*
X138245420Y-90396861D01*
X138497310Y-90447870D01*
X139982496Y-90447870D01*
X140048399Y-90546501D01*
X142243446Y-92741548D01*
X142278090Y-92793786D01*
X142985197Y-93500893D01*
X143040746Y-93538848D01*
X143430399Y-93928501D01*
X143676961Y-94093248D01*
X143967800Y-94151100D01*
X147325500Y-94151100D01*
X147325500Y-94349230D01*
X147239552Y-94477861D01*
X147181700Y-94768700D01*
X147181700Y-96636029D01*
X146866299Y-96505062D01*
X146494333Y-96504738D01*
X146150557Y-96646783D01*
X146119496Y-96677789D01*
X146022135Y-96580428D01*
X145913262Y-96506038D01*
X145845359Y-96403651D01*
X145668582Y-96226874D01*
X145559706Y-96152482D01*
X145491805Y-96050098D01*
X145315028Y-95873321D01*
X145206155Y-95798931D01*
X145138252Y-95696544D01*
X144961475Y-95519767D01*
X144852601Y-95445376D01*
X144784699Y-95342991D01*
X144607922Y-95166214D01*
X144499046Y-95091822D01*
X144431145Y-94989438D01*
X144254368Y-94812661D01*
X144145495Y-94738271D01*
X144077592Y-94635884D01*
X143900815Y-94459107D01*
X143703112Y-94324022D01*
X143451950Y-94269538D01*
X143199379Y-94317062D01*
X142985197Y-94459107D01*
X142278090Y-95166214D01*
X142143005Y-95363917D01*
X142088521Y-95615079D01*
X142136045Y-95867650D01*
X142278090Y-96081832D01*
X142454867Y-96258609D01*
X142563740Y-96332999D01*
X142631643Y-96435386D01*
X142668257Y-96472000D01*
X138109502Y-96472000D01*
X137407701Y-95770199D01*
X137161139Y-95605452D01*
X136870300Y-95547600D01*
X135412000Y-95547600D01*
X135412000Y-94411440D01*
X135652000Y-94411440D01*
X135887317Y-94367162D01*
X136103441Y-94228090D01*
X136248431Y-94015890D01*
X136299440Y-93764000D01*
X136299440Y-93249750D01*
X137017000Y-93249750D01*
X137017000Y-93890310D01*
X137113673Y-94123699D01*
X137292302Y-94302327D01*
X137525691Y-94399000D01*
X138366250Y-94399000D01*
X138525000Y-94240250D01*
X138525000Y-93091000D01*
X138779000Y-93091000D01*
X138779000Y-94240250D01*
X138937750Y-94399000D01*
X139778309Y-94399000D01*
X140011698Y-94302327D01*
X140190327Y-94123699D01*
X140287000Y-93890310D01*
X140287000Y-93249750D01*
X140128250Y-93091000D01*
X138779000Y-93091000D01*
X138525000Y-93091000D01*
X137175750Y-93091000D01*
X137017000Y-93249750D01*
X136299440Y-93249750D01*
X136299440Y-92164000D01*
X136275674Y-92037690D01*
X137017000Y-92037690D01*
X137017000Y-92678250D01*
X137175750Y-92837000D01*
X138525000Y-92837000D01*
X138525000Y-91687750D01*
X138779000Y-91687750D01*
X138779000Y-92837000D01*
X140128250Y-92837000D01*
X140287000Y-92678250D01*
X140287000Y-92037690D01*
X140190327Y-91804301D01*
X140011698Y-91625673D01*
X139778309Y-91529000D01*
X138937750Y-91529000D01*
X138779000Y-91687750D01*
X138525000Y-91687750D01*
X138366250Y-91529000D01*
X137525691Y-91529000D01*
X137292302Y-91625673D01*
X137113673Y-91804301D01*
X137017000Y-92037690D01*
X136275674Y-92037690D01*
X136255162Y-91928683D01*
X136116090Y-91712559D01*
X135903890Y-91567569D01*
X135652000Y-91516560D01*
X133652000Y-91516560D01*
X133416683Y-91560838D01*
X133200559Y-91699910D01*
X133055569Y-91912110D01*
X133004560Y-92164000D01*
X133004560Y-93764000D01*
X133048838Y-93999317D01*
X133187910Y-94215441D01*
X133400110Y-94360431D01*
X133652000Y-94411440D01*
X133892000Y-94411440D01*
X133892000Y-95870598D01*
X133527420Y-96235178D01*
X133481933Y-96235138D01*
X133138157Y-96377183D01*
X133081021Y-96434219D01*
X128744000Y-92097198D01*
X128744000Y-90397440D01*
X128984000Y-90397440D01*
X129219317Y-90353162D01*
X129435441Y-90214090D01*
X129580431Y-90001890D01*
X129631440Y-89750000D01*
X129631440Y-88050000D01*
X130972560Y-88050000D01*
X130972560Y-89750000D01*
X131016838Y-89985317D01*
X131155910Y-90201441D01*
X131368110Y-90346431D01*
X131620000Y-90397440D01*
X133620000Y-90397440D01*
X133855317Y-90353162D01*
X134071441Y-90214090D01*
X134216431Y-90001890D01*
X134267440Y-89750000D01*
X134267440Y-88050000D01*
X134223162Y-87814683D01*
X134084090Y-87598559D01*
X133871890Y-87453569D01*
X133722095Y-87423235D01*
X133722162Y-87346533D01*
X133580117Y-87002757D01*
X133317327Y-86739508D01*
X132973799Y-86596862D01*
X132601833Y-86596538D01*
X132258057Y-86738583D01*
X131994808Y-87001373D01*
X131852162Y-87344901D01*
X131852112Y-87402560D01*
X131620000Y-87402560D01*
X131384683Y-87446838D01*
X131168559Y-87585910D01*
X131023569Y-87798110D01*
X130972560Y-88050000D01*
X129631440Y-88050000D01*
X129587162Y-87814683D01*
X129448090Y-87598559D01*
X129235890Y-87453569D01*
X128984000Y-87402560D01*
X128744000Y-87402560D01*
X128744000Y-85483440D01*
X130556000Y-85483440D01*
X130791317Y-85439162D01*
X131007441Y-85300090D01*
X131152431Y-85087890D01*
X131203440Y-84836000D01*
X131203440Y-83111542D01*
X132772999Y-84681101D01*
X132772999Y-84681101D01*
G37*
X132772999Y-84681101D02*
X133019560Y-84845848D01*
X133310400Y-84903700D01*
X136390898Y-84903700D01*
X138839328Y-87352130D01*
X138497310Y-87352130D01*
X138261993Y-87396408D01*
X138045869Y-87535480D01*
X138028651Y-87560679D01*
X137871890Y-87453569D01*
X137620000Y-87402560D01*
X135620000Y-87402560D01*
X135384683Y-87446838D01*
X135168559Y-87585910D01*
X135023569Y-87798110D01*
X134972560Y-88050000D01*
X134972560Y-89750000D01*
X135016838Y-89985317D01*
X135155910Y-90201441D01*
X135368110Y-90346431D01*
X135620000Y-90397440D01*
X137620000Y-90397440D01*
X137855317Y-90353162D01*
X138027219Y-90242546D01*
X138033220Y-90251871D01*
X138245420Y-90396861D01*
X138497310Y-90447870D01*
X139982496Y-90447870D01*
X140048399Y-90546501D01*
X142243446Y-92741548D01*
X142278090Y-92793786D01*
X142985197Y-93500893D01*
X143040746Y-93538848D01*
X143430399Y-93928501D01*
X143676961Y-94093248D01*
X143967800Y-94151100D01*
X147325500Y-94151100D01*
X147325500Y-94349230D01*
X147239552Y-94477861D01*
X147181700Y-94768700D01*
X147181700Y-96636029D01*
X146866299Y-96505062D01*
X146494333Y-96504738D01*
X146150557Y-96646783D01*
X146119496Y-96677789D01*
X146022135Y-96580428D01*
X145913262Y-96506038D01*
X145845359Y-96403651D01*
X145668582Y-96226874D01*
X145559706Y-96152482D01*
X145491805Y-96050098D01*
X145315028Y-95873321D01*
X145206155Y-95798931D01*
X145138252Y-95696544D01*
X144961475Y-95519767D01*
X144852601Y-95445376D01*
X144784699Y-95342991D01*
X144607922Y-95166214D01*
X144499046Y-95091822D01*
X144431145Y-94989438D01*
X144254368Y-94812661D01*
X144145495Y-94738271D01*
X144077592Y-94635884D01*
X143900815Y-94459107D01*
X143703112Y-94324022D01*
X143451950Y-94269538D01*
X143199379Y-94317062D01*
X142985197Y-94459107D01*
X142278090Y-95166214D01*
X142143005Y-95363917D01*
X142088521Y-95615079D01*
X142136045Y-95867650D01*
X142278090Y-96081832D01*
X142454867Y-96258609D01*
X142563740Y-96332999D01*
X142631643Y-96435386D01*
X142668257Y-96472000D01*
X138109502Y-96472000D01*
X137407701Y-95770199D01*
X137161139Y-95605452D01*
X136870300Y-95547600D01*
X135412000Y-95547600D01*
X135412000Y-94411440D01*
X135652000Y-94411440D01*
X135887317Y-94367162D01*
X136103441Y-94228090D01*
X136248431Y-94015890D01*
X136299440Y-93764000D01*
X136299440Y-93249750D01*
X137017000Y-93249750D01*
X137017000Y-93890310D01*
X137113673Y-94123699D01*
X137292302Y-94302327D01*
X137525691Y-94399000D01*
X138366250Y-94399000D01*
X138525000Y-94240250D01*
X138525000Y-93091000D01*
X138779000Y-93091000D01*
X138779000Y-94240250D01*
X138937750Y-94399000D01*
X139778309Y-94399000D01*
X140011698Y-94302327D01*
X140190327Y-94123699D01*
X140287000Y-93890310D01*
X140287000Y-93249750D01*
X140128250Y-93091000D01*
X138779000Y-93091000D01*
X138525000Y-93091000D01*
X137175750Y-93091000D01*
X137017000Y-93249750D01*
X136299440Y-93249750D01*
X136299440Y-92164000D01*
X136275674Y-92037690D01*
X137017000Y-92037690D01*
X137017000Y-92678250D01*
X137175750Y-92837000D01*
X138525000Y-92837000D01*
X138525000Y-91687750D01*
X138779000Y-91687750D01*
X138779000Y-92837000D01*
X140128250Y-92837000D01*
X140287000Y-92678250D01*
X140287000Y-92037690D01*
X140190327Y-91804301D01*
X140011698Y-91625673D01*
X139778309Y-91529000D01*
X138937750Y-91529000D01*
X138779000Y-91687750D01*
X138525000Y-91687750D01*
X138366250Y-91529000D01*
X137525691Y-91529000D01*
X137292302Y-91625673D01*
X137113673Y-91804301D01*
X137017000Y-92037690D01*
X136275674Y-92037690D01*
X136255162Y-91928683D01*
X136116090Y-91712559D01*
X135903890Y-91567569D01*
X135652000Y-91516560D01*
X133652000Y-91516560D01*
X133416683Y-91560838D01*
X133200559Y-91699910D01*
X133055569Y-91912110D01*
X133004560Y-92164000D01*
X133004560Y-93764000D01*
X133048838Y-93999317D01*
X133187910Y-94215441D01*
X133400110Y-94360431D01*
X133652000Y-94411440D01*
X133892000Y-94411440D01*
X133892000Y-95870598D01*
X133527420Y-96235178D01*
X133481933Y-96235138D01*
X133138157Y-96377183D01*
X133081021Y-96434219D01*
X128744000Y-92097198D01*
X128744000Y-90397440D01*
X128984000Y-90397440D01*
X129219317Y-90353162D01*
X129435441Y-90214090D01*
X129580431Y-90001890D01*
X129631440Y-89750000D01*
X129631440Y-88050000D01*
X130972560Y-88050000D01*
X130972560Y-89750000D01*
X131016838Y-89985317D01*
X131155910Y-90201441D01*
X131368110Y-90346431D01*
X131620000Y-90397440D01*
X133620000Y-90397440D01*
X133855317Y-90353162D01*
X134071441Y-90214090D01*
X134216431Y-90001890D01*
X134267440Y-89750000D01*
X134267440Y-88050000D01*
X134223162Y-87814683D01*
X134084090Y-87598559D01*
X133871890Y-87453569D01*
X133722095Y-87423235D01*
X133722162Y-87346533D01*
X133580117Y-87002757D01*
X133317327Y-86739508D01*
X132973799Y-86596862D01*
X132601833Y-86596538D01*
X132258057Y-86738583D01*
X131994808Y-87001373D01*
X131852162Y-87344901D01*
X131852112Y-87402560D01*
X131620000Y-87402560D01*
X131384683Y-87446838D01*
X131168559Y-87585910D01*
X131023569Y-87798110D01*
X130972560Y-88050000D01*
X129631440Y-88050000D01*
X129587162Y-87814683D01*
X129448090Y-87598559D01*
X129235890Y-87453569D01*
X128984000Y-87402560D01*
X128744000Y-87402560D01*
X128744000Y-85483440D01*
X130556000Y-85483440D01*
X130791317Y-85439162D01*
X131007441Y-85300090D01*
X131152431Y-85087890D01*
X131203440Y-84836000D01*
X131203440Y-83111542D01*
X132772999Y-84681101D01*
G36*
X183140100Y-74519402D02*
X183140100Y-89892130D01*
X181977030Y-89892130D01*
X181778153Y-89929551D01*
X177671201Y-85822599D01*
X177424639Y-85657852D01*
X177133800Y-85600000D01*
X176704648Y-85600000D01*
X176504415Y-85300330D01*
X176194931Y-85093539D01*
X176610732Y-84722036D01*
X176864709Y-84194791D01*
X176867358Y-84179026D01*
X176746217Y-83947000D01*
X175387000Y-83947000D01*
X175387000Y-83967000D01*
X175133000Y-83967000D01*
X175133000Y-83947000D01*
X173773783Y-83947000D01*
X173652642Y-84179026D01*
X173655291Y-84194791D01*
X173909268Y-84722036D01*
X174325069Y-85093539D01*
X174015585Y-85300330D01*
X173690729Y-85786511D01*
X173576655Y-86360000D01*
X173690729Y-86933489D01*
X174015585Y-87419670D01*
X174501766Y-87744526D01*
X175075255Y-87858600D01*
X175444745Y-87858600D01*
X176018234Y-87744526D01*
X176504415Y-87419670D01*
X176704648Y-87120000D01*
X176818998Y-87120000D01*
X179591128Y-89892130D01*
X179137310Y-89892130D01*
X178901993Y-89936408D01*
X178685869Y-90075480D01*
X178668651Y-90100679D01*
X178511890Y-89993569D01*
X178260000Y-89942560D01*
X176260000Y-89942560D01*
X176024683Y-89986838D01*
X175808559Y-90125910D01*
X175663569Y-90338110D01*
X175612560Y-90590000D01*
X175612560Y-92290000D01*
X175617132Y-92314300D01*
X174895000Y-92314300D01*
X174895000Y-91725750D01*
X174736250Y-91567000D01*
X173387000Y-91567000D01*
X173387000Y-91587000D01*
X173133000Y-91587000D01*
X173133000Y-91567000D01*
X171783750Y-91567000D01*
X171625000Y-91725750D01*
X171625000Y-92314300D01*
X171373754Y-92314300D01*
X171388780Y-92240100D01*
X171388780Y-90639900D01*
X171355624Y-90463690D01*
X171625000Y-90463690D01*
X171625000Y-91154250D01*
X171783750Y-91313000D01*
X173133000Y-91313000D01*
X173133000Y-90113750D01*
X173387000Y-90113750D01*
X173387000Y-91313000D01*
X174736250Y-91313000D01*
X174895000Y-91154250D01*
X174895000Y-90463690D01*
X174798327Y-90230301D01*
X174619698Y-90051673D01*
X174386309Y-89955000D01*
X173545750Y-89955000D01*
X173387000Y-90113750D01*
X173133000Y-90113750D01*
X172974250Y-89955000D01*
X172133691Y-89955000D01*
X171900302Y-90051673D01*
X171721673Y-90230301D01*
X171625000Y-90463690D01*
X171355624Y-90463690D01*
X171344502Y-90404583D01*
X171205430Y-90188459D01*
X170993230Y-90043469D01*
X170741340Y-89992460D01*
X170200900Y-89992460D01*
X170200900Y-87214702D01*
X171225401Y-86190201D01*
X171369240Y-85974930D01*
X171687490Y-85974930D01*
X171922807Y-85930652D01*
X172138931Y-85791580D01*
X172283921Y-85579380D01*
X172334930Y-85327490D01*
X172334930Y-83333300D01*
X173709198Y-83333300D01*
X173655291Y-83445209D01*
X173652642Y-83460974D01*
X173773783Y-83693000D01*
X175133000Y-83693000D01*
X175133000Y-83673000D01*
X175387000Y-83673000D01*
X175387000Y-83693000D01*
X176746217Y-83693000D01*
X176867358Y-83460974D01*
X176864709Y-83445209D01*
X176610732Y-82917964D01*
X176572551Y-82883851D01*
X177175501Y-82280901D01*
X177340248Y-82034340D01*
X177359829Y-81935900D01*
X177398100Y-81743500D01*
X177398100Y-70774900D01*
X177340248Y-70484061D01*
X177175501Y-70237499D01*
X176566513Y-69628511D01*
X176710931Y-69535580D01*
X176855921Y-69323380D01*
X176906930Y-69071490D01*
X176906930Y-68286232D01*
X183140100Y-74519402D01*
X183140100Y-74519402D01*
G37*
X183140100Y-74519402D02*
X183140100Y-89892130D01*
X181977030Y-89892130D01*
X181778153Y-89929551D01*
X177671201Y-85822599D01*
X177424639Y-85657852D01*
X177133800Y-85600000D01*
X176704648Y-85600000D01*
X176504415Y-85300330D01*
X176194931Y-85093539D01*
X176610732Y-84722036D01*
X176864709Y-84194791D01*
X176867358Y-84179026D01*
X176746217Y-83947000D01*
X175387000Y-83947000D01*
X175387000Y-83967000D01*
X175133000Y-83967000D01*
X175133000Y-83947000D01*
X173773783Y-83947000D01*
X173652642Y-84179026D01*
X173655291Y-84194791D01*
X173909268Y-84722036D01*
X174325069Y-85093539D01*
X174015585Y-85300330D01*
X173690729Y-85786511D01*
X173576655Y-86360000D01*
X173690729Y-86933489D01*
X174015585Y-87419670D01*
X174501766Y-87744526D01*
X175075255Y-87858600D01*
X175444745Y-87858600D01*
X176018234Y-87744526D01*
X176504415Y-87419670D01*
X176704648Y-87120000D01*
X176818998Y-87120000D01*
X179591128Y-89892130D01*
X179137310Y-89892130D01*
X178901993Y-89936408D01*
X178685869Y-90075480D01*
X178668651Y-90100679D01*
X178511890Y-89993569D01*
X178260000Y-89942560D01*
X176260000Y-89942560D01*
X176024683Y-89986838D01*
X175808559Y-90125910D01*
X175663569Y-90338110D01*
X175612560Y-90590000D01*
X175612560Y-92290000D01*
X175617132Y-92314300D01*
X174895000Y-92314300D01*
X174895000Y-91725750D01*
X174736250Y-91567000D01*
X173387000Y-91567000D01*
X173387000Y-91587000D01*
X173133000Y-91587000D01*
X173133000Y-91567000D01*
X171783750Y-91567000D01*
X171625000Y-91725750D01*
X171625000Y-92314300D01*
X171373754Y-92314300D01*
X171388780Y-92240100D01*
X171388780Y-90639900D01*
X171355624Y-90463690D01*
X171625000Y-90463690D01*
X171625000Y-91154250D01*
X171783750Y-91313000D01*
X173133000Y-91313000D01*
X173133000Y-90113750D01*
X173387000Y-90113750D01*
X173387000Y-91313000D01*
X174736250Y-91313000D01*
X174895000Y-91154250D01*
X174895000Y-90463690D01*
X174798327Y-90230301D01*
X174619698Y-90051673D01*
X174386309Y-89955000D01*
X173545750Y-89955000D01*
X173387000Y-90113750D01*
X173133000Y-90113750D01*
X172974250Y-89955000D01*
X172133691Y-89955000D01*
X171900302Y-90051673D01*
X171721673Y-90230301D01*
X171625000Y-90463690D01*
X171355624Y-90463690D01*
X171344502Y-90404583D01*
X171205430Y-90188459D01*
X170993230Y-90043469D01*
X170741340Y-89992460D01*
X170200900Y-89992460D01*
X170200900Y-87214702D01*
X171225401Y-86190201D01*
X171369240Y-85974930D01*
X171687490Y-85974930D01*
X171922807Y-85930652D01*
X172138931Y-85791580D01*
X172283921Y-85579380D01*
X172334930Y-85327490D01*
X172334930Y-83333300D01*
X173709198Y-83333300D01*
X173655291Y-83445209D01*
X173652642Y-83460974D01*
X173773783Y-83693000D01*
X175133000Y-83693000D01*
X175133000Y-83673000D01*
X175387000Y-83673000D01*
X175387000Y-83693000D01*
X176746217Y-83693000D01*
X176867358Y-83460974D01*
X176864709Y-83445209D01*
X176610732Y-82917964D01*
X176572551Y-82883851D01*
X177175501Y-82280901D01*
X177340248Y-82034340D01*
X177359829Y-81935900D01*
X177398100Y-81743500D01*
X177398100Y-70774900D01*
X177340248Y-70484061D01*
X177175501Y-70237499D01*
X176566513Y-69628511D01*
X176710931Y-69535580D01*
X176855921Y-69323380D01*
X176906930Y-69071490D01*
X176906930Y-68286232D01*
X183140100Y-74519402D01*
G36*
X165966140Y-91313000D02*
X165986140Y-91313000D01*
X165986140Y-91567000D01*
X165966140Y-91567000D01*
X165966140Y-91587000D01*
X165712140Y-91587000D01*
X165712140Y-91567000D01*
X165692140Y-91567000D01*
X165692140Y-91313000D01*
X165712140Y-91313000D01*
X165712140Y-91293000D01*
X165966140Y-91293000D01*
X165966140Y-91313000D01*
X165966140Y-91313000D01*
G37*
X165966140Y-91313000D02*
X165986140Y-91313000D01*
X165986140Y-91567000D01*
X165966140Y-91567000D01*
X165966140Y-91587000D01*
X165712140Y-91587000D01*
X165712140Y-91567000D01*
X165692140Y-91567000D01*
X165692140Y-91313000D01*
X165712140Y-91313000D01*
X165712140Y-91293000D01*
X165966140Y-91293000D01*
X165966140Y-91313000D01*
G36*
X138886770Y-85216531D02*
X139138660Y-85267540D01*
X141335402Y-85267540D01*
X141362852Y-85405539D01*
X141527599Y-85652101D01*
X142799900Y-86924402D01*
X142799900Y-87364570D01*
X142421610Y-87364570D01*
X142262860Y-87523320D01*
X142262860Y-88773000D01*
X142282860Y-88773000D01*
X142282860Y-89027000D01*
X142262860Y-89027000D01*
X142262860Y-90276680D01*
X142421610Y-90435430D01*
X142855741Y-90435430D01*
X142857752Y-90445539D01*
X143022499Y-90692101D01*
X143259802Y-90929404D01*
X143161974Y-90994284D01*
X142985197Y-91171061D01*
X142924517Y-91259869D01*
X142915221Y-91263719D01*
X141968521Y-90317019D01*
X142008860Y-90276680D01*
X142008860Y-89027000D01*
X141988860Y-89027000D01*
X141988860Y-88773000D01*
X142008860Y-88773000D01*
X142008860Y-87523320D01*
X141850110Y-87364570D01*
X141210721Y-87364570D01*
X141062689Y-87425887D01*
X138781200Y-85144398D01*
X138886770Y-85216531D01*
X138886770Y-85216531D01*
G37*
X138886770Y-85216531D02*
X139138660Y-85267540D01*
X141335402Y-85267540D01*
X141362852Y-85405539D01*
X141527599Y-85652101D01*
X142799900Y-86924402D01*
X142799900Y-87364570D01*
X142421610Y-87364570D01*
X142262860Y-87523320D01*
X142262860Y-88773000D01*
X142282860Y-88773000D01*
X142282860Y-89027000D01*
X142262860Y-89027000D01*
X142262860Y-90276680D01*
X142421610Y-90435430D01*
X142855741Y-90435430D01*
X142857752Y-90445539D01*
X143022499Y-90692101D01*
X143259802Y-90929404D01*
X143161974Y-90994284D01*
X142985197Y-91171061D01*
X142924517Y-91259869D01*
X142915221Y-91263719D01*
X141968521Y-90317019D01*
X142008860Y-90276680D01*
X142008860Y-89027000D01*
X141988860Y-89027000D01*
X141988860Y-88773000D01*
X142008860Y-88773000D01*
X142008860Y-87523320D01*
X141850110Y-87364570D01*
X141210721Y-87364570D01*
X141062689Y-87425887D01*
X138781200Y-85144398D01*
X138886770Y-85216531D01*
G36*
X140430340Y-74864234D02*
X140104641Y-75648605D01*
X140103900Y-76497909D01*
X140428230Y-77282847D01*
X141028254Y-77883920D01*
X141812625Y-78209619D01*
X142661929Y-78210360D01*
X143446867Y-77886030D01*
X144047940Y-77286006D01*
X144325988Y-76616390D01*
X145075131Y-77365533D01*
X144941602Y-77372315D01*
X144562875Y-77529189D01*
X144494815Y-77770190D01*
X145287140Y-78562515D01*
X145301283Y-78548373D01*
X145480888Y-78727978D01*
X145466745Y-78742120D01*
X145480888Y-78756263D01*
X145301283Y-78935868D01*
X145287140Y-78921725D01*
X144494815Y-79714050D01*
X144562875Y-79955051D01*
X145082174Y-80139887D01*
X145632678Y-80111925D01*
X145797100Y-80043819D01*
X145797100Y-81449000D01*
X145854952Y-81739839D01*
X146019699Y-81986401D01*
X150738801Y-86705503D01*
X150339107Y-87105197D01*
X150204022Y-87302900D01*
X150149538Y-87554062D01*
X150197062Y-87806633D01*
X150311176Y-87978700D01*
X149409669Y-87978700D01*
X149515978Y-87823112D01*
X149570462Y-87571950D01*
X149522938Y-87319379D01*
X149380893Y-87105197D01*
X148832491Y-86556795D01*
X148832762Y-86245433D01*
X148690717Y-85901657D01*
X148427927Y-85638408D01*
X148084399Y-85495762D01*
X147712433Y-85495438D01*
X147368657Y-85637483D01*
X147105408Y-85900273D01*
X146962762Y-86243801D01*
X146962438Y-86615767D01*
X147104483Y-86959543D01*
X147165089Y-87020255D01*
X147153445Y-87037296D01*
X147051061Y-87105197D01*
X146874284Y-87281974D01*
X146799893Y-87390848D01*
X146697508Y-87458750D01*
X146520731Y-87635527D01*
X146446341Y-87744400D01*
X146343954Y-87812303D01*
X146167177Y-87989080D01*
X146092785Y-88097956D01*
X145990401Y-88165857D01*
X145813624Y-88342634D01*
X145739234Y-88451507D01*
X145636847Y-88519410D01*
X145460070Y-88696187D01*
X145385678Y-88805063D01*
X145283294Y-88872964D01*
X145106517Y-89049741D01*
X145032126Y-89158615D01*
X144929741Y-89226517D01*
X144752964Y-89403294D01*
X144678574Y-89512167D01*
X144576187Y-89580070D01*
X144399410Y-89756847D01*
X144333423Y-89853421D01*
X144319900Y-89839898D01*
X144319900Y-86609600D01*
X144262048Y-86318761D01*
X144097301Y-86072199D01*
X143280202Y-85255100D01*
X143755110Y-85255100D01*
X143913860Y-85096350D01*
X143913860Y-83947000D01*
X144167860Y-83947000D01*
X144167860Y-85096350D01*
X144326610Y-85255100D01*
X145467649Y-85255100D01*
X145701038Y-85158427D01*
X145879667Y-84979799D01*
X145976340Y-84746410D01*
X145976340Y-84105750D01*
X145817590Y-83947000D01*
X144167860Y-83947000D01*
X143913860Y-83947000D01*
X143893860Y-83947000D01*
X143893860Y-83693000D01*
X143913860Y-83693000D01*
X143913860Y-82543650D01*
X144167860Y-82543650D01*
X144167860Y-83693000D01*
X145817590Y-83693000D01*
X145976340Y-83534250D01*
X145976340Y-82893590D01*
X145879667Y-82660201D01*
X145701038Y-82481573D01*
X145467649Y-82384900D01*
X144326610Y-82384900D01*
X144167860Y-82543650D01*
X143913860Y-82543650D01*
X143755110Y-82384900D01*
X142825000Y-82384900D01*
X142825000Y-81105000D01*
X142767148Y-80814161D01*
X142767148Y-80814160D01*
X142602401Y-80567599D01*
X140571956Y-78537154D01*
X143889373Y-78537154D01*
X143917335Y-79087658D01*
X144074209Y-79466385D01*
X144315210Y-79534445D01*
X145107535Y-78742120D01*
X144315210Y-77949795D01*
X144074209Y-78017855D01*
X143889373Y-78537154D01*
X140571956Y-78537154D01*
X137358242Y-75323440D01*
X138023600Y-75323440D01*
X138258917Y-75279162D01*
X138475041Y-75140090D01*
X138620031Y-74927890D01*
X138671040Y-74676000D01*
X138671040Y-74420000D01*
X140875351Y-74420000D01*
X140430340Y-74864234D01*
X140430340Y-74864234D01*
G37*
X140430340Y-74864234D02*
X140104641Y-75648605D01*
X140103900Y-76497909D01*
X140428230Y-77282847D01*
X141028254Y-77883920D01*
X141812625Y-78209619D01*
X142661929Y-78210360D01*
X143446867Y-77886030D01*
X144047940Y-77286006D01*
X144325988Y-76616390D01*
X145075131Y-77365533D01*
X144941602Y-77372315D01*
X144562875Y-77529189D01*
X144494815Y-77770190D01*
X145287140Y-78562515D01*
X145301283Y-78548373D01*
X145480888Y-78727978D01*
X145466745Y-78742120D01*
X145480888Y-78756263D01*
X145301283Y-78935868D01*
X145287140Y-78921725D01*
X144494815Y-79714050D01*
X144562875Y-79955051D01*
X145082174Y-80139887D01*
X145632678Y-80111925D01*
X145797100Y-80043819D01*
X145797100Y-81449000D01*
X145854952Y-81739839D01*
X146019699Y-81986401D01*
X150738801Y-86705503D01*
X150339107Y-87105197D01*
X150204022Y-87302900D01*
X150149538Y-87554062D01*
X150197062Y-87806633D01*
X150311176Y-87978700D01*
X149409669Y-87978700D01*
X149515978Y-87823112D01*
X149570462Y-87571950D01*
X149522938Y-87319379D01*
X149380893Y-87105197D01*
X148832491Y-86556795D01*
X148832762Y-86245433D01*
X148690717Y-85901657D01*
X148427927Y-85638408D01*
X148084399Y-85495762D01*
X147712433Y-85495438D01*
X147368657Y-85637483D01*
X147105408Y-85900273D01*
X146962762Y-86243801D01*
X146962438Y-86615767D01*
X147104483Y-86959543D01*
X147165089Y-87020255D01*
X147153445Y-87037296D01*
X147051061Y-87105197D01*
X146874284Y-87281974D01*
X146799893Y-87390848D01*
X146697508Y-87458750D01*
X146520731Y-87635527D01*
X146446341Y-87744400D01*
X146343954Y-87812303D01*
X146167177Y-87989080D01*
X146092785Y-88097956D01*
X145990401Y-88165857D01*
X145813624Y-88342634D01*
X145739234Y-88451507D01*
X145636847Y-88519410D01*
X145460070Y-88696187D01*
X145385678Y-88805063D01*
X145283294Y-88872964D01*
X145106517Y-89049741D01*
X145032126Y-89158615D01*
X144929741Y-89226517D01*
X144752964Y-89403294D01*
X144678574Y-89512167D01*
X144576187Y-89580070D01*
X144399410Y-89756847D01*
X144333423Y-89853421D01*
X144319900Y-89839898D01*
X144319900Y-86609600D01*
X144262048Y-86318761D01*
X144097301Y-86072199D01*
X143280202Y-85255100D01*
X143755110Y-85255100D01*
X143913860Y-85096350D01*
X143913860Y-83947000D01*
X144167860Y-83947000D01*
X144167860Y-85096350D01*
X144326610Y-85255100D01*
X145467649Y-85255100D01*
X145701038Y-85158427D01*
X145879667Y-84979799D01*
X145976340Y-84746410D01*
X145976340Y-84105750D01*
X145817590Y-83947000D01*
X144167860Y-83947000D01*
X143913860Y-83947000D01*
X143893860Y-83947000D01*
X143893860Y-83693000D01*
X143913860Y-83693000D01*
X143913860Y-82543650D01*
X144167860Y-82543650D01*
X144167860Y-83693000D01*
X145817590Y-83693000D01*
X145976340Y-83534250D01*
X145976340Y-82893590D01*
X145879667Y-82660201D01*
X145701038Y-82481573D01*
X145467649Y-82384900D01*
X144326610Y-82384900D01*
X144167860Y-82543650D01*
X143913860Y-82543650D01*
X143755110Y-82384900D01*
X142825000Y-82384900D01*
X142825000Y-81105000D01*
X142767148Y-80814161D01*
X142767148Y-80814160D01*
X142602401Y-80567599D01*
X140571956Y-78537154D01*
X143889373Y-78537154D01*
X143917335Y-79087658D01*
X144074209Y-79466385D01*
X144315210Y-79534445D01*
X145107535Y-78742120D01*
X144315210Y-77949795D01*
X144074209Y-78017855D01*
X143889373Y-78537154D01*
X140571956Y-78537154D01*
X137358242Y-75323440D01*
X138023600Y-75323440D01*
X138258917Y-75279162D01*
X138475041Y-75140090D01*
X138620031Y-74927890D01*
X138671040Y-74676000D01*
X138671040Y-74420000D01*
X140875351Y-74420000D01*
X140430340Y-74864234D01*
G36*
X173796420Y-69522931D02*
X174008620Y-69667921D01*
X174260510Y-69718930D01*
X174578760Y-69718930D01*
X174722599Y-69934201D01*
X175878100Y-71089702D01*
X175878100Y-72521070D01*
X174260510Y-72521070D01*
X174025193Y-72565348D01*
X173809069Y-72704420D01*
X173664079Y-72916620D01*
X173613070Y-73168510D01*
X173613070Y-74859700D01*
X163331600Y-74859700D01*
X163040761Y-74917552D01*
X162794199Y-75082299D01*
X161935216Y-75941282D01*
X161842090Y-75796559D01*
X161629890Y-75651569D01*
X161378000Y-75600560D01*
X160296742Y-75600560D01*
X160486101Y-75411201D01*
X160635714Y-75187288D01*
X161257655Y-75311000D01*
X161322345Y-75311000D01*
X161954155Y-75185325D01*
X162489778Y-74827433D01*
X162847670Y-74291810D01*
X162973345Y-73660000D01*
X162847670Y-73028190D01*
X162623034Y-72691999D01*
X162665698Y-72674327D01*
X162844327Y-72495699D01*
X162941000Y-72262310D01*
X162941000Y-71405750D01*
X162782250Y-71247000D01*
X161417000Y-71247000D01*
X161417000Y-71267000D01*
X161163000Y-71267000D01*
X161163000Y-71247000D01*
X159797750Y-71247000D01*
X159639000Y-71405750D01*
X159639000Y-72262310D01*
X159735673Y-72495699D01*
X159914302Y-72674327D01*
X159956966Y-72691999D01*
X159797947Y-72929987D01*
X159657861Y-72957852D01*
X159411299Y-73122599D01*
X159246552Y-73369161D01*
X159188700Y-73660000D01*
X159188700Y-74558998D01*
X158090376Y-75657322D01*
X158090380Y-75652331D01*
X157766050Y-74867393D01*
X157166026Y-74266320D01*
X156381655Y-73940621D01*
X155532351Y-73939880D01*
X154747413Y-74264210D01*
X154146340Y-74864234D01*
X153820641Y-75648605D01*
X153819900Y-76497909D01*
X154144230Y-77282847D01*
X154744254Y-77883920D01*
X155528625Y-78209619D01*
X155538071Y-78209627D01*
X155085599Y-78662099D01*
X154920852Y-78908661D01*
X154863000Y-79199500D01*
X154863000Y-82384900D01*
X153932890Y-82384900D01*
X153774140Y-82543650D01*
X153774140Y-83693000D01*
X153794140Y-83693000D01*
X153794140Y-83947000D01*
X153774140Y-83947000D01*
X153774140Y-85096350D01*
X153932890Y-85255100D01*
X154863000Y-85255100D01*
X154863000Y-86134398D01*
X153987200Y-87010198D01*
X153987200Y-86013700D01*
X153979488Y-85974930D01*
X153929348Y-85722860D01*
X153764601Y-85476299D01*
X153452396Y-85164094D01*
X153520140Y-85096350D01*
X153520140Y-83947000D01*
X153500140Y-83947000D01*
X153500140Y-83693000D01*
X153520140Y-83693000D01*
X153520140Y-82543650D01*
X153361390Y-82384900D01*
X152220351Y-82384900D01*
X151986962Y-82481573D01*
X151808333Y-82660201D01*
X151711660Y-82893590D01*
X151711660Y-83423358D01*
X151069400Y-82781098D01*
X151069400Y-81042900D01*
X151023901Y-80814161D01*
X151011548Y-80752060D01*
X150846801Y-80505499D01*
X150619100Y-80277798D01*
X150619100Y-79927300D01*
X150642977Y-79917434D01*
X151033084Y-79528007D01*
X151129115Y-79296739D01*
X151223826Y-79525957D01*
X151613253Y-79916064D01*
X152122324Y-80127449D01*
X152673538Y-80127930D01*
X153182977Y-79917434D01*
X153573084Y-79528007D01*
X153784469Y-79018936D01*
X153784950Y-78467722D01*
X153574454Y-77958283D01*
X153185027Y-77568176D01*
X152675956Y-77356791D01*
X152124742Y-77356310D01*
X151615303Y-77566806D01*
X151225196Y-77956233D01*
X151129165Y-78187501D01*
X151034454Y-77958283D01*
X150645027Y-77568176D01*
X150135956Y-77356791D01*
X149584742Y-77356310D01*
X149075303Y-77566806D01*
X148843077Y-77798627D01*
X148613027Y-77568176D01*
X148103956Y-77356791D01*
X147552742Y-77356310D01*
X147257006Y-77478506D01*
X147094501Y-77235299D01*
X142981801Y-73122599D01*
X142735239Y-72957852D01*
X142444400Y-72900000D01*
X138671040Y-72900000D01*
X138671040Y-72644000D01*
X138626762Y-72408683D01*
X138487690Y-72192559D01*
X138275490Y-72047569D01*
X138023600Y-71996560D01*
X136296400Y-71996560D01*
X136061083Y-72040838D01*
X135844959Y-72179910D01*
X135699969Y-72392110D01*
X135691600Y-72433439D01*
X135679670Y-72415585D01*
X135313371Y-72170831D01*
X136945602Y-70538600D01*
X159639000Y-70538600D01*
X159639000Y-70834250D01*
X159797750Y-70993000D01*
X161163000Y-70993000D01*
X161163000Y-70973000D01*
X161417000Y-70973000D01*
X161417000Y-70993000D01*
X162782250Y-70993000D01*
X162856174Y-70919076D01*
X164173799Y-72236701D01*
X164420361Y-72401448D01*
X164711200Y-72459300D01*
X167640000Y-72459300D01*
X167930839Y-72401448D01*
X168177401Y-72236701D01*
X168342148Y-71990139D01*
X168343229Y-71984705D01*
X168383317Y-71977162D01*
X168599441Y-71838090D01*
X168744431Y-71625890D01*
X168783000Y-71435431D01*
X168783000Y-71500310D01*
X168879673Y-71733699D01*
X169058302Y-71912327D01*
X169291691Y-72009000D01*
X169640250Y-72009000D01*
X169799000Y-71850250D01*
X169799000Y-70485000D01*
X170053000Y-70485000D01*
X170053000Y-71850250D01*
X170211750Y-72009000D01*
X170560309Y-72009000D01*
X170793698Y-71912327D01*
X170972327Y-71733699D01*
X171069000Y-71500310D01*
X171069000Y-70643750D01*
X170910250Y-70485000D01*
X170053000Y-70485000D01*
X169799000Y-70485000D01*
X169779000Y-70485000D01*
X169779000Y-70231000D01*
X169799000Y-70231000D01*
X169799000Y-70211000D01*
X170053000Y-70211000D01*
X170053000Y-70231000D01*
X170910250Y-70231000D01*
X171069000Y-70072250D01*
X171069000Y-69416900D01*
X173728191Y-69416900D01*
X173796420Y-69522931D01*
X173796420Y-69522931D01*
G37*
X173796420Y-69522931D02*
X174008620Y-69667921D01*
X174260510Y-69718930D01*
X174578760Y-69718930D01*
X174722599Y-69934201D01*
X175878100Y-71089702D01*
X175878100Y-72521070D01*
X174260510Y-72521070D01*
X174025193Y-72565348D01*
X173809069Y-72704420D01*
X173664079Y-72916620D01*
X173613070Y-73168510D01*
X173613070Y-74859700D01*
X163331600Y-74859700D01*
X163040761Y-74917552D01*
X162794199Y-75082299D01*
X161935216Y-75941282D01*
X161842090Y-75796559D01*
X161629890Y-75651569D01*
X161378000Y-75600560D01*
X160296742Y-75600560D01*
X160486101Y-75411201D01*
X160635714Y-75187288D01*
X161257655Y-75311000D01*
X161322345Y-75311000D01*
X161954155Y-75185325D01*
X162489778Y-74827433D01*
X162847670Y-74291810D01*
X162973345Y-73660000D01*
X162847670Y-73028190D01*
X162623034Y-72691999D01*
X162665698Y-72674327D01*
X162844327Y-72495699D01*
X162941000Y-72262310D01*
X162941000Y-71405750D01*
X162782250Y-71247000D01*
X161417000Y-71247000D01*
X161417000Y-71267000D01*
X161163000Y-71267000D01*
X161163000Y-71247000D01*
X159797750Y-71247000D01*
X159639000Y-71405750D01*
X159639000Y-72262310D01*
X159735673Y-72495699D01*
X159914302Y-72674327D01*
X159956966Y-72691999D01*
X159797947Y-72929987D01*
X159657861Y-72957852D01*
X159411299Y-73122599D01*
X159246552Y-73369161D01*
X159188700Y-73660000D01*
X159188700Y-74558998D01*
X158090376Y-75657322D01*
X158090380Y-75652331D01*
X157766050Y-74867393D01*
X157166026Y-74266320D01*
X156381655Y-73940621D01*
X155532351Y-73939880D01*
X154747413Y-74264210D01*
X154146340Y-74864234D01*
X153820641Y-75648605D01*
X153819900Y-76497909D01*
X154144230Y-77282847D01*
X154744254Y-77883920D01*
X155528625Y-78209619D01*
X155538071Y-78209627D01*
X155085599Y-78662099D01*
X154920852Y-78908661D01*
X154863000Y-79199500D01*
X154863000Y-82384900D01*
X153932890Y-82384900D01*
X153774140Y-82543650D01*
X153774140Y-83693000D01*
X153794140Y-83693000D01*
X153794140Y-83947000D01*
X153774140Y-83947000D01*
X153774140Y-85096350D01*
X153932890Y-85255100D01*
X154863000Y-85255100D01*
X154863000Y-86134398D01*
X153987200Y-87010198D01*
X153987200Y-86013700D01*
X153979488Y-85974930D01*
X153929348Y-85722860D01*
X153764601Y-85476299D01*
X153452396Y-85164094D01*
X153520140Y-85096350D01*
X153520140Y-83947000D01*
X153500140Y-83947000D01*
X153500140Y-83693000D01*
X153520140Y-83693000D01*
X153520140Y-82543650D01*
X153361390Y-82384900D01*
X152220351Y-82384900D01*
X151986962Y-82481573D01*
X151808333Y-82660201D01*
X151711660Y-82893590D01*
X151711660Y-83423358D01*
X151069400Y-82781098D01*
X151069400Y-81042900D01*
X151023901Y-80814161D01*
X151011548Y-80752060D01*
X150846801Y-80505499D01*
X150619100Y-80277798D01*
X150619100Y-79927300D01*
X150642977Y-79917434D01*
X151033084Y-79528007D01*
X151129115Y-79296739D01*
X151223826Y-79525957D01*
X151613253Y-79916064D01*
X152122324Y-80127449D01*
X152673538Y-80127930D01*
X153182977Y-79917434D01*
X153573084Y-79528007D01*
X153784469Y-79018936D01*
X153784950Y-78467722D01*
X153574454Y-77958283D01*
X153185027Y-77568176D01*
X152675956Y-77356791D01*
X152124742Y-77356310D01*
X151615303Y-77566806D01*
X151225196Y-77956233D01*
X151129165Y-78187501D01*
X151034454Y-77958283D01*
X150645027Y-77568176D01*
X150135956Y-77356791D01*
X149584742Y-77356310D01*
X149075303Y-77566806D01*
X148843077Y-77798627D01*
X148613027Y-77568176D01*
X148103956Y-77356791D01*
X147552742Y-77356310D01*
X147257006Y-77478506D01*
X147094501Y-77235299D01*
X142981801Y-73122599D01*
X142735239Y-72957852D01*
X142444400Y-72900000D01*
X138671040Y-72900000D01*
X138671040Y-72644000D01*
X138626762Y-72408683D01*
X138487690Y-72192559D01*
X138275490Y-72047569D01*
X138023600Y-71996560D01*
X136296400Y-71996560D01*
X136061083Y-72040838D01*
X135844959Y-72179910D01*
X135699969Y-72392110D01*
X135691600Y-72433439D01*
X135679670Y-72415585D01*
X135313371Y-72170831D01*
X136945602Y-70538600D01*
X159639000Y-70538600D01*
X159639000Y-70834250D01*
X159797750Y-70993000D01*
X161163000Y-70993000D01*
X161163000Y-70973000D01*
X161417000Y-70973000D01*
X161417000Y-70993000D01*
X162782250Y-70993000D01*
X162856174Y-70919076D01*
X164173799Y-72236701D01*
X164420361Y-72401448D01*
X164711200Y-72459300D01*
X167640000Y-72459300D01*
X167930839Y-72401448D01*
X168177401Y-72236701D01*
X168342148Y-71990139D01*
X168343229Y-71984705D01*
X168383317Y-71977162D01*
X168599441Y-71838090D01*
X168744431Y-71625890D01*
X168783000Y-71435431D01*
X168783000Y-71500310D01*
X168879673Y-71733699D01*
X169058302Y-71912327D01*
X169291691Y-72009000D01*
X169640250Y-72009000D01*
X169799000Y-71850250D01*
X169799000Y-70485000D01*
X170053000Y-70485000D01*
X170053000Y-71850250D01*
X170211750Y-72009000D01*
X170560309Y-72009000D01*
X170793698Y-71912327D01*
X170972327Y-71733699D01*
X171069000Y-71500310D01*
X171069000Y-70643750D01*
X170910250Y-70485000D01*
X170053000Y-70485000D01*
X169799000Y-70485000D01*
X169779000Y-70485000D01*
X169779000Y-70231000D01*
X169799000Y-70231000D01*
X169799000Y-70211000D01*
X170053000Y-70211000D01*
X170053000Y-70231000D01*
X170910250Y-70231000D01*
X171069000Y-70072250D01*
X171069000Y-69416900D01*
X173728191Y-69416900D01*
X173796420Y-69522931D01*
G36*
X165163760Y-77978000D02*
X165208038Y-78213317D01*
X165347110Y-78429441D01*
X165559310Y-78574431D01*
X165811200Y-78625440D01*
X169468800Y-78625440D01*
X169704117Y-78581162D01*
X169920241Y-78442090D01*
X170065231Y-78229890D01*
X170116240Y-77978000D01*
X170116240Y-76379700D01*
X174500000Y-76379700D01*
X174500000Y-77228960D01*
X174244000Y-77228960D01*
X174008683Y-77273238D01*
X173792559Y-77412310D01*
X173647569Y-77624510D01*
X173596560Y-77876400D01*
X173596560Y-79603600D01*
X173640838Y-79838917D01*
X173779910Y-80055041D01*
X173992110Y-80200031D01*
X174086927Y-80219232D01*
X173909268Y-80377964D01*
X173655291Y-80905209D01*
X173652642Y-80920974D01*
X173773783Y-81153000D01*
X175133000Y-81153000D01*
X175133000Y-81133000D01*
X175387000Y-81133000D01*
X175387000Y-81153000D01*
X175407000Y-81153000D01*
X175407000Y-81407000D01*
X175387000Y-81407000D01*
X175387000Y-81427000D01*
X175133000Y-81427000D01*
X175133000Y-81407000D01*
X173773783Y-81407000D01*
X173652642Y-81639026D01*
X173655291Y-81654791D01*
X173731646Y-81813300D01*
X165123870Y-81813300D01*
X165123870Y-80377030D01*
X165079592Y-80141713D01*
X164940520Y-79925589D01*
X164728320Y-79780599D01*
X164626741Y-79760029D01*
X164836129Y-79673297D01*
X165014757Y-79494668D01*
X165111430Y-79261279D01*
X165111430Y-78621890D01*
X164952680Y-78463140D01*
X163703000Y-78463140D01*
X163703000Y-78483140D01*
X163449000Y-78483140D01*
X163449000Y-78463140D01*
X162199320Y-78463140D01*
X162040570Y-78621890D01*
X162040570Y-79261279D01*
X162137243Y-79494668D01*
X162315871Y-79673297D01*
X162521681Y-79758546D01*
X162440253Y-79773868D01*
X162224129Y-79912940D01*
X162079139Y-80125140D01*
X162028130Y-80377030D01*
X162028130Y-80488000D01*
X162025440Y-80488000D01*
X162025440Y-80248000D01*
X161981162Y-80012683D01*
X161842090Y-79796559D01*
X161629890Y-79651569D01*
X161378000Y-79600560D01*
X159678000Y-79600560D01*
X159442683Y-79644838D01*
X159226559Y-79783910D01*
X159081569Y-79996110D01*
X159030560Y-80248000D01*
X159030560Y-81813300D01*
X157370200Y-81813300D01*
X157079361Y-81871152D01*
X156832799Y-82035899D01*
X156711499Y-82157199D01*
X156567667Y-82372460D01*
X156383000Y-82372460D01*
X156383000Y-79514302D01*
X159030560Y-76866742D01*
X159030560Y-78248000D01*
X159074838Y-78483317D01*
X159213910Y-78699441D01*
X159426110Y-78844431D01*
X159678000Y-78895440D01*
X161378000Y-78895440D01*
X161613317Y-78851162D01*
X161829441Y-78712090D01*
X161974431Y-78499890D01*
X162025440Y-78248000D01*
X162025440Y-77929233D01*
X162040570Y-77919124D01*
X162040570Y-78050390D01*
X162199320Y-78209140D01*
X163449000Y-78209140D01*
X163449000Y-77061060D01*
X163703000Y-77061060D01*
X163703000Y-78209140D01*
X164952680Y-78209140D01*
X165111430Y-78050390D01*
X165111430Y-77411001D01*
X165014757Y-77177612D01*
X164836129Y-76998983D01*
X164602740Y-76902310D01*
X163861750Y-76902310D01*
X163703000Y-77061060D01*
X163449000Y-77061060D01*
X163290250Y-76902310D01*
X163123792Y-76902310D01*
X163646402Y-76379700D01*
X165163760Y-76379700D01*
X165163760Y-77978000D01*
X165163760Y-77978000D01*
G37*
X165163760Y-77978000D02*
X165208038Y-78213317D01*
X165347110Y-78429441D01*
X165559310Y-78574431D01*
X165811200Y-78625440D01*
X169468800Y-78625440D01*
X169704117Y-78581162D01*
X169920241Y-78442090D01*
X170065231Y-78229890D01*
X170116240Y-77978000D01*
X170116240Y-76379700D01*
X174500000Y-76379700D01*
X174500000Y-77228960D01*
X174244000Y-77228960D01*
X174008683Y-77273238D01*
X173792559Y-77412310D01*
X173647569Y-77624510D01*
X173596560Y-77876400D01*
X173596560Y-79603600D01*
X173640838Y-79838917D01*
X173779910Y-80055041D01*
X173992110Y-80200031D01*
X174086927Y-80219232D01*
X173909268Y-80377964D01*
X173655291Y-80905209D01*
X173652642Y-80920974D01*
X173773783Y-81153000D01*
X175133000Y-81153000D01*
X175133000Y-81133000D01*
X175387000Y-81133000D01*
X175387000Y-81153000D01*
X175407000Y-81153000D01*
X175407000Y-81407000D01*
X175387000Y-81407000D01*
X175387000Y-81427000D01*
X175133000Y-81427000D01*
X175133000Y-81407000D01*
X173773783Y-81407000D01*
X173652642Y-81639026D01*
X173655291Y-81654791D01*
X173731646Y-81813300D01*
X165123870Y-81813300D01*
X165123870Y-80377030D01*
X165079592Y-80141713D01*
X164940520Y-79925589D01*
X164728320Y-79780599D01*
X164626741Y-79760029D01*
X164836129Y-79673297D01*
X165014757Y-79494668D01*
X165111430Y-79261279D01*
X165111430Y-78621890D01*
X164952680Y-78463140D01*
X163703000Y-78463140D01*
X163703000Y-78483140D01*
X163449000Y-78483140D01*
X163449000Y-78463140D01*
X162199320Y-78463140D01*
X162040570Y-78621890D01*
X162040570Y-79261279D01*
X162137243Y-79494668D01*
X162315871Y-79673297D01*
X162521681Y-79758546D01*
X162440253Y-79773868D01*
X162224129Y-79912940D01*
X162079139Y-80125140D01*
X162028130Y-80377030D01*
X162028130Y-80488000D01*
X162025440Y-80488000D01*
X162025440Y-80248000D01*
X161981162Y-80012683D01*
X161842090Y-79796559D01*
X161629890Y-79651569D01*
X161378000Y-79600560D01*
X159678000Y-79600560D01*
X159442683Y-79644838D01*
X159226559Y-79783910D01*
X159081569Y-79996110D01*
X159030560Y-80248000D01*
X159030560Y-81813300D01*
X157370200Y-81813300D01*
X157079361Y-81871152D01*
X156832799Y-82035899D01*
X156711499Y-82157199D01*
X156567667Y-82372460D01*
X156383000Y-82372460D01*
X156383000Y-79514302D01*
X159030560Y-76866742D01*
X159030560Y-78248000D01*
X159074838Y-78483317D01*
X159213910Y-78699441D01*
X159426110Y-78844431D01*
X159678000Y-78895440D01*
X161378000Y-78895440D01*
X161613317Y-78851162D01*
X161829441Y-78712090D01*
X161974431Y-78499890D01*
X162025440Y-78248000D01*
X162025440Y-77929233D01*
X162040570Y-77919124D01*
X162040570Y-78050390D01*
X162199320Y-78209140D01*
X163449000Y-78209140D01*
X163449000Y-77061060D01*
X163703000Y-77061060D01*
X163703000Y-78209140D01*
X164952680Y-78209140D01*
X165111430Y-78050390D01*
X165111430Y-77411001D01*
X165014757Y-77177612D01*
X164836129Y-76998983D01*
X164602740Y-76902310D01*
X163861750Y-76902310D01*
X163703000Y-77061060D01*
X163449000Y-77061060D01*
X163290250Y-76902310D01*
X163123792Y-76902310D01*
X163646402Y-76379700D01*
X165163760Y-76379700D01*
X165163760Y-77978000D01*
M02*
