%TF.GenerationSoftware,KiCad,Pcbnew,4.0.2+dfsg1-stable*%
%TF.CreationDate,2019-02-28T19:17:58+01:00*%
%TF.ProjectId,StandAlone-Adapter,5374616E64416C6F6E652D4164617074,rev?*%
%TF.FileFunction,Legend,Top*%
%FSLAX46Y46*%
G04 Gerber Fmt 4.6, Leading zero omitted, Abs format (unit mm)*
G04 Created by KiCad (PCBNEW 4.0.2+dfsg1-stable) date Thu 28 Feb 2019 19:17:58 CET*
%MOMM*%
G01*
G04 APERTURE LIST*
%ADD10C,0.100000*%
%ADD11C,0.200000*%
%ADD12C,0.150000*%
%ADD13C,0.125000*%
%ADD14C,0.300000*%
%ADD15C,0.175000*%
%ADD16C,0.275000*%
%ADD17C,0.250000*%
%ADD18C,0.120000*%
G04 APERTURE END LIST*
D10*
D11*
X142494000Y-94742000D02*
G75*
G03X142494000Y-94742000I-127000J0D01*
G01*
D12*
X110806667Y-83604915D02*
X110106667Y-83517415D01*
X110773333Y-83600749D02*
X110806667Y-83671582D01*
X110806667Y-83804915D01*
X110773333Y-83867416D01*
X110740000Y-83896582D01*
X110673333Y-83921583D01*
X110473333Y-83896583D01*
X110406667Y-83854915D01*
X110373333Y-83817416D01*
X110340000Y-83746582D01*
X110340000Y-83613249D01*
X110373333Y-83550749D01*
X110773333Y-83000750D02*
X110806667Y-83071582D01*
X110806667Y-83204916D01*
X110773333Y-83267416D01*
X110706667Y-83292416D01*
X110440000Y-83259083D01*
X110373333Y-83217416D01*
X110340000Y-83146583D01*
X110340000Y-83013249D01*
X110373333Y-82950750D01*
X110440000Y-82925749D01*
X110506667Y-82934082D01*
X110573333Y-83275750D01*
X110773333Y-82700750D02*
X110806667Y-82638249D01*
X110806667Y-82504916D01*
X110773333Y-82434083D01*
X110706667Y-82392416D01*
X110673333Y-82388250D01*
X110606667Y-82413249D01*
X110573333Y-82475750D01*
X110573333Y-82575750D01*
X110540000Y-82638249D01*
X110473333Y-82663250D01*
X110440000Y-82659083D01*
X110373333Y-82617416D01*
X110340000Y-82546583D01*
X110340000Y-82446583D01*
X110373333Y-82384083D01*
X110806667Y-82104915D02*
X110340000Y-82046582D01*
X110106667Y-82017415D02*
X110140000Y-82054916D01*
X110173333Y-82025749D01*
X110140000Y-81988249D01*
X110106667Y-82017415D01*
X110173333Y-82025749D01*
X110340000Y-81413249D02*
X110906667Y-81484082D01*
X110973333Y-81525750D01*
X111006667Y-81563249D01*
X111040000Y-81634083D01*
X111040000Y-81734083D01*
X111006667Y-81796582D01*
X110773333Y-81467416D02*
X110806667Y-81538249D01*
X110806667Y-81671582D01*
X110773333Y-81734083D01*
X110740000Y-81763249D01*
X110673333Y-81788250D01*
X110473333Y-81763250D01*
X110406667Y-81721582D01*
X110373333Y-81684083D01*
X110340000Y-81613249D01*
X110340000Y-81479916D01*
X110373333Y-81417416D01*
X110340000Y-81079916D02*
X110806667Y-81138249D01*
X110406667Y-81088249D02*
X110373333Y-81050750D01*
X110340000Y-80979916D01*
X110340000Y-80879916D01*
X110373333Y-80817417D01*
X110440000Y-80792416D01*
X110806667Y-80838249D01*
X110773333Y-80234084D02*
X110806667Y-80304916D01*
X110806667Y-80438250D01*
X110773333Y-80500750D01*
X110706667Y-80525750D01*
X110440000Y-80492417D01*
X110373333Y-80450750D01*
X110340000Y-80379917D01*
X110340000Y-80246583D01*
X110373333Y-80184084D01*
X110440000Y-80159083D01*
X110506667Y-80167416D01*
X110573333Y-80509084D01*
X110806667Y-79604916D02*
X110106667Y-79517416D01*
X110773333Y-79600750D02*
X110806667Y-79671583D01*
X110806667Y-79804916D01*
X110773333Y-79867417D01*
X110740000Y-79896583D01*
X110673333Y-79921584D01*
X110473333Y-79896584D01*
X110406667Y-79854916D01*
X110373333Y-79817417D01*
X110340000Y-79746583D01*
X110340000Y-79613250D01*
X110373333Y-79550750D01*
X110806667Y-78738250D02*
X110106667Y-78650750D01*
X110373333Y-78684084D02*
X110340000Y-78613251D01*
X110340000Y-78479917D01*
X110373333Y-78417418D01*
X110406667Y-78388250D01*
X110473333Y-78363251D01*
X110673333Y-78388251D01*
X110740000Y-78429917D01*
X110773333Y-78467418D01*
X110806667Y-78538250D01*
X110806667Y-78671584D01*
X110773333Y-78734084D01*
X110340000Y-78113251D02*
X110806667Y-78004917D01*
X110340000Y-77779918D02*
X110806667Y-78004917D01*
X110973333Y-78092418D01*
X111006667Y-78129917D01*
X111040000Y-78200751D01*
X110806667Y-76638251D02*
X110473333Y-76829919D01*
X110806667Y-77038251D02*
X110106667Y-76950751D01*
X110106667Y-76684085D01*
X110140000Y-76621585D01*
X110173333Y-76592419D01*
X110240000Y-76567418D01*
X110340000Y-76579918D01*
X110406667Y-76621585D01*
X110440000Y-76659085D01*
X110473333Y-76729919D01*
X110473333Y-76996585D01*
X110740000Y-76329918D02*
X110773333Y-76300752D01*
X110806667Y-76338251D01*
X110773333Y-76367419D01*
X110740000Y-76329918D01*
X110806667Y-76338251D01*
X110140000Y-75554919D02*
X110106667Y-75617418D01*
X110106667Y-75717418D01*
X110140000Y-75821585D01*
X110206667Y-75896585D01*
X110273333Y-75938252D01*
X110406667Y-75988252D01*
X110506667Y-76000752D01*
X110640000Y-75984085D01*
X110706667Y-75959085D01*
X110773333Y-75900752D01*
X110806667Y-75804918D01*
X110806667Y-75738252D01*
X110773333Y-75634086D01*
X110740000Y-75596585D01*
X110506667Y-75567418D01*
X110506667Y-75700752D01*
X110740000Y-75296585D02*
X110773333Y-75267419D01*
X110806667Y-75304918D01*
X110773333Y-75334086D01*
X110740000Y-75296585D01*
X110806667Y-75304918D01*
X110173333Y-74925753D02*
X110140000Y-74888252D01*
X110106667Y-74817419D01*
X110106667Y-74650752D01*
X110140000Y-74588252D01*
X110173333Y-74559086D01*
X110240000Y-74534086D01*
X110306667Y-74542419D01*
X110406667Y-74588252D01*
X110806667Y-75038252D01*
X110806667Y-74604919D01*
X110106667Y-74084085D02*
X110106667Y-74017418D01*
X110140000Y-73954919D01*
X110173333Y-73925752D01*
X110240000Y-73900752D01*
X110373333Y-73884086D01*
X110540000Y-73904919D01*
X110673333Y-73954919D01*
X110740000Y-73996585D01*
X110773333Y-74034086D01*
X110806667Y-74104918D01*
X110806667Y-74171585D01*
X110773333Y-74234086D01*
X110740000Y-74263252D01*
X110673333Y-74288252D01*
X110540000Y-74304919D01*
X110373333Y-74284086D01*
X110240000Y-74234085D01*
X110173333Y-74192419D01*
X110140000Y-74154919D01*
X110106667Y-74084085D01*
X110806667Y-73271585D02*
X110806667Y-73671585D01*
X110806667Y-73471585D02*
X110106667Y-73384085D01*
X110206667Y-73463251D01*
X110273333Y-73538252D01*
X110306667Y-73609085D01*
X110406667Y-72821584D02*
X110373333Y-72884085D01*
X110340000Y-72913251D01*
X110273333Y-72938252D01*
X110240000Y-72934085D01*
X110173333Y-72892418D01*
X110140000Y-72854918D01*
X110106667Y-72784084D01*
X110106667Y-72650751D01*
X110140000Y-72588251D01*
X110173333Y-72559085D01*
X110240000Y-72534085D01*
X110273333Y-72538252D01*
X110340000Y-72579918D01*
X110373333Y-72617418D01*
X110406667Y-72688251D01*
X110406667Y-72821584D01*
X110440000Y-72892418D01*
X110473333Y-72929918D01*
X110540000Y-72971585D01*
X110673333Y-72988252D01*
X110740000Y-72963251D01*
X110773333Y-72934085D01*
X110806667Y-72871584D01*
X110806667Y-72738251D01*
X110773333Y-72667418D01*
X110740000Y-72629918D01*
X110673333Y-72588252D01*
X110540000Y-72571585D01*
X110473333Y-72596585D01*
X110440000Y-72625751D01*
X110406667Y-72688251D01*
D13*
X117286000Y-121892190D02*
X116952666Y-121654095D01*
X116714571Y-121892190D02*
X116714571Y-121392190D01*
X117095524Y-121392190D01*
X117190762Y-121416000D01*
X117238381Y-121439810D01*
X117286000Y-121487429D01*
X117286000Y-121558857D01*
X117238381Y-121606476D01*
X117190762Y-121630286D01*
X117095524Y-121654095D01*
X116714571Y-121654095D01*
X117714571Y-121630286D02*
X118047905Y-121630286D01*
X118190762Y-121892190D02*
X117714571Y-121892190D01*
X117714571Y-121392190D01*
X118190762Y-121392190D01*
X118476476Y-121392190D02*
X119047905Y-121392190D01*
X118762190Y-121892190D02*
X118762190Y-121392190D01*
X119952667Y-121892190D02*
X119619333Y-121654095D01*
X119381238Y-121892190D02*
X119381238Y-121392190D01*
X119762191Y-121392190D01*
X119857429Y-121416000D01*
X119905048Y-121439810D01*
X119952667Y-121487429D01*
X119952667Y-121558857D01*
X119905048Y-121606476D01*
X119857429Y-121630286D01*
X119762191Y-121654095D01*
X119381238Y-121654095D01*
X120571714Y-121392190D02*
X120762191Y-121392190D01*
X120857429Y-121416000D01*
X120952667Y-121463619D01*
X121000286Y-121558857D01*
X121000286Y-121725524D01*
X120952667Y-121820762D01*
X120857429Y-121868381D01*
X120762191Y-121892190D01*
X120571714Y-121892190D01*
X120476476Y-121868381D01*
X120381238Y-121820762D01*
X120333619Y-121725524D01*
X120333619Y-121558857D01*
X120381238Y-121463619D01*
X120476476Y-121416000D01*
X120571714Y-121392190D01*
X121762191Y-121630286D02*
X121905048Y-121654095D01*
X121952667Y-121677905D01*
X122000286Y-121725524D01*
X122000286Y-121796952D01*
X121952667Y-121844571D01*
X121905048Y-121868381D01*
X121809810Y-121892190D01*
X121428857Y-121892190D01*
X121428857Y-121392190D01*
X121762191Y-121392190D01*
X121857429Y-121416000D01*
X121905048Y-121439810D01*
X121952667Y-121487429D01*
X121952667Y-121535048D01*
X121905048Y-121582667D01*
X121857429Y-121606476D01*
X121762191Y-121630286D01*
X121428857Y-121630286D01*
X122428857Y-121892190D02*
X122428857Y-121392190D01*
X122762190Y-121392190D02*
X123333619Y-121392190D01*
X123047904Y-121892190D02*
X123047904Y-121392190D01*
X124143143Y-121892190D02*
X123666952Y-121892190D01*
X123666952Y-121392190D01*
X124428857Y-121749333D02*
X124905048Y-121749333D01*
X124333619Y-121892190D02*
X124666952Y-121392190D01*
X125000286Y-121892190D01*
X125666953Y-121630286D02*
X125809810Y-121654095D01*
X125857429Y-121677905D01*
X125905048Y-121725524D01*
X125905048Y-121796952D01*
X125857429Y-121844571D01*
X125809810Y-121868381D01*
X125714572Y-121892190D01*
X125333619Y-121892190D01*
X125333619Y-121392190D01*
X125666953Y-121392190D01*
X125762191Y-121416000D01*
X125809810Y-121439810D01*
X125857429Y-121487429D01*
X125857429Y-121535048D01*
X125809810Y-121582667D01*
X125762191Y-121606476D01*
X125666953Y-121630286D01*
X125333619Y-121630286D01*
X127047905Y-121749333D02*
X127524096Y-121749333D01*
X126952667Y-121892190D02*
X127286000Y-121392190D01*
X127619334Y-121892190D01*
X127952667Y-121892190D02*
X127952667Y-121392190D01*
X128286001Y-121749333D01*
X128619334Y-121392190D01*
X128619334Y-121892190D01*
X129095524Y-121892190D02*
X129095524Y-121392190D01*
X130095524Y-121416000D02*
X130000286Y-121392190D01*
X129857429Y-121392190D01*
X129714571Y-121416000D01*
X129619333Y-121463619D01*
X129571714Y-121511238D01*
X129524095Y-121606476D01*
X129524095Y-121677905D01*
X129571714Y-121773143D01*
X129619333Y-121820762D01*
X129714571Y-121868381D01*
X129857429Y-121892190D01*
X129952667Y-121892190D01*
X130095524Y-121868381D01*
X130143143Y-121844571D01*
X130143143Y-121677905D01*
X129952667Y-121677905D01*
X130524095Y-121749333D02*
X131000286Y-121749333D01*
X130428857Y-121892190D02*
X130762190Y-121392190D01*
X131095524Y-121892190D01*
X132190762Y-121392190D02*
X132190762Y-121796952D01*
X132238381Y-121844571D01*
X132286000Y-121868381D01*
X132381238Y-121892190D01*
X132571715Y-121892190D01*
X132666953Y-121868381D01*
X132714572Y-121844571D01*
X132762191Y-121796952D01*
X132762191Y-121392190D01*
X133190762Y-121868381D02*
X133333619Y-121892190D01*
X133571715Y-121892190D01*
X133666953Y-121868381D01*
X133714572Y-121844571D01*
X133762191Y-121796952D01*
X133762191Y-121749333D01*
X133714572Y-121701714D01*
X133666953Y-121677905D01*
X133571715Y-121654095D01*
X133381238Y-121630286D01*
X133286000Y-121606476D01*
X133238381Y-121582667D01*
X133190762Y-121535048D01*
X133190762Y-121487429D01*
X133238381Y-121439810D01*
X133286000Y-121416000D01*
X133381238Y-121392190D01*
X133619334Y-121392190D01*
X133762191Y-121416000D01*
X134524096Y-121630286D02*
X134666953Y-121654095D01*
X134714572Y-121677905D01*
X134762191Y-121725524D01*
X134762191Y-121796952D01*
X134714572Y-121844571D01*
X134666953Y-121868381D01*
X134571715Y-121892190D01*
X134190762Y-121892190D01*
X134190762Y-121392190D01*
X134524096Y-121392190D01*
X134619334Y-121416000D01*
X134666953Y-121439810D01*
X134714572Y-121487429D01*
X134714572Y-121535048D01*
X134666953Y-121582667D01*
X134619334Y-121606476D01*
X134524096Y-121630286D01*
X134190762Y-121630286D01*
X135905048Y-121749333D02*
X136381239Y-121749333D01*
X135809810Y-121892190D02*
X136143143Y-121392190D01*
X136476477Y-121892190D01*
X136809810Y-121892190D02*
X136809810Y-121392190D01*
X137047905Y-121392190D01*
X137190763Y-121416000D01*
X137286001Y-121463619D01*
X137333620Y-121511238D01*
X137381239Y-121606476D01*
X137381239Y-121677905D01*
X137333620Y-121773143D01*
X137286001Y-121820762D01*
X137190763Y-121868381D01*
X137047905Y-121892190D01*
X136809810Y-121892190D01*
X137762191Y-121749333D02*
X138238382Y-121749333D01*
X137666953Y-121892190D02*
X138000286Y-121392190D01*
X138333620Y-121892190D01*
X138666953Y-121892190D02*
X138666953Y-121392190D01*
X139047906Y-121392190D01*
X139143144Y-121416000D01*
X139190763Y-121439810D01*
X139238382Y-121487429D01*
X139238382Y-121558857D01*
X139190763Y-121606476D01*
X139143144Y-121630286D01*
X139047906Y-121654095D01*
X138666953Y-121654095D01*
X139524096Y-121392190D02*
X140095525Y-121392190D01*
X139809810Y-121892190D02*
X139809810Y-121392190D01*
X140428858Y-121630286D02*
X140762192Y-121630286D01*
X140905049Y-121892190D02*
X140428858Y-121892190D01*
X140428858Y-121392190D01*
X140905049Y-121392190D01*
X141905049Y-121892190D02*
X141571715Y-121654095D01*
X141333620Y-121892190D02*
X141333620Y-121392190D01*
X141714573Y-121392190D01*
X141809811Y-121416000D01*
X141857430Y-121439810D01*
X141905049Y-121487429D01*
X141905049Y-121558857D01*
X141857430Y-121606476D01*
X141809811Y-121630286D01*
X141714573Y-121654095D01*
X141333620Y-121654095D01*
D14*
X111676571Y-98698571D02*
X110962286Y-99198571D01*
X111676571Y-99555714D02*
X110176571Y-99555714D01*
X110176571Y-98984286D01*
X110248000Y-98841428D01*
X110319429Y-98770000D01*
X110462286Y-98698571D01*
X110676571Y-98698571D01*
X110819429Y-98770000D01*
X110890857Y-98841428D01*
X110962286Y-98984286D01*
X110962286Y-99555714D01*
X110890857Y-98055714D02*
X110890857Y-97555714D01*
X111676571Y-97341428D02*
X111676571Y-98055714D01*
X110176571Y-98055714D01*
X110176571Y-97341428D01*
X111605143Y-96770000D02*
X111676571Y-96555714D01*
X111676571Y-96198571D01*
X111605143Y-96055714D01*
X111533714Y-95984285D01*
X111390857Y-95912857D01*
X111248000Y-95912857D01*
X111105143Y-95984285D01*
X111033714Y-96055714D01*
X110962286Y-96198571D01*
X110890857Y-96484285D01*
X110819429Y-96627143D01*
X110748000Y-96698571D01*
X110605143Y-96770000D01*
X110462286Y-96770000D01*
X110319429Y-96698571D01*
X110248000Y-96627143D01*
X110176571Y-96484285D01*
X110176571Y-96127143D01*
X110248000Y-95912857D01*
X110890857Y-95270000D02*
X110890857Y-94770000D01*
X111676571Y-94555714D02*
X111676571Y-95270000D01*
X110176571Y-95270000D01*
X110176571Y-94555714D01*
X110176571Y-94127143D02*
X110176571Y-93270000D01*
X111676571Y-93698571D02*
X110176571Y-93698571D01*
X117518571Y-119418571D02*
X116018571Y-119418571D01*
X117090000Y-118918571D01*
X116018571Y-118418571D01*
X117518571Y-118418571D01*
X117518571Y-117704285D02*
X116018571Y-117704285D01*
X116018571Y-117132857D01*
X116090000Y-116989999D01*
X116161429Y-116918571D01*
X116304286Y-116847142D01*
X116518571Y-116847142D01*
X116661429Y-116918571D01*
X116732857Y-116989999D01*
X116804286Y-117132857D01*
X116804286Y-117704285D01*
X116018571Y-116204285D02*
X117232857Y-116204285D01*
X117375714Y-116132857D01*
X117447143Y-116061428D01*
X117518571Y-115918571D01*
X117518571Y-115632857D01*
X117447143Y-115489999D01*
X117375714Y-115418571D01*
X117232857Y-115347142D01*
X116018571Y-115347142D01*
X117518571Y-113489999D02*
X116018571Y-113489999D01*
X117518571Y-112632856D02*
X116661429Y-113275713D01*
X116018571Y-112632856D02*
X116875714Y-113489999D01*
X116732857Y-111989999D02*
X116732857Y-111489999D01*
X117518571Y-111275713D02*
X117518571Y-111989999D01*
X116018571Y-111989999D01*
X116018571Y-111275713D01*
X116804286Y-110347142D02*
X117518571Y-110347142D01*
X116018571Y-110847142D02*
X116804286Y-110347142D01*
X116018571Y-109847142D01*
X116732857Y-108847142D02*
X116804286Y-108632856D01*
X116875714Y-108561428D01*
X117018571Y-108489999D01*
X117232857Y-108489999D01*
X117375714Y-108561428D01*
X117447143Y-108632856D01*
X117518571Y-108775714D01*
X117518571Y-109347142D01*
X116018571Y-109347142D01*
X116018571Y-108847142D01*
X116090000Y-108704285D01*
X116161429Y-108632856D01*
X116304286Y-108561428D01*
X116447143Y-108561428D01*
X116590000Y-108632856D01*
X116661429Y-108704285D01*
X116732857Y-108847142D01*
X116732857Y-109347142D01*
X116018571Y-107561428D02*
X116018571Y-107275714D01*
X116090000Y-107132856D01*
X116232857Y-106989999D01*
X116518571Y-106918571D01*
X117018571Y-106918571D01*
X117304286Y-106989999D01*
X117447143Y-107132856D01*
X117518571Y-107275714D01*
X117518571Y-107561428D01*
X117447143Y-107704285D01*
X117304286Y-107847142D01*
X117018571Y-107918571D01*
X116518571Y-107918571D01*
X116232857Y-107847142D01*
X116090000Y-107704285D01*
X116018571Y-107561428D01*
X117090000Y-106347142D02*
X117090000Y-105632856D01*
X117518571Y-106489999D02*
X116018571Y-105989999D01*
X117518571Y-105489999D01*
X117518571Y-104132856D02*
X116804286Y-104632856D01*
X117518571Y-104989999D02*
X116018571Y-104989999D01*
X116018571Y-104418571D01*
X116090000Y-104275713D01*
X116161429Y-104204285D01*
X116304286Y-104132856D01*
X116518571Y-104132856D01*
X116661429Y-104204285D01*
X116732857Y-104275713D01*
X116804286Y-104418571D01*
X116804286Y-104989999D01*
X117518571Y-103489999D02*
X116018571Y-103489999D01*
X116018571Y-103132856D01*
X116090000Y-102918571D01*
X116232857Y-102775713D01*
X116375714Y-102704285D01*
X116661429Y-102632856D01*
X116875714Y-102632856D01*
X117161429Y-102704285D01*
X117304286Y-102775713D01*
X117447143Y-102918571D01*
X117518571Y-103132856D01*
X117518571Y-103489999D01*
D15*
X112237333Y-84002571D02*
X112004000Y-84002571D01*
X112004000Y-84526381D02*
X112004000Y-83526381D01*
X112337333Y-83526381D01*
X112504000Y-83526381D02*
X112904000Y-83526381D01*
X112704000Y-84526381D02*
X112704000Y-83526381D01*
X113137333Y-84526381D02*
X113137333Y-83526381D01*
X113303999Y-83526381D01*
X113403999Y-83574000D01*
X113470666Y-83669238D01*
X113503999Y-83764476D01*
X113537333Y-83954952D01*
X113537333Y-84097810D01*
X113503999Y-84288286D01*
X113470666Y-84383524D01*
X113403999Y-84478762D01*
X113303999Y-84526381D01*
X113137333Y-84526381D01*
X113837333Y-84526381D02*
X113837333Y-83526381D01*
X114137332Y-83621619D02*
X114170666Y-83574000D01*
X114237332Y-83526381D01*
X114403999Y-83526381D01*
X114470666Y-83574000D01*
X114503999Y-83621619D01*
X114537332Y-83716857D01*
X114537332Y-83812095D01*
X114503999Y-83954952D01*
X114103999Y-84526381D01*
X114537332Y-84526381D01*
X114770666Y-83526381D02*
X115203999Y-83526381D01*
X114970666Y-83907333D01*
X115070666Y-83907333D01*
X115137333Y-83954952D01*
X115170666Y-84002571D01*
X115203999Y-84097810D01*
X115203999Y-84335905D01*
X115170666Y-84431143D01*
X115137333Y-84478762D01*
X115070666Y-84526381D01*
X114870666Y-84526381D01*
X114803999Y-84478762D01*
X114770666Y-84431143D01*
X115470666Y-83621619D02*
X115504000Y-83574000D01*
X115570666Y-83526381D01*
X115737333Y-83526381D01*
X115804000Y-83574000D01*
X115837333Y-83621619D01*
X115870666Y-83716857D01*
X115870666Y-83812095D01*
X115837333Y-83954952D01*
X115437333Y-84526381D01*
X115870666Y-84526381D01*
X116570667Y-84526381D02*
X116337333Y-84050190D01*
X116170667Y-84526381D02*
X116170667Y-83526381D01*
X116437333Y-83526381D01*
X116504000Y-83574000D01*
X116537333Y-83621619D01*
X116570667Y-83716857D01*
X116570667Y-83859714D01*
X116537333Y-83954952D01*
X116504000Y-84002571D01*
X116437333Y-84050190D01*
X116170667Y-84050190D01*
X117204000Y-84526381D02*
X116870667Y-84526381D01*
X116870667Y-83526381D01*
D10*
X124079048Y-85832190D02*
X124364762Y-85832190D01*
X124221905Y-86332190D02*
X124221905Y-85832190D01*
X124483810Y-85832190D02*
X124817143Y-86332190D01*
X124817143Y-85832190D02*
X124483810Y-86332190D01*
X121836667Y-86332190D02*
X121670000Y-86094095D01*
X121550953Y-86332190D02*
X121550953Y-85832190D01*
X121741429Y-85832190D01*
X121789048Y-85856000D01*
X121812857Y-85879810D01*
X121836667Y-85927429D01*
X121836667Y-85998857D01*
X121812857Y-86046476D01*
X121789048Y-86070286D01*
X121741429Y-86094095D01*
X121550953Y-86094095D01*
X122003334Y-85832190D02*
X122336667Y-86332190D01*
X122336667Y-85832190D02*
X122003334Y-86332190D01*
X118999047Y-85856000D02*
X118951428Y-85832190D01*
X118880000Y-85832190D01*
X118808571Y-85856000D01*
X118760952Y-85903619D01*
X118737143Y-85951238D01*
X118713333Y-86046476D01*
X118713333Y-86117905D01*
X118737143Y-86213143D01*
X118760952Y-86260762D01*
X118808571Y-86308381D01*
X118880000Y-86332190D01*
X118927619Y-86332190D01*
X118999047Y-86308381D01*
X119022857Y-86284571D01*
X119022857Y-86117905D01*
X118927619Y-86117905D01*
X119237143Y-86332190D02*
X119237143Y-85832190D01*
X119522857Y-86332190D01*
X119522857Y-85832190D01*
X119760953Y-86332190D02*
X119760953Y-85832190D01*
X119880000Y-85832190D01*
X119951429Y-85856000D01*
X119999048Y-85903619D01*
X120022857Y-85951238D01*
X120046667Y-86046476D01*
X120046667Y-86117905D01*
X120022857Y-86213143D01*
X119999048Y-86260762D01*
X119951429Y-86308381D01*
X119880000Y-86332190D01*
X119760953Y-86332190D01*
D16*
X117031238Y-78259143D02*
X117083619Y-78044857D01*
X117083619Y-77687714D01*
X117031238Y-77544857D01*
X116978857Y-77473428D01*
X116874095Y-77402000D01*
X116769333Y-77402000D01*
X116664571Y-77473428D01*
X116612190Y-77544857D01*
X116559810Y-77687714D01*
X116507429Y-77973428D01*
X116455048Y-78116286D01*
X116402667Y-78187714D01*
X116297905Y-78259143D01*
X116193143Y-78259143D01*
X116088381Y-78187714D01*
X116036000Y-78116286D01*
X115983619Y-77973428D01*
X115983619Y-77616286D01*
X116036000Y-77402000D01*
X115983619Y-76973429D02*
X115983619Y-76116286D01*
X117083619Y-76544857D02*
X115983619Y-76544857D01*
X117083619Y-74902000D02*
X117083619Y-75616286D01*
X115983619Y-75616286D01*
X117083619Y-74402000D02*
X116350286Y-74402000D01*
X115983619Y-74402000D02*
X116036000Y-74473429D01*
X116088381Y-74402000D01*
X116036000Y-74330572D01*
X115983619Y-74402000D01*
X116088381Y-74402000D01*
X116350286Y-73687714D02*
X117083619Y-73687714D01*
X116455048Y-73687714D02*
X116402667Y-73616286D01*
X116350286Y-73473428D01*
X116350286Y-73259143D01*
X116402667Y-73116286D01*
X116507429Y-73044857D01*
X117083619Y-73044857D01*
X117083619Y-72330571D02*
X115983619Y-72330571D01*
X116664571Y-72187714D02*
X117083619Y-71759143D01*
X116350286Y-71759143D02*
X116769333Y-72330571D01*
X116350286Y-70116285D02*
X117083619Y-69759142D01*
X116350286Y-69402000D01*
X116088381Y-68902000D02*
X116036000Y-68830571D01*
X115983619Y-68687714D01*
X115983619Y-68330571D01*
X116036000Y-68187714D01*
X116088381Y-68116285D01*
X116193143Y-68044857D01*
X116297905Y-68044857D01*
X116455048Y-68116285D01*
X117083619Y-68973428D01*
X117083619Y-68044857D01*
D10*
X126726190Y-79359046D02*
X126726190Y-79049523D01*
X126916667Y-79216189D01*
X126916667Y-79144761D01*
X126940476Y-79097142D01*
X126964286Y-79073332D01*
X127011905Y-79049523D01*
X127130952Y-79049523D01*
X127178571Y-79073332D01*
X127202381Y-79097142D01*
X127226190Y-79144761D01*
X127226190Y-79287618D01*
X127202381Y-79335237D01*
X127178571Y-79359046D01*
X126726190Y-78906666D02*
X127226190Y-78739999D01*
X126726190Y-78573333D01*
X126726190Y-78454285D02*
X126726190Y-78144762D01*
X126916667Y-78311428D01*
X126916667Y-78240000D01*
X126940476Y-78192381D01*
X126964286Y-78168571D01*
X127011905Y-78144762D01*
X127130952Y-78144762D01*
X127178571Y-78168571D01*
X127202381Y-78192381D01*
X127226190Y-78240000D01*
X127226190Y-78382857D01*
X127202381Y-78430476D01*
X127178571Y-78454285D01*
X124662381Y-80882952D02*
X124686190Y-80811523D01*
X124686190Y-80692476D01*
X124662381Y-80644857D01*
X124638571Y-80621047D01*
X124590952Y-80597238D01*
X124543333Y-80597238D01*
X124495714Y-80621047D01*
X124471905Y-80644857D01*
X124448095Y-80692476D01*
X124424286Y-80787714D01*
X124400476Y-80835333D01*
X124376667Y-80859142D01*
X124329048Y-80882952D01*
X124281429Y-80882952D01*
X124233810Y-80859142D01*
X124210000Y-80835333D01*
X124186190Y-80787714D01*
X124186190Y-80668666D01*
X124210000Y-80597238D01*
X124186190Y-80430571D02*
X124686190Y-80311524D01*
X124329048Y-80216286D01*
X124686190Y-80121048D01*
X124186190Y-80002000D01*
X124686190Y-79811523D02*
X124186190Y-79811523D01*
X124186190Y-79692476D01*
X124210000Y-79621047D01*
X124257619Y-79573428D01*
X124305238Y-79549619D01*
X124400476Y-79525809D01*
X124471905Y-79525809D01*
X124567143Y-79549619D01*
X124614762Y-79573428D01*
X124662381Y-79621047D01*
X124686190Y-79692476D01*
X124686190Y-79811523D01*
X124638571Y-79025809D02*
X124662381Y-79049619D01*
X124686190Y-79121047D01*
X124686190Y-79168666D01*
X124662381Y-79240095D01*
X124614762Y-79287714D01*
X124567143Y-79311523D01*
X124471905Y-79335333D01*
X124400476Y-79335333D01*
X124305238Y-79311523D01*
X124257619Y-79287714D01*
X124210000Y-79240095D01*
X124186190Y-79168666D01*
X124186190Y-79121047D01*
X124210000Y-79049619D01*
X124233810Y-79025809D01*
X124686190Y-78573428D02*
X124686190Y-78811523D01*
X124186190Y-78811523D01*
X124686190Y-78406761D02*
X124186190Y-78406761D01*
X124686190Y-78121047D02*
X124400476Y-78335333D01*
X124186190Y-78121047D02*
X124471905Y-78406761D01*
X122122381Y-80307524D02*
X122146190Y-80236095D01*
X122146190Y-80117048D01*
X122122381Y-80069429D01*
X122098571Y-80045619D01*
X122050952Y-80021810D01*
X122003333Y-80021810D01*
X121955714Y-80045619D01*
X121931905Y-80069429D01*
X121908095Y-80117048D01*
X121884286Y-80212286D01*
X121860476Y-80259905D01*
X121836667Y-80283714D01*
X121789048Y-80307524D01*
X121741429Y-80307524D01*
X121693810Y-80283714D01*
X121670000Y-80259905D01*
X121646190Y-80212286D01*
X121646190Y-80093238D01*
X121670000Y-80021810D01*
X121646190Y-79855143D02*
X122146190Y-79736096D01*
X121789048Y-79640858D01*
X122146190Y-79545620D01*
X121646190Y-79426572D01*
X122146190Y-79236095D02*
X121646190Y-79236095D01*
X121646190Y-79117048D01*
X121670000Y-79045619D01*
X121717619Y-78998000D01*
X121765238Y-78974191D01*
X121860476Y-78950381D01*
X121931905Y-78950381D01*
X122027143Y-78974191D01*
X122074762Y-78998000D01*
X122122381Y-79045619D01*
X122146190Y-79117048D01*
X122146190Y-79236095D01*
X122146190Y-78736095D02*
X121646190Y-78736095D01*
X121646190Y-78402762D02*
X121646190Y-78307524D01*
X121670000Y-78259905D01*
X121717619Y-78212286D01*
X121812857Y-78188477D01*
X121979524Y-78188477D01*
X122074762Y-78212286D01*
X122122381Y-78259905D01*
X122146190Y-78307524D01*
X122146190Y-78402762D01*
X122122381Y-78450381D01*
X122074762Y-78498000D01*
X121979524Y-78521810D01*
X121812857Y-78521810D01*
X121717619Y-78498000D01*
X121670000Y-78450381D01*
X121646190Y-78402762D01*
X119130000Y-79120953D02*
X119106190Y-79168572D01*
X119106190Y-79240000D01*
X119130000Y-79311429D01*
X119177619Y-79359048D01*
X119225238Y-79382857D01*
X119320476Y-79406667D01*
X119391905Y-79406667D01*
X119487143Y-79382857D01*
X119534762Y-79359048D01*
X119582381Y-79311429D01*
X119606190Y-79240000D01*
X119606190Y-79192381D01*
X119582381Y-79120953D01*
X119558571Y-79097143D01*
X119391905Y-79097143D01*
X119391905Y-79192381D01*
X119606190Y-78882857D02*
X119106190Y-78882857D01*
X119606190Y-78597143D01*
X119106190Y-78597143D01*
X119606190Y-78359047D02*
X119106190Y-78359047D01*
X119106190Y-78240000D01*
X119130000Y-78168571D01*
X119177619Y-78120952D01*
X119225238Y-78097143D01*
X119320476Y-78073333D01*
X119391905Y-78073333D01*
X119487143Y-78097143D01*
X119534762Y-78120952D01*
X119582381Y-78168571D01*
X119606190Y-78240000D01*
X119606190Y-78359047D01*
D11*
X137160000Y-71120000D02*
X137160000Y-71628000D01*
X134620000Y-71120000D02*
X137160000Y-71120000D01*
X134620000Y-71628000D02*
X134620000Y-71120000D01*
X134620000Y-76200000D02*
X134620000Y-75692000D01*
X132080000Y-76200000D02*
X134620000Y-76200000D01*
X132080000Y-75692000D02*
X132080000Y-76200000D01*
X131294572Y-69524571D02*
X131437429Y-69572190D01*
X131485048Y-69619810D01*
X131532667Y-69715048D01*
X131532667Y-69857905D01*
X131485048Y-69953143D01*
X131437429Y-70000762D01*
X131342191Y-70048381D01*
X130961238Y-70048381D01*
X130961238Y-69048381D01*
X131294572Y-69048381D01*
X131389810Y-69096000D01*
X131437429Y-69143619D01*
X131485048Y-69238857D01*
X131485048Y-69334095D01*
X131437429Y-69429333D01*
X131389810Y-69476952D01*
X131294572Y-69524571D01*
X130961238Y-69524571D01*
X132151714Y-69048381D02*
X132342191Y-69048381D01*
X132437429Y-69096000D01*
X132532667Y-69191238D01*
X132580286Y-69381714D01*
X132580286Y-69715048D01*
X132532667Y-69905524D01*
X132437429Y-70000762D01*
X132342191Y-70048381D01*
X132151714Y-70048381D01*
X132056476Y-70000762D01*
X131961238Y-69905524D01*
X131913619Y-69715048D01*
X131913619Y-69381714D01*
X131961238Y-69191238D01*
X132056476Y-69096000D01*
X132151714Y-69048381D01*
X133199333Y-69048381D02*
X133389810Y-69048381D01*
X133485048Y-69096000D01*
X133580286Y-69191238D01*
X133627905Y-69381714D01*
X133627905Y-69715048D01*
X133580286Y-69905524D01*
X133485048Y-70000762D01*
X133389810Y-70048381D01*
X133199333Y-70048381D01*
X133104095Y-70000762D01*
X133008857Y-69905524D01*
X132961238Y-69715048D01*
X132961238Y-69381714D01*
X133008857Y-69191238D01*
X133104095Y-69096000D01*
X133199333Y-69048381D01*
X133913619Y-69048381D02*
X134485048Y-69048381D01*
X134199333Y-70048381D02*
X134199333Y-69048381D01*
X135532667Y-70000762D02*
X135675524Y-70048381D01*
X135913620Y-70048381D01*
X136008858Y-70000762D01*
X136056477Y-69953143D01*
X136104096Y-69857905D01*
X136104096Y-69762667D01*
X136056477Y-69667429D01*
X136008858Y-69619810D01*
X135913620Y-69572190D01*
X135723143Y-69524571D01*
X135627905Y-69476952D01*
X135580286Y-69429333D01*
X135532667Y-69334095D01*
X135532667Y-69238857D01*
X135580286Y-69143619D01*
X135627905Y-69096000D01*
X135723143Y-69048381D01*
X135961239Y-69048381D01*
X136104096Y-69096000D01*
X136532667Y-69524571D02*
X136866001Y-69524571D01*
X137008858Y-70048381D02*
X136532667Y-70048381D01*
X136532667Y-69048381D01*
X137008858Y-69048381D01*
X137913620Y-70048381D02*
X137437429Y-70048381D01*
X137437429Y-69048381D01*
D12*
X131800667Y-83690667D02*
X132200667Y-83690667D01*
X132000667Y-84390667D02*
X132000667Y-83690667D01*
X132400666Y-83757333D02*
X132434000Y-83724000D01*
X132500666Y-83690667D01*
X132667333Y-83690667D01*
X132734000Y-83724000D01*
X132767333Y-83757333D01*
X132800666Y-83824000D01*
X132800666Y-83890667D01*
X132767333Y-83990667D01*
X132367333Y-84390667D01*
X132800666Y-84390667D01*
X131800667Y-80896667D02*
X132200667Y-80896667D01*
X132000667Y-81596667D02*
X132000667Y-80896667D01*
X132800666Y-81596667D02*
X132400666Y-81596667D01*
X132600666Y-81596667D02*
X132600666Y-80896667D01*
X132534000Y-80996667D01*
X132467333Y-81063333D01*
X132400666Y-81096667D01*
D14*
X165751429Y-98468571D02*
X165351429Y-97754286D01*
X165065714Y-98468571D02*
X165065714Y-96968571D01*
X165522857Y-96968571D01*
X165637143Y-97040000D01*
X165694286Y-97111429D01*
X165751429Y-97254286D01*
X165751429Y-97468571D01*
X165694286Y-97611429D01*
X165637143Y-97682857D01*
X165522857Y-97754286D01*
X165065714Y-97754286D01*
X166665714Y-97682857D02*
X166837143Y-97754286D01*
X166894286Y-97825714D01*
X166951429Y-97968571D01*
X166951429Y-98182857D01*
X166894286Y-98325714D01*
X166837143Y-98397143D01*
X166722857Y-98468571D01*
X166265714Y-98468571D01*
X166265714Y-96968571D01*
X166665714Y-96968571D01*
X166780000Y-97040000D01*
X166837143Y-97111429D01*
X166894286Y-97254286D01*
X166894286Y-97397143D01*
X166837143Y-97540000D01*
X166780000Y-97611429D01*
X166665714Y-97682857D01*
X166265714Y-97682857D01*
X168037143Y-98468571D02*
X167465714Y-98468571D01*
X167465714Y-96968571D01*
X168665715Y-96968571D02*
X168780000Y-96968571D01*
X168894286Y-97040000D01*
X168951429Y-97111429D01*
X169008572Y-97254286D01*
X169065715Y-97540000D01*
X169065715Y-97897143D01*
X169008572Y-98182857D01*
X168951429Y-98325714D01*
X168894286Y-98397143D01*
X168780000Y-98468571D01*
X168665715Y-98468571D01*
X168551429Y-98397143D01*
X168494286Y-98325714D01*
X168437143Y-98182857D01*
X168380000Y-97897143D01*
X168380000Y-97540000D01*
X168437143Y-97254286D01*
X168494286Y-97111429D01*
X168551429Y-97040000D01*
X168665715Y-96968571D01*
X169808572Y-96968571D02*
X169922857Y-96968571D01*
X170037143Y-97040000D01*
X170094286Y-97111429D01*
X170151429Y-97254286D01*
X170208572Y-97540000D01*
X170208572Y-97897143D01*
X170151429Y-98182857D01*
X170094286Y-98325714D01*
X170037143Y-98397143D01*
X169922857Y-98468571D01*
X169808572Y-98468571D01*
X169694286Y-98397143D01*
X169637143Y-98325714D01*
X169580000Y-98182857D01*
X169522857Y-97897143D01*
X169522857Y-97540000D01*
X169580000Y-97254286D01*
X169637143Y-97111429D01*
X169694286Y-97040000D01*
X169808572Y-96968571D01*
X171237143Y-97468571D02*
X171237143Y-98468571D01*
X170951429Y-96897143D02*
X170665714Y-97968571D01*
X171408572Y-97968571D01*
X171865714Y-98325714D02*
X171922857Y-98397143D01*
X171865714Y-98468571D01*
X171808571Y-98397143D01*
X171865714Y-98325714D01*
X171865714Y-98468571D01*
X172665715Y-96968571D02*
X172780000Y-96968571D01*
X172894286Y-97040000D01*
X172951429Y-97111429D01*
X173008572Y-97254286D01*
X173065715Y-97540000D01*
X173065715Y-97897143D01*
X173008572Y-98182857D01*
X172951429Y-98325714D01*
X172894286Y-98397143D01*
X172780000Y-98468571D01*
X172665715Y-98468571D01*
X172551429Y-98397143D01*
X172494286Y-98325714D01*
X172437143Y-98182857D01*
X172380000Y-97897143D01*
X172380000Y-97540000D01*
X172437143Y-97254286D01*
X172494286Y-97111429D01*
X172551429Y-97040000D01*
X172665715Y-96968571D01*
X173808572Y-96968571D02*
X173922857Y-96968571D01*
X174037143Y-97040000D01*
X174094286Y-97111429D01*
X174151429Y-97254286D01*
X174208572Y-97540000D01*
X174208572Y-97897143D01*
X174151429Y-98182857D01*
X174094286Y-98325714D01*
X174037143Y-98397143D01*
X173922857Y-98468571D01*
X173808572Y-98468571D01*
X173694286Y-98397143D01*
X173637143Y-98325714D01*
X173580000Y-98182857D01*
X173522857Y-97897143D01*
X173522857Y-97540000D01*
X173580000Y-97254286D01*
X173637143Y-97111429D01*
X173694286Y-97040000D01*
X173808572Y-96968571D01*
X175351429Y-98468571D02*
X174665714Y-98468571D01*
X175008572Y-98468571D02*
X175008572Y-96968571D01*
X174894286Y-97182857D01*
X174780000Y-97325714D01*
X174665714Y-97397143D01*
D17*
X176848095Y-76652381D02*
X176848095Y-75652381D01*
X177229048Y-75652381D01*
X177324286Y-75700000D01*
X177371905Y-75747619D01*
X177419524Y-75842857D01*
X177419524Y-75985714D01*
X177371905Y-76080952D01*
X177324286Y-76128571D01*
X177229048Y-76176190D01*
X176848095Y-76176190D01*
X178038571Y-75652381D02*
X178229048Y-75652381D01*
X178324286Y-75700000D01*
X178419524Y-75795238D01*
X178467143Y-75985714D01*
X178467143Y-76319048D01*
X178419524Y-76509524D01*
X178324286Y-76604762D01*
X178229048Y-76652381D01*
X178038571Y-76652381D01*
X177943333Y-76604762D01*
X177848095Y-76509524D01*
X177800476Y-76319048D01*
X177800476Y-75985714D01*
X177848095Y-75795238D01*
X177943333Y-75700000D01*
X178038571Y-75652381D01*
X178800476Y-75652381D02*
X179038571Y-76652381D01*
X179229048Y-75938095D01*
X179419524Y-76652381D01*
X179657619Y-75652381D01*
X180038571Y-76128571D02*
X180371905Y-76128571D01*
X180514762Y-76652381D02*
X180038571Y-76652381D01*
X180038571Y-75652381D01*
X180514762Y-75652381D01*
X181514762Y-76652381D02*
X181181428Y-76176190D01*
X180943333Y-76652381D02*
X180943333Y-75652381D01*
X181324286Y-75652381D01*
X181419524Y-75700000D01*
X181467143Y-75747619D01*
X181514762Y-75842857D01*
X181514762Y-75985714D01*
X181467143Y-76080952D01*
X181419524Y-76128571D01*
X181324286Y-76176190D01*
X180943333Y-76176190D01*
X183276667Y-76557143D02*
X183229048Y-76604762D01*
X183086191Y-76652381D01*
X182990953Y-76652381D01*
X182848095Y-76604762D01*
X182752857Y-76509524D01*
X182705238Y-76414286D01*
X182657619Y-76223810D01*
X182657619Y-76080952D01*
X182705238Y-75890476D01*
X182752857Y-75795238D01*
X182848095Y-75700000D01*
X182990953Y-75652381D01*
X183086191Y-75652381D01*
X183229048Y-75700000D01*
X183276667Y-75747619D01*
X183895714Y-75652381D02*
X184086191Y-75652381D01*
X184181429Y-75700000D01*
X184276667Y-75795238D01*
X184324286Y-75985714D01*
X184324286Y-76319048D01*
X184276667Y-76509524D01*
X184181429Y-76604762D01*
X184086191Y-76652381D01*
X183895714Y-76652381D01*
X183800476Y-76604762D01*
X183705238Y-76509524D01*
X183657619Y-76319048D01*
X183657619Y-75985714D01*
X183705238Y-75795238D01*
X183800476Y-75700000D01*
X183895714Y-75652381D01*
X184752857Y-76652381D02*
X184752857Y-75652381D01*
X185324286Y-76652381D01*
X185324286Y-75652381D01*
X185800476Y-76652381D02*
X185800476Y-75652381D01*
X186371905Y-76652381D01*
X186371905Y-75652381D01*
X172886667Y-115410476D02*
X172886667Y-114934285D01*
X173172381Y-115505714D02*
X172172381Y-115172381D01*
X173172381Y-114839047D01*
X173172381Y-114505714D02*
X172172381Y-114505714D01*
X172886667Y-114172380D01*
X172172381Y-113839047D01*
X173172381Y-113839047D01*
X173172381Y-113362857D02*
X172172381Y-113362857D01*
X172220000Y-112362857D02*
X172172381Y-112458095D01*
X172172381Y-112600952D01*
X172220000Y-112743810D01*
X172315238Y-112839048D01*
X172410476Y-112886667D01*
X172600952Y-112934286D01*
X172743810Y-112934286D01*
X172934286Y-112886667D01*
X173029524Y-112839048D01*
X173124762Y-112743810D01*
X173172381Y-112600952D01*
X173172381Y-112505714D01*
X173124762Y-112362857D01*
X173077143Y-112315238D01*
X172743810Y-112315238D01*
X172743810Y-112505714D01*
X172886667Y-111934286D02*
X172886667Y-111458095D01*
X173172381Y-112029524D02*
X172172381Y-111696191D01*
X173172381Y-111362857D01*
X173172381Y-110267619D02*
X172172381Y-110267619D01*
X173172381Y-109696190D02*
X172600952Y-110124762D01*
X172172381Y-109696190D02*
X172743810Y-110267619D01*
X172648571Y-109267619D02*
X172648571Y-108934285D01*
X173172381Y-108791428D02*
X173172381Y-109267619D01*
X172172381Y-109267619D01*
X172172381Y-108791428D01*
X172696190Y-108172381D02*
X173172381Y-108172381D01*
X172172381Y-108505714D02*
X172696190Y-108172381D01*
X172172381Y-107839047D01*
X172648571Y-107172380D02*
X172696190Y-107029523D01*
X172743810Y-106981904D01*
X172839048Y-106934285D01*
X172981905Y-106934285D01*
X173077143Y-106981904D01*
X173124762Y-107029523D01*
X173172381Y-107124761D01*
X173172381Y-107505714D01*
X172172381Y-107505714D01*
X172172381Y-107172380D01*
X172220000Y-107077142D01*
X172267619Y-107029523D01*
X172362857Y-106981904D01*
X172458095Y-106981904D01*
X172553333Y-107029523D01*
X172600952Y-107077142D01*
X172648571Y-107172380D01*
X172648571Y-107505714D01*
X172172381Y-106315238D02*
X172172381Y-106124761D01*
X172220000Y-106029523D01*
X172315238Y-105934285D01*
X172505714Y-105886666D01*
X172839048Y-105886666D01*
X173029524Y-105934285D01*
X173124762Y-106029523D01*
X173172381Y-106124761D01*
X173172381Y-106315238D01*
X173124762Y-106410476D01*
X173029524Y-106505714D01*
X172839048Y-106553333D01*
X172505714Y-106553333D01*
X172315238Y-106505714D01*
X172220000Y-106410476D01*
X172172381Y-106315238D01*
X172886667Y-105505714D02*
X172886667Y-105029523D01*
X173172381Y-105600952D02*
X172172381Y-105267619D01*
X173172381Y-104934285D01*
X173172381Y-104029523D02*
X172696190Y-104362857D01*
X173172381Y-104600952D02*
X172172381Y-104600952D01*
X172172381Y-104219999D01*
X172220000Y-104124761D01*
X172267619Y-104077142D01*
X172362857Y-104029523D01*
X172505714Y-104029523D01*
X172600952Y-104077142D01*
X172648571Y-104124761D01*
X172696190Y-104219999D01*
X172696190Y-104600952D01*
X173172381Y-103600952D02*
X172172381Y-103600952D01*
X172172381Y-103362857D01*
X172220000Y-103219999D01*
X172315238Y-103124761D01*
X172410476Y-103077142D01*
X172600952Y-103029523D01*
X172743810Y-103029523D01*
X172934286Y-103077142D01*
X173029524Y-103124761D01*
X173124762Y-103219999D01*
X173172381Y-103362857D01*
X173172381Y-103600952D01*
X171656952Y-122086667D02*
X172133143Y-122086667D01*
X171561714Y-122372381D02*
X171895047Y-121372381D01*
X172228381Y-122372381D01*
X172561714Y-122372381D02*
X172561714Y-121372381D01*
X172895048Y-122086667D01*
X173228381Y-121372381D01*
X173228381Y-122372381D01*
X173704571Y-122372381D02*
X173704571Y-121372381D01*
X174704571Y-121420000D02*
X174609333Y-121372381D01*
X174466476Y-121372381D01*
X174323618Y-121420000D01*
X174228380Y-121515238D01*
X174180761Y-121610476D01*
X174133142Y-121800952D01*
X174133142Y-121943810D01*
X174180761Y-122134286D01*
X174228380Y-122229524D01*
X174323618Y-122324762D01*
X174466476Y-122372381D01*
X174561714Y-122372381D01*
X174704571Y-122324762D01*
X174752190Y-122277143D01*
X174752190Y-121943810D01*
X174561714Y-121943810D01*
X175133142Y-122086667D02*
X175609333Y-122086667D01*
X175037904Y-122372381D02*
X175371237Y-121372381D01*
X175704571Y-122372381D01*
X177371238Y-122372381D02*
X177037904Y-121896190D01*
X176799809Y-122372381D02*
X176799809Y-121372381D01*
X177180762Y-121372381D01*
X177276000Y-121420000D01*
X177323619Y-121467619D01*
X177371238Y-121562857D01*
X177371238Y-121705714D01*
X177323619Y-121800952D01*
X177276000Y-121848571D01*
X177180762Y-121896190D01*
X176799809Y-121896190D01*
X177799809Y-121848571D02*
X178133143Y-121848571D01*
X178276000Y-122372381D02*
X177799809Y-122372381D01*
X177799809Y-121372381D01*
X178276000Y-121372381D01*
X178656952Y-122324762D02*
X178799809Y-122372381D01*
X179037905Y-122372381D01*
X179133143Y-122324762D01*
X179180762Y-122277143D01*
X179228381Y-122181905D01*
X179228381Y-122086667D01*
X179180762Y-121991429D01*
X179133143Y-121943810D01*
X179037905Y-121896190D01*
X178847428Y-121848571D01*
X178752190Y-121800952D01*
X178704571Y-121753333D01*
X178656952Y-121658095D01*
X178656952Y-121562857D01*
X178704571Y-121467619D01*
X178752190Y-121420000D01*
X178847428Y-121372381D01*
X179085524Y-121372381D01*
X179228381Y-121420000D01*
X179656952Y-121848571D02*
X179990286Y-121848571D01*
X180133143Y-122372381D02*
X179656952Y-122372381D01*
X179656952Y-121372381D01*
X180133143Y-121372381D01*
X180418857Y-121372381D02*
X180990286Y-121372381D01*
X180704571Y-122372381D02*
X180704571Y-121372381D01*
D12*
X146050000Y-110524000D02*
X157250000Y-110524000D01*
X157250000Y-128524000D02*
X157250000Y-110524000D01*
X146050000Y-128524000D02*
X146050000Y-110524000D01*
X146050000Y-128524000D02*
X157250000Y-128524000D01*
X115316000Y-120650000D02*
G75*
G03X115316000Y-120650000I-2286000J0D01*
G01*
X186436000Y-120650000D02*
G75*
G03X186436000Y-120650000I-2286000J0D01*
G01*
X186436000Y-69850000D02*
G75*
G03X186436000Y-69850000I-2286000J0D01*
G01*
X115316000Y-69850000D02*
G75*
G03X115316000Y-69850000I-2286000J0D01*
G01*
X137436519Y-99755960D02*
G75*
G03X137436519Y-99755960I-141899J0D01*
G01*
X138496040Y-100655120D02*
X137093960Y-100655120D01*
X137093960Y-96956880D02*
X138496040Y-96956880D01*
X162560000Y-72390000D02*
X162560000Y-74930000D01*
X162840000Y-69570000D02*
X162840000Y-71120000D01*
X162560000Y-72390000D02*
X160020000Y-72390000D01*
X159740000Y-71120000D02*
X159740000Y-69570000D01*
X159740000Y-69570000D02*
X162840000Y-69570000D01*
X160020000Y-72390000D02*
X160020000Y-74930000D01*
X160020000Y-74930000D02*
X162560000Y-74930000D01*
X141350140Y-79885120D02*
X141350140Y-65788120D01*
X156336140Y-65788120D02*
X156336140Y-79885120D01*
X141350140Y-79885120D02*
X156336140Y-79885120D01*
X141350140Y-65788120D02*
X156336140Y-65788120D01*
X142541445Y-93980000D02*
X143301585Y-94740140D01*
X149860000Y-86661445D02*
X150620140Y-87421585D01*
X157178555Y-93980000D02*
X156418415Y-93219860D01*
X149860000Y-101298555D02*
X149099860Y-100538415D01*
X142541445Y-93980000D02*
X143301585Y-93219860D01*
X149860000Y-101298555D02*
X150620140Y-100538415D01*
X157178555Y-93980000D02*
X156418415Y-94740140D01*
X149860000Y-86661445D02*
X149099860Y-87421585D01*
X143301585Y-94740140D02*
X142576800Y-95464924D01*
X171196000Y-72136000D02*
X171196000Y-69088000D01*
X171196000Y-69088000D02*
X164084000Y-69088000D01*
X164084000Y-69088000D02*
X164084000Y-72136000D01*
X171196000Y-75184000D02*
X171196000Y-75946000D01*
X171196000Y-75946000D02*
X169672000Y-78232000D01*
X169672000Y-78232000D02*
X165608000Y-78232000D01*
X165608000Y-78232000D02*
X164084000Y-75946000D01*
X164084000Y-75946000D02*
X164084000Y-75184000D01*
X128270000Y-82550000D02*
X128270000Y-80010000D01*
X127990000Y-85370000D02*
X127990000Y-83820000D01*
X128270000Y-82550000D02*
X130810000Y-82550000D01*
X131090000Y-83820000D02*
X131090000Y-85370000D01*
X131090000Y-85370000D02*
X127990000Y-85370000D01*
X130810000Y-82550000D02*
X130810000Y-80010000D01*
X130810000Y-80010000D02*
X128270000Y-80010000D01*
X117830000Y-77500000D02*
X119380000Y-77500000D01*
X117830000Y-76200000D02*
X117830000Y-77500000D01*
X119253000Y-72009000D02*
X119253000Y-66167000D01*
X119253000Y-66167000D02*
X119507000Y-66167000D01*
X119507000Y-66167000D02*
X119507000Y-72009000D01*
X119507000Y-72009000D02*
X119380000Y-72009000D01*
X119380000Y-72009000D02*
X119380000Y-66167000D01*
X119126000Y-74676000D02*
X119126000Y-75057000D01*
X119634000Y-74676000D02*
X119634000Y-75057000D01*
X121666000Y-74676000D02*
X121666000Y-75057000D01*
X122174000Y-74676000D02*
X122174000Y-75057000D01*
X124206000Y-74676000D02*
X124206000Y-75057000D01*
X124714000Y-74676000D02*
X124714000Y-75057000D01*
X127254000Y-74676000D02*
X127254000Y-75057000D01*
X126746000Y-74676000D02*
X126746000Y-75057000D01*
X118110000Y-74676000D02*
X118110000Y-72136000D01*
X120650000Y-74676000D02*
X120650000Y-72136000D01*
X120650000Y-74676000D02*
X123190000Y-74676000D01*
X123190000Y-74676000D02*
X123190000Y-72136000D01*
X121666000Y-72136000D02*
X121666000Y-66040000D01*
X121666000Y-66040000D02*
X122174000Y-66040000D01*
X122174000Y-66040000D02*
X122174000Y-72136000D01*
X123190000Y-72136000D02*
X120650000Y-72136000D01*
X120650000Y-72136000D02*
X118110000Y-72136000D01*
X119634000Y-66040000D02*
X119634000Y-72136000D01*
X119126000Y-66040000D02*
X119634000Y-66040000D01*
X119126000Y-72136000D02*
X119126000Y-66040000D01*
X120650000Y-74676000D02*
X120650000Y-72136000D01*
X118110000Y-74676000D02*
X120650000Y-74676000D01*
X125730000Y-74676000D02*
X125730000Y-72136000D01*
X125730000Y-74676000D02*
X128270000Y-74676000D01*
X128270000Y-74676000D02*
X128270000Y-72136000D01*
X126746000Y-72136000D02*
X126746000Y-66040000D01*
X126746000Y-66040000D02*
X127254000Y-66040000D01*
X127254000Y-66040000D02*
X127254000Y-72136000D01*
X128270000Y-72136000D02*
X125730000Y-72136000D01*
X125730000Y-72136000D02*
X123190000Y-72136000D01*
X124714000Y-66040000D02*
X124714000Y-72136000D01*
X124206000Y-66040000D02*
X124714000Y-66040000D01*
X124206000Y-72136000D02*
X124206000Y-66040000D01*
X125730000Y-74676000D02*
X125730000Y-72136000D01*
X123190000Y-74676000D02*
X125730000Y-74676000D01*
X123190000Y-74676000D02*
X123190000Y-72136000D01*
X124960000Y-89575000D02*
X123960000Y-89575000D01*
X123960000Y-88225000D02*
X124960000Y-88225000D01*
X139200000Y-103465000D02*
X140200000Y-103465000D01*
X140200000Y-104815000D02*
X139200000Y-104815000D01*
X135295000Y-108720000D02*
X135295000Y-109720000D01*
X133945000Y-109720000D02*
X133945000Y-108720000D01*
X154440000Y-108545000D02*
X155440000Y-108545000D01*
X155440000Y-109895000D02*
X154440000Y-109895000D01*
X145280000Y-109895000D02*
X144280000Y-109895000D01*
X144280000Y-108545000D02*
X145280000Y-108545000D01*
X164425000Y-109720000D02*
X164425000Y-108720000D01*
X165775000Y-108720000D02*
X165775000Y-109720000D01*
X159520000Y-103465000D02*
X160520000Y-103465000D01*
X160520000Y-104815000D02*
X159520000Y-104815000D01*
X175760000Y-92115000D02*
X174760000Y-92115000D01*
X174760000Y-90765000D02*
X175760000Y-90765000D01*
X155948000Y-104815000D02*
X154948000Y-104815000D01*
X154948000Y-103465000D02*
X155948000Y-103465000D01*
X145280000Y-105323000D02*
X144280000Y-105323000D01*
X144280000Y-103973000D02*
X145280000Y-103973000D01*
X126325000Y-94480000D02*
X126325000Y-93480000D01*
X127675000Y-93480000D02*
X127675000Y-94480000D01*
X135120000Y-89575000D02*
X134120000Y-89575000D01*
X134120000Y-88225000D02*
X135120000Y-88225000D01*
X159345000Y-79240000D02*
X159345000Y-78240000D01*
X160695000Y-78240000D02*
X160695000Y-79240000D01*
X138400840Y-109870240D02*
X138449100Y-109870240D01*
X141199820Y-109169200D02*
X141199820Y-109870240D01*
X141199820Y-109870240D02*
X140950900Y-109870240D01*
X138400840Y-109870240D02*
X138200180Y-109870240D01*
X138200180Y-109870240D02*
X138200180Y-109169200D01*
X148560840Y-107330240D02*
X148609100Y-107330240D01*
X151359820Y-106629200D02*
X151359820Y-107330240D01*
X151359820Y-107330240D02*
X151110900Y-107330240D01*
X148560840Y-107330240D02*
X148360180Y-107330240D01*
X148360180Y-107330240D02*
X148360180Y-106629200D01*
X158720840Y-109870240D02*
X158769100Y-109870240D01*
X161519820Y-109169200D02*
X161519820Y-109870240D01*
X161519820Y-109870240D02*
X161270900Y-109870240D01*
X158720840Y-109870240D02*
X158520180Y-109870240D01*
X158520180Y-109870240D02*
X158520180Y-109169200D01*
X173960000Y-77190000D02*
X173960000Y-78740000D01*
X175260000Y-77190000D02*
X173960000Y-77190000D01*
X179451000Y-78613000D02*
X185293000Y-78613000D01*
X185293000Y-78613000D02*
X185293000Y-78867000D01*
X185293000Y-78867000D02*
X179451000Y-78867000D01*
X179451000Y-78867000D02*
X179451000Y-78740000D01*
X179451000Y-78740000D02*
X185293000Y-78740000D01*
X176784000Y-78486000D02*
X176403000Y-78486000D01*
X176784000Y-78994000D02*
X176403000Y-78994000D01*
X176784000Y-81026000D02*
X176403000Y-81026000D01*
X176784000Y-81534000D02*
X176403000Y-81534000D01*
X176784000Y-83566000D02*
X176403000Y-83566000D01*
X176784000Y-84074000D02*
X176403000Y-84074000D01*
X176784000Y-86614000D02*
X176403000Y-86614000D01*
X176784000Y-86106000D02*
X176403000Y-86106000D01*
X176784000Y-77470000D02*
X179324000Y-77470000D01*
X176784000Y-80010000D02*
X179324000Y-80010000D01*
X176784000Y-80010000D02*
X176784000Y-82550000D01*
X176784000Y-82550000D02*
X179324000Y-82550000D01*
X179324000Y-81026000D02*
X185420000Y-81026000D01*
X185420000Y-81026000D02*
X185420000Y-81534000D01*
X185420000Y-81534000D02*
X179324000Y-81534000D01*
X179324000Y-82550000D02*
X179324000Y-80010000D01*
X179324000Y-80010000D02*
X179324000Y-77470000D01*
X185420000Y-78994000D02*
X179324000Y-78994000D01*
X185420000Y-78486000D02*
X185420000Y-78994000D01*
X179324000Y-78486000D02*
X185420000Y-78486000D01*
X176784000Y-80010000D02*
X179324000Y-80010000D01*
X176784000Y-77470000D02*
X176784000Y-80010000D01*
X176784000Y-85090000D02*
X179324000Y-85090000D01*
X176784000Y-85090000D02*
X176784000Y-87630000D01*
X176784000Y-87630000D02*
X179324000Y-87630000D01*
X179324000Y-86106000D02*
X185420000Y-86106000D01*
X185420000Y-86106000D02*
X185420000Y-86614000D01*
X185420000Y-86614000D02*
X179324000Y-86614000D01*
X179324000Y-87630000D02*
X179324000Y-85090000D01*
X179324000Y-85090000D02*
X179324000Y-82550000D01*
X185420000Y-84074000D02*
X179324000Y-84074000D01*
X185420000Y-83566000D02*
X185420000Y-84074000D01*
X179324000Y-83566000D02*
X185420000Y-83566000D01*
X176784000Y-85090000D02*
X179324000Y-85090000D01*
X176784000Y-82550000D02*
X176784000Y-85090000D01*
X176784000Y-82550000D02*
X179324000Y-82550000D01*
X176530000Y-118110000D02*
X179070000Y-118110000D01*
X173710000Y-117830000D02*
X175260000Y-117830000D01*
X176530000Y-118110000D02*
X176530000Y-120650000D01*
X175260000Y-120930000D02*
X173710000Y-120930000D01*
X173710000Y-120930000D02*
X173710000Y-117830000D01*
X176530000Y-120650000D02*
X179070000Y-120650000D01*
X179070000Y-120650000D02*
X179070000Y-118110000D01*
X167640000Y-81280000D02*
X168656000Y-81280000D01*
X168656000Y-81280000D02*
X170942000Y-82296000D01*
X170942000Y-82296000D02*
X170942000Y-85344000D01*
X170942000Y-85344000D02*
X168656000Y-86360000D01*
X168656000Y-86360000D02*
X166624000Y-86360000D01*
X166624000Y-86360000D02*
X164338000Y-85344000D01*
X164338000Y-85344000D02*
X164338000Y-82296000D01*
X164338000Y-82296000D02*
X166624000Y-81280000D01*
X166624000Y-81280000D02*
X167640000Y-81280000D01*
X170180000Y-83820000D02*
G75*
G03X170180000Y-83820000I-2540000J0D01*
G01*
X177800000Y-71120000D02*
X177800000Y-72136000D01*
X177800000Y-72136000D02*
X176784000Y-74422000D01*
X176784000Y-74422000D02*
X173736000Y-74422000D01*
X173736000Y-74422000D02*
X172720000Y-72136000D01*
X172720000Y-72136000D02*
X172720000Y-70104000D01*
X172720000Y-70104000D02*
X173736000Y-67818000D01*
X173736000Y-67818000D02*
X176784000Y-67818000D01*
X176784000Y-67818000D02*
X177800000Y-70104000D01*
X177800000Y-70104000D02*
X177800000Y-71120000D01*
X177800000Y-71120000D02*
G75*
G03X177800000Y-71120000I-2540000J0D01*
G01*
X120650000Y-95250000D02*
X120650000Y-92710000D01*
X120370000Y-98070000D02*
X120370000Y-96520000D01*
X120650000Y-95250000D02*
X123190000Y-95250000D01*
X123470000Y-96520000D02*
X123470000Y-98070000D01*
X123470000Y-98070000D02*
X120370000Y-98070000D01*
X123190000Y-95250000D02*
X123190000Y-92710000D01*
X123190000Y-92710000D02*
X120650000Y-92710000D01*
X120650000Y-85090000D02*
X125730000Y-85090000D01*
X125730000Y-85090000D02*
X125730000Y-82550000D01*
X125730000Y-82550000D02*
X120650000Y-82550000D01*
X117830000Y-82270000D02*
X119380000Y-82270000D01*
X120650000Y-82550000D02*
X120650000Y-85090000D01*
X119380000Y-85370000D02*
X117830000Y-85370000D01*
X117830000Y-85370000D02*
X117830000Y-82270000D01*
X120480000Y-88350000D02*
X118580000Y-88350000D01*
X120480000Y-89450000D02*
X118580000Y-89450000D01*
X119580000Y-88900000D02*
X119130000Y-88900000D01*
X119630000Y-89150000D02*
X119630000Y-88650000D01*
X119630000Y-88900000D02*
X119380000Y-89150000D01*
X119380000Y-89150000D02*
X119380000Y-88650000D01*
X119380000Y-88650000D02*
X119630000Y-88900000D01*
X179240000Y-91990000D02*
X181140000Y-91990000D01*
X179240000Y-90890000D02*
X181140000Y-90890000D01*
X180140000Y-91440000D02*
X180590000Y-91440000D01*
X180090000Y-91190000D02*
X180090000Y-91690000D01*
X180090000Y-91440000D02*
X180340000Y-91190000D01*
X180340000Y-91190000D02*
X180340000Y-91690000D01*
X180340000Y-91690000D02*
X180090000Y-91440000D01*
X140800000Y-88350000D02*
X138900000Y-88350000D01*
X140800000Y-89450000D02*
X138900000Y-89450000D01*
X139900000Y-88900000D02*
X139450000Y-88900000D01*
X139950000Y-89150000D02*
X139950000Y-88650000D01*
X139950000Y-88900000D02*
X139700000Y-89150000D01*
X139700000Y-89150000D02*
X139700000Y-88650000D01*
X139700000Y-88650000D02*
X139950000Y-88900000D01*
X162010000Y-77640000D02*
X162010000Y-79540000D01*
X163110000Y-77640000D02*
X163110000Y-79540000D01*
X162560000Y-78540000D02*
X162560000Y-78990000D01*
X162810000Y-78490000D02*
X162310000Y-78490000D01*
X162560000Y-78490000D02*
X162810000Y-78740000D01*
X162810000Y-78740000D02*
X162310000Y-78740000D01*
X162310000Y-78740000D02*
X162560000Y-78490000D01*
X159670000Y-90840000D02*
X160370000Y-90840000D01*
X160370000Y-92040000D02*
X159670000Y-92040000D01*
X159420000Y-99410000D02*
X159420000Y-98710000D01*
X160620000Y-98710000D02*
X160620000Y-99410000D01*
X161960000Y-96870000D02*
X161960000Y-96170000D01*
X163160000Y-96170000D02*
X163160000Y-96870000D01*
X159670000Y-88300000D02*
X160370000Y-88300000D01*
X160370000Y-89500000D02*
X159670000Y-89500000D01*
X142906000Y-99984000D02*
X143606000Y-99984000D01*
X143606000Y-101184000D02*
X142906000Y-101184000D01*
X137826000Y-93380000D02*
X138526000Y-93380000D01*
X138526000Y-94580000D02*
X137826000Y-94580000D01*
X140589000Y-83820000D02*
X141351000Y-83820000D01*
X140970000Y-84201000D02*
X140970000Y-83439000D01*
X140716000Y-81534000D02*
X144526000Y-81534000D01*
X139954000Y-85344000D02*
X139954000Y-82296000D01*
X140716000Y-81534000D02*
X139954000Y-82296000D01*
X140716000Y-86106000D02*
X144526000Y-86106000D01*
X140716000Y-86106000D02*
X139954000Y-85344000D01*
X144272000Y-83693000D02*
X144272000Y-83947000D01*
X144145000Y-84455000D02*
X144145000Y-83185000D01*
X144018000Y-82931000D02*
X144018000Y-84709000D01*
X143891000Y-82677000D02*
X143891000Y-84963000D01*
X143764000Y-85090000D02*
X143764000Y-82550000D01*
X143637000Y-82423000D02*
X143637000Y-85217000D01*
X143510000Y-85344000D02*
X143510000Y-82296000D01*
X143383000Y-85471000D02*
X143383000Y-82169000D01*
X144526000Y-86106000D02*
X144526000Y-81534000D01*
X144272000Y-83820000D02*
G75*
G03X144272000Y-83820000I-2032000J0D01*
G01*
X169291000Y-91440000D02*
X168529000Y-91440000D01*
X168910000Y-91059000D02*
X168910000Y-91821000D01*
X169164000Y-93726000D02*
X165354000Y-93726000D01*
X169926000Y-89916000D02*
X169926000Y-92964000D01*
X169164000Y-93726000D02*
X169926000Y-92964000D01*
X169164000Y-89154000D02*
X165354000Y-89154000D01*
X169164000Y-89154000D02*
X169926000Y-89916000D01*
X165608000Y-91567000D02*
X165608000Y-91313000D01*
X165735000Y-90805000D02*
X165735000Y-92075000D01*
X165862000Y-92329000D02*
X165862000Y-90551000D01*
X165989000Y-92583000D02*
X165989000Y-90297000D01*
X166116000Y-90170000D02*
X166116000Y-92710000D01*
X166243000Y-92837000D02*
X166243000Y-90043000D01*
X166370000Y-89916000D02*
X166370000Y-92964000D01*
X166497000Y-89789000D02*
X166497000Y-93091000D01*
X165354000Y-89154000D02*
X165354000Y-93726000D01*
X169672000Y-91440000D02*
G75*
G03X169672000Y-91440000I-2032000J0D01*
G01*
X159131000Y-83820000D02*
X158369000Y-83820000D01*
X158750000Y-83439000D02*
X158750000Y-84201000D01*
X159004000Y-86106000D02*
X155194000Y-86106000D01*
X159766000Y-82296000D02*
X159766000Y-85344000D01*
X159004000Y-86106000D02*
X159766000Y-85344000D01*
X159004000Y-81534000D02*
X155194000Y-81534000D01*
X159004000Y-81534000D02*
X159766000Y-82296000D01*
X155448000Y-83947000D02*
X155448000Y-83693000D01*
X155575000Y-83185000D02*
X155575000Y-84455000D01*
X155702000Y-84709000D02*
X155702000Y-82931000D01*
X155829000Y-84963000D02*
X155829000Y-82677000D01*
X155956000Y-82550000D02*
X155956000Y-85090000D01*
X156083000Y-85217000D02*
X156083000Y-82423000D01*
X156210000Y-82296000D02*
X156210000Y-85344000D01*
X156337000Y-82169000D02*
X156337000Y-85471000D01*
X155194000Y-81534000D02*
X155194000Y-86106000D01*
X159512000Y-83820000D02*
G75*
G03X159512000Y-83820000I-2032000J0D01*
G01*
X135890000Y-72390000D02*
X130810000Y-72390000D01*
X130810000Y-72390000D02*
X130810000Y-74930000D01*
X130810000Y-74930000D02*
X135890000Y-74930000D01*
X138710000Y-75210000D02*
X137160000Y-75210000D01*
X135890000Y-74930000D02*
X135890000Y-72390000D01*
X137160000Y-72110000D02*
X138710000Y-72110000D01*
X138710000Y-72110000D02*
X138710000Y-75210000D01*
X173960000Y-102590000D02*
X173960000Y-104140000D01*
X175260000Y-102590000D02*
X173960000Y-102590000D01*
X179451000Y-104013000D02*
X185293000Y-104013000D01*
X185293000Y-104013000D02*
X185293000Y-104267000D01*
X185293000Y-104267000D02*
X179451000Y-104267000D01*
X179451000Y-104267000D02*
X179451000Y-104140000D01*
X179451000Y-104140000D02*
X185293000Y-104140000D01*
X176784000Y-103886000D02*
X176403000Y-103886000D01*
X176784000Y-104394000D02*
X176403000Y-104394000D01*
X176784000Y-106426000D02*
X176403000Y-106426000D01*
X176784000Y-106934000D02*
X176403000Y-106934000D01*
X176784000Y-108966000D02*
X176403000Y-108966000D01*
X176784000Y-109474000D02*
X176403000Y-109474000D01*
X176784000Y-111506000D02*
X176403000Y-111506000D01*
X176784000Y-112014000D02*
X176403000Y-112014000D01*
X176784000Y-114554000D02*
X176403000Y-114554000D01*
X176784000Y-114046000D02*
X176403000Y-114046000D01*
X179324000Y-105410000D02*
X179324000Y-102870000D01*
X185420000Y-104394000D02*
X179324000Y-104394000D01*
X185420000Y-103886000D02*
X185420000Y-104394000D01*
X179324000Y-103886000D02*
X185420000Y-103886000D01*
X176784000Y-105410000D02*
X179324000Y-105410000D01*
X176784000Y-102870000D02*
X176784000Y-105410000D01*
X176784000Y-102870000D02*
X179324000Y-102870000D01*
X176784000Y-107950000D02*
X179324000Y-107950000D01*
X176784000Y-107950000D02*
X176784000Y-110490000D01*
X176784000Y-110490000D02*
X179324000Y-110490000D01*
X179324000Y-108966000D02*
X185420000Y-108966000D01*
X185420000Y-108966000D02*
X185420000Y-109474000D01*
X185420000Y-109474000D02*
X179324000Y-109474000D01*
X179324000Y-110490000D02*
X179324000Y-107950000D01*
X179324000Y-107950000D02*
X179324000Y-105410000D01*
X185420000Y-106934000D02*
X179324000Y-106934000D01*
X185420000Y-106426000D02*
X185420000Y-106934000D01*
X179324000Y-106426000D02*
X185420000Y-106426000D01*
X176784000Y-107950000D02*
X179324000Y-107950000D01*
X176784000Y-105410000D02*
X176784000Y-107950000D01*
X176784000Y-105410000D02*
X179324000Y-105410000D01*
X176784000Y-113030000D02*
X179324000Y-113030000D01*
X176784000Y-113030000D02*
X176784000Y-115570000D01*
X176784000Y-115570000D02*
X179324000Y-115570000D01*
X179324000Y-114046000D02*
X185420000Y-114046000D01*
X185420000Y-114046000D02*
X185420000Y-114554000D01*
X185420000Y-114554000D02*
X179324000Y-114554000D01*
X179324000Y-115570000D02*
X179324000Y-113030000D01*
X179324000Y-113030000D02*
X179324000Y-110490000D01*
X185420000Y-112014000D02*
X179324000Y-112014000D01*
X185420000Y-111506000D02*
X185420000Y-112014000D01*
X179324000Y-111506000D02*
X185420000Y-111506000D01*
X176784000Y-113030000D02*
X179324000Y-113030000D01*
X176784000Y-110490000D02*
X176784000Y-113030000D01*
X176784000Y-110490000D02*
X179324000Y-110490000D01*
D18*
X112490000Y-99580000D02*
X112490000Y-93460000D01*
X112490000Y-93460000D02*
X116110000Y-93460000D01*
X116110000Y-93460000D02*
X116110000Y-99580000D01*
X116110000Y-99580000D02*
X112490000Y-99580000D01*
X127865000Y-103870000D02*
X127865000Y-119650000D01*
X127865000Y-119650000D02*
X118515000Y-119650000D01*
X118515000Y-119650000D02*
X118515000Y-103870000D01*
X118515000Y-103870000D02*
X127865000Y-103870000D01*
X118265000Y-103620000D02*
X118265000Y-106160000D01*
X118265000Y-103620000D02*
X120805000Y-103620000D01*
D12*
X151050667Y-120102381D02*
X151050667Y-120816667D01*
X151003047Y-120959524D01*
X150907809Y-121054762D01*
X150764952Y-121102381D01*
X150669714Y-121102381D01*
X152050667Y-121102381D02*
X151479238Y-121102381D01*
X151764952Y-121102381D02*
X151764952Y-120102381D01*
X151669714Y-120245238D01*
X151574476Y-120340476D01*
X151479238Y-120388095D01*
X136604524Y-94448381D02*
X137271191Y-95448381D01*
X137271191Y-94448381D02*
X136604524Y-95448381D01*
X137509286Y-94448381D02*
X138080715Y-94448381D01*
X137795000Y-95448381D02*
X137795000Y-94448381D01*
X138937858Y-95448381D02*
X138366429Y-95448381D01*
X138652143Y-95448381D02*
X138652143Y-94448381D01*
X138556905Y-94591238D01*
X138461667Y-94686476D01*
X138366429Y-94734095D01*
X158432857Y-68032381D02*
X158432857Y-68841905D01*
X158480476Y-68937143D01*
X158528095Y-68984762D01*
X158623333Y-69032381D01*
X158813810Y-69032381D01*
X158909048Y-68984762D01*
X158956667Y-68937143D01*
X159004286Y-68841905D01*
X159004286Y-68032381D01*
X159432857Y-68984762D02*
X159575714Y-69032381D01*
X159813810Y-69032381D01*
X159909048Y-68984762D01*
X159956667Y-68937143D01*
X160004286Y-68841905D01*
X160004286Y-68746667D01*
X159956667Y-68651429D01*
X159909048Y-68603810D01*
X159813810Y-68556190D01*
X159623333Y-68508571D01*
X159528095Y-68460952D01*
X159480476Y-68413333D01*
X159432857Y-68318095D01*
X159432857Y-68222857D01*
X159480476Y-68127619D01*
X159528095Y-68080000D01*
X159623333Y-68032381D01*
X159861429Y-68032381D01*
X160004286Y-68080000D01*
X160766191Y-68508571D02*
X160909048Y-68556190D01*
X160956667Y-68603810D01*
X161004286Y-68699048D01*
X161004286Y-68841905D01*
X160956667Y-68937143D01*
X160909048Y-68984762D01*
X160813810Y-69032381D01*
X160432857Y-69032381D01*
X160432857Y-68032381D01*
X160766191Y-68032381D01*
X160861429Y-68080000D01*
X160909048Y-68127619D01*
X160956667Y-68222857D01*
X160956667Y-68318095D01*
X160909048Y-68413333D01*
X160861429Y-68460952D01*
X160766191Y-68508571D01*
X160432857Y-68508571D01*
X161194762Y-69127619D02*
X161956667Y-69127619D01*
X162194762Y-69032381D02*
X162194762Y-68032381D01*
X162670952Y-69032381D02*
X162670952Y-68032381D01*
X162909047Y-68032381D01*
X163051905Y-68080000D01*
X163147143Y-68175238D01*
X163194762Y-68270476D01*
X163242381Y-68460952D01*
X163242381Y-68603810D01*
X163194762Y-68794286D01*
X163147143Y-68889524D01*
X163051905Y-68984762D01*
X162909047Y-69032381D01*
X162670952Y-69032381D01*
X164194762Y-69032381D02*
X163623333Y-69032381D01*
X163909047Y-69032381D02*
X163909047Y-68032381D01*
X163813809Y-68175238D01*
X163718571Y-68270476D01*
X163623333Y-68318095D01*
X150661905Y-80542381D02*
X150661905Y-81351905D01*
X150709524Y-81447143D01*
X150757143Y-81494762D01*
X150852381Y-81542381D01*
X151042858Y-81542381D01*
X151138096Y-81494762D01*
X151185715Y-81447143D01*
X151233334Y-81351905D01*
X151233334Y-80542381D01*
X151661905Y-81494762D02*
X151804762Y-81542381D01*
X152042858Y-81542381D01*
X152138096Y-81494762D01*
X152185715Y-81447143D01*
X152233334Y-81351905D01*
X152233334Y-81256667D01*
X152185715Y-81161429D01*
X152138096Y-81113810D01*
X152042858Y-81066190D01*
X151852381Y-81018571D01*
X151757143Y-80970952D01*
X151709524Y-80923333D01*
X151661905Y-80828095D01*
X151661905Y-80732857D01*
X151709524Y-80637619D01*
X151757143Y-80590000D01*
X151852381Y-80542381D01*
X152090477Y-80542381D01*
X152233334Y-80590000D01*
X152995239Y-81018571D02*
X153138096Y-81066190D01*
X153185715Y-81113810D01*
X153233334Y-81209048D01*
X153233334Y-81351905D01*
X153185715Y-81447143D01*
X153138096Y-81494762D01*
X153042858Y-81542381D01*
X152661905Y-81542381D01*
X152661905Y-80542381D01*
X152995239Y-80542381D01*
X153090477Y-80590000D01*
X153138096Y-80637619D01*
X153185715Y-80732857D01*
X153185715Y-80828095D01*
X153138096Y-80923333D01*
X153090477Y-80970952D01*
X152995239Y-81018571D01*
X152661905Y-81018571D01*
X154185715Y-81542381D02*
X153614286Y-81542381D01*
X153900000Y-81542381D02*
X153900000Y-80542381D01*
X153804762Y-80685238D01*
X153709524Y-80780476D01*
X153614286Y-80828095D01*
X143842858Y-89040354D02*
X144415278Y-89612774D01*
X144516293Y-89646446D01*
X144583636Y-89646446D01*
X144684651Y-89612774D01*
X144819339Y-89478086D01*
X144853011Y-89377071D01*
X144853011Y-89309728D01*
X144819339Y-89208713D01*
X144246919Y-88636293D01*
X144516293Y-88366919D02*
X144954026Y-87929186D01*
X144987697Y-88434262D01*
X145088713Y-88333247D01*
X145189728Y-88299575D01*
X145257071Y-88299575D01*
X145358087Y-88333247D01*
X145526446Y-88501606D01*
X145560117Y-88602621D01*
X145560117Y-88669964D01*
X145526446Y-88770980D01*
X145324415Y-88973011D01*
X145223400Y-89006682D01*
X145156056Y-89006682D01*
X166878095Y-78700381D02*
X166878095Y-79509905D01*
X166925714Y-79605143D01*
X166973333Y-79652762D01*
X167068571Y-79700381D01*
X167259048Y-79700381D01*
X167354286Y-79652762D01*
X167401905Y-79605143D01*
X167449524Y-79509905D01*
X167449524Y-78700381D01*
X168449524Y-79700381D02*
X167878095Y-79700381D01*
X168163809Y-79700381D02*
X168163809Y-78700381D01*
X168068571Y-78843238D01*
X167973333Y-78938476D01*
X167878095Y-78986095D01*
X133564381Y-84303905D02*
X133564381Y-83732476D01*
X134564381Y-84018191D02*
X133564381Y-84018191D01*
X134564381Y-83399143D02*
X133564381Y-83399143D01*
X133564381Y-83018190D01*
X133612000Y-82922952D01*
X133659619Y-82875333D01*
X133754857Y-82827714D01*
X133897714Y-82827714D01*
X133992952Y-82875333D01*
X134040571Y-82922952D01*
X134088190Y-83018190D01*
X134088190Y-83399143D01*
X134564381Y-81875333D02*
X134564381Y-82446762D01*
X134564381Y-82161048D02*
X133564381Y-82161048D01*
X133707238Y-82256286D01*
X133802476Y-82351524D01*
X133850095Y-82446762D01*
X133516762Y-80732476D02*
X134802476Y-81589619D01*
X134564381Y-79875333D02*
X134564381Y-80446762D01*
X134564381Y-80161048D02*
X133564381Y-80161048D01*
X133707238Y-80256286D01*
X133802476Y-80351524D01*
X133850095Y-80446762D01*
X113038095Y-103592381D02*
X113609524Y-103592381D01*
X113323809Y-104592381D02*
X113323809Y-103592381D01*
X113942857Y-104592381D02*
X113942857Y-103592381D01*
X114323810Y-103592381D01*
X114419048Y-103640000D01*
X114466667Y-103687619D01*
X114514286Y-103782857D01*
X114514286Y-103925714D01*
X114466667Y-104020952D01*
X114419048Y-104068571D01*
X114323810Y-104116190D01*
X113942857Y-104116190D01*
X115466667Y-104592381D02*
X114895238Y-104592381D01*
X115180952Y-104592381D02*
X115180952Y-103592381D01*
X115085714Y-103735238D01*
X114990476Y-103830476D01*
X114895238Y-103878095D01*
X123817143Y-90876381D02*
X123483809Y-90400190D01*
X123245714Y-90876381D02*
X123245714Y-89876381D01*
X123626667Y-89876381D01*
X123721905Y-89924000D01*
X123769524Y-89971619D01*
X123817143Y-90066857D01*
X123817143Y-90209714D01*
X123769524Y-90304952D01*
X123721905Y-90352571D01*
X123626667Y-90400190D01*
X123245714Y-90400190D01*
X124769524Y-90876381D02*
X124198095Y-90876381D01*
X124483809Y-90876381D02*
X124483809Y-89876381D01*
X124388571Y-90019238D01*
X124293333Y-90114476D01*
X124198095Y-90162095D01*
X125102857Y-89876381D02*
X125721905Y-89876381D01*
X125388571Y-90257333D01*
X125531429Y-90257333D01*
X125626667Y-90304952D01*
X125674286Y-90352571D01*
X125721905Y-90447810D01*
X125721905Y-90685905D01*
X125674286Y-90781143D01*
X125626667Y-90828762D01*
X125531429Y-90876381D01*
X125245714Y-90876381D01*
X125150476Y-90828762D01*
X125102857Y-90781143D01*
X139057143Y-106492381D02*
X138723809Y-106016190D01*
X138485714Y-106492381D02*
X138485714Y-105492381D01*
X138866667Y-105492381D01*
X138961905Y-105540000D01*
X139009524Y-105587619D01*
X139057143Y-105682857D01*
X139057143Y-105825714D01*
X139009524Y-105920952D01*
X138961905Y-105968571D01*
X138866667Y-106016190D01*
X138485714Y-106016190D01*
X140009524Y-106492381D02*
X139438095Y-106492381D01*
X139723809Y-106492381D02*
X139723809Y-105492381D01*
X139628571Y-105635238D01*
X139533333Y-105730476D01*
X139438095Y-105778095D01*
X140390476Y-105587619D02*
X140438095Y-105540000D01*
X140533333Y-105492381D01*
X140771429Y-105492381D01*
X140866667Y-105540000D01*
X140914286Y-105587619D01*
X140961905Y-105682857D01*
X140961905Y-105778095D01*
X140914286Y-105920952D01*
X140342857Y-106492381D01*
X140961905Y-106492381D01*
X133172381Y-109862857D02*
X132696190Y-110196191D01*
X133172381Y-110434286D02*
X132172381Y-110434286D01*
X132172381Y-110053333D01*
X132220000Y-109958095D01*
X132267619Y-109910476D01*
X132362857Y-109862857D01*
X132505714Y-109862857D01*
X132600952Y-109910476D01*
X132648571Y-109958095D01*
X132696190Y-110053333D01*
X132696190Y-110434286D01*
X133172381Y-108910476D02*
X133172381Y-109481905D01*
X133172381Y-109196191D02*
X132172381Y-109196191D01*
X132315238Y-109291429D01*
X132410476Y-109386667D01*
X132458095Y-109481905D01*
X133172381Y-107958095D02*
X133172381Y-108529524D01*
X133172381Y-108243810D02*
X132172381Y-108243810D01*
X132315238Y-108339048D01*
X132410476Y-108434286D01*
X132458095Y-108529524D01*
X154297143Y-108148381D02*
X153963809Y-107672190D01*
X153725714Y-108148381D02*
X153725714Y-107148381D01*
X154106667Y-107148381D01*
X154201905Y-107196000D01*
X154249524Y-107243619D01*
X154297143Y-107338857D01*
X154297143Y-107481714D01*
X154249524Y-107576952D01*
X154201905Y-107624571D01*
X154106667Y-107672190D01*
X153725714Y-107672190D01*
X155249524Y-108148381D02*
X154678095Y-108148381D01*
X154963809Y-108148381D02*
X154963809Y-107148381D01*
X154868571Y-107291238D01*
X154773333Y-107386476D01*
X154678095Y-107434095D01*
X155868571Y-107148381D02*
X155963810Y-107148381D01*
X156059048Y-107196000D01*
X156106667Y-107243619D01*
X156154286Y-107338857D01*
X156201905Y-107529333D01*
X156201905Y-107767429D01*
X156154286Y-107957905D01*
X156106667Y-108053143D01*
X156059048Y-108100762D01*
X155963810Y-108148381D01*
X155868571Y-108148381D01*
X155773333Y-108100762D01*
X155725714Y-108053143D01*
X155678095Y-107957905D01*
X155630476Y-107767429D01*
X155630476Y-107529333D01*
X155678095Y-107338857D01*
X155725714Y-107243619D01*
X155773333Y-107196000D01*
X155868571Y-107148381D01*
X144613334Y-107772381D02*
X144280000Y-107296190D01*
X144041905Y-107772381D02*
X144041905Y-106772381D01*
X144422858Y-106772381D01*
X144518096Y-106820000D01*
X144565715Y-106867619D01*
X144613334Y-106962857D01*
X144613334Y-107105714D01*
X144565715Y-107200952D01*
X144518096Y-107248571D01*
X144422858Y-107296190D01*
X144041905Y-107296190D01*
X145089524Y-107772381D02*
X145280000Y-107772381D01*
X145375239Y-107724762D01*
X145422858Y-107677143D01*
X145518096Y-107534286D01*
X145565715Y-107343810D01*
X145565715Y-106962857D01*
X145518096Y-106867619D01*
X145470477Y-106820000D01*
X145375239Y-106772381D01*
X145184762Y-106772381D01*
X145089524Y-106820000D01*
X145041905Y-106867619D01*
X144994286Y-106962857D01*
X144994286Y-107200952D01*
X145041905Y-107296190D01*
X145089524Y-107343810D01*
X145184762Y-107391429D01*
X145375239Y-107391429D01*
X145470477Y-107343810D01*
X145518096Y-107296190D01*
X145565715Y-107200952D01*
X167452381Y-109386666D02*
X166976190Y-109720000D01*
X167452381Y-109958095D02*
X166452381Y-109958095D01*
X166452381Y-109577142D01*
X166500000Y-109481904D01*
X166547619Y-109434285D01*
X166642857Y-109386666D01*
X166785714Y-109386666D01*
X166880952Y-109434285D01*
X166928571Y-109481904D01*
X166976190Y-109577142D01*
X166976190Y-109958095D01*
X166880952Y-108815238D02*
X166833333Y-108910476D01*
X166785714Y-108958095D01*
X166690476Y-109005714D01*
X166642857Y-109005714D01*
X166547619Y-108958095D01*
X166500000Y-108910476D01*
X166452381Y-108815238D01*
X166452381Y-108624761D01*
X166500000Y-108529523D01*
X166547619Y-108481904D01*
X166642857Y-108434285D01*
X166690476Y-108434285D01*
X166785714Y-108481904D01*
X166833333Y-108529523D01*
X166880952Y-108624761D01*
X166880952Y-108815238D01*
X166928571Y-108910476D01*
X166976190Y-108958095D01*
X167071429Y-109005714D01*
X167261905Y-109005714D01*
X167357143Y-108958095D01*
X167404762Y-108910476D01*
X167452381Y-108815238D01*
X167452381Y-108624761D01*
X167404762Y-108529523D01*
X167357143Y-108481904D01*
X167261905Y-108434285D01*
X167071429Y-108434285D01*
X166976190Y-108481904D01*
X166928571Y-108529523D01*
X166880952Y-108624761D01*
X159853334Y-106492381D02*
X159520000Y-106016190D01*
X159281905Y-106492381D02*
X159281905Y-105492381D01*
X159662858Y-105492381D01*
X159758096Y-105540000D01*
X159805715Y-105587619D01*
X159853334Y-105682857D01*
X159853334Y-105825714D01*
X159805715Y-105920952D01*
X159758096Y-105968571D01*
X159662858Y-106016190D01*
X159281905Y-106016190D01*
X160186667Y-105492381D02*
X160853334Y-105492381D01*
X160424762Y-106492381D01*
X175093334Y-89992381D02*
X174760000Y-89516190D01*
X174521905Y-89992381D02*
X174521905Y-88992381D01*
X174902858Y-88992381D01*
X174998096Y-89040000D01*
X175045715Y-89087619D01*
X175093334Y-89182857D01*
X175093334Y-89325714D01*
X175045715Y-89420952D01*
X174998096Y-89468571D01*
X174902858Y-89516190D01*
X174521905Y-89516190D01*
X175950477Y-88992381D02*
X175760000Y-88992381D01*
X175664762Y-89040000D01*
X175617143Y-89087619D01*
X175521905Y-89230476D01*
X175474286Y-89420952D01*
X175474286Y-89801905D01*
X175521905Y-89897143D01*
X175569524Y-89944762D01*
X175664762Y-89992381D01*
X175855239Y-89992381D01*
X175950477Y-89944762D01*
X175998096Y-89897143D01*
X176045715Y-89801905D01*
X176045715Y-89563810D01*
X175998096Y-89468571D01*
X175950477Y-89420952D01*
X175855239Y-89373333D01*
X175664762Y-89373333D01*
X175569524Y-89420952D01*
X175521905Y-89468571D01*
X175474286Y-89563810D01*
X155281334Y-102692381D02*
X154948000Y-102216190D01*
X154709905Y-102692381D02*
X154709905Y-101692381D01*
X155090858Y-101692381D01*
X155186096Y-101740000D01*
X155233715Y-101787619D01*
X155281334Y-101882857D01*
X155281334Y-102025714D01*
X155233715Y-102120952D01*
X155186096Y-102168571D01*
X155090858Y-102216190D01*
X154709905Y-102216190D01*
X156186096Y-101692381D02*
X155709905Y-101692381D01*
X155662286Y-102168571D01*
X155709905Y-102120952D01*
X155805143Y-102073333D01*
X156043239Y-102073333D01*
X156138477Y-102120952D01*
X156186096Y-102168571D01*
X156233715Y-102263810D01*
X156233715Y-102501905D01*
X156186096Y-102597143D01*
X156138477Y-102644762D01*
X156043239Y-102692381D01*
X155805143Y-102692381D01*
X155709905Y-102644762D01*
X155662286Y-102597143D01*
X144613334Y-103200381D02*
X144280000Y-102724190D01*
X144041905Y-103200381D02*
X144041905Y-102200381D01*
X144422858Y-102200381D01*
X144518096Y-102248000D01*
X144565715Y-102295619D01*
X144613334Y-102390857D01*
X144613334Y-102533714D01*
X144565715Y-102628952D01*
X144518096Y-102676571D01*
X144422858Y-102724190D01*
X144041905Y-102724190D01*
X145470477Y-102533714D02*
X145470477Y-103200381D01*
X145232381Y-102152762D02*
X144994286Y-102867048D01*
X145613334Y-102867048D01*
X129352381Y-94146666D02*
X128876190Y-94480000D01*
X129352381Y-94718095D02*
X128352381Y-94718095D01*
X128352381Y-94337142D01*
X128400000Y-94241904D01*
X128447619Y-94194285D01*
X128542857Y-94146666D01*
X128685714Y-94146666D01*
X128780952Y-94194285D01*
X128828571Y-94241904D01*
X128876190Y-94337142D01*
X128876190Y-94718095D01*
X128352381Y-93813333D02*
X128352381Y-93194285D01*
X128733333Y-93527619D01*
X128733333Y-93384761D01*
X128780952Y-93289523D01*
X128828571Y-93241904D01*
X128923810Y-93194285D01*
X129161905Y-93194285D01*
X129257143Y-93241904D01*
X129304762Y-93289523D01*
X129352381Y-93384761D01*
X129352381Y-93670476D01*
X129304762Y-93765714D01*
X129257143Y-93813333D01*
X134453334Y-87452381D02*
X134120000Y-86976190D01*
X133881905Y-87452381D02*
X133881905Y-86452381D01*
X134262858Y-86452381D01*
X134358096Y-86500000D01*
X134405715Y-86547619D01*
X134453334Y-86642857D01*
X134453334Y-86785714D01*
X134405715Y-86880952D01*
X134358096Y-86928571D01*
X134262858Y-86976190D01*
X133881905Y-86976190D01*
X134834286Y-86547619D02*
X134881905Y-86500000D01*
X134977143Y-86452381D01*
X135215239Y-86452381D01*
X135310477Y-86500000D01*
X135358096Y-86547619D01*
X135405715Y-86642857D01*
X135405715Y-86738095D01*
X135358096Y-86880952D01*
X134786667Y-87452381D01*
X135405715Y-87452381D01*
X159202381Y-76366666D02*
X158726190Y-76700000D01*
X159202381Y-76938095D02*
X158202381Y-76938095D01*
X158202381Y-76557142D01*
X158250000Y-76461904D01*
X158297619Y-76414285D01*
X158392857Y-76366666D01*
X158535714Y-76366666D01*
X158630952Y-76414285D01*
X158678571Y-76461904D01*
X158726190Y-76557142D01*
X158726190Y-76938095D01*
X159202381Y-75414285D02*
X159202381Y-75985714D01*
X159202381Y-75700000D02*
X158202381Y-75700000D01*
X158345238Y-75795238D01*
X158440476Y-75890476D01*
X158488095Y-75985714D01*
X139604762Y-112017619D02*
X139509524Y-111970000D01*
X139414286Y-111874762D01*
X139271429Y-111731905D01*
X139176190Y-111684286D01*
X139080952Y-111684286D01*
X139128571Y-111922381D02*
X139033333Y-111874762D01*
X138938095Y-111779524D01*
X138890476Y-111589048D01*
X138890476Y-111255714D01*
X138938095Y-111065238D01*
X139033333Y-110970000D01*
X139128571Y-110922381D01*
X139319048Y-110922381D01*
X139414286Y-110970000D01*
X139509524Y-111065238D01*
X139557143Y-111255714D01*
X139557143Y-111589048D01*
X139509524Y-111779524D01*
X139414286Y-111874762D01*
X139319048Y-111922381D01*
X139128571Y-111922381D01*
X139890476Y-110922381D02*
X140509524Y-110922381D01*
X140176190Y-111303333D01*
X140319048Y-111303333D01*
X140414286Y-111350952D01*
X140461905Y-111398571D01*
X140509524Y-111493810D01*
X140509524Y-111731905D01*
X140461905Y-111827143D01*
X140414286Y-111874762D01*
X140319048Y-111922381D01*
X140033333Y-111922381D01*
X139938095Y-111874762D01*
X139890476Y-111827143D01*
X149764762Y-109477619D02*
X149669524Y-109430000D01*
X149574286Y-109334762D01*
X149431429Y-109191905D01*
X149336190Y-109144286D01*
X149240952Y-109144286D01*
X149288571Y-109382381D02*
X149193333Y-109334762D01*
X149098095Y-109239524D01*
X149050476Y-109049048D01*
X149050476Y-108715714D01*
X149098095Y-108525238D01*
X149193333Y-108430000D01*
X149288571Y-108382381D01*
X149479048Y-108382381D01*
X149574286Y-108430000D01*
X149669524Y-108525238D01*
X149717143Y-108715714D01*
X149717143Y-109049048D01*
X149669524Y-109239524D01*
X149574286Y-109334762D01*
X149479048Y-109382381D01*
X149288571Y-109382381D01*
X150098095Y-108477619D02*
X150145714Y-108430000D01*
X150240952Y-108382381D01*
X150479048Y-108382381D01*
X150574286Y-108430000D01*
X150621905Y-108477619D01*
X150669524Y-108572857D01*
X150669524Y-108668095D01*
X150621905Y-108810952D01*
X150050476Y-109382381D01*
X150669524Y-109382381D01*
X159924762Y-112017619D02*
X159829524Y-111970000D01*
X159734286Y-111874762D01*
X159591429Y-111731905D01*
X159496190Y-111684286D01*
X159400952Y-111684286D01*
X159448571Y-111922381D02*
X159353333Y-111874762D01*
X159258095Y-111779524D01*
X159210476Y-111589048D01*
X159210476Y-111255714D01*
X159258095Y-111065238D01*
X159353333Y-110970000D01*
X159448571Y-110922381D01*
X159639048Y-110922381D01*
X159734286Y-110970000D01*
X159829524Y-111065238D01*
X159877143Y-111255714D01*
X159877143Y-111589048D01*
X159829524Y-111779524D01*
X159734286Y-111874762D01*
X159639048Y-111922381D01*
X159448571Y-111922381D01*
X160829524Y-111922381D02*
X160258095Y-111922381D01*
X160543809Y-111922381D02*
X160543809Y-110922381D01*
X160448571Y-111065238D01*
X160353333Y-111160476D01*
X160258095Y-111208095D01*
X170612381Y-120118095D02*
X169612381Y-120118095D01*
X169612381Y-119737142D01*
X169660000Y-119641904D01*
X169707619Y-119594285D01*
X169802857Y-119546666D01*
X169945714Y-119546666D01*
X170040952Y-119594285D01*
X170088571Y-119641904D01*
X170136190Y-119737142D01*
X170136190Y-120118095D01*
X170612381Y-118594285D02*
X170612381Y-119165714D01*
X170612381Y-118880000D02*
X169612381Y-118880000D01*
X169755238Y-118975238D01*
X169850476Y-119070476D01*
X169898095Y-119165714D01*
X171140381Y-80684666D02*
X171140381Y-81160857D01*
X170140381Y-81160857D01*
X170235619Y-80398952D02*
X170188000Y-80351333D01*
X170140381Y-80256095D01*
X170140381Y-80017999D01*
X170188000Y-79922761D01*
X170235619Y-79875142D01*
X170330857Y-79827523D01*
X170426095Y-79827523D01*
X170568952Y-79875142D01*
X171140381Y-80446571D01*
X171140381Y-79827523D01*
X178141334Y-68778381D02*
X177665143Y-68778381D01*
X177665143Y-67778381D01*
X178998477Y-68778381D02*
X178427048Y-68778381D01*
X178712762Y-68778381D02*
X178712762Y-67778381D01*
X178617524Y-67921238D01*
X178522286Y-68016476D01*
X178427048Y-68064095D01*
X120705714Y-101548571D02*
X121039048Y-101548571D01*
X121181905Y-102072381D02*
X120705714Y-102072381D01*
X120705714Y-101072381D01*
X121181905Y-101072381D01*
X121610476Y-102072381D02*
X121610476Y-101072381D01*
X122181905Y-102072381D01*
X122181905Y-101072381D01*
X123181905Y-102072381D02*
X122610476Y-102072381D01*
X122896190Y-102072381D02*
X122896190Y-101072381D01*
X122800952Y-101215238D01*
X122705714Y-101310476D01*
X122610476Y-101358095D01*
X118641905Y-90852381D02*
X118641905Y-89852381D01*
X118880000Y-89852381D01*
X119022858Y-89900000D01*
X119118096Y-89995238D01*
X119165715Y-90090476D01*
X119213334Y-90280952D01*
X119213334Y-90423810D01*
X119165715Y-90614286D01*
X119118096Y-90709524D01*
X119022858Y-90804762D01*
X118880000Y-90852381D01*
X118641905Y-90852381D01*
X120070477Y-90185714D02*
X120070477Y-90852381D01*
X119832381Y-89804762D02*
X119594286Y-90519048D01*
X120213334Y-90519048D01*
X179601905Y-90392381D02*
X179601905Y-89392381D01*
X179840000Y-89392381D01*
X179982858Y-89440000D01*
X180078096Y-89535238D01*
X180125715Y-89630476D01*
X180173334Y-89820952D01*
X180173334Y-89963810D01*
X180125715Y-90154286D01*
X180078096Y-90249524D01*
X179982858Y-90344762D01*
X179840000Y-90392381D01*
X179601905Y-90392381D01*
X180506667Y-89392381D02*
X181125715Y-89392381D01*
X180792381Y-89773333D01*
X180935239Y-89773333D01*
X181030477Y-89820952D01*
X181078096Y-89868571D01*
X181125715Y-89963810D01*
X181125715Y-90201905D01*
X181078096Y-90297143D01*
X181030477Y-90344762D01*
X180935239Y-90392381D01*
X180649524Y-90392381D01*
X180554286Y-90344762D01*
X180506667Y-90297143D01*
X138961905Y-90852381D02*
X138961905Y-89852381D01*
X139200000Y-89852381D01*
X139342858Y-89900000D01*
X139438096Y-89995238D01*
X139485715Y-90090476D01*
X139533334Y-90280952D01*
X139533334Y-90423810D01*
X139485715Y-90614286D01*
X139438096Y-90709524D01*
X139342858Y-90804762D01*
X139200000Y-90852381D01*
X138961905Y-90852381D01*
X139914286Y-89947619D02*
X139961905Y-89900000D01*
X140057143Y-89852381D01*
X140295239Y-89852381D01*
X140390477Y-89900000D01*
X140438096Y-89947619D01*
X140485715Y-90042857D01*
X140485715Y-90138095D01*
X140438096Y-90280952D01*
X139866667Y-90852381D01*
X140485715Y-90852381D01*
X164512381Y-79478095D02*
X163512381Y-79478095D01*
X163512381Y-79240000D01*
X163560000Y-79097142D01*
X163655238Y-79001904D01*
X163750476Y-78954285D01*
X163940952Y-78906666D01*
X164083810Y-78906666D01*
X164274286Y-78954285D01*
X164369524Y-79001904D01*
X164464762Y-79097142D01*
X164512381Y-79240000D01*
X164512381Y-79478095D01*
X164512381Y-77954285D02*
X164512381Y-78525714D01*
X164512381Y-78240000D02*
X163512381Y-78240000D01*
X163655238Y-78335238D01*
X163750476Y-78430476D01*
X163798095Y-78525714D01*
X159853334Y-93575143D02*
X159805715Y-93622762D01*
X159662858Y-93670381D01*
X159567620Y-93670381D01*
X159424762Y-93622762D01*
X159329524Y-93527524D01*
X159281905Y-93432286D01*
X159234286Y-93241810D01*
X159234286Y-93098952D01*
X159281905Y-92908476D01*
X159329524Y-92813238D01*
X159424762Y-92718000D01*
X159567620Y-92670381D01*
X159662858Y-92670381D01*
X159805715Y-92718000D01*
X159853334Y-92765619D01*
X160329524Y-93670381D02*
X160520000Y-93670381D01*
X160615239Y-93622762D01*
X160662858Y-93575143D01*
X160758096Y-93432286D01*
X160805715Y-93241810D01*
X160805715Y-92860857D01*
X160758096Y-92765619D01*
X160710477Y-92718000D01*
X160615239Y-92670381D01*
X160424762Y-92670381D01*
X160329524Y-92718000D01*
X160281905Y-92765619D01*
X160234286Y-92860857D01*
X160234286Y-93098952D01*
X160281905Y-93194190D01*
X160329524Y-93241810D01*
X160424762Y-93289429D01*
X160615239Y-93289429D01*
X160710477Y-93241810D01*
X160758096Y-93194190D01*
X160805715Y-93098952D01*
X158477143Y-99226666D02*
X158524762Y-99274285D01*
X158572381Y-99417142D01*
X158572381Y-99512380D01*
X158524762Y-99655238D01*
X158429524Y-99750476D01*
X158334286Y-99798095D01*
X158143810Y-99845714D01*
X158000952Y-99845714D01*
X157810476Y-99798095D01*
X157715238Y-99750476D01*
X157620000Y-99655238D01*
X157572381Y-99512380D01*
X157572381Y-99417142D01*
X157620000Y-99274285D01*
X157667619Y-99226666D01*
X158000952Y-98655238D02*
X157953333Y-98750476D01*
X157905714Y-98798095D01*
X157810476Y-98845714D01*
X157762857Y-98845714D01*
X157667619Y-98798095D01*
X157620000Y-98750476D01*
X157572381Y-98655238D01*
X157572381Y-98464761D01*
X157620000Y-98369523D01*
X157667619Y-98321904D01*
X157762857Y-98274285D01*
X157810476Y-98274285D01*
X157905714Y-98321904D01*
X157953333Y-98369523D01*
X158000952Y-98464761D01*
X158000952Y-98655238D01*
X158048571Y-98750476D01*
X158096190Y-98798095D01*
X158191429Y-98845714D01*
X158381905Y-98845714D01*
X158477143Y-98798095D01*
X158524762Y-98750476D01*
X158572381Y-98655238D01*
X158572381Y-98464761D01*
X158524762Y-98369523D01*
X158477143Y-98321904D01*
X158381905Y-98274285D01*
X158191429Y-98274285D01*
X158096190Y-98321904D01*
X158048571Y-98369523D01*
X158000952Y-98464761D01*
X161017143Y-96686666D02*
X161064762Y-96734285D01*
X161112381Y-96877142D01*
X161112381Y-96972380D01*
X161064762Y-97115238D01*
X160969524Y-97210476D01*
X160874286Y-97258095D01*
X160683810Y-97305714D01*
X160540952Y-97305714D01*
X160350476Y-97258095D01*
X160255238Y-97210476D01*
X160160000Y-97115238D01*
X160112381Y-96972380D01*
X160112381Y-96877142D01*
X160160000Y-96734285D01*
X160207619Y-96686666D01*
X160112381Y-96353333D02*
X160112381Y-95686666D01*
X161112381Y-96115238D01*
X159853334Y-87357143D02*
X159805715Y-87404762D01*
X159662858Y-87452381D01*
X159567620Y-87452381D01*
X159424762Y-87404762D01*
X159329524Y-87309524D01*
X159281905Y-87214286D01*
X159234286Y-87023810D01*
X159234286Y-86880952D01*
X159281905Y-86690476D01*
X159329524Y-86595238D01*
X159424762Y-86500000D01*
X159567620Y-86452381D01*
X159662858Y-86452381D01*
X159805715Y-86500000D01*
X159853334Y-86547619D01*
X160710477Y-86452381D02*
X160520000Y-86452381D01*
X160424762Y-86500000D01*
X160377143Y-86547619D01*
X160281905Y-86690476D01*
X160234286Y-86880952D01*
X160234286Y-87261905D01*
X160281905Y-87357143D01*
X160329524Y-87404762D01*
X160424762Y-87452381D01*
X160615239Y-87452381D01*
X160710477Y-87404762D01*
X160758096Y-87357143D01*
X160805715Y-87261905D01*
X160805715Y-87023810D01*
X160758096Y-86928571D01*
X160710477Y-86880952D01*
X160615239Y-86833333D01*
X160424762Y-86833333D01*
X160329524Y-86880952D01*
X160281905Y-86928571D01*
X160234286Y-87023810D01*
X143089334Y-99041143D02*
X143041715Y-99088762D01*
X142898858Y-99136381D01*
X142803620Y-99136381D01*
X142660762Y-99088762D01*
X142565524Y-98993524D01*
X142517905Y-98898286D01*
X142470286Y-98707810D01*
X142470286Y-98564952D01*
X142517905Y-98374476D01*
X142565524Y-98279238D01*
X142660762Y-98184000D01*
X142803620Y-98136381D01*
X142898858Y-98136381D01*
X143041715Y-98184000D01*
X143089334Y-98231619D01*
X143994096Y-98136381D02*
X143517905Y-98136381D01*
X143470286Y-98612571D01*
X143517905Y-98564952D01*
X143613143Y-98517333D01*
X143851239Y-98517333D01*
X143946477Y-98564952D01*
X143994096Y-98612571D01*
X144041715Y-98707810D01*
X144041715Y-98945905D01*
X143994096Y-99041143D01*
X143946477Y-99088762D01*
X143851239Y-99136381D01*
X143613143Y-99136381D01*
X143517905Y-99088762D01*
X143470286Y-99041143D01*
X138009334Y-92437143D02*
X137961715Y-92484762D01*
X137818858Y-92532381D01*
X137723620Y-92532381D01*
X137580762Y-92484762D01*
X137485524Y-92389524D01*
X137437905Y-92294286D01*
X137390286Y-92103810D01*
X137390286Y-91960952D01*
X137437905Y-91770476D01*
X137485524Y-91675238D01*
X137580762Y-91580000D01*
X137723620Y-91532381D01*
X137818858Y-91532381D01*
X137961715Y-91580000D01*
X138009334Y-91627619D01*
X138866477Y-91865714D02*
X138866477Y-92532381D01*
X138628381Y-91484762D02*
X138390286Y-92199048D01*
X139009334Y-92199048D01*
X139025334Y-80621143D02*
X138977715Y-80668762D01*
X138834858Y-80716381D01*
X138739620Y-80716381D01*
X138596762Y-80668762D01*
X138501524Y-80573524D01*
X138453905Y-80478286D01*
X138406286Y-80287810D01*
X138406286Y-80144952D01*
X138453905Y-79954476D01*
X138501524Y-79859238D01*
X138596762Y-79764000D01*
X138739620Y-79716381D01*
X138834858Y-79716381D01*
X138977715Y-79764000D01*
X139025334Y-79811619D01*
X139358667Y-79716381D02*
X139977715Y-79716381D01*
X139644381Y-80097333D01*
X139787239Y-80097333D01*
X139882477Y-80144952D01*
X139930096Y-80192571D01*
X139977715Y-80287810D01*
X139977715Y-80525905D01*
X139930096Y-80621143D01*
X139882477Y-80668762D01*
X139787239Y-80716381D01*
X139501524Y-80716381D01*
X139406286Y-80668762D01*
X139358667Y-80621143D01*
X167473334Y-88622143D02*
X167425715Y-88669762D01*
X167282858Y-88717381D01*
X167187620Y-88717381D01*
X167044762Y-88669762D01*
X166949524Y-88574524D01*
X166901905Y-88479286D01*
X166854286Y-88288810D01*
X166854286Y-88145952D01*
X166901905Y-87955476D01*
X166949524Y-87860238D01*
X167044762Y-87765000D01*
X167187620Y-87717381D01*
X167282858Y-87717381D01*
X167425715Y-87765000D01*
X167473334Y-87812619D01*
X167854286Y-87812619D02*
X167901905Y-87765000D01*
X167997143Y-87717381D01*
X168235239Y-87717381D01*
X168330477Y-87765000D01*
X168378096Y-87812619D01*
X168425715Y-87907857D01*
X168425715Y-88003095D01*
X168378096Y-88145952D01*
X167806667Y-88717381D01*
X168425715Y-88717381D01*
X157313334Y-81002143D02*
X157265715Y-81049762D01*
X157122858Y-81097381D01*
X157027620Y-81097381D01*
X156884762Y-81049762D01*
X156789524Y-80954524D01*
X156741905Y-80859286D01*
X156694286Y-80668810D01*
X156694286Y-80525952D01*
X156741905Y-80335476D01*
X156789524Y-80240238D01*
X156884762Y-80145000D01*
X157027620Y-80097381D01*
X157122858Y-80097381D01*
X157265715Y-80145000D01*
X157313334Y-80192619D01*
X158265715Y-81097381D02*
X157694286Y-81097381D01*
X157980000Y-81097381D02*
X157980000Y-80097381D01*
X157884762Y-80240238D01*
X157789524Y-80335476D01*
X157694286Y-80383095D01*
X142188571Y-75493333D02*
X142236190Y-75350476D01*
X142283810Y-75302857D01*
X142379048Y-75255238D01*
X142521905Y-75255238D01*
X142617143Y-75302857D01*
X142664762Y-75350476D01*
X142712381Y-75445714D01*
X142712381Y-75826667D01*
X141712381Y-75826667D01*
X141712381Y-75493333D01*
X141760000Y-75398095D01*
X141807619Y-75350476D01*
X141902857Y-75302857D01*
X141998095Y-75302857D01*
X142093333Y-75350476D01*
X142140952Y-75398095D01*
X142188571Y-75493333D01*
X142188571Y-75826667D01*
X141712381Y-74636191D02*
X141712381Y-74445714D01*
X141760000Y-74350476D01*
X141855238Y-74255238D01*
X142045714Y-74207619D01*
X142379048Y-74207619D01*
X142569524Y-74255238D01*
X142664762Y-74350476D01*
X142712381Y-74445714D01*
X142712381Y-74636191D01*
X142664762Y-74731429D01*
X142569524Y-74826667D01*
X142379048Y-74874286D01*
X142045714Y-74874286D01*
X141855238Y-74826667D01*
X141760000Y-74731429D01*
X141712381Y-74636191D01*
X141712381Y-73588572D02*
X141712381Y-73398095D01*
X141760000Y-73302857D01*
X141855238Y-73207619D01*
X142045714Y-73160000D01*
X142379048Y-73160000D01*
X142569524Y-73207619D01*
X142664762Y-73302857D01*
X142712381Y-73398095D01*
X142712381Y-73588572D01*
X142664762Y-73683810D01*
X142569524Y-73779048D01*
X142379048Y-73826667D01*
X142045714Y-73826667D01*
X141855238Y-73779048D01*
X141760000Y-73683810D01*
X141712381Y-73588572D01*
X141712381Y-72874286D02*
X141712381Y-72302857D01*
X142712381Y-72588572D02*
X141712381Y-72588572D01*
X142712381Y-71445714D02*
X142712381Y-72017143D01*
X142712381Y-71731429D02*
X141712381Y-71731429D01*
X141855238Y-71826667D01*
X141950476Y-71921905D01*
X141998095Y-72017143D01*
X122856667Y-102068381D02*
X122856667Y-102782667D01*
X122809047Y-102925524D01*
X122713809Y-103020762D01*
X122570952Y-103068381D01*
X122475714Y-103068381D01*
X123285238Y-102163619D02*
X123332857Y-102116000D01*
X123428095Y-102068381D01*
X123666191Y-102068381D01*
X123761429Y-102116000D01*
X123809048Y-102163619D01*
X123856667Y-102258857D01*
X123856667Y-102354095D01*
X123809048Y-102496952D01*
X123237619Y-103068381D01*
X123856667Y-103068381D01*
X179507047Y-91442801D02*
X179173713Y-90966610D01*
X178935618Y-91442801D02*
X178935618Y-90442801D01*
X179316571Y-90442801D01*
X179411809Y-90490420D01*
X179459428Y-90538039D01*
X179507047Y-90633277D01*
X179507047Y-90776134D01*
X179459428Y-90871372D01*
X179411809Y-90918991D01*
X179316571Y-90966610D01*
X178935618Y-90966610D01*
X179935618Y-90918991D02*
X180268952Y-90918991D01*
X180411809Y-91442801D02*
X179935618Y-91442801D01*
X179935618Y-90442801D01*
X180411809Y-90442801D01*
X181173714Y-90918991D02*
X180840380Y-90918991D01*
X180840380Y-91442801D02*
X180840380Y-90442801D01*
X181316571Y-90442801D01*
X181840380Y-90442801D02*
X181840380Y-90680896D01*
X181602285Y-90585658D02*
X181840380Y-90680896D01*
X182078476Y-90585658D01*
X181697523Y-90871372D02*
X181840380Y-90680896D01*
X181983238Y-90871372D01*
X182602285Y-90442801D02*
X182602285Y-90680896D01*
X182364190Y-90585658D02*
X182602285Y-90680896D01*
X182840381Y-90585658D01*
X182459428Y-90871372D02*
X182602285Y-90680896D01*
X182745143Y-90871372D01*
M02*
