M48
; DRILL file {KiCad 5.1.9+dfsg1-1+deb11u1} date Wed Nov  9 12:01:21 2022
; FORMAT={-:-/ absolute / metric / decimal}
; #@! TF.CreationDate,2022-11-09T12:01:21+01:00
; #@! TF.GenerationSoftware,Kicad,Pcbnew,5.1.9+dfsg1-1+deb11u1
; #@! TF.FileFunction,Plated,1,2,PTH
FMAT,2
METRIC
T1C0.400
T2C0.900
T3C1.000
T4C1.016
T5C3.000
T6C3.200
%
G90
G05
T1
X127.859Y-90.316
X131.487Y-100.566
X131.835Y-89.901
X134.163Y-87.555
X139.523Y-79.045
X139.817Y-94.121
X140.586Y-94.861
X142.55Y-111.556
X144.379Y-98.338
X144.759Y-87.241
X144.787Y-106.025
X146.486Y-89.843
X148.04Y-96.768
X148.246Y-103.483
X148.303Y-97.739
X148.568Y-98.582
X148.783Y-87.12
X149.726Y-101.165
X150.523Y-97.993
X151.181Y-101.17
X152.05Y-98.595
X153.189Y-91.652
X157.191Y-102.807
T2
X149.695Y-110.3
X150.965Y-107.77
X152.235Y-110.3
X153.505Y-107.77
T3
X119.0Y-73.0
X119.0Y-75.54
X119.0Y-78.08
X119.0Y-80.62
X119.0Y-83.16
X121.54Y-73.0
X121.54Y-75.54
X121.54Y-78.08
X121.54Y-80.62
X121.54Y-83.16
X130.0Y-93.5
X130.0Y-96.04
X133.0Y-79.0
X133.0Y-81.54
X133.5Y-68.5
X133.5Y-72.5
X136.04Y-68.5
X136.04Y-72.5
X138.58Y-68.5
X138.58Y-72.5
X161.5Y-68.5
X161.5Y-71.04
X174.46Y-120.0
X177.0Y-79.0
X177.0Y-81.54
X177.0Y-84.08
X177.0Y-86.62
X177.0Y-95.0
X177.0Y-104.0
X177.0Y-106.54
X177.0Y-109.08
X177.0Y-111.62
X177.0Y-114.16
X177.0Y-120.0
X179.54Y-95.0
X182.08Y-95.0
T4
X122.5Y-110.0
X122.5Y-112.54
X122.5Y-115.08
X125.04Y-110.0
X125.04Y-112.54
X125.04Y-115.08
T5
X111.76Y-68.58
X111.76Y-121.92
X185.42Y-68.58
X185.42Y-121.92
T6
X147.79Y-116.65
X155.41Y-116.65
T0
M30
