%TF.GenerationSoftware,KiCad,Pcbnew,4.0.2+dfsg1-stable*%
%TF.CreationDate,2019-02-28T19:17:58+01:00*%
%TF.ProjectId,StandAlone-Adapter,5374616E64416C6F6E652D4164617074,rev?*%
%TF.FileFunction,Soldermask,Top*%
%FSLAX46Y46*%
G04 Gerber Fmt 4.6, Leading zero omitted, Abs format (unit mm)*
G04 Created by KiCad (PCBNEW 4.0.2+dfsg1-stable) date Thu 28 Feb 2019 19:17:58 CET*
%MOMM*%
G01*
G04 APERTURE LIST*
%ADD10C,0.100000*%
%ADD11C,1.670000*%
%ADD12C,3.400000*%
%ADD13C,4.464000*%
%ADD14R,2.200860X1.799540*%
%ADD15R,2.432000X2.432000*%
%ADD16O,2.432000X2.432000*%
%ADD17C,1.901140*%
%ADD18C,3.399740*%
%ADD19R,4.057600X2.432000*%
%ADD20R,1.416000X2.432000*%
%ADD21C,2.398980*%
%ADD22R,2.127200X2.432000*%
%ADD23O,2.127200X2.432000*%
%ADD24R,1.600000X1.300000*%
%ADD25R,1.300000X1.600000*%
%ADD26R,1.200100X1.200100*%
%ADD27R,2.432000X2.127200*%
%ADD28O,2.432000X2.127200*%
%ADD29R,2.398980X2.398980*%
%ADD30R,1.197560X1.197560*%
%ADD31R,1.600000X1.150000*%
%ADD32R,1.150000X1.600000*%
%ADD33R,3.000960X2.000200*%
%ADD34R,2.000000X2.580000*%
%ADD35R,2.127200X2.127200*%
%ADD36O,2.127200X2.127200*%
%ADD37C,1.000000*%
G04 APERTURE END LIST*
D10*
D11*
X152285000Y-114290000D03*
X149745000Y-114290000D03*
X153555000Y-111760000D03*
D12*
X155460000Y-120640000D03*
X147840000Y-120640000D03*
D11*
X151015000Y-111760000D03*
D13*
X113030000Y-120650000D03*
X184150000Y-120650000D03*
X184150000Y-69850000D03*
X113030000Y-69850000D03*
D14*
X135595360Y-100004880D03*
X139994640Y-100004880D03*
X139994640Y-97607120D03*
X135595360Y-97607120D03*
D15*
X161290000Y-71120000D03*
D16*
X161290000Y-73660000D03*
D17*
X145287140Y-78742120D03*
X147827140Y-78742120D03*
X149859140Y-78742120D03*
X152399140Y-78742120D03*
D18*
X142239140Y-76075120D03*
X155955140Y-76075120D03*
D10*
G36*
X142912676Y-96083642D02*
X142453057Y-95624023D01*
X143443006Y-94634074D01*
X143902625Y-95093693D01*
X142912676Y-96083642D01*
X142912676Y-96083642D01*
G37*
G36*
X143266229Y-96437196D02*
X142806610Y-95977577D01*
X143796559Y-94987628D01*
X144256178Y-95447247D01*
X143266229Y-96437196D01*
X143266229Y-96437196D01*
G37*
G36*
X143619783Y-96790749D02*
X143160164Y-96331130D01*
X144150113Y-95341181D01*
X144609732Y-95800800D01*
X143619783Y-96790749D01*
X143619783Y-96790749D01*
G37*
G36*
X143973336Y-97144302D02*
X143513717Y-96684683D01*
X144503666Y-95694734D01*
X144963285Y-96154353D01*
X143973336Y-97144302D01*
X143973336Y-97144302D01*
G37*
G36*
X144326889Y-97497856D02*
X143867270Y-97038237D01*
X144857219Y-96048288D01*
X145316838Y-96507907D01*
X144326889Y-97497856D01*
X144326889Y-97497856D01*
G37*
G36*
X144680443Y-97851409D02*
X144220824Y-97391790D01*
X145210773Y-96401841D01*
X145670392Y-96861460D01*
X144680443Y-97851409D01*
X144680443Y-97851409D01*
G37*
G36*
X145033996Y-98204963D02*
X144574377Y-97745344D01*
X145564326Y-96755395D01*
X146023945Y-97215014D01*
X145033996Y-98204963D01*
X145033996Y-98204963D01*
G37*
G36*
X145387550Y-98558516D02*
X144927931Y-98098897D01*
X145917880Y-97108948D01*
X146377499Y-97568567D01*
X145387550Y-98558516D01*
X145387550Y-98558516D01*
G37*
G36*
X145741103Y-98912069D02*
X145281484Y-98452450D01*
X146271433Y-97462501D01*
X146731052Y-97922120D01*
X145741103Y-98912069D01*
X145741103Y-98912069D01*
G37*
G36*
X146094656Y-99265623D02*
X145635037Y-98806004D01*
X146624986Y-97816055D01*
X147084605Y-98275674D01*
X146094656Y-99265623D01*
X146094656Y-99265623D01*
G37*
G36*
X146448210Y-99619176D02*
X145988591Y-99159557D01*
X146978540Y-98169608D01*
X147438159Y-98629227D01*
X146448210Y-99619176D01*
X146448210Y-99619176D01*
G37*
G36*
X146801763Y-99972730D02*
X146342144Y-99513111D01*
X147332093Y-98523162D01*
X147791712Y-98982781D01*
X146801763Y-99972730D01*
X146801763Y-99972730D01*
G37*
G36*
X147155317Y-100326283D02*
X146695698Y-99866664D01*
X147685647Y-98876715D01*
X148145266Y-99336334D01*
X147155317Y-100326283D01*
X147155317Y-100326283D01*
G37*
G36*
X147508870Y-100679836D02*
X147049251Y-100220217D01*
X148039200Y-99230268D01*
X148498819Y-99689887D01*
X147508870Y-100679836D01*
X147508870Y-100679836D01*
G37*
G36*
X147862423Y-101033390D02*
X147402804Y-100573771D01*
X148392753Y-99583822D01*
X148852372Y-100043441D01*
X147862423Y-101033390D01*
X147862423Y-101033390D01*
G37*
G36*
X148215977Y-101386943D02*
X147756358Y-100927324D01*
X148746307Y-99937375D01*
X149205926Y-100396994D01*
X148215977Y-101386943D01*
X148215977Y-101386943D01*
G37*
G36*
X151963642Y-100927324D02*
X151504023Y-101386943D01*
X150514074Y-100396994D01*
X150973693Y-99937375D01*
X151963642Y-100927324D01*
X151963642Y-100927324D01*
G37*
G36*
X152317196Y-100573771D02*
X151857577Y-101033390D01*
X150867628Y-100043441D01*
X151327247Y-99583822D01*
X152317196Y-100573771D01*
X152317196Y-100573771D01*
G37*
G36*
X152670749Y-100220217D02*
X152211130Y-100679836D01*
X151221181Y-99689887D01*
X151680800Y-99230268D01*
X152670749Y-100220217D01*
X152670749Y-100220217D01*
G37*
G36*
X153024302Y-99866664D02*
X152564683Y-100326283D01*
X151574734Y-99336334D01*
X152034353Y-98876715D01*
X153024302Y-99866664D01*
X153024302Y-99866664D01*
G37*
G36*
X153377856Y-99513111D02*
X152918237Y-99972730D01*
X151928288Y-98982781D01*
X152387907Y-98523162D01*
X153377856Y-99513111D01*
X153377856Y-99513111D01*
G37*
G36*
X153731409Y-99159557D02*
X153271790Y-99619176D01*
X152281841Y-98629227D01*
X152741460Y-98169608D01*
X153731409Y-99159557D01*
X153731409Y-99159557D01*
G37*
G36*
X154084963Y-98806004D02*
X153625344Y-99265623D01*
X152635395Y-98275674D01*
X153095014Y-97816055D01*
X154084963Y-98806004D01*
X154084963Y-98806004D01*
G37*
G36*
X154438516Y-98452450D02*
X153978897Y-98912069D01*
X152988948Y-97922120D01*
X153448567Y-97462501D01*
X154438516Y-98452450D01*
X154438516Y-98452450D01*
G37*
G36*
X154792069Y-98098897D02*
X154332450Y-98558516D01*
X153342501Y-97568567D01*
X153802120Y-97108948D01*
X154792069Y-98098897D01*
X154792069Y-98098897D01*
G37*
G36*
X155145623Y-97745344D02*
X154686004Y-98204963D01*
X153696055Y-97215014D01*
X154155674Y-96755395D01*
X155145623Y-97745344D01*
X155145623Y-97745344D01*
G37*
G36*
X155499176Y-97391790D02*
X155039557Y-97851409D01*
X154049608Y-96861460D01*
X154509227Y-96401841D01*
X155499176Y-97391790D01*
X155499176Y-97391790D01*
G37*
G36*
X155852730Y-97038237D02*
X155393111Y-97497856D01*
X154403162Y-96507907D01*
X154862781Y-96048288D01*
X155852730Y-97038237D01*
X155852730Y-97038237D01*
G37*
G36*
X156206283Y-96684683D02*
X155746664Y-97144302D01*
X154756715Y-96154353D01*
X155216334Y-95694734D01*
X156206283Y-96684683D01*
X156206283Y-96684683D01*
G37*
G36*
X156559836Y-96331130D02*
X156100217Y-96790749D01*
X155110268Y-95800800D01*
X155569887Y-95341181D01*
X156559836Y-96331130D01*
X156559836Y-96331130D01*
G37*
G36*
X156913390Y-95977577D02*
X156453771Y-96437196D01*
X155463822Y-95447247D01*
X155923441Y-94987628D01*
X156913390Y-95977577D01*
X156913390Y-95977577D01*
G37*
G36*
X157266943Y-95624023D02*
X156807324Y-96083642D01*
X155817375Y-95093693D01*
X156276994Y-94634074D01*
X157266943Y-95624023D01*
X157266943Y-95624023D01*
G37*
G36*
X156276994Y-93325926D02*
X155817375Y-92866307D01*
X156807324Y-91876358D01*
X157266943Y-92335977D01*
X156276994Y-93325926D01*
X156276994Y-93325926D01*
G37*
G36*
X155923441Y-92972372D02*
X155463822Y-92512753D01*
X156453771Y-91522804D01*
X156913390Y-91982423D01*
X155923441Y-92972372D01*
X155923441Y-92972372D01*
G37*
G36*
X155569887Y-92618819D02*
X155110268Y-92159200D01*
X156100217Y-91169251D01*
X156559836Y-91628870D01*
X155569887Y-92618819D01*
X155569887Y-92618819D01*
G37*
G36*
X155216334Y-92265266D02*
X154756715Y-91805647D01*
X155746664Y-90815698D01*
X156206283Y-91275317D01*
X155216334Y-92265266D01*
X155216334Y-92265266D01*
G37*
G36*
X154862781Y-91911712D02*
X154403162Y-91452093D01*
X155393111Y-90462144D01*
X155852730Y-90921763D01*
X154862781Y-91911712D01*
X154862781Y-91911712D01*
G37*
G36*
X154509227Y-91558159D02*
X154049608Y-91098540D01*
X155039557Y-90108591D01*
X155499176Y-90568210D01*
X154509227Y-91558159D01*
X154509227Y-91558159D01*
G37*
G36*
X154155674Y-91204605D02*
X153696055Y-90744986D01*
X154686004Y-89755037D01*
X155145623Y-90214656D01*
X154155674Y-91204605D01*
X154155674Y-91204605D01*
G37*
G36*
X153802120Y-90851052D02*
X153342501Y-90391433D01*
X154332450Y-89401484D01*
X154792069Y-89861103D01*
X153802120Y-90851052D01*
X153802120Y-90851052D01*
G37*
G36*
X153448567Y-90497499D02*
X152988948Y-90037880D01*
X153978897Y-89047931D01*
X154438516Y-89507550D01*
X153448567Y-90497499D01*
X153448567Y-90497499D01*
G37*
G36*
X153095014Y-90143945D02*
X152635395Y-89684326D01*
X153625344Y-88694377D01*
X154084963Y-89153996D01*
X153095014Y-90143945D01*
X153095014Y-90143945D01*
G37*
G36*
X152741460Y-89790392D02*
X152281841Y-89330773D01*
X153271790Y-88340824D01*
X153731409Y-88800443D01*
X152741460Y-89790392D01*
X152741460Y-89790392D01*
G37*
G36*
X152387907Y-89436838D02*
X151928288Y-88977219D01*
X152918237Y-87987270D01*
X153377856Y-88446889D01*
X152387907Y-89436838D01*
X152387907Y-89436838D01*
G37*
G36*
X152034353Y-89083285D02*
X151574734Y-88623666D01*
X152564683Y-87633717D01*
X153024302Y-88093336D01*
X152034353Y-89083285D01*
X152034353Y-89083285D01*
G37*
G36*
X151680800Y-88729732D02*
X151221181Y-88270113D01*
X152211130Y-87280164D01*
X152670749Y-87739783D01*
X151680800Y-88729732D01*
X151680800Y-88729732D01*
G37*
G36*
X151327247Y-88376178D02*
X150867628Y-87916559D01*
X151857577Y-86926610D01*
X152317196Y-87386229D01*
X151327247Y-88376178D01*
X151327247Y-88376178D01*
G37*
G36*
X150973693Y-88022625D02*
X150514074Y-87563006D01*
X151504023Y-86573057D01*
X151963642Y-87032676D01*
X150973693Y-88022625D01*
X150973693Y-88022625D01*
G37*
G36*
X149205926Y-87563006D02*
X148746307Y-88022625D01*
X147756358Y-87032676D01*
X148215977Y-86573057D01*
X149205926Y-87563006D01*
X149205926Y-87563006D01*
G37*
G36*
X148852372Y-87916559D02*
X148392753Y-88376178D01*
X147402804Y-87386229D01*
X147862423Y-86926610D01*
X148852372Y-87916559D01*
X148852372Y-87916559D01*
G37*
G36*
X148498819Y-88270113D02*
X148039200Y-88729732D01*
X147049251Y-87739783D01*
X147508870Y-87280164D01*
X148498819Y-88270113D01*
X148498819Y-88270113D01*
G37*
G36*
X148145266Y-88623666D02*
X147685647Y-89083285D01*
X146695698Y-88093336D01*
X147155317Y-87633717D01*
X148145266Y-88623666D01*
X148145266Y-88623666D01*
G37*
G36*
X147791712Y-88977219D02*
X147332093Y-89436838D01*
X146342144Y-88446889D01*
X146801763Y-87987270D01*
X147791712Y-88977219D01*
X147791712Y-88977219D01*
G37*
G36*
X147438159Y-89330773D02*
X146978540Y-89790392D01*
X145988591Y-88800443D01*
X146448210Y-88340824D01*
X147438159Y-89330773D01*
X147438159Y-89330773D01*
G37*
G36*
X147084605Y-89684326D02*
X146624986Y-90143945D01*
X145635037Y-89153996D01*
X146094656Y-88694377D01*
X147084605Y-89684326D01*
X147084605Y-89684326D01*
G37*
G36*
X146731052Y-90037880D02*
X146271433Y-90497499D01*
X145281484Y-89507550D01*
X145741103Y-89047931D01*
X146731052Y-90037880D01*
X146731052Y-90037880D01*
G37*
G36*
X146377499Y-90391433D02*
X145917880Y-90851052D01*
X144927931Y-89861103D01*
X145387550Y-89401484D01*
X146377499Y-90391433D01*
X146377499Y-90391433D01*
G37*
G36*
X146023945Y-90744986D02*
X145564326Y-91204605D01*
X144574377Y-90214656D01*
X145033996Y-89755037D01*
X146023945Y-90744986D01*
X146023945Y-90744986D01*
G37*
G36*
X145670392Y-91098540D02*
X145210773Y-91558159D01*
X144220824Y-90568210D01*
X144680443Y-90108591D01*
X145670392Y-91098540D01*
X145670392Y-91098540D01*
G37*
G36*
X145316838Y-91452093D02*
X144857219Y-91911712D01*
X143867270Y-90921763D01*
X144326889Y-90462144D01*
X145316838Y-91452093D01*
X145316838Y-91452093D01*
G37*
G36*
X144963285Y-91805647D02*
X144503666Y-92265266D01*
X143513717Y-91275317D01*
X143973336Y-90815698D01*
X144963285Y-91805647D01*
X144963285Y-91805647D01*
G37*
G36*
X144609732Y-92159200D02*
X144150113Y-92618819D01*
X143160164Y-91628870D01*
X143619783Y-91169251D01*
X144609732Y-92159200D01*
X144609732Y-92159200D01*
G37*
G36*
X144256178Y-92512753D02*
X143796559Y-92972372D01*
X142806610Y-91982423D01*
X143266229Y-91522804D01*
X144256178Y-92512753D01*
X144256178Y-92512753D01*
G37*
G36*
X143902625Y-92866307D02*
X143443006Y-93325926D01*
X142453057Y-92335977D01*
X142912676Y-91876358D01*
X143902625Y-92866307D01*
X143902625Y-92866307D01*
G37*
D19*
X167640000Y-76962000D03*
D20*
X167640000Y-70358000D03*
X165354000Y-70358000D03*
X169926000Y-70358000D03*
D15*
X129540000Y-83820000D03*
D16*
X129540000Y-81280000D03*
D21*
X114300000Y-106680000D03*
D22*
X119380000Y-76200000D03*
D23*
X121920000Y-76200000D03*
X124460000Y-76200000D03*
X127000000Y-76200000D03*
D24*
X123360000Y-88900000D03*
X125560000Y-88900000D03*
X140800000Y-104140000D03*
X138600000Y-104140000D03*
D25*
X134620000Y-110320000D03*
X134620000Y-108120000D03*
D24*
X156040000Y-109220000D03*
X153840000Y-109220000D03*
X143680000Y-109220000D03*
X145880000Y-109220000D03*
D25*
X165100000Y-108120000D03*
X165100000Y-110320000D03*
D24*
X161120000Y-104140000D03*
X158920000Y-104140000D03*
X174160000Y-91440000D03*
X176360000Y-91440000D03*
X154348000Y-104140000D03*
X156548000Y-104140000D03*
X143680000Y-104648000D03*
X145880000Y-104648000D03*
D25*
X127000000Y-92880000D03*
X127000000Y-95080000D03*
D24*
X133520000Y-88900000D03*
X135720000Y-88900000D03*
D25*
X160020000Y-77640000D03*
X160020000Y-79840000D03*
D26*
X140650000Y-108219240D03*
X138750000Y-108219240D03*
X139700000Y-110218220D03*
X150810000Y-105679240D03*
X148910000Y-105679240D03*
X149860000Y-107678220D03*
X160970000Y-108219240D03*
X159070000Y-108219240D03*
X160020000Y-110218220D03*
D27*
X175260000Y-78740000D03*
D28*
X175260000Y-81280000D03*
X175260000Y-83820000D03*
X175260000Y-86360000D03*
D15*
X175260000Y-119380000D03*
D16*
X177800000Y-119380000D03*
D29*
X164592000Y-83820000D03*
X170688000Y-83820000D03*
X175260000Y-68072000D03*
X175260000Y-74168000D03*
D15*
X121920000Y-96520000D03*
D16*
X121920000Y-93980000D03*
D22*
X119380000Y-83820000D03*
D23*
X121920000Y-83820000D03*
X124460000Y-83820000D03*
D30*
X118630700Y-88900000D03*
X120129300Y-88900000D03*
X181089300Y-91440000D03*
X179590700Y-91440000D03*
X138950700Y-88900000D03*
X140449300Y-88900000D03*
X162560000Y-79489300D03*
X162560000Y-77990700D03*
D31*
X159070000Y-91440000D03*
X160970000Y-91440000D03*
D32*
X160020000Y-100010000D03*
X160020000Y-98110000D03*
X162560000Y-97470000D03*
X162560000Y-95570000D03*
D31*
X159070000Y-88900000D03*
X160970000Y-88900000D03*
X142306000Y-100584000D03*
X144206000Y-100584000D03*
X137226000Y-93980000D03*
X139126000Y-93980000D03*
D33*
X140439140Y-83820000D03*
X144040860Y-83820000D03*
X169440860Y-91440000D03*
X165839140Y-91440000D03*
X159280860Y-83820000D03*
X155679140Y-83820000D03*
D22*
X137160000Y-73660000D03*
D23*
X134620000Y-73660000D03*
X132080000Y-73660000D03*
D27*
X175260000Y-104140000D03*
D28*
X175260000Y-106680000D03*
X175260000Y-109220000D03*
X175260000Y-111760000D03*
X175260000Y-114300000D03*
D34*
X114300000Y-101110000D03*
X114300000Y-91930000D03*
D35*
X121920000Y-109220000D03*
D36*
X124460000Y-109220000D03*
X121920000Y-111760000D03*
X124460000Y-111760000D03*
X121920000Y-114300000D03*
X124460000Y-114300000D03*
D37*
X152331600Y-106240500D03*
X157634000Y-110587500D03*
X163284100Y-77183000D03*
X146811600Y-105567000D03*
X146887200Y-109995300D03*
X141614200Y-108135600D03*
X160923600Y-109159100D03*
X142389300Y-104803400D03*
X143064700Y-101616300D03*
X168783000Y-70358000D03*
X141721500Y-85138600D03*
X140684400Y-87990400D03*
X170295500Y-82303900D03*
X159060000Y-79840000D03*
X161645300Y-79489300D03*
X142219600Y-97069100D03*
X157799200Y-104140000D03*
X145372000Y-99603100D03*
X159565600Y-106669700D03*
X146769700Y-97499200D03*
X146440000Y-108165700D03*
X147754000Y-105134700D03*
X144749200Y-98715000D03*
X140967400Y-106890800D03*
X146153700Y-101418600D03*
X151069100Y-88709700D03*
X116332000Y-81216500D03*
X172783500Y-70485000D03*
X172402500Y-93599000D03*
X156527500Y-102489000D03*
X124333000Y-80264000D03*
M02*
