%TF.GenerationSoftware,KiCad,Pcbnew,4.0.2+dfsg1-stable*%
%TF.CreationDate,2019-04-18T20:40:54+02:00*%
%TF.ProjectId,StandAlone-Adapter,5374616E64416C6F6E652D4164617074,rev?*%
%TF.FileFunction,Copper,L1,Top,Signal*%
%FSLAX46Y46*%
G04 Gerber Fmt 4.6, Leading zero omitted, Abs format (unit mm)*
G04 Created by KiCad (PCBNEW 4.0.2+dfsg1-stable) date Thu 18 Apr 2019 20:40:54 CEST*
%MOMM*%
G01*
G04 APERTURE LIST*
%ADD10C,0.100000*%
%ADD11R,1.000000X0.250000*%
%ADD12R,0.250000X1.000000*%
%ADD13C,4.064000*%
%ADD14R,3.657600X2.032000*%
%ADD15R,1.016000X2.032000*%
%ADD16C,1.998980*%
%ADD17R,0.800100X0.800100*%
%ADD18C,1.270000*%
%ADD19C,3.600000*%
%ADD20R,1.597660X1.800860*%
%ADD21R,1.800860X1.597660*%
%ADD22R,2.000000X1.700000*%
%ADD23R,1.700000X2.000000*%
%ADD24C,1.501140*%
%ADD25C,2.999740*%
%ADD26C,1.500000*%
%ADD27R,2.000000X1.600000*%
%ADD28R,1.600000X2.000000*%
%ADD29R,1.727200X2.032000*%
%ADD30O,1.727200X2.032000*%
%ADD31R,2.032000X2.032000*%
%ADD32O,2.032000X2.032000*%
%ADD33R,1.600000X2.180000*%
%ADD34R,2.032000X1.727200*%
%ADD35O,2.032000X1.727200*%
%ADD36R,1.727200X1.727200*%
%ADD37O,1.727200X1.727200*%
%ADD38R,2.999740X1.501140*%
%ADD39R,1.501140X2.999740*%
%ADD40C,0.600000*%
%ADD41C,0.250000*%
%ADD42C,0.254000*%
G04 APERTURE END LIST*
D10*
D11*
X144160000Y-90230000D03*
X144160000Y-90730000D03*
X144160000Y-91230000D03*
X144160000Y-91730000D03*
X144160000Y-92230000D03*
X144160000Y-92730000D03*
X144160000Y-93230000D03*
X144160000Y-93730000D03*
X144160000Y-94230000D03*
X144160000Y-94730000D03*
X144160000Y-95230000D03*
X144160000Y-95730000D03*
X144160000Y-96230000D03*
X144160000Y-96730000D03*
X144160000Y-97230000D03*
X144160000Y-97730000D03*
D12*
X146110000Y-99680000D03*
X146610000Y-99680000D03*
X147110000Y-99680000D03*
X147610000Y-99680000D03*
X148110000Y-99680000D03*
X148610000Y-99680000D03*
X149110000Y-99680000D03*
X149610000Y-99680000D03*
X150110000Y-99680000D03*
X150610000Y-99680000D03*
X151110000Y-99680000D03*
X151610000Y-99680000D03*
X152110000Y-99680000D03*
X152610000Y-99680000D03*
X153110000Y-99680000D03*
X153610000Y-99680000D03*
D11*
X155560000Y-97730000D03*
X155560000Y-97230000D03*
X155560000Y-96730000D03*
X155560000Y-96230000D03*
X155560000Y-95730000D03*
X155560000Y-95230000D03*
X155560000Y-94730000D03*
X155560000Y-94230000D03*
X155560000Y-93730000D03*
X155560000Y-93230000D03*
X155560000Y-92730000D03*
X155560000Y-92230000D03*
X155560000Y-91730000D03*
X155560000Y-91230000D03*
X155560000Y-90730000D03*
X155560000Y-90230000D03*
D12*
X153610000Y-88280000D03*
X153110000Y-88280000D03*
X152610000Y-88280000D03*
X152110000Y-88280000D03*
X151610000Y-88280000D03*
X151110000Y-88280000D03*
X150610000Y-88280000D03*
X150110000Y-88280000D03*
X149610000Y-88280000D03*
X149110000Y-88280000D03*
X148610000Y-88280000D03*
X148110000Y-88280000D03*
X147610000Y-88280000D03*
X147110000Y-88280000D03*
X146610000Y-88280000D03*
X146110000Y-88280000D03*
D13*
X113030000Y-120650000D03*
X184150000Y-120650000D03*
X184150000Y-69850000D03*
X113030000Y-69850000D03*
D14*
X167767000Y-70612000D03*
D15*
X167767000Y-77216000D03*
X170053000Y-77216000D03*
X165481000Y-77216000D03*
D16*
X113030000Y-86360000D03*
D17*
X134604760Y-108646000D03*
X134604760Y-106746000D03*
X132605780Y-107696000D03*
X140954760Y-108392000D03*
X140954760Y-106492000D03*
X138955780Y-107442000D03*
X153146760Y-108900000D03*
X153146760Y-107000000D03*
X151147780Y-107950000D03*
D18*
X152285000Y-114290000D03*
X149745000Y-114290000D03*
X153555000Y-111760000D03*
D19*
X155460000Y-120640000D03*
X147840000Y-120640000D03*
D18*
X151015000Y-111760000D03*
D20*
X176171860Y-73406000D03*
X173332140Y-73406000D03*
D21*
X166370000Y-89049860D03*
X166370000Y-86210140D03*
D20*
X179428140Y-90424000D03*
X182267860Y-90424000D03*
D21*
X138938000Y-81384140D03*
X138938000Y-84223860D03*
D22*
X183356000Y-73660000D03*
X179356000Y-73660000D03*
D23*
X163068000Y-84614000D03*
X163068000Y-88614000D03*
X123190000Y-99790000D03*
X123190000Y-95790000D03*
X123190000Y-92805000D03*
X123190000Y-88805000D03*
X118745000Y-92805000D03*
X118745000Y-88805000D03*
D22*
X170466000Y-93726000D03*
X174466000Y-93726000D03*
X160750000Y-107188000D03*
X156750000Y-107188000D03*
X163544000Y-111760000D03*
X159544000Y-111760000D03*
X148304000Y-106934000D03*
X144304000Y-106934000D03*
X142716000Y-111506000D03*
X138716000Y-111506000D03*
X135350000Y-111506000D03*
X131350000Y-111506000D03*
X129572000Y-103886000D03*
X133572000Y-103886000D03*
D23*
X134366000Y-84296000D03*
X134366000Y-80296000D03*
D24*
X145287140Y-78742120D03*
X147827140Y-78742120D03*
X149859140Y-78742120D03*
X152399140Y-78742120D03*
D25*
X142239140Y-76075120D03*
X155955140Y-76075120D03*
D26*
X138684000Y-92964000D03*
X138684000Y-97844000D03*
D27*
X155416000Y-85852000D03*
X151416000Y-85852000D03*
X144304000Y-85852000D03*
X148304000Y-85852000D03*
X144304000Y-102616000D03*
X148304000Y-102616000D03*
D28*
X158496000Y-91980000D03*
X158496000Y-95980000D03*
D27*
X136684000Y-103124000D03*
X140684000Y-103124000D03*
X136684000Y-87376000D03*
X140684000Y-87376000D03*
D29*
X119380000Y-76200000D03*
D30*
X121920000Y-76200000D03*
X124460000Y-76200000D03*
X127000000Y-76200000D03*
D29*
X119380000Y-83820000D03*
D30*
X121920000Y-83820000D03*
X124460000Y-83820000D03*
D31*
X129540000Y-86995000D03*
D32*
X129540000Y-84455000D03*
D29*
X137160000Y-70485000D03*
D30*
X134620000Y-70485000D03*
X132080000Y-70485000D03*
D33*
X114300000Y-101110000D03*
X114300000Y-91930000D03*
D31*
X161290000Y-71120000D03*
D32*
X161290000Y-73660000D03*
D34*
X175260000Y-78740000D03*
D35*
X175260000Y-81280000D03*
X175260000Y-83820000D03*
X175260000Y-86360000D03*
D34*
X175260000Y-104140000D03*
D35*
X175260000Y-106680000D03*
X175260000Y-109220000D03*
X175260000Y-111760000D03*
X175260000Y-114300000D03*
D31*
X175260000Y-119380000D03*
D32*
X177800000Y-119380000D03*
D31*
X130175000Y-93345000D03*
D32*
X130175000Y-95885000D03*
D36*
X121920000Y-109220000D03*
D37*
X124460000Y-109220000D03*
X121920000Y-111760000D03*
X124460000Y-111760000D03*
X121920000Y-114300000D03*
X124460000Y-114300000D03*
D29*
X137160000Y-74930000D03*
D30*
X134620000Y-74930000D03*
X132080000Y-74930000D03*
D28*
X170434000Y-81058000D03*
X170434000Y-85058000D03*
X160020000Y-99600000D03*
X160020000Y-103600000D03*
X118745000Y-95790000D03*
X118745000Y-99790000D03*
X167894000Y-100362000D03*
X167894000Y-104362000D03*
D27*
X174720000Y-90170000D03*
X170720000Y-90170000D03*
D22*
X147352000Y-83058000D03*
X151352000Y-83058000D03*
X155924000Y-102616000D03*
X151924000Y-102616000D03*
X162592000Y-92710000D03*
X166592000Y-92710000D03*
X162592000Y-96012000D03*
X166592000Y-96012000D03*
D38*
X173261020Y-68834000D03*
X177258980Y-68834000D03*
X160815020Y-81026000D03*
X164812980Y-81026000D03*
D39*
X163830000Y-104106980D03*
X163830000Y-100109020D03*
D40*
X150618600Y-109234600D03*
X152560700Y-110799600D03*
X154363500Y-104248400D03*
X154250500Y-100585300D03*
X140684000Y-86068300D03*
X145169000Y-96230000D03*
X147110000Y-98283700D03*
X145411200Y-87659500D03*
X136896100Y-88700800D03*
X142963500Y-92774600D03*
X140249200Y-110540800D03*
X139131500Y-106521900D03*
X149925000Y-104859200D03*
X145640200Y-95079900D03*
X142277500Y-105770600D03*
X143061800Y-94230000D03*
X133605300Y-107060000D03*
X142266400Y-95548800D03*
X132448500Y-110134100D03*
X139334700Y-95136400D03*
X127347500Y-95255100D03*
X138117300Y-95676700D03*
X146778100Y-103357200D03*
X125341000Y-99656900D03*
X146990000Y-84419700D03*
X148109900Y-89331300D03*
X166592000Y-91344300D03*
X166196700Y-94648800D03*
D41*
X175260000Y-104140000D02*
X175260000Y-105328900D01*
X132605800Y-107696000D02*
X132605800Y-106970600D01*
X133572000Y-103886000D02*
X133572000Y-105061300D01*
X151015000Y-111461000D02*
X151015000Y-111760000D01*
X152791900Y-109684100D02*
X151015000Y-111461000D01*
X161968200Y-109684100D02*
X152791900Y-109684100D01*
X162418500Y-109233800D02*
X161968200Y-109684100D01*
X169529300Y-109233800D02*
X162418500Y-109233800D01*
X173434200Y-105328900D02*
X169529300Y-109233800D01*
X175260000Y-105328900D02*
X173434200Y-105328900D01*
X124261400Y-107696000D02*
X132605800Y-107696000D01*
X123108900Y-108848500D02*
X124261400Y-107696000D01*
X123108900Y-109220000D02*
X123108900Y-108848500D01*
X121920000Y-109220000D02*
X123108900Y-109220000D01*
X132605800Y-106027500D02*
X132605800Y-106970600D01*
X133572000Y-105061300D02*
X132605800Y-106027500D01*
X124460000Y-109220000D02*
X125648900Y-109220000D01*
X151147800Y-107950000D02*
X151147800Y-108675300D01*
X150618600Y-109204500D02*
X151147800Y-108675300D01*
X150618600Y-109234600D02*
X150618600Y-109204500D01*
X159544000Y-111760000D02*
X158218700Y-111760000D01*
X157258300Y-110799600D02*
X158218700Y-111760000D01*
X152560700Y-110799600D02*
X157258300Y-110799600D01*
X162652300Y-109977000D02*
X160869300Y-111760000D01*
X171963000Y-109977000D02*
X162652300Y-109977000D01*
X174071100Y-107868900D02*
X171963000Y-109977000D01*
X175260000Y-107868900D02*
X174071100Y-107868900D01*
X175260000Y-106680000D02*
X175260000Y-107868900D01*
X159544000Y-111760000D02*
X160869300Y-111760000D01*
X125845400Y-109416500D02*
X125648900Y-109220000D01*
X150436700Y-109416500D02*
X125845400Y-109416500D01*
X150618600Y-109234600D02*
X150436700Y-109416500D01*
X173261000Y-68834000D02*
X173261000Y-69909900D01*
X124460000Y-111760000D02*
X121920000Y-111760000D01*
X173261000Y-72109200D02*
X173332100Y-72180300D01*
X173261000Y-69909900D02*
X173261000Y-72109200D01*
X173332100Y-73406000D02*
X173332100Y-72180300D01*
X120568900Y-75679900D02*
X120568900Y-76200000D01*
X121401100Y-74847700D02*
X120568900Y-75679900D01*
X130808800Y-74847700D02*
X121401100Y-74847700D01*
X130891100Y-74930000D02*
X130808800Y-74847700D01*
X132080000Y-74930000D02*
X130891100Y-74930000D01*
X119380000Y-76200000D02*
X120568900Y-76200000D01*
X170466000Y-91549300D02*
X170466000Y-93726000D01*
X170720000Y-91295300D02*
X170466000Y-91549300D01*
X160020000Y-103600000D02*
X160582700Y-103600000D01*
X160582700Y-103600000D02*
X161145300Y-103600000D01*
X156385300Y-87946600D02*
X156385300Y-90730000D01*
X155416000Y-86977300D02*
X156385300Y-87946600D01*
X155416000Y-85852000D02*
X155416000Y-86977300D01*
X155560000Y-90730000D02*
X156385300Y-90730000D01*
X170720000Y-90732600D02*
X170720000Y-91295300D01*
X146610000Y-88280000D02*
X146610000Y-89105300D01*
X132080000Y-74930000D02*
X133268900Y-74930000D01*
X145287100Y-78742100D02*
X146400600Y-77628600D01*
X114300000Y-86360000D02*
X113030000Y-86360000D01*
X116840000Y-83820000D02*
X114300000Y-86360000D01*
X119380000Y-83820000D02*
X116840000Y-83820000D01*
X130175000Y-95885000D02*
X131516300Y-95885000D01*
X144160000Y-95730000D02*
X143334700Y-95730000D01*
X145007300Y-85852000D02*
X146610000Y-87454700D01*
X144304000Y-85852000D02*
X145007300Y-85852000D01*
X146610000Y-88280000D02*
X146610000Y-87454700D01*
X148234700Y-90730000D02*
X155560000Y-90730000D01*
X146610000Y-89105300D02*
X148234700Y-90730000D01*
X173332100Y-73406000D02*
X172208000Y-73406000D01*
X165481000Y-77216000D02*
X165481000Y-75987300D01*
X170303000Y-75311000D02*
X172208000Y-73406000D01*
X165481000Y-75311000D02*
X170303000Y-75311000D01*
X165481000Y-75987300D02*
X165481000Y-75311000D01*
X162631300Y-72461300D02*
X162631300Y-71120000D01*
X165481000Y-75311000D02*
X162631300Y-72461300D01*
X161290000Y-71120000D02*
X162631300Y-71120000D01*
X153430200Y-100585300D02*
X154250500Y-100585300D01*
X153110000Y-100265100D02*
X153430200Y-100585300D01*
X153110000Y-99680000D02*
X153110000Y-100265100D01*
X118745000Y-95790000D02*
X119870300Y-95790000D01*
X130175000Y-95885000D02*
X128833700Y-95885000D01*
X132401300Y-71826300D02*
X132080000Y-71826300D01*
X134126900Y-73551900D02*
X132401300Y-71826300D01*
X142323900Y-73551900D02*
X134126900Y-73551900D01*
X146400600Y-77628600D02*
X142323900Y-73551900D01*
X133268900Y-74409900D02*
X133268900Y-74930000D01*
X134126900Y-73551900D02*
X133268900Y-74409900D01*
X132080000Y-70485000D02*
X132080000Y-71826300D01*
X158278200Y-71120000D02*
X161290000Y-71120000D01*
X152290200Y-77108000D02*
X158278200Y-71120000D01*
X152290100Y-77108000D02*
X152290200Y-77108000D01*
X146921200Y-77108000D02*
X152290100Y-77108000D01*
X146400600Y-77628600D02*
X146921200Y-77108000D01*
X155416000Y-80233900D02*
X155416000Y-85852000D01*
X152290200Y-77108000D02*
X155416000Y-80233900D01*
X160815000Y-81026000D02*
X160815000Y-81049500D01*
X165481000Y-77216000D02*
X165481000Y-78557300D01*
X160815000Y-81049500D02*
X161466500Y-81049500D01*
X163958700Y-78557300D02*
X161466500Y-81049500D01*
X165481000Y-78557300D02*
X163958700Y-78557300D01*
X158496000Y-90068100D02*
X158496000Y-91980000D01*
X162354000Y-86210100D02*
X158496000Y-90068100D01*
X161466500Y-85322600D02*
X162354000Y-86210100D01*
X161466500Y-81049500D02*
X161466500Y-85322600D01*
X162354000Y-86210100D02*
X166370000Y-86210100D01*
X167894000Y-104362000D02*
X169019300Y-104362000D01*
X170466000Y-93726000D02*
X170466000Y-94901300D01*
X175260000Y-111760000D02*
X175260000Y-110571100D01*
X170466000Y-99762100D02*
X170466000Y-94901300D01*
X169019300Y-101208800D02*
X170466000Y-99762100D01*
X169019300Y-104362000D02*
X169019300Y-101208800D01*
X175756400Y-110571100D02*
X175260000Y-110571100D01*
X176628900Y-109698600D02*
X175756400Y-110571100D01*
X176628900Y-103127500D02*
X176628900Y-109698600D01*
X173263500Y-99762100D02*
X176628900Y-103127500D01*
X170466000Y-99762100D02*
X173263500Y-99762100D01*
X172797300Y-83820000D02*
X175260000Y-83820000D01*
X171559300Y-85058000D02*
X172797300Y-83820000D01*
X170434000Y-85058000D02*
X171559300Y-85058000D01*
X118745000Y-95790000D02*
X117619700Y-95790000D01*
X114300000Y-86360000D02*
X114300000Y-91930000D01*
X115425300Y-93595600D02*
X117619700Y-95790000D01*
X115425300Y-91930000D02*
X115425300Y-93595600D01*
X114300000Y-91930000D02*
X115425300Y-91930000D01*
X140684000Y-87376000D02*
X140684000Y-86068300D01*
X166370000Y-86210100D02*
X166982900Y-86210100D01*
X170434000Y-85058000D02*
X169308700Y-85058000D01*
X170720000Y-90732600D02*
X170720000Y-90170000D01*
X168156600Y-86481300D02*
X168156600Y-86210100D01*
X170720000Y-89044700D02*
X168156600Y-86481300D01*
X166982900Y-86210100D02*
X168156600Y-86210100D01*
X168156600Y-86210100D02*
X169308700Y-85058000D01*
X170720000Y-90170000D02*
X170720000Y-89044700D01*
X121272300Y-94388000D02*
X119870300Y-95790000D01*
X127364800Y-94388000D02*
X121272300Y-94388000D01*
X128833700Y-95856900D02*
X127364800Y-94388000D01*
X128833700Y-95885000D02*
X128833700Y-95856900D01*
X159934300Y-104248400D02*
X154363500Y-104248400D01*
X160582700Y-103600000D02*
X159934300Y-104248400D01*
X144796600Y-104233900D02*
X144304000Y-103741300D01*
X150184100Y-104233900D02*
X144796600Y-104233900D01*
X150198600Y-104248400D02*
X150184100Y-104233900D01*
X154363500Y-104248400D02*
X150198600Y-104248400D01*
X140684000Y-103124000D02*
X144304000Y-103124000D01*
X144304000Y-102616000D02*
X144304000Y-103124000D01*
X144304000Y-103124000D02*
X144304000Y-103741300D01*
X161652300Y-104107000D02*
X163830000Y-104107000D01*
X161145300Y-103600000D02*
X161652300Y-104107000D01*
X166513700Y-104107000D02*
X166768700Y-104362000D01*
X163830000Y-104107000D02*
X166513700Y-104107000D01*
X167894000Y-104362000D02*
X166768700Y-104362000D01*
X138353100Y-94511100D02*
X137195200Y-95669000D01*
X140344400Y-94511100D02*
X138353100Y-94511100D01*
X142067300Y-96234000D02*
X140344400Y-94511100D01*
X142830700Y-96234000D02*
X142067300Y-96234000D01*
X143334700Y-95730000D02*
X142830700Y-96234000D01*
X136979200Y-95885000D02*
X137195200Y-95669000D01*
X131516300Y-95885000D02*
X136979200Y-95885000D01*
X146610000Y-98674100D02*
X146610000Y-99680000D01*
X146116200Y-98180300D02*
X146610000Y-98674100D01*
X141539500Y-98180300D02*
X146116200Y-98180300D01*
X139665500Y-96306300D02*
X141539500Y-98180300D01*
X137832500Y-96306300D02*
X139665500Y-96306300D01*
X137195200Y-95669000D02*
X137832500Y-96306300D01*
X136066900Y-77388900D02*
X138938000Y-80260000D01*
X129377800Y-77388900D02*
X136066900Y-77388900D01*
X128188900Y-76200000D02*
X129377800Y-77388900D01*
X127000000Y-76200000D02*
X128188900Y-76200000D01*
X138938000Y-81384100D02*
X138938000Y-80260000D01*
X153610000Y-99680000D02*
X153610000Y-98854700D01*
X155560000Y-90230000D02*
X154734700Y-90230000D01*
X154734700Y-87845400D02*
X154734700Y-90230000D01*
X152741300Y-85852000D02*
X154734700Y-87845400D01*
X151416000Y-85852000D02*
X152741300Y-85852000D01*
X153056000Y-108174600D02*
X153146800Y-108174600D01*
X151815400Y-106934000D02*
X153056000Y-108174600D01*
X149629300Y-106934000D02*
X151815400Y-106934000D01*
X153146800Y-108900000D02*
X153146800Y-108174600D01*
X154408800Y-108363300D02*
X153872100Y-108900000D01*
X160750000Y-108363300D02*
X154408800Y-108363300D01*
X160750000Y-107188000D02*
X160750000Y-108363300D01*
X153146800Y-108900000D02*
X153872100Y-108900000D01*
X151416000Y-85852000D02*
X148304000Y-85852000D01*
X148304000Y-85852000D02*
X146978700Y-85852000D01*
X138938000Y-81384100D02*
X140163700Y-81384100D01*
X153610000Y-98854700D02*
X147110000Y-98854700D01*
X147110000Y-99267300D02*
X147110000Y-98854700D01*
X135350000Y-111506000D02*
X135350000Y-110330700D01*
X148304000Y-106934000D02*
X148966700Y-106934000D01*
X148966700Y-106934000D02*
X149629300Y-106934000D01*
X146978700Y-85555100D02*
X146978700Y-85852000D01*
X142807700Y-81384100D02*
X146978700Y-85555100D01*
X140163700Y-81384100D02*
X142807700Y-81384100D01*
X160020000Y-99600000D02*
X158894700Y-99600000D01*
X158149400Y-97651900D02*
X158149400Y-98854700D01*
X158496000Y-97305300D02*
X158149400Y-97651900D01*
X158894700Y-99600000D02*
X158149400Y-98854700D01*
X158496000Y-95980000D02*
X158496000Y-97305300D01*
X135800300Y-109880400D02*
X135350000Y-110330700D01*
X151441000Y-109880400D02*
X135800300Y-109880400D01*
X152421400Y-108900000D02*
X151441000Y-109880400D01*
X153146800Y-108900000D02*
X152421400Y-108900000D01*
X161654300Y-100109000D02*
X161145300Y-99600000D01*
X163830000Y-100109000D02*
X161654300Y-100109000D01*
X160020000Y-99600000D02*
X161145300Y-99600000D01*
X118745000Y-92805000D02*
X119920300Y-92805000D01*
X123190000Y-92805000D02*
X119920300Y-92805000D01*
X123190000Y-92805000D02*
X124365300Y-92805000D01*
X144160000Y-96230000D02*
X145169000Y-96230000D01*
X125166700Y-92003600D02*
X124365300Y-92805000D01*
X137859200Y-92003600D02*
X125166700Y-92003600D01*
X140090000Y-89772800D02*
X137859200Y-92003600D01*
X144813100Y-89772800D02*
X140090000Y-89772800D01*
X146310800Y-91270500D02*
X144813100Y-89772800D01*
X146310800Y-95293700D02*
X146310800Y-91270500D01*
X145374500Y-96230000D02*
X146310800Y-95293700D01*
X145169000Y-96230000D02*
X145374500Y-96230000D01*
X157896900Y-99107200D02*
X158149400Y-98854700D01*
X154125000Y-99107200D02*
X157896900Y-99107200D01*
X153872500Y-98854700D02*
X154125000Y-99107200D01*
X153610000Y-98854700D02*
X153872500Y-98854700D01*
X163088200Y-83288700D02*
X163068000Y-83288700D01*
X164813000Y-81563900D02*
X163088200Y-83288700D01*
X163068000Y-84614000D02*
X163068000Y-83288700D01*
X164813000Y-81294900D02*
X164813000Y-81563900D01*
X147110000Y-98283700D02*
X147110000Y-98854700D01*
X145489500Y-87659500D02*
X146110000Y-88280000D01*
X145411200Y-87659500D02*
X145489500Y-87659500D01*
X134604800Y-108646000D02*
X135330100Y-108646000D01*
X147508700Y-108392000D02*
X140954800Y-108392000D01*
X148966700Y-106934000D02*
X147508700Y-108392000D01*
X141088700Y-67745200D02*
X138348900Y-70485000D01*
X174966500Y-67745200D02*
X141088700Y-67745200D01*
X175086300Y-67865000D02*
X174966500Y-67745200D01*
X175086300Y-71550200D02*
X175086300Y-67865000D01*
X174456300Y-72180200D02*
X175086300Y-71550200D01*
X174456300Y-74493700D02*
X174456300Y-72180200D01*
X173075300Y-75874700D02*
X174456300Y-74493700D01*
X167767000Y-75874700D02*
X173075300Y-75874700D01*
X137160000Y-70485000D02*
X138348900Y-70485000D01*
X167767000Y-76545300D02*
X167767000Y-75874700D01*
X167767000Y-76545300D02*
X167767000Y-77216000D01*
X169308700Y-80099000D02*
X169308700Y-81058000D01*
X167767000Y-78557300D02*
X169308700Y-80099000D01*
X167767000Y-77216000D02*
X167767000Y-78557300D01*
X170434000Y-81058000D02*
X169308700Y-81058000D01*
X164813000Y-81026000D02*
X164813000Y-81294900D01*
X166638200Y-79686100D02*
X167767000Y-78557300D01*
X166638200Y-81026000D02*
X166638200Y-79686100D01*
X164813000Y-81026000D02*
X166638200Y-81026000D01*
X135330100Y-108646000D02*
X137091000Y-106885100D01*
X138597900Y-108392000D02*
X140954800Y-108392000D01*
X137091000Y-106885100D02*
X138597900Y-108392000D01*
X123190000Y-95790000D02*
X124365300Y-95790000D01*
X147110000Y-99267300D02*
X147110000Y-99680000D01*
X147318600Y-100505300D02*
X148304000Y-101490700D01*
X147110000Y-100505300D02*
X147318600Y-100505300D01*
X148304000Y-102616000D02*
X148304000Y-101490700D01*
X147110000Y-99680000D02*
X147110000Y-100392700D01*
X147110000Y-100392700D02*
X147110000Y-100505300D01*
X137217100Y-104884900D02*
X137091000Y-104884900D01*
X138230300Y-103871700D02*
X137217100Y-104884900D01*
X138230300Y-103296900D02*
X138230300Y-103871700D01*
X141021900Y-100505300D02*
X138230300Y-103296900D01*
X147110000Y-100505300D02*
X141021900Y-100505300D01*
X137091000Y-106885100D02*
X137091000Y-104884900D01*
X127039900Y-98464600D02*
X124365300Y-95790000D01*
X130460700Y-98464600D02*
X127039900Y-98464600D01*
X134897300Y-102901200D02*
X130460700Y-98464600D01*
X134897300Y-103634500D02*
X134897300Y-102901200D01*
X136147700Y-104884900D02*
X134897300Y-103634500D01*
X137091000Y-104884900D02*
X136147700Y-104884900D01*
X149287400Y-79818100D02*
X151352000Y-81882700D01*
X139656700Y-79818100D02*
X149287400Y-79818100D01*
X135808900Y-75970300D02*
X139656700Y-79818100D01*
X135808900Y-74930000D02*
X135808900Y-75970300D01*
X134620000Y-74930000D02*
X135808900Y-74930000D01*
X151352000Y-83058000D02*
X151352000Y-81882700D01*
X163719800Y-113111100D02*
X163544000Y-112935300D01*
X175260000Y-113111100D02*
X163719800Y-113111100D01*
X175260000Y-114300000D02*
X175260000Y-113111100D01*
X163544000Y-111760000D02*
X163544000Y-112935300D01*
X144324700Y-114290000D02*
X142716000Y-112681300D01*
X149745000Y-114290000D02*
X144324700Y-114290000D01*
X142716000Y-111506000D02*
X142716000Y-112681300D01*
X123263200Y-115496800D02*
X124460000Y-114300000D01*
X121404100Y-115496800D02*
X123263200Y-115496800D01*
X120731000Y-114823700D02*
X121404100Y-115496800D01*
X120731000Y-108220500D02*
X120731000Y-114823700D01*
X125065500Y-103886000D02*
X120731000Y-108220500D01*
X129572000Y-103886000D02*
X125065500Y-103886000D01*
X141097300Y-114300000D02*
X142716000Y-112681300D01*
X124460000Y-114300000D02*
X141097300Y-114300000D01*
X174720000Y-90170000D02*
X174720000Y-89716000D01*
X173140600Y-91295400D02*
X174720000Y-89716000D01*
X173140600Y-94778200D02*
X173140600Y-91295400D01*
X177079200Y-98716800D02*
X173140600Y-94778200D01*
X177079200Y-111797700D02*
X177079200Y-98716800D01*
X175765800Y-113111100D02*
X177079200Y-111797700D01*
X175260000Y-113111100D02*
X175765800Y-113111100D01*
X176606900Y-84338000D02*
X176606900Y-78740000D01*
X175854900Y-85090000D02*
X176606900Y-84338000D01*
X174691100Y-85090000D02*
X175854900Y-85090000D01*
X173918600Y-85862500D02*
X174691100Y-85090000D01*
X173918600Y-88914600D02*
X173918600Y-85862500D01*
X174720000Y-89716000D02*
X173918600Y-88914600D01*
X177259000Y-68834000D02*
X177259000Y-69909900D01*
X177962100Y-69909900D02*
X181699600Y-73647300D01*
X177259000Y-69909900D02*
X177962100Y-69909900D01*
X182018000Y-73647300D02*
X181699600Y-73647300D01*
X182030700Y-73660000D02*
X182018000Y-73647300D01*
X181699600Y-73647300D02*
X176606900Y-78740000D01*
X183356000Y-73660000D02*
X182030700Y-73660000D01*
X176606900Y-78740000D02*
X175260000Y-78740000D01*
X170235700Y-78740000D02*
X170053000Y-78557300D01*
X175260000Y-78740000D02*
X170235700Y-78740000D01*
X170053000Y-77216000D02*
X170053000Y-78557300D01*
X139543300Y-92104700D02*
X138684000Y-92964000D01*
X143209400Y-92104700D02*
X139543300Y-92104700D01*
X143334700Y-92230000D02*
X143209400Y-92104700D01*
X144160000Y-92230000D02*
X143334700Y-92230000D01*
X136696600Y-88501300D02*
X136896100Y-88700800D01*
X136684000Y-88501300D02*
X136696600Y-88501300D01*
X136684000Y-87376000D02*
X136684000Y-88501300D01*
X138684000Y-99998700D02*
X138684000Y-97844000D01*
X136684000Y-101998700D02*
X138684000Y-99998700D01*
X136684000Y-103124000D02*
X136684000Y-101998700D01*
X143290100Y-92774600D02*
X143334700Y-92730000D01*
X142963500Y-92774600D02*
X143290100Y-92774600D01*
X144160000Y-92730000D02*
X143334700Y-92730000D01*
X177550000Y-73660000D02*
X177296000Y-73406000D01*
X179356000Y-73660000D02*
X177550000Y-73660000D01*
X176171900Y-73406000D02*
X177296000Y-73406000D01*
X164708400Y-88614000D02*
X165144300Y-89049900D01*
X163068000Y-88614000D02*
X164708400Y-88614000D01*
X166370000Y-89049900D02*
X165144300Y-89049900D01*
X175428900Y-87548900D02*
X178304000Y-90424000D01*
X175260000Y-87548900D02*
X175428900Y-87548900D01*
X175260000Y-86360000D02*
X175260000Y-87548900D01*
X179428100Y-90424000D02*
X178304000Y-90424000D01*
X181143800Y-90986000D02*
X181143800Y-90424000D01*
X178403800Y-93726000D02*
X181143800Y-90986000D01*
X174466000Y-93726000D02*
X178403800Y-93726000D01*
X182267900Y-90424000D02*
X181143800Y-90424000D01*
X137640200Y-84296000D02*
X137712300Y-84223900D01*
X134366000Y-84296000D02*
X137640200Y-84296000D01*
X138938000Y-84223900D02*
X137712300Y-84223900D01*
X138716000Y-111506000D02*
X138716000Y-110330700D01*
X138286200Y-113111100D02*
X138716000Y-112681300D01*
X123926200Y-113111100D02*
X138286200Y-113111100D01*
X123108900Y-113928400D02*
X123926200Y-113111100D01*
X123108900Y-114300000D02*
X123108900Y-113928400D01*
X121920000Y-114300000D02*
X123108900Y-114300000D01*
X138716000Y-111506000D02*
X138716000Y-112681300D01*
X138955800Y-106697600D02*
X139131500Y-106521900D01*
X138955800Y-107442000D02*
X138955800Y-106697600D01*
X145950000Y-110330700D02*
X140249200Y-110330700D01*
X148457800Y-112838500D02*
X145950000Y-110330700D01*
X152614500Y-112838500D02*
X148457800Y-112838500D01*
X159156000Y-119380000D02*
X152614500Y-112838500D01*
X175260000Y-119380000D02*
X159156000Y-119380000D01*
X140249200Y-110330700D02*
X138716000Y-110330700D01*
X140249200Y-110330700D02*
X140249200Y-110540800D01*
X154060100Y-107188000D02*
X153872100Y-107000000D01*
X156750000Y-107188000D02*
X154060100Y-107188000D01*
X153146800Y-107000000D02*
X153509500Y-107000000D01*
X153509500Y-107000000D02*
X153872100Y-107000000D01*
X151368700Y-104859200D02*
X149925000Y-104859200D01*
X153509500Y-107000000D02*
X151368700Y-104859200D01*
X145490100Y-95230000D02*
X144160000Y-95230000D01*
X145640200Y-95079900D02*
X145490100Y-95230000D01*
X140954800Y-106492000D02*
X141317500Y-106492000D01*
X144160000Y-94230000D02*
X143334700Y-94230000D01*
X142978700Y-106471800D02*
X142277500Y-105770600D01*
X142978700Y-106934000D02*
X142978700Y-106471800D01*
X141556100Y-106492000D02*
X142277500Y-105770600D01*
X141317500Y-106492000D02*
X141556100Y-106492000D01*
X144304000Y-106934000D02*
X142978700Y-106934000D01*
X143334700Y-94230000D02*
X143061800Y-94230000D01*
X133879400Y-106785900D02*
X133879400Y-106746000D01*
X133605300Y-107060000D02*
X133879400Y-106785900D01*
X134604800Y-106746000D02*
X133879400Y-106746000D01*
X143446300Y-94730000D02*
X144160000Y-94730000D01*
X142627500Y-95548800D02*
X143446300Y-94730000D01*
X142266400Y-95548800D02*
X142627500Y-95548800D01*
X132251900Y-110330700D02*
X132448500Y-110134100D01*
X131350000Y-110330700D02*
X132251900Y-110330700D01*
X131350000Y-111506000D02*
X131350000Y-110330700D01*
X130881300Y-82605400D02*
X133190700Y-80296000D01*
X130881300Y-84455000D02*
X130881300Y-82605400D01*
X129540000Y-84455000D02*
X130881300Y-84455000D01*
X134366000Y-80296000D02*
X133190700Y-80296000D01*
X141736400Y-96730000D02*
X144160000Y-96730000D01*
X140142800Y-95136400D02*
X141736400Y-96730000D01*
X139334700Y-95136400D02*
X140142800Y-95136400D01*
X121920000Y-76200000D02*
X123108900Y-76200000D01*
X123108900Y-76720100D02*
X123108900Y-76200000D01*
X125313500Y-78924700D02*
X123108900Y-76720100D01*
X135313900Y-78924700D02*
X125313500Y-78924700D01*
X135699600Y-79310400D02*
X135313900Y-78924700D01*
X135699600Y-81061300D02*
X135699600Y-79310400D01*
X137597000Y-82958700D02*
X135699600Y-81061300D01*
X139848800Y-82958700D02*
X137597000Y-82958700D01*
X142125400Y-85235300D02*
X139848800Y-82958700D01*
X142125400Y-85954500D02*
X142125400Y-85235300D01*
X144874300Y-88703400D02*
X142125400Y-85954500D01*
X145017500Y-88703400D02*
X144874300Y-88703400D01*
X147544100Y-91230000D02*
X145017500Y-88703400D01*
X154734700Y-91230000D02*
X147544100Y-91230000D01*
X155560000Y-91230000D02*
X154734700Y-91230000D01*
X124460000Y-76200000D02*
X125648900Y-76200000D01*
X153610000Y-88280000D02*
X153610000Y-87454700D01*
X125648900Y-76720100D02*
X125648900Y-76200000D01*
X127403200Y-78474400D02*
X125648900Y-76720100D01*
X135500500Y-78474400D02*
X127403200Y-78474400D01*
X136309200Y-79283100D02*
X135500500Y-78474400D01*
X136309200Y-80984500D02*
X136309200Y-79283100D01*
X137833000Y-82508300D02*
X136309200Y-80984500D01*
X143274600Y-82508300D02*
X137833000Y-82508300D01*
X145629400Y-84863100D02*
X143274600Y-82508300D01*
X145629400Y-85441300D02*
X145629400Y-84863100D01*
X147642800Y-87454700D02*
X145629400Y-85441300D01*
X153610000Y-87454700D02*
X147642800Y-87454700D01*
X129540000Y-86995000D02*
X130881300Y-86995000D01*
X144160000Y-97230000D02*
X144985300Y-97230000D01*
X133237000Y-89350700D02*
X130881300Y-86995000D01*
X139649900Y-89350700D02*
X133237000Y-89350700D01*
X139734300Y-89266300D02*
X139649900Y-89350700D01*
X144943500Y-89266300D02*
X139734300Y-89266300D01*
X146761100Y-91083900D02*
X144943500Y-89266300D01*
X146761100Y-95573000D02*
X146761100Y-91083900D01*
X145104100Y-97230000D02*
X146761100Y-95573000D01*
X144985300Y-97230000D02*
X145104100Y-97230000D01*
X161290000Y-73660000D02*
X161290000Y-75001300D01*
X155560000Y-92730000D02*
X156385300Y-92730000D01*
X157336800Y-78954500D02*
X161290000Y-75001300D01*
X157336800Y-91778500D02*
X157336800Y-78954500D01*
X156385300Y-92730000D02*
X157336800Y-91778500D01*
X154966100Y-92230000D02*
X155560000Y-92230000D01*
X154734600Y-92461500D02*
X154966100Y-92230000D01*
X154734600Y-98014000D02*
X154734600Y-92461500D01*
X154901000Y-98180400D02*
X154734600Y-98014000D01*
X156252000Y-98180400D02*
X154901000Y-98180400D01*
X156567500Y-97864900D02*
X156252000Y-98180400D01*
X156567500Y-94978900D02*
X156567500Y-97864900D01*
X157541500Y-94004900D02*
X156567500Y-94978900D01*
X158983600Y-94004900D02*
X157541500Y-94004900D01*
X161453900Y-91534600D02*
X158983600Y-94004900D01*
X163730300Y-91534600D02*
X161453900Y-91534600D01*
X163939500Y-91743800D02*
X163730300Y-91534600D01*
X163939500Y-93709600D02*
X163939500Y-91743800D01*
X162812400Y-94836700D02*
X163939500Y-93709600D01*
X162592000Y-94836700D02*
X162812400Y-94836700D01*
X162592000Y-96012000D02*
X162592000Y-94836700D01*
X162592000Y-92710000D02*
X162592000Y-93885300D01*
X161822700Y-94654600D02*
X162592000Y-93885300D01*
X157541700Y-94654600D02*
X161822700Y-94654600D01*
X157072100Y-95124200D02*
X157541700Y-94654600D01*
X157072100Y-98042100D02*
X157072100Y-95124200D01*
X156480100Y-98634100D02*
X157072100Y-98042100D01*
X154704100Y-98634100D02*
X156480100Y-98634100D01*
X154265400Y-98195400D02*
X154704100Y-98634100D01*
X154265400Y-92199300D02*
X154265400Y-98195400D01*
X154734700Y-91730000D02*
X154265400Y-92199300D01*
X155560000Y-91730000D02*
X154734700Y-91730000D01*
X121920000Y-86805300D02*
X119920300Y-88805000D01*
X121920000Y-83820000D02*
X121920000Y-86805300D01*
X118745000Y-88805000D02*
X119920300Y-88805000D01*
X146110000Y-99680000D02*
X146110000Y-98854700D01*
X141215800Y-98854700D02*
X146110000Y-98854700D01*
X139117800Y-96756700D02*
X141215800Y-98854700D01*
X138066500Y-96756700D02*
X139117800Y-96756700D01*
X137589100Y-97234100D02*
X138066500Y-96756700D01*
X129326500Y-97234100D02*
X137589100Y-97234100D01*
X127347500Y-95255100D02*
X129326500Y-97234100D01*
X124460000Y-88710300D02*
X124365300Y-88805000D01*
X124460000Y-83820000D02*
X124460000Y-88710300D01*
X123190000Y-88805000D02*
X124365300Y-88805000D01*
X141726100Y-97730000D02*
X144160000Y-97730000D01*
X139757900Y-95761800D02*
X141726100Y-97730000D01*
X138202400Y-95761800D02*
X139757900Y-95761800D01*
X138117300Y-95676700D02*
X138202400Y-95761800D01*
X154582600Y-102616000D02*
X155924000Y-102616000D01*
X153407200Y-103791400D02*
X154582600Y-102616000D01*
X150378500Y-103791400D02*
X153407200Y-103791400D01*
X150328400Y-103741300D02*
X150378500Y-103791400D01*
X147162200Y-103741300D02*
X150328400Y-103741300D01*
X146778100Y-103357200D02*
X147162200Y-103741300D01*
X130175000Y-93345000D02*
X131516300Y-93345000D01*
X116299700Y-101110000D02*
X117619700Y-99790000D01*
X114300000Y-101110000D02*
X116299700Y-101110000D01*
X118745000Y-99790000D02*
X117619700Y-99790000D01*
X118745000Y-99790000D02*
X123190000Y-99790000D01*
X125207900Y-99790000D02*
X125341000Y-99656900D01*
X123190000Y-99790000D02*
X125207900Y-99790000D01*
X132232100Y-94060800D02*
X131516300Y-93345000D01*
X139860400Y-94060800D02*
X132232100Y-94060800D01*
X140521300Y-93399900D02*
X139860400Y-94060800D01*
X143242700Y-93399900D02*
X140521300Y-93399900D01*
X143412600Y-93230000D02*
X143242700Y-93399900D01*
X144160000Y-93230000D02*
X143412600Y-93230000D01*
X153412500Y-101307800D02*
X152610000Y-100505300D01*
X158951500Y-101307800D02*
X153412500Y-101307800D01*
X159578000Y-101934300D02*
X158951500Y-101307800D01*
X165196400Y-101934300D02*
X159578000Y-101934300D01*
X166768700Y-100362000D02*
X165196400Y-101934300D01*
X167894000Y-100362000D02*
X166768700Y-100362000D01*
X152610000Y-99680000D02*
X152610000Y-100505300D01*
X148110000Y-89331300D02*
X148109900Y-89331300D01*
X148110000Y-88280000D02*
X148110000Y-89331300D01*
X147176400Y-84233300D02*
X146990000Y-84419700D01*
X147352000Y-84233300D02*
X147176400Y-84233300D01*
X147352000Y-83058000D02*
X147352000Y-84233300D01*
X151610000Y-101126700D02*
X151610000Y-99680000D01*
X151924000Y-101440700D02*
X151610000Y-101126700D01*
X151924000Y-102616000D02*
X151924000Y-101440700D01*
X166592000Y-91344300D02*
X166592000Y-92710000D01*
X166592000Y-96012000D02*
X166592000Y-94836700D01*
X166384600Y-94836700D02*
X166592000Y-94836700D01*
X166196700Y-94648800D02*
X166384600Y-94836700D01*
D42*
G36*
X138587081Y-69172017D02*
X138487690Y-69017559D01*
X138275490Y-68872569D01*
X138023600Y-68821560D01*
X136296400Y-68821560D01*
X136061083Y-68865838D01*
X135844959Y-69004910D01*
X135699969Y-69217110D01*
X135691600Y-69258439D01*
X135679670Y-69240585D01*
X135193489Y-68915729D01*
X134620000Y-68801655D01*
X134046511Y-68915729D01*
X133560330Y-69240585D01*
X133353539Y-69550069D01*
X132982036Y-69134268D01*
X132454791Y-68880291D01*
X132439026Y-68877642D01*
X132207000Y-68998783D01*
X132207000Y-70358000D01*
X132227000Y-70358000D01*
X132227000Y-70612000D01*
X132207000Y-70612000D01*
X132207000Y-71971217D01*
X132439026Y-72092358D01*
X132454791Y-72089709D01*
X132982036Y-71835732D01*
X133353539Y-71419931D01*
X133560330Y-71729415D01*
X134046511Y-72054271D01*
X134620000Y-72168345D01*
X135193489Y-72054271D01*
X135679670Y-71729415D01*
X135689243Y-71715087D01*
X135693238Y-71736317D01*
X135832310Y-71952441D01*
X136044510Y-72097431D01*
X136296400Y-72148440D01*
X138023600Y-72148440D01*
X138258917Y-72104162D01*
X138475041Y-71965090D01*
X138620031Y-71752890D01*
X138671040Y-71501000D01*
X138671040Y-71166233D01*
X138886301Y-71022401D01*
X139931012Y-69977690D01*
X159639000Y-69977690D01*
X159639000Y-70834250D01*
X159797750Y-70993000D01*
X161163000Y-70993000D01*
X161163000Y-69627750D01*
X161417000Y-69627750D01*
X161417000Y-70993000D01*
X162782250Y-70993000D01*
X162941000Y-70834250D01*
X162941000Y-69977690D01*
X162844327Y-69744301D01*
X162696026Y-69596000D01*
X165290760Y-69596000D01*
X165290760Y-71628000D01*
X165335038Y-71863317D01*
X165474110Y-72079441D01*
X165686310Y-72224431D01*
X165938200Y-72275440D01*
X169595800Y-72275440D01*
X169831117Y-72231162D01*
X170047241Y-72092090D01*
X170192231Y-71879890D01*
X170243240Y-71628000D01*
X170243240Y-69596000D01*
X170198962Y-69360683D01*
X170059890Y-69144559D01*
X170023581Y-69119750D01*
X171126150Y-69119750D01*
X171126150Y-69710880D01*
X171222823Y-69944269D01*
X171401452Y-70122897D01*
X171634841Y-70219570D01*
X172975270Y-70219570D01*
X173134020Y-70060820D01*
X173134020Y-68961000D01*
X171284900Y-68961000D01*
X171126150Y-69119750D01*
X170023581Y-69119750D01*
X169847690Y-68999569D01*
X169595800Y-68948560D01*
X165938200Y-68948560D01*
X165702883Y-68992838D01*
X165486759Y-69131910D01*
X165341769Y-69344110D01*
X165290760Y-69596000D01*
X162696026Y-69596000D01*
X162665698Y-69565673D01*
X162432309Y-69469000D01*
X161575750Y-69469000D01*
X161417000Y-69627750D01*
X161163000Y-69627750D01*
X161004250Y-69469000D01*
X160147691Y-69469000D01*
X159914302Y-69565673D01*
X159735673Y-69744301D01*
X159639000Y-69977690D01*
X139931012Y-69977690D01*
X141403502Y-68505200D01*
X171126150Y-68505200D01*
X171126150Y-68548250D01*
X171284900Y-68707000D01*
X173134020Y-68707000D01*
X173134020Y-68687000D01*
X173388020Y-68687000D01*
X173388020Y-68707000D01*
X173408020Y-68707000D01*
X173408020Y-68961000D01*
X173388020Y-68961000D01*
X173388020Y-70060820D01*
X173546770Y-70219570D01*
X174326300Y-70219570D01*
X174326300Y-71235398D01*
X173918899Y-71642799D01*
X173766708Y-71870570D01*
X173617890Y-71870570D01*
X173459140Y-72029320D01*
X173459140Y-73279000D01*
X173479140Y-73279000D01*
X173479140Y-73533000D01*
X173459140Y-73533000D01*
X173459140Y-73553000D01*
X173205140Y-73553000D01*
X173205140Y-73533000D01*
X172057060Y-73533000D01*
X171898310Y-73691750D01*
X171898310Y-74432740D01*
X171994983Y-74666129D01*
X172173612Y-74844757D01*
X172407001Y-74941430D01*
X172933768Y-74941430D01*
X172760498Y-75114700D01*
X167767000Y-75114700D01*
X167476161Y-75172552D01*
X167229599Y-75337299D01*
X167064852Y-75583861D01*
X167063771Y-75589295D01*
X167023683Y-75596838D01*
X166807559Y-75735910D01*
X166662569Y-75948110D01*
X166624000Y-76138569D01*
X166624000Y-76073690D01*
X166527327Y-75840301D01*
X166348698Y-75661673D01*
X166115309Y-75565000D01*
X165766750Y-75565000D01*
X165608000Y-75723750D01*
X165608000Y-77089000D01*
X165628000Y-77089000D01*
X165628000Y-77343000D01*
X165608000Y-77343000D01*
X165608000Y-78708250D01*
X165766750Y-78867000D01*
X166115309Y-78867000D01*
X166348698Y-78770327D01*
X166527327Y-78591699D01*
X166624000Y-78358310D01*
X166624000Y-78298113D01*
X166655838Y-78467317D01*
X166705306Y-78544192D01*
X166100799Y-79148699D01*
X165936052Y-79395261D01*
X165889759Y-79627990D01*
X163313110Y-79627990D01*
X163077793Y-79672268D01*
X162861669Y-79811340D01*
X162815864Y-79878378D01*
X162674588Y-79737103D01*
X162441199Y-79640430D01*
X161100770Y-79640430D01*
X160942020Y-79799180D01*
X160942020Y-80899000D01*
X160962020Y-80899000D01*
X160962020Y-81153000D01*
X160942020Y-81153000D01*
X160942020Y-82252820D01*
X161100770Y-82411570D01*
X162441199Y-82411570D01*
X162674588Y-82314897D01*
X162814743Y-82174743D01*
X162849020Y-82228011D01*
X162982728Y-82319370D01*
X162591475Y-82710623D01*
X162530599Y-82751299D01*
X162386767Y-82966560D01*
X162218000Y-82966560D01*
X161982683Y-83010838D01*
X161766559Y-83149910D01*
X161621569Y-83362110D01*
X161570560Y-83614000D01*
X161570560Y-85614000D01*
X161614838Y-85849317D01*
X161753910Y-86065441D01*
X161966110Y-86210431D01*
X162218000Y-86261440D01*
X163918000Y-86261440D01*
X164153317Y-86217162D01*
X164369441Y-86078090D01*
X164514431Y-85865890D01*
X164565440Y-85614000D01*
X164565440Y-85285001D01*
X164834570Y-85285001D01*
X164834570Y-85924390D01*
X164993320Y-86083140D01*
X166243000Y-86083140D01*
X166243000Y-84935060D01*
X166497000Y-84935060D01*
X166497000Y-86083140D01*
X167746680Y-86083140D01*
X167905430Y-85924390D01*
X167905430Y-85343750D01*
X168999000Y-85343750D01*
X168999000Y-86184309D01*
X169095673Y-86417698D01*
X169274301Y-86596327D01*
X169507690Y-86693000D01*
X170148250Y-86693000D01*
X170307000Y-86534250D01*
X170307000Y-85185000D01*
X170561000Y-85185000D01*
X170561000Y-86534250D01*
X170719750Y-86693000D01*
X171360310Y-86693000D01*
X171593699Y-86596327D01*
X171772327Y-86417698D01*
X171869000Y-86184309D01*
X171869000Y-85343750D01*
X171710250Y-85185000D01*
X170561000Y-85185000D01*
X170307000Y-85185000D01*
X169157750Y-85185000D01*
X168999000Y-85343750D01*
X167905430Y-85343750D01*
X167905430Y-85285001D01*
X167808757Y-85051612D01*
X167630129Y-84872983D01*
X167396740Y-84776310D01*
X166655750Y-84776310D01*
X166497000Y-84935060D01*
X166243000Y-84935060D01*
X166084250Y-84776310D01*
X165343260Y-84776310D01*
X165109871Y-84872983D01*
X164931243Y-85051612D01*
X164834570Y-85285001D01*
X164565440Y-85285001D01*
X164565440Y-83931691D01*
X168999000Y-83931691D01*
X168999000Y-84772250D01*
X169157750Y-84931000D01*
X170307000Y-84931000D01*
X170307000Y-83581750D01*
X170561000Y-83581750D01*
X170561000Y-84931000D01*
X171710250Y-84931000D01*
X171869000Y-84772250D01*
X171869000Y-83931691D01*
X171772327Y-83698302D01*
X171593699Y-83519673D01*
X171360310Y-83423000D01*
X170719750Y-83423000D01*
X170561000Y-83581750D01*
X170307000Y-83581750D01*
X170148250Y-83423000D01*
X169507690Y-83423000D01*
X169274301Y-83519673D01*
X169095673Y-83698302D01*
X168999000Y-83931691D01*
X164565440Y-83931691D01*
X164565440Y-83614000D01*
X164521162Y-83378683D01*
X164382090Y-83162559D01*
X164326872Y-83124830D01*
X165027692Y-82424010D01*
X166312850Y-82424010D01*
X166548167Y-82379732D01*
X166764291Y-82240660D01*
X166909281Y-82028460D01*
X166960290Y-81776570D01*
X166960290Y-81707267D01*
X167175601Y-81563401D01*
X167340348Y-81316839D01*
X167398200Y-81026000D01*
X167398200Y-80000902D01*
X167767000Y-79632102D01*
X168548700Y-80413802D01*
X168548700Y-81058000D01*
X168606552Y-81348839D01*
X168771299Y-81595401D01*
X168986560Y-81739233D01*
X168986560Y-82058000D01*
X169030838Y-82293317D01*
X169169910Y-82509441D01*
X169382110Y-82654431D01*
X169634000Y-82705440D01*
X171234000Y-82705440D01*
X171469317Y-82661162D01*
X171685441Y-82522090D01*
X171830431Y-82309890D01*
X171881440Y-82058000D01*
X171881440Y-81639026D01*
X173652642Y-81639026D01*
X173655291Y-81654791D01*
X173909268Y-82182036D01*
X174321108Y-82550000D01*
X173909268Y-82917964D01*
X173655291Y-83445209D01*
X173652642Y-83460974D01*
X173773783Y-83693000D01*
X175133000Y-83693000D01*
X175133000Y-81407000D01*
X173773783Y-81407000D01*
X173652642Y-81639026D01*
X171881440Y-81639026D01*
X171881440Y-80058000D01*
X171837162Y-79822683D01*
X171698090Y-79606559D01*
X171542136Y-79500000D01*
X173596560Y-79500000D01*
X173596560Y-79603600D01*
X173640838Y-79838917D01*
X173779910Y-80055041D01*
X173992110Y-80200031D01*
X174086927Y-80219232D01*
X173909268Y-80377964D01*
X173655291Y-80905209D01*
X173652642Y-80920974D01*
X173773783Y-81153000D01*
X175133000Y-81153000D01*
X175133000Y-81133000D01*
X175387000Y-81133000D01*
X175387000Y-81153000D01*
X175407000Y-81153000D01*
X175407000Y-81407000D01*
X175387000Y-81407000D01*
X175387000Y-83693000D01*
X175407000Y-83693000D01*
X175407000Y-83947000D01*
X175387000Y-83947000D01*
X175387000Y-83967000D01*
X175133000Y-83967000D01*
X175133000Y-83947000D01*
X173773783Y-83947000D01*
X173652642Y-84179026D01*
X173655291Y-84194791D01*
X173909268Y-84722036D01*
X173948875Y-84757423D01*
X173381199Y-85325099D01*
X173216452Y-85571661D01*
X173158600Y-85862500D01*
X173158600Y-88914600D01*
X173182055Y-89032513D01*
X173123569Y-89118110D01*
X173072560Y-89370000D01*
X173072560Y-90288638D01*
X172603199Y-90757999D01*
X172438452Y-91004561D01*
X172380600Y-91295400D01*
X172380600Y-94778200D01*
X172438452Y-95069039D01*
X172603199Y-95315601D01*
X176319200Y-99031602D01*
X176319200Y-102637708D01*
X176276000Y-102628960D01*
X174244000Y-102628960D01*
X174008683Y-102673238D01*
X173792559Y-102812310D01*
X173647569Y-103024510D01*
X173596560Y-103276400D01*
X173596560Y-104568900D01*
X173434200Y-104568900D01*
X173143361Y-104626752D01*
X172896799Y-104791499D01*
X169214498Y-108473800D01*
X162418500Y-108473800D01*
X162167957Y-108523636D01*
X162201441Y-108502090D01*
X162346431Y-108289890D01*
X162397440Y-108038000D01*
X162397440Y-106338000D01*
X162353162Y-106102683D01*
X162214090Y-105886559D01*
X162001890Y-105741569D01*
X161750000Y-105690560D01*
X159750000Y-105690560D01*
X159514683Y-105734838D01*
X159298559Y-105873910D01*
X159153569Y-106086110D01*
X159102560Y-106338000D01*
X159102560Y-107603300D01*
X158397440Y-107603300D01*
X158397440Y-106338000D01*
X158353162Y-106102683D01*
X158214090Y-105886559D01*
X158001890Y-105741569D01*
X157750000Y-105690560D01*
X155750000Y-105690560D01*
X155514683Y-105734838D01*
X155298559Y-105873910D01*
X155153569Y-106086110D01*
X155102560Y-106338000D01*
X155102560Y-106428000D01*
X154357720Y-106428000D01*
X154162939Y-106297852D01*
X154098788Y-106285092D01*
X154010900Y-106148509D01*
X153798700Y-106003519D01*
X153546810Y-105952510D01*
X153536812Y-105952510D01*
X152135702Y-104551400D01*
X153407200Y-104551400D01*
X153698039Y-104493548D01*
X153944601Y-104328801D01*
X154419210Y-103854192D01*
X154459910Y-103917441D01*
X154672110Y-104062431D01*
X154924000Y-104113440D01*
X156924000Y-104113440D01*
X157159317Y-104069162D01*
X157375441Y-103930090D01*
X157405737Y-103885750D01*
X158585000Y-103885750D01*
X158585000Y-104726309D01*
X158681673Y-104959698D01*
X158860301Y-105138327D01*
X159093690Y-105235000D01*
X159734250Y-105235000D01*
X159893000Y-105076250D01*
X159893000Y-103727000D01*
X160147000Y-103727000D01*
X160147000Y-105076250D01*
X160305750Y-105235000D01*
X160946310Y-105235000D01*
X161179699Y-105138327D01*
X161358327Y-104959698D01*
X161455000Y-104726309D01*
X161455000Y-104392730D01*
X162444430Y-104392730D01*
X162444430Y-105733159D01*
X162541103Y-105966548D01*
X162719731Y-106145177D01*
X162953120Y-106241850D01*
X163544250Y-106241850D01*
X163703000Y-106083100D01*
X163703000Y-104233980D01*
X163957000Y-104233980D01*
X163957000Y-106083100D01*
X164115750Y-106241850D01*
X164706880Y-106241850D01*
X164940269Y-106145177D01*
X165118897Y-105966548D01*
X165215570Y-105733159D01*
X165215570Y-104647750D01*
X166459000Y-104647750D01*
X166459000Y-105488309D01*
X166555673Y-105721698D01*
X166734301Y-105900327D01*
X166967690Y-105997000D01*
X167608250Y-105997000D01*
X167767000Y-105838250D01*
X167767000Y-104489000D01*
X168021000Y-104489000D01*
X168021000Y-105838250D01*
X168179750Y-105997000D01*
X168820310Y-105997000D01*
X169053699Y-105900327D01*
X169232327Y-105721698D01*
X169329000Y-105488309D01*
X169329000Y-104647750D01*
X169170250Y-104489000D01*
X168021000Y-104489000D01*
X167767000Y-104489000D01*
X166617750Y-104489000D01*
X166459000Y-104647750D01*
X165215570Y-104647750D01*
X165215570Y-104392730D01*
X165056820Y-104233980D01*
X163957000Y-104233980D01*
X163703000Y-104233980D01*
X162603180Y-104233980D01*
X162444430Y-104392730D01*
X161455000Y-104392730D01*
X161455000Y-103885750D01*
X161296250Y-103727000D01*
X160147000Y-103727000D01*
X159893000Y-103727000D01*
X158743750Y-103727000D01*
X158585000Y-103885750D01*
X157405737Y-103885750D01*
X157520431Y-103717890D01*
X157571440Y-103466000D01*
X157571440Y-102067800D01*
X158636698Y-102067800D01*
X158745436Y-102176538D01*
X158681673Y-102240302D01*
X158585000Y-102473691D01*
X158585000Y-103314250D01*
X158743750Y-103473000D01*
X159893000Y-103473000D01*
X159893000Y-103453000D01*
X160147000Y-103453000D01*
X160147000Y-103473000D01*
X161296250Y-103473000D01*
X161455000Y-103314250D01*
X161455000Y-102694300D01*
X162444430Y-102694300D01*
X162444430Y-103821230D01*
X162603180Y-103979980D01*
X163703000Y-103979980D01*
X163703000Y-103959980D01*
X163957000Y-103959980D01*
X163957000Y-103979980D01*
X165056820Y-103979980D01*
X165215570Y-103821230D01*
X165215570Y-103235691D01*
X166459000Y-103235691D01*
X166459000Y-104076250D01*
X166617750Y-104235000D01*
X167767000Y-104235000D01*
X167767000Y-102885750D01*
X168021000Y-102885750D01*
X168021000Y-104235000D01*
X169170250Y-104235000D01*
X169329000Y-104076250D01*
X169329000Y-103235691D01*
X169232327Y-103002302D01*
X169053699Y-102823673D01*
X168820310Y-102727000D01*
X168179750Y-102727000D01*
X168021000Y-102885750D01*
X167767000Y-102885750D01*
X167608250Y-102727000D01*
X166967690Y-102727000D01*
X166734301Y-102823673D01*
X166555673Y-103002302D01*
X166459000Y-103235691D01*
X165215570Y-103235691D01*
X165215570Y-102690487D01*
X165487239Y-102636448D01*
X165733801Y-102471701D01*
X166536784Y-101668718D01*
X166629910Y-101813441D01*
X166842110Y-101958431D01*
X167094000Y-102009440D01*
X168694000Y-102009440D01*
X168929317Y-101965162D01*
X169145441Y-101826090D01*
X169290431Y-101613890D01*
X169341440Y-101362000D01*
X169341440Y-99362000D01*
X169297162Y-99126683D01*
X169158090Y-98910559D01*
X168945890Y-98765569D01*
X168694000Y-98714560D01*
X167094000Y-98714560D01*
X166858683Y-98758838D01*
X166642559Y-98897910D01*
X166497569Y-99110110D01*
X166446560Y-99362000D01*
X166446560Y-99680767D01*
X166231299Y-99824599D01*
X165228010Y-100827888D01*
X165228010Y-98609150D01*
X165183732Y-98373833D01*
X165044660Y-98157709D01*
X164832460Y-98012719D01*
X164580570Y-97961710D01*
X163079430Y-97961710D01*
X162844113Y-98005988D01*
X162627989Y-98145060D01*
X162482999Y-98357260D01*
X162431990Y-98609150D01*
X162431990Y-99349000D01*
X161969102Y-99349000D01*
X161682701Y-99062599D01*
X161467440Y-98918767D01*
X161467440Y-98600000D01*
X161423162Y-98364683D01*
X161284090Y-98148559D01*
X161071890Y-98003569D01*
X160820000Y-97952560D01*
X159220000Y-97952560D01*
X158984683Y-97996838D01*
X158909400Y-98045281D01*
X158909400Y-97966702D01*
X159033401Y-97842701D01*
X159177234Y-97627440D01*
X159296000Y-97627440D01*
X159531317Y-97583162D01*
X159747441Y-97444090D01*
X159892431Y-97231890D01*
X159943440Y-96980000D01*
X159943440Y-95414600D01*
X160944560Y-95414600D01*
X160944560Y-96862000D01*
X160988838Y-97097317D01*
X161127910Y-97313441D01*
X161340110Y-97458431D01*
X161592000Y-97509440D01*
X163592000Y-97509440D01*
X163827317Y-97465162D01*
X164043441Y-97326090D01*
X164188431Y-97113890D01*
X164239440Y-96862000D01*
X164239440Y-95162000D01*
X164195162Y-94926683D01*
X164056090Y-94710559D01*
X164030695Y-94693207D01*
X164476901Y-94247001D01*
X164641648Y-94000439D01*
X164699500Y-93709600D01*
X164699500Y-91743800D01*
X164648550Y-91487661D01*
X164641648Y-91452960D01*
X164476901Y-91206399D01*
X164267701Y-90997199D01*
X164021139Y-90832452D01*
X163730300Y-90774600D01*
X161453900Y-90774600D01*
X161163061Y-90832452D01*
X160916499Y-90997199D01*
X159789474Y-92124224D01*
X159772250Y-92107000D01*
X158623000Y-92107000D01*
X158623000Y-92127000D01*
X158369000Y-92127000D01*
X158369000Y-92107000D01*
X158349000Y-92107000D01*
X158349000Y-91853000D01*
X158369000Y-91853000D01*
X158369000Y-90503750D01*
X158623000Y-90503750D01*
X158623000Y-91853000D01*
X159772250Y-91853000D01*
X159931000Y-91694250D01*
X159931000Y-90853691D01*
X159834327Y-90620302D01*
X159655699Y-90441673D01*
X159422310Y-90345000D01*
X158781750Y-90345000D01*
X158623000Y-90503750D01*
X158369000Y-90503750D01*
X158210250Y-90345000D01*
X158096800Y-90345000D01*
X158096800Y-87614000D01*
X161570560Y-87614000D01*
X161570560Y-89614000D01*
X161614838Y-89849317D01*
X161753910Y-90065441D01*
X161966110Y-90210431D01*
X162218000Y-90261440D01*
X163918000Y-90261440D01*
X164153317Y-90217162D01*
X164369441Y-90078090D01*
X164514431Y-89865890D01*
X164565440Y-89614000D01*
X164565440Y-89545842D01*
X164606899Y-89587301D01*
X164822130Y-89731113D01*
X164822130Y-89848690D01*
X164866408Y-90084007D01*
X165005480Y-90300131D01*
X165217680Y-90445121D01*
X165469570Y-90496130D01*
X166196296Y-90496130D01*
X166063057Y-90551183D01*
X165799808Y-90813973D01*
X165657162Y-91157501D01*
X165657114Y-91212560D01*
X165592000Y-91212560D01*
X165356683Y-91256838D01*
X165140559Y-91395910D01*
X164995569Y-91608110D01*
X164944560Y-91860000D01*
X164944560Y-93560000D01*
X164988838Y-93795317D01*
X165127910Y-94011441D01*
X165340110Y-94156431D01*
X165384974Y-94165516D01*
X165261862Y-94462001D01*
X165261724Y-94619942D01*
X165140559Y-94697910D01*
X164995569Y-94910110D01*
X164944560Y-95162000D01*
X164944560Y-96862000D01*
X164988838Y-97097317D01*
X165127910Y-97313441D01*
X165340110Y-97458431D01*
X165592000Y-97509440D01*
X167592000Y-97509440D01*
X167827317Y-97465162D01*
X168043441Y-97326090D01*
X168188431Y-97113890D01*
X168239440Y-96862000D01*
X168239440Y-95162000D01*
X168195162Y-94926683D01*
X168056090Y-94710559D01*
X167843890Y-94565569D01*
X167592000Y-94514560D01*
X167273233Y-94514560D01*
X167129401Y-94299299D01*
X167039003Y-94238897D01*
X167026005Y-94207440D01*
X167592000Y-94207440D01*
X167827317Y-94163162D01*
X168043441Y-94024090D01*
X168051872Y-94011750D01*
X168831000Y-94011750D01*
X168831000Y-94702310D01*
X168927673Y-94935699D01*
X169106302Y-95114327D01*
X169339691Y-95211000D01*
X170180250Y-95211000D01*
X170339000Y-95052250D01*
X170339000Y-93853000D01*
X170593000Y-93853000D01*
X170593000Y-95052250D01*
X170751750Y-95211000D01*
X171592309Y-95211000D01*
X171825698Y-95114327D01*
X172004327Y-94935699D01*
X172101000Y-94702310D01*
X172101000Y-94011750D01*
X171942250Y-93853000D01*
X170593000Y-93853000D01*
X170339000Y-93853000D01*
X168989750Y-93853000D01*
X168831000Y-94011750D01*
X168051872Y-94011750D01*
X168188431Y-93811890D01*
X168239440Y-93560000D01*
X168239440Y-92749690D01*
X168831000Y-92749690D01*
X168831000Y-93440250D01*
X168989750Y-93599000D01*
X170339000Y-93599000D01*
X170339000Y-92399750D01*
X170593000Y-92399750D01*
X170593000Y-93599000D01*
X171942250Y-93599000D01*
X172101000Y-93440250D01*
X172101000Y-92749690D01*
X172004327Y-92516301D01*
X171825698Y-92337673D01*
X171592309Y-92241000D01*
X170751750Y-92241000D01*
X170593000Y-92399750D01*
X170339000Y-92399750D01*
X170180250Y-92241000D01*
X169339691Y-92241000D01*
X169106302Y-92337673D01*
X168927673Y-92516301D01*
X168831000Y-92749690D01*
X168239440Y-92749690D01*
X168239440Y-91860000D01*
X168195162Y-91624683D01*
X168056090Y-91408559D01*
X167843890Y-91263569D01*
X167592000Y-91212560D01*
X167527115Y-91212560D01*
X167527162Y-91159133D01*
X167385117Y-90815357D01*
X167122327Y-90552108D01*
X166987518Y-90496130D01*
X167270430Y-90496130D01*
X167485030Y-90455750D01*
X169085000Y-90455750D01*
X169085000Y-91096310D01*
X169181673Y-91329699D01*
X169360302Y-91508327D01*
X169593691Y-91605000D01*
X170434250Y-91605000D01*
X170593000Y-91446250D01*
X170593000Y-90297000D01*
X170847000Y-90297000D01*
X170847000Y-91446250D01*
X171005750Y-91605000D01*
X171846309Y-91605000D01*
X172079698Y-91508327D01*
X172258327Y-91329699D01*
X172355000Y-91096310D01*
X172355000Y-90455750D01*
X172196250Y-90297000D01*
X170847000Y-90297000D01*
X170593000Y-90297000D01*
X169243750Y-90297000D01*
X169085000Y-90455750D01*
X167485030Y-90455750D01*
X167505747Y-90451852D01*
X167721871Y-90312780D01*
X167866861Y-90100580D01*
X167917870Y-89848690D01*
X167917870Y-89243690D01*
X169085000Y-89243690D01*
X169085000Y-89884250D01*
X169243750Y-90043000D01*
X170593000Y-90043000D01*
X170593000Y-88893750D01*
X170847000Y-88893750D01*
X170847000Y-90043000D01*
X172196250Y-90043000D01*
X172355000Y-89884250D01*
X172355000Y-89243690D01*
X172258327Y-89010301D01*
X172079698Y-88831673D01*
X171846309Y-88735000D01*
X171005750Y-88735000D01*
X170847000Y-88893750D01*
X170593000Y-88893750D01*
X170434250Y-88735000D01*
X169593691Y-88735000D01*
X169360302Y-88831673D01*
X169181673Y-89010301D01*
X169085000Y-89243690D01*
X167917870Y-89243690D01*
X167917870Y-88251030D01*
X167873592Y-88015713D01*
X167734520Y-87799589D01*
X167522320Y-87654599D01*
X167420741Y-87634029D01*
X167630129Y-87547297D01*
X167808757Y-87368668D01*
X167905430Y-87135279D01*
X167905430Y-86495890D01*
X167746680Y-86337140D01*
X166497000Y-86337140D01*
X166497000Y-86357140D01*
X166243000Y-86357140D01*
X166243000Y-86337140D01*
X164993320Y-86337140D01*
X164834570Y-86495890D01*
X164834570Y-87135279D01*
X164931243Y-87368668D01*
X165109871Y-87547297D01*
X165315681Y-87632546D01*
X165234253Y-87647868D01*
X165018129Y-87786940D01*
X164940732Y-87900214D01*
X164708400Y-87854000D01*
X164565440Y-87854000D01*
X164565440Y-87614000D01*
X164521162Y-87378683D01*
X164382090Y-87162559D01*
X164169890Y-87017569D01*
X163918000Y-86966560D01*
X162218000Y-86966560D01*
X161982683Y-87010838D01*
X161766559Y-87149910D01*
X161621569Y-87362110D01*
X161570560Y-87614000D01*
X158096800Y-87614000D01*
X158096800Y-81311750D01*
X158680150Y-81311750D01*
X158680150Y-81902880D01*
X158776823Y-82136269D01*
X158955452Y-82314897D01*
X159188841Y-82411570D01*
X160529270Y-82411570D01*
X160688020Y-82252820D01*
X160688020Y-81153000D01*
X158838900Y-81153000D01*
X158680150Y-81311750D01*
X158096800Y-81311750D01*
X158096800Y-80149120D01*
X158680150Y-80149120D01*
X158680150Y-80740250D01*
X158838900Y-80899000D01*
X160688020Y-80899000D01*
X160688020Y-79799180D01*
X160529270Y-79640430D01*
X159188841Y-79640430D01*
X158955452Y-79737103D01*
X158776823Y-79915731D01*
X158680150Y-80149120D01*
X158096800Y-80149120D01*
X158096800Y-79269302D01*
X159864352Y-77501750D01*
X164338000Y-77501750D01*
X164338000Y-78358310D01*
X164434673Y-78591699D01*
X164613302Y-78770327D01*
X164846691Y-78867000D01*
X165195250Y-78867000D01*
X165354000Y-78708250D01*
X165354000Y-77343000D01*
X164496750Y-77343000D01*
X164338000Y-77501750D01*
X159864352Y-77501750D01*
X161292412Y-76073690D01*
X164338000Y-76073690D01*
X164338000Y-76930250D01*
X164496750Y-77089000D01*
X165354000Y-77089000D01*
X165354000Y-75723750D01*
X165195250Y-75565000D01*
X164846691Y-75565000D01*
X164613302Y-75661673D01*
X164434673Y-75840301D01*
X164338000Y-76073690D01*
X161292412Y-76073690D01*
X161827401Y-75538701D01*
X161992148Y-75292139D01*
X162022475Y-75139675D01*
X162489778Y-74827433D01*
X162847670Y-74291810D01*
X162973345Y-73660000D01*
X162847670Y-73028190D01*
X162623034Y-72691999D01*
X162665698Y-72674327D01*
X162844327Y-72495699D01*
X162892557Y-72379260D01*
X171898310Y-72379260D01*
X171898310Y-73120250D01*
X172057060Y-73279000D01*
X173205140Y-73279000D01*
X173205140Y-72029320D01*
X173046390Y-71870570D01*
X172407001Y-71870570D01*
X172173612Y-71967243D01*
X171994983Y-72145871D01*
X171898310Y-72379260D01*
X162892557Y-72379260D01*
X162941000Y-72262310D01*
X162941000Y-71405750D01*
X162782250Y-71247000D01*
X161417000Y-71247000D01*
X161417000Y-71267000D01*
X161163000Y-71267000D01*
X161163000Y-71247000D01*
X159797750Y-71247000D01*
X159639000Y-71405750D01*
X159639000Y-72262310D01*
X159735673Y-72495699D01*
X159914302Y-72674327D01*
X159956966Y-72691999D01*
X159732330Y-73028190D01*
X159606655Y-73660000D01*
X159732330Y-74291810D01*
X160090222Y-74827433D01*
X160269365Y-74947133D01*
X156799399Y-78417099D01*
X156634652Y-78663661D01*
X156576800Y-78954500D01*
X156576800Y-84431287D01*
X156542309Y-84417000D01*
X155701750Y-84417000D01*
X155543000Y-84575750D01*
X155543000Y-85725000D01*
X155563000Y-85725000D01*
X155563000Y-85979000D01*
X155543000Y-85979000D01*
X155543000Y-87128250D01*
X155701750Y-87287000D01*
X156542309Y-87287000D01*
X156576800Y-87272713D01*
X156576800Y-89735473D01*
X156524090Y-89653559D01*
X156311890Y-89508569D01*
X156060000Y-89457560D01*
X155494700Y-89457560D01*
X155494700Y-87845400D01*
X155485501Y-87799152D01*
X155436848Y-87554560D01*
X155272101Y-87307999D01*
X155190676Y-87226574D01*
X155289000Y-87128250D01*
X155289000Y-85979000D01*
X155269000Y-85979000D01*
X155269000Y-85725000D01*
X155289000Y-85725000D01*
X155289000Y-84575750D01*
X155130250Y-84417000D01*
X154289691Y-84417000D01*
X154056302Y-84513673D01*
X153877673Y-84692301D01*
X153781000Y-84925690D01*
X153781000Y-85566250D01*
X153939748Y-85724998D01*
X153781000Y-85724998D01*
X153781000Y-85816898D01*
X153278701Y-85314599D01*
X153063440Y-85170767D01*
X153063440Y-85052000D01*
X153019162Y-84816683D01*
X152880090Y-84600559D01*
X152670713Y-84457498D01*
X152803441Y-84372090D01*
X152948431Y-84159890D01*
X152999440Y-83908000D01*
X152999440Y-82208000D01*
X152955162Y-81972683D01*
X152816090Y-81756559D01*
X152603890Y-81611569D01*
X152352000Y-81560560D01*
X152033234Y-81560560D01*
X151889401Y-81345299D01*
X150514586Y-79970484D01*
X150642977Y-79917434D01*
X151033084Y-79528007D01*
X151129115Y-79296739D01*
X151223826Y-79525957D01*
X151613253Y-79916064D01*
X152122324Y-80127449D01*
X152673538Y-80127930D01*
X153182977Y-79917434D01*
X153573084Y-79528007D01*
X153784469Y-79018936D01*
X153784950Y-78467722D01*
X153574454Y-77958283D01*
X153185027Y-77568176D01*
X152675956Y-77356791D01*
X152124742Y-77356310D01*
X151615303Y-77566806D01*
X151225196Y-77956233D01*
X151129165Y-78187501D01*
X151034454Y-77958283D01*
X150645027Y-77568176D01*
X150135956Y-77356791D01*
X149584742Y-77356310D01*
X149075303Y-77566806D01*
X148843077Y-77798627D01*
X148613027Y-77568176D01*
X148103956Y-77356791D01*
X147552742Y-77356310D01*
X147043303Y-77566806D01*
X146653196Y-77956233D01*
X146563761Y-78171616D01*
X146500071Y-78017855D01*
X146259070Y-77949795D01*
X145466745Y-78742120D01*
X145480888Y-78756263D01*
X145301283Y-78935868D01*
X145287140Y-78921725D01*
X145272998Y-78935868D01*
X145093393Y-78756263D01*
X145107535Y-78742120D01*
X144315210Y-77949795D01*
X144074209Y-78017855D01*
X143889373Y-78537154D01*
X143915834Y-79058100D01*
X139971502Y-79058100D01*
X137506842Y-76593440D01*
X138023600Y-76593440D01*
X138258917Y-76549162D01*
X138338566Y-76497909D01*
X140103900Y-76497909D01*
X140428230Y-77282847D01*
X141028254Y-77883920D01*
X141812625Y-78209619D01*
X142661929Y-78210360D01*
X143446867Y-77886030D01*
X143562909Y-77770190D01*
X144494815Y-77770190D01*
X145287140Y-78562515D01*
X146079465Y-77770190D01*
X146011405Y-77529189D01*
X145492106Y-77344353D01*
X144941602Y-77372315D01*
X144562875Y-77529189D01*
X144494815Y-77770190D01*
X143562909Y-77770190D01*
X144047940Y-77286006D01*
X144373639Y-76501635D01*
X144373642Y-76497909D01*
X153819900Y-76497909D01*
X154144230Y-77282847D01*
X154744254Y-77883920D01*
X155528625Y-78209619D01*
X156377929Y-78210360D01*
X157162867Y-77886030D01*
X157763940Y-77286006D01*
X158089639Y-76501635D01*
X158090380Y-75652331D01*
X157766050Y-74867393D01*
X157166026Y-74266320D01*
X156381655Y-73940621D01*
X155532351Y-73939880D01*
X154747413Y-74264210D01*
X154146340Y-74864234D01*
X153820641Y-75648605D01*
X153819900Y-76497909D01*
X144373642Y-76497909D01*
X144374380Y-75652331D01*
X144050050Y-74867393D01*
X143450026Y-74266320D01*
X142665655Y-73940621D01*
X141816351Y-73939880D01*
X141031413Y-74264210D01*
X140430340Y-74864234D01*
X140104641Y-75648605D01*
X140103900Y-76497909D01*
X138338566Y-76497909D01*
X138475041Y-76410090D01*
X138620031Y-76197890D01*
X138671040Y-75946000D01*
X138671040Y-73914000D01*
X138626762Y-73678683D01*
X138487690Y-73462559D01*
X138275490Y-73317569D01*
X138023600Y-73266560D01*
X136296400Y-73266560D01*
X136061083Y-73310838D01*
X135844959Y-73449910D01*
X135699969Y-73662110D01*
X135691600Y-73703439D01*
X135679670Y-73685585D01*
X135193489Y-73360729D01*
X134620000Y-73246655D01*
X134046511Y-73360729D01*
X133560330Y-73685585D01*
X133353539Y-73995069D01*
X132982036Y-73579268D01*
X132454791Y-73325291D01*
X132439026Y-73322642D01*
X132207000Y-73443783D01*
X132207000Y-74803000D01*
X132227000Y-74803000D01*
X132227000Y-75057000D01*
X132207000Y-75057000D01*
X132207000Y-76416217D01*
X132439026Y-76537358D01*
X132454791Y-76534709D01*
X132982036Y-76280732D01*
X133353539Y-75864931D01*
X133560330Y-76174415D01*
X134046511Y-76499271D01*
X134620000Y-76613345D01*
X135193489Y-76499271D01*
X135243526Y-76465837D01*
X135271499Y-76507701D01*
X135392698Y-76628900D01*
X129692603Y-76628900D01*
X128726301Y-75662599D01*
X128479739Y-75497852D01*
X128392219Y-75480443D01*
X128384526Y-75441766D01*
X128284398Y-75291913D01*
X130594816Y-75291913D01*
X130788046Y-75844320D01*
X131177964Y-76280732D01*
X131705209Y-76534709D01*
X131720974Y-76537358D01*
X131953000Y-76416217D01*
X131953000Y-75057000D01*
X130739076Y-75057000D01*
X130594816Y-75291913D01*
X128284398Y-75291913D01*
X128059670Y-74955585D01*
X127573489Y-74630729D01*
X127258567Y-74568087D01*
X130594816Y-74568087D01*
X130739076Y-74803000D01*
X131953000Y-74803000D01*
X131953000Y-73443783D01*
X131720974Y-73322642D01*
X131705209Y-73325291D01*
X131177964Y-73579268D01*
X130788046Y-74015680D01*
X130594816Y-74568087D01*
X127258567Y-74568087D01*
X127000000Y-74516655D01*
X126426511Y-74630729D01*
X125940330Y-74955585D01*
X125730000Y-75270366D01*
X125519670Y-74955585D01*
X125033489Y-74630729D01*
X124460000Y-74516655D01*
X123886511Y-74630729D01*
X123400330Y-74955585D01*
X123190000Y-75270366D01*
X122979670Y-74955585D01*
X122493489Y-74630729D01*
X121920000Y-74516655D01*
X121346511Y-74630729D01*
X120860330Y-74955585D01*
X120845500Y-74977780D01*
X120781927Y-74824302D01*
X120603299Y-74645673D01*
X120369910Y-74549000D01*
X119665750Y-74549000D01*
X119507000Y-74707750D01*
X119507000Y-76073000D01*
X119527000Y-76073000D01*
X119527000Y-76327000D01*
X119507000Y-76327000D01*
X119507000Y-77692250D01*
X119665750Y-77851000D01*
X120369910Y-77851000D01*
X120603299Y-77754327D01*
X120781927Y-77575698D01*
X120845500Y-77422220D01*
X120860330Y-77444415D01*
X121346511Y-77769271D01*
X121920000Y-77883345D01*
X122493489Y-77769271D01*
X122847036Y-77533038D01*
X124776099Y-79462101D01*
X125022660Y-79626848D01*
X125313500Y-79684700D01*
X132763897Y-79684700D01*
X132653299Y-79758599D01*
X130343899Y-82067999D01*
X130179152Y-82314561D01*
X130121300Y-82605400D01*
X130121300Y-82913194D01*
X129572345Y-82804000D01*
X129507655Y-82804000D01*
X128875845Y-82929675D01*
X128340222Y-83287567D01*
X127982330Y-83823190D01*
X127856655Y-84455000D01*
X127982330Y-85086810D01*
X128209499Y-85426792D01*
X128072559Y-85514910D01*
X127927569Y-85727110D01*
X127876560Y-85979000D01*
X127876560Y-88011000D01*
X127920838Y-88246317D01*
X128059910Y-88462441D01*
X128272110Y-88607431D01*
X128524000Y-88658440D01*
X130556000Y-88658440D01*
X130791317Y-88614162D01*
X131007441Y-88475090D01*
X131120752Y-88309254D01*
X132699599Y-89888101D01*
X132946161Y-90052848D01*
X133237000Y-90110700D01*
X138677298Y-90110700D01*
X137544398Y-91243600D01*
X125166700Y-91243600D01*
X124875861Y-91301452D01*
X124629299Y-91466199D01*
X124597216Y-91498282D01*
X124504090Y-91353559D01*
X124291890Y-91208569D01*
X124040000Y-91157560D01*
X122340000Y-91157560D01*
X122104683Y-91201838D01*
X121888559Y-91340910D01*
X121743569Y-91553110D01*
X121692560Y-91805000D01*
X121692560Y-92045000D01*
X120242440Y-92045000D01*
X120242440Y-91805000D01*
X120198162Y-91569683D01*
X120059090Y-91353559D01*
X119846890Y-91208569D01*
X119595000Y-91157560D01*
X117895000Y-91157560D01*
X117659683Y-91201838D01*
X117443559Y-91340910D01*
X117298569Y-91553110D01*
X117247560Y-91805000D01*
X117247560Y-93805000D01*
X117291838Y-94040317D01*
X117430910Y-94256441D01*
X117519798Y-94317176D01*
X117406673Y-94430302D01*
X117310000Y-94663691D01*
X117310000Y-95504250D01*
X117468750Y-95663000D01*
X118618000Y-95663000D01*
X118618000Y-95643000D01*
X118872000Y-95643000D01*
X118872000Y-95663000D01*
X120021250Y-95663000D01*
X120180000Y-95504250D01*
X120180000Y-94663691D01*
X120083327Y-94430302D01*
X119970793Y-94317768D01*
X120046441Y-94269090D01*
X120191431Y-94056890D01*
X120242440Y-93805000D01*
X120242440Y-93565000D01*
X121692560Y-93565000D01*
X121692560Y-93805000D01*
X121736838Y-94040317D01*
X121875910Y-94256441D01*
X121934405Y-94296409D01*
X121888559Y-94325910D01*
X121743569Y-94538110D01*
X121692560Y-94790000D01*
X121692560Y-96790000D01*
X121736838Y-97025317D01*
X121875910Y-97241441D01*
X122088110Y-97386431D01*
X122340000Y-97437440D01*
X124040000Y-97437440D01*
X124275317Y-97393162D01*
X124491441Y-97254090D01*
X124598257Y-97097759D01*
X126502499Y-99002001D01*
X126749061Y-99166748D01*
X127039900Y-99224600D01*
X130145898Y-99224600D01*
X133309858Y-102388560D01*
X132572000Y-102388560D01*
X132336683Y-102432838D01*
X132120559Y-102571910D01*
X131975569Y-102784110D01*
X131924560Y-103036000D01*
X131924560Y-104736000D01*
X131968838Y-104971317D01*
X132107910Y-105187441D01*
X132264241Y-105294257D01*
X132068399Y-105490099D01*
X131903652Y-105736661D01*
X131845800Y-106027500D01*
X131845800Y-106772974D01*
X131754289Y-106831860D01*
X131683133Y-106936000D01*
X124261400Y-106936000D01*
X123970561Y-106993852D01*
X123723999Y-107158599D01*
X123087258Y-107795340D01*
X123035490Y-107759969D01*
X122783600Y-107708960D01*
X122317342Y-107708960D01*
X125380302Y-104646000D01*
X127924560Y-104646000D01*
X127924560Y-104736000D01*
X127968838Y-104971317D01*
X128107910Y-105187441D01*
X128320110Y-105332431D01*
X128572000Y-105383440D01*
X130572000Y-105383440D01*
X130807317Y-105339162D01*
X131023441Y-105200090D01*
X131168431Y-104987890D01*
X131219440Y-104736000D01*
X131219440Y-103036000D01*
X131175162Y-102800683D01*
X131036090Y-102584559D01*
X130823890Y-102439569D01*
X130572000Y-102388560D01*
X128572000Y-102388560D01*
X128336683Y-102432838D01*
X128120559Y-102571910D01*
X127975569Y-102784110D01*
X127924560Y-103036000D01*
X127924560Y-103126000D01*
X125065500Y-103126000D01*
X124774661Y-103183852D01*
X124528099Y-103348599D01*
X120193599Y-107683099D01*
X120028852Y-107929661D01*
X119971000Y-108220500D01*
X119971000Y-114823700D01*
X120028852Y-115114539D01*
X120193599Y-115361101D01*
X120866699Y-116034201D01*
X121113261Y-116198948D01*
X121404100Y-116256800D01*
X123263200Y-116256800D01*
X123554039Y-116198948D01*
X123800601Y-116034201D01*
X124101644Y-115733158D01*
X124430641Y-115798600D01*
X124489359Y-115798600D01*
X125062848Y-115684526D01*
X125549029Y-115359670D01*
X125749262Y-115060000D01*
X141097300Y-115060000D01*
X141388139Y-115002148D01*
X141634701Y-114837401D01*
X142716000Y-113756102D01*
X143787299Y-114827401D01*
X144033860Y-114992148D01*
X144324700Y-115050000D01*
X148709188Y-115050000D01*
X149024663Y-115366026D01*
X149491273Y-115559779D01*
X149996510Y-115560220D01*
X150463458Y-115367282D01*
X150821026Y-115010337D01*
X151014779Y-114543727D01*
X151014781Y-114541512D01*
X151207718Y-115008458D01*
X151564663Y-115366026D01*
X152031273Y-115559779D01*
X152536510Y-115560220D01*
X153003458Y-115367282D01*
X153361026Y-115010337D01*
X153463867Y-114762669D01*
X158618599Y-119917401D01*
X158865161Y-120082148D01*
X159156000Y-120140000D01*
X173596560Y-120140000D01*
X173596560Y-120396000D01*
X173640838Y-120631317D01*
X173779910Y-120847441D01*
X173992110Y-120992431D01*
X174244000Y-121043440D01*
X176276000Y-121043440D01*
X176511317Y-120999162D01*
X176727441Y-120860090D01*
X176838840Y-120697052D01*
X176935182Y-120786385D01*
X177417056Y-120985975D01*
X177673000Y-120866836D01*
X177673000Y-119507000D01*
X177927000Y-119507000D01*
X177927000Y-120866836D01*
X178182944Y-120985975D01*
X178664818Y-120786385D01*
X179137188Y-120348379D01*
X179405983Y-119762946D01*
X179287367Y-119507000D01*
X177927000Y-119507000D01*
X177673000Y-119507000D01*
X177653000Y-119507000D01*
X177653000Y-119253000D01*
X177673000Y-119253000D01*
X177673000Y-117893164D01*
X177927000Y-117893164D01*
X177927000Y-119253000D01*
X179287367Y-119253000D01*
X179405983Y-118997054D01*
X179137188Y-118411621D01*
X178664818Y-117973615D01*
X178182944Y-117774025D01*
X177927000Y-117893164D01*
X177673000Y-117893164D01*
X177417056Y-117774025D01*
X176935182Y-117973615D01*
X176837602Y-118064097D01*
X176740090Y-117912559D01*
X176527890Y-117767569D01*
X176276000Y-117716560D01*
X174244000Y-117716560D01*
X174008683Y-117760838D01*
X173792559Y-117899910D01*
X173647569Y-118112110D01*
X173596560Y-118364000D01*
X173596560Y-118620000D01*
X159470802Y-118620000D01*
X153864729Y-113013927D01*
X153882023Y-113012906D01*
X154209697Y-112877179D01*
X154263528Y-112648133D01*
X153555000Y-111939605D01*
X153540858Y-111953748D01*
X153361253Y-111774143D01*
X153375395Y-111760000D01*
X153361253Y-111745858D01*
X153540858Y-111566253D01*
X153555000Y-111580395D01*
X153569143Y-111566253D01*
X153748748Y-111745858D01*
X153734605Y-111760000D01*
X154443133Y-112468528D01*
X154672179Y-112414697D01*
X154837681Y-111937336D01*
X154815381Y-111559600D01*
X156943498Y-111559600D01*
X157681299Y-112297401D01*
X157896560Y-112441233D01*
X157896560Y-112610000D01*
X157940838Y-112845317D01*
X158079910Y-113061441D01*
X158292110Y-113206431D01*
X158544000Y-113257440D01*
X160544000Y-113257440D01*
X160779317Y-113213162D01*
X160995441Y-113074090D01*
X161140431Y-112861890D01*
X161191440Y-112610000D01*
X161191440Y-112441233D01*
X161406701Y-112297401D01*
X161896560Y-111807542D01*
X161896560Y-112610000D01*
X161940838Y-112845317D01*
X162079910Y-113061441D01*
X162292110Y-113206431D01*
X162544000Y-113257440D01*
X162862767Y-113257440D01*
X163006599Y-113472701D01*
X163182399Y-113648501D01*
X163428961Y-113813248D01*
X163719800Y-113871100D01*
X173661968Y-113871100D01*
X173576655Y-114300000D01*
X173690729Y-114873489D01*
X174015585Y-115359670D01*
X174501766Y-115684526D01*
X175075255Y-115798600D01*
X175444745Y-115798600D01*
X176018234Y-115684526D01*
X176504415Y-115359670D01*
X176829271Y-114873489D01*
X176943345Y-114300000D01*
X176829271Y-113726511D01*
X176587310Y-113364392D01*
X177616601Y-112335101D01*
X177781348Y-112088539D01*
X177839200Y-111797700D01*
X177839200Y-98716800D01*
X177781348Y-98425961D01*
X177616601Y-98179399D01*
X174660642Y-95223440D01*
X175466000Y-95223440D01*
X175701317Y-95179162D01*
X175917441Y-95040090D01*
X176062431Y-94827890D01*
X176113440Y-94576000D01*
X176113440Y-94486000D01*
X178403800Y-94486000D01*
X178694639Y-94428148D01*
X178941201Y-94263401D01*
X181272525Y-91932077D01*
X181469030Y-91971870D01*
X183066690Y-91971870D01*
X183302007Y-91927592D01*
X183518131Y-91788520D01*
X183663121Y-91576320D01*
X183714130Y-91324430D01*
X183714130Y-89523570D01*
X183669852Y-89288253D01*
X183530780Y-89072129D01*
X183318580Y-88927139D01*
X183066690Y-88876130D01*
X181469030Y-88876130D01*
X181233713Y-88920408D01*
X181017589Y-89059480D01*
X180872599Y-89271680D01*
X180848970Y-89388366D01*
X180830132Y-89288253D01*
X180691060Y-89072129D01*
X180478860Y-88927139D01*
X180226970Y-88876130D01*
X178629310Y-88876130D01*
X178393993Y-88920408D01*
X178177869Y-89059480D01*
X178111466Y-89156664D01*
X176426520Y-87471718D01*
X176504415Y-87419670D01*
X176829271Y-86933489D01*
X176943345Y-86360000D01*
X176829271Y-85786511D01*
X176590515Y-85429187D01*
X177144301Y-84875401D01*
X177309048Y-84628839D01*
X177366900Y-84338000D01*
X177366900Y-79054802D01*
X181740731Y-74680971D01*
X181752838Y-74745317D01*
X181891910Y-74961441D01*
X182104110Y-75106431D01*
X182356000Y-75157440D01*
X184356000Y-75157440D01*
X184591317Y-75113162D01*
X184807441Y-74974090D01*
X184952431Y-74761890D01*
X185003440Y-74510000D01*
X185003440Y-72810000D01*
X184959162Y-72574683D01*
X184871057Y-72437764D01*
X185658761Y-72112291D01*
X186409655Y-71362707D01*
X186563000Y-70993411D01*
X186563000Y-119505983D01*
X186412291Y-119141239D01*
X185662707Y-118390345D01*
X184682827Y-117983464D01*
X183621828Y-117982538D01*
X182641239Y-118387709D01*
X181890345Y-119137293D01*
X181483464Y-120117173D01*
X181482538Y-121178172D01*
X181736580Y-121793000D01*
X157617811Y-121793000D01*
X157894576Y-121126476D01*
X157895421Y-120157774D01*
X157525496Y-119262486D01*
X156841117Y-118576912D01*
X155946476Y-118205424D01*
X154977774Y-118204579D01*
X154082486Y-118574504D01*
X153396912Y-119258883D01*
X153025424Y-120153524D01*
X153024579Y-121122226D01*
X153301737Y-121793000D01*
X149997811Y-121793000D01*
X150274576Y-121126476D01*
X150275421Y-120157774D01*
X149905496Y-119262486D01*
X149221117Y-118576912D01*
X148326476Y-118205424D01*
X147357774Y-118204579D01*
X146462486Y-118574504D01*
X145776912Y-119258883D01*
X145405424Y-120153524D01*
X145404579Y-121122226D01*
X145681737Y-121793000D01*
X115443170Y-121793000D01*
X115696536Y-121182827D01*
X115697462Y-120121828D01*
X115292291Y-119141239D01*
X114542707Y-118390345D01*
X113562827Y-117983464D01*
X112501828Y-117982538D01*
X111521239Y-118387709D01*
X110770345Y-119137293D01*
X110617000Y-119506589D01*
X110617000Y-100020000D01*
X112852560Y-100020000D01*
X112852560Y-102200000D01*
X112896838Y-102435317D01*
X113035910Y-102651441D01*
X113248110Y-102796431D01*
X113500000Y-102847440D01*
X115100000Y-102847440D01*
X115335317Y-102803162D01*
X115551441Y-102664090D01*
X115696431Y-102451890D01*
X115747440Y-102200000D01*
X115747440Y-101870000D01*
X116299700Y-101870000D01*
X116590539Y-101812148D01*
X116837101Y-101647401D01*
X117387784Y-101096718D01*
X117480910Y-101241441D01*
X117693110Y-101386431D01*
X117945000Y-101437440D01*
X119545000Y-101437440D01*
X119780317Y-101393162D01*
X119996441Y-101254090D01*
X120141431Y-101041890D01*
X120192440Y-100790000D01*
X120192440Y-100550000D01*
X121692560Y-100550000D01*
X121692560Y-100790000D01*
X121736838Y-101025317D01*
X121875910Y-101241441D01*
X122088110Y-101386431D01*
X122340000Y-101437440D01*
X124040000Y-101437440D01*
X124275317Y-101393162D01*
X124491441Y-101254090D01*
X124636431Y-101041890D01*
X124687440Y-100790000D01*
X124687440Y-100550000D01*
X125053685Y-100550000D01*
X125154201Y-100591738D01*
X125526167Y-100592062D01*
X125869943Y-100450017D01*
X126133192Y-100187227D01*
X126275838Y-99843699D01*
X126276162Y-99471733D01*
X126134117Y-99127957D01*
X125871327Y-98864708D01*
X125527799Y-98722062D01*
X125155833Y-98721738D01*
X124812057Y-98863783D01*
X124687440Y-98988183D01*
X124687440Y-98790000D01*
X124643162Y-98554683D01*
X124504090Y-98338559D01*
X124291890Y-98193569D01*
X124040000Y-98142560D01*
X122340000Y-98142560D01*
X122104683Y-98186838D01*
X121888559Y-98325910D01*
X121743569Y-98538110D01*
X121692560Y-98790000D01*
X121692560Y-99030000D01*
X120192440Y-99030000D01*
X120192440Y-98790000D01*
X120148162Y-98554683D01*
X120009090Y-98338559D01*
X119796890Y-98193569D01*
X119545000Y-98142560D01*
X117945000Y-98142560D01*
X117709683Y-98186838D01*
X117493559Y-98325910D01*
X117348569Y-98538110D01*
X117297560Y-98790000D01*
X117297560Y-99108767D01*
X117082299Y-99252599D01*
X115984898Y-100350000D01*
X115747440Y-100350000D01*
X115747440Y-100020000D01*
X115703162Y-99784683D01*
X115564090Y-99568559D01*
X115351890Y-99423569D01*
X115100000Y-99372560D01*
X113500000Y-99372560D01*
X113264683Y-99416838D01*
X113048559Y-99555910D01*
X112903569Y-99768110D01*
X112852560Y-100020000D01*
X110617000Y-100020000D01*
X110617000Y-96075750D01*
X117310000Y-96075750D01*
X117310000Y-96916309D01*
X117406673Y-97149698D01*
X117585301Y-97328327D01*
X117818690Y-97425000D01*
X118459250Y-97425000D01*
X118618000Y-97266250D01*
X118618000Y-95917000D01*
X118872000Y-95917000D01*
X118872000Y-97266250D01*
X119030750Y-97425000D01*
X119671310Y-97425000D01*
X119904699Y-97328327D01*
X120083327Y-97149698D01*
X120180000Y-96916309D01*
X120180000Y-96075750D01*
X120021250Y-95917000D01*
X118872000Y-95917000D01*
X118618000Y-95917000D01*
X117468750Y-95917000D01*
X117310000Y-96075750D01*
X110617000Y-96075750D01*
X110617000Y-92215750D01*
X112865000Y-92215750D01*
X112865000Y-93146309D01*
X112961673Y-93379698D01*
X113140301Y-93558327D01*
X113373690Y-93655000D01*
X114014250Y-93655000D01*
X114173000Y-93496250D01*
X114173000Y-92057000D01*
X114427000Y-92057000D01*
X114427000Y-93496250D01*
X114585750Y-93655000D01*
X115226310Y-93655000D01*
X115459699Y-93558327D01*
X115638327Y-93379698D01*
X115735000Y-93146309D01*
X115735000Y-92215750D01*
X115576250Y-92057000D01*
X114427000Y-92057000D01*
X114173000Y-92057000D01*
X113023750Y-92057000D01*
X112865000Y-92215750D01*
X110617000Y-92215750D01*
X110617000Y-90713691D01*
X112865000Y-90713691D01*
X112865000Y-91644250D01*
X113023750Y-91803000D01*
X114173000Y-91803000D01*
X114173000Y-90363750D01*
X114427000Y-90363750D01*
X114427000Y-91803000D01*
X115576250Y-91803000D01*
X115735000Y-91644250D01*
X115735000Y-90713691D01*
X115638327Y-90480302D01*
X115459699Y-90301673D01*
X115226310Y-90205000D01*
X114585750Y-90205000D01*
X114427000Y-90363750D01*
X114173000Y-90363750D01*
X114014250Y-90205000D01*
X113373690Y-90205000D01*
X113140301Y-90301673D01*
X112961673Y-90480302D01*
X112865000Y-90713691D01*
X110617000Y-90713691D01*
X110617000Y-87512163D01*
X112057443Y-87512163D01*
X112156042Y-87778965D01*
X112765582Y-88005401D01*
X113415377Y-87981341D01*
X113841103Y-87805000D01*
X117247560Y-87805000D01*
X117247560Y-89805000D01*
X117291838Y-90040317D01*
X117430910Y-90256441D01*
X117643110Y-90401431D01*
X117895000Y-90452440D01*
X119595000Y-90452440D01*
X119830317Y-90408162D01*
X120046441Y-90269090D01*
X120191431Y-90056890D01*
X120242440Y-89805000D01*
X120242440Y-89486233D01*
X120457701Y-89342401D01*
X121692560Y-88107542D01*
X121692560Y-89805000D01*
X121736838Y-90040317D01*
X121875910Y-90256441D01*
X122088110Y-90401431D01*
X122340000Y-90452440D01*
X124040000Y-90452440D01*
X124275317Y-90408162D01*
X124491441Y-90269090D01*
X124636431Y-90056890D01*
X124687440Y-89805000D01*
X124687440Y-89486233D01*
X124902701Y-89342401D01*
X124997401Y-89247701D01*
X125162148Y-89001139D01*
X125220000Y-88710300D01*
X125220000Y-85264648D01*
X125519670Y-85064415D01*
X125844526Y-84578234D01*
X125958600Y-84004745D01*
X125958600Y-83635255D01*
X125844526Y-83061766D01*
X125519670Y-82575585D01*
X125033489Y-82250729D01*
X124460000Y-82136655D01*
X123886511Y-82250729D01*
X123400330Y-82575585D01*
X123190000Y-82890366D01*
X122979670Y-82575585D01*
X122493489Y-82250729D01*
X121920000Y-82136655D01*
X121346511Y-82250729D01*
X120860330Y-82575585D01*
X120845500Y-82597780D01*
X120781927Y-82444302D01*
X120603299Y-82265673D01*
X120369910Y-82169000D01*
X119665750Y-82169000D01*
X119507000Y-82327750D01*
X119507000Y-83693000D01*
X119527000Y-83693000D01*
X119527000Y-83947000D01*
X119507000Y-83947000D01*
X119507000Y-85312250D01*
X119665750Y-85471000D01*
X120369910Y-85471000D01*
X120603299Y-85374327D01*
X120781927Y-85195698D01*
X120845500Y-85042220D01*
X120860330Y-85064415D01*
X121160000Y-85264648D01*
X121160000Y-86490498D01*
X120152216Y-87498282D01*
X120059090Y-87353559D01*
X119846890Y-87208569D01*
X119595000Y-87157560D01*
X117895000Y-87157560D01*
X117659683Y-87201838D01*
X117443559Y-87340910D01*
X117298569Y-87553110D01*
X117247560Y-87805000D01*
X113841103Y-87805000D01*
X113903958Y-87778965D01*
X114002557Y-87512163D01*
X113030000Y-86539605D01*
X112057443Y-87512163D01*
X110617000Y-87512163D01*
X110617000Y-86095582D01*
X111384599Y-86095582D01*
X111408659Y-86745377D01*
X111611035Y-87233958D01*
X111877837Y-87332557D01*
X112850395Y-86360000D01*
X113209605Y-86360000D01*
X114182163Y-87332557D01*
X114448965Y-87233958D01*
X114675401Y-86624418D01*
X114651341Y-85974623D01*
X114448965Y-85486042D01*
X114182163Y-85387443D01*
X113209605Y-86360000D01*
X112850395Y-86360000D01*
X111877837Y-85387443D01*
X111611035Y-85486042D01*
X111384599Y-86095582D01*
X110617000Y-86095582D01*
X110617000Y-85207837D01*
X112057443Y-85207837D01*
X113030000Y-86180395D01*
X114002557Y-85207837D01*
X113903958Y-84941035D01*
X113294418Y-84714599D01*
X112644623Y-84738659D01*
X112156042Y-84941035D01*
X112057443Y-85207837D01*
X110617000Y-85207837D01*
X110617000Y-84105750D01*
X117881400Y-84105750D01*
X117881400Y-84962309D01*
X117978073Y-85195698D01*
X118156701Y-85374327D01*
X118390090Y-85471000D01*
X119094250Y-85471000D01*
X119253000Y-85312250D01*
X119253000Y-83947000D01*
X118040150Y-83947000D01*
X117881400Y-84105750D01*
X110617000Y-84105750D01*
X110617000Y-82677691D01*
X117881400Y-82677691D01*
X117881400Y-83534250D01*
X118040150Y-83693000D01*
X119253000Y-83693000D01*
X119253000Y-82327750D01*
X119094250Y-82169000D01*
X118390090Y-82169000D01*
X118156701Y-82265673D01*
X117978073Y-82444302D01*
X117881400Y-82677691D01*
X110617000Y-82677691D01*
X110617000Y-76485750D01*
X117881400Y-76485750D01*
X117881400Y-77342309D01*
X117978073Y-77575698D01*
X118156701Y-77754327D01*
X118390090Y-77851000D01*
X119094250Y-77851000D01*
X119253000Y-77692250D01*
X119253000Y-76327000D01*
X118040150Y-76327000D01*
X117881400Y-76485750D01*
X110617000Y-76485750D01*
X110617000Y-75057691D01*
X117881400Y-75057691D01*
X117881400Y-75914250D01*
X118040150Y-76073000D01*
X119253000Y-76073000D01*
X119253000Y-74707750D01*
X119094250Y-74549000D01*
X118390090Y-74549000D01*
X118156701Y-74645673D01*
X117978073Y-74824302D01*
X117881400Y-75057691D01*
X110617000Y-75057691D01*
X110617000Y-70994017D01*
X110767709Y-71358761D01*
X111517293Y-72109655D01*
X112497173Y-72516536D01*
X113558172Y-72517462D01*
X114538761Y-72112291D01*
X115289655Y-71362707D01*
X115503830Y-70846913D01*
X130594816Y-70846913D01*
X130788046Y-71399320D01*
X131177964Y-71835732D01*
X131705209Y-72089709D01*
X131720974Y-72092358D01*
X131953000Y-71971217D01*
X131953000Y-70612000D01*
X130739076Y-70612000D01*
X130594816Y-70846913D01*
X115503830Y-70846913D01*
X115696536Y-70382827D01*
X115696762Y-70123087D01*
X130594816Y-70123087D01*
X130739076Y-70358000D01*
X131953000Y-70358000D01*
X131953000Y-68998783D01*
X131720974Y-68877642D01*
X131705209Y-68880291D01*
X131177964Y-69134268D01*
X130788046Y-69570680D01*
X130594816Y-70123087D01*
X115696762Y-70123087D01*
X115697462Y-69321828D01*
X115292291Y-68341239D01*
X114542707Y-67590345D01*
X114173411Y-67437000D01*
X140322098Y-67437000D01*
X138587081Y-69172017D01*
X138587081Y-69172017D01*
G37*
X138587081Y-69172017D02*
X138487690Y-69017559D01*
X138275490Y-68872569D01*
X138023600Y-68821560D01*
X136296400Y-68821560D01*
X136061083Y-68865838D01*
X135844959Y-69004910D01*
X135699969Y-69217110D01*
X135691600Y-69258439D01*
X135679670Y-69240585D01*
X135193489Y-68915729D01*
X134620000Y-68801655D01*
X134046511Y-68915729D01*
X133560330Y-69240585D01*
X133353539Y-69550069D01*
X132982036Y-69134268D01*
X132454791Y-68880291D01*
X132439026Y-68877642D01*
X132207000Y-68998783D01*
X132207000Y-70358000D01*
X132227000Y-70358000D01*
X132227000Y-70612000D01*
X132207000Y-70612000D01*
X132207000Y-71971217D01*
X132439026Y-72092358D01*
X132454791Y-72089709D01*
X132982036Y-71835732D01*
X133353539Y-71419931D01*
X133560330Y-71729415D01*
X134046511Y-72054271D01*
X134620000Y-72168345D01*
X135193489Y-72054271D01*
X135679670Y-71729415D01*
X135689243Y-71715087D01*
X135693238Y-71736317D01*
X135832310Y-71952441D01*
X136044510Y-72097431D01*
X136296400Y-72148440D01*
X138023600Y-72148440D01*
X138258917Y-72104162D01*
X138475041Y-71965090D01*
X138620031Y-71752890D01*
X138671040Y-71501000D01*
X138671040Y-71166233D01*
X138886301Y-71022401D01*
X139931012Y-69977690D01*
X159639000Y-69977690D01*
X159639000Y-70834250D01*
X159797750Y-70993000D01*
X161163000Y-70993000D01*
X161163000Y-69627750D01*
X161417000Y-69627750D01*
X161417000Y-70993000D01*
X162782250Y-70993000D01*
X162941000Y-70834250D01*
X162941000Y-69977690D01*
X162844327Y-69744301D01*
X162696026Y-69596000D01*
X165290760Y-69596000D01*
X165290760Y-71628000D01*
X165335038Y-71863317D01*
X165474110Y-72079441D01*
X165686310Y-72224431D01*
X165938200Y-72275440D01*
X169595800Y-72275440D01*
X169831117Y-72231162D01*
X170047241Y-72092090D01*
X170192231Y-71879890D01*
X170243240Y-71628000D01*
X170243240Y-69596000D01*
X170198962Y-69360683D01*
X170059890Y-69144559D01*
X170023581Y-69119750D01*
X171126150Y-69119750D01*
X171126150Y-69710880D01*
X171222823Y-69944269D01*
X171401452Y-70122897D01*
X171634841Y-70219570D01*
X172975270Y-70219570D01*
X173134020Y-70060820D01*
X173134020Y-68961000D01*
X171284900Y-68961000D01*
X171126150Y-69119750D01*
X170023581Y-69119750D01*
X169847690Y-68999569D01*
X169595800Y-68948560D01*
X165938200Y-68948560D01*
X165702883Y-68992838D01*
X165486759Y-69131910D01*
X165341769Y-69344110D01*
X165290760Y-69596000D01*
X162696026Y-69596000D01*
X162665698Y-69565673D01*
X162432309Y-69469000D01*
X161575750Y-69469000D01*
X161417000Y-69627750D01*
X161163000Y-69627750D01*
X161004250Y-69469000D01*
X160147691Y-69469000D01*
X159914302Y-69565673D01*
X159735673Y-69744301D01*
X159639000Y-69977690D01*
X139931012Y-69977690D01*
X141403502Y-68505200D01*
X171126150Y-68505200D01*
X171126150Y-68548250D01*
X171284900Y-68707000D01*
X173134020Y-68707000D01*
X173134020Y-68687000D01*
X173388020Y-68687000D01*
X173388020Y-68707000D01*
X173408020Y-68707000D01*
X173408020Y-68961000D01*
X173388020Y-68961000D01*
X173388020Y-70060820D01*
X173546770Y-70219570D01*
X174326300Y-70219570D01*
X174326300Y-71235398D01*
X173918899Y-71642799D01*
X173766708Y-71870570D01*
X173617890Y-71870570D01*
X173459140Y-72029320D01*
X173459140Y-73279000D01*
X173479140Y-73279000D01*
X173479140Y-73533000D01*
X173459140Y-73533000D01*
X173459140Y-73553000D01*
X173205140Y-73553000D01*
X173205140Y-73533000D01*
X172057060Y-73533000D01*
X171898310Y-73691750D01*
X171898310Y-74432740D01*
X171994983Y-74666129D01*
X172173612Y-74844757D01*
X172407001Y-74941430D01*
X172933768Y-74941430D01*
X172760498Y-75114700D01*
X167767000Y-75114700D01*
X167476161Y-75172552D01*
X167229599Y-75337299D01*
X167064852Y-75583861D01*
X167063771Y-75589295D01*
X167023683Y-75596838D01*
X166807559Y-75735910D01*
X166662569Y-75948110D01*
X166624000Y-76138569D01*
X166624000Y-76073690D01*
X166527327Y-75840301D01*
X166348698Y-75661673D01*
X166115309Y-75565000D01*
X165766750Y-75565000D01*
X165608000Y-75723750D01*
X165608000Y-77089000D01*
X165628000Y-77089000D01*
X165628000Y-77343000D01*
X165608000Y-77343000D01*
X165608000Y-78708250D01*
X165766750Y-78867000D01*
X166115309Y-78867000D01*
X166348698Y-78770327D01*
X166527327Y-78591699D01*
X166624000Y-78358310D01*
X166624000Y-78298113D01*
X166655838Y-78467317D01*
X166705306Y-78544192D01*
X166100799Y-79148699D01*
X165936052Y-79395261D01*
X165889759Y-79627990D01*
X163313110Y-79627990D01*
X163077793Y-79672268D01*
X162861669Y-79811340D01*
X162815864Y-79878378D01*
X162674588Y-79737103D01*
X162441199Y-79640430D01*
X161100770Y-79640430D01*
X160942020Y-79799180D01*
X160942020Y-80899000D01*
X160962020Y-80899000D01*
X160962020Y-81153000D01*
X160942020Y-81153000D01*
X160942020Y-82252820D01*
X161100770Y-82411570D01*
X162441199Y-82411570D01*
X162674588Y-82314897D01*
X162814743Y-82174743D01*
X162849020Y-82228011D01*
X162982728Y-82319370D01*
X162591475Y-82710623D01*
X162530599Y-82751299D01*
X162386767Y-82966560D01*
X162218000Y-82966560D01*
X161982683Y-83010838D01*
X161766559Y-83149910D01*
X161621569Y-83362110D01*
X161570560Y-83614000D01*
X161570560Y-85614000D01*
X161614838Y-85849317D01*
X161753910Y-86065441D01*
X161966110Y-86210431D01*
X162218000Y-86261440D01*
X163918000Y-86261440D01*
X164153317Y-86217162D01*
X164369441Y-86078090D01*
X164514431Y-85865890D01*
X164565440Y-85614000D01*
X164565440Y-85285001D01*
X164834570Y-85285001D01*
X164834570Y-85924390D01*
X164993320Y-86083140D01*
X166243000Y-86083140D01*
X166243000Y-84935060D01*
X166497000Y-84935060D01*
X166497000Y-86083140D01*
X167746680Y-86083140D01*
X167905430Y-85924390D01*
X167905430Y-85343750D01*
X168999000Y-85343750D01*
X168999000Y-86184309D01*
X169095673Y-86417698D01*
X169274301Y-86596327D01*
X169507690Y-86693000D01*
X170148250Y-86693000D01*
X170307000Y-86534250D01*
X170307000Y-85185000D01*
X170561000Y-85185000D01*
X170561000Y-86534250D01*
X170719750Y-86693000D01*
X171360310Y-86693000D01*
X171593699Y-86596327D01*
X171772327Y-86417698D01*
X171869000Y-86184309D01*
X171869000Y-85343750D01*
X171710250Y-85185000D01*
X170561000Y-85185000D01*
X170307000Y-85185000D01*
X169157750Y-85185000D01*
X168999000Y-85343750D01*
X167905430Y-85343750D01*
X167905430Y-85285001D01*
X167808757Y-85051612D01*
X167630129Y-84872983D01*
X167396740Y-84776310D01*
X166655750Y-84776310D01*
X166497000Y-84935060D01*
X166243000Y-84935060D01*
X166084250Y-84776310D01*
X165343260Y-84776310D01*
X165109871Y-84872983D01*
X164931243Y-85051612D01*
X164834570Y-85285001D01*
X164565440Y-85285001D01*
X164565440Y-83931691D01*
X168999000Y-83931691D01*
X168999000Y-84772250D01*
X169157750Y-84931000D01*
X170307000Y-84931000D01*
X170307000Y-83581750D01*
X170561000Y-83581750D01*
X170561000Y-84931000D01*
X171710250Y-84931000D01*
X171869000Y-84772250D01*
X171869000Y-83931691D01*
X171772327Y-83698302D01*
X171593699Y-83519673D01*
X171360310Y-83423000D01*
X170719750Y-83423000D01*
X170561000Y-83581750D01*
X170307000Y-83581750D01*
X170148250Y-83423000D01*
X169507690Y-83423000D01*
X169274301Y-83519673D01*
X169095673Y-83698302D01*
X168999000Y-83931691D01*
X164565440Y-83931691D01*
X164565440Y-83614000D01*
X164521162Y-83378683D01*
X164382090Y-83162559D01*
X164326872Y-83124830D01*
X165027692Y-82424010D01*
X166312850Y-82424010D01*
X166548167Y-82379732D01*
X166764291Y-82240660D01*
X166909281Y-82028460D01*
X166960290Y-81776570D01*
X166960290Y-81707267D01*
X167175601Y-81563401D01*
X167340348Y-81316839D01*
X167398200Y-81026000D01*
X167398200Y-80000902D01*
X167767000Y-79632102D01*
X168548700Y-80413802D01*
X168548700Y-81058000D01*
X168606552Y-81348839D01*
X168771299Y-81595401D01*
X168986560Y-81739233D01*
X168986560Y-82058000D01*
X169030838Y-82293317D01*
X169169910Y-82509441D01*
X169382110Y-82654431D01*
X169634000Y-82705440D01*
X171234000Y-82705440D01*
X171469317Y-82661162D01*
X171685441Y-82522090D01*
X171830431Y-82309890D01*
X171881440Y-82058000D01*
X171881440Y-81639026D01*
X173652642Y-81639026D01*
X173655291Y-81654791D01*
X173909268Y-82182036D01*
X174321108Y-82550000D01*
X173909268Y-82917964D01*
X173655291Y-83445209D01*
X173652642Y-83460974D01*
X173773783Y-83693000D01*
X175133000Y-83693000D01*
X175133000Y-81407000D01*
X173773783Y-81407000D01*
X173652642Y-81639026D01*
X171881440Y-81639026D01*
X171881440Y-80058000D01*
X171837162Y-79822683D01*
X171698090Y-79606559D01*
X171542136Y-79500000D01*
X173596560Y-79500000D01*
X173596560Y-79603600D01*
X173640838Y-79838917D01*
X173779910Y-80055041D01*
X173992110Y-80200031D01*
X174086927Y-80219232D01*
X173909268Y-80377964D01*
X173655291Y-80905209D01*
X173652642Y-80920974D01*
X173773783Y-81153000D01*
X175133000Y-81153000D01*
X175133000Y-81133000D01*
X175387000Y-81133000D01*
X175387000Y-81153000D01*
X175407000Y-81153000D01*
X175407000Y-81407000D01*
X175387000Y-81407000D01*
X175387000Y-83693000D01*
X175407000Y-83693000D01*
X175407000Y-83947000D01*
X175387000Y-83947000D01*
X175387000Y-83967000D01*
X175133000Y-83967000D01*
X175133000Y-83947000D01*
X173773783Y-83947000D01*
X173652642Y-84179026D01*
X173655291Y-84194791D01*
X173909268Y-84722036D01*
X173948875Y-84757423D01*
X173381199Y-85325099D01*
X173216452Y-85571661D01*
X173158600Y-85862500D01*
X173158600Y-88914600D01*
X173182055Y-89032513D01*
X173123569Y-89118110D01*
X173072560Y-89370000D01*
X173072560Y-90288638D01*
X172603199Y-90757999D01*
X172438452Y-91004561D01*
X172380600Y-91295400D01*
X172380600Y-94778200D01*
X172438452Y-95069039D01*
X172603199Y-95315601D01*
X176319200Y-99031602D01*
X176319200Y-102637708D01*
X176276000Y-102628960D01*
X174244000Y-102628960D01*
X174008683Y-102673238D01*
X173792559Y-102812310D01*
X173647569Y-103024510D01*
X173596560Y-103276400D01*
X173596560Y-104568900D01*
X173434200Y-104568900D01*
X173143361Y-104626752D01*
X172896799Y-104791499D01*
X169214498Y-108473800D01*
X162418500Y-108473800D01*
X162167957Y-108523636D01*
X162201441Y-108502090D01*
X162346431Y-108289890D01*
X162397440Y-108038000D01*
X162397440Y-106338000D01*
X162353162Y-106102683D01*
X162214090Y-105886559D01*
X162001890Y-105741569D01*
X161750000Y-105690560D01*
X159750000Y-105690560D01*
X159514683Y-105734838D01*
X159298559Y-105873910D01*
X159153569Y-106086110D01*
X159102560Y-106338000D01*
X159102560Y-107603300D01*
X158397440Y-107603300D01*
X158397440Y-106338000D01*
X158353162Y-106102683D01*
X158214090Y-105886559D01*
X158001890Y-105741569D01*
X157750000Y-105690560D01*
X155750000Y-105690560D01*
X155514683Y-105734838D01*
X155298559Y-105873910D01*
X155153569Y-106086110D01*
X155102560Y-106338000D01*
X155102560Y-106428000D01*
X154357720Y-106428000D01*
X154162939Y-106297852D01*
X154098788Y-106285092D01*
X154010900Y-106148509D01*
X153798700Y-106003519D01*
X153546810Y-105952510D01*
X153536812Y-105952510D01*
X152135702Y-104551400D01*
X153407200Y-104551400D01*
X153698039Y-104493548D01*
X153944601Y-104328801D01*
X154419210Y-103854192D01*
X154459910Y-103917441D01*
X154672110Y-104062431D01*
X154924000Y-104113440D01*
X156924000Y-104113440D01*
X157159317Y-104069162D01*
X157375441Y-103930090D01*
X157405737Y-103885750D01*
X158585000Y-103885750D01*
X158585000Y-104726309D01*
X158681673Y-104959698D01*
X158860301Y-105138327D01*
X159093690Y-105235000D01*
X159734250Y-105235000D01*
X159893000Y-105076250D01*
X159893000Y-103727000D01*
X160147000Y-103727000D01*
X160147000Y-105076250D01*
X160305750Y-105235000D01*
X160946310Y-105235000D01*
X161179699Y-105138327D01*
X161358327Y-104959698D01*
X161455000Y-104726309D01*
X161455000Y-104392730D01*
X162444430Y-104392730D01*
X162444430Y-105733159D01*
X162541103Y-105966548D01*
X162719731Y-106145177D01*
X162953120Y-106241850D01*
X163544250Y-106241850D01*
X163703000Y-106083100D01*
X163703000Y-104233980D01*
X163957000Y-104233980D01*
X163957000Y-106083100D01*
X164115750Y-106241850D01*
X164706880Y-106241850D01*
X164940269Y-106145177D01*
X165118897Y-105966548D01*
X165215570Y-105733159D01*
X165215570Y-104647750D01*
X166459000Y-104647750D01*
X166459000Y-105488309D01*
X166555673Y-105721698D01*
X166734301Y-105900327D01*
X166967690Y-105997000D01*
X167608250Y-105997000D01*
X167767000Y-105838250D01*
X167767000Y-104489000D01*
X168021000Y-104489000D01*
X168021000Y-105838250D01*
X168179750Y-105997000D01*
X168820310Y-105997000D01*
X169053699Y-105900327D01*
X169232327Y-105721698D01*
X169329000Y-105488309D01*
X169329000Y-104647750D01*
X169170250Y-104489000D01*
X168021000Y-104489000D01*
X167767000Y-104489000D01*
X166617750Y-104489000D01*
X166459000Y-104647750D01*
X165215570Y-104647750D01*
X165215570Y-104392730D01*
X165056820Y-104233980D01*
X163957000Y-104233980D01*
X163703000Y-104233980D01*
X162603180Y-104233980D01*
X162444430Y-104392730D01*
X161455000Y-104392730D01*
X161455000Y-103885750D01*
X161296250Y-103727000D01*
X160147000Y-103727000D01*
X159893000Y-103727000D01*
X158743750Y-103727000D01*
X158585000Y-103885750D01*
X157405737Y-103885750D01*
X157520431Y-103717890D01*
X157571440Y-103466000D01*
X157571440Y-102067800D01*
X158636698Y-102067800D01*
X158745436Y-102176538D01*
X158681673Y-102240302D01*
X158585000Y-102473691D01*
X158585000Y-103314250D01*
X158743750Y-103473000D01*
X159893000Y-103473000D01*
X159893000Y-103453000D01*
X160147000Y-103453000D01*
X160147000Y-103473000D01*
X161296250Y-103473000D01*
X161455000Y-103314250D01*
X161455000Y-102694300D01*
X162444430Y-102694300D01*
X162444430Y-103821230D01*
X162603180Y-103979980D01*
X163703000Y-103979980D01*
X163703000Y-103959980D01*
X163957000Y-103959980D01*
X163957000Y-103979980D01*
X165056820Y-103979980D01*
X165215570Y-103821230D01*
X165215570Y-103235691D01*
X166459000Y-103235691D01*
X166459000Y-104076250D01*
X166617750Y-104235000D01*
X167767000Y-104235000D01*
X167767000Y-102885750D01*
X168021000Y-102885750D01*
X168021000Y-104235000D01*
X169170250Y-104235000D01*
X169329000Y-104076250D01*
X169329000Y-103235691D01*
X169232327Y-103002302D01*
X169053699Y-102823673D01*
X168820310Y-102727000D01*
X168179750Y-102727000D01*
X168021000Y-102885750D01*
X167767000Y-102885750D01*
X167608250Y-102727000D01*
X166967690Y-102727000D01*
X166734301Y-102823673D01*
X166555673Y-103002302D01*
X166459000Y-103235691D01*
X165215570Y-103235691D01*
X165215570Y-102690487D01*
X165487239Y-102636448D01*
X165733801Y-102471701D01*
X166536784Y-101668718D01*
X166629910Y-101813441D01*
X166842110Y-101958431D01*
X167094000Y-102009440D01*
X168694000Y-102009440D01*
X168929317Y-101965162D01*
X169145441Y-101826090D01*
X169290431Y-101613890D01*
X169341440Y-101362000D01*
X169341440Y-99362000D01*
X169297162Y-99126683D01*
X169158090Y-98910559D01*
X168945890Y-98765569D01*
X168694000Y-98714560D01*
X167094000Y-98714560D01*
X166858683Y-98758838D01*
X166642559Y-98897910D01*
X166497569Y-99110110D01*
X166446560Y-99362000D01*
X166446560Y-99680767D01*
X166231299Y-99824599D01*
X165228010Y-100827888D01*
X165228010Y-98609150D01*
X165183732Y-98373833D01*
X165044660Y-98157709D01*
X164832460Y-98012719D01*
X164580570Y-97961710D01*
X163079430Y-97961710D01*
X162844113Y-98005988D01*
X162627989Y-98145060D01*
X162482999Y-98357260D01*
X162431990Y-98609150D01*
X162431990Y-99349000D01*
X161969102Y-99349000D01*
X161682701Y-99062599D01*
X161467440Y-98918767D01*
X161467440Y-98600000D01*
X161423162Y-98364683D01*
X161284090Y-98148559D01*
X161071890Y-98003569D01*
X160820000Y-97952560D01*
X159220000Y-97952560D01*
X158984683Y-97996838D01*
X158909400Y-98045281D01*
X158909400Y-97966702D01*
X159033401Y-97842701D01*
X159177234Y-97627440D01*
X159296000Y-97627440D01*
X159531317Y-97583162D01*
X159747441Y-97444090D01*
X159892431Y-97231890D01*
X159943440Y-96980000D01*
X159943440Y-95414600D01*
X160944560Y-95414600D01*
X160944560Y-96862000D01*
X160988838Y-97097317D01*
X161127910Y-97313441D01*
X161340110Y-97458431D01*
X161592000Y-97509440D01*
X163592000Y-97509440D01*
X163827317Y-97465162D01*
X164043441Y-97326090D01*
X164188431Y-97113890D01*
X164239440Y-96862000D01*
X164239440Y-95162000D01*
X164195162Y-94926683D01*
X164056090Y-94710559D01*
X164030695Y-94693207D01*
X164476901Y-94247001D01*
X164641648Y-94000439D01*
X164699500Y-93709600D01*
X164699500Y-91743800D01*
X164648550Y-91487661D01*
X164641648Y-91452960D01*
X164476901Y-91206399D01*
X164267701Y-90997199D01*
X164021139Y-90832452D01*
X163730300Y-90774600D01*
X161453900Y-90774600D01*
X161163061Y-90832452D01*
X160916499Y-90997199D01*
X159789474Y-92124224D01*
X159772250Y-92107000D01*
X158623000Y-92107000D01*
X158623000Y-92127000D01*
X158369000Y-92127000D01*
X158369000Y-92107000D01*
X158349000Y-92107000D01*
X158349000Y-91853000D01*
X158369000Y-91853000D01*
X158369000Y-90503750D01*
X158623000Y-90503750D01*
X158623000Y-91853000D01*
X159772250Y-91853000D01*
X159931000Y-91694250D01*
X159931000Y-90853691D01*
X159834327Y-90620302D01*
X159655699Y-90441673D01*
X159422310Y-90345000D01*
X158781750Y-90345000D01*
X158623000Y-90503750D01*
X158369000Y-90503750D01*
X158210250Y-90345000D01*
X158096800Y-90345000D01*
X158096800Y-87614000D01*
X161570560Y-87614000D01*
X161570560Y-89614000D01*
X161614838Y-89849317D01*
X161753910Y-90065441D01*
X161966110Y-90210431D01*
X162218000Y-90261440D01*
X163918000Y-90261440D01*
X164153317Y-90217162D01*
X164369441Y-90078090D01*
X164514431Y-89865890D01*
X164565440Y-89614000D01*
X164565440Y-89545842D01*
X164606899Y-89587301D01*
X164822130Y-89731113D01*
X164822130Y-89848690D01*
X164866408Y-90084007D01*
X165005480Y-90300131D01*
X165217680Y-90445121D01*
X165469570Y-90496130D01*
X166196296Y-90496130D01*
X166063057Y-90551183D01*
X165799808Y-90813973D01*
X165657162Y-91157501D01*
X165657114Y-91212560D01*
X165592000Y-91212560D01*
X165356683Y-91256838D01*
X165140559Y-91395910D01*
X164995569Y-91608110D01*
X164944560Y-91860000D01*
X164944560Y-93560000D01*
X164988838Y-93795317D01*
X165127910Y-94011441D01*
X165340110Y-94156431D01*
X165384974Y-94165516D01*
X165261862Y-94462001D01*
X165261724Y-94619942D01*
X165140559Y-94697910D01*
X164995569Y-94910110D01*
X164944560Y-95162000D01*
X164944560Y-96862000D01*
X164988838Y-97097317D01*
X165127910Y-97313441D01*
X165340110Y-97458431D01*
X165592000Y-97509440D01*
X167592000Y-97509440D01*
X167827317Y-97465162D01*
X168043441Y-97326090D01*
X168188431Y-97113890D01*
X168239440Y-96862000D01*
X168239440Y-95162000D01*
X168195162Y-94926683D01*
X168056090Y-94710559D01*
X167843890Y-94565569D01*
X167592000Y-94514560D01*
X167273233Y-94514560D01*
X167129401Y-94299299D01*
X167039003Y-94238897D01*
X167026005Y-94207440D01*
X167592000Y-94207440D01*
X167827317Y-94163162D01*
X168043441Y-94024090D01*
X168051872Y-94011750D01*
X168831000Y-94011750D01*
X168831000Y-94702310D01*
X168927673Y-94935699D01*
X169106302Y-95114327D01*
X169339691Y-95211000D01*
X170180250Y-95211000D01*
X170339000Y-95052250D01*
X170339000Y-93853000D01*
X170593000Y-93853000D01*
X170593000Y-95052250D01*
X170751750Y-95211000D01*
X171592309Y-95211000D01*
X171825698Y-95114327D01*
X172004327Y-94935699D01*
X172101000Y-94702310D01*
X172101000Y-94011750D01*
X171942250Y-93853000D01*
X170593000Y-93853000D01*
X170339000Y-93853000D01*
X168989750Y-93853000D01*
X168831000Y-94011750D01*
X168051872Y-94011750D01*
X168188431Y-93811890D01*
X168239440Y-93560000D01*
X168239440Y-92749690D01*
X168831000Y-92749690D01*
X168831000Y-93440250D01*
X168989750Y-93599000D01*
X170339000Y-93599000D01*
X170339000Y-92399750D01*
X170593000Y-92399750D01*
X170593000Y-93599000D01*
X171942250Y-93599000D01*
X172101000Y-93440250D01*
X172101000Y-92749690D01*
X172004327Y-92516301D01*
X171825698Y-92337673D01*
X171592309Y-92241000D01*
X170751750Y-92241000D01*
X170593000Y-92399750D01*
X170339000Y-92399750D01*
X170180250Y-92241000D01*
X169339691Y-92241000D01*
X169106302Y-92337673D01*
X168927673Y-92516301D01*
X168831000Y-92749690D01*
X168239440Y-92749690D01*
X168239440Y-91860000D01*
X168195162Y-91624683D01*
X168056090Y-91408559D01*
X167843890Y-91263569D01*
X167592000Y-91212560D01*
X167527115Y-91212560D01*
X167527162Y-91159133D01*
X167385117Y-90815357D01*
X167122327Y-90552108D01*
X166987518Y-90496130D01*
X167270430Y-90496130D01*
X167485030Y-90455750D01*
X169085000Y-90455750D01*
X169085000Y-91096310D01*
X169181673Y-91329699D01*
X169360302Y-91508327D01*
X169593691Y-91605000D01*
X170434250Y-91605000D01*
X170593000Y-91446250D01*
X170593000Y-90297000D01*
X170847000Y-90297000D01*
X170847000Y-91446250D01*
X171005750Y-91605000D01*
X171846309Y-91605000D01*
X172079698Y-91508327D01*
X172258327Y-91329699D01*
X172355000Y-91096310D01*
X172355000Y-90455750D01*
X172196250Y-90297000D01*
X170847000Y-90297000D01*
X170593000Y-90297000D01*
X169243750Y-90297000D01*
X169085000Y-90455750D01*
X167485030Y-90455750D01*
X167505747Y-90451852D01*
X167721871Y-90312780D01*
X167866861Y-90100580D01*
X167917870Y-89848690D01*
X167917870Y-89243690D01*
X169085000Y-89243690D01*
X169085000Y-89884250D01*
X169243750Y-90043000D01*
X170593000Y-90043000D01*
X170593000Y-88893750D01*
X170847000Y-88893750D01*
X170847000Y-90043000D01*
X172196250Y-90043000D01*
X172355000Y-89884250D01*
X172355000Y-89243690D01*
X172258327Y-89010301D01*
X172079698Y-88831673D01*
X171846309Y-88735000D01*
X171005750Y-88735000D01*
X170847000Y-88893750D01*
X170593000Y-88893750D01*
X170434250Y-88735000D01*
X169593691Y-88735000D01*
X169360302Y-88831673D01*
X169181673Y-89010301D01*
X169085000Y-89243690D01*
X167917870Y-89243690D01*
X167917870Y-88251030D01*
X167873592Y-88015713D01*
X167734520Y-87799589D01*
X167522320Y-87654599D01*
X167420741Y-87634029D01*
X167630129Y-87547297D01*
X167808757Y-87368668D01*
X167905430Y-87135279D01*
X167905430Y-86495890D01*
X167746680Y-86337140D01*
X166497000Y-86337140D01*
X166497000Y-86357140D01*
X166243000Y-86357140D01*
X166243000Y-86337140D01*
X164993320Y-86337140D01*
X164834570Y-86495890D01*
X164834570Y-87135279D01*
X164931243Y-87368668D01*
X165109871Y-87547297D01*
X165315681Y-87632546D01*
X165234253Y-87647868D01*
X165018129Y-87786940D01*
X164940732Y-87900214D01*
X164708400Y-87854000D01*
X164565440Y-87854000D01*
X164565440Y-87614000D01*
X164521162Y-87378683D01*
X164382090Y-87162559D01*
X164169890Y-87017569D01*
X163918000Y-86966560D01*
X162218000Y-86966560D01*
X161982683Y-87010838D01*
X161766559Y-87149910D01*
X161621569Y-87362110D01*
X161570560Y-87614000D01*
X158096800Y-87614000D01*
X158096800Y-81311750D01*
X158680150Y-81311750D01*
X158680150Y-81902880D01*
X158776823Y-82136269D01*
X158955452Y-82314897D01*
X159188841Y-82411570D01*
X160529270Y-82411570D01*
X160688020Y-82252820D01*
X160688020Y-81153000D01*
X158838900Y-81153000D01*
X158680150Y-81311750D01*
X158096800Y-81311750D01*
X158096800Y-80149120D01*
X158680150Y-80149120D01*
X158680150Y-80740250D01*
X158838900Y-80899000D01*
X160688020Y-80899000D01*
X160688020Y-79799180D01*
X160529270Y-79640430D01*
X159188841Y-79640430D01*
X158955452Y-79737103D01*
X158776823Y-79915731D01*
X158680150Y-80149120D01*
X158096800Y-80149120D01*
X158096800Y-79269302D01*
X159864352Y-77501750D01*
X164338000Y-77501750D01*
X164338000Y-78358310D01*
X164434673Y-78591699D01*
X164613302Y-78770327D01*
X164846691Y-78867000D01*
X165195250Y-78867000D01*
X165354000Y-78708250D01*
X165354000Y-77343000D01*
X164496750Y-77343000D01*
X164338000Y-77501750D01*
X159864352Y-77501750D01*
X161292412Y-76073690D01*
X164338000Y-76073690D01*
X164338000Y-76930250D01*
X164496750Y-77089000D01*
X165354000Y-77089000D01*
X165354000Y-75723750D01*
X165195250Y-75565000D01*
X164846691Y-75565000D01*
X164613302Y-75661673D01*
X164434673Y-75840301D01*
X164338000Y-76073690D01*
X161292412Y-76073690D01*
X161827401Y-75538701D01*
X161992148Y-75292139D01*
X162022475Y-75139675D01*
X162489778Y-74827433D01*
X162847670Y-74291810D01*
X162973345Y-73660000D01*
X162847670Y-73028190D01*
X162623034Y-72691999D01*
X162665698Y-72674327D01*
X162844327Y-72495699D01*
X162892557Y-72379260D01*
X171898310Y-72379260D01*
X171898310Y-73120250D01*
X172057060Y-73279000D01*
X173205140Y-73279000D01*
X173205140Y-72029320D01*
X173046390Y-71870570D01*
X172407001Y-71870570D01*
X172173612Y-71967243D01*
X171994983Y-72145871D01*
X171898310Y-72379260D01*
X162892557Y-72379260D01*
X162941000Y-72262310D01*
X162941000Y-71405750D01*
X162782250Y-71247000D01*
X161417000Y-71247000D01*
X161417000Y-71267000D01*
X161163000Y-71267000D01*
X161163000Y-71247000D01*
X159797750Y-71247000D01*
X159639000Y-71405750D01*
X159639000Y-72262310D01*
X159735673Y-72495699D01*
X159914302Y-72674327D01*
X159956966Y-72691999D01*
X159732330Y-73028190D01*
X159606655Y-73660000D01*
X159732330Y-74291810D01*
X160090222Y-74827433D01*
X160269365Y-74947133D01*
X156799399Y-78417099D01*
X156634652Y-78663661D01*
X156576800Y-78954500D01*
X156576800Y-84431287D01*
X156542309Y-84417000D01*
X155701750Y-84417000D01*
X155543000Y-84575750D01*
X155543000Y-85725000D01*
X155563000Y-85725000D01*
X155563000Y-85979000D01*
X155543000Y-85979000D01*
X155543000Y-87128250D01*
X155701750Y-87287000D01*
X156542309Y-87287000D01*
X156576800Y-87272713D01*
X156576800Y-89735473D01*
X156524090Y-89653559D01*
X156311890Y-89508569D01*
X156060000Y-89457560D01*
X155494700Y-89457560D01*
X155494700Y-87845400D01*
X155485501Y-87799152D01*
X155436848Y-87554560D01*
X155272101Y-87307999D01*
X155190676Y-87226574D01*
X155289000Y-87128250D01*
X155289000Y-85979000D01*
X155269000Y-85979000D01*
X155269000Y-85725000D01*
X155289000Y-85725000D01*
X155289000Y-84575750D01*
X155130250Y-84417000D01*
X154289691Y-84417000D01*
X154056302Y-84513673D01*
X153877673Y-84692301D01*
X153781000Y-84925690D01*
X153781000Y-85566250D01*
X153939748Y-85724998D01*
X153781000Y-85724998D01*
X153781000Y-85816898D01*
X153278701Y-85314599D01*
X153063440Y-85170767D01*
X153063440Y-85052000D01*
X153019162Y-84816683D01*
X152880090Y-84600559D01*
X152670713Y-84457498D01*
X152803441Y-84372090D01*
X152948431Y-84159890D01*
X152999440Y-83908000D01*
X152999440Y-82208000D01*
X152955162Y-81972683D01*
X152816090Y-81756559D01*
X152603890Y-81611569D01*
X152352000Y-81560560D01*
X152033234Y-81560560D01*
X151889401Y-81345299D01*
X150514586Y-79970484D01*
X150642977Y-79917434D01*
X151033084Y-79528007D01*
X151129115Y-79296739D01*
X151223826Y-79525957D01*
X151613253Y-79916064D01*
X152122324Y-80127449D01*
X152673538Y-80127930D01*
X153182977Y-79917434D01*
X153573084Y-79528007D01*
X153784469Y-79018936D01*
X153784950Y-78467722D01*
X153574454Y-77958283D01*
X153185027Y-77568176D01*
X152675956Y-77356791D01*
X152124742Y-77356310D01*
X151615303Y-77566806D01*
X151225196Y-77956233D01*
X151129165Y-78187501D01*
X151034454Y-77958283D01*
X150645027Y-77568176D01*
X150135956Y-77356791D01*
X149584742Y-77356310D01*
X149075303Y-77566806D01*
X148843077Y-77798627D01*
X148613027Y-77568176D01*
X148103956Y-77356791D01*
X147552742Y-77356310D01*
X147043303Y-77566806D01*
X146653196Y-77956233D01*
X146563761Y-78171616D01*
X146500071Y-78017855D01*
X146259070Y-77949795D01*
X145466745Y-78742120D01*
X145480888Y-78756263D01*
X145301283Y-78935868D01*
X145287140Y-78921725D01*
X145272998Y-78935868D01*
X145093393Y-78756263D01*
X145107535Y-78742120D01*
X144315210Y-77949795D01*
X144074209Y-78017855D01*
X143889373Y-78537154D01*
X143915834Y-79058100D01*
X139971502Y-79058100D01*
X137506842Y-76593440D01*
X138023600Y-76593440D01*
X138258917Y-76549162D01*
X138338566Y-76497909D01*
X140103900Y-76497909D01*
X140428230Y-77282847D01*
X141028254Y-77883920D01*
X141812625Y-78209619D01*
X142661929Y-78210360D01*
X143446867Y-77886030D01*
X143562909Y-77770190D01*
X144494815Y-77770190D01*
X145287140Y-78562515D01*
X146079465Y-77770190D01*
X146011405Y-77529189D01*
X145492106Y-77344353D01*
X144941602Y-77372315D01*
X144562875Y-77529189D01*
X144494815Y-77770190D01*
X143562909Y-77770190D01*
X144047940Y-77286006D01*
X144373639Y-76501635D01*
X144373642Y-76497909D01*
X153819900Y-76497909D01*
X154144230Y-77282847D01*
X154744254Y-77883920D01*
X155528625Y-78209619D01*
X156377929Y-78210360D01*
X157162867Y-77886030D01*
X157763940Y-77286006D01*
X158089639Y-76501635D01*
X158090380Y-75652331D01*
X157766050Y-74867393D01*
X157166026Y-74266320D01*
X156381655Y-73940621D01*
X155532351Y-73939880D01*
X154747413Y-74264210D01*
X154146340Y-74864234D01*
X153820641Y-75648605D01*
X153819900Y-76497909D01*
X144373642Y-76497909D01*
X144374380Y-75652331D01*
X144050050Y-74867393D01*
X143450026Y-74266320D01*
X142665655Y-73940621D01*
X141816351Y-73939880D01*
X141031413Y-74264210D01*
X140430340Y-74864234D01*
X140104641Y-75648605D01*
X140103900Y-76497909D01*
X138338566Y-76497909D01*
X138475041Y-76410090D01*
X138620031Y-76197890D01*
X138671040Y-75946000D01*
X138671040Y-73914000D01*
X138626762Y-73678683D01*
X138487690Y-73462559D01*
X138275490Y-73317569D01*
X138023600Y-73266560D01*
X136296400Y-73266560D01*
X136061083Y-73310838D01*
X135844959Y-73449910D01*
X135699969Y-73662110D01*
X135691600Y-73703439D01*
X135679670Y-73685585D01*
X135193489Y-73360729D01*
X134620000Y-73246655D01*
X134046511Y-73360729D01*
X133560330Y-73685585D01*
X133353539Y-73995069D01*
X132982036Y-73579268D01*
X132454791Y-73325291D01*
X132439026Y-73322642D01*
X132207000Y-73443783D01*
X132207000Y-74803000D01*
X132227000Y-74803000D01*
X132227000Y-75057000D01*
X132207000Y-75057000D01*
X132207000Y-76416217D01*
X132439026Y-76537358D01*
X132454791Y-76534709D01*
X132982036Y-76280732D01*
X133353539Y-75864931D01*
X133560330Y-76174415D01*
X134046511Y-76499271D01*
X134620000Y-76613345D01*
X135193489Y-76499271D01*
X135243526Y-76465837D01*
X135271499Y-76507701D01*
X135392698Y-76628900D01*
X129692603Y-76628900D01*
X128726301Y-75662599D01*
X128479739Y-75497852D01*
X128392219Y-75480443D01*
X128384526Y-75441766D01*
X128284398Y-75291913D01*
X130594816Y-75291913D01*
X130788046Y-75844320D01*
X131177964Y-76280732D01*
X131705209Y-76534709D01*
X131720974Y-76537358D01*
X131953000Y-76416217D01*
X131953000Y-75057000D01*
X130739076Y-75057000D01*
X130594816Y-75291913D01*
X128284398Y-75291913D01*
X128059670Y-74955585D01*
X127573489Y-74630729D01*
X127258567Y-74568087D01*
X130594816Y-74568087D01*
X130739076Y-74803000D01*
X131953000Y-74803000D01*
X131953000Y-73443783D01*
X131720974Y-73322642D01*
X131705209Y-73325291D01*
X131177964Y-73579268D01*
X130788046Y-74015680D01*
X130594816Y-74568087D01*
X127258567Y-74568087D01*
X127000000Y-74516655D01*
X126426511Y-74630729D01*
X125940330Y-74955585D01*
X125730000Y-75270366D01*
X125519670Y-74955585D01*
X125033489Y-74630729D01*
X124460000Y-74516655D01*
X123886511Y-74630729D01*
X123400330Y-74955585D01*
X123190000Y-75270366D01*
X122979670Y-74955585D01*
X122493489Y-74630729D01*
X121920000Y-74516655D01*
X121346511Y-74630729D01*
X120860330Y-74955585D01*
X120845500Y-74977780D01*
X120781927Y-74824302D01*
X120603299Y-74645673D01*
X120369910Y-74549000D01*
X119665750Y-74549000D01*
X119507000Y-74707750D01*
X119507000Y-76073000D01*
X119527000Y-76073000D01*
X119527000Y-76327000D01*
X119507000Y-76327000D01*
X119507000Y-77692250D01*
X119665750Y-77851000D01*
X120369910Y-77851000D01*
X120603299Y-77754327D01*
X120781927Y-77575698D01*
X120845500Y-77422220D01*
X120860330Y-77444415D01*
X121346511Y-77769271D01*
X121920000Y-77883345D01*
X122493489Y-77769271D01*
X122847036Y-77533038D01*
X124776099Y-79462101D01*
X125022660Y-79626848D01*
X125313500Y-79684700D01*
X132763897Y-79684700D01*
X132653299Y-79758599D01*
X130343899Y-82067999D01*
X130179152Y-82314561D01*
X130121300Y-82605400D01*
X130121300Y-82913194D01*
X129572345Y-82804000D01*
X129507655Y-82804000D01*
X128875845Y-82929675D01*
X128340222Y-83287567D01*
X127982330Y-83823190D01*
X127856655Y-84455000D01*
X127982330Y-85086810D01*
X128209499Y-85426792D01*
X128072559Y-85514910D01*
X127927569Y-85727110D01*
X127876560Y-85979000D01*
X127876560Y-88011000D01*
X127920838Y-88246317D01*
X128059910Y-88462441D01*
X128272110Y-88607431D01*
X128524000Y-88658440D01*
X130556000Y-88658440D01*
X130791317Y-88614162D01*
X131007441Y-88475090D01*
X131120752Y-88309254D01*
X132699599Y-89888101D01*
X132946161Y-90052848D01*
X133237000Y-90110700D01*
X138677298Y-90110700D01*
X137544398Y-91243600D01*
X125166700Y-91243600D01*
X124875861Y-91301452D01*
X124629299Y-91466199D01*
X124597216Y-91498282D01*
X124504090Y-91353559D01*
X124291890Y-91208569D01*
X124040000Y-91157560D01*
X122340000Y-91157560D01*
X122104683Y-91201838D01*
X121888559Y-91340910D01*
X121743569Y-91553110D01*
X121692560Y-91805000D01*
X121692560Y-92045000D01*
X120242440Y-92045000D01*
X120242440Y-91805000D01*
X120198162Y-91569683D01*
X120059090Y-91353559D01*
X119846890Y-91208569D01*
X119595000Y-91157560D01*
X117895000Y-91157560D01*
X117659683Y-91201838D01*
X117443559Y-91340910D01*
X117298569Y-91553110D01*
X117247560Y-91805000D01*
X117247560Y-93805000D01*
X117291838Y-94040317D01*
X117430910Y-94256441D01*
X117519798Y-94317176D01*
X117406673Y-94430302D01*
X117310000Y-94663691D01*
X117310000Y-95504250D01*
X117468750Y-95663000D01*
X118618000Y-95663000D01*
X118618000Y-95643000D01*
X118872000Y-95643000D01*
X118872000Y-95663000D01*
X120021250Y-95663000D01*
X120180000Y-95504250D01*
X120180000Y-94663691D01*
X120083327Y-94430302D01*
X119970793Y-94317768D01*
X120046441Y-94269090D01*
X120191431Y-94056890D01*
X120242440Y-93805000D01*
X120242440Y-93565000D01*
X121692560Y-93565000D01*
X121692560Y-93805000D01*
X121736838Y-94040317D01*
X121875910Y-94256441D01*
X121934405Y-94296409D01*
X121888559Y-94325910D01*
X121743569Y-94538110D01*
X121692560Y-94790000D01*
X121692560Y-96790000D01*
X121736838Y-97025317D01*
X121875910Y-97241441D01*
X122088110Y-97386431D01*
X122340000Y-97437440D01*
X124040000Y-97437440D01*
X124275317Y-97393162D01*
X124491441Y-97254090D01*
X124598257Y-97097759D01*
X126502499Y-99002001D01*
X126749061Y-99166748D01*
X127039900Y-99224600D01*
X130145898Y-99224600D01*
X133309858Y-102388560D01*
X132572000Y-102388560D01*
X132336683Y-102432838D01*
X132120559Y-102571910D01*
X131975569Y-102784110D01*
X131924560Y-103036000D01*
X131924560Y-104736000D01*
X131968838Y-104971317D01*
X132107910Y-105187441D01*
X132264241Y-105294257D01*
X132068399Y-105490099D01*
X131903652Y-105736661D01*
X131845800Y-106027500D01*
X131845800Y-106772974D01*
X131754289Y-106831860D01*
X131683133Y-106936000D01*
X124261400Y-106936000D01*
X123970561Y-106993852D01*
X123723999Y-107158599D01*
X123087258Y-107795340D01*
X123035490Y-107759969D01*
X122783600Y-107708960D01*
X122317342Y-107708960D01*
X125380302Y-104646000D01*
X127924560Y-104646000D01*
X127924560Y-104736000D01*
X127968838Y-104971317D01*
X128107910Y-105187441D01*
X128320110Y-105332431D01*
X128572000Y-105383440D01*
X130572000Y-105383440D01*
X130807317Y-105339162D01*
X131023441Y-105200090D01*
X131168431Y-104987890D01*
X131219440Y-104736000D01*
X131219440Y-103036000D01*
X131175162Y-102800683D01*
X131036090Y-102584559D01*
X130823890Y-102439569D01*
X130572000Y-102388560D01*
X128572000Y-102388560D01*
X128336683Y-102432838D01*
X128120559Y-102571910D01*
X127975569Y-102784110D01*
X127924560Y-103036000D01*
X127924560Y-103126000D01*
X125065500Y-103126000D01*
X124774661Y-103183852D01*
X124528099Y-103348599D01*
X120193599Y-107683099D01*
X120028852Y-107929661D01*
X119971000Y-108220500D01*
X119971000Y-114823700D01*
X120028852Y-115114539D01*
X120193599Y-115361101D01*
X120866699Y-116034201D01*
X121113261Y-116198948D01*
X121404100Y-116256800D01*
X123263200Y-116256800D01*
X123554039Y-116198948D01*
X123800601Y-116034201D01*
X124101644Y-115733158D01*
X124430641Y-115798600D01*
X124489359Y-115798600D01*
X125062848Y-115684526D01*
X125549029Y-115359670D01*
X125749262Y-115060000D01*
X141097300Y-115060000D01*
X141388139Y-115002148D01*
X141634701Y-114837401D01*
X142716000Y-113756102D01*
X143787299Y-114827401D01*
X144033860Y-114992148D01*
X144324700Y-115050000D01*
X148709188Y-115050000D01*
X149024663Y-115366026D01*
X149491273Y-115559779D01*
X149996510Y-115560220D01*
X150463458Y-115367282D01*
X150821026Y-115010337D01*
X151014779Y-114543727D01*
X151014781Y-114541512D01*
X151207718Y-115008458D01*
X151564663Y-115366026D01*
X152031273Y-115559779D01*
X152536510Y-115560220D01*
X153003458Y-115367282D01*
X153361026Y-115010337D01*
X153463867Y-114762669D01*
X158618599Y-119917401D01*
X158865161Y-120082148D01*
X159156000Y-120140000D01*
X173596560Y-120140000D01*
X173596560Y-120396000D01*
X173640838Y-120631317D01*
X173779910Y-120847441D01*
X173992110Y-120992431D01*
X174244000Y-121043440D01*
X176276000Y-121043440D01*
X176511317Y-120999162D01*
X176727441Y-120860090D01*
X176838840Y-120697052D01*
X176935182Y-120786385D01*
X177417056Y-120985975D01*
X177673000Y-120866836D01*
X177673000Y-119507000D01*
X177927000Y-119507000D01*
X177927000Y-120866836D01*
X178182944Y-120985975D01*
X178664818Y-120786385D01*
X179137188Y-120348379D01*
X179405983Y-119762946D01*
X179287367Y-119507000D01*
X177927000Y-119507000D01*
X177673000Y-119507000D01*
X177653000Y-119507000D01*
X177653000Y-119253000D01*
X177673000Y-119253000D01*
X177673000Y-117893164D01*
X177927000Y-117893164D01*
X177927000Y-119253000D01*
X179287367Y-119253000D01*
X179405983Y-118997054D01*
X179137188Y-118411621D01*
X178664818Y-117973615D01*
X178182944Y-117774025D01*
X177927000Y-117893164D01*
X177673000Y-117893164D01*
X177417056Y-117774025D01*
X176935182Y-117973615D01*
X176837602Y-118064097D01*
X176740090Y-117912559D01*
X176527890Y-117767569D01*
X176276000Y-117716560D01*
X174244000Y-117716560D01*
X174008683Y-117760838D01*
X173792559Y-117899910D01*
X173647569Y-118112110D01*
X173596560Y-118364000D01*
X173596560Y-118620000D01*
X159470802Y-118620000D01*
X153864729Y-113013927D01*
X153882023Y-113012906D01*
X154209697Y-112877179D01*
X154263528Y-112648133D01*
X153555000Y-111939605D01*
X153540858Y-111953748D01*
X153361253Y-111774143D01*
X153375395Y-111760000D01*
X153361253Y-111745858D01*
X153540858Y-111566253D01*
X153555000Y-111580395D01*
X153569143Y-111566253D01*
X153748748Y-111745858D01*
X153734605Y-111760000D01*
X154443133Y-112468528D01*
X154672179Y-112414697D01*
X154837681Y-111937336D01*
X154815381Y-111559600D01*
X156943498Y-111559600D01*
X157681299Y-112297401D01*
X157896560Y-112441233D01*
X157896560Y-112610000D01*
X157940838Y-112845317D01*
X158079910Y-113061441D01*
X158292110Y-113206431D01*
X158544000Y-113257440D01*
X160544000Y-113257440D01*
X160779317Y-113213162D01*
X160995441Y-113074090D01*
X161140431Y-112861890D01*
X161191440Y-112610000D01*
X161191440Y-112441233D01*
X161406701Y-112297401D01*
X161896560Y-111807542D01*
X161896560Y-112610000D01*
X161940838Y-112845317D01*
X162079910Y-113061441D01*
X162292110Y-113206431D01*
X162544000Y-113257440D01*
X162862767Y-113257440D01*
X163006599Y-113472701D01*
X163182399Y-113648501D01*
X163428961Y-113813248D01*
X163719800Y-113871100D01*
X173661968Y-113871100D01*
X173576655Y-114300000D01*
X173690729Y-114873489D01*
X174015585Y-115359670D01*
X174501766Y-115684526D01*
X175075255Y-115798600D01*
X175444745Y-115798600D01*
X176018234Y-115684526D01*
X176504415Y-115359670D01*
X176829271Y-114873489D01*
X176943345Y-114300000D01*
X176829271Y-113726511D01*
X176587310Y-113364392D01*
X177616601Y-112335101D01*
X177781348Y-112088539D01*
X177839200Y-111797700D01*
X177839200Y-98716800D01*
X177781348Y-98425961D01*
X177616601Y-98179399D01*
X174660642Y-95223440D01*
X175466000Y-95223440D01*
X175701317Y-95179162D01*
X175917441Y-95040090D01*
X176062431Y-94827890D01*
X176113440Y-94576000D01*
X176113440Y-94486000D01*
X178403800Y-94486000D01*
X178694639Y-94428148D01*
X178941201Y-94263401D01*
X181272525Y-91932077D01*
X181469030Y-91971870D01*
X183066690Y-91971870D01*
X183302007Y-91927592D01*
X183518131Y-91788520D01*
X183663121Y-91576320D01*
X183714130Y-91324430D01*
X183714130Y-89523570D01*
X183669852Y-89288253D01*
X183530780Y-89072129D01*
X183318580Y-88927139D01*
X183066690Y-88876130D01*
X181469030Y-88876130D01*
X181233713Y-88920408D01*
X181017589Y-89059480D01*
X180872599Y-89271680D01*
X180848970Y-89388366D01*
X180830132Y-89288253D01*
X180691060Y-89072129D01*
X180478860Y-88927139D01*
X180226970Y-88876130D01*
X178629310Y-88876130D01*
X178393993Y-88920408D01*
X178177869Y-89059480D01*
X178111466Y-89156664D01*
X176426520Y-87471718D01*
X176504415Y-87419670D01*
X176829271Y-86933489D01*
X176943345Y-86360000D01*
X176829271Y-85786511D01*
X176590515Y-85429187D01*
X177144301Y-84875401D01*
X177309048Y-84628839D01*
X177366900Y-84338000D01*
X177366900Y-79054802D01*
X181740731Y-74680971D01*
X181752838Y-74745317D01*
X181891910Y-74961441D01*
X182104110Y-75106431D01*
X182356000Y-75157440D01*
X184356000Y-75157440D01*
X184591317Y-75113162D01*
X184807441Y-74974090D01*
X184952431Y-74761890D01*
X185003440Y-74510000D01*
X185003440Y-72810000D01*
X184959162Y-72574683D01*
X184871057Y-72437764D01*
X185658761Y-72112291D01*
X186409655Y-71362707D01*
X186563000Y-70993411D01*
X186563000Y-119505983D01*
X186412291Y-119141239D01*
X185662707Y-118390345D01*
X184682827Y-117983464D01*
X183621828Y-117982538D01*
X182641239Y-118387709D01*
X181890345Y-119137293D01*
X181483464Y-120117173D01*
X181482538Y-121178172D01*
X181736580Y-121793000D01*
X157617811Y-121793000D01*
X157894576Y-121126476D01*
X157895421Y-120157774D01*
X157525496Y-119262486D01*
X156841117Y-118576912D01*
X155946476Y-118205424D01*
X154977774Y-118204579D01*
X154082486Y-118574504D01*
X153396912Y-119258883D01*
X153025424Y-120153524D01*
X153024579Y-121122226D01*
X153301737Y-121793000D01*
X149997811Y-121793000D01*
X150274576Y-121126476D01*
X150275421Y-120157774D01*
X149905496Y-119262486D01*
X149221117Y-118576912D01*
X148326476Y-118205424D01*
X147357774Y-118204579D01*
X146462486Y-118574504D01*
X145776912Y-119258883D01*
X145405424Y-120153524D01*
X145404579Y-121122226D01*
X145681737Y-121793000D01*
X115443170Y-121793000D01*
X115696536Y-121182827D01*
X115697462Y-120121828D01*
X115292291Y-119141239D01*
X114542707Y-118390345D01*
X113562827Y-117983464D01*
X112501828Y-117982538D01*
X111521239Y-118387709D01*
X110770345Y-119137293D01*
X110617000Y-119506589D01*
X110617000Y-100020000D01*
X112852560Y-100020000D01*
X112852560Y-102200000D01*
X112896838Y-102435317D01*
X113035910Y-102651441D01*
X113248110Y-102796431D01*
X113500000Y-102847440D01*
X115100000Y-102847440D01*
X115335317Y-102803162D01*
X115551441Y-102664090D01*
X115696431Y-102451890D01*
X115747440Y-102200000D01*
X115747440Y-101870000D01*
X116299700Y-101870000D01*
X116590539Y-101812148D01*
X116837101Y-101647401D01*
X117387784Y-101096718D01*
X117480910Y-101241441D01*
X117693110Y-101386431D01*
X117945000Y-101437440D01*
X119545000Y-101437440D01*
X119780317Y-101393162D01*
X119996441Y-101254090D01*
X120141431Y-101041890D01*
X120192440Y-100790000D01*
X120192440Y-100550000D01*
X121692560Y-100550000D01*
X121692560Y-100790000D01*
X121736838Y-101025317D01*
X121875910Y-101241441D01*
X122088110Y-101386431D01*
X122340000Y-101437440D01*
X124040000Y-101437440D01*
X124275317Y-101393162D01*
X124491441Y-101254090D01*
X124636431Y-101041890D01*
X124687440Y-100790000D01*
X124687440Y-100550000D01*
X125053685Y-100550000D01*
X125154201Y-100591738D01*
X125526167Y-100592062D01*
X125869943Y-100450017D01*
X126133192Y-100187227D01*
X126275838Y-99843699D01*
X126276162Y-99471733D01*
X126134117Y-99127957D01*
X125871327Y-98864708D01*
X125527799Y-98722062D01*
X125155833Y-98721738D01*
X124812057Y-98863783D01*
X124687440Y-98988183D01*
X124687440Y-98790000D01*
X124643162Y-98554683D01*
X124504090Y-98338559D01*
X124291890Y-98193569D01*
X124040000Y-98142560D01*
X122340000Y-98142560D01*
X122104683Y-98186838D01*
X121888559Y-98325910D01*
X121743569Y-98538110D01*
X121692560Y-98790000D01*
X121692560Y-99030000D01*
X120192440Y-99030000D01*
X120192440Y-98790000D01*
X120148162Y-98554683D01*
X120009090Y-98338559D01*
X119796890Y-98193569D01*
X119545000Y-98142560D01*
X117945000Y-98142560D01*
X117709683Y-98186838D01*
X117493559Y-98325910D01*
X117348569Y-98538110D01*
X117297560Y-98790000D01*
X117297560Y-99108767D01*
X117082299Y-99252599D01*
X115984898Y-100350000D01*
X115747440Y-100350000D01*
X115747440Y-100020000D01*
X115703162Y-99784683D01*
X115564090Y-99568559D01*
X115351890Y-99423569D01*
X115100000Y-99372560D01*
X113500000Y-99372560D01*
X113264683Y-99416838D01*
X113048559Y-99555910D01*
X112903569Y-99768110D01*
X112852560Y-100020000D01*
X110617000Y-100020000D01*
X110617000Y-96075750D01*
X117310000Y-96075750D01*
X117310000Y-96916309D01*
X117406673Y-97149698D01*
X117585301Y-97328327D01*
X117818690Y-97425000D01*
X118459250Y-97425000D01*
X118618000Y-97266250D01*
X118618000Y-95917000D01*
X118872000Y-95917000D01*
X118872000Y-97266250D01*
X119030750Y-97425000D01*
X119671310Y-97425000D01*
X119904699Y-97328327D01*
X120083327Y-97149698D01*
X120180000Y-96916309D01*
X120180000Y-96075750D01*
X120021250Y-95917000D01*
X118872000Y-95917000D01*
X118618000Y-95917000D01*
X117468750Y-95917000D01*
X117310000Y-96075750D01*
X110617000Y-96075750D01*
X110617000Y-92215750D01*
X112865000Y-92215750D01*
X112865000Y-93146309D01*
X112961673Y-93379698D01*
X113140301Y-93558327D01*
X113373690Y-93655000D01*
X114014250Y-93655000D01*
X114173000Y-93496250D01*
X114173000Y-92057000D01*
X114427000Y-92057000D01*
X114427000Y-93496250D01*
X114585750Y-93655000D01*
X115226310Y-93655000D01*
X115459699Y-93558327D01*
X115638327Y-93379698D01*
X115735000Y-93146309D01*
X115735000Y-92215750D01*
X115576250Y-92057000D01*
X114427000Y-92057000D01*
X114173000Y-92057000D01*
X113023750Y-92057000D01*
X112865000Y-92215750D01*
X110617000Y-92215750D01*
X110617000Y-90713691D01*
X112865000Y-90713691D01*
X112865000Y-91644250D01*
X113023750Y-91803000D01*
X114173000Y-91803000D01*
X114173000Y-90363750D01*
X114427000Y-90363750D01*
X114427000Y-91803000D01*
X115576250Y-91803000D01*
X115735000Y-91644250D01*
X115735000Y-90713691D01*
X115638327Y-90480302D01*
X115459699Y-90301673D01*
X115226310Y-90205000D01*
X114585750Y-90205000D01*
X114427000Y-90363750D01*
X114173000Y-90363750D01*
X114014250Y-90205000D01*
X113373690Y-90205000D01*
X113140301Y-90301673D01*
X112961673Y-90480302D01*
X112865000Y-90713691D01*
X110617000Y-90713691D01*
X110617000Y-87512163D01*
X112057443Y-87512163D01*
X112156042Y-87778965D01*
X112765582Y-88005401D01*
X113415377Y-87981341D01*
X113841103Y-87805000D01*
X117247560Y-87805000D01*
X117247560Y-89805000D01*
X117291838Y-90040317D01*
X117430910Y-90256441D01*
X117643110Y-90401431D01*
X117895000Y-90452440D01*
X119595000Y-90452440D01*
X119830317Y-90408162D01*
X120046441Y-90269090D01*
X120191431Y-90056890D01*
X120242440Y-89805000D01*
X120242440Y-89486233D01*
X120457701Y-89342401D01*
X121692560Y-88107542D01*
X121692560Y-89805000D01*
X121736838Y-90040317D01*
X121875910Y-90256441D01*
X122088110Y-90401431D01*
X122340000Y-90452440D01*
X124040000Y-90452440D01*
X124275317Y-90408162D01*
X124491441Y-90269090D01*
X124636431Y-90056890D01*
X124687440Y-89805000D01*
X124687440Y-89486233D01*
X124902701Y-89342401D01*
X124997401Y-89247701D01*
X125162148Y-89001139D01*
X125220000Y-88710300D01*
X125220000Y-85264648D01*
X125519670Y-85064415D01*
X125844526Y-84578234D01*
X125958600Y-84004745D01*
X125958600Y-83635255D01*
X125844526Y-83061766D01*
X125519670Y-82575585D01*
X125033489Y-82250729D01*
X124460000Y-82136655D01*
X123886511Y-82250729D01*
X123400330Y-82575585D01*
X123190000Y-82890366D01*
X122979670Y-82575585D01*
X122493489Y-82250729D01*
X121920000Y-82136655D01*
X121346511Y-82250729D01*
X120860330Y-82575585D01*
X120845500Y-82597780D01*
X120781927Y-82444302D01*
X120603299Y-82265673D01*
X120369910Y-82169000D01*
X119665750Y-82169000D01*
X119507000Y-82327750D01*
X119507000Y-83693000D01*
X119527000Y-83693000D01*
X119527000Y-83947000D01*
X119507000Y-83947000D01*
X119507000Y-85312250D01*
X119665750Y-85471000D01*
X120369910Y-85471000D01*
X120603299Y-85374327D01*
X120781927Y-85195698D01*
X120845500Y-85042220D01*
X120860330Y-85064415D01*
X121160000Y-85264648D01*
X121160000Y-86490498D01*
X120152216Y-87498282D01*
X120059090Y-87353559D01*
X119846890Y-87208569D01*
X119595000Y-87157560D01*
X117895000Y-87157560D01*
X117659683Y-87201838D01*
X117443559Y-87340910D01*
X117298569Y-87553110D01*
X117247560Y-87805000D01*
X113841103Y-87805000D01*
X113903958Y-87778965D01*
X114002557Y-87512163D01*
X113030000Y-86539605D01*
X112057443Y-87512163D01*
X110617000Y-87512163D01*
X110617000Y-86095582D01*
X111384599Y-86095582D01*
X111408659Y-86745377D01*
X111611035Y-87233958D01*
X111877837Y-87332557D01*
X112850395Y-86360000D01*
X113209605Y-86360000D01*
X114182163Y-87332557D01*
X114448965Y-87233958D01*
X114675401Y-86624418D01*
X114651341Y-85974623D01*
X114448965Y-85486042D01*
X114182163Y-85387443D01*
X113209605Y-86360000D01*
X112850395Y-86360000D01*
X111877837Y-85387443D01*
X111611035Y-85486042D01*
X111384599Y-86095582D01*
X110617000Y-86095582D01*
X110617000Y-85207837D01*
X112057443Y-85207837D01*
X113030000Y-86180395D01*
X114002557Y-85207837D01*
X113903958Y-84941035D01*
X113294418Y-84714599D01*
X112644623Y-84738659D01*
X112156042Y-84941035D01*
X112057443Y-85207837D01*
X110617000Y-85207837D01*
X110617000Y-84105750D01*
X117881400Y-84105750D01*
X117881400Y-84962309D01*
X117978073Y-85195698D01*
X118156701Y-85374327D01*
X118390090Y-85471000D01*
X119094250Y-85471000D01*
X119253000Y-85312250D01*
X119253000Y-83947000D01*
X118040150Y-83947000D01*
X117881400Y-84105750D01*
X110617000Y-84105750D01*
X110617000Y-82677691D01*
X117881400Y-82677691D01*
X117881400Y-83534250D01*
X118040150Y-83693000D01*
X119253000Y-83693000D01*
X119253000Y-82327750D01*
X119094250Y-82169000D01*
X118390090Y-82169000D01*
X118156701Y-82265673D01*
X117978073Y-82444302D01*
X117881400Y-82677691D01*
X110617000Y-82677691D01*
X110617000Y-76485750D01*
X117881400Y-76485750D01*
X117881400Y-77342309D01*
X117978073Y-77575698D01*
X118156701Y-77754327D01*
X118390090Y-77851000D01*
X119094250Y-77851000D01*
X119253000Y-77692250D01*
X119253000Y-76327000D01*
X118040150Y-76327000D01*
X117881400Y-76485750D01*
X110617000Y-76485750D01*
X110617000Y-75057691D01*
X117881400Y-75057691D01*
X117881400Y-75914250D01*
X118040150Y-76073000D01*
X119253000Y-76073000D01*
X119253000Y-74707750D01*
X119094250Y-74549000D01*
X118390090Y-74549000D01*
X118156701Y-74645673D01*
X117978073Y-74824302D01*
X117881400Y-75057691D01*
X110617000Y-75057691D01*
X110617000Y-70994017D01*
X110767709Y-71358761D01*
X111517293Y-72109655D01*
X112497173Y-72516536D01*
X113558172Y-72517462D01*
X114538761Y-72112291D01*
X115289655Y-71362707D01*
X115503830Y-70846913D01*
X130594816Y-70846913D01*
X130788046Y-71399320D01*
X131177964Y-71835732D01*
X131705209Y-72089709D01*
X131720974Y-72092358D01*
X131953000Y-71971217D01*
X131953000Y-70612000D01*
X130739076Y-70612000D01*
X130594816Y-70846913D01*
X115503830Y-70846913D01*
X115696536Y-70382827D01*
X115696762Y-70123087D01*
X130594816Y-70123087D01*
X130739076Y-70358000D01*
X131953000Y-70358000D01*
X131953000Y-68998783D01*
X131720974Y-68877642D01*
X131705209Y-68880291D01*
X131177964Y-69134268D01*
X130788046Y-69570680D01*
X130594816Y-70123087D01*
X115696762Y-70123087D01*
X115697462Y-69321828D01*
X115292291Y-68341239D01*
X114542707Y-67590345D01*
X114173411Y-67437000D01*
X140322098Y-67437000D01*
X138587081Y-69172017D01*
G36*
X173690729Y-109793489D02*
X174015585Y-110279670D01*
X174325069Y-110486461D01*
X173909268Y-110857964D01*
X173655291Y-111385209D01*
X173652642Y-111400974D01*
X173773783Y-111633000D01*
X175133000Y-111633000D01*
X175133000Y-111613000D01*
X175387000Y-111613000D01*
X175387000Y-111633000D01*
X175407000Y-111633000D01*
X175407000Y-111887000D01*
X175387000Y-111887000D01*
X175387000Y-111907000D01*
X175133000Y-111907000D01*
X175133000Y-111887000D01*
X173773783Y-111887000D01*
X173652642Y-112119026D01*
X173655291Y-112134791D01*
X173759488Y-112351100D01*
X165191440Y-112351100D01*
X165191440Y-110910000D01*
X165158888Y-110737000D01*
X171963000Y-110737000D01*
X172253839Y-110679148D01*
X172500401Y-110514401D01*
X173612848Y-109401954D01*
X173690729Y-109793489D01*
X173690729Y-109793489D01*
G37*
X173690729Y-109793489D02*
X174015585Y-110279670D01*
X174325069Y-110486461D01*
X173909268Y-110857964D01*
X173655291Y-111385209D01*
X173652642Y-111400974D01*
X173773783Y-111633000D01*
X175133000Y-111633000D01*
X175133000Y-111613000D01*
X175387000Y-111613000D01*
X175387000Y-111633000D01*
X175407000Y-111633000D01*
X175407000Y-111887000D01*
X175387000Y-111887000D01*
X175387000Y-111907000D01*
X175133000Y-111907000D01*
X175133000Y-111887000D01*
X173773783Y-111887000D01*
X173652642Y-112119026D01*
X173655291Y-112134791D01*
X173759488Y-112351100D01*
X165191440Y-112351100D01*
X165191440Y-110910000D01*
X165158888Y-110737000D01*
X171963000Y-110737000D01*
X172253839Y-110679148D01*
X172500401Y-110514401D01*
X173612848Y-109401954D01*
X173690729Y-109793489D01*
G36*
X125845400Y-110176500D02*
X129922507Y-110176500D01*
X129898559Y-110191910D01*
X129753569Y-110404110D01*
X129702560Y-110656000D01*
X129702560Y-112351100D01*
X125818835Y-112351100D01*
X125914958Y-112119026D01*
X125793817Y-111887000D01*
X124587000Y-111887000D01*
X124587000Y-111907000D01*
X124333000Y-111907000D01*
X124333000Y-111887000D01*
X122047000Y-111887000D01*
X122047000Y-111907000D01*
X121793000Y-111907000D01*
X121793000Y-111887000D01*
X121773000Y-111887000D01*
X121773000Y-111633000D01*
X121793000Y-111633000D01*
X121793000Y-111613000D01*
X122047000Y-111613000D01*
X122047000Y-111633000D01*
X124333000Y-111633000D01*
X124333000Y-111613000D01*
X124587000Y-111613000D01*
X124587000Y-111633000D01*
X125793817Y-111633000D01*
X125914958Y-111400974D01*
X125742688Y-110985053D01*
X125348490Y-110553179D01*
X125225772Y-110495664D01*
X125549029Y-110279670D01*
X125644647Y-110136567D01*
X125845400Y-110176500D01*
X125845400Y-110176500D01*
G37*
X125845400Y-110176500D02*
X129922507Y-110176500D01*
X129898559Y-110191910D01*
X129753569Y-110404110D01*
X129702560Y-110656000D01*
X129702560Y-112351100D01*
X125818835Y-112351100D01*
X125914958Y-112119026D01*
X125793817Y-111887000D01*
X124587000Y-111887000D01*
X124587000Y-111907000D01*
X124333000Y-111907000D01*
X124333000Y-111887000D01*
X122047000Y-111887000D01*
X122047000Y-111907000D01*
X121793000Y-111907000D01*
X121793000Y-111887000D01*
X121773000Y-111887000D01*
X121773000Y-111633000D01*
X121793000Y-111633000D01*
X121793000Y-111613000D01*
X122047000Y-111613000D01*
X122047000Y-111633000D01*
X124333000Y-111633000D01*
X124333000Y-111613000D01*
X124587000Y-111613000D01*
X124587000Y-111633000D01*
X125793817Y-111633000D01*
X125914958Y-111400974D01*
X125742688Y-110985053D01*
X125348490Y-110553179D01*
X125225772Y-110495664D01*
X125549029Y-110279670D01*
X125644647Y-110136567D01*
X125845400Y-110176500D01*
G36*
X142944302Y-101277673D02*
X142765673Y-101456301D01*
X142669000Y-101689690D01*
X142669000Y-102330250D01*
X142827750Y-102489000D01*
X144177000Y-102489000D01*
X144177000Y-102469000D01*
X144431000Y-102469000D01*
X144431000Y-102489000D01*
X145780250Y-102489000D01*
X145939000Y-102330250D01*
X145939000Y-101689690D01*
X145842327Y-101456301D01*
X145663698Y-101277673D01*
X145633827Y-101265300D01*
X146987155Y-101265300D01*
X146852559Y-101351910D01*
X146707569Y-101564110D01*
X146656560Y-101816000D01*
X146656560Y-102422093D01*
X146592933Y-102422038D01*
X146249157Y-102564083D01*
X145985908Y-102826873D01*
X145939000Y-102939839D01*
X145939000Y-102901750D01*
X145780250Y-102743000D01*
X144431000Y-102743000D01*
X144431000Y-103892250D01*
X144589750Y-104051000D01*
X145430309Y-104051000D01*
X145663698Y-103954327D01*
X145842327Y-103775699D01*
X145890898Y-103658439D01*
X145984983Y-103886143D01*
X146247773Y-104149392D01*
X146591301Y-104292038D01*
X146644829Y-104292085D01*
X146871360Y-104443448D01*
X146919614Y-104453046D01*
X147162200Y-104501300D01*
X149061210Y-104501300D01*
X148990162Y-104672401D01*
X148989838Y-105044367D01*
X149131883Y-105388143D01*
X149180216Y-105436560D01*
X147304000Y-105436560D01*
X147068683Y-105480838D01*
X146852559Y-105619910D01*
X146707569Y-105832110D01*
X146656560Y-106084000D01*
X146656560Y-107632000D01*
X145951440Y-107632000D01*
X145951440Y-106084000D01*
X145907162Y-105848683D01*
X145768090Y-105632559D01*
X145555890Y-105487569D01*
X145304000Y-105436560D01*
X143304000Y-105436560D01*
X143162176Y-105463246D01*
X143070617Y-105241657D01*
X142807827Y-104978408D01*
X142464299Y-104835762D01*
X142092333Y-104835438D01*
X141748557Y-104977483D01*
X141485308Y-105240273D01*
X141396957Y-105453045D01*
X141354810Y-105444510D01*
X140554710Y-105444510D01*
X140319393Y-105488788D01*
X140103269Y-105627860D01*
X139958279Y-105840060D01*
X139926429Y-105997342D01*
X139924617Y-105992957D01*
X139661827Y-105729708D01*
X139318299Y-105587062D01*
X138946333Y-105586738D01*
X138602557Y-105728783D01*
X138339308Y-105991573D01*
X138196662Y-106335101D01*
X138196502Y-106518522D01*
X138104289Y-106577860D01*
X138004544Y-106723842D01*
X137851000Y-106570298D01*
X137851000Y-105325802D01*
X138767701Y-104409101D01*
X138932448Y-104162540D01*
X138990300Y-103871700D01*
X138990300Y-103611702D01*
X139049000Y-103553002D01*
X139049000Y-104050310D01*
X139145673Y-104283699D01*
X139324302Y-104462327D01*
X139557691Y-104559000D01*
X140398250Y-104559000D01*
X140557000Y-104400250D01*
X140557000Y-103251000D01*
X140811000Y-103251000D01*
X140811000Y-104400250D01*
X140969750Y-104559000D01*
X141810309Y-104559000D01*
X142043698Y-104462327D01*
X142222327Y-104283699D01*
X142319000Y-104050310D01*
X142319000Y-103409750D01*
X142160250Y-103251000D01*
X140811000Y-103251000D01*
X140557000Y-103251000D01*
X140537000Y-103251000D01*
X140537000Y-102997000D01*
X140557000Y-102997000D01*
X140557000Y-102977000D01*
X140811000Y-102977000D01*
X140811000Y-102997000D01*
X142160250Y-102997000D01*
X142255500Y-102901750D01*
X142669000Y-102901750D01*
X142669000Y-103542310D01*
X142765673Y-103775699D01*
X142944302Y-103954327D01*
X143177691Y-104051000D01*
X144018250Y-104051000D01*
X144177000Y-103892250D01*
X144177000Y-102743000D01*
X142827750Y-102743000D01*
X142669000Y-102901750D01*
X142255500Y-102901750D01*
X142319000Y-102838250D01*
X142319000Y-102197690D01*
X142222327Y-101964301D01*
X142043698Y-101785673D01*
X141810309Y-101689000D01*
X140969750Y-101689000D01*
X140811002Y-101847748D01*
X140811002Y-101791000D01*
X141336702Y-101265300D01*
X142974173Y-101265300D01*
X142944302Y-101277673D01*
X142944302Y-101277673D01*
G37*
X142944302Y-101277673D02*
X142765673Y-101456301D01*
X142669000Y-101689690D01*
X142669000Y-102330250D01*
X142827750Y-102489000D01*
X144177000Y-102489000D01*
X144177000Y-102469000D01*
X144431000Y-102469000D01*
X144431000Y-102489000D01*
X145780250Y-102489000D01*
X145939000Y-102330250D01*
X145939000Y-101689690D01*
X145842327Y-101456301D01*
X145663698Y-101277673D01*
X145633827Y-101265300D01*
X146987155Y-101265300D01*
X146852559Y-101351910D01*
X146707569Y-101564110D01*
X146656560Y-101816000D01*
X146656560Y-102422093D01*
X146592933Y-102422038D01*
X146249157Y-102564083D01*
X145985908Y-102826873D01*
X145939000Y-102939839D01*
X145939000Y-102901750D01*
X145780250Y-102743000D01*
X144431000Y-102743000D01*
X144431000Y-103892250D01*
X144589750Y-104051000D01*
X145430309Y-104051000D01*
X145663698Y-103954327D01*
X145842327Y-103775699D01*
X145890898Y-103658439D01*
X145984983Y-103886143D01*
X146247773Y-104149392D01*
X146591301Y-104292038D01*
X146644829Y-104292085D01*
X146871360Y-104443448D01*
X146919614Y-104453046D01*
X147162200Y-104501300D01*
X149061210Y-104501300D01*
X148990162Y-104672401D01*
X148989838Y-105044367D01*
X149131883Y-105388143D01*
X149180216Y-105436560D01*
X147304000Y-105436560D01*
X147068683Y-105480838D01*
X146852559Y-105619910D01*
X146707569Y-105832110D01*
X146656560Y-106084000D01*
X146656560Y-107632000D01*
X145951440Y-107632000D01*
X145951440Y-106084000D01*
X145907162Y-105848683D01*
X145768090Y-105632559D01*
X145555890Y-105487569D01*
X145304000Y-105436560D01*
X143304000Y-105436560D01*
X143162176Y-105463246D01*
X143070617Y-105241657D01*
X142807827Y-104978408D01*
X142464299Y-104835762D01*
X142092333Y-104835438D01*
X141748557Y-104977483D01*
X141485308Y-105240273D01*
X141396957Y-105453045D01*
X141354810Y-105444510D01*
X140554710Y-105444510D01*
X140319393Y-105488788D01*
X140103269Y-105627860D01*
X139958279Y-105840060D01*
X139926429Y-105997342D01*
X139924617Y-105992957D01*
X139661827Y-105729708D01*
X139318299Y-105587062D01*
X138946333Y-105586738D01*
X138602557Y-105728783D01*
X138339308Y-105991573D01*
X138196662Y-106335101D01*
X138196502Y-106518522D01*
X138104289Y-106577860D01*
X138004544Y-106723842D01*
X137851000Y-106570298D01*
X137851000Y-105325802D01*
X138767701Y-104409101D01*
X138932448Y-104162540D01*
X138990300Y-103871700D01*
X138990300Y-103611702D01*
X139049000Y-103553002D01*
X139049000Y-104050310D01*
X139145673Y-104283699D01*
X139324302Y-104462327D01*
X139557691Y-104559000D01*
X140398250Y-104559000D01*
X140557000Y-104400250D01*
X140557000Y-103251000D01*
X140811000Y-103251000D01*
X140811000Y-104400250D01*
X140969750Y-104559000D01*
X141810309Y-104559000D01*
X142043698Y-104462327D01*
X142222327Y-104283699D01*
X142319000Y-104050310D01*
X142319000Y-103409750D01*
X142160250Y-103251000D01*
X140811000Y-103251000D01*
X140557000Y-103251000D01*
X140537000Y-103251000D01*
X140537000Y-102997000D01*
X140557000Y-102997000D01*
X140557000Y-102977000D01*
X140811000Y-102977000D01*
X140811000Y-102997000D01*
X142160250Y-102997000D01*
X142255500Y-102901750D01*
X142669000Y-102901750D01*
X142669000Y-103542310D01*
X142765673Y-103775699D01*
X142944302Y-103954327D01*
X143177691Y-104051000D01*
X144018250Y-104051000D01*
X144177000Y-103892250D01*
X144177000Y-102743000D01*
X142827750Y-102743000D01*
X142669000Y-102901750D01*
X142255500Y-102901750D01*
X142319000Y-102838250D01*
X142319000Y-102197690D01*
X142222327Y-101964301D01*
X142043698Y-101785673D01*
X141810309Y-101689000D01*
X140969750Y-101689000D01*
X140811002Y-101847748D01*
X140811002Y-101791000D01*
X141336702Y-101265300D01*
X142974173Y-101265300D01*
X142944302Y-101277673D01*
G36*
X131941261Y-94762948D02*
X132232100Y-94820800D01*
X137740304Y-94820800D01*
X137588357Y-94883583D01*
X137325108Y-95146373D01*
X137182462Y-95489901D01*
X137182138Y-95861867D01*
X137324183Y-96205643D01*
X137433374Y-96315024D01*
X137274298Y-96474100D01*
X131695586Y-96474100D01*
X131780975Y-96267944D01*
X131661836Y-96012000D01*
X130302000Y-96012000D01*
X130302000Y-96032000D01*
X130048000Y-96032000D01*
X130048000Y-96012000D01*
X130028000Y-96012000D01*
X130028000Y-95758000D01*
X130048000Y-95758000D01*
X130048000Y-95738000D01*
X130302000Y-95738000D01*
X130302000Y-95758000D01*
X131661836Y-95758000D01*
X131780975Y-95502056D01*
X131581385Y-95020182D01*
X131490903Y-94922602D01*
X131642441Y-94825090D01*
X131765255Y-94645345D01*
X131941261Y-94762948D01*
X131941261Y-94762948D01*
G37*
X131941261Y-94762948D02*
X132232100Y-94820800D01*
X137740304Y-94820800D01*
X137588357Y-94883583D01*
X137325108Y-95146373D01*
X137182462Y-95489901D01*
X137182138Y-95861867D01*
X137324183Y-96205643D01*
X137433374Y-96315024D01*
X137274298Y-96474100D01*
X131695586Y-96474100D01*
X131780975Y-96267944D01*
X131661836Y-96012000D01*
X130302000Y-96012000D01*
X130302000Y-96032000D01*
X130048000Y-96032000D01*
X130048000Y-96012000D01*
X130028000Y-96012000D01*
X130028000Y-95758000D01*
X130048000Y-95758000D01*
X130048000Y-95738000D01*
X130302000Y-95738000D01*
X130302000Y-95758000D01*
X131661836Y-95758000D01*
X131780975Y-95502056D01*
X131581385Y-95020182D01*
X131490903Y-94922602D01*
X131642441Y-94825090D01*
X131765255Y-94645345D01*
X131941261Y-94762948D01*
G36*
X133051910Y-81747441D02*
X133264110Y-81892431D01*
X133516000Y-81943440D01*
X135216000Y-81943440D01*
X135451317Y-81899162D01*
X135458219Y-81894721D01*
X137059599Y-83496101D01*
X137119312Y-83536000D01*
X135863440Y-83536000D01*
X135863440Y-83296000D01*
X135819162Y-83060683D01*
X135680090Y-82844559D01*
X135467890Y-82699569D01*
X135216000Y-82648560D01*
X133516000Y-82648560D01*
X133280683Y-82692838D01*
X133064559Y-82831910D01*
X132919569Y-83044110D01*
X132868560Y-83296000D01*
X132868560Y-85296000D01*
X132912838Y-85531317D01*
X133051910Y-85747441D01*
X133264110Y-85892431D01*
X133516000Y-85943440D01*
X135216000Y-85943440D01*
X135451317Y-85899162D01*
X135667441Y-85760090D01*
X135812431Y-85547890D01*
X135863440Y-85296000D01*
X135863440Y-85056000D01*
X137396398Y-85056000D01*
X137434408Y-85258007D01*
X137573480Y-85474131D01*
X137785680Y-85619121D01*
X138037570Y-85670130D01*
X139838430Y-85670130D01*
X140073747Y-85625852D01*
X140289871Y-85486780D01*
X140434861Y-85274580D01*
X140485870Y-85022690D01*
X140485870Y-84670572D01*
X141365400Y-85550102D01*
X141365400Y-85941000D01*
X140969750Y-85941000D01*
X140811000Y-86099750D01*
X140811000Y-87249000D01*
X142160250Y-87249000D01*
X142252674Y-87156576D01*
X143602398Y-88506300D01*
X142234504Y-88506300D01*
X142319000Y-88302310D01*
X142319000Y-87661750D01*
X142160250Y-87503000D01*
X140811000Y-87503000D01*
X140811000Y-87523000D01*
X140557000Y-87523000D01*
X140557000Y-87503000D01*
X139207750Y-87503000D01*
X139049000Y-87661750D01*
X139049000Y-88302310D01*
X139145673Y-88535699D01*
X139200674Y-88590700D01*
X138169188Y-88590700D01*
X138280431Y-88427890D01*
X138331440Y-88176000D01*
X138331440Y-86576000D01*
X138307674Y-86449690D01*
X139049000Y-86449690D01*
X139049000Y-87090250D01*
X139207750Y-87249000D01*
X140557000Y-87249000D01*
X140557000Y-86099750D01*
X140398250Y-85941000D01*
X139557691Y-85941000D01*
X139324302Y-86037673D01*
X139145673Y-86216301D01*
X139049000Y-86449690D01*
X138307674Y-86449690D01*
X138287162Y-86340683D01*
X138148090Y-86124559D01*
X137935890Y-85979569D01*
X137684000Y-85928560D01*
X135684000Y-85928560D01*
X135448683Y-85972838D01*
X135232559Y-86111910D01*
X135087569Y-86324110D01*
X135036560Y-86576000D01*
X135036560Y-88176000D01*
X135080838Y-88411317D01*
X135196268Y-88590700D01*
X133551802Y-88590700D01*
X131418701Y-86457599D01*
X131203440Y-86313767D01*
X131203440Y-85979000D01*
X131159162Y-85743683D01*
X131020090Y-85527559D01*
X130871163Y-85425802D01*
X131032053Y-85185013D01*
X131172139Y-85157148D01*
X131418701Y-84992401D01*
X131583448Y-84745839D01*
X131641300Y-84455000D01*
X131641300Y-82920202D01*
X132958784Y-81602718D01*
X133051910Y-81747441D01*
X133051910Y-81747441D01*
G37*
X133051910Y-81747441D02*
X133264110Y-81892431D01*
X133516000Y-81943440D01*
X135216000Y-81943440D01*
X135451317Y-81899162D01*
X135458219Y-81894721D01*
X137059599Y-83496101D01*
X137119312Y-83536000D01*
X135863440Y-83536000D01*
X135863440Y-83296000D01*
X135819162Y-83060683D01*
X135680090Y-82844559D01*
X135467890Y-82699569D01*
X135216000Y-82648560D01*
X133516000Y-82648560D01*
X133280683Y-82692838D01*
X133064559Y-82831910D01*
X132919569Y-83044110D01*
X132868560Y-83296000D01*
X132868560Y-85296000D01*
X132912838Y-85531317D01*
X133051910Y-85747441D01*
X133264110Y-85892431D01*
X133516000Y-85943440D01*
X135216000Y-85943440D01*
X135451317Y-85899162D01*
X135667441Y-85760090D01*
X135812431Y-85547890D01*
X135863440Y-85296000D01*
X135863440Y-85056000D01*
X137396398Y-85056000D01*
X137434408Y-85258007D01*
X137573480Y-85474131D01*
X137785680Y-85619121D01*
X138037570Y-85670130D01*
X139838430Y-85670130D01*
X140073747Y-85625852D01*
X140289871Y-85486780D01*
X140434861Y-85274580D01*
X140485870Y-85022690D01*
X140485870Y-84670572D01*
X141365400Y-85550102D01*
X141365400Y-85941000D01*
X140969750Y-85941000D01*
X140811000Y-86099750D01*
X140811000Y-87249000D01*
X142160250Y-87249000D01*
X142252674Y-87156576D01*
X143602398Y-88506300D01*
X142234504Y-88506300D01*
X142319000Y-88302310D01*
X142319000Y-87661750D01*
X142160250Y-87503000D01*
X140811000Y-87503000D01*
X140811000Y-87523000D01*
X140557000Y-87523000D01*
X140557000Y-87503000D01*
X139207750Y-87503000D01*
X139049000Y-87661750D01*
X139049000Y-88302310D01*
X139145673Y-88535699D01*
X139200674Y-88590700D01*
X138169188Y-88590700D01*
X138280431Y-88427890D01*
X138331440Y-88176000D01*
X138331440Y-86576000D01*
X138307674Y-86449690D01*
X139049000Y-86449690D01*
X139049000Y-87090250D01*
X139207750Y-87249000D01*
X140557000Y-87249000D01*
X140557000Y-86099750D01*
X140398250Y-85941000D01*
X139557691Y-85941000D01*
X139324302Y-86037673D01*
X139145673Y-86216301D01*
X139049000Y-86449690D01*
X138307674Y-86449690D01*
X138287162Y-86340683D01*
X138148090Y-86124559D01*
X137935890Y-85979569D01*
X137684000Y-85928560D01*
X135684000Y-85928560D01*
X135448683Y-85972838D01*
X135232559Y-86111910D01*
X135087569Y-86324110D01*
X135036560Y-86576000D01*
X135036560Y-88176000D01*
X135080838Y-88411317D01*
X135196268Y-88590700D01*
X133551802Y-88590700D01*
X131418701Y-86457599D01*
X131203440Y-86313767D01*
X131203440Y-85979000D01*
X131159162Y-85743683D01*
X131020090Y-85527559D01*
X130871163Y-85425802D01*
X131032053Y-85185013D01*
X131172139Y-85157148D01*
X131418701Y-84992401D01*
X131583448Y-84745839D01*
X131641300Y-84455000D01*
X131641300Y-82920202D01*
X132958784Y-81602718D01*
X133051910Y-81747441D01*
G36*
X144431000Y-85725000D02*
X144451000Y-85725000D01*
X144451000Y-85979000D01*
X144431000Y-85979000D01*
X144431000Y-85999000D01*
X144177000Y-85999000D01*
X144177000Y-85979000D01*
X144157000Y-85979000D01*
X144157000Y-85725000D01*
X144177000Y-85725000D01*
X144177000Y-85705000D01*
X144431000Y-85705000D01*
X144431000Y-85725000D01*
X144431000Y-85725000D01*
G37*
X144431000Y-85725000D02*
X144451000Y-85725000D01*
X144451000Y-85979000D01*
X144431000Y-85979000D01*
X144431000Y-85999000D01*
X144177000Y-85999000D01*
X144177000Y-85979000D01*
X144157000Y-85979000D01*
X144157000Y-85725000D01*
X144177000Y-85725000D01*
X144177000Y-85705000D01*
X144431000Y-85705000D01*
X144431000Y-85725000D01*
M02*
