%TF.GenerationSoftware,KiCad,Pcbnew,4.0.2+dfsg1-stable*%
%TF.CreationDate,2019-03-31T18:37:28+02:00*%
%TF.ProjectId,StandAlone-Adapter,5374616E64416C6F6E652D4164617074,rev?*%
%TF.FileFunction,Soldermask,Top*%
%FSLAX46Y46*%
G04 Gerber Fmt 4.6, Leading zero omitted, Abs format (unit mm)*
G04 Created by KiCad (PCBNEW 4.0.2+dfsg1-stable) date Sun 31 Mar 2019 18:37:28 CEST*
%MOMM*%
G01*
G04 APERTURE LIST*
%ADD10C,0.100000*%
%ADD11R,3.000960X2.000200*%
%ADD12C,4.464000*%
%ADD13R,4.057600X2.432000*%
%ADD14R,1.416000X2.432000*%
%ADD15C,2.398980*%
%ADD16R,1.200100X1.200100*%
%ADD17C,1.670000*%
%ADD18C,4.000000*%
%ADD19R,2.200860X1.997660*%
%ADD20R,1.997660X2.200860*%
%ADD21R,2.100000X2.400000*%
%ADD22R,2.400000X2.100000*%
%ADD23C,1.901140*%
%ADD24C,3.399740*%
%ADD25C,1.900000*%
%ADD26R,2.400000X2.000000*%
%ADD27R,2.000000X2.400000*%
%ADD28R,2.127200X2.432000*%
%ADD29O,2.127200X2.432000*%
%ADD30R,2.432000X2.432000*%
%ADD31O,2.432000X2.432000*%
%ADD32R,2.000000X2.580000*%
%ADD33R,2.398980X2.398980*%
%ADD34R,2.432000X2.127200*%
%ADD35O,2.432000X2.127200*%
%ADD36R,2.127200X2.127200*%
%ADD37O,2.127200X2.127200*%
%ADD38C,1.000000*%
G04 APERTURE END LIST*
D10*
D11*
X157248860Y-83820000D03*
X153647140Y-83820000D03*
X140439140Y-83820000D03*
X144040860Y-83820000D03*
D10*
G36*
X142912676Y-96083642D02*
X142453057Y-95624023D01*
X143443006Y-94634074D01*
X143902625Y-95093693D01*
X142912676Y-96083642D01*
X142912676Y-96083642D01*
G37*
G36*
X143266229Y-96437196D02*
X142806610Y-95977577D01*
X143796559Y-94987628D01*
X144256178Y-95447247D01*
X143266229Y-96437196D01*
X143266229Y-96437196D01*
G37*
G36*
X143619783Y-96790749D02*
X143160164Y-96331130D01*
X144150113Y-95341181D01*
X144609732Y-95800800D01*
X143619783Y-96790749D01*
X143619783Y-96790749D01*
G37*
G36*
X143973336Y-97144302D02*
X143513717Y-96684683D01*
X144503666Y-95694734D01*
X144963285Y-96154353D01*
X143973336Y-97144302D01*
X143973336Y-97144302D01*
G37*
G36*
X144326889Y-97497856D02*
X143867270Y-97038237D01*
X144857219Y-96048288D01*
X145316838Y-96507907D01*
X144326889Y-97497856D01*
X144326889Y-97497856D01*
G37*
G36*
X144680443Y-97851409D02*
X144220824Y-97391790D01*
X145210773Y-96401841D01*
X145670392Y-96861460D01*
X144680443Y-97851409D01*
X144680443Y-97851409D01*
G37*
G36*
X145033996Y-98204963D02*
X144574377Y-97745344D01*
X145564326Y-96755395D01*
X146023945Y-97215014D01*
X145033996Y-98204963D01*
X145033996Y-98204963D01*
G37*
G36*
X145387550Y-98558516D02*
X144927931Y-98098897D01*
X145917880Y-97108948D01*
X146377499Y-97568567D01*
X145387550Y-98558516D01*
X145387550Y-98558516D01*
G37*
G36*
X145741103Y-98912069D02*
X145281484Y-98452450D01*
X146271433Y-97462501D01*
X146731052Y-97922120D01*
X145741103Y-98912069D01*
X145741103Y-98912069D01*
G37*
G36*
X146094656Y-99265623D02*
X145635037Y-98806004D01*
X146624986Y-97816055D01*
X147084605Y-98275674D01*
X146094656Y-99265623D01*
X146094656Y-99265623D01*
G37*
G36*
X146448210Y-99619176D02*
X145988591Y-99159557D01*
X146978540Y-98169608D01*
X147438159Y-98629227D01*
X146448210Y-99619176D01*
X146448210Y-99619176D01*
G37*
G36*
X146801763Y-99972730D02*
X146342144Y-99513111D01*
X147332093Y-98523162D01*
X147791712Y-98982781D01*
X146801763Y-99972730D01*
X146801763Y-99972730D01*
G37*
G36*
X147155317Y-100326283D02*
X146695698Y-99866664D01*
X147685647Y-98876715D01*
X148145266Y-99336334D01*
X147155317Y-100326283D01*
X147155317Y-100326283D01*
G37*
G36*
X147508870Y-100679836D02*
X147049251Y-100220217D01*
X148039200Y-99230268D01*
X148498819Y-99689887D01*
X147508870Y-100679836D01*
X147508870Y-100679836D01*
G37*
G36*
X147862423Y-101033390D02*
X147402804Y-100573771D01*
X148392753Y-99583822D01*
X148852372Y-100043441D01*
X147862423Y-101033390D01*
X147862423Y-101033390D01*
G37*
G36*
X148215977Y-101386943D02*
X147756358Y-100927324D01*
X148746307Y-99937375D01*
X149205926Y-100396994D01*
X148215977Y-101386943D01*
X148215977Y-101386943D01*
G37*
G36*
X151963642Y-100927324D02*
X151504023Y-101386943D01*
X150514074Y-100396994D01*
X150973693Y-99937375D01*
X151963642Y-100927324D01*
X151963642Y-100927324D01*
G37*
G36*
X152317196Y-100573771D02*
X151857577Y-101033390D01*
X150867628Y-100043441D01*
X151327247Y-99583822D01*
X152317196Y-100573771D01*
X152317196Y-100573771D01*
G37*
G36*
X152670749Y-100220217D02*
X152211130Y-100679836D01*
X151221181Y-99689887D01*
X151680800Y-99230268D01*
X152670749Y-100220217D01*
X152670749Y-100220217D01*
G37*
G36*
X153024302Y-99866664D02*
X152564683Y-100326283D01*
X151574734Y-99336334D01*
X152034353Y-98876715D01*
X153024302Y-99866664D01*
X153024302Y-99866664D01*
G37*
G36*
X153377856Y-99513111D02*
X152918237Y-99972730D01*
X151928288Y-98982781D01*
X152387907Y-98523162D01*
X153377856Y-99513111D01*
X153377856Y-99513111D01*
G37*
G36*
X153731409Y-99159557D02*
X153271790Y-99619176D01*
X152281841Y-98629227D01*
X152741460Y-98169608D01*
X153731409Y-99159557D01*
X153731409Y-99159557D01*
G37*
G36*
X154084963Y-98806004D02*
X153625344Y-99265623D01*
X152635395Y-98275674D01*
X153095014Y-97816055D01*
X154084963Y-98806004D01*
X154084963Y-98806004D01*
G37*
G36*
X154438516Y-98452450D02*
X153978897Y-98912069D01*
X152988948Y-97922120D01*
X153448567Y-97462501D01*
X154438516Y-98452450D01*
X154438516Y-98452450D01*
G37*
G36*
X154792069Y-98098897D02*
X154332450Y-98558516D01*
X153342501Y-97568567D01*
X153802120Y-97108948D01*
X154792069Y-98098897D01*
X154792069Y-98098897D01*
G37*
G36*
X155145623Y-97745344D02*
X154686004Y-98204963D01*
X153696055Y-97215014D01*
X154155674Y-96755395D01*
X155145623Y-97745344D01*
X155145623Y-97745344D01*
G37*
G36*
X155499176Y-97391790D02*
X155039557Y-97851409D01*
X154049608Y-96861460D01*
X154509227Y-96401841D01*
X155499176Y-97391790D01*
X155499176Y-97391790D01*
G37*
G36*
X155852730Y-97038237D02*
X155393111Y-97497856D01*
X154403162Y-96507907D01*
X154862781Y-96048288D01*
X155852730Y-97038237D01*
X155852730Y-97038237D01*
G37*
G36*
X156206283Y-96684683D02*
X155746664Y-97144302D01*
X154756715Y-96154353D01*
X155216334Y-95694734D01*
X156206283Y-96684683D01*
X156206283Y-96684683D01*
G37*
G36*
X156559836Y-96331130D02*
X156100217Y-96790749D01*
X155110268Y-95800800D01*
X155569887Y-95341181D01*
X156559836Y-96331130D01*
X156559836Y-96331130D01*
G37*
G36*
X156913390Y-95977577D02*
X156453771Y-96437196D01*
X155463822Y-95447247D01*
X155923441Y-94987628D01*
X156913390Y-95977577D01*
X156913390Y-95977577D01*
G37*
G36*
X157266943Y-95624023D02*
X156807324Y-96083642D01*
X155817375Y-95093693D01*
X156276994Y-94634074D01*
X157266943Y-95624023D01*
X157266943Y-95624023D01*
G37*
G36*
X156276994Y-93325926D02*
X155817375Y-92866307D01*
X156807324Y-91876358D01*
X157266943Y-92335977D01*
X156276994Y-93325926D01*
X156276994Y-93325926D01*
G37*
G36*
X155923441Y-92972372D02*
X155463822Y-92512753D01*
X156453771Y-91522804D01*
X156913390Y-91982423D01*
X155923441Y-92972372D01*
X155923441Y-92972372D01*
G37*
G36*
X155569887Y-92618819D02*
X155110268Y-92159200D01*
X156100217Y-91169251D01*
X156559836Y-91628870D01*
X155569887Y-92618819D01*
X155569887Y-92618819D01*
G37*
G36*
X155216334Y-92265266D02*
X154756715Y-91805647D01*
X155746664Y-90815698D01*
X156206283Y-91275317D01*
X155216334Y-92265266D01*
X155216334Y-92265266D01*
G37*
G36*
X154862781Y-91911712D02*
X154403162Y-91452093D01*
X155393111Y-90462144D01*
X155852730Y-90921763D01*
X154862781Y-91911712D01*
X154862781Y-91911712D01*
G37*
G36*
X154509227Y-91558159D02*
X154049608Y-91098540D01*
X155039557Y-90108591D01*
X155499176Y-90568210D01*
X154509227Y-91558159D01*
X154509227Y-91558159D01*
G37*
G36*
X154155674Y-91204605D02*
X153696055Y-90744986D01*
X154686004Y-89755037D01*
X155145623Y-90214656D01*
X154155674Y-91204605D01*
X154155674Y-91204605D01*
G37*
G36*
X153802120Y-90851052D02*
X153342501Y-90391433D01*
X154332450Y-89401484D01*
X154792069Y-89861103D01*
X153802120Y-90851052D01*
X153802120Y-90851052D01*
G37*
G36*
X153448567Y-90497499D02*
X152988948Y-90037880D01*
X153978897Y-89047931D01*
X154438516Y-89507550D01*
X153448567Y-90497499D01*
X153448567Y-90497499D01*
G37*
G36*
X153095014Y-90143945D02*
X152635395Y-89684326D01*
X153625344Y-88694377D01*
X154084963Y-89153996D01*
X153095014Y-90143945D01*
X153095014Y-90143945D01*
G37*
G36*
X152741460Y-89790392D02*
X152281841Y-89330773D01*
X153271790Y-88340824D01*
X153731409Y-88800443D01*
X152741460Y-89790392D01*
X152741460Y-89790392D01*
G37*
G36*
X152387907Y-89436838D02*
X151928288Y-88977219D01*
X152918237Y-87987270D01*
X153377856Y-88446889D01*
X152387907Y-89436838D01*
X152387907Y-89436838D01*
G37*
G36*
X152034353Y-89083285D02*
X151574734Y-88623666D01*
X152564683Y-87633717D01*
X153024302Y-88093336D01*
X152034353Y-89083285D01*
X152034353Y-89083285D01*
G37*
G36*
X151680800Y-88729732D02*
X151221181Y-88270113D01*
X152211130Y-87280164D01*
X152670749Y-87739783D01*
X151680800Y-88729732D01*
X151680800Y-88729732D01*
G37*
G36*
X151327247Y-88376178D02*
X150867628Y-87916559D01*
X151857577Y-86926610D01*
X152317196Y-87386229D01*
X151327247Y-88376178D01*
X151327247Y-88376178D01*
G37*
G36*
X150973693Y-88022625D02*
X150514074Y-87563006D01*
X151504023Y-86573057D01*
X151963642Y-87032676D01*
X150973693Y-88022625D01*
X150973693Y-88022625D01*
G37*
G36*
X149205926Y-87563006D02*
X148746307Y-88022625D01*
X147756358Y-87032676D01*
X148215977Y-86573057D01*
X149205926Y-87563006D01*
X149205926Y-87563006D01*
G37*
G36*
X148852372Y-87916559D02*
X148392753Y-88376178D01*
X147402804Y-87386229D01*
X147862423Y-86926610D01*
X148852372Y-87916559D01*
X148852372Y-87916559D01*
G37*
G36*
X148498819Y-88270113D02*
X148039200Y-88729732D01*
X147049251Y-87739783D01*
X147508870Y-87280164D01*
X148498819Y-88270113D01*
X148498819Y-88270113D01*
G37*
G36*
X148145266Y-88623666D02*
X147685647Y-89083285D01*
X146695698Y-88093336D01*
X147155317Y-87633717D01*
X148145266Y-88623666D01*
X148145266Y-88623666D01*
G37*
G36*
X147791712Y-88977219D02*
X147332093Y-89436838D01*
X146342144Y-88446889D01*
X146801763Y-87987270D01*
X147791712Y-88977219D01*
X147791712Y-88977219D01*
G37*
G36*
X147438159Y-89330773D02*
X146978540Y-89790392D01*
X145988591Y-88800443D01*
X146448210Y-88340824D01*
X147438159Y-89330773D01*
X147438159Y-89330773D01*
G37*
G36*
X147084605Y-89684326D02*
X146624986Y-90143945D01*
X145635037Y-89153996D01*
X146094656Y-88694377D01*
X147084605Y-89684326D01*
X147084605Y-89684326D01*
G37*
G36*
X146731052Y-90037880D02*
X146271433Y-90497499D01*
X145281484Y-89507550D01*
X145741103Y-89047931D01*
X146731052Y-90037880D01*
X146731052Y-90037880D01*
G37*
G36*
X146377499Y-90391433D02*
X145917880Y-90851052D01*
X144927931Y-89861103D01*
X145387550Y-89401484D01*
X146377499Y-90391433D01*
X146377499Y-90391433D01*
G37*
G36*
X146023945Y-90744986D02*
X145564326Y-91204605D01*
X144574377Y-90214656D01*
X145033996Y-89755037D01*
X146023945Y-90744986D01*
X146023945Y-90744986D01*
G37*
G36*
X145670392Y-91098540D02*
X145210773Y-91558159D01*
X144220824Y-90568210D01*
X144680443Y-90108591D01*
X145670392Y-91098540D01*
X145670392Y-91098540D01*
G37*
G36*
X145316838Y-91452093D02*
X144857219Y-91911712D01*
X143867270Y-90921763D01*
X144326889Y-90462144D01*
X145316838Y-91452093D01*
X145316838Y-91452093D01*
G37*
G36*
X144963285Y-91805647D02*
X144503666Y-92265266D01*
X143513717Y-91275317D01*
X143973336Y-90815698D01*
X144963285Y-91805647D01*
X144963285Y-91805647D01*
G37*
G36*
X144609732Y-92159200D02*
X144150113Y-92618819D01*
X143160164Y-91628870D01*
X143619783Y-91169251D01*
X144609732Y-92159200D01*
X144609732Y-92159200D01*
G37*
G36*
X144256178Y-92512753D02*
X143796559Y-92972372D01*
X142806610Y-91982423D01*
X143266229Y-91522804D01*
X144256178Y-92512753D01*
X144256178Y-92512753D01*
G37*
G36*
X143902625Y-92866307D02*
X143443006Y-93325926D01*
X142453057Y-92335977D01*
X142912676Y-91876358D01*
X143902625Y-92866307D01*
X143902625Y-92866307D01*
G37*
D12*
X113030000Y-120650000D03*
X184150000Y-120650000D03*
X184150000Y-69850000D03*
X113030000Y-69850000D03*
D13*
X167640000Y-76962000D03*
D14*
X167640000Y-70358000D03*
X165354000Y-70358000D03*
X169926000Y-70358000D03*
D15*
X113030000Y-106680000D03*
D16*
X139380000Y-108219240D03*
X137480000Y-108219240D03*
X138430000Y-110218220D03*
X151318000Y-106187240D03*
X149418000Y-106187240D03*
X150368000Y-108186220D03*
X162494000Y-108219240D03*
X160594000Y-108219240D03*
X161544000Y-110218220D03*
D11*
X169440860Y-91440000D03*
X165839140Y-91440000D03*
D17*
X152285000Y-114290000D03*
X149745000Y-114290000D03*
X153555000Y-111760000D03*
D18*
X155460000Y-120640000D03*
X147840000Y-120640000D03*
D17*
X151015000Y-111760000D03*
D19*
X163576000Y-81175860D03*
X163576000Y-78336140D03*
D20*
X139296140Y-88900000D03*
X142135860Y-88900000D03*
X182775860Y-91440000D03*
X179936140Y-91440000D03*
X117960140Y-88900000D03*
X120799860Y-88900000D03*
D21*
X160528000Y-77248000D03*
X160528000Y-81248000D03*
D22*
X132620000Y-88900000D03*
X136620000Y-88900000D03*
D21*
X126365000Y-91980000D03*
X126365000Y-95980000D03*
D22*
X142780000Y-104648000D03*
X146780000Y-104648000D03*
X153956000Y-104140000D03*
X157956000Y-104140000D03*
X173260000Y-91440000D03*
X177260000Y-91440000D03*
X165195000Y-104140000D03*
X161195000Y-104140000D03*
D21*
X165608000Y-107220000D03*
X165608000Y-111220000D03*
D22*
X142780000Y-109220000D03*
X146780000Y-109220000D03*
X157956000Y-108204000D03*
X153956000Y-108204000D03*
D21*
X134620000Y-111220000D03*
X134620000Y-107220000D03*
D22*
X139795000Y-104140000D03*
X135795000Y-104140000D03*
X123984000Y-88900000D03*
X127984000Y-88900000D03*
D23*
X145287140Y-78742120D03*
X147827140Y-78742120D03*
X149859140Y-78742120D03*
X152399140Y-78742120D03*
D24*
X142239140Y-76075120D03*
X155955140Y-76075120D03*
D25*
X131318000Y-99060000D03*
X136198000Y-99060000D03*
D26*
X158528000Y-87884000D03*
X162528000Y-87884000D03*
D27*
X162560000Y-101060000D03*
X162560000Y-97060000D03*
X160020000Y-101060000D03*
X160020000Y-97060000D03*
D26*
X158528000Y-90424000D03*
X162528000Y-90424000D03*
X141256000Y-101600000D03*
X145256000Y-101600000D03*
X134652000Y-92964000D03*
X138652000Y-92964000D03*
D28*
X119380000Y-76200000D03*
D29*
X121920000Y-76200000D03*
X124460000Y-76200000D03*
X127000000Y-76200000D03*
D28*
X119380000Y-83820000D03*
D29*
X121920000Y-83820000D03*
X124460000Y-83820000D03*
D30*
X129540000Y-83820000D03*
D31*
X129540000Y-81280000D03*
D28*
X137160000Y-73660000D03*
D29*
X134620000Y-73660000D03*
X132080000Y-73660000D03*
D32*
X114300000Y-101110000D03*
X114300000Y-91930000D03*
D30*
X161290000Y-71120000D03*
D31*
X161290000Y-73660000D03*
D33*
X164592000Y-84328000D03*
X170688000Y-84328000D03*
X175260000Y-68072000D03*
X175260000Y-74168000D03*
D34*
X175260000Y-78740000D03*
D35*
X175260000Y-81280000D03*
X175260000Y-83820000D03*
X175260000Y-86360000D03*
D34*
X175260000Y-104140000D03*
D35*
X175260000Y-106680000D03*
X175260000Y-109220000D03*
X175260000Y-111760000D03*
X175260000Y-114300000D03*
D30*
X175260000Y-119380000D03*
D31*
X177800000Y-119380000D03*
D30*
X121920000Y-96520000D03*
D31*
X121920000Y-93980000D03*
D36*
X121920000Y-109220000D03*
D37*
X124460000Y-109220000D03*
X121920000Y-111760000D03*
X124460000Y-111760000D03*
X121920000Y-114300000D03*
X124460000Y-114300000D03*
D38*
X141003300Y-110218200D03*
X153292000Y-112903700D03*
X147460200Y-94365800D03*
X146025700Y-92643100D03*
X151693200Y-98787000D03*
X152410900Y-106493100D03*
X141524800Y-107050100D03*
X141261000Y-109220000D03*
X133480500Y-83418200D03*
X132787000Y-87531700D03*
X133667100Y-97170300D03*
X139307000Y-100823600D03*
X139600000Y-98539800D03*
X153555500Y-109566200D03*
X152213800Y-112723700D03*
X146168100Y-99784900D03*
X159663200Y-107284300D03*
X159663200Y-104823300D03*
X148509100Y-106187200D03*
X146679500Y-97439900D03*
X148284100Y-109220000D03*
X138342700Y-106116400D03*
X144196700Y-99475000D03*
X148465900Y-88738700D03*
X147897600Y-86430600D03*
X148622000Y-97573400D03*
X149354400Y-99788900D03*
X148287800Y-104648000D03*
M02*
