%TF.GenerationSoftware,KiCad,Pcbnew,5.1.9+dfsg1-1+deb11u1*%
%TF.CreationDate,2022-11-02T16:06:54+01:00*%
%TF.ProjectId,StandAlone-Adapter,5374616e-6441-46c6-9f6e-652d41646170,rev?*%
%TF.SameCoordinates,Original*%
%TF.FileFunction,Soldermask,Bot*%
%TF.FilePolarity,Negative*%
%FSLAX46Y46*%
G04 Gerber Fmt 4.6, Leading zero omitted, Abs format (unit mm)*
G04 Created by KiCad (PCBNEW 5.1.9+dfsg1-1+deb11u1) date 2022-11-02 16:06:54*
%MOMM*%
%LPD*%
G01*
G04 APERTURE LIST*
%ADD10C,3.316000*%
%ADD11C,1.408000*%
%ADD12R,1.408000X1.408000*%
%ADD13O,1.700000X1.700000*%
%ADD14R,1.700000X1.700000*%
%ADD15C,4.000000*%
%ADD16C,1.270000*%
%ADD17C,3.600000*%
%ADD18O,1.727200X1.727200*%
%ADD19R,1.727200X1.727200*%
%ADD20C,1.500000*%
%ADD21C,0.600000*%
G04 APERTURE END LIST*
D10*
%TO.C,USB1*%
X145500000Y-76330000D03*
X155500000Y-76330000D03*
D11*
X147000000Y-79000000D03*
X149500000Y-79000000D03*
X151500000Y-79000000D03*
D12*
X154000000Y-79000000D03*
%TD*%
D13*
%TO.C,EN1*%
X130000000Y-96040000D03*
D14*
X130000000Y-93500000D03*
%TD*%
D15*
%TO.C,H1*%
X111760000Y-121920000D03*
%TD*%
%TO.C,H2*%
X185420000Y-68580000D03*
%TD*%
%TO.C,H3*%
X185420000Y-121920000D03*
%TD*%
%TO.C,H4*%
X111760000Y-68580000D03*
%TD*%
D16*
%TO.C,J1*%
X150965000Y-107770000D03*
D17*
X147790000Y-116650000D03*
X155410000Y-116650000D03*
D16*
X153505000Y-107770000D03*
X149695000Y-110300000D03*
X152235000Y-110300000D03*
%TD*%
D13*
%TO.C,J2*%
X138580000Y-72500000D03*
X136040000Y-72500000D03*
D14*
X133500000Y-72500000D03*
%TD*%
D18*
%TO.C,J3*%
X125040000Y-115080000D03*
X122500000Y-115080000D03*
X125040000Y-112540000D03*
X122500000Y-112540000D03*
X125040000Y-110000000D03*
D19*
X122500000Y-110000000D03*
%TD*%
D13*
%TO.C,J4*%
X127620000Y-76000000D03*
X125080000Y-76000000D03*
X122540000Y-76000000D03*
D14*
X120000000Y-76000000D03*
%TD*%
D13*
%TO.C,J5*%
X177000000Y-114160000D03*
X177000000Y-111620000D03*
X177000000Y-109080000D03*
X177000000Y-106540000D03*
D14*
X177000000Y-104000000D03*
%TD*%
D13*
%TO.C,J6*%
X138580000Y-68500000D03*
X136040000Y-68500000D03*
D14*
X133500000Y-68500000D03*
%TD*%
D13*
%TO.C,J7*%
X124580000Y-84000000D03*
X122040000Y-84000000D03*
D14*
X119500000Y-84000000D03*
%TD*%
D13*
%TO.C,J8*%
X177000000Y-120000000D03*
D14*
X174460000Y-120000000D03*
%TD*%
D13*
%TO.C,J9*%
X131000000Y-84540000D03*
D14*
X131000000Y-82000000D03*
%TD*%
D13*
%TO.C,J10*%
X177000000Y-86620000D03*
X177000000Y-84080000D03*
X177000000Y-81540000D03*
D14*
X177000000Y-79000000D03*
%TD*%
D13*
%TO.C,J11*%
X161500000Y-71040000D03*
D14*
X161500000Y-68500000D03*
%TD*%
D20*
%TO.C,XT1*%
X136000000Y-97380000D03*
X136000000Y-92500000D03*
%TD*%
D21*
X146341300Y-83579700D03*
X145753900Y-96749900D03*
X145052700Y-87103300D03*
X148907800Y-93596000D03*
X144715000Y-114445000D03*
X148008700Y-101438100D03*
X145732500Y-111935900D03*
X149550000Y-101163900D03*
X144833300Y-95463600D03*
X142346200Y-89769000D03*
X153770200Y-98654800D03*
X152576000Y-97912100D03*
X147633000Y-98596100D03*
M02*
