M48
;DRILL file {KiCad 4.0.2+dfsg1-stable} date Fri 01 Mar 2019 13:29:47 CET
;FORMAT={-:-/ absolute / metric / decimal}
FMAT,2
METRIC,TZ
T1C0.400
T2C0.800
T3C0.900
T4C1.001
T5C1.016
T6C2.301
T7C3.048
T8C3.200
%
G90
G05
M71
T1
X116.332Y-81.216
X124.333Y-80.264
X140.684Y-87.99
X140.967Y-106.891
X141.614Y-108.136
X141.721Y-85.139
X142.22Y-97.069
X142.389Y-104.803
X143.065Y-101.616
X144.749Y-98.715
X145.372Y-99.603
X146.154Y-101.419
X146.44Y-108.166
X146.77Y-97.499
X146.812Y-105.567
X146.887Y-109.995
X147.754Y-105.135
X151.069Y-88.71
X152.332Y-106.24
X156.528Y-102.489
X157.634Y-110.587
X157.799Y-104.14
X159.06Y-79.84
X159.566Y-106.67
X160.924Y-109.159
X161.645Y-79.489
X163.284Y-77.183
X168.783Y-70.358
X170.296Y-82.304
X172.403Y-93.599
X172.784Y-70.485
T2
X114.3Y-106.68
T3
X149.745Y-114.29
X151.015Y-111.76
X152.285Y-114.29
X153.555Y-111.76
T4
X145.287Y-78.742
X147.827Y-78.742
X149.859Y-78.742
X152.399Y-78.742
T5
X119.38Y-76.2
X119.38Y-83.82
X121.92Y-76.2
X121.92Y-83.82
X121.92Y-93.98
X121.92Y-96.52
X121.92Y-109.22
X121.92Y-111.76
X121.92Y-114.3
X124.46Y-76.2
X124.46Y-83.82
X124.46Y-109.22
X124.46Y-111.76
X124.46Y-114.3
X127.Y-76.2
X129.54Y-81.28
X129.54Y-83.82
X132.08Y-73.66
X134.62Y-73.66
X137.16Y-73.66
X161.29Y-71.12
X161.29Y-73.66
X175.26Y-78.74
X175.26Y-81.28
X175.26Y-83.82
X175.26Y-86.36
X175.26Y-104.14
X175.26Y-106.68
X175.26Y-109.22
X175.26Y-111.76
X175.26Y-114.3
X175.26Y-119.38
X177.8Y-119.38
T6
X142.239Y-76.075
X155.955Y-76.075
T7
X113.03Y-69.85
X113.03Y-120.65
X184.15Y-69.85
X184.15Y-120.65
T8
X147.84Y-120.64
X155.46Y-120.64
T0
M30
