M48
;DRILL file {KiCad 4.0.2+dfsg1-stable} date Sun 14 Apr 2019 19:18:02 CEST
;FORMAT={-:-/ absolute / metric / decimal}
FMAT,2
METRIC,TZ
T1C0.400
T2C0.800
T3C0.800
T4C0.900
T5C1.001
T6C1.016
T7C2.301
T8C3.048
T9C3.200
%
G90
G05
M71
T1
X133.702Y-94.692
X137.449Y-115.1
X137.504Y-107.22
X139.935Y-112.079
X140.659Y-93.525
X140.873Y-114.268
X140.974Y-115.1
X141.627Y-82.695
X141.781Y-90.963
X142.67Y-90.516
X143.392Y-100.435
X144.185Y-98.096
X144.676Y-99.72
X144.734Y-115.076
X144.86Y-106.1
X145.136Y-98.856
X145.244Y-109.292
X146.275Y-106.53
X147.706Y-103.284
X148.865Y-101.174
X149.44Y-100.228
X150.077Y-101.819
X150.078Y-98.474
X150.506Y-88.468
X150.545Y-90.793
X150.935Y-105.281
X151.853Y-89.722
X152.821Y-115.498
X154.439Y-106.604
X156.179Y-105.068
X157.272Y-95.136
X157.914Y-110.816
X158.387Y-97.314
X159.956Y-85.483
X160.643Y-79.29
X161.78Y-107.307
X162.8Y-104.557
X168.757Y-85.725
T2
X131.318Y-99.06
X136.198Y-99.06
T3
X113.03Y-106.68
T4
X149.745Y-114.29
X151.015Y-111.76
X152.285Y-114.29
X153.555Y-111.76
T5
X145.287Y-78.742
X147.827Y-78.742
X149.859Y-78.742
X152.399Y-78.742
T6
X119.38Y-76.2
X119.38Y-83.82
X121.92Y-76.2
X121.92Y-83.82
X121.92Y-93.98
X121.92Y-96.52
X121.92Y-109.22
X121.92Y-111.76
X121.92Y-114.3
X124.46Y-76.2
X124.46Y-83.82
X124.46Y-109.22
X124.46Y-111.76
X124.46Y-114.3
X127.Y-76.2
X129.54Y-81.28
X129.54Y-83.82
X132.08Y-70.485
X132.08Y-74.93
X134.62Y-70.485
X134.62Y-74.93
X137.16Y-70.485
X137.16Y-74.93
X161.29Y-71.12
X161.29Y-73.66
X175.26Y-78.74
X175.26Y-81.28
X175.26Y-83.82
X175.26Y-86.36
X175.26Y-104.14
X175.26Y-106.68
X175.26Y-109.22
X175.26Y-111.76
X175.26Y-114.3
X175.26Y-119.38
X177.8Y-119.38
T7
X142.239Y-76.075
X155.955Y-76.075
T8
X113.03Y-69.85
X113.03Y-120.65
X184.15Y-69.85
X184.15Y-120.65
T9
X147.84Y-120.64
X155.46Y-120.64
T0
M30
