M48
;DRILL file {KiCad 4.0.2+dfsg1-stable} date gio 18 apr 2019 17:59:01 CEST
;FORMAT={-:-/ absolute / inch / decimal}
FMAT,2
INCH,TZ
T1C0.016
T2C0.031
T3C0.032
T4C0.035
T5C0.039
T6C0.040
T7C0.091
T8C0.120
T9C0.126
%
G90
G05
M72
T1
X4.9347Y-3.9235
X5.0137Y-3.7502
X5.2145Y-4.336
X5.2601Y-4.215
X5.3896Y-3.4922
X5.4377Y-3.7668
X5.4776Y-4.1938
X5.4856Y-3.7455
X5.5216Y-4.352
X5.5387Y-3.3885
X5.601Y-3.7618
X5.6015Y-4.1642
X5.6285Y-3.6525
X5.6324Y-3.7098
X5.7153Y-3.7886
X5.7249Y-3.4512
X5.7339Y-3.7433
X5.7787Y-4.0692
X5.787Y-3.3236
X5.7917Y-3.8694
X5.8311Y-3.517
X5.9026Y-4.1283
X5.9299Y-4.3006
X6.0063Y-4.3622
X6.0729Y-3.9601
X6.0773Y-4.1043
X6.5432Y-3.7263
X6.5587Y-3.5962
T2
X5.46Y-3.66
X5.46Y-3.8521
T3
X4.45Y-3.4
T4
X5.8955Y-4.4996
X5.9455Y-4.4
X5.9955Y-4.4996
X6.0455Y-4.4
T5
X5.72Y-3.1001
X5.82Y-3.1001
X5.9Y-3.1001
X6.Y-3.1001
T6
X4.7Y-3.
X4.7Y-3.3
X4.8Y-3.
X4.8Y-3.3
X4.8Y-4.3
X4.8Y-4.4
X4.8Y-4.5
X4.9Y-3.
X4.9Y-3.3
X4.9Y-4.3
X4.9Y-4.4
X4.9Y-4.5
X5.Y-3.
X5.1Y-3.325
X5.1Y-3.425
X5.125Y-3.675
X5.125Y-3.775
X5.2Y-2.775
X5.2Y-2.95
X5.3Y-2.775
X5.3Y-2.95
X5.4Y-2.775
X5.4Y-2.95
X6.35Y-2.8
X6.35Y-2.9
X6.9Y-3.1
X6.9Y-3.2
X6.9Y-3.3
X6.9Y-3.4
X6.9Y-4.1
X6.9Y-4.2
X6.9Y-4.3
X6.9Y-4.4
X6.9Y-4.5
X6.9Y-4.7
X7.Y-4.7
T7
X5.6Y-2.9951
X6.14Y-2.9951
T8
X4.45Y-2.75
X4.45Y-4.75
X7.25Y-2.75
X7.25Y-4.75
T9
X5.8205Y-4.7496
X6.1205Y-4.7496
T0
M30
