%TF.GenerationSoftware,KiCad,Pcbnew,4.0.2+dfsg1-stable*%
%TF.CreationDate,2019-04-18T20:40:54+02:00*%
%TF.ProjectId,StandAlone-Adapter,5374616E64416C6F6E652D4164617074,rev?*%
%TF.FileFunction,Soldermask,Top*%
%FSLAX46Y46*%
G04 Gerber Fmt 4.6, Leading zero omitted, Abs format (unit mm)*
G04 Created by KiCad (PCBNEW 4.0.2+dfsg1-stable) date Thu 18 Apr 2019 20:40:54 CEST*
%MOMM*%
G01*
G04 APERTURE LIST*
%ADD10C,0.100000*%
%ADD11R,1.400000X0.650000*%
%ADD12R,0.650000X1.400000*%
%ADD13C,4.464000*%
%ADD14R,4.057600X2.432000*%
%ADD15R,1.416000X2.432000*%
%ADD16C,2.398980*%
%ADD17R,1.200100X1.200100*%
%ADD18C,1.670000*%
%ADD19C,4.000000*%
%ADD20R,1.997660X2.200860*%
%ADD21R,2.200860X1.997660*%
%ADD22R,2.400000X2.100000*%
%ADD23R,2.100000X2.400000*%
%ADD24C,1.901140*%
%ADD25C,3.399740*%
%ADD26C,1.900000*%
%ADD27R,2.400000X2.000000*%
%ADD28R,2.000000X2.400000*%
%ADD29R,2.127200X2.432000*%
%ADD30O,2.127200X2.432000*%
%ADD31R,2.432000X2.432000*%
%ADD32O,2.432000X2.432000*%
%ADD33R,2.000000X2.580000*%
%ADD34R,2.432000X2.127200*%
%ADD35O,2.432000X2.127200*%
%ADD36R,2.127200X2.127200*%
%ADD37O,2.127200X2.127200*%
%ADD38R,3.399740X1.901140*%
%ADD39R,1.901140X3.399740*%
%ADD40C,1.000000*%
G04 APERTURE END LIST*
D10*
D11*
X144160000Y-90230000D03*
X144160000Y-90730000D03*
X144160000Y-91230000D03*
X144160000Y-91730000D03*
X144160000Y-92230000D03*
X144160000Y-92730000D03*
X144160000Y-93230000D03*
X144160000Y-93730000D03*
X144160000Y-94230000D03*
X144160000Y-94730000D03*
X144160000Y-95230000D03*
X144160000Y-95730000D03*
X144160000Y-96230000D03*
X144160000Y-96730000D03*
X144160000Y-97230000D03*
X144160000Y-97730000D03*
D12*
X146110000Y-99680000D03*
X146610000Y-99680000D03*
X147110000Y-99680000D03*
X147610000Y-99680000D03*
X148110000Y-99680000D03*
X148610000Y-99680000D03*
X149110000Y-99680000D03*
X149610000Y-99680000D03*
X150110000Y-99680000D03*
X150610000Y-99680000D03*
X151110000Y-99680000D03*
X151610000Y-99680000D03*
X152110000Y-99680000D03*
X152610000Y-99680000D03*
X153110000Y-99680000D03*
X153610000Y-99680000D03*
D11*
X155560000Y-97730000D03*
X155560000Y-97230000D03*
X155560000Y-96730000D03*
X155560000Y-96230000D03*
X155560000Y-95730000D03*
X155560000Y-95230000D03*
X155560000Y-94730000D03*
X155560000Y-94230000D03*
X155560000Y-93730000D03*
X155560000Y-93230000D03*
X155560000Y-92730000D03*
X155560000Y-92230000D03*
X155560000Y-91730000D03*
X155560000Y-91230000D03*
X155560000Y-90730000D03*
X155560000Y-90230000D03*
D12*
X153610000Y-88280000D03*
X153110000Y-88280000D03*
X152610000Y-88280000D03*
X152110000Y-88280000D03*
X151610000Y-88280000D03*
X151110000Y-88280000D03*
X150610000Y-88280000D03*
X150110000Y-88280000D03*
X149610000Y-88280000D03*
X149110000Y-88280000D03*
X148610000Y-88280000D03*
X148110000Y-88280000D03*
X147610000Y-88280000D03*
X147110000Y-88280000D03*
X146610000Y-88280000D03*
X146110000Y-88280000D03*
D13*
X113030000Y-120650000D03*
X184150000Y-120650000D03*
X184150000Y-69850000D03*
X113030000Y-69850000D03*
D14*
X167767000Y-70612000D03*
D15*
X167767000Y-77216000D03*
X170053000Y-77216000D03*
X165481000Y-77216000D03*
D16*
X113030000Y-86360000D03*
D17*
X134604760Y-108646000D03*
X134604760Y-106746000D03*
X132605780Y-107696000D03*
X140954760Y-108392000D03*
X140954760Y-106492000D03*
X138955780Y-107442000D03*
X153146760Y-108900000D03*
X153146760Y-107000000D03*
X151147780Y-107950000D03*
D18*
X152285000Y-114290000D03*
X149745000Y-114290000D03*
X153555000Y-111760000D03*
D19*
X155460000Y-120640000D03*
X147840000Y-120640000D03*
D18*
X151015000Y-111760000D03*
D20*
X176171860Y-73406000D03*
X173332140Y-73406000D03*
D21*
X166370000Y-89049860D03*
X166370000Y-86210140D03*
D20*
X179428140Y-90424000D03*
X182267860Y-90424000D03*
D21*
X138938000Y-81384140D03*
X138938000Y-84223860D03*
D22*
X183356000Y-73660000D03*
X179356000Y-73660000D03*
D23*
X163068000Y-84614000D03*
X163068000Y-88614000D03*
X123190000Y-99790000D03*
X123190000Y-95790000D03*
X123190000Y-92805000D03*
X123190000Y-88805000D03*
X118745000Y-92805000D03*
X118745000Y-88805000D03*
D22*
X170466000Y-93726000D03*
X174466000Y-93726000D03*
X160750000Y-107188000D03*
X156750000Y-107188000D03*
X163544000Y-111760000D03*
X159544000Y-111760000D03*
X148304000Y-106934000D03*
X144304000Y-106934000D03*
X142716000Y-111506000D03*
X138716000Y-111506000D03*
X135350000Y-111506000D03*
X131350000Y-111506000D03*
X129572000Y-103886000D03*
X133572000Y-103886000D03*
D23*
X134366000Y-84296000D03*
X134366000Y-80296000D03*
D24*
X145287140Y-78742120D03*
X147827140Y-78742120D03*
X149859140Y-78742120D03*
X152399140Y-78742120D03*
D25*
X142239140Y-76075120D03*
X155955140Y-76075120D03*
D26*
X138684000Y-92964000D03*
X138684000Y-97844000D03*
D27*
X155416000Y-85852000D03*
X151416000Y-85852000D03*
X144304000Y-85852000D03*
X148304000Y-85852000D03*
X144304000Y-102616000D03*
X148304000Y-102616000D03*
D28*
X158496000Y-91980000D03*
X158496000Y-95980000D03*
D27*
X136684000Y-103124000D03*
X140684000Y-103124000D03*
X136684000Y-87376000D03*
X140684000Y-87376000D03*
D29*
X119380000Y-76200000D03*
D30*
X121920000Y-76200000D03*
X124460000Y-76200000D03*
X127000000Y-76200000D03*
D29*
X119380000Y-83820000D03*
D30*
X121920000Y-83820000D03*
X124460000Y-83820000D03*
D31*
X129540000Y-86995000D03*
D32*
X129540000Y-84455000D03*
D29*
X137160000Y-70485000D03*
D30*
X134620000Y-70485000D03*
X132080000Y-70485000D03*
D33*
X114300000Y-101110000D03*
X114300000Y-91930000D03*
D31*
X161290000Y-71120000D03*
D32*
X161290000Y-73660000D03*
D34*
X175260000Y-78740000D03*
D35*
X175260000Y-81280000D03*
X175260000Y-83820000D03*
X175260000Y-86360000D03*
D34*
X175260000Y-104140000D03*
D35*
X175260000Y-106680000D03*
X175260000Y-109220000D03*
X175260000Y-111760000D03*
X175260000Y-114300000D03*
D31*
X175260000Y-119380000D03*
D32*
X177800000Y-119380000D03*
D31*
X130175000Y-93345000D03*
D32*
X130175000Y-95885000D03*
D36*
X121920000Y-109220000D03*
D37*
X124460000Y-109220000D03*
X121920000Y-111760000D03*
X124460000Y-111760000D03*
X121920000Y-114300000D03*
X124460000Y-114300000D03*
D29*
X137160000Y-74930000D03*
D30*
X134620000Y-74930000D03*
X132080000Y-74930000D03*
D28*
X170434000Y-81058000D03*
X170434000Y-85058000D03*
X160020000Y-99600000D03*
X160020000Y-103600000D03*
X118745000Y-95790000D03*
X118745000Y-99790000D03*
X167894000Y-100362000D03*
X167894000Y-104362000D03*
D27*
X174720000Y-90170000D03*
X170720000Y-90170000D03*
D22*
X147352000Y-83058000D03*
X151352000Y-83058000D03*
X155924000Y-102616000D03*
X151924000Y-102616000D03*
X162592000Y-92710000D03*
X166592000Y-92710000D03*
X162592000Y-96012000D03*
X166592000Y-96012000D03*
D38*
X173261020Y-68834000D03*
X177258980Y-68834000D03*
X160815020Y-81026000D03*
X164812980Y-81026000D03*
D39*
X163830000Y-104106980D03*
X163830000Y-100109020D03*
D40*
X150618600Y-109234600D03*
X152560700Y-110799600D03*
X154363500Y-104248400D03*
X154250500Y-100585300D03*
X140684000Y-86068300D03*
X145169000Y-96230000D03*
X147110000Y-98283700D03*
X145411200Y-87659500D03*
X136896100Y-88700800D03*
X142963500Y-92774600D03*
X140249200Y-110540800D03*
X139131500Y-106521900D03*
X149925000Y-104859200D03*
X145640200Y-95079900D03*
X142277500Y-105770600D03*
X143061800Y-94230000D03*
X133605300Y-107060000D03*
X142266400Y-95548800D03*
X132448500Y-110134100D03*
X139334700Y-95136400D03*
X127347500Y-95255100D03*
X138117300Y-95676700D03*
X146778100Y-103357200D03*
X125341000Y-99656900D03*
X146990000Y-84419700D03*
X148109900Y-89331300D03*
X166592000Y-91344300D03*
X166196700Y-94648800D03*
M02*
