%TF.GenerationSoftware,KiCad,Pcbnew,4.0.2+dfsg1-stable*%
%TF.CreationDate,2019-04-14T19:17:55+02:00*%
%TF.ProjectId,StandAlone-Adapter,5374616E64416C6F6E652D4164617074,rev?*%
%TF.FileFunction,Paste,Top*%
%FSLAX46Y46*%
G04 Gerber Fmt 4.6, Leading zero omitted, Abs format (unit mm)*
G04 Created by KiCad (PCBNEW 4.0.2+dfsg1-stable) date Sun 14 Apr 2019 19:17:55 CEST*
%MOMM*%
G01*
G04 APERTURE LIST*
%ADD10C,0.100000*%
%ADD11R,3.657600X2.032000*%
%ADD12R,1.016000X2.032000*%
%ADD13R,0.800100X0.800100*%
%ADD14R,1.800860X1.597660*%
%ADD15R,1.597660X1.800860*%
%ADD16R,1.700000X2.000000*%
%ADD17R,2.000000X1.700000*%
%ADD18R,2.000000X1.600000*%
%ADD19R,1.600000X2.000000*%
%ADD20R,1.600000X2.180000*%
%ADD21R,2.999740X1.501140*%
G04 APERTURE END LIST*
D10*
G36*
X142912676Y-95800800D02*
X142735899Y-95624023D01*
X143443006Y-94916916D01*
X143619783Y-95093693D01*
X142912676Y-95800800D01*
X142912676Y-95800800D01*
G37*
G36*
X143266229Y-96154354D02*
X143089452Y-95977577D01*
X143796559Y-95270470D01*
X143973336Y-95447247D01*
X143266229Y-96154354D01*
X143266229Y-96154354D01*
G37*
G36*
X143619783Y-96507907D02*
X143443006Y-96331130D01*
X144150113Y-95624023D01*
X144326890Y-95800800D01*
X143619783Y-96507907D01*
X143619783Y-96507907D01*
G37*
G36*
X143973336Y-96861460D02*
X143796559Y-96684683D01*
X144503666Y-95977576D01*
X144680443Y-96154353D01*
X143973336Y-96861460D01*
X143973336Y-96861460D01*
G37*
G36*
X144326889Y-97215014D02*
X144150112Y-97038237D01*
X144857219Y-96331130D01*
X145033996Y-96507907D01*
X144326889Y-97215014D01*
X144326889Y-97215014D01*
G37*
G36*
X144680443Y-97568567D02*
X144503666Y-97391790D01*
X145210773Y-96684683D01*
X145387550Y-96861460D01*
X144680443Y-97568567D01*
X144680443Y-97568567D01*
G37*
G36*
X145033996Y-97922121D02*
X144857219Y-97745344D01*
X145564326Y-97038237D01*
X145741103Y-97215014D01*
X145033996Y-97922121D01*
X145033996Y-97922121D01*
G37*
G36*
X145387550Y-98275674D02*
X145210773Y-98098897D01*
X145917880Y-97391790D01*
X146094657Y-97568567D01*
X145387550Y-98275674D01*
X145387550Y-98275674D01*
G37*
G36*
X145741103Y-98629227D02*
X145564326Y-98452450D01*
X146271433Y-97745343D01*
X146448210Y-97922120D01*
X145741103Y-98629227D01*
X145741103Y-98629227D01*
G37*
G36*
X146094656Y-98982781D02*
X145917879Y-98806004D01*
X146624986Y-98098897D01*
X146801763Y-98275674D01*
X146094656Y-98982781D01*
X146094656Y-98982781D01*
G37*
G36*
X146448210Y-99336334D02*
X146271433Y-99159557D01*
X146978540Y-98452450D01*
X147155317Y-98629227D01*
X146448210Y-99336334D01*
X146448210Y-99336334D01*
G37*
G36*
X146801763Y-99689888D02*
X146624986Y-99513111D01*
X147332093Y-98806004D01*
X147508870Y-98982781D01*
X146801763Y-99689888D01*
X146801763Y-99689888D01*
G37*
G36*
X147155317Y-100043441D02*
X146978540Y-99866664D01*
X147685647Y-99159557D01*
X147862424Y-99336334D01*
X147155317Y-100043441D01*
X147155317Y-100043441D01*
G37*
G36*
X147508870Y-100396994D02*
X147332093Y-100220217D01*
X148039200Y-99513110D01*
X148215977Y-99689887D01*
X147508870Y-100396994D01*
X147508870Y-100396994D01*
G37*
G36*
X147862423Y-100750548D02*
X147685646Y-100573771D01*
X148392753Y-99866664D01*
X148569530Y-100043441D01*
X147862423Y-100750548D01*
X147862423Y-100750548D01*
G37*
G36*
X148215977Y-101104101D02*
X148039200Y-100927324D01*
X148746307Y-100220217D01*
X148923084Y-100396994D01*
X148215977Y-101104101D01*
X148215977Y-101104101D01*
G37*
G36*
X151680800Y-100927324D02*
X151504023Y-101104101D01*
X150796916Y-100396994D01*
X150973693Y-100220217D01*
X151680800Y-100927324D01*
X151680800Y-100927324D01*
G37*
G36*
X152034354Y-100573771D02*
X151857577Y-100750548D01*
X151150470Y-100043441D01*
X151327247Y-99866664D01*
X152034354Y-100573771D01*
X152034354Y-100573771D01*
G37*
G36*
X152387907Y-100220217D02*
X152211130Y-100396994D01*
X151504023Y-99689887D01*
X151680800Y-99513110D01*
X152387907Y-100220217D01*
X152387907Y-100220217D01*
G37*
G36*
X152741460Y-99866664D02*
X152564683Y-100043441D01*
X151857576Y-99336334D01*
X152034353Y-99159557D01*
X152741460Y-99866664D01*
X152741460Y-99866664D01*
G37*
G36*
X153095014Y-99513111D02*
X152918237Y-99689888D01*
X152211130Y-98982781D01*
X152387907Y-98806004D01*
X153095014Y-99513111D01*
X153095014Y-99513111D01*
G37*
G36*
X153448567Y-99159557D02*
X153271790Y-99336334D01*
X152564683Y-98629227D01*
X152741460Y-98452450D01*
X153448567Y-99159557D01*
X153448567Y-99159557D01*
G37*
G36*
X153802121Y-98806004D02*
X153625344Y-98982781D01*
X152918237Y-98275674D01*
X153095014Y-98098897D01*
X153802121Y-98806004D01*
X153802121Y-98806004D01*
G37*
G36*
X154155674Y-98452450D02*
X153978897Y-98629227D01*
X153271790Y-97922120D01*
X153448567Y-97745343D01*
X154155674Y-98452450D01*
X154155674Y-98452450D01*
G37*
G36*
X154509227Y-98098897D02*
X154332450Y-98275674D01*
X153625343Y-97568567D01*
X153802120Y-97391790D01*
X154509227Y-98098897D01*
X154509227Y-98098897D01*
G37*
G36*
X154862781Y-97745344D02*
X154686004Y-97922121D01*
X153978897Y-97215014D01*
X154155674Y-97038237D01*
X154862781Y-97745344D01*
X154862781Y-97745344D01*
G37*
G36*
X155216334Y-97391790D02*
X155039557Y-97568567D01*
X154332450Y-96861460D01*
X154509227Y-96684683D01*
X155216334Y-97391790D01*
X155216334Y-97391790D01*
G37*
G36*
X155569888Y-97038237D02*
X155393111Y-97215014D01*
X154686004Y-96507907D01*
X154862781Y-96331130D01*
X155569888Y-97038237D01*
X155569888Y-97038237D01*
G37*
G36*
X155923441Y-96684683D02*
X155746664Y-96861460D01*
X155039557Y-96154353D01*
X155216334Y-95977576D01*
X155923441Y-96684683D01*
X155923441Y-96684683D01*
G37*
G36*
X156276994Y-96331130D02*
X156100217Y-96507907D01*
X155393110Y-95800800D01*
X155569887Y-95624023D01*
X156276994Y-96331130D01*
X156276994Y-96331130D01*
G37*
G36*
X156630548Y-95977577D02*
X156453771Y-96154354D01*
X155746664Y-95447247D01*
X155923441Y-95270470D01*
X156630548Y-95977577D01*
X156630548Y-95977577D01*
G37*
G36*
X156984101Y-95624023D02*
X156807324Y-95800800D01*
X156100217Y-95093693D01*
X156276994Y-94916916D01*
X156984101Y-95624023D01*
X156984101Y-95624023D01*
G37*
G36*
X156276994Y-93043084D02*
X156100217Y-92866307D01*
X156807324Y-92159200D01*
X156984101Y-92335977D01*
X156276994Y-93043084D01*
X156276994Y-93043084D01*
G37*
G36*
X155923441Y-92689530D02*
X155746664Y-92512753D01*
X156453771Y-91805646D01*
X156630548Y-91982423D01*
X155923441Y-92689530D01*
X155923441Y-92689530D01*
G37*
G36*
X155569887Y-92335977D02*
X155393110Y-92159200D01*
X156100217Y-91452093D01*
X156276994Y-91628870D01*
X155569887Y-92335977D01*
X155569887Y-92335977D01*
G37*
G36*
X155216334Y-91982424D02*
X155039557Y-91805647D01*
X155746664Y-91098540D01*
X155923441Y-91275317D01*
X155216334Y-91982424D01*
X155216334Y-91982424D01*
G37*
G36*
X154862781Y-91628870D02*
X154686004Y-91452093D01*
X155393111Y-90744986D01*
X155569888Y-90921763D01*
X154862781Y-91628870D01*
X154862781Y-91628870D01*
G37*
G36*
X154509227Y-91275317D02*
X154332450Y-91098540D01*
X155039557Y-90391433D01*
X155216334Y-90568210D01*
X154509227Y-91275317D01*
X154509227Y-91275317D01*
G37*
G36*
X154155674Y-90921763D02*
X153978897Y-90744986D01*
X154686004Y-90037879D01*
X154862781Y-90214656D01*
X154155674Y-90921763D01*
X154155674Y-90921763D01*
G37*
G36*
X153802120Y-90568210D02*
X153625343Y-90391433D01*
X154332450Y-89684326D01*
X154509227Y-89861103D01*
X153802120Y-90568210D01*
X153802120Y-90568210D01*
G37*
G36*
X153448567Y-90214657D02*
X153271790Y-90037880D01*
X153978897Y-89330773D01*
X154155674Y-89507550D01*
X153448567Y-90214657D01*
X153448567Y-90214657D01*
G37*
G36*
X153095014Y-89861103D02*
X152918237Y-89684326D01*
X153625344Y-88977219D01*
X153802121Y-89153996D01*
X153095014Y-89861103D01*
X153095014Y-89861103D01*
G37*
G36*
X152741460Y-89507550D02*
X152564683Y-89330773D01*
X153271790Y-88623666D01*
X153448567Y-88800443D01*
X152741460Y-89507550D01*
X152741460Y-89507550D01*
G37*
G36*
X152387907Y-89153996D02*
X152211130Y-88977219D01*
X152918237Y-88270112D01*
X153095014Y-88446889D01*
X152387907Y-89153996D01*
X152387907Y-89153996D01*
G37*
G36*
X152034353Y-88800443D02*
X151857576Y-88623666D01*
X152564683Y-87916559D01*
X152741460Y-88093336D01*
X152034353Y-88800443D01*
X152034353Y-88800443D01*
G37*
G36*
X151680800Y-88446890D02*
X151504023Y-88270113D01*
X152211130Y-87563006D01*
X152387907Y-87739783D01*
X151680800Y-88446890D01*
X151680800Y-88446890D01*
G37*
G36*
X151327247Y-88093336D02*
X151150470Y-87916559D01*
X151857577Y-87209452D01*
X152034354Y-87386229D01*
X151327247Y-88093336D01*
X151327247Y-88093336D01*
G37*
G36*
X150973693Y-87739783D02*
X150796916Y-87563006D01*
X151504023Y-86855899D01*
X151680800Y-87032676D01*
X150973693Y-87739783D01*
X150973693Y-87739783D01*
G37*
G36*
X148923084Y-87563006D02*
X148746307Y-87739783D01*
X148039200Y-87032676D01*
X148215977Y-86855899D01*
X148923084Y-87563006D01*
X148923084Y-87563006D01*
G37*
G36*
X148569530Y-87916559D02*
X148392753Y-88093336D01*
X147685646Y-87386229D01*
X147862423Y-87209452D01*
X148569530Y-87916559D01*
X148569530Y-87916559D01*
G37*
G36*
X148215977Y-88270113D02*
X148039200Y-88446890D01*
X147332093Y-87739783D01*
X147508870Y-87563006D01*
X148215977Y-88270113D01*
X148215977Y-88270113D01*
G37*
G36*
X147862424Y-88623666D02*
X147685647Y-88800443D01*
X146978540Y-88093336D01*
X147155317Y-87916559D01*
X147862424Y-88623666D01*
X147862424Y-88623666D01*
G37*
G36*
X147508870Y-88977219D02*
X147332093Y-89153996D01*
X146624986Y-88446889D01*
X146801763Y-88270112D01*
X147508870Y-88977219D01*
X147508870Y-88977219D01*
G37*
G36*
X147155317Y-89330773D02*
X146978540Y-89507550D01*
X146271433Y-88800443D01*
X146448210Y-88623666D01*
X147155317Y-89330773D01*
X147155317Y-89330773D01*
G37*
G36*
X146801763Y-89684326D02*
X146624986Y-89861103D01*
X145917879Y-89153996D01*
X146094656Y-88977219D01*
X146801763Y-89684326D01*
X146801763Y-89684326D01*
G37*
G36*
X146448210Y-90037880D02*
X146271433Y-90214657D01*
X145564326Y-89507550D01*
X145741103Y-89330773D01*
X146448210Y-90037880D01*
X146448210Y-90037880D01*
G37*
G36*
X146094657Y-90391433D02*
X145917880Y-90568210D01*
X145210773Y-89861103D01*
X145387550Y-89684326D01*
X146094657Y-90391433D01*
X146094657Y-90391433D01*
G37*
G36*
X145741103Y-90744986D02*
X145564326Y-90921763D01*
X144857219Y-90214656D01*
X145033996Y-90037879D01*
X145741103Y-90744986D01*
X145741103Y-90744986D01*
G37*
G36*
X145387550Y-91098540D02*
X145210773Y-91275317D01*
X144503666Y-90568210D01*
X144680443Y-90391433D01*
X145387550Y-91098540D01*
X145387550Y-91098540D01*
G37*
G36*
X145033996Y-91452093D02*
X144857219Y-91628870D01*
X144150112Y-90921763D01*
X144326889Y-90744986D01*
X145033996Y-91452093D01*
X145033996Y-91452093D01*
G37*
G36*
X144680443Y-91805647D02*
X144503666Y-91982424D01*
X143796559Y-91275317D01*
X143973336Y-91098540D01*
X144680443Y-91805647D01*
X144680443Y-91805647D01*
G37*
G36*
X144326890Y-92159200D02*
X144150113Y-92335977D01*
X143443006Y-91628870D01*
X143619783Y-91452093D01*
X144326890Y-92159200D01*
X144326890Y-92159200D01*
G37*
G36*
X143973336Y-92512753D02*
X143796559Y-92689530D01*
X143089452Y-91982423D01*
X143266229Y-91805646D01*
X143973336Y-92512753D01*
X143973336Y-92512753D01*
G37*
G36*
X143619783Y-92866307D02*
X143443006Y-93043084D01*
X142735899Y-92335977D01*
X142912676Y-92159200D01*
X143619783Y-92866307D01*
X143619783Y-92866307D01*
G37*
D11*
X167640000Y-76962000D03*
D12*
X167640000Y-70358000D03*
X165354000Y-70358000D03*
X169926000Y-70358000D03*
D13*
X139380000Y-108219240D03*
X137480000Y-108219240D03*
X138430000Y-110218220D03*
X151318000Y-106187240D03*
X149418000Y-106187240D03*
X150368000Y-108186220D03*
X162494000Y-108219240D03*
X160594000Y-108219240D03*
X161544000Y-110218220D03*
D14*
X163576000Y-81175860D03*
X163576000Y-78336140D03*
D15*
X139296140Y-88900000D03*
X142135860Y-88900000D03*
X182775860Y-91440000D03*
X179936140Y-91440000D03*
X117960140Y-88900000D03*
X120799860Y-88900000D03*
D16*
X160528000Y-77248000D03*
X160528000Y-81248000D03*
D17*
X132620000Y-88900000D03*
X136620000Y-88900000D03*
D16*
X126365000Y-91980000D03*
X126365000Y-95980000D03*
D17*
X142780000Y-104648000D03*
X146780000Y-104648000D03*
X153956000Y-104140000D03*
X157956000Y-104140000D03*
X173260000Y-91440000D03*
X177260000Y-91440000D03*
X165195000Y-104140000D03*
X161195000Y-104140000D03*
D16*
X165608000Y-107220000D03*
X165608000Y-111220000D03*
D17*
X142780000Y-109220000D03*
X146780000Y-109220000D03*
X157956000Y-108204000D03*
X153956000Y-108204000D03*
D16*
X134620000Y-111220000D03*
X134620000Y-107220000D03*
D17*
X139795000Y-104140000D03*
X135795000Y-104140000D03*
X123984000Y-88900000D03*
X127984000Y-88900000D03*
D18*
X158528000Y-86614000D03*
X162528000Y-86614000D03*
D19*
X162560000Y-101060000D03*
X162560000Y-97060000D03*
X160020000Y-101060000D03*
X160020000Y-97060000D03*
D18*
X157004000Y-89408000D03*
X161004000Y-89408000D03*
X141256000Y-101600000D03*
X145256000Y-101600000D03*
X134652000Y-92964000D03*
X138652000Y-92964000D03*
D20*
X114300000Y-101110000D03*
X114300000Y-91930000D03*
D18*
X144240000Y-83820000D03*
X140240000Y-83820000D03*
X161195000Y-114935000D03*
X165195000Y-114935000D03*
D19*
X130175000Y-111220000D03*
X130175000Y-107220000D03*
D18*
X167545000Y-96520000D03*
X171545000Y-96520000D03*
X179800000Y-96520000D03*
X175800000Y-96520000D03*
D17*
X166275000Y-85725000D03*
X170275000Y-85725000D03*
X166910000Y-81280000D03*
X170910000Y-81280000D03*
X134715000Y-115570000D03*
X130715000Y-115570000D03*
X142970000Y-115570000D03*
X138970000Y-115570000D03*
D21*
X157446980Y-83820000D03*
X153449020Y-83820000D03*
X169892980Y-90932000D03*
X165895020Y-90932000D03*
X165193980Y-120015000D03*
X161196020Y-120015000D03*
M02*
