M48
;DRILL file {KiCad 4.0.2+dfsg1-stable} date Tue 13 Nov 2018 01:07:19 CET
;FORMAT={-:-/ absolute / metric / decimal}
FMAT,2
METRIC,TZ
T1C0.400
T2C0.800
T3C0.813
T4C1.001
T5C1.016
T6C2.301
T7C3.048
%
G90
G05
M71
T1
X153.636Y-102.387
X155.262Y-124.691
X155.424Y-122.663
X156.07Y-128.185
X156.584Y-107.14
X156.854Y-110.488
X158.095Y-122.722
X158.788Y-120.327
X158.959Y-122.709
X159.952Y-122.392
X160.392Y-123.115
X160.849Y-122.254
X161.762Y-118.747
X161.966Y-125.078
X167.406Y-108.037
X181.105Y-92.195
X181.883Y-104.14
T2
X127.Y-127.
T3
X155.702Y-137.922
X159.258Y-135.89
X160.528Y-133.35
X161.798Y-135.89
X163.068Y-133.35
X164.338Y-135.89
X165.608Y-133.35
X169.164Y-137.922
T4
X157.987Y-99.062
X160.527Y-99.062
X162.559Y-99.062
X165.099Y-99.062
T5
X132.08Y-96.52
X132.08Y-104.14
X134.62Y-96.52
X134.62Y-104.14
X134.62Y-114.3
X134.62Y-116.84
X134.62Y-129.54
X134.62Y-132.08
X134.62Y-134.62
X137.16Y-96.52
X137.16Y-104.14
X137.16Y-129.54
X137.16Y-132.08
X137.16Y-134.62
X139.7Y-96.52
X142.24Y-101.6
X142.24Y-104.14
X144.78Y-93.98
X147.32Y-93.98
X149.86Y-93.98
X173.99Y-91.44
X173.99Y-93.98
X187.96Y-99.06
X187.96Y-101.6
X187.96Y-104.14
X187.96Y-106.68
X187.96Y-124.46
X187.96Y-127.
X187.96Y-129.54
X187.96Y-132.08
X187.96Y-134.62
X187.96Y-139.7
X190.5Y-139.7
T6
X154.939Y-96.395
X168.655Y-96.395
T7
X125.73Y-90.17
X125.73Y-140.97
X196.85Y-90.17
X196.85Y-140.97
T0
M30
