%TF.GenerationSoftware,KiCad,Pcbnew,5.1.9+dfsg1-1~bpo10+1*%
%TF.CreationDate,2021-04-16T21:47:52+02:00*%
%TF.ProjectId,StandAlone-Adapter,5374616e-6441-46c6-9f6e-652d41646170,rev?*%
%TF.SameCoordinates,Original*%
%TF.FileFunction,Other,User*%
%FSLAX46Y46*%
G04 Gerber Fmt 4.6, Leading zero omitted, Abs format (unit mm)*
G04 Created by KiCad (PCBNEW 5.1.9+dfsg1-1~bpo10+1) date 2021-04-16 21:47:52*
%MOMM*%
%LPD*%
G01*
G04 APERTURE LIST*
%ADD10C,0.300000*%
G04 APERTURE END LIST*
D10*
X197751428Y-89821428D02*
X197751428Y-89107142D01*
X197037142Y-89035714D01*
X197108571Y-89107142D01*
X197180000Y-89250000D01*
X197180000Y-89607142D01*
X197108571Y-89750000D01*
X197037142Y-89821428D01*
X196894285Y-89892857D01*
X196537142Y-89892857D01*
X196394285Y-89821428D01*
X196322857Y-89750000D01*
X196251428Y-89607142D01*
X196251428Y-89250000D01*
X196322857Y-89107142D01*
X196394285Y-89035714D01*
X197108571Y-90750000D02*
X197180000Y-90607142D01*
X197251428Y-90535714D01*
X197394285Y-90464285D01*
X197465714Y-90464285D01*
X197608571Y-90535714D01*
X197680000Y-90607142D01*
X197751428Y-90750000D01*
X197751428Y-91035714D01*
X197680000Y-91178571D01*
X197608571Y-91250000D01*
X197465714Y-91321428D01*
X197394285Y-91321428D01*
X197251428Y-91250000D01*
X197180000Y-91178571D01*
X197108571Y-91035714D01*
X197108571Y-90750000D01*
X197037142Y-90607142D01*
X196965714Y-90535714D01*
X196822857Y-90464285D01*
X196537142Y-90464285D01*
X196394285Y-90535714D01*
X196322857Y-90607142D01*
X196251428Y-90750000D01*
X196251428Y-91035714D01*
X196322857Y-91178571D01*
X196394285Y-91250000D01*
X196537142Y-91321428D01*
X196822857Y-91321428D01*
X196965714Y-91250000D01*
X197037142Y-91178571D01*
X197108571Y-91035714D01*
X196322857Y-92035714D02*
X196251428Y-92035714D01*
X196108571Y-91964285D01*
X196037142Y-91892857D01*
X197251428Y-93321428D02*
X196251428Y-93321428D01*
X197822857Y-92964285D02*
X196751428Y-92607142D01*
X196751428Y-93535714D01*
X197608571Y-94035714D02*
X197680000Y-94107142D01*
X197751428Y-94250000D01*
X197751428Y-94607142D01*
X197680000Y-94750000D01*
X197608571Y-94821428D01*
X197465714Y-94892857D01*
X197322857Y-94892857D01*
X197108571Y-94821428D01*
X196251428Y-93964285D01*
X196251428Y-94892857D01*
X197751428Y-95821428D02*
X197751428Y-95964285D01*
X197680000Y-96107142D01*
X197608571Y-96178571D01*
X197465714Y-96250000D01*
X197180000Y-96321428D01*
X196822857Y-96321428D01*
X196537142Y-96250000D01*
X196394285Y-96178571D01*
X196322857Y-96107142D01*
X196251428Y-95964285D01*
X196251428Y-95821428D01*
X196322857Y-95678571D01*
X196394285Y-95607142D01*
X196537142Y-95535714D01*
X196822857Y-95464285D01*
X197180000Y-95464285D01*
X197465714Y-95535714D01*
X197608571Y-95607142D01*
X197680000Y-95678571D01*
X197751428Y-95821428D01*
X196251428Y-98107142D02*
X197251428Y-98107142D01*
X197108571Y-98107142D02*
X197180000Y-98178571D01*
X197251428Y-98321428D01*
X197251428Y-98535714D01*
X197180000Y-98678571D01*
X197037142Y-98750000D01*
X196251428Y-98750000D01*
X197037142Y-98750000D02*
X197180000Y-98821428D01*
X197251428Y-98964285D01*
X197251428Y-99178571D01*
X197180000Y-99321428D01*
X197037142Y-99392857D01*
X196251428Y-99392857D01*
X196251428Y-100107142D02*
X197251428Y-100107142D01*
X197108571Y-100107142D02*
X197180000Y-100178571D01*
X197251428Y-100321428D01*
X197251428Y-100535714D01*
X197180000Y-100678571D01*
X197037142Y-100750000D01*
X196251428Y-100750000D01*
X197037142Y-100750000D02*
X197180000Y-100821428D01*
X197251428Y-100964285D01*
X197251428Y-101178571D01*
X197180000Y-101321428D01*
X197037142Y-101392857D01*
X196251428Y-101392857D01*
X195580000Y-66040000D02*
X195580000Y-124460000D01*
X187960000Y-66040000D02*
X198280000Y-66040000D01*
X187960000Y-124460000D02*
X198280000Y-124460000D01*
X195580000Y-124460000D02*
X194993579Y-123333496D01*
X195580000Y-124460000D02*
X196166421Y-123333496D01*
X195580000Y-66040000D02*
X194993579Y-67166504D01*
X195580000Y-66040000D02*
X196166421Y-67166504D01*
X142304285Y-58788571D02*
X143304285Y-58788571D01*
X142661428Y-60288571D01*
X144090000Y-59431428D02*
X143947142Y-59360000D01*
X143875714Y-59288571D01*
X143804285Y-59145714D01*
X143804285Y-59074285D01*
X143875714Y-58931428D01*
X143947142Y-58860000D01*
X144090000Y-58788571D01*
X144375714Y-58788571D01*
X144518571Y-58860000D01*
X144590000Y-58931428D01*
X144661428Y-59074285D01*
X144661428Y-59145714D01*
X144590000Y-59288571D01*
X144518571Y-59360000D01*
X144375714Y-59431428D01*
X144090000Y-59431428D01*
X143947142Y-59502857D01*
X143875714Y-59574285D01*
X143804285Y-59717142D01*
X143804285Y-60002857D01*
X143875714Y-60145714D01*
X143947142Y-60217142D01*
X144090000Y-60288571D01*
X144375714Y-60288571D01*
X144518571Y-60217142D01*
X144590000Y-60145714D01*
X144661428Y-60002857D01*
X144661428Y-59717142D01*
X144590000Y-59574285D01*
X144518571Y-59502857D01*
X144375714Y-59431428D01*
X145375714Y-60217142D02*
X145375714Y-60288571D01*
X145304285Y-60431428D01*
X145232857Y-60502857D01*
X145875714Y-58788571D02*
X146875714Y-58788571D01*
X146232857Y-60288571D01*
X148090000Y-59288571D02*
X148090000Y-60288571D01*
X147732857Y-58717142D02*
X147375714Y-59788571D01*
X148304285Y-59788571D01*
X149161428Y-58788571D02*
X149304285Y-58788571D01*
X149447142Y-58860000D01*
X149518571Y-58931428D01*
X149590000Y-59074285D01*
X149661428Y-59360000D01*
X149661428Y-59717142D01*
X149590000Y-60002857D01*
X149518571Y-60145714D01*
X149447142Y-60217142D01*
X149304285Y-60288571D01*
X149161428Y-60288571D01*
X149018571Y-60217142D01*
X148947142Y-60145714D01*
X148875714Y-60002857D01*
X148804285Y-59717142D01*
X148804285Y-59360000D01*
X148875714Y-59074285D01*
X148947142Y-58931428D01*
X149018571Y-58860000D01*
X149161428Y-58788571D01*
X151447142Y-60288571D02*
X151447142Y-59288571D01*
X151447142Y-59431428D02*
X151518571Y-59360000D01*
X151661428Y-59288571D01*
X151875714Y-59288571D01*
X152018571Y-59360000D01*
X152090000Y-59502857D01*
X152090000Y-60288571D01*
X152090000Y-59502857D02*
X152161428Y-59360000D01*
X152304285Y-59288571D01*
X152518571Y-59288571D01*
X152661428Y-59360000D01*
X152732857Y-59502857D01*
X152732857Y-60288571D01*
X153447142Y-60288571D02*
X153447142Y-59288571D01*
X153447142Y-59431428D02*
X153518571Y-59360000D01*
X153661428Y-59288571D01*
X153875714Y-59288571D01*
X154018571Y-59360000D01*
X154090000Y-59502857D01*
X154090000Y-60288571D01*
X154090000Y-59502857D02*
X154161428Y-59360000D01*
X154304285Y-59288571D01*
X154518571Y-59288571D01*
X154661428Y-59360000D01*
X154732857Y-59502857D01*
X154732857Y-60288571D01*
X109220000Y-60960000D02*
X187960000Y-60960000D01*
X109220000Y-66040000D02*
X109220000Y-58260000D01*
X187960000Y-66040000D02*
X187960000Y-58260000D01*
X187960000Y-60960000D02*
X186833496Y-61546421D01*
X187960000Y-60960000D02*
X186833496Y-60373579D01*
X109220000Y-60960000D02*
X110346504Y-61546421D01*
X109220000Y-60960000D02*
X110346504Y-60373579D01*
M02*
