%TF.GenerationSoftware,KiCad,Pcbnew,4.0.2+dfsg1-stable*%
%TF.CreationDate,2019-03-31T18:37:28+02:00*%
%TF.ProjectId,StandAlone-Adapter,5374616E64416C6F6E652D4164617074,rev?*%
%TF.FileFunction,Legend,Top*%
%FSLAX46Y46*%
G04 Gerber Fmt 4.6, Leading zero omitted, Abs format (unit mm)*
G04 Created by KiCad (PCBNEW 4.0.2+dfsg1-stable) date Sun 31 Mar 2019 18:37:28 CEST*
%MOMM*%
G01*
G04 APERTURE LIST*
%ADD10C,0.100000*%
%ADD11C,0.200000*%
%ADD12C,0.150000*%
%ADD13C,0.125000*%
%ADD14C,0.300000*%
%ADD15C,0.175000*%
%ADD16C,0.275000*%
%ADD17C,0.250000*%
%ADD18C,0.120000*%
%ADD19C,0.010000*%
G04 APERTURE END LIST*
D10*
D11*
X142494000Y-94742000D02*
G75*
G03X142494000Y-94742000I-127000J0D01*
G01*
D12*
X110806667Y-83604915D02*
X110106667Y-83517415D01*
X110773333Y-83600749D02*
X110806667Y-83671582D01*
X110806667Y-83804915D01*
X110773333Y-83867416D01*
X110740000Y-83896582D01*
X110673333Y-83921583D01*
X110473333Y-83896583D01*
X110406667Y-83854915D01*
X110373333Y-83817416D01*
X110340000Y-83746582D01*
X110340000Y-83613249D01*
X110373333Y-83550749D01*
X110773333Y-83000750D02*
X110806667Y-83071582D01*
X110806667Y-83204916D01*
X110773333Y-83267416D01*
X110706667Y-83292416D01*
X110440000Y-83259083D01*
X110373333Y-83217416D01*
X110340000Y-83146583D01*
X110340000Y-83013249D01*
X110373333Y-82950750D01*
X110440000Y-82925749D01*
X110506667Y-82934082D01*
X110573333Y-83275750D01*
X110773333Y-82700750D02*
X110806667Y-82638249D01*
X110806667Y-82504916D01*
X110773333Y-82434083D01*
X110706667Y-82392416D01*
X110673333Y-82388250D01*
X110606667Y-82413249D01*
X110573333Y-82475750D01*
X110573333Y-82575750D01*
X110540000Y-82638249D01*
X110473333Y-82663250D01*
X110440000Y-82659083D01*
X110373333Y-82617416D01*
X110340000Y-82546583D01*
X110340000Y-82446583D01*
X110373333Y-82384083D01*
X110806667Y-82104915D02*
X110340000Y-82046582D01*
X110106667Y-82017415D02*
X110140000Y-82054916D01*
X110173333Y-82025749D01*
X110140000Y-81988249D01*
X110106667Y-82017415D01*
X110173333Y-82025749D01*
X110340000Y-81413249D02*
X110906667Y-81484082D01*
X110973333Y-81525750D01*
X111006667Y-81563249D01*
X111040000Y-81634083D01*
X111040000Y-81734083D01*
X111006667Y-81796582D01*
X110773333Y-81467416D02*
X110806667Y-81538249D01*
X110806667Y-81671582D01*
X110773333Y-81734083D01*
X110740000Y-81763249D01*
X110673333Y-81788250D01*
X110473333Y-81763250D01*
X110406667Y-81721582D01*
X110373333Y-81684083D01*
X110340000Y-81613249D01*
X110340000Y-81479916D01*
X110373333Y-81417416D01*
X110340000Y-81079916D02*
X110806667Y-81138249D01*
X110406667Y-81088249D02*
X110373333Y-81050750D01*
X110340000Y-80979916D01*
X110340000Y-80879916D01*
X110373333Y-80817417D01*
X110440000Y-80792416D01*
X110806667Y-80838249D01*
X110773333Y-80234084D02*
X110806667Y-80304916D01*
X110806667Y-80438250D01*
X110773333Y-80500750D01*
X110706667Y-80525750D01*
X110440000Y-80492417D01*
X110373333Y-80450750D01*
X110340000Y-80379917D01*
X110340000Y-80246583D01*
X110373333Y-80184084D01*
X110440000Y-80159083D01*
X110506667Y-80167416D01*
X110573333Y-80509084D01*
X110806667Y-79604916D02*
X110106667Y-79517416D01*
X110773333Y-79600750D02*
X110806667Y-79671583D01*
X110806667Y-79804916D01*
X110773333Y-79867417D01*
X110740000Y-79896583D01*
X110673333Y-79921584D01*
X110473333Y-79896584D01*
X110406667Y-79854916D01*
X110373333Y-79817417D01*
X110340000Y-79746583D01*
X110340000Y-79613250D01*
X110373333Y-79550750D01*
X110806667Y-78738250D02*
X110106667Y-78650750D01*
X110373333Y-78684084D02*
X110340000Y-78613251D01*
X110340000Y-78479917D01*
X110373333Y-78417418D01*
X110406667Y-78388250D01*
X110473333Y-78363251D01*
X110673333Y-78388251D01*
X110740000Y-78429917D01*
X110773333Y-78467418D01*
X110806667Y-78538250D01*
X110806667Y-78671584D01*
X110773333Y-78734084D01*
X110340000Y-78113251D02*
X110806667Y-78004917D01*
X110340000Y-77779918D02*
X110806667Y-78004917D01*
X110973333Y-78092418D01*
X111006667Y-78129917D01*
X111040000Y-78200751D01*
X110806667Y-76638251D02*
X110473333Y-76829919D01*
X110806667Y-77038251D02*
X110106667Y-76950751D01*
X110106667Y-76684085D01*
X110140000Y-76621585D01*
X110173333Y-76592419D01*
X110240000Y-76567418D01*
X110340000Y-76579918D01*
X110406667Y-76621585D01*
X110440000Y-76659085D01*
X110473333Y-76729919D01*
X110473333Y-76996585D01*
X110740000Y-76329918D02*
X110773333Y-76300752D01*
X110806667Y-76338251D01*
X110773333Y-76367419D01*
X110740000Y-76329918D01*
X110806667Y-76338251D01*
X110140000Y-75554919D02*
X110106667Y-75617418D01*
X110106667Y-75717418D01*
X110140000Y-75821585D01*
X110206667Y-75896585D01*
X110273333Y-75938252D01*
X110406667Y-75988252D01*
X110506667Y-76000752D01*
X110640000Y-75984085D01*
X110706667Y-75959085D01*
X110773333Y-75900752D01*
X110806667Y-75804918D01*
X110806667Y-75738252D01*
X110773333Y-75634086D01*
X110740000Y-75596585D01*
X110506667Y-75567418D01*
X110506667Y-75700752D01*
X110740000Y-75296585D02*
X110773333Y-75267419D01*
X110806667Y-75304918D01*
X110773333Y-75334086D01*
X110740000Y-75296585D01*
X110806667Y-75304918D01*
X110173333Y-74925753D02*
X110140000Y-74888252D01*
X110106667Y-74817419D01*
X110106667Y-74650752D01*
X110140000Y-74588252D01*
X110173333Y-74559086D01*
X110240000Y-74534086D01*
X110306667Y-74542419D01*
X110406667Y-74588252D01*
X110806667Y-75038252D01*
X110806667Y-74604919D01*
X110106667Y-74084085D02*
X110106667Y-74017418D01*
X110140000Y-73954919D01*
X110173333Y-73925752D01*
X110240000Y-73900752D01*
X110373333Y-73884086D01*
X110540000Y-73904919D01*
X110673333Y-73954919D01*
X110740000Y-73996585D01*
X110773333Y-74034086D01*
X110806667Y-74104918D01*
X110806667Y-74171585D01*
X110773333Y-74234086D01*
X110740000Y-74263252D01*
X110673333Y-74288252D01*
X110540000Y-74304919D01*
X110373333Y-74284086D01*
X110240000Y-74234085D01*
X110173333Y-74192419D01*
X110140000Y-74154919D01*
X110106667Y-74084085D01*
X110806667Y-73271585D02*
X110806667Y-73671585D01*
X110806667Y-73471585D02*
X110106667Y-73384085D01*
X110206667Y-73463251D01*
X110273333Y-73538252D01*
X110306667Y-73609085D01*
X110406667Y-72821584D02*
X110373333Y-72884085D01*
X110340000Y-72913251D01*
X110273333Y-72938252D01*
X110240000Y-72934085D01*
X110173333Y-72892418D01*
X110140000Y-72854918D01*
X110106667Y-72784084D01*
X110106667Y-72650751D01*
X110140000Y-72588251D01*
X110173333Y-72559085D01*
X110240000Y-72534085D01*
X110273333Y-72538252D01*
X110340000Y-72579918D01*
X110373333Y-72617418D01*
X110406667Y-72688251D01*
X110406667Y-72821584D01*
X110440000Y-72892418D01*
X110473333Y-72929918D01*
X110540000Y-72971585D01*
X110673333Y-72988252D01*
X110740000Y-72963251D01*
X110773333Y-72934085D01*
X110806667Y-72871584D01*
X110806667Y-72738251D01*
X110773333Y-72667418D01*
X110740000Y-72629918D01*
X110673333Y-72588252D01*
X110540000Y-72571585D01*
X110473333Y-72596585D01*
X110440000Y-72625751D01*
X110406667Y-72688251D01*
D13*
X118810000Y-122781190D02*
X118476666Y-122543095D01*
X118238571Y-122781190D02*
X118238571Y-122281190D01*
X118619524Y-122281190D01*
X118714762Y-122305000D01*
X118762381Y-122328810D01*
X118810000Y-122376429D01*
X118810000Y-122447857D01*
X118762381Y-122495476D01*
X118714762Y-122519286D01*
X118619524Y-122543095D01*
X118238571Y-122543095D01*
X119238571Y-122519286D02*
X119571905Y-122519286D01*
X119714762Y-122781190D02*
X119238571Y-122781190D01*
X119238571Y-122281190D01*
X119714762Y-122281190D01*
X120000476Y-122281190D02*
X120571905Y-122281190D01*
X120286190Y-122781190D02*
X120286190Y-122281190D01*
X121476667Y-122781190D02*
X121143333Y-122543095D01*
X120905238Y-122781190D02*
X120905238Y-122281190D01*
X121286191Y-122281190D01*
X121381429Y-122305000D01*
X121429048Y-122328810D01*
X121476667Y-122376429D01*
X121476667Y-122447857D01*
X121429048Y-122495476D01*
X121381429Y-122519286D01*
X121286191Y-122543095D01*
X120905238Y-122543095D01*
X122095714Y-122281190D02*
X122286191Y-122281190D01*
X122381429Y-122305000D01*
X122476667Y-122352619D01*
X122524286Y-122447857D01*
X122524286Y-122614524D01*
X122476667Y-122709762D01*
X122381429Y-122757381D01*
X122286191Y-122781190D01*
X122095714Y-122781190D01*
X122000476Y-122757381D01*
X121905238Y-122709762D01*
X121857619Y-122614524D01*
X121857619Y-122447857D01*
X121905238Y-122352619D01*
X122000476Y-122305000D01*
X122095714Y-122281190D01*
X123286191Y-122519286D02*
X123429048Y-122543095D01*
X123476667Y-122566905D01*
X123524286Y-122614524D01*
X123524286Y-122685952D01*
X123476667Y-122733571D01*
X123429048Y-122757381D01*
X123333810Y-122781190D01*
X122952857Y-122781190D01*
X122952857Y-122281190D01*
X123286191Y-122281190D01*
X123381429Y-122305000D01*
X123429048Y-122328810D01*
X123476667Y-122376429D01*
X123476667Y-122424048D01*
X123429048Y-122471667D01*
X123381429Y-122495476D01*
X123286191Y-122519286D01*
X122952857Y-122519286D01*
X123952857Y-122781190D02*
X123952857Y-122281190D01*
X124286190Y-122281190D02*
X124857619Y-122281190D01*
X124571904Y-122781190D02*
X124571904Y-122281190D01*
X125667143Y-122781190D02*
X125190952Y-122781190D01*
X125190952Y-122281190D01*
X125952857Y-122638333D02*
X126429048Y-122638333D01*
X125857619Y-122781190D02*
X126190952Y-122281190D01*
X126524286Y-122781190D01*
X127190953Y-122519286D02*
X127333810Y-122543095D01*
X127381429Y-122566905D01*
X127429048Y-122614524D01*
X127429048Y-122685952D01*
X127381429Y-122733571D01*
X127333810Y-122757381D01*
X127238572Y-122781190D01*
X126857619Y-122781190D01*
X126857619Y-122281190D01*
X127190953Y-122281190D01*
X127286191Y-122305000D01*
X127333810Y-122328810D01*
X127381429Y-122376429D01*
X127381429Y-122424048D01*
X127333810Y-122471667D01*
X127286191Y-122495476D01*
X127190953Y-122519286D01*
X126857619Y-122519286D01*
X128571905Y-122638333D02*
X129048096Y-122638333D01*
X128476667Y-122781190D02*
X128810000Y-122281190D01*
X129143334Y-122781190D01*
X129476667Y-122781190D02*
X129476667Y-122281190D01*
X129810001Y-122638333D01*
X130143334Y-122281190D01*
X130143334Y-122781190D01*
X130619524Y-122781190D02*
X130619524Y-122281190D01*
X131619524Y-122305000D02*
X131524286Y-122281190D01*
X131381429Y-122281190D01*
X131238571Y-122305000D01*
X131143333Y-122352619D01*
X131095714Y-122400238D01*
X131048095Y-122495476D01*
X131048095Y-122566905D01*
X131095714Y-122662143D01*
X131143333Y-122709762D01*
X131238571Y-122757381D01*
X131381429Y-122781190D01*
X131476667Y-122781190D01*
X131619524Y-122757381D01*
X131667143Y-122733571D01*
X131667143Y-122566905D01*
X131476667Y-122566905D01*
X132048095Y-122638333D02*
X132524286Y-122638333D01*
X131952857Y-122781190D02*
X132286190Y-122281190D01*
X132619524Y-122781190D01*
X133714762Y-122281190D02*
X133714762Y-122685952D01*
X133762381Y-122733571D01*
X133810000Y-122757381D01*
X133905238Y-122781190D01*
X134095715Y-122781190D01*
X134190953Y-122757381D01*
X134238572Y-122733571D01*
X134286191Y-122685952D01*
X134286191Y-122281190D01*
X134714762Y-122757381D02*
X134857619Y-122781190D01*
X135095715Y-122781190D01*
X135190953Y-122757381D01*
X135238572Y-122733571D01*
X135286191Y-122685952D01*
X135286191Y-122638333D01*
X135238572Y-122590714D01*
X135190953Y-122566905D01*
X135095715Y-122543095D01*
X134905238Y-122519286D01*
X134810000Y-122495476D01*
X134762381Y-122471667D01*
X134714762Y-122424048D01*
X134714762Y-122376429D01*
X134762381Y-122328810D01*
X134810000Y-122305000D01*
X134905238Y-122281190D01*
X135143334Y-122281190D01*
X135286191Y-122305000D01*
X136048096Y-122519286D02*
X136190953Y-122543095D01*
X136238572Y-122566905D01*
X136286191Y-122614524D01*
X136286191Y-122685952D01*
X136238572Y-122733571D01*
X136190953Y-122757381D01*
X136095715Y-122781190D01*
X135714762Y-122781190D01*
X135714762Y-122281190D01*
X136048096Y-122281190D01*
X136143334Y-122305000D01*
X136190953Y-122328810D01*
X136238572Y-122376429D01*
X136238572Y-122424048D01*
X136190953Y-122471667D01*
X136143334Y-122495476D01*
X136048096Y-122519286D01*
X135714762Y-122519286D01*
X137429048Y-122638333D02*
X137905239Y-122638333D01*
X137333810Y-122781190D02*
X137667143Y-122281190D01*
X138000477Y-122781190D01*
X138333810Y-122781190D02*
X138333810Y-122281190D01*
X138571905Y-122281190D01*
X138714763Y-122305000D01*
X138810001Y-122352619D01*
X138857620Y-122400238D01*
X138905239Y-122495476D01*
X138905239Y-122566905D01*
X138857620Y-122662143D01*
X138810001Y-122709762D01*
X138714763Y-122757381D01*
X138571905Y-122781190D01*
X138333810Y-122781190D01*
X139286191Y-122638333D02*
X139762382Y-122638333D01*
X139190953Y-122781190D02*
X139524286Y-122281190D01*
X139857620Y-122781190D01*
X140190953Y-122781190D02*
X140190953Y-122281190D01*
X140571906Y-122281190D01*
X140667144Y-122305000D01*
X140714763Y-122328810D01*
X140762382Y-122376429D01*
X140762382Y-122447857D01*
X140714763Y-122495476D01*
X140667144Y-122519286D01*
X140571906Y-122543095D01*
X140190953Y-122543095D01*
X141048096Y-122281190D02*
X141619525Y-122281190D01*
X141333810Y-122781190D02*
X141333810Y-122281190D01*
X141952858Y-122519286D02*
X142286192Y-122519286D01*
X142429049Y-122781190D02*
X141952858Y-122781190D01*
X141952858Y-122281190D01*
X142429049Y-122281190D01*
X143429049Y-122781190D02*
X143095715Y-122543095D01*
X142857620Y-122781190D02*
X142857620Y-122281190D01*
X143238573Y-122281190D01*
X143333811Y-122305000D01*
X143381430Y-122328810D01*
X143429049Y-122376429D01*
X143429049Y-122447857D01*
X143381430Y-122495476D01*
X143333811Y-122519286D01*
X143238573Y-122543095D01*
X142857620Y-122543095D01*
D14*
X111676571Y-98698571D02*
X110962286Y-99198571D01*
X111676571Y-99555714D02*
X110176571Y-99555714D01*
X110176571Y-98984286D01*
X110248000Y-98841428D01*
X110319429Y-98770000D01*
X110462286Y-98698571D01*
X110676571Y-98698571D01*
X110819429Y-98770000D01*
X110890857Y-98841428D01*
X110962286Y-98984286D01*
X110962286Y-99555714D01*
X110890857Y-98055714D02*
X110890857Y-97555714D01*
X111676571Y-97341428D02*
X111676571Y-98055714D01*
X110176571Y-98055714D01*
X110176571Y-97341428D01*
X111605143Y-96770000D02*
X111676571Y-96555714D01*
X111676571Y-96198571D01*
X111605143Y-96055714D01*
X111533714Y-95984285D01*
X111390857Y-95912857D01*
X111248000Y-95912857D01*
X111105143Y-95984285D01*
X111033714Y-96055714D01*
X110962286Y-96198571D01*
X110890857Y-96484285D01*
X110819429Y-96627143D01*
X110748000Y-96698571D01*
X110605143Y-96770000D01*
X110462286Y-96770000D01*
X110319429Y-96698571D01*
X110248000Y-96627143D01*
X110176571Y-96484285D01*
X110176571Y-96127143D01*
X110248000Y-95912857D01*
X110890857Y-95270000D02*
X110890857Y-94770000D01*
X111676571Y-94555714D02*
X111676571Y-95270000D01*
X110176571Y-95270000D01*
X110176571Y-94555714D01*
X110176571Y-94127143D02*
X110176571Y-93270000D01*
X111676571Y-93698571D02*
X110176571Y-93698571D01*
X117518571Y-120688571D02*
X116018571Y-120688571D01*
X117090000Y-120188571D01*
X116018571Y-119688571D01*
X117518571Y-119688571D01*
X117518571Y-118974285D02*
X116018571Y-118974285D01*
X116018571Y-118402857D01*
X116090000Y-118259999D01*
X116161429Y-118188571D01*
X116304286Y-118117142D01*
X116518571Y-118117142D01*
X116661429Y-118188571D01*
X116732857Y-118259999D01*
X116804286Y-118402857D01*
X116804286Y-118974285D01*
X116018571Y-117474285D02*
X117232857Y-117474285D01*
X117375714Y-117402857D01*
X117447143Y-117331428D01*
X117518571Y-117188571D01*
X117518571Y-116902857D01*
X117447143Y-116759999D01*
X117375714Y-116688571D01*
X117232857Y-116617142D01*
X116018571Y-116617142D01*
X117518571Y-114759999D02*
X116018571Y-114759999D01*
X117518571Y-113902856D02*
X116661429Y-114545713D01*
X116018571Y-113902856D02*
X116875714Y-114759999D01*
X116732857Y-113259999D02*
X116732857Y-112759999D01*
X117518571Y-112545713D02*
X117518571Y-113259999D01*
X116018571Y-113259999D01*
X116018571Y-112545713D01*
X116804286Y-111617142D02*
X117518571Y-111617142D01*
X116018571Y-112117142D02*
X116804286Y-111617142D01*
X116018571Y-111117142D01*
X116732857Y-110117142D02*
X116804286Y-109902856D01*
X116875714Y-109831428D01*
X117018571Y-109759999D01*
X117232857Y-109759999D01*
X117375714Y-109831428D01*
X117447143Y-109902856D01*
X117518571Y-110045714D01*
X117518571Y-110617142D01*
X116018571Y-110617142D01*
X116018571Y-110117142D01*
X116090000Y-109974285D01*
X116161429Y-109902856D01*
X116304286Y-109831428D01*
X116447143Y-109831428D01*
X116590000Y-109902856D01*
X116661429Y-109974285D01*
X116732857Y-110117142D01*
X116732857Y-110617142D01*
X116018571Y-108831428D02*
X116018571Y-108545714D01*
X116090000Y-108402856D01*
X116232857Y-108259999D01*
X116518571Y-108188571D01*
X117018571Y-108188571D01*
X117304286Y-108259999D01*
X117447143Y-108402856D01*
X117518571Y-108545714D01*
X117518571Y-108831428D01*
X117447143Y-108974285D01*
X117304286Y-109117142D01*
X117018571Y-109188571D01*
X116518571Y-109188571D01*
X116232857Y-109117142D01*
X116090000Y-108974285D01*
X116018571Y-108831428D01*
X117090000Y-107617142D02*
X117090000Y-106902856D01*
X117518571Y-107759999D02*
X116018571Y-107259999D01*
X117518571Y-106759999D01*
X117518571Y-105402856D02*
X116804286Y-105902856D01*
X117518571Y-106259999D02*
X116018571Y-106259999D01*
X116018571Y-105688571D01*
X116090000Y-105545713D01*
X116161429Y-105474285D01*
X116304286Y-105402856D01*
X116518571Y-105402856D01*
X116661429Y-105474285D01*
X116732857Y-105545713D01*
X116804286Y-105688571D01*
X116804286Y-106259999D01*
X117518571Y-104759999D02*
X116018571Y-104759999D01*
X116018571Y-104402856D01*
X116090000Y-104188571D01*
X116232857Y-104045713D01*
X116375714Y-103974285D01*
X116661429Y-103902856D01*
X116875714Y-103902856D01*
X117161429Y-103974285D01*
X117304286Y-104045713D01*
X117447143Y-104188571D01*
X117518571Y-104402856D01*
X117518571Y-104759999D01*
D15*
X117825333Y-81208571D02*
X117592000Y-81208571D01*
X117592000Y-81732381D02*
X117592000Y-80732381D01*
X117925333Y-80732381D01*
X118092000Y-80732381D02*
X118492000Y-80732381D01*
X118292000Y-81732381D02*
X118292000Y-80732381D01*
X118725333Y-81732381D02*
X118725333Y-80732381D01*
X118891999Y-80732381D01*
X118991999Y-80780000D01*
X119058666Y-80875238D01*
X119091999Y-80970476D01*
X119125333Y-81160952D01*
X119125333Y-81303810D01*
X119091999Y-81494286D01*
X119058666Y-81589524D01*
X118991999Y-81684762D01*
X118891999Y-81732381D01*
X118725333Y-81732381D01*
X119425333Y-81732381D02*
X119425333Y-80732381D01*
X119725332Y-80827619D02*
X119758666Y-80780000D01*
X119825332Y-80732381D01*
X119991999Y-80732381D01*
X120058666Y-80780000D01*
X120091999Y-80827619D01*
X120125332Y-80922857D01*
X120125332Y-81018095D01*
X120091999Y-81160952D01*
X119691999Y-81732381D01*
X120125332Y-81732381D01*
X120358666Y-80732381D02*
X120791999Y-80732381D01*
X120558666Y-81113333D01*
X120658666Y-81113333D01*
X120725333Y-81160952D01*
X120758666Y-81208571D01*
X120791999Y-81303810D01*
X120791999Y-81541905D01*
X120758666Y-81637143D01*
X120725333Y-81684762D01*
X120658666Y-81732381D01*
X120458666Y-81732381D01*
X120391999Y-81684762D01*
X120358666Y-81637143D01*
X121058666Y-80827619D02*
X121092000Y-80780000D01*
X121158666Y-80732381D01*
X121325333Y-80732381D01*
X121392000Y-80780000D01*
X121425333Y-80827619D01*
X121458666Y-80922857D01*
X121458666Y-81018095D01*
X121425333Y-81160952D01*
X121025333Y-81732381D01*
X121458666Y-81732381D01*
X122158667Y-81732381D02*
X121925333Y-81256190D01*
X121758667Y-81732381D02*
X121758667Y-80732381D01*
X122025333Y-80732381D01*
X122092000Y-80780000D01*
X122125333Y-80827619D01*
X122158667Y-80922857D01*
X122158667Y-81065714D01*
X122125333Y-81160952D01*
X122092000Y-81208571D01*
X122025333Y-81256190D01*
X121758667Y-81256190D01*
X122792000Y-81732381D02*
X122458667Y-81732381D01*
X122458667Y-80732381D01*
D10*
X124079048Y-85832190D02*
X124364762Y-85832190D01*
X124221905Y-86332190D02*
X124221905Y-85832190D01*
X124483810Y-85832190D02*
X124817143Y-86332190D01*
X124817143Y-85832190D02*
X124483810Y-86332190D01*
X121836667Y-86332190D02*
X121670000Y-86094095D01*
X121550953Y-86332190D02*
X121550953Y-85832190D01*
X121741429Y-85832190D01*
X121789048Y-85856000D01*
X121812857Y-85879810D01*
X121836667Y-85927429D01*
X121836667Y-85998857D01*
X121812857Y-86046476D01*
X121789048Y-86070286D01*
X121741429Y-86094095D01*
X121550953Y-86094095D01*
X122003334Y-85832190D02*
X122336667Y-86332190D01*
X122336667Y-85832190D02*
X122003334Y-86332190D01*
X118999047Y-85856000D02*
X118951428Y-85832190D01*
X118880000Y-85832190D01*
X118808571Y-85856000D01*
X118760952Y-85903619D01*
X118737143Y-85951238D01*
X118713333Y-86046476D01*
X118713333Y-86117905D01*
X118737143Y-86213143D01*
X118760952Y-86260762D01*
X118808571Y-86308381D01*
X118880000Y-86332190D01*
X118927619Y-86332190D01*
X118999047Y-86308381D01*
X119022857Y-86284571D01*
X119022857Y-86117905D01*
X118927619Y-86117905D01*
X119237143Y-86332190D02*
X119237143Y-85832190D01*
X119522857Y-86332190D01*
X119522857Y-85832190D01*
X119760953Y-86332190D02*
X119760953Y-85832190D01*
X119880000Y-85832190D01*
X119951429Y-85856000D01*
X119999048Y-85903619D01*
X120022857Y-85951238D01*
X120046667Y-86046476D01*
X120046667Y-86117905D01*
X120022857Y-86213143D01*
X119999048Y-86260762D01*
X119951429Y-86308381D01*
X119880000Y-86332190D01*
X119760953Y-86332190D01*
D16*
X117031238Y-78259143D02*
X117083619Y-78044857D01*
X117083619Y-77687714D01*
X117031238Y-77544857D01*
X116978857Y-77473428D01*
X116874095Y-77402000D01*
X116769333Y-77402000D01*
X116664571Y-77473428D01*
X116612190Y-77544857D01*
X116559810Y-77687714D01*
X116507429Y-77973428D01*
X116455048Y-78116286D01*
X116402667Y-78187714D01*
X116297905Y-78259143D01*
X116193143Y-78259143D01*
X116088381Y-78187714D01*
X116036000Y-78116286D01*
X115983619Y-77973428D01*
X115983619Y-77616286D01*
X116036000Y-77402000D01*
X115983619Y-76973429D02*
X115983619Y-76116286D01*
X117083619Y-76544857D02*
X115983619Y-76544857D01*
X117083619Y-74902000D02*
X117083619Y-75616286D01*
X115983619Y-75616286D01*
X117083619Y-74402000D02*
X116350286Y-74402000D01*
X115983619Y-74402000D02*
X116036000Y-74473429D01*
X116088381Y-74402000D01*
X116036000Y-74330572D01*
X115983619Y-74402000D01*
X116088381Y-74402000D01*
X116350286Y-73687714D02*
X117083619Y-73687714D01*
X116455048Y-73687714D02*
X116402667Y-73616286D01*
X116350286Y-73473428D01*
X116350286Y-73259143D01*
X116402667Y-73116286D01*
X116507429Y-73044857D01*
X117083619Y-73044857D01*
X117083619Y-72330571D02*
X115983619Y-72330571D01*
X116664571Y-72187714D02*
X117083619Y-71759143D01*
X116350286Y-71759143D02*
X116769333Y-72330571D01*
X116350286Y-70116285D02*
X117083619Y-69759142D01*
X116350286Y-69402000D01*
X116088381Y-68902000D02*
X116036000Y-68830571D01*
X115983619Y-68687714D01*
X115983619Y-68330571D01*
X116036000Y-68187714D01*
X116088381Y-68116285D01*
X116193143Y-68044857D01*
X116297905Y-68044857D01*
X116455048Y-68116285D01*
X117083619Y-68973428D01*
X117083619Y-68044857D01*
D10*
X126726190Y-79359046D02*
X126726190Y-79049523D01*
X126916667Y-79216189D01*
X126916667Y-79144761D01*
X126940476Y-79097142D01*
X126964286Y-79073332D01*
X127011905Y-79049523D01*
X127130952Y-79049523D01*
X127178571Y-79073332D01*
X127202381Y-79097142D01*
X127226190Y-79144761D01*
X127226190Y-79287618D01*
X127202381Y-79335237D01*
X127178571Y-79359046D01*
X126726190Y-78906666D02*
X127226190Y-78739999D01*
X126726190Y-78573333D01*
X126726190Y-78454285D02*
X126726190Y-78144762D01*
X126916667Y-78311428D01*
X126916667Y-78240000D01*
X126940476Y-78192381D01*
X126964286Y-78168571D01*
X127011905Y-78144762D01*
X127130952Y-78144762D01*
X127178571Y-78168571D01*
X127202381Y-78192381D01*
X127226190Y-78240000D01*
X127226190Y-78382857D01*
X127202381Y-78430476D01*
X127178571Y-78454285D01*
X124662381Y-80628952D02*
X124686190Y-80557523D01*
X124686190Y-80438476D01*
X124662381Y-80390857D01*
X124638571Y-80367047D01*
X124590952Y-80343238D01*
X124543333Y-80343238D01*
X124495714Y-80367047D01*
X124471905Y-80390857D01*
X124448095Y-80438476D01*
X124424286Y-80533714D01*
X124400476Y-80581333D01*
X124376667Y-80605142D01*
X124329048Y-80628952D01*
X124281429Y-80628952D01*
X124233810Y-80605142D01*
X124210000Y-80581333D01*
X124186190Y-80533714D01*
X124186190Y-80414666D01*
X124210000Y-80343238D01*
X124186190Y-80176571D02*
X124686190Y-80057524D01*
X124329048Y-79962286D01*
X124686190Y-79867048D01*
X124186190Y-79748000D01*
X124686190Y-79557523D02*
X124186190Y-79557523D01*
X124186190Y-79438476D01*
X124210000Y-79367047D01*
X124257619Y-79319428D01*
X124305238Y-79295619D01*
X124400476Y-79271809D01*
X124471905Y-79271809D01*
X124567143Y-79295619D01*
X124614762Y-79319428D01*
X124662381Y-79367047D01*
X124686190Y-79438476D01*
X124686190Y-79557523D01*
X124638571Y-78771809D02*
X124662381Y-78795619D01*
X124686190Y-78867047D01*
X124686190Y-78914666D01*
X124662381Y-78986095D01*
X124614762Y-79033714D01*
X124567143Y-79057523D01*
X124471905Y-79081333D01*
X124400476Y-79081333D01*
X124305238Y-79057523D01*
X124257619Y-79033714D01*
X124210000Y-78986095D01*
X124186190Y-78914666D01*
X124186190Y-78867047D01*
X124210000Y-78795619D01*
X124233810Y-78771809D01*
X124686190Y-78319428D02*
X124686190Y-78557523D01*
X124186190Y-78557523D01*
X124686190Y-78152761D02*
X124186190Y-78152761D01*
X124686190Y-77867047D02*
X124400476Y-78081333D01*
X124186190Y-77867047D02*
X124471905Y-78152761D01*
X122122381Y-80053524D02*
X122146190Y-79982095D01*
X122146190Y-79863048D01*
X122122381Y-79815429D01*
X122098571Y-79791619D01*
X122050952Y-79767810D01*
X122003333Y-79767810D01*
X121955714Y-79791619D01*
X121931905Y-79815429D01*
X121908095Y-79863048D01*
X121884286Y-79958286D01*
X121860476Y-80005905D01*
X121836667Y-80029714D01*
X121789048Y-80053524D01*
X121741429Y-80053524D01*
X121693810Y-80029714D01*
X121670000Y-80005905D01*
X121646190Y-79958286D01*
X121646190Y-79839238D01*
X121670000Y-79767810D01*
X121646190Y-79601143D02*
X122146190Y-79482096D01*
X121789048Y-79386858D01*
X122146190Y-79291620D01*
X121646190Y-79172572D01*
X122146190Y-78982095D02*
X121646190Y-78982095D01*
X121646190Y-78863048D01*
X121670000Y-78791619D01*
X121717619Y-78744000D01*
X121765238Y-78720191D01*
X121860476Y-78696381D01*
X121931905Y-78696381D01*
X122027143Y-78720191D01*
X122074762Y-78744000D01*
X122122381Y-78791619D01*
X122146190Y-78863048D01*
X122146190Y-78982095D01*
X122146190Y-78482095D02*
X121646190Y-78482095D01*
X121646190Y-78148762D02*
X121646190Y-78053524D01*
X121670000Y-78005905D01*
X121717619Y-77958286D01*
X121812857Y-77934477D01*
X121979524Y-77934477D01*
X122074762Y-77958286D01*
X122122381Y-78005905D01*
X122146190Y-78053524D01*
X122146190Y-78148762D01*
X122122381Y-78196381D01*
X122074762Y-78244000D01*
X121979524Y-78267810D01*
X121812857Y-78267810D01*
X121717619Y-78244000D01*
X121670000Y-78196381D01*
X121646190Y-78148762D01*
X119130000Y-79120953D02*
X119106190Y-79168572D01*
X119106190Y-79240000D01*
X119130000Y-79311429D01*
X119177619Y-79359048D01*
X119225238Y-79382857D01*
X119320476Y-79406667D01*
X119391905Y-79406667D01*
X119487143Y-79382857D01*
X119534762Y-79359048D01*
X119582381Y-79311429D01*
X119606190Y-79240000D01*
X119606190Y-79192381D01*
X119582381Y-79120953D01*
X119558571Y-79097143D01*
X119391905Y-79097143D01*
X119391905Y-79192381D01*
X119606190Y-78882857D02*
X119106190Y-78882857D01*
X119606190Y-78597143D01*
X119106190Y-78597143D01*
X119606190Y-78359047D02*
X119106190Y-78359047D01*
X119106190Y-78240000D01*
X119130000Y-78168571D01*
X119177619Y-78120952D01*
X119225238Y-78097143D01*
X119320476Y-78073333D01*
X119391905Y-78073333D01*
X119487143Y-78097143D01*
X119534762Y-78120952D01*
X119582381Y-78168571D01*
X119606190Y-78240000D01*
X119606190Y-78359047D01*
D11*
X137160000Y-71120000D02*
X137160000Y-71628000D01*
X134620000Y-71120000D02*
X137160000Y-71120000D01*
X134620000Y-71628000D02*
X134620000Y-71120000D01*
X134620000Y-76200000D02*
X134620000Y-75692000D01*
X132080000Y-76200000D02*
X134620000Y-76200000D01*
X132080000Y-75692000D02*
X132080000Y-76200000D01*
X131294572Y-69524571D02*
X131437429Y-69572190D01*
X131485048Y-69619810D01*
X131532667Y-69715048D01*
X131532667Y-69857905D01*
X131485048Y-69953143D01*
X131437429Y-70000762D01*
X131342191Y-70048381D01*
X130961238Y-70048381D01*
X130961238Y-69048381D01*
X131294572Y-69048381D01*
X131389810Y-69096000D01*
X131437429Y-69143619D01*
X131485048Y-69238857D01*
X131485048Y-69334095D01*
X131437429Y-69429333D01*
X131389810Y-69476952D01*
X131294572Y-69524571D01*
X130961238Y-69524571D01*
X132151714Y-69048381D02*
X132342191Y-69048381D01*
X132437429Y-69096000D01*
X132532667Y-69191238D01*
X132580286Y-69381714D01*
X132580286Y-69715048D01*
X132532667Y-69905524D01*
X132437429Y-70000762D01*
X132342191Y-70048381D01*
X132151714Y-70048381D01*
X132056476Y-70000762D01*
X131961238Y-69905524D01*
X131913619Y-69715048D01*
X131913619Y-69381714D01*
X131961238Y-69191238D01*
X132056476Y-69096000D01*
X132151714Y-69048381D01*
X133199333Y-69048381D02*
X133389810Y-69048381D01*
X133485048Y-69096000D01*
X133580286Y-69191238D01*
X133627905Y-69381714D01*
X133627905Y-69715048D01*
X133580286Y-69905524D01*
X133485048Y-70000762D01*
X133389810Y-70048381D01*
X133199333Y-70048381D01*
X133104095Y-70000762D01*
X133008857Y-69905524D01*
X132961238Y-69715048D01*
X132961238Y-69381714D01*
X133008857Y-69191238D01*
X133104095Y-69096000D01*
X133199333Y-69048381D01*
X133913619Y-69048381D02*
X134485048Y-69048381D01*
X134199333Y-70048381D02*
X134199333Y-69048381D01*
X135532667Y-70000762D02*
X135675524Y-70048381D01*
X135913620Y-70048381D01*
X136008858Y-70000762D01*
X136056477Y-69953143D01*
X136104096Y-69857905D01*
X136104096Y-69762667D01*
X136056477Y-69667429D01*
X136008858Y-69619810D01*
X135913620Y-69572190D01*
X135723143Y-69524571D01*
X135627905Y-69476952D01*
X135580286Y-69429333D01*
X135532667Y-69334095D01*
X135532667Y-69238857D01*
X135580286Y-69143619D01*
X135627905Y-69096000D01*
X135723143Y-69048381D01*
X135961239Y-69048381D01*
X136104096Y-69096000D01*
X136532667Y-69524571D02*
X136866001Y-69524571D01*
X137008858Y-70048381D02*
X136532667Y-70048381D01*
X136532667Y-69048381D01*
X137008858Y-69048381D01*
X137913620Y-70048381D02*
X137437429Y-70048381D01*
X137437429Y-69048381D01*
D12*
X131800667Y-83690667D02*
X132200667Y-83690667D01*
X132000667Y-84390667D02*
X132000667Y-83690667D01*
X132400666Y-83757333D02*
X132434000Y-83724000D01*
X132500666Y-83690667D01*
X132667333Y-83690667D01*
X132734000Y-83724000D01*
X132767333Y-83757333D01*
X132800666Y-83824000D01*
X132800666Y-83890667D01*
X132767333Y-83990667D01*
X132367333Y-84390667D01*
X132800666Y-84390667D01*
X131800667Y-80896667D02*
X132200667Y-80896667D01*
X132000667Y-81596667D02*
X132000667Y-80896667D01*
X132800666Y-81596667D02*
X132400666Y-81596667D01*
X132600666Y-81596667D02*
X132600666Y-80896667D01*
X132534000Y-80996667D01*
X132467333Y-81063333D01*
X132400666Y-81096667D01*
D14*
X132731429Y-117518571D02*
X132331429Y-116804286D01*
X132045714Y-117518571D02*
X132045714Y-116018571D01*
X132502857Y-116018571D01*
X132617143Y-116090000D01*
X132674286Y-116161429D01*
X132731429Y-116304286D01*
X132731429Y-116518571D01*
X132674286Y-116661429D01*
X132617143Y-116732857D01*
X132502857Y-116804286D01*
X132045714Y-116804286D01*
X133645714Y-116732857D02*
X133817143Y-116804286D01*
X133874286Y-116875714D01*
X133931429Y-117018571D01*
X133931429Y-117232857D01*
X133874286Y-117375714D01*
X133817143Y-117447143D01*
X133702857Y-117518571D01*
X133245714Y-117518571D01*
X133245714Y-116018571D01*
X133645714Y-116018571D01*
X133760000Y-116090000D01*
X133817143Y-116161429D01*
X133874286Y-116304286D01*
X133874286Y-116447143D01*
X133817143Y-116590000D01*
X133760000Y-116661429D01*
X133645714Y-116732857D01*
X133245714Y-116732857D01*
X135017143Y-117518571D02*
X134445714Y-117518571D01*
X134445714Y-116018571D01*
X135645715Y-116018571D02*
X135760000Y-116018571D01*
X135874286Y-116090000D01*
X135931429Y-116161429D01*
X135988572Y-116304286D01*
X136045715Y-116590000D01*
X136045715Y-116947143D01*
X135988572Y-117232857D01*
X135931429Y-117375714D01*
X135874286Y-117447143D01*
X135760000Y-117518571D01*
X135645715Y-117518571D01*
X135531429Y-117447143D01*
X135474286Y-117375714D01*
X135417143Y-117232857D01*
X135360000Y-116947143D01*
X135360000Y-116590000D01*
X135417143Y-116304286D01*
X135474286Y-116161429D01*
X135531429Y-116090000D01*
X135645715Y-116018571D01*
X136788572Y-116018571D02*
X136902857Y-116018571D01*
X137017143Y-116090000D01*
X137074286Y-116161429D01*
X137131429Y-116304286D01*
X137188572Y-116590000D01*
X137188572Y-116947143D01*
X137131429Y-117232857D01*
X137074286Y-117375714D01*
X137017143Y-117447143D01*
X136902857Y-117518571D01*
X136788572Y-117518571D01*
X136674286Y-117447143D01*
X136617143Y-117375714D01*
X136560000Y-117232857D01*
X136502857Y-116947143D01*
X136502857Y-116590000D01*
X136560000Y-116304286D01*
X136617143Y-116161429D01*
X136674286Y-116090000D01*
X136788572Y-116018571D01*
X138217143Y-116518571D02*
X138217143Y-117518571D01*
X137931429Y-115947143D02*
X137645714Y-117018571D01*
X138388572Y-117018571D01*
X138845714Y-117375714D02*
X138902857Y-117447143D01*
X138845714Y-117518571D01*
X138788571Y-117447143D01*
X138845714Y-117375714D01*
X138845714Y-117518571D01*
X139645715Y-116018571D02*
X139760000Y-116018571D01*
X139874286Y-116090000D01*
X139931429Y-116161429D01*
X139988572Y-116304286D01*
X140045715Y-116590000D01*
X140045715Y-116947143D01*
X139988572Y-117232857D01*
X139931429Y-117375714D01*
X139874286Y-117447143D01*
X139760000Y-117518571D01*
X139645715Y-117518571D01*
X139531429Y-117447143D01*
X139474286Y-117375714D01*
X139417143Y-117232857D01*
X139360000Y-116947143D01*
X139360000Y-116590000D01*
X139417143Y-116304286D01*
X139474286Y-116161429D01*
X139531429Y-116090000D01*
X139645715Y-116018571D01*
X140788572Y-116018571D02*
X140902857Y-116018571D01*
X141017143Y-116090000D01*
X141074286Y-116161429D01*
X141131429Y-116304286D01*
X141188572Y-116590000D01*
X141188572Y-116947143D01*
X141131429Y-117232857D01*
X141074286Y-117375714D01*
X141017143Y-117447143D01*
X140902857Y-117518571D01*
X140788572Y-117518571D01*
X140674286Y-117447143D01*
X140617143Y-117375714D01*
X140560000Y-117232857D01*
X140502857Y-116947143D01*
X140502857Y-116590000D01*
X140560000Y-116304286D01*
X140617143Y-116161429D01*
X140674286Y-116090000D01*
X140788572Y-116018571D01*
X142331429Y-117518571D02*
X141645714Y-117518571D01*
X141988572Y-117518571D02*
X141988572Y-116018571D01*
X141874286Y-116232857D01*
X141760000Y-116375714D01*
X141645714Y-116447143D01*
D17*
X177102095Y-76652381D02*
X177102095Y-75652381D01*
X177483048Y-75652381D01*
X177578286Y-75700000D01*
X177625905Y-75747619D01*
X177673524Y-75842857D01*
X177673524Y-75985714D01*
X177625905Y-76080952D01*
X177578286Y-76128571D01*
X177483048Y-76176190D01*
X177102095Y-76176190D01*
X178292571Y-75652381D02*
X178483048Y-75652381D01*
X178578286Y-75700000D01*
X178673524Y-75795238D01*
X178721143Y-75985714D01*
X178721143Y-76319048D01*
X178673524Y-76509524D01*
X178578286Y-76604762D01*
X178483048Y-76652381D01*
X178292571Y-76652381D01*
X178197333Y-76604762D01*
X178102095Y-76509524D01*
X178054476Y-76319048D01*
X178054476Y-75985714D01*
X178102095Y-75795238D01*
X178197333Y-75700000D01*
X178292571Y-75652381D01*
X179054476Y-75652381D02*
X179292571Y-76652381D01*
X179483048Y-75938095D01*
X179673524Y-76652381D01*
X179911619Y-75652381D01*
X180292571Y-76128571D02*
X180625905Y-76128571D01*
X180768762Y-76652381D02*
X180292571Y-76652381D01*
X180292571Y-75652381D01*
X180768762Y-75652381D01*
X181768762Y-76652381D02*
X181435428Y-76176190D01*
X181197333Y-76652381D02*
X181197333Y-75652381D01*
X181578286Y-75652381D01*
X181673524Y-75700000D01*
X181721143Y-75747619D01*
X181768762Y-75842857D01*
X181768762Y-75985714D01*
X181721143Y-76080952D01*
X181673524Y-76128571D01*
X181578286Y-76176190D01*
X181197333Y-76176190D01*
X183530667Y-76557143D02*
X183483048Y-76604762D01*
X183340191Y-76652381D01*
X183244953Y-76652381D01*
X183102095Y-76604762D01*
X183006857Y-76509524D01*
X182959238Y-76414286D01*
X182911619Y-76223810D01*
X182911619Y-76080952D01*
X182959238Y-75890476D01*
X183006857Y-75795238D01*
X183102095Y-75700000D01*
X183244953Y-75652381D01*
X183340191Y-75652381D01*
X183483048Y-75700000D01*
X183530667Y-75747619D01*
X184149714Y-75652381D02*
X184340191Y-75652381D01*
X184435429Y-75700000D01*
X184530667Y-75795238D01*
X184578286Y-75985714D01*
X184578286Y-76319048D01*
X184530667Y-76509524D01*
X184435429Y-76604762D01*
X184340191Y-76652381D01*
X184149714Y-76652381D01*
X184054476Y-76604762D01*
X183959238Y-76509524D01*
X183911619Y-76319048D01*
X183911619Y-75985714D01*
X183959238Y-75795238D01*
X184054476Y-75700000D01*
X184149714Y-75652381D01*
X185006857Y-76652381D02*
X185006857Y-75652381D01*
X185578286Y-76652381D01*
X185578286Y-75652381D01*
X186054476Y-76652381D02*
X186054476Y-75652381D01*
X186625905Y-76652381D01*
X186625905Y-75652381D01*
X172886667Y-115410476D02*
X172886667Y-114934285D01*
X173172381Y-115505714D02*
X172172381Y-115172381D01*
X173172381Y-114839047D01*
X173172381Y-114505714D02*
X172172381Y-114505714D01*
X172886667Y-114172380D01*
X172172381Y-113839047D01*
X173172381Y-113839047D01*
X173172381Y-113362857D02*
X172172381Y-113362857D01*
X172220000Y-112362857D02*
X172172381Y-112458095D01*
X172172381Y-112600952D01*
X172220000Y-112743810D01*
X172315238Y-112839048D01*
X172410476Y-112886667D01*
X172600952Y-112934286D01*
X172743810Y-112934286D01*
X172934286Y-112886667D01*
X173029524Y-112839048D01*
X173124762Y-112743810D01*
X173172381Y-112600952D01*
X173172381Y-112505714D01*
X173124762Y-112362857D01*
X173077143Y-112315238D01*
X172743810Y-112315238D01*
X172743810Y-112505714D01*
X172886667Y-111934286D02*
X172886667Y-111458095D01*
X173172381Y-112029524D02*
X172172381Y-111696191D01*
X173172381Y-111362857D01*
X173172381Y-110267619D02*
X172172381Y-110267619D01*
X173172381Y-109696190D02*
X172600952Y-110124762D01*
X172172381Y-109696190D02*
X172743810Y-110267619D01*
X172648571Y-109267619D02*
X172648571Y-108934285D01*
X173172381Y-108791428D02*
X173172381Y-109267619D01*
X172172381Y-109267619D01*
X172172381Y-108791428D01*
X172696190Y-108172381D02*
X173172381Y-108172381D01*
X172172381Y-108505714D02*
X172696190Y-108172381D01*
X172172381Y-107839047D01*
X172648571Y-107172380D02*
X172696190Y-107029523D01*
X172743810Y-106981904D01*
X172839048Y-106934285D01*
X172981905Y-106934285D01*
X173077143Y-106981904D01*
X173124762Y-107029523D01*
X173172381Y-107124761D01*
X173172381Y-107505714D01*
X172172381Y-107505714D01*
X172172381Y-107172380D01*
X172220000Y-107077142D01*
X172267619Y-107029523D01*
X172362857Y-106981904D01*
X172458095Y-106981904D01*
X172553333Y-107029523D01*
X172600952Y-107077142D01*
X172648571Y-107172380D01*
X172648571Y-107505714D01*
X172172381Y-106315238D02*
X172172381Y-106124761D01*
X172220000Y-106029523D01*
X172315238Y-105934285D01*
X172505714Y-105886666D01*
X172839048Y-105886666D01*
X173029524Y-105934285D01*
X173124762Y-106029523D01*
X173172381Y-106124761D01*
X173172381Y-106315238D01*
X173124762Y-106410476D01*
X173029524Y-106505714D01*
X172839048Y-106553333D01*
X172505714Y-106553333D01*
X172315238Y-106505714D01*
X172220000Y-106410476D01*
X172172381Y-106315238D01*
X172886667Y-105505714D02*
X172886667Y-105029523D01*
X173172381Y-105600952D02*
X172172381Y-105267619D01*
X173172381Y-104934285D01*
X173172381Y-104029523D02*
X172696190Y-104362857D01*
X173172381Y-104600952D02*
X172172381Y-104600952D01*
X172172381Y-104219999D01*
X172220000Y-104124761D01*
X172267619Y-104077142D01*
X172362857Y-104029523D01*
X172505714Y-104029523D01*
X172600952Y-104077142D01*
X172648571Y-104124761D01*
X172696190Y-104219999D01*
X172696190Y-104600952D01*
X173172381Y-103600952D02*
X172172381Y-103600952D01*
X172172381Y-103362857D01*
X172220000Y-103219999D01*
X172315238Y-103124761D01*
X172410476Y-103077142D01*
X172600952Y-103029523D01*
X172743810Y-103029523D01*
X172934286Y-103077142D01*
X173029524Y-103124761D01*
X173124762Y-103219999D01*
X173172381Y-103362857D01*
X173172381Y-103600952D01*
X171656952Y-122086667D02*
X172133143Y-122086667D01*
X171561714Y-122372381D02*
X171895047Y-121372381D01*
X172228381Y-122372381D01*
X172561714Y-122372381D02*
X172561714Y-121372381D01*
X172895048Y-122086667D01*
X173228381Y-121372381D01*
X173228381Y-122372381D01*
X173704571Y-122372381D02*
X173704571Y-121372381D01*
X174704571Y-121420000D02*
X174609333Y-121372381D01*
X174466476Y-121372381D01*
X174323618Y-121420000D01*
X174228380Y-121515238D01*
X174180761Y-121610476D01*
X174133142Y-121800952D01*
X174133142Y-121943810D01*
X174180761Y-122134286D01*
X174228380Y-122229524D01*
X174323618Y-122324762D01*
X174466476Y-122372381D01*
X174561714Y-122372381D01*
X174704571Y-122324762D01*
X174752190Y-122277143D01*
X174752190Y-121943810D01*
X174561714Y-121943810D01*
X175133142Y-122086667D02*
X175609333Y-122086667D01*
X175037904Y-122372381D02*
X175371237Y-121372381D01*
X175704571Y-122372381D01*
X177371238Y-122372381D02*
X177037904Y-121896190D01*
X176799809Y-122372381D02*
X176799809Y-121372381D01*
X177180762Y-121372381D01*
X177276000Y-121420000D01*
X177323619Y-121467619D01*
X177371238Y-121562857D01*
X177371238Y-121705714D01*
X177323619Y-121800952D01*
X177276000Y-121848571D01*
X177180762Y-121896190D01*
X176799809Y-121896190D01*
X177799809Y-121848571D02*
X178133143Y-121848571D01*
X178276000Y-122372381D02*
X177799809Y-122372381D01*
X177799809Y-121372381D01*
X178276000Y-121372381D01*
X178656952Y-122324762D02*
X178799809Y-122372381D01*
X179037905Y-122372381D01*
X179133143Y-122324762D01*
X179180762Y-122277143D01*
X179228381Y-122181905D01*
X179228381Y-122086667D01*
X179180762Y-121991429D01*
X179133143Y-121943810D01*
X179037905Y-121896190D01*
X178847428Y-121848571D01*
X178752190Y-121800952D01*
X178704571Y-121753333D01*
X178656952Y-121658095D01*
X178656952Y-121562857D01*
X178704571Y-121467619D01*
X178752190Y-121420000D01*
X178847428Y-121372381D01*
X179085524Y-121372381D01*
X179228381Y-121420000D01*
X179656952Y-121848571D02*
X179990286Y-121848571D01*
X180133143Y-122372381D02*
X179656952Y-122372381D01*
X179656952Y-121372381D01*
X180133143Y-121372381D01*
X180418857Y-121372381D02*
X180990286Y-121372381D01*
X180704571Y-122372381D02*
X180704571Y-121372381D01*
D12*
X157099000Y-83820000D02*
X156337000Y-83820000D01*
X156718000Y-83439000D02*
X156718000Y-84201000D01*
X156972000Y-86106000D02*
X153162000Y-86106000D01*
X157734000Y-82296000D02*
X157734000Y-85344000D01*
X156972000Y-86106000D02*
X157734000Y-85344000D01*
X156972000Y-81534000D02*
X153162000Y-81534000D01*
X156972000Y-81534000D02*
X157734000Y-82296000D01*
X153416000Y-83947000D02*
X153416000Y-83693000D01*
X153543000Y-83185000D02*
X153543000Y-84455000D01*
X153670000Y-84709000D02*
X153670000Y-82931000D01*
X153797000Y-84963000D02*
X153797000Y-82677000D01*
X153924000Y-82550000D02*
X153924000Y-85090000D01*
X154051000Y-85217000D02*
X154051000Y-82423000D01*
X154178000Y-82296000D02*
X154178000Y-85344000D01*
X154305000Y-82169000D02*
X154305000Y-85471000D01*
X153162000Y-81534000D02*
X153162000Y-86106000D01*
X157480000Y-83820000D02*
G75*
G03X157480000Y-83820000I-2032000J0D01*
G01*
X140589000Y-83820000D02*
X141351000Y-83820000D01*
X140970000Y-84201000D02*
X140970000Y-83439000D01*
X140716000Y-81534000D02*
X144526000Y-81534000D01*
X139954000Y-85344000D02*
X139954000Y-82296000D01*
X140716000Y-81534000D02*
X139954000Y-82296000D01*
X140716000Y-86106000D02*
X144526000Y-86106000D01*
X140716000Y-86106000D02*
X139954000Y-85344000D01*
X144272000Y-83693000D02*
X144272000Y-83947000D01*
X144145000Y-84455000D02*
X144145000Y-83185000D01*
X144018000Y-82931000D02*
X144018000Y-84709000D01*
X143891000Y-82677000D02*
X143891000Y-84963000D01*
X143764000Y-85090000D02*
X143764000Y-82550000D01*
X143637000Y-82423000D02*
X143637000Y-85217000D01*
X143510000Y-85344000D02*
X143510000Y-82296000D01*
X143383000Y-85471000D02*
X143383000Y-82169000D01*
X144526000Y-86106000D02*
X144526000Y-81534000D01*
X144272000Y-83820000D02*
G75*
G03X144272000Y-83820000I-2032000J0D01*
G01*
X142541445Y-93980000D02*
X143301585Y-94740140D01*
X149860000Y-86661445D02*
X150620140Y-87421585D01*
X157178555Y-93980000D02*
X156418415Y-93219860D01*
X149860000Y-101298555D02*
X149099860Y-100538415D01*
X142541445Y-93980000D02*
X143301585Y-93219860D01*
X149860000Y-101298555D02*
X150620140Y-100538415D01*
X157178555Y-93980000D02*
X156418415Y-94740140D01*
X149860000Y-86661445D02*
X149099860Y-87421585D01*
X143301585Y-94740140D02*
X142576800Y-95464924D01*
X115316000Y-120650000D02*
G75*
G03X115316000Y-120650000I-2286000J0D01*
G01*
X186436000Y-120650000D02*
G75*
G03X186436000Y-120650000I-2286000J0D01*
G01*
X186436000Y-69850000D02*
G75*
G03X186436000Y-69850000I-2286000J0D01*
G01*
X115316000Y-69850000D02*
G75*
G03X115316000Y-69850000I-2286000J0D01*
G01*
X171196000Y-72136000D02*
X171196000Y-69088000D01*
X171196000Y-69088000D02*
X164084000Y-69088000D01*
X164084000Y-69088000D02*
X164084000Y-72136000D01*
X171196000Y-75184000D02*
X171196000Y-75946000D01*
X171196000Y-75946000D02*
X169672000Y-78232000D01*
X169672000Y-78232000D02*
X165608000Y-78232000D01*
X165608000Y-78232000D02*
X164084000Y-75946000D01*
X164084000Y-75946000D02*
X164084000Y-75184000D01*
X137130840Y-109870240D02*
X137179100Y-109870240D01*
X139929820Y-109169200D02*
X139929820Y-109870240D01*
X139929820Y-109870240D02*
X139680900Y-109870240D01*
X137130840Y-109870240D02*
X136930180Y-109870240D01*
X136930180Y-109870240D02*
X136930180Y-109169200D01*
X149068840Y-107838240D02*
X149117100Y-107838240D01*
X151867820Y-107137200D02*
X151867820Y-107838240D01*
X151867820Y-107838240D02*
X151618900Y-107838240D01*
X149068840Y-107838240D02*
X148868180Y-107838240D01*
X148868180Y-107838240D02*
X148868180Y-107137200D01*
X160244840Y-109870240D02*
X160293100Y-109870240D01*
X163043820Y-109169200D02*
X163043820Y-109870240D01*
X163043820Y-109870240D02*
X162794900Y-109870240D01*
X160244840Y-109870240D02*
X160044180Y-109870240D01*
X160044180Y-109870240D02*
X160044180Y-109169200D01*
X169291000Y-91440000D02*
X168529000Y-91440000D01*
X168910000Y-91059000D02*
X168910000Y-91821000D01*
X169164000Y-93726000D02*
X165354000Y-93726000D01*
X169926000Y-89916000D02*
X169926000Y-92964000D01*
X169164000Y-93726000D02*
X169926000Y-92964000D01*
X169164000Y-89154000D02*
X165354000Y-89154000D01*
X169164000Y-89154000D02*
X169926000Y-89916000D01*
X165608000Y-91567000D02*
X165608000Y-91313000D01*
X165735000Y-90805000D02*
X165735000Y-92075000D01*
X165862000Y-92329000D02*
X165862000Y-90551000D01*
X165989000Y-92583000D02*
X165989000Y-90297000D01*
X166116000Y-90170000D02*
X166116000Y-92710000D01*
X166243000Y-92837000D02*
X166243000Y-90043000D01*
X166370000Y-89916000D02*
X166370000Y-92964000D01*
X166497000Y-89789000D02*
X166497000Y-93091000D01*
X165354000Y-89154000D02*
X165354000Y-93726000D01*
X169672000Y-91440000D02*
G75*
G03X169672000Y-91440000I-2032000J0D01*
G01*
X146050000Y-110524000D02*
X157250000Y-110524000D01*
X157250000Y-128524000D02*
X157250000Y-110524000D01*
X146050000Y-128524000D02*
X146050000Y-110524000D01*
X146050000Y-128524000D02*
X157250000Y-128524000D01*
X162526000Y-77606000D02*
X162526000Y-81206000D01*
X164626000Y-77606000D02*
X164626000Y-81206000D01*
X163876000Y-79656000D02*
X163276000Y-79656000D01*
X163276000Y-79656000D02*
X163576000Y-79356000D01*
X163576000Y-79356000D02*
X163776000Y-79556000D01*
X163776000Y-79556000D02*
X163526000Y-79556000D01*
X163526000Y-79556000D02*
X163576000Y-79506000D01*
X164076000Y-79256000D02*
X163076000Y-79256000D01*
X163576000Y-79756000D02*
X163576000Y-80256000D01*
X163576000Y-79256000D02*
X164076000Y-79756000D01*
X164076000Y-79756000D02*
X163076000Y-79756000D01*
X163076000Y-79756000D02*
X163576000Y-79256000D01*
X142866000Y-87850000D02*
X139266000Y-87850000D01*
X142866000Y-89950000D02*
X139266000Y-89950000D01*
X140816000Y-89200000D02*
X140816000Y-88600000D01*
X140816000Y-88600000D02*
X141116000Y-88900000D01*
X141116000Y-88900000D02*
X140916000Y-89100000D01*
X140916000Y-89100000D02*
X140916000Y-88850000D01*
X140916000Y-88850000D02*
X140966000Y-88900000D01*
X141216000Y-89400000D02*
X141216000Y-88400000D01*
X140716000Y-88900000D02*
X140216000Y-88900000D01*
X141216000Y-88900000D02*
X140716000Y-89400000D01*
X140716000Y-89400000D02*
X140716000Y-88400000D01*
X140716000Y-88400000D02*
X141216000Y-88900000D01*
X179206000Y-92490000D02*
X182806000Y-92490000D01*
X179206000Y-90390000D02*
X182806000Y-90390000D01*
X181256000Y-91140000D02*
X181256000Y-91740000D01*
X181256000Y-91740000D02*
X180956000Y-91440000D01*
X180956000Y-91440000D02*
X181156000Y-91240000D01*
X181156000Y-91240000D02*
X181156000Y-91490000D01*
X181156000Y-91490000D02*
X181106000Y-91440000D01*
X180856000Y-90940000D02*
X180856000Y-91940000D01*
X181356000Y-91440000D02*
X181856000Y-91440000D01*
X180856000Y-91440000D02*
X181356000Y-90940000D01*
X181356000Y-90940000D02*
X181356000Y-91940000D01*
X181356000Y-91940000D02*
X180856000Y-91440000D01*
X121530000Y-87850000D02*
X117930000Y-87850000D01*
X121530000Y-89950000D02*
X117930000Y-89950000D01*
X119480000Y-89200000D02*
X119480000Y-88600000D01*
X119480000Y-88600000D02*
X119780000Y-88900000D01*
X119780000Y-88900000D02*
X119580000Y-89100000D01*
X119580000Y-89100000D02*
X119580000Y-88850000D01*
X119580000Y-88850000D02*
X119630000Y-88900000D01*
X119880000Y-89400000D02*
X119880000Y-88400000D01*
X119380000Y-88900000D02*
X118880000Y-88900000D01*
X119880000Y-88900000D02*
X119380000Y-89400000D01*
X119380000Y-89400000D02*
X119380000Y-88400000D01*
X119380000Y-88400000D02*
X119880000Y-88900000D01*
X159453000Y-80248000D02*
X159453000Y-78248000D01*
X161603000Y-78248000D02*
X161603000Y-80248000D01*
X135620000Y-89975000D02*
X133620000Y-89975000D01*
X133620000Y-87825000D02*
X135620000Y-87825000D01*
X125290000Y-94980000D02*
X125290000Y-92980000D01*
X127440000Y-92980000D02*
X127440000Y-94980000D01*
X145780000Y-105723000D02*
X143780000Y-105723000D01*
X143780000Y-103573000D02*
X145780000Y-103573000D01*
X156956000Y-105215000D02*
X154956000Y-105215000D01*
X154956000Y-103065000D02*
X156956000Y-103065000D01*
X176260000Y-92515000D02*
X174260000Y-92515000D01*
X174260000Y-90365000D02*
X176260000Y-90365000D01*
X162195000Y-103065000D02*
X164195000Y-103065000D01*
X164195000Y-105215000D02*
X162195000Y-105215000D01*
X164533000Y-110220000D02*
X164533000Y-108220000D01*
X166683000Y-108220000D02*
X166683000Y-110220000D01*
X145780000Y-110295000D02*
X143780000Y-110295000D01*
X143780000Y-108145000D02*
X145780000Y-108145000D01*
X154956000Y-107129000D02*
X156956000Y-107129000D01*
X156956000Y-109279000D02*
X154956000Y-109279000D01*
X135695000Y-108220000D02*
X135695000Y-110220000D01*
X133545000Y-110220000D02*
X133545000Y-108220000D01*
X136795000Y-103065000D02*
X138795000Y-103065000D01*
X138795000Y-105215000D02*
X136795000Y-105215000D01*
X126984000Y-89975000D02*
X124984000Y-89975000D01*
X124984000Y-87825000D02*
X126984000Y-87825000D01*
X141350140Y-79885120D02*
X141350140Y-65788120D01*
X156336140Y-65788120D02*
X156336140Y-79885120D01*
X141350140Y-79885120D02*
X156336140Y-79885120D01*
X141350140Y-65788120D02*
X156336140Y-65788120D01*
D18*
X130558000Y-96535000D02*
X136958000Y-96535000D01*
X130558000Y-101585000D02*
X136958000Y-101585000D01*
X130558000Y-101585000D02*
G75*
G02X130558000Y-96535000I0J2525000D01*
G01*
X136958000Y-101585000D02*
G75*
G03X136958000Y-96535000I0J2525000D01*
G01*
D12*
X161528000Y-86859000D02*
X159528000Y-86859000D01*
X159528000Y-88909000D02*
X161528000Y-88909000D01*
X161535000Y-98060000D02*
X161535000Y-100060000D01*
X163585000Y-100060000D02*
X163585000Y-98060000D01*
X158995000Y-98060000D02*
X158995000Y-100060000D01*
X161045000Y-100060000D02*
X161045000Y-98060000D01*
X161528000Y-89399000D02*
X159528000Y-89399000D01*
X159528000Y-91449000D02*
X161528000Y-91449000D01*
X144256000Y-100575000D02*
X142256000Y-100575000D01*
X142256000Y-102625000D02*
X144256000Y-102625000D01*
X137652000Y-91939000D02*
X135652000Y-91939000D01*
X135652000Y-93989000D02*
X137652000Y-93989000D01*
X117830000Y-77500000D02*
X119380000Y-77500000D01*
X117830000Y-76200000D02*
X117830000Y-77500000D01*
X119253000Y-72009000D02*
X119253000Y-66167000D01*
X119253000Y-66167000D02*
X119507000Y-66167000D01*
X119507000Y-66167000D02*
X119507000Y-72009000D01*
X119507000Y-72009000D02*
X119380000Y-72009000D01*
X119380000Y-72009000D02*
X119380000Y-66167000D01*
X119126000Y-74676000D02*
X119126000Y-75057000D01*
X119634000Y-74676000D02*
X119634000Y-75057000D01*
X121666000Y-74676000D02*
X121666000Y-75057000D01*
X122174000Y-74676000D02*
X122174000Y-75057000D01*
X124206000Y-74676000D02*
X124206000Y-75057000D01*
X124714000Y-74676000D02*
X124714000Y-75057000D01*
X127254000Y-74676000D02*
X127254000Y-75057000D01*
X126746000Y-74676000D02*
X126746000Y-75057000D01*
X118110000Y-74676000D02*
X118110000Y-72136000D01*
X120650000Y-74676000D02*
X120650000Y-72136000D01*
X120650000Y-74676000D02*
X123190000Y-74676000D01*
X123190000Y-74676000D02*
X123190000Y-72136000D01*
X121666000Y-72136000D02*
X121666000Y-66040000D01*
X121666000Y-66040000D02*
X122174000Y-66040000D01*
X122174000Y-66040000D02*
X122174000Y-72136000D01*
X123190000Y-72136000D02*
X120650000Y-72136000D01*
X120650000Y-72136000D02*
X118110000Y-72136000D01*
X119634000Y-66040000D02*
X119634000Y-72136000D01*
X119126000Y-66040000D02*
X119634000Y-66040000D01*
X119126000Y-72136000D02*
X119126000Y-66040000D01*
X120650000Y-74676000D02*
X120650000Y-72136000D01*
X118110000Y-74676000D02*
X120650000Y-74676000D01*
X125730000Y-74676000D02*
X125730000Y-72136000D01*
X125730000Y-74676000D02*
X128270000Y-74676000D01*
X128270000Y-74676000D02*
X128270000Y-72136000D01*
X126746000Y-72136000D02*
X126746000Y-66040000D01*
X126746000Y-66040000D02*
X127254000Y-66040000D01*
X127254000Y-66040000D02*
X127254000Y-72136000D01*
X128270000Y-72136000D02*
X125730000Y-72136000D01*
X125730000Y-72136000D02*
X123190000Y-72136000D01*
X124714000Y-66040000D02*
X124714000Y-72136000D01*
X124206000Y-66040000D02*
X124714000Y-66040000D01*
X124206000Y-72136000D02*
X124206000Y-66040000D01*
X125730000Y-74676000D02*
X125730000Y-72136000D01*
X123190000Y-74676000D02*
X125730000Y-74676000D01*
X123190000Y-74676000D02*
X123190000Y-72136000D01*
X120650000Y-85090000D02*
X125730000Y-85090000D01*
X125730000Y-85090000D02*
X125730000Y-82550000D01*
X125730000Y-82550000D02*
X120650000Y-82550000D01*
X117830000Y-82270000D02*
X119380000Y-82270000D01*
X120650000Y-82550000D02*
X120650000Y-85090000D01*
X119380000Y-85370000D02*
X117830000Y-85370000D01*
X117830000Y-85370000D02*
X117830000Y-82270000D01*
X128270000Y-82550000D02*
X128270000Y-80010000D01*
X127990000Y-85370000D02*
X127990000Y-83820000D01*
X128270000Y-82550000D02*
X130810000Y-82550000D01*
X131090000Y-83820000D02*
X131090000Y-85370000D01*
X131090000Y-85370000D02*
X127990000Y-85370000D01*
X130810000Y-82550000D02*
X130810000Y-80010000D01*
X130810000Y-80010000D02*
X128270000Y-80010000D01*
X135890000Y-72390000D02*
X130810000Y-72390000D01*
X130810000Y-72390000D02*
X130810000Y-74930000D01*
X130810000Y-74930000D02*
X135890000Y-74930000D01*
X138710000Y-75210000D02*
X137160000Y-75210000D01*
X135890000Y-74930000D02*
X135890000Y-72390000D01*
X137160000Y-72110000D02*
X138710000Y-72110000D01*
X138710000Y-72110000D02*
X138710000Y-75210000D01*
D18*
X112490000Y-99580000D02*
X112490000Y-93460000D01*
X112490000Y-93460000D02*
X116110000Y-93460000D01*
X116110000Y-93460000D02*
X116110000Y-99580000D01*
X116110000Y-99580000D02*
X112490000Y-99580000D01*
D12*
X162560000Y-72390000D02*
X162560000Y-74930000D01*
X162840000Y-69570000D02*
X162840000Y-71120000D01*
X162560000Y-72390000D02*
X160020000Y-72390000D01*
X159740000Y-71120000D02*
X159740000Y-69570000D01*
X159740000Y-69570000D02*
X162840000Y-69570000D01*
X160020000Y-72390000D02*
X160020000Y-74930000D01*
X160020000Y-74930000D02*
X162560000Y-74930000D01*
X167640000Y-81788000D02*
X168656000Y-81788000D01*
X168656000Y-81788000D02*
X170942000Y-82804000D01*
X170942000Y-82804000D02*
X170942000Y-85852000D01*
X170942000Y-85852000D02*
X168656000Y-86868000D01*
X168656000Y-86868000D02*
X166624000Y-86868000D01*
X166624000Y-86868000D02*
X164338000Y-85852000D01*
X164338000Y-85852000D02*
X164338000Y-82804000D01*
X164338000Y-82804000D02*
X166624000Y-81788000D01*
X166624000Y-81788000D02*
X167640000Y-81788000D01*
X170180000Y-84328000D02*
G75*
G03X170180000Y-84328000I-2540000J0D01*
G01*
X177800000Y-71120000D02*
X177800000Y-72136000D01*
X177800000Y-72136000D02*
X176784000Y-74422000D01*
X176784000Y-74422000D02*
X173736000Y-74422000D01*
X173736000Y-74422000D02*
X172720000Y-72136000D01*
X172720000Y-72136000D02*
X172720000Y-70104000D01*
X172720000Y-70104000D02*
X173736000Y-67818000D01*
X173736000Y-67818000D02*
X176784000Y-67818000D01*
X176784000Y-67818000D02*
X177800000Y-70104000D01*
X177800000Y-70104000D02*
X177800000Y-71120000D01*
X177800000Y-71120000D02*
G75*
G03X177800000Y-71120000I-2540000J0D01*
G01*
X173960000Y-77190000D02*
X173960000Y-78740000D01*
X175260000Y-77190000D02*
X173960000Y-77190000D01*
X179451000Y-78613000D02*
X185293000Y-78613000D01*
X185293000Y-78613000D02*
X185293000Y-78867000D01*
X185293000Y-78867000D02*
X179451000Y-78867000D01*
X179451000Y-78867000D02*
X179451000Y-78740000D01*
X179451000Y-78740000D02*
X185293000Y-78740000D01*
X176784000Y-78486000D02*
X176403000Y-78486000D01*
X176784000Y-78994000D02*
X176403000Y-78994000D01*
X176784000Y-81026000D02*
X176403000Y-81026000D01*
X176784000Y-81534000D02*
X176403000Y-81534000D01*
X176784000Y-83566000D02*
X176403000Y-83566000D01*
X176784000Y-84074000D02*
X176403000Y-84074000D01*
X176784000Y-86614000D02*
X176403000Y-86614000D01*
X176784000Y-86106000D02*
X176403000Y-86106000D01*
X176784000Y-77470000D02*
X179324000Y-77470000D01*
X176784000Y-80010000D02*
X179324000Y-80010000D01*
X176784000Y-80010000D02*
X176784000Y-82550000D01*
X176784000Y-82550000D02*
X179324000Y-82550000D01*
X179324000Y-81026000D02*
X185420000Y-81026000D01*
X185420000Y-81026000D02*
X185420000Y-81534000D01*
X185420000Y-81534000D02*
X179324000Y-81534000D01*
X179324000Y-82550000D02*
X179324000Y-80010000D01*
X179324000Y-80010000D02*
X179324000Y-77470000D01*
X185420000Y-78994000D02*
X179324000Y-78994000D01*
X185420000Y-78486000D02*
X185420000Y-78994000D01*
X179324000Y-78486000D02*
X185420000Y-78486000D01*
X176784000Y-80010000D02*
X179324000Y-80010000D01*
X176784000Y-77470000D02*
X176784000Y-80010000D01*
X176784000Y-85090000D02*
X179324000Y-85090000D01*
X176784000Y-85090000D02*
X176784000Y-87630000D01*
X176784000Y-87630000D02*
X179324000Y-87630000D01*
X179324000Y-86106000D02*
X185420000Y-86106000D01*
X185420000Y-86106000D02*
X185420000Y-86614000D01*
X185420000Y-86614000D02*
X179324000Y-86614000D01*
X179324000Y-87630000D02*
X179324000Y-85090000D01*
X179324000Y-85090000D02*
X179324000Y-82550000D01*
X185420000Y-84074000D02*
X179324000Y-84074000D01*
X185420000Y-83566000D02*
X185420000Y-84074000D01*
X179324000Y-83566000D02*
X185420000Y-83566000D01*
X176784000Y-85090000D02*
X179324000Y-85090000D01*
X176784000Y-82550000D02*
X176784000Y-85090000D01*
X176784000Y-82550000D02*
X179324000Y-82550000D01*
X173960000Y-102590000D02*
X173960000Y-104140000D01*
X175260000Y-102590000D02*
X173960000Y-102590000D01*
X179451000Y-104013000D02*
X185293000Y-104013000D01*
X185293000Y-104013000D02*
X185293000Y-104267000D01*
X185293000Y-104267000D02*
X179451000Y-104267000D01*
X179451000Y-104267000D02*
X179451000Y-104140000D01*
X179451000Y-104140000D02*
X185293000Y-104140000D01*
X176784000Y-103886000D02*
X176403000Y-103886000D01*
X176784000Y-104394000D02*
X176403000Y-104394000D01*
X176784000Y-106426000D02*
X176403000Y-106426000D01*
X176784000Y-106934000D02*
X176403000Y-106934000D01*
X176784000Y-108966000D02*
X176403000Y-108966000D01*
X176784000Y-109474000D02*
X176403000Y-109474000D01*
X176784000Y-111506000D02*
X176403000Y-111506000D01*
X176784000Y-112014000D02*
X176403000Y-112014000D01*
X176784000Y-114554000D02*
X176403000Y-114554000D01*
X176784000Y-114046000D02*
X176403000Y-114046000D01*
X179324000Y-105410000D02*
X179324000Y-102870000D01*
X185420000Y-104394000D02*
X179324000Y-104394000D01*
X185420000Y-103886000D02*
X185420000Y-104394000D01*
X179324000Y-103886000D02*
X185420000Y-103886000D01*
X176784000Y-105410000D02*
X179324000Y-105410000D01*
X176784000Y-102870000D02*
X176784000Y-105410000D01*
X176784000Y-102870000D02*
X179324000Y-102870000D01*
X176784000Y-107950000D02*
X179324000Y-107950000D01*
X176784000Y-107950000D02*
X176784000Y-110490000D01*
X176784000Y-110490000D02*
X179324000Y-110490000D01*
X179324000Y-108966000D02*
X185420000Y-108966000D01*
X185420000Y-108966000D02*
X185420000Y-109474000D01*
X185420000Y-109474000D02*
X179324000Y-109474000D01*
X179324000Y-110490000D02*
X179324000Y-107950000D01*
X179324000Y-107950000D02*
X179324000Y-105410000D01*
X185420000Y-106934000D02*
X179324000Y-106934000D01*
X185420000Y-106426000D02*
X185420000Y-106934000D01*
X179324000Y-106426000D02*
X185420000Y-106426000D01*
X176784000Y-107950000D02*
X179324000Y-107950000D01*
X176784000Y-105410000D02*
X176784000Y-107950000D01*
X176784000Y-105410000D02*
X179324000Y-105410000D01*
X176784000Y-113030000D02*
X179324000Y-113030000D01*
X176784000Y-113030000D02*
X176784000Y-115570000D01*
X176784000Y-115570000D02*
X179324000Y-115570000D01*
X179324000Y-114046000D02*
X185420000Y-114046000D01*
X185420000Y-114046000D02*
X185420000Y-114554000D01*
X185420000Y-114554000D02*
X179324000Y-114554000D01*
X179324000Y-115570000D02*
X179324000Y-113030000D01*
X179324000Y-113030000D02*
X179324000Y-110490000D01*
X185420000Y-112014000D02*
X179324000Y-112014000D01*
X185420000Y-111506000D02*
X185420000Y-112014000D01*
X179324000Y-111506000D02*
X185420000Y-111506000D01*
X176784000Y-113030000D02*
X179324000Y-113030000D01*
X176784000Y-110490000D02*
X176784000Y-113030000D01*
X176784000Y-110490000D02*
X179324000Y-110490000D01*
X176530000Y-118110000D02*
X179070000Y-118110000D01*
X173710000Y-117830000D02*
X175260000Y-117830000D01*
X176530000Y-118110000D02*
X176530000Y-120650000D01*
X175260000Y-120930000D02*
X173710000Y-120930000D01*
X173710000Y-120930000D02*
X173710000Y-117830000D01*
X176530000Y-120650000D02*
X179070000Y-120650000D01*
X179070000Y-120650000D02*
X179070000Y-118110000D01*
X120650000Y-95250000D02*
X120650000Y-92710000D01*
X120370000Y-98070000D02*
X120370000Y-96520000D01*
X120650000Y-95250000D02*
X123190000Y-95250000D01*
X123470000Y-96520000D02*
X123470000Y-98070000D01*
X123470000Y-98070000D02*
X120370000Y-98070000D01*
X123190000Y-95250000D02*
X123190000Y-92710000D01*
X123190000Y-92710000D02*
X120650000Y-92710000D01*
D18*
X127865000Y-103870000D02*
X127865000Y-119650000D01*
X127865000Y-119650000D02*
X118515000Y-119650000D01*
X118515000Y-119650000D02*
X118515000Y-103870000D01*
X118515000Y-103870000D02*
X127865000Y-103870000D01*
X118265000Y-103620000D02*
X118265000Y-106160000D01*
X118265000Y-103620000D02*
X120805000Y-103620000D01*
D19*
G36*
X161518600Y-114964054D02*
X161529465Y-115077993D01*
X161561082Y-115185616D01*
X161611985Y-115284615D01*
X161680707Y-115372684D01*
X161765781Y-115447516D01*
X161862768Y-115505384D01*
X161969036Y-115545005D01*
X162076050Y-115563573D01*
X162181700Y-115562434D01*
X162283875Y-115542930D01*
X162380466Y-115506406D01*
X162469362Y-115454205D01*
X162548454Y-115387673D01*
X162615631Y-115308152D01*
X162668783Y-115216987D01*
X162705801Y-115115523D01*
X162724573Y-115005102D01*
X162726511Y-114955206D01*
X162726511Y-114867267D01*
X162778440Y-114867267D01*
X162814747Y-114870111D01*
X162841645Y-114881911D01*
X162868751Y-114905649D01*
X162907133Y-114944031D01*
X162907133Y-117135602D01*
X162907124Y-117397739D01*
X162907092Y-117638241D01*
X162907028Y-117858048D01*
X162906924Y-118058101D01*
X162906773Y-118239344D01*
X162906566Y-118402716D01*
X162906294Y-118549160D01*
X162905950Y-118679617D01*
X162905526Y-118795029D01*
X162905013Y-118896338D01*
X162904403Y-118984484D01*
X162903688Y-119060410D01*
X162902860Y-119125057D01*
X162901911Y-119179367D01*
X162900833Y-119224280D01*
X162899617Y-119260740D01*
X162898255Y-119289687D01*
X162896739Y-119312063D01*
X162895062Y-119328809D01*
X162893214Y-119340868D01*
X162891187Y-119349180D01*
X162888975Y-119354687D01*
X162887892Y-119356537D01*
X162883729Y-119363549D01*
X162880195Y-119369996D01*
X162876365Y-119375900D01*
X162871318Y-119381286D01*
X162864129Y-119386178D01*
X162853877Y-119390598D01*
X162839636Y-119394572D01*
X162820486Y-119398121D01*
X162795501Y-119401270D01*
X162763760Y-119404042D01*
X162724338Y-119406461D01*
X162676314Y-119408551D01*
X162618763Y-119410335D01*
X162550763Y-119411837D01*
X162471390Y-119413080D01*
X162379721Y-119414089D01*
X162274834Y-119414885D01*
X162155804Y-119415494D01*
X162021710Y-119415939D01*
X161871627Y-119416243D01*
X161704633Y-119416430D01*
X161519804Y-119416524D01*
X161316217Y-119416548D01*
X161092950Y-119416525D01*
X160849078Y-119416480D01*
X160583679Y-119416437D01*
X160545296Y-119416432D01*
X160278318Y-119416389D01*
X160032998Y-119416318D01*
X159808417Y-119416213D01*
X159603655Y-119416066D01*
X159417794Y-119415869D01*
X159249912Y-119415616D01*
X159099092Y-119415300D01*
X158964413Y-119414913D01*
X158844956Y-119414447D01*
X158739801Y-119413897D01*
X158648029Y-119413253D01*
X158568721Y-119412511D01*
X158500957Y-119411661D01*
X158443818Y-119410697D01*
X158396383Y-119409611D01*
X158357734Y-119408397D01*
X158326951Y-119407047D01*
X158303115Y-119405555D01*
X158285306Y-119403911D01*
X158272605Y-119402111D01*
X158264092Y-119400145D01*
X158259734Y-119398477D01*
X158251272Y-119394906D01*
X158243503Y-119392270D01*
X158236398Y-119389634D01*
X158229927Y-119386062D01*
X158224061Y-119380621D01*
X158218771Y-119372375D01*
X158214026Y-119360390D01*
X158209798Y-119343731D01*
X158206057Y-119321463D01*
X158202773Y-119292652D01*
X158199917Y-119256363D01*
X158197460Y-119211661D01*
X158195371Y-119157611D01*
X158193622Y-119093279D01*
X158192183Y-119017730D01*
X158191024Y-118930030D01*
X158190117Y-118829243D01*
X158189431Y-118714434D01*
X158188937Y-118584670D01*
X158188605Y-118439015D01*
X158188407Y-118276535D01*
X158188313Y-118096295D01*
X158188292Y-117897360D01*
X158188315Y-117678796D01*
X158188354Y-117439668D01*
X158188378Y-117179040D01*
X158188378Y-117136889D01*
X158188364Y-116873992D01*
X158188339Y-116632732D01*
X158188329Y-116412165D01*
X158188358Y-116211352D01*
X158188452Y-116029349D01*
X158188638Y-115865216D01*
X158188941Y-115718011D01*
X158189386Y-115586792D01*
X158189966Y-115476867D01*
X158492803Y-115476867D01*
X158532593Y-115534711D01*
X158543764Y-115550479D01*
X158553834Y-115564441D01*
X158562862Y-115577784D01*
X158570903Y-115591693D01*
X158578014Y-115607356D01*
X158584253Y-115625958D01*
X158589675Y-115648686D01*
X158594338Y-115676727D01*
X158598299Y-115711267D01*
X158601615Y-115753492D01*
X158604341Y-115804589D01*
X158606536Y-115865744D01*
X158608255Y-115938144D01*
X158609556Y-116022975D01*
X158610495Y-116121422D01*
X158611130Y-116234674D01*
X158611516Y-116363916D01*
X158611712Y-116510334D01*
X158611773Y-116675116D01*
X158611757Y-116859447D01*
X158611720Y-117064513D01*
X158611711Y-117187133D01*
X158611735Y-117404082D01*
X158611769Y-117599642D01*
X158611757Y-117774999D01*
X158611642Y-117931341D01*
X158611370Y-118069857D01*
X158610882Y-118191734D01*
X158610124Y-118298160D01*
X158609038Y-118390322D01*
X158607569Y-118469409D01*
X158605660Y-118536608D01*
X158603256Y-118593107D01*
X158600299Y-118640093D01*
X158596734Y-118678755D01*
X158592505Y-118710280D01*
X158587554Y-118735855D01*
X158581827Y-118756670D01*
X158575267Y-118773911D01*
X158567817Y-118788765D01*
X158559421Y-118802422D01*
X158550024Y-118816069D01*
X158539568Y-118830893D01*
X158533477Y-118839783D01*
X158494704Y-118897400D01*
X159026268Y-118897400D01*
X159149517Y-118897365D01*
X159252013Y-118897215D01*
X159335580Y-118896878D01*
X159402044Y-118896286D01*
X159453229Y-118895367D01*
X159490959Y-118894051D01*
X159517060Y-118892269D01*
X159533356Y-118889951D01*
X159541672Y-118887026D01*
X159543832Y-118883424D01*
X159541661Y-118879075D01*
X159540465Y-118877645D01*
X159515315Y-118840573D01*
X159489417Y-118787772D01*
X159465808Y-118725770D01*
X159457539Y-118699357D01*
X159452922Y-118681416D01*
X159449021Y-118660355D01*
X159445752Y-118634089D01*
X159443034Y-118600532D01*
X159440785Y-118557599D01*
X159438923Y-118503204D01*
X159437364Y-118435262D01*
X159436028Y-118351688D01*
X159434831Y-118250395D01*
X159433692Y-118129300D01*
X159433315Y-118084600D01*
X159432298Y-117959449D01*
X159431540Y-117855082D01*
X159431097Y-117769707D01*
X159431030Y-117701533D01*
X159431395Y-117648765D01*
X159432252Y-117609614D01*
X159433659Y-117582285D01*
X159435675Y-117564986D01*
X159438357Y-117555926D01*
X159441764Y-117553312D01*
X159445956Y-117555351D01*
X159450429Y-117559667D01*
X159460784Y-117572602D01*
X159482842Y-117601676D01*
X159515043Y-117644759D01*
X159555826Y-117699718D01*
X159603630Y-117764423D01*
X159656895Y-117836742D01*
X159714060Y-117914544D01*
X159773563Y-117995698D01*
X159833845Y-118078072D01*
X159893345Y-118159536D01*
X159950502Y-118237957D01*
X160003755Y-118311204D01*
X160051543Y-118377147D01*
X160092307Y-118433654D01*
X160124484Y-118478593D01*
X160146515Y-118509834D01*
X160151083Y-118516466D01*
X160174004Y-118553369D01*
X160200812Y-118601359D01*
X160226211Y-118650897D01*
X160229432Y-118657577D01*
X160251110Y-118705772D01*
X160263696Y-118743334D01*
X160269426Y-118779160D01*
X160270544Y-118821200D01*
X160269910Y-118897400D01*
X161424349Y-118897400D01*
X161333185Y-118803669D01*
X161286388Y-118753775D01*
X161236101Y-118697295D01*
X161190056Y-118643026D01*
X161169631Y-118617673D01*
X161139193Y-118578128D01*
X161099138Y-118524916D01*
X161050639Y-118459667D01*
X160994865Y-118384011D01*
X160932989Y-118299577D01*
X160866181Y-118207994D01*
X160795613Y-118110892D01*
X160722455Y-118009901D01*
X160647879Y-117906650D01*
X160573056Y-117802768D01*
X160499157Y-117699885D01*
X160427354Y-117599631D01*
X160358816Y-117503636D01*
X160294716Y-117413527D01*
X160236225Y-117330936D01*
X160184514Y-117257492D01*
X160140753Y-117194824D01*
X160106115Y-117144561D01*
X160081770Y-117108334D01*
X160068889Y-117087771D01*
X160067131Y-117083668D01*
X160075090Y-117072342D01*
X160095885Y-117045162D01*
X160128153Y-117003829D01*
X160170530Y-116950044D01*
X160221653Y-116885506D01*
X160280159Y-116811918D01*
X160344686Y-116730978D01*
X160413869Y-116644388D01*
X160486347Y-116553848D01*
X160560754Y-116461060D01*
X160620483Y-116386702D01*
X161631489Y-116386702D01*
X161637398Y-116399659D01*
X161651728Y-116421908D01*
X161652775Y-116423391D01*
X161671562Y-116453544D01*
X161691209Y-116490375D01*
X161695108Y-116498511D01*
X161698644Y-116506940D01*
X161701770Y-116517059D01*
X161704514Y-116530260D01*
X161706908Y-116547938D01*
X161708981Y-116571484D01*
X161710765Y-116602293D01*
X161712288Y-116641757D01*
X161713581Y-116691269D01*
X161714674Y-116752223D01*
X161715597Y-116826011D01*
X161716381Y-116914028D01*
X161717055Y-117017665D01*
X161717650Y-117138316D01*
X161718195Y-117277374D01*
X161718721Y-117436232D01*
X161719255Y-117615089D01*
X161719794Y-117800207D01*
X161720228Y-117964145D01*
X161720491Y-118108303D01*
X161720516Y-118234079D01*
X161720235Y-118342871D01*
X161719581Y-118436077D01*
X161718486Y-118515097D01*
X161716882Y-118581328D01*
X161714703Y-118636170D01*
X161711881Y-118681021D01*
X161708349Y-118717278D01*
X161704039Y-118746341D01*
X161698883Y-118769609D01*
X161692815Y-118788479D01*
X161685767Y-118804351D01*
X161677671Y-118818622D01*
X161668460Y-118832691D01*
X161659960Y-118845158D01*
X161642824Y-118871452D01*
X161632678Y-118889037D01*
X161631489Y-118892257D01*
X161642396Y-118893334D01*
X161673589Y-118894335D01*
X161722777Y-118895235D01*
X161787667Y-118896010D01*
X161865970Y-118896637D01*
X161955393Y-118897091D01*
X162053644Y-118897349D01*
X162122555Y-118897400D01*
X162227548Y-118897180D01*
X162324390Y-118896548D01*
X162410893Y-118895549D01*
X162484868Y-118894227D01*
X162544126Y-118892626D01*
X162586480Y-118890791D01*
X162609740Y-118888765D01*
X162613622Y-118887493D01*
X162605924Y-118872591D01*
X162597926Y-118864560D01*
X162584754Y-118847434D01*
X162567515Y-118817183D01*
X162555593Y-118792622D01*
X162528955Y-118733711D01*
X162525880Y-117556845D01*
X162522805Y-116379978D01*
X162077147Y-116379978D01*
X161979330Y-116380142D01*
X161888936Y-116380611D01*
X161808370Y-116381347D01*
X161740038Y-116382316D01*
X161686344Y-116383480D01*
X161649695Y-116384803D01*
X161632496Y-116386249D01*
X161631489Y-116386702D01*
X160620483Y-116386702D01*
X160635730Y-116367722D01*
X160709910Y-116275537D01*
X160781931Y-116186204D01*
X160850431Y-116101424D01*
X160914045Y-116022898D01*
X160971412Y-115952326D01*
X161021167Y-115891409D01*
X161061948Y-115841847D01*
X161079112Y-115821178D01*
X161165404Y-115720516D01*
X161242003Y-115637259D01*
X161310817Y-115569438D01*
X161373752Y-115515089D01*
X161383133Y-115507722D01*
X161422644Y-115477117D01*
X160290884Y-115476867D01*
X160296173Y-115524844D01*
X160292870Y-115582188D01*
X160271339Y-115650463D01*
X160231365Y-115730212D01*
X160186057Y-115802495D01*
X160169839Y-115825140D01*
X160141786Y-115862696D01*
X160103570Y-115913021D01*
X160056863Y-115973973D01*
X160003339Y-116043411D01*
X159944669Y-116119194D01*
X159882525Y-116199180D01*
X159818579Y-116281228D01*
X159754505Y-116363196D01*
X159691973Y-116442943D01*
X159632657Y-116518327D01*
X159578229Y-116587207D01*
X159530361Y-116647442D01*
X159490725Y-116696889D01*
X159460994Y-116733408D01*
X159442839Y-116754858D01*
X159439780Y-116758156D01*
X159436921Y-116750149D01*
X159434707Y-116719855D01*
X159433143Y-116667556D01*
X159432233Y-116593531D01*
X159431980Y-116498063D01*
X159432387Y-116381434D01*
X159433296Y-116261445D01*
X159434618Y-116129333D01*
X159436143Y-116017594D01*
X159438119Y-115924025D01*
X159440794Y-115846419D01*
X159444418Y-115782574D01*
X159449239Y-115730283D01*
X159455506Y-115687344D01*
X159463468Y-115651551D01*
X159473373Y-115620700D01*
X159485469Y-115592586D01*
X159500007Y-115565005D01*
X159514689Y-115539966D01*
X159552686Y-115476867D01*
X158492803Y-115476867D01*
X158189966Y-115476867D01*
X158189999Y-115470617D01*
X158190805Y-115368544D01*
X158191830Y-115279633D01*
X158193100Y-115202941D01*
X158194640Y-115137527D01*
X158196476Y-115082449D01*
X158198633Y-115036765D01*
X158201137Y-114999534D01*
X158204013Y-114969813D01*
X158207287Y-114946662D01*
X158210985Y-114929139D01*
X158215131Y-114916301D01*
X158219753Y-114907208D01*
X158224874Y-114900918D01*
X158230522Y-114896488D01*
X158236721Y-114892978D01*
X158243496Y-114889445D01*
X158249492Y-114885876D01*
X158254725Y-114883300D01*
X158262901Y-114880972D01*
X158275114Y-114878878D01*
X158292459Y-114877007D01*
X158316031Y-114875347D01*
X158346923Y-114873884D01*
X158386232Y-114872608D01*
X158435050Y-114871504D01*
X158494473Y-114870561D01*
X158565596Y-114869767D01*
X158649512Y-114869109D01*
X158747317Y-114868575D01*
X158860106Y-114868153D01*
X158988971Y-114867829D01*
X159135009Y-114867592D01*
X159299314Y-114867430D01*
X159482980Y-114867330D01*
X159687103Y-114867280D01*
X159898247Y-114867267D01*
X161518600Y-114867267D01*
X161518600Y-114964054D01*
X161518600Y-114964054D01*
G37*
X161518600Y-114964054D02*
X161529465Y-115077993D01*
X161561082Y-115185616D01*
X161611985Y-115284615D01*
X161680707Y-115372684D01*
X161765781Y-115447516D01*
X161862768Y-115505384D01*
X161969036Y-115545005D01*
X162076050Y-115563573D01*
X162181700Y-115562434D01*
X162283875Y-115542930D01*
X162380466Y-115506406D01*
X162469362Y-115454205D01*
X162548454Y-115387673D01*
X162615631Y-115308152D01*
X162668783Y-115216987D01*
X162705801Y-115115523D01*
X162724573Y-115005102D01*
X162726511Y-114955206D01*
X162726511Y-114867267D01*
X162778440Y-114867267D01*
X162814747Y-114870111D01*
X162841645Y-114881911D01*
X162868751Y-114905649D01*
X162907133Y-114944031D01*
X162907133Y-117135602D01*
X162907124Y-117397739D01*
X162907092Y-117638241D01*
X162907028Y-117858048D01*
X162906924Y-118058101D01*
X162906773Y-118239344D01*
X162906566Y-118402716D01*
X162906294Y-118549160D01*
X162905950Y-118679617D01*
X162905526Y-118795029D01*
X162905013Y-118896338D01*
X162904403Y-118984484D01*
X162903688Y-119060410D01*
X162902860Y-119125057D01*
X162901911Y-119179367D01*
X162900833Y-119224280D01*
X162899617Y-119260740D01*
X162898255Y-119289687D01*
X162896739Y-119312063D01*
X162895062Y-119328809D01*
X162893214Y-119340868D01*
X162891187Y-119349180D01*
X162888975Y-119354687D01*
X162887892Y-119356537D01*
X162883729Y-119363549D01*
X162880195Y-119369996D01*
X162876365Y-119375900D01*
X162871318Y-119381286D01*
X162864129Y-119386178D01*
X162853877Y-119390598D01*
X162839636Y-119394572D01*
X162820486Y-119398121D01*
X162795501Y-119401270D01*
X162763760Y-119404042D01*
X162724338Y-119406461D01*
X162676314Y-119408551D01*
X162618763Y-119410335D01*
X162550763Y-119411837D01*
X162471390Y-119413080D01*
X162379721Y-119414089D01*
X162274834Y-119414885D01*
X162155804Y-119415494D01*
X162021710Y-119415939D01*
X161871627Y-119416243D01*
X161704633Y-119416430D01*
X161519804Y-119416524D01*
X161316217Y-119416548D01*
X161092950Y-119416525D01*
X160849078Y-119416480D01*
X160583679Y-119416437D01*
X160545296Y-119416432D01*
X160278318Y-119416389D01*
X160032998Y-119416318D01*
X159808417Y-119416213D01*
X159603655Y-119416066D01*
X159417794Y-119415869D01*
X159249912Y-119415616D01*
X159099092Y-119415300D01*
X158964413Y-119414913D01*
X158844956Y-119414447D01*
X158739801Y-119413897D01*
X158648029Y-119413253D01*
X158568721Y-119412511D01*
X158500957Y-119411661D01*
X158443818Y-119410697D01*
X158396383Y-119409611D01*
X158357734Y-119408397D01*
X158326951Y-119407047D01*
X158303115Y-119405555D01*
X158285306Y-119403911D01*
X158272605Y-119402111D01*
X158264092Y-119400145D01*
X158259734Y-119398477D01*
X158251272Y-119394906D01*
X158243503Y-119392270D01*
X158236398Y-119389634D01*
X158229927Y-119386062D01*
X158224061Y-119380621D01*
X158218771Y-119372375D01*
X158214026Y-119360390D01*
X158209798Y-119343731D01*
X158206057Y-119321463D01*
X158202773Y-119292652D01*
X158199917Y-119256363D01*
X158197460Y-119211661D01*
X158195371Y-119157611D01*
X158193622Y-119093279D01*
X158192183Y-119017730D01*
X158191024Y-118930030D01*
X158190117Y-118829243D01*
X158189431Y-118714434D01*
X158188937Y-118584670D01*
X158188605Y-118439015D01*
X158188407Y-118276535D01*
X158188313Y-118096295D01*
X158188292Y-117897360D01*
X158188315Y-117678796D01*
X158188354Y-117439668D01*
X158188378Y-117179040D01*
X158188378Y-117136889D01*
X158188364Y-116873992D01*
X158188339Y-116632732D01*
X158188329Y-116412165D01*
X158188358Y-116211352D01*
X158188452Y-116029349D01*
X158188638Y-115865216D01*
X158188941Y-115718011D01*
X158189386Y-115586792D01*
X158189966Y-115476867D01*
X158492803Y-115476867D01*
X158532593Y-115534711D01*
X158543764Y-115550479D01*
X158553834Y-115564441D01*
X158562862Y-115577784D01*
X158570903Y-115591693D01*
X158578014Y-115607356D01*
X158584253Y-115625958D01*
X158589675Y-115648686D01*
X158594338Y-115676727D01*
X158598299Y-115711267D01*
X158601615Y-115753492D01*
X158604341Y-115804589D01*
X158606536Y-115865744D01*
X158608255Y-115938144D01*
X158609556Y-116022975D01*
X158610495Y-116121422D01*
X158611130Y-116234674D01*
X158611516Y-116363916D01*
X158611712Y-116510334D01*
X158611773Y-116675116D01*
X158611757Y-116859447D01*
X158611720Y-117064513D01*
X158611711Y-117187133D01*
X158611735Y-117404082D01*
X158611769Y-117599642D01*
X158611757Y-117774999D01*
X158611642Y-117931341D01*
X158611370Y-118069857D01*
X158610882Y-118191734D01*
X158610124Y-118298160D01*
X158609038Y-118390322D01*
X158607569Y-118469409D01*
X158605660Y-118536608D01*
X158603256Y-118593107D01*
X158600299Y-118640093D01*
X158596734Y-118678755D01*
X158592505Y-118710280D01*
X158587554Y-118735855D01*
X158581827Y-118756670D01*
X158575267Y-118773911D01*
X158567817Y-118788765D01*
X158559421Y-118802422D01*
X158550024Y-118816069D01*
X158539568Y-118830893D01*
X158533477Y-118839783D01*
X158494704Y-118897400D01*
X159026268Y-118897400D01*
X159149517Y-118897365D01*
X159252013Y-118897215D01*
X159335580Y-118896878D01*
X159402044Y-118896286D01*
X159453229Y-118895367D01*
X159490959Y-118894051D01*
X159517060Y-118892269D01*
X159533356Y-118889951D01*
X159541672Y-118887026D01*
X159543832Y-118883424D01*
X159541661Y-118879075D01*
X159540465Y-118877645D01*
X159515315Y-118840573D01*
X159489417Y-118787772D01*
X159465808Y-118725770D01*
X159457539Y-118699357D01*
X159452922Y-118681416D01*
X159449021Y-118660355D01*
X159445752Y-118634089D01*
X159443034Y-118600532D01*
X159440785Y-118557599D01*
X159438923Y-118503204D01*
X159437364Y-118435262D01*
X159436028Y-118351688D01*
X159434831Y-118250395D01*
X159433692Y-118129300D01*
X159433315Y-118084600D01*
X159432298Y-117959449D01*
X159431540Y-117855082D01*
X159431097Y-117769707D01*
X159431030Y-117701533D01*
X159431395Y-117648765D01*
X159432252Y-117609614D01*
X159433659Y-117582285D01*
X159435675Y-117564986D01*
X159438357Y-117555926D01*
X159441764Y-117553312D01*
X159445956Y-117555351D01*
X159450429Y-117559667D01*
X159460784Y-117572602D01*
X159482842Y-117601676D01*
X159515043Y-117644759D01*
X159555826Y-117699718D01*
X159603630Y-117764423D01*
X159656895Y-117836742D01*
X159714060Y-117914544D01*
X159773563Y-117995698D01*
X159833845Y-118078072D01*
X159893345Y-118159536D01*
X159950502Y-118237957D01*
X160003755Y-118311204D01*
X160051543Y-118377147D01*
X160092307Y-118433654D01*
X160124484Y-118478593D01*
X160146515Y-118509834D01*
X160151083Y-118516466D01*
X160174004Y-118553369D01*
X160200812Y-118601359D01*
X160226211Y-118650897D01*
X160229432Y-118657577D01*
X160251110Y-118705772D01*
X160263696Y-118743334D01*
X160269426Y-118779160D01*
X160270544Y-118821200D01*
X160269910Y-118897400D01*
X161424349Y-118897400D01*
X161333185Y-118803669D01*
X161286388Y-118753775D01*
X161236101Y-118697295D01*
X161190056Y-118643026D01*
X161169631Y-118617673D01*
X161139193Y-118578128D01*
X161099138Y-118524916D01*
X161050639Y-118459667D01*
X160994865Y-118384011D01*
X160932989Y-118299577D01*
X160866181Y-118207994D01*
X160795613Y-118110892D01*
X160722455Y-118009901D01*
X160647879Y-117906650D01*
X160573056Y-117802768D01*
X160499157Y-117699885D01*
X160427354Y-117599631D01*
X160358816Y-117503636D01*
X160294716Y-117413527D01*
X160236225Y-117330936D01*
X160184514Y-117257492D01*
X160140753Y-117194824D01*
X160106115Y-117144561D01*
X160081770Y-117108334D01*
X160068889Y-117087771D01*
X160067131Y-117083668D01*
X160075090Y-117072342D01*
X160095885Y-117045162D01*
X160128153Y-117003829D01*
X160170530Y-116950044D01*
X160221653Y-116885506D01*
X160280159Y-116811918D01*
X160344686Y-116730978D01*
X160413869Y-116644388D01*
X160486347Y-116553848D01*
X160560754Y-116461060D01*
X160620483Y-116386702D01*
X161631489Y-116386702D01*
X161637398Y-116399659D01*
X161651728Y-116421908D01*
X161652775Y-116423391D01*
X161671562Y-116453544D01*
X161691209Y-116490375D01*
X161695108Y-116498511D01*
X161698644Y-116506940D01*
X161701770Y-116517059D01*
X161704514Y-116530260D01*
X161706908Y-116547938D01*
X161708981Y-116571484D01*
X161710765Y-116602293D01*
X161712288Y-116641757D01*
X161713581Y-116691269D01*
X161714674Y-116752223D01*
X161715597Y-116826011D01*
X161716381Y-116914028D01*
X161717055Y-117017665D01*
X161717650Y-117138316D01*
X161718195Y-117277374D01*
X161718721Y-117436232D01*
X161719255Y-117615089D01*
X161719794Y-117800207D01*
X161720228Y-117964145D01*
X161720491Y-118108303D01*
X161720516Y-118234079D01*
X161720235Y-118342871D01*
X161719581Y-118436077D01*
X161718486Y-118515097D01*
X161716882Y-118581328D01*
X161714703Y-118636170D01*
X161711881Y-118681021D01*
X161708349Y-118717278D01*
X161704039Y-118746341D01*
X161698883Y-118769609D01*
X161692815Y-118788479D01*
X161685767Y-118804351D01*
X161677671Y-118818622D01*
X161668460Y-118832691D01*
X161659960Y-118845158D01*
X161642824Y-118871452D01*
X161632678Y-118889037D01*
X161631489Y-118892257D01*
X161642396Y-118893334D01*
X161673589Y-118894335D01*
X161722777Y-118895235D01*
X161787667Y-118896010D01*
X161865970Y-118896637D01*
X161955393Y-118897091D01*
X162053644Y-118897349D01*
X162122555Y-118897400D01*
X162227548Y-118897180D01*
X162324390Y-118896548D01*
X162410893Y-118895549D01*
X162484868Y-118894227D01*
X162544126Y-118892626D01*
X162586480Y-118890791D01*
X162609740Y-118888765D01*
X162613622Y-118887493D01*
X162605924Y-118872591D01*
X162597926Y-118864560D01*
X162584754Y-118847434D01*
X162567515Y-118817183D01*
X162555593Y-118792622D01*
X162528955Y-118733711D01*
X162525880Y-117556845D01*
X162522805Y-116379978D01*
X162077147Y-116379978D01*
X161979330Y-116380142D01*
X161888936Y-116380611D01*
X161808370Y-116381347D01*
X161740038Y-116382316D01*
X161686344Y-116383480D01*
X161649695Y-116384803D01*
X161632496Y-116386249D01*
X161631489Y-116386702D01*
X160620483Y-116386702D01*
X160635730Y-116367722D01*
X160709910Y-116275537D01*
X160781931Y-116186204D01*
X160850431Y-116101424D01*
X160914045Y-116022898D01*
X160971412Y-115952326D01*
X161021167Y-115891409D01*
X161061948Y-115841847D01*
X161079112Y-115821178D01*
X161165404Y-115720516D01*
X161242003Y-115637259D01*
X161310817Y-115569438D01*
X161373752Y-115515089D01*
X161383133Y-115507722D01*
X161422644Y-115477117D01*
X160290884Y-115476867D01*
X160296173Y-115524844D01*
X160292870Y-115582188D01*
X160271339Y-115650463D01*
X160231365Y-115730212D01*
X160186057Y-115802495D01*
X160169839Y-115825140D01*
X160141786Y-115862696D01*
X160103570Y-115913021D01*
X160056863Y-115973973D01*
X160003339Y-116043411D01*
X159944669Y-116119194D01*
X159882525Y-116199180D01*
X159818579Y-116281228D01*
X159754505Y-116363196D01*
X159691973Y-116442943D01*
X159632657Y-116518327D01*
X159578229Y-116587207D01*
X159530361Y-116647442D01*
X159490725Y-116696889D01*
X159460994Y-116733408D01*
X159442839Y-116754858D01*
X159439780Y-116758156D01*
X159436921Y-116750149D01*
X159434707Y-116719855D01*
X159433143Y-116667556D01*
X159432233Y-116593531D01*
X159431980Y-116498063D01*
X159432387Y-116381434D01*
X159433296Y-116261445D01*
X159434618Y-116129333D01*
X159436143Y-116017594D01*
X159438119Y-115924025D01*
X159440794Y-115846419D01*
X159444418Y-115782574D01*
X159449239Y-115730283D01*
X159455506Y-115687344D01*
X159463468Y-115651551D01*
X159473373Y-115620700D01*
X159485469Y-115592586D01*
X159500007Y-115565005D01*
X159514689Y-115539966D01*
X159552686Y-115476867D01*
X158492803Y-115476867D01*
X158189966Y-115476867D01*
X158189999Y-115470617D01*
X158190805Y-115368544D01*
X158191830Y-115279633D01*
X158193100Y-115202941D01*
X158194640Y-115137527D01*
X158196476Y-115082449D01*
X158198633Y-115036765D01*
X158201137Y-114999534D01*
X158204013Y-114969813D01*
X158207287Y-114946662D01*
X158210985Y-114929139D01*
X158215131Y-114916301D01*
X158219753Y-114907208D01*
X158224874Y-114900918D01*
X158230522Y-114896488D01*
X158236721Y-114892978D01*
X158243496Y-114889445D01*
X158249492Y-114885876D01*
X158254725Y-114883300D01*
X158262901Y-114880972D01*
X158275114Y-114878878D01*
X158292459Y-114877007D01*
X158316031Y-114875347D01*
X158346923Y-114873884D01*
X158386232Y-114872608D01*
X158435050Y-114871504D01*
X158494473Y-114870561D01*
X158565596Y-114869767D01*
X158649512Y-114869109D01*
X158747317Y-114868575D01*
X158860106Y-114868153D01*
X158988971Y-114867829D01*
X159135009Y-114867592D01*
X159299314Y-114867430D01*
X159482980Y-114867330D01*
X159687103Y-114867280D01*
X159898247Y-114867267D01*
X161518600Y-114867267D01*
X161518600Y-114964054D01*
G36*
X164793429Y-115424071D02*
X164953570Y-115445245D01*
X165117510Y-115485385D01*
X165287313Y-115544889D01*
X165465043Y-115624154D01*
X165476310Y-115629699D01*
X165534005Y-115657725D01*
X165585552Y-115681802D01*
X165627191Y-115700249D01*
X165655162Y-115711386D01*
X165664733Y-115713933D01*
X165683950Y-115718941D01*
X165688561Y-115723147D01*
X165683458Y-115733580D01*
X165667418Y-115759868D01*
X165642288Y-115799257D01*
X165609914Y-115848991D01*
X165572143Y-115906315D01*
X165530822Y-115968476D01*
X165487798Y-116032718D01*
X165444917Y-116096285D01*
X165404026Y-116156425D01*
X165366971Y-116210380D01*
X165335600Y-116255397D01*
X165311759Y-116288721D01*
X165297294Y-116307597D01*
X165295309Y-116309787D01*
X165285191Y-116305138D01*
X165262850Y-116287962D01*
X165232280Y-116261440D01*
X165216536Y-116246964D01*
X165120047Y-116171682D01*
X165013336Y-116116241D01*
X164897832Y-116081141D01*
X164774962Y-116066880D01*
X164705561Y-116068051D01*
X164584423Y-116085212D01*
X164475205Y-116121094D01*
X164377582Y-116175959D01*
X164291228Y-116250070D01*
X164215815Y-116343688D01*
X164151018Y-116457076D01*
X164113601Y-116543667D01*
X164069748Y-116679366D01*
X164037428Y-116826850D01*
X164016557Y-116982314D01*
X164007051Y-117141956D01*
X164008827Y-117301973D01*
X164021803Y-117458561D01*
X164045894Y-117607918D01*
X164081018Y-117746240D01*
X164127092Y-117869724D01*
X164143373Y-117903978D01*
X164211620Y-118018064D01*
X164292079Y-118114557D01*
X164383570Y-118192670D01*
X164484911Y-118251617D01*
X164594920Y-118290612D01*
X164712415Y-118308868D01*
X164753883Y-118310211D01*
X164875441Y-118299290D01*
X164995878Y-118266474D01*
X165113666Y-118212439D01*
X165227277Y-118137865D01*
X165318685Y-118059539D01*
X165365215Y-118015008D01*
X165546483Y-118312271D01*
X165591580Y-118386433D01*
X165632819Y-118454646D01*
X165668735Y-118514459D01*
X165697866Y-118563420D01*
X165718750Y-118599079D01*
X165729924Y-118618984D01*
X165731375Y-118622079D01*
X165723146Y-118631718D01*
X165697567Y-118648999D01*
X165657873Y-118672283D01*
X165607297Y-118699934D01*
X165549074Y-118730315D01*
X165486437Y-118761790D01*
X165422621Y-118792722D01*
X165360860Y-118821473D01*
X165304388Y-118846408D01*
X165256438Y-118865889D01*
X165232986Y-118874318D01*
X165099221Y-118912133D01*
X164961327Y-118937136D01*
X164813622Y-118950140D01*
X164686833Y-118952468D01*
X164618878Y-118951373D01*
X164553277Y-118949275D01*
X164495847Y-118946434D01*
X164452403Y-118943106D01*
X164438298Y-118941422D01*
X164299284Y-118912587D01*
X164157757Y-118867468D01*
X164020275Y-118808750D01*
X163893394Y-118739120D01*
X163815889Y-118686441D01*
X163688481Y-118578239D01*
X163570178Y-118451671D01*
X163463172Y-118309866D01*
X163369652Y-118155951D01*
X163291810Y-117993053D01*
X163247956Y-117875756D01*
X163197708Y-117692128D01*
X163164209Y-117497581D01*
X163147449Y-117296325D01*
X163147416Y-117092568D01*
X163164101Y-116890521D01*
X163197493Y-116694392D01*
X163247580Y-116508391D01*
X163251397Y-116496803D01*
X163314281Y-116334750D01*
X163391028Y-116186832D01*
X163484242Y-116048865D01*
X163596527Y-115916661D01*
X163640392Y-115871399D01*
X163776534Y-115747457D01*
X163916491Y-115644915D01*
X164062411Y-115562656D01*
X164216442Y-115499564D01*
X164380732Y-115454523D01*
X164476289Y-115437033D01*
X164635023Y-115421466D01*
X164793429Y-115424071D01*
X164793429Y-115424071D01*
G37*
X164793429Y-115424071D02*
X164953570Y-115445245D01*
X165117510Y-115485385D01*
X165287313Y-115544889D01*
X165465043Y-115624154D01*
X165476310Y-115629699D01*
X165534005Y-115657725D01*
X165585552Y-115681802D01*
X165627191Y-115700249D01*
X165655162Y-115711386D01*
X165664733Y-115713933D01*
X165683950Y-115718941D01*
X165688561Y-115723147D01*
X165683458Y-115733580D01*
X165667418Y-115759868D01*
X165642288Y-115799257D01*
X165609914Y-115848991D01*
X165572143Y-115906315D01*
X165530822Y-115968476D01*
X165487798Y-116032718D01*
X165444917Y-116096285D01*
X165404026Y-116156425D01*
X165366971Y-116210380D01*
X165335600Y-116255397D01*
X165311759Y-116288721D01*
X165297294Y-116307597D01*
X165295309Y-116309787D01*
X165285191Y-116305138D01*
X165262850Y-116287962D01*
X165232280Y-116261440D01*
X165216536Y-116246964D01*
X165120047Y-116171682D01*
X165013336Y-116116241D01*
X164897832Y-116081141D01*
X164774962Y-116066880D01*
X164705561Y-116068051D01*
X164584423Y-116085212D01*
X164475205Y-116121094D01*
X164377582Y-116175959D01*
X164291228Y-116250070D01*
X164215815Y-116343688D01*
X164151018Y-116457076D01*
X164113601Y-116543667D01*
X164069748Y-116679366D01*
X164037428Y-116826850D01*
X164016557Y-116982314D01*
X164007051Y-117141956D01*
X164008827Y-117301973D01*
X164021803Y-117458561D01*
X164045894Y-117607918D01*
X164081018Y-117746240D01*
X164127092Y-117869724D01*
X164143373Y-117903978D01*
X164211620Y-118018064D01*
X164292079Y-118114557D01*
X164383570Y-118192670D01*
X164484911Y-118251617D01*
X164594920Y-118290612D01*
X164712415Y-118308868D01*
X164753883Y-118310211D01*
X164875441Y-118299290D01*
X164995878Y-118266474D01*
X165113666Y-118212439D01*
X165227277Y-118137865D01*
X165318685Y-118059539D01*
X165365215Y-118015008D01*
X165546483Y-118312271D01*
X165591580Y-118386433D01*
X165632819Y-118454646D01*
X165668735Y-118514459D01*
X165697866Y-118563420D01*
X165718750Y-118599079D01*
X165729924Y-118618984D01*
X165731375Y-118622079D01*
X165723146Y-118631718D01*
X165697567Y-118648999D01*
X165657873Y-118672283D01*
X165607297Y-118699934D01*
X165549074Y-118730315D01*
X165486437Y-118761790D01*
X165422621Y-118792722D01*
X165360860Y-118821473D01*
X165304388Y-118846408D01*
X165256438Y-118865889D01*
X165232986Y-118874318D01*
X165099221Y-118912133D01*
X164961327Y-118937136D01*
X164813622Y-118950140D01*
X164686833Y-118952468D01*
X164618878Y-118951373D01*
X164553277Y-118949275D01*
X164495847Y-118946434D01*
X164452403Y-118943106D01*
X164438298Y-118941422D01*
X164299284Y-118912587D01*
X164157757Y-118867468D01*
X164020275Y-118808750D01*
X163893394Y-118739120D01*
X163815889Y-118686441D01*
X163688481Y-118578239D01*
X163570178Y-118451671D01*
X163463172Y-118309866D01*
X163369652Y-118155951D01*
X163291810Y-117993053D01*
X163247956Y-117875756D01*
X163197708Y-117692128D01*
X163164209Y-117497581D01*
X163147449Y-117296325D01*
X163147416Y-117092568D01*
X163164101Y-116890521D01*
X163197493Y-116694392D01*
X163247580Y-116508391D01*
X163251397Y-116496803D01*
X163314281Y-116334750D01*
X163391028Y-116186832D01*
X163484242Y-116048865D01*
X163596527Y-115916661D01*
X163640392Y-115871399D01*
X163776534Y-115747457D01*
X163916491Y-115644915D01*
X164062411Y-115562656D01*
X164216442Y-115499564D01*
X164380732Y-115454523D01*
X164476289Y-115437033D01*
X164635023Y-115421466D01*
X164793429Y-115424071D01*
G36*
X167138574Y-116341552D02*
X167290492Y-116361567D01*
X167425756Y-116395202D01*
X167545239Y-116442725D01*
X167649815Y-116504405D01*
X167727424Y-116567965D01*
X167796265Y-116642099D01*
X167850006Y-116721871D01*
X167892910Y-116814091D01*
X167908384Y-116857161D01*
X167921244Y-116896142D01*
X167932446Y-116932289D01*
X167942120Y-116967434D01*
X167950396Y-117003410D01*
X167957403Y-117042050D01*
X167963272Y-117085185D01*
X167968131Y-117134649D01*
X167972110Y-117192273D01*
X167975340Y-117259891D01*
X167977949Y-117339334D01*
X167980067Y-117432436D01*
X167981824Y-117541027D01*
X167983349Y-117666942D01*
X167984772Y-117812012D01*
X167986025Y-117954778D01*
X167987351Y-118110968D01*
X167988556Y-118246239D01*
X167989766Y-118362246D01*
X167991106Y-118460645D01*
X167992700Y-118543093D01*
X167994675Y-118611246D01*
X167997156Y-118666760D01*
X168000269Y-118711292D01*
X168004138Y-118746498D01*
X168008889Y-118774034D01*
X168014648Y-118795556D01*
X168021539Y-118812722D01*
X168029689Y-118827186D01*
X168039223Y-118840606D01*
X168050266Y-118854638D01*
X168054566Y-118860071D01*
X168070386Y-118882910D01*
X168077422Y-118898463D01*
X168077444Y-118898922D01*
X168066567Y-118901121D01*
X168035582Y-118903147D01*
X167986957Y-118904942D01*
X167923163Y-118906451D01*
X167846669Y-118907616D01*
X167759944Y-118908380D01*
X167665457Y-118908686D01*
X167654550Y-118908689D01*
X167231657Y-118908689D01*
X167228395Y-118812622D01*
X167225133Y-118716556D01*
X167163044Y-118767543D01*
X167065714Y-118835057D01*
X166955813Y-118889749D01*
X166869349Y-118919978D01*
X166800278Y-118934666D01*
X166716925Y-118944659D01*
X166627159Y-118949646D01*
X166538845Y-118949313D01*
X166459851Y-118943351D01*
X166423622Y-118937638D01*
X166283603Y-118899776D01*
X166157178Y-118844932D01*
X166045260Y-118773924D01*
X165948762Y-118687568D01*
X165868600Y-118586679D01*
X165805687Y-118472076D01*
X165761312Y-118345984D01*
X165748978Y-118289401D01*
X165741368Y-118227202D01*
X165737739Y-118152363D01*
X165737245Y-118118467D01*
X165737310Y-118115282D01*
X166497248Y-118115282D01*
X166506541Y-118190333D01*
X166534728Y-118254160D01*
X166583197Y-118309798D01*
X166588254Y-118314211D01*
X166636548Y-118349037D01*
X166688257Y-118371620D01*
X166748989Y-118383540D01*
X166824352Y-118386383D01*
X166842459Y-118385978D01*
X166896278Y-118383325D01*
X166936308Y-118377909D01*
X166971324Y-118367745D01*
X167010103Y-118350850D01*
X167020745Y-118345672D01*
X167081396Y-118309844D01*
X167128215Y-118267212D01*
X167140952Y-118251973D01*
X167185622Y-118195462D01*
X167185622Y-117999586D01*
X167185086Y-117920939D01*
X167183396Y-117862988D01*
X167180428Y-117823875D01*
X167176057Y-117801741D01*
X167171972Y-117795274D01*
X167156047Y-117792111D01*
X167122264Y-117789488D01*
X167075340Y-117787655D01*
X167019993Y-117786857D01*
X167011106Y-117786842D01*
X166890330Y-117792096D01*
X166787660Y-117808263D01*
X166701106Y-117835961D01*
X166628681Y-117875808D01*
X166573751Y-117922758D01*
X166529204Y-117980645D01*
X166504480Y-118043693D01*
X166497248Y-118115282D01*
X165737310Y-118115282D01*
X165739178Y-118024712D01*
X165747522Y-117945812D01*
X165763768Y-117874590D01*
X165789405Y-117803864D01*
X165813401Y-117751493D01*
X165872020Y-117656196D01*
X165950117Y-117568170D01*
X166045315Y-117489017D01*
X166155238Y-117420340D01*
X166277510Y-117363741D01*
X166409755Y-117320821D01*
X166474422Y-117305882D01*
X166610604Y-117283777D01*
X166759049Y-117269194D01*
X166910505Y-117262813D01*
X167037064Y-117264445D01*
X167198950Y-117271224D01*
X167191530Y-117212245D01*
X167172238Y-117113092D01*
X167141104Y-117032372D01*
X167097269Y-116969466D01*
X167039871Y-116923756D01*
X166968048Y-116894622D01*
X166880941Y-116881447D01*
X166777686Y-116883611D01*
X166739711Y-116887612D01*
X166598520Y-116912780D01*
X166461707Y-116953814D01*
X166367178Y-116991815D01*
X166322018Y-117011190D01*
X166283585Y-117026760D01*
X166257234Y-117036405D01*
X166249546Y-117038452D01*
X166239802Y-117029374D01*
X166223083Y-117000405D01*
X166199232Y-116951217D01*
X166168093Y-116881484D01*
X166129507Y-116790879D01*
X166122910Y-116775089D01*
X166092853Y-116702772D01*
X166065874Y-116637425D01*
X166043136Y-116581906D01*
X166025806Y-116539072D01*
X166015048Y-116511781D01*
X166011941Y-116502942D01*
X166021940Y-116498187D01*
X166048217Y-116492910D01*
X166076489Y-116489231D01*
X166106646Y-116484474D01*
X166154433Y-116475028D01*
X166215612Y-116461820D01*
X166285946Y-116445776D01*
X166361194Y-116427820D01*
X166389755Y-116420797D01*
X166494816Y-116395209D01*
X166582480Y-116375147D01*
X166657068Y-116359969D01*
X166722903Y-116349035D01*
X166784307Y-116341704D01*
X166845602Y-116337335D01*
X166911110Y-116335287D01*
X166969128Y-116334889D01*
X167138574Y-116341552D01*
X167138574Y-116341552D01*
G37*
X167138574Y-116341552D02*
X167290492Y-116361567D01*
X167425756Y-116395202D01*
X167545239Y-116442725D01*
X167649815Y-116504405D01*
X167727424Y-116567965D01*
X167796265Y-116642099D01*
X167850006Y-116721871D01*
X167892910Y-116814091D01*
X167908384Y-116857161D01*
X167921244Y-116896142D01*
X167932446Y-116932289D01*
X167942120Y-116967434D01*
X167950396Y-117003410D01*
X167957403Y-117042050D01*
X167963272Y-117085185D01*
X167968131Y-117134649D01*
X167972110Y-117192273D01*
X167975340Y-117259891D01*
X167977949Y-117339334D01*
X167980067Y-117432436D01*
X167981824Y-117541027D01*
X167983349Y-117666942D01*
X167984772Y-117812012D01*
X167986025Y-117954778D01*
X167987351Y-118110968D01*
X167988556Y-118246239D01*
X167989766Y-118362246D01*
X167991106Y-118460645D01*
X167992700Y-118543093D01*
X167994675Y-118611246D01*
X167997156Y-118666760D01*
X168000269Y-118711292D01*
X168004138Y-118746498D01*
X168008889Y-118774034D01*
X168014648Y-118795556D01*
X168021539Y-118812722D01*
X168029689Y-118827186D01*
X168039223Y-118840606D01*
X168050266Y-118854638D01*
X168054566Y-118860071D01*
X168070386Y-118882910D01*
X168077422Y-118898463D01*
X168077444Y-118898922D01*
X168066567Y-118901121D01*
X168035582Y-118903147D01*
X167986957Y-118904942D01*
X167923163Y-118906451D01*
X167846669Y-118907616D01*
X167759944Y-118908380D01*
X167665457Y-118908686D01*
X167654550Y-118908689D01*
X167231657Y-118908689D01*
X167228395Y-118812622D01*
X167225133Y-118716556D01*
X167163044Y-118767543D01*
X167065714Y-118835057D01*
X166955813Y-118889749D01*
X166869349Y-118919978D01*
X166800278Y-118934666D01*
X166716925Y-118944659D01*
X166627159Y-118949646D01*
X166538845Y-118949313D01*
X166459851Y-118943351D01*
X166423622Y-118937638D01*
X166283603Y-118899776D01*
X166157178Y-118844932D01*
X166045260Y-118773924D01*
X165948762Y-118687568D01*
X165868600Y-118586679D01*
X165805687Y-118472076D01*
X165761312Y-118345984D01*
X165748978Y-118289401D01*
X165741368Y-118227202D01*
X165737739Y-118152363D01*
X165737245Y-118118467D01*
X165737310Y-118115282D01*
X166497248Y-118115282D01*
X166506541Y-118190333D01*
X166534728Y-118254160D01*
X166583197Y-118309798D01*
X166588254Y-118314211D01*
X166636548Y-118349037D01*
X166688257Y-118371620D01*
X166748989Y-118383540D01*
X166824352Y-118386383D01*
X166842459Y-118385978D01*
X166896278Y-118383325D01*
X166936308Y-118377909D01*
X166971324Y-118367745D01*
X167010103Y-118350850D01*
X167020745Y-118345672D01*
X167081396Y-118309844D01*
X167128215Y-118267212D01*
X167140952Y-118251973D01*
X167185622Y-118195462D01*
X167185622Y-117999586D01*
X167185086Y-117920939D01*
X167183396Y-117862988D01*
X167180428Y-117823875D01*
X167176057Y-117801741D01*
X167171972Y-117795274D01*
X167156047Y-117792111D01*
X167122264Y-117789488D01*
X167075340Y-117787655D01*
X167019993Y-117786857D01*
X167011106Y-117786842D01*
X166890330Y-117792096D01*
X166787660Y-117808263D01*
X166701106Y-117835961D01*
X166628681Y-117875808D01*
X166573751Y-117922758D01*
X166529204Y-117980645D01*
X166504480Y-118043693D01*
X166497248Y-118115282D01*
X165737310Y-118115282D01*
X165739178Y-118024712D01*
X165747522Y-117945812D01*
X165763768Y-117874590D01*
X165789405Y-117803864D01*
X165813401Y-117751493D01*
X165872020Y-117656196D01*
X165950117Y-117568170D01*
X166045315Y-117489017D01*
X166155238Y-117420340D01*
X166277510Y-117363741D01*
X166409755Y-117320821D01*
X166474422Y-117305882D01*
X166610604Y-117283777D01*
X166759049Y-117269194D01*
X166910505Y-117262813D01*
X167037064Y-117264445D01*
X167198950Y-117271224D01*
X167191530Y-117212245D01*
X167172238Y-117113092D01*
X167141104Y-117032372D01*
X167097269Y-116969466D01*
X167039871Y-116923756D01*
X166968048Y-116894622D01*
X166880941Y-116881447D01*
X166777686Y-116883611D01*
X166739711Y-116887612D01*
X166598520Y-116912780D01*
X166461707Y-116953814D01*
X166367178Y-116991815D01*
X166322018Y-117011190D01*
X166283585Y-117026760D01*
X166257234Y-117036405D01*
X166249546Y-117038452D01*
X166239802Y-117029374D01*
X166223083Y-117000405D01*
X166199232Y-116951217D01*
X166168093Y-116881484D01*
X166129507Y-116790879D01*
X166122910Y-116775089D01*
X166092853Y-116702772D01*
X166065874Y-116637425D01*
X166043136Y-116581906D01*
X166025806Y-116539072D01*
X166015048Y-116511781D01*
X166011941Y-116502942D01*
X166021940Y-116498187D01*
X166048217Y-116492910D01*
X166076489Y-116489231D01*
X166106646Y-116484474D01*
X166154433Y-116475028D01*
X166215612Y-116461820D01*
X166285946Y-116445776D01*
X166361194Y-116427820D01*
X166389755Y-116420797D01*
X166494816Y-116395209D01*
X166582480Y-116375147D01*
X166657068Y-116359969D01*
X166722903Y-116349035D01*
X166784307Y-116341704D01*
X166845602Y-116337335D01*
X166911110Y-116335287D01*
X166969128Y-116334889D01*
X167138574Y-116341552D01*
G36*
X170651507Y-116947245D02*
X170651526Y-117181662D01*
X170651552Y-117394603D01*
X170651625Y-117587168D01*
X170651782Y-117760459D01*
X170652064Y-117915576D01*
X170652509Y-118053620D01*
X170653156Y-118175692D01*
X170654045Y-118282894D01*
X170655213Y-118376326D01*
X170656701Y-118457090D01*
X170658546Y-118526286D01*
X170660789Y-118585015D01*
X170663469Y-118634379D01*
X170666623Y-118675478D01*
X170670292Y-118709413D01*
X170674513Y-118737286D01*
X170679327Y-118760198D01*
X170684773Y-118779249D01*
X170690888Y-118795540D01*
X170697712Y-118810173D01*
X170705285Y-118824249D01*
X170713645Y-118838868D01*
X170718839Y-118847974D01*
X170753104Y-118908689D01*
X169894955Y-118908689D01*
X169894955Y-118812733D01*
X169894224Y-118769370D01*
X169892272Y-118736205D01*
X169889463Y-118718424D01*
X169888221Y-118716778D01*
X169876799Y-118723662D01*
X169854084Y-118741505D01*
X169831385Y-118760879D01*
X169776800Y-118801614D01*
X169707321Y-118842617D01*
X169630270Y-118880123D01*
X169552965Y-118910364D01*
X169522113Y-118920012D01*
X169453616Y-118934578D01*
X169370764Y-118944539D01*
X169281371Y-118949583D01*
X169193248Y-118949396D01*
X169114207Y-118943666D01*
X169076511Y-118937858D01*
X168938414Y-118899797D01*
X168811113Y-118842073D01*
X168695292Y-118765211D01*
X168591637Y-118669739D01*
X168500833Y-118556179D01*
X168434031Y-118445381D01*
X168379164Y-118328625D01*
X168337163Y-118209276D01*
X168307167Y-118083283D01*
X168288311Y-117946594D01*
X168279732Y-117795158D01*
X168279006Y-117717711D01*
X168281100Y-117660934D01*
X169110217Y-117660934D01*
X169110424Y-117754002D01*
X169113337Y-117841692D01*
X169119000Y-117918772D01*
X169127455Y-117980009D01*
X169130038Y-117992350D01*
X169161840Y-118099633D01*
X169203498Y-118186658D01*
X169255363Y-118253642D01*
X169317781Y-118300805D01*
X169391100Y-118328365D01*
X169475669Y-118336541D01*
X169571835Y-118325551D01*
X169635311Y-118309829D01*
X169684454Y-118291639D01*
X169738583Y-118265791D01*
X169779244Y-118242089D01*
X169849800Y-118195721D01*
X169849800Y-117045530D01*
X169782392Y-117001962D01*
X169703867Y-116961040D01*
X169619681Y-116934389D01*
X169534557Y-116922465D01*
X169453216Y-116925722D01*
X169380380Y-116944615D01*
X169348426Y-116960184D01*
X169290501Y-117003181D01*
X169241544Y-117059953D01*
X169200390Y-117132575D01*
X169165874Y-117223121D01*
X169136833Y-117333666D01*
X169135552Y-117339533D01*
X169125381Y-117401788D01*
X169117739Y-117479594D01*
X169112670Y-117567720D01*
X169110217Y-117660934D01*
X168281100Y-117660934D01*
X168286857Y-117504895D01*
X168308802Y-117309059D01*
X168344786Y-117130332D01*
X168394759Y-116968845D01*
X168458668Y-116824726D01*
X168536462Y-116698106D01*
X168628089Y-116589115D01*
X168733497Y-116497883D01*
X168778662Y-116466932D01*
X168879611Y-116410785D01*
X168982901Y-116371174D01*
X169092989Y-116347014D01*
X169214330Y-116337219D01*
X169306836Y-116338265D01*
X169436490Y-116349231D01*
X169549084Y-116371046D01*
X169647875Y-116404714D01*
X169736121Y-116451236D01*
X169784986Y-116485448D01*
X169814353Y-116507362D01*
X169836043Y-116522333D01*
X169844253Y-116526733D01*
X169845868Y-116515904D01*
X169847159Y-116485251D01*
X169848138Y-116437526D01*
X169848817Y-116375479D01*
X169849210Y-116301862D01*
X169849330Y-116219427D01*
X169849188Y-116130925D01*
X169848797Y-116039107D01*
X169848171Y-115946724D01*
X169847320Y-115856528D01*
X169846260Y-115771271D01*
X169845001Y-115693703D01*
X169843556Y-115626576D01*
X169841938Y-115572641D01*
X169840161Y-115534650D01*
X169839669Y-115527667D01*
X169832092Y-115457251D01*
X169820531Y-115402102D01*
X169802792Y-115354981D01*
X169776682Y-115308647D01*
X169770415Y-115299067D01*
X169745983Y-115262378D01*
X170651311Y-115262378D01*
X170651507Y-116947245D01*
X170651507Y-116947245D01*
G37*
X170651507Y-116947245D02*
X170651526Y-117181662D01*
X170651552Y-117394603D01*
X170651625Y-117587168D01*
X170651782Y-117760459D01*
X170652064Y-117915576D01*
X170652509Y-118053620D01*
X170653156Y-118175692D01*
X170654045Y-118282894D01*
X170655213Y-118376326D01*
X170656701Y-118457090D01*
X170658546Y-118526286D01*
X170660789Y-118585015D01*
X170663469Y-118634379D01*
X170666623Y-118675478D01*
X170670292Y-118709413D01*
X170674513Y-118737286D01*
X170679327Y-118760198D01*
X170684773Y-118779249D01*
X170690888Y-118795540D01*
X170697712Y-118810173D01*
X170705285Y-118824249D01*
X170713645Y-118838868D01*
X170718839Y-118847974D01*
X170753104Y-118908689D01*
X169894955Y-118908689D01*
X169894955Y-118812733D01*
X169894224Y-118769370D01*
X169892272Y-118736205D01*
X169889463Y-118718424D01*
X169888221Y-118716778D01*
X169876799Y-118723662D01*
X169854084Y-118741505D01*
X169831385Y-118760879D01*
X169776800Y-118801614D01*
X169707321Y-118842617D01*
X169630270Y-118880123D01*
X169552965Y-118910364D01*
X169522113Y-118920012D01*
X169453616Y-118934578D01*
X169370764Y-118944539D01*
X169281371Y-118949583D01*
X169193248Y-118949396D01*
X169114207Y-118943666D01*
X169076511Y-118937858D01*
X168938414Y-118899797D01*
X168811113Y-118842073D01*
X168695292Y-118765211D01*
X168591637Y-118669739D01*
X168500833Y-118556179D01*
X168434031Y-118445381D01*
X168379164Y-118328625D01*
X168337163Y-118209276D01*
X168307167Y-118083283D01*
X168288311Y-117946594D01*
X168279732Y-117795158D01*
X168279006Y-117717711D01*
X168281100Y-117660934D01*
X169110217Y-117660934D01*
X169110424Y-117754002D01*
X169113337Y-117841692D01*
X169119000Y-117918772D01*
X169127455Y-117980009D01*
X169130038Y-117992350D01*
X169161840Y-118099633D01*
X169203498Y-118186658D01*
X169255363Y-118253642D01*
X169317781Y-118300805D01*
X169391100Y-118328365D01*
X169475669Y-118336541D01*
X169571835Y-118325551D01*
X169635311Y-118309829D01*
X169684454Y-118291639D01*
X169738583Y-118265791D01*
X169779244Y-118242089D01*
X169849800Y-118195721D01*
X169849800Y-117045530D01*
X169782392Y-117001962D01*
X169703867Y-116961040D01*
X169619681Y-116934389D01*
X169534557Y-116922465D01*
X169453216Y-116925722D01*
X169380380Y-116944615D01*
X169348426Y-116960184D01*
X169290501Y-117003181D01*
X169241544Y-117059953D01*
X169200390Y-117132575D01*
X169165874Y-117223121D01*
X169136833Y-117333666D01*
X169135552Y-117339533D01*
X169125381Y-117401788D01*
X169117739Y-117479594D01*
X169112670Y-117567720D01*
X169110217Y-117660934D01*
X168281100Y-117660934D01*
X168286857Y-117504895D01*
X168308802Y-117309059D01*
X168344786Y-117130332D01*
X168394759Y-116968845D01*
X168458668Y-116824726D01*
X168536462Y-116698106D01*
X168628089Y-116589115D01*
X168733497Y-116497883D01*
X168778662Y-116466932D01*
X168879611Y-116410785D01*
X168982901Y-116371174D01*
X169092989Y-116347014D01*
X169214330Y-116337219D01*
X169306836Y-116338265D01*
X169436490Y-116349231D01*
X169549084Y-116371046D01*
X169647875Y-116404714D01*
X169736121Y-116451236D01*
X169784986Y-116485448D01*
X169814353Y-116507362D01*
X169836043Y-116522333D01*
X169844253Y-116526733D01*
X169845868Y-116515904D01*
X169847159Y-116485251D01*
X169848138Y-116437526D01*
X169848817Y-116375479D01*
X169849210Y-116301862D01*
X169849330Y-116219427D01*
X169849188Y-116130925D01*
X169848797Y-116039107D01*
X169848171Y-115946724D01*
X169847320Y-115856528D01*
X169846260Y-115771271D01*
X169845001Y-115693703D01*
X169843556Y-115626576D01*
X169841938Y-115572641D01*
X169840161Y-115534650D01*
X169839669Y-115527667D01*
X169832092Y-115457251D01*
X169820531Y-115402102D01*
X169802792Y-115354981D01*
X169776682Y-115308647D01*
X169770415Y-115299067D01*
X169745983Y-115262378D01*
X170651311Y-115262378D01*
X170651507Y-116947245D01*
G36*
X162191957Y-114501571D02*
X162288232Y-114525809D01*
X162374816Y-114568641D01*
X162449627Y-114628419D01*
X162510582Y-114703494D01*
X162555601Y-114792220D01*
X162581864Y-114888530D01*
X162587714Y-114985795D01*
X162572860Y-115079654D01*
X162539160Y-115167511D01*
X162488472Y-115246770D01*
X162422655Y-115314836D01*
X162343566Y-115369112D01*
X162253066Y-115407002D01*
X162201800Y-115419426D01*
X162157302Y-115426947D01*
X162123001Y-115429919D01*
X162090040Y-115428094D01*
X162049566Y-115421225D01*
X162016469Y-115414250D01*
X161923053Y-115382741D01*
X161839381Y-115331617D01*
X161767335Y-115262429D01*
X161708800Y-115176728D01*
X161694852Y-115149489D01*
X161678414Y-115113122D01*
X161668106Y-115082582D01*
X161662540Y-115050450D01*
X161660331Y-115009307D01*
X161660052Y-114963222D01*
X161664139Y-114878865D01*
X161677554Y-114809586D01*
X161702744Y-114748961D01*
X161742154Y-114690567D01*
X161780702Y-114646302D01*
X161852594Y-114580484D01*
X161927687Y-114535053D01*
X162010438Y-114507850D01*
X162088072Y-114497576D01*
X162191957Y-114501571D01*
X162191957Y-114501571D01*
G37*
X162191957Y-114501571D02*
X162288232Y-114525809D01*
X162374816Y-114568641D01*
X162449627Y-114628419D01*
X162510582Y-114703494D01*
X162555601Y-114792220D01*
X162581864Y-114888530D01*
X162587714Y-114985795D01*
X162572860Y-115079654D01*
X162539160Y-115167511D01*
X162488472Y-115246770D01*
X162422655Y-115314836D01*
X162343566Y-115369112D01*
X162253066Y-115407002D01*
X162201800Y-115419426D01*
X162157302Y-115426947D01*
X162123001Y-115429919D01*
X162090040Y-115428094D01*
X162049566Y-115421225D01*
X162016469Y-115414250D01*
X161923053Y-115382741D01*
X161839381Y-115331617D01*
X161767335Y-115262429D01*
X161708800Y-115176728D01*
X161694852Y-115149489D01*
X161678414Y-115113122D01*
X161668106Y-115082582D01*
X161662540Y-115050450D01*
X161660331Y-115009307D01*
X161660052Y-114963222D01*
X161664139Y-114878865D01*
X161677554Y-114809586D01*
X161702744Y-114748961D01*
X161742154Y-114690567D01*
X161780702Y-114646302D01*
X161852594Y-114580484D01*
X161927687Y-114535053D01*
X162010438Y-114507850D01*
X162088072Y-114497576D01*
X162191957Y-114501571D01*
G36*
X158343629Y-119744066D02*
X158383111Y-119744467D01*
X158498800Y-119747259D01*
X158595689Y-119755550D01*
X158677081Y-119770232D01*
X158746277Y-119792193D01*
X158806580Y-119822322D01*
X158861292Y-119861510D01*
X158880833Y-119878532D01*
X158913250Y-119918363D01*
X158942480Y-119972413D01*
X158965009Y-120032323D01*
X158977321Y-120089739D01*
X158978600Y-120110956D01*
X158970583Y-120169769D01*
X158949101Y-120234013D01*
X158918001Y-120294821D01*
X158881134Y-120343330D01*
X158875146Y-120349182D01*
X158824421Y-120390321D01*
X158768875Y-120422435D01*
X158705304Y-120446365D01*
X158630506Y-120462953D01*
X158541278Y-120473041D01*
X158434418Y-120477469D01*
X158385472Y-120477845D01*
X158323238Y-120477545D01*
X158279472Y-120476292D01*
X158250069Y-120473554D01*
X158230921Y-120468801D01*
X158217923Y-120461501D01*
X158210955Y-120455267D01*
X158204374Y-120447694D01*
X158199212Y-120437924D01*
X158195297Y-120423340D01*
X158192457Y-120401326D01*
X158190520Y-120369264D01*
X158189316Y-120324536D01*
X158188672Y-120264526D01*
X158188417Y-120186617D01*
X158188378Y-120110956D01*
X158188130Y-120010041D01*
X158188183Y-119929427D01*
X158189143Y-119890822D01*
X158335133Y-119890822D01*
X158335133Y-120331089D01*
X158428266Y-120331004D01*
X158484307Y-120329396D01*
X158543001Y-120325256D01*
X158591972Y-120319464D01*
X158593462Y-120319226D01*
X158672608Y-120300090D01*
X158733998Y-120270287D01*
X158780695Y-120227878D01*
X158810365Y-120181961D01*
X158828647Y-120131026D01*
X158827229Y-120083200D01*
X158806012Y-120031933D01*
X158764511Y-119978899D01*
X158707002Y-119939600D01*
X158632250Y-119913331D01*
X158582292Y-119904035D01*
X158525584Y-119897507D01*
X158465481Y-119892782D01*
X158414361Y-119890817D01*
X158411333Y-119890808D01*
X158335133Y-119890822D01*
X158189143Y-119890822D01*
X158189740Y-119866851D01*
X158194002Y-119820055D01*
X158202170Y-119786778D01*
X158215444Y-119764759D01*
X158235026Y-119751739D01*
X158262117Y-119745457D01*
X158297918Y-119743653D01*
X158343629Y-119744066D01*
X158343629Y-119744066D01*
G37*
X158343629Y-119744066D02*
X158383111Y-119744467D01*
X158498800Y-119747259D01*
X158595689Y-119755550D01*
X158677081Y-119770232D01*
X158746277Y-119792193D01*
X158806580Y-119822322D01*
X158861292Y-119861510D01*
X158880833Y-119878532D01*
X158913250Y-119918363D01*
X158942480Y-119972413D01*
X158965009Y-120032323D01*
X158977321Y-120089739D01*
X158978600Y-120110956D01*
X158970583Y-120169769D01*
X158949101Y-120234013D01*
X158918001Y-120294821D01*
X158881134Y-120343330D01*
X158875146Y-120349182D01*
X158824421Y-120390321D01*
X158768875Y-120422435D01*
X158705304Y-120446365D01*
X158630506Y-120462953D01*
X158541278Y-120473041D01*
X158434418Y-120477469D01*
X158385472Y-120477845D01*
X158323238Y-120477545D01*
X158279472Y-120476292D01*
X158250069Y-120473554D01*
X158230921Y-120468801D01*
X158217923Y-120461501D01*
X158210955Y-120455267D01*
X158204374Y-120447694D01*
X158199212Y-120437924D01*
X158195297Y-120423340D01*
X158192457Y-120401326D01*
X158190520Y-120369264D01*
X158189316Y-120324536D01*
X158188672Y-120264526D01*
X158188417Y-120186617D01*
X158188378Y-120110956D01*
X158188130Y-120010041D01*
X158188183Y-119929427D01*
X158189143Y-119890822D01*
X158335133Y-119890822D01*
X158335133Y-120331089D01*
X158428266Y-120331004D01*
X158484307Y-120329396D01*
X158543001Y-120325256D01*
X158591972Y-120319464D01*
X158593462Y-120319226D01*
X158672608Y-120300090D01*
X158733998Y-120270287D01*
X158780695Y-120227878D01*
X158810365Y-120181961D01*
X158828647Y-120131026D01*
X158827229Y-120083200D01*
X158806012Y-120031933D01*
X158764511Y-119978899D01*
X158707002Y-119939600D01*
X158632250Y-119913331D01*
X158582292Y-119904035D01*
X158525584Y-119897507D01*
X158465481Y-119892782D01*
X158414361Y-119890817D01*
X158411333Y-119890808D01*
X158335133Y-119890822D01*
X158189143Y-119890822D01*
X158189740Y-119866851D01*
X158194002Y-119820055D01*
X158202170Y-119786778D01*
X158215444Y-119764759D01*
X158235026Y-119751739D01*
X158262117Y-119745457D01*
X158297918Y-119743653D01*
X158343629Y-119744066D01*
G36*
X159752206Y-119744146D02*
X159821614Y-119744518D01*
X159874003Y-119745385D01*
X159912153Y-119746946D01*
X159938841Y-119749403D01*
X159956847Y-119752957D01*
X159968951Y-119757810D01*
X159977931Y-119764161D01*
X159981182Y-119767084D01*
X160000957Y-119798142D01*
X160004518Y-119833828D01*
X159991509Y-119865510D01*
X159985494Y-119871913D01*
X159975765Y-119878121D01*
X159960099Y-119882910D01*
X159935592Y-119886514D01*
X159899339Y-119889164D01*
X159848435Y-119891095D01*
X159779974Y-119892539D01*
X159717383Y-119893418D01*
X159469666Y-119896467D01*
X159466281Y-119961378D01*
X159462895Y-120026289D01*
X159631042Y-120026289D01*
X159704041Y-120026919D01*
X159757483Y-120029553D01*
X159794372Y-120035309D01*
X159817712Y-120045304D01*
X159830506Y-120060656D01*
X159835758Y-120082482D01*
X159836555Y-120102738D01*
X159834077Y-120127592D01*
X159824723Y-120145906D01*
X159805617Y-120158637D01*
X159773882Y-120166741D01*
X159726641Y-120171176D01*
X159661017Y-120172899D01*
X159625199Y-120173045D01*
X159464022Y-120173045D01*
X159464022Y-120331089D01*
X159712378Y-120331089D01*
X159793787Y-120331202D01*
X159855658Y-120331712D01*
X159901032Y-120332870D01*
X159932946Y-120334930D01*
X159954441Y-120338146D01*
X159968557Y-120342772D01*
X159978332Y-120349059D01*
X159983311Y-120353667D01*
X160000390Y-120380560D01*
X160005889Y-120404467D01*
X159998037Y-120433667D01*
X159983311Y-120455267D01*
X159975454Y-120462066D01*
X159965312Y-120467346D01*
X159950156Y-120471298D01*
X159927259Y-120474113D01*
X159893891Y-120475982D01*
X159847325Y-120477098D01*
X159784833Y-120477651D01*
X159703686Y-120477833D01*
X159661578Y-120477845D01*
X159571402Y-120477765D01*
X159501076Y-120477398D01*
X159447871Y-120476552D01*
X159409060Y-120475036D01*
X159381913Y-120472659D01*
X159363702Y-120469229D01*
X159351700Y-120464554D01*
X159343178Y-120458444D01*
X159339844Y-120455267D01*
X159333245Y-120447670D01*
X159328073Y-120437870D01*
X159324154Y-120423239D01*
X159321316Y-120401152D01*
X159319385Y-120368982D01*
X159318188Y-120324103D01*
X159317552Y-120263889D01*
X159317303Y-120185713D01*
X159317266Y-120112923D01*
X159317300Y-120019707D01*
X159317535Y-119946431D01*
X159318170Y-119890458D01*
X159319406Y-119849151D01*
X159321444Y-119819872D01*
X159324483Y-119799984D01*
X159328723Y-119786850D01*
X159334365Y-119777832D01*
X159341609Y-119770293D01*
X159343394Y-119768612D01*
X159352055Y-119761172D01*
X159362118Y-119755409D01*
X159376375Y-119751112D01*
X159397617Y-119748064D01*
X159428636Y-119746051D01*
X159472223Y-119744860D01*
X159531169Y-119744275D01*
X159608266Y-119744083D01*
X159662999Y-119744067D01*
X159752206Y-119744146D01*
X159752206Y-119744146D01*
G37*
X159752206Y-119744146D02*
X159821614Y-119744518D01*
X159874003Y-119745385D01*
X159912153Y-119746946D01*
X159938841Y-119749403D01*
X159956847Y-119752957D01*
X159968951Y-119757810D01*
X159977931Y-119764161D01*
X159981182Y-119767084D01*
X160000957Y-119798142D01*
X160004518Y-119833828D01*
X159991509Y-119865510D01*
X159985494Y-119871913D01*
X159975765Y-119878121D01*
X159960099Y-119882910D01*
X159935592Y-119886514D01*
X159899339Y-119889164D01*
X159848435Y-119891095D01*
X159779974Y-119892539D01*
X159717383Y-119893418D01*
X159469666Y-119896467D01*
X159466281Y-119961378D01*
X159462895Y-120026289D01*
X159631042Y-120026289D01*
X159704041Y-120026919D01*
X159757483Y-120029553D01*
X159794372Y-120035309D01*
X159817712Y-120045304D01*
X159830506Y-120060656D01*
X159835758Y-120082482D01*
X159836555Y-120102738D01*
X159834077Y-120127592D01*
X159824723Y-120145906D01*
X159805617Y-120158637D01*
X159773882Y-120166741D01*
X159726641Y-120171176D01*
X159661017Y-120172899D01*
X159625199Y-120173045D01*
X159464022Y-120173045D01*
X159464022Y-120331089D01*
X159712378Y-120331089D01*
X159793787Y-120331202D01*
X159855658Y-120331712D01*
X159901032Y-120332870D01*
X159932946Y-120334930D01*
X159954441Y-120338146D01*
X159968557Y-120342772D01*
X159978332Y-120349059D01*
X159983311Y-120353667D01*
X160000390Y-120380560D01*
X160005889Y-120404467D01*
X159998037Y-120433667D01*
X159983311Y-120455267D01*
X159975454Y-120462066D01*
X159965312Y-120467346D01*
X159950156Y-120471298D01*
X159927259Y-120474113D01*
X159893891Y-120475982D01*
X159847325Y-120477098D01*
X159784833Y-120477651D01*
X159703686Y-120477833D01*
X159661578Y-120477845D01*
X159571402Y-120477765D01*
X159501076Y-120477398D01*
X159447871Y-120476552D01*
X159409060Y-120475036D01*
X159381913Y-120472659D01*
X159363702Y-120469229D01*
X159351700Y-120464554D01*
X159343178Y-120458444D01*
X159339844Y-120455267D01*
X159333245Y-120447670D01*
X159328073Y-120437870D01*
X159324154Y-120423239D01*
X159321316Y-120401152D01*
X159319385Y-120368982D01*
X159318188Y-120324103D01*
X159317552Y-120263889D01*
X159317303Y-120185713D01*
X159317266Y-120112923D01*
X159317300Y-120019707D01*
X159317535Y-119946431D01*
X159318170Y-119890458D01*
X159319406Y-119849151D01*
X159321444Y-119819872D01*
X159324483Y-119799984D01*
X159328723Y-119786850D01*
X159334365Y-119777832D01*
X159341609Y-119770293D01*
X159343394Y-119768612D01*
X159352055Y-119761172D01*
X159362118Y-119755409D01*
X159376375Y-119751112D01*
X159397617Y-119748064D01*
X159428636Y-119746051D01*
X159472223Y-119744860D01*
X159531169Y-119744275D01*
X159608266Y-119744083D01*
X159662999Y-119744067D01*
X159752206Y-119744146D01*
G36*
X160773297Y-119745351D02*
X160848112Y-119750581D01*
X160917694Y-119758750D01*
X160977998Y-119769550D01*
X161024980Y-119782673D01*
X161054594Y-119797813D01*
X161059140Y-119802269D01*
X161074946Y-119836850D01*
X161070153Y-119872351D01*
X161045636Y-119902725D01*
X161044466Y-119903596D01*
X161030046Y-119912954D01*
X161014992Y-119917876D01*
X160993995Y-119918473D01*
X160961743Y-119914861D01*
X160912927Y-119907154D01*
X160909000Y-119906505D01*
X160836261Y-119897569D01*
X160757783Y-119893161D01*
X160679073Y-119893119D01*
X160605639Y-119897279D01*
X160542989Y-119905479D01*
X160496630Y-119917557D01*
X160493584Y-119918771D01*
X160459952Y-119937615D01*
X160448136Y-119956685D01*
X160457386Y-119975439D01*
X160486953Y-119993337D01*
X160536089Y-120009837D01*
X160604043Y-120024396D01*
X160649355Y-120031406D01*
X160743544Y-120044889D01*
X160818456Y-120057214D01*
X160877283Y-120069449D01*
X160923215Y-120082661D01*
X160959445Y-120097917D01*
X160989162Y-120116285D01*
X161015558Y-120138831D01*
X161036770Y-120160971D01*
X161061935Y-120191819D01*
X161074319Y-120218345D01*
X161078192Y-120251026D01*
X161078333Y-120262995D01*
X161075424Y-120302712D01*
X161063798Y-120332259D01*
X161043677Y-120358486D01*
X161002784Y-120398576D01*
X160957183Y-120429149D01*
X160903487Y-120451203D01*
X160838308Y-120465735D01*
X160758256Y-120473741D01*
X160659943Y-120476218D01*
X160643711Y-120476177D01*
X160578151Y-120474818D01*
X160513134Y-120471730D01*
X160455748Y-120467356D01*
X160413078Y-120462140D01*
X160409628Y-120461541D01*
X160367204Y-120451491D01*
X160331220Y-120438796D01*
X160310850Y-120427190D01*
X160291893Y-120396572D01*
X160290573Y-120360918D01*
X160306915Y-120329144D01*
X160310571Y-120325551D01*
X160325685Y-120314876D01*
X160344585Y-120310276D01*
X160373838Y-120311059D01*
X160409349Y-120315127D01*
X160449030Y-120318762D01*
X160504655Y-120321828D01*
X160569594Y-120324053D01*
X160637215Y-120325164D01*
X160655000Y-120325237D01*
X160722872Y-120324964D01*
X160772546Y-120323646D01*
X160808390Y-120320827D01*
X160834776Y-120316050D01*
X160856074Y-120308857D01*
X160868874Y-120302867D01*
X160897000Y-120286233D01*
X160914932Y-120271168D01*
X160917553Y-120266897D01*
X160912024Y-120249263D01*
X160885740Y-120232192D01*
X160840522Y-120216458D01*
X160778192Y-120202838D01*
X160759829Y-120199804D01*
X160663910Y-120184738D01*
X160587359Y-120172146D01*
X160527220Y-120161111D01*
X160480540Y-120150720D01*
X160444363Y-120140056D01*
X160415735Y-120128205D01*
X160391702Y-120114251D01*
X160369308Y-120097281D01*
X160345598Y-120076378D01*
X160337620Y-120069049D01*
X160309647Y-120041699D01*
X160294840Y-120020029D01*
X160289048Y-119995232D01*
X160288111Y-119963983D01*
X160298425Y-119902705D01*
X160329248Y-119850640D01*
X160380405Y-119807958D01*
X160451717Y-119774825D01*
X160502600Y-119759964D01*
X160557900Y-119750366D01*
X160624147Y-119744936D01*
X160697294Y-119743367D01*
X160773297Y-119745351D01*
X160773297Y-119745351D01*
G37*
X160773297Y-119745351D02*
X160848112Y-119750581D01*
X160917694Y-119758750D01*
X160977998Y-119769550D01*
X161024980Y-119782673D01*
X161054594Y-119797813D01*
X161059140Y-119802269D01*
X161074946Y-119836850D01*
X161070153Y-119872351D01*
X161045636Y-119902725D01*
X161044466Y-119903596D01*
X161030046Y-119912954D01*
X161014992Y-119917876D01*
X160993995Y-119918473D01*
X160961743Y-119914861D01*
X160912927Y-119907154D01*
X160909000Y-119906505D01*
X160836261Y-119897569D01*
X160757783Y-119893161D01*
X160679073Y-119893119D01*
X160605639Y-119897279D01*
X160542989Y-119905479D01*
X160496630Y-119917557D01*
X160493584Y-119918771D01*
X160459952Y-119937615D01*
X160448136Y-119956685D01*
X160457386Y-119975439D01*
X160486953Y-119993337D01*
X160536089Y-120009837D01*
X160604043Y-120024396D01*
X160649355Y-120031406D01*
X160743544Y-120044889D01*
X160818456Y-120057214D01*
X160877283Y-120069449D01*
X160923215Y-120082661D01*
X160959445Y-120097917D01*
X160989162Y-120116285D01*
X161015558Y-120138831D01*
X161036770Y-120160971D01*
X161061935Y-120191819D01*
X161074319Y-120218345D01*
X161078192Y-120251026D01*
X161078333Y-120262995D01*
X161075424Y-120302712D01*
X161063798Y-120332259D01*
X161043677Y-120358486D01*
X161002784Y-120398576D01*
X160957183Y-120429149D01*
X160903487Y-120451203D01*
X160838308Y-120465735D01*
X160758256Y-120473741D01*
X160659943Y-120476218D01*
X160643711Y-120476177D01*
X160578151Y-120474818D01*
X160513134Y-120471730D01*
X160455748Y-120467356D01*
X160413078Y-120462140D01*
X160409628Y-120461541D01*
X160367204Y-120451491D01*
X160331220Y-120438796D01*
X160310850Y-120427190D01*
X160291893Y-120396572D01*
X160290573Y-120360918D01*
X160306915Y-120329144D01*
X160310571Y-120325551D01*
X160325685Y-120314876D01*
X160344585Y-120310276D01*
X160373838Y-120311059D01*
X160409349Y-120315127D01*
X160449030Y-120318762D01*
X160504655Y-120321828D01*
X160569594Y-120324053D01*
X160637215Y-120325164D01*
X160655000Y-120325237D01*
X160722872Y-120324964D01*
X160772546Y-120323646D01*
X160808390Y-120320827D01*
X160834776Y-120316050D01*
X160856074Y-120308857D01*
X160868874Y-120302867D01*
X160897000Y-120286233D01*
X160914932Y-120271168D01*
X160917553Y-120266897D01*
X160912024Y-120249263D01*
X160885740Y-120232192D01*
X160840522Y-120216458D01*
X160778192Y-120202838D01*
X160759829Y-120199804D01*
X160663910Y-120184738D01*
X160587359Y-120172146D01*
X160527220Y-120161111D01*
X160480540Y-120150720D01*
X160444363Y-120140056D01*
X160415735Y-120128205D01*
X160391702Y-120114251D01*
X160369308Y-120097281D01*
X160345598Y-120076378D01*
X160337620Y-120069049D01*
X160309647Y-120041699D01*
X160294840Y-120020029D01*
X160289048Y-119995232D01*
X160288111Y-119963983D01*
X160298425Y-119902705D01*
X160329248Y-119850640D01*
X160380405Y-119807958D01*
X160451717Y-119774825D01*
X160502600Y-119759964D01*
X160557900Y-119750366D01*
X160624147Y-119744936D01*
X160697294Y-119743367D01*
X160773297Y-119745351D01*
G36*
X161541178Y-119766645D02*
X161547758Y-119774218D01*
X161552921Y-119783987D01*
X161556836Y-119798571D01*
X161559676Y-119820585D01*
X161561613Y-119852648D01*
X161562817Y-119897375D01*
X161563461Y-119957385D01*
X161563716Y-120035294D01*
X161563755Y-120110956D01*
X161563686Y-120204802D01*
X161563362Y-120278689D01*
X161562614Y-120335232D01*
X161561268Y-120377049D01*
X161559154Y-120406757D01*
X161556100Y-120426973D01*
X161551934Y-120440314D01*
X161546484Y-120449398D01*
X161541178Y-120455267D01*
X161508174Y-120474947D01*
X161473009Y-120473181D01*
X161441545Y-120451717D01*
X161434316Y-120443337D01*
X161428666Y-120433614D01*
X161424401Y-120419861D01*
X161421327Y-120399389D01*
X161419248Y-120369512D01*
X161417970Y-120327541D01*
X161417299Y-120270789D01*
X161417041Y-120196567D01*
X161417000Y-120112537D01*
X161417000Y-119799485D01*
X161444709Y-119771776D01*
X161478863Y-119748463D01*
X161511994Y-119747623D01*
X161541178Y-119766645D01*
X161541178Y-119766645D01*
G37*
X161541178Y-119766645D02*
X161547758Y-119774218D01*
X161552921Y-119783987D01*
X161556836Y-119798571D01*
X161559676Y-119820585D01*
X161561613Y-119852648D01*
X161562817Y-119897375D01*
X161563461Y-119957385D01*
X161563716Y-120035294D01*
X161563755Y-120110956D01*
X161563686Y-120204802D01*
X161563362Y-120278689D01*
X161562614Y-120335232D01*
X161561268Y-120377049D01*
X161559154Y-120406757D01*
X161556100Y-120426973D01*
X161551934Y-120440314D01*
X161546484Y-120449398D01*
X161541178Y-120455267D01*
X161508174Y-120474947D01*
X161473009Y-120473181D01*
X161441545Y-120451717D01*
X161434316Y-120443337D01*
X161428666Y-120433614D01*
X161424401Y-120419861D01*
X161421327Y-120399389D01*
X161419248Y-120369512D01*
X161417970Y-120327541D01*
X161417299Y-120270789D01*
X161417041Y-120196567D01*
X161417000Y-120112537D01*
X161417000Y-119799485D01*
X161444709Y-119771776D01*
X161478863Y-119748463D01*
X161511994Y-119747623D01*
X161541178Y-119766645D01*
G36*
X162514919Y-119749599D02*
X162583435Y-119761095D01*
X162636057Y-119778967D01*
X162670292Y-119802499D01*
X162679621Y-119815924D01*
X162689107Y-119847148D01*
X162682723Y-119875395D01*
X162662570Y-119902182D01*
X162631255Y-119914713D01*
X162585817Y-119913696D01*
X162550674Y-119906906D01*
X162472581Y-119893971D01*
X162392774Y-119892742D01*
X162303445Y-119903241D01*
X162278771Y-119907690D01*
X162195709Y-119931108D01*
X162130727Y-119965945D01*
X162084539Y-120011604D01*
X162057855Y-120067494D01*
X162052337Y-120096388D01*
X162055949Y-120155012D01*
X162079271Y-120206879D01*
X162120176Y-120250978D01*
X162176541Y-120286299D01*
X162246240Y-120311829D01*
X162327148Y-120326559D01*
X162417140Y-120329478D01*
X162514090Y-120319575D01*
X162519564Y-120318641D01*
X162558125Y-120311459D01*
X162579506Y-120304521D01*
X162588773Y-120294227D01*
X162590994Y-120276976D01*
X162591044Y-120267841D01*
X162591044Y-120229489D01*
X162522569Y-120229489D01*
X162462100Y-120225347D01*
X162420835Y-120212147D01*
X162396825Y-120188730D01*
X162388123Y-120153936D01*
X162388017Y-120149394D01*
X162393108Y-120119654D01*
X162410567Y-120098419D01*
X162443061Y-120084366D01*
X162493257Y-120076173D01*
X162541877Y-120073161D01*
X162612544Y-120071433D01*
X162663802Y-120074070D01*
X162698761Y-120083800D01*
X162720530Y-120103353D01*
X162732220Y-120135456D01*
X162736940Y-120182838D01*
X162737800Y-120245071D01*
X162736391Y-120314535D01*
X162732152Y-120361786D01*
X162725064Y-120387012D01*
X162723689Y-120388988D01*
X162684772Y-120420508D01*
X162627714Y-120445470D01*
X162556131Y-120463340D01*
X162473642Y-120473586D01*
X162383861Y-120475673D01*
X162290408Y-120469068D01*
X162235444Y-120460956D01*
X162149234Y-120436554D01*
X162069108Y-120396662D01*
X162002023Y-120344887D01*
X161991827Y-120334539D01*
X161958698Y-120291035D01*
X161928806Y-120237118D01*
X161905643Y-120180592D01*
X161892702Y-120129259D01*
X161891142Y-120109544D01*
X161897782Y-120068419D01*
X161915432Y-120017252D01*
X161940703Y-119963394D01*
X161970211Y-119914195D01*
X161996281Y-119881334D01*
X162057235Y-119832452D01*
X162136031Y-119793545D01*
X162229843Y-119765494D01*
X162335850Y-119749179D01*
X162433000Y-119745192D01*
X162514919Y-119749599D01*
X162514919Y-119749599D01*
G37*
X162514919Y-119749599D02*
X162583435Y-119761095D01*
X162636057Y-119778967D01*
X162670292Y-119802499D01*
X162679621Y-119815924D01*
X162689107Y-119847148D01*
X162682723Y-119875395D01*
X162662570Y-119902182D01*
X162631255Y-119914713D01*
X162585817Y-119913696D01*
X162550674Y-119906906D01*
X162472581Y-119893971D01*
X162392774Y-119892742D01*
X162303445Y-119903241D01*
X162278771Y-119907690D01*
X162195709Y-119931108D01*
X162130727Y-119965945D01*
X162084539Y-120011604D01*
X162057855Y-120067494D01*
X162052337Y-120096388D01*
X162055949Y-120155012D01*
X162079271Y-120206879D01*
X162120176Y-120250978D01*
X162176541Y-120286299D01*
X162246240Y-120311829D01*
X162327148Y-120326559D01*
X162417140Y-120329478D01*
X162514090Y-120319575D01*
X162519564Y-120318641D01*
X162558125Y-120311459D01*
X162579506Y-120304521D01*
X162588773Y-120294227D01*
X162590994Y-120276976D01*
X162591044Y-120267841D01*
X162591044Y-120229489D01*
X162522569Y-120229489D01*
X162462100Y-120225347D01*
X162420835Y-120212147D01*
X162396825Y-120188730D01*
X162388123Y-120153936D01*
X162388017Y-120149394D01*
X162393108Y-120119654D01*
X162410567Y-120098419D01*
X162443061Y-120084366D01*
X162493257Y-120076173D01*
X162541877Y-120073161D01*
X162612544Y-120071433D01*
X162663802Y-120074070D01*
X162698761Y-120083800D01*
X162720530Y-120103353D01*
X162732220Y-120135456D01*
X162736940Y-120182838D01*
X162737800Y-120245071D01*
X162736391Y-120314535D01*
X162732152Y-120361786D01*
X162725064Y-120387012D01*
X162723689Y-120388988D01*
X162684772Y-120420508D01*
X162627714Y-120445470D01*
X162556131Y-120463340D01*
X162473642Y-120473586D01*
X162383861Y-120475673D01*
X162290408Y-120469068D01*
X162235444Y-120460956D01*
X162149234Y-120436554D01*
X162069108Y-120396662D01*
X162002023Y-120344887D01*
X161991827Y-120334539D01*
X161958698Y-120291035D01*
X161928806Y-120237118D01*
X161905643Y-120180592D01*
X161892702Y-120129259D01*
X161891142Y-120109544D01*
X161897782Y-120068419D01*
X161915432Y-120017252D01*
X161940703Y-119963394D01*
X161970211Y-119914195D01*
X161996281Y-119881334D01*
X162057235Y-119832452D01*
X162136031Y-119793545D01*
X162229843Y-119765494D01*
X162335850Y-119749179D01*
X162433000Y-119745192D01*
X162514919Y-119749599D01*
G36*
X163164886Y-119748448D02*
X163188452Y-119762273D01*
X163219265Y-119784881D01*
X163258922Y-119817338D01*
X163309020Y-119860708D01*
X163371157Y-119916058D01*
X163446928Y-119984451D01*
X163533666Y-120063084D01*
X163714289Y-120226878D01*
X163719933Y-120007029D01*
X163721971Y-119931351D01*
X163723937Y-119874994D01*
X163726266Y-119834706D01*
X163729394Y-119807235D01*
X163733755Y-119789329D01*
X163739784Y-119777737D01*
X163747916Y-119769208D01*
X163752228Y-119765623D01*
X163786759Y-119746670D01*
X163819617Y-119749441D01*
X163845682Y-119765633D01*
X163872333Y-119787199D01*
X163875648Y-120102151D01*
X163876565Y-120194779D01*
X163877032Y-120267544D01*
X163876887Y-120323161D01*
X163875968Y-120364342D01*
X163874113Y-120393803D01*
X163871161Y-120414255D01*
X163866950Y-120428413D01*
X163861318Y-120438991D01*
X163855073Y-120447474D01*
X163841561Y-120463207D01*
X163828117Y-120473636D01*
X163812876Y-120477639D01*
X163793974Y-120474094D01*
X163769545Y-120461879D01*
X163737727Y-120439871D01*
X163696652Y-120406949D01*
X163644458Y-120361991D01*
X163579278Y-120303875D01*
X163505444Y-120237099D01*
X163240155Y-119996458D01*
X163234511Y-120215589D01*
X163232469Y-120291128D01*
X163230498Y-120347354D01*
X163228161Y-120387524D01*
X163225019Y-120414896D01*
X163220636Y-120432728D01*
X163214576Y-120444279D01*
X163206400Y-120452807D01*
X163202216Y-120456282D01*
X163165235Y-120475372D01*
X163130292Y-120472493D01*
X163099864Y-120448100D01*
X163092903Y-120438286D01*
X163087477Y-120426826D01*
X163083397Y-120410968D01*
X163080471Y-120387963D01*
X163078508Y-120355062D01*
X163077317Y-120309516D01*
X163076708Y-120248573D01*
X163076489Y-120169486D01*
X163076466Y-120110956D01*
X163076540Y-120019407D01*
X163076887Y-119947687D01*
X163077699Y-119893045D01*
X163079167Y-119852732D01*
X163081481Y-119823998D01*
X163084833Y-119804093D01*
X163089412Y-119790268D01*
X163095411Y-119779772D01*
X163099864Y-119773811D01*
X163111150Y-119759691D01*
X163121699Y-119749029D01*
X163133107Y-119742892D01*
X163146970Y-119742343D01*
X163164886Y-119748448D01*
X163164886Y-119748448D01*
G37*
X163164886Y-119748448D02*
X163188452Y-119762273D01*
X163219265Y-119784881D01*
X163258922Y-119817338D01*
X163309020Y-119860708D01*
X163371157Y-119916058D01*
X163446928Y-119984451D01*
X163533666Y-120063084D01*
X163714289Y-120226878D01*
X163719933Y-120007029D01*
X163721971Y-119931351D01*
X163723937Y-119874994D01*
X163726266Y-119834706D01*
X163729394Y-119807235D01*
X163733755Y-119789329D01*
X163739784Y-119777737D01*
X163747916Y-119769208D01*
X163752228Y-119765623D01*
X163786759Y-119746670D01*
X163819617Y-119749441D01*
X163845682Y-119765633D01*
X163872333Y-119787199D01*
X163875648Y-120102151D01*
X163876565Y-120194779D01*
X163877032Y-120267544D01*
X163876887Y-120323161D01*
X163875968Y-120364342D01*
X163874113Y-120393803D01*
X163871161Y-120414255D01*
X163866950Y-120428413D01*
X163861318Y-120438991D01*
X163855073Y-120447474D01*
X163841561Y-120463207D01*
X163828117Y-120473636D01*
X163812876Y-120477639D01*
X163793974Y-120474094D01*
X163769545Y-120461879D01*
X163737727Y-120439871D01*
X163696652Y-120406949D01*
X163644458Y-120361991D01*
X163579278Y-120303875D01*
X163505444Y-120237099D01*
X163240155Y-119996458D01*
X163234511Y-120215589D01*
X163232469Y-120291128D01*
X163230498Y-120347354D01*
X163228161Y-120387524D01*
X163225019Y-120414896D01*
X163220636Y-120432728D01*
X163214576Y-120444279D01*
X163206400Y-120452807D01*
X163202216Y-120456282D01*
X163165235Y-120475372D01*
X163130292Y-120472493D01*
X163099864Y-120448100D01*
X163092903Y-120438286D01*
X163087477Y-120426826D01*
X163083397Y-120410968D01*
X163080471Y-120387963D01*
X163078508Y-120355062D01*
X163077317Y-120309516D01*
X163076708Y-120248573D01*
X163076489Y-120169486D01*
X163076466Y-120110956D01*
X163076540Y-120019407D01*
X163076887Y-119947687D01*
X163077699Y-119893045D01*
X163079167Y-119852732D01*
X163081481Y-119823998D01*
X163084833Y-119804093D01*
X163089412Y-119790268D01*
X163095411Y-119779772D01*
X163099864Y-119773811D01*
X163111150Y-119759691D01*
X163121699Y-119749029D01*
X163133107Y-119742892D01*
X163146970Y-119742343D01*
X163164886Y-119748448D01*
G36*
X164695343Y-119744260D02*
X164771701Y-119745174D01*
X164830217Y-119747311D01*
X164873255Y-119751175D01*
X164903183Y-119757267D01*
X164922368Y-119766090D01*
X164933176Y-119778146D01*
X164937973Y-119793939D01*
X164939127Y-119813970D01*
X164939133Y-119816335D01*
X164938131Y-119838992D01*
X164933396Y-119856503D01*
X164922333Y-119869574D01*
X164902348Y-119878913D01*
X164870846Y-119885227D01*
X164825232Y-119889222D01*
X164762913Y-119891606D01*
X164681293Y-119893086D01*
X164656277Y-119893414D01*
X164414200Y-119896467D01*
X164410814Y-119961378D01*
X164407429Y-120026289D01*
X164575576Y-120026289D01*
X164641266Y-120026531D01*
X164688172Y-120027556D01*
X164720083Y-120029811D01*
X164740791Y-120033742D01*
X164754084Y-120039798D01*
X164763755Y-120048424D01*
X164763817Y-120048493D01*
X164781356Y-120082112D01*
X164780722Y-120118448D01*
X164762314Y-120149423D01*
X164758671Y-120152607D01*
X164745741Y-120160812D01*
X164728024Y-120166521D01*
X164701570Y-120170162D01*
X164662432Y-120172167D01*
X164606662Y-120172964D01*
X164570994Y-120173045D01*
X164408555Y-120173045D01*
X164408555Y-120331089D01*
X164655161Y-120331089D01*
X164736580Y-120331231D01*
X164798410Y-120331814D01*
X164843637Y-120333068D01*
X164875248Y-120335227D01*
X164896231Y-120338523D01*
X164909573Y-120343189D01*
X164918261Y-120349457D01*
X164920450Y-120351733D01*
X164936614Y-120383280D01*
X164937797Y-120419168D01*
X164924536Y-120450285D01*
X164914043Y-120460271D01*
X164903129Y-120465769D01*
X164886217Y-120470022D01*
X164860633Y-120473180D01*
X164823701Y-120475392D01*
X164772746Y-120476806D01*
X164705094Y-120477572D01*
X164618069Y-120477838D01*
X164598394Y-120477845D01*
X164509911Y-120477787D01*
X164441227Y-120477467D01*
X164389564Y-120476667D01*
X164352145Y-120475167D01*
X164326190Y-120472749D01*
X164308922Y-120469194D01*
X164297562Y-120464282D01*
X164289332Y-120457795D01*
X164284817Y-120453138D01*
X164278021Y-120444889D01*
X164272712Y-120434669D01*
X164268706Y-120419800D01*
X164265821Y-120397602D01*
X164263874Y-120365393D01*
X164262681Y-120320496D01*
X164262061Y-120260228D01*
X164261829Y-120181911D01*
X164261800Y-120115994D01*
X164261871Y-120023628D01*
X164262208Y-119951117D01*
X164262998Y-119895737D01*
X164264426Y-119854765D01*
X164266679Y-119825478D01*
X164269943Y-119805153D01*
X164274404Y-119791066D01*
X164280248Y-119780495D01*
X164285197Y-119773811D01*
X164308594Y-119744067D01*
X164598774Y-119744067D01*
X164695343Y-119744260D01*
X164695343Y-119744260D01*
G37*
X164695343Y-119744260D02*
X164771701Y-119745174D01*
X164830217Y-119747311D01*
X164873255Y-119751175D01*
X164903183Y-119757267D01*
X164922368Y-119766090D01*
X164933176Y-119778146D01*
X164937973Y-119793939D01*
X164939127Y-119813970D01*
X164939133Y-119816335D01*
X164938131Y-119838992D01*
X164933396Y-119856503D01*
X164922333Y-119869574D01*
X164902348Y-119878913D01*
X164870846Y-119885227D01*
X164825232Y-119889222D01*
X164762913Y-119891606D01*
X164681293Y-119893086D01*
X164656277Y-119893414D01*
X164414200Y-119896467D01*
X164410814Y-119961378D01*
X164407429Y-120026289D01*
X164575576Y-120026289D01*
X164641266Y-120026531D01*
X164688172Y-120027556D01*
X164720083Y-120029811D01*
X164740791Y-120033742D01*
X164754084Y-120039798D01*
X164763755Y-120048424D01*
X164763817Y-120048493D01*
X164781356Y-120082112D01*
X164780722Y-120118448D01*
X164762314Y-120149423D01*
X164758671Y-120152607D01*
X164745741Y-120160812D01*
X164728024Y-120166521D01*
X164701570Y-120170162D01*
X164662432Y-120172167D01*
X164606662Y-120172964D01*
X164570994Y-120173045D01*
X164408555Y-120173045D01*
X164408555Y-120331089D01*
X164655161Y-120331089D01*
X164736580Y-120331231D01*
X164798410Y-120331814D01*
X164843637Y-120333068D01*
X164875248Y-120335227D01*
X164896231Y-120338523D01*
X164909573Y-120343189D01*
X164918261Y-120349457D01*
X164920450Y-120351733D01*
X164936614Y-120383280D01*
X164937797Y-120419168D01*
X164924536Y-120450285D01*
X164914043Y-120460271D01*
X164903129Y-120465769D01*
X164886217Y-120470022D01*
X164860633Y-120473180D01*
X164823701Y-120475392D01*
X164772746Y-120476806D01*
X164705094Y-120477572D01*
X164618069Y-120477838D01*
X164598394Y-120477845D01*
X164509911Y-120477787D01*
X164441227Y-120477467D01*
X164389564Y-120476667D01*
X164352145Y-120475167D01*
X164326190Y-120472749D01*
X164308922Y-120469194D01*
X164297562Y-120464282D01*
X164289332Y-120457795D01*
X164284817Y-120453138D01*
X164278021Y-120444889D01*
X164272712Y-120434669D01*
X164268706Y-120419800D01*
X164265821Y-120397602D01*
X164263874Y-120365393D01*
X164262681Y-120320496D01*
X164262061Y-120260228D01*
X164261829Y-120181911D01*
X164261800Y-120115994D01*
X164261871Y-120023628D01*
X164262208Y-119951117D01*
X164262998Y-119895737D01*
X164264426Y-119854765D01*
X164266679Y-119825478D01*
X164269943Y-119805153D01*
X164274404Y-119791066D01*
X164280248Y-119780495D01*
X164285197Y-119773811D01*
X164308594Y-119744067D01*
X164598774Y-119744067D01*
X164695343Y-119744260D01*
G36*
X165483309Y-119744275D02*
X165612288Y-119748636D01*
X165721991Y-119761861D01*
X165814226Y-119784741D01*
X165890802Y-119818070D01*
X165953527Y-119862638D01*
X166004212Y-119919236D01*
X166044663Y-119988658D01*
X166045459Y-119990351D01*
X166069601Y-120052483D01*
X166078203Y-120107509D01*
X166071231Y-120162887D01*
X166048654Y-120226073D01*
X166044372Y-120235689D01*
X166015172Y-120291966D01*
X165982356Y-120335451D01*
X165940002Y-120372417D01*
X165882190Y-120409135D01*
X165878831Y-120411052D01*
X165828504Y-120435227D01*
X165771621Y-120453282D01*
X165704527Y-120465839D01*
X165623565Y-120473522D01*
X165525082Y-120476953D01*
X165490286Y-120477251D01*
X165324594Y-120477845D01*
X165301197Y-120448100D01*
X165294257Y-120438319D01*
X165288842Y-120426897D01*
X165284765Y-120411095D01*
X165281837Y-120388175D01*
X165279867Y-120355396D01*
X165279225Y-120331089D01*
X165435844Y-120331089D01*
X165529726Y-120331089D01*
X165584664Y-120329483D01*
X165641060Y-120325255D01*
X165687345Y-120319292D01*
X165690139Y-120318790D01*
X165772348Y-120296736D01*
X165836114Y-120263600D01*
X165883452Y-120217847D01*
X165916382Y-120157939D01*
X165922108Y-120142061D01*
X165927721Y-120117333D01*
X165925291Y-120092902D01*
X165913467Y-120060400D01*
X165906340Y-120044434D01*
X165883000Y-120002006D01*
X165854880Y-119972240D01*
X165823940Y-119951511D01*
X165761966Y-119924537D01*
X165682651Y-119904998D01*
X165590253Y-119893746D01*
X165523333Y-119891270D01*
X165435844Y-119890822D01*
X165435844Y-120331089D01*
X165279225Y-120331089D01*
X165278668Y-120310021D01*
X165278050Y-120249311D01*
X165277825Y-120170526D01*
X165277800Y-120108920D01*
X165277800Y-119799485D01*
X165305509Y-119771776D01*
X165317806Y-119760544D01*
X165331103Y-119752853D01*
X165349672Y-119748040D01*
X165377786Y-119745446D01*
X165419717Y-119744410D01*
X165479737Y-119744270D01*
X165483309Y-119744275D01*
X165483309Y-119744275D01*
G37*
X165483309Y-119744275D02*
X165612288Y-119748636D01*
X165721991Y-119761861D01*
X165814226Y-119784741D01*
X165890802Y-119818070D01*
X165953527Y-119862638D01*
X166004212Y-119919236D01*
X166044663Y-119988658D01*
X166045459Y-119990351D01*
X166069601Y-120052483D01*
X166078203Y-120107509D01*
X166071231Y-120162887D01*
X166048654Y-120226073D01*
X166044372Y-120235689D01*
X166015172Y-120291966D01*
X165982356Y-120335451D01*
X165940002Y-120372417D01*
X165882190Y-120409135D01*
X165878831Y-120411052D01*
X165828504Y-120435227D01*
X165771621Y-120453282D01*
X165704527Y-120465839D01*
X165623565Y-120473522D01*
X165525082Y-120476953D01*
X165490286Y-120477251D01*
X165324594Y-120477845D01*
X165301197Y-120448100D01*
X165294257Y-120438319D01*
X165288842Y-120426897D01*
X165284765Y-120411095D01*
X165281837Y-120388175D01*
X165279867Y-120355396D01*
X165279225Y-120331089D01*
X165435844Y-120331089D01*
X165529726Y-120331089D01*
X165584664Y-120329483D01*
X165641060Y-120325255D01*
X165687345Y-120319292D01*
X165690139Y-120318790D01*
X165772348Y-120296736D01*
X165836114Y-120263600D01*
X165883452Y-120217847D01*
X165916382Y-120157939D01*
X165922108Y-120142061D01*
X165927721Y-120117333D01*
X165925291Y-120092902D01*
X165913467Y-120060400D01*
X165906340Y-120044434D01*
X165883000Y-120002006D01*
X165854880Y-119972240D01*
X165823940Y-119951511D01*
X165761966Y-119924537D01*
X165682651Y-119904998D01*
X165590253Y-119893746D01*
X165523333Y-119891270D01*
X165435844Y-119890822D01*
X165435844Y-120331089D01*
X165279225Y-120331089D01*
X165278668Y-120310021D01*
X165278050Y-120249311D01*
X165277825Y-120170526D01*
X165277800Y-120108920D01*
X165277800Y-119799485D01*
X165305509Y-119771776D01*
X165317806Y-119760544D01*
X165331103Y-119752853D01*
X165349672Y-119748040D01*
X165377786Y-119745446D01*
X165419717Y-119744410D01*
X165479737Y-119744270D01*
X165483309Y-119744275D01*
G36*
X168209665Y-119746034D02*
X168229255Y-119753035D01*
X168230010Y-119753377D01*
X168256613Y-119773678D01*
X168271270Y-119794561D01*
X168274138Y-119804352D01*
X168273996Y-119817361D01*
X168269961Y-119835895D01*
X168261146Y-119862257D01*
X168246669Y-119898752D01*
X168225645Y-119947687D01*
X168197188Y-120011365D01*
X168160415Y-120092093D01*
X168140175Y-120136216D01*
X168103625Y-120214985D01*
X168069315Y-120287423D01*
X168038552Y-120350880D01*
X168012648Y-120402708D01*
X167992910Y-120440259D01*
X167980650Y-120460884D01*
X167978224Y-120463733D01*
X167947183Y-120476302D01*
X167912121Y-120474619D01*
X167884000Y-120459332D01*
X167882854Y-120458089D01*
X167871668Y-120441154D01*
X167852904Y-120408170D01*
X167828875Y-120363380D01*
X167801897Y-120311032D01*
X167792201Y-120291742D01*
X167719014Y-120145150D01*
X167639240Y-120304393D01*
X167610767Y-120359415D01*
X167584350Y-120407132D01*
X167562148Y-120443893D01*
X167546319Y-120466044D01*
X167540954Y-120470741D01*
X167499257Y-120477102D01*
X167464849Y-120463733D01*
X167454728Y-120449446D01*
X167437214Y-120417692D01*
X167413735Y-120371597D01*
X167385720Y-120314285D01*
X167354599Y-120248880D01*
X167321799Y-120178507D01*
X167288750Y-120106291D01*
X167256881Y-120035355D01*
X167227619Y-119968825D01*
X167202395Y-119909826D01*
X167182636Y-119861481D01*
X167169772Y-119826915D01*
X167165231Y-119809253D01*
X167165277Y-119808613D01*
X167176326Y-119786388D01*
X167198410Y-119763753D01*
X167199710Y-119762768D01*
X167226853Y-119747425D01*
X167251958Y-119747574D01*
X167261368Y-119750466D01*
X167272834Y-119756718D01*
X167285010Y-119769014D01*
X167299357Y-119789908D01*
X167317336Y-119821949D01*
X167340407Y-119867688D01*
X167370030Y-119929677D01*
X167396745Y-119986898D01*
X167427480Y-120053226D01*
X167455021Y-120112874D01*
X167477938Y-120162725D01*
X167494798Y-120199664D01*
X167504173Y-120220573D01*
X167505540Y-120223845D01*
X167511689Y-120218497D01*
X167525822Y-120196109D01*
X167546057Y-120159946D01*
X167570515Y-120113277D01*
X167580248Y-120094022D01*
X167613217Y-120029004D01*
X167638643Y-119981654D01*
X167658612Y-119949219D01*
X167675210Y-119928946D01*
X167690524Y-119918082D01*
X167706640Y-119913875D01*
X167717143Y-119913400D01*
X167735670Y-119915042D01*
X167751904Y-119921831D01*
X167768035Y-119936566D01*
X167786251Y-119962044D01*
X167808739Y-120001061D01*
X167837689Y-120056414D01*
X167853662Y-120087903D01*
X167879570Y-120138087D01*
X167902167Y-120179704D01*
X167919458Y-120209242D01*
X167929450Y-120223189D01*
X167930809Y-120223770D01*
X167937261Y-120212793D01*
X167951708Y-120184290D01*
X167972703Y-120141244D01*
X167998797Y-120086638D01*
X168028546Y-120023454D01*
X168043180Y-119992071D01*
X168081250Y-119911078D01*
X168111905Y-119848756D01*
X168136737Y-119803071D01*
X168157337Y-119771989D01*
X168175298Y-119753478D01*
X168192210Y-119745504D01*
X168209665Y-119746034D01*
X168209665Y-119746034D01*
G37*
X168209665Y-119746034D02*
X168229255Y-119753035D01*
X168230010Y-119753377D01*
X168256613Y-119773678D01*
X168271270Y-119794561D01*
X168274138Y-119804352D01*
X168273996Y-119817361D01*
X168269961Y-119835895D01*
X168261146Y-119862257D01*
X168246669Y-119898752D01*
X168225645Y-119947687D01*
X168197188Y-120011365D01*
X168160415Y-120092093D01*
X168140175Y-120136216D01*
X168103625Y-120214985D01*
X168069315Y-120287423D01*
X168038552Y-120350880D01*
X168012648Y-120402708D01*
X167992910Y-120440259D01*
X167980650Y-120460884D01*
X167978224Y-120463733D01*
X167947183Y-120476302D01*
X167912121Y-120474619D01*
X167884000Y-120459332D01*
X167882854Y-120458089D01*
X167871668Y-120441154D01*
X167852904Y-120408170D01*
X167828875Y-120363380D01*
X167801897Y-120311032D01*
X167792201Y-120291742D01*
X167719014Y-120145150D01*
X167639240Y-120304393D01*
X167610767Y-120359415D01*
X167584350Y-120407132D01*
X167562148Y-120443893D01*
X167546319Y-120466044D01*
X167540954Y-120470741D01*
X167499257Y-120477102D01*
X167464849Y-120463733D01*
X167454728Y-120449446D01*
X167437214Y-120417692D01*
X167413735Y-120371597D01*
X167385720Y-120314285D01*
X167354599Y-120248880D01*
X167321799Y-120178507D01*
X167288750Y-120106291D01*
X167256881Y-120035355D01*
X167227619Y-119968825D01*
X167202395Y-119909826D01*
X167182636Y-119861481D01*
X167169772Y-119826915D01*
X167165231Y-119809253D01*
X167165277Y-119808613D01*
X167176326Y-119786388D01*
X167198410Y-119763753D01*
X167199710Y-119762768D01*
X167226853Y-119747425D01*
X167251958Y-119747574D01*
X167261368Y-119750466D01*
X167272834Y-119756718D01*
X167285010Y-119769014D01*
X167299357Y-119789908D01*
X167317336Y-119821949D01*
X167340407Y-119867688D01*
X167370030Y-119929677D01*
X167396745Y-119986898D01*
X167427480Y-120053226D01*
X167455021Y-120112874D01*
X167477938Y-120162725D01*
X167494798Y-120199664D01*
X167504173Y-120220573D01*
X167505540Y-120223845D01*
X167511689Y-120218497D01*
X167525822Y-120196109D01*
X167546057Y-120159946D01*
X167570515Y-120113277D01*
X167580248Y-120094022D01*
X167613217Y-120029004D01*
X167638643Y-119981654D01*
X167658612Y-119949219D01*
X167675210Y-119928946D01*
X167690524Y-119918082D01*
X167706640Y-119913875D01*
X167717143Y-119913400D01*
X167735670Y-119915042D01*
X167751904Y-119921831D01*
X167768035Y-119936566D01*
X167786251Y-119962044D01*
X167808739Y-120001061D01*
X167837689Y-120056414D01*
X167853662Y-120087903D01*
X167879570Y-120138087D01*
X167902167Y-120179704D01*
X167919458Y-120209242D01*
X167929450Y-120223189D01*
X167930809Y-120223770D01*
X167937261Y-120212793D01*
X167951708Y-120184290D01*
X167972703Y-120141244D01*
X167998797Y-120086638D01*
X168028546Y-120023454D01*
X168043180Y-119992071D01*
X168081250Y-119911078D01*
X168111905Y-119848756D01*
X168136737Y-119803071D01*
X168157337Y-119771989D01*
X168175298Y-119753478D01*
X168192210Y-119745504D01*
X168209665Y-119746034D01*
G36*
X168653614Y-119750877D02*
X168677327Y-119765647D01*
X168703978Y-119787227D01*
X168703978Y-120108773D01*
X168703893Y-120202830D01*
X168703529Y-120276932D01*
X168702724Y-120333704D01*
X168701313Y-120375768D01*
X168699133Y-120405748D01*
X168696021Y-120426267D01*
X168691814Y-120439949D01*
X168686348Y-120449416D01*
X168682472Y-120454082D01*
X168651034Y-120474575D01*
X168615233Y-120473739D01*
X168583873Y-120456264D01*
X168557222Y-120434684D01*
X168557222Y-119787227D01*
X168583873Y-119765647D01*
X168609594Y-119749949D01*
X168630600Y-119744067D01*
X168653614Y-119750877D01*
X168653614Y-119750877D01*
G37*
X168653614Y-119750877D02*
X168677327Y-119765647D01*
X168703978Y-119787227D01*
X168703978Y-120108773D01*
X168703893Y-120202830D01*
X168703529Y-120276932D01*
X168702724Y-120333704D01*
X168701313Y-120375768D01*
X168699133Y-120405748D01*
X168696021Y-120426267D01*
X168691814Y-120439949D01*
X168686348Y-120449416D01*
X168682472Y-120454082D01*
X168651034Y-120474575D01*
X168615233Y-120473739D01*
X168583873Y-120456264D01*
X168557222Y-120434684D01*
X168557222Y-119787227D01*
X168583873Y-119765647D01*
X168609594Y-119749949D01*
X168630600Y-119744067D01*
X168653614Y-119750877D01*
G36*
X169428065Y-119744163D02*
X169506772Y-119744542D01*
X169567863Y-119745333D01*
X169613817Y-119746670D01*
X169647114Y-119748683D01*
X169670236Y-119751506D01*
X169685662Y-119755269D01*
X169695871Y-119760105D01*
X169700813Y-119763822D01*
X169726457Y-119796358D01*
X169729559Y-119830138D01*
X169713711Y-119860826D01*
X169703348Y-119873089D01*
X169692196Y-119881450D01*
X169676035Y-119886657D01*
X169650642Y-119889457D01*
X169611798Y-119890596D01*
X169555280Y-119890821D01*
X169544180Y-119890822D01*
X169398244Y-119890822D01*
X169398244Y-120161756D01*
X169398148Y-120247154D01*
X169397711Y-120312864D01*
X169396712Y-120361774D01*
X169394928Y-120396773D01*
X169392137Y-120420749D01*
X169388117Y-120436593D01*
X169382645Y-120447191D01*
X169375666Y-120455267D01*
X169342734Y-120475112D01*
X169308354Y-120473548D01*
X169277176Y-120450906D01*
X169274886Y-120448100D01*
X169267429Y-120437492D01*
X169261747Y-120425081D01*
X169257601Y-120407850D01*
X169254750Y-120382784D01*
X169252954Y-120346867D01*
X169251972Y-120297083D01*
X169251564Y-120230417D01*
X169251489Y-120154589D01*
X169251489Y-119890822D01*
X169112127Y-119890822D01*
X169052322Y-119890418D01*
X169010918Y-119888840D01*
X168983748Y-119885547D01*
X168966646Y-119879992D01*
X168955443Y-119871631D01*
X168954083Y-119870178D01*
X168937725Y-119836939D01*
X168939172Y-119799362D01*
X168957978Y-119766645D01*
X168965250Y-119760298D01*
X168974627Y-119755266D01*
X168988609Y-119751396D01*
X169009696Y-119748537D01*
X169040389Y-119746535D01*
X169083189Y-119745239D01*
X169140595Y-119744498D01*
X169215110Y-119744158D01*
X169309233Y-119744068D01*
X169329260Y-119744067D01*
X169428065Y-119744163D01*
X169428065Y-119744163D01*
G37*
X169428065Y-119744163D02*
X169506772Y-119744542D01*
X169567863Y-119745333D01*
X169613817Y-119746670D01*
X169647114Y-119748683D01*
X169670236Y-119751506D01*
X169685662Y-119755269D01*
X169695871Y-119760105D01*
X169700813Y-119763822D01*
X169726457Y-119796358D01*
X169729559Y-119830138D01*
X169713711Y-119860826D01*
X169703348Y-119873089D01*
X169692196Y-119881450D01*
X169676035Y-119886657D01*
X169650642Y-119889457D01*
X169611798Y-119890596D01*
X169555280Y-119890821D01*
X169544180Y-119890822D01*
X169398244Y-119890822D01*
X169398244Y-120161756D01*
X169398148Y-120247154D01*
X169397711Y-120312864D01*
X169396712Y-120361774D01*
X169394928Y-120396773D01*
X169392137Y-120420749D01*
X169388117Y-120436593D01*
X169382645Y-120447191D01*
X169375666Y-120455267D01*
X169342734Y-120475112D01*
X169308354Y-120473548D01*
X169277176Y-120450906D01*
X169274886Y-120448100D01*
X169267429Y-120437492D01*
X169261747Y-120425081D01*
X169257601Y-120407850D01*
X169254750Y-120382784D01*
X169252954Y-120346867D01*
X169251972Y-120297083D01*
X169251564Y-120230417D01*
X169251489Y-120154589D01*
X169251489Y-119890822D01*
X169112127Y-119890822D01*
X169052322Y-119890418D01*
X169010918Y-119888840D01*
X168983748Y-119885547D01*
X168966646Y-119879992D01*
X168955443Y-119871631D01*
X168954083Y-119870178D01*
X168937725Y-119836939D01*
X168939172Y-119799362D01*
X168957978Y-119766645D01*
X168965250Y-119760298D01*
X168974627Y-119755266D01*
X168988609Y-119751396D01*
X169009696Y-119748537D01*
X169040389Y-119746535D01*
X169083189Y-119745239D01*
X169140595Y-119744498D01*
X169215110Y-119744158D01*
X169309233Y-119744068D01*
X169329260Y-119744067D01*
X169428065Y-119744163D01*
G36*
X170693823Y-119749533D02*
X170725202Y-119771776D01*
X170752911Y-119799485D01*
X170752911Y-120108920D01*
X170752838Y-120200799D01*
X170752495Y-120272840D01*
X170751692Y-120327780D01*
X170750241Y-120368360D01*
X170747952Y-120397317D01*
X170744636Y-120417391D01*
X170740105Y-120431321D01*
X170734169Y-120441845D01*
X170729514Y-120448100D01*
X170698783Y-120472673D01*
X170663496Y-120475341D01*
X170631245Y-120460271D01*
X170620588Y-120451374D01*
X170613464Y-120439557D01*
X170609167Y-120420526D01*
X170606991Y-120389992D01*
X170606228Y-120343662D01*
X170606155Y-120307871D01*
X170606155Y-120173045D01*
X170109444Y-120173045D01*
X170109444Y-120295700D01*
X170108931Y-120351787D01*
X170106876Y-120390333D01*
X170102508Y-120416361D01*
X170095056Y-120434897D01*
X170086047Y-120448100D01*
X170055144Y-120472604D01*
X170020196Y-120475506D01*
X169986738Y-120458089D01*
X169977604Y-120448959D01*
X169971152Y-120436855D01*
X169966897Y-120418001D01*
X169964352Y-120388620D01*
X169963029Y-120344937D01*
X169962443Y-120283175D01*
X169962375Y-120269000D01*
X169961891Y-120152631D01*
X169961641Y-120056727D01*
X169961723Y-119979177D01*
X169962231Y-119917869D01*
X169963262Y-119870690D01*
X169964913Y-119835530D01*
X169967279Y-119810276D01*
X169970457Y-119792817D01*
X169974544Y-119781041D01*
X169979634Y-119772835D01*
X169985266Y-119766645D01*
X170017128Y-119746844D01*
X170050357Y-119749533D01*
X170081735Y-119771776D01*
X170094433Y-119786126D01*
X170102526Y-119801978D01*
X170107042Y-119824554D01*
X170109006Y-119859078D01*
X170109444Y-119910776D01*
X170109444Y-120026289D01*
X170606155Y-120026289D01*
X170606155Y-119907756D01*
X170606662Y-119853148D01*
X170608698Y-119816275D01*
X170613035Y-119792307D01*
X170620447Y-119776415D01*
X170628733Y-119766645D01*
X170660594Y-119746844D01*
X170693823Y-119749533D01*
X170693823Y-119749533D01*
G37*
X170693823Y-119749533D02*
X170725202Y-119771776D01*
X170752911Y-119799485D01*
X170752911Y-120108920D01*
X170752838Y-120200799D01*
X170752495Y-120272840D01*
X170751692Y-120327780D01*
X170750241Y-120368360D01*
X170747952Y-120397317D01*
X170744636Y-120417391D01*
X170740105Y-120431321D01*
X170734169Y-120441845D01*
X170729514Y-120448100D01*
X170698783Y-120472673D01*
X170663496Y-120475341D01*
X170631245Y-120460271D01*
X170620588Y-120451374D01*
X170613464Y-120439557D01*
X170609167Y-120420526D01*
X170606991Y-120389992D01*
X170606228Y-120343662D01*
X170606155Y-120307871D01*
X170606155Y-120173045D01*
X170109444Y-120173045D01*
X170109444Y-120295700D01*
X170108931Y-120351787D01*
X170106876Y-120390333D01*
X170102508Y-120416361D01*
X170095056Y-120434897D01*
X170086047Y-120448100D01*
X170055144Y-120472604D01*
X170020196Y-120475506D01*
X169986738Y-120458089D01*
X169977604Y-120448959D01*
X169971152Y-120436855D01*
X169966897Y-120418001D01*
X169964352Y-120388620D01*
X169963029Y-120344937D01*
X169962443Y-120283175D01*
X169962375Y-120269000D01*
X169961891Y-120152631D01*
X169961641Y-120056727D01*
X169961723Y-119979177D01*
X169962231Y-119917869D01*
X169963262Y-119870690D01*
X169964913Y-119835530D01*
X169967279Y-119810276D01*
X169970457Y-119792817D01*
X169974544Y-119781041D01*
X169979634Y-119772835D01*
X169985266Y-119766645D01*
X170017128Y-119746844D01*
X170050357Y-119749533D01*
X170081735Y-119771776D01*
X170094433Y-119786126D01*
X170102526Y-119801978D01*
X170107042Y-119824554D01*
X170109006Y-119859078D01*
X170109444Y-119910776D01*
X170109444Y-120026289D01*
X170606155Y-120026289D01*
X170606155Y-119907756D01*
X170606662Y-119853148D01*
X170608698Y-119816275D01*
X170613035Y-119792307D01*
X170620447Y-119776415D01*
X170628733Y-119766645D01*
X170660594Y-119746844D01*
X170693823Y-119749533D01*
D12*
X150963334Y-84177143D02*
X150915715Y-84224762D01*
X150772858Y-84272381D01*
X150677620Y-84272381D01*
X150534762Y-84224762D01*
X150439524Y-84129524D01*
X150391905Y-84034286D01*
X150344286Y-83843810D01*
X150344286Y-83700952D01*
X150391905Y-83510476D01*
X150439524Y-83415238D01*
X150534762Y-83320000D01*
X150677620Y-83272381D01*
X150772858Y-83272381D01*
X150915715Y-83320000D01*
X150963334Y-83367619D01*
X151915715Y-84272381D02*
X151344286Y-84272381D01*
X151630000Y-84272381D02*
X151630000Y-83272381D01*
X151534762Y-83415238D01*
X151439524Y-83510476D01*
X151344286Y-83558095D01*
X136993334Y-84177143D02*
X136945715Y-84224762D01*
X136802858Y-84272381D01*
X136707620Y-84272381D01*
X136564762Y-84224762D01*
X136469524Y-84129524D01*
X136421905Y-84034286D01*
X136374286Y-83843810D01*
X136374286Y-83700952D01*
X136421905Y-83510476D01*
X136469524Y-83415238D01*
X136564762Y-83320000D01*
X136707620Y-83272381D01*
X136802858Y-83272381D01*
X136945715Y-83320000D01*
X136993334Y-83367619D01*
X137326667Y-83272381D02*
X137945715Y-83272381D01*
X137612381Y-83653333D01*
X137755239Y-83653333D01*
X137850477Y-83700952D01*
X137898096Y-83748571D01*
X137945715Y-83843810D01*
X137945715Y-84081905D01*
X137898096Y-84177143D01*
X137850477Y-84224762D01*
X137755239Y-84272381D01*
X137469524Y-84272381D01*
X137374286Y-84224762D01*
X137326667Y-84177143D01*
X143842858Y-89040354D02*
X144415278Y-89612774D01*
X144516293Y-89646446D01*
X144583636Y-89646446D01*
X144684651Y-89612774D01*
X144819339Y-89478086D01*
X144853011Y-89377071D01*
X144853011Y-89309728D01*
X144819339Y-89208713D01*
X144246919Y-88636293D01*
X144516293Y-88366919D02*
X144954026Y-87929186D01*
X144987697Y-88434262D01*
X145088713Y-88333247D01*
X145189728Y-88299575D01*
X145257071Y-88299575D01*
X145358087Y-88333247D01*
X145526446Y-88501606D01*
X145560117Y-88602621D01*
X145560117Y-88669964D01*
X145526446Y-88770980D01*
X145324415Y-88973011D01*
X145223400Y-89006682D01*
X145156056Y-89006682D01*
X166878095Y-73874381D02*
X166878095Y-74683905D01*
X166925714Y-74779143D01*
X166973333Y-74826762D01*
X167068571Y-74874381D01*
X167259048Y-74874381D01*
X167354286Y-74826762D01*
X167401905Y-74779143D01*
X167449524Y-74683905D01*
X167449524Y-73874381D01*
X168449524Y-74874381D02*
X167878095Y-74874381D01*
X168163809Y-74874381D02*
X168163809Y-73874381D01*
X168068571Y-74017238D01*
X167973333Y-74112476D01*
X167878095Y-74160095D01*
X111768095Y-103592381D02*
X112339524Y-103592381D01*
X112053809Y-104592381D02*
X112053809Y-103592381D01*
X112672857Y-104592381D02*
X112672857Y-103592381D01*
X113053810Y-103592381D01*
X113149048Y-103640000D01*
X113196667Y-103687619D01*
X113244286Y-103782857D01*
X113244286Y-103925714D01*
X113196667Y-104020952D01*
X113149048Y-104068571D01*
X113053810Y-104116190D01*
X112672857Y-104116190D01*
X114196667Y-104592381D02*
X113625238Y-104592381D01*
X113910952Y-104592381D02*
X113910952Y-103592381D01*
X113815714Y-103735238D01*
X113720476Y-103830476D01*
X113625238Y-103878095D01*
X138334762Y-112017619D02*
X138239524Y-111970000D01*
X138144286Y-111874762D01*
X138001429Y-111731905D01*
X137906190Y-111684286D01*
X137810952Y-111684286D01*
X137858571Y-111922381D02*
X137763333Y-111874762D01*
X137668095Y-111779524D01*
X137620476Y-111589048D01*
X137620476Y-111255714D01*
X137668095Y-111065238D01*
X137763333Y-110970000D01*
X137858571Y-110922381D01*
X138049048Y-110922381D01*
X138144286Y-110970000D01*
X138239524Y-111065238D01*
X138287143Y-111255714D01*
X138287143Y-111589048D01*
X138239524Y-111779524D01*
X138144286Y-111874762D01*
X138049048Y-111922381D01*
X137858571Y-111922381D01*
X138620476Y-110922381D02*
X139239524Y-110922381D01*
X138906190Y-111303333D01*
X139049048Y-111303333D01*
X139144286Y-111350952D01*
X139191905Y-111398571D01*
X139239524Y-111493810D01*
X139239524Y-111731905D01*
X139191905Y-111827143D01*
X139144286Y-111874762D01*
X139049048Y-111922381D01*
X138763333Y-111922381D01*
X138668095Y-111874762D01*
X138620476Y-111827143D01*
X150272762Y-109985619D02*
X150177524Y-109938000D01*
X150082286Y-109842762D01*
X149939429Y-109699905D01*
X149844190Y-109652286D01*
X149748952Y-109652286D01*
X149796571Y-109890381D02*
X149701333Y-109842762D01*
X149606095Y-109747524D01*
X149558476Y-109557048D01*
X149558476Y-109223714D01*
X149606095Y-109033238D01*
X149701333Y-108938000D01*
X149796571Y-108890381D01*
X149987048Y-108890381D01*
X150082286Y-108938000D01*
X150177524Y-109033238D01*
X150225143Y-109223714D01*
X150225143Y-109557048D01*
X150177524Y-109747524D01*
X150082286Y-109842762D01*
X149987048Y-109890381D01*
X149796571Y-109890381D01*
X150606095Y-108985619D02*
X150653714Y-108938000D01*
X150748952Y-108890381D01*
X150987048Y-108890381D01*
X151082286Y-108938000D01*
X151129905Y-108985619D01*
X151177524Y-109080857D01*
X151177524Y-109176095D01*
X151129905Y-109318952D01*
X150558476Y-109890381D01*
X151177524Y-109890381D01*
X161448762Y-112017619D02*
X161353524Y-111970000D01*
X161258286Y-111874762D01*
X161115429Y-111731905D01*
X161020190Y-111684286D01*
X160924952Y-111684286D01*
X160972571Y-111922381D02*
X160877333Y-111874762D01*
X160782095Y-111779524D01*
X160734476Y-111589048D01*
X160734476Y-111255714D01*
X160782095Y-111065238D01*
X160877333Y-110970000D01*
X160972571Y-110922381D01*
X161163048Y-110922381D01*
X161258286Y-110970000D01*
X161353524Y-111065238D01*
X161401143Y-111255714D01*
X161401143Y-111589048D01*
X161353524Y-111779524D01*
X161258286Y-111874762D01*
X161163048Y-111922381D01*
X160972571Y-111922381D01*
X162353524Y-111922381D02*
X161782095Y-111922381D01*
X162067809Y-111922381D02*
X162067809Y-110922381D01*
X161972571Y-111065238D01*
X161877333Y-111160476D01*
X161782095Y-111208095D01*
X167473334Y-88622143D02*
X167425715Y-88669762D01*
X167282858Y-88717381D01*
X167187620Y-88717381D01*
X167044762Y-88669762D01*
X166949524Y-88574524D01*
X166901905Y-88479286D01*
X166854286Y-88288810D01*
X166854286Y-88145952D01*
X166901905Y-87955476D01*
X166949524Y-87860238D01*
X167044762Y-87765000D01*
X167187620Y-87717381D01*
X167282858Y-87717381D01*
X167425715Y-87765000D01*
X167473334Y-87812619D01*
X167854286Y-87812619D02*
X167901905Y-87765000D01*
X167997143Y-87717381D01*
X168235239Y-87717381D01*
X168330477Y-87765000D01*
X168378096Y-87812619D01*
X168425715Y-87907857D01*
X168425715Y-88003095D01*
X168378096Y-88145952D01*
X167806667Y-88717381D01*
X168425715Y-88717381D01*
X156638667Y-108672381D02*
X156638667Y-109386667D01*
X156591047Y-109529524D01*
X156495809Y-109624762D01*
X156352952Y-109672381D01*
X156257714Y-109672381D01*
X157638667Y-109672381D02*
X157067238Y-109672381D01*
X157352952Y-109672381D02*
X157352952Y-108672381D01*
X157257714Y-108815238D01*
X157162476Y-108910476D01*
X157067238Y-108958095D01*
X166028381Y-80494095D02*
X165028381Y-80494095D01*
X165028381Y-80256000D01*
X165076000Y-80113142D01*
X165171238Y-80017904D01*
X165266476Y-79970285D01*
X165456952Y-79922666D01*
X165599810Y-79922666D01*
X165790286Y-79970285D01*
X165885524Y-80017904D01*
X165980762Y-80113142D01*
X166028381Y-80256000D01*
X166028381Y-80494095D01*
X166028381Y-78970285D02*
X166028381Y-79541714D01*
X166028381Y-79256000D02*
X165028381Y-79256000D01*
X165171238Y-79351238D01*
X165266476Y-79446476D01*
X165314095Y-79541714D01*
X139977905Y-91352381D02*
X139977905Y-90352381D01*
X140216000Y-90352381D01*
X140358858Y-90400000D01*
X140454096Y-90495238D01*
X140501715Y-90590476D01*
X140549334Y-90780952D01*
X140549334Y-90923810D01*
X140501715Y-91114286D01*
X140454096Y-91209524D01*
X140358858Y-91304762D01*
X140216000Y-91352381D01*
X139977905Y-91352381D01*
X140930286Y-90447619D02*
X140977905Y-90400000D01*
X141073143Y-90352381D01*
X141311239Y-90352381D01*
X141406477Y-90400000D01*
X141454096Y-90447619D01*
X141501715Y-90542857D01*
X141501715Y-90638095D01*
X141454096Y-90780952D01*
X140882667Y-91352381D01*
X141501715Y-91352381D01*
X180617905Y-89892381D02*
X180617905Y-88892381D01*
X180856000Y-88892381D01*
X180998858Y-88940000D01*
X181094096Y-89035238D01*
X181141715Y-89130476D01*
X181189334Y-89320952D01*
X181189334Y-89463810D01*
X181141715Y-89654286D01*
X181094096Y-89749524D01*
X180998858Y-89844762D01*
X180856000Y-89892381D01*
X180617905Y-89892381D01*
X181522667Y-88892381D02*
X182141715Y-88892381D01*
X181808381Y-89273333D01*
X181951239Y-89273333D01*
X182046477Y-89320952D01*
X182094096Y-89368571D01*
X182141715Y-89463810D01*
X182141715Y-89701905D01*
X182094096Y-89797143D01*
X182046477Y-89844762D01*
X181951239Y-89892381D01*
X181665524Y-89892381D01*
X181570286Y-89844762D01*
X181522667Y-89797143D01*
X118641905Y-91352381D02*
X118641905Y-90352381D01*
X118880000Y-90352381D01*
X119022858Y-90400000D01*
X119118096Y-90495238D01*
X119165715Y-90590476D01*
X119213334Y-90780952D01*
X119213334Y-90923810D01*
X119165715Y-91114286D01*
X119118096Y-91209524D01*
X119022858Y-91304762D01*
X118880000Y-91352381D01*
X118641905Y-91352381D01*
X120070477Y-90685714D02*
X120070477Y-91352381D01*
X119832381Y-90304762D02*
X119594286Y-91019048D01*
X120213334Y-91019048D01*
X158948381Y-79160666D02*
X158472190Y-79494000D01*
X158948381Y-79732095D02*
X157948381Y-79732095D01*
X157948381Y-79351142D01*
X157996000Y-79255904D01*
X158043619Y-79208285D01*
X158138857Y-79160666D01*
X158281714Y-79160666D01*
X158376952Y-79208285D01*
X158424571Y-79255904D01*
X158472190Y-79351142D01*
X158472190Y-79732095D01*
X158948381Y-78208285D02*
X158948381Y-78779714D01*
X158948381Y-78494000D02*
X157948381Y-78494000D01*
X158091238Y-78589238D01*
X158186476Y-78684476D01*
X158234095Y-78779714D01*
X134453334Y-87052381D02*
X134120000Y-86576190D01*
X133881905Y-87052381D02*
X133881905Y-86052381D01*
X134262858Y-86052381D01*
X134358096Y-86100000D01*
X134405715Y-86147619D01*
X134453334Y-86242857D01*
X134453334Y-86385714D01*
X134405715Y-86480952D01*
X134358096Y-86528571D01*
X134262858Y-86576190D01*
X133881905Y-86576190D01*
X134834286Y-86147619D02*
X134881905Y-86100000D01*
X134977143Y-86052381D01*
X135215239Y-86052381D01*
X135310477Y-86100000D01*
X135358096Y-86147619D01*
X135405715Y-86242857D01*
X135405715Y-86338095D01*
X135358096Y-86480952D01*
X134786667Y-87052381D01*
X135405715Y-87052381D01*
X129117381Y-94146666D02*
X128641190Y-94480000D01*
X129117381Y-94718095D02*
X128117381Y-94718095D01*
X128117381Y-94337142D01*
X128165000Y-94241904D01*
X128212619Y-94194285D01*
X128307857Y-94146666D01*
X128450714Y-94146666D01*
X128545952Y-94194285D01*
X128593571Y-94241904D01*
X128641190Y-94337142D01*
X128641190Y-94718095D01*
X128117381Y-93813333D02*
X128117381Y-93194285D01*
X128498333Y-93527619D01*
X128498333Y-93384761D01*
X128545952Y-93289523D01*
X128593571Y-93241904D01*
X128688810Y-93194285D01*
X128926905Y-93194285D01*
X129022143Y-93241904D01*
X129069762Y-93289523D01*
X129117381Y-93384761D01*
X129117381Y-93670476D01*
X129069762Y-93765714D01*
X129022143Y-93813333D01*
X144613334Y-107132381D02*
X144280000Y-106656190D01*
X144041905Y-107132381D02*
X144041905Y-106132381D01*
X144422858Y-106132381D01*
X144518096Y-106180000D01*
X144565715Y-106227619D01*
X144613334Y-106322857D01*
X144613334Y-106465714D01*
X144565715Y-106560952D01*
X144518096Y-106608571D01*
X144422858Y-106656190D01*
X144041905Y-106656190D01*
X145470477Y-106465714D02*
X145470477Y-107132381D01*
X145232381Y-106084762D02*
X144994286Y-106799048D01*
X145613334Y-106799048D01*
X155789334Y-106624381D02*
X155456000Y-106148190D01*
X155217905Y-106624381D02*
X155217905Y-105624381D01*
X155598858Y-105624381D01*
X155694096Y-105672000D01*
X155741715Y-105719619D01*
X155789334Y-105814857D01*
X155789334Y-105957714D01*
X155741715Y-106052952D01*
X155694096Y-106100571D01*
X155598858Y-106148190D01*
X155217905Y-106148190D01*
X156694096Y-105624381D02*
X156217905Y-105624381D01*
X156170286Y-106100571D01*
X156217905Y-106052952D01*
X156313143Y-106005333D01*
X156551239Y-106005333D01*
X156646477Y-106052952D01*
X156694096Y-106100571D01*
X156741715Y-106195810D01*
X156741715Y-106433905D01*
X156694096Y-106529143D01*
X156646477Y-106576762D01*
X156551239Y-106624381D01*
X156313143Y-106624381D01*
X156217905Y-106576762D01*
X156170286Y-106529143D01*
X175093334Y-89592381D02*
X174760000Y-89116190D01*
X174521905Y-89592381D02*
X174521905Y-88592381D01*
X174902858Y-88592381D01*
X174998096Y-88640000D01*
X175045715Y-88687619D01*
X175093334Y-88782857D01*
X175093334Y-88925714D01*
X175045715Y-89020952D01*
X174998096Y-89068571D01*
X174902858Y-89116190D01*
X174521905Y-89116190D01*
X175950477Y-88592381D02*
X175760000Y-88592381D01*
X175664762Y-88640000D01*
X175617143Y-88687619D01*
X175521905Y-88830476D01*
X175474286Y-89020952D01*
X175474286Y-89401905D01*
X175521905Y-89497143D01*
X175569524Y-89544762D01*
X175664762Y-89592381D01*
X175855239Y-89592381D01*
X175950477Y-89544762D01*
X175998096Y-89497143D01*
X176045715Y-89401905D01*
X176045715Y-89163810D01*
X175998096Y-89068571D01*
X175950477Y-89020952D01*
X175855239Y-88973333D01*
X175664762Y-88973333D01*
X175569524Y-89020952D01*
X175521905Y-89068571D01*
X175474286Y-89163810D01*
X163028334Y-106892381D02*
X162695000Y-106416190D01*
X162456905Y-106892381D02*
X162456905Y-105892381D01*
X162837858Y-105892381D01*
X162933096Y-105940000D01*
X162980715Y-105987619D01*
X163028334Y-106082857D01*
X163028334Y-106225714D01*
X162980715Y-106320952D01*
X162933096Y-106368571D01*
X162837858Y-106416190D01*
X162456905Y-106416190D01*
X163361667Y-105892381D02*
X164028334Y-105892381D01*
X163599762Y-106892381D01*
X168360381Y-109386666D02*
X167884190Y-109720000D01*
X168360381Y-109958095D02*
X167360381Y-109958095D01*
X167360381Y-109577142D01*
X167408000Y-109481904D01*
X167455619Y-109434285D01*
X167550857Y-109386666D01*
X167693714Y-109386666D01*
X167788952Y-109434285D01*
X167836571Y-109481904D01*
X167884190Y-109577142D01*
X167884190Y-109958095D01*
X167788952Y-108815238D02*
X167741333Y-108910476D01*
X167693714Y-108958095D01*
X167598476Y-109005714D01*
X167550857Y-109005714D01*
X167455619Y-108958095D01*
X167408000Y-108910476D01*
X167360381Y-108815238D01*
X167360381Y-108624761D01*
X167408000Y-108529523D01*
X167455619Y-108481904D01*
X167550857Y-108434285D01*
X167598476Y-108434285D01*
X167693714Y-108481904D01*
X167741333Y-108529523D01*
X167788952Y-108624761D01*
X167788952Y-108815238D01*
X167836571Y-108910476D01*
X167884190Y-108958095D01*
X167979429Y-109005714D01*
X168169905Y-109005714D01*
X168265143Y-108958095D01*
X168312762Y-108910476D01*
X168360381Y-108815238D01*
X168360381Y-108624761D01*
X168312762Y-108529523D01*
X168265143Y-108481904D01*
X168169905Y-108434285D01*
X167979429Y-108434285D01*
X167884190Y-108481904D01*
X167836571Y-108529523D01*
X167788952Y-108624761D01*
X142581334Y-111958381D02*
X142248000Y-111482190D01*
X142009905Y-111958381D02*
X142009905Y-110958381D01*
X142390858Y-110958381D01*
X142486096Y-111006000D01*
X142533715Y-111053619D01*
X142581334Y-111148857D01*
X142581334Y-111291714D01*
X142533715Y-111386952D01*
X142486096Y-111434571D01*
X142390858Y-111482190D01*
X142009905Y-111482190D01*
X143057524Y-111958381D02*
X143248000Y-111958381D01*
X143343239Y-111910762D01*
X143390858Y-111863143D01*
X143486096Y-111720286D01*
X143533715Y-111529810D01*
X143533715Y-111148857D01*
X143486096Y-111053619D01*
X143438477Y-111006000D01*
X143343239Y-110958381D01*
X143152762Y-110958381D01*
X143057524Y-111006000D01*
X143009905Y-111053619D01*
X142962286Y-111148857D01*
X142962286Y-111386952D01*
X143009905Y-111482190D01*
X143057524Y-111529810D01*
X143152762Y-111577429D01*
X143343239Y-111577429D01*
X143438477Y-111529810D01*
X143486096Y-111482190D01*
X143533715Y-111386952D01*
X158948381Y-111894857D02*
X158472190Y-112228191D01*
X158948381Y-112466286D02*
X157948381Y-112466286D01*
X157948381Y-112085333D01*
X157996000Y-111990095D01*
X158043619Y-111942476D01*
X158138857Y-111894857D01*
X158281714Y-111894857D01*
X158376952Y-111942476D01*
X158424571Y-111990095D01*
X158472190Y-112085333D01*
X158472190Y-112466286D01*
X158948381Y-110942476D02*
X158948381Y-111513905D01*
X158948381Y-111228191D02*
X157948381Y-111228191D01*
X158091238Y-111323429D01*
X158186476Y-111418667D01*
X158234095Y-111513905D01*
X157948381Y-110323429D02*
X157948381Y-110228190D01*
X157996000Y-110132952D01*
X158043619Y-110085333D01*
X158138857Y-110037714D01*
X158329333Y-109990095D01*
X158567429Y-109990095D01*
X158757905Y-110037714D01*
X158853143Y-110085333D01*
X158900762Y-110132952D01*
X158948381Y-110228190D01*
X158948381Y-110323429D01*
X158900762Y-110418667D01*
X158853143Y-110466286D01*
X158757905Y-110513905D01*
X158567429Y-110561524D01*
X158329333Y-110561524D01*
X158138857Y-110513905D01*
X158043619Y-110466286D01*
X157996000Y-110418667D01*
X157948381Y-110323429D01*
X132772381Y-109862857D02*
X132296190Y-110196191D01*
X132772381Y-110434286D02*
X131772381Y-110434286D01*
X131772381Y-110053333D01*
X131820000Y-109958095D01*
X131867619Y-109910476D01*
X131962857Y-109862857D01*
X132105714Y-109862857D01*
X132200952Y-109910476D01*
X132248571Y-109958095D01*
X132296190Y-110053333D01*
X132296190Y-110434286D01*
X132772381Y-108910476D02*
X132772381Y-109481905D01*
X132772381Y-109196191D02*
X131772381Y-109196191D01*
X131915238Y-109291429D01*
X132010476Y-109386667D01*
X132058095Y-109481905D01*
X132772381Y-107958095D02*
X132772381Y-108529524D01*
X132772381Y-108243810D02*
X131772381Y-108243810D01*
X131915238Y-108339048D01*
X132010476Y-108434286D01*
X132058095Y-108529524D01*
X137152143Y-106892381D02*
X136818809Y-106416190D01*
X136580714Y-106892381D02*
X136580714Y-105892381D01*
X136961667Y-105892381D01*
X137056905Y-105940000D01*
X137104524Y-105987619D01*
X137152143Y-106082857D01*
X137152143Y-106225714D01*
X137104524Y-106320952D01*
X137056905Y-106368571D01*
X136961667Y-106416190D01*
X136580714Y-106416190D01*
X138104524Y-106892381D02*
X137533095Y-106892381D01*
X137818809Y-106892381D02*
X137818809Y-105892381D01*
X137723571Y-106035238D01*
X137628333Y-106130476D01*
X137533095Y-106178095D01*
X138485476Y-105987619D02*
X138533095Y-105940000D01*
X138628333Y-105892381D01*
X138866429Y-105892381D01*
X138961667Y-105940000D01*
X139009286Y-105987619D01*
X139056905Y-106082857D01*
X139056905Y-106178095D01*
X139009286Y-106320952D01*
X138437857Y-106892381D01*
X139056905Y-106892381D01*
X127627143Y-86812381D02*
X127293809Y-86336190D01*
X127055714Y-86812381D02*
X127055714Y-85812381D01*
X127436667Y-85812381D01*
X127531905Y-85860000D01*
X127579524Y-85907619D01*
X127627143Y-86002857D01*
X127627143Y-86145714D01*
X127579524Y-86240952D01*
X127531905Y-86288571D01*
X127436667Y-86336190D01*
X127055714Y-86336190D01*
X128579524Y-86812381D02*
X128008095Y-86812381D01*
X128293809Y-86812381D02*
X128293809Y-85812381D01*
X128198571Y-85955238D01*
X128103333Y-86050476D01*
X128008095Y-86098095D01*
X128912857Y-85812381D02*
X129531905Y-85812381D01*
X129198571Y-86193333D01*
X129341429Y-86193333D01*
X129436667Y-86240952D01*
X129484286Y-86288571D01*
X129531905Y-86383810D01*
X129531905Y-86621905D01*
X129484286Y-86717143D01*
X129436667Y-86764762D01*
X129341429Y-86812381D01*
X129055714Y-86812381D01*
X128960476Y-86764762D01*
X128912857Y-86717143D01*
X146851905Y-80732381D02*
X146851905Y-81541905D01*
X146899524Y-81637143D01*
X146947143Y-81684762D01*
X147042381Y-81732381D01*
X147232858Y-81732381D01*
X147328096Y-81684762D01*
X147375715Y-81637143D01*
X147423334Y-81541905D01*
X147423334Y-80732381D01*
X147851905Y-81684762D02*
X147994762Y-81732381D01*
X148232858Y-81732381D01*
X148328096Y-81684762D01*
X148375715Y-81637143D01*
X148423334Y-81541905D01*
X148423334Y-81446667D01*
X148375715Y-81351429D01*
X148328096Y-81303810D01*
X148232858Y-81256190D01*
X148042381Y-81208571D01*
X147947143Y-81160952D01*
X147899524Y-81113333D01*
X147851905Y-81018095D01*
X147851905Y-80922857D01*
X147899524Y-80827619D01*
X147947143Y-80780000D01*
X148042381Y-80732381D01*
X148280477Y-80732381D01*
X148423334Y-80780000D01*
X149185239Y-81208571D02*
X149328096Y-81256190D01*
X149375715Y-81303810D01*
X149423334Y-81399048D01*
X149423334Y-81541905D01*
X149375715Y-81637143D01*
X149328096Y-81684762D01*
X149232858Y-81732381D01*
X148851905Y-81732381D01*
X148851905Y-80732381D01*
X149185239Y-80732381D01*
X149280477Y-80780000D01*
X149328096Y-80827619D01*
X149375715Y-80922857D01*
X149375715Y-81018095D01*
X149328096Y-81113333D01*
X149280477Y-81160952D01*
X149185239Y-81208571D01*
X148851905Y-81208571D01*
X150375715Y-81732381D02*
X149804286Y-81732381D01*
X150090000Y-81732381D02*
X150090000Y-80732381D01*
X149994762Y-80875238D01*
X149899524Y-80970476D01*
X149804286Y-81018095D01*
X132567524Y-94987381D02*
X133234191Y-95987381D01*
X133234191Y-94987381D02*
X132567524Y-95987381D01*
X133472286Y-94987381D02*
X134043715Y-94987381D01*
X133758000Y-95987381D02*
X133758000Y-94987381D01*
X134900858Y-95987381D02*
X134329429Y-95987381D01*
X134615143Y-95987381D02*
X134615143Y-94987381D01*
X134519905Y-95130238D01*
X134424667Y-95225476D01*
X134329429Y-95273095D01*
X160361334Y-86209143D02*
X160313715Y-86256762D01*
X160170858Y-86304381D01*
X160075620Y-86304381D01*
X159932762Y-86256762D01*
X159837524Y-86161524D01*
X159789905Y-86066286D01*
X159742286Y-85875810D01*
X159742286Y-85732952D01*
X159789905Y-85542476D01*
X159837524Y-85447238D01*
X159932762Y-85352000D01*
X160075620Y-85304381D01*
X160170858Y-85304381D01*
X160313715Y-85352000D01*
X160361334Y-85399619D01*
X161218477Y-85304381D02*
X161028000Y-85304381D01*
X160932762Y-85352000D01*
X160885143Y-85399619D01*
X160789905Y-85542476D01*
X160742286Y-85732952D01*
X160742286Y-86113905D01*
X160789905Y-86209143D01*
X160837524Y-86256762D01*
X160932762Y-86304381D01*
X161123239Y-86304381D01*
X161218477Y-86256762D01*
X161266096Y-86209143D01*
X161313715Y-86113905D01*
X161313715Y-85875810D01*
X161266096Y-85780571D01*
X161218477Y-85732952D01*
X161123239Y-85685333D01*
X160932762Y-85685333D01*
X160837524Y-85732952D01*
X160789905Y-85780571D01*
X160742286Y-85875810D01*
X165203143Y-99226666D02*
X165250762Y-99274285D01*
X165298381Y-99417142D01*
X165298381Y-99512380D01*
X165250762Y-99655238D01*
X165155524Y-99750476D01*
X165060286Y-99798095D01*
X164869810Y-99845714D01*
X164726952Y-99845714D01*
X164536476Y-99798095D01*
X164441238Y-99750476D01*
X164346000Y-99655238D01*
X164298381Y-99512380D01*
X164298381Y-99417142D01*
X164346000Y-99274285D01*
X164393619Y-99226666D01*
X164298381Y-98893333D02*
X164298381Y-98226666D01*
X165298381Y-98655238D01*
X158077143Y-99226666D02*
X158124762Y-99274285D01*
X158172381Y-99417142D01*
X158172381Y-99512380D01*
X158124762Y-99655238D01*
X158029524Y-99750476D01*
X157934286Y-99798095D01*
X157743810Y-99845714D01*
X157600952Y-99845714D01*
X157410476Y-99798095D01*
X157315238Y-99750476D01*
X157220000Y-99655238D01*
X157172381Y-99512380D01*
X157172381Y-99417142D01*
X157220000Y-99274285D01*
X157267619Y-99226666D01*
X157600952Y-98655238D02*
X157553333Y-98750476D01*
X157505714Y-98798095D01*
X157410476Y-98845714D01*
X157362857Y-98845714D01*
X157267619Y-98798095D01*
X157220000Y-98750476D01*
X157172381Y-98655238D01*
X157172381Y-98464761D01*
X157220000Y-98369523D01*
X157267619Y-98321904D01*
X157362857Y-98274285D01*
X157410476Y-98274285D01*
X157505714Y-98321904D01*
X157553333Y-98369523D01*
X157600952Y-98464761D01*
X157600952Y-98655238D01*
X157648571Y-98750476D01*
X157696190Y-98798095D01*
X157791429Y-98845714D01*
X157981905Y-98845714D01*
X158077143Y-98798095D01*
X158124762Y-98750476D01*
X158172381Y-98655238D01*
X158172381Y-98464761D01*
X158124762Y-98369523D01*
X158077143Y-98321904D01*
X157981905Y-98274285D01*
X157791429Y-98274285D01*
X157696190Y-98321904D01*
X157648571Y-98369523D01*
X157600952Y-98464761D01*
X160361334Y-92813143D02*
X160313715Y-92860762D01*
X160170858Y-92908381D01*
X160075620Y-92908381D01*
X159932762Y-92860762D01*
X159837524Y-92765524D01*
X159789905Y-92670286D01*
X159742286Y-92479810D01*
X159742286Y-92336952D01*
X159789905Y-92146476D01*
X159837524Y-92051238D01*
X159932762Y-91956000D01*
X160075620Y-91908381D01*
X160170858Y-91908381D01*
X160313715Y-91956000D01*
X160361334Y-92003619D01*
X160837524Y-92908381D02*
X161028000Y-92908381D01*
X161123239Y-92860762D01*
X161170858Y-92813143D01*
X161266096Y-92670286D01*
X161313715Y-92479810D01*
X161313715Y-92098857D01*
X161266096Y-92003619D01*
X161218477Y-91956000D01*
X161123239Y-91908381D01*
X160932762Y-91908381D01*
X160837524Y-91956000D01*
X160789905Y-92003619D01*
X160742286Y-92098857D01*
X160742286Y-92336952D01*
X160789905Y-92432190D01*
X160837524Y-92479810D01*
X160932762Y-92527429D01*
X161123239Y-92527429D01*
X161218477Y-92479810D01*
X161266096Y-92432190D01*
X161313715Y-92336952D01*
X143089334Y-99657143D02*
X143041715Y-99704762D01*
X142898858Y-99752381D01*
X142803620Y-99752381D01*
X142660762Y-99704762D01*
X142565524Y-99609524D01*
X142517905Y-99514286D01*
X142470286Y-99323810D01*
X142470286Y-99180952D01*
X142517905Y-98990476D01*
X142565524Y-98895238D01*
X142660762Y-98800000D01*
X142803620Y-98752381D01*
X142898858Y-98752381D01*
X143041715Y-98800000D01*
X143089334Y-98847619D01*
X143994096Y-98752381D02*
X143517905Y-98752381D01*
X143470286Y-99228571D01*
X143517905Y-99180952D01*
X143613143Y-99133333D01*
X143851239Y-99133333D01*
X143946477Y-99180952D01*
X143994096Y-99228571D01*
X144041715Y-99323810D01*
X144041715Y-99561905D01*
X143994096Y-99657143D01*
X143946477Y-99704762D01*
X143851239Y-99752381D01*
X143613143Y-99752381D01*
X143517905Y-99704762D01*
X143470286Y-99657143D01*
X131913334Y-93067143D02*
X131865715Y-93114762D01*
X131722858Y-93162381D01*
X131627620Y-93162381D01*
X131484762Y-93114762D01*
X131389524Y-93019524D01*
X131341905Y-92924286D01*
X131294286Y-92733810D01*
X131294286Y-92590952D01*
X131341905Y-92400476D01*
X131389524Y-92305238D01*
X131484762Y-92210000D01*
X131627620Y-92162381D01*
X131722858Y-92162381D01*
X131865715Y-92210000D01*
X131913334Y-92257619D01*
X132770477Y-92495714D02*
X132770477Y-93162381D01*
X132532381Y-92114762D02*
X132294286Y-92829048D01*
X132913334Y-92829048D01*
X158432857Y-66762381D02*
X158432857Y-67571905D01*
X158480476Y-67667143D01*
X158528095Y-67714762D01*
X158623333Y-67762381D01*
X158813810Y-67762381D01*
X158909048Y-67714762D01*
X158956667Y-67667143D01*
X159004286Y-67571905D01*
X159004286Y-66762381D01*
X159432857Y-67714762D02*
X159575714Y-67762381D01*
X159813810Y-67762381D01*
X159909048Y-67714762D01*
X159956667Y-67667143D01*
X160004286Y-67571905D01*
X160004286Y-67476667D01*
X159956667Y-67381429D01*
X159909048Y-67333810D01*
X159813810Y-67286190D01*
X159623333Y-67238571D01*
X159528095Y-67190952D01*
X159480476Y-67143333D01*
X159432857Y-67048095D01*
X159432857Y-66952857D01*
X159480476Y-66857619D01*
X159528095Y-66810000D01*
X159623333Y-66762381D01*
X159861429Y-66762381D01*
X160004286Y-66810000D01*
X160766191Y-67238571D02*
X160909048Y-67286190D01*
X160956667Y-67333810D01*
X161004286Y-67429048D01*
X161004286Y-67571905D01*
X160956667Y-67667143D01*
X160909048Y-67714762D01*
X160813810Y-67762381D01*
X160432857Y-67762381D01*
X160432857Y-66762381D01*
X160766191Y-66762381D01*
X160861429Y-66810000D01*
X160909048Y-66857619D01*
X160956667Y-66952857D01*
X160956667Y-67048095D01*
X160909048Y-67143333D01*
X160861429Y-67190952D01*
X160766191Y-67238571D01*
X160432857Y-67238571D01*
X161194762Y-67857619D02*
X161956667Y-67857619D01*
X162194762Y-67762381D02*
X162194762Y-66762381D01*
X162670952Y-67762381D02*
X162670952Y-66762381D01*
X162909047Y-66762381D01*
X163051905Y-66810000D01*
X163147143Y-66905238D01*
X163194762Y-67000476D01*
X163242381Y-67190952D01*
X163242381Y-67333810D01*
X163194762Y-67524286D01*
X163147143Y-67619524D01*
X163051905Y-67714762D01*
X162909047Y-67762381D01*
X162670952Y-67762381D01*
X164194762Y-67762381D02*
X163623333Y-67762381D01*
X163909047Y-67762381D02*
X163909047Y-66762381D01*
X163813809Y-66905238D01*
X163718571Y-67000476D01*
X163623333Y-67048095D01*
X167473334Y-81224381D02*
X166997143Y-81224381D01*
X166997143Y-80224381D01*
X167759048Y-80319619D02*
X167806667Y-80272000D01*
X167901905Y-80224381D01*
X168140001Y-80224381D01*
X168235239Y-80272000D01*
X168282858Y-80319619D01*
X168330477Y-80414857D01*
X168330477Y-80510095D01*
X168282858Y-80652952D01*
X167711429Y-81224381D01*
X168330477Y-81224381D01*
X178649334Y-71572381D02*
X178173143Y-71572381D01*
X178173143Y-70572381D01*
X179506477Y-71572381D02*
X178935048Y-71572381D01*
X179220762Y-71572381D02*
X179220762Y-70572381D01*
X179125524Y-70715238D01*
X179030286Y-70810476D01*
X178935048Y-70858095D01*
X119308571Y-96210286D02*
X119308571Y-95876952D01*
X119832381Y-95734095D02*
X119832381Y-96210286D01*
X118832381Y-96210286D01*
X118832381Y-95734095D01*
X119832381Y-95305524D02*
X118832381Y-95305524D01*
X119832381Y-94734095D01*
X118832381Y-94734095D01*
X119832381Y-93734095D02*
X119832381Y-94305524D01*
X119832381Y-94019810D02*
X118832381Y-94019810D01*
X118975238Y-94115048D01*
X119070476Y-94210286D01*
X119118095Y-94305524D01*
X122856667Y-102068381D02*
X122856667Y-102782667D01*
X122809047Y-102925524D01*
X122713809Y-103020762D01*
X122570952Y-103068381D01*
X122475714Y-103068381D01*
X123285238Y-102163619D02*
X123332857Y-102116000D01*
X123428095Y-102068381D01*
X123666191Y-102068381D01*
X123761429Y-102116000D01*
X123809048Y-102163619D01*
X123856667Y-102258857D01*
X123856667Y-102354095D01*
X123809048Y-102496952D01*
X123237619Y-103068381D01*
X123856667Y-103068381D01*
X174935047Y-91950801D02*
X174601713Y-91474610D01*
X174363618Y-91950801D02*
X174363618Y-90950801D01*
X174744571Y-90950801D01*
X174839809Y-90998420D01*
X174887428Y-91046039D01*
X174935047Y-91141277D01*
X174935047Y-91284134D01*
X174887428Y-91379372D01*
X174839809Y-91426991D01*
X174744571Y-91474610D01*
X174363618Y-91474610D01*
X175363618Y-91426991D02*
X175696952Y-91426991D01*
X175839809Y-91950801D02*
X175363618Y-91950801D01*
X175363618Y-90950801D01*
X175839809Y-90950801D01*
X176601714Y-91426991D02*
X176268380Y-91426991D01*
X176268380Y-91950801D02*
X176268380Y-90950801D01*
X176744571Y-90950801D01*
X177268380Y-90950801D02*
X177268380Y-91188896D01*
X177030285Y-91093658D02*
X177268380Y-91188896D01*
X177506476Y-91093658D01*
X177125523Y-91379372D02*
X177268380Y-91188896D01*
X177411238Y-91379372D01*
X178030285Y-90950801D02*
X178030285Y-91188896D01*
X177792190Y-91093658D02*
X178030285Y-91188896D01*
X178268381Y-91093658D01*
X177887428Y-91379372D02*
X178030285Y-91188896D01*
X178173143Y-91379372D01*
M02*
