%TF.GenerationSoftware,KiCad,Pcbnew,4.0.2+dfsg1-stable*%
%TF.CreationDate,2018-12-23T00:35:13+01:00*%
%TF.ProjectId,StandAlone-Adapter,5374616E64416C6F6E652D4164617074,rev?*%
%TF.FileFunction,Soldermask,Bot*%
%FSLAX46Y46*%
G04 Gerber Fmt 4.6, Leading zero omitted, Abs format (unit mm)*
G04 Created by KiCad (PCBNEW 4.0.2+dfsg1-stable) date Sun 23 Dec 2018 00:35:13 CET*
%MOMM*%
G01*
G04 APERTURE LIST*
%ADD10C,0.100000*%
%ADD11R,2.432000X2.127200*%
%ADD12O,2.432000X2.127200*%
%ADD13R,2.127200X2.432000*%
%ADD14O,2.127200X2.432000*%
%ADD15R,2.432000X2.432000*%
%ADD16O,2.432000X2.432000*%
%ADD17C,2.398980*%
%ADD18C,1.901140*%
%ADD19C,3.399740*%
%ADD20C,4.464000*%
%ADD21R,2.127200X2.127200*%
%ADD22O,2.127200X2.127200*%
%ADD23C,1.670000*%
%ADD24C,3.400000*%
%ADD25C,1.000000*%
G04 APERTURE END LIST*
D10*
D11*
X187960000Y-124460000D03*
D12*
X187960000Y-127000000D03*
X187960000Y-129540000D03*
X187960000Y-132080000D03*
X187960000Y-134620000D03*
D13*
X149860000Y-93980000D03*
D14*
X147320000Y-93980000D03*
X144780000Y-93980000D03*
D13*
X132080000Y-104140000D03*
D14*
X134620000Y-104140000D03*
X137160000Y-104140000D03*
D15*
X134620000Y-116840000D03*
D16*
X134620000Y-114300000D03*
D15*
X187960000Y-139700000D03*
D16*
X190500000Y-139700000D03*
D11*
X187960000Y-99060000D03*
D12*
X187960000Y-101600000D03*
X187960000Y-104140000D03*
X187960000Y-106680000D03*
D13*
X132080000Y-96520000D03*
D14*
X134620000Y-96520000D03*
X137160000Y-96520000D03*
X139700000Y-96520000D03*
D17*
X127000000Y-127000000D03*
D15*
X142240000Y-104140000D03*
D16*
X142240000Y-101600000D03*
D18*
X157987140Y-99062120D03*
X160527140Y-99062120D03*
X162559140Y-99062120D03*
X165099140Y-99062120D03*
D19*
X154939140Y-96395120D03*
X168655140Y-96395120D03*
D15*
X173990000Y-91440000D03*
D16*
X173990000Y-93980000D03*
D20*
X125730000Y-90170000D03*
X196850000Y-90170000D03*
X196850000Y-140970000D03*
X125730000Y-140970000D03*
D21*
X134620000Y-129540000D03*
D22*
X137160000Y-129540000D03*
X134620000Y-132080000D03*
X137160000Y-132080000D03*
X134620000Y-134620000D03*
X137160000Y-134620000D03*
D23*
X164985000Y-134610000D03*
X162445000Y-134610000D03*
X166255000Y-132080000D03*
D24*
X168160000Y-140960000D03*
X160540000Y-140960000D03*
D23*
X163715000Y-132080000D03*
D25*
X165031600Y-126560500D03*
X170334000Y-130907500D03*
X175984100Y-97503000D03*
X159511600Y-125887000D03*
X159587200Y-130315300D03*
X154314200Y-128455600D03*
X173623600Y-129479100D03*
X155089300Y-125123400D03*
X155764700Y-121936300D03*
X181483000Y-90678000D03*
X154421500Y-105458600D03*
X153384400Y-108310400D03*
X182995500Y-102623900D03*
X171760000Y-100160000D03*
X174345300Y-99809300D03*
X154919600Y-117389100D03*
X170499200Y-124460000D03*
X158072000Y-119923100D03*
X172265600Y-126989700D03*
X159469700Y-117819200D03*
X159140000Y-128485700D03*
X160454000Y-125454700D03*
X157449200Y-119035000D03*
X153667400Y-127210800D03*
X158853700Y-121738600D03*
X163769100Y-109029700D03*
M02*
