%TF.GenerationSoftware,KiCad,Pcbnew,4.0.2+dfsg1-stable*%
%TF.CreationDate,2019-04-18T20:40:54+02:00*%
%TF.ProjectId,StandAlone-Adapter,5374616E64416C6F6E652D4164617074,rev?*%
%TF.FileFunction,Soldermask,Bot*%
%FSLAX46Y46*%
G04 Gerber Fmt 4.6, Leading zero omitted, Abs format (unit mm)*
G04 Created by KiCad (PCBNEW 4.0.2+dfsg1-stable) date Thu 18 Apr 2019 20:40:54 CEST*
%MOMM*%
G01*
G04 APERTURE LIST*
%ADD10C,0.100000*%
%ADD11C,4.464000*%
%ADD12C,2.398980*%
%ADD13C,1.670000*%
%ADD14C,4.000000*%
%ADD15C,1.901140*%
%ADD16C,3.399740*%
%ADD17C,1.900000*%
%ADD18R,2.127200X2.432000*%
%ADD19O,2.127200X2.432000*%
%ADD20R,2.432000X2.432000*%
%ADD21O,2.432000X2.432000*%
%ADD22R,2.432000X2.127200*%
%ADD23O,2.432000X2.127200*%
%ADD24R,2.127200X2.127200*%
%ADD25O,2.127200X2.127200*%
%ADD26C,1.000000*%
G04 APERTURE END LIST*
D10*
D11*
X113030000Y-120650000D03*
X184150000Y-120650000D03*
X184150000Y-69850000D03*
X113030000Y-69850000D03*
D12*
X113030000Y-86360000D03*
D13*
X152285000Y-114290000D03*
X149745000Y-114290000D03*
X153555000Y-111760000D03*
D14*
X155460000Y-120640000D03*
X147840000Y-120640000D03*
D13*
X151015000Y-111760000D03*
D15*
X145287140Y-78742120D03*
X147827140Y-78742120D03*
X149859140Y-78742120D03*
X152399140Y-78742120D03*
D16*
X142239140Y-76075120D03*
X155955140Y-76075120D03*
D17*
X138684000Y-92964000D03*
X138684000Y-97844000D03*
D18*
X119380000Y-76200000D03*
D19*
X121920000Y-76200000D03*
X124460000Y-76200000D03*
X127000000Y-76200000D03*
D18*
X119380000Y-83820000D03*
D19*
X121920000Y-83820000D03*
X124460000Y-83820000D03*
D20*
X129540000Y-86995000D03*
D21*
X129540000Y-84455000D03*
D18*
X137160000Y-70485000D03*
D19*
X134620000Y-70485000D03*
X132080000Y-70485000D03*
D20*
X161290000Y-71120000D03*
D21*
X161290000Y-73660000D03*
D22*
X175260000Y-78740000D03*
D23*
X175260000Y-81280000D03*
X175260000Y-83820000D03*
X175260000Y-86360000D03*
D22*
X175260000Y-104140000D03*
D23*
X175260000Y-106680000D03*
X175260000Y-109220000D03*
X175260000Y-111760000D03*
X175260000Y-114300000D03*
D20*
X175260000Y-119380000D03*
D21*
X177800000Y-119380000D03*
D20*
X130175000Y-93345000D03*
D21*
X130175000Y-95885000D03*
D24*
X121920000Y-109220000D03*
D25*
X124460000Y-109220000D03*
X121920000Y-111760000D03*
X124460000Y-111760000D03*
X121920000Y-114300000D03*
X124460000Y-114300000D03*
D18*
X137160000Y-74930000D03*
D19*
X134620000Y-74930000D03*
X132080000Y-74930000D03*
D26*
X150618600Y-109234600D03*
X152560700Y-110799600D03*
X154363500Y-104248400D03*
X154250500Y-100585300D03*
X140684000Y-86068300D03*
X145169000Y-96230000D03*
X147110000Y-98283700D03*
X145411200Y-87659500D03*
X136896100Y-88700800D03*
X142963500Y-92774600D03*
X140249200Y-110540800D03*
X139131500Y-106521900D03*
X149925000Y-104859200D03*
X145640200Y-95079900D03*
X142277500Y-105770600D03*
X143061800Y-94230000D03*
X133605300Y-107060000D03*
X142266400Y-95548800D03*
X132448500Y-110134100D03*
X139334700Y-95136400D03*
X127347500Y-95255100D03*
X138117300Y-95676700D03*
X146778100Y-103357200D03*
X125341000Y-99656900D03*
X146990000Y-84419700D03*
X148109900Y-89331300D03*
X166592000Y-91344300D03*
X166196700Y-94648800D03*
M02*
