M48
; DRILL file {KiCad 5.1.9+dfsg1-1~bpo10+1} date Fri Apr 16 21:47:49 2021
; FORMAT={-:-/ absolute / inch / decimal}
; #@! TF.CreationDate,2021-04-16T21:47:49+02:00
; #@! TF.GenerationSoftware,Kicad,Pcbnew,5.1.9+dfsg1-1~bpo10+1
; #@! TF.FileFunction,Plated,1,2,PTH
FMAT,2
INCH
T1C0.0157
T2C0.0315
T3C0.0354
T4C0.0394
T5C0.0400
T6C0.0906
T7C0.1181
T8C0.1260
%
G90
G05
T1
X5.6042Y-3.5342
X5.6974Y-4.5057
X5.7021Y-3.7584
X5.7107Y-3.4293
X5.7375Y-4.4069
X5.7383Y-3.8091
X5.7615Y-3.2905
X5.8123Y-3.8817
X5.8271Y-3.9936
X5.8625Y-3.6849
X5.8878Y-3.9828
X6.0069Y-3.8548
X6.0539Y-3.884
T2
X5.3543Y-3.6417
X5.3543Y-3.8339
T3
X5.7874Y-3.1102
X5.8858Y-3.1102
X5.8935Y-4.3425
X5.9435Y-4.2429
X5.9646Y-3.1102
X5.9935Y-4.3425
X6.0435Y-4.2429
X6.063Y-3.1102
T4
X4.7047Y-3.3071
X4.7244Y-2.9921
X4.8047Y-3.3071
X4.8244Y-2.9921
X4.9047Y-3.3071
X4.9244Y-2.9921
X5.0244Y-2.9921
X5.1181Y-3.6811
X5.1181Y-3.7811
X5.1575Y-3.2283
X5.1575Y-3.3283
X5.2559Y-2.6969
X5.2559Y-2.8543
X5.3559Y-2.6969
X5.3559Y-2.8543
X5.4559Y-2.6969
X5.4559Y-2.8543
X6.3583Y-2.6969
X6.3583Y-2.7969
X6.8685Y-4.7244
X6.9685Y-3.1102
X6.9685Y-3.2102
X6.9685Y-3.3102
X6.9685Y-3.4102
X6.9685Y-4.0945
X6.9685Y-4.1945
X6.9685Y-4.2945
X6.9685Y-4.3945
X6.9685Y-4.4945
X6.9685Y-4.7244
T5
X4.8228Y-4.3307
X4.8228Y-4.4307
X4.8228Y-4.5307
X4.9228Y-4.3307
X4.9228Y-4.4307
X4.9228Y-4.5307
T6
X5.7283Y-3.0051
X6.122Y-3.0051
T7
X4.4Y-2.7
X4.4Y-4.8
X7.3Y-2.7
X7.3Y-4.8
T8
X5.8185Y-4.5925
X6.1185Y-4.5925
T0
M30
