%TF.GenerationSoftware,KiCad,Pcbnew,4.0.2+dfsg1-stable*%
%TF.CreationDate,2019-04-14T19:17:55+02:00*%
%TF.ProjectId,StandAlone-Adapter,5374616E64416C6F6E652D4164617074,rev?*%
%TF.FileFunction,Legend,Top*%
%FSLAX46Y46*%
G04 Gerber Fmt 4.6, Leading zero omitted, Abs format (unit mm)*
G04 Created by KiCad (PCBNEW 4.0.2+dfsg1-stable) date Sun 14 Apr 2019 19:17:55 CEST*
%MOMM*%
G01*
G04 APERTURE LIST*
%ADD10C,0.100000*%
%ADD11C,0.200000*%
%ADD12C,0.150000*%
%ADD13C,0.125000*%
%ADD14C,0.300000*%
%ADD15C,0.175000*%
%ADD16C,0.275000*%
%ADD17C,0.250000*%
%ADD18C,0.120000*%
G04 APERTURE END LIST*
D10*
D11*
X142494000Y-94742000D02*
G75*
G03X142494000Y-94742000I-127000J0D01*
G01*
D12*
X110806667Y-83604915D02*
X110106667Y-83517415D01*
X110773333Y-83600749D02*
X110806667Y-83671582D01*
X110806667Y-83804915D01*
X110773333Y-83867416D01*
X110740000Y-83896582D01*
X110673333Y-83921583D01*
X110473333Y-83896583D01*
X110406667Y-83854915D01*
X110373333Y-83817416D01*
X110340000Y-83746582D01*
X110340000Y-83613249D01*
X110373333Y-83550749D01*
X110773333Y-83000750D02*
X110806667Y-83071582D01*
X110806667Y-83204916D01*
X110773333Y-83267416D01*
X110706667Y-83292416D01*
X110440000Y-83259083D01*
X110373333Y-83217416D01*
X110340000Y-83146583D01*
X110340000Y-83013249D01*
X110373333Y-82950750D01*
X110440000Y-82925749D01*
X110506667Y-82934082D01*
X110573333Y-83275750D01*
X110773333Y-82700750D02*
X110806667Y-82638249D01*
X110806667Y-82504916D01*
X110773333Y-82434083D01*
X110706667Y-82392416D01*
X110673333Y-82388250D01*
X110606667Y-82413249D01*
X110573333Y-82475750D01*
X110573333Y-82575750D01*
X110540000Y-82638249D01*
X110473333Y-82663250D01*
X110440000Y-82659083D01*
X110373333Y-82617416D01*
X110340000Y-82546583D01*
X110340000Y-82446583D01*
X110373333Y-82384083D01*
X110806667Y-82104915D02*
X110340000Y-82046582D01*
X110106667Y-82017415D02*
X110140000Y-82054916D01*
X110173333Y-82025749D01*
X110140000Y-81988249D01*
X110106667Y-82017415D01*
X110173333Y-82025749D01*
X110340000Y-81413249D02*
X110906667Y-81484082D01*
X110973333Y-81525750D01*
X111006667Y-81563249D01*
X111040000Y-81634083D01*
X111040000Y-81734083D01*
X111006667Y-81796582D01*
X110773333Y-81467416D02*
X110806667Y-81538249D01*
X110806667Y-81671582D01*
X110773333Y-81734083D01*
X110740000Y-81763249D01*
X110673333Y-81788250D01*
X110473333Y-81763250D01*
X110406667Y-81721582D01*
X110373333Y-81684083D01*
X110340000Y-81613249D01*
X110340000Y-81479916D01*
X110373333Y-81417416D01*
X110340000Y-81079916D02*
X110806667Y-81138249D01*
X110406667Y-81088249D02*
X110373333Y-81050750D01*
X110340000Y-80979916D01*
X110340000Y-80879916D01*
X110373333Y-80817417D01*
X110440000Y-80792416D01*
X110806667Y-80838249D01*
X110773333Y-80234084D02*
X110806667Y-80304916D01*
X110806667Y-80438250D01*
X110773333Y-80500750D01*
X110706667Y-80525750D01*
X110440000Y-80492417D01*
X110373333Y-80450750D01*
X110340000Y-80379917D01*
X110340000Y-80246583D01*
X110373333Y-80184084D01*
X110440000Y-80159083D01*
X110506667Y-80167416D01*
X110573333Y-80509084D01*
X110806667Y-79604916D02*
X110106667Y-79517416D01*
X110773333Y-79600750D02*
X110806667Y-79671583D01*
X110806667Y-79804916D01*
X110773333Y-79867417D01*
X110740000Y-79896583D01*
X110673333Y-79921584D01*
X110473333Y-79896584D01*
X110406667Y-79854916D01*
X110373333Y-79817417D01*
X110340000Y-79746583D01*
X110340000Y-79613250D01*
X110373333Y-79550750D01*
X110806667Y-78738250D02*
X110106667Y-78650750D01*
X110373333Y-78684084D02*
X110340000Y-78613251D01*
X110340000Y-78479917D01*
X110373333Y-78417418D01*
X110406667Y-78388250D01*
X110473333Y-78363251D01*
X110673333Y-78388251D01*
X110740000Y-78429917D01*
X110773333Y-78467418D01*
X110806667Y-78538250D01*
X110806667Y-78671584D01*
X110773333Y-78734084D01*
X110340000Y-78113251D02*
X110806667Y-78004917D01*
X110340000Y-77779918D02*
X110806667Y-78004917D01*
X110973333Y-78092418D01*
X111006667Y-78129917D01*
X111040000Y-78200751D01*
X110806667Y-76638251D02*
X110473333Y-76829919D01*
X110806667Y-77038251D02*
X110106667Y-76950751D01*
X110106667Y-76684085D01*
X110140000Y-76621585D01*
X110173333Y-76592419D01*
X110240000Y-76567418D01*
X110340000Y-76579918D01*
X110406667Y-76621585D01*
X110440000Y-76659085D01*
X110473333Y-76729919D01*
X110473333Y-76996585D01*
X110740000Y-76329918D02*
X110773333Y-76300752D01*
X110806667Y-76338251D01*
X110773333Y-76367419D01*
X110740000Y-76329918D01*
X110806667Y-76338251D01*
X110140000Y-75554919D02*
X110106667Y-75617418D01*
X110106667Y-75717418D01*
X110140000Y-75821585D01*
X110206667Y-75896585D01*
X110273333Y-75938252D01*
X110406667Y-75988252D01*
X110506667Y-76000752D01*
X110640000Y-75984085D01*
X110706667Y-75959085D01*
X110773333Y-75900752D01*
X110806667Y-75804918D01*
X110806667Y-75738252D01*
X110773333Y-75634086D01*
X110740000Y-75596585D01*
X110506667Y-75567418D01*
X110506667Y-75700752D01*
X110740000Y-75296585D02*
X110773333Y-75267419D01*
X110806667Y-75304918D01*
X110773333Y-75334086D01*
X110740000Y-75296585D01*
X110806667Y-75304918D01*
X110173333Y-74925753D02*
X110140000Y-74888252D01*
X110106667Y-74817419D01*
X110106667Y-74650752D01*
X110140000Y-74588252D01*
X110173333Y-74559086D01*
X110240000Y-74534086D01*
X110306667Y-74542419D01*
X110406667Y-74588252D01*
X110806667Y-75038252D01*
X110806667Y-74604919D01*
X110106667Y-74084085D02*
X110106667Y-74017418D01*
X110140000Y-73954919D01*
X110173333Y-73925752D01*
X110240000Y-73900752D01*
X110373333Y-73884086D01*
X110540000Y-73904919D01*
X110673333Y-73954919D01*
X110740000Y-73996585D01*
X110773333Y-74034086D01*
X110806667Y-74104918D01*
X110806667Y-74171585D01*
X110773333Y-74234086D01*
X110740000Y-74263252D01*
X110673333Y-74288252D01*
X110540000Y-74304919D01*
X110373333Y-74284086D01*
X110240000Y-74234085D01*
X110173333Y-74192419D01*
X110140000Y-74154919D01*
X110106667Y-74084085D01*
X110806667Y-73271585D02*
X110806667Y-73671585D01*
X110806667Y-73471585D02*
X110106667Y-73384085D01*
X110206667Y-73463251D01*
X110273333Y-73538252D01*
X110306667Y-73609085D01*
X110406667Y-72821584D02*
X110373333Y-72884085D01*
X110340000Y-72913251D01*
X110273333Y-72938252D01*
X110240000Y-72934085D01*
X110173333Y-72892418D01*
X110140000Y-72854918D01*
X110106667Y-72784084D01*
X110106667Y-72650751D01*
X110140000Y-72588251D01*
X110173333Y-72559085D01*
X110240000Y-72534085D01*
X110273333Y-72538252D01*
X110340000Y-72579918D01*
X110373333Y-72617418D01*
X110406667Y-72688251D01*
X110406667Y-72821584D01*
X110440000Y-72892418D01*
X110473333Y-72929918D01*
X110540000Y-72971585D01*
X110673333Y-72988252D01*
X110740000Y-72963251D01*
X110773333Y-72934085D01*
X110806667Y-72871584D01*
X110806667Y-72738251D01*
X110773333Y-72667418D01*
X110740000Y-72629918D01*
X110673333Y-72588252D01*
X110540000Y-72571585D01*
X110473333Y-72596585D01*
X110440000Y-72625751D01*
X110406667Y-72688251D01*
D13*
X118810000Y-122781190D02*
X118476666Y-122543095D01*
X118238571Y-122781190D02*
X118238571Y-122281190D01*
X118619524Y-122281190D01*
X118714762Y-122305000D01*
X118762381Y-122328810D01*
X118810000Y-122376429D01*
X118810000Y-122447857D01*
X118762381Y-122495476D01*
X118714762Y-122519286D01*
X118619524Y-122543095D01*
X118238571Y-122543095D01*
X119238571Y-122519286D02*
X119571905Y-122519286D01*
X119714762Y-122781190D02*
X119238571Y-122781190D01*
X119238571Y-122281190D01*
X119714762Y-122281190D01*
X120000476Y-122281190D02*
X120571905Y-122281190D01*
X120286190Y-122781190D02*
X120286190Y-122281190D01*
X121476667Y-122781190D02*
X121143333Y-122543095D01*
X120905238Y-122781190D02*
X120905238Y-122281190D01*
X121286191Y-122281190D01*
X121381429Y-122305000D01*
X121429048Y-122328810D01*
X121476667Y-122376429D01*
X121476667Y-122447857D01*
X121429048Y-122495476D01*
X121381429Y-122519286D01*
X121286191Y-122543095D01*
X120905238Y-122543095D01*
X122095714Y-122281190D02*
X122286191Y-122281190D01*
X122381429Y-122305000D01*
X122476667Y-122352619D01*
X122524286Y-122447857D01*
X122524286Y-122614524D01*
X122476667Y-122709762D01*
X122381429Y-122757381D01*
X122286191Y-122781190D01*
X122095714Y-122781190D01*
X122000476Y-122757381D01*
X121905238Y-122709762D01*
X121857619Y-122614524D01*
X121857619Y-122447857D01*
X121905238Y-122352619D01*
X122000476Y-122305000D01*
X122095714Y-122281190D01*
X123286191Y-122519286D02*
X123429048Y-122543095D01*
X123476667Y-122566905D01*
X123524286Y-122614524D01*
X123524286Y-122685952D01*
X123476667Y-122733571D01*
X123429048Y-122757381D01*
X123333810Y-122781190D01*
X122952857Y-122781190D01*
X122952857Y-122281190D01*
X123286191Y-122281190D01*
X123381429Y-122305000D01*
X123429048Y-122328810D01*
X123476667Y-122376429D01*
X123476667Y-122424048D01*
X123429048Y-122471667D01*
X123381429Y-122495476D01*
X123286191Y-122519286D01*
X122952857Y-122519286D01*
X123952857Y-122781190D02*
X123952857Y-122281190D01*
X124286190Y-122281190D02*
X124857619Y-122281190D01*
X124571904Y-122781190D02*
X124571904Y-122281190D01*
X125667143Y-122781190D02*
X125190952Y-122781190D01*
X125190952Y-122281190D01*
X125952857Y-122638333D02*
X126429048Y-122638333D01*
X125857619Y-122781190D02*
X126190952Y-122281190D01*
X126524286Y-122781190D01*
X127190953Y-122519286D02*
X127333810Y-122543095D01*
X127381429Y-122566905D01*
X127429048Y-122614524D01*
X127429048Y-122685952D01*
X127381429Y-122733571D01*
X127333810Y-122757381D01*
X127238572Y-122781190D01*
X126857619Y-122781190D01*
X126857619Y-122281190D01*
X127190953Y-122281190D01*
X127286191Y-122305000D01*
X127333810Y-122328810D01*
X127381429Y-122376429D01*
X127381429Y-122424048D01*
X127333810Y-122471667D01*
X127286191Y-122495476D01*
X127190953Y-122519286D01*
X126857619Y-122519286D01*
X128571905Y-122638333D02*
X129048096Y-122638333D01*
X128476667Y-122781190D02*
X128810000Y-122281190D01*
X129143334Y-122781190D01*
X129476667Y-122781190D02*
X129476667Y-122281190D01*
X129810001Y-122638333D01*
X130143334Y-122281190D01*
X130143334Y-122781190D01*
X130619524Y-122781190D02*
X130619524Y-122281190D01*
X131619524Y-122305000D02*
X131524286Y-122281190D01*
X131381429Y-122281190D01*
X131238571Y-122305000D01*
X131143333Y-122352619D01*
X131095714Y-122400238D01*
X131048095Y-122495476D01*
X131048095Y-122566905D01*
X131095714Y-122662143D01*
X131143333Y-122709762D01*
X131238571Y-122757381D01*
X131381429Y-122781190D01*
X131476667Y-122781190D01*
X131619524Y-122757381D01*
X131667143Y-122733571D01*
X131667143Y-122566905D01*
X131476667Y-122566905D01*
X132048095Y-122638333D02*
X132524286Y-122638333D01*
X131952857Y-122781190D02*
X132286190Y-122281190D01*
X132619524Y-122781190D01*
X133714762Y-122281190D02*
X133714762Y-122685952D01*
X133762381Y-122733571D01*
X133810000Y-122757381D01*
X133905238Y-122781190D01*
X134095715Y-122781190D01*
X134190953Y-122757381D01*
X134238572Y-122733571D01*
X134286191Y-122685952D01*
X134286191Y-122281190D01*
X134714762Y-122757381D02*
X134857619Y-122781190D01*
X135095715Y-122781190D01*
X135190953Y-122757381D01*
X135238572Y-122733571D01*
X135286191Y-122685952D01*
X135286191Y-122638333D01*
X135238572Y-122590714D01*
X135190953Y-122566905D01*
X135095715Y-122543095D01*
X134905238Y-122519286D01*
X134810000Y-122495476D01*
X134762381Y-122471667D01*
X134714762Y-122424048D01*
X134714762Y-122376429D01*
X134762381Y-122328810D01*
X134810000Y-122305000D01*
X134905238Y-122281190D01*
X135143334Y-122281190D01*
X135286191Y-122305000D01*
X136048096Y-122519286D02*
X136190953Y-122543095D01*
X136238572Y-122566905D01*
X136286191Y-122614524D01*
X136286191Y-122685952D01*
X136238572Y-122733571D01*
X136190953Y-122757381D01*
X136095715Y-122781190D01*
X135714762Y-122781190D01*
X135714762Y-122281190D01*
X136048096Y-122281190D01*
X136143334Y-122305000D01*
X136190953Y-122328810D01*
X136238572Y-122376429D01*
X136238572Y-122424048D01*
X136190953Y-122471667D01*
X136143334Y-122495476D01*
X136048096Y-122519286D01*
X135714762Y-122519286D01*
X137429048Y-122638333D02*
X137905239Y-122638333D01*
X137333810Y-122781190D02*
X137667143Y-122281190D01*
X138000477Y-122781190D01*
X138333810Y-122781190D02*
X138333810Y-122281190D01*
X138571905Y-122281190D01*
X138714763Y-122305000D01*
X138810001Y-122352619D01*
X138857620Y-122400238D01*
X138905239Y-122495476D01*
X138905239Y-122566905D01*
X138857620Y-122662143D01*
X138810001Y-122709762D01*
X138714763Y-122757381D01*
X138571905Y-122781190D01*
X138333810Y-122781190D01*
X139286191Y-122638333D02*
X139762382Y-122638333D01*
X139190953Y-122781190D02*
X139524286Y-122281190D01*
X139857620Y-122781190D01*
X140190953Y-122781190D02*
X140190953Y-122281190D01*
X140571906Y-122281190D01*
X140667144Y-122305000D01*
X140714763Y-122328810D01*
X140762382Y-122376429D01*
X140762382Y-122447857D01*
X140714763Y-122495476D01*
X140667144Y-122519286D01*
X140571906Y-122543095D01*
X140190953Y-122543095D01*
X141048096Y-122281190D02*
X141619525Y-122281190D01*
X141333810Y-122781190D02*
X141333810Y-122281190D01*
X141952858Y-122519286D02*
X142286192Y-122519286D01*
X142429049Y-122781190D02*
X141952858Y-122781190D01*
X141952858Y-122281190D01*
X142429049Y-122281190D01*
X143429049Y-122781190D02*
X143095715Y-122543095D01*
X142857620Y-122781190D02*
X142857620Y-122281190D01*
X143238573Y-122281190D01*
X143333811Y-122305000D01*
X143381430Y-122328810D01*
X143429049Y-122376429D01*
X143429049Y-122447857D01*
X143381430Y-122495476D01*
X143333811Y-122519286D01*
X143238573Y-122543095D01*
X142857620Y-122543095D01*
D14*
X111676571Y-98698571D02*
X110962286Y-99198571D01*
X111676571Y-99555714D02*
X110176571Y-99555714D01*
X110176571Y-98984286D01*
X110248000Y-98841428D01*
X110319429Y-98770000D01*
X110462286Y-98698571D01*
X110676571Y-98698571D01*
X110819429Y-98770000D01*
X110890857Y-98841428D01*
X110962286Y-98984286D01*
X110962286Y-99555714D01*
X110890857Y-98055714D02*
X110890857Y-97555714D01*
X111676571Y-97341428D02*
X111676571Y-98055714D01*
X110176571Y-98055714D01*
X110176571Y-97341428D01*
X111605143Y-96770000D02*
X111676571Y-96555714D01*
X111676571Y-96198571D01*
X111605143Y-96055714D01*
X111533714Y-95984285D01*
X111390857Y-95912857D01*
X111248000Y-95912857D01*
X111105143Y-95984285D01*
X111033714Y-96055714D01*
X110962286Y-96198571D01*
X110890857Y-96484285D01*
X110819429Y-96627143D01*
X110748000Y-96698571D01*
X110605143Y-96770000D01*
X110462286Y-96770000D01*
X110319429Y-96698571D01*
X110248000Y-96627143D01*
X110176571Y-96484285D01*
X110176571Y-96127143D01*
X110248000Y-95912857D01*
X110890857Y-95270000D02*
X110890857Y-94770000D01*
X111676571Y-94555714D02*
X111676571Y-95270000D01*
X110176571Y-95270000D01*
X110176571Y-94555714D01*
X110176571Y-94127143D02*
X110176571Y-93270000D01*
X111676571Y-93698571D02*
X110176571Y-93698571D01*
X117518571Y-120688571D02*
X116018571Y-120688571D01*
X117090000Y-120188571D01*
X116018571Y-119688571D01*
X117518571Y-119688571D01*
X117518571Y-118974285D02*
X116018571Y-118974285D01*
X116018571Y-118402857D01*
X116090000Y-118259999D01*
X116161429Y-118188571D01*
X116304286Y-118117142D01*
X116518571Y-118117142D01*
X116661429Y-118188571D01*
X116732857Y-118259999D01*
X116804286Y-118402857D01*
X116804286Y-118974285D01*
X116018571Y-117474285D02*
X117232857Y-117474285D01*
X117375714Y-117402857D01*
X117447143Y-117331428D01*
X117518571Y-117188571D01*
X117518571Y-116902857D01*
X117447143Y-116759999D01*
X117375714Y-116688571D01*
X117232857Y-116617142D01*
X116018571Y-116617142D01*
X117518571Y-114759999D02*
X116018571Y-114759999D01*
X117518571Y-113902856D02*
X116661429Y-114545713D01*
X116018571Y-113902856D02*
X116875714Y-114759999D01*
X116732857Y-113259999D02*
X116732857Y-112759999D01*
X117518571Y-112545713D02*
X117518571Y-113259999D01*
X116018571Y-113259999D01*
X116018571Y-112545713D01*
X116804286Y-111617142D02*
X117518571Y-111617142D01*
X116018571Y-112117142D02*
X116804286Y-111617142D01*
X116018571Y-111117142D01*
X116732857Y-110117142D02*
X116804286Y-109902856D01*
X116875714Y-109831428D01*
X117018571Y-109759999D01*
X117232857Y-109759999D01*
X117375714Y-109831428D01*
X117447143Y-109902856D01*
X117518571Y-110045714D01*
X117518571Y-110617142D01*
X116018571Y-110617142D01*
X116018571Y-110117142D01*
X116090000Y-109974285D01*
X116161429Y-109902856D01*
X116304286Y-109831428D01*
X116447143Y-109831428D01*
X116590000Y-109902856D01*
X116661429Y-109974285D01*
X116732857Y-110117142D01*
X116732857Y-110617142D01*
X116018571Y-108831428D02*
X116018571Y-108545714D01*
X116090000Y-108402856D01*
X116232857Y-108259999D01*
X116518571Y-108188571D01*
X117018571Y-108188571D01*
X117304286Y-108259999D01*
X117447143Y-108402856D01*
X117518571Y-108545714D01*
X117518571Y-108831428D01*
X117447143Y-108974285D01*
X117304286Y-109117142D01*
X117018571Y-109188571D01*
X116518571Y-109188571D01*
X116232857Y-109117142D01*
X116090000Y-108974285D01*
X116018571Y-108831428D01*
X117090000Y-107617142D02*
X117090000Y-106902856D01*
X117518571Y-107759999D02*
X116018571Y-107259999D01*
X117518571Y-106759999D01*
X117518571Y-105402856D02*
X116804286Y-105902856D01*
X117518571Y-106259999D02*
X116018571Y-106259999D01*
X116018571Y-105688571D01*
X116090000Y-105545713D01*
X116161429Y-105474285D01*
X116304286Y-105402856D01*
X116518571Y-105402856D01*
X116661429Y-105474285D01*
X116732857Y-105545713D01*
X116804286Y-105688571D01*
X116804286Y-106259999D01*
X117518571Y-104759999D02*
X116018571Y-104759999D01*
X116018571Y-104402856D01*
X116090000Y-104188571D01*
X116232857Y-104045713D01*
X116375714Y-103974285D01*
X116661429Y-103902856D01*
X116875714Y-103902856D01*
X117161429Y-103974285D01*
X117304286Y-104045713D01*
X117447143Y-104188571D01*
X117518571Y-104402856D01*
X117518571Y-104759999D01*
D15*
X117825333Y-81208571D02*
X117592000Y-81208571D01*
X117592000Y-81732381D02*
X117592000Y-80732381D01*
X117925333Y-80732381D01*
X118092000Y-80732381D02*
X118492000Y-80732381D01*
X118292000Y-81732381D02*
X118292000Y-80732381D01*
X118725333Y-81732381D02*
X118725333Y-80732381D01*
X118891999Y-80732381D01*
X118991999Y-80780000D01*
X119058666Y-80875238D01*
X119091999Y-80970476D01*
X119125333Y-81160952D01*
X119125333Y-81303810D01*
X119091999Y-81494286D01*
X119058666Y-81589524D01*
X118991999Y-81684762D01*
X118891999Y-81732381D01*
X118725333Y-81732381D01*
X119425333Y-81732381D02*
X119425333Y-80732381D01*
X119725332Y-80827619D02*
X119758666Y-80780000D01*
X119825332Y-80732381D01*
X119991999Y-80732381D01*
X120058666Y-80780000D01*
X120091999Y-80827619D01*
X120125332Y-80922857D01*
X120125332Y-81018095D01*
X120091999Y-81160952D01*
X119691999Y-81732381D01*
X120125332Y-81732381D01*
X120358666Y-80732381D02*
X120791999Y-80732381D01*
X120558666Y-81113333D01*
X120658666Y-81113333D01*
X120725333Y-81160952D01*
X120758666Y-81208571D01*
X120791999Y-81303810D01*
X120791999Y-81541905D01*
X120758666Y-81637143D01*
X120725333Y-81684762D01*
X120658666Y-81732381D01*
X120458666Y-81732381D01*
X120391999Y-81684762D01*
X120358666Y-81637143D01*
X121058666Y-80827619D02*
X121092000Y-80780000D01*
X121158666Y-80732381D01*
X121325333Y-80732381D01*
X121392000Y-80780000D01*
X121425333Y-80827619D01*
X121458666Y-80922857D01*
X121458666Y-81018095D01*
X121425333Y-81160952D01*
X121025333Y-81732381D01*
X121458666Y-81732381D01*
X122158667Y-81732381D02*
X121925333Y-81256190D01*
X121758667Y-81732381D02*
X121758667Y-80732381D01*
X122025333Y-80732381D01*
X122092000Y-80780000D01*
X122125333Y-80827619D01*
X122158667Y-80922857D01*
X122158667Y-81065714D01*
X122125333Y-81160952D01*
X122092000Y-81208571D01*
X122025333Y-81256190D01*
X121758667Y-81256190D01*
X122792000Y-81732381D02*
X122458667Y-81732381D01*
X122458667Y-80732381D01*
D10*
X124079048Y-85832190D02*
X124364762Y-85832190D01*
X124221905Y-86332190D02*
X124221905Y-85832190D01*
X124483810Y-85832190D02*
X124817143Y-86332190D01*
X124817143Y-85832190D02*
X124483810Y-86332190D01*
X121836667Y-86332190D02*
X121670000Y-86094095D01*
X121550953Y-86332190D02*
X121550953Y-85832190D01*
X121741429Y-85832190D01*
X121789048Y-85856000D01*
X121812857Y-85879810D01*
X121836667Y-85927429D01*
X121836667Y-85998857D01*
X121812857Y-86046476D01*
X121789048Y-86070286D01*
X121741429Y-86094095D01*
X121550953Y-86094095D01*
X122003334Y-85832190D02*
X122336667Y-86332190D01*
X122336667Y-85832190D02*
X122003334Y-86332190D01*
X118999047Y-85856000D02*
X118951428Y-85832190D01*
X118880000Y-85832190D01*
X118808571Y-85856000D01*
X118760952Y-85903619D01*
X118737143Y-85951238D01*
X118713333Y-86046476D01*
X118713333Y-86117905D01*
X118737143Y-86213143D01*
X118760952Y-86260762D01*
X118808571Y-86308381D01*
X118880000Y-86332190D01*
X118927619Y-86332190D01*
X118999047Y-86308381D01*
X119022857Y-86284571D01*
X119022857Y-86117905D01*
X118927619Y-86117905D01*
X119237143Y-86332190D02*
X119237143Y-85832190D01*
X119522857Y-86332190D01*
X119522857Y-85832190D01*
X119760953Y-86332190D02*
X119760953Y-85832190D01*
X119880000Y-85832190D01*
X119951429Y-85856000D01*
X119999048Y-85903619D01*
X120022857Y-85951238D01*
X120046667Y-86046476D01*
X120046667Y-86117905D01*
X120022857Y-86213143D01*
X119999048Y-86260762D01*
X119951429Y-86308381D01*
X119880000Y-86332190D01*
X119760953Y-86332190D01*
D16*
X117031238Y-78259143D02*
X117083619Y-78044857D01*
X117083619Y-77687714D01*
X117031238Y-77544857D01*
X116978857Y-77473428D01*
X116874095Y-77402000D01*
X116769333Y-77402000D01*
X116664571Y-77473428D01*
X116612190Y-77544857D01*
X116559810Y-77687714D01*
X116507429Y-77973428D01*
X116455048Y-78116286D01*
X116402667Y-78187714D01*
X116297905Y-78259143D01*
X116193143Y-78259143D01*
X116088381Y-78187714D01*
X116036000Y-78116286D01*
X115983619Y-77973428D01*
X115983619Y-77616286D01*
X116036000Y-77402000D01*
X115983619Y-76973429D02*
X115983619Y-76116286D01*
X117083619Y-76544857D02*
X115983619Y-76544857D01*
X117083619Y-74902000D02*
X117083619Y-75616286D01*
X115983619Y-75616286D01*
X117083619Y-74402000D02*
X116350286Y-74402000D01*
X115983619Y-74402000D02*
X116036000Y-74473429D01*
X116088381Y-74402000D01*
X116036000Y-74330572D01*
X115983619Y-74402000D01*
X116088381Y-74402000D01*
X116350286Y-73687714D02*
X117083619Y-73687714D01*
X116455048Y-73687714D02*
X116402667Y-73616286D01*
X116350286Y-73473428D01*
X116350286Y-73259143D01*
X116402667Y-73116286D01*
X116507429Y-73044857D01*
X117083619Y-73044857D01*
X117083619Y-72330571D02*
X115983619Y-72330571D01*
X116664571Y-72187714D02*
X117083619Y-71759143D01*
X116350286Y-71759143D02*
X116769333Y-72330571D01*
X116350286Y-70116285D02*
X117083619Y-69759142D01*
X116350286Y-69402000D01*
X116088381Y-68902000D02*
X116036000Y-68830571D01*
X115983619Y-68687714D01*
X115983619Y-68330571D01*
X116036000Y-68187714D01*
X116088381Y-68116285D01*
X116193143Y-68044857D01*
X116297905Y-68044857D01*
X116455048Y-68116285D01*
X117083619Y-68973428D01*
X117083619Y-68044857D01*
D10*
X126726190Y-79359046D02*
X126726190Y-79049523D01*
X126916667Y-79216189D01*
X126916667Y-79144761D01*
X126940476Y-79097142D01*
X126964286Y-79073332D01*
X127011905Y-79049523D01*
X127130952Y-79049523D01*
X127178571Y-79073332D01*
X127202381Y-79097142D01*
X127226190Y-79144761D01*
X127226190Y-79287618D01*
X127202381Y-79335237D01*
X127178571Y-79359046D01*
X126726190Y-78906666D02*
X127226190Y-78739999D01*
X126726190Y-78573333D01*
X126726190Y-78454285D02*
X126726190Y-78144762D01*
X126916667Y-78311428D01*
X126916667Y-78240000D01*
X126940476Y-78192381D01*
X126964286Y-78168571D01*
X127011905Y-78144762D01*
X127130952Y-78144762D01*
X127178571Y-78168571D01*
X127202381Y-78192381D01*
X127226190Y-78240000D01*
X127226190Y-78382857D01*
X127202381Y-78430476D01*
X127178571Y-78454285D01*
X124662381Y-80628952D02*
X124686190Y-80557523D01*
X124686190Y-80438476D01*
X124662381Y-80390857D01*
X124638571Y-80367047D01*
X124590952Y-80343238D01*
X124543333Y-80343238D01*
X124495714Y-80367047D01*
X124471905Y-80390857D01*
X124448095Y-80438476D01*
X124424286Y-80533714D01*
X124400476Y-80581333D01*
X124376667Y-80605142D01*
X124329048Y-80628952D01*
X124281429Y-80628952D01*
X124233810Y-80605142D01*
X124210000Y-80581333D01*
X124186190Y-80533714D01*
X124186190Y-80414666D01*
X124210000Y-80343238D01*
X124186190Y-80176571D02*
X124686190Y-80057524D01*
X124329048Y-79962286D01*
X124686190Y-79867048D01*
X124186190Y-79748000D01*
X124686190Y-79557523D02*
X124186190Y-79557523D01*
X124186190Y-79438476D01*
X124210000Y-79367047D01*
X124257619Y-79319428D01*
X124305238Y-79295619D01*
X124400476Y-79271809D01*
X124471905Y-79271809D01*
X124567143Y-79295619D01*
X124614762Y-79319428D01*
X124662381Y-79367047D01*
X124686190Y-79438476D01*
X124686190Y-79557523D01*
X124638571Y-78771809D02*
X124662381Y-78795619D01*
X124686190Y-78867047D01*
X124686190Y-78914666D01*
X124662381Y-78986095D01*
X124614762Y-79033714D01*
X124567143Y-79057523D01*
X124471905Y-79081333D01*
X124400476Y-79081333D01*
X124305238Y-79057523D01*
X124257619Y-79033714D01*
X124210000Y-78986095D01*
X124186190Y-78914666D01*
X124186190Y-78867047D01*
X124210000Y-78795619D01*
X124233810Y-78771809D01*
X124686190Y-78319428D02*
X124686190Y-78557523D01*
X124186190Y-78557523D01*
X124686190Y-78152761D02*
X124186190Y-78152761D01*
X124686190Y-77867047D02*
X124400476Y-78081333D01*
X124186190Y-77867047D02*
X124471905Y-78152761D01*
X122122381Y-80053524D02*
X122146190Y-79982095D01*
X122146190Y-79863048D01*
X122122381Y-79815429D01*
X122098571Y-79791619D01*
X122050952Y-79767810D01*
X122003333Y-79767810D01*
X121955714Y-79791619D01*
X121931905Y-79815429D01*
X121908095Y-79863048D01*
X121884286Y-79958286D01*
X121860476Y-80005905D01*
X121836667Y-80029714D01*
X121789048Y-80053524D01*
X121741429Y-80053524D01*
X121693810Y-80029714D01*
X121670000Y-80005905D01*
X121646190Y-79958286D01*
X121646190Y-79839238D01*
X121670000Y-79767810D01*
X121646190Y-79601143D02*
X122146190Y-79482096D01*
X121789048Y-79386858D01*
X122146190Y-79291620D01*
X121646190Y-79172572D01*
X122146190Y-78982095D02*
X121646190Y-78982095D01*
X121646190Y-78863048D01*
X121670000Y-78791619D01*
X121717619Y-78744000D01*
X121765238Y-78720191D01*
X121860476Y-78696381D01*
X121931905Y-78696381D01*
X122027143Y-78720191D01*
X122074762Y-78744000D01*
X122122381Y-78791619D01*
X122146190Y-78863048D01*
X122146190Y-78982095D01*
X122146190Y-78482095D02*
X121646190Y-78482095D01*
X121646190Y-78148762D02*
X121646190Y-78053524D01*
X121670000Y-78005905D01*
X121717619Y-77958286D01*
X121812857Y-77934477D01*
X121979524Y-77934477D01*
X122074762Y-77958286D01*
X122122381Y-78005905D01*
X122146190Y-78053524D01*
X122146190Y-78148762D01*
X122122381Y-78196381D01*
X122074762Y-78244000D01*
X121979524Y-78267810D01*
X121812857Y-78267810D01*
X121717619Y-78244000D01*
X121670000Y-78196381D01*
X121646190Y-78148762D01*
X119130000Y-79120953D02*
X119106190Y-79168572D01*
X119106190Y-79240000D01*
X119130000Y-79311429D01*
X119177619Y-79359048D01*
X119225238Y-79382857D01*
X119320476Y-79406667D01*
X119391905Y-79406667D01*
X119487143Y-79382857D01*
X119534762Y-79359048D01*
X119582381Y-79311429D01*
X119606190Y-79240000D01*
X119606190Y-79192381D01*
X119582381Y-79120953D01*
X119558571Y-79097143D01*
X119391905Y-79097143D01*
X119391905Y-79192381D01*
X119606190Y-78882857D02*
X119106190Y-78882857D01*
X119606190Y-78597143D01*
X119106190Y-78597143D01*
X119606190Y-78359047D02*
X119106190Y-78359047D01*
X119106190Y-78240000D01*
X119130000Y-78168571D01*
X119177619Y-78120952D01*
X119225238Y-78097143D01*
X119320476Y-78073333D01*
X119391905Y-78073333D01*
X119487143Y-78097143D01*
X119534762Y-78120952D01*
X119582381Y-78168571D01*
X119606190Y-78240000D01*
X119606190Y-78359047D01*
D12*
X131800667Y-83690667D02*
X132200667Y-83690667D01*
X132000667Y-84390667D02*
X132000667Y-83690667D01*
X132400666Y-83757333D02*
X132434000Y-83724000D01*
X132500666Y-83690667D01*
X132667333Y-83690667D01*
X132734000Y-83724000D01*
X132767333Y-83757333D01*
X132800666Y-83824000D01*
X132800666Y-83890667D01*
X132767333Y-83990667D01*
X132367333Y-84390667D01*
X132800666Y-84390667D01*
X131800667Y-80896667D02*
X132200667Y-80896667D01*
X132000667Y-81596667D02*
X132000667Y-80896667D01*
X132800666Y-81596667D02*
X132400666Y-81596667D01*
X132600666Y-81596667D02*
X132600666Y-80896667D01*
X132534000Y-80996667D01*
X132467333Y-81063333D01*
X132400666Y-81096667D01*
D14*
X132731429Y-121328571D02*
X132331429Y-120614286D01*
X132045714Y-121328571D02*
X132045714Y-119828571D01*
X132502857Y-119828571D01*
X132617143Y-119900000D01*
X132674286Y-119971429D01*
X132731429Y-120114286D01*
X132731429Y-120328571D01*
X132674286Y-120471429D01*
X132617143Y-120542857D01*
X132502857Y-120614286D01*
X132045714Y-120614286D01*
X133645714Y-120542857D02*
X133817143Y-120614286D01*
X133874286Y-120685714D01*
X133931429Y-120828571D01*
X133931429Y-121042857D01*
X133874286Y-121185714D01*
X133817143Y-121257143D01*
X133702857Y-121328571D01*
X133245714Y-121328571D01*
X133245714Y-119828571D01*
X133645714Y-119828571D01*
X133760000Y-119900000D01*
X133817143Y-119971429D01*
X133874286Y-120114286D01*
X133874286Y-120257143D01*
X133817143Y-120400000D01*
X133760000Y-120471429D01*
X133645714Y-120542857D01*
X133245714Y-120542857D01*
X135017143Y-121328571D02*
X134445714Y-121328571D01*
X134445714Y-119828571D01*
X135645715Y-119828571D02*
X135760000Y-119828571D01*
X135874286Y-119900000D01*
X135931429Y-119971429D01*
X135988572Y-120114286D01*
X136045715Y-120400000D01*
X136045715Y-120757143D01*
X135988572Y-121042857D01*
X135931429Y-121185714D01*
X135874286Y-121257143D01*
X135760000Y-121328571D01*
X135645715Y-121328571D01*
X135531429Y-121257143D01*
X135474286Y-121185714D01*
X135417143Y-121042857D01*
X135360000Y-120757143D01*
X135360000Y-120400000D01*
X135417143Y-120114286D01*
X135474286Y-119971429D01*
X135531429Y-119900000D01*
X135645715Y-119828571D01*
X136788572Y-119828571D02*
X136902857Y-119828571D01*
X137017143Y-119900000D01*
X137074286Y-119971429D01*
X137131429Y-120114286D01*
X137188572Y-120400000D01*
X137188572Y-120757143D01*
X137131429Y-121042857D01*
X137074286Y-121185714D01*
X137017143Y-121257143D01*
X136902857Y-121328571D01*
X136788572Y-121328571D01*
X136674286Y-121257143D01*
X136617143Y-121185714D01*
X136560000Y-121042857D01*
X136502857Y-120757143D01*
X136502857Y-120400000D01*
X136560000Y-120114286D01*
X136617143Y-119971429D01*
X136674286Y-119900000D01*
X136788572Y-119828571D01*
X138217143Y-120328571D02*
X138217143Y-121328571D01*
X137931429Y-119757143D02*
X137645714Y-120828571D01*
X138388572Y-120828571D01*
X138845714Y-121185714D02*
X138902857Y-121257143D01*
X138845714Y-121328571D01*
X138788571Y-121257143D01*
X138845714Y-121185714D01*
X138845714Y-121328571D01*
X139645715Y-119828571D02*
X139760000Y-119828571D01*
X139874286Y-119900000D01*
X139931429Y-119971429D01*
X139988572Y-120114286D01*
X140045715Y-120400000D01*
X140045715Y-120757143D01*
X139988572Y-121042857D01*
X139931429Y-121185714D01*
X139874286Y-121257143D01*
X139760000Y-121328571D01*
X139645715Y-121328571D01*
X139531429Y-121257143D01*
X139474286Y-121185714D01*
X139417143Y-121042857D01*
X139360000Y-120757143D01*
X139360000Y-120400000D01*
X139417143Y-120114286D01*
X139474286Y-119971429D01*
X139531429Y-119900000D01*
X139645715Y-119828571D01*
X140788572Y-119828571D02*
X140902857Y-119828571D01*
X141017143Y-119900000D01*
X141074286Y-119971429D01*
X141131429Y-120114286D01*
X141188572Y-120400000D01*
X141188572Y-120757143D01*
X141131429Y-121042857D01*
X141074286Y-121185714D01*
X141017143Y-121257143D01*
X140902857Y-121328571D01*
X140788572Y-121328571D01*
X140674286Y-121257143D01*
X140617143Y-121185714D01*
X140560000Y-121042857D01*
X140502857Y-120757143D01*
X140502857Y-120400000D01*
X140560000Y-120114286D01*
X140617143Y-119971429D01*
X140674286Y-119900000D01*
X140788572Y-119828571D01*
X142331429Y-121328571D02*
X141645714Y-121328571D01*
X141988572Y-121328571D02*
X141988572Y-119828571D01*
X141874286Y-120042857D01*
X141760000Y-120185714D01*
X141645714Y-120257143D01*
D17*
X177102095Y-76652381D02*
X177102095Y-75652381D01*
X177483048Y-75652381D01*
X177578286Y-75700000D01*
X177625905Y-75747619D01*
X177673524Y-75842857D01*
X177673524Y-75985714D01*
X177625905Y-76080952D01*
X177578286Y-76128571D01*
X177483048Y-76176190D01*
X177102095Y-76176190D01*
X178292571Y-75652381D02*
X178483048Y-75652381D01*
X178578286Y-75700000D01*
X178673524Y-75795238D01*
X178721143Y-75985714D01*
X178721143Y-76319048D01*
X178673524Y-76509524D01*
X178578286Y-76604762D01*
X178483048Y-76652381D01*
X178292571Y-76652381D01*
X178197333Y-76604762D01*
X178102095Y-76509524D01*
X178054476Y-76319048D01*
X178054476Y-75985714D01*
X178102095Y-75795238D01*
X178197333Y-75700000D01*
X178292571Y-75652381D01*
X179054476Y-75652381D02*
X179292571Y-76652381D01*
X179483048Y-75938095D01*
X179673524Y-76652381D01*
X179911619Y-75652381D01*
X180292571Y-76128571D02*
X180625905Y-76128571D01*
X180768762Y-76652381D02*
X180292571Y-76652381D01*
X180292571Y-75652381D01*
X180768762Y-75652381D01*
X181768762Y-76652381D02*
X181435428Y-76176190D01*
X181197333Y-76652381D02*
X181197333Y-75652381D01*
X181578286Y-75652381D01*
X181673524Y-75700000D01*
X181721143Y-75747619D01*
X181768762Y-75842857D01*
X181768762Y-75985714D01*
X181721143Y-76080952D01*
X181673524Y-76128571D01*
X181578286Y-76176190D01*
X181197333Y-76176190D01*
X183530667Y-76557143D02*
X183483048Y-76604762D01*
X183340191Y-76652381D01*
X183244953Y-76652381D01*
X183102095Y-76604762D01*
X183006857Y-76509524D01*
X182959238Y-76414286D01*
X182911619Y-76223810D01*
X182911619Y-76080952D01*
X182959238Y-75890476D01*
X183006857Y-75795238D01*
X183102095Y-75700000D01*
X183244953Y-75652381D01*
X183340191Y-75652381D01*
X183483048Y-75700000D01*
X183530667Y-75747619D01*
X184149714Y-75652381D02*
X184340191Y-75652381D01*
X184435429Y-75700000D01*
X184530667Y-75795238D01*
X184578286Y-75985714D01*
X184578286Y-76319048D01*
X184530667Y-76509524D01*
X184435429Y-76604762D01*
X184340191Y-76652381D01*
X184149714Y-76652381D01*
X184054476Y-76604762D01*
X183959238Y-76509524D01*
X183911619Y-76319048D01*
X183911619Y-75985714D01*
X183959238Y-75795238D01*
X184054476Y-75700000D01*
X184149714Y-75652381D01*
X185006857Y-76652381D02*
X185006857Y-75652381D01*
X185578286Y-76652381D01*
X185578286Y-75652381D01*
X186054476Y-76652381D02*
X186054476Y-75652381D01*
X186625905Y-76652381D01*
X186625905Y-75652381D01*
X172886667Y-115410476D02*
X172886667Y-114934285D01*
X173172381Y-115505714D02*
X172172381Y-115172381D01*
X173172381Y-114839047D01*
X173172381Y-114505714D02*
X172172381Y-114505714D01*
X172886667Y-114172380D01*
X172172381Y-113839047D01*
X173172381Y-113839047D01*
X173172381Y-113362857D02*
X172172381Y-113362857D01*
X172220000Y-112362857D02*
X172172381Y-112458095D01*
X172172381Y-112600952D01*
X172220000Y-112743810D01*
X172315238Y-112839048D01*
X172410476Y-112886667D01*
X172600952Y-112934286D01*
X172743810Y-112934286D01*
X172934286Y-112886667D01*
X173029524Y-112839048D01*
X173124762Y-112743810D01*
X173172381Y-112600952D01*
X173172381Y-112505714D01*
X173124762Y-112362857D01*
X173077143Y-112315238D01*
X172743810Y-112315238D01*
X172743810Y-112505714D01*
X172886667Y-111934286D02*
X172886667Y-111458095D01*
X173172381Y-112029524D02*
X172172381Y-111696191D01*
X173172381Y-111362857D01*
X173172381Y-110267619D02*
X172172381Y-110267619D01*
X173172381Y-109696190D02*
X172600952Y-110124762D01*
X172172381Y-109696190D02*
X172743810Y-110267619D01*
X172648571Y-109267619D02*
X172648571Y-108934285D01*
X173172381Y-108791428D02*
X173172381Y-109267619D01*
X172172381Y-109267619D01*
X172172381Y-108791428D01*
X172696190Y-108172381D02*
X173172381Y-108172381D01*
X172172381Y-108505714D02*
X172696190Y-108172381D01*
X172172381Y-107839047D01*
X172648571Y-107172380D02*
X172696190Y-107029523D01*
X172743810Y-106981904D01*
X172839048Y-106934285D01*
X172981905Y-106934285D01*
X173077143Y-106981904D01*
X173124762Y-107029523D01*
X173172381Y-107124761D01*
X173172381Y-107505714D01*
X172172381Y-107505714D01*
X172172381Y-107172380D01*
X172220000Y-107077142D01*
X172267619Y-107029523D01*
X172362857Y-106981904D01*
X172458095Y-106981904D01*
X172553333Y-107029523D01*
X172600952Y-107077142D01*
X172648571Y-107172380D01*
X172648571Y-107505714D01*
X172172381Y-106315238D02*
X172172381Y-106124761D01*
X172220000Y-106029523D01*
X172315238Y-105934285D01*
X172505714Y-105886666D01*
X172839048Y-105886666D01*
X173029524Y-105934285D01*
X173124762Y-106029523D01*
X173172381Y-106124761D01*
X173172381Y-106315238D01*
X173124762Y-106410476D01*
X173029524Y-106505714D01*
X172839048Y-106553333D01*
X172505714Y-106553333D01*
X172315238Y-106505714D01*
X172220000Y-106410476D01*
X172172381Y-106315238D01*
X172886667Y-105505714D02*
X172886667Y-105029523D01*
X173172381Y-105600952D02*
X172172381Y-105267619D01*
X173172381Y-104934285D01*
X173172381Y-104029523D02*
X172696190Y-104362857D01*
X173172381Y-104600952D02*
X172172381Y-104600952D01*
X172172381Y-104219999D01*
X172220000Y-104124761D01*
X172267619Y-104077142D01*
X172362857Y-104029523D01*
X172505714Y-104029523D01*
X172600952Y-104077142D01*
X172648571Y-104124761D01*
X172696190Y-104219999D01*
X172696190Y-104600952D01*
X173172381Y-103600952D02*
X172172381Y-103600952D01*
X172172381Y-103362857D01*
X172220000Y-103219999D01*
X172315238Y-103124761D01*
X172410476Y-103077142D01*
X172600952Y-103029523D01*
X172743810Y-103029523D01*
X172934286Y-103077142D01*
X173029524Y-103124761D01*
X173124762Y-103219999D01*
X173172381Y-103362857D01*
X173172381Y-103600952D01*
X171656952Y-122086667D02*
X172133143Y-122086667D01*
X171561714Y-122372381D02*
X171895047Y-121372381D01*
X172228381Y-122372381D01*
X172561714Y-122372381D02*
X172561714Y-121372381D01*
X172895048Y-122086667D01*
X173228381Y-121372381D01*
X173228381Y-122372381D01*
X173704571Y-122372381D02*
X173704571Y-121372381D01*
X174704571Y-121420000D02*
X174609333Y-121372381D01*
X174466476Y-121372381D01*
X174323618Y-121420000D01*
X174228380Y-121515238D01*
X174180761Y-121610476D01*
X174133142Y-121800952D01*
X174133142Y-121943810D01*
X174180761Y-122134286D01*
X174228380Y-122229524D01*
X174323618Y-122324762D01*
X174466476Y-122372381D01*
X174561714Y-122372381D01*
X174704571Y-122324762D01*
X174752190Y-122277143D01*
X174752190Y-121943810D01*
X174561714Y-121943810D01*
X175133142Y-122086667D02*
X175609333Y-122086667D01*
X175037904Y-122372381D02*
X175371237Y-121372381D01*
X175704571Y-122372381D01*
X177371238Y-122372381D02*
X177037904Y-121896190D01*
X176799809Y-122372381D02*
X176799809Y-121372381D01*
X177180762Y-121372381D01*
X177276000Y-121420000D01*
X177323619Y-121467619D01*
X177371238Y-121562857D01*
X177371238Y-121705714D01*
X177323619Y-121800952D01*
X177276000Y-121848571D01*
X177180762Y-121896190D01*
X176799809Y-121896190D01*
X177799809Y-121848571D02*
X178133143Y-121848571D01*
X178276000Y-122372381D02*
X177799809Y-122372381D01*
X177799809Y-121372381D01*
X178276000Y-121372381D01*
X178656952Y-122324762D02*
X178799809Y-122372381D01*
X179037905Y-122372381D01*
X179133143Y-122324762D01*
X179180762Y-122277143D01*
X179228381Y-122181905D01*
X179228381Y-122086667D01*
X179180762Y-121991429D01*
X179133143Y-121943810D01*
X179037905Y-121896190D01*
X178847428Y-121848571D01*
X178752190Y-121800952D01*
X178704571Y-121753333D01*
X178656952Y-121658095D01*
X178656952Y-121562857D01*
X178704571Y-121467619D01*
X178752190Y-121420000D01*
X178847428Y-121372381D01*
X179085524Y-121372381D01*
X179228381Y-121420000D01*
X179656952Y-121848571D02*
X179990286Y-121848571D01*
X180133143Y-122372381D02*
X179656952Y-122372381D01*
X179656952Y-121372381D01*
X180133143Y-121372381D01*
X180418857Y-121372381D02*
X180990286Y-121372381D01*
X180704571Y-122372381D02*
X180704571Y-121372381D01*
D12*
X142541445Y-93980000D02*
X143301585Y-94740140D01*
X149860000Y-86661445D02*
X150620140Y-87421585D01*
X157178555Y-93980000D02*
X156418415Y-93219860D01*
X149860000Y-101298555D02*
X149099860Y-100538415D01*
X142541445Y-93980000D02*
X143301585Y-93219860D01*
X149860000Y-101298555D02*
X150620140Y-100538415D01*
X157178555Y-93980000D02*
X156418415Y-94740140D01*
X149860000Y-86661445D02*
X149099860Y-87421585D01*
X143301585Y-94740140D02*
X142576800Y-95464924D01*
X115316000Y-120650000D02*
G75*
G03X115316000Y-120650000I-2286000J0D01*
G01*
X186436000Y-120650000D02*
G75*
G03X186436000Y-120650000I-2286000J0D01*
G01*
X186436000Y-69850000D02*
G75*
G03X186436000Y-69850000I-2286000J0D01*
G01*
X115316000Y-69850000D02*
G75*
G03X115316000Y-69850000I-2286000J0D01*
G01*
X171196000Y-72136000D02*
X171196000Y-69088000D01*
X171196000Y-69088000D02*
X164084000Y-69088000D01*
X164084000Y-69088000D02*
X164084000Y-72136000D01*
X171196000Y-75184000D02*
X171196000Y-75946000D01*
X171196000Y-75946000D02*
X169672000Y-78232000D01*
X169672000Y-78232000D02*
X165608000Y-78232000D01*
X165608000Y-78232000D02*
X164084000Y-75946000D01*
X164084000Y-75946000D02*
X164084000Y-75184000D01*
X137130840Y-109870240D02*
X137179100Y-109870240D01*
X139929820Y-109169200D02*
X139929820Y-109870240D01*
X139929820Y-109870240D02*
X139680900Y-109870240D01*
X137130840Y-109870240D02*
X136930180Y-109870240D01*
X136930180Y-109870240D02*
X136930180Y-109169200D01*
X149068840Y-107838240D02*
X149117100Y-107838240D01*
X151867820Y-107137200D02*
X151867820Y-107838240D01*
X151867820Y-107838240D02*
X151618900Y-107838240D01*
X149068840Y-107838240D02*
X148868180Y-107838240D01*
X148868180Y-107838240D02*
X148868180Y-107137200D01*
X160244840Y-109870240D02*
X160293100Y-109870240D01*
X163043820Y-109169200D02*
X163043820Y-109870240D01*
X163043820Y-109870240D02*
X162794900Y-109870240D01*
X160244840Y-109870240D02*
X160044180Y-109870240D01*
X160044180Y-109870240D02*
X160044180Y-109169200D01*
X146050000Y-110524000D02*
X157250000Y-110524000D01*
X157250000Y-128524000D02*
X157250000Y-110524000D01*
X146050000Y-128524000D02*
X146050000Y-110524000D01*
X146050000Y-128524000D02*
X157250000Y-128524000D01*
X162526000Y-77606000D02*
X162526000Y-81206000D01*
X164626000Y-77606000D02*
X164626000Y-81206000D01*
X163876000Y-79656000D02*
X163276000Y-79656000D01*
X163276000Y-79656000D02*
X163576000Y-79356000D01*
X163576000Y-79356000D02*
X163776000Y-79556000D01*
X163776000Y-79556000D02*
X163526000Y-79556000D01*
X163526000Y-79556000D02*
X163576000Y-79506000D01*
X164076000Y-79256000D02*
X163076000Y-79256000D01*
X163576000Y-79756000D02*
X163576000Y-80256000D01*
X163576000Y-79256000D02*
X164076000Y-79756000D01*
X164076000Y-79756000D02*
X163076000Y-79756000D01*
X163076000Y-79756000D02*
X163576000Y-79256000D01*
X142866000Y-87850000D02*
X139266000Y-87850000D01*
X142866000Y-89950000D02*
X139266000Y-89950000D01*
X140816000Y-89200000D02*
X140816000Y-88600000D01*
X140816000Y-88600000D02*
X141116000Y-88900000D01*
X141116000Y-88900000D02*
X140916000Y-89100000D01*
X140916000Y-89100000D02*
X140916000Y-88850000D01*
X140916000Y-88850000D02*
X140966000Y-88900000D01*
X141216000Y-89400000D02*
X141216000Y-88400000D01*
X140716000Y-88900000D02*
X140216000Y-88900000D01*
X141216000Y-88900000D02*
X140716000Y-89400000D01*
X140716000Y-89400000D02*
X140716000Y-88400000D01*
X140716000Y-88400000D02*
X141216000Y-88900000D01*
X179206000Y-92490000D02*
X182806000Y-92490000D01*
X179206000Y-90390000D02*
X182806000Y-90390000D01*
X181256000Y-91140000D02*
X181256000Y-91740000D01*
X181256000Y-91740000D02*
X180956000Y-91440000D01*
X180956000Y-91440000D02*
X181156000Y-91240000D01*
X181156000Y-91240000D02*
X181156000Y-91490000D01*
X181156000Y-91490000D02*
X181106000Y-91440000D01*
X180856000Y-90940000D02*
X180856000Y-91940000D01*
X181356000Y-91440000D02*
X181856000Y-91440000D01*
X180856000Y-91440000D02*
X181356000Y-90940000D01*
X181356000Y-90940000D02*
X181356000Y-91940000D01*
X181356000Y-91940000D02*
X180856000Y-91440000D01*
X121530000Y-87850000D02*
X117930000Y-87850000D01*
X121530000Y-89950000D02*
X117930000Y-89950000D01*
X119480000Y-89200000D02*
X119480000Y-88600000D01*
X119480000Y-88600000D02*
X119780000Y-88900000D01*
X119780000Y-88900000D02*
X119580000Y-89100000D01*
X119580000Y-89100000D02*
X119580000Y-88850000D01*
X119580000Y-88850000D02*
X119630000Y-88900000D01*
X119880000Y-89400000D02*
X119880000Y-88400000D01*
X119380000Y-88900000D02*
X118880000Y-88900000D01*
X119880000Y-88900000D02*
X119380000Y-89400000D01*
X119380000Y-89400000D02*
X119380000Y-88400000D01*
X119380000Y-88400000D02*
X119880000Y-88900000D01*
X159453000Y-80248000D02*
X159453000Y-78248000D01*
X161603000Y-78248000D02*
X161603000Y-80248000D01*
X135620000Y-89975000D02*
X133620000Y-89975000D01*
X133620000Y-87825000D02*
X135620000Y-87825000D01*
X125290000Y-94980000D02*
X125290000Y-92980000D01*
X127440000Y-92980000D02*
X127440000Y-94980000D01*
X145780000Y-105723000D02*
X143780000Y-105723000D01*
X143780000Y-103573000D02*
X145780000Y-103573000D01*
X156956000Y-105215000D02*
X154956000Y-105215000D01*
X154956000Y-103065000D02*
X156956000Y-103065000D01*
X176260000Y-92515000D02*
X174260000Y-92515000D01*
X174260000Y-90365000D02*
X176260000Y-90365000D01*
X162195000Y-103065000D02*
X164195000Y-103065000D01*
X164195000Y-105215000D02*
X162195000Y-105215000D01*
X164533000Y-110220000D02*
X164533000Y-108220000D01*
X166683000Y-108220000D02*
X166683000Y-110220000D01*
X145780000Y-110295000D02*
X143780000Y-110295000D01*
X143780000Y-108145000D02*
X145780000Y-108145000D01*
X154956000Y-107129000D02*
X156956000Y-107129000D01*
X156956000Y-109279000D02*
X154956000Y-109279000D01*
X135695000Y-108220000D02*
X135695000Y-110220000D01*
X133545000Y-110220000D02*
X133545000Y-108220000D01*
X136795000Y-103065000D02*
X138795000Y-103065000D01*
X138795000Y-105215000D02*
X136795000Y-105215000D01*
X126984000Y-89975000D02*
X124984000Y-89975000D01*
X124984000Y-87825000D02*
X126984000Y-87825000D01*
X141350140Y-79885120D02*
X141350140Y-65788120D01*
X156336140Y-65788120D02*
X156336140Y-79885120D01*
X141350140Y-79885120D02*
X156336140Y-79885120D01*
X141350140Y-65788120D02*
X156336140Y-65788120D01*
D18*
X130558000Y-96535000D02*
X136958000Y-96535000D01*
X130558000Y-101585000D02*
X136958000Y-101585000D01*
X130558000Y-101585000D02*
G75*
G02X130558000Y-96535000I0J2525000D01*
G01*
X136958000Y-101585000D02*
G75*
G03X136958000Y-96535000I0J2525000D01*
G01*
D12*
X161528000Y-85589000D02*
X159528000Y-85589000D01*
X159528000Y-87639000D02*
X161528000Y-87639000D01*
X161535000Y-98060000D02*
X161535000Y-100060000D01*
X163585000Y-100060000D02*
X163585000Y-98060000D01*
X158995000Y-98060000D02*
X158995000Y-100060000D01*
X161045000Y-100060000D02*
X161045000Y-98060000D01*
X160004000Y-88383000D02*
X158004000Y-88383000D01*
X158004000Y-90433000D02*
X160004000Y-90433000D01*
X144256000Y-100575000D02*
X142256000Y-100575000D01*
X142256000Y-102625000D02*
X144256000Y-102625000D01*
X137652000Y-91939000D02*
X135652000Y-91939000D01*
X135652000Y-93989000D02*
X137652000Y-93989000D01*
X117830000Y-77500000D02*
X119380000Y-77500000D01*
X117830000Y-76200000D02*
X117830000Y-77500000D01*
X119253000Y-72009000D02*
X119253000Y-66167000D01*
X119253000Y-66167000D02*
X119507000Y-66167000D01*
X119507000Y-66167000D02*
X119507000Y-72009000D01*
X119507000Y-72009000D02*
X119380000Y-72009000D01*
X119380000Y-72009000D02*
X119380000Y-66167000D01*
X119126000Y-74676000D02*
X119126000Y-75057000D01*
X119634000Y-74676000D02*
X119634000Y-75057000D01*
X121666000Y-74676000D02*
X121666000Y-75057000D01*
X122174000Y-74676000D02*
X122174000Y-75057000D01*
X124206000Y-74676000D02*
X124206000Y-75057000D01*
X124714000Y-74676000D02*
X124714000Y-75057000D01*
X127254000Y-74676000D02*
X127254000Y-75057000D01*
X126746000Y-74676000D02*
X126746000Y-75057000D01*
X118110000Y-74676000D02*
X118110000Y-72136000D01*
X120650000Y-74676000D02*
X120650000Y-72136000D01*
X120650000Y-74676000D02*
X123190000Y-74676000D01*
X123190000Y-74676000D02*
X123190000Y-72136000D01*
X121666000Y-72136000D02*
X121666000Y-66040000D01*
X121666000Y-66040000D02*
X122174000Y-66040000D01*
X122174000Y-66040000D02*
X122174000Y-72136000D01*
X123190000Y-72136000D02*
X120650000Y-72136000D01*
X120650000Y-72136000D02*
X118110000Y-72136000D01*
X119634000Y-66040000D02*
X119634000Y-72136000D01*
X119126000Y-66040000D02*
X119634000Y-66040000D01*
X119126000Y-72136000D02*
X119126000Y-66040000D01*
X120650000Y-74676000D02*
X120650000Y-72136000D01*
X118110000Y-74676000D02*
X120650000Y-74676000D01*
X125730000Y-74676000D02*
X125730000Y-72136000D01*
X125730000Y-74676000D02*
X128270000Y-74676000D01*
X128270000Y-74676000D02*
X128270000Y-72136000D01*
X126746000Y-72136000D02*
X126746000Y-66040000D01*
X126746000Y-66040000D02*
X127254000Y-66040000D01*
X127254000Y-66040000D02*
X127254000Y-72136000D01*
X128270000Y-72136000D02*
X125730000Y-72136000D01*
X125730000Y-72136000D02*
X123190000Y-72136000D01*
X124714000Y-66040000D02*
X124714000Y-72136000D01*
X124206000Y-66040000D02*
X124714000Y-66040000D01*
X124206000Y-72136000D02*
X124206000Y-66040000D01*
X125730000Y-74676000D02*
X125730000Y-72136000D01*
X123190000Y-74676000D02*
X125730000Y-74676000D01*
X123190000Y-74676000D02*
X123190000Y-72136000D01*
X120650000Y-85090000D02*
X125730000Y-85090000D01*
X125730000Y-85090000D02*
X125730000Y-82550000D01*
X125730000Y-82550000D02*
X120650000Y-82550000D01*
X117830000Y-82270000D02*
X119380000Y-82270000D01*
X120650000Y-82550000D02*
X120650000Y-85090000D01*
X119380000Y-85370000D02*
X117830000Y-85370000D01*
X117830000Y-85370000D02*
X117830000Y-82270000D01*
X128270000Y-82550000D02*
X128270000Y-80010000D01*
X127990000Y-85370000D02*
X127990000Y-83820000D01*
X128270000Y-82550000D02*
X130810000Y-82550000D01*
X131090000Y-83820000D02*
X131090000Y-85370000D01*
X131090000Y-85370000D02*
X127990000Y-85370000D01*
X130810000Y-82550000D02*
X130810000Y-80010000D01*
X130810000Y-80010000D02*
X128270000Y-80010000D01*
X135890000Y-69215000D02*
X130810000Y-69215000D01*
X130810000Y-69215000D02*
X130810000Y-71755000D01*
X130810000Y-71755000D02*
X135890000Y-71755000D01*
X138710000Y-72035000D02*
X137160000Y-72035000D01*
X135890000Y-71755000D02*
X135890000Y-69215000D01*
X137160000Y-68935000D02*
X138710000Y-68935000D01*
X138710000Y-68935000D02*
X138710000Y-72035000D01*
D18*
X112490000Y-99580000D02*
X112490000Y-93460000D01*
X112490000Y-93460000D02*
X116110000Y-93460000D01*
X116110000Y-93460000D02*
X116110000Y-99580000D01*
X116110000Y-99580000D02*
X112490000Y-99580000D01*
D12*
X162560000Y-72390000D02*
X162560000Y-74930000D01*
X162840000Y-69570000D02*
X162840000Y-71120000D01*
X162560000Y-72390000D02*
X160020000Y-72390000D01*
X159740000Y-71120000D02*
X159740000Y-69570000D01*
X159740000Y-69570000D02*
X162840000Y-69570000D01*
X160020000Y-72390000D02*
X160020000Y-74930000D01*
X160020000Y-74930000D02*
X162560000Y-74930000D01*
X173960000Y-77190000D02*
X173960000Y-78740000D01*
X175260000Y-77190000D02*
X173960000Y-77190000D01*
X179451000Y-78613000D02*
X185293000Y-78613000D01*
X185293000Y-78613000D02*
X185293000Y-78867000D01*
X185293000Y-78867000D02*
X179451000Y-78867000D01*
X179451000Y-78867000D02*
X179451000Y-78740000D01*
X179451000Y-78740000D02*
X185293000Y-78740000D01*
X176784000Y-78486000D02*
X176403000Y-78486000D01*
X176784000Y-78994000D02*
X176403000Y-78994000D01*
X176784000Y-81026000D02*
X176403000Y-81026000D01*
X176784000Y-81534000D02*
X176403000Y-81534000D01*
X176784000Y-83566000D02*
X176403000Y-83566000D01*
X176784000Y-84074000D02*
X176403000Y-84074000D01*
X176784000Y-86614000D02*
X176403000Y-86614000D01*
X176784000Y-86106000D02*
X176403000Y-86106000D01*
X176784000Y-77470000D02*
X179324000Y-77470000D01*
X176784000Y-80010000D02*
X179324000Y-80010000D01*
X176784000Y-80010000D02*
X176784000Y-82550000D01*
X176784000Y-82550000D02*
X179324000Y-82550000D01*
X179324000Y-81026000D02*
X185420000Y-81026000D01*
X185420000Y-81026000D02*
X185420000Y-81534000D01*
X185420000Y-81534000D02*
X179324000Y-81534000D01*
X179324000Y-82550000D02*
X179324000Y-80010000D01*
X179324000Y-80010000D02*
X179324000Y-77470000D01*
X185420000Y-78994000D02*
X179324000Y-78994000D01*
X185420000Y-78486000D02*
X185420000Y-78994000D01*
X179324000Y-78486000D02*
X185420000Y-78486000D01*
X176784000Y-80010000D02*
X179324000Y-80010000D01*
X176784000Y-77470000D02*
X176784000Y-80010000D01*
X176784000Y-85090000D02*
X179324000Y-85090000D01*
X176784000Y-85090000D02*
X176784000Y-87630000D01*
X176784000Y-87630000D02*
X179324000Y-87630000D01*
X179324000Y-86106000D02*
X185420000Y-86106000D01*
X185420000Y-86106000D02*
X185420000Y-86614000D01*
X185420000Y-86614000D02*
X179324000Y-86614000D01*
X179324000Y-87630000D02*
X179324000Y-85090000D01*
X179324000Y-85090000D02*
X179324000Y-82550000D01*
X185420000Y-84074000D02*
X179324000Y-84074000D01*
X185420000Y-83566000D02*
X185420000Y-84074000D01*
X179324000Y-83566000D02*
X185420000Y-83566000D01*
X176784000Y-85090000D02*
X179324000Y-85090000D01*
X176784000Y-82550000D02*
X176784000Y-85090000D01*
X176784000Y-82550000D02*
X179324000Y-82550000D01*
X173960000Y-102590000D02*
X173960000Y-104140000D01*
X175260000Y-102590000D02*
X173960000Y-102590000D01*
X179451000Y-104013000D02*
X185293000Y-104013000D01*
X185293000Y-104013000D02*
X185293000Y-104267000D01*
X185293000Y-104267000D02*
X179451000Y-104267000D01*
X179451000Y-104267000D02*
X179451000Y-104140000D01*
X179451000Y-104140000D02*
X185293000Y-104140000D01*
X176784000Y-103886000D02*
X176403000Y-103886000D01*
X176784000Y-104394000D02*
X176403000Y-104394000D01*
X176784000Y-106426000D02*
X176403000Y-106426000D01*
X176784000Y-106934000D02*
X176403000Y-106934000D01*
X176784000Y-108966000D02*
X176403000Y-108966000D01*
X176784000Y-109474000D02*
X176403000Y-109474000D01*
X176784000Y-111506000D02*
X176403000Y-111506000D01*
X176784000Y-112014000D02*
X176403000Y-112014000D01*
X176784000Y-114554000D02*
X176403000Y-114554000D01*
X176784000Y-114046000D02*
X176403000Y-114046000D01*
X179324000Y-105410000D02*
X179324000Y-102870000D01*
X185420000Y-104394000D02*
X179324000Y-104394000D01*
X185420000Y-103886000D02*
X185420000Y-104394000D01*
X179324000Y-103886000D02*
X185420000Y-103886000D01*
X176784000Y-105410000D02*
X179324000Y-105410000D01*
X176784000Y-102870000D02*
X176784000Y-105410000D01*
X176784000Y-102870000D02*
X179324000Y-102870000D01*
X176784000Y-107950000D02*
X179324000Y-107950000D01*
X176784000Y-107950000D02*
X176784000Y-110490000D01*
X176784000Y-110490000D02*
X179324000Y-110490000D01*
X179324000Y-108966000D02*
X185420000Y-108966000D01*
X185420000Y-108966000D02*
X185420000Y-109474000D01*
X185420000Y-109474000D02*
X179324000Y-109474000D01*
X179324000Y-110490000D02*
X179324000Y-107950000D01*
X179324000Y-107950000D02*
X179324000Y-105410000D01*
X185420000Y-106934000D02*
X179324000Y-106934000D01*
X185420000Y-106426000D02*
X185420000Y-106934000D01*
X179324000Y-106426000D02*
X185420000Y-106426000D01*
X176784000Y-107950000D02*
X179324000Y-107950000D01*
X176784000Y-105410000D02*
X176784000Y-107950000D01*
X176784000Y-105410000D02*
X179324000Y-105410000D01*
X176784000Y-113030000D02*
X179324000Y-113030000D01*
X176784000Y-113030000D02*
X176784000Y-115570000D01*
X176784000Y-115570000D02*
X179324000Y-115570000D01*
X179324000Y-114046000D02*
X185420000Y-114046000D01*
X185420000Y-114046000D02*
X185420000Y-114554000D01*
X185420000Y-114554000D02*
X179324000Y-114554000D01*
X179324000Y-115570000D02*
X179324000Y-113030000D01*
X179324000Y-113030000D02*
X179324000Y-110490000D01*
X185420000Y-112014000D02*
X179324000Y-112014000D01*
X185420000Y-111506000D02*
X185420000Y-112014000D01*
X179324000Y-111506000D02*
X185420000Y-111506000D01*
X176784000Y-113030000D02*
X179324000Y-113030000D01*
X176784000Y-110490000D02*
X176784000Y-113030000D01*
X176784000Y-110490000D02*
X179324000Y-110490000D01*
X176530000Y-118110000D02*
X179070000Y-118110000D01*
X173710000Y-117830000D02*
X175260000Y-117830000D01*
X176530000Y-118110000D02*
X176530000Y-120650000D01*
X175260000Y-120930000D02*
X173710000Y-120930000D01*
X173710000Y-120930000D02*
X173710000Y-117830000D01*
X176530000Y-120650000D02*
X179070000Y-120650000D01*
X179070000Y-120650000D02*
X179070000Y-118110000D01*
X120650000Y-95250000D02*
X120650000Y-92710000D01*
X120370000Y-98070000D02*
X120370000Y-96520000D01*
X120650000Y-95250000D02*
X123190000Y-95250000D01*
X123470000Y-96520000D02*
X123470000Y-98070000D01*
X123470000Y-98070000D02*
X120370000Y-98070000D01*
X123190000Y-95250000D02*
X123190000Y-92710000D01*
X123190000Y-92710000D02*
X120650000Y-92710000D01*
D18*
X127865000Y-103870000D02*
X127865000Y-119650000D01*
X127865000Y-119650000D02*
X118515000Y-119650000D01*
X118515000Y-119650000D02*
X118515000Y-103870000D01*
X118515000Y-103870000D02*
X127865000Y-103870000D01*
X118265000Y-103620000D02*
X118265000Y-106160000D01*
X118265000Y-103620000D02*
X120805000Y-103620000D01*
D12*
X135890000Y-73660000D02*
X130810000Y-73660000D01*
X130810000Y-73660000D02*
X130810000Y-76200000D01*
X130810000Y-76200000D02*
X135890000Y-76200000D01*
X138710000Y-76480000D02*
X137160000Y-76480000D01*
X135890000Y-76200000D02*
X135890000Y-73660000D01*
X137160000Y-73380000D02*
X138710000Y-73380000D01*
X138710000Y-73380000D02*
X138710000Y-76480000D01*
X141240000Y-84845000D02*
X143240000Y-84845000D01*
X143240000Y-82795000D02*
X141240000Y-82795000D01*
X164195000Y-113910000D02*
X162195000Y-113910000D01*
X162195000Y-115960000D02*
X164195000Y-115960000D01*
X129150000Y-108220000D02*
X129150000Y-110220000D01*
X131200000Y-110220000D02*
X131200000Y-108220000D01*
X170545000Y-95495000D02*
X168545000Y-95495000D01*
X168545000Y-97545000D02*
X170545000Y-97545000D01*
X176800000Y-97545000D02*
X178800000Y-97545000D01*
X178800000Y-95495000D02*
X176800000Y-95495000D01*
X169275000Y-86800000D02*
X167275000Y-86800000D01*
X167275000Y-84650000D02*
X169275000Y-84650000D01*
X169910000Y-82355000D02*
X167910000Y-82355000D01*
X167910000Y-80205000D02*
X169910000Y-80205000D01*
X131715000Y-114495000D02*
X133715000Y-114495000D01*
X133715000Y-116645000D02*
X131715000Y-116645000D01*
X139970000Y-114495000D02*
X141970000Y-114495000D01*
X141970000Y-116645000D02*
X139970000Y-116645000D01*
X152847040Y-85018880D02*
X158048960Y-85018880D01*
X158048960Y-82621120D02*
X152847040Y-82621120D01*
X150848060Y-81521300D02*
X150848060Y-82621120D01*
X150248620Y-82021680D02*
X151447500Y-82021680D01*
X151452580Y-82621120D02*
X151452580Y-85018880D01*
X165293040Y-92130880D02*
X170494960Y-92130880D01*
X170494960Y-89733120D02*
X165293040Y-89733120D01*
X163294060Y-88633300D02*
X163294060Y-89733120D01*
X162694620Y-89133680D02*
X163893500Y-89133680D01*
X163898580Y-89733120D02*
X163898580Y-92130880D01*
X160594040Y-121213880D02*
X165795960Y-121213880D01*
X165795960Y-118816120D02*
X160594040Y-118816120D01*
X158595060Y-117716300D02*
X158595060Y-118816120D01*
X157995620Y-118216680D02*
X159194500Y-118216680D01*
X159199580Y-118816120D02*
X159199580Y-121213880D01*
X143842858Y-89040354D02*
X144415278Y-89612774D01*
X144516293Y-89646446D01*
X144583636Y-89646446D01*
X144684651Y-89612774D01*
X144819339Y-89478086D01*
X144853011Y-89377071D01*
X144853011Y-89309728D01*
X144819339Y-89208713D01*
X144246919Y-88636293D01*
X144516293Y-88366919D02*
X144954026Y-87929186D01*
X144987697Y-88434262D01*
X145088713Y-88333247D01*
X145189728Y-88299575D01*
X145257071Y-88299575D01*
X145358087Y-88333247D01*
X145526446Y-88501606D01*
X145560117Y-88602621D01*
X145560117Y-88669964D01*
X145526446Y-88770980D01*
X145324415Y-88973011D01*
X145223400Y-89006682D01*
X145156056Y-89006682D01*
X166878095Y-73874381D02*
X166878095Y-74683905D01*
X166925714Y-74779143D01*
X166973333Y-74826762D01*
X167068571Y-74874381D01*
X167259048Y-74874381D01*
X167354286Y-74826762D01*
X167401905Y-74779143D01*
X167449524Y-74683905D01*
X167449524Y-73874381D01*
X168449524Y-74874381D02*
X167878095Y-74874381D01*
X168163809Y-74874381D02*
X168163809Y-73874381D01*
X168068571Y-74017238D01*
X167973333Y-74112476D01*
X167878095Y-74160095D01*
X111768095Y-103592381D02*
X112339524Y-103592381D01*
X112053809Y-104592381D02*
X112053809Y-103592381D01*
X112672857Y-104592381D02*
X112672857Y-103592381D01*
X113053810Y-103592381D01*
X113149048Y-103640000D01*
X113196667Y-103687619D01*
X113244286Y-103782857D01*
X113244286Y-103925714D01*
X113196667Y-104020952D01*
X113149048Y-104068571D01*
X113053810Y-104116190D01*
X112672857Y-104116190D01*
X114196667Y-104592381D02*
X113625238Y-104592381D01*
X113910952Y-104592381D02*
X113910952Y-103592381D01*
X113815714Y-103735238D01*
X113720476Y-103830476D01*
X113625238Y-103878095D01*
X138334762Y-112017619D02*
X138239524Y-111970000D01*
X138144286Y-111874762D01*
X138001429Y-111731905D01*
X137906190Y-111684286D01*
X137810952Y-111684286D01*
X137858571Y-111922381D02*
X137763333Y-111874762D01*
X137668095Y-111779524D01*
X137620476Y-111589048D01*
X137620476Y-111255714D01*
X137668095Y-111065238D01*
X137763333Y-110970000D01*
X137858571Y-110922381D01*
X138049048Y-110922381D01*
X138144286Y-110970000D01*
X138239524Y-111065238D01*
X138287143Y-111255714D01*
X138287143Y-111589048D01*
X138239524Y-111779524D01*
X138144286Y-111874762D01*
X138049048Y-111922381D01*
X137858571Y-111922381D01*
X138620476Y-110922381D02*
X139239524Y-110922381D01*
X138906190Y-111303333D01*
X139049048Y-111303333D01*
X139144286Y-111350952D01*
X139191905Y-111398571D01*
X139239524Y-111493810D01*
X139239524Y-111731905D01*
X139191905Y-111827143D01*
X139144286Y-111874762D01*
X139049048Y-111922381D01*
X138763333Y-111922381D01*
X138668095Y-111874762D01*
X138620476Y-111827143D01*
X150272762Y-109985619D02*
X150177524Y-109938000D01*
X150082286Y-109842762D01*
X149939429Y-109699905D01*
X149844190Y-109652286D01*
X149748952Y-109652286D01*
X149796571Y-109890381D02*
X149701333Y-109842762D01*
X149606095Y-109747524D01*
X149558476Y-109557048D01*
X149558476Y-109223714D01*
X149606095Y-109033238D01*
X149701333Y-108938000D01*
X149796571Y-108890381D01*
X149987048Y-108890381D01*
X150082286Y-108938000D01*
X150177524Y-109033238D01*
X150225143Y-109223714D01*
X150225143Y-109557048D01*
X150177524Y-109747524D01*
X150082286Y-109842762D01*
X149987048Y-109890381D01*
X149796571Y-109890381D01*
X150606095Y-108985619D02*
X150653714Y-108938000D01*
X150748952Y-108890381D01*
X150987048Y-108890381D01*
X151082286Y-108938000D01*
X151129905Y-108985619D01*
X151177524Y-109080857D01*
X151177524Y-109176095D01*
X151129905Y-109318952D01*
X150558476Y-109890381D01*
X151177524Y-109890381D01*
X161448762Y-112017619D02*
X161353524Y-111970000D01*
X161258286Y-111874762D01*
X161115429Y-111731905D01*
X161020190Y-111684286D01*
X160924952Y-111684286D01*
X160972571Y-111922381D02*
X160877333Y-111874762D01*
X160782095Y-111779524D01*
X160734476Y-111589048D01*
X160734476Y-111255714D01*
X160782095Y-111065238D01*
X160877333Y-110970000D01*
X160972571Y-110922381D01*
X161163048Y-110922381D01*
X161258286Y-110970000D01*
X161353524Y-111065238D01*
X161401143Y-111255714D01*
X161401143Y-111589048D01*
X161353524Y-111779524D01*
X161258286Y-111874762D01*
X161163048Y-111922381D01*
X160972571Y-111922381D01*
X162353524Y-111922381D02*
X161782095Y-111922381D01*
X162067809Y-111922381D02*
X162067809Y-110922381D01*
X161972571Y-111065238D01*
X161877333Y-111160476D01*
X161782095Y-111208095D01*
X150796667Y-115657381D02*
X150796667Y-116371667D01*
X150749047Y-116514524D01*
X150653809Y-116609762D01*
X150510952Y-116657381D01*
X150415714Y-116657381D01*
X151796667Y-116657381D02*
X151225238Y-116657381D01*
X151510952Y-116657381D02*
X151510952Y-115657381D01*
X151415714Y-115800238D01*
X151320476Y-115895476D01*
X151225238Y-115943095D01*
X166028381Y-80494095D02*
X165028381Y-80494095D01*
X165028381Y-80256000D01*
X165076000Y-80113142D01*
X165171238Y-80017904D01*
X165266476Y-79970285D01*
X165456952Y-79922666D01*
X165599810Y-79922666D01*
X165790286Y-79970285D01*
X165885524Y-80017904D01*
X165980762Y-80113142D01*
X166028381Y-80256000D01*
X166028381Y-80494095D01*
X166028381Y-78970285D02*
X166028381Y-79541714D01*
X166028381Y-79256000D02*
X165028381Y-79256000D01*
X165171238Y-79351238D01*
X165266476Y-79446476D01*
X165314095Y-79541714D01*
X139977905Y-91352381D02*
X139977905Y-90352381D01*
X140216000Y-90352381D01*
X140358858Y-90400000D01*
X140454096Y-90495238D01*
X140501715Y-90590476D01*
X140549334Y-90780952D01*
X140549334Y-90923810D01*
X140501715Y-91114286D01*
X140454096Y-91209524D01*
X140358858Y-91304762D01*
X140216000Y-91352381D01*
X139977905Y-91352381D01*
X140930286Y-90447619D02*
X140977905Y-90400000D01*
X141073143Y-90352381D01*
X141311239Y-90352381D01*
X141406477Y-90400000D01*
X141454096Y-90447619D01*
X141501715Y-90542857D01*
X141501715Y-90638095D01*
X141454096Y-90780952D01*
X140882667Y-91352381D01*
X141501715Y-91352381D01*
X180617905Y-89892381D02*
X180617905Y-88892381D01*
X180856000Y-88892381D01*
X180998858Y-88940000D01*
X181094096Y-89035238D01*
X181141715Y-89130476D01*
X181189334Y-89320952D01*
X181189334Y-89463810D01*
X181141715Y-89654286D01*
X181094096Y-89749524D01*
X180998858Y-89844762D01*
X180856000Y-89892381D01*
X180617905Y-89892381D01*
X181522667Y-88892381D02*
X182141715Y-88892381D01*
X181808381Y-89273333D01*
X181951239Y-89273333D01*
X182046477Y-89320952D01*
X182094096Y-89368571D01*
X182141715Y-89463810D01*
X182141715Y-89701905D01*
X182094096Y-89797143D01*
X182046477Y-89844762D01*
X181951239Y-89892381D01*
X181665524Y-89892381D01*
X181570286Y-89844762D01*
X181522667Y-89797143D01*
X118641905Y-91352381D02*
X118641905Y-90352381D01*
X118880000Y-90352381D01*
X119022858Y-90400000D01*
X119118096Y-90495238D01*
X119165715Y-90590476D01*
X119213334Y-90780952D01*
X119213334Y-90923810D01*
X119165715Y-91114286D01*
X119118096Y-91209524D01*
X119022858Y-91304762D01*
X118880000Y-91352381D01*
X118641905Y-91352381D01*
X120070477Y-90685714D02*
X120070477Y-91352381D01*
X119832381Y-90304762D02*
X119594286Y-91019048D01*
X120213334Y-91019048D01*
X158948381Y-79160666D02*
X158472190Y-79494000D01*
X158948381Y-79732095D02*
X157948381Y-79732095D01*
X157948381Y-79351142D01*
X157996000Y-79255904D01*
X158043619Y-79208285D01*
X158138857Y-79160666D01*
X158281714Y-79160666D01*
X158376952Y-79208285D01*
X158424571Y-79255904D01*
X158472190Y-79351142D01*
X158472190Y-79732095D01*
X158948381Y-78208285D02*
X158948381Y-78779714D01*
X158948381Y-78494000D02*
X157948381Y-78494000D01*
X158091238Y-78589238D01*
X158186476Y-78684476D01*
X158234095Y-78779714D01*
X134453334Y-87052381D02*
X134120000Y-86576190D01*
X133881905Y-87052381D02*
X133881905Y-86052381D01*
X134262858Y-86052381D01*
X134358096Y-86100000D01*
X134405715Y-86147619D01*
X134453334Y-86242857D01*
X134453334Y-86385714D01*
X134405715Y-86480952D01*
X134358096Y-86528571D01*
X134262858Y-86576190D01*
X133881905Y-86576190D01*
X134834286Y-86147619D02*
X134881905Y-86100000D01*
X134977143Y-86052381D01*
X135215239Y-86052381D01*
X135310477Y-86100000D01*
X135358096Y-86147619D01*
X135405715Y-86242857D01*
X135405715Y-86338095D01*
X135358096Y-86480952D01*
X134786667Y-87052381D01*
X135405715Y-87052381D01*
X129117381Y-94146666D02*
X128641190Y-94480000D01*
X129117381Y-94718095D02*
X128117381Y-94718095D01*
X128117381Y-94337142D01*
X128165000Y-94241904D01*
X128212619Y-94194285D01*
X128307857Y-94146666D01*
X128450714Y-94146666D01*
X128545952Y-94194285D01*
X128593571Y-94241904D01*
X128641190Y-94337142D01*
X128641190Y-94718095D01*
X128117381Y-93813333D02*
X128117381Y-93194285D01*
X128498333Y-93527619D01*
X128498333Y-93384761D01*
X128545952Y-93289523D01*
X128593571Y-93241904D01*
X128688810Y-93194285D01*
X128926905Y-93194285D01*
X129022143Y-93241904D01*
X129069762Y-93289523D01*
X129117381Y-93384761D01*
X129117381Y-93670476D01*
X129069762Y-93765714D01*
X129022143Y-93813333D01*
X144613334Y-107132381D02*
X144280000Y-106656190D01*
X144041905Y-107132381D02*
X144041905Y-106132381D01*
X144422858Y-106132381D01*
X144518096Y-106180000D01*
X144565715Y-106227619D01*
X144613334Y-106322857D01*
X144613334Y-106465714D01*
X144565715Y-106560952D01*
X144518096Y-106608571D01*
X144422858Y-106656190D01*
X144041905Y-106656190D01*
X145470477Y-106465714D02*
X145470477Y-107132381D01*
X145232381Y-106084762D02*
X144994286Y-106799048D01*
X145613334Y-106799048D01*
X155789334Y-106624381D02*
X155456000Y-106148190D01*
X155217905Y-106624381D02*
X155217905Y-105624381D01*
X155598858Y-105624381D01*
X155694096Y-105672000D01*
X155741715Y-105719619D01*
X155789334Y-105814857D01*
X155789334Y-105957714D01*
X155741715Y-106052952D01*
X155694096Y-106100571D01*
X155598858Y-106148190D01*
X155217905Y-106148190D01*
X156694096Y-105624381D02*
X156217905Y-105624381D01*
X156170286Y-106100571D01*
X156217905Y-106052952D01*
X156313143Y-106005333D01*
X156551239Y-106005333D01*
X156646477Y-106052952D01*
X156694096Y-106100571D01*
X156741715Y-106195810D01*
X156741715Y-106433905D01*
X156694096Y-106529143D01*
X156646477Y-106576762D01*
X156551239Y-106624381D01*
X156313143Y-106624381D01*
X156217905Y-106576762D01*
X156170286Y-106529143D01*
X175093334Y-89592381D02*
X174760000Y-89116190D01*
X174521905Y-89592381D02*
X174521905Y-88592381D01*
X174902858Y-88592381D01*
X174998096Y-88640000D01*
X175045715Y-88687619D01*
X175093334Y-88782857D01*
X175093334Y-88925714D01*
X175045715Y-89020952D01*
X174998096Y-89068571D01*
X174902858Y-89116190D01*
X174521905Y-89116190D01*
X175950477Y-88592381D02*
X175760000Y-88592381D01*
X175664762Y-88640000D01*
X175617143Y-88687619D01*
X175521905Y-88830476D01*
X175474286Y-89020952D01*
X175474286Y-89401905D01*
X175521905Y-89497143D01*
X175569524Y-89544762D01*
X175664762Y-89592381D01*
X175855239Y-89592381D01*
X175950477Y-89544762D01*
X175998096Y-89497143D01*
X176045715Y-89401905D01*
X176045715Y-89163810D01*
X175998096Y-89068571D01*
X175950477Y-89020952D01*
X175855239Y-88973333D01*
X175664762Y-88973333D01*
X175569524Y-89020952D01*
X175521905Y-89068571D01*
X175474286Y-89163810D01*
X163028334Y-106892381D02*
X162695000Y-106416190D01*
X162456905Y-106892381D02*
X162456905Y-105892381D01*
X162837858Y-105892381D01*
X162933096Y-105940000D01*
X162980715Y-105987619D01*
X163028334Y-106082857D01*
X163028334Y-106225714D01*
X162980715Y-106320952D01*
X162933096Y-106368571D01*
X162837858Y-106416190D01*
X162456905Y-106416190D01*
X163361667Y-105892381D02*
X164028334Y-105892381D01*
X163599762Y-106892381D01*
X168360381Y-109386666D02*
X167884190Y-109720000D01*
X168360381Y-109958095D02*
X167360381Y-109958095D01*
X167360381Y-109577142D01*
X167408000Y-109481904D01*
X167455619Y-109434285D01*
X167550857Y-109386666D01*
X167693714Y-109386666D01*
X167788952Y-109434285D01*
X167836571Y-109481904D01*
X167884190Y-109577142D01*
X167884190Y-109958095D01*
X167788952Y-108815238D02*
X167741333Y-108910476D01*
X167693714Y-108958095D01*
X167598476Y-109005714D01*
X167550857Y-109005714D01*
X167455619Y-108958095D01*
X167408000Y-108910476D01*
X167360381Y-108815238D01*
X167360381Y-108624761D01*
X167408000Y-108529523D01*
X167455619Y-108481904D01*
X167550857Y-108434285D01*
X167598476Y-108434285D01*
X167693714Y-108481904D01*
X167741333Y-108529523D01*
X167788952Y-108624761D01*
X167788952Y-108815238D01*
X167836571Y-108910476D01*
X167884190Y-108958095D01*
X167979429Y-109005714D01*
X168169905Y-109005714D01*
X168265143Y-108958095D01*
X168312762Y-108910476D01*
X168360381Y-108815238D01*
X168360381Y-108624761D01*
X168312762Y-108529523D01*
X168265143Y-108481904D01*
X168169905Y-108434285D01*
X167979429Y-108434285D01*
X167884190Y-108481904D01*
X167836571Y-108529523D01*
X167788952Y-108624761D01*
X142581334Y-111958381D02*
X142248000Y-111482190D01*
X142009905Y-111958381D02*
X142009905Y-110958381D01*
X142390858Y-110958381D01*
X142486096Y-111006000D01*
X142533715Y-111053619D01*
X142581334Y-111148857D01*
X142581334Y-111291714D01*
X142533715Y-111386952D01*
X142486096Y-111434571D01*
X142390858Y-111482190D01*
X142009905Y-111482190D01*
X143057524Y-111958381D02*
X143248000Y-111958381D01*
X143343239Y-111910762D01*
X143390858Y-111863143D01*
X143486096Y-111720286D01*
X143533715Y-111529810D01*
X143533715Y-111148857D01*
X143486096Y-111053619D01*
X143438477Y-111006000D01*
X143343239Y-110958381D01*
X143152762Y-110958381D01*
X143057524Y-111006000D01*
X143009905Y-111053619D01*
X142962286Y-111148857D01*
X142962286Y-111386952D01*
X143009905Y-111482190D01*
X143057524Y-111529810D01*
X143152762Y-111577429D01*
X143343239Y-111577429D01*
X143438477Y-111529810D01*
X143486096Y-111482190D01*
X143533715Y-111386952D01*
X158948381Y-111894857D02*
X158472190Y-112228191D01*
X158948381Y-112466286D02*
X157948381Y-112466286D01*
X157948381Y-112085333D01*
X157996000Y-111990095D01*
X158043619Y-111942476D01*
X158138857Y-111894857D01*
X158281714Y-111894857D01*
X158376952Y-111942476D01*
X158424571Y-111990095D01*
X158472190Y-112085333D01*
X158472190Y-112466286D01*
X158948381Y-110942476D02*
X158948381Y-111513905D01*
X158948381Y-111228191D02*
X157948381Y-111228191D01*
X158091238Y-111323429D01*
X158186476Y-111418667D01*
X158234095Y-111513905D01*
X157948381Y-110323429D02*
X157948381Y-110228190D01*
X157996000Y-110132952D01*
X158043619Y-110085333D01*
X158138857Y-110037714D01*
X158329333Y-109990095D01*
X158567429Y-109990095D01*
X158757905Y-110037714D01*
X158853143Y-110085333D01*
X158900762Y-110132952D01*
X158948381Y-110228190D01*
X158948381Y-110323429D01*
X158900762Y-110418667D01*
X158853143Y-110466286D01*
X158757905Y-110513905D01*
X158567429Y-110561524D01*
X158329333Y-110561524D01*
X158138857Y-110513905D01*
X158043619Y-110466286D01*
X157996000Y-110418667D01*
X157948381Y-110323429D01*
X132772381Y-109862857D02*
X132296190Y-110196191D01*
X132772381Y-110434286D02*
X131772381Y-110434286D01*
X131772381Y-110053333D01*
X131820000Y-109958095D01*
X131867619Y-109910476D01*
X131962857Y-109862857D01*
X132105714Y-109862857D01*
X132200952Y-109910476D01*
X132248571Y-109958095D01*
X132296190Y-110053333D01*
X132296190Y-110434286D01*
X132772381Y-108910476D02*
X132772381Y-109481905D01*
X132772381Y-109196191D02*
X131772381Y-109196191D01*
X131915238Y-109291429D01*
X132010476Y-109386667D01*
X132058095Y-109481905D01*
X132772381Y-107958095D02*
X132772381Y-108529524D01*
X132772381Y-108243810D02*
X131772381Y-108243810D01*
X131915238Y-108339048D01*
X132010476Y-108434286D01*
X132058095Y-108529524D01*
X137152143Y-106892381D02*
X136818809Y-106416190D01*
X136580714Y-106892381D02*
X136580714Y-105892381D01*
X136961667Y-105892381D01*
X137056905Y-105940000D01*
X137104524Y-105987619D01*
X137152143Y-106082857D01*
X137152143Y-106225714D01*
X137104524Y-106320952D01*
X137056905Y-106368571D01*
X136961667Y-106416190D01*
X136580714Y-106416190D01*
X138104524Y-106892381D02*
X137533095Y-106892381D01*
X137818809Y-106892381D02*
X137818809Y-105892381D01*
X137723571Y-106035238D01*
X137628333Y-106130476D01*
X137533095Y-106178095D01*
X138485476Y-105987619D02*
X138533095Y-105940000D01*
X138628333Y-105892381D01*
X138866429Y-105892381D01*
X138961667Y-105940000D01*
X139009286Y-105987619D01*
X139056905Y-106082857D01*
X139056905Y-106178095D01*
X139009286Y-106320952D01*
X138437857Y-106892381D01*
X139056905Y-106892381D01*
X127627143Y-86812381D02*
X127293809Y-86336190D01*
X127055714Y-86812381D02*
X127055714Y-85812381D01*
X127436667Y-85812381D01*
X127531905Y-85860000D01*
X127579524Y-85907619D01*
X127627143Y-86002857D01*
X127627143Y-86145714D01*
X127579524Y-86240952D01*
X127531905Y-86288571D01*
X127436667Y-86336190D01*
X127055714Y-86336190D01*
X128579524Y-86812381D02*
X128008095Y-86812381D01*
X128293809Y-86812381D02*
X128293809Y-85812381D01*
X128198571Y-85955238D01*
X128103333Y-86050476D01*
X128008095Y-86098095D01*
X128912857Y-85812381D02*
X129531905Y-85812381D01*
X129198571Y-86193333D01*
X129341429Y-86193333D01*
X129436667Y-86240952D01*
X129484286Y-86288571D01*
X129531905Y-86383810D01*
X129531905Y-86621905D01*
X129484286Y-86717143D01*
X129436667Y-86764762D01*
X129341429Y-86812381D01*
X129055714Y-86812381D01*
X128960476Y-86764762D01*
X128912857Y-86717143D01*
X145073905Y-80478381D02*
X145073905Y-81287905D01*
X145121524Y-81383143D01*
X145169143Y-81430762D01*
X145264381Y-81478381D01*
X145454858Y-81478381D01*
X145550096Y-81430762D01*
X145597715Y-81383143D01*
X145645334Y-81287905D01*
X145645334Y-80478381D01*
X146073905Y-81430762D02*
X146216762Y-81478381D01*
X146454858Y-81478381D01*
X146550096Y-81430762D01*
X146597715Y-81383143D01*
X146645334Y-81287905D01*
X146645334Y-81192667D01*
X146597715Y-81097429D01*
X146550096Y-81049810D01*
X146454858Y-81002190D01*
X146264381Y-80954571D01*
X146169143Y-80906952D01*
X146121524Y-80859333D01*
X146073905Y-80764095D01*
X146073905Y-80668857D01*
X146121524Y-80573619D01*
X146169143Y-80526000D01*
X146264381Y-80478381D01*
X146502477Y-80478381D01*
X146645334Y-80526000D01*
X147407239Y-80954571D02*
X147550096Y-81002190D01*
X147597715Y-81049810D01*
X147645334Y-81145048D01*
X147645334Y-81287905D01*
X147597715Y-81383143D01*
X147550096Y-81430762D01*
X147454858Y-81478381D01*
X147073905Y-81478381D01*
X147073905Y-80478381D01*
X147407239Y-80478381D01*
X147502477Y-80526000D01*
X147550096Y-80573619D01*
X147597715Y-80668857D01*
X147597715Y-80764095D01*
X147550096Y-80859333D01*
X147502477Y-80906952D01*
X147407239Y-80954571D01*
X147073905Y-80954571D01*
X148597715Y-81478381D02*
X148026286Y-81478381D01*
X148312000Y-81478381D02*
X148312000Y-80478381D01*
X148216762Y-80621238D01*
X148121524Y-80716476D01*
X148026286Y-80764095D01*
X132567524Y-94987381D02*
X133234191Y-95987381D01*
X133234191Y-94987381D02*
X132567524Y-95987381D01*
X133472286Y-94987381D02*
X134043715Y-94987381D01*
X133758000Y-95987381D02*
X133758000Y-94987381D01*
X134900858Y-95987381D02*
X134329429Y-95987381D01*
X134615143Y-95987381D02*
X134615143Y-94987381D01*
X134519905Y-95130238D01*
X134424667Y-95225476D01*
X134329429Y-95273095D01*
X161885334Y-84939143D02*
X161837715Y-84986762D01*
X161694858Y-85034381D01*
X161599620Y-85034381D01*
X161456762Y-84986762D01*
X161361524Y-84891524D01*
X161313905Y-84796286D01*
X161266286Y-84605810D01*
X161266286Y-84462952D01*
X161313905Y-84272476D01*
X161361524Y-84177238D01*
X161456762Y-84082000D01*
X161599620Y-84034381D01*
X161694858Y-84034381D01*
X161837715Y-84082000D01*
X161885334Y-84129619D01*
X162742477Y-84034381D02*
X162552000Y-84034381D01*
X162456762Y-84082000D01*
X162409143Y-84129619D01*
X162313905Y-84272476D01*
X162266286Y-84462952D01*
X162266286Y-84843905D01*
X162313905Y-84939143D01*
X162361524Y-84986762D01*
X162456762Y-85034381D01*
X162647239Y-85034381D01*
X162742477Y-84986762D01*
X162790096Y-84939143D01*
X162837715Y-84843905D01*
X162837715Y-84605810D01*
X162790096Y-84510571D01*
X162742477Y-84462952D01*
X162647239Y-84415333D01*
X162456762Y-84415333D01*
X162361524Y-84462952D01*
X162313905Y-84510571D01*
X162266286Y-84605810D01*
X165203143Y-99226666D02*
X165250762Y-99274285D01*
X165298381Y-99417142D01*
X165298381Y-99512380D01*
X165250762Y-99655238D01*
X165155524Y-99750476D01*
X165060286Y-99798095D01*
X164869810Y-99845714D01*
X164726952Y-99845714D01*
X164536476Y-99798095D01*
X164441238Y-99750476D01*
X164346000Y-99655238D01*
X164298381Y-99512380D01*
X164298381Y-99417142D01*
X164346000Y-99274285D01*
X164393619Y-99226666D01*
X164298381Y-98893333D02*
X164298381Y-98226666D01*
X165298381Y-98655238D01*
X158077143Y-99226666D02*
X158124762Y-99274285D01*
X158172381Y-99417142D01*
X158172381Y-99512380D01*
X158124762Y-99655238D01*
X158029524Y-99750476D01*
X157934286Y-99798095D01*
X157743810Y-99845714D01*
X157600952Y-99845714D01*
X157410476Y-99798095D01*
X157315238Y-99750476D01*
X157220000Y-99655238D01*
X157172381Y-99512380D01*
X157172381Y-99417142D01*
X157220000Y-99274285D01*
X157267619Y-99226666D01*
X157600952Y-98655238D02*
X157553333Y-98750476D01*
X157505714Y-98798095D01*
X157410476Y-98845714D01*
X157362857Y-98845714D01*
X157267619Y-98798095D01*
X157220000Y-98750476D01*
X157172381Y-98655238D01*
X157172381Y-98464761D01*
X157220000Y-98369523D01*
X157267619Y-98321904D01*
X157362857Y-98274285D01*
X157410476Y-98274285D01*
X157505714Y-98321904D01*
X157553333Y-98369523D01*
X157600952Y-98464761D01*
X157600952Y-98655238D01*
X157648571Y-98750476D01*
X157696190Y-98798095D01*
X157791429Y-98845714D01*
X157981905Y-98845714D01*
X158077143Y-98798095D01*
X158124762Y-98750476D01*
X158172381Y-98655238D01*
X158172381Y-98464761D01*
X158124762Y-98369523D01*
X158077143Y-98321904D01*
X157981905Y-98274285D01*
X157791429Y-98274285D01*
X157696190Y-98321904D01*
X157648571Y-98369523D01*
X157600952Y-98464761D01*
X158837334Y-91797143D02*
X158789715Y-91844762D01*
X158646858Y-91892381D01*
X158551620Y-91892381D01*
X158408762Y-91844762D01*
X158313524Y-91749524D01*
X158265905Y-91654286D01*
X158218286Y-91463810D01*
X158218286Y-91320952D01*
X158265905Y-91130476D01*
X158313524Y-91035238D01*
X158408762Y-90940000D01*
X158551620Y-90892381D01*
X158646858Y-90892381D01*
X158789715Y-90940000D01*
X158837334Y-90987619D01*
X159313524Y-91892381D02*
X159504000Y-91892381D01*
X159599239Y-91844762D01*
X159646858Y-91797143D01*
X159742096Y-91654286D01*
X159789715Y-91463810D01*
X159789715Y-91082857D01*
X159742096Y-90987619D01*
X159694477Y-90940000D01*
X159599239Y-90892381D01*
X159408762Y-90892381D01*
X159313524Y-90940000D01*
X159265905Y-90987619D01*
X159218286Y-91082857D01*
X159218286Y-91320952D01*
X159265905Y-91416190D01*
X159313524Y-91463810D01*
X159408762Y-91511429D01*
X159599239Y-91511429D01*
X159694477Y-91463810D01*
X159742096Y-91416190D01*
X159789715Y-91320952D01*
X143089334Y-99657143D02*
X143041715Y-99704762D01*
X142898858Y-99752381D01*
X142803620Y-99752381D01*
X142660762Y-99704762D01*
X142565524Y-99609524D01*
X142517905Y-99514286D01*
X142470286Y-99323810D01*
X142470286Y-99180952D01*
X142517905Y-98990476D01*
X142565524Y-98895238D01*
X142660762Y-98800000D01*
X142803620Y-98752381D01*
X142898858Y-98752381D01*
X143041715Y-98800000D01*
X143089334Y-98847619D01*
X143994096Y-98752381D02*
X143517905Y-98752381D01*
X143470286Y-99228571D01*
X143517905Y-99180952D01*
X143613143Y-99133333D01*
X143851239Y-99133333D01*
X143946477Y-99180952D01*
X143994096Y-99228571D01*
X144041715Y-99323810D01*
X144041715Y-99561905D01*
X143994096Y-99657143D01*
X143946477Y-99704762D01*
X143851239Y-99752381D01*
X143613143Y-99752381D01*
X143517905Y-99704762D01*
X143470286Y-99657143D01*
X131913334Y-93067143D02*
X131865715Y-93114762D01*
X131722858Y-93162381D01*
X131627620Y-93162381D01*
X131484762Y-93114762D01*
X131389524Y-93019524D01*
X131341905Y-92924286D01*
X131294286Y-92733810D01*
X131294286Y-92590952D01*
X131341905Y-92400476D01*
X131389524Y-92305238D01*
X131484762Y-92210000D01*
X131627620Y-92162381D01*
X131722858Y-92162381D01*
X131865715Y-92210000D01*
X131913334Y-92257619D01*
X132770477Y-92495714D02*
X132770477Y-93162381D01*
X132532381Y-92114762D02*
X132294286Y-92829048D01*
X132913334Y-92829048D01*
X132786667Y-67873571D02*
X132929524Y-67921190D01*
X132977143Y-67968810D01*
X133024762Y-68064048D01*
X133024762Y-68206905D01*
X132977143Y-68302143D01*
X132929524Y-68349762D01*
X132834286Y-68397381D01*
X132453333Y-68397381D01*
X132453333Y-67397381D01*
X132786667Y-67397381D01*
X132881905Y-67445000D01*
X132929524Y-67492619D01*
X132977143Y-67587857D01*
X132977143Y-67683095D01*
X132929524Y-67778333D01*
X132881905Y-67825952D01*
X132786667Y-67873571D01*
X132453333Y-67873571D01*
X133643809Y-67397381D02*
X133834286Y-67397381D01*
X133929524Y-67445000D01*
X134024762Y-67540238D01*
X134072381Y-67730714D01*
X134072381Y-68064048D01*
X134024762Y-68254524D01*
X133929524Y-68349762D01*
X133834286Y-68397381D01*
X133643809Y-68397381D01*
X133548571Y-68349762D01*
X133453333Y-68254524D01*
X133405714Y-68064048D01*
X133405714Y-67730714D01*
X133453333Y-67540238D01*
X133548571Y-67445000D01*
X133643809Y-67397381D01*
X134691428Y-67397381D02*
X134881905Y-67397381D01*
X134977143Y-67445000D01*
X135072381Y-67540238D01*
X135120000Y-67730714D01*
X135120000Y-68064048D01*
X135072381Y-68254524D01*
X134977143Y-68349762D01*
X134881905Y-68397381D01*
X134691428Y-68397381D01*
X134596190Y-68349762D01*
X134500952Y-68254524D01*
X134453333Y-68064048D01*
X134453333Y-67730714D01*
X134500952Y-67540238D01*
X134596190Y-67445000D01*
X134691428Y-67397381D01*
X135405714Y-67397381D02*
X135977143Y-67397381D01*
X135691428Y-68397381D02*
X135691428Y-67397381D01*
X136834286Y-68397381D02*
X136262857Y-68397381D01*
X136548571Y-68397381D02*
X136548571Y-67397381D01*
X136453333Y-67540238D01*
X136358095Y-67635476D01*
X136262857Y-67683095D01*
X158432857Y-66762381D02*
X158432857Y-67571905D01*
X158480476Y-67667143D01*
X158528095Y-67714762D01*
X158623333Y-67762381D01*
X158813810Y-67762381D01*
X158909048Y-67714762D01*
X158956667Y-67667143D01*
X159004286Y-67571905D01*
X159004286Y-66762381D01*
X159432857Y-67714762D02*
X159575714Y-67762381D01*
X159813810Y-67762381D01*
X159909048Y-67714762D01*
X159956667Y-67667143D01*
X160004286Y-67571905D01*
X160004286Y-67476667D01*
X159956667Y-67381429D01*
X159909048Y-67333810D01*
X159813810Y-67286190D01*
X159623333Y-67238571D01*
X159528095Y-67190952D01*
X159480476Y-67143333D01*
X159432857Y-67048095D01*
X159432857Y-66952857D01*
X159480476Y-66857619D01*
X159528095Y-66810000D01*
X159623333Y-66762381D01*
X159861429Y-66762381D01*
X160004286Y-66810000D01*
X160766191Y-67238571D02*
X160909048Y-67286190D01*
X160956667Y-67333810D01*
X161004286Y-67429048D01*
X161004286Y-67571905D01*
X160956667Y-67667143D01*
X160909048Y-67714762D01*
X160813810Y-67762381D01*
X160432857Y-67762381D01*
X160432857Y-66762381D01*
X160766191Y-66762381D01*
X160861429Y-66810000D01*
X160909048Y-66857619D01*
X160956667Y-66952857D01*
X160956667Y-67048095D01*
X160909048Y-67143333D01*
X160861429Y-67190952D01*
X160766191Y-67238571D01*
X160432857Y-67238571D01*
X161194762Y-67857619D02*
X161956667Y-67857619D01*
X162194762Y-67762381D02*
X162194762Y-66762381D01*
X162670952Y-67762381D02*
X162670952Y-66762381D01*
X162909047Y-66762381D01*
X163051905Y-66810000D01*
X163147143Y-66905238D01*
X163194762Y-67000476D01*
X163242381Y-67190952D01*
X163242381Y-67333810D01*
X163194762Y-67524286D01*
X163147143Y-67619524D01*
X163051905Y-67714762D01*
X162909047Y-67762381D01*
X162670952Y-67762381D01*
X164194762Y-67762381D02*
X163623333Y-67762381D01*
X163909047Y-67762381D02*
X163909047Y-66762381D01*
X163813809Y-66905238D01*
X163718571Y-67000476D01*
X163623333Y-67048095D01*
X119308571Y-96210286D02*
X119308571Y-95876952D01*
X119832381Y-95734095D02*
X119832381Y-96210286D01*
X118832381Y-96210286D01*
X118832381Y-95734095D01*
X119832381Y-95305524D02*
X118832381Y-95305524D01*
X119832381Y-94734095D01*
X118832381Y-94734095D01*
X119832381Y-93734095D02*
X119832381Y-94305524D01*
X119832381Y-94019810D02*
X118832381Y-94019810D01*
X118975238Y-94115048D01*
X119070476Y-94210286D01*
X119118095Y-94305524D01*
X122856667Y-102068381D02*
X122856667Y-102782667D01*
X122809047Y-102925524D01*
X122713809Y-103020762D01*
X122570952Y-103068381D01*
X122475714Y-103068381D01*
X123285238Y-102163619D02*
X123332857Y-102116000D01*
X123428095Y-102068381D01*
X123666191Y-102068381D01*
X123761429Y-102116000D01*
X123809048Y-102163619D01*
X123856667Y-102258857D01*
X123856667Y-102354095D01*
X123809048Y-102496952D01*
X123237619Y-103068381D01*
X123856667Y-103068381D01*
X132786667Y-77398571D02*
X132929524Y-77446190D01*
X132977143Y-77493810D01*
X133024762Y-77589048D01*
X133024762Y-77731905D01*
X132977143Y-77827143D01*
X132929524Y-77874762D01*
X132834286Y-77922381D01*
X132453333Y-77922381D01*
X132453333Y-76922381D01*
X132786667Y-76922381D01*
X132881905Y-76970000D01*
X132929524Y-77017619D01*
X132977143Y-77112857D01*
X132977143Y-77208095D01*
X132929524Y-77303333D01*
X132881905Y-77350952D01*
X132786667Y-77398571D01*
X132453333Y-77398571D01*
X133643809Y-76922381D02*
X133834286Y-76922381D01*
X133929524Y-76970000D01*
X134024762Y-77065238D01*
X134072381Y-77255714D01*
X134072381Y-77589048D01*
X134024762Y-77779524D01*
X133929524Y-77874762D01*
X133834286Y-77922381D01*
X133643809Y-77922381D01*
X133548571Y-77874762D01*
X133453333Y-77779524D01*
X133405714Y-77589048D01*
X133405714Y-77255714D01*
X133453333Y-77065238D01*
X133548571Y-76970000D01*
X133643809Y-76922381D01*
X134691428Y-76922381D02*
X134881905Y-76922381D01*
X134977143Y-76970000D01*
X135072381Y-77065238D01*
X135120000Y-77255714D01*
X135120000Y-77589048D01*
X135072381Y-77779524D01*
X134977143Y-77874762D01*
X134881905Y-77922381D01*
X134691428Y-77922381D01*
X134596190Y-77874762D01*
X134500952Y-77779524D01*
X134453333Y-77589048D01*
X134453333Y-77255714D01*
X134500952Y-77065238D01*
X134596190Y-76970000D01*
X134691428Y-76922381D01*
X135405714Y-76922381D02*
X135977143Y-76922381D01*
X135691428Y-77922381D02*
X135691428Y-76922381D01*
X136500952Y-76922381D02*
X136596191Y-76922381D01*
X136691429Y-76970000D01*
X136739048Y-77017619D01*
X136786667Y-77112857D01*
X136834286Y-77303333D01*
X136834286Y-77541429D01*
X136786667Y-77731905D01*
X136739048Y-77827143D01*
X136691429Y-77874762D01*
X136596191Y-77922381D01*
X136500952Y-77922381D01*
X136405714Y-77874762D01*
X136358095Y-77827143D01*
X136310476Y-77731905D01*
X136262857Y-77541429D01*
X136262857Y-77303333D01*
X136310476Y-77112857D01*
X136358095Y-77017619D01*
X136405714Y-76970000D01*
X136500952Y-76922381D01*
X141438334Y-81637143D02*
X141390715Y-81684762D01*
X141247858Y-81732381D01*
X141152620Y-81732381D01*
X141009762Y-81684762D01*
X140914524Y-81589524D01*
X140866905Y-81494286D01*
X140819286Y-81303810D01*
X140819286Y-81160952D01*
X140866905Y-80970476D01*
X140914524Y-80875238D01*
X141009762Y-80780000D01*
X141152620Y-80732381D01*
X141247858Y-80732381D01*
X141390715Y-80780000D01*
X141438334Y-80827619D01*
X141771667Y-80732381D02*
X142390715Y-80732381D01*
X142057381Y-81113333D01*
X142200239Y-81113333D01*
X142295477Y-81160952D01*
X142343096Y-81208571D01*
X142390715Y-81303810D01*
X142390715Y-81541905D01*
X142343096Y-81637143D01*
X142295477Y-81684762D01*
X142200239Y-81732381D01*
X141914524Y-81732381D01*
X141819286Y-81684762D01*
X141771667Y-81637143D01*
X159107143Y-116212857D02*
X159154762Y-116260476D01*
X159202381Y-116403333D01*
X159202381Y-116498571D01*
X159154762Y-116641429D01*
X159059524Y-116736667D01*
X158964286Y-116784286D01*
X158773810Y-116831905D01*
X158630952Y-116831905D01*
X158440476Y-116784286D01*
X158345238Y-116736667D01*
X158250000Y-116641429D01*
X158202381Y-116498571D01*
X158202381Y-116403333D01*
X158250000Y-116260476D01*
X158297619Y-116212857D01*
X159202381Y-115260476D02*
X159202381Y-115831905D01*
X159202381Y-115546191D02*
X158202381Y-115546191D01*
X158345238Y-115641429D01*
X158440476Y-115736667D01*
X158488095Y-115831905D01*
X158202381Y-114641429D02*
X158202381Y-114546190D01*
X158250000Y-114450952D01*
X158297619Y-114403333D01*
X158392857Y-114355714D01*
X158583333Y-114308095D01*
X158821429Y-114308095D01*
X159011905Y-114355714D01*
X159107143Y-114403333D01*
X159154762Y-114450952D01*
X159202381Y-114546190D01*
X159202381Y-114641429D01*
X159154762Y-114736667D01*
X159107143Y-114784286D01*
X159011905Y-114831905D01*
X158821429Y-114879524D01*
X158583333Y-114879524D01*
X158392857Y-114831905D01*
X158297619Y-114784286D01*
X158250000Y-114736667D01*
X158202381Y-114641429D01*
X129532143Y-105132143D02*
X129484524Y-105179762D01*
X129341667Y-105227381D01*
X129246429Y-105227381D01*
X129103571Y-105179762D01*
X129008333Y-105084524D01*
X128960714Y-104989286D01*
X128913095Y-104798810D01*
X128913095Y-104655952D01*
X128960714Y-104465476D01*
X129008333Y-104370238D01*
X129103571Y-104275000D01*
X129246429Y-104227381D01*
X129341667Y-104227381D01*
X129484524Y-104275000D01*
X129532143Y-104322619D01*
X130484524Y-105227381D02*
X129913095Y-105227381D01*
X130198809Y-105227381D02*
X130198809Y-104227381D01*
X130103571Y-104370238D01*
X130008333Y-104465476D01*
X129913095Y-104513095D01*
X130865476Y-104322619D02*
X130913095Y-104275000D01*
X131008333Y-104227381D01*
X131246429Y-104227381D01*
X131341667Y-104275000D01*
X131389286Y-104322619D01*
X131436905Y-104417857D01*
X131436905Y-104513095D01*
X131389286Y-104655952D01*
X130817857Y-105227381D01*
X131436905Y-105227381D01*
X168902143Y-94577143D02*
X168854524Y-94624762D01*
X168711667Y-94672381D01*
X168616429Y-94672381D01*
X168473571Y-94624762D01*
X168378333Y-94529524D01*
X168330714Y-94434286D01*
X168283095Y-94243810D01*
X168283095Y-94100952D01*
X168330714Y-93910476D01*
X168378333Y-93815238D01*
X168473571Y-93720000D01*
X168616429Y-93672381D01*
X168711667Y-93672381D01*
X168854524Y-93720000D01*
X168902143Y-93767619D01*
X169854524Y-94672381D02*
X169283095Y-94672381D01*
X169568809Y-94672381D02*
X169568809Y-93672381D01*
X169473571Y-93815238D01*
X169378333Y-93910476D01*
X169283095Y-93958095D01*
X170187857Y-93672381D02*
X170806905Y-93672381D01*
X170473571Y-94053333D01*
X170616429Y-94053333D01*
X170711667Y-94100952D01*
X170759286Y-94148571D01*
X170806905Y-94243810D01*
X170806905Y-94481905D01*
X170759286Y-94577143D01*
X170711667Y-94624762D01*
X170616429Y-94672381D01*
X170330714Y-94672381D01*
X170235476Y-94624762D01*
X170187857Y-94577143D01*
X177157143Y-94337143D02*
X177109524Y-94384762D01*
X176966667Y-94432381D01*
X176871429Y-94432381D01*
X176728571Y-94384762D01*
X176633333Y-94289524D01*
X176585714Y-94194286D01*
X176538095Y-94003810D01*
X176538095Y-93860952D01*
X176585714Y-93670476D01*
X176633333Y-93575238D01*
X176728571Y-93480000D01*
X176871429Y-93432381D01*
X176966667Y-93432381D01*
X177109524Y-93480000D01*
X177157143Y-93527619D01*
X178109524Y-94432381D02*
X177538095Y-94432381D01*
X177823809Y-94432381D02*
X177823809Y-93432381D01*
X177728571Y-93575238D01*
X177633333Y-93670476D01*
X177538095Y-93718095D01*
X178966667Y-93765714D02*
X178966667Y-94432381D01*
X178728571Y-93384762D02*
X178490476Y-94099048D01*
X179109524Y-94099048D01*
X167632143Y-83877381D02*
X167298809Y-83401190D01*
X167060714Y-83877381D02*
X167060714Y-82877381D01*
X167441667Y-82877381D01*
X167536905Y-82925000D01*
X167584524Y-82972619D01*
X167632143Y-83067857D01*
X167632143Y-83210714D01*
X167584524Y-83305952D01*
X167536905Y-83353571D01*
X167441667Y-83401190D01*
X167060714Y-83401190D01*
X168584524Y-83877381D02*
X168013095Y-83877381D01*
X168298809Y-83877381D02*
X168298809Y-82877381D01*
X168203571Y-83020238D01*
X168108333Y-83115476D01*
X168013095Y-83163095D01*
X169441667Y-83210714D02*
X169441667Y-83877381D01*
X169203571Y-82829762D02*
X168965476Y-83544048D01*
X169584524Y-83544048D01*
X168267143Y-79432381D02*
X167933809Y-78956190D01*
X167695714Y-79432381D02*
X167695714Y-78432381D01*
X168076667Y-78432381D01*
X168171905Y-78480000D01*
X168219524Y-78527619D01*
X168267143Y-78622857D01*
X168267143Y-78765714D01*
X168219524Y-78860952D01*
X168171905Y-78908571D01*
X168076667Y-78956190D01*
X167695714Y-78956190D01*
X169219524Y-79432381D02*
X168648095Y-79432381D01*
X168933809Y-79432381D02*
X168933809Y-78432381D01*
X168838571Y-78575238D01*
X168743333Y-78670476D01*
X168648095Y-78718095D01*
X170124286Y-78432381D02*
X169648095Y-78432381D01*
X169600476Y-78908571D01*
X169648095Y-78860952D01*
X169743333Y-78813333D01*
X169981429Y-78813333D01*
X170076667Y-78860952D01*
X170124286Y-78908571D01*
X170171905Y-79003810D01*
X170171905Y-79241905D01*
X170124286Y-79337143D01*
X170076667Y-79384762D01*
X169981429Y-79432381D01*
X169743333Y-79432381D01*
X169648095Y-79384762D01*
X169600476Y-79337143D01*
X132072143Y-118322381D02*
X131738809Y-117846190D01*
X131500714Y-118322381D02*
X131500714Y-117322381D01*
X131881667Y-117322381D01*
X131976905Y-117370000D01*
X132024524Y-117417619D01*
X132072143Y-117512857D01*
X132072143Y-117655714D01*
X132024524Y-117750952D01*
X131976905Y-117798571D01*
X131881667Y-117846190D01*
X131500714Y-117846190D01*
X133024524Y-118322381D02*
X132453095Y-118322381D01*
X132738809Y-118322381D02*
X132738809Y-117322381D01*
X132643571Y-117465238D01*
X132548333Y-117560476D01*
X132453095Y-117608095D01*
X133881667Y-117322381D02*
X133691190Y-117322381D01*
X133595952Y-117370000D01*
X133548333Y-117417619D01*
X133453095Y-117560476D01*
X133405476Y-117750952D01*
X133405476Y-118131905D01*
X133453095Y-118227143D01*
X133500714Y-118274762D01*
X133595952Y-118322381D01*
X133786429Y-118322381D01*
X133881667Y-118274762D01*
X133929286Y-118227143D01*
X133976905Y-118131905D01*
X133976905Y-117893810D01*
X133929286Y-117798571D01*
X133881667Y-117750952D01*
X133786429Y-117703333D01*
X133595952Y-117703333D01*
X133500714Y-117750952D01*
X133453095Y-117798571D01*
X133405476Y-117893810D01*
X140327143Y-118322381D02*
X139993809Y-117846190D01*
X139755714Y-118322381D02*
X139755714Y-117322381D01*
X140136667Y-117322381D01*
X140231905Y-117370000D01*
X140279524Y-117417619D01*
X140327143Y-117512857D01*
X140327143Y-117655714D01*
X140279524Y-117750952D01*
X140231905Y-117798571D01*
X140136667Y-117846190D01*
X139755714Y-117846190D01*
X141279524Y-118322381D02*
X140708095Y-118322381D01*
X140993809Y-118322381D02*
X140993809Y-117322381D01*
X140898571Y-117465238D01*
X140803333Y-117560476D01*
X140708095Y-117608095D01*
X141612857Y-117322381D02*
X142279524Y-117322381D01*
X141850952Y-118322381D01*
X155080674Y-81078343D02*
X155033055Y-81125962D01*
X154890198Y-81173581D01*
X154794960Y-81173581D01*
X154652102Y-81125962D01*
X154556864Y-81030724D01*
X154509245Y-80935486D01*
X154461626Y-80745010D01*
X154461626Y-80602152D01*
X154509245Y-80411676D01*
X154556864Y-80316438D01*
X154652102Y-80221200D01*
X154794960Y-80173581D01*
X154890198Y-80173581D01*
X155033055Y-80221200D01*
X155080674Y-80268819D01*
X156033055Y-81173581D02*
X155461626Y-81173581D01*
X155747340Y-81173581D02*
X155747340Y-80173581D01*
X155652102Y-80316438D01*
X155556864Y-80411676D01*
X155461626Y-80459295D01*
X150467108Y-82090569D02*
X151229013Y-82090569D01*
X150848061Y-82471521D02*
X150848061Y-81709616D01*
X167526674Y-88190343D02*
X167479055Y-88237962D01*
X167336198Y-88285581D01*
X167240960Y-88285581D01*
X167098102Y-88237962D01*
X167002864Y-88142724D01*
X166955245Y-88047486D01*
X166907626Y-87857010D01*
X166907626Y-87714152D01*
X166955245Y-87523676D01*
X167002864Y-87428438D01*
X167098102Y-87333200D01*
X167240960Y-87285581D01*
X167336198Y-87285581D01*
X167479055Y-87333200D01*
X167526674Y-87380819D01*
X167907626Y-87380819D02*
X167955245Y-87333200D01*
X168050483Y-87285581D01*
X168288579Y-87285581D01*
X168383817Y-87333200D01*
X168431436Y-87380819D01*
X168479055Y-87476057D01*
X168479055Y-87571295D01*
X168431436Y-87714152D01*
X167860007Y-88285581D01*
X168479055Y-88285581D01*
X167513048Y-91003429D02*
X168274953Y-91003429D01*
X167894001Y-91384381D02*
X167894001Y-90622476D01*
X162552143Y-122912143D02*
X162504524Y-122959762D01*
X162361667Y-123007381D01*
X162266429Y-123007381D01*
X162123571Y-122959762D01*
X162028333Y-122864524D01*
X161980714Y-122769286D01*
X161933095Y-122578810D01*
X161933095Y-122435952D01*
X161980714Y-122245476D01*
X162028333Y-122150238D01*
X162123571Y-122055000D01*
X162266429Y-122007381D01*
X162361667Y-122007381D01*
X162504524Y-122055000D01*
X162552143Y-122102619D01*
X163504524Y-123007381D02*
X162933095Y-123007381D01*
X163218809Y-123007381D02*
X163218809Y-122007381D01*
X163123571Y-122150238D01*
X163028333Y-122245476D01*
X162933095Y-122293095D01*
X164456905Y-123007381D02*
X163885476Y-123007381D01*
X164171190Y-123007381D02*
X164171190Y-122007381D01*
X164075952Y-122150238D01*
X163980714Y-122245476D01*
X163885476Y-122293095D01*
X158214108Y-118285569D02*
X158976013Y-118285569D01*
X158595061Y-118666521D02*
X158595061Y-117904616D01*
M02*
