%TF.GenerationSoftware,KiCad,Pcbnew,4.0.2+dfsg1-stable*%
%TF.CreationDate,2018-11-13T01:07:12+01:00*%
%TF.ProjectId,StandAlone-Adapter,5374616E64416C6F6E652D4164617074,rev?*%
%TF.FileFunction,Other,User*%
%FSLAX46Y46*%
G04 Gerber Fmt 4.6, Leading zero omitted, Abs format (unit mm)*
G04 Created by KiCad (PCBNEW 4.0.2+dfsg1-stable) date Tue 13 Nov 2018 01:07:12 CET*
%MOMM*%
G01*
G04 APERTURE LIST*
%ADD10C,0.100000*%
%ADD11C,0.300000*%
G04 APERTURE END LIST*
D10*
D11*
X210451429Y-110141430D02*
X210451429Y-109427144D01*
X209737143Y-109355715D01*
X209808571Y-109427144D01*
X209880000Y-109570001D01*
X209880000Y-109927144D01*
X209808571Y-110070001D01*
X209737143Y-110141430D01*
X209594286Y-110212858D01*
X209237143Y-110212858D01*
X209094286Y-110141430D01*
X209022857Y-110070001D01*
X208951429Y-109927144D01*
X208951429Y-109570001D01*
X209022857Y-109427144D01*
X209094286Y-109355715D01*
X209808571Y-111070001D02*
X209880000Y-110927143D01*
X209951429Y-110855715D01*
X210094286Y-110784286D01*
X210165714Y-110784286D01*
X210308571Y-110855715D01*
X210380000Y-110927143D01*
X210451429Y-111070001D01*
X210451429Y-111355715D01*
X210380000Y-111498572D01*
X210308571Y-111570001D01*
X210165714Y-111641429D01*
X210094286Y-111641429D01*
X209951429Y-111570001D01*
X209880000Y-111498572D01*
X209808571Y-111355715D01*
X209808571Y-111070001D01*
X209737143Y-110927143D01*
X209665714Y-110855715D01*
X209522857Y-110784286D01*
X209237143Y-110784286D01*
X209094286Y-110855715D01*
X209022857Y-110927143D01*
X208951429Y-111070001D01*
X208951429Y-111355715D01*
X209022857Y-111498572D01*
X209094286Y-111570001D01*
X209237143Y-111641429D01*
X209522857Y-111641429D01*
X209665714Y-111570001D01*
X209737143Y-111498572D01*
X209808571Y-111355715D01*
X209022857Y-112355714D02*
X208951429Y-112355714D01*
X208808571Y-112284286D01*
X208737143Y-112212857D01*
X209951429Y-113641429D02*
X208951429Y-113641429D01*
X210522857Y-113284286D02*
X209451429Y-112927143D01*
X209451429Y-113855715D01*
X210308571Y-114355714D02*
X210380000Y-114427143D01*
X210451429Y-114570000D01*
X210451429Y-114927143D01*
X210380000Y-115070000D01*
X210308571Y-115141429D01*
X210165714Y-115212857D01*
X210022857Y-115212857D01*
X209808571Y-115141429D01*
X208951429Y-114284286D01*
X208951429Y-115212857D01*
X210451429Y-116141428D02*
X210451429Y-116284285D01*
X210380000Y-116427142D01*
X210308571Y-116498571D01*
X210165714Y-116570000D01*
X209880000Y-116641428D01*
X209522857Y-116641428D01*
X209237143Y-116570000D01*
X209094286Y-116498571D01*
X209022857Y-116427142D01*
X208951429Y-116284285D01*
X208951429Y-116141428D01*
X209022857Y-115998571D01*
X209094286Y-115927142D01*
X209237143Y-115855714D01*
X209522857Y-115784285D01*
X209880000Y-115784285D01*
X210165714Y-115855714D01*
X210308571Y-115927142D01*
X210380000Y-115998571D01*
X210451429Y-116141428D01*
X208951429Y-118427142D02*
X209951429Y-118427142D01*
X209808571Y-118427142D02*
X209880000Y-118498570D01*
X209951429Y-118641428D01*
X209951429Y-118855713D01*
X209880000Y-118998570D01*
X209737143Y-119069999D01*
X208951429Y-119069999D01*
X209737143Y-119069999D02*
X209880000Y-119141428D01*
X209951429Y-119284285D01*
X209951429Y-119498570D01*
X209880000Y-119641428D01*
X209737143Y-119712856D01*
X208951429Y-119712856D01*
X208951429Y-120427142D02*
X209951429Y-120427142D01*
X209808571Y-120427142D02*
X209880000Y-120498570D01*
X209951429Y-120641428D01*
X209951429Y-120855713D01*
X209880000Y-120998570D01*
X209737143Y-121069999D01*
X208951429Y-121069999D01*
X209737143Y-121069999D02*
X209880000Y-121141428D01*
X209951429Y-121284285D01*
X209951429Y-121498570D01*
X209880000Y-121641428D01*
X209737143Y-121712856D01*
X208951429Y-121712856D01*
X208280000Y-86360000D02*
X208280000Y-144780000D01*
X200660000Y-86360000D02*
X210980000Y-86360000D01*
X200660000Y-144780000D02*
X210980000Y-144780000D01*
X208280000Y-144780000D02*
X207693579Y-143653496D01*
X208280000Y-144780000D02*
X208866421Y-143653496D01*
X208280000Y-86360000D02*
X207693579Y-87486504D01*
X208280000Y-86360000D02*
X208866421Y-87486504D01*
X155004287Y-79108571D02*
X156004287Y-79108571D01*
X155361430Y-80608571D01*
X156790001Y-79751429D02*
X156647143Y-79680000D01*
X156575715Y-79608571D01*
X156504286Y-79465714D01*
X156504286Y-79394286D01*
X156575715Y-79251429D01*
X156647143Y-79180000D01*
X156790001Y-79108571D01*
X157075715Y-79108571D01*
X157218572Y-79180000D01*
X157290001Y-79251429D01*
X157361429Y-79394286D01*
X157361429Y-79465714D01*
X157290001Y-79608571D01*
X157218572Y-79680000D01*
X157075715Y-79751429D01*
X156790001Y-79751429D01*
X156647143Y-79822857D01*
X156575715Y-79894286D01*
X156504286Y-80037143D01*
X156504286Y-80322857D01*
X156575715Y-80465714D01*
X156647143Y-80537143D01*
X156790001Y-80608571D01*
X157075715Y-80608571D01*
X157218572Y-80537143D01*
X157290001Y-80465714D01*
X157361429Y-80322857D01*
X157361429Y-80037143D01*
X157290001Y-79894286D01*
X157218572Y-79822857D01*
X157075715Y-79751429D01*
X158075714Y-80537143D02*
X158075714Y-80608571D01*
X158004286Y-80751429D01*
X157932857Y-80822857D01*
X158575715Y-79108571D02*
X159575715Y-79108571D01*
X158932858Y-80608571D01*
X160790000Y-79608571D02*
X160790000Y-80608571D01*
X160432857Y-79037143D02*
X160075714Y-80108571D01*
X161004286Y-80108571D01*
X161861428Y-79108571D02*
X162004285Y-79108571D01*
X162147142Y-79180000D01*
X162218571Y-79251429D01*
X162290000Y-79394286D01*
X162361428Y-79680000D01*
X162361428Y-80037143D01*
X162290000Y-80322857D01*
X162218571Y-80465714D01*
X162147142Y-80537143D01*
X162004285Y-80608571D01*
X161861428Y-80608571D01*
X161718571Y-80537143D01*
X161647142Y-80465714D01*
X161575714Y-80322857D01*
X161504285Y-80037143D01*
X161504285Y-79680000D01*
X161575714Y-79394286D01*
X161647142Y-79251429D01*
X161718571Y-79180000D01*
X161861428Y-79108571D01*
X164147142Y-80608571D02*
X164147142Y-79608571D01*
X164147142Y-79751429D02*
X164218570Y-79680000D01*
X164361428Y-79608571D01*
X164575713Y-79608571D01*
X164718570Y-79680000D01*
X164789999Y-79822857D01*
X164789999Y-80608571D01*
X164789999Y-79822857D02*
X164861428Y-79680000D01*
X165004285Y-79608571D01*
X165218570Y-79608571D01*
X165361428Y-79680000D01*
X165432856Y-79822857D01*
X165432856Y-80608571D01*
X166147142Y-80608571D02*
X166147142Y-79608571D01*
X166147142Y-79751429D02*
X166218570Y-79680000D01*
X166361428Y-79608571D01*
X166575713Y-79608571D01*
X166718570Y-79680000D01*
X166789999Y-79822857D01*
X166789999Y-80608571D01*
X166789999Y-79822857D02*
X166861428Y-79680000D01*
X167004285Y-79608571D01*
X167218570Y-79608571D01*
X167361428Y-79680000D01*
X167432856Y-79822857D01*
X167432856Y-80608571D01*
X121920000Y-81280000D02*
X200660000Y-81280000D01*
X121920000Y-86360000D02*
X121920000Y-78580000D01*
X200660000Y-86360000D02*
X200660000Y-78580000D01*
X200660000Y-81280000D02*
X199533496Y-81866421D01*
X200660000Y-81280000D02*
X199533496Y-80693579D01*
X121920000Y-81280000D02*
X123046504Y-81866421D01*
X121920000Y-81280000D02*
X123046504Y-80693579D01*
M02*
