M48
;DRILL file {KiCad 4.0.2+dfsg1-stable} date Sun 23 Dec 2018 00:35:17 CET
;FORMAT={-:-/ absolute / metric / decimal}
FMAT,2
METRIC,TZ
T1C0.400
T2C0.800
T3C0.900
T4C1.001
T5C1.016
T6C2.301
T7C2.600
T8C3.048
%
G90
G05
M71
T1
X153.384Y-108.31
X153.667Y-127.211
X154.314Y-128.456
X154.421Y-105.459
X154.92Y-117.389
X155.089Y-125.123
X155.765Y-121.936
X157.449Y-119.035
X158.072Y-119.923
X158.854Y-121.739
X159.14Y-128.486
X159.47Y-117.819
X159.512Y-125.887
X159.587Y-130.315
X160.454Y-125.455
X163.769Y-109.03
X165.032Y-126.56
X170.334Y-130.907
X170.499Y-124.46
X171.76Y-100.16
X172.266Y-126.99
X173.624Y-129.479
X174.345Y-99.809
X175.984Y-97.503
X181.483Y-90.678
X182.995Y-102.624
T2
X127.Y-127.
T3
X162.445Y-134.61
X163.715Y-132.08
X164.985Y-134.61
X166.255Y-132.08
T4
X157.987Y-99.062
X160.527Y-99.062
X162.559Y-99.062
X165.099Y-99.062
T5
X132.08Y-96.52
X132.08Y-104.14
X134.62Y-96.52
X134.62Y-104.14
X134.62Y-114.3
X134.62Y-116.84
X134.62Y-129.54
X134.62Y-132.08
X134.62Y-134.62
X137.16Y-96.52
X137.16Y-104.14
X137.16Y-129.54
X137.16Y-132.08
X137.16Y-134.62
X139.7Y-96.52
X142.24Y-101.6
X142.24Y-104.14
X144.78Y-93.98
X147.32Y-93.98
X149.86Y-93.98
X173.99Y-91.44
X173.99Y-93.98
X187.96Y-99.06
X187.96Y-101.6
X187.96Y-104.14
X187.96Y-106.68
X187.96Y-124.46
X187.96Y-127.
X187.96Y-129.54
X187.96Y-132.08
X187.96Y-134.62
X187.96Y-139.7
X190.5Y-139.7
T6
X154.939Y-96.395
X168.655Y-96.395
T7
X160.54Y-140.96
X168.16Y-140.96
T8
X125.73Y-90.17
X125.73Y-140.97
X196.85Y-90.17
X196.85Y-140.97
T0
M30
