%TF.GenerationSoftware,KiCad,Pcbnew,4.0.2+dfsg1-stable*%
%TF.CreationDate,2019-03-31T18:37:28+02:00*%
%TF.ProjectId,StandAlone-Adapter,5374616E64416C6F6E652D4164617074,rev?*%
%TF.FileFunction,Copper,L2,Bot,Signal*%
%FSLAX46Y46*%
G04 Gerber Fmt 4.6, Leading zero omitted, Abs format (unit mm)*
G04 Created by KiCad (PCBNEW 4.0.2+dfsg1-stable) date Sun 31 Mar 2019 18:37:28 CEST*
%MOMM*%
G01*
G04 APERTURE LIST*
%ADD10C,0.100000*%
%ADD11C,4.064000*%
%ADD12C,1.998980*%
%ADD13C,1.270000*%
%ADD14C,3.600000*%
%ADD15C,1.501140*%
%ADD16C,2.999740*%
%ADD17C,1.500000*%
%ADD18R,1.727200X2.032000*%
%ADD19O,1.727200X2.032000*%
%ADD20R,2.032000X2.032000*%
%ADD21O,2.032000X2.032000*%
%ADD22R,2.032000X1.727200*%
%ADD23O,2.032000X1.727200*%
%ADD24R,1.727200X1.727200*%
%ADD25O,1.727200X1.727200*%
%ADD26C,0.600000*%
%ADD27C,0.250000*%
%ADD28C,0.254000*%
G04 APERTURE END LIST*
D10*
D11*
X113030000Y-120650000D03*
X184150000Y-120650000D03*
X184150000Y-69850000D03*
X113030000Y-69850000D03*
D12*
X113030000Y-106680000D03*
D13*
X152285000Y-114290000D03*
X149745000Y-114290000D03*
X153555000Y-111760000D03*
D14*
X155460000Y-120640000D03*
X147840000Y-120640000D03*
D13*
X151015000Y-111760000D03*
D15*
X145287140Y-78742120D03*
X147827140Y-78742120D03*
X149859140Y-78742120D03*
X152399140Y-78742120D03*
D16*
X142239140Y-76075120D03*
X155955140Y-76075120D03*
D17*
X131318000Y-99060000D03*
X136198000Y-99060000D03*
D18*
X119380000Y-76200000D03*
D19*
X121920000Y-76200000D03*
X124460000Y-76200000D03*
X127000000Y-76200000D03*
D18*
X119380000Y-83820000D03*
D19*
X121920000Y-83820000D03*
X124460000Y-83820000D03*
D20*
X129540000Y-83820000D03*
D21*
X129540000Y-81280000D03*
D18*
X137160000Y-73660000D03*
D19*
X134620000Y-73660000D03*
X132080000Y-73660000D03*
D20*
X161290000Y-71120000D03*
D21*
X161290000Y-73660000D03*
D22*
X175260000Y-78740000D03*
D23*
X175260000Y-81280000D03*
X175260000Y-83820000D03*
X175260000Y-86360000D03*
D22*
X175260000Y-104140000D03*
D23*
X175260000Y-106680000D03*
X175260000Y-109220000D03*
X175260000Y-111760000D03*
X175260000Y-114300000D03*
D20*
X175260000Y-119380000D03*
D21*
X177800000Y-119380000D03*
D20*
X121920000Y-96520000D03*
D21*
X121920000Y-93980000D03*
D24*
X121920000Y-109220000D03*
D25*
X124460000Y-109220000D03*
X121920000Y-111760000D03*
X124460000Y-111760000D03*
X121920000Y-114300000D03*
X124460000Y-114300000D03*
D26*
X141003300Y-110218200D03*
X153292000Y-112903700D03*
X147460200Y-94365800D03*
X146025700Y-92643100D03*
X151693200Y-98787000D03*
X152410900Y-106493100D03*
X141524800Y-107050100D03*
X141261000Y-109220000D03*
X133480500Y-83418200D03*
X132787000Y-87531700D03*
X133667100Y-97170300D03*
X139307000Y-100823600D03*
X139600000Y-98539800D03*
X153555500Y-109566200D03*
X152213800Y-112723700D03*
X146168100Y-99784900D03*
X159663200Y-107284300D03*
X159663200Y-104823300D03*
X148509100Y-106187200D03*
X146679500Y-97439900D03*
X148284100Y-109220000D03*
X138342700Y-106116400D03*
X144196700Y-99475000D03*
X148465900Y-88738700D03*
X147897600Y-86430600D03*
X148622000Y-97573400D03*
X149354400Y-99788900D03*
X148287800Y-104648000D03*
D27*
X146053300Y-115268200D02*
X141003300Y-110218200D01*
X150147000Y-115268200D02*
X146053300Y-115268200D01*
X151015000Y-114400200D02*
X150147000Y-115268200D01*
X151015000Y-111760000D02*
X151015000Y-114400200D01*
X151015000Y-111222400D02*
X151015000Y-111760000D01*
X158097400Y-104140000D02*
X151015000Y-111222400D01*
X173918700Y-104140000D02*
X158097400Y-104140000D01*
X175260000Y-104140000D02*
X173918700Y-104140000D01*
X153292000Y-113283000D02*
X153292000Y-112903700D01*
X152285000Y-114290000D02*
X153292000Y-113283000D01*
X177800000Y-114968800D02*
X177800000Y-119380000D01*
X175780100Y-112948900D02*
X177800000Y-114968800D01*
X175260000Y-112948900D02*
X175780100Y-112948900D01*
X175260000Y-83820000D02*
X175260000Y-81280000D01*
X175260000Y-111760000D02*
X175260000Y-112272300D01*
X175260000Y-112272300D02*
X175260000Y-112948900D01*
X175780100Y-85008900D02*
X175260000Y-85008900D01*
X176611000Y-85839800D02*
X175780100Y-85008900D01*
X176611000Y-110921300D02*
X176611000Y-85839800D01*
X175260000Y-112272300D02*
X176611000Y-110921300D01*
X175260000Y-83820000D02*
X175260000Y-85008900D01*
X132080000Y-73660000D02*
X133268900Y-73660000D01*
X150708200Y-71120000D02*
X145287100Y-76541100D01*
X161290000Y-71120000D02*
X150708200Y-71120000D01*
X141064600Y-72318600D02*
X145287100Y-76541100D01*
X134090200Y-72318600D02*
X141064600Y-72318600D01*
X133268900Y-73139900D02*
X134090200Y-72318600D01*
X133268900Y-73660000D02*
X133268900Y-73139900D01*
X145287100Y-76541100D02*
X145287100Y-78742100D01*
X149099800Y-89569000D02*
X146025700Y-92643100D01*
X149099800Y-82554800D02*
X149099800Y-89569000D01*
X145287100Y-78742100D02*
X149099800Y-82554800D01*
X147460200Y-94077600D02*
X146025700Y-92643100D01*
X147460200Y-94365800D02*
X147460200Y-94077600D01*
X151693200Y-98598800D02*
X151693200Y-98787000D01*
X147460200Y-94365800D02*
X151693200Y-98598800D01*
X119380000Y-83820000D02*
X119380000Y-76200000D01*
X122588800Y-73660000D02*
X132080000Y-73660000D01*
X120568900Y-75679900D02*
X122588800Y-73660000D01*
X120568900Y-76200000D02*
X120568900Y-75679900D01*
X119380000Y-76200000D02*
X120568900Y-76200000D01*
X175260000Y-78740000D02*
X173918700Y-78740000D01*
X173916600Y-78742100D02*
X173918700Y-78740000D01*
X152399100Y-78742100D02*
X173916600Y-78742100D01*
X152399100Y-106493100D02*
X152399100Y-78742100D01*
X149745000Y-109147200D02*
X152399100Y-106493100D01*
X149745000Y-114290000D02*
X149745000Y-109147200D01*
X152399100Y-106493100D02*
X152410900Y-106493100D01*
X135971100Y-74180100D02*
X135971100Y-73660000D01*
X133951200Y-76200000D02*
X135971100Y-74180100D01*
X127000000Y-76200000D02*
X133951200Y-76200000D01*
X137160000Y-73660000D02*
X135971100Y-73660000D01*
X141524800Y-108956200D02*
X141524800Y-107050100D01*
X141261000Y-109220000D02*
X141524800Y-108956200D01*
X133480500Y-86838200D02*
X132787000Y-87531700D01*
X133480500Y-83418200D02*
X133480500Y-86838200D01*
X133207700Y-97170300D02*
X133667100Y-97170300D01*
X131318000Y-99060000D02*
X133207700Y-97170300D01*
X137543400Y-99060000D02*
X136198000Y-99060000D01*
X139307000Y-100823600D02*
X137543400Y-99060000D01*
X137580200Y-96520000D02*
X139600000Y-98539800D01*
X121920000Y-96520000D02*
X137580200Y-96520000D01*
X152213800Y-110907900D02*
X153555500Y-109566200D01*
X152213800Y-112723700D02*
X152213800Y-110907900D01*
X140370900Y-105582100D02*
X146168100Y-99784900D01*
X140370900Y-110491300D02*
X140370900Y-105582100D01*
X145607100Y-115727500D02*
X140370900Y-110491300D01*
X152214400Y-115727500D02*
X145607100Y-115727500D01*
X159663200Y-108278700D02*
X152214400Y-115727500D01*
X159663200Y-107284300D02*
X159663200Y-108278700D01*
X159663200Y-107284300D02*
X159663200Y-104823300D01*
X146793400Y-97553800D02*
X146679500Y-97439900D01*
X146793400Y-104471500D02*
X146793400Y-97553800D01*
X148509100Y-106187200D02*
X146793400Y-104471500D01*
X148509100Y-108995000D02*
X148284100Y-109220000D01*
X148509100Y-106187200D02*
X148509100Y-108995000D01*
X138342700Y-105329000D02*
X144196700Y-99475000D01*
X138342700Y-106116400D02*
X138342700Y-105329000D01*
X121920000Y-76200000D02*
X123108900Y-76200000D01*
X139545500Y-79818300D02*
X148465900Y-88738700D01*
X126207100Y-79818300D02*
X139545500Y-79818300D01*
X123108900Y-76720100D02*
X126207100Y-79818300D01*
X123108900Y-76200000D02*
X123108900Y-76720100D01*
X124460000Y-76200000D02*
X125648900Y-76200000D01*
X139008400Y-77541400D02*
X147897600Y-86430600D01*
X126470200Y-77541400D02*
X139008400Y-77541400D01*
X125648900Y-76720100D02*
X126470200Y-77541400D01*
X125648900Y-76200000D02*
X125648900Y-76720100D01*
X146039800Y-94991200D02*
X148622000Y-97573400D01*
X139352200Y-94991200D02*
X146039800Y-94991200D01*
X129540000Y-85179000D02*
X139352200Y-94991200D01*
X129540000Y-83820000D02*
X129540000Y-85179000D01*
X124460000Y-83820000D02*
X125648900Y-83820000D01*
X149354400Y-103581400D02*
X148287800Y-104648000D01*
X149354400Y-99788900D02*
X149354400Y-103581400D01*
X149354400Y-99204400D02*
X149354400Y-99788900D01*
X146736300Y-96586300D02*
X149354400Y-99204400D01*
X138415200Y-96586300D02*
X146736300Y-96586300D01*
X125648900Y-83820000D02*
X138415200Y-96586300D01*
D28*
G36*
X187198000Y-123698000D02*
X109982000Y-123698000D01*
X109982000Y-121178172D01*
X110362538Y-121178172D01*
X110767709Y-122158761D01*
X111517293Y-122909655D01*
X112497173Y-123316536D01*
X113558172Y-123317462D01*
X114538761Y-122912291D01*
X115289655Y-122162707D01*
X115696536Y-121182827D01*
X115696588Y-121122226D01*
X145404579Y-121122226D01*
X145774504Y-122017514D01*
X146458883Y-122703088D01*
X147353524Y-123074576D01*
X148322226Y-123075421D01*
X149217514Y-122705496D01*
X149903088Y-122021117D01*
X150274576Y-121126476D01*
X150274579Y-121122226D01*
X153024579Y-121122226D01*
X153394504Y-122017514D01*
X154078883Y-122703088D01*
X154973524Y-123074576D01*
X155942226Y-123075421D01*
X156837514Y-122705496D01*
X157523088Y-122021117D01*
X157873109Y-121178172D01*
X181482538Y-121178172D01*
X181887709Y-122158761D01*
X182637293Y-122909655D01*
X183617173Y-123316536D01*
X184678172Y-123317462D01*
X185658761Y-122912291D01*
X186409655Y-122162707D01*
X186816536Y-121182827D01*
X186817462Y-120121828D01*
X186412291Y-119141239D01*
X185662707Y-118390345D01*
X184682827Y-117983464D01*
X183621828Y-117982538D01*
X182641239Y-118387709D01*
X181890345Y-119137293D01*
X181483464Y-120117173D01*
X181482538Y-121178172D01*
X157873109Y-121178172D01*
X157894576Y-121126476D01*
X157895421Y-120157774D01*
X157525496Y-119262486D01*
X156841117Y-118576912D01*
X156328369Y-118364000D01*
X173596560Y-118364000D01*
X173596560Y-120396000D01*
X173640838Y-120631317D01*
X173779910Y-120847441D01*
X173992110Y-120992431D01*
X174244000Y-121043440D01*
X176276000Y-121043440D01*
X176511317Y-120999162D01*
X176727441Y-120860090D01*
X176838840Y-120697052D01*
X176935182Y-120786385D01*
X177417056Y-120985975D01*
X177673000Y-120866836D01*
X177673000Y-119507000D01*
X177927000Y-119507000D01*
X177927000Y-120866836D01*
X178182944Y-120985975D01*
X178664818Y-120786385D01*
X179137188Y-120348379D01*
X179405983Y-119762946D01*
X179287367Y-119507000D01*
X177927000Y-119507000D01*
X177673000Y-119507000D01*
X177653000Y-119507000D01*
X177653000Y-119253000D01*
X177673000Y-119253000D01*
X177673000Y-117893164D01*
X177927000Y-117893164D01*
X177927000Y-119253000D01*
X179287367Y-119253000D01*
X179405983Y-118997054D01*
X179137188Y-118411621D01*
X178664818Y-117973615D01*
X178182944Y-117774025D01*
X177927000Y-117893164D01*
X177673000Y-117893164D01*
X177417056Y-117774025D01*
X176935182Y-117973615D01*
X176837602Y-118064097D01*
X176740090Y-117912559D01*
X176527890Y-117767569D01*
X176276000Y-117716560D01*
X174244000Y-117716560D01*
X174008683Y-117760838D01*
X173792559Y-117899910D01*
X173647569Y-118112110D01*
X173596560Y-118364000D01*
X156328369Y-118364000D01*
X155946476Y-118205424D01*
X154977774Y-118204579D01*
X154082486Y-118574504D01*
X153396912Y-119258883D01*
X153025424Y-120153524D01*
X153024579Y-121122226D01*
X150274579Y-121122226D01*
X150275421Y-120157774D01*
X149905496Y-119262486D01*
X149221117Y-118576912D01*
X148326476Y-118205424D01*
X147357774Y-118204579D01*
X146462486Y-118574504D01*
X145776912Y-119258883D01*
X145405424Y-120153524D01*
X145404579Y-121122226D01*
X115696588Y-121122226D01*
X115697462Y-120121828D01*
X115292291Y-119141239D01*
X114542707Y-118390345D01*
X113562827Y-117983464D01*
X112501828Y-117982538D01*
X111521239Y-118387709D01*
X110770345Y-119137293D01*
X110363464Y-120117173D01*
X110362538Y-121178172D01*
X109982000Y-121178172D01*
X109982000Y-114300000D01*
X120392041Y-114300000D01*
X120506115Y-114873489D01*
X120830971Y-115359670D01*
X121317152Y-115684526D01*
X121890641Y-115798600D01*
X121949359Y-115798600D01*
X122522848Y-115684526D01*
X123009029Y-115359670D01*
X123190000Y-115088828D01*
X123370971Y-115359670D01*
X123857152Y-115684526D01*
X124430641Y-115798600D01*
X124489359Y-115798600D01*
X125062848Y-115684526D01*
X125549029Y-115359670D01*
X125873885Y-114873489D01*
X125987959Y-114300000D01*
X125873885Y-113726511D01*
X125549029Y-113240330D01*
X125225772Y-113024336D01*
X125348490Y-112966821D01*
X125742688Y-112534947D01*
X125914958Y-112119026D01*
X125793817Y-111887000D01*
X124587000Y-111887000D01*
X124587000Y-111907000D01*
X124333000Y-111907000D01*
X124333000Y-111887000D01*
X122047000Y-111887000D01*
X122047000Y-111907000D01*
X121793000Y-111907000D01*
X121793000Y-111887000D01*
X120586183Y-111887000D01*
X120465042Y-112119026D01*
X120637312Y-112534947D01*
X121031510Y-112966821D01*
X121154228Y-113024336D01*
X120830971Y-113240330D01*
X120506115Y-113726511D01*
X120392041Y-114300000D01*
X109982000Y-114300000D01*
X109982000Y-108356400D01*
X120408960Y-108356400D01*
X120408960Y-110083600D01*
X120453238Y-110318917D01*
X120592310Y-110535041D01*
X120804510Y-110680031D01*
X120898375Y-110699039D01*
X120637312Y-110985053D01*
X120465042Y-111400974D01*
X120586183Y-111633000D01*
X121793000Y-111633000D01*
X121793000Y-111613000D01*
X122047000Y-111613000D01*
X122047000Y-111633000D01*
X124333000Y-111633000D01*
X124333000Y-111613000D01*
X124587000Y-111613000D01*
X124587000Y-111633000D01*
X125793817Y-111633000D01*
X125914958Y-111400974D01*
X125742688Y-110985053D01*
X125348490Y-110553179D01*
X125225772Y-110495664D01*
X125549029Y-110279670D01*
X125873885Y-109793489D01*
X125987959Y-109220000D01*
X125873885Y-108646511D01*
X125549029Y-108160330D01*
X125062848Y-107835474D01*
X124489359Y-107721400D01*
X124430641Y-107721400D01*
X123857152Y-107835474D01*
X123391558Y-108146574D01*
X123386762Y-108121083D01*
X123247690Y-107904959D01*
X123035490Y-107759969D01*
X122783600Y-107708960D01*
X121056400Y-107708960D01*
X120821083Y-107753238D01*
X120604959Y-107892310D01*
X120459969Y-108104510D01*
X120408960Y-108356400D01*
X109982000Y-108356400D01*
X109982000Y-107832163D01*
X112057443Y-107832163D01*
X112156042Y-108098965D01*
X112765582Y-108325401D01*
X113415377Y-108301341D01*
X113903958Y-108098965D01*
X114002557Y-107832163D01*
X113030000Y-106859605D01*
X112057443Y-107832163D01*
X109982000Y-107832163D01*
X109982000Y-106415582D01*
X111384599Y-106415582D01*
X111408659Y-107065377D01*
X111611035Y-107553958D01*
X111877837Y-107652557D01*
X112850395Y-106680000D01*
X113209605Y-106680000D01*
X114182163Y-107652557D01*
X114448965Y-107553958D01*
X114675401Y-106944418D01*
X114651341Y-106294623D01*
X114448965Y-105806042D01*
X114182163Y-105707443D01*
X113209605Y-106680000D01*
X112850395Y-106680000D01*
X111877837Y-105707443D01*
X111611035Y-105806042D01*
X111384599Y-106415582D01*
X109982000Y-106415582D01*
X109982000Y-105527837D01*
X112057443Y-105527837D01*
X113030000Y-106500395D01*
X114002557Y-105527837D01*
X113903958Y-105261035D01*
X113294418Y-105034599D01*
X112644623Y-105058659D01*
X112156042Y-105261035D01*
X112057443Y-105527837D01*
X109982000Y-105527837D01*
X109982000Y-93597056D01*
X120314025Y-93597056D01*
X120433164Y-93853000D01*
X121793000Y-93853000D01*
X121793000Y-92492633D01*
X122047000Y-92492633D01*
X122047000Y-93853000D01*
X123406836Y-93853000D01*
X123525975Y-93597056D01*
X123326385Y-93115182D01*
X122888379Y-92642812D01*
X122302946Y-92374017D01*
X122047000Y-92492633D01*
X121793000Y-92492633D01*
X121537054Y-92374017D01*
X120951621Y-92642812D01*
X120513615Y-93115182D01*
X120314025Y-93597056D01*
X109982000Y-93597056D01*
X109982000Y-84105750D01*
X117881400Y-84105750D01*
X117881400Y-84962309D01*
X117978073Y-85195698D01*
X118156701Y-85374327D01*
X118390090Y-85471000D01*
X119094250Y-85471000D01*
X119253000Y-85312250D01*
X119253000Y-83947000D01*
X118040150Y-83947000D01*
X117881400Y-84105750D01*
X109982000Y-84105750D01*
X109982000Y-82677691D01*
X117881400Y-82677691D01*
X117881400Y-83534250D01*
X118040150Y-83693000D01*
X119253000Y-83693000D01*
X119253000Y-82327750D01*
X119094250Y-82169000D01*
X118390090Y-82169000D01*
X118156701Y-82265673D01*
X117978073Y-82444302D01*
X117881400Y-82677691D01*
X109982000Y-82677691D01*
X109982000Y-76485750D01*
X117881400Y-76485750D01*
X117881400Y-77342309D01*
X117978073Y-77575698D01*
X118156701Y-77754327D01*
X118390090Y-77851000D01*
X119094250Y-77851000D01*
X119253000Y-77692250D01*
X119253000Y-76327000D01*
X118040150Y-76327000D01*
X117881400Y-76485750D01*
X109982000Y-76485750D01*
X109982000Y-75057691D01*
X117881400Y-75057691D01*
X117881400Y-75914250D01*
X118040150Y-76073000D01*
X119253000Y-76073000D01*
X119253000Y-74707750D01*
X119507000Y-74707750D01*
X119507000Y-76073000D01*
X119527000Y-76073000D01*
X119527000Y-76327000D01*
X119507000Y-76327000D01*
X119507000Y-77692250D01*
X119665750Y-77851000D01*
X120369910Y-77851000D01*
X120603299Y-77754327D01*
X120781927Y-77575698D01*
X120845500Y-77422220D01*
X120860330Y-77444415D01*
X121346511Y-77769271D01*
X121920000Y-77883345D01*
X122493489Y-77769271D01*
X122847036Y-77533038D01*
X125669699Y-80355701D01*
X125916260Y-80520448D01*
X125964514Y-80530046D01*
X126207100Y-80578300D01*
X128029029Y-80578300D01*
X127982330Y-80648190D01*
X127856655Y-81280000D01*
X127982330Y-81911810D01*
X128209499Y-82251792D01*
X128072559Y-82339910D01*
X127927569Y-82552110D01*
X127876560Y-82804000D01*
X127876560Y-84836000D01*
X127908280Y-85004578D01*
X126186301Y-83282599D01*
X125939739Y-83117852D01*
X125852219Y-83100443D01*
X125844526Y-83061766D01*
X125519670Y-82575585D01*
X125033489Y-82250729D01*
X124460000Y-82136655D01*
X123886511Y-82250729D01*
X123400330Y-82575585D01*
X123190000Y-82890366D01*
X122979670Y-82575585D01*
X122493489Y-82250729D01*
X121920000Y-82136655D01*
X121346511Y-82250729D01*
X120860330Y-82575585D01*
X120845500Y-82597780D01*
X120781927Y-82444302D01*
X120603299Y-82265673D01*
X120369910Y-82169000D01*
X119665750Y-82169000D01*
X119507000Y-82327750D01*
X119507000Y-83693000D01*
X119527000Y-83693000D01*
X119527000Y-83947000D01*
X119507000Y-83947000D01*
X119507000Y-85312250D01*
X119665750Y-85471000D01*
X120369910Y-85471000D01*
X120603299Y-85374327D01*
X120781927Y-85195698D01*
X120845500Y-85042220D01*
X120860330Y-85064415D01*
X121346511Y-85389271D01*
X121920000Y-85503345D01*
X122493489Y-85389271D01*
X122979670Y-85064415D01*
X123190000Y-84749634D01*
X123400330Y-85064415D01*
X123886511Y-85389271D01*
X124460000Y-85503345D01*
X125033489Y-85389271D01*
X125519670Y-85064415D01*
X125639370Y-84885272D01*
X136514098Y-95760000D01*
X123583440Y-95760000D01*
X123583440Y-95504000D01*
X123539162Y-95268683D01*
X123400090Y-95052559D01*
X123237052Y-94941160D01*
X123326385Y-94844818D01*
X123525975Y-94362944D01*
X123406836Y-94107000D01*
X122047000Y-94107000D01*
X122047000Y-94127000D01*
X121793000Y-94127000D01*
X121793000Y-94107000D01*
X120433164Y-94107000D01*
X120314025Y-94362944D01*
X120513615Y-94844818D01*
X120604097Y-94942398D01*
X120452559Y-95039910D01*
X120307569Y-95252110D01*
X120256560Y-95504000D01*
X120256560Y-97536000D01*
X120300838Y-97771317D01*
X120439910Y-97987441D01*
X120652110Y-98132431D01*
X120904000Y-98183440D01*
X122936000Y-98183440D01*
X123171317Y-98139162D01*
X123387441Y-98000090D01*
X123532431Y-97787890D01*
X123583440Y-97536000D01*
X123583440Y-97280000D01*
X132023198Y-97280000D01*
X131618200Y-97684998D01*
X131594702Y-97675241D01*
X131043715Y-97674760D01*
X130534485Y-97885169D01*
X130144539Y-98274436D01*
X129933241Y-98783298D01*
X129932760Y-99334285D01*
X130143169Y-99843515D01*
X130532436Y-100233461D01*
X131041298Y-100444759D01*
X131592285Y-100445240D01*
X132101515Y-100234831D01*
X132491461Y-99845564D01*
X132702759Y-99336702D01*
X132702761Y-99334285D01*
X134812760Y-99334285D01*
X135023169Y-99843515D01*
X135412436Y-100233461D01*
X135921298Y-100444759D01*
X136472285Y-100445240D01*
X136981515Y-100234831D01*
X137312760Y-99904162D01*
X138371878Y-100963280D01*
X138371838Y-101008767D01*
X138513883Y-101352543D01*
X138776673Y-101615792D01*
X139120201Y-101758438D01*
X139492167Y-101758762D01*
X139835943Y-101616717D01*
X140099192Y-101353927D01*
X140241838Y-101010399D01*
X140242162Y-100638433D01*
X140100117Y-100294657D01*
X139837327Y-100031408D01*
X139493799Y-99888762D01*
X139446923Y-99888721D01*
X138080801Y-98522599D01*
X137834239Y-98357852D01*
X137543400Y-98300000D01*
X137382547Y-98300000D01*
X137372831Y-98276485D01*
X136983564Y-97886539D01*
X136474702Y-97675241D01*
X135923715Y-97674760D01*
X135414485Y-97885169D01*
X135024539Y-98274436D01*
X134813241Y-98783298D01*
X134812760Y-99334285D01*
X132702761Y-99334285D01*
X132703240Y-98785715D01*
X132692670Y-98760132D01*
X133386580Y-98066222D01*
X133480301Y-98105138D01*
X133852267Y-98105462D01*
X134196043Y-97963417D01*
X134459292Y-97700627D01*
X134601938Y-97357099D01*
X134602005Y-97280000D01*
X137265398Y-97280000D01*
X138664878Y-98679480D01*
X138664838Y-98724967D01*
X138806883Y-99068743D01*
X139069673Y-99331992D01*
X139413201Y-99474638D01*
X139785167Y-99474962D01*
X140128943Y-99332917D01*
X140392192Y-99070127D01*
X140534838Y-98726599D01*
X140535162Y-98354633D01*
X140393117Y-98010857D01*
X140130327Y-97747608D01*
X139786799Y-97604962D01*
X139739923Y-97604921D01*
X139481302Y-97346300D01*
X145744581Y-97346300D01*
X145744338Y-97625067D01*
X145886383Y-97968843D01*
X146033400Y-98116117D01*
X146033400Y-98849782D01*
X145982933Y-98849738D01*
X145639157Y-98991783D01*
X145375908Y-99254573D01*
X145233262Y-99598101D01*
X145233221Y-99644977D01*
X145071278Y-99806920D01*
X145131538Y-99661799D01*
X145131862Y-99289833D01*
X144989817Y-98946057D01*
X144727027Y-98682808D01*
X144383499Y-98540162D01*
X144011533Y-98539838D01*
X143667757Y-98681883D01*
X143404508Y-98944673D01*
X143261862Y-99288201D01*
X143261821Y-99335077D01*
X137805299Y-104791599D01*
X137640552Y-105038161D01*
X137582700Y-105329000D01*
X137582700Y-105553937D01*
X137550508Y-105586073D01*
X137407862Y-105929601D01*
X137407538Y-106301567D01*
X137549583Y-106645343D01*
X137812373Y-106908592D01*
X138155901Y-107051238D01*
X138527867Y-107051562D01*
X138871643Y-106909517D01*
X139134892Y-106646727D01*
X139277538Y-106303199D01*
X139277862Y-105931233D01*
X139142608Y-105603894D01*
X144336380Y-100410122D01*
X144381867Y-100410162D01*
X144528710Y-100349488D01*
X139833499Y-105044699D01*
X139668752Y-105291261D01*
X139610900Y-105582100D01*
X139610900Y-110491300D01*
X139668752Y-110782139D01*
X139833499Y-111028701D01*
X145069699Y-116264901D01*
X145316261Y-116429648D01*
X145607100Y-116487500D01*
X152214400Y-116487500D01*
X152505239Y-116429648D01*
X152751801Y-116264901D01*
X154716702Y-114300000D01*
X173576655Y-114300000D01*
X173690729Y-114873489D01*
X174015585Y-115359670D01*
X174501766Y-115684526D01*
X175075255Y-115798600D01*
X175444745Y-115798600D01*
X176018234Y-115684526D01*
X176504415Y-115359670D01*
X176829271Y-114873489D01*
X176943345Y-114300000D01*
X176829271Y-113726511D01*
X176504415Y-113240330D01*
X176194931Y-113033539D01*
X176610732Y-112662036D01*
X176864709Y-112134791D01*
X176867358Y-112119026D01*
X176746217Y-111887000D01*
X175387000Y-111887000D01*
X175387000Y-111907000D01*
X175133000Y-111907000D01*
X175133000Y-111887000D01*
X173773783Y-111887000D01*
X173652642Y-112119026D01*
X173655291Y-112134791D01*
X173909268Y-112662036D01*
X174325069Y-113033539D01*
X174015585Y-113240330D01*
X173690729Y-113726511D01*
X173576655Y-114300000D01*
X154716702Y-114300000D01*
X160200601Y-108816101D01*
X160365348Y-108569539D01*
X160423200Y-108278700D01*
X160423200Y-107846763D01*
X160455392Y-107814627D01*
X160598038Y-107471099D01*
X160598362Y-107099133D01*
X160456317Y-106755357D01*
X160423200Y-106722182D01*
X160423200Y-105385763D01*
X160455392Y-105353627D01*
X160598038Y-105010099D01*
X160598134Y-104900000D01*
X173596560Y-104900000D01*
X173596560Y-105003600D01*
X173640838Y-105238917D01*
X173779910Y-105455041D01*
X173992110Y-105600031D01*
X174033439Y-105608400D01*
X174015585Y-105620330D01*
X173690729Y-106106511D01*
X173576655Y-106680000D01*
X173690729Y-107253489D01*
X174015585Y-107739670D01*
X174330366Y-107950000D01*
X174015585Y-108160330D01*
X173690729Y-108646511D01*
X173576655Y-109220000D01*
X173690729Y-109793489D01*
X174015585Y-110279670D01*
X174325069Y-110486461D01*
X173909268Y-110857964D01*
X173655291Y-111385209D01*
X173652642Y-111400974D01*
X173773783Y-111633000D01*
X175133000Y-111633000D01*
X175133000Y-111613000D01*
X175387000Y-111613000D01*
X175387000Y-111633000D01*
X176746217Y-111633000D01*
X176867358Y-111400974D01*
X176864709Y-111385209D01*
X176610732Y-110857964D01*
X176194931Y-110486461D01*
X176504415Y-110279670D01*
X176829271Y-109793489D01*
X176943345Y-109220000D01*
X176829271Y-108646511D01*
X176504415Y-108160330D01*
X176189634Y-107950000D01*
X176504415Y-107739670D01*
X176829271Y-107253489D01*
X176943345Y-106680000D01*
X176829271Y-106106511D01*
X176504415Y-105620330D01*
X176490087Y-105610757D01*
X176511317Y-105606762D01*
X176727441Y-105467690D01*
X176872431Y-105255490D01*
X176923440Y-105003600D01*
X176923440Y-103276400D01*
X176879162Y-103041083D01*
X176740090Y-102824959D01*
X176527890Y-102679969D01*
X176276000Y-102628960D01*
X174244000Y-102628960D01*
X174008683Y-102673238D01*
X173792559Y-102812310D01*
X173647569Y-103024510D01*
X173596560Y-103276400D01*
X173596560Y-103380000D01*
X158097400Y-103380000D01*
X157806561Y-103437852D01*
X157559999Y-103602599D01*
X150608973Y-110553625D01*
X150505000Y-110596585D01*
X150505000Y-109462002D01*
X152538790Y-107428212D01*
X152596067Y-107428262D01*
X152939843Y-107286217D01*
X153203092Y-107023427D01*
X153345738Y-106679899D01*
X153346062Y-106307933D01*
X153204017Y-105964157D01*
X153159100Y-105919162D01*
X153159100Y-86360000D01*
X173576655Y-86360000D01*
X173690729Y-86933489D01*
X174015585Y-87419670D01*
X174501766Y-87744526D01*
X175075255Y-87858600D01*
X175444745Y-87858600D01*
X176018234Y-87744526D01*
X176504415Y-87419670D01*
X176829271Y-86933489D01*
X176943345Y-86360000D01*
X176829271Y-85786511D01*
X176504415Y-85300330D01*
X176194931Y-85093539D01*
X176610732Y-84722036D01*
X176864709Y-84194791D01*
X176867358Y-84179026D01*
X176746217Y-83947000D01*
X175387000Y-83947000D01*
X175387000Y-83967000D01*
X175133000Y-83967000D01*
X175133000Y-83947000D01*
X173773783Y-83947000D01*
X173652642Y-84179026D01*
X173655291Y-84194791D01*
X173909268Y-84722036D01*
X174325069Y-85093539D01*
X174015585Y-85300330D01*
X173690729Y-85786511D01*
X173576655Y-86360000D01*
X153159100Y-86360000D01*
X153159100Y-81639026D01*
X173652642Y-81639026D01*
X173655291Y-81654791D01*
X173909268Y-82182036D01*
X174321108Y-82550000D01*
X173909268Y-82917964D01*
X173655291Y-83445209D01*
X173652642Y-83460974D01*
X173773783Y-83693000D01*
X175133000Y-83693000D01*
X175133000Y-81407000D01*
X175387000Y-81407000D01*
X175387000Y-83693000D01*
X176746217Y-83693000D01*
X176867358Y-83460974D01*
X176864709Y-83445209D01*
X176610732Y-82917964D01*
X176198892Y-82550000D01*
X176610732Y-82182036D01*
X176864709Y-81654791D01*
X176867358Y-81639026D01*
X176746217Y-81407000D01*
X175387000Y-81407000D01*
X175133000Y-81407000D01*
X173773783Y-81407000D01*
X173652642Y-81639026D01*
X153159100Y-81639026D01*
X153159100Y-79927300D01*
X153182977Y-79917434D01*
X153573084Y-79528007D01*
X153583842Y-79502100D01*
X173596560Y-79502100D01*
X173596560Y-79603600D01*
X173640838Y-79838917D01*
X173779910Y-80055041D01*
X173992110Y-80200031D01*
X174086927Y-80219232D01*
X173909268Y-80377964D01*
X173655291Y-80905209D01*
X173652642Y-80920974D01*
X173773783Y-81153000D01*
X175133000Y-81153000D01*
X175133000Y-81133000D01*
X175387000Y-81133000D01*
X175387000Y-81153000D01*
X176746217Y-81153000D01*
X176867358Y-80920974D01*
X176864709Y-80905209D01*
X176610732Y-80377964D01*
X176435155Y-80221093D01*
X176511317Y-80206762D01*
X176727441Y-80067690D01*
X176872431Y-79855490D01*
X176923440Y-79603600D01*
X176923440Y-77876400D01*
X176879162Y-77641083D01*
X176740090Y-77424959D01*
X176527890Y-77279969D01*
X176276000Y-77228960D01*
X174244000Y-77228960D01*
X174008683Y-77273238D01*
X173792559Y-77412310D01*
X173647569Y-77624510D01*
X173596560Y-77876400D01*
X173596560Y-77982100D01*
X156930360Y-77982100D01*
X157162867Y-77886030D01*
X157763940Y-77286006D01*
X158089639Y-76501635D01*
X158090380Y-75652331D01*
X157766050Y-74867393D01*
X157166026Y-74266320D01*
X156381655Y-73940621D01*
X155532351Y-73939880D01*
X154747413Y-74264210D01*
X154146340Y-74864234D01*
X153820641Y-75648605D01*
X153819900Y-76497909D01*
X154144230Y-77282847D01*
X154744254Y-77883920D01*
X154980698Y-77982100D01*
X153584295Y-77982100D01*
X153574454Y-77958283D01*
X153185027Y-77568176D01*
X152675956Y-77356791D01*
X152124742Y-77356310D01*
X151615303Y-77566806D01*
X151225196Y-77956233D01*
X151129165Y-78187501D01*
X151034454Y-77958283D01*
X150645027Y-77568176D01*
X150135956Y-77356791D01*
X149584742Y-77356310D01*
X149075303Y-77566806D01*
X148843077Y-77798627D01*
X148613027Y-77568176D01*
X148103956Y-77356791D01*
X147552742Y-77356310D01*
X147043303Y-77566806D01*
X146653196Y-77956233D01*
X146563761Y-78171616D01*
X146500071Y-78017855D01*
X146259070Y-77949795D01*
X145466745Y-78742120D01*
X146259070Y-79534445D01*
X146500071Y-79466385D01*
X146558909Y-79301080D01*
X146651826Y-79525957D01*
X147041253Y-79916064D01*
X147550324Y-80127449D01*
X148101538Y-80127930D01*
X148610977Y-79917434D01*
X148843203Y-79685613D01*
X149073253Y-79916064D01*
X149582324Y-80127449D01*
X150133538Y-80127930D01*
X150642977Y-79917434D01*
X151033084Y-79528007D01*
X151129115Y-79296739D01*
X151223826Y-79525957D01*
X151613253Y-79916064D01*
X151639100Y-79926797D01*
X151639100Y-105942417D01*
X151618708Y-105962773D01*
X151476062Y-106306301D01*
X151476031Y-106341367D01*
X149269100Y-108548298D01*
X149269100Y-106749663D01*
X149301292Y-106717527D01*
X149443938Y-106373999D01*
X149444262Y-106002033D01*
X149302217Y-105658257D01*
X149039427Y-105395008D01*
X148914781Y-105343250D01*
X149079992Y-105178327D01*
X149222638Y-104834799D01*
X149222679Y-104787923D01*
X149891801Y-104118801D01*
X150056548Y-103872240D01*
X150114400Y-103581400D01*
X150114400Y-100351363D01*
X150146592Y-100319227D01*
X150289238Y-99975699D01*
X150289562Y-99603733D01*
X150147517Y-99259957D01*
X150114400Y-99226782D01*
X150114400Y-99204400D01*
X150056548Y-98913561D01*
X149891801Y-98666999D01*
X149371323Y-98146521D01*
X149414192Y-98103727D01*
X149556838Y-97760199D01*
X149557162Y-97388233D01*
X149415117Y-97044457D01*
X149152327Y-96781208D01*
X148808799Y-96638562D01*
X148761923Y-96638521D01*
X146577201Y-94453799D01*
X146330639Y-94289052D01*
X146039800Y-94231200D01*
X139667002Y-94231200D01*
X133538475Y-88102673D01*
X133579192Y-88062027D01*
X133721838Y-87718499D01*
X133721879Y-87671623D01*
X134017901Y-87375601D01*
X134182648Y-87129039D01*
X134240500Y-86838200D01*
X134240500Y-83980663D01*
X134272692Y-83948527D01*
X134415338Y-83604999D01*
X134415662Y-83233033D01*
X134273617Y-82889257D01*
X134010827Y-82626008D01*
X133667299Y-82483362D01*
X133295333Y-82483038D01*
X132951557Y-82625083D01*
X132688308Y-82887873D01*
X132545662Y-83231401D01*
X132545338Y-83603367D01*
X132687383Y-83947143D01*
X132720500Y-83980318D01*
X132720500Y-86523398D01*
X132647320Y-86596578D01*
X132601833Y-86596538D01*
X132258057Y-86738583D01*
X132216184Y-86780382D01*
X130842213Y-85406411D01*
X131007441Y-85300090D01*
X131152431Y-85087890D01*
X131203440Y-84836000D01*
X131203440Y-82804000D01*
X131159162Y-82568683D01*
X131020090Y-82352559D01*
X130871163Y-82250802D01*
X131097670Y-81911810D01*
X131223345Y-81280000D01*
X131097670Y-80648190D01*
X131050971Y-80578300D01*
X139230698Y-80578300D01*
X147530778Y-88878380D01*
X147530738Y-88923867D01*
X147672783Y-89267643D01*
X147935573Y-89530892D01*
X148279101Y-89673538D01*
X148651067Y-89673862D01*
X148994843Y-89531817D01*
X149258092Y-89269027D01*
X149400738Y-88925499D01*
X149401062Y-88553533D01*
X149259017Y-88209757D01*
X148996227Y-87946508D01*
X148652699Y-87803862D01*
X148605823Y-87803821D01*
X148142912Y-87340910D01*
X148426543Y-87223717D01*
X148689792Y-86960927D01*
X148832438Y-86617399D01*
X148832762Y-86245433D01*
X148690717Y-85901657D01*
X148427927Y-85638408D01*
X148084399Y-85495762D01*
X148037523Y-85495721D01*
X142255852Y-79714050D01*
X144494815Y-79714050D01*
X144562875Y-79955051D01*
X145082174Y-80139887D01*
X145632678Y-80111925D01*
X146011405Y-79955051D01*
X146079465Y-79714050D01*
X145287140Y-78921725D01*
X144494815Y-79714050D01*
X142255852Y-79714050D01*
X141078956Y-78537154D01*
X143889373Y-78537154D01*
X143917335Y-79087658D01*
X144074209Y-79466385D01*
X144315210Y-79534445D01*
X145107535Y-78742120D01*
X144315210Y-77949795D01*
X144074209Y-78017855D01*
X143889373Y-78537154D01*
X141078956Y-78537154D01*
X139545801Y-77003999D01*
X139299239Y-76839252D01*
X139008400Y-76781400D01*
X134422752Y-76781400D01*
X134488601Y-76737401D01*
X134728093Y-76497909D01*
X140103900Y-76497909D01*
X140428230Y-77282847D01*
X141028254Y-77883920D01*
X141812625Y-78209619D01*
X142661929Y-78210360D01*
X143446867Y-77886030D01*
X143562909Y-77770190D01*
X144494815Y-77770190D01*
X145287140Y-78562515D01*
X146079465Y-77770190D01*
X146011405Y-77529189D01*
X145492106Y-77344353D01*
X144941602Y-77372315D01*
X144562875Y-77529189D01*
X144494815Y-77770190D01*
X143562909Y-77770190D01*
X144047940Y-77286006D01*
X144373639Y-76501635D01*
X144374380Y-75652331D01*
X144050050Y-74867393D01*
X143450026Y-74266320D01*
X142665655Y-73940621D01*
X141816351Y-73939880D01*
X141031413Y-74264210D01*
X140430340Y-74864234D01*
X140104641Y-75648605D01*
X140103900Y-76497909D01*
X134728093Y-76497909D01*
X135990485Y-75235517D01*
X136044510Y-75272431D01*
X136296400Y-75323440D01*
X138023600Y-75323440D01*
X138258917Y-75279162D01*
X138475041Y-75140090D01*
X138620031Y-74927890D01*
X138671040Y-74676000D01*
X138671040Y-73660000D01*
X159606655Y-73660000D01*
X159732330Y-74291810D01*
X160090222Y-74827433D01*
X160625845Y-75185325D01*
X161257655Y-75311000D01*
X161322345Y-75311000D01*
X161954155Y-75185325D01*
X162489778Y-74827433D01*
X162847670Y-74291810D01*
X162973345Y-73660000D01*
X162847670Y-73028190D01*
X162623034Y-72691999D01*
X162665698Y-72674327D01*
X162844327Y-72495699D01*
X162941000Y-72262310D01*
X162941000Y-71405750D01*
X162782250Y-71247000D01*
X161417000Y-71247000D01*
X161417000Y-71267000D01*
X161163000Y-71267000D01*
X161163000Y-71247000D01*
X159797750Y-71247000D01*
X159639000Y-71405750D01*
X159639000Y-72262310D01*
X159735673Y-72495699D01*
X159914302Y-72674327D01*
X159956966Y-72691999D01*
X159732330Y-73028190D01*
X159606655Y-73660000D01*
X138671040Y-73660000D01*
X138671040Y-72644000D01*
X138626762Y-72408683D01*
X138487690Y-72192559D01*
X138275490Y-72047569D01*
X138023600Y-71996560D01*
X136296400Y-71996560D01*
X136061083Y-72040838D01*
X135844959Y-72179910D01*
X135699969Y-72392110D01*
X135691600Y-72433439D01*
X135679670Y-72415585D01*
X135193489Y-72090729D01*
X134620000Y-71976655D01*
X134046511Y-72090729D01*
X133560330Y-72415585D01*
X133353539Y-72725069D01*
X132982036Y-72309268D01*
X132454791Y-72055291D01*
X132439026Y-72052642D01*
X132207000Y-72173783D01*
X132207000Y-73533000D01*
X132227000Y-73533000D01*
X132227000Y-73787000D01*
X132207000Y-73787000D01*
X132207000Y-75146217D01*
X132439026Y-75267358D01*
X132454791Y-75264709D01*
X132982036Y-75010732D01*
X133353539Y-74594931D01*
X133560330Y-74904415D01*
X133926989Y-75149409D01*
X133636398Y-75440000D01*
X128383346Y-75440000D01*
X128059670Y-74955585D01*
X127573489Y-74630729D01*
X127000000Y-74516655D01*
X126426511Y-74630729D01*
X125940330Y-74955585D01*
X125730000Y-75270366D01*
X125519670Y-74955585D01*
X125033489Y-74630729D01*
X124460000Y-74516655D01*
X123886511Y-74630729D01*
X123400330Y-74955585D01*
X123190000Y-75270366D01*
X122979670Y-74955585D01*
X122493489Y-74630729D01*
X121920000Y-74516655D01*
X121346511Y-74630729D01*
X120860330Y-74955585D01*
X120845500Y-74977780D01*
X120781927Y-74824302D01*
X120603299Y-74645673D01*
X120369910Y-74549000D01*
X119665750Y-74549000D01*
X119507000Y-74707750D01*
X119253000Y-74707750D01*
X119094250Y-74549000D01*
X118390090Y-74549000D01*
X118156701Y-74645673D01*
X117978073Y-74824302D01*
X117881400Y-75057691D01*
X109982000Y-75057691D01*
X109982000Y-74021913D01*
X130594816Y-74021913D01*
X130788046Y-74574320D01*
X131177964Y-75010732D01*
X131705209Y-75264709D01*
X131720974Y-75267358D01*
X131953000Y-75146217D01*
X131953000Y-73787000D01*
X130739076Y-73787000D01*
X130594816Y-74021913D01*
X109982000Y-74021913D01*
X109982000Y-73298087D01*
X130594816Y-73298087D01*
X130739076Y-73533000D01*
X131953000Y-73533000D01*
X131953000Y-72173783D01*
X131720974Y-72052642D01*
X131705209Y-72055291D01*
X131177964Y-72309268D01*
X130788046Y-72745680D01*
X130594816Y-73298087D01*
X109982000Y-73298087D01*
X109982000Y-70378172D01*
X110362538Y-70378172D01*
X110767709Y-71358761D01*
X111517293Y-72109655D01*
X112497173Y-72516536D01*
X113558172Y-72517462D01*
X114538761Y-72112291D01*
X115289655Y-71362707D01*
X115696536Y-70382827D01*
X115696889Y-69977690D01*
X159639000Y-69977690D01*
X159639000Y-70834250D01*
X159797750Y-70993000D01*
X161163000Y-70993000D01*
X161163000Y-69627750D01*
X161417000Y-69627750D01*
X161417000Y-70993000D01*
X162782250Y-70993000D01*
X162941000Y-70834250D01*
X162941000Y-70378172D01*
X181482538Y-70378172D01*
X181887709Y-71358761D01*
X182637293Y-72109655D01*
X183617173Y-72516536D01*
X184678172Y-72517462D01*
X185658761Y-72112291D01*
X186409655Y-71362707D01*
X186816536Y-70382827D01*
X186817462Y-69321828D01*
X186412291Y-68341239D01*
X185662707Y-67590345D01*
X184682827Y-67183464D01*
X183621828Y-67182538D01*
X182641239Y-67587709D01*
X181890345Y-68337293D01*
X181483464Y-69317173D01*
X181482538Y-70378172D01*
X162941000Y-70378172D01*
X162941000Y-69977690D01*
X162844327Y-69744301D01*
X162665698Y-69565673D01*
X162432309Y-69469000D01*
X161575750Y-69469000D01*
X161417000Y-69627750D01*
X161163000Y-69627750D01*
X161004250Y-69469000D01*
X160147691Y-69469000D01*
X159914302Y-69565673D01*
X159735673Y-69744301D01*
X159639000Y-69977690D01*
X115696889Y-69977690D01*
X115697462Y-69321828D01*
X115292291Y-68341239D01*
X114542707Y-67590345D01*
X113562827Y-67183464D01*
X112501828Y-67182538D01*
X111521239Y-67587709D01*
X110770345Y-68337293D01*
X110363464Y-69317173D01*
X110362538Y-70378172D01*
X109982000Y-70378172D01*
X109982000Y-66802000D01*
X187198000Y-66802000D01*
X187198000Y-123698000D01*
X187198000Y-123698000D01*
G37*
X187198000Y-123698000D02*
X109982000Y-123698000D01*
X109982000Y-121178172D01*
X110362538Y-121178172D01*
X110767709Y-122158761D01*
X111517293Y-122909655D01*
X112497173Y-123316536D01*
X113558172Y-123317462D01*
X114538761Y-122912291D01*
X115289655Y-122162707D01*
X115696536Y-121182827D01*
X115696588Y-121122226D01*
X145404579Y-121122226D01*
X145774504Y-122017514D01*
X146458883Y-122703088D01*
X147353524Y-123074576D01*
X148322226Y-123075421D01*
X149217514Y-122705496D01*
X149903088Y-122021117D01*
X150274576Y-121126476D01*
X150274579Y-121122226D01*
X153024579Y-121122226D01*
X153394504Y-122017514D01*
X154078883Y-122703088D01*
X154973524Y-123074576D01*
X155942226Y-123075421D01*
X156837514Y-122705496D01*
X157523088Y-122021117D01*
X157873109Y-121178172D01*
X181482538Y-121178172D01*
X181887709Y-122158761D01*
X182637293Y-122909655D01*
X183617173Y-123316536D01*
X184678172Y-123317462D01*
X185658761Y-122912291D01*
X186409655Y-122162707D01*
X186816536Y-121182827D01*
X186817462Y-120121828D01*
X186412291Y-119141239D01*
X185662707Y-118390345D01*
X184682827Y-117983464D01*
X183621828Y-117982538D01*
X182641239Y-118387709D01*
X181890345Y-119137293D01*
X181483464Y-120117173D01*
X181482538Y-121178172D01*
X157873109Y-121178172D01*
X157894576Y-121126476D01*
X157895421Y-120157774D01*
X157525496Y-119262486D01*
X156841117Y-118576912D01*
X156328369Y-118364000D01*
X173596560Y-118364000D01*
X173596560Y-120396000D01*
X173640838Y-120631317D01*
X173779910Y-120847441D01*
X173992110Y-120992431D01*
X174244000Y-121043440D01*
X176276000Y-121043440D01*
X176511317Y-120999162D01*
X176727441Y-120860090D01*
X176838840Y-120697052D01*
X176935182Y-120786385D01*
X177417056Y-120985975D01*
X177673000Y-120866836D01*
X177673000Y-119507000D01*
X177927000Y-119507000D01*
X177927000Y-120866836D01*
X178182944Y-120985975D01*
X178664818Y-120786385D01*
X179137188Y-120348379D01*
X179405983Y-119762946D01*
X179287367Y-119507000D01*
X177927000Y-119507000D01*
X177673000Y-119507000D01*
X177653000Y-119507000D01*
X177653000Y-119253000D01*
X177673000Y-119253000D01*
X177673000Y-117893164D01*
X177927000Y-117893164D01*
X177927000Y-119253000D01*
X179287367Y-119253000D01*
X179405983Y-118997054D01*
X179137188Y-118411621D01*
X178664818Y-117973615D01*
X178182944Y-117774025D01*
X177927000Y-117893164D01*
X177673000Y-117893164D01*
X177417056Y-117774025D01*
X176935182Y-117973615D01*
X176837602Y-118064097D01*
X176740090Y-117912559D01*
X176527890Y-117767569D01*
X176276000Y-117716560D01*
X174244000Y-117716560D01*
X174008683Y-117760838D01*
X173792559Y-117899910D01*
X173647569Y-118112110D01*
X173596560Y-118364000D01*
X156328369Y-118364000D01*
X155946476Y-118205424D01*
X154977774Y-118204579D01*
X154082486Y-118574504D01*
X153396912Y-119258883D01*
X153025424Y-120153524D01*
X153024579Y-121122226D01*
X150274579Y-121122226D01*
X150275421Y-120157774D01*
X149905496Y-119262486D01*
X149221117Y-118576912D01*
X148326476Y-118205424D01*
X147357774Y-118204579D01*
X146462486Y-118574504D01*
X145776912Y-119258883D01*
X145405424Y-120153524D01*
X145404579Y-121122226D01*
X115696588Y-121122226D01*
X115697462Y-120121828D01*
X115292291Y-119141239D01*
X114542707Y-118390345D01*
X113562827Y-117983464D01*
X112501828Y-117982538D01*
X111521239Y-118387709D01*
X110770345Y-119137293D01*
X110363464Y-120117173D01*
X110362538Y-121178172D01*
X109982000Y-121178172D01*
X109982000Y-114300000D01*
X120392041Y-114300000D01*
X120506115Y-114873489D01*
X120830971Y-115359670D01*
X121317152Y-115684526D01*
X121890641Y-115798600D01*
X121949359Y-115798600D01*
X122522848Y-115684526D01*
X123009029Y-115359670D01*
X123190000Y-115088828D01*
X123370971Y-115359670D01*
X123857152Y-115684526D01*
X124430641Y-115798600D01*
X124489359Y-115798600D01*
X125062848Y-115684526D01*
X125549029Y-115359670D01*
X125873885Y-114873489D01*
X125987959Y-114300000D01*
X125873885Y-113726511D01*
X125549029Y-113240330D01*
X125225772Y-113024336D01*
X125348490Y-112966821D01*
X125742688Y-112534947D01*
X125914958Y-112119026D01*
X125793817Y-111887000D01*
X124587000Y-111887000D01*
X124587000Y-111907000D01*
X124333000Y-111907000D01*
X124333000Y-111887000D01*
X122047000Y-111887000D01*
X122047000Y-111907000D01*
X121793000Y-111907000D01*
X121793000Y-111887000D01*
X120586183Y-111887000D01*
X120465042Y-112119026D01*
X120637312Y-112534947D01*
X121031510Y-112966821D01*
X121154228Y-113024336D01*
X120830971Y-113240330D01*
X120506115Y-113726511D01*
X120392041Y-114300000D01*
X109982000Y-114300000D01*
X109982000Y-108356400D01*
X120408960Y-108356400D01*
X120408960Y-110083600D01*
X120453238Y-110318917D01*
X120592310Y-110535041D01*
X120804510Y-110680031D01*
X120898375Y-110699039D01*
X120637312Y-110985053D01*
X120465042Y-111400974D01*
X120586183Y-111633000D01*
X121793000Y-111633000D01*
X121793000Y-111613000D01*
X122047000Y-111613000D01*
X122047000Y-111633000D01*
X124333000Y-111633000D01*
X124333000Y-111613000D01*
X124587000Y-111613000D01*
X124587000Y-111633000D01*
X125793817Y-111633000D01*
X125914958Y-111400974D01*
X125742688Y-110985053D01*
X125348490Y-110553179D01*
X125225772Y-110495664D01*
X125549029Y-110279670D01*
X125873885Y-109793489D01*
X125987959Y-109220000D01*
X125873885Y-108646511D01*
X125549029Y-108160330D01*
X125062848Y-107835474D01*
X124489359Y-107721400D01*
X124430641Y-107721400D01*
X123857152Y-107835474D01*
X123391558Y-108146574D01*
X123386762Y-108121083D01*
X123247690Y-107904959D01*
X123035490Y-107759969D01*
X122783600Y-107708960D01*
X121056400Y-107708960D01*
X120821083Y-107753238D01*
X120604959Y-107892310D01*
X120459969Y-108104510D01*
X120408960Y-108356400D01*
X109982000Y-108356400D01*
X109982000Y-107832163D01*
X112057443Y-107832163D01*
X112156042Y-108098965D01*
X112765582Y-108325401D01*
X113415377Y-108301341D01*
X113903958Y-108098965D01*
X114002557Y-107832163D01*
X113030000Y-106859605D01*
X112057443Y-107832163D01*
X109982000Y-107832163D01*
X109982000Y-106415582D01*
X111384599Y-106415582D01*
X111408659Y-107065377D01*
X111611035Y-107553958D01*
X111877837Y-107652557D01*
X112850395Y-106680000D01*
X113209605Y-106680000D01*
X114182163Y-107652557D01*
X114448965Y-107553958D01*
X114675401Y-106944418D01*
X114651341Y-106294623D01*
X114448965Y-105806042D01*
X114182163Y-105707443D01*
X113209605Y-106680000D01*
X112850395Y-106680000D01*
X111877837Y-105707443D01*
X111611035Y-105806042D01*
X111384599Y-106415582D01*
X109982000Y-106415582D01*
X109982000Y-105527837D01*
X112057443Y-105527837D01*
X113030000Y-106500395D01*
X114002557Y-105527837D01*
X113903958Y-105261035D01*
X113294418Y-105034599D01*
X112644623Y-105058659D01*
X112156042Y-105261035D01*
X112057443Y-105527837D01*
X109982000Y-105527837D01*
X109982000Y-93597056D01*
X120314025Y-93597056D01*
X120433164Y-93853000D01*
X121793000Y-93853000D01*
X121793000Y-92492633D01*
X122047000Y-92492633D01*
X122047000Y-93853000D01*
X123406836Y-93853000D01*
X123525975Y-93597056D01*
X123326385Y-93115182D01*
X122888379Y-92642812D01*
X122302946Y-92374017D01*
X122047000Y-92492633D01*
X121793000Y-92492633D01*
X121537054Y-92374017D01*
X120951621Y-92642812D01*
X120513615Y-93115182D01*
X120314025Y-93597056D01*
X109982000Y-93597056D01*
X109982000Y-84105750D01*
X117881400Y-84105750D01*
X117881400Y-84962309D01*
X117978073Y-85195698D01*
X118156701Y-85374327D01*
X118390090Y-85471000D01*
X119094250Y-85471000D01*
X119253000Y-85312250D01*
X119253000Y-83947000D01*
X118040150Y-83947000D01*
X117881400Y-84105750D01*
X109982000Y-84105750D01*
X109982000Y-82677691D01*
X117881400Y-82677691D01*
X117881400Y-83534250D01*
X118040150Y-83693000D01*
X119253000Y-83693000D01*
X119253000Y-82327750D01*
X119094250Y-82169000D01*
X118390090Y-82169000D01*
X118156701Y-82265673D01*
X117978073Y-82444302D01*
X117881400Y-82677691D01*
X109982000Y-82677691D01*
X109982000Y-76485750D01*
X117881400Y-76485750D01*
X117881400Y-77342309D01*
X117978073Y-77575698D01*
X118156701Y-77754327D01*
X118390090Y-77851000D01*
X119094250Y-77851000D01*
X119253000Y-77692250D01*
X119253000Y-76327000D01*
X118040150Y-76327000D01*
X117881400Y-76485750D01*
X109982000Y-76485750D01*
X109982000Y-75057691D01*
X117881400Y-75057691D01*
X117881400Y-75914250D01*
X118040150Y-76073000D01*
X119253000Y-76073000D01*
X119253000Y-74707750D01*
X119507000Y-74707750D01*
X119507000Y-76073000D01*
X119527000Y-76073000D01*
X119527000Y-76327000D01*
X119507000Y-76327000D01*
X119507000Y-77692250D01*
X119665750Y-77851000D01*
X120369910Y-77851000D01*
X120603299Y-77754327D01*
X120781927Y-77575698D01*
X120845500Y-77422220D01*
X120860330Y-77444415D01*
X121346511Y-77769271D01*
X121920000Y-77883345D01*
X122493489Y-77769271D01*
X122847036Y-77533038D01*
X125669699Y-80355701D01*
X125916260Y-80520448D01*
X125964514Y-80530046D01*
X126207100Y-80578300D01*
X128029029Y-80578300D01*
X127982330Y-80648190D01*
X127856655Y-81280000D01*
X127982330Y-81911810D01*
X128209499Y-82251792D01*
X128072559Y-82339910D01*
X127927569Y-82552110D01*
X127876560Y-82804000D01*
X127876560Y-84836000D01*
X127908280Y-85004578D01*
X126186301Y-83282599D01*
X125939739Y-83117852D01*
X125852219Y-83100443D01*
X125844526Y-83061766D01*
X125519670Y-82575585D01*
X125033489Y-82250729D01*
X124460000Y-82136655D01*
X123886511Y-82250729D01*
X123400330Y-82575585D01*
X123190000Y-82890366D01*
X122979670Y-82575585D01*
X122493489Y-82250729D01*
X121920000Y-82136655D01*
X121346511Y-82250729D01*
X120860330Y-82575585D01*
X120845500Y-82597780D01*
X120781927Y-82444302D01*
X120603299Y-82265673D01*
X120369910Y-82169000D01*
X119665750Y-82169000D01*
X119507000Y-82327750D01*
X119507000Y-83693000D01*
X119527000Y-83693000D01*
X119527000Y-83947000D01*
X119507000Y-83947000D01*
X119507000Y-85312250D01*
X119665750Y-85471000D01*
X120369910Y-85471000D01*
X120603299Y-85374327D01*
X120781927Y-85195698D01*
X120845500Y-85042220D01*
X120860330Y-85064415D01*
X121346511Y-85389271D01*
X121920000Y-85503345D01*
X122493489Y-85389271D01*
X122979670Y-85064415D01*
X123190000Y-84749634D01*
X123400330Y-85064415D01*
X123886511Y-85389271D01*
X124460000Y-85503345D01*
X125033489Y-85389271D01*
X125519670Y-85064415D01*
X125639370Y-84885272D01*
X136514098Y-95760000D01*
X123583440Y-95760000D01*
X123583440Y-95504000D01*
X123539162Y-95268683D01*
X123400090Y-95052559D01*
X123237052Y-94941160D01*
X123326385Y-94844818D01*
X123525975Y-94362944D01*
X123406836Y-94107000D01*
X122047000Y-94107000D01*
X122047000Y-94127000D01*
X121793000Y-94127000D01*
X121793000Y-94107000D01*
X120433164Y-94107000D01*
X120314025Y-94362944D01*
X120513615Y-94844818D01*
X120604097Y-94942398D01*
X120452559Y-95039910D01*
X120307569Y-95252110D01*
X120256560Y-95504000D01*
X120256560Y-97536000D01*
X120300838Y-97771317D01*
X120439910Y-97987441D01*
X120652110Y-98132431D01*
X120904000Y-98183440D01*
X122936000Y-98183440D01*
X123171317Y-98139162D01*
X123387441Y-98000090D01*
X123532431Y-97787890D01*
X123583440Y-97536000D01*
X123583440Y-97280000D01*
X132023198Y-97280000D01*
X131618200Y-97684998D01*
X131594702Y-97675241D01*
X131043715Y-97674760D01*
X130534485Y-97885169D01*
X130144539Y-98274436D01*
X129933241Y-98783298D01*
X129932760Y-99334285D01*
X130143169Y-99843515D01*
X130532436Y-100233461D01*
X131041298Y-100444759D01*
X131592285Y-100445240D01*
X132101515Y-100234831D01*
X132491461Y-99845564D01*
X132702759Y-99336702D01*
X132702761Y-99334285D01*
X134812760Y-99334285D01*
X135023169Y-99843515D01*
X135412436Y-100233461D01*
X135921298Y-100444759D01*
X136472285Y-100445240D01*
X136981515Y-100234831D01*
X137312760Y-99904162D01*
X138371878Y-100963280D01*
X138371838Y-101008767D01*
X138513883Y-101352543D01*
X138776673Y-101615792D01*
X139120201Y-101758438D01*
X139492167Y-101758762D01*
X139835943Y-101616717D01*
X140099192Y-101353927D01*
X140241838Y-101010399D01*
X140242162Y-100638433D01*
X140100117Y-100294657D01*
X139837327Y-100031408D01*
X139493799Y-99888762D01*
X139446923Y-99888721D01*
X138080801Y-98522599D01*
X137834239Y-98357852D01*
X137543400Y-98300000D01*
X137382547Y-98300000D01*
X137372831Y-98276485D01*
X136983564Y-97886539D01*
X136474702Y-97675241D01*
X135923715Y-97674760D01*
X135414485Y-97885169D01*
X135024539Y-98274436D01*
X134813241Y-98783298D01*
X134812760Y-99334285D01*
X132702761Y-99334285D01*
X132703240Y-98785715D01*
X132692670Y-98760132D01*
X133386580Y-98066222D01*
X133480301Y-98105138D01*
X133852267Y-98105462D01*
X134196043Y-97963417D01*
X134459292Y-97700627D01*
X134601938Y-97357099D01*
X134602005Y-97280000D01*
X137265398Y-97280000D01*
X138664878Y-98679480D01*
X138664838Y-98724967D01*
X138806883Y-99068743D01*
X139069673Y-99331992D01*
X139413201Y-99474638D01*
X139785167Y-99474962D01*
X140128943Y-99332917D01*
X140392192Y-99070127D01*
X140534838Y-98726599D01*
X140535162Y-98354633D01*
X140393117Y-98010857D01*
X140130327Y-97747608D01*
X139786799Y-97604962D01*
X139739923Y-97604921D01*
X139481302Y-97346300D01*
X145744581Y-97346300D01*
X145744338Y-97625067D01*
X145886383Y-97968843D01*
X146033400Y-98116117D01*
X146033400Y-98849782D01*
X145982933Y-98849738D01*
X145639157Y-98991783D01*
X145375908Y-99254573D01*
X145233262Y-99598101D01*
X145233221Y-99644977D01*
X145071278Y-99806920D01*
X145131538Y-99661799D01*
X145131862Y-99289833D01*
X144989817Y-98946057D01*
X144727027Y-98682808D01*
X144383499Y-98540162D01*
X144011533Y-98539838D01*
X143667757Y-98681883D01*
X143404508Y-98944673D01*
X143261862Y-99288201D01*
X143261821Y-99335077D01*
X137805299Y-104791599D01*
X137640552Y-105038161D01*
X137582700Y-105329000D01*
X137582700Y-105553937D01*
X137550508Y-105586073D01*
X137407862Y-105929601D01*
X137407538Y-106301567D01*
X137549583Y-106645343D01*
X137812373Y-106908592D01*
X138155901Y-107051238D01*
X138527867Y-107051562D01*
X138871643Y-106909517D01*
X139134892Y-106646727D01*
X139277538Y-106303199D01*
X139277862Y-105931233D01*
X139142608Y-105603894D01*
X144336380Y-100410122D01*
X144381867Y-100410162D01*
X144528710Y-100349488D01*
X139833499Y-105044699D01*
X139668752Y-105291261D01*
X139610900Y-105582100D01*
X139610900Y-110491300D01*
X139668752Y-110782139D01*
X139833499Y-111028701D01*
X145069699Y-116264901D01*
X145316261Y-116429648D01*
X145607100Y-116487500D01*
X152214400Y-116487500D01*
X152505239Y-116429648D01*
X152751801Y-116264901D01*
X154716702Y-114300000D01*
X173576655Y-114300000D01*
X173690729Y-114873489D01*
X174015585Y-115359670D01*
X174501766Y-115684526D01*
X175075255Y-115798600D01*
X175444745Y-115798600D01*
X176018234Y-115684526D01*
X176504415Y-115359670D01*
X176829271Y-114873489D01*
X176943345Y-114300000D01*
X176829271Y-113726511D01*
X176504415Y-113240330D01*
X176194931Y-113033539D01*
X176610732Y-112662036D01*
X176864709Y-112134791D01*
X176867358Y-112119026D01*
X176746217Y-111887000D01*
X175387000Y-111887000D01*
X175387000Y-111907000D01*
X175133000Y-111907000D01*
X175133000Y-111887000D01*
X173773783Y-111887000D01*
X173652642Y-112119026D01*
X173655291Y-112134791D01*
X173909268Y-112662036D01*
X174325069Y-113033539D01*
X174015585Y-113240330D01*
X173690729Y-113726511D01*
X173576655Y-114300000D01*
X154716702Y-114300000D01*
X160200601Y-108816101D01*
X160365348Y-108569539D01*
X160423200Y-108278700D01*
X160423200Y-107846763D01*
X160455392Y-107814627D01*
X160598038Y-107471099D01*
X160598362Y-107099133D01*
X160456317Y-106755357D01*
X160423200Y-106722182D01*
X160423200Y-105385763D01*
X160455392Y-105353627D01*
X160598038Y-105010099D01*
X160598134Y-104900000D01*
X173596560Y-104900000D01*
X173596560Y-105003600D01*
X173640838Y-105238917D01*
X173779910Y-105455041D01*
X173992110Y-105600031D01*
X174033439Y-105608400D01*
X174015585Y-105620330D01*
X173690729Y-106106511D01*
X173576655Y-106680000D01*
X173690729Y-107253489D01*
X174015585Y-107739670D01*
X174330366Y-107950000D01*
X174015585Y-108160330D01*
X173690729Y-108646511D01*
X173576655Y-109220000D01*
X173690729Y-109793489D01*
X174015585Y-110279670D01*
X174325069Y-110486461D01*
X173909268Y-110857964D01*
X173655291Y-111385209D01*
X173652642Y-111400974D01*
X173773783Y-111633000D01*
X175133000Y-111633000D01*
X175133000Y-111613000D01*
X175387000Y-111613000D01*
X175387000Y-111633000D01*
X176746217Y-111633000D01*
X176867358Y-111400974D01*
X176864709Y-111385209D01*
X176610732Y-110857964D01*
X176194931Y-110486461D01*
X176504415Y-110279670D01*
X176829271Y-109793489D01*
X176943345Y-109220000D01*
X176829271Y-108646511D01*
X176504415Y-108160330D01*
X176189634Y-107950000D01*
X176504415Y-107739670D01*
X176829271Y-107253489D01*
X176943345Y-106680000D01*
X176829271Y-106106511D01*
X176504415Y-105620330D01*
X176490087Y-105610757D01*
X176511317Y-105606762D01*
X176727441Y-105467690D01*
X176872431Y-105255490D01*
X176923440Y-105003600D01*
X176923440Y-103276400D01*
X176879162Y-103041083D01*
X176740090Y-102824959D01*
X176527890Y-102679969D01*
X176276000Y-102628960D01*
X174244000Y-102628960D01*
X174008683Y-102673238D01*
X173792559Y-102812310D01*
X173647569Y-103024510D01*
X173596560Y-103276400D01*
X173596560Y-103380000D01*
X158097400Y-103380000D01*
X157806561Y-103437852D01*
X157559999Y-103602599D01*
X150608973Y-110553625D01*
X150505000Y-110596585D01*
X150505000Y-109462002D01*
X152538790Y-107428212D01*
X152596067Y-107428262D01*
X152939843Y-107286217D01*
X153203092Y-107023427D01*
X153345738Y-106679899D01*
X153346062Y-106307933D01*
X153204017Y-105964157D01*
X153159100Y-105919162D01*
X153159100Y-86360000D01*
X173576655Y-86360000D01*
X173690729Y-86933489D01*
X174015585Y-87419670D01*
X174501766Y-87744526D01*
X175075255Y-87858600D01*
X175444745Y-87858600D01*
X176018234Y-87744526D01*
X176504415Y-87419670D01*
X176829271Y-86933489D01*
X176943345Y-86360000D01*
X176829271Y-85786511D01*
X176504415Y-85300330D01*
X176194931Y-85093539D01*
X176610732Y-84722036D01*
X176864709Y-84194791D01*
X176867358Y-84179026D01*
X176746217Y-83947000D01*
X175387000Y-83947000D01*
X175387000Y-83967000D01*
X175133000Y-83967000D01*
X175133000Y-83947000D01*
X173773783Y-83947000D01*
X173652642Y-84179026D01*
X173655291Y-84194791D01*
X173909268Y-84722036D01*
X174325069Y-85093539D01*
X174015585Y-85300330D01*
X173690729Y-85786511D01*
X173576655Y-86360000D01*
X153159100Y-86360000D01*
X153159100Y-81639026D01*
X173652642Y-81639026D01*
X173655291Y-81654791D01*
X173909268Y-82182036D01*
X174321108Y-82550000D01*
X173909268Y-82917964D01*
X173655291Y-83445209D01*
X173652642Y-83460974D01*
X173773783Y-83693000D01*
X175133000Y-83693000D01*
X175133000Y-81407000D01*
X175387000Y-81407000D01*
X175387000Y-83693000D01*
X176746217Y-83693000D01*
X176867358Y-83460974D01*
X176864709Y-83445209D01*
X176610732Y-82917964D01*
X176198892Y-82550000D01*
X176610732Y-82182036D01*
X176864709Y-81654791D01*
X176867358Y-81639026D01*
X176746217Y-81407000D01*
X175387000Y-81407000D01*
X175133000Y-81407000D01*
X173773783Y-81407000D01*
X173652642Y-81639026D01*
X153159100Y-81639026D01*
X153159100Y-79927300D01*
X153182977Y-79917434D01*
X153573084Y-79528007D01*
X153583842Y-79502100D01*
X173596560Y-79502100D01*
X173596560Y-79603600D01*
X173640838Y-79838917D01*
X173779910Y-80055041D01*
X173992110Y-80200031D01*
X174086927Y-80219232D01*
X173909268Y-80377964D01*
X173655291Y-80905209D01*
X173652642Y-80920974D01*
X173773783Y-81153000D01*
X175133000Y-81153000D01*
X175133000Y-81133000D01*
X175387000Y-81133000D01*
X175387000Y-81153000D01*
X176746217Y-81153000D01*
X176867358Y-80920974D01*
X176864709Y-80905209D01*
X176610732Y-80377964D01*
X176435155Y-80221093D01*
X176511317Y-80206762D01*
X176727441Y-80067690D01*
X176872431Y-79855490D01*
X176923440Y-79603600D01*
X176923440Y-77876400D01*
X176879162Y-77641083D01*
X176740090Y-77424959D01*
X176527890Y-77279969D01*
X176276000Y-77228960D01*
X174244000Y-77228960D01*
X174008683Y-77273238D01*
X173792559Y-77412310D01*
X173647569Y-77624510D01*
X173596560Y-77876400D01*
X173596560Y-77982100D01*
X156930360Y-77982100D01*
X157162867Y-77886030D01*
X157763940Y-77286006D01*
X158089639Y-76501635D01*
X158090380Y-75652331D01*
X157766050Y-74867393D01*
X157166026Y-74266320D01*
X156381655Y-73940621D01*
X155532351Y-73939880D01*
X154747413Y-74264210D01*
X154146340Y-74864234D01*
X153820641Y-75648605D01*
X153819900Y-76497909D01*
X154144230Y-77282847D01*
X154744254Y-77883920D01*
X154980698Y-77982100D01*
X153584295Y-77982100D01*
X153574454Y-77958283D01*
X153185027Y-77568176D01*
X152675956Y-77356791D01*
X152124742Y-77356310D01*
X151615303Y-77566806D01*
X151225196Y-77956233D01*
X151129165Y-78187501D01*
X151034454Y-77958283D01*
X150645027Y-77568176D01*
X150135956Y-77356791D01*
X149584742Y-77356310D01*
X149075303Y-77566806D01*
X148843077Y-77798627D01*
X148613027Y-77568176D01*
X148103956Y-77356791D01*
X147552742Y-77356310D01*
X147043303Y-77566806D01*
X146653196Y-77956233D01*
X146563761Y-78171616D01*
X146500071Y-78017855D01*
X146259070Y-77949795D01*
X145466745Y-78742120D01*
X146259070Y-79534445D01*
X146500071Y-79466385D01*
X146558909Y-79301080D01*
X146651826Y-79525957D01*
X147041253Y-79916064D01*
X147550324Y-80127449D01*
X148101538Y-80127930D01*
X148610977Y-79917434D01*
X148843203Y-79685613D01*
X149073253Y-79916064D01*
X149582324Y-80127449D01*
X150133538Y-80127930D01*
X150642977Y-79917434D01*
X151033084Y-79528007D01*
X151129115Y-79296739D01*
X151223826Y-79525957D01*
X151613253Y-79916064D01*
X151639100Y-79926797D01*
X151639100Y-105942417D01*
X151618708Y-105962773D01*
X151476062Y-106306301D01*
X151476031Y-106341367D01*
X149269100Y-108548298D01*
X149269100Y-106749663D01*
X149301292Y-106717527D01*
X149443938Y-106373999D01*
X149444262Y-106002033D01*
X149302217Y-105658257D01*
X149039427Y-105395008D01*
X148914781Y-105343250D01*
X149079992Y-105178327D01*
X149222638Y-104834799D01*
X149222679Y-104787923D01*
X149891801Y-104118801D01*
X150056548Y-103872240D01*
X150114400Y-103581400D01*
X150114400Y-100351363D01*
X150146592Y-100319227D01*
X150289238Y-99975699D01*
X150289562Y-99603733D01*
X150147517Y-99259957D01*
X150114400Y-99226782D01*
X150114400Y-99204400D01*
X150056548Y-98913561D01*
X149891801Y-98666999D01*
X149371323Y-98146521D01*
X149414192Y-98103727D01*
X149556838Y-97760199D01*
X149557162Y-97388233D01*
X149415117Y-97044457D01*
X149152327Y-96781208D01*
X148808799Y-96638562D01*
X148761923Y-96638521D01*
X146577201Y-94453799D01*
X146330639Y-94289052D01*
X146039800Y-94231200D01*
X139667002Y-94231200D01*
X133538475Y-88102673D01*
X133579192Y-88062027D01*
X133721838Y-87718499D01*
X133721879Y-87671623D01*
X134017901Y-87375601D01*
X134182648Y-87129039D01*
X134240500Y-86838200D01*
X134240500Y-83980663D01*
X134272692Y-83948527D01*
X134415338Y-83604999D01*
X134415662Y-83233033D01*
X134273617Y-82889257D01*
X134010827Y-82626008D01*
X133667299Y-82483362D01*
X133295333Y-82483038D01*
X132951557Y-82625083D01*
X132688308Y-82887873D01*
X132545662Y-83231401D01*
X132545338Y-83603367D01*
X132687383Y-83947143D01*
X132720500Y-83980318D01*
X132720500Y-86523398D01*
X132647320Y-86596578D01*
X132601833Y-86596538D01*
X132258057Y-86738583D01*
X132216184Y-86780382D01*
X130842213Y-85406411D01*
X131007441Y-85300090D01*
X131152431Y-85087890D01*
X131203440Y-84836000D01*
X131203440Y-82804000D01*
X131159162Y-82568683D01*
X131020090Y-82352559D01*
X130871163Y-82250802D01*
X131097670Y-81911810D01*
X131223345Y-81280000D01*
X131097670Y-80648190D01*
X131050971Y-80578300D01*
X139230698Y-80578300D01*
X147530778Y-88878380D01*
X147530738Y-88923867D01*
X147672783Y-89267643D01*
X147935573Y-89530892D01*
X148279101Y-89673538D01*
X148651067Y-89673862D01*
X148994843Y-89531817D01*
X149258092Y-89269027D01*
X149400738Y-88925499D01*
X149401062Y-88553533D01*
X149259017Y-88209757D01*
X148996227Y-87946508D01*
X148652699Y-87803862D01*
X148605823Y-87803821D01*
X148142912Y-87340910D01*
X148426543Y-87223717D01*
X148689792Y-86960927D01*
X148832438Y-86617399D01*
X148832762Y-86245433D01*
X148690717Y-85901657D01*
X148427927Y-85638408D01*
X148084399Y-85495762D01*
X148037523Y-85495721D01*
X142255852Y-79714050D01*
X144494815Y-79714050D01*
X144562875Y-79955051D01*
X145082174Y-80139887D01*
X145632678Y-80111925D01*
X146011405Y-79955051D01*
X146079465Y-79714050D01*
X145287140Y-78921725D01*
X144494815Y-79714050D01*
X142255852Y-79714050D01*
X141078956Y-78537154D01*
X143889373Y-78537154D01*
X143917335Y-79087658D01*
X144074209Y-79466385D01*
X144315210Y-79534445D01*
X145107535Y-78742120D01*
X144315210Y-77949795D01*
X144074209Y-78017855D01*
X143889373Y-78537154D01*
X141078956Y-78537154D01*
X139545801Y-77003999D01*
X139299239Y-76839252D01*
X139008400Y-76781400D01*
X134422752Y-76781400D01*
X134488601Y-76737401D01*
X134728093Y-76497909D01*
X140103900Y-76497909D01*
X140428230Y-77282847D01*
X141028254Y-77883920D01*
X141812625Y-78209619D01*
X142661929Y-78210360D01*
X143446867Y-77886030D01*
X143562909Y-77770190D01*
X144494815Y-77770190D01*
X145287140Y-78562515D01*
X146079465Y-77770190D01*
X146011405Y-77529189D01*
X145492106Y-77344353D01*
X144941602Y-77372315D01*
X144562875Y-77529189D01*
X144494815Y-77770190D01*
X143562909Y-77770190D01*
X144047940Y-77286006D01*
X144373639Y-76501635D01*
X144374380Y-75652331D01*
X144050050Y-74867393D01*
X143450026Y-74266320D01*
X142665655Y-73940621D01*
X141816351Y-73939880D01*
X141031413Y-74264210D01*
X140430340Y-74864234D01*
X140104641Y-75648605D01*
X140103900Y-76497909D01*
X134728093Y-76497909D01*
X135990485Y-75235517D01*
X136044510Y-75272431D01*
X136296400Y-75323440D01*
X138023600Y-75323440D01*
X138258917Y-75279162D01*
X138475041Y-75140090D01*
X138620031Y-74927890D01*
X138671040Y-74676000D01*
X138671040Y-73660000D01*
X159606655Y-73660000D01*
X159732330Y-74291810D01*
X160090222Y-74827433D01*
X160625845Y-75185325D01*
X161257655Y-75311000D01*
X161322345Y-75311000D01*
X161954155Y-75185325D01*
X162489778Y-74827433D01*
X162847670Y-74291810D01*
X162973345Y-73660000D01*
X162847670Y-73028190D01*
X162623034Y-72691999D01*
X162665698Y-72674327D01*
X162844327Y-72495699D01*
X162941000Y-72262310D01*
X162941000Y-71405750D01*
X162782250Y-71247000D01*
X161417000Y-71247000D01*
X161417000Y-71267000D01*
X161163000Y-71267000D01*
X161163000Y-71247000D01*
X159797750Y-71247000D01*
X159639000Y-71405750D01*
X159639000Y-72262310D01*
X159735673Y-72495699D01*
X159914302Y-72674327D01*
X159956966Y-72691999D01*
X159732330Y-73028190D01*
X159606655Y-73660000D01*
X138671040Y-73660000D01*
X138671040Y-72644000D01*
X138626762Y-72408683D01*
X138487690Y-72192559D01*
X138275490Y-72047569D01*
X138023600Y-71996560D01*
X136296400Y-71996560D01*
X136061083Y-72040838D01*
X135844959Y-72179910D01*
X135699969Y-72392110D01*
X135691600Y-72433439D01*
X135679670Y-72415585D01*
X135193489Y-72090729D01*
X134620000Y-71976655D01*
X134046511Y-72090729D01*
X133560330Y-72415585D01*
X133353539Y-72725069D01*
X132982036Y-72309268D01*
X132454791Y-72055291D01*
X132439026Y-72052642D01*
X132207000Y-72173783D01*
X132207000Y-73533000D01*
X132227000Y-73533000D01*
X132227000Y-73787000D01*
X132207000Y-73787000D01*
X132207000Y-75146217D01*
X132439026Y-75267358D01*
X132454791Y-75264709D01*
X132982036Y-75010732D01*
X133353539Y-74594931D01*
X133560330Y-74904415D01*
X133926989Y-75149409D01*
X133636398Y-75440000D01*
X128383346Y-75440000D01*
X128059670Y-74955585D01*
X127573489Y-74630729D01*
X127000000Y-74516655D01*
X126426511Y-74630729D01*
X125940330Y-74955585D01*
X125730000Y-75270366D01*
X125519670Y-74955585D01*
X125033489Y-74630729D01*
X124460000Y-74516655D01*
X123886511Y-74630729D01*
X123400330Y-74955585D01*
X123190000Y-75270366D01*
X122979670Y-74955585D01*
X122493489Y-74630729D01*
X121920000Y-74516655D01*
X121346511Y-74630729D01*
X120860330Y-74955585D01*
X120845500Y-74977780D01*
X120781927Y-74824302D01*
X120603299Y-74645673D01*
X120369910Y-74549000D01*
X119665750Y-74549000D01*
X119507000Y-74707750D01*
X119253000Y-74707750D01*
X119094250Y-74549000D01*
X118390090Y-74549000D01*
X118156701Y-74645673D01*
X117978073Y-74824302D01*
X117881400Y-75057691D01*
X109982000Y-75057691D01*
X109982000Y-74021913D01*
X130594816Y-74021913D01*
X130788046Y-74574320D01*
X131177964Y-75010732D01*
X131705209Y-75264709D01*
X131720974Y-75267358D01*
X131953000Y-75146217D01*
X131953000Y-73787000D01*
X130739076Y-73787000D01*
X130594816Y-74021913D01*
X109982000Y-74021913D01*
X109982000Y-73298087D01*
X130594816Y-73298087D01*
X130739076Y-73533000D01*
X131953000Y-73533000D01*
X131953000Y-72173783D01*
X131720974Y-72052642D01*
X131705209Y-72055291D01*
X131177964Y-72309268D01*
X130788046Y-72745680D01*
X130594816Y-73298087D01*
X109982000Y-73298087D01*
X109982000Y-70378172D01*
X110362538Y-70378172D01*
X110767709Y-71358761D01*
X111517293Y-72109655D01*
X112497173Y-72516536D01*
X113558172Y-72517462D01*
X114538761Y-72112291D01*
X115289655Y-71362707D01*
X115696536Y-70382827D01*
X115696889Y-69977690D01*
X159639000Y-69977690D01*
X159639000Y-70834250D01*
X159797750Y-70993000D01*
X161163000Y-70993000D01*
X161163000Y-69627750D01*
X161417000Y-69627750D01*
X161417000Y-70993000D01*
X162782250Y-70993000D01*
X162941000Y-70834250D01*
X162941000Y-70378172D01*
X181482538Y-70378172D01*
X181887709Y-71358761D01*
X182637293Y-72109655D01*
X183617173Y-72516536D01*
X184678172Y-72517462D01*
X185658761Y-72112291D01*
X186409655Y-71362707D01*
X186816536Y-70382827D01*
X186817462Y-69321828D01*
X186412291Y-68341239D01*
X185662707Y-67590345D01*
X184682827Y-67183464D01*
X183621828Y-67182538D01*
X182641239Y-67587709D01*
X181890345Y-68337293D01*
X181483464Y-69317173D01*
X181482538Y-70378172D01*
X162941000Y-70378172D01*
X162941000Y-69977690D01*
X162844327Y-69744301D01*
X162665698Y-69565673D01*
X162432309Y-69469000D01*
X161575750Y-69469000D01*
X161417000Y-69627750D01*
X161163000Y-69627750D01*
X161004250Y-69469000D01*
X160147691Y-69469000D01*
X159914302Y-69565673D01*
X159735673Y-69744301D01*
X159639000Y-69977690D01*
X115696889Y-69977690D01*
X115697462Y-69321828D01*
X115292291Y-68341239D01*
X114542707Y-67590345D01*
X113562827Y-67183464D01*
X112501828Y-67182538D01*
X111521239Y-67587709D01*
X110770345Y-68337293D01*
X110363464Y-69317173D01*
X110362538Y-70378172D01*
X109982000Y-70378172D01*
X109982000Y-66802000D01*
X187198000Y-66802000D01*
X187198000Y-123698000D01*
G36*
X158728038Y-105008467D02*
X158870083Y-105352243D01*
X158903200Y-105385418D01*
X158903200Y-106721837D01*
X158871008Y-106753973D01*
X158728362Y-107097501D01*
X158728038Y-107469467D01*
X158870083Y-107813243D01*
X158903200Y-107846418D01*
X158903200Y-107963898D01*
X154788814Y-112078284D01*
X154837681Y-111937336D01*
X154807906Y-111432977D01*
X154672179Y-111105303D01*
X154443133Y-111051472D01*
X153734605Y-111760000D01*
X153748748Y-111774143D01*
X153569143Y-111953748D01*
X153555000Y-111939605D01*
X153540858Y-111953748D01*
X153361253Y-111774143D01*
X153375395Y-111760000D01*
X153361253Y-111745858D01*
X153540858Y-111566253D01*
X153555000Y-111580395D01*
X154263528Y-110871867D01*
X154209697Y-110642821D01*
X153768506Y-110489859D01*
X154084443Y-110359317D01*
X154347692Y-110096527D01*
X154490338Y-109752999D01*
X154490662Y-109381033D01*
X154348617Y-109037257D01*
X154311813Y-109000389D01*
X158412202Y-104900000D01*
X158728132Y-104900000D01*
X158728038Y-105008467D01*
X158728038Y-105008467D01*
G37*
X158728038Y-105008467D02*
X158870083Y-105352243D01*
X158903200Y-105385418D01*
X158903200Y-106721837D01*
X158871008Y-106753973D01*
X158728362Y-107097501D01*
X158728038Y-107469467D01*
X158870083Y-107813243D01*
X158903200Y-107846418D01*
X158903200Y-107963898D01*
X154788814Y-112078284D01*
X154837681Y-111937336D01*
X154807906Y-111432977D01*
X154672179Y-111105303D01*
X154443133Y-111051472D01*
X153734605Y-111760000D01*
X153748748Y-111774143D01*
X153569143Y-111953748D01*
X153555000Y-111939605D01*
X153540858Y-111953748D01*
X153361253Y-111774143D01*
X153375395Y-111760000D01*
X153361253Y-111745858D01*
X153540858Y-111566253D01*
X153555000Y-111580395D01*
X154263528Y-110871867D01*
X154209697Y-110642821D01*
X153768506Y-110489859D01*
X154084443Y-110359317D01*
X154347692Y-110096527D01*
X154490338Y-109752999D01*
X154490662Y-109381033D01*
X154348617Y-109037257D01*
X154311813Y-109000389D01*
X158412202Y-104900000D01*
X158728132Y-104900000D01*
X158728038Y-105008467D01*
M02*
