%TF.GenerationSoftware,KiCad,Pcbnew,4.0.2+dfsg1-stable*%
%TF.CreationDate,2018-12-23T00:35:13+01:00*%
%TF.ProjectId,StandAlone-Adapter,5374616E64416C6F6E652D4164617074,rev?*%
%TF.FileFunction,Legend,Bot*%
%FSLAX46Y46*%
G04 Gerber Fmt 4.6, Leading zero omitted, Abs format (unit mm)*
G04 Created by KiCad (PCBNEW 4.0.2+dfsg1-stable) date Sun 23 Dec 2018 00:35:13 CET*
%MOMM*%
G01*
G04 APERTURE LIST*
%ADD10C,0.100000*%
%ADD11C,0.300000*%
%ADD12C,0.010000*%
G04 APERTURE END LIST*
D10*
D11*
X150174286Y-102548571D02*
X150174286Y-104048571D01*
X150174286Y-102620000D02*
X150317143Y-102548571D01*
X150602857Y-102548571D01*
X150745714Y-102620000D01*
X150817143Y-102691429D01*
X150888572Y-102834286D01*
X150888572Y-103262857D01*
X150817143Y-103405714D01*
X150745714Y-103477143D01*
X150602857Y-103548571D01*
X150317143Y-103548571D01*
X150174286Y-103477143D01*
X151745715Y-103548571D02*
X151602857Y-103477143D01*
X151531429Y-103405714D01*
X151460000Y-103262857D01*
X151460000Y-102834286D01*
X151531429Y-102691429D01*
X151602857Y-102620000D01*
X151745715Y-102548571D01*
X151960000Y-102548571D01*
X152102857Y-102620000D01*
X152174286Y-102691429D01*
X152245715Y-102834286D01*
X152245715Y-103262857D01*
X152174286Y-103405714D01*
X152102857Y-103477143D01*
X151960000Y-103548571D01*
X151745715Y-103548571D01*
X152745715Y-102548571D02*
X153031429Y-103548571D01*
X153317143Y-102834286D01*
X153602858Y-103548571D01*
X153888572Y-102548571D01*
X155031429Y-103477143D02*
X154888572Y-103548571D01*
X154602858Y-103548571D01*
X154460001Y-103477143D01*
X154388572Y-103334286D01*
X154388572Y-102762857D01*
X154460001Y-102620000D01*
X154602858Y-102548571D01*
X154888572Y-102548571D01*
X155031429Y-102620000D01*
X155102858Y-102762857D01*
X155102858Y-102905714D01*
X154388572Y-103048571D01*
X155745715Y-103548571D02*
X155745715Y-102548571D01*
X155745715Y-102834286D02*
X155817143Y-102691429D01*
X155888572Y-102620000D01*
X156031429Y-102548571D01*
X156174286Y-102548571D01*
X157245714Y-103477143D02*
X157102857Y-103548571D01*
X156817143Y-103548571D01*
X156674286Y-103477143D01*
X156602857Y-103334286D01*
X156602857Y-102762857D01*
X156674286Y-102620000D01*
X156817143Y-102548571D01*
X157102857Y-102548571D01*
X157245714Y-102620000D01*
X157317143Y-102762857D01*
X157317143Y-102905714D01*
X156602857Y-103048571D01*
X158602857Y-103548571D02*
X158602857Y-102048571D01*
X158602857Y-103477143D02*
X158460000Y-103548571D01*
X158174286Y-103548571D01*
X158031428Y-103477143D01*
X157960000Y-103405714D01*
X157888571Y-103262857D01*
X157888571Y-102834286D01*
X157960000Y-102691429D01*
X158031428Y-102620000D01*
X158174286Y-102548571D01*
X158460000Y-102548571D01*
X158602857Y-102620000D01*
X160460000Y-103548571D02*
X160460000Y-102048571D01*
X160460000Y-102620000D02*
X160602857Y-102548571D01*
X160888571Y-102548571D01*
X161031428Y-102620000D01*
X161102857Y-102691429D01*
X161174286Y-102834286D01*
X161174286Y-103262857D01*
X161102857Y-103405714D01*
X161031428Y-103477143D01*
X160888571Y-103548571D01*
X160602857Y-103548571D01*
X160460000Y-103477143D01*
X161674286Y-102548571D02*
X162031429Y-103548571D01*
X162388571Y-102548571D02*
X162031429Y-103548571D01*
X161888571Y-103905714D01*
X161817143Y-103977143D01*
X161674286Y-104048571D01*
X197441429Y-99030000D02*
X198441429Y-99030000D01*
X198941429Y-99030000D02*
X198870000Y-98958571D01*
X198798571Y-99030000D01*
X198870000Y-99101428D01*
X198941429Y-99030000D01*
X198798571Y-99030000D01*
X198441429Y-99744286D02*
X197441429Y-99744286D01*
X198298571Y-99744286D02*
X198370000Y-99815714D01*
X198441429Y-99958572D01*
X198441429Y-100172857D01*
X198370000Y-100315714D01*
X198227143Y-100387143D01*
X197441429Y-100387143D01*
X197441429Y-102244286D02*
X198441429Y-102244286D01*
X198298571Y-102244286D02*
X198370000Y-102315714D01*
X198441429Y-102458572D01*
X198441429Y-102672857D01*
X198370000Y-102815714D01*
X198227143Y-102887143D01*
X197441429Y-102887143D01*
X198227143Y-102887143D02*
X198370000Y-102958572D01*
X198441429Y-103101429D01*
X198441429Y-103315714D01*
X198370000Y-103458572D01*
X198227143Y-103530000D01*
X197441429Y-103530000D01*
X197512857Y-104815714D02*
X197441429Y-104672857D01*
X197441429Y-104387143D01*
X197512857Y-104244286D01*
X197655714Y-104172857D01*
X198227143Y-104172857D01*
X198370000Y-104244286D01*
X198441429Y-104387143D01*
X198441429Y-104672857D01*
X198370000Y-104815714D01*
X198227143Y-104887143D01*
X198084286Y-104887143D01*
X197941429Y-104172857D01*
X197441429Y-105530000D02*
X198441429Y-105530000D01*
X198298571Y-105530000D02*
X198370000Y-105601428D01*
X198441429Y-105744286D01*
X198441429Y-105958571D01*
X198370000Y-106101428D01*
X198227143Y-106172857D01*
X197441429Y-106172857D01*
X198227143Y-106172857D02*
X198370000Y-106244286D01*
X198441429Y-106387143D01*
X198441429Y-106601428D01*
X198370000Y-106744286D01*
X198227143Y-106815714D01*
X197441429Y-106815714D01*
X197441429Y-107744286D02*
X197512857Y-107601428D01*
X197584286Y-107530000D01*
X197727143Y-107458571D01*
X198155714Y-107458571D01*
X198298571Y-107530000D01*
X198370000Y-107601428D01*
X198441429Y-107744286D01*
X198441429Y-107958571D01*
X198370000Y-108101428D01*
X198298571Y-108172857D01*
X198155714Y-108244286D01*
X197727143Y-108244286D01*
X197584286Y-108172857D01*
X197512857Y-108101428D01*
X197441429Y-107958571D01*
X197441429Y-107744286D01*
X197441429Y-108887143D02*
X198441429Y-108887143D01*
X198155714Y-108887143D02*
X198298571Y-108958571D01*
X198370000Y-109030000D01*
X198441429Y-109172857D01*
X198441429Y-109315714D01*
X197441429Y-109815714D02*
X198441429Y-109815714D01*
X198941429Y-109815714D02*
X198870000Y-109744285D01*
X198798571Y-109815714D01*
X198870000Y-109887142D01*
X198941429Y-109815714D01*
X198798571Y-109815714D01*
X197441429Y-111172857D02*
X198227143Y-111172857D01*
X198370000Y-111101428D01*
X198441429Y-110958571D01*
X198441429Y-110672857D01*
X198370000Y-110530000D01*
X197512857Y-111172857D02*
X197441429Y-111030000D01*
X197441429Y-110672857D01*
X197512857Y-110530000D01*
X197655714Y-110458571D01*
X197798571Y-110458571D01*
X197941429Y-110530000D01*
X198012857Y-110672857D01*
X198012857Y-111030000D01*
X198084286Y-111172857D01*
X197441429Y-111887143D02*
X198441429Y-111887143D01*
X198298571Y-111887143D02*
X198370000Y-111958571D01*
X198441429Y-112101429D01*
X198441429Y-112315714D01*
X198370000Y-112458571D01*
X198227143Y-112530000D01*
X197441429Y-112530000D01*
X198227143Y-112530000D02*
X198370000Y-112601429D01*
X198441429Y-112744286D01*
X198441429Y-112958571D01*
X198370000Y-113101429D01*
X198227143Y-113172857D01*
X197441429Y-113172857D01*
X197870000Y-114958571D02*
X197870000Y-115672857D01*
X197441429Y-114815714D02*
X198941429Y-115315714D01*
X197441429Y-115815714D01*
X197584286Y-116315714D02*
X197512857Y-116387142D01*
X197441429Y-116315714D01*
X197512857Y-116244285D01*
X197584286Y-116315714D01*
X197441429Y-116315714D01*
X197512857Y-116958571D02*
X197441429Y-117172857D01*
X197441429Y-117530000D01*
X197512857Y-117672857D01*
X197584286Y-117744286D01*
X197727143Y-117815714D01*
X197870000Y-117815714D01*
X198012857Y-117744286D01*
X198084286Y-117672857D01*
X198155714Y-117530000D01*
X198227143Y-117244286D01*
X198298571Y-117101428D01*
X198370000Y-117030000D01*
X198512857Y-116958571D01*
X198655714Y-116958571D01*
X198798571Y-117030000D01*
X198870000Y-117101428D01*
X198941429Y-117244286D01*
X198941429Y-117601428D01*
X198870000Y-117815714D01*
X197584286Y-118458571D02*
X197512857Y-118529999D01*
X197441429Y-118458571D01*
X197512857Y-118387142D01*
X197584286Y-118458571D01*
X197441429Y-118458571D01*
X198012857Y-120315714D02*
X198012857Y-121458571D01*
X198870000Y-124101428D02*
X198941429Y-123958571D01*
X198941429Y-123744285D01*
X198870000Y-123530000D01*
X198727143Y-123387142D01*
X198584286Y-123315714D01*
X198298571Y-123244285D01*
X198084286Y-123244285D01*
X197798571Y-123315714D01*
X197655714Y-123387142D01*
X197512857Y-123530000D01*
X197441429Y-123744285D01*
X197441429Y-123887142D01*
X197512857Y-124101428D01*
X197584286Y-124172857D01*
X198084286Y-124172857D01*
X198084286Y-123887142D01*
X197584286Y-124815714D02*
X197512857Y-124887142D01*
X197441429Y-124815714D01*
X197512857Y-124744285D01*
X197584286Y-124815714D01*
X197441429Y-124815714D01*
X197441429Y-125530000D02*
X198941429Y-125530000D01*
X198941429Y-125887143D01*
X198870000Y-126101428D01*
X198727143Y-126244286D01*
X198584286Y-126315714D01*
X198298571Y-126387143D01*
X198084286Y-126387143D01*
X197798571Y-126315714D01*
X197655714Y-126244286D01*
X197512857Y-126101428D01*
X197441429Y-125887143D01*
X197441429Y-125530000D01*
X197584286Y-127030000D02*
X197512857Y-127101428D01*
X197441429Y-127030000D01*
X197512857Y-126958571D01*
X197584286Y-127030000D01*
X197441429Y-127030000D01*
D12*
G36*
X169408444Y-104662284D02*
X168862834Y-104750311D01*
X168399140Y-104910106D01*
X168333218Y-104943859D01*
X167798229Y-105321184D01*
X167317745Y-105828116D01*
X166926807Y-106426053D01*
X166851328Y-106576424D01*
X166736104Y-106829285D01*
X166659412Y-107039674D01*
X166613444Y-107253505D01*
X166590389Y-107516688D01*
X166582437Y-107875135D01*
X166581667Y-108161666D01*
X166584959Y-108608607D01*
X166599310Y-108930638D01*
X166631430Y-109172126D01*
X166688031Y-109377438D01*
X166775824Y-109590941D01*
X166808578Y-109661796D01*
X167140491Y-110210582D01*
X167583706Y-110712998D01*
X168088782Y-111115895D01*
X168251795Y-111213158D01*
X168492523Y-111333303D01*
X168717206Y-111409389D01*
X168980958Y-111453294D01*
X169338895Y-111476896D01*
X169502667Y-111482749D01*
X170045565Y-111480960D01*
X170447627Y-111438119D01*
X170613300Y-111393853D01*
X171196698Y-111099196D01*
X171658780Y-110702774D01*
X171988246Y-110219752D01*
X172173792Y-109665292D01*
X172212000Y-109248877D01*
X172212000Y-108966000D01*
X170984333Y-108966000D01*
X170496702Y-108968417D01*
X170154465Y-108977317D01*
X169933732Y-108995172D01*
X169810612Y-109024452D01*
X169761213Y-109067629D01*
X169756667Y-109093000D01*
X169795680Y-109166743D01*
X169933981Y-109206335D01*
X170203459Y-109219749D01*
X170264667Y-109220000D01*
X170772667Y-109220000D01*
X170772535Y-109833833D01*
X170727242Y-110388387D01*
X170592356Y-110804332D01*
X170368968Y-111078855D01*
X170264667Y-111143740D01*
X170064955Y-111201645D01*
X169770619Y-111240585D01*
X169536354Y-111250751D01*
X169056351Y-111197205D01*
X168678382Y-111021784D01*
X168371310Y-110706241D01*
X168232667Y-110486723D01*
X168161107Y-110351952D01*
X168107245Y-110220494D01*
X168068055Y-110065758D01*
X168040512Y-109861157D01*
X168021593Y-109580101D01*
X168008272Y-109196002D01*
X167997524Y-108682271D01*
X167992251Y-108373333D01*
X167985025Y-107637259D01*
X167992643Y-107047543D01*
X168018463Y-106581603D01*
X168065840Y-106216855D01*
X168138133Y-105930713D01*
X168238698Y-105700594D01*
X168370892Y-105503914D01*
X168429108Y-105434394D01*
X168776987Y-105127676D01*
X169180344Y-104955901D01*
X169679382Y-104902002D01*
X169683009Y-104901999D01*
X170188894Y-104979609D01*
X170625516Y-105209498D01*
X170987813Y-105587254D01*
X171270724Y-106108464D01*
X171364095Y-106367319D01*
X171454132Y-106582240D01*
X171559549Y-106663492D01*
X171636871Y-106663653D01*
X171725411Y-106633503D01*
X171776167Y-106551929D01*
X171798787Y-106381669D01*
X171802915Y-106085462D01*
X171802504Y-106023833D01*
X171799508Y-105713264D01*
X171796229Y-105470064D01*
X171793337Y-105343062D01*
X171793123Y-105339071D01*
X171716562Y-105258573D01*
X171521625Y-105142005D01*
X171249888Y-105008883D01*
X170942924Y-104878724D01*
X170642307Y-104771045D01*
X170489760Y-104727215D01*
X169972057Y-104652445D01*
X169408444Y-104662284D01*
X169408444Y-104662284D01*
G37*
X169408444Y-104662284D02*
X168862834Y-104750311D01*
X168399140Y-104910106D01*
X168333218Y-104943859D01*
X167798229Y-105321184D01*
X167317745Y-105828116D01*
X166926807Y-106426053D01*
X166851328Y-106576424D01*
X166736104Y-106829285D01*
X166659412Y-107039674D01*
X166613444Y-107253505D01*
X166590389Y-107516688D01*
X166582437Y-107875135D01*
X166581667Y-108161666D01*
X166584959Y-108608607D01*
X166599310Y-108930638D01*
X166631430Y-109172126D01*
X166688031Y-109377438D01*
X166775824Y-109590941D01*
X166808578Y-109661796D01*
X167140491Y-110210582D01*
X167583706Y-110712998D01*
X168088782Y-111115895D01*
X168251795Y-111213158D01*
X168492523Y-111333303D01*
X168717206Y-111409389D01*
X168980958Y-111453294D01*
X169338895Y-111476896D01*
X169502667Y-111482749D01*
X170045565Y-111480960D01*
X170447627Y-111438119D01*
X170613300Y-111393853D01*
X171196698Y-111099196D01*
X171658780Y-110702774D01*
X171988246Y-110219752D01*
X172173792Y-109665292D01*
X172212000Y-109248877D01*
X172212000Y-108966000D01*
X170984333Y-108966000D01*
X170496702Y-108968417D01*
X170154465Y-108977317D01*
X169933732Y-108995172D01*
X169810612Y-109024452D01*
X169761213Y-109067629D01*
X169756667Y-109093000D01*
X169795680Y-109166743D01*
X169933981Y-109206335D01*
X170203459Y-109219749D01*
X170264667Y-109220000D01*
X170772667Y-109220000D01*
X170772535Y-109833833D01*
X170727242Y-110388387D01*
X170592356Y-110804332D01*
X170368968Y-111078855D01*
X170264667Y-111143740D01*
X170064955Y-111201645D01*
X169770619Y-111240585D01*
X169536354Y-111250751D01*
X169056351Y-111197205D01*
X168678382Y-111021784D01*
X168371310Y-110706241D01*
X168232667Y-110486723D01*
X168161107Y-110351952D01*
X168107245Y-110220494D01*
X168068055Y-110065758D01*
X168040512Y-109861157D01*
X168021593Y-109580101D01*
X168008272Y-109196002D01*
X167997524Y-108682271D01*
X167992251Y-108373333D01*
X167985025Y-107637259D01*
X167992643Y-107047543D01*
X168018463Y-106581603D01*
X168065840Y-106216855D01*
X168138133Y-105930713D01*
X168238698Y-105700594D01*
X168370892Y-105503914D01*
X168429108Y-105434394D01*
X168776987Y-105127676D01*
X169180344Y-104955901D01*
X169679382Y-104902002D01*
X169683009Y-104901999D01*
X170188894Y-104979609D01*
X170625516Y-105209498D01*
X170987813Y-105587254D01*
X171270724Y-106108464D01*
X171364095Y-106367319D01*
X171454132Y-106582240D01*
X171559549Y-106663492D01*
X171636871Y-106663653D01*
X171725411Y-106633503D01*
X171776167Y-106551929D01*
X171798787Y-106381669D01*
X171802915Y-106085462D01*
X171802504Y-106023833D01*
X171799508Y-105713264D01*
X171796229Y-105470064D01*
X171793337Y-105343062D01*
X171793123Y-105339071D01*
X171716562Y-105258573D01*
X171521625Y-105142005D01*
X171249888Y-105008883D01*
X170942924Y-104878724D01*
X170642307Y-104771045D01*
X170489760Y-104727215D01*
X169972057Y-104652445D01*
X169408444Y-104662284D01*
G36*
X175020729Y-104694869D02*
X174957070Y-104780047D01*
X174874969Y-104933281D01*
X174769064Y-105167629D01*
X174633989Y-105496147D01*
X174464381Y-105931892D01*
X174254875Y-106487923D01*
X174000107Y-107177295D01*
X173694713Y-108013067D01*
X173686850Y-108034666D01*
X173427447Y-108747695D01*
X173186847Y-109409763D01*
X172971051Y-110004305D01*
X172786059Y-110514756D01*
X172637871Y-110924552D01*
X172532488Y-111217129D01*
X172475909Y-111375921D01*
X172467762Y-111400166D01*
X172536447Y-111417938D01*
X172614167Y-111420902D01*
X172693990Y-111380274D01*
X172785501Y-111245292D01*
X172898816Y-110995635D01*
X173044050Y-110610983D01*
X173109406Y-110426069D01*
X173456479Y-109431666D01*
X175620935Y-109431666D01*
X175969217Y-110426500D01*
X176317498Y-111421333D01*
X177270416Y-111421333D01*
X177695644Y-111417514D01*
X177977408Y-111403859D01*
X178141455Y-111377068D01*
X178213527Y-111333841D01*
X178223333Y-111299201D01*
X178147228Y-111205479D01*
X177914327Y-111154759D01*
X177870294Y-111151034D01*
X177682683Y-111131378D01*
X177562631Y-111082222D01*
X177475239Y-110966737D01*
X177385608Y-110748091D01*
X177324169Y-110574666D01*
X177247885Y-110356747D01*
X177124548Y-110003810D01*
X176962842Y-109540734D01*
X176799179Y-109071833D01*
X175434801Y-109071833D01*
X175353563Y-109097508D01*
X175137665Y-109118206D01*
X174821760Y-109131548D01*
X174509305Y-109135333D01*
X173589276Y-109135333D01*
X174064805Y-107823310D01*
X174225709Y-107386239D01*
X174368525Y-107011233D01*
X174482862Y-106724553D01*
X174558332Y-106552462D01*
X174582667Y-106514241D01*
X174620577Y-106590465D01*
X174698310Y-106795019D01*
X174804812Y-107094725D01*
X174929028Y-107456404D01*
X175059904Y-107846876D01*
X175186386Y-108232964D01*
X175297418Y-108581488D01*
X175381947Y-108859269D01*
X175428918Y-109033129D01*
X175434801Y-109071833D01*
X176799179Y-109071833D01*
X176771453Y-108992399D01*
X176559066Y-108383682D01*
X176334364Y-107739465D01*
X176245395Y-107484333D01*
X176026275Y-106856586D01*
X175823067Y-106275664D01*
X175642992Y-105762113D01*
X175493270Y-105336480D01*
X175381123Y-105019310D01*
X175313771Y-104831151D01*
X175299078Y-104791690D01*
X175173317Y-104672866D01*
X175071312Y-104664690D01*
X175020729Y-104694869D01*
X175020729Y-104694869D01*
G37*
X175020729Y-104694869D02*
X174957070Y-104780047D01*
X174874969Y-104933281D01*
X174769064Y-105167629D01*
X174633989Y-105496147D01*
X174464381Y-105931892D01*
X174254875Y-106487923D01*
X174000107Y-107177295D01*
X173694713Y-108013067D01*
X173686850Y-108034666D01*
X173427447Y-108747695D01*
X173186847Y-109409763D01*
X172971051Y-110004305D01*
X172786059Y-110514756D01*
X172637871Y-110924552D01*
X172532488Y-111217129D01*
X172475909Y-111375921D01*
X172467762Y-111400166D01*
X172536447Y-111417938D01*
X172614167Y-111420902D01*
X172693990Y-111380274D01*
X172785501Y-111245292D01*
X172898816Y-110995635D01*
X173044050Y-110610983D01*
X173109406Y-110426069D01*
X173456479Y-109431666D01*
X175620935Y-109431666D01*
X175969217Y-110426500D01*
X176317498Y-111421333D01*
X177270416Y-111421333D01*
X177695644Y-111417514D01*
X177977408Y-111403859D01*
X178141455Y-111377068D01*
X178213527Y-111333841D01*
X178223333Y-111299201D01*
X178147228Y-111205479D01*
X177914327Y-111154759D01*
X177870294Y-111151034D01*
X177682683Y-111131378D01*
X177562631Y-111082222D01*
X177475239Y-110966737D01*
X177385608Y-110748091D01*
X177324169Y-110574666D01*
X177247885Y-110356747D01*
X177124548Y-110003810D01*
X176962842Y-109540734D01*
X176799179Y-109071833D01*
X175434801Y-109071833D01*
X175353563Y-109097508D01*
X175137665Y-109118206D01*
X174821760Y-109131548D01*
X174509305Y-109135333D01*
X173589276Y-109135333D01*
X174064805Y-107823310D01*
X174225709Y-107386239D01*
X174368525Y-107011233D01*
X174482862Y-106724553D01*
X174558332Y-106552462D01*
X174582667Y-106514241D01*
X174620577Y-106590465D01*
X174698310Y-106795019D01*
X174804812Y-107094725D01*
X174929028Y-107456404D01*
X175059904Y-107846876D01*
X175186386Y-108232964D01*
X175297418Y-108581488D01*
X175381947Y-108859269D01*
X175428918Y-109033129D01*
X175434801Y-109071833D01*
X176799179Y-109071833D01*
X176771453Y-108992399D01*
X176559066Y-108383682D01*
X176334364Y-107739465D01*
X176245395Y-107484333D01*
X176026275Y-106856586D01*
X175823067Y-106275664D01*
X175642992Y-105762113D01*
X175493270Y-105336480D01*
X175381123Y-105019310D01*
X175313771Y-104831151D01*
X175299078Y-104791690D01*
X175173317Y-104672866D01*
X175071312Y-104664690D01*
X175020729Y-104694869D01*
G36*
X163725197Y-107971166D02*
X163703000Y-111125000D01*
X163258500Y-111150591D01*
X162975095Y-111182795D01*
X162836875Y-111242637D01*
X162814000Y-111298757D01*
X162838004Y-111342729D01*
X162924003Y-111375093D01*
X163092976Y-111397491D01*
X163365902Y-111411566D01*
X163763760Y-111418959D01*
X164307531Y-111421311D01*
X164380333Y-111421333D01*
X164942086Y-111419462D01*
X165355537Y-111412752D01*
X165641688Y-111399556D01*
X165821541Y-111378229D01*
X165916097Y-111347124D01*
X165946359Y-111304594D01*
X165946667Y-111298558D01*
X165894370Y-111221046D01*
X165720485Y-111173290D01*
X165459833Y-111150391D01*
X164973000Y-111125000D01*
X164950764Y-108098166D01*
X164928528Y-105071333D01*
X165437597Y-105071333D01*
X165732922Y-105061616D01*
X165891631Y-105027161D01*
X165945611Y-104960015D01*
X165946667Y-104944333D01*
X165922127Y-104891418D01*
X165831801Y-104855159D01*
X165650633Y-104832661D01*
X165353565Y-104821031D01*
X164915539Y-104817374D01*
X164847031Y-104817333D01*
X163747394Y-104817333D01*
X163725197Y-107971166D01*
X163725197Y-107971166D01*
G37*
X163725197Y-107971166D02*
X163703000Y-111125000D01*
X163258500Y-111150591D01*
X162975095Y-111182795D01*
X162836875Y-111242637D01*
X162814000Y-111298757D01*
X162838004Y-111342729D01*
X162924003Y-111375093D01*
X163092976Y-111397491D01*
X163365902Y-111411566D01*
X163763760Y-111418959D01*
X164307531Y-111421311D01*
X164380333Y-111421333D01*
X164942086Y-111419462D01*
X165355537Y-111412752D01*
X165641688Y-111399556D01*
X165821541Y-111378229D01*
X165916097Y-111347124D01*
X165946359Y-111304594D01*
X165946667Y-111298558D01*
X165894370Y-111221046D01*
X165720485Y-111173290D01*
X165459833Y-111150391D01*
X164973000Y-111125000D01*
X164950764Y-108098166D01*
X164928528Y-105071333D01*
X165437597Y-105071333D01*
X165732922Y-105061616D01*
X165891631Y-105027161D01*
X165945611Y-104960015D01*
X165946667Y-104944333D01*
X165922127Y-104891418D01*
X165831801Y-104855159D01*
X165650633Y-104832661D01*
X165353565Y-104821031D01*
X164915539Y-104817374D01*
X164847031Y-104817333D01*
X163747394Y-104817333D01*
X163725197Y-107971166D01*
G36*
X160680052Y-104835322D02*
X159900770Y-104859666D01*
X159219552Y-106951004D01*
X159034332Y-107515674D01*
X158864416Y-108026184D01*
X158717266Y-108460709D01*
X158600347Y-108797427D01*
X158521121Y-109014514D01*
X158488159Y-109089622D01*
X158451152Y-109024925D01*
X158372278Y-108818492D01*
X158258439Y-108490745D01*
X158116538Y-108062106D01*
X157953479Y-107552998D01*
X157776164Y-106983843D01*
X157774097Y-106977118D01*
X157110209Y-104817333D01*
X155806382Y-104817333D01*
X155288763Y-104820462D01*
X154921696Y-104830890D01*
X154686498Y-104850174D01*
X154564484Y-104879872D01*
X154536971Y-104921543D01*
X154537467Y-104923166D01*
X154640751Y-104991244D01*
X154877397Y-105039517D01*
X155052523Y-105054391D01*
X155532667Y-105079783D01*
X155532667Y-108250558D01*
X155532892Y-109066128D01*
X155534138Y-109728332D01*
X155537255Y-110253137D01*
X155543098Y-110656512D01*
X155552519Y-110954423D01*
X155566370Y-111162838D01*
X155585504Y-111297725D01*
X155610775Y-111375051D01*
X155643034Y-111410783D01*
X155683135Y-111420889D01*
X155702000Y-111421333D01*
X155746488Y-111416904D01*
X155782459Y-111392725D01*
X155810861Y-111332453D01*
X155832645Y-111219748D01*
X155848759Y-111038268D01*
X155860152Y-110771672D01*
X155867773Y-110403620D01*
X155872571Y-109917769D01*
X155875495Y-109297780D01*
X155877494Y-108527310D01*
X155877779Y-108394500D01*
X155884225Y-105367666D01*
X156378963Y-106891666D01*
X156582993Y-107521993D01*
X156814155Y-108239110D01*
X157049460Y-108971525D01*
X157265921Y-109647744D01*
X157353833Y-109923386D01*
X157524733Y-110454666D01*
X157655759Y-110844609D01*
X157756076Y-111113954D01*
X157834849Y-111283442D01*
X157901243Y-111373812D01*
X157964422Y-111405805D01*
X158008559Y-111405052D01*
X158060049Y-111380361D01*
X158117564Y-111311479D01*
X158186648Y-111183664D01*
X158272840Y-110982175D01*
X158381685Y-110692270D01*
X158518724Y-110299207D01*
X158689499Y-109788245D01*
X158899553Y-109144643D01*
X159146761Y-108377538D01*
X159365719Y-107697692D01*
X159569320Y-107069686D01*
X159751621Y-106511536D01*
X159906681Y-106041257D01*
X160028556Y-105676862D01*
X160111306Y-105436366D01*
X160148986Y-105337785D01*
X160149851Y-105336593D01*
X160158878Y-105408862D01*
X160167180Y-105631938D01*
X160174515Y-105987295D01*
X160180639Y-106456407D01*
X160185312Y-107020750D01*
X160188290Y-107661797D01*
X160189333Y-108359222D01*
X160189333Y-111421333D01*
X161290000Y-111421333D01*
X161748407Y-111418502D01*
X162062592Y-111408085D01*
X162257605Y-111387190D01*
X162358491Y-111352927D01*
X162390299Y-111302406D01*
X162390667Y-111294333D01*
X162348860Y-111217744D01*
X162202164Y-111178313D01*
X161925000Y-111167333D01*
X161459333Y-111167333D01*
X161459333Y-104810978D01*
X160680052Y-104835322D01*
X160680052Y-104835322D01*
G37*
X160680052Y-104835322D02*
X159900770Y-104859666D01*
X159219552Y-106951004D01*
X159034332Y-107515674D01*
X158864416Y-108026184D01*
X158717266Y-108460709D01*
X158600347Y-108797427D01*
X158521121Y-109014514D01*
X158488159Y-109089622D01*
X158451152Y-109024925D01*
X158372278Y-108818492D01*
X158258439Y-108490745D01*
X158116538Y-108062106D01*
X157953479Y-107552998D01*
X157776164Y-106983843D01*
X157774097Y-106977118D01*
X157110209Y-104817333D01*
X155806382Y-104817333D01*
X155288763Y-104820462D01*
X154921696Y-104830890D01*
X154686498Y-104850174D01*
X154564484Y-104879872D01*
X154536971Y-104921543D01*
X154537467Y-104923166D01*
X154640751Y-104991244D01*
X154877397Y-105039517D01*
X155052523Y-105054391D01*
X155532667Y-105079783D01*
X155532667Y-108250558D01*
X155532892Y-109066128D01*
X155534138Y-109728332D01*
X155537255Y-110253137D01*
X155543098Y-110656512D01*
X155552519Y-110954423D01*
X155566370Y-111162838D01*
X155585504Y-111297725D01*
X155610775Y-111375051D01*
X155643034Y-111410783D01*
X155683135Y-111420889D01*
X155702000Y-111421333D01*
X155746488Y-111416904D01*
X155782459Y-111392725D01*
X155810861Y-111332453D01*
X155832645Y-111219748D01*
X155848759Y-111038268D01*
X155860152Y-110771672D01*
X155867773Y-110403620D01*
X155872571Y-109917769D01*
X155875495Y-109297780D01*
X155877494Y-108527310D01*
X155877779Y-108394500D01*
X155884225Y-105367666D01*
X156378963Y-106891666D01*
X156582993Y-107521993D01*
X156814155Y-108239110D01*
X157049460Y-108971525D01*
X157265921Y-109647744D01*
X157353833Y-109923386D01*
X157524733Y-110454666D01*
X157655759Y-110844609D01*
X157756076Y-111113954D01*
X157834849Y-111283442D01*
X157901243Y-111373812D01*
X157964422Y-111405805D01*
X158008559Y-111405052D01*
X158060049Y-111380361D01*
X158117564Y-111311479D01*
X158186648Y-111183664D01*
X158272840Y-110982175D01*
X158381685Y-110692270D01*
X158518724Y-110299207D01*
X158689499Y-109788245D01*
X158899553Y-109144643D01*
X159146761Y-108377538D01*
X159365719Y-107697692D01*
X159569320Y-107069686D01*
X159751621Y-106511536D01*
X159906681Y-106041257D01*
X160028556Y-105676862D01*
X160111306Y-105436366D01*
X160148986Y-105337785D01*
X160149851Y-105336593D01*
X160158878Y-105408862D01*
X160167180Y-105631938D01*
X160174515Y-105987295D01*
X160180639Y-106456407D01*
X160185312Y-107020750D01*
X160188290Y-107661797D01*
X160189333Y-108359222D01*
X160189333Y-111421333D01*
X161290000Y-111421333D01*
X161748407Y-111418502D01*
X162062592Y-111408085D01*
X162257605Y-111387190D01*
X162358491Y-111352927D01*
X162390299Y-111302406D01*
X162390667Y-111294333D01*
X162348860Y-111217744D01*
X162202164Y-111178313D01*
X161925000Y-111167333D01*
X161459333Y-111167333D01*
X161459333Y-104810978D01*
X160680052Y-104835322D01*
G36*
X151973649Y-104660117D02*
X151950435Y-104664732D01*
X151898923Y-104691842D01*
X151837007Y-104768048D01*
X151759021Y-104907017D01*
X151659299Y-105122415D01*
X151532176Y-105427907D01*
X151371986Y-105837161D01*
X151173062Y-106363841D01*
X150929738Y-107021615D01*
X150636350Y-107824149D01*
X150605941Y-107907666D01*
X150297706Y-108753883D01*
X150042510Y-109454313D01*
X149836015Y-110022484D01*
X149673883Y-110471924D01*
X149551773Y-110816162D01*
X149465348Y-111068726D01*
X149410268Y-111243144D01*
X149382195Y-111352946D01*
X149376790Y-111411658D01*
X149389714Y-111432810D01*
X149416628Y-111429930D01*
X149453194Y-111416546D01*
X149483326Y-111407949D01*
X149577153Y-111329427D01*
X149696271Y-111118643D01*
X149846476Y-110763891D01*
X149979787Y-110405333D01*
X150328570Y-109431666D01*
X152462184Y-109384442D01*
X152829433Y-110402887D01*
X153196682Y-111421333D01*
X154153008Y-111421333D01*
X154579095Y-111417535D01*
X154861683Y-111403951D01*
X155026483Y-111377298D01*
X155099203Y-111334293D01*
X155109333Y-111299201D01*
X155035005Y-111206631D01*
X154806055Y-111155884D01*
X154749500Y-111151034D01*
X154389667Y-111125000D01*
X153674189Y-109071933D01*
X152315333Y-109071933D01*
X152236379Y-109097441D01*
X152022329Y-109118045D01*
X151707400Y-109131410D01*
X151386521Y-109135333D01*
X150457708Y-109135333D01*
X150802581Y-108182833D01*
X150952437Y-107767959D01*
X151094270Y-107373555D01*
X151210578Y-107048389D01*
X151275966Y-106863806D01*
X151363346Y-106662651D01*
X151440527Y-106564677D01*
X151468346Y-106567472D01*
X151513232Y-106665401D01*
X151597958Y-106889682D01*
X151710718Y-107205407D01*
X151839704Y-107577663D01*
X151973110Y-107971539D01*
X152099129Y-108352124D01*
X152205955Y-108684507D01*
X152281780Y-108933776D01*
X152314799Y-109065021D01*
X152315333Y-109071933D01*
X153674189Y-109071933D01*
X153652024Y-109008333D01*
X153321914Y-108060787D01*
X153043035Y-107260679D01*
X152810552Y-106595665D01*
X152619629Y-106053403D01*
X152465430Y-105621547D01*
X152343120Y-105287755D01*
X152247864Y-105039683D01*
X152174825Y-104864987D01*
X152119168Y-104751323D01*
X152076058Y-104686348D01*
X152040658Y-104657718D01*
X152008134Y-104653089D01*
X151973649Y-104660117D01*
X151973649Y-104660117D01*
G37*
X151973649Y-104660117D02*
X151950435Y-104664732D01*
X151898923Y-104691842D01*
X151837007Y-104768048D01*
X151759021Y-104907017D01*
X151659299Y-105122415D01*
X151532176Y-105427907D01*
X151371986Y-105837161D01*
X151173062Y-106363841D01*
X150929738Y-107021615D01*
X150636350Y-107824149D01*
X150605941Y-107907666D01*
X150297706Y-108753883D01*
X150042510Y-109454313D01*
X149836015Y-110022484D01*
X149673883Y-110471924D01*
X149551773Y-110816162D01*
X149465348Y-111068726D01*
X149410268Y-111243144D01*
X149382195Y-111352946D01*
X149376790Y-111411658D01*
X149389714Y-111432810D01*
X149416628Y-111429930D01*
X149453194Y-111416546D01*
X149483326Y-111407949D01*
X149577153Y-111329427D01*
X149696271Y-111118643D01*
X149846476Y-110763891D01*
X149979787Y-110405333D01*
X150328570Y-109431666D01*
X152462184Y-109384442D01*
X152829433Y-110402887D01*
X153196682Y-111421333D01*
X154153008Y-111421333D01*
X154579095Y-111417535D01*
X154861683Y-111403951D01*
X155026483Y-111377298D01*
X155099203Y-111334293D01*
X155109333Y-111299201D01*
X155035005Y-111206631D01*
X154806055Y-111155884D01*
X154749500Y-111151034D01*
X154389667Y-111125000D01*
X153674189Y-109071933D01*
X152315333Y-109071933D01*
X152236379Y-109097441D01*
X152022329Y-109118045D01*
X151707400Y-109131410D01*
X151386521Y-109135333D01*
X150457708Y-109135333D01*
X150802581Y-108182833D01*
X150952437Y-107767959D01*
X151094270Y-107373555D01*
X151210578Y-107048389D01*
X151275966Y-106863806D01*
X151363346Y-106662651D01*
X151440527Y-106564677D01*
X151468346Y-106567472D01*
X151513232Y-106665401D01*
X151597958Y-106889682D01*
X151710718Y-107205407D01*
X151839704Y-107577663D01*
X151973110Y-107971539D01*
X152099129Y-108352124D01*
X152205955Y-108684507D01*
X152281780Y-108933776D01*
X152314799Y-109065021D01*
X152315333Y-109071933D01*
X153674189Y-109071933D01*
X153652024Y-109008333D01*
X153321914Y-108060787D01*
X153043035Y-107260679D01*
X152810552Y-106595665D01*
X152619629Y-106053403D01*
X152465430Y-105621547D01*
X152343120Y-105287755D01*
X152247864Y-105039683D01*
X152174825Y-104864987D01*
X152119168Y-104751323D01*
X152076058Y-104686348D01*
X152040658Y-104657718D01*
X152008134Y-104653089D01*
X151973649Y-104660117D01*
G36*
X164950651Y-101878306D02*
X164741951Y-101941446D01*
X164465332Y-102028747D01*
X164166114Y-102125538D01*
X163889620Y-102217147D01*
X163681170Y-102288903D01*
X163586086Y-102326133D01*
X163584882Y-102327034D01*
X163590646Y-102416597D01*
X163634504Y-102622418D01*
X163704020Y-102899133D01*
X163786757Y-103201381D01*
X163870280Y-103483802D01*
X163942152Y-103701032D01*
X163989936Y-103807711D01*
X163991201Y-103809068D01*
X164089673Y-103809433D01*
X164310139Y-103767916D01*
X164612824Y-103692674D01*
X164761333Y-103651122D01*
X165086546Y-103554651D01*
X165344272Y-103473552D01*
X165495261Y-103420381D01*
X165517654Y-103409178D01*
X165507316Y-103323384D01*
X165456778Y-103120967D01*
X165379142Y-102845138D01*
X165287510Y-102539109D01*
X165194983Y-102246091D01*
X165114665Y-102009293D01*
X165059656Y-101871928D01*
X165046111Y-101854000D01*
X164950651Y-101878306D01*
X164950651Y-101878306D01*
G37*
X164950651Y-101878306D02*
X164741951Y-101941446D01*
X164465332Y-102028747D01*
X164166114Y-102125538D01*
X163889620Y-102217147D01*
X163681170Y-102288903D01*
X163586086Y-102326133D01*
X163584882Y-102327034D01*
X163590646Y-102416597D01*
X163634504Y-102622418D01*
X163704020Y-102899133D01*
X163786757Y-103201381D01*
X163870280Y-103483802D01*
X163942152Y-103701032D01*
X163989936Y-103807711D01*
X163991201Y-103809068D01*
X164089673Y-103809433D01*
X164310139Y-103767916D01*
X164612824Y-103692674D01*
X164761333Y-103651122D01*
X165086546Y-103554651D01*
X165344272Y-103473552D01*
X165495261Y-103420381D01*
X165517654Y-103409178D01*
X165507316Y-103323384D01*
X165456778Y-103120967D01*
X165379142Y-102845138D01*
X165287510Y-102539109D01*
X165194983Y-102246091D01*
X165114665Y-102009293D01*
X165059656Y-101871928D01*
X165046111Y-101854000D01*
X164950651Y-101878306D01*
G36*
X159982597Y-130241226D02*
X159959020Y-130280833D01*
X159852445Y-130377774D01*
X159801278Y-130386667D01*
X159743433Y-130421090D01*
X159706822Y-130542169D01*
X159687461Y-130776613D01*
X159681367Y-131151133D01*
X159681333Y-131191000D01*
X159685466Y-131536633D01*
X159696576Y-131807866D01*
X159712726Y-131967927D01*
X159723666Y-131995333D01*
X159742856Y-131917175D01*
X159757507Y-131708702D01*
X159765310Y-131408921D01*
X159766000Y-131280467D01*
X159770473Y-130924113D01*
X159789774Y-130696791D01*
X159832723Y-130558311D01*
X159908142Y-130468478D01*
X159951392Y-130435748D01*
X160064227Y-130320527D01*
X160066800Y-130240447D01*
X159982597Y-130241226D01*
X159982597Y-130241226D01*
G37*
X159982597Y-130241226D02*
X159959020Y-130280833D01*
X159852445Y-130377774D01*
X159801278Y-130386667D01*
X159743433Y-130421090D01*
X159706822Y-130542169D01*
X159687461Y-130776613D01*
X159681367Y-131151133D01*
X159681333Y-131191000D01*
X159685466Y-131536633D01*
X159696576Y-131807866D01*
X159712726Y-131967927D01*
X159723666Y-131995333D01*
X159742856Y-131917175D01*
X159757507Y-131708702D01*
X159765310Y-131408921D01*
X159766000Y-131280467D01*
X159770473Y-130924113D01*
X159789774Y-130696791D01*
X159832723Y-130558311D01*
X159908142Y-130468478D01*
X159951392Y-130435748D01*
X160064227Y-130320527D01*
X160066800Y-130240447D01*
X159982597Y-130241226D01*
G36*
X151487817Y-122287855D02*
X151455915Y-122330112D01*
X151428835Y-122396984D01*
X151406099Y-122502012D01*
X151387229Y-122658740D01*
X151371748Y-122880707D01*
X151359176Y-123181456D01*
X151349037Y-123574529D01*
X151340851Y-124073467D01*
X151334141Y-124691811D01*
X151328430Y-125443104D01*
X151323238Y-126340887D01*
X151319725Y-127049433D01*
X151315760Y-128233391D01*
X151315933Y-129248544D01*
X151320250Y-130095370D01*
X151328717Y-130774349D01*
X151341342Y-131285958D01*
X151358130Y-131630676D01*
X151379088Y-131808980D01*
X151386203Y-131830117D01*
X151411998Y-131868722D01*
X151454137Y-131900797D01*
X151527296Y-131926944D01*
X151646155Y-131947770D01*
X151825392Y-131963878D01*
X152079686Y-131975873D01*
X152423714Y-131984359D01*
X152872155Y-131989941D01*
X153439688Y-131993223D01*
X154140990Y-131994809D01*
X154990741Y-131995305D01*
X155398278Y-131995333D01*
X156353151Y-131994442D01*
X157151336Y-131991538D01*
X157805471Y-131986273D01*
X158328193Y-131978300D01*
X158732139Y-131967274D01*
X159029948Y-131952845D01*
X159234256Y-131934669D01*
X159357702Y-131912397D01*
X159412922Y-131885683D01*
X159413425Y-131885091D01*
X159457223Y-131754663D01*
X159495865Y-131500727D01*
X159523178Y-131169103D01*
X159529626Y-131022629D01*
X159554333Y-130270410D01*
X159983654Y-130053372D01*
X160288091Y-129851571D01*
X160608072Y-129563698D01*
X160894638Y-129240868D01*
X161098833Y-128934194D01*
X161139105Y-128847005D01*
X161228536Y-128719303D01*
X161287272Y-128693333D01*
X161360054Y-128623640D01*
X161371991Y-128545167D01*
X161359689Y-128485003D01*
X161315990Y-128489592D01*
X161225970Y-128574592D01*
X161074705Y-128755660D01*
X160847273Y-129048453D01*
X160669981Y-129281714D01*
X160483155Y-129504905D01*
X160319463Y-129659631D01*
X160225481Y-129709333D01*
X160116687Y-129745584D01*
X160104666Y-129773332D01*
X160033395Y-129855163D01*
X159866908Y-129941311D01*
X159676198Y-130003703D01*
X159532258Y-130014270D01*
X159513980Y-130006890D01*
X159435167Y-129922687D01*
X159489414Y-129833025D01*
X159690160Y-129721150D01*
X159772775Y-129684289D01*
X159996081Y-129555701D01*
X160241049Y-129367557D01*
X160466779Y-129157849D01*
X160632373Y-128964572D01*
X160696929Y-128825790D01*
X160749879Y-128711187D01*
X160860390Y-128571790D01*
X161008168Y-128350145D01*
X161081235Y-128164167D01*
X161105628Y-128002442D01*
X161038165Y-127940656D01*
X160876843Y-127931333D01*
X160694177Y-127911865D01*
X160632953Y-127829460D01*
X160634831Y-127740833D01*
X160606387Y-127584700D01*
X160485666Y-127538166D01*
X160305418Y-127523719D01*
X160235900Y-127517000D01*
X160214764Y-127463267D01*
X160257066Y-127406400D01*
X160351929Y-127266971D01*
X160316537Y-127195402D01*
X160203478Y-127207177D01*
X160059383Y-127193154D01*
X159947778Y-127035835D01*
X159883765Y-126918996D01*
X159796785Y-126855800D01*
X159642242Y-126833494D01*
X159375543Y-126839323D01*
X159277467Y-126844119D01*
X158964078Y-126848239D01*
X158765138Y-126825902D01*
X158707666Y-126788333D01*
X158777867Y-126730852D01*
X158891805Y-126727041D01*
X159061048Y-126710705D01*
X159129636Y-126663541D01*
X159248359Y-126594550D01*
X159376406Y-126576667D01*
X159572094Y-126497307D01*
X159589340Y-126471758D01*
X159051945Y-126471758D01*
X158968722Y-126485316D01*
X158858908Y-126469749D01*
X158857998Y-126449667D01*
X158750000Y-126449667D01*
X158707666Y-126492000D01*
X158665333Y-126449667D01*
X158707666Y-126407333D01*
X158750000Y-126449667D01*
X158857998Y-126449667D01*
X158857597Y-126440847D01*
X158970914Y-126420636D01*
X159019875Y-126434163D01*
X159051945Y-126471758D01*
X159589340Y-126471758D01*
X159675324Y-126344378D01*
X159727882Y-126196153D01*
X158442137Y-126196153D01*
X158438032Y-126304886D01*
X158355018Y-126311105D01*
X158287949Y-126243850D01*
X158295800Y-126134955D01*
X158316414Y-126117336D01*
X158407241Y-126139103D01*
X158442137Y-126196153D01*
X159727882Y-126196153D01*
X159730532Y-126188680D01*
X159702523Y-126072671D01*
X159568560Y-125935403D01*
X159501612Y-125878711D01*
X159261894Y-125732570D01*
X159000233Y-125652237D01*
X158770357Y-125646806D01*
X158625996Y-125725371D01*
X158623000Y-125730000D01*
X158508788Y-125790510D01*
X158316559Y-125814667D01*
X158151204Y-125827550D01*
X158085915Y-125899412D01*
X158084721Y-126080073D01*
X158088722Y-126130220D01*
X158148471Y-126386622D01*
X158290639Y-126532276D01*
X158310374Y-126542624D01*
X158435127Y-126620579D01*
X158412357Y-126673053D01*
X158373874Y-126690080D01*
X158296636Y-126765652D01*
X158255216Y-126939763D01*
X158242058Y-127245942D01*
X158242000Y-127275401D01*
X158237522Y-127553824D01*
X158206920Y-127743447D01*
X158124442Y-127900582D01*
X157964336Y-128081544D01*
X157797500Y-128247417D01*
X157554968Y-128476627D01*
X157372290Y-128610492D01*
X157193685Y-128677372D01*
X156963375Y-128705628D01*
X156887333Y-128710192D01*
X156421666Y-128735667D01*
X156398453Y-130153833D01*
X156375239Y-131572000D01*
X159004000Y-131572000D01*
X159004000Y-130772663D01*
X159011465Y-130421574D01*
X159031507Y-130138428D01*
X159060593Y-129963014D01*
X159079073Y-129926929D01*
X159180587Y-129921832D01*
X159245792Y-130059624D01*
X159275915Y-130347300D01*
X159272181Y-130791852D01*
X159263451Y-130979333D01*
X159215666Y-131868333D01*
X151595666Y-131868333D01*
X151573161Y-129518833D01*
X151563214Y-128787789D01*
X151548801Y-128180163D01*
X151530370Y-127705966D01*
X151508374Y-127375212D01*
X151483264Y-127197911D01*
X151467327Y-127169333D01*
X151440087Y-127086283D01*
X151417799Y-126843473D01*
X151400833Y-126450416D01*
X151389554Y-125916624D01*
X151384332Y-125251608D01*
X151384000Y-125012908D01*
X151384774Y-124347999D01*
X151388145Y-123830094D01*
X151395683Y-123436865D01*
X151408960Y-123145988D01*
X151429546Y-122935136D01*
X151459013Y-122781982D01*
X151498932Y-122664199D01*
X151550874Y-122559462D01*
X151557482Y-122547613D01*
X151662500Y-122322076D01*
X151677095Y-122197736D01*
X151605989Y-122192191D01*
X151487817Y-122287855D01*
X151487817Y-122287855D01*
G37*
X151487817Y-122287855D02*
X151455915Y-122330112D01*
X151428835Y-122396984D01*
X151406099Y-122502012D01*
X151387229Y-122658740D01*
X151371748Y-122880707D01*
X151359176Y-123181456D01*
X151349037Y-123574529D01*
X151340851Y-124073467D01*
X151334141Y-124691811D01*
X151328430Y-125443104D01*
X151323238Y-126340887D01*
X151319725Y-127049433D01*
X151315760Y-128233391D01*
X151315933Y-129248544D01*
X151320250Y-130095370D01*
X151328717Y-130774349D01*
X151341342Y-131285958D01*
X151358130Y-131630676D01*
X151379088Y-131808980D01*
X151386203Y-131830117D01*
X151411998Y-131868722D01*
X151454137Y-131900797D01*
X151527296Y-131926944D01*
X151646155Y-131947770D01*
X151825392Y-131963878D01*
X152079686Y-131975873D01*
X152423714Y-131984359D01*
X152872155Y-131989941D01*
X153439688Y-131993223D01*
X154140990Y-131994809D01*
X154990741Y-131995305D01*
X155398278Y-131995333D01*
X156353151Y-131994442D01*
X157151336Y-131991538D01*
X157805471Y-131986273D01*
X158328193Y-131978300D01*
X158732139Y-131967274D01*
X159029948Y-131952845D01*
X159234256Y-131934669D01*
X159357702Y-131912397D01*
X159412922Y-131885683D01*
X159413425Y-131885091D01*
X159457223Y-131754663D01*
X159495865Y-131500727D01*
X159523178Y-131169103D01*
X159529626Y-131022629D01*
X159554333Y-130270410D01*
X159983654Y-130053372D01*
X160288091Y-129851571D01*
X160608072Y-129563698D01*
X160894638Y-129240868D01*
X161098833Y-128934194D01*
X161139105Y-128847005D01*
X161228536Y-128719303D01*
X161287272Y-128693333D01*
X161360054Y-128623640D01*
X161371991Y-128545167D01*
X161359689Y-128485003D01*
X161315990Y-128489592D01*
X161225970Y-128574592D01*
X161074705Y-128755660D01*
X160847273Y-129048453D01*
X160669981Y-129281714D01*
X160483155Y-129504905D01*
X160319463Y-129659631D01*
X160225481Y-129709333D01*
X160116687Y-129745584D01*
X160104666Y-129773332D01*
X160033395Y-129855163D01*
X159866908Y-129941311D01*
X159676198Y-130003703D01*
X159532258Y-130014270D01*
X159513980Y-130006890D01*
X159435167Y-129922687D01*
X159489414Y-129833025D01*
X159690160Y-129721150D01*
X159772775Y-129684289D01*
X159996081Y-129555701D01*
X160241049Y-129367557D01*
X160466779Y-129157849D01*
X160632373Y-128964572D01*
X160696929Y-128825790D01*
X160749879Y-128711187D01*
X160860390Y-128571790D01*
X161008168Y-128350145D01*
X161081235Y-128164167D01*
X161105628Y-128002442D01*
X161038165Y-127940656D01*
X160876843Y-127931333D01*
X160694177Y-127911865D01*
X160632953Y-127829460D01*
X160634831Y-127740833D01*
X160606387Y-127584700D01*
X160485666Y-127538166D01*
X160305418Y-127523719D01*
X160235900Y-127517000D01*
X160214764Y-127463267D01*
X160257066Y-127406400D01*
X160351929Y-127266971D01*
X160316537Y-127195402D01*
X160203478Y-127207177D01*
X160059383Y-127193154D01*
X159947778Y-127035835D01*
X159883765Y-126918996D01*
X159796785Y-126855800D01*
X159642242Y-126833494D01*
X159375543Y-126839323D01*
X159277467Y-126844119D01*
X158964078Y-126848239D01*
X158765138Y-126825902D01*
X158707666Y-126788333D01*
X158777867Y-126730852D01*
X158891805Y-126727041D01*
X159061048Y-126710705D01*
X159129636Y-126663541D01*
X159248359Y-126594550D01*
X159376406Y-126576667D01*
X159572094Y-126497307D01*
X159589340Y-126471758D01*
X159051945Y-126471758D01*
X158968722Y-126485316D01*
X158858908Y-126469749D01*
X158857998Y-126449667D01*
X158750000Y-126449667D01*
X158707666Y-126492000D01*
X158665333Y-126449667D01*
X158707666Y-126407333D01*
X158750000Y-126449667D01*
X158857998Y-126449667D01*
X158857597Y-126440847D01*
X158970914Y-126420636D01*
X159019875Y-126434163D01*
X159051945Y-126471758D01*
X159589340Y-126471758D01*
X159675324Y-126344378D01*
X159727882Y-126196153D01*
X158442137Y-126196153D01*
X158438032Y-126304886D01*
X158355018Y-126311105D01*
X158287949Y-126243850D01*
X158295800Y-126134955D01*
X158316414Y-126117336D01*
X158407241Y-126139103D01*
X158442137Y-126196153D01*
X159727882Y-126196153D01*
X159730532Y-126188680D01*
X159702523Y-126072671D01*
X159568560Y-125935403D01*
X159501612Y-125878711D01*
X159261894Y-125732570D01*
X159000233Y-125652237D01*
X158770357Y-125646806D01*
X158625996Y-125725371D01*
X158623000Y-125730000D01*
X158508788Y-125790510D01*
X158316559Y-125814667D01*
X158151204Y-125827550D01*
X158085915Y-125899412D01*
X158084721Y-126080073D01*
X158088722Y-126130220D01*
X158148471Y-126386622D01*
X158290639Y-126532276D01*
X158310374Y-126542624D01*
X158435127Y-126620579D01*
X158412357Y-126673053D01*
X158373874Y-126690080D01*
X158296636Y-126765652D01*
X158255216Y-126939763D01*
X158242058Y-127245942D01*
X158242000Y-127275401D01*
X158237522Y-127553824D01*
X158206920Y-127743447D01*
X158124442Y-127900582D01*
X157964336Y-128081544D01*
X157797500Y-128247417D01*
X157554968Y-128476627D01*
X157372290Y-128610492D01*
X157193685Y-128677372D01*
X156963375Y-128705628D01*
X156887333Y-128710192D01*
X156421666Y-128735667D01*
X156398453Y-130153833D01*
X156375239Y-131572000D01*
X159004000Y-131572000D01*
X159004000Y-130772663D01*
X159011465Y-130421574D01*
X159031507Y-130138428D01*
X159060593Y-129963014D01*
X159079073Y-129926929D01*
X159180587Y-129921832D01*
X159245792Y-130059624D01*
X159275915Y-130347300D01*
X159272181Y-130791852D01*
X159263451Y-130979333D01*
X159215666Y-131868333D01*
X151595666Y-131868333D01*
X151573161Y-129518833D01*
X151563214Y-128787789D01*
X151548801Y-128180163D01*
X151530370Y-127705966D01*
X151508374Y-127375212D01*
X151483264Y-127197911D01*
X151467327Y-127169333D01*
X151440087Y-127086283D01*
X151417799Y-126843473D01*
X151400833Y-126450416D01*
X151389554Y-125916624D01*
X151384332Y-125251608D01*
X151384000Y-125012908D01*
X151384774Y-124347999D01*
X151388145Y-123830094D01*
X151395683Y-123436865D01*
X151408960Y-123145988D01*
X151429546Y-122935136D01*
X151459013Y-122781982D01*
X151498932Y-122664199D01*
X151550874Y-122559462D01*
X151557482Y-122547613D01*
X151662500Y-122322076D01*
X151677095Y-122197736D01*
X151605989Y-122192191D01*
X151487817Y-122287855D01*
G36*
X158174329Y-118752561D02*
X158068612Y-118893035D01*
X157951347Y-119165823D01*
X157911591Y-119272740D01*
X157754016Y-119703846D01*
X158070057Y-120012452D01*
X158269869Y-120192894D01*
X158436161Y-120280401D01*
X158644710Y-120302670D01*
X158843216Y-120295029D01*
X159300333Y-120269000D01*
X159325528Y-119690476D01*
X159343588Y-119388400D01*
X159370202Y-119228070D01*
X159413948Y-119181898D01*
X159473695Y-119214010D01*
X159543617Y-119357006D01*
X159585451Y-119607255D01*
X159598175Y-119904854D01*
X159580762Y-120189899D01*
X159532190Y-120402488D01*
X159495067Y-120463733D01*
X159356618Y-120519152D01*
X159099659Y-120555410D01*
X158843533Y-120565333D01*
X158525655Y-120556018D01*
X158318292Y-120517065D01*
X158163133Y-120431961D01*
X158062834Y-120344246D01*
X157832069Y-120123160D01*
X157510661Y-120365413D01*
X157288570Y-120534767D01*
X157106867Y-120676653D01*
X157059460Y-120714955D01*
X156634327Y-121056189D01*
X156314601Y-121287412D01*
X156085054Y-121417445D01*
X155930460Y-121455112D01*
X155844418Y-121418951D01*
X155692363Y-121328277D01*
X155578623Y-121355057D01*
X155554493Y-121485154D01*
X155557548Y-121498002D01*
X155553341Y-121622005D01*
X155444269Y-121728853D01*
X155249923Y-121829677D01*
X154940407Y-121988788D01*
X154628056Y-122175061D01*
X154576407Y-122209341D01*
X154369390Y-122340570D01*
X154218861Y-122418591D01*
X154184607Y-122428000D01*
X154077477Y-122485745D01*
X154009440Y-122554068D01*
X153883320Y-122632489D01*
X153778257Y-122600995D01*
X153755245Y-122528836D01*
X153819199Y-122449386D01*
X153978862Y-122320228D01*
X154051578Y-122268919D01*
X154215861Y-122122076D01*
X154323124Y-121963735D01*
X154359976Y-121832416D01*
X154313031Y-121766637D01*
X154221194Y-121780954D01*
X154104191Y-121759735D01*
X153944917Y-121663332D01*
X153793920Y-121533588D01*
X153701747Y-121412347D01*
X153702340Y-121351438D01*
X153801472Y-121352101D01*
X153973457Y-121411588D01*
X154147905Y-121498420D01*
X154254421Y-121581120D01*
X154262666Y-121602001D01*
X154332513Y-121657579D01*
X154504914Y-121656424D01*
X154724165Y-121602028D01*
X154809016Y-121567743D01*
X155024666Y-121469486D01*
X155024666Y-120170743D01*
X155021930Y-119660099D01*
X155012416Y-119296943D01*
X154994169Y-119059499D01*
X154965233Y-118925990D01*
X154923654Y-118874641D01*
X154908033Y-118872000D01*
X154760056Y-118931744D01*
X154684703Y-119000562D01*
X154538265Y-119122228D01*
X154319942Y-119251135D01*
X154288207Y-119266643D01*
X154116461Y-119376860D01*
X153959369Y-119552571D01*
X153789140Y-119829482D01*
X153664871Y-120067535D01*
X153514177Y-120379522D01*
X153398913Y-120641523D01*
X153337079Y-120811635D01*
X153331333Y-120843947D01*
X153268821Y-120978368D01*
X153111170Y-121163256D01*
X152903212Y-121353776D01*
X152689777Y-121505090D01*
X152646863Y-121528500D01*
X152513076Y-121640707D01*
X152322911Y-121854874D01*
X152111481Y-122130469D01*
X152051037Y-122216333D01*
X151642479Y-122809000D01*
X151640239Y-124857170D01*
X151642975Y-125539577D01*
X151652487Y-126101949D01*
X151668316Y-126532525D01*
X151690000Y-126819546D01*
X151717077Y-126951249D01*
X151722666Y-126957667D01*
X151749636Y-127058620D01*
X151771900Y-127318471D01*
X151789081Y-127726839D01*
X151800803Y-128273344D01*
X151806689Y-128947604D01*
X151807333Y-129290997D01*
X151807333Y-131572000D01*
X156121597Y-131572000D01*
X156144632Y-129984500D01*
X156167666Y-128397000D01*
X156802344Y-128371703D01*
X157146211Y-128350482D01*
X157372487Y-128310414D01*
X157532867Y-128236686D01*
X157670178Y-128123030D01*
X157903333Y-127899652D01*
X157900333Y-126412659D01*
X157895482Y-125823462D01*
X157882562Y-125381507D01*
X157859972Y-125064829D01*
X157826106Y-124851458D01*
X157779362Y-124719430D01*
X157776333Y-124714000D01*
X157702278Y-124474002D01*
X157661112Y-124073758D01*
X157652333Y-123727034D01*
X157653243Y-123359615D01*
X157667024Y-123117851D01*
X157705092Y-122958066D01*
X157778863Y-122836587D01*
X157830420Y-122782489D01*
X153749911Y-122782489D01*
X153684644Y-122828813D01*
X153554306Y-122911665D01*
X153373662Y-123064946D01*
X153331333Y-123105333D01*
X153105948Y-123298552D01*
X152917192Y-123412676D01*
X152791839Y-123437905D01*
X152756662Y-123364440D01*
X152771941Y-123310075D01*
X152816770Y-123175107D01*
X152823333Y-123140742D01*
X152892457Y-123109249D01*
X152950333Y-123105333D01*
X153063122Y-123068092D01*
X153077333Y-123036589D01*
X153139246Y-122946579D01*
X153292721Y-122809709D01*
X153339611Y-122773934D01*
X153529976Y-122654462D01*
X153648353Y-122645584D01*
X153699445Y-122683928D01*
X153749911Y-122782489D01*
X157830420Y-122782489D01*
X157899752Y-122709741D01*
X157924500Y-122685768D01*
X158158870Y-122467874D01*
X158473151Y-122187168D01*
X158825487Y-121879827D01*
X159174024Y-121582028D01*
X159476908Y-121329948D01*
X159675002Y-121172727D01*
X159935333Y-120975787D01*
X159935333Y-120060631D01*
X159933702Y-119656553D01*
X159923892Y-119387115D01*
X159898527Y-119217626D01*
X159850232Y-119113394D01*
X159771631Y-119039730D01*
X159709277Y-118997357D01*
X159515442Y-118902814D01*
X159364675Y-118925085D01*
X159332202Y-118943553D01*
X159181009Y-118990147D01*
X159129928Y-118954933D01*
X159013909Y-118890292D01*
X158875987Y-118872000D01*
X158640977Y-118835964D01*
X158455354Y-118772696D01*
X158294556Y-118720436D01*
X158174329Y-118752561D01*
X158174329Y-118752561D01*
G37*
X158174329Y-118752561D02*
X158068612Y-118893035D01*
X157951347Y-119165823D01*
X157911591Y-119272740D01*
X157754016Y-119703846D01*
X158070057Y-120012452D01*
X158269869Y-120192894D01*
X158436161Y-120280401D01*
X158644710Y-120302670D01*
X158843216Y-120295029D01*
X159300333Y-120269000D01*
X159325528Y-119690476D01*
X159343588Y-119388400D01*
X159370202Y-119228070D01*
X159413948Y-119181898D01*
X159473695Y-119214010D01*
X159543617Y-119357006D01*
X159585451Y-119607255D01*
X159598175Y-119904854D01*
X159580762Y-120189899D01*
X159532190Y-120402488D01*
X159495067Y-120463733D01*
X159356618Y-120519152D01*
X159099659Y-120555410D01*
X158843533Y-120565333D01*
X158525655Y-120556018D01*
X158318292Y-120517065D01*
X158163133Y-120431961D01*
X158062834Y-120344246D01*
X157832069Y-120123160D01*
X157510661Y-120365413D01*
X157288570Y-120534767D01*
X157106867Y-120676653D01*
X157059460Y-120714955D01*
X156634327Y-121056189D01*
X156314601Y-121287412D01*
X156085054Y-121417445D01*
X155930460Y-121455112D01*
X155844418Y-121418951D01*
X155692363Y-121328277D01*
X155578623Y-121355057D01*
X155554493Y-121485154D01*
X155557548Y-121498002D01*
X155553341Y-121622005D01*
X155444269Y-121728853D01*
X155249923Y-121829677D01*
X154940407Y-121988788D01*
X154628056Y-122175061D01*
X154576407Y-122209341D01*
X154369390Y-122340570D01*
X154218861Y-122418591D01*
X154184607Y-122428000D01*
X154077477Y-122485745D01*
X154009440Y-122554068D01*
X153883320Y-122632489D01*
X153778257Y-122600995D01*
X153755245Y-122528836D01*
X153819199Y-122449386D01*
X153978862Y-122320228D01*
X154051578Y-122268919D01*
X154215861Y-122122076D01*
X154323124Y-121963735D01*
X154359976Y-121832416D01*
X154313031Y-121766637D01*
X154221194Y-121780954D01*
X154104191Y-121759735D01*
X153944917Y-121663332D01*
X153793920Y-121533588D01*
X153701747Y-121412347D01*
X153702340Y-121351438D01*
X153801472Y-121352101D01*
X153973457Y-121411588D01*
X154147905Y-121498420D01*
X154254421Y-121581120D01*
X154262666Y-121602001D01*
X154332513Y-121657579D01*
X154504914Y-121656424D01*
X154724165Y-121602028D01*
X154809016Y-121567743D01*
X155024666Y-121469486D01*
X155024666Y-120170743D01*
X155021930Y-119660099D01*
X155012416Y-119296943D01*
X154994169Y-119059499D01*
X154965233Y-118925990D01*
X154923654Y-118874641D01*
X154908033Y-118872000D01*
X154760056Y-118931744D01*
X154684703Y-119000562D01*
X154538265Y-119122228D01*
X154319942Y-119251135D01*
X154288207Y-119266643D01*
X154116461Y-119376860D01*
X153959369Y-119552571D01*
X153789140Y-119829482D01*
X153664871Y-120067535D01*
X153514177Y-120379522D01*
X153398913Y-120641523D01*
X153337079Y-120811635D01*
X153331333Y-120843947D01*
X153268821Y-120978368D01*
X153111170Y-121163256D01*
X152903212Y-121353776D01*
X152689777Y-121505090D01*
X152646863Y-121528500D01*
X152513076Y-121640707D01*
X152322911Y-121854874D01*
X152111481Y-122130469D01*
X152051037Y-122216333D01*
X151642479Y-122809000D01*
X151640239Y-124857170D01*
X151642975Y-125539577D01*
X151652487Y-126101949D01*
X151668316Y-126532525D01*
X151690000Y-126819546D01*
X151717077Y-126951249D01*
X151722666Y-126957667D01*
X151749636Y-127058620D01*
X151771900Y-127318471D01*
X151789081Y-127726839D01*
X151800803Y-128273344D01*
X151806689Y-128947604D01*
X151807333Y-129290997D01*
X151807333Y-131572000D01*
X156121597Y-131572000D01*
X156144632Y-129984500D01*
X156167666Y-128397000D01*
X156802344Y-128371703D01*
X157146211Y-128350482D01*
X157372487Y-128310414D01*
X157532867Y-128236686D01*
X157670178Y-128123030D01*
X157903333Y-127899652D01*
X157900333Y-126412659D01*
X157895482Y-125823462D01*
X157882562Y-125381507D01*
X157859972Y-125064829D01*
X157826106Y-124851458D01*
X157779362Y-124719430D01*
X157776333Y-124714000D01*
X157702278Y-124474002D01*
X157661112Y-124073758D01*
X157652333Y-123727034D01*
X157653243Y-123359615D01*
X157667024Y-123117851D01*
X157705092Y-122958066D01*
X157778863Y-122836587D01*
X157830420Y-122782489D01*
X153749911Y-122782489D01*
X153684644Y-122828813D01*
X153554306Y-122911665D01*
X153373662Y-123064946D01*
X153331333Y-123105333D01*
X153105948Y-123298552D01*
X152917192Y-123412676D01*
X152791839Y-123437905D01*
X152756662Y-123364440D01*
X152771941Y-123310075D01*
X152816770Y-123175107D01*
X152823333Y-123140742D01*
X152892457Y-123109249D01*
X152950333Y-123105333D01*
X153063122Y-123068092D01*
X153077333Y-123036589D01*
X153139246Y-122946579D01*
X153292721Y-122809709D01*
X153339611Y-122773934D01*
X153529976Y-122654462D01*
X153648353Y-122645584D01*
X153699445Y-122683928D01*
X153749911Y-122782489D01*
X157830420Y-122782489D01*
X157899752Y-122709741D01*
X157924500Y-122685768D01*
X158158870Y-122467874D01*
X158473151Y-122187168D01*
X158825487Y-121879827D01*
X159174024Y-121582028D01*
X159476908Y-121329948D01*
X159675002Y-121172727D01*
X159935333Y-120975787D01*
X159935333Y-120060631D01*
X159933702Y-119656553D01*
X159923892Y-119387115D01*
X159898527Y-119217626D01*
X159850232Y-119113394D01*
X159771631Y-119039730D01*
X159709277Y-118997357D01*
X159515442Y-118902814D01*
X159364675Y-118925085D01*
X159332202Y-118943553D01*
X159181009Y-118990147D01*
X159129928Y-118954933D01*
X159013909Y-118890292D01*
X158875987Y-118872000D01*
X158640977Y-118835964D01*
X158455354Y-118772696D01*
X158294556Y-118720436D01*
X158174329Y-118752561D01*
G36*
X160191793Y-130197096D02*
X160189333Y-130217333D01*
X160253762Y-130299540D01*
X160274000Y-130302000D01*
X160356206Y-130237571D01*
X160358666Y-130217333D01*
X160294237Y-130135127D01*
X160274000Y-130132667D01*
X160191793Y-130197096D01*
X160191793Y-130197096D01*
G37*
X160191793Y-130197096D02*
X160189333Y-130217333D01*
X160253762Y-130299540D01*
X160274000Y-130302000D01*
X160356206Y-130237571D01*
X160358666Y-130217333D01*
X160294237Y-130135127D01*
X160274000Y-130132667D01*
X160191793Y-130197096D01*
G36*
X161175254Y-129219778D02*
X161154776Y-129239795D01*
X161056023Y-129365111D01*
X161036000Y-129418122D01*
X160979498Y-129506282D01*
X160835908Y-129663140D01*
X160739666Y-129757150D01*
X160566452Y-129929631D01*
X160459731Y-130053466D01*
X160443333Y-130084648D01*
X160490266Y-130132606D01*
X160614175Y-130059328D01*
X160759572Y-129913694D01*
X160918198Y-129779319D01*
X161042167Y-129755909D01*
X161047820Y-129758972D01*
X161107087Y-129770248D01*
X161086510Y-129722563D01*
X161080907Y-129603620D01*
X161144329Y-129459997D01*
X161237718Y-129353585D01*
X161322016Y-129346274D01*
X161323236Y-129347458D01*
X161349267Y-129336624D01*
X161328585Y-129264428D01*
X161267353Y-129168908D01*
X161175254Y-129219778D01*
X161175254Y-129219778D01*
G37*
X161175254Y-129219778D02*
X161154776Y-129239795D01*
X161056023Y-129365111D01*
X161036000Y-129418122D01*
X160979498Y-129506282D01*
X160835908Y-129663140D01*
X160739666Y-129757150D01*
X160566452Y-129929631D01*
X160459731Y-130053466D01*
X160443333Y-130084648D01*
X160490266Y-130132606D01*
X160614175Y-130059328D01*
X160759572Y-129913694D01*
X160918198Y-129779319D01*
X161042167Y-129755909D01*
X161047820Y-129758972D01*
X161107087Y-129770248D01*
X161086510Y-129722563D01*
X161080907Y-129603620D01*
X161144329Y-129459997D01*
X161237718Y-129353585D01*
X161322016Y-129346274D01*
X161323236Y-129347458D01*
X161349267Y-129336624D01*
X161328585Y-129264428D01*
X161267353Y-129168908D01*
X161175254Y-129219778D01*
G36*
X161417000Y-128832049D02*
X161304962Y-128915155D01*
X161290000Y-128956392D01*
X161346744Y-129027776D01*
X161461824Y-128997466D01*
X161487555Y-128975555D01*
X161543996Y-128863008D01*
X161474806Y-128818302D01*
X161417000Y-128832049D01*
X161417000Y-128832049D01*
G37*
X161417000Y-128832049D02*
X161304962Y-128915155D01*
X161290000Y-128956392D01*
X161346744Y-129027776D01*
X161461824Y-128997466D01*
X161487555Y-128975555D01*
X161543996Y-128863008D01*
X161474806Y-128818302D01*
X161417000Y-128832049D01*
G36*
X161572222Y-128552222D02*
X161562089Y-128652702D01*
X161572222Y-128665111D01*
X161622556Y-128653489D01*
X161628666Y-128608667D01*
X161597688Y-128538976D01*
X161572222Y-128552222D01*
X161572222Y-128552222D01*
G37*
X161572222Y-128552222D02*
X161562089Y-128652702D01*
X161572222Y-128665111D01*
X161622556Y-128653489D01*
X161628666Y-128608667D01*
X161597688Y-128538976D01*
X161572222Y-128552222D01*
G36*
X161741555Y-128382889D02*
X161753178Y-128433223D01*
X161798000Y-128439333D01*
X161867690Y-128408355D01*
X161854444Y-128382889D01*
X161753965Y-128372756D01*
X161741555Y-128382889D01*
X161741555Y-128382889D01*
G37*
X161741555Y-128382889D02*
X161753178Y-128433223D01*
X161798000Y-128439333D01*
X161867690Y-128408355D01*
X161854444Y-128382889D01*
X161753965Y-128372756D01*
X161741555Y-128382889D01*
G36*
X162536407Y-127730894D02*
X162390170Y-127844037D01*
X162218725Y-128000860D01*
X162066013Y-128160185D01*
X161975975Y-128280834D01*
X161967333Y-128308137D01*
X162016065Y-128351940D01*
X162158160Y-128262563D01*
X162380110Y-128051478D01*
X162535441Y-127870604D01*
X162613989Y-127738820D01*
X162613497Y-127702608D01*
X162536407Y-127730894D01*
X162536407Y-127730894D01*
G37*
X162536407Y-127730894D02*
X162390170Y-127844037D01*
X162218725Y-128000860D01*
X162066013Y-128160185D01*
X161975975Y-128280834D01*
X161967333Y-128308137D01*
X162016065Y-128351940D01*
X162158160Y-128262563D01*
X162380110Y-128051478D01*
X162535441Y-127870604D01*
X162613989Y-127738820D01*
X162613497Y-127702608D01*
X162536407Y-127730894D01*
G36*
X161268833Y-125698071D02*
X160984682Y-125984611D01*
X160750947Y-126231015D01*
X160590990Y-126411883D01*
X160528172Y-126501815D01*
X160528000Y-126503569D01*
X160598122Y-126566904D01*
X160676166Y-126579359D01*
X160778004Y-126590334D01*
X160742438Y-126642874D01*
X160676166Y-126694526D01*
X160555785Y-126874331D01*
X160557223Y-127094660D01*
X160658726Y-127306251D01*
X160838543Y-127459842D01*
X161035370Y-127508000D01*
X161229070Y-127544809D01*
X161372635Y-127631969D01*
X161425272Y-127734581D01*
X161378778Y-127801792D01*
X161288608Y-127903625D01*
X161339427Y-127971805D01*
X161494058Y-127968011D01*
X161660686Y-127961116D01*
X161726892Y-128061656D01*
X161770050Y-128110551D01*
X161873294Y-128055491D01*
X162054974Y-127884320D01*
X162157833Y-127776219D01*
X162359950Y-127541468D01*
X162504352Y-127338459D01*
X162559996Y-127210871D01*
X162560000Y-127210297D01*
X162519848Y-127119884D01*
X162475333Y-127127000D01*
X162395185Y-127250400D01*
X162390666Y-127288208D01*
X162316699Y-127466027D01*
X162137377Y-127597025D01*
X161916571Y-127640447D01*
X161853762Y-127630805D01*
X161631802Y-127539104D01*
X161505073Y-127416970D01*
X161500192Y-127297558D01*
X161548853Y-127251001D01*
X161665581Y-127238523D01*
X161731180Y-127342120D01*
X161804754Y-127474306D01*
X161896093Y-127481262D01*
X162023776Y-127353443D01*
X162191060Y-127105833D01*
X162253163Y-127000000D01*
X161882666Y-127000000D01*
X161853780Y-127082465D01*
X161845330Y-127084667D01*
X161773044Y-127025338D01*
X161755666Y-127000000D01*
X161762379Y-126921981D01*
X161793003Y-126915333D01*
X161879221Y-126976794D01*
X161882666Y-127000000D01*
X162253163Y-127000000D01*
X162381385Y-126781492D01*
X161672655Y-126781492D01*
X161587773Y-126781400D01*
X161547519Y-126771452D01*
X161384691Y-126702378D01*
X161326017Y-126651113D01*
X161329473Y-126584846D01*
X161424702Y-126582665D01*
X161550915Y-126635181D01*
X161623138Y-126697005D01*
X161672655Y-126781492D01*
X162381385Y-126781492D01*
X162505147Y-126570586D01*
X162544390Y-126492000D01*
X161205333Y-126492000D01*
X161136757Y-126567114D01*
X161078333Y-126576667D01*
X160965661Y-126530949D01*
X160951333Y-126492000D01*
X161019910Y-126416885D01*
X161078333Y-126407333D01*
X161191005Y-126453051D01*
X161205333Y-126492000D01*
X162544390Y-126492000D01*
X162746360Y-126087549D01*
X162904476Y-125680491D01*
X162969273Y-125373184D01*
X162968466Y-125298044D01*
X162945261Y-125133244D01*
X162886800Y-125045222D01*
X162748979Y-125006249D01*
X162487691Y-124988595D01*
X162475333Y-124988002D01*
X162009666Y-124965671D01*
X161268833Y-125698071D01*
X161268833Y-125698071D01*
G37*
X161268833Y-125698071D02*
X160984682Y-125984611D01*
X160750947Y-126231015D01*
X160590990Y-126411883D01*
X160528172Y-126501815D01*
X160528000Y-126503569D01*
X160598122Y-126566904D01*
X160676166Y-126579359D01*
X160778004Y-126590334D01*
X160742438Y-126642874D01*
X160676166Y-126694526D01*
X160555785Y-126874331D01*
X160557223Y-127094660D01*
X160658726Y-127306251D01*
X160838543Y-127459842D01*
X161035370Y-127508000D01*
X161229070Y-127544809D01*
X161372635Y-127631969D01*
X161425272Y-127734581D01*
X161378778Y-127801792D01*
X161288608Y-127903625D01*
X161339427Y-127971805D01*
X161494058Y-127968011D01*
X161660686Y-127961116D01*
X161726892Y-128061656D01*
X161770050Y-128110551D01*
X161873294Y-128055491D01*
X162054974Y-127884320D01*
X162157833Y-127776219D01*
X162359950Y-127541468D01*
X162504352Y-127338459D01*
X162559996Y-127210871D01*
X162560000Y-127210297D01*
X162519848Y-127119884D01*
X162475333Y-127127000D01*
X162395185Y-127250400D01*
X162390666Y-127288208D01*
X162316699Y-127466027D01*
X162137377Y-127597025D01*
X161916571Y-127640447D01*
X161853762Y-127630805D01*
X161631802Y-127539104D01*
X161505073Y-127416970D01*
X161500192Y-127297558D01*
X161548853Y-127251001D01*
X161665581Y-127238523D01*
X161731180Y-127342120D01*
X161804754Y-127474306D01*
X161896093Y-127481262D01*
X162023776Y-127353443D01*
X162191060Y-127105833D01*
X162253163Y-127000000D01*
X161882666Y-127000000D01*
X161853780Y-127082465D01*
X161845330Y-127084667D01*
X161773044Y-127025338D01*
X161755666Y-127000000D01*
X161762379Y-126921981D01*
X161793003Y-126915333D01*
X161879221Y-126976794D01*
X161882666Y-127000000D01*
X162253163Y-127000000D01*
X162381385Y-126781492D01*
X161672655Y-126781492D01*
X161587773Y-126781400D01*
X161547519Y-126771452D01*
X161384691Y-126702378D01*
X161326017Y-126651113D01*
X161329473Y-126584846D01*
X161424702Y-126582665D01*
X161550915Y-126635181D01*
X161623138Y-126697005D01*
X161672655Y-126781492D01*
X162381385Y-126781492D01*
X162505147Y-126570586D01*
X162544390Y-126492000D01*
X161205333Y-126492000D01*
X161136757Y-126567114D01*
X161078333Y-126576667D01*
X160965661Y-126530949D01*
X160951333Y-126492000D01*
X161019910Y-126416885D01*
X161078333Y-126407333D01*
X161191005Y-126453051D01*
X161205333Y-126492000D01*
X162544390Y-126492000D01*
X162746360Y-126087549D01*
X162904476Y-125680491D01*
X162969273Y-125373184D01*
X162968466Y-125298044D01*
X162945261Y-125133244D01*
X162886800Y-125045222D01*
X162748979Y-125006249D01*
X162487691Y-124988595D01*
X162475333Y-124988002D01*
X162009666Y-124965671D01*
X161268833Y-125698071D01*
G36*
X162647127Y-127487762D02*
X162644666Y-127508000D01*
X162709096Y-127590206D01*
X162729333Y-127592667D01*
X162811540Y-127528237D01*
X162814000Y-127508000D01*
X162749571Y-127425793D01*
X162729333Y-127423333D01*
X162647127Y-127487762D01*
X162647127Y-127487762D01*
G37*
X162647127Y-127487762D02*
X162644666Y-127508000D01*
X162709096Y-127590206D01*
X162729333Y-127592667D01*
X162811540Y-127528237D01*
X162814000Y-127508000D01*
X162749571Y-127425793D01*
X162729333Y-127423333D01*
X162647127Y-127487762D01*
G36*
X163168731Y-125868450D02*
X163049969Y-126048988D01*
X162896229Y-126356815D01*
X162893357Y-126363141D01*
X162745341Y-126700906D01*
X162669236Y-126914607D01*
X162660797Y-127031425D01*
X162715783Y-127078540D01*
X162780725Y-127084667D01*
X162877144Y-127136278D01*
X162875011Y-127193524D01*
X162904618Y-127284473D01*
X162986736Y-127302381D01*
X163094244Y-127271917D01*
X163096828Y-127232148D01*
X163108054Y-127118183D01*
X163162545Y-127030431D01*
X163196788Y-126964722D01*
X163068000Y-126964722D01*
X163018646Y-127057440D01*
X162917096Y-127042656D01*
X162833403Y-126931208D01*
X162870252Y-126844842D01*
X162933944Y-126830667D01*
X163050576Y-126898836D01*
X163068000Y-126964722D01*
X163196788Y-126964722D01*
X163224366Y-126911805D01*
X163139682Y-126825207D01*
X163127500Y-126818266D01*
X163020708Y-126709013D01*
X162982605Y-126579245D01*
X163027782Y-126497155D01*
X163057701Y-126492000D01*
X163122635Y-126418217D01*
X163195563Y-126233505D01*
X163218032Y-126153333D01*
X163262474Y-125914347D01*
X163242803Y-125821478D01*
X163168731Y-125868450D01*
X163168731Y-125868450D01*
G37*
X163168731Y-125868450D02*
X163049969Y-126048988D01*
X162896229Y-126356815D01*
X162893357Y-126363141D01*
X162745341Y-126700906D01*
X162669236Y-126914607D01*
X162660797Y-127031425D01*
X162715783Y-127078540D01*
X162780725Y-127084667D01*
X162877144Y-127136278D01*
X162875011Y-127193524D01*
X162904618Y-127284473D01*
X162986736Y-127302381D01*
X163094244Y-127271917D01*
X163096828Y-127232148D01*
X163108054Y-127118183D01*
X163162545Y-127030431D01*
X163196788Y-126964722D01*
X163068000Y-126964722D01*
X163018646Y-127057440D01*
X162917096Y-127042656D01*
X162833403Y-126931208D01*
X162870252Y-126844842D01*
X162933944Y-126830667D01*
X163050576Y-126898836D01*
X163068000Y-126964722D01*
X163196788Y-126964722D01*
X163224366Y-126911805D01*
X163139682Y-126825207D01*
X163127500Y-126818266D01*
X163020708Y-126709013D01*
X162982605Y-126579245D01*
X163027782Y-126497155D01*
X163057701Y-126492000D01*
X163122635Y-126418217D01*
X163195563Y-126233505D01*
X163218032Y-126153333D01*
X163262474Y-125914347D01*
X163242803Y-125821478D01*
X163168731Y-125868450D01*
G36*
X163322041Y-126373857D02*
X163322000Y-126383344D01*
X163283302Y-126540957D01*
X163228049Y-126593872D01*
X163206289Y-126660314D01*
X163286635Y-126749094D01*
X163385754Y-126814754D01*
X163373297Y-126763458D01*
X163365675Y-126615094D01*
X163412723Y-126527036D01*
X163473579Y-126392864D01*
X163420012Y-126302145D01*
X163344268Y-126263147D01*
X163322041Y-126373857D01*
X163322041Y-126373857D01*
G37*
X163322041Y-126373857D02*
X163322000Y-126383344D01*
X163283302Y-126540957D01*
X163228049Y-126593872D01*
X163206289Y-126660314D01*
X163286635Y-126749094D01*
X163385754Y-126814754D01*
X163373297Y-126763458D01*
X163365675Y-126615094D01*
X163412723Y-126527036D01*
X163473579Y-126392864D01*
X163420012Y-126302145D01*
X163344268Y-126263147D01*
X163322041Y-126373857D01*
G36*
X159389417Y-124969934D02*
X159062940Y-124987757D01*
X158823159Y-125016197D01*
X158706613Y-125055469D01*
X158703427Y-125059527D01*
X158587828Y-125111358D01*
X158444430Y-125100247D01*
X158294373Y-125087444D01*
X158244893Y-125184917D01*
X158242000Y-125262720D01*
X158295186Y-125432388D01*
X158433780Y-125473777D01*
X158626332Y-125381159D01*
X158673766Y-125341369D01*
X158837258Y-125255621D01*
X159033738Y-125282670D01*
X159284035Y-125431010D01*
X159608979Y-125709137D01*
X159634541Y-125733196D01*
X160062333Y-126137709D01*
X160593443Y-125658688D01*
X160836270Y-125427674D01*
X161020276Y-125229744D01*
X161115662Y-125097837D01*
X161122610Y-125073833D01*
X161043312Y-125032497D01*
X160831467Y-125000480D01*
X160523614Y-124978000D01*
X160156295Y-124965271D01*
X159766049Y-124962510D01*
X159389417Y-124969934D01*
X159389417Y-124969934D01*
G37*
X159389417Y-124969934D02*
X159062940Y-124987757D01*
X158823159Y-125016197D01*
X158706613Y-125055469D01*
X158703427Y-125059527D01*
X158587828Y-125111358D01*
X158444430Y-125100247D01*
X158294373Y-125087444D01*
X158244893Y-125184917D01*
X158242000Y-125262720D01*
X158295186Y-125432388D01*
X158433780Y-125473777D01*
X158626332Y-125381159D01*
X158673766Y-125341369D01*
X158837258Y-125255621D01*
X159033738Y-125282670D01*
X159284035Y-125431010D01*
X159608979Y-125709137D01*
X159634541Y-125733196D01*
X160062333Y-126137709D01*
X160593443Y-125658688D01*
X160836270Y-125427674D01*
X161020276Y-125229744D01*
X161115662Y-125097837D01*
X161122610Y-125073833D01*
X161043312Y-125032497D01*
X160831467Y-125000480D01*
X160523614Y-124978000D01*
X160156295Y-124965271D01*
X159766049Y-124962510D01*
X159389417Y-124969934D01*
G36*
X169486283Y-111974000D02*
X169598749Y-112131983D01*
X169785490Y-112337883D01*
X169890194Y-112439666D01*
X170321282Y-112846576D01*
X170652195Y-113176531D01*
X170913475Y-113460219D01*
X170963775Y-113518451D01*
X171197217Y-113791900D01*
X171175442Y-119358783D01*
X171153666Y-124925667D01*
X163322000Y-124969691D01*
X163322000Y-125349845D01*
X163330433Y-125576859D01*
X163351763Y-125712784D01*
X163364333Y-125730000D01*
X163393159Y-125655853D01*
X163406521Y-125475294D01*
X163406636Y-125454833D01*
X163406605Y-125179667D01*
X167343636Y-125203271D01*
X171280666Y-125226875D01*
X171280666Y-113662112D01*
X170340050Y-112732223D01*
X170028490Y-112429248D01*
X169771371Y-112188974D01*
X169586384Y-112027113D01*
X169491221Y-111959374D01*
X169486283Y-111974000D01*
X169486283Y-111974000D01*
G37*
X169486283Y-111974000D02*
X169598749Y-112131983D01*
X169785490Y-112337883D01*
X169890194Y-112439666D01*
X170321282Y-112846576D01*
X170652195Y-113176531D01*
X170913475Y-113460219D01*
X170963775Y-113518451D01*
X171197217Y-113791900D01*
X171175442Y-119358783D01*
X171153666Y-124925667D01*
X163322000Y-124969691D01*
X163322000Y-125349845D01*
X163330433Y-125576859D01*
X163351763Y-125712784D01*
X163364333Y-125730000D01*
X163393159Y-125655853D01*
X163406521Y-125475294D01*
X163406636Y-125454833D01*
X163406605Y-125179667D01*
X167343636Y-125203271D01*
X171280666Y-125226875D01*
X171280666Y-113662112D01*
X170340050Y-112732223D01*
X170028490Y-112429248D01*
X169771371Y-112188974D01*
X169586384Y-112027113D01*
X169491221Y-111959374D01*
X169486283Y-111974000D01*
G36*
X166952287Y-125402954D02*
X166140602Y-125406275D01*
X165454027Y-125412596D01*
X165155767Y-125417327D01*
X165019592Y-125421754D01*
X165038252Y-125425788D01*
X165204500Y-125429340D01*
X165511085Y-125432321D01*
X165950760Y-125434639D01*
X166516276Y-125436207D01*
X167200384Y-125436935D01*
X167428333Y-125436976D01*
X168144767Y-125436508D01*
X168743211Y-125435177D01*
X169216643Y-125433072D01*
X169558043Y-125430283D01*
X169760389Y-125426898D01*
X169816660Y-125423007D01*
X169719833Y-125418700D01*
X169462888Y-125414064D01*
X169348694Y-125412564D01*
X168623039Y-125406098D01*
X167802001Y-125402895D01*
X166952287Y-125402954D01*
X166952287Y-125402954D01*
G37*
X166952287Y-125402954D02*
X166140602Y-125406275D01*
X165454027Y-125412596D01*
X165155767Y-125417327D01*
X165019592Y-125421754D01*
X165038252Y-125425788D01*
X165204500Y-125429340D01*
X165511085Y-125432321D01*
X165950760Y-125434639D01*
X166516276Y-125436207D01*
X167200384Y-125436935D01*
X167428333Y-125436976D01*
X168144767Y-125436508D01*
X168743211Y-125435177D01*
X169216643Y-125433072D01*
X169558043Y-125430283D01*
X169760389Y-125426898D01*
X169816660Y-125423007D01*
X169719833Y-125418700D01*
X169462888Y-125414064D01*
X169348694Y-125412564D01*
X168623039Y-125406098D01*
X167802001Y-125402895D01*
X166952287Y-125402954D01*
G36*
X160189333Y-121072271D02*
X159829500Y-121328731D01*
X159589012Y-121514764D01*
X159287755Y-121768081D01*
X158986136Y-122037686D01*
X158951307Y-122070095D01*
X158671516Y-122325628D01*
X158402762Y-122560633D01*
X158195853Y-122730875D01*
X158168140Y-122751939D01*
X158043934Y-122850191D01*
X157966292Y-122947077D01*
X157924276Y-123082992D01*
X157906946Y-123298333D01*
X157903363Y-123633495D01*
X157903333Y-123729839D01*
X157915069Y-124159285D01*
X157948825Y-124458891D01*
X158002424Y-124609744D01*
X158004933Y-124612400D01*
X158068383Y-124634027D01*
X158218524Y-124652658D01*
X158464581Y-124668462D01*
X158815781Y-124681605D01*
X159281351Y-124692256D01*
X159870518Y-124700583D01*
X160592507Y-124706752D01*
X161456546Y-124710933D01*
X162471861Y-124713293D01*
X163592933Y-124714000D01*
X169079333Y-124714000D01*
X169079333Y-123292717D01*
X167972515Y-123292717D01*
X167874559Y-123376974D01*
X167808472Y-123401940D01*
X167668569Y-123488046D01*
X167459440Y-123664244D01*
X167224199Y-123893924D01*
X167203524Y-123915645D01*
X166985315Y-124137372D01*
X166808628Y-124300429D01*
X166707244Y-124373939D01*
X166700610Y-124375333D01*
X166659948Y-124298568D01*
X166624820Y-124099802D01*
X166607058Y-123889323D01*
X166581922Y-123603304D01*
X166535174Y-123446910D01*
X166452751Y-123380599D01*
X166423500Y-123373189D01*
X166283610Y-123413061D01*
X166085960Y-123545240D01*
X165869417Y-123732546D01*
X165672849Y-123937797D01*
X165535122Y-124123814D01*
X165495105Y-124253414D01*
X165496995Y-124259485D01*
X165479206Y-124340129D01*
X165327325Y-124373115D01*
X165236058Y-124375333D01*
X165033012Y-124362228D01*
X164948130Y-124294781D01*
X164930680Y-124130797D01*
X164930666Y-124121333D01*
X164912173Y-123942910D01*
X164867623Y-123867350D01*
X164866892Y-123867333D01*
X164773885Y-123923588D01*
X164619000Y-124064144D01*
X164563381Y-124121333D01*
X164322405Y-124313147D01*
X164059224Y-124375012D01*
X164034490Y-124375333D01*
X163841355Y-124366662D01*
X163747144Y-124345411D01*
X163745333Y-124341642D01*
X163783719Y-124255163D01*
X163881736Y-124071520D01*
X163955980Y-123939475D01*
X164110345Y-123639207D01*
X164159739Y-123454351D01*
X164106469Y-123369305D01*
X164041666Y-123359333D01*
X163928995Y-123313616D01*
X163914666Y-123274667D01*
X163660666Y-123274667D01*
X163597495Y-123356886D01*
X163577721Y-123359333D01*
X163482959Y-123431372D01*
X163369070Y-123609566D01*
X163262675Y-123837036D01*
X163190392Y-124056899D01*
X163178738Y-124211885D01*
X163169909Y-124326489D01*
X163040615Y-124385560D01*
X162953016Y-124399435D01*
X162749342Y-124426849D01*
X162629274Y-124446272D01*
X162628497Y-124446450D01*
X162536854Y-124399789D01*
X162514144Y-124369634D01*
X162534337Y-124278517D01*
X162614981Y-124236905D01*
X162741160Y-124139985D01*
X162886728Y-123940782D01*
X162957795Y-123810201D01*
X162989486Y-123742322D01*
X162544231Y-123742322D01*
X162422282Y-123961261D01*
X162351507Y-124033685D01*
X161967909Y-124321098D01*
X161602958Y-124448209D01*
X161264514Y-124412331D01*
X161254591Y-124408608D01*
X161141602Y-124290754D01*
X161120666Y-124196941D01*
X161147795Y-124060836D01*
X161241059Y-124063308D01*
X161394952Y-124182025D01*
X161526255Y-124275478D01*
X161653087Y-124265594D01*
X161782619Y-124200521D01*
X161961367Y-124031328D01*
X162039024Y-123814065D01*
X162020188Y-123597290D01*
X161909457Y-123429558D01*
X161711429Y-123359424D01*
X161702966Y-123359333D01*
X161568046Y-123406784D01*
X161528770Y-123567172D01*
X161537680Y-123676833D01*
X161473740Y-123755619D01*
X161293711Y-123782667D01*
X161090922Y-123753299D01*
X161046459Y-123667633D01*
X161162205Y-123529327D01*
X161163000Y-123528667D01*
X161270591Y-123384519D01*
X161290000Y-123306633D01*
X161302061Y-123292717D01*
X160945181Y-123292717D01*
X160847226Y-123376974D01*
X160781139Y-123401940D01*
X160641235Y-123488046D01*
X160432106Y-123664244D01*
X160196865Y-123893924D01*
X160176190Y-123915645D01*
X159957350Y-124137473D01*
X159779225Y-124300555D01*
X159675932Y-124373967D01*
X159669052Y-124375333D01*
X159629504Y-124298742D01*
X159603213Y-124101071D01*
X159596666Y-123907009D01*
X159580411Y-123602329D01*
X159527087Y-123436423D01*
X159469666Y-123389951D01*
X159347915Y-123310969D01*
X159377781Y-123241190D01*
X159541712Y-123197197D01*
X159681333Y-123190000D01*
X159916818Y-123210971D01*
X160013853Y-123280488D01*
X160020000Y-123317000D01*
X160093601Y-123419143D01*
X160231666Y-123444000D01*
X160401905Y-123399839D01*
X160443333Y-123317000D01*
X160519061Y-123216174D01*
X160697333Y-123190000D01*
X160891339Y-123220583D01*
X160945181Y-123292717D01*
X161302061Y-123292717D01*
X161362415Y-123223081D01*
X161547103Y-123189124D01*
X161795231Y-123202220D01*
X162057965Y-123259828D01*
X162284833Y-123358405D01*
X162498674Y-123543993D01*
X162544231Y-123742322D01*
X162989486Y-123742322D01*
X163064049Y-123582617D01*
X163097332Y-123463360D01*
X163059795Y-123409000D01*
X162978962Y-123382722D01*
X162828863Y-123318884D01*
X162830761Y-123257039D01*
X162967657Y-123209867D01*
X163222555Y-123190046D01*
X163237333Y-123190000D01*
X163478821Y-123205229D01*
X163632098Y-123244168D01*
X163660666Y-123274667D01*
X163914666Y-123274667D01*
X163990813Y-123226369D01*
X164185509Y-123195714D01*
X164338000Y-123190000D01*
X164579569Y-123196835D01*
X164732837Y-123214310D01*
X164761333Y-123227971D01*
X164709636Y-123309031D01*
X164582804Y-123458314D01*
X164558919Y-123484351D01*
X164407439Y-123679913D01*
X164316673Y-123855684D01*
X164314484Y-123863446D01*
X164320535Y-123977266D01*
X164410730Y-123981301D01*
X164556451Y-123892094D01*
X164729080Y-123726186D01*
X164873493Y-123540321D01*
X165052342Y-123315089D01*
X165176460Y-123249536D01*
X165248028Y-123343861D01*
X165269333Y-123575997D01*
X165286433Y-123784513D01*
X165350332Y-123851314D01*
X165479928Y-123778250D01*
X165650333Y-123613333D01*
X165791400Y-123451276D01*
X165812986Y-123374897D01*
X165750840Y-123359333D01*
X165628352Y-123318089D01*
X165608000Y-123274667D01*
X165687666Y-123233579D01*
X165907097Y-123204436D01*
X166236935Y-123190649D01*
X166336725Y-123190000D01*
X166691390Y-123194257D01*
X166905041Y-123210538D01*
X167005866Y-123244106D01*
X167022049Y-123300227D01*
X167016715Y-123317000D01*
X167024343Y-123409438D01*
X167163294Y-123442865D01*
X167219324Y-123444000D01*
X167419017Y-123405801D01*
X167470666Y-123317000D01*
X167546395Y-123216174D01*
X167724666Y-123190000D01*
X167918672Y-123220583D01*
X167972515Y-123292717D01*
X169079333Y-123292717D01*
X169079333Y-122174000D01*
X166708666Y-122174000D01*
X166691116Y-122437598D01*
X166643388Y-122580904D01*
X166614130Y-122597333D01*
X166555284Y-122526217D01*
X166561331Y-122378993D01*
X166545749Y-122184077D01*
X166434335Y-122099781D01*
X166268281Y-122153887D01*
X166249459Y-122168639D01*
X166124278Y-122219064D01*
X166076207Y-122178111D01*
X165951927Y-122098228D01*
X165888753Y-122089333D01*
X165799548Y-122130881D01*
X165795453Y-122280694D01*
X165804967Y-122333338D01*
X165821485Y-122554738D01*
X165766235Y-122653085D01*
X165684297Y-122634494D01*
X165647504Y-122532114D01*
X165630771Y-122318687D01*
X165632607Y-122171160D01*
X165639045Y-122120277D01*
X165142693Y-122120277D01*
X165045464Y-122278968D01*
X164899133Y-122342037D01*
X164850453Y-122319199D01*
X164868081Y-122305008D01*
X164491435Y-122305008D01*
X164471049Y-122303016D01*
X164364813Y-122228830D01*
X164303618Y-122150124D01*
X164277435Y-122047000D01*
X163703000Y-122047000D01*
X163669532Y-122250809D01*
X163588411Y-122349605D01*
X163488560Y-122315525D01*
X163476846Y-122299700D01*
X162337407Y-122299700D01*
X162320027Y-122602865D01*
X162311090Y-122677767D01*
X162278298Y-122707054D01*
X162222714Y-122622682D01*
X162167422Y-122473994D01*
X162135504Y-122310331D01*
X162134830Y-122301000D01*
X162125768Y-122004667D01*
X161765249Y-122004667D01*
X161760429Y-122057015D01*
X161671000Y-122174000D01*
X161526922Y-122300570D01*
X161430246Y-122343333D01*
X161420670Y-122295718D01*
X161517601Y-122180482D01*
X161524495Y-122174000D01*
X161673389Y-122052170D01*
X161765249Y-122004667D01*
X162125768Y-122004667D01*
X162125364Y-121991478D01*
X162136394Y-121914487D01*
X161607908Y-121914487D01*
X161596327Y-121920000D01*
X161519061Y-121860396D01*
X161501666Y-121835333D01*
X161480092Y-121756179D01*
X161491673Y-121750667D01*
X161568938Y-121810270D01*
X161586333Y-121835333D01*
X161607908Y-121914487D01*
X162136394Y-121914487D01*
X162150072Y-121819022D01*
X162214799Y-121753751D01*
X162242500Y-121750604D01*
X162295205Y-121827085D01*
X162327987Y-122025612D01*
X162337407Y-122299700D01*
X163476846Y-122299700D01*
X163461783Y-122279351D01*
X163441623Y-122142853D01*
X163443656Y-122131667D01*
X162898666Y-122131667D01*
X162852949Y-122244338D01*
X162814000Y-122258667D01*
X162738885Y-122190090D01*
X162729333Y-122131667D01*
X162775051Y-122018995D01*
X162814000Y-122004667D01*
X162889114Y-122073243D01*
X162898666Y-122131667D01*
X163443656Y-122131667D01*
X163475082Y-121958771D01*
X163541219Y-121803333D01*
X163607037Y-121750667D01*
X163670882Y-121825266D01*
X163702263Y-122009863D01*
X163703000Y-122047000D01*
X164277435Y-122047000D01*
X164263459Y-121991957D01*
X164318736Y-121905397D01*
X164394387Y-121862209D01*
X164421317Y-121958958D01*
X164422666Y-122023011D01*
X164444248Y-122201063D01*
X164486166Y-122279833D01*
X164491435Y-122305008D01*
X164868081Y-122305008D01*
X164900964Y-122278537D01*
X164989067Y-122153422D01*
X165034234Y-122004667D01*
X165067587Y-121867126D01*
X165108373Y-121884211D01*
X165136909Y-121942245D01*
X165142693Y-122120277D01*
X165639045Y-122120277D01*
X165668980Y-121883724D01*
X165747586Y-121759623D01*
X165869374Y-121797967D01*
X165946666Y-121877667D01*
X166108101Y-121986086D01*
X166200666Y-122004667D01*
X166378207Y-121943599D01*
X166454666Y-121877667D01*
X166583164Y-121764215D01*
X166664066Y-121799829D01*
X166703040Y-121991120D01*
X166708666Y-122174000D01*
X169079333Y-122174000D01*
X169079333Y-121021617D01*
X167336302Y-121021617D01*
X167302200Y-121131491D01*
X167270187Y-121133907D01*
X167212596Y-121038727D01*
X167166466Y-120827463D01*
X167148316Y-120643345D01*
X167148416Y-120523000D01*
X166539333Y-120523000D01*
X166512999Y-120670137D01*
X166454666Y-120692333D01*
X166375906Y-120569476D01*
X166370636Y-120527997D01*
X165946666Y-120527997D01*
X165917047Y-120684705D01*
X165862000Y-120734667D01*
X165802997Y-120660981D01*
X165802136Y-120654997D01*
X165184666Y-120654997D01*
X165120088Y-120732386D01*
X165100000Y-120734667D01*
X165025695Y-120665751D01*
X165015333Y-120602670D01*
X165052648Y-120523000D01*
X164592000Y-120523000D01*
X164570734Y-120718867D01*
X164518445Y-120816774D01*
X164507333Y-120819333D01*
X164451371Y-120744904D01*
X164423398Y-120561890D01*
X164422666Y-120523000D01*
X164426719Y-120485663D01*
X163830000Y-120485663D01*
X163805023Y-120661833D01*
X163745333Y-120734667D01*
X162517666Y-120734667D01*
X162513796Y-120812810D01*
X162485327Y-120819333D01*
X162365635Y-120757547D01*
X162348333Y-120734667D01*
X162350350Y-120693928D01*
X161675507Y-120693928D01*
X161663557Y-120974053D01*
X161623736Y-121117902D01*
X161590840Y-121131398D01*
X161538870Y-121036988D01*
X161506729Y-120830016D01*
X161501666Y-120692798D01*
X161516104Y-120472417D01*
X160926758Y-120472417D01*
X160888485Y-120645112D01*
X160831606Y-120665015D01*
X160788402Y-120540842D01*
X160782000Y-120433336D01*
X160810435Y-120276610D01*
X160863258Y-120226667D01*
X160915604Y-120299533D01*
X160926758Y-120472417D01*
X161516104Y-120472417D01*
X161517631Y-120449119D01*
X161558250Y-120288035D01*
X161586333Y-120255327D01*
X161635592Y-120315282D01*
X161667465Y-120509046D01*
X161675507Y-120693928D01*
X162350350Y-120693928D01*
X162352203Y-120656523D01*
X162380673Y-120650000D01*
X162500364Y-120711786D01*
X162517666Y-120734667D01*
X163745333Y-120734667D01*
X163689744Y-120660149D01*
X163669323Y-120527202D01*
X163221498Y-120527202D01*
X163208899Y-120601975D01*
X163136855Y-120724187D01*
X163086067Y-120685187D01*
X163068000Y-120506067D01*
X163085019Y-120356035D01*
X163144343Y-120355521D01*
X163163909Y-120373375D01*
X163221498Y-120527202D01*
X163669323Y-120527202D01*
X163661540Y-120476538D01*
X163660666Y-120433336D01*
X163677774Y-120269000D01*
X162475333Y-120269000D01*
X162433000Y-120311333D01*
X162390666Y-120269000D01*
X162433000Y-120226667D01*
X162475333Y-120269000D01*
X163677774Y-120269000D01*
X163680722Y-120240688D01*
X163733776Y-120179414D01*
X163745333Y-120184333D01*
X163806333Y-120298789D01*
X163830000Y-120485663D01*
X164426719Y-120485663D01*
X164443932Y-120327132D01*
X164496222Y-120229226D01*
X164507333Y-120226667D01*
X164563295Y-120301095D01*
X164591269Y-120484110D01*
X164592000Y-120523000D01*
X165052648Y-120523000D01*
X165056379Y-120515035D01*
X165100000Y-120523000D01*
X165181437Y-120631243D01*
X165184666Y-120654997D01*
X165802136Y-120654997D01*
X165777367Y-120482962D01*
X165777333Y-120475670D01*
X165800263Y-120306413D01*
X165859095Y-120267330D01*
X165862000Y-120269000D01*
X165927539Y-120385707D01*
X165946666Y-120527997D01*
X166370636Y-120527997D01*
X166370000Y-120523000D01*
X166423677Y-120380981D01*
X166454666Y-120353667D01*
X166517084Y-120384034D01*
X166539333Y-120523000D01*
X167148416Y-120523000D01*
X167148536Y-120379263D01*
X167179504Y-120270043D01*
X167228123Y-120306990D01*
X167281295Y-120481407D01*
X167323370Y-120759562D01*
X167336302Y-121021617D01*
X169079333Y-121021617D01*
X169079333Y-119210667D01*
X160189333Y-119210667D01*
X160189333Y-121072271D01*
X160189333Y-121072271D01*
G37*
X160189333Y-121072271D02*
X159829500Y-121328731D01*
X159589012Y-121514764D01*
X159287755Y-121768081D01*
X158986136Y-122037686D01*
X158951307Y-122070095D01*
X158671516Y-122325628D01*
X158402762Y-122560633D01*
X158195853Y-122730875D01*
X158168140Y-122751939D01*
X158043934Y-122850191D01*
X157966292Y-122947077D01*
X157924276Y-123082992D01*
X157906946Y-123298333D01*
X157903363Y-123633495D01*
X157903333Y-123729839D01*
X157915069Y-124159285D01*
X157948825Y-124458891D01*
X158002424Y-124609744D01*
X158004933Y-124612400D01*
X158068383Y-124634027D01*
X158218524Y-124652658D01*
X158464581Y-124668462D01*
X158815781Y-124681605D01*
X159281351Y-124692256D01*
X159870518Y-124700583D01*
X160592507Y-124706752D01*
X161456546Y-124710933D01*
X162471861Y-124713293D01*
X163592933Y-124714000D01*
X169079333Y-124714000D01*
X169079333Y-123292717D01*
X167972515Y-123292717D01*
X167874559Y-123376974D01*
X167808472Y-123401940D01*
X167668569Y-123488046D01*
X167459440Y-123664244D01*
X167224199Y-123893924D01*
X167203524Y-123915645D01*
X166985315Y-124137372D01*
X166808628Y-124300429D01*
X166707244Y-124373939D01*
X166700610Y-124375333D01*
X166659948Y-124298568D01*
X166624820Y-124099802D01*
X166607058Y-123889323D01*
X166581922Y-123603304D01*
X166535174Y-123446910D01*
X166452751Y-123380599D01*
X166423500Y-123373189D01*
X166283610Y-123413061D01*
X166085960Y-123545240D01*
X165869417Y-123732546D01*
X165672849Y-123937797D01*
X165535122Y-124123814D01*
X165495105Y-124253414D01*
X165496995Y-124259485D01*
X165479206Y-124340129D01*
X165327325Y-124373115D01*
X165236058Y-124375333D01*
X165033012Y-124362228D01*
X164948130Y-124294781D01*
X164930680Y-124130797D01*
X164930666Y-124121333D01*
X164912173Y-123942910D01*
X164867623Y-123867350D01*
X164866892Y-123867333D01*
X164773885Y-123923588D01*
X164619000Y-124064144D01*
X164563381Y-124121333D01*
X164322405Y-124313147D01*
X164059224Y-124375012D01*
X164034490Y-124375333D01*
X163841355Y-124366662D01*
X163747144Y-124345411D01*
X163745333Y-124341642D01*
X163783719Y-124255163D01*
X163881736Y-124071520D01*
X163955980Y-123939475D01*
X164110345Y-123639207D01*
X164159739Y-123454351D01*
X164106469Y-123369305D01*
X164041666Y-123359333D01*
X163928995Y-123313616D01*
X163914666Y-123274667D01*
X163660666Y-123274667D01*
X163597495Y-123356886D01*
X163577721Y-123359333D01*
X163482959Y-123431372D01*
X163369070Y-123609566D01*
X163262675Y-123837036D01*
X163190392Y-124056899D01*
X163178738Y-124211885D01*
X163169909Y-124326489D01*
X163040615Y-124385560D01*
X162953016Y-124399435D01*
X162749342Y-124426849D01*
X162629274Y-124446272D01*
X162628497Y-124446450D01*
X162536854Y-124399789D01*
X162514144Y-124369634D01*
X162534337Y-124278517D01*
X162614981Y-124236905D01*
X162741160Y-124139985D01*
X162886728Y-123940782D01*
X162957795Y-123810201D01*
X162989486Y-123742322D01*
X162544231Y-123742322D01*
X162422282Y-123961261D01*
X162351507Y-124033685D01*
X161967909Y-124321098D01*
X161602958Y-124448209D01*
X161264514Y-124412331D01*
X161254591Y-124408608D01*
X161141602Y-124290754D01*
X161120666Y-124196941D01*
X161147795Y-124060836D01*
X161241059Y-124063308D01*
X161394952Y-124182025D01*
X161526255Y-124275478D01*
X161653087Y-124265594D01*
X161782619Y-124200521D01*
X161961367Y-124031328D01*
X162039024Y-123814065D01*
X162020188Y-123597290D01*
X161909457Y-123429558D01*
X161711429Y-123359424D01*
X161702966Y-123359333D01*
X161568046Y-123406784D01*
X161528770Y-123567172D01*
X161537680Y-123676833D01*
X161473740Y-123755619D01*
X161293711Y-123782667D01*
X161090922Y-123753299D01*
X161046459Y-123667633D01*
X161162205Y-123529327D01*
X161163000Y-123528667D01*
X161270591Y-123384519D01*
X161290000Y-123306633D01*
X161302061Y-123292717D01*
X160945181Y-123292717D01*
X160847226Y-123376974D01*
X160781139Y-123401940D01*
X160641235Y-123488046D01*
X160432106Y-123664244D01*
X160196865Y-123893924D01*
X160176190Y-123915645D01*
X159957350Y-124137473D01*
X159779225Y-124300555D01*
X159675932Y-124373967D01*
X159669052Y-124375333D01*
X159629504Y-124298742D01*
X159603213Y-124101071D01*
X159596666Y-123907009D01*
X159580411Y-123602329D01*
X159527087Y-123436423D01*
X159469666Y-123389951D01*
X159347915Y-123310969D01*
X159377781Y-123241190D01*
X159541712Y-123197197D01*
X159681333Y-123190000D01*
X159916818Y-123210971D01*
X160013853Y-123280488D01*
X160020000Y-123317000D01*
X160093601Y-123419143D01*
X160231666Y-123444000D01*
X160401905Y-123399839D01*
X160443333Y-123317000D01*
X160519061Y-123216174D01*
X160697333Y-123190000D01*
X160891339Y-123220583D01*
X160945181Y-123292717D01*
X161302061Y-123292717D01*
X161362415Y-123223081D01*
X161547103Y-123189124D01*
X161795231Y-123202220D01*
X162057965Y-123259828D01*
X162284833Y-123358405D01*
X162498674Y-123543993D01*
X162544231Y-123742322D01*
X162989486Y-123742322D01*
X163064049Y-123582617D01*
X163097332Y-123463360D01*
X163059795Y-123409000D01*
X162978962Y-123382722D01*
X162828863Y-123318884D01*
X162830761Y-123257039D01*
X162967657Y-123209867D01*
X163222555Y-123190046D01*
X163237333Y-123190000D01*
X163478821Y-123205229D01*
X163632098Y-123244168D01*
X163660666Y-123274667D01*
X163914666Y-123274667D01*
X163990813Y-123226369D01*
X164185509Y-123195714D01*
X164338000Y-123190000D01*
X164579569Y-123196835D01*
X164732837Y-123214310D01*
X164761333Y-123227971D01*
X164709636Y-123309031D01*
X164582804Y-123458314D01*
X164558919Y-123484351D01*
X164407439Y-123679913D01*
X164316673Y-123855684D01*
X164314484Y-123863446D01*
X164320535Y-123977266D01*
X164410730Y-123981301D01*
X164556451Y-123892094D01*
X164729080Y-123726186D01*
X164873493Y-123540321D01*
X165052342Y-123315089D01*
X165176460Y-123249536D01*
X165248028Y-123343861D01*
X165269333Y-123575997D01*
X165286433Y-123784513D01*
X165350332Y-123851314D01*
X165479928Y-123778250D01*
X165650333Y-123613333D01*
X165791400Y-123451276D01*
X165812986Y-123374897D01*
X165750840Y-123359333D01*
X165628352Y-123318089D01*
X165608000Y-123274667D01*
X165687666Y-123233579D01*
X165907097Y-123204436D01*
X166236935Y-123190649D01*
X166336725Y-123190000D01*
X166691390Y-123194257D01*
X166905041Y-123210538D01*
X167005866Y-123244106D01*
X167022049Y-123300227D01*
X167016715Y-123317000D01*
X167024343Y-123409438D01*
X167163294Y-123442865D01*
X167219324Y-123444000D01*
X167419017Y-123405801D01*
X167470666Y-123317000D01*
X167546395Y-123216174D01*
X167724666Y-123190000D01*
X167918672Y-123220583D01*
X167972515Y-123292717D01*
X169079333Y-123292717D01*
X169079333Y-122174000D01*
X166708666Y-122174000D01*
X166691116Y-122437598D01*
X166643388Y-122580904D01*
X166614130Y-122597333D01*
X166555284Y-122526217D01*
X166561331Y-122378993D01*
X166545749Y-122184077D01*
X166434335Y-122099781D01*
X166268281Y-122153887D01*
X166249459Y-122168639D01*
X166124278Y-122219064D01*
X166076207Y-122178111D01*
X165951927Y-122098228D01*
X165888753Y-122089333D01*
X165799548Y-122130881D01*
X165795453Y-122280694D01*
X165804967Y-122333338D01*
X165821485Y-122554738D01*
X165766235Y-122653085D01*
X165684297Y-122634494D01*
X165647504Y-122532114D01*
X165630771Y-122318687D01*
X165632607Y-122171160D01*
X165639045Y-122120277D01*
X165142693Y-122120277D01*
X165045464Y-122278968D01*
X164899133Y-122342037D01*
X164850453Y-122319199D01*
X164868081Y-122305008D01*
X164491435Y-122305008D01*
X164471049Y-122303016D01*
X164364813Y-122228830D01*
X164303618Y-122150124D01*
X164277435Y-122047000D01*
X163703000Y-122047000D01*
X163669532Y-122250809D01*
X163588411Y-122349605D01*
X163488560Y-122315525D01*
X163476846Y-122299700D01*
X162337407Y-122299700D01*
X162320027Y-122602865D01*
X162311090Y-122677767D01*
X162278298Y-122707054D01*
X162222714Y-122622682D01*
X162167422Y-122473994D01*
X162135504Y-122310331D01*
X162134830Y-122301000D01*
X162125768Y-122004667D01*
X161765249Y-122004667D01*
X161760429Y-122057015D01*
X161671000Y-122174000D01*
X161526922Y-122300570D01*
X161430246Y-122343333D01*
X161420670Y-122295718D01*
X161517601Y-122180482D01*
X161524495Y-122174000D01*
X161673389Y-122052170D01*
X161765249Y-122004667D01*
X162125768Y-122004667D01*
X162125364Y-121991478D01*
X162136394Y-121914487D01*
X161607908Y-121914487D01*
X161596327Y-121920000D01*
X161519061Y-121860396D01*
X161501666Y-121835333D01*
X161480092Y-121756179D01*
X161491673Y-121750667D01*
X161568938Y-121810270D01*
X161586333Y-121835333D01*
X161607908Y-121914487D01*
X162136394Y-121914487D01*
X162150072Y-121819022D01*
X162214799Y-121753751D01*
X162242500Y-121750604D01*
X162295205Y-121827085D01*
X162327987Y-122025612D01*
X162337407Y-122299700D01*
X163476846Y-122299700D01*
X163461783Y-122279351D01*
X163441623Y-122142853D01*
X163443656Y-122131667D01*
X162898666Y-122131667D01*
X162852949Y-122244338D01*
X162814000Y-122258667D01*
X162738885Y-122190090D01*
X162729333Y-122131667D01*
X162775051Y-122018995D01*
X162814000Y-122004667D01*
X162889114Y-122073243D01*
X162898666Y-122131667D01*
X163443656Y-122131667D01*
X163475082Y-121958771D01*
X163541219Y-121803333D01*
X163607037Y-121750667D01*
X163670882Y-121825266D01*
X163702263Y-122009863D01*
X163703000Y-122047000D01*
X164277435Y-122047000D01*
X164263459Y-121991957D01*
X164318736Y-121905397D01*
X164394387Y-121862209D01*
X164421317Y-121958958D01*
X164422666Y-122023011D01*
X164444248Y-122201063D01*
X164486166Y-122279833D01*
X164491435Y-122305008D01*
X164868081Y-122305008D01*
X164900964Y-122278537D01*
X164989067Y-122153422D01*
X165034234Y-122004667D01*
X165067587Y-121867126D01*
X165108373Y-121884211D01*
X165136909Y-121942245D01*
X165142693Y-122120277D01*
X165639045Y-122120277D01*
X165668980Y-121883724D01*
X165747586Y-121759623D01*
X165869374Y-121797967D01*
X165946666Y-121877667D01*
X166108101Y-121986086D01*
X166200666Y-122004667D01*
X166378207Y-121943599D01*
X166454666Y-121877667D01*
X166583164Y-121764215D01*
X166664066Y-121799829D01*
X166703040Y-121991120D01*
X166708666Y-122174000D01*
X169079333Y-122174000D01*
X169079333Y-121021617D01*
X167336302Y-121021617D01*
X167302200Y-121131491D01*
X167270187Y-121133907D01*
X167212596Y-121038727D01*
X167166466Y-120827463D01*
X167148316Y-120643345D01*
X167148416Y-120523000D01*
X166539333Y-120523000D01*
X166512999Y-120670137D01*
X166454666Y-120692333D01*
X166375906Y-120569476D01*
X166370636Y-120527997D01*
X165946666Y-120527997D01*
X165917047Y-120684705D01*
X165862000Y-120734667D01*
X165802997Y-120660981D01*
X165802136Y-120654997D01*
X165184666Y-120654997D01*
X165120088Y-120732386D01*
X165100000Y-120734667D01*
X165025695Y-120665751D01*
X165015333Y-120602670D01*
X165052648Y-120523000D01*
X164592000Y-120523000D01*
X164570734Y-120718867D01*
X164518445Y-120816774D01*
X164507333Y-120819333D01*
X164451371Y-120744904D01*
X164423398Y-120561890D01*
X164422666Y-120523000D01*
X164426719Y-120485663D01*
X163830000Y-120485663D01*
X163805023Y-120661833D01*
X163745333Y-120734667D01*
X162517666Y-120734667D01*
X162513796Y-120812810D01*
X162485327Y-120819333D01*
X162365635Y-120757547D01*
X162348333Y-120734667D01*
X162350350Y-120693928D01*
X161675507Y-120693928D01*
X161663557Y-120974053D01*
X161623736Y-121117902D01*
X161590840Y-121131398D01*
X161538870Y-121036988D01*
X161506729Y-120830016D01*
X161501666Y-120692798D01*
X161516104Y-120472417D01*
X160926758Y-120472417D01*
X160888485Y-120645112D01*
X160831606Y-120665015D01*
X160788402Y-120540842D01*
X160782000Y-120433336D01*
X160810435Y-120276610D01*
X160863258Y-120226667D01*
X160915604Y-120299533D01*
X160926758Y-120472417D01*
X161516104Y-120472417D01*
X161517631Y-120449119D01*
X161558250Y-120288035D01*
X161586333Y-120255327D01*
X161635592Y-120315282D01*
X161667465Y-120509046D01*
X161675507Y-120693928D01*
X162350350Y-120693928D01*
X162352203Y-120656523D01*
X162380673Y-120650000D01*
X162500364Y-120711786D01*
X162517666Y-120734667D01*
X163745333Y-120734667D01*
X163689744Y-120660149D01*
X163669323Y-120527202D01*
X163221498Y-120527202D01*
X163208899Y-120601975D01*
X163136855Y-120724187D01*
X163086067Y-120685187D01*
X163068000Y-120506067D01*
X163085019Y-120356035D01*
X163144343Y-120355521D01*
X163163909Y-120373375D01*
X163221498Y-120527202D01*
X163669323Y-120527202D01*
X163661540Y-120476538D01*
X163660666Y-120433336D01*
X163677774Y-120269000D01*
X162475333Y-120269000D01*
X162433000Y-120311333D01*
X162390666Y-120269000D01*
X162433000Y-120226667D01*
X162475333Y-120269000D01*
X163677774Y-120269000D01*
X163680722Y-120240688D01*
X163733776Y-120179414D01*
X163745333Y-120184333D01*
X163806333Y-120298789D01*
X163830000Y-120485663D01*
X164426719Y-120485663D01*
X164443932Y-120327132D01*
X164496222Y-120229226D01*
X164507333Y-120226667D01*
X164563295Y-120301095D01*
X164591269Y-120484110D01*
X164592000Y-120523000D01*
X165052648Y-120523000D01*
X165056379Y-120515035D01*
X165100000Y-120523000D01*
X165181437Y-120631243D01*
X165184666Y-120654997D01*
X165802136Y-120654997D01*
X165777367Y-120482962D01*
X165777333Y-120475670D01*
X165800263Y-120306413D01*
X165859095Y-120267330D01*
X165862000Y-120269000D01*
X165927539Y-120385707D01*
X165946666Y-120527997D01*
X166370636Y-120527997D01*
X166370000Y-120523000D01*
X166423677Y-120380981D01*
X166454666Y-120353667D01*
X166517084Y-120384034D01*
X166539333Y-120523000D01*
X167148416Y-120523000D01*
X167148536Y-120379263D01*
X167179504Y-120270043D01*
X167228123Y-120306990D01*
X167281295Y-120481407D01*
X167323370Y-120759562D01*
X167336302Y-121021617D01*
X169079333Y-121021617D01*
X169079333Y-119210667D01*
X160189333Y-119210667D01*
X160189333Y-121072271D01*
G36*
X167536251Y-113622667D02*
X167549019Y-114255192D01*
X167561876Y-114726903D01*
X167574530Y-115036622D01*
X167586686Y-115183167D01*
X167598053Y-115165360D01*
X167608336Y-114982021D01*
X167617241Y-114631970D01*
X167624475Y-114114028D01*
X167625767Y-113982500D01*
X167640000Y-112437333D01*
X169125405Y-112437333D01*
X169822036Y-113137602D01*
X170518667Y-113837870D01*
X170518667Y-119148935D01*
X170518666Y-124460000D01*
X169756666Y-124460000D01*
X169739095Y-121644833D01*
X169734364Y-121013038D01*
X169728755Y-120473105D01*
X169722535Y-120038167D01*
X169715969Y-119721360D01*
X169709325Y-119535818D01*
X169702868Y-119494673D01*
X169697447Y-119591667D01*
X169689738Y-119894970D01*
X169681159Y-120332974D01*
X169672256Y-120871050D01*
X169663580Y-121474571D01*
X169655678Y-122108909D01*
X169651519Y-122491575D01*
X169629666Y-124629484D01*
X170645666Y-124629334D01*
X170608354Y-113763918D01*
X169888891Y-113041214D01*
X169169427Y-112318509D01*
X168341214Y-112314421D01*
X167513000Y-112310333D01*
X167536251Y-113622667D01*
X167536251Y-113622667D01*
G37*
X167536251Y-113622667D02*
X167549019Y-114255192D01*
X167561876Y-114726903D01*
X167574530Y-115036622D01*
X167586686Y-115183167D01*
X167598053Y-115165360D01*
X167608336Y-114982021D01*
X167617241Y-114631970D01*
X167624475Y-114114028D01*
X167625767Y-113982500D01*
X167640000Y-112437333D01*
X169125405Y-112437333D01*
X169822036Y-113137602D01*
X170518667Y-113837870D01*
X170518667Y-119148935D01*
X170518666Y-124460000D01*
X169756666Y-124460000D01*
X169739095Y-121644833D01*
X169734364Y-121013038D01*
X169728755Y-120473105D01*
X169722535Y-120038167D01*
X169715969Y-119721360D01*
X169709325Y-119535818D01*
X169702868Y-119494673D01*
X169697447Y-119591667D01*
X169689738Y-119894970D01*
X169681159Y-120332974D01*
X169672256Y-120871050D01*
X169663580Y-121474571D01*
X169655678Y-122108909D01*
X169651519Y-122491575D01*
X169629666Y-124629484D01*
X170645666Y-124629334D01*
X170608354Y-113763918D01*
X169888891Y-113041214D01*
X169169427Y-112318509D01*
X168341214Y-112314421D01*
X167513000Y-112310333D01*
X167536251Y-113622667D01*
G36*
X152093115Y-121043020D02*
X152112559Y-121087721D01*
X152116720Y-121150892D01*
X152028492Y-121131024D01*
X151930187Y-121118065D01*
X151933024Y-121155881D01*
X151915428Y-121260861D01*
X151814766Y-121401265D01*
X151684795Y-121518474D01*
X151579273Y-121553865D01*
X151571412Y-121550213D01*
X151522566Y-121592973D01*
X151498101Y-121727518D01*
X151446676Y-121919042D01*
X151371101Y-122014430D01*
X151303962Y-122074639D01*
X151365490Y-122088037D01*
X151481937Y-122020051D01*
X151527209Y-121941167D01*
X151614670Y-121803472D01*
X151785112Y-121602219D01*
X151941406Y-121440799D01*
X152159145Y-121208044D01*
X152241763Y-121062804D01*
X152193071Y-120995786D01*
X152126892Y-120988667D01*
X152093115Y-121043020D01*
X152093115Y-121043020D01*
G37*
X152093115Y-121043020D02*
X152112559Y-121087721D01*
X152116720Y-121150892D01*
X152028492Y-121131024D01*
X151930187Y-121118065D01*
X151933024Y-121155881D01*
X151915428Y-121260861D01*
X151814766Y-121401265D01*
X151684795Y-121518474D01*
X151579273Y-121553865D01*
X151571412Y-121550213D01*
X151522566Y-121592973D01*
X151498101Y-121727518D01*
X151446676Y-121919042D01*
X151371101Y-122014430D01*
X151303962Y-122074639D01*
X151365490Y-122088037D01*
X151481937Y-122020051D01*
X151527209Y-121941167D01*
X151614670Y-121803472D01*
X151785112Y-121602219D01*
X151941406Y-121440799D01*
X152159145Y-121208044D01*
X152241763Y-121062804D01*
X152193071Y-120995786D01*
X152126892Y-120988667D01*
X152093115Y-121043020D01*
G36*
X152717557Y-121108537D02*
X152542687Y-121186654D01*
X152484666Y-121211528D01*
X152369684Y-121293032D01*
X152209599Y-121444081D01*
X152037297Y-121627708D01*
X151885659Y-121806946D01*
X151787571Y-121944828D01*
X151775915Y-122004386D01*
X151779148Y-122004667D01*
X151877209Y-121948453D01*
X152047182Y-121803580D01*
X152188333Y-121666000D01*
X152387643Y-121479134D01*
X152551121Y-121356134D01*
X152619791Y-121327333D01*
X152733667Y-121259092D01*
X152771999Y-121193258D01*
X152777182Y-121099133D01*
X152717557Y-121108537D01*
X152717557Y-121108537D01*
G37*
X152717557Y-121108537D02*
X152542687Y-121186654D01*
X152484666Y-121211528D01*
X152369684Y-121293032D01*
X152209599Y-121444081D01*
X152037297Y-121627708D01*
X151885659Y-121806946D01*
X151787571Y-121944828D01*
X151775915Y-122004386D01*
X151779148Y-122004667D01*
X151877209Y-121948453D01*
X152047182Y-121803580D01*
X152188333Y-121666000D01*
X152387643Y-121479134D01*
X152551121Y-121356134D01*
X152619791Y-121327333D01*
X152733667Y-121259092D01*
X152771999Y-121193258D01*
X152777182Y-121099133D01*
X152717557Y-121108537D01*
G36*
X157055746Y-112323836D02*
X155615598Y-112337340D01*
X155595299Y-116705346D01*
X155591807Y-117808550D01*
X155592285Y-118755010D01*
X155596706Y-119542731D01*
X155605038Y-120169718D01*
X155617254Y-120633976D01*
X155633323Y-120933508D01*
X155653217Y-121066321D01*
X155659666Y-121073367D01*
X155681033Y-120989159D01*
X155699391Y-120738295D01*
X155714687Y-120323424D01*
X155726871Y-119747199D01*
X155735888Y-119012269D01*
X155741688Y-118121286D01*
X155744218Y-117076900D01*
X155744333Y-116776525D01*
X155744333Y-112479667D01*
X157120166Y-112456403D01*
X157581336Y-112445035D01*
X157976754Y-112428477D01*
X158278303Y-112408460D01*
X158457867Y-112386712D01*
X158495947Y-112371736D01*
X158415857Y-112352343D01*
X158193942Y-112337056D01*
X157857680Y-112326788D01*
X157434549Y-112322454D01*
X157055746Y-112323836D01*
X157055746Y-112323836D01*
G37*
X157055746Y-112323836D02*
X155615598Y-112337340D01*
X155595299Y-116705346D01*
X155591807Y-117808550D01*
X155592285Y-118755010D01*
X155596706Y-119542731D01*
X155605038Y-120169718D01*
X155617254Y-120633976D01*
X155633323Y-120933508D01*
X155653217Y-121066321D01*
X155659666Y-121073367D01*
X155681033Y-120989159D01*
X155699391Y-120738295D01*
X155714687Y-120323424D01*
X155726871Y-119747199D01*
X155735888Y-119012269D01*
X155741688Y-118121286D01*
X155744218Y-117076900D01*
X155744333Y-116776525D01*
X155744333Y-112479667D01*
X157120166Y-112456403D01*
X157581336Y-112445035D01*
X157976754Y-112428477D01*
X158278303Y-112408460D01*
X158457867Y-112386712D01*
X158495947Y-112371736D01*
X158415857Y-112352343D01*
X158193942Y-112337056D01*
X157857680Y-112326788D01*
X157434549Y-112322454D01*
X157055746Y-112323836D01*
G36*
X152343555Y-120932222D02*
X152355178Y-120982556D01*
X152400000Y-120988667D01*
X152469690Y-120957688D01*
X152456444Y-120932222D01*
X152355965Y-120922089D01*
X152343555Y-120932222D01*
X152343555Y-120932222D01*
G37*
X152343555Y-120932222D02*
X152355178Y-120982556D01*
X152400000Y-120988667D01*
X152469690Y-120957688D01*
X152456444Y-120932222D01*
X152355965Y-120922089D01*
X152343555Y-120932222D01*
G36*
X152738666Y-120861667D02*
X152781000Y-120904000D01*
X152823333Y-120861667D01*
X152781000Y-120819333D01*
X152738666Y-120861667D01*
X152738666Y-120861667D01*
G37*
X152738666Y-120861667D02*
X152781000Y-120904000D01*
X152823333Y-120861667D01*
X152781000Y-120819333D01*
X152738666Y-120861667D01*
G36*
X152569333Y-120861667D02*
X152611666Y-120904000D01*
X152654000Y-120861667D01*
X152611666Y-120819333D01*
X152569333Y-120861667D01*
X152569333Y-120861667D01*
G37*
X152569333Y-120861667D02*
X152611666Y-120904000D01*
X152654000Y-120861667D01*
X152611666Y-120819333D01*
X152569333Y-120861667D01*
G36*
X155972154Y-120694204D02*
X155956000Y-120734667D01*
X156016767Y-120816910D01*
X156035670Y-120819333D01*
X156150337Y-120757789D01*
X156167666Y-120734667D01*
X156148473Y-120662183D01*
X156087997Y-120650000D01*
X155972154Y-120694204D01*
X155972154Y-120694204D01*
G37*
X155972154Y-120694204D02*
X155956000Y-120734667D01*
X156016767Y-120816910D01*
X156035670Y-120819333D01*
X156150337Y-120757789D01*
X156167666Y-120734667D01*
X156148473Y-120662183D01*
X156087997Y-120650000D01*
X155972154Y-120694204D01*
G36*
X153000302Y-120667632D02*
X153010679Y-120746371D01*
X153057311Y-120810105D01*
X153112643Y-120746030D01*
X153143711Y-120621385D01*
X153128145Y-120587922D01*
X153044445Y-120574019D01*
X153000302Y-120667632D01*
X153000302Y-120667632D01*
G37*
X153000302Y-120667632D02*
X153010679Y-120746371D01*
X153057311Y-120810105D01*
X153112643Y-120746030D01*
X153143711Y-120621385D01*
X153128145Y-120587922D01*
X153044445Y-120574019D01*
X153000302Y-120667632D01*
G36*
X156392415Y-120430248D02*
X156301521Y-120515499D01*
X156320167Y-120564509D01*
X156332003Y-120565333D01*
X156403616Y-120505196D01*
X156429751Y-120467585D01*
X156439731Y-120409648D01*
X156392415Y-120430248D01*
X156392415Y-120430248D01*
G37*
X156392415Y-120430248D02*
X156301521Y-120515499D01*
X156320167Y-120564509D01*
X156332003Y-120565333D01*
X156403616Y-120505196D01*
X156429751Y-120467585D01*
X156439731Y-120409648D01*
X156392415Y-120430248D01*
G36*
X152812998Y-120254183D02*
X152756906Y-120394480D01*
X152762779Y-120448335D01*
X152820532Y-120418150D01*
X152855207Y-120350393D01*
X152903176Y-120189626D01*
X152883481Y-120157551D01*
X152812998Y-120254183D01*
X152812998Y-120254183D01*
G37*
X152812998Y-120254183D02*
X152756906Y-120394480D01*
X152762779Y-120448335D01*
X152820532Y-120418150D01*
X152855207Y-120350393D01*
X152903176Y-120189626D01*
X152883481Y-120157551D01*
X152812998Y-120254183D01*
G36*
X153240026Y-120068904D02*
X153195697Y-120128636D01*
X153111190Y-120282778D01*
X153104171Y-120366393D01*
X153171522Y-120338050D01*
X153239807Y-120239484D01*
X153320115Y-120060798D01*
X153317969Y-119998362D01*
X153240026Y-120068904D01*
X153240026Y-120068904D01*
G37*
X153240026Y-120068904D02*
X153195697Y-120128636D01*
X153111190Y-120282778D01*
X153104171Y-120366393D01*
X153171522Y-120338050D01*
X153239807Y-120239484D01*
X153320115Y-120060798D01*
X153317969Y-119998362D01*
X153240026Y-120068904D01*
G36*
X156650252Y-119079728D02*
X156626851Y-119376419D01*
X156610278Y-119655167D01*
X156600460Y-120034788D01*
X156622199Y-120251867D01*
X156667216Y-120311531D01*
X156715193Y-120234441D01*
X156736062Y-119999780D01*
X156730213Y-119602849D01*
X156728891Y-119570697D01*
X156709857Y-119197448D01*
X156690946Y-118990819D01*
X156671347Y-118951387D01*
X156650252Y-119079728D01*
X156650252Y-119079728D01*
G37*
X156650252Y-119079728D02*
X156626851Y-119376419D01*
X156610278Y-119655167D01*
X156600460Y-120034788D01*
X156622199Y-120251867D01*
X156667216Y-120311531D01*
X156715193Y-120234441D01*
X156736062Y-119999780D01*
X156730213Y-119602849D01*
X156728891Y-119570697D01*
X156709857Y-119197448D01*
X156690946Y-118990819D01*
X156671347Y-118951387D01*
X156650252Y-119079728D01*
G36*
X152866266Y-119973636D02*
X152956822Y-120043822D01*
X153053867Y-120055600D01*
X153077333Y-120024058D01*
X153010920Y-119969682D01*
X152945936Y-119940361D01*
X152858536Y-119934444D01*
X152866266Y-119973636D01*
X152866266Y-119973636D01*
G37*
X152866266Y-119973636D02*
X152956822Y-120043822D01*
X153053867Y-120055600D01*
X153077333Y-120024058D01*
X153010920Y-119969682D01*
X152945936Y-119940361D01*
X152858536Y-119934444D01*
X152866266Y-119973636D01*
G36*
X153796112Y-119041430D02*
X153597720Y-119249332D01*
X153474334Y-119539869D01*
X153467287Y-119573714D01*
X153440320Y-119774801D01*
X153446850Y-119882359D01*
X153454497Y-119888000D01*
X153499502Y-119822712D01*
X153500666Y-119803977D01*
X153558451Y-119676830D01*
X153716497Y-119463579D01*
X153951848Y-119194270D01*
X154029833Y-119111488D01*
X154129227Y-118997587D01*
X154108500Y-118961265D01*
X154029833Y-118959483D01*
X153796112Y-119041430D01*
X153796112Y-119041430D01*
G37*
X153796112Y-119041430D02*
X153597720Y-119249332D01*
X153474334Y-119539869D01*
X153467287Y-119573714D01*
X153440320Y-119774801D01*
X153446850Y-119882359D01*
X153454497Y-119888000D01*
X153499502Y-119822712D01*
X153500666Y-119803977D01*
X153558451Y-119676830D01*
X153716497Y-119463579D01*
X153951848Y-119194270D01*
X154029833Y-119111488D01*
X154129227Y-118997587D01*
X154108500Y-118961265D01*
X154029833Y-118959483D01*
X153796112Y-119041430D01*
G36*
X157347215Y-119260275D02*
X157310666Y-119422333D01*
X157342598Y-119598168D01*
X157438267Y-119617142D01*
X157547733Y-119532400D01*
X157643076Y-119371255D01*
X157605412Y-119249093D01*
X157480000Y-119210667D01*
X157347215Y-119260275D01*
X157347215Y-119260275D01*
G37*
X157347215Y-119260275D02*
X157310666Y-119422333D01*
X157342598Y-119598168D01*
X157438267Y-119617142D01*
X157547733Y-119532400D01*
X157643076Y-119371255D01*
X157605412Y-119249093D01*
X157480000Y-119210667D01*
X157347215Y-119260275D01*
G36*
X153515065Y-118842320D02*
X153405123Y-118991503D01*
X153307068Y-119196810D01*
X153237932Y-119406691D01*
X153214746Y-119569599D01*
X153253491Y-119634000D01*
X153314168Y-119562167D01*
X153331333Y-119442635D01*
X153387136Y-119255490D01*
X153524189Y-119044765D01*
X153551567Y-119013757D01*
X153687479Y-118838713D01*
X153722212Y-118736176D01*
X153661045Y-118730947D01*
X153515065Y-118842320D01*
X153515065Y-118842320D01*
G37*
X153515065Y-118842320D02*
X153405123Y-118991503D01*
X153307068Y-119196810D01*
X153237932Y-119406691D01*
X153214746Y-119569599D01*
X153253491Y-119634000D01*
X153314168Y-119562167D01*
X153331333Y-119442635D01*
X153387136Y-119255490D01*
X153524189Y-119044765D01*
X153551567Y-119013757D01*
X153687479Y-118838713D01*
X153722212Y-118736176D01*
X153661045Y-118730947D01*
X153515065Y-118842320D01*
G36*
X158707666Y-118378613D02*
X158339284Y-118383842D01*
X158127984Y-118391275D01*
X158061513Y-118403279D01*
X158127620Y-118422221D01*
X158314053Y-118450466D01*
X158326666Y-118452214D01*
X158694294Y-118492596D01*
X159081927Y-118519825D01*
X159226466Y-118524960D01*
X159548915Y-118558639D01*
X159745257Y-118639765D01*
X159766000Y-118660333D01*
X159806138Y-118687718D01*
X159885962Y-118710949D01*
X160018211Y-118730354D01*
X160215627Y-118746262D01*
X160490949Y-118759001D01*
X160856918Y-118768902D01*
X161326275Y-118776291D01*
X161911760Y-118781499D01*
X162626114Y-118784854D01*
X163482078Y-118786685D01*
X164492390Y-118787320D01*
X164687033Y-118787333D01*
X165843672Y-118785851D01*
X166846003Y-118781432D01*
X167691780Y-118774116D01*
X168378752Y-118763941D01*
X168904673Y-118750947D01*
X169267293Y-118735174D01*
X169464364Y-118716662D01*
X169502666Y-118702667D01*
X169418386Y-118682320D01*
X169167045Y-118664690D01*
X168750898Y-118649815D01*
X168172195Y-118637736D01*
X167433189Y-118628491D01*
X166536134Y-118622121D01*
X165483281Y-118618665D01*
X164692849Y-118618000D01*
X163648980Y-118617483D01*
X162761678Y-118615721D01*
X162018180Y-118612395D01*
X161405722Y-118607185D01*
X160911541Y-118599773D01*
X160522872Y-118589839D01*
X160226953Y-118577064D01*
X160011019Y-118561131D01*
X159862307Y-118541719D01*
X159768054Y-118518510D01*
X159718682Y-118493693D01*
X159578741Y-118430704D01*
X159343311Y-118393320D01*
X158984121Y-118378321D01*
X158707666Y-118378613D01*
X158707666Y-118378613D01*
G37*
X158707666Y-118378613D02*
X158339284Y-118383842D01*
X158127984Y-118391275D01*
X158061513Y-118403279D01*
X158127620Y-118422221D01*
X158314053Y-118450466D01*
X158326666Y-118452214D01*
X158694294Y-118492596D01*
X159081927Y-118519825D01*
X159226466Y-118524960D01*
X159548915Y-118558639D01*
X159745257Y-118639765D01*
X159766000Y-118660333D01*
X159806138Y-118687718D01*
X159885962Y-118710949D01*
X160018211Y-118730354D01*
X160215627Y-118746262D01*
X160490949Y-118759001D01*
X160856918Y-118768902D01*
X161326275Y-118776291D01*
X161911760Y-118781499D01*
X162626114Y-118784854D01*
X163482078Y-118786685D01*
X164492390Y-118787320D01*
X164687033Y-118787333D01*
X165843672Y-118785851D01*
X166846003Y-118781432D01*
X167691780Y-118774116D01*
X168378752Y-118763941D01*
X168904673Y-118750947D01*
X169267293Y-118735174D01*
X169464364Y-118716662D01*
X169502666Y-118702667D01*
X169418386Y-118682320D01*
X169167045Y-118664690D01*
X168750898Y-118649815D01*
X168172195Y-118637736D01*
X167433189Y-118628491D01*
X166536134Y-118622121D01*
X165483281Y-118618665D01*
X164692849Y-118618000D01*
X163648980Y-118617483D01*
X162761678Y-118615721D01*
X162018180Y-118612395D01*
X161405722Y-118607185D01*
X160911541Y-118599773D01*
X160522872Y-118589839D01*
X160226953Y-118577064D01*
X160011019Y-118561131D01*
X159862307Y-118541719D01*
X159768054Y-118518510D01*
X159718682Y-118493693D01*
X159578741Y-118430704D01*
X159343311Y-118393320D01*
X158984121Y-118378321D01*
X158707666Y-118378613D01*
G36*
X157097985Y-118631918D02*
X156928843Y-118667822D01*
X156887333Y-118702667D01*
X156963885Y-118749033D01*
X157161358Y-118779786D01*
X157353000Y-118787333D01*
X157608015Y-118773415D01*
X157777156Y-118737511D01*
X157818666Y-118702667D01*
X157742115Y-118656300D01*
X157544642Y-118625547D01*
X157353000Y-118618000D01*
X157097985Y-118631918D01*
X157097985Y-118631918D01*
G37*
X157097985Y-118631918D02*
X156928843Y-118667822D01*
X156887333Y-118702667D01*
X156963885Y-118749033D01*
X157161358Y-118779786D01*
X157353000Y-118787333D01*
X157608015Y-118773415D01*
X157777156Y-118737511D01*
X157818666Y-118702667D01*
X157742115Y-118656300D01*
X157544642Y-118625547D01*
X157353000Y-118618000D01*
X157097985Y-118631918D01*
G36*
X154432000Y-118745000D02*
X154474333Y-118787333D01*
X154516666Y-118745000D01*
X154474333Y-118702667D01*
X154432000Y-118745000D01*
X154432000Y-118745000D01*
G37*
X154432000Y-118745000D02*
X154474333Y-118787333D01*
X154516666Y-118745000D01*
X154474333Y-118702667D01*
X154432000Y-118745000D01*
G36*
X154935504Y-111882745D02*
X154912206Y-112005066D01*
X154892708Y-112223687D01*
X154876558Y-112550681D01*
X154863303Y-112998121D01*
X154852491Y-113578079D01*
X154843668Y-114302629D01*
X154836381Y-115183843D01*
X154836055Y-115231363D01*
X154831107Y-116112218D01*
X154829589Y-116836595D01*
X154831815Y-117417322D01*
X154838097Y-117867226D01*
X154848750Y-118199134D01*
X154864087Y-118425873D01*
X154884421Y-118560270D01*
X154910067Y-118615152D01*
X154918833Y-118618029D01*
X155017736Y-118577610D01*
X155025240Y-118554500D01*
X155036155Y-117267210D01*
X155044106Y-116140779D01*
X155049016Y-115166754D01*
X155050806Y-114336687D01*
X155049397Y-113642125D01*
X155044712Y-113074619D01*
X155036672Y-112625717D01*
X155025199Y-112286969D01*
X155010214Y-112049924D01*
X154991639Y-111906132D01*
X154969396Y-111847142D01*
X154963055Y-111844653D01*
X154935504Y-111882745D01*
X154935504Y-111882745D01*
G37*
X154935504Y-111882745D02*
X154912206Y-112005066D01*
X154892708Y-112223687D01*
X154876558Y-112550681D01*
X154863303Y-112998121D01*
X154852491Y-113578079D01*
X154843668Y-114302629D01*
X154836381Y-115183843D01*
X154836055Y-115231363D01*
X154831107Y-116112218D01*
X154829589Y-116836595D01*
X154831815Y-117417322D01*
X154838097Y-117867226D01*
X154848750Y-118199134D01*
X154864087Y-118425873D01*
X154884421Y-118560270D01*
X154910067Y-118615152D01*
X154918833Y-118618029D01*
X155017736Y-118577610D01*
X155025240Y-118554500D01*
X155036155Y-117267210D01*
X155044106Y-116140779D01*
X155049016Y-115166754D01*
X155050806Y-114336687D01*
X155049397Y-113642125D01*
X155044712Y-113074619D01*
X155036672Y-112625717D01*
X155025199Y-112286969D01*
X155010214Y-112049924D01*
X154991639Y-111906132D01*
X154969396Y-111847142D01*
X154963055Y-111844653D01*
X154935504Y-111882745D01*
G36*
X154628121Y-112839416D02*
X154625430Y-112945333D01*
X154608540Y-113849356D01*
X154595551Y-114712986D01*
X154586472Y-115520979D01*
X154581312Y-116258089D01*
X154580077Y-116909071D01*
X154582778Y-117458680D01*
X154589422Y-117891669D01*
X154600016Y-118192795D01*
X154614570Y-118346810D01*
X154622500Y-118364063D01*
X154636101Y-118282421D01*
X154647766Y-118049662D01*
X154657245Y-117683996D01*
X154664290Y-117203630D01*
X154668650Y-116626773D01*
X154670077Y-115971634D01*
X154668321Y-115256420D01*
X154667429Y-115083167D01*
X154662919Y-114408715D01*
X154657694Y-113834552D01*
X154651961Y-113371288D01*
X154645929Y-113029533D01*
X154639806Y-112819896D01*
X154633801Y-112752987D01*
X154628121Y-112839416D01*
X154628121Y-112839416D01*
G37*
X154628121Y-112839416D02*
X154625430Y-112945333D01*
X154608540Y-113849356D01*
X154595551Y-114712986D01*
X154586472Y-115520979D01*
X154581312Y-116258089D01*
X154580077Y-116909071D01*
X154582778Y-117458680D01*
X154589422Y-117891669D01*
X154600016Y-118192795D01*
X154614570Y-118346810D01*
X154622500Y-118364063D01*
X154636101Y-118282421D01*
X154647766Y-118049662D01*
X154657245Y-117683996D01*
X154664290Y-117203630D01*
X154668650Y-116626773D01*
X154670077Y-115971634D01*
X154668321Y-115256420D01*
X154667429Y-115083167D01*
X154662919Y-114408715D01*
X154657694Y-113834552D01*
X154651961Y-113371288D01*
X154645929Y-113029533D01*
X154639806Y-112819896D01*
X154633801Y-112752987D01*
X154628121Y-112839416D01*
G36*
X161849040Y-115668911D02*
X161085793Y-115674611D01*
X160966603Y-115675915D01*
X160651734Y-115680415D01*
X160499255Y-115684642D01*
X160502220Y-115688517D01*
X160653686Y-115691963D01*
X160946707Y-115694902D01*
X161374340Y-115697255D01*
X161929640Y-115698943D01*
X162605663Y-115699889D01*
X163110333Y-115700069D01*
X163859803Y-115699642D01*
X164491630Y-115698426D01*
X164999072Y-115696497D01*
X165375386Y-115693934D01*
X165613828Y-115690816D01*
X165707656Y-115687219D01*
X165650126Y-115683222D01*
X165434496Y-115678903D01*
X165199936Y-115675887D01*
X164445811Y-115669676D01*
X163593192Y-115666443D01*
X162706220Y-115666188D01*
X161849040Y-115668911D01*
X161849040Y-115668911D01*
G37*
X161849040Y-115668911D02*
X161085793Y-115674611D01*
X160966603Y-115675915D01*
X160651734Y-115680415D01*
X160499255Y-115684642D01*
X160502220Y-115688517D01*
X160653686Y-115691963D01*
X160946707Y-115694902D01*
X161374340Y-115697255D01*
X161929640Y-115698943D01*
X162605663Y-115699889D01*
X163110333Y-115700069D01*
X163859803Y-115699642D01*
X164491630Y-115698426D01*
X164999072Y-115696497D01*
X165375386Y-115693934D01*
X165613828Y-115690816D01*
X165707656Y-115687219D01*
X165650126Y-115683222D01*
X165434496Y-115678903D01*
X165199936Y-115675887D01*
X164445811Y-115669676D01*
X163593192Y-115666443D01*
X162706220Y-115666188D01*
X161849040Y-115668911D01*
G36*
X158633612Y-112350849D02*
X158608807Y-112592366D01*
X158591474Y-112982003D01*
X158582168Y-113509215D01*
X158580666Y-113876667D01*
X158585027Y-114479369D01*
X158597738Y-114950657D01*
X158618246Y-115279986D01*
X158645994Y-115456809D01*
X158665333Y-115485333D01*
X158697054Y-115402484D01*
X158721859Y-115160967D01*
X158739192Y-114771330D01*
X158748499Y-114244118D01*
X158750000Y-113876667D01*
X158745639Y-113273964D01*
X158732928Y-112802676D01*
X158712421Y-112473347D01*
X158684673Y-112296524D01*
X158665333Y-112268000D01*
X158633612Y-112350849D01*
X158633612Y-112350849D01*
G37*
X158633612Y-112350849D02*
X158608807Y-112592366D01*
X158591474Y-112982003D01*
X158582168Y-113509215D01*
X158580666Y-113876667D01*
X158585027Y-114479369D01*
X158597738Y-114950657D01*
X158618246Y-115279986D01*
X158645994Y-115456809D01*
X158665333Y-115485333D01*
X158697054Y-115402484D01*
X158721859Y-115160967D01*
X158739192Y-114771330D01*
X158748499Y-114244118D01*
X158750000Y-113876667D01*
X158745639Y-113273964D01*
X158732928Y-112802676D01*
X158712421Y-112473347D01*
X158684673Y-112296524D01*
X158665333Y-112268000D01*
X158633612Y-112350849D01*
G36*
X159342666Y-115231333D02*
X163112990Y-115231333D01*
X164045146Y-115230420D01*
X164820640Y-115227438D01*
X165452134Y-115222024D01*
X165952289Y-115213818D01*
X166333770Y-115202456D01*
X166609237Y-115187576D01*
X166791354Y-115168816D01*
X166892782Y-115145814D01*
X166925174Y-115122250D01*
X166937870Y-115004248D01*
X166946150Y-114747876D01*
X166949632Y-114384049D01*
X166947946Y-113946082D01*
X166442145Y-113946082D01*
X166440788Y-114301778D01*
X166432750Y-114563639D01*
X166418616Y-114694912D01*
X166417729Y-114697470D01*
X166342063Y-114752771D01*
X166152212Y-114787769D01*
X165827560Y-114805048D01*
X165535049Y-114808000D01*
X165136959Y-114803348D01*
X164877758Y-114786360D01*
X164727179Y-114752491D01*
X164654958Y-114697196D01*
X164643392Y-114674075D01*
X164622692Y-114538647D01*
X164605979Y-114274210D01*
X164595154Y-113921077D01*
X164592000Y-113583775D01*
X164598023Y-113127518D01*
X164617915Y-112815900D01*
X164654407Y-112624595D01*
X164710233Y-112529276D01*
X164710473Y-112529077D01*
X164869186Y-112477842D01*
X165182041Y-112453019D01*
X165620639Y-112455210D01*
X166412333Y-112479667D01*
X166436238Y-113533303D01*
X166442145Y-113946082D01*
X166947946Y-113946082D01*
X166947936Y-113943680D01*
X166943683Y-113619416D01*
X166920333Y-112225667D01*
X163131500Y-112203628D01*
X159342666Y-112181590D01*
X159342666Y-115231333D01*
X159342666Y-115231333D01*
G37*
X159342666Y-115231333D02*
X163112990Y-115231333D01*
X164045146Y-115230420D01*
X164820640Y-115227438D01*
X165452134Y-115222024D01*
X165952289Y-115213818D01*
X166333770Y-115202456D01*
X166609237Y-115187576D01*
X166791354Y-115168816D01*
X166892782Y-115145814D01*
X166925174Y-115122250D01*
X166937870Y-115004248D01*
X166946150Y-114747876D01*
X166949632Y-114384049D01*
X166947946Y-113946082D01*
X166442145Y-113946082D01*
X166440788Y-114301778D01*
X166432750Y-114563639D01*
X166418616Y-114694912D01*
X166417729Y-114697470D01*
X166342063Y-114752771D01*
X166152212Y-114787769D01*
X165827560Y-114805048D01*
X165535049Y-114808000D01*
X165136959Y-114803348D01*
X164877758Y-114786360D01*
X164727179Y-114752491D01*
X164654958Y-114697196D01*
X164643392Y-114674075D01*
X164622692Y-114538647D01*
X164605979Y-114274210D01*
X164595154Y-113921077D01*
X164592000Y-113583775D01*
X164598023Y-113127518D01*
X164617915Y-112815900D01*
X164654407Y-112624595D01*
X164710233Y-112529276D01*
X164710473Y-112529077D01*
X164869186Y-112477842D01*
X165182041Y-112453019D01*
X165620639Y-112455210D01*
X166412333Y-112479667D01*
X166436238Y-113533303D01*
X166442145Y-113946082D01*
X166947946Y-113946082D01*
X166947936Y-113943680D01*
X166943683Y-113619416D01*
X166920333Y-112225667D01*
X163131500Y-112203628D01*
X159342666Y-112181590D01*
X159342666Y-115231333D01*
G36*
X171039765Y-113079710D02*
X171074318Y-113180973D01*
X171172876Y-113261992D01*
X171180182Y-113264616D01*
X171243931Y-113238164D01*
X171229332Y-113164075D01*
X171142818Y-113047620D01*
X171095219Y-113030000D01*
X171039765Y-113079710D01*
X171039765Y-113079710D01*
G37*
X171039765Y-113079710D02*
X171074318Y-113180973D01*
X171172876Y-113261992D01*
X171180182Y-113264616D01*
X171243931Y-113238164D01*
X171229332Y-113164075D01*
X171142818Y-113047620D01*
X171095219Y-113030000D01*
X171039765Y-113079710D01*
G36*
X169844725Y-111876811D02*
X169916222Y-111985478D01*
X170097719Y-112189015D01*
X170126497Y-112219638D01*
X170338542Y-112429985D01*
X170463091Y-112513602D01*
X170514943Y-112478705D01*
X170518666Y-112437333D01*
X170453579Y-112355920D01*
X170429003Y-112352667D01*
X170378147Y-112300930D01*
X170391067Y-112268970D01*
X170375348Y-112221842D01*
X170290231Y-112240126D01*
X170193306Y-112256647D01*
X170199627Y-112226585D01*
X170181929Y-112139910D01*
X170085064Y-112007067D01*
X169961260Y-111888701D01*
X169870712Y-111844667D01*
X169844725Y-111876811D01*
X169844725Y-111876811D01*
G37*
X169844725Y-111876811D02*
X169916222Y-111985478D01*
X170097719Y-112189015D01*
X170126497Y-112219638D01*
X170338542Y-112429985D01*
X170463091Y-112513602D01*
X170514943Y-112478705D01*
X170518666Y-112437333D01*
X170453579Y-112355920D01*
X170429003Y-112352667D01*
X170378147Y-112300930D01*
X170391067Y-112268970D01*
X170375348Y-112221842D01*
X170290231Y-112240126D01*
X170193306Y-112256647D01*
X170199627Y-112226585D01*
X170181929Y-112139910D01*
X170085064Y-112007067D01*
X169961260Y-111888701D01*
X169870712Y-111844667D01*
X169844725Y-111876811D01*
G36*
X166941509Y-123717542D02*
X166935225Y-123732056D01*
X166934146Y-123883706D01*
X167029463Y-123951612D01*
X167160222Y-123895555D01*
X167213415Y-123767144D01*
X167216666Y-123726222D01*
X167160047Y-123629189D01*
X167042282Y-123626835D01*
X166941509Y-123717542D01*
X166941509Y-123717542D01*
G37*
X166941509Y-123717542D02*
X166935225Y-123732056D01*
X166934146Y-123883706D01*
X167029463Y-123951612D01*
X167160222Y-123895555D01*
X167213415Y-123767144D01*
X167216666Y-123726222D01*
X167160047Y-123629189D01*
X167042282Y-123626835D01*
X166941509Y-123717542D01*
G36*
X159958905Y-123683919D02*
X159935333Y-123782667D01*
X159977704Y-123930166D01*
X160083121Y-123934966D01*
X160132889Y-123895555D01*
X160189873Y-123759952D01*
X160140907Y-123641765D01*
X160062333Y-123613333D01*
X159958905Y-123683919D01*
X159958905Y-123683919D01*
G37*
X159958905Y-123683919D02*
X159935333Y-123782667D01*
X159977704Y-123930166D01*
X160083121Y-123934966D01*
X160132889Y-123895555D01*
X160189873Y-123759952D01*
X160140907Y-123641765D01*
X160062333Y-123613333D01*
X159958905Y-123683919D01*
G36*
X165184688Y-113601500D02*
X165184709Y-114342333D01*
X165565688Y-114350452D01*
X165946666Y-114358571D01*
X165946666Y-113622667D01*
X165777333Y-113622667D01*
X165774221Y-113932302D01*
X165756097Y-114109513D01*
X165709786Y-114191198D01*
X165622108Y-114214254D01*
X165565666Y-114215333D01*
X165455082Y-114206618D01*
X165391793Y-114155873D01*
X165362620Y-114026201D01*
X165354385Y-113780702D01*
X165354000Y-113622667D01*
X165357112Y-113313031D01*
X165375236Y-113135820D01*
X165421547Y-113054135D01*
X165509225Y-113031079D01*
X165565666Y-113030000D01*
X165676251Y-113038715D01*
X165739540Y-113089460D01*
X165768713Y-113219132D01*
X165776948Y-113464631D01*
X165777333Y-113622667D01*
X165946666Y-113622667D01*
X165946666Y-112860667D01*
X165184666Y-112860667D01*
X165184688Y-113601500D01*
X165184688Y-113601500D01*
G37*
X165184688Y-113601500D02*
X165184709Y-114342333D01*
X165565688Y-114350452D01*
X165946666Y-114358571D01*
X165946666Y-113622667D01*
X165777333Y-113622667D01*
X165774221Y-113932302D01*
X165756097Y-114109513D01*
X165709786Y-114191198D01*
X165622108Y-114214254D01*
X165565666Y-114215333D01*
X165455082Y-114206618D01*
X165391793Y-114155873D01*
X165362620Y-114026201D01*
X165354385Y-113780702D01*
X165354000Y-113622667D01*
X165357112Y-113313031D01*
X165375236Y-113135820D01*
X165421547Y-113054135D01*
X165509225Y-113031079D01*
X165565666Y-113030000D01*
X165676251Y-113038715D01*
X165739540Y-113089460D01*
X165768713Y-113219132D01*
X165776948Y-113464631D01*
X165777333Y-113622667D01*
X165946666Y-113622667D01*
X165946666Y-112860667D01*
X165184666Y-112860667D01*
X165184688Y-113601500D01*
M02*
