%TF.GenerationSoftware,KiCad,Pcbnew,5.1.9+dfsg1-1+deb11u1*%
%TF.CreationDate,2022-11-09T12:01:18+01:00*%
%TF.ProjectId,StandAlone-Adapter,5374616e-6441-46c6-9f6e-652d41646170,SMD Production*%
%TF.SameCoordinates,Original*%
%TF.FileFunction,Soldermask,Bot*%
%TF.FilePolarity,Negative*%
%FSLAX46Y46*%
G04 Gerber Fmt 4.6, Leading zero omitted, Abs format (unit mm)*
G04 Created by KiCad (PCBNEW 5.1.9+dfsg1-1+deb11u1) date 2022-11-09 12:01:18*
%MOMM*%
%LPD*%
G01*
G04 APERTURE LIST*
%ADD10O,1.700000X1.700000*%
%ADD11R,1.700000X1.700000*%
%ADD12C,4.000000*%
%ADD13C,1.270000*%
%ADD14C,3.600000*%
%ADD15O,1.727200X1.727200*%
%ADD16R,1.727200X1.727200*%
%ADD17C,2.000000*%
%ADD18C,1.700000*%
%ADD19C,0.600000*%
G04 APERTURE END LIST*
D10*
%TO.C,EN1*%
X130000000Y-96040000D03*
D11*
X130000000Y-93500000D03*
%TD*%
D12*
%TO.C,H1*%
X111760000Y-121920000D03*
%TD*%
%TO.C,H2*%
X185420000Y-68580000D03*
%TD*%
%TO.C,H3*%
X185420000Y-121920000D03*
%TD*%
%TO.C,H4*%
X111760000Y-68580000D03*
%TD*%
D13*
%TO.C,J1*%
X150965000Y-107770000D03*
D14*
X147790000Y-116650000D03*
X155410000Y-116650000D03*
D13*
X153505000Y-107770000D03*
X149695000Y-110300000D03*
X152235000Y-110300000D03*
%TD*%
D10*
%TO.C,J2*%
X138580000Y-72500000D03*
X136040000Y-72500000D03*
D11*
X133500000Y-72500000D03*
%TD*%
D15*
%TO.C,J3*%
X125040000Y-115080000D03*
X122500000Y-115080000D03*
X125040000Y-112540000D03*
X122500000Y-112540000D03*
X125040000Y-110000000D03*
D16*
X122500000Y-110000000D03*
%TD*%
D10*
%TO.C,J5*%
X177000000Y-114160000D03*
X177000000Y-111620000D03*
X177000000Y-109080000D03*
X177000000Y-106540000D03*
D11*
X177000000Y-104000000D03*
%TD*%
D10*
%TO.C,J6*%
X138580000Y-68500000D03*
X136040000Y-68500000D03*
D11*
X133500000Y-68500000D03*
%TD*%
D10*
%TO.C,J7*%
X182080000Y-95000000D03*
X179540000Y-95000000D03*
D11*
X177000000Y-95000000D03*
%TD*%
D10*
%TO.C,J8*%
X177000000Y-120000000D03*
D11*
X174460000Y-120000000D03*
%TD*%
D10*
%TO.C,J9*%
X133000000Y-81540000D03*
D11*
X133000000Y-79000000D03*
%TD*%
D10*
%TO.C,J10*%
X177000000Y-86620000D03*
X177000000Y-84080000D03*
X177000000Y-81540000D03*
D11*
X177000000Y-79000000D03*
%TD*%
D10*
%TO.C,J11*%
X161500000Y-71040000D03*
D11*
X161500000Y-68500000D03*
%TD*%
D17*
%TO.C,USB1*%
X152430000Y-76440000D03*
X148230000Y-76440000D03*
%TD*%
%TO.C,J4*%
G36*
G01*
X118150000Y-73600000D02*
X118150000Y-72400000D01*
G75*
G02*
X118400000Y-72150000I250000J0D01*
G01*
X119600000Y-72150000D01*
G75*
G02*
X119850000Y-72400000I0J-250000D01*
G01*
X119850000Y-73600000D01*
G75*
G02*
X119600000Y-73850000I-250000J0D01*
G01*
X118400000Y-73850000D01*
G75*
G02*
X118150000Y-73600000I0J250000D01*
G01*
G37*
D18*
X119000000Y-75540000D03*
X119000000Y-78080000D03*
X119000000Y-80620000D03*
X119000000Y-83160000D03*
X121540000Y-73000000D03*
X121540000Y-75540000D03*
X121540000Y-78080000D03*
X121540000Y-80620000D03*
X121540000Y-83160000D03*
%TD*%
D19*
X134163200Y-87554600D03*
X148302700Y-97739400D03*
X148245900Y-103482600D03*
X144378700Y-98338300D03*
X144759200Y-87241400D03*
X131487500Y-100565500D03*
X131834900Y-89901400D03*
X144787200Y-106025300D03*
X149726300Y-101165400D03*
X142550000Y-111555800D03*
X148568100Y-98581600D03*
X151180800Y-101169800D03*
X127859400Y-90315500D03*
X152050000Y-98594600D03*
X148783300Y-87120000D03*
X139523200Y-79044900D03*
X146486200Y-89843400D03*
X140586200Y-94861000D03*
X148040000Y-96767900D03*
X139817000Y-94120900D03*
X150523000Y-97992900D03*
X157191400Y-102806700D03*
X153189500Y-91652000D03*
M02*
