%TF.GenerationSoftware,KiCad,Pcbnew,4.0.2+dfsg1-stable*%
%TF.CreationDate,2018-11-13T01:07:12+01:00*%
%TF.ProjectId,StandAlone-Adapter,5374616E64416C6F6E652D4164617074,rev?*%
%TF.FileFunction,Copper,L2,Bot,Signal*%
%FSLAX46Y46*%
G04 Gerber Fmt 4.6, Leading zero omitted, Abs format (unit mm)*
G04 Created by KiCad (PCBNEW 4.0.2+dfsg1-stable) date Tue 13 Nov 2018 01:07:12 CET*
%MOMM*%
G01*
G04 APERTURE LIST*
%ADD10C,0.100000*%
%ADD11R,2.032000X1.727200*%
%ADD12O,2.032000X1.727200*%
%ADD13R,1.727200X2.032000*%
%ADD14O,1.727200X2.032000*%
%ADD15R,2.032000X2.032000*%
%ADD16O,2.032000X2.032000*%
%ADD17C,1.998980*%
%ADD18C,1.501140*%
%ADD19C,2.999740*%
%ADD20C,4.064000*%
%ADD21R,1.727200X1.727200*%
%ADD22O,1.727200X1.727200*%
%ADD23C,1.524000*%
%ADD24C,0.600000*%
%ADD25C,0.250000*%
%ADD26C,0.254000*%
G04 APERTURE END LIST*
D10*
D11*
X187960000Y-124460000D03*
D12*
X187960000Y-127000000D03*
X187960000Y-129540000D03*
X187960000Y-132080000D03*
X187960000Y-134620000D03*
D13*
X149860000Y-93980000D03*
D14*
X147320000Y-93980000D03*
X144780000Y-93980000D03*
D13*
X132080000Y-104140000D03*
D14*
X134620000Y-104140000D03*
X137160000Y-104140000D03*
D15*
X134620000Y-116840000D03*
D16*
X134620000Y-114300000D03*
D15*
X187960000Y-139700000D03*
D16*
X190500000Y-139700000D03*
D11*
X187960000Y-99060000D03*
D12*
X187960000Y-101600000D03*
X187960000Y-104140000D03*
X187960000Y-106680000D03*
D13*
X132080000Y-96520000D03*
D14*
X134620000Y-96520000D03*
X137160000Y-96520000D03*
X139700000Y-96520000D03*
D17*
X127000000Y-127000000D03*
D15*
X142240000Y-104140000D03*
D16*
X142240000Y-101600000D03*
D18*
X157987140Y-99062120D03*
X160527140Y-99062120D03*
X162559140Y-99062120D03*
X165099140Y-99062120D03*
D19*
X154939140Y-96395120D03*
X168655140Y-96395120D03*
D15*
X173990000Y-91440000D03*
D16*
X173990000Y-93980000D03*
D20*
X125730000Y-90170000D03*
X196850000Y-90170000D03*
X196850000Y-140970000D03*
X125730000Y-140970000D03*
D21*
X134620000Y-129540000D03*
D22*
X137160000Y-129540000D03*
X134620000Y-132080000D03*
X137160000Y-132080000D03*
X134620000Y-134620000D03*
X137160000Y-134620000D03*
D23*
X163068000Y-133350000D03*
X160528000Y-133350000D03*
X165608000Y-133350000D03*
X159258000Y-135890000D03*
X161798000Y-135890000D03*
X164338000Y-135890000D03*
D19*
X169164000Y-137922000D03*
X155702000Y-137922000D03*
D24*
X160848800Y-122254100D03*
X158788000Y-120326700D03*
X155261700Y-124691400D03*
X156854300Y-110487800D03*
X181105200Y-92195300D03*
X181883000Y-104140000D03*
X160392400Y-123115100D03*
X159952500Y-122392000D03*
X161966100Y-125077600D03*
X161762500Y-118747400D03*
X155423700Y-122662800D03*
X156069800Y-128185200D03*
X158095400Y-122722100D03*
X153635900Y-102386900D03*
X156584400Y-107139700D03*
X158958600Y-122709300D03*
X167406000Y-108037100D03*
D25*
X163211800Y-134476200D02*
X161798000Y-135890000D01*
X177943800Y-134476200D02*
X163211800Y-134476200D01*
X186771100Y-125648900D02*
X177943800Y-134476200D01*
X187960000Y-125648900D02*
X186771100Y-125648900D01*
X187960000Y-124460000D02*
X187960000Y-125648900D01*
X161941600Y-134476400D02*
X163068000Y-133350000D01*
X143285300Y-134476400D02*
X161941600Y-134476400D01*
X138348900Y-129540000D02*
X143285300Y-134476400D01*
X137160000Y-129540000D02*
X138348900Y-129540000D01*
X129540000Y-127000000D02*
X127000000Y-127000000D01*
X133431100Y-130891100D02*
X129540000Y-127000000D01*
X133431100Y-132080000D02*
X133431100Y-130891100D01*
X134620000Y-132080000D02*
X133431100Y-132080000D01*
X132080000Y-96520000D02*
X132080000Y-104140000D01*
X187960000Y-104140000D02*
X187960000Y-101600000D01*
X188480100Y-133268900D02*
X187960000Y-133268900D01*
X190500000Y-135288800D02*
X188480100Y-133268900D01*
X190500000Y-139700000D02*
X190500000Y-135288800D01*
X129540000Y-119380000D02*
X134620000Y-114300000D01*
X129540000Y-127000000D02*
X129540000Y-119380000D01*
X132080000Y-110418700D02*
X132080000Y-104140000D01*
X134620000Y-112958700D02*
X132080000Y-110418700D01*
X134620000Y-114300000D02*
X134620000Y-112958700D01*
X187960000Y-132080000D02*
X187960000Y-132592300D01*
X187960000Y-132592300D02*
X187960000Y-133268900D01*
X188480100Y-105328900D02*
X187960000Y-105328900D01*
X189311000Y-106159800D02*
X188480100Y-105328900D01*
X189311000Y-131241300D02*
X189311000Y-106159800D01*
X187960000Y-132592300D02*
X189311000Y-131241300D01*
X187960000Y-104140000D02*
X187960000Y-105328900D01*
X165099100Y-97268800D02*
X165099100Y-99062100D01*
X170927900Y-91440000D02*
X165099100Y-97268800D01*
X173990000Y-91440000D02*
X170927900Y-91440000D01*
X144190900Y-137922000D02*
X155702000Y-137922000D01*
X138348900Y-132080000D02*
X144190900Y-137922000D01*
X137160000Y-132080000D02*
X138348900Y-132080000D01*
X158921400Y-120326700D02*
X158788000Y-120326700D01*
X160848800Y-122254100D02*
X158921400Y-120326700D01*
X160528000Y-133350000D02*
X160528000Y-125009800D01*
X157987100Y-118027000D02*
X157987100Y-99062100D01*
X161482000Y-121521900D02*
X157987100Y-118027000D01*
X161482000Y-124055800D02*
X161482000Y-121521900D01*
X160528000Y-125009800D02*
X161482000Y-124055800D01*
X155580100Y-125009800D02*
X160528000Y-125009800D01*
X155261700Y-124691400D02*
X155580100Y-125009800D01*
X148671100Y-94500100D02*
X148671100Y-93980000D01*
X146651200Y-96520000D02*
X148671100Y-94500100D01*
X139700000Y-96520000D02*
X146651200Y-96520000D01*
X149860000Y-93980000D02*
X148671100Y-93980000D01*
X157229400Y-110112700D02*
X156854300Y-110487800D01*
X157229400Y-101648100D02*
X157229400Y-110112700D01*
X150899400Y-92638600D02*
X152101100Y-93840300D01*
X148661400Y-92638600D02*
X150899400Y-92638600D01*
X147320000Y-93980000D02*
X148661400Y-92638600D01*
X152101100Y-96519800D02*
X157229400Y-101648100D01*
X152101100Y-93840300D02*
X152101100Y-96519800D01*
X181105200Y-103362200D02*
X181105200Y-92195300D01*
X181883000Y-104140000D02*
X181105200Y-103362200D01*
X134620000Y-104140000D02*
X135808900Y-104140000D01*
X135808900Y-104660100D02*
X135808900Y-104140000D01*
X153186300Y-122037500D02*
X135808900Y-104660100D01*
X155682800Y-122037500D02*
X153186300Y-122037500D01*
X156049000Y-122403700D02*
X155682800Y-122037500D01*
X156049000Y-122902200D02*
X156049000Y-122403700D01*
X157463200Y-124316400D02*
X156049000Y-122902200D01*
X159191100Y-124316400D02*
X157463200Y-124316400D01*
X160392400Y-123115100D02*
X159191100Y-124316400D01*
X159952500Y-122670400D02*
X158756800Y-123866100D01*
X159952500Y-122392000D02*
X159952500Y-122670400D01*
X137160000Y-104140000D02*
X138348900Y-104140000D01*
X138422200Y-104140000D02*
X138348900Y-104140000D01*
X156499300Y-122217100D02*
X138422200Y-104140000D01*
X156499300Y-122715600D02*
X156499300Y-122217100D01*
X157649800Y-123866100D02*
X156499300Y-122715600D01*
X158756800Y-123866100D02*
X157649800Y-123866100D01*
X161966100Y-118951000D02*
X161966100Y-125077600D01*
X161762500Y-118747400D02*
X161966100Y-118951000D01*
X154601700Y-126717100D02*
X156069800Y-128185200D01*
X154601700Y-123484800D02*
X154601700Y-126717100D01*
X155423700Y-122662800D02*
X154601700Y-123484800D01*
X157492700Y-122119400D02*
X158095400Y-122722100D01*
X157492700Y-116852700D02*
X157492700Y-122119400D01*
X142240000Y-101600000D02*
X157492700Y-116852700D01*
X134620000Y-96520000D02*
X135808900Y-96520000D01*
X149953900Y-98704900D02*
X153635900Y-102386900D01*
X137473700Y-98704900D02*
X149953900Y-98704900D01*
X135808900Y-97040100D02*
X137473700Y-98704900D01*
X135808900Y-96520000D02*
X135808900Y-97040100D01*
X137160000Y-96520000D02*
X138348900Y-96520000D01*
X156584400Y-104442600D02*
X156584400Y-107139700D01*
X150359000Y-98217200D02*
X156584400Y-104442600D01*
X139526000Y-98217200D02*
X150359000Y-98217200D01*
X138348900Y-97040100D02*
X139526000Y-98217200D01*
X138348900Y-96520000D02*
X138348900Y-97040100D01*
X158958600Y-122811700D02*
X158354500Y-123415800D01*
X158958600Y-122709300D02*
X158958600Y-122811700D01*
X158354500Y-123415800D02*
X157836400Y-123415800D01*
X156949600Y-118849600D02*
X142240000Y-104140000D01*
X156949600Y-122529000D02*
X156949600Y-118849600D01*
X157836400Y-123415800D02*
X156949600Y-122529000D01*
X173990000Y-101453100D02*
X167406000Y-108037100D01*
X173990000Y-93980000D02*
X173990000Y-101453100D01*
D26*
G36*
X195341239Y-87907709D02*
X194590345Y-88657293D01*
X194183464Y-89637173D01*
X194182538Y-90698172D01*
X194587709Y-91678761D01*
X195337293Y-92429655D01*
X196317173Y-92836536D01*
X197378172Y-92837462D01*
X198358761Y-92432291D01*
X199109655Y-91682707D01*
X199516536Y-90702827D01*
X199517000Y-90171182D01*
X199517000Y-140440710D01*
X199112291Y-139461239D01*
X198362707Y-138710345D01*
X197382827Y-138303464D01*
X196321828Y-138302538D01*
X195341239Y-138707709D01*
X194590345Y-139457293D01*
X194183464Y-140437173D01*
X194182538Y-141498172D01*
X194587709Y-142478761D01*
X195337293Y-143229655D01*
X196317173Y-143636536D01*
X196848818Y-143637000D01*
X126259290Y-143637000D01*
X127238761Y-143232291D01*
X127989655Y-142482707D01*
X128396536Y-141502827D01*
X128397462Y-140441828D01*
X127992291Y-139461239D01*
X127966974Y-139435877D01*
X154367728Y-139435877D01*
X154527495Y-139754632D01*
X155318217Y-140064595D01*
X156167366Y-140048367D01*
X156876505Y-139754632D01*
X157036272Y-139435877D01*
X167829728Y-139435877D01*
X167989495Y-139754632D01*
X168780217Y-140064595D01*
X169629366Y-140048367D01*
X170338505Y-139754632D01*
X170498272Y-139435877D01*
X169164000Y-138101605D01*
X167829728Y-139435877D01*
X157036272Y-139435877D01*
X155702000Y-138101605D01*
X154367728Y-139435877D01*
X127966974Y-139435877D01*
X127242707Y-138710345D01*
X126262827Y-138303464D01*
X125201828Y-138302538D01*
X124221239Y-138707709D01*
X123470345Y-139457293D01*
X123063464Y-140437173D01*
X123063000Y-140968818D01*
X123063000Y-137538217D01*
X153559405Y-137538217D01*
X153575633Y-138387366D01*
X153869368Y-139096505D01*
X154188123Y-139256272D01*
X155522395Y-137922000D01*
X155881605Y-137922000D01*
X157215877Y-139256272D01*
X157534632Y-139096505D01*
X157844595Y-138305783D01*
X157829927Y-137538217D01*
X167021405Y-137538217D01*
X167037633Y-138387366D01*
X167331368Y-139096505D01*
X167650123Y-139256272D01*
X168984395Y-137922000D01*
X169343605Y-137922000D01*
X170677877Y-139256272D01*
X170996632Y-139096505D01*
X171158333Y-138684000D01*
X186296560Y-138684000D01*
X186296560Y-140716000D01*
X186340838Y-140951317D01*
X186479910Y-141167441D01*
X186692110Y-141312431D01*
X186944000Y-141363440D01*
X188976000Y-141363440D01*
X189211317Y-141319162D01*
X189427441Y-141180090D01*
X189538840Y-141017052D01*
X189635182Y-141106385D01*
X190117056Y-141305975D01*
X190373000Y-141186836D01*
X190373000Y-139827000D01*
X190627000Y-139827000D01*
X190627000Y-141186836D01*
X190882944Y-141305975D01*
X191364818Y-141106385D01*
X191837188Y-140668379D01*
X192105983Y-140082946D01*
X191987367Y-139827000D01*
X190627000Y-139827000D01*
X190373000Y-139827000D01*
X190353000Y-139827000D01*
X190353000Y-139573000D01*
X190373000Y-139573000D01*
X190373000Y-138213164D01*
X190627000Y-138213164D01*
X190627000Y-139573000D01*
X191987367Y-139573000D01*
X192105983Y-139317054D01*
X191837188Y-138731621D01*
X191364818Y-138293615D01*
X190882944Y-138094025D01*
X190627000Y-138213164D01*
X190373000Y-138213164D01*
X190117056Y-138094025D01*
X189635182Y-138293615D01*
X189537602Y-138384097D01*
X189440090Y-138232559D01*
X189227890Y-138087569D01*
X188976000Y-138036560D01*
X186944000Y-138036560D01*
X186708683Y-138080838D01*
X186492559Y-138219910D01*
X186347569Y-138432110D01*
X186296560Y-138684000D01*
X171158333Y-138684000D01*
X171306595Y-138305783D01*
X171290367Y-137456634D01*
X170996632Y-136747495D01*
X170677877Y-136587728D01*
X169343605Y-137922000D01*
X168984395Y-137922000D01*
X167650123Y-136587728D01*
X167331368Y-136747495D01*
X167021405Y-137538217D01*
X157829927Y-137538217D01*
X157828367Y-137456634D01*
X157534632Y-136747495D01*
X157215877Y-136587728D01*
X155881605Y-137922000D01*
X155522395Y-137922000D01*
X154188123Y-136587728D01*
X153869368Y-136747495D01*
X153559405Y-137538217D01*
X123063000Y-137538217D01*
X123063000Y-136408123D01*
X154367728Y-136408123D01*
X155702000Y-137742395D01*
X157036272Y-136408123D01*
X156876505Y-136089368D01*
X156085783Y-135779405D01*
X155236634Y-135795633D01*
X154527495Y-136089368D01*
X154367728Y-136408123D01*
X123063000Y-136408123D01*
X123063000Y-134620000D01*
X133092041Y-134620000D01*
X133206115Y-135193489D01*
X133530971Y-135679670D01*
X134017152Y-136004526D01*
X134590641Y-136118600D01*
X134649359Y-136118600D01*
X135222848Y-136004526D01*
X135709029Y-135679670D01*
X135890000Y-135408828D01*
X136070971Y-135679670D01*
X136557152Y-136004526D01*
X137130641Y-136118600D01*
X137189359Y-136118600D01*
X137762848Y-136004526D01*
X138249029Y-135679670D01*
X138573885Y-135193489D01*
X138687959Y-134620000D01*
X138573885Y-134046511D01*
X138249029Y-133560330D01*
X137925772Y-133344336D01*
X138048490Y-133286821D01*
X138442688Y-132854947D01*
X138614958Y-132439026D01*
X138493817Y-132207000D01*
X137287000Y-132207000D01*
X137287000Y-132227000D01*
X137033000Y-132227000D01*
X137033000Y-132207000D01*
X134747000Y-132207000D01*
X134747000Y-132227000D01*
X134493000Y-132227000D01*
X134493000Y-132207000D01*
X133286183Y-132207000D01*
X133165042Y-132439026D01*
X133337312Y-132854947D01*
X133731510Y-133286821D01*
X133854228Y-133344336D01*
X133530971Y-133560330D01*
X133206115Y-134046511D01*
X133092041Y-134620000D01*
X123063000Y-134620000D01*
X123063000Y-128152163D01*
X126027443Y-128152163D01*
X126126042Y-128418965D01*
X126735582Y-128645401D01*
X127385377Y-128621341D01*
X127873958Y-128418965D01*
X127972557Y-128152163D01*
X127000000Y-127179605D01*
X126027443Y-128152163D01*
X123063000Y-128152163D01*
X123063000Y-126735582D01*
X125354599Y-126735582D01*
X125378659Y-127385377D01*
X125581035Y-127873958D01*
X125847837Y-127972557D01*
X126820395Y-127000000D01*
X127179605Y-127000000D01*
X128152163Y-127972557D01*
X128418965Y-127873958D01*
X128645401Y-127264418D01*
X128621341Y-126614623D01*
X128418965Y-126126042D01*
X128152163Y-126027443D01*
X127179605Y-127000000D01*
X126820395Y-127000000D01*
X125847837Y-126027443D01*
X125581035Y-126126042D01*
X125354599Y-126735582D01*
X123063000Y-126735582D01*
X123063000Y-125847837D01*
X126027443Y-125847837D01*
X127000000Y-126820395D01*
X127972557Y-125847837D01*
X127873958Y-125581035D01*
X127264418Y-125354599D01*
X126614623Y-125378659D01*
X126126042Y-125581035D01*
X126027443Y-125847837D01*
X123063000Y-125847837D01*
X123063000Y-115824000D01*
X132956560Y-115824000D01*
X132956560Y-117856000D01*
X133000838Y-118091317D01*
X133139910Y-118307441D01*
X133352110Y-118452431D01*
X133604000Y-118503440D01*
X135636000Y-118503440D01*
X135871317Y-118459162D01*
X136087441Y-118320090D01*
X136232431Y-118107890D01*
X136283440Y-117856000D01*
X136283440Y-115824000D01*
X136239162Y-115588683D01*
X136100090Y-115372559D01*
X135937052Y-115261160D01*
X136026385Y-115164818D01*
X136225975Y-114682944D01*
X136106836Y-114427000D01*
X134747000Y-114427000D01*
X134747000Y-114447000D01*
X134493000Y-114447000D01*
X134493000Y-114427000D01*
X133133164Y-114427000D01*
X133014025Y-114682944D01*
X133213615Y-115164818D01*
X133304097Y-115262398D01*
X133152559Y-115359910D01*
X133007569Y-115572110D01*
X132956560Y-115824000D01*
X123063000Y-115824000D01*
X123063000Y-113917056D01*
X133014025Y-113917056D01*
X133133164Y-114173000D01*
X134493000Y-114173000D01*
X134493000Y-112812633D01*
X134747000Y-112812633D01*
X134747000Y-114173000D01*
X136106836Y-114173000D01*
X136225975Y-113917056D01*
X136026385Y-113435182D01*
X135588379Y-112962812D01*
X135002946Y-112694017D01*
X134747000Y-112812633D01*
X134493000Y-112812633D01*
X134237054Y-112694017D01*
X133651621Y-112962812D01*
X133213615Y-113435182D01*
X133014025Y-113917056D01*
X123063000Y-113917056D01*
X123063000Y-104425750D01*
X130581400Y-104425750D01*
X130581400Y-105282309D01*
X130678073Y-105515698D01*
X130856701Y-105694327D01*
X131090090Y-105791000D01*
X131794250Y-105791000D01*
X131953000Y-105632250D01*
X131953000Y-104267000D01*
X130740150Y-104267000D01*
X130581400Y-104425750D01*
X123063000Y-104425750D01*
X123063000Y-102997691D01*
X130581400Y-102997691D01*
X130581400Y-103854250D01*
X130740150Y-104013000D01*
X131953000Y-104013000D01*
X131953000Y-102647750D01*
X131794250Y-102489000D01*
X131090090Y-102489000D01*
X130856701Y-102585673D01*
X130678073Y-102764302D01*
X130581400Y-102997691D01*
X123063000Y-102997691D01*
X123063000Y-96805750D01*
X130581400Y-96805750D01*
X130581400Y-97662309D01*
X130678073Y-97895698D01*
X130856701Y-98074327D01*
X131090090Y-98171000D01*
X131794250Y-98171000D01*
X131953000Y-98012250D01*
X131953000Y-96647000D01*
X130740150Y-96647000D01*
X130581400Y-96805750D01*
X123063000Y-96805750D01*
X123063000Y-95377691D01*
X130581400Y-95377691D01*
X130581400Y-96234250D01*
X130740150Y-96393000D01*
X131953000Y-96393000D01*
X131953000Y-95027750D01*
X132207000Y-95027750D01*
X132207000Y-96393000D01*
X132227000Y-96393000D01*
X132227000Y-96647000D01*
X132207000Y-96647000D01*
X132207000Y-98012250D01*
X132365750Y-98171000D01*
X133069910Y-98171000D01*
X133303299Y-98074327D01*
X133481927Y-97895698D01*
X133545500Y-97742220D01*
X133560330Y-97764415D01*
X134046511Y-98089271D01*
X134620000Y-98203345D01*
X135193489Y-98089271D01*
X135547036Y-97853038D01*
X136936299Y-99242301D01*
X137182861Y-99407048D01*
X137473700Y-99464900D01*
X149639098Y-99464900D01*
X152700778Y-102526580D01*
X152700738Y-102572067D01*
X152842783Y-102915843D01*
X153105573Y-103179092D01*
X153449101Y-103321738D01*
X153821067Y-103322062D01*
X154164843Y-103180017D01*
X154205965Y-103138967D01*
X155824400Y-104757402D01*
X155824400Y-106577237D01*
X155792208Y-106609373D01*
X155649562Y-106952901D01*
X155649238Y-107324867D01*
X155791283Y-107668643D01*
X156054073Y-107931892D01*
X156397601Y-108074538D01*
X156469400Y-108074601D01*
X156469400Y-109635166D01*
X156325357Y-109694683D01*
X156062108Y-109957473D01*
X155919462Y-110301001D01*
X155919138Y-110672967D01*
X156061183Y-111016743D01*
X156323973Y-111279992D01*
X156667501Y-111422638D01*
X157039467Y-111422962D01*
X157227100Y-111345434D01*
X157227100Y-115512298D01*
X143822381Y-102107579D01*
X143923345Y-101600000D01*
X143797670Y-100968190D01*
X143439778Y-100432567D01*
X142904155Y-100074675D01*
X142272345Y-99949000D01*
X142207655Y-99949000D01*
X141575845Y-100074675D01*
X141040222Y-100432567D01*
X140682330Y-100968190D01*
X140556655Y-101600000D01*
X140682330Y-102231810D01*
X140909499Y-102571792D01*
X140772559Y-102659910D01*
X140627569Y-102872110D01*
X140576560Y-103124000D01*
X140576560Y-105156000D01*
X140591291Y-105234289D01*
X138959601Y-103602599D01*
X138713039Y-103437852D01*
X138549200Y-103405262D01*
X138544526Y-103381766D01*
X138219670Y-102895585D01*
X137733489Y-102570729D01*
X137160000Y-102456655D01*
X136586511Y-102570729D01*
X136100330Y-102895585D01*
X135890000Y-103210366D01*
X135679670Y-102895585D01*
X135193489Y-102570729D01*
X134620000Y-102456655D01*
X134046511Y-102570729D01*
X133560330Y-102895585D01*
X133545500Y-102917780D01*
X133481927Y-102764302D01*
X133303299Y-102585673D01*
X133069910Y-102489000D01*
X132365750Y-102489000D01*
X132207000Y-102647750D01*
X132207000Y-104013000D01*
X132227000Y-104013000D01*
X132227000Y-104267000D01*
X132207000Y-104267000D01*
X132207000Y-105632250D01*
X132365750Y-105791000D01*
X133069910Y-105791000D01*
X133303299Y-105694327D01*
X133481927Y-105515698D01*
X133545500Y-105362220D01*
X133560330Y-105384415D01*
X134046511Y-105709271D01*
X134620000Y-105823345D01*
X135193489Y-105709271D01*
X135547036Y-105473038D01*
X152648899Y-122574901D01*
X152895461Y-122739648D01*
X153186300Y-122797500D01*
X154214198Y-122797500D01*
X154064299Y-122947399D01*
X153899552Y-123193961D01*
X153841700Y-123484800D01*
X153841700Y-126717100D01*
X153899552Y-127007939D01*
X154064299Y-127254501D01*
X155134678Y-128324880D01*
X155134638Y-128370367D01*
X155276683Y-128714143D01*
X155539473Y-128977392D01*
X155883001Y-129120038D01*
X156254967Y-129120362D01*
X156598743Y-128978317D01*
X156861992Y-128715527D01*
X157004638Y-128371999D01*
X157004962Y-128000033D01*
X156862917Y-127656257D01*
X156600127Y-127393008D01*
X156256599Y-127250362D01*
X156209723Y-127250321D01*
X155361700Y-126402298D01*
X155361700Y-125726357D01*
X155580100Y-125769800D01*
X159768000Y-125769800D01*
X159768000Y-132152469D01*
X159737697Y-132164990D01*
X159344371Y-132557630D01*
X159131243Y-133070900D01*
X159130758Y-133626661D01*
X159167837Y-133716400D01*
X143600102Y-133716400D01*
X138886301Y-129002599D01*
X138639739Y-128837852D01*
X138464646Y-128803024D01*
X138249029Y-128480330D01*
X137762848Y-128155474D01*
X137189359Y-128041400D01*
X137130641Y-128041400D01*
X136557152Y-128155474D01*
X136091558Y-128466574D01*
X136086762Y-128441083D01*
X135947690Y-128224959D01*
X135735490Y-128079969D01*
X135483600Y-128028960D01*
X133756400Y-128028960D01*
X133521083Y-128073238D01*
X133304959Y-128212310D01*
X133159969Y-128424510D01*
X133108960Y-128676400D01*
X133108960Y-130403600D01*
X133153238Y-130638917D01*
X133292310Y-130855041D01*
X133504510Y-131000031D01*
X133598375Y-131019039D01*
X133337312Y-131305053D01*
X133165042Y-131720974D01*
X133286183Y-131953000D01*
X134493000Y-131953000D01*
X134493000Y-131933000D01*
X134747000Y-131933000D01*
X134747000Y-131953000D01*
X137033000Y-131953000D01*
X137033000Y-131933000D01*
X137287000Y-131933000D01*
X137287000Y-131953000D01*
X138493817Y-131953000D01*
X138614958Y-131720974D01*
X138442688Y-131305053D01*
X138048490Y-130873179D01*
X137925772Y-130815664D01*
X138249029Y-130599670D01*
X138282971Y-130548873D01*
X142747899Y-135013801D01*
X142994461Y-135178548D01*
X143285300Y-135236400D01*
X158016749Y-135236400D01*
X157861243Y-135610900D01*
X157860758Y-136166661D01*
X158072990Y-136680303D01*
X158465630Y-137073629D01*
X158978900Y-137286757D01*
X159534661Y-137287242D01*
X160048303Y-137075010D01*
X160441629Y-136682370D01*
X160527949Y-136474488D01*
X160612990Y-136680303D01*
X161005630Y-137073629D01*
X161518900Y-137286757D01*
X162074661Y-137287242D01*
X162588303Y-137075010D01*
X162793457Y-136870213D01*
X163537392Y-136870213D01*
X163606857Y-137112397D01*
X164130302Y-137299144D01*
X164685368Y-137271362D01*
X165069143Y-137112397D01*
X165138608Y-136870213D01*
X164338000Y-136069605D01*
X163537392Y-136870213D01*
X162793457Y-136870213D01*
X162981629Y-136682370D01*
X163061395Y-136490273D01*
X163115603Y-136621143D01*
X163357787Y-136690608D01*
X164158395Y-135890000D01*
X164144253Y-135875858D01*
X164323858Y-135696253D01*
X164338000Y-135710395D01*
X164352143Y-135696253D01*
X164531748Y-135875858D01*
X164517605Y-135890000D01*
X165318213Y-136690608D01*
X165560397Y-136621143D01*
X165636395Y-136408123D01*
X167829728Y-136408123D01*
X169164000Y-137742395D01*
X170498272Y-136408123D01*
X170338505Y-136089368D01*
X169547783Y-135779405D01*
X168698634Y-135795633D01*
X167989495Y-136089368D01*
X167829728Y-136408123D01*
X165636395Y-136408123D01*
X165747144Y-136097698D01*
X165719362Y-135542632D01*
X165592434Y-135236200D01*
X177943800Y-135236200D01*
X178234639Y-135178348D01*
X178481201Y-135013601D01*
X178874802Y-134620000D01*
X186276655Y-134620000D01*
X186390729Y-135193489D01*
X186715585Y-135679670D01*
X187201766Y-136004526D01*
X187775255Y-136118600D01*
X188144745Y-136118600D01*
X188718234Y-136004526D01*
X189204415Y-135679670D01*
X189529271Y-135193489D01*
X189643345Y-134620000D01*
X189529271Y-134046511D01*
X189204415Y-133560330D01*
X188894931Y-133353539D01*
X189310732Y-132982036D01*
X189564709Y-132454791D01*
X189567358Y-132439026D01*
X189446217Y-132207000D01*
X188087000Y-132207000D01*
X188087000Y-132227000D01*
X187833000Y-132227000D01*
X187833000Y-132207000D01*
X186473783Y-132207000D01*
X186352642Y-132439026D01*
X186355291Y-132454791D01*
X186609268Y-132982036D01*
X187025069Y-133353539D01*
X186715585Y-133560330D01*
X186390729Y-134046511D01*
X186276655Y-134620000D01*
X178874802Y-134620000D01*
X186312848Y-127181954D01*
X186390729Y-127573489D01*
X186715585Y-128059670D01*
X187030366Y-128270000D01*
X186715585Y-128480330D01*
X186390729Y-128966511D01*
X186276655Y-129540000D01*
X186390729Y-130113489D01*
X186715585Y-130599670D01*
X187025069Y-130806461D01*
X186609268Y-131177964D01*
X186355291Y-131705209D01*
X186352642Y-131720974D01*
X186473783Y-131953000D01*
X187833000Y-131953000D01*
X187833000Y-131933000D01*
X188087000Y-131933000D01*
X188087000Y-131953000D01*
X189446217Y-131953000D01*
X189567358Y-131720974D01*
X189564709Y-131705209D01*
X189310732Y-131177964D01*
X188894931Y-130806461D01*
X189204415Y-130599670D01*
X189529271Y-130113489D01*
X189643345Y-129540000D01*
X189529271Y-128966511D01*
X189204415Y-128480330D01*
X188889634Y-128270000D01*
X189204415Y-128059670D01*
X189529271Y-127573489D01*
X189643345Y-127000000D01*
X189529271Y-126426511D01*
X189204415Y-125940330D01*
X189190087Y-125930757D01*
X189211317Y-125926762D01*
X189427441Y-125787690D01*
X189572431Y-125575490D01*
X189623440Y-125323600D01*
X189623440Y-123596400D01*
X189579162Y-123361083D01*
X189440090Y-123144959D01*
X189227890Y-122999969D01*
X188976000Y-122948960D01*
X186944000Y-122948960D01*
X186708683Y-122993238D01*
X186492559Y-123132310D01*
X186347569Y-123344510D01*
X186296560Y-123596400D01*
X186296560Y-125069497D01*
X186233699Y-125111499D01*
X177628998Y-133716200D01*
X166968590Y-133716200D01*
X167004757Y-133629100D01*
X167005242Y-133073339D01*
X166793010Y-132559697D01*
X166400370Y-132166371D01*
X165887100Y-131953243D01*
X165331339Y-131952758D01*
X164817697Y-132164990D01*
X164424371Y-132557630D01*
X164338051Y-132765512D01*
X164253010Y-132559697D01*
X163860370Y-132166371D01*
X163347100Y-131953243D01*
X162791339Y-131952758D01*
X162277697Y-132164990D01*
X161884371Y-132557630D01*
X161798051Y-132765512D01*
X161713010Y-132559697D01*
X161320370Y-132166371D01*
X161288000Y-132152930D01*
X161288000Y-125721761D01*
X161435773Y-125869792D01*
X161779301Y-126012438D01*
X162151267Y-126012762D01*
X162495043Y-125870717D01*
X162758292Y-125607927D01*
X162900938Y-125264399D01*
X162901262Y-124892433D01*
X162759217Y-124548657D01*
X162726100Y-124515482D01*
X162726100Y-118951000D01*
X162697449Y-118806962D01*
X162697662Y-118562233D01*
X162555617Y-118218457D01*
X162292827Y-117955208D01*
X161949299Y-117812562D01*
X161577333Y-117812238D01*
X161233557Y-117954283D01*
X160970308Y-118217073D01*
X160827662Y-118560601D01*
X160827338Y-118932567D01*
X160969383Y-119276343D01*
X161206100Y-119513473D01*
X161206100Y-120171198D01*
X158747100Y-117712198D01*
X158747100Y-108222267D01*
X166470838Y-108222267D01*
X166612883Y-108566043D01*
X166875673Y-108829292D01*
X167219201Y-108971938D01*
X167591167Y-108972262D01*
X167934943Y-108830217D01*
X168198192Y-108567427D01*
X168340838Y-108223899D01*
X168340879Y-108177023D01*
X169837902Y-106680000D01*
X186276655Y-106680000D01*
X186390729Y-107253489D01*
X186715585Y-107739670D01*
X187201766Y-108064526D01*
X187775255Y-108178600D01*
X188144745Y-108178600D01*
X188718234Y-108064526D01*
X189204415Y-107739670D01*
X189529271Y-107253489D01*
X189643345Y-106680000D01*
X189529271Y-106106511D01*
X189204415Y-105620330D01*
X188894931Y-105413539D01*
X189310732Y-105042036D01*
X189564709Y-104514791D01*
X189567358Y-104499026D01*
X189446217Y-104267000D01*
X188087000Y-104267000D01*
X188087000Y-104287000D01*
X187833000Y-104287000D01*
X187833000Y-104267000D01*
X186473783Y-104267000D01*
X186352642Y-104499026D01*
X186355291Y-104514791D01*
X186609268Y-105042036D01*
X187025069Y-105413539D01*
X186715585Y-105620330D01*
X186390729Y-106106511D01*
X186276655Y-106680000D01*
X169837902Y-106680000D01*
X174527401Y-101990501D01*
X174692148Y-101743939D01*
X174750000Y-101453100D01*
X174750000Y-95441283D01*
X175189778Y-95147433D01*
X175547670Y-94611810D01*
X175673345Y-93980000D01*
X175547670Y-93348190D01*
X175323034Y-93011999D01*
X175365698Y-92994327D01*
X175544327Y-92815699D01*
X175641000Y-92582310D01*
X175641000Y-92380467D01*
X180170038Y-92380467D01*
X180312083Y-92724243D01*
X180345200Y-92757418D01*
X180345200Y-103362200D01*
X180403052Y-103653039D01*
X180567799Y-103899601D01*
X180947878Y-104279680D01*
X180947838Y-104325167D01*
X181089883Y-104668943D01*
X181352673Y-104932192D01*
X181696201Y-105074838D01*
X182068167Y-105075162D01*
X182411943Y-104933117D01*
X182675192Y-104670327D01*
X182817838Y-104326799D01*
X182818162Y-103954833D01*
X182676117Y-103611057D01*
X182413327Y-103347808D01*
X182069799Y-103205162D01*
X182022923Y-103205121D01*
X181865200Y-103047398D01*
X181865200Y-101959026D01*
X186352642Y-101959026D01*
X186355291Y-101974791D01*
X186609268Y-102502036D01*
X187021108Y-102870000D01*
X186609268Y-103237964D01*
X186355291Y-103765209D01*
X186352642Y-103780974D01*
X186473783Y-104013000D01*
X187833000Y-104013000D01*
X187833000Y-101727000D01*
X188087000Y-101727000D01*
X188087000Y-104013000D01*
X189446217Y-104013000D01*
X189567358Y-103780974D01*
X189564709Y-103765209D01*
X189310732Y-103237964D01*
X188898892Y-102870000D01*
X189310732Y-102502036D01*
X189564709Y-101974791D01*
X189567358Y-101959026D01*
X189446217Y-101727000D01*
X188087000Y-101727000D01*
X187833000Y-101727000D01*
X186473783Y-101727000D01*
X186352642Y-101959026D01*
X181865200Y-101959026D01*
X181865200Y-98196400D01*
X186296560Y-98196400D01*
X186296560Y-99923600D01*
X186340838Y-100158917D01*
X186479910Y-100375041D01*
X186692110Y-100520031D01*
X186786927Y-100539232D01*
X186609268Y-100697964D01*
X186355291Y-101225209D01*
X186352642Y-101240974D01*
X186473783Y-101473000D01*
X187833000Y-101473000D01*
X187833000Y-101453000D01*
X188087000Y-101453000D01*
X188087000Y-101473000D01*
X189446217Y-101473000D01*
X189567358Y-101240974D01*
X189564709Y-101225209D01*
X189310732Y-100697964D01*
X189135155Y-100541093D01*
X189211317Y-100526762D01*
X189427441Y-100387690D01*
X189572431Y-100175490D01*
X189623440Y-99923600D01*
X189623440Y-98196400D01*
X189579162Y-97961083D01*
X189440090Y-97744959D01*
X189227890Y-97599969D01*
X188976000Y-97548960D01*
X186944000Y-97548960D01*
X186708683Y-97593238D01*
X186492559Y-97732310D01*
X186347569Y-97944510D01*
X186296560Y-98196400D01*
X181865200Y-98196400D01*
X181865200Y-92757763D01*
X181897392Y-92725627D01*
X182040038Y-92382099D01*
X182040362Y-92010133D01*
X181898317Y-91666357D01*
X181635527Y-91403108D01*
X181291999Y-91260462D01*
X180920033Y-91260138D01*
X180576257Y-91402183D01*
X180313008Y-91664973D01*
X180170362Y-92008501D01*
X180170038Y-92380467D01*
X175641000Y-92380467D01*
X175641000Y-91725750D01*
X175482250Y-91567000D01*
X174117000Y-91567000D01*
X174117000Y-91587000D01*
X173863000Y-91587000D01*
X173863000Y-91567000D01*
X172497750Y-91567000D01*
X172339000Y-91725750D01*
X172339000Y-92582310D01*
X172435673Y-92815699D01*
X172614302Y-92994327D01*
X172656966Y-93011999D01*
X172432330Y-93348190D01*
X172306655Y-93980000D01*
X172432330Y-94611810D01*
X172790222Y-95147433D01*
X173230000Y-95441283D01*
X173230000Y-101138298D01*
X167266320Y-107101978D01*
X167220833Y-107101938D01*
X166877057Y-107243983D01*
X166613808Y-107506773D01*
X166471162Y-107850301D01*
X166470838Y-108222267D01*
X158747100Y-108222267D01*
X158747100Y-100247300D01*
X158770977Y-100237434D01*
X159161084Y-99848007D01*
X159257115Y-99616739D01*
X159351826Y-99845957D01*
X159741253Y-100236064D01*
X160250324Y-100447449D01*
X160801538Y-100447930D01*
X161310977Y-100237434D01*
X161543203Y-100005613D01*
X161773253Y-100236064D01*
X162282324Y-100447449D01*
X162833538Y-100447930D01*
X163342977Y-100237434D01*
X163546716Y-100034050D01*
X164306815Y-100034050D01*
X164374875Y-100275051D01*
X164894174Y-100459887D01*
X165444678Y-100431925D01*
X165823405Y-100275051D01*
X165891465Y-100034050D01*
X165099140Y-99241725D01*
X164306815Y-100034050D01*
X163546716Y-100034050D01*
X163733084Y-99848007D01*
X163822519Y-99632624D01*
X163886209Y-99786385D01*
X164127210Y-99854445D01*
X164919535Y-99062120D01*
X165278745Y-99062120D01*
X166071070Y-99854445D01*
X166312071Y-99786385D01*
X166496907Y-99267086D01*
X166468945Y-98716582D01*
X166312071Y-98337855D01*
X166071070Y-98269795D01*
X165278745Y-99062120D01*
X164919535Y-99062120D01*
X164127210Y-98269795D01*
X163886209Y-98337855D01*
X163827371Y-98503160D01*
X163734454Y-98278283D01*
X163546689Y-98090190D01*
X164306815Y-98090190D01*
X165099140Y-98882515D01*
X165891465Y-98090190D01*
X165823405Y-97849189D01*
X165304106Y-97664353D01*
X164753602Y-97692315D01*
X164374875Y-97849189D01*
X164306815Y-98090190D01*
X163546689Y-98090190D01*
X163345027Y-97888176D01*
X162835956Y-97676791D01*
X162284742Y-97676310D01*
X161775303Y-97886806D01*
X161543077Y-98118627D01*
X161313027Y-97888176D01*
X160803956Y-97676791D01*
X160252742Y-97676310D01*
X159743303Y-97886806D01*
X159353196Y-98276233D01*
X159257165Y-98507501D01*
X159162454Y-98278283D01*
X158773027Y-97888176D01*
X158263956Y-97676791D01*
X157712742Y-97676310D01*
X157203303Y-97886806D01*
X156813196Y-98276233D01*
X156601811Y-98785304D01*
X156601330Y-99336518D01*
X156811826Y-99845957D01*
X157201253Y-100236064D01*
X157227100Y-100246797D01*
X157227100Y-100570998D01*
X155186309Y-98530207D01*
X155361929Y-98530360D01*
X156146867Y-98206030D01*
X156747940Y-97606006D01*
X157073639Y-96821635D01*
X157073642Y-96817909D01*
X166519900Y-96817909D01*
X166844230Y-97602847D01*
X167444254Y-98203920D01*
X168228625Y-98529619D01*
X169077929Y-98530360D01*
X169862867Y-98206030D01*
X170463940Y-97606006D01*
X170789639Y-96821635D01*
X170790380Y-95972331D01*
X170466050Y-95187393D01*
X169866026Y-94586320D01*
X169081655Y-94260621D01*
X168232351Y-94259880D01*
X167447413Y-94584210D01*
X166846340Y-95184234D01*
X166520641Y-95968605D01*
X166519900Y-96817909D01*
X157073642Y-96817909D01*
X157074380Y-95972331D01*
X156750050Y-95187393D01*
X156150026Y-94586320D01*
X155365655Y-94260621D01*
X154516351Y-94259880D01*
X153731413Y-94584210D01*
X153130340Y-95184234D01*
X152861100Y-95832637D01*
X152861100Y-93840300D01*
X152803248Y-93549461D01*
X152803248Y-93549460D01*
X152638501Y-93302899D01*
X151436801Y-92101199D01*
X151190239Y-91936452D01*
X150899400Y-91878600D01*
X148661400Y-91878600D01*
X148370561Y-91936452D01*
X148123999Y-92101199D01*
X147827579Y-92397619D01*
X147320000Y-92296655D01*
X146746511Y-92410729D01*
X146260330Y-92735585D01*
X146053539Y-93045069D01*
X145682036Y-92629268D01*
X145154791Y-92375291D01*
X145139026Y-92372642D01*
X144907000Y-92493783D01*
X144907000Y-93853000D01*
X144927000Y-93853000D01*
X144927000Y-94107000D01*
X144907000Y-94107000D01*
X144907000Y-95466217D01*
X145139026Y-95587358D01*
X145154791Y-95584709D01*
X145682036Y-95330732D01*
X146053539Y-94914931D01*
X146260330Y-95224415D01*
X146626989Y-95469409D01*
X146336398Y-95760000D01*
X141083346Y-95760000D01*
X140759670Y-95275585D01*
X140273489Y-94950729D01*
X139700000Y-94836655D01*
X139126511Y-94950729D01*
X138640330Y-95275585D01*
X138430000Y-95590366D01*
X138219670Y-95275585D01*
X137733489Y-94950729D01*
X137160000Y-94836655D01*
X136586511Y-94950729D01*
X136100330Y-95275585D01*
X135890000Y-95590366D01*
X135679670Y-95275585D01*
X135193489Y-94950729D01*
X134620000Y-94836655D01*
X134046511Y-94950729D01*
X133560330Y-95275585D01*
X133545500Y-95297780D01*
X133481927Y-95144302D01*
X133303299Y-94965673D01*
X133069910Y-94869000D01*
X132365750Y-94869000D01*
X132207000Y-95027750D01*
X131953000Y-95027750D01*
X131794250Y-94869000D01*
X131090090Y-94869000D01*
X130856701Y-94965673D01*
X130678073Y-95144302D01*
X130581400Y-95377691D01*
X123063000Y-95377691D01*
X123063000Y-94341913D01*
X143294816Y-94341913D01*
X143488046Y-94894320D01*
X143877964Y-95330732D01*
X144405209Y-95584709D01*
X144420974Y-95587358D01*
X144653000Y-95466217D01*
X144653000Y-94107000D01*
X143439076Y-94107000D01*
X143294816Y-94341913D01*
X123063000Y-94341913D01*
X123063000Y-93618087D01*
X143294816Y-93618087D01*
X143439076Y-93853000D01*
X144653000Y-93853000D01*
X144653000Y-92493783D01*
X144420974Y-92372642D01*
X144405209Y-92375291D01*
X143877964Y-92629268D01*
X143488046Y-93065680D01*
X143294816Y-93618087D01*
X123063000Y-93618087D01*
X123063000Y-90699290D01*
X123467709Y-91678761D01*
X124217293Y-92429655D01*
X125197173Y-92836536D01*
X126258172Y-92837462D01*
X127238761Y-92432291D01*
X127989655Y-91682707D01*
X128396536Y-90702827D01*
X128396889Y-90297690D01*
X172339000Y-90297690D01*
X172339000Y-91154250D01*
X172497750Y-91313000D01*
X173863000Y-91313000D01*
X173863000Y-89947750D01*
X174117000Y-89947750D01*
X174117000Y-91313000D01*
X175482250Y-91313000D01*
X175641000Y-91154250D01*
X175641000Y-90297690D01*
X175544327Y-90064301D01*
X175365698Y-89885673D01*
X175132309Y-89789000D01*
X174275750Y-89789000D01*
X174117000Y-89947750D01*
X173863000Y-89947750D01*
X173704250Y-89789000D01*
X172847691Y-89789000D01*
X172614302Y-89885673D01*
X172435673Y-90064301D01*
X172339000Y-90297690D01*
X128396889Y-90297690D01*
X128397462Y-89641828D01*
X127992291Y-88661239D01*
X127242707Y-87910345D01*
X126262827Y-87503464D01*
X125731182Y-87503000D01*
X196320710Y-87503000D01*
X195341239Y-87907709D01*
X195341239Y-87907709D01*
G37*
X195341239Y-87907709D02*
X194590345Y-88657293D01*
X194183464Y-89637173D01*
X194182538Y-90698172D01*
X194587709Y-91678761D01*
X195337293Y-92429655D01*
X196317173Y-92836536D01*
X197378172Y-92837462D01*
X198358761Y-92432291D01*
X199109655Y-91682707D01*
X199516536Y-90702827D01*
X199517000Y-90171182D01*
X199517000Y-140440710D01*
X199112291Y-139461239D01*
X198362707Y-138710345D01*
X197382827Y-138303464D01*
X196321828Y-138302538D01*
X195341239Y-138707709D01*
X194590345Y-139457293D01*
X194183464Y-140437173D01*
X194182538Y-141498172D01*
X194587709Y-142478761D01*
X195337293Y-143229655D01*
X196317173Y-143636536D01*
X196848818Y-143637000D01*
X126259290Y-143637000D01*
X127238761Y-143232291D01*
X127989655Y-142482707D01*
X128396536Y-141502827D01*
X128397462Y-140441828D01*
X127992291Y-139461239D01*
X127966974Y-139435877D01*
X154367728Y-139435877D01*
X154527495Y-139754632D01*
X155318217Y-140064595D01*
X156167366Y-140048367D01*
X156876505Y-139754632D01*
X157036272Y-139435877D01*
X167829728Y-139435877D01*
X167989495Y-139754632D01*
X168780217Y-140064595D01*
X169629366Y-140048367D01*
X170338505Y-139754632D01*
X170498272Y-139435877D01*
X169164000Y-138101605D01*
X167829728Y-139435877D01*
X157036272Y-139435877D01*
X155702000Y-138101605D01*
X154367728Y-139435877D01*
X127966974Y-139435877D01*
X127242707Y-138710345D01*
X126262827Y-138303464D01*
X125201828Y-138302538D01*
X124221239Y-138707709D01*
X123470345Y-139457293D01*
X123063464Y-140437173D01*
X123063000Y-140968818D01*
X123063000Y-137538217D01*
X153559405Y-137538217D01*
X153575633Y-138387366D01*
X153869368Y-139096505D01*
X154188123Y-139256272D01*
X155522395Y-137922000D01*
X155881605Y-137922000D01*
X157215877Y-139256272D01*
X157534632Y-139096505D01*
X157844595Y-138305783D01*
X157829927Y-137538217D01*
X167021405Y-137538217D01*
X167037633Y-138387366D01*
X167331368Y-139096505D01*
X167650123Y-139256272D01*
X168984395Y-137922000D01*
X169343605Y-137922000D01*
X170677877Y-139256272D01*
X170996632Y-139096505D01*
X171158333Y-138684000D01*
X186296560Y-138684000D01*
X186296560Y-140716000D01*
X186340838Y-140951317D01*
X186479910Y-141167441D01*
X186692110Y-141312431D01*
X186944000Y-141363440D01*
X188976000Y-141363440D01*
X189211317Y-141319162D01*
X189427441Y-141180090D01*
X189538840Y-141017052D01*
X189635182Y-141106385D01*
X190117056Y-141305975D01*
X190373000Y-141186836D01*
X190373000Y-139827000D01*
X190627000Y-139827000D01*
X190627000Y-141186836D01*
X190882944Y-141305975D01*
X191364818Y-141106385D01*
X191837188Y-140668379D01*
X192105983Y-140082946D01*
X191987367Y-139827000D01*
X190627000Y-139827000D01*
X190373000Y-139827000D01*
X190353000Y-139827000D01*
X190353000Y-139573000D01*
X190373000Y-139573000D01*
X190373000Y-138213164D01*
X190627000Y-138213164D01*
X190627000Y-139573000D01*
X191987367Y-139573000D01*
X192105983Y-139317054D01*
X191837188Y-138731621D01*
X191364818Y-138293615D01*
X190882944Y-138094025D01*
X190627000Y-138213164D01*
X190373000Y-138213164D01*
X190117056Y-138094025D01*
X189635182Y-138293615D01*
X189537602Y-138384097D01*
X189440090Y-138232559D01*
X189227890Y-138087569D01*
X188976000Y-138036560D01*
X186944000Y-138036560D01*
X186708683Y-138080838D01*
X186492559Y-138219910D01*
X186347569Y-138432110D01*
X186296560Y-138684000D01*
X171158333Y-138684000D01*
X171306595Y-138305783D01*
X171290367Y-137456634D01*
X170996632Y-136747495D01*
X170677877Y-136587728D01*
X169343605Y-137922000D01*
X168984395Y-137922000D01*
X167650123Y-136587728D01*
X167331368Y-136747495D01*
X167021405Y-137538217D01*
X157829927Y-137538217D01*
X157828367Y-137456634D01*
X157534632Y-136747495D01*
X157215877Y-136587728D01*
X155881605Y-137922000D01*
X155522395Y-137922000D01*
X154188123Y-136587728D01*
X153869368Y-136747495D01*
X153559405Y-137538217D01*
X123063000Y-137538217D01*
X123063000Y-136408123D01*
X154367728Y-136408123D01*
X155702000Y-137742395D01*
X157036272Y-136408123D01*
X156876505Y-136089368D01*
X156085783Y-135779405D01*
X155236634Y-135795633D01*
X154527495Y-136089368D01*
X154367728Y-136408123D01*
X123063000Y-136408123D01*
X123063000Y-134620000D01*
X133092041Y-134620000D01*
X133206115Y-135193489D01*
X133530971Y-135679670D01*
X134017152Y-136004526D01*
X134590641Y-136118600D01*
X134649359Y-136118600D01*
X135222848Y-136004526D01*
X135709029Y-135679670D01*
X135890000Y-135408828D01*
X136070971Y-135679670D01*
X136557152Y-136004526D01*
X137130641Y-136118600D01*
X137189359Y-136118600D01*
X137762848Y-136004526D01*
X138249029Y-135679670D01*
X138573885Y-135193489D01*
X138687959Y-134620000D01*
X138573885Y-134046511D01*
X138249029Y-133560330D01*
X137925772Y-133344336D01*
X138048490Y-133286821D01*
X138442688Y-132854947D01*
X138614958Y-132439026D01*
X138493817Y-132207000D01*
X137287000Y-132207000D01*
X137287000Y-132227000D01*
X137033000Y-132227000D01*
X137033000Y-132207000D01*
X134747000Y-132207000D01*
X134747000Y-132227000D01*
X134493000Y-132227000D01*
X134493000Y-132207000D01*
X133286183Y-132207000D01*
X133165042Y-132439026D01*
X133337312Y-132854947D01*
X133731510Y-133286821D01*
X133854228Y-133344336D01*
X133530971Y-133560330D01*
X133206115Y-134046511D01*
X133092041Y-134620000D01*
X123063000Y-134620000D01*
X123063000Y-128152163D01*
X126027443Y-128152163D01*
X126126042Y-128418965D01*
X126735582Y-128645401D01*
X127385377Y-128621341D01*
X127873958Y-128418965D01*
X127972557Y-128152163D01*
X127000000Y-127179605D01*
X126027443Y-128152163D01*
X123063000Y-128152163D01*
X123063000Y-126735582D01*
X125354599Y-126735582D01*
X125378659Y-127385377D01*
X125581035Y-127873958D01*
X125847837Y-127972557D01*
X126820395Y-127000000D01*
X127179605Y-127000000D01*
X128152163Y-127972557D01*
X128418965Y-127873958D01*
X128645401Y-127264418D01*
X128621341Y-126614623D01*
X128418965Y-126126042D01*
X128152163Y-126027443D01*
X127179605Y-127000000D01*
X126820395Y-127000000D01*
X125847837Y-126027443D01*
X125581035Y-126126042D01*
X125354599Y-126735582D01*
X123063000Y-126735582D01*
X123063000Y-125847837D01*
X126027443Y-125847837D01*
X127000000Y-126820395D01*
X127972557Y-125847837D01*
X127873958Y-125581035D01*
X127264418Y-125354599D01*
X126614623Y-125378659D01*
X126126042Y-125581035D01*
X126027443Y-125847837D01*
X123063000Y-125847837D01*
X123063000Y-115824000D01*
X132956560Y-115824000D01*
X132956560Y-117856000D01*
X133000838Y-118091317D01*
X133139910Y-118307441D01*
X133352110Y-118452431D01*
X133604000Y-118503440D01*
X135636000Y-118503440D01*
X135871317Y-118459162D01*
X136087441Y-118320090D01*
X136232431Y-118107890D01*
X136283440Y-117856000D01*
X136283440Y-115824000D01*
X136239162Y-115588683D01*
X136100090Y-115372559D01*
X135937052Y-115261160D01*
X136026385Y-115164818D01*
X136225975Y-114682944D01*
X136106836Y-114427000D01*
X134747000Y-114427000D01*
X134747000Y-114447000D01*
X134493000Y-114447000D01*
X134493000Y-114427000D01*
X133133164Y-114427000D01*
X133014025Y-114682944D01*
X133213615Y-115164818D01*
X133304097Y-115262398D01*
X133152559Y-115359910D01*
X133007569Y-115572110D01*
X132956560Y-115824000D01*
X123063000Y-115824000D01*
X123063000Y-113917056D01*
X133014025Y-113917056D01*
X133133164Y-114173000D01*
X134493000Y-114173000D01*
X134493000Y-112812633D01*
X134747000Y-112812633D01*
X134747000Y-114173000D01*
X136106836Y-114173000D01*
X136225975Y-113917056D01*
X136026385Y-113435182D01*
X135588379Y-112962812D01*
X135002946Y-112694017D01*
X134747000Y-112812633D01*
X134493000Y-112812633D01*
X134237054Y-112694017D01*
X133651621Y-112962812D01*
X133213615Y-113435182D01*
X133014025Y-113917056D01*
X123063000Y-113917056D01*
X123063000Y-104425750D01*
X130581400Y-104425750D01*
X130581400Y-105282309D01*
X130678073Y-105515698D01*
X130856701Y-105694327D01*
X131090090Y-105791000D01*
X131794250Y-105791000D01*
X131953000Y-105632250D01*
X131953000Y-104267000D01*
X130740150Y-104267000D01*
X130581400Y-104425750D01*
X123063000Y-104425750D01*
X123063000Y-102997691D01*
X130581400Y-102997691D01*
X130581400Y-103854250D01*
X130740150Y-104013000D01*
X131953000Y-104013000D01*
X131953000Y-102647750D01*
X131794250Y-102489000D01*
X131090090Y-102489000D01*
X130856701Y-102585673D01*
X130678073Y-102764302D01*
X130581400Y-102997691D01*
X123063000Y-102997691D01*
X123063000Y-96805750D01*
X130581400Y-96805750D01*
X130581400Y-97662309D01*
X130678073Y-97895698D01*
X130856701Y-98074327D01*
X131090090Y-98171000D01*
X131794250Y-98171000D01*
X131953000Y-98012250D01*
X131953000Y-96647000D01*
X130740150Y-96647000D01*
X130581400Y-96805750D01*
X123063000Y-96805750D01*
X123063000Y-95377691D01*
X130581400Y-95377691D01*
X130581400Y-96234250D01*
X130740150Y-96393000D01*
X131953000Y-96393000D01*
X131953000Y-95027750D01*
X132207000Y-95027750D01*
X132207000Y-96393000D01*
X132227000Y-96393000D01*
X132227000Y-96647000D01*
X132207000Y-96647000D01*
X132207000Y-98012250D01*
X132365750Y-98171000D01*
X133069910Y-98171000D01*
X133303299Y-98074327D01*
X133481927Y-97895698D01*
X133545500Y-97742220D01*
X133560330Y-97764415D01*
X134046511Y-98089271D01*
X134620000Y-98203345D01*
X135193489Y-98089271D01*
X135547036Y-97853038D01*
X136936299Y-99242301D01*
X137182861Y-99407048D01*
X137473700Y-99464900D01*
X149639098Y-99464900D01*
X152700778Y-102526580D01*
X152700738Y-102572067D01*
X152842783Y-102915843D01*
X153105573Y-103179092D01*
X153449101Y-103321738D01*
X153821067Y-103322062D01*
X154164843Y-103180017D01*
X154205965Y-103138967D01*
X155824400Y-104757402D01*
X155824400Y-106577237D01*
X155792208Y-106609373D01*
X155649562Y-106952901D01*
X155649238Y-107324867D01*
X155791283Y-107668643D01*
X156054073Y-107931892D01*
X156397601Y-108074538D01*
X156469400Y-108074601D01*
X156469400Y-109635166D01*
X156325357Y-109694683D01*
X156062108Y-109957473D01*
X155919462Y-110301001D01*
X155919138Y-110672967D01*
X156061183Y-111016743D01*
X156323973Y-111279992D01*
X156667501Y-111422638D01*
X157039467Y-111422962D01*
X157227100Y-111345434D01*
X157227100Y-115512298D01*
X143822381Y-102107579D01*
X143923345Y-101600000D01*
X143797670Y-100968190D01*
X143439778Y-100432567D01*
X142904155Y-100074675D01*
X142272345Y-99949000D01*
X142207655Y-99949000D01*
X141575845Y-100074675D01*
X141040222Y-100432567D01*
X140682330Y-100968190D01*
X140556655Y-101600000D01*
X140682330Y-102231810D01*
X140909499Y-102571792D01*
X140772559Y-102659910D01*
X140627569Y-102872110D01*
X140576560Y-103124000D01*
X140576560Y-105156000D01*
X140591291Y-105234289D01*
X138959601Y-103602599D01*
X138713039Y-103437852D01*
X138549200Y-103405262D01*
X138544526Y-103381766D01*
X138219670Y-102895585D01*
X137733489Y-102570729D01*
X137160000Y-102456655D01*
X136586511Y-102570729D01*
X136100330Y-102895585D01*
X135890000Y-103210366D01*
X135679670Y-102895585D01*
X135193489Y-102570729D01*
X134620000Y-102456655D01*
X134046511Y-102570729D01*
X133560330Y-102895585D01*
X133545500Y-102917780D01*
X133481927Y-102764302D01*
X133303299Y-102585673D01*
X133069910Y-102489000D01*
X132365750Y-102489000D01*
X132207000Y-102647750D01*
X132207000Y-104013000D01*
X132227000Y-104013000D01*
X132227000Y-104267000D01*
X132207000Y-104267000D01*
X132207000Y-105632250D01*
X132365750Y-105791000D01*
X133069910Y-105791000D01*
X133303299Y-105694327D01*
X133481927Y-105515698D01*
X133545500Y-105362220D01*
X133560330Y-105384415D01*
X134046511Y-105709271D01*
X134620000Y-105823345D01*
X135193489Y-105709271D01*
X135547036Y-105473038D01*
X152648899Y-122574901D01*
X152895461Y-122739648D01*
X153186300Y-122797500D01*
X154214198Y-122797500D01*
X154064299Y-122947399D01*
X153899552Y-123193961D01*
X153841700Y-123484800D01*
X153841700Y-126717100D01*
X153899552Y-127007939D01*
X154064299Y-127254501D01*
X155134678Y-128324880D01*
X155134638Y-128370367D01*
X155276683Y-128714143D01*
X155539473Y-128977392D01*
X155883001Y-129120038D01*
X156254967Y-129120362D01*
X156598743Y-128978317D01*
X156861992Y-128715527D01*
X157004638Y-128371999D01*
X157004962Y-128000033D01*
X156862917Y-127656257D01*
X156600127Y-127393008D01*
X156256599Y-127250362D01*
X156209723Y-127250321D01*
X155361700Y-126402298D01*
X155361700Y-125726357D01*
X155580100Y-125769800D01*
X159768000Y-125769800D01*
X159768000Y-132152469D01*
X159737697Y-132164990D01*
X159344371Y-132557630D01*
X159131243Y-133070900D01*
X159130758Y-133626661D01*
X159167837Y-133716400D01*
X143600102Y-133716400D01*
X138886301Y-129002599D01*
X138639739Y-128837852D01*
X138464646Y-128803024D01*
X138249029Y-128480330D01*
X137762848Y-128155474D01*
X137189359Y-128041400D01*
X137130641Y-128041400D01*
X136557152Y-128155474D01*
X136091558Y-128466574D01*
X136086762Y-128441083D01*
X135947690Y-128224959D01*
X135735490Y-128079969D01*
X135483600Y-128028960D01*
X133756400Y-128028960D01*
X133521083Y-128073238D01*
X133304959Y-128212310D01*
X133159969Y-128424510D01*
X133108960Y-128676400D01*
X133108960Y-130403600D01*
X133153238Y-130638917D01*
X133292310Y-130855041D01*
X133504510Y-131000031D01*
X133598375Y-131019039D01*
X133337312Y-131305053D01*
X133165042Y-131720974D01*
X133286183Y-131953000D01*
X134493000Y-131953000D01*
X134493000Y-131933000D01*
X134747000Y-131933000D01*
X134747000Y-131953000D01*
X137033000Y-131953000D01*
X137033000Y-131933000D01*
X137287000Y-131933000D01*
X137287000Y-131953000D01*
X138493817Y-131953000D01*
X138614958Y-131720974D01*
X138442688Y-131305053D01*
X138048490Y-130873179D01*
X137925772Y-130815664D01*
X138249029Y-130599670D01*
X138282971Y-130548873D01*
X142747899Y-135013801D01*
X142994461Y-135178548D01*
X143285300Y-135236400D01*
X158016749Y-135236400D01*
X157861243Y-135610900D01*
X157860758Y-136166661D01*
X158072990Y-136680303D01*
X158465630Y-137073629D01*
X158978900Y-137286757D01*
X159534661Y-137287242D01*
X160048303Y-137075010D01*
X160441629Y-136682370D01*
X160527949Y-136474488D01*
X160612990Y-136680303D01*
X161005630Y-137073629D01*
X161518900Y-137286757D01*
X162074661Y-137287242D01*
X162588303Y-137075010D01*
X162793457Y-136870213D01*
X163537392Y-136870213D01*
X163606857Y-137112397D01*
X164130302Y-137299144D01*
X164685368Y-137271362D01*
X165069143Y-137112397D01*
X165138608Y-136870213D01*
X164338000Y-136069605D01*
X163537392Y-136870213D01*
X162793457Y-136870213D01*
X162981629Y-136682370D01*
X163061395Y-136490273D01*
X163115603Y-136621143D01*
X163357787Y-136690608D01*
X164158395Y-135890000D01*
X164144253Y-135875858D01*
X164323858Y-135696253D01*
X164338000Y-135710395D01*
X164352143Y-135696253D01*
X164531748Y-135875858D01*
X164517605Y-135890000D01*
X165318213Y-136690608D01*
X165560397Y-136621143D01*
X165636395Y-136408123D01*
X167829728Y-136408123D01*
X169164000Y-137742395D01*
X170498272Y-136408123D01*
X170338505Y-136089368D01*
X169547783Y-135779405D01*
X168698634Y-135795633D01*
X167989495Y-136089368D01*
X167829728Y-136408123D01*
X165636395Y-136408123D01*
X165747144Y-136097698D01*
X165719362Y-135542632D01*
X165592434Y-135236200D01*
X177943800Y-135236200D01*
X178234639Y-135178348D01*
X178481201Y-135013601D01*
X178874802Y-134620000D01*
X186276655Y-134620000D01*
X186390729Y-135193489D01*
X186715585Y-135679670D01*
X187201766Y-136004526D01*
X187775255Y-136118600D01*
X188144745Y-136118600D01*
X188718234Y-136004526D01*
X189204415Y-135679670D01*
X189529271Y-135193489D01*
X189643345Y-134620000D01*
X189529271Y-134046511D01*
X189204415Y-133560330D01*
X188894931Y-133353539D01*
X189310732Y-132982036D01*
X189564709Y-132454791D01*
X189567358Y-132439026D01*
X189446217Y-132207000D01*
X188087000Y-132207000D01*
X188087000Y-132227000D01*
X187833000Y-132227000D01*
X187833000Y-132207000D01*
X186473783Y-132207000D01*
X186352642Y-132439026D01*
X186355291Y-132454791D01*
X186609268Y-132982036D01*
X187025069Y-133353539D01*
X186715585Y-133560330D01*
X186390729Y-134046511D01*
X186276655Y-134620000D01*
X178874802Y-134620000D01*
X186312848Y-127181954D01*
X186390729Y-127573489D01*
X186715585Y-128059670D01*
X187030366Y-128270000D01*
X186715585Y-128480330D01*
X186390729Y-128966511D01*
X186276655Y-129540000D01*
X186390729Y-130113489D01*
X186715585Y-130599670D01*
X187025069Y-130806461D01*
X186609268Y-131177964D01*
X186355291Y-131705209D01*
X186352642Y-131720974D01*
X186473783Y-131953000D01*
X187833000Y-131953000D01*
X187833000Y-131933000D01*
X188087000Y-131933000D01*
X188087000Y-131953000D01*
X189446217Y-131953000D01*
X189567358Y-131720974D01*
X189564709Y-131705209D01*
X189310732Y-131177964D01*
X188894931Y-130806461D01*
X189204415Y-130599670D01*
X189529271Y-130113489D01*
X189643345Y-129540000D01*
X189529271Y-128966511D01*
X189204415Y-128480330D01*
X188889634Y-128270000D01*
X189204415Y-128059670D01*
X189529271Y-127573489D01*
X189643345Y-127000000D01*
X189529271Y-126426511D01*
X189204415Y-125940330D01*
X189190087Y-125930757D01*
X189211317Y-125926762D01*
X189427441Y-125787690D01*
X189572431Y-125575490D01*
X189623440Y-125323600D01*
X189623440Y-123596400D01*
X189579162Y-123361083D01*
X189440090Y-123144959D01*
X189227890Y-122999969D01*
X188976000Y-122948960D01*
X186944000Y-122948960D01*
X186708683Y-122993238D01*
X186492559Y-123132310D01*
X186347569Y-123344510D01*
X186296560Y-123596400D01*
X186296560Y-125069497D01*
X186233699Y-125111499D01*
X177628998Y-133716200D01*
X166968590Y-133716200D01*
X167004757Y-133629100D01*
X167005242Y-133073339D01*
X166793010Y-132559697D01*
X166400370Y-132166371D01*
X165887100Y-131953243D01*
X165331339Y-131952758D01*
X164817697Y-132164990D01*
X164424371Y-132557630D01*
X164338051Y-132765512D01*
X164253010Y-132559697D01*
X163860370Y-132166371D01*
X163347100Y-131953243D01*
X162791339Y-131952758D01*
X162277697Y-132164990D01*
X161884371Y-132557630D01*
X161798051Y-132765512D01*
X161713010Y-132559697D01*
X161320370Y-132166371D01*
X161288000Y-132152930D01*
X161288000Y-125721761D01*
X161435773Y-125869792D01*
X161779301Y-126012438D01*
X162151267Y-126012762D01*
X162495043Y-125870717D01*
X162758292Y-125607927D01*
X162900938Y-125264399D01*
X162901262Y-124892433D01*
X162759217Y-124548657D01*
X162726100Y-124515482D01*
X162726100Y-118951000D01*
X162697449Y-118806962D01*
X162697662Y-118562233D01*
X162555617Y-118218457D01*
X162292827Y-117955208D01*
X161949299Y-117812562D01*
X161577333Y-117812238D01*
X161233557Y-117954283D01*
X160970308Y-118217073D01*
X160827662Y-118560601D01*
X160827338Y-118932567D01*
X160969383Y-119276343D01*
X161206100Y-119513473D01*
X161206100Y-120171198D01*
X158747100Y-117712198D01*
X158747100Y-108222267D01*
X166470838Y-108222267D01*
X166612883Y-108566043D01*
X166875673Y-108829292D01*
X167219201Y-108971938D01*
X167591167Y-108972262D01*
X167934943Y-108830217D01*
X168198192Y-108567427D01*
X168340838Y-108223899D01*
X168340879Y-108177023D01*
X169837902Y-106680000D01*
X186276655Y-106680000D01*
X186390729Y-107253489D01*
X186715585Y-107739670D01*
X187201766Y-108064526D01*
X187775255Y-108178600D01*
X188144745Y-108178600D01*
X188718234Y-108064526D01*
X189204415Y-107739670D01*
X189529271Y-107253489D01*
X189643345Y-106680000D01*
X189529271Y-106106511D01*
X189204415Y-105620330D01*
X188894931Y-105413539D01*
X189310732Y-105042036D01*
X189564709Y-104514791D01*
X189567358Y-104499026D01*
X189446217Y-104267000D01*
X188087000Y-104267000D01*
X188087000Y-104287000D01*
X187833000Y-104287000D01*
X187833000Y-104267000D01*
X186473783Y-104267000D01*
X186352642Y-104499026D01*
X186355291Y-104514791D01*
X186609268Y-105042036D01*
X187025069Y-105413539D01*
X186715585Y-105620330D01*
X186390729Y-106106511D01*
X186276655Y-106680000D01*
X169837902Y-106680000D01*
X174527401Y-101990501D01*
X174692148Y-101743939D01*
X174750000Y-101453100D01*
X174750000Y-95441283D01*
X175189778Y-95147433D01*
X175547670Y-94611810D01*
X175673345Y-93980000D01*
X175547670Y-93348190D01*
X175323034Y-93011999D01*
X175365698Y-92994327D01*
X175544327Y-92815699D01*
X175641000Y-92582310D01*
X175641000Y-92380467D01*
X180170038Y-92380467D01*
X180312083Y-92724243D01*
X180345200Y-92757418D01*
X180345200Y-103362200D01*
X180403052Y-103653039D01*
X180567799Y-103899601D01*
X180947878Y-104279680D01*
X180947838Y-104325167D01*
X181089883Y-104668943D01*
X181352673Y-104932192D01*
X181696201Y-105074838D01*
X182068167Y-105075162D01*
X182411943Y-104933117D01*
X182675192Y-104670327D01*
X182817838Y-104326799D01*
X182818162Y-103954833D01*
X182676117Y-103611057D01*
X182413327Y-103347808D01*
X182069799Y-103205162D01*
X182022923Y-103205121D01*
X181865200Y-103047398D01*
X181865200Y-101959026D01*
X186352642Y-101959026D01*
X186355291Y-101974791D01*
X186609268Y-102502036D01*
X187021108Y-102870000D01*
X186609268Y-103237964D01*
X186355291Y-103765209D01*
X186352642Y-103780974D01*
X186473783Y-104013000D01*
X187833000Y-104013000D01*
X187833000Y-101727000D01*
X188087000Y-101727000D01*
X188087000Y-104013000D01*
X189446217Y-104013000D01*
X189567358Y-103780974D01*
X189564709Y-103765209D01*
X189310732Y-103237964D01*
X188898892Y-102870000D01*
X189310732Y-102502036D01*
X189564709Y-101974791D01*
X189567358Y-101959026D01*
X189446217Y-101727000D01*
X188087000Y-101727000D01*
X187833000Y-101727000D01*
X186473783Y-101727000D01*
X186352642Y-101959026D01*
X181865200Y-101959026D01*
X181865200Y-98196400D01*
X186296560Y-98196400D01*
X186296560Y-99923600D01*
X186340838Y-100158917D01*
X186479910Y-100375041D01*
X186692110Y-100520031D01*
X186786927Y-100539232D01*
X186609268Y-100697964D01*
X186355291Y-101225209D01*
X186352642Y-101240974D01*
X186473783Y-101473000D01*
X187833000Y-101473000D01*
X187833000Y-101453000D01*
X188087000Y-101453000D01*
X188087000Y-101473000D01*
X189446217Y-101473000D01*
X189567358Y-101240974D01*
X189564709Y-101225209D01*
X189310732Y-100697964D01*
X189135155Y-100541093D01*
X189211317Y-100526762D01*
X189427441Y-100387690D01*
X189572431Y-100175490D01*
X189623440Y-99923600D01*
X189623440Y-98196400D01*
X189579162Y-97961083D01*
X189440090Y-97744959D01*
X189227890Y-97599969D01*
X188976000Y-97548960D01*
X186944000Y-97548960D01*
X186708683Y-97593238D01*
X186492559Y-97732310D01*
X186347569Y-97944510D01*
X186296560Y-98196400D01*
X181865200Y-98196400D01*
X181865200Y-92757763D01*
X181897392Y-92725627D01*
X182040038Y-92382099D01*
X182040362Y-92010133D01*
X181898317Y-91666357D01*
X181635527Y-91403108D01*
X181291999Y-91260462D01*
X180920033Y-91260138D01*
X180576257Y-91402183D01*
X180313008Y-91664973D01*
X180170362Y-92008501D01*
X180170038Y-92380467D01*
X175641000Y-92380467D01*
X175641000Y-91725750D01*
X175482250Y-91567000D01*
X174117000Y-91567000D01*
X174117000Y-91587000D01*
X173863000Y-91587000D01*
X173863000Y-91567000D01*
X172497750Y-91567000D01*
X172339000Y-91725750D01*
X172339000Y-92582310D01*
X172435673Y-92815699D01*
X172614302Y-92994327D01*
X172656966Y-93011999D01*
X172432330Y-93348190D01*
X172306655Y-93980000D01*
X172432330Y-94611810D01*
X172790222Y-95147433D01*
X173230000Y-95441283D01*
X173230000Y-101138298D01*
X167266320Y-107101978D01*
X167220833Y-107101938D01*
X166877057Y-107243983D01*
X166613808Y-107506773D01*
X166471162Y-107850301D01*
X166470838Y-108222267D01*
X158747100Y-108222267D01*
X158747100Y-100247300D01*
X158770977Y-100237434D01*
X159161084Y-99848007D01*
X159257115Y-99616739D01*
X159351826Y-99845957D01*
X159741253Y-100236064D01*
X160250324Y-100447449D01*
X160801538Y-100447930D01*
X161310977Y-100237434D01*
X161543203Y-100005613D01*
X161773253Y-100236064D01*
X162282324Y-100447449D01*
X162833538Y-100447930D01*
X163342977Y-100237434D01*
X163546716Y-100034050D01*
X164306815Y-100034050D01*
X164374875Y-100275051D01*
X164894174Y-100459887D01*
X165444678Y-100431925D01*
X165823405Y-100275051D01*
X165891465Y-100034050D01*
X165099140Y-99241725D01*
X164306815Y-100034050D01*
X163546716Y-100034050D01*
X163733084Y-99848007D01*
X163822519Y-99632624D01*
X163886209Y-99786385D01*
X164127210Y-99854445D01*
X164919535Y-99062120D01*
X165278745Y-99062120D01*
X166071070Y-99854445D01*
X166312071Y-99786385D01*
X166496907Y-99267086D01*
X166468945Y-98716582D01*
X166312071Y-98337855D01*
X166071070Y-98269795D01*
X165278745Y-99062120D01*
X164919535Y-99062120D01*
X164127210Y-98269795D01*
X163886209Y-98337855D01*
X163827371Y-98503160D01*
X163734454Y-98278283D01*
X163546689Y-98090190D01*
X164306815Y-98090190D01*
X165099140Y-98882515D01*
X165891465Y-98090190D01*
X165823405Y-97849189D01*
X165304106Y-97664353D01*
X164753602Y-97692315D01*
X164374875Y-97849189D01*
X164306815Y-98090190D01*
X163546689Y-98090190D01*
X163345027Y-97888176D01*
X162835956Y-97676791D01*
X162284742Y-97676310D01*
X161775303Y-97886806D01*
X161543077Y-98118627D01*
X161313027Y-97888176D01*
X160803956Y-97676791D01*
X160252742Y-97676310D01*
X159743303Y-97886806D01*
X159353196Y-98276233D01*
X159257165Y-98507501D01*
X159162454Y-98278283D01*
X158773027Y-97888176D01*
X158263956Y-97676791D01*
X157712742Y-97676310D01*
X157203303Y-97886806D01*
X156813196Y-98276233D01*
X156601811Y-98785304D01*
X156601330Y-99336518D01*
X156811826Y-99845957D01*
X157201253Y-100236064D01*
X157227100Y-100246797D01*
X157227100Y-100570998D01*
X155186309Y-98530207D01*
X155361929Y-98530360D01*
X156146867Y-98206030D01*
X156747940Y-97606006D01*
X157073639Y-96821635D01*
X157073642Y-96817909D01*
X166519900Y-96817909D01*
X166844230Y-97602847D01*
X167444254Y-98203920D01*
X168228625Y-98529619D01*
X169077929Y-98530360D01*
X169862867Y-98206030D01*
X170463940Y-97606006D01*
X170789639Y-96821635D01*
X170790380Y-95972331D01*
X170466050Y-95187393D01*
X169866026Y-94586320D01*
X169081655Y-94260621D01*
X168232351Y-94259880D01*
X167447413Y-94584210D01*
X166846340Y-95184234D01*
X166520641Y-95968605D01*
X166519900Y-96817909D01*
X157073642Y-96817909D01*
X157074380Y-95972331D01*
X156750050Y-95187393D01*
X156150026Y-94586320D01*
X155365655Y-94260621D01*
X154516351Y-94259880D01*
X153731413Y-94584210D01*
X153130340Y-95184234D01*
X152861100Y-95832637D01*
X152861100Y-93840300D01*
X152803248Y-93549461D01*
X152803248Y-93549460D01*
X152638501Y-93302899D01*
X151436801Y-92101199D01*
X151190239Y-91936452D01*
X150899400Y-91878600D01*
X148661400Y-91878600D01*
X148370561Y-91936452D01*
X148123999Y-92101199D01*
X147827579Y-92397619D01*
X147320000Y-92296655D01*
X146746511Y-92410729D01*
X146260330Y-92735585D01*
X146053539Y-93045069D01*
X145682036Y-92629268D01*
X145154791Y-92375291D01*
X145139026Y-92372642D01*
X144907000Y-92493783D01*
X144907000Y-93853000D01*
X144927000Y-93853000D01*
X144927000Y-94107000D01*
X144907000Y-94107000D01*
X144907000Y-95466217D01*
X145139026Y-95587358D01*
X145154791Y-95584709D01*
X145682036Y-95330732D01*
X146053539Y-94914931D01*
X146260330Y-95224415D01*
X146626989Y-95469409D01*
X146336398Y-95760000D01*
X141083346Y-95760000D01*
X140759670Y-95275585D01*
X140273489Y-94950729D01*
X139700000Y-94836655D01*
X139126511Y-94950729D01*
X138640330Y-95275585D01*
X138430000Y-95590366D01*
X138219670Y-95275585D01*
X137733489Y-94950729D01*
X137160000Y-94836655D01*
X136586511Y-94950729D01*
X136100330Y-95275585D01*
X135890000Y-95590366D01*
X135679670Y-95275585D01*
X135193489Y-94950729D01*
X134620000Y-94836655D01*
X134046511Y-94950729D01*
X133560330Y-95275585D01*
X133545500Y-95297780D01*
X133481927Y-95144302D01*
X133303299Y-94965673D01*
X133069910Y-94869000D01*
X132365750Y-94869000D01*
X132207000Y-95027750D01*
X131953000Y-95027750D01*
X131794250Y-94869000D01*
X131090090Y-94869000D01*
X130856701Y-94965673D01*
X130678073Y-95144302D01*
X130581400Y-95377691D01*
X123063000Y-95377691D01*
X123063000Y-94341913D01*
X143294816Y-94341913D01*
X143488046Y-94894320D01*
X143877964Y-95330732D01*
X144405209Y-95584709D01*
X144420974Y-95587358D01*
X144653000Y-95466217D01*
X144653000Y-94107000D01*
X143439076Y-94107000D01*
X143294816Y-94341913D01*
X123063000Y-94341913D01*
X123063000Y-93618087D01*
X143294816Y-93618087D01*
X143439076Y-93853000D01*
X144653000Y-93853000D01*
X144653000Y-92493783D01*
X144420974Y-92372642D01*
X144405209Y-92375291D01*
X143877964Y-92629268D01*
X143488046Y-93065680D01*
X143294816Y-93618087D01*
X123063000Y-93618087D01*
X123063000Y-90699290D01*
X123467709Y-91678761D01*
X124217293Y-92429655D01*
X125197173Y-92836536D01*
X126258172Y-92837462D01*
X127238761Y-92432291D01*
X127989655Y-91682707D01*
X128396536Y-90702827D01*
X128396889Y-90297690D01*
X172339000Y-90297690D01*
X172339000Y-91154250D01*
X172497750Y-91313000D01*
X173863000Y-91313000D01*
X173863000Y-89947750D01*
X174117000Y-89947750D01*
X174117000Y-91313000D01*
X175482250Y-91313000D01*
X175641000Y-91154250D01*
X175641000Y-90297690D01*
X175544327Y-90064301D01*
X175365698Y-89885673D01*
X175132309Y-89789000D01*
X174275750Y-89789000D01*
X174117000Y-89947750D01*
X173863000Y-89947750D01*
X173704250Y-89789000D01*
X172847691Y-89789000D01*
X172614302Y-89885673D01*
X172435673Y-90064301D01*
X172339000Y-90297690D01*
X128396889Y-90297690D01*
X128397462Y-89641828D01*
X127992291Y-88661239D01*
X127242707Y-87910345D01*
X126262827Y-87503464D01*
X125731182Y-87503000D01*
X196320710Y-87503000D01*
X195341239Y-87907709D01*
G36*
X160722000Y-121836702D02*
X160722000Y-121839399D01*
X160482827Y-121599808D01*
X160139299Y-121457162D01*
X159767333Y-121456838D01*
X159423557Y-121598883D01*
X159217627Y-121804454D01*
X159145399Y-121774462D01*
X158773433Y-121774138D01*
X158511367Y-121882421D01*
X158282199Y-121787262D01*
X158252700Y-121787236D01*
X158252700Y-119367402D01*
X160722000Y-121836702D01*
X160722000Y-121836702D01*
G37*
X160722000Y-121836702D02*
X160722000Y-121839399D01*
X160482827Y-121599808D01*
X160139299Y-121457162D01*
X159767333Y-121456838D01*
X159423557Y-121598883D01*
X159217627Y-121804454D01*
X159145399Y-121774462D01*
X158773433Y-121774138D01*
X158511367Y-121882421D01*
X158282199Y-121787262D01*
X158252700Y-121787236D01*
X158252700Y-119367402D01*
X160722000Y-121836702D01*
M02*
