%TF.GenerationSoftware,KiCad,Pcbnew,4.0.2+dfsg1-stable*%
%TF.CreationDate,2019-09-14T11:55:16+02:00*%
%TF.ProjectId,StandAlone-Adapter,5374616E64416C6F6E652D4164617074,rev?*%
%TF.FileFunction,Other,User*%
%FSLAX46Y46*%
G04 Gerber Fmt 4.6, Leading zero omitted, Abs format (unit mm)*
G04 Created by KiCad (PCBNEW 4.0.2+dfsg1-stable) date Sat 14 Sep 2019 11:55:16 CEST*
%MOMM*%
G01*
G04 APERTURE LIST*
%ADD10C,0.100000*%
%ADD11C,0.300000*%
G04 APERTURE END LIST*
D10*
D11*
X197751429Y-89821430D02*
X197751429Y-89107144D01*
X197037143Y-89035715D01*
X197108571Y-89107144D01*
X197180000Y-89250001D01*
X197180000Y-89607144D01*
X197108571Y-89750001D01*
X197037143Y-89821430D01*
X196894286Y-89892858D01*
X196537143Y-89892858D01*
X196394286Y-89821430D01*
X196322857Y-89750001D01*
X196251429Y-89607144D01*
X196251429Y-89250001D01*
X196322857Y-89107144D01*
X196394286Y-89035715D01*
X197108571Y-90750001D02*
X197180000Y-90607143D01*
X197251429Y-90535715D01*
X197394286Y-90464286D01*
X197465714Y-90464286D01*
X197608571Y-90535715D01*
X197680000Y-90607143D01*
X197751429Y-90750001D01*
X197751429Y-91035715D01*
X197680000Y-91178572D01*
X197608571Y-91250001D01*
X197465714Y-91321429D01*
X197394286Y-91321429D01*
X197251429Y-91250001D01*
X197180000Y-91178572D01*
X197108571Y-91035715D01*
X197108571Y-90750001D01*
X197037143Y-90607143D01*
X196965714Y-90535715D01*
X196822857Y-90464286D01*
X196537143Y-90464286D01*
X196394286Y-90535715D01*
X196322857Y-90607143D01*
X196251429Y-90750001D01*
X196251429Y-91035715D01*
X196322857Y-91178572D01*
X196394286Y-91250001D01*
X196537143Y-91321429D01*
X196822857Y-91321429D01*
X196965714Y-91250001D01*
X197037143Y-91178572D01*
X197108571Y-91035715D01*
X196322857Y-92035714D02*
X196251429Y-92035714D01*
X196108571Y-91964286D01*
X196037143Y-91892857D01*
X197251429Y-93321429D02*
X196251429Y-93321429D01*
X197822857Y-92964286D02*
X196751429Y-92607143D01*
X196751429Y-93535715D01*
X197608571Y-94035714D02*
X197680000Y-94107143D01*
X197751429Y-94250000D01*
X197751429Y-94607143D01*
X197680000Y-94750000D01*
X197608571Y-94821429D01*
X197465714Y-94892857D01*
X197322857Y-94892857D01*
X197108571Y-94821429D01*
X196251429Y-93964286D01*
X196251429Y-94892857D01*
X197751429Y-95821428D02*
X197751429Y-95964285D01*
X197680000Y-96107142D01*
X197608571Y-96178571D01*
X197465714Y-96250000D01*
X197180000Y-96321428D01*
X196822857Y-96321428D01*
X196537143Y-96250000D01*
X196394286Y-96178571D01*
X196322857Y-96107142D01*
X196251429Y-95964285D01*
X196251429Y-95821428D01*
X196322857Y-95678571D01*
X196394286Y-95607142D01*
X196537143Y-95535714D01*
X196822857Y-95464285D01*
X197180000Y-95464285D01*
X197465714Y-95535714D01*
X197608571Y-95607142D01*
X197680000Y-95678571D01*
X197751429Y-95821428D01*
X196251429Y-98107142D02*
X197251429Y-98107142D01*
X197108571Y-98107142D02*
X197180000Y-98178570D01*
X197251429Y-98321428D01*
X197251429Y-98535713D01*
X197180000Y-98678570D01*
X197037143Y-98749999D01*
X196251429Y-98749999D01*
X197037143Y-98749999D02*
X197180000Y-98821428D01*
X197251429Y-98964285D01*
X197251429Y-99178570D01*
X197180000Y-99321428D01*
X197037143Y-99392856D01*
X196251429Y-99392856D01*
X196251429Y-100107142D02*
X197251429Y-100107142D01*
X197108571Y-100107142D02*
X197180000Y-100178570D01*
X197251429Y-100321428D01*
X197251429Y-100535713D01*
X197180000Y-100678570D01*
X197037143Y-100749999D01*
X196251429Y-100749999D01*
X197037143Y-100749999D02*
X197180000Y-100821428D01*
X197251429Y-100964285D01*
X197251429Y-101178570D01*
X197180000Y-101321428D01*
X197037143Y-101392856D01*
X196251429Y-101392856D01*
X195580000Y-66040000D02*
X195580000Y-124460000D01*
X187960000Y-66040000D02*
X198280000Y-66040000D01*
X187960000Y-124460000D02*
X198280000Y-124460000D01*
X195580000Y-124460000D02*
X194993579Y-123333496D01*
X195580000Y-124460000D02*
X196166421Y-123333496D01*
X195580000Y-66040000D02*
X194993579Y-67166504D01*
X195580000Y-66040000D02*
X196166421Y-67166504D01*
X142304287Y-58788571D02*
X143304287Y-58788571D01*
X142661430Y-60288571D01*
X144090001Y-59431429D02*
X143947143Y-59360000D01*
X143875715Y-59288571D01*
X143804286Y-59145714D01*
X143804286Y-59074286D01*
X143875715Y-58931429D01*
X143947143Y-58860000D01*
X144090001Y-58788571D01*
X144375715Y-58788571D01*
X144518572Y-58860000D01*
X144590001Y-58931429D01*
X144661429Y-59074286D01*
X144661429Y-59145714D01*
X144590001Y-59288571D01*
X144518572Y-59360000D01*
X144375715Y-59431429D01*
X144090001Y-59431429D01*
X143947143Y-59502857D01*
X143875715Y-59574286D01*
X143804286Y-59717143D01*
X143804286Y-60002857D01*
X143875715Y-60145714D01*
X143947143Y-60217143D01*
X144090001Y-60288571D01*
X144375715Y-60288571D01*
X144518572Y-60217143D01*
X144590001Y-60145714D01*
X144661429Y-60002857D01*
X144661429Y-59717143D01*
X144590001Y-59574286D01*
X144518572Y-59502857D01*
X144375715Y-59431429D01*
X145375714Y-60217143D02*
X145375714Y-60288571D01*
X145304286Y-60431429D01*
X145232857Y-60502857D01*
X145875715Y-58788571D02*
X146875715Y-58788571D01*
X146232858Y-60288571D01*
X148090000Y-59288571D02*
X148090000Y-60288571D01*
X147732857Y-58717143D02*
X147375714Y-59788571D01*
X148304286Y-59788571D01*
X149161428Y-58788571D02*
X149304285Y-58788571D01*
X149447142Y-58860000D01*
X149518571Y-58931429D01*
X149590000Y-59074286D01*
X149661428Y-59360000D01*
X149661428Y-59717143D01*
X149590000Y-60002857D01*
X149518571Y-60145714D01*
X149447142Y-60217143D01*
X149304285Y-60288571D01*
X149161428Y-60288571D01*
X149018571Y-60217143D01*
X148947142Y-60145714D01*
X148875714Y-60002857D01*
X148804285Y-59717143D01*
X148804285Y-59360000D01*
X148875714Y-59074286D01*
X148947142Y-58931429D01*
X149018571Y-58860000D01*
X149161428Y-58788571D01*
X151447142Y-60288571D02*
X151447142Y-59288571D01*
X151447142Y-59431429D02*
X151518570Y-59360000D01*
X151661428Y-59288571D01*
X151875713Y-59288571D01*
X152018570Y-59360000D01*
X152089999Y-59502857D01*
X152089999Y-60288571D01*
X152089999Y-59502857D02*
X152161428Y-59360000D01*
X152304285Y-59288571D01*
X152518570Y-59288571D01*
X152661428Y-59360000D01*
X152732856Y-59502857D01*
X152732856Y-60288571D01*
X153447142Y-60288571D02*
X153447142Y-59288571D01*
X153447142Y-59431429D02*
X153518570Y-59360000D01*
X153661428Y-59288571D01*
X153875713Y-59288571D01*
X154018570Y-59360000D01*
X154089999Y-59502857D01*
X154089999Y-60288571D01*
X154089999Y-59502857D02*
X154161428Y-59360000D01*
X154304285Y-59288571D01*
X154518570Y-59288571D01*
X154661428Y-59360000D01*
X154732856Y-59502857D01*
X154732856Y-60288571D01*
X109220000Y-60960000D02*
X187960000Y-60960000D01*
X109220000Y-66040000D02*
X109220000Y-58260000D01*
X187960000Y-66040000D02*
X187960000Y-58260000D01*
X187960000Y-60960000D02*
X186833496Y-61546421D01*
X187960000Y-60960000D02*
X186833496Y-60373579D01*
X109220000Y-60960000D02*
X110346504Y-61546421D01*
X109220000Y-60960000D02*
X110346504Y-60373579D01*
M02*
