%TF.GenerationSoftware,KiCad,Pcbnew,4.0.2+dfsg1-stable*%
%TF.CreationDate,2019-04-18T17:58:59+02:00*%
%TF.ProjectId,StandAlone-Adapter,5374616E64416C6F6E652D4164617074,rev?*%
%TF.FileFunction,Legend,Top*%
%FSLAX46Y46*%
G04 Gerber Fmt 4.6, Leading zero omitted, Abs format (unit mm)*
G04 Created by KiCad (PCBNEW 4.0.2+dfsg1-stable) date gio 18 apr 2019 17:58:59 CEST*
%MOMM*%
G01*
G04 APERTURE LIST*
%ADD10C,0.100000*%
%ADD11C,0.200000*%
%ADD12C,0.150000*%
%ADD13C,0.125000*%
%ADD14C,0.300000*%
%ADD15C,0.175000*%
%ADD16C,0.275000*%
%ADD17C,0.250000*%
%ADD18C,0.120000*%
%ADD19C,0.381000*%
G04 APERTURE END LIST*
D10*
D11*
X144107803Y-89281000D02*
G75*
G03X144107803Y-89281000I-89803J0D01*
G01*
D12*
X110806667Y-83604915D02*
X110106667Y-83517415D01*
X110773333Y-83600749D02*
X110806667Y-83671582D01*
X110806667Y-83804915D01*
X110773333Y-83867416D01*
X110740000Y-83896582D01*
X110673333Y-83921583D01*
X110473333Y-83896583D01*
X110406667Y-83854915D01*
X110373333Y-83817416D01*
X110340000Y-83746582D01*
X110340000Y-83613249D01*
X110373333Y-83550749D01*
X110773333Y-83000750D02*
X110806667Y-83071582D01*
X110806667Y-83204916D01*
X110773333Y-83267416D01*
X110706667Y-83292416D01*
X110440000Y-83259083D01*
X110373333Y-83217416D01*
X110340000Y-83146583D01*
X110340000Y-83013249D01*
X110373333Y-82950750D01*
X110440000Y-82925749D01*
X110506667Y-82934082D01*
X110573333Y-83275750D01*
X110773333Y-82700750D02*
X110806667Y-82638249D01*
X110806667Y-82504916D01*
X110773333Y-82434083D01*
X110706667Y-82392416D01*
X110673333Y-82388250D01*
X110606667Y-82413249D01*
X110573333Y-82475750D01*
X110573333Y-82575750D01*
X110540000Y-82638249D01*
X110473333Y-82663250D01*
X110440000Y-82659083D01*
X110373333Y-82617416D01*
X110340000Y-82546583D01*
X110340000Y-82446583D01*
X110373333Y-82384083D01*
X110806667Y-82104915D02*
X110340000Y-82046582D01*
X110106667Y-82017415D02*
X110140000Y-82054916D01*
X110173333Y-82025749D01*
X110140000Y-81988249D01*
X110106667Y-82017415D01*
X110173333Y-82025749D01*
X110340000Y-81413249D02*
X110906667Y-81484082D01*
X110973333Y-81525750D01*
X111006667Y-81563249D01*
X111040000Y-81634083D01*
X111040000Y-81734083D01*
X111006667Y-81796582D01*
X110773333Y-81467416D02*
X110806667Y-81538249D01*
X110806667Y-81671582D01*
X110773333Y-81734083D01*
X110740000Y-81763249D01*
X110673333Y-81788250D01*
X110473333Y-81763250D01*
X110406667Y-81721582D01*
X110373333Y-81684083D01*
X110340000Y-81613249D01*
X110340000Y-81479916D01*
X110373333Y-81417416D01*
X110340000Y-81079916D02*
X110806667Y-81138249D01*
X110406667Y-81088249D02*
X110373333Y-81050750D01*
X110340000Y-80979916D01*
X110340000Y-80879916D01*
X110373333Y-80817417D01*
X110440000Y-80792416D01*
X110806667Y-80838249D01*
X110773333Y-80234084D02*
X110806667Y-80304916D01*
X110806667Y-80438250D01*
X110773333Y-80500750D01*
X110706667Y-80525750D01*
X110440000Y-80492417D01*
X110373333Y-80450750D01*
X110340000Y-80379917D01*
X110340000Y-80246583D01*
X110373333Y-80184084D01*
X110440000Y-80159083D01*
X110506667Y-80167416D01*
X110573333Y-80509084D01*
X110806667Y-79604916D02*
X110106667Y-79517416D01*
X110773333Y-79600750D02*
X110806667Y-79671583D01*
X110806667Y-79804916D01*
X110773333Y-79867417D01*
X110740000Y-79896583D01*
X110673333Y-79921584D01*
X110473333Y-79896584D01*
X110406667Y-79854916D01*
X110373333Y-79817417D01*
X110340000Y-79746583D01*
X110340000Y-79613250D01*
X110373333Y-79550750D01*
X110806667Y-78738250D02*
X110106667Y-78650750D01*
X110373333Y-78684084D02*
X110340000Y-78613251D01*
X110340000Y-78479917D01*
X110373333Y-78417418D01*
X110406667Y-78388250D01*
X110473333Y-78363251D01*
X110673333Y-78388251D01*
X110740000Y-78429917D01*
X110773333Y-78467418D01*
X110806667Y-78538250D01*
X110806667Y-78671584D01*
X110773333Y-78734084D01*
X110340000Y-78113251D02*
X110806667Y-78004917D01*
X110340000Y-77779918D02*
X110806667Y-78004917D01*
X110973333Y-78092418D01*
X111006667Y-78129917D01*
X111040000Y-78200751D01*
X110806667Y-76638251D02*
X110473333Y-76829919D01*
X110806667Y-77038251D02*
X110106667Y-76950751D01*
X110106667Y-76684085D01*
X110140000Y-76621585D01*
X110173333Y-76592419D01*
X110240000Y-76567418D01*
X110340000Y-76579918D01*
X110406667Y-76621585D01*
X110440000Y-76659085D01*
X110473333Y-76729919D01*
X110473333Y-76996585D01*
X110740000Y-76329918D02*
X110773333Y-76300752D01*
X110806667Y-76338251D01*
X110773333Y-76367419D01*
X110740000Y-76329918D01*
X110806667Y-76338251D01*
X110140000Y-75554919D02*
X110106667Y-75617418D01*
X110106667Y-75717418D01*
X110140000Y-75821585D01*
X110206667Y-75896585D01*
X110273333Y-75938252D01*
X110406667Y-75988252D01*
X110506667Y-76000752D01*
X110640000Y-75984085D01*
X110706667Y-75959085D01*
X110773333Y-75900752D01*
X110806667Y-75804918D01*
X110806667Y-75738252D01*
X110773333Y-75634086D01*
X110740000Y-75596585D01*
X110506667Y-75567418D01*
X110506667Y-75700752D01*
X110740000Y-75296585D02*
X110773333Y-75267419D01*
X110806667Y-75304918D01*
X110773333Y-75334086D01*
X110740000Y-75296585D01*
X110806667Y-75304918D01*
X110173333Y-74925753D02*
X110140000Y-74888252D01*
X110106667Y-74817419D01*
X110106667Y-74650752D01*
X110140000Y-74588252D01*
X110173333Y-74559086D01*
X110240000Y-74534086D01*
X110306667Y-74542419D01*
X110406667Y-74588252D01*
X110806667Y-75038252D01*
X110806667Y-74604919D01*
X110106667Y-74084085D02*
X110106667Y-74017418D01*
X110140000Y-73954919D01*
X110173333Y-73925752D01*
X110240000Y-73900752D01*
X110373333Y-73884086D01*
X110540000Y-73904919D01*
X110673333Y-73954919D01*
X110740000Y-73996585D01*
X110773333Y-74034086D01*
X110806667Y-74104918D01*
X110806667Y-74171585D01*
X110773333Y-74234086D01*
X110740000Y-74263252D01*
X110673333Y-74288252D01*
X110540000Y-74304919D01*
X110373333Y-74284086D01*
X110240000Y-74234085D01*
X110173333Y-74192419D01*
X110140000Y-74154919D01*
X110106667Y-74084085D01*
X110806667Y-73271585D02*
X110806667Y-73671585D01*
X110806667Y-73471585D02*
X110106667Y-73384085D01*
X110206667Y-73463251D01*
X110273333Y-73538252D01*
X110306667Y-73609085D01*
X110406667Y-72821584D02*
X110373333Y-72884085D01*
X110340000Y-72913251D01*
X110273333Y-72938252D01*
X110240000Y-72934085D01*
X110173333Y-72892418D01*
X110140000Y-72854918D01*
X110106667Y-72784084D01*
X110106667Y-72650751D01*
X110140000Y-72588251D01*
X110173333Y-72559085D01*
X110240000Y-72534085D01*
X110273333Y-72538252D01*
X110340000Y-72579918D01*
X110373333Y-72617418D01*
X110406667Y-72688251D01*
X110406667Y-72821584D01*
X110440000Y-72892418D01*
X110473333Y-72929918D01*
X110540000Y-72971585D01*
X110673333Y-72988252D01*
X110740000Y-72963251D01*
X110773333Y-72934085D01*
X110806667Y-72871584D01*
X110806667Y-72738251D01*
X110773333Y-72667418D01*
X110740000Y-72629918D01*
X110673333Y-72588252D01*
X110540000Y-72571585D01*
X110473333Y-72596585D01*
X110440000Y-72625751D01*
X110406667Y-72688251D01*
D13*
X118810000Y-122781190D02*
X118476666Y-122543095D01*
X118238571Y-122781190D02*
X118238571Y-122281190D01*
X118619524Y-122281190D01*
X118714762Y-122305000D01*
X118762381Y-122328810D01*
X118810000Y-122376429D01*
X118810000Y-122447857D01*
X118762381Y-122495476D01*
X118714762Y-122519286D01*
X118619524Y-122543095D01*
X118238571Y-122543095D01*
X119238571Y-122519286D02*
X119571905Y-122519286D01*
X119714762Y-122781190D02*
X119238571Y-122781190D01*
X119238571Y-122281190D01*
X119714762Y-122281190D01*
X120000476Y-122281190D02*
X120571905Y-122281190D01*
X120286190Y-122781190D02*
X120286190Y-122281190D01*
X121476667Y-122781190D02*
X121143333Y-122543095D01*
X120905238Y-122781190D02*
X120905238Y-122281190D01*
X121286191Y-122281190D01*
X121381429Y-122305000D01*
X121429048Y-122328810D01*
X121476667Y-122376429D01*
X121476667Y-122447857D01*
X121429048Y-122495476D01*
X121381429Y-122519286D01*
X121286191Y-122543095D01*
X120905238Y-122543095D01*
X122095714Y-122281190D02*
X122286191Y-122281190D01*
X122381429Y-122305000D01*
X122476667Y-122352619D01*
X122524286Y-122447857D01*
X122524286Y-122614524D01*
X122476667Y-122709762D01*
X122381429Y-122757381D01*
X122286191Y-122781190D01*
X122095714Y-122781190D01*
X122000476Y-122757381D01*
X121905238Y-122709762D01*
X121857619Y-122614524D01*
X121857619Y-122447857D01*
X121905238Y-122352619D01*
X122000476Y-122305000D01*
X122095714Y-122281190D01*
X123286191Y-122519286D02*
X123429048Y-122543095D01*
X123476667Y-122566905D01*
X123524286Y-122614524D01*
X123524286Y-122685952D01*
X123476667Y-122733571D01*
X123429048Y-122757381D01*
X123333810Y-122781190D01*
X122952857Y-122781190D01*
X122952857Y-122281190D01*
X123286191Y-122281190D01*
X123381429Y-122305000D01*
X123429048Y-122328810D01*
X123476667Y-122376429D01*
X123476667Y-122424048D01*
X123429048Y-122471667D01*
X123381429Y-122495476D01*
X123286191Y-122519286D01*
X122952857Y-122519286D01*
X123952857Y-122781190D02*
X123952857Y-122281190D01*
X124286190Y-122281190D02*
X124857619Y-122281190D01*
X124571904Y-122781190D02*
X124571904Y-122281190D01*
X125667143Y-122781190D02*
X125190952Y-122781190D01*
X125190952Y-122281190D01*
X125952857Y-122638333D02*
X126429048Y-122638333D01*
X125857619Y-122781190D02*
X126190952Y-122281190D01*
X126524286Y-122781190D01*
X127190953Y-122519286D02*
X127333810Y-122543095D01*
X127381429Y-122566905D01*
X127429048Y-122614524D01*
X127429048Y-122685952D01*
X127381429Y-122733571D01*
X127333810Y-122757381D01*
X127238572Y-122781190D01*
X126857619Y-122781190D01*
X126857619Y-122281190D01*
X127190953Y-122281190D01*
X127286191Y-122305000D01*
X127333810Y-122328810D01*
X127381429Y-122376429D01*
X127381429Y-122424048D01*
X127333810Y-122471667D01*
X127286191Y-122495476D01*
X127190953Y-122519286D01*
X126857619Y-122519286D01*
X128571905Y-122638333D02*
X129048096Y-122638333D01*
X128476667Y-122781190D02*
X128810000Y-122281190D01*
X129143334Y-122781190D01*
X129476667Y-122781190D02*
X129476667Y-122281190D01*
X129810001Y-122638333D01*
X130143334Y-122281190D01*
X130143334Y-122781190D01*
X130619524Y-122781190D02*
X130619524Y-122281190D01*
X131619524Y-122305000D02*
X131524286Y-122281190D01*
X131381429Y-122281190D01*
X131238571Y-122305000D01*
X131143333Y-122352619D01*
X131095714Y-122400238D01*
X131048095Y-122495476D01*
X131048095Y-122566905D01*
X131095714Y-122662143D01*
X131143333Y-122709762D01*
X131238571Y-122757381D01*
X131381429Y-122781190D01*
X131476667Y-122781190D01*
X131619524Y-122757381D01*
X131667143Y-122733571D01*
X131667143Y-122566905D01*
X131476667Y-122566905D01*
X132048095Y-122638333D02*
X132524286Y-122638333D01*
X131952857Y-122781190D02*
X132286190Y-122281190D01*
X132619524Y-122781190D01*
X133714762Y-122281190D02*
X133714762Y-122685952D01*
X133762381Y-122733571D01*
X133810000Y-122757381D01*
X133905238Y-122781190D01*
X134095715Y-122781190D01*
X134190953Y-122757381D01*
X134238572Y-122733571D01*
X134286191Y-122685952D01*
X134286191Y-122281190D01*
X134714762Y-122757381D02*
X134857619Y-122781190D01*
X135095715Y-122781190D01*
X135190953Y-122757381D01*
X135238572Y-122733571D01*
X135286191Y-122685952D01*
X135286191Y-122638333D01*
X135238572Y-122590714D01*
X135190953Y-122566905D01*
X135095715Y-122543095D01*
X134905238Y-122519286D01*
X134810000Y-122495476D01*
X134762381Y-122471667D01*
X134714762Y-122424048D01*
X134714762Y-122376429D01*
X134762381Y-122328810D01*
X134810000Y-122305000D01*
X134905238Y-122281190D01*
X135143334Y-122281190D01*
X135286191Y-122305000D01*
X136048096Y-122519286D02*
X136190953Y-122543095D01*
X136238572Y-122566905D01*
X136286191Y-122614524D01*
X136286191Y-122685952D01*
X136238572Y-122733571D01*
X136190953Y-122757381D01*
X136095715Y-122781190D01*
X135714762Y-122781190D01*
X135714762Y-122281190D01*
X136048096Y-122281190D01*
X136143334Y-122305000D01*
X136190953Y-122328810D01*
X136238572Y-122376429D01*
X136238572Y-122424048D01*
X136190953Y-122471667D01*
X136143334Y-122495476D01*
X136048096Y-122519286D01*
X135714762Y-122519286D01*
X137429048Y-122638333D02*
X137905239Y-122638333D01*
X137333810Y-122781190D02*
X137667143Y-122281190D01*
X138000477Y-122781190D01*
X138333810Y-122781190D02*
X138333810Y-122281190D01*
X138571905Y-122281190D01*
X138714763Y-122305000D01*
X138810001Y-122352619D01*
X138857620Y-122400238D01*
X138905239Y-122495476D01*
X138905239Y-122566905D01*
X138857620Y-122662143D01*
X138810001Y-122709762D01*
X138714763Y-122757381D01*
X138571905Y-122781190D01*
X138333810Y-122781190D01*
X139286191Y-122638333D02*
X139762382Y-122638333D01*
X139190953Y-122781190D02*
X139524286Y-122281190D01*
X139857620Y-122781190D01*
X140190953Y-122781190D02*
X140190953Y-122281190D01*
X140571906Y-122281190D01*
X140667144Y-122305000D01*
X140714763Y-122328810D01*
X140762382Y-122376429D01*
X140762382Y-122447857D01*
X140714763Y-122495476D01*
X140667144Y-122519286D01*
X140571906Y-122543095D01*
X140190953Y-122543095D01*
X141048096Y-122281190D02*
X141619525Y-122281190D01*
X141333810Y-122781190D02*
X141333810Y-122281190D01*
X141952858Y-122519286D02*
X142286192Y-122519286D01*
X142429049Y-122781190D02*
X141952858Y-122781190D01*
X141952858Y-122281190D01*
X142429049Y-122281190D01*
X143429049Y-122781190D02*
X143095715Y-122543095D01*
X142857620Y-122781190D02*
X142857620Y-122281190D01*
X143238573Y-122281190D01*
X143333811Y-122305000D01*
X143381430Y-122328810D01*
X143429049Y-122376429D01*
X143429049Y-122447857D01*
X143381430Y-122495476D01*
X143333811Y-122519286D01*
X143238573Y-122543095D01*
X142857620Y-122543095D01*
D14*
X111676571Y-98698571D02*
X110962286Y-99198571D01*
X111676571Y-99555714D02*
X110176571Y-99555714D01*
X110176571Y-98984286D01*
X110248000Y-98841428D01*
X110319429Y-98770000D01*
X110462286Y-98698571D01*
X110676571Y-98698571D01*
X110819429Y-98770000D01*
X110890857Y-98841428D01*
X110962286Y-98984286D01*
X110962286Y-99555714D01*
X110890857Y-98055714D02*
X110890857Y-97555714D01*
X111676571Y-97341428D02*
X111676571Y-98055714D01*
X110176571Y-98055714D01*
X110176571Y-97341428D01*
X111605143Y-96770000D02*
X111676571Y-96555714D01*
X111676571Y-96198571D01*
X111605143Y-96055714D01*
X111533714Y-95984285D01*
X111390857Y-95912857D01*
X111248000Y-95912857D01*
X111105143Y-95984285D01*
X111033714Y-96055714D01*
X110962286Y-96198571D01*
X110890857Y-96484285D01*
X110819429Y-96627143D01*
X110748000Y-96698571D01*
X110605143Y-96770000D01*
X110462286Y-96770000D01*
X110319429Y-96698571D01*
X110248000Y-96627143D01*
X110176571Y-96484285D01*
X110176571Y-96127143D01*
X110248000Y-95912857D01*
X110890857Y-95270000D02*
X110890857Y-94770000D01*
X111676571Y-94555714D02*
X111676571Y-95270000D01*
X110176571Y-95270000D01*
X110176571Y-94555714D01*
X110176571Y-94127143D02*
X110176571Y-93270000D01*
X111676571Y-93698571D02*
X110176571Y-93698571D01*
X117518571Y-120688571D02*
X116018571Y-120688571D01*
X117090000Y-120188571D01*
X116018571Y-119688571D01*
X117518571Y-119688571D01*
X117518571Y-118974285D02*
X116018571Y-118974285D01*
X116018571Y-118402857D01*
X116090000Y-118259999D01*
X116161429Y-118188571D01*
X116304286Y-118117142D01*
X116518571Y-118117142D01*
X116661429Y-118188571D01*
X116732857Y-118259999D01*
X116804286Y-118402857D01*
X116804286Y-118974285D01*
X116018571Y-117474285D02*
X117232857Y-117474285D01*
X117375714Y-117402857D01*
X117447143Y-117331428D01*
X117518571Y-117188571D01*
X117518571Y-116902857D01*
X117447143Y-116759999D01*
X117375714Y-116688571D01*
X117232857Y-116617142D01*
X116018571Y-116617142D01*
X117518571Y-114759999D02*
X116018571Y-114759999D01*
X117518571Y-113902856D02*
X116661429Y-114545713D01*
X116018571Y-113902856D02*
X116875714Y-114759999D01*
X116732857Y-113259999D02*
X116732857Y-112759999D01*
X117518571Y-112545713D02*
X117518571Y-113259999D01*
X116018571Y-113259999D01*
X116018571Y-112545713D01*
X116804286Y-111617142D02*
X117518571Y-111617142D01*
X116018571Y-112117142D02*
X116804286Y-111617142D01*
X116018571Y-111117142D01*
X116732857Y-110117142D02*
X116804286Y-109902856D01*
X116875714Y-109831428D01*
X117018571Y-109759999D01*
X117232857Y-109759999D01*
X117375714Y-109831428D01*
X117447143Y-109902856D01*
X117518571Y-110045714D01*
X117518571Y-110617142D01*
X116018571Y-110617142D01*
X116018571Y-110117142D01*
X116090000Y-109974285D01*
X116161429Y-109902856D01*
X116304286Y-109831428D01*
X116447143Y-109831428D01*
X116590000Y-109902856D01*
X116661429Y-109974285D01*
X116732857Y-110117142D01*
X116732857Y-110617142D01*
X116018571Y-108831428D02*
X116018571Y-108545714D01*
X116090000Y-108402856D01*
X116232857Y-108259999D01*
X116518571Y-108188571D01*
X117018571Y-108188571D01*
X117304286Y-108259999D01*
X117447143Y-108402856D01*
X117518571Y-108545714D01*
X117518571Y-108831428D01*
X117447143Y-108974285D01*
X117304286Y-109117142D01*
X117018571Y-109188571D01*
X116518571Y-109188571D01*
X116232857Y-109117142D01*
X116090000Y-108974285D01*
X116018571Y-108831428D01*
X117090000Y-107617142D02*
X117090000Y-106902856D01*
X117518571Y-107759999D02*
X116018571Y-107259999D01*
X117518571Y-106759999D01*
X117518571Y-105402856D02*
X116804286Y-105902856D01*
X117518571Y-106259999D02*
X116018571Y-106259999D01*
X116018571Y-105688571D01*
X116090000Y-105545713D01*
X116161429Y-105474285D01*
X116304286Y-105402856D01*
X116518571Y-105402856D01*
X116661429Y-105474285D01*
X116732857Y-105545713D01*
X116804286Y-105688571D01*
X116804286Y-106259999D01*
X117518571Y-104759999D02*
X116018571Y-104759999D01*
X116018571Y-104402856D01*
X116090000Y-104188571D01*
X116232857Y-104045713D01*
X116375714Y-103974285D01*
X116661429Y-103902856D01*
X116875714Y-103902856D01*
X117161429Y-103974285D01*
X117304286Y-104045713D01*
X117447143Y-104188571D01*
X117518571Y-104402856D01*
X117518571Y-104759999D01*
D15*
X117825333Y-81208571D02*
X117592000Y-81208571D01*
X117592000Y-81732381D02*
X117592000Y-80732381D01*
X117925333Y-80732381D01*
X118092000Y-80732381D02*
X118492000Y-80732381D01*
X118292000Y-81732381D02*
X118292000Y-80732381D01*
X118725333Y-81732381D02*
X118725333Y-80732381D01*
X118891999Y-80732381D01*
X118991999Y-80780000D01*
X119058666Y-80875238D01*
X119091999Y-80970476D01*
X119125333Y-81160952D01*
X119125333Y-81303810D01*
X119091999Y-81494286D01*
X119058666Y-81589524D01*
X118991999Y-81684762D01*
X118891999Y-81732381D01*
X118725333Y-81732381D01*
X119425333Y-81732381D02*
X119425333Y-80732381D01*
X119725332Y-80827619D02*
X119758666Y-80780000D01*
X119825332Y-80732381D01*
X119991999Y-80732381D01*
X120058666Y-80780000D01*
X120091999Y-80827619D01*
X120125332Y-80922857D01*
X120125332Y-81018095D01*
X120091999Y-81160952D01*
X119691999Y-81732381D01*
X120125332Y-81732381D01*
X120358666Y-80732381D02*
X120791999Y-80732381D01*
X120558666Y-81113333D01*
X120658666Y-81113333D01*
X120725333Y-81160952D01*
X120758666Y-81208571D01*
X120791999Y-81303810D01*
X120791999Y-81541905D01*
X120758666Y-81637143D01*
X120725333Y-81684762D01*
X120658666Y-81732381D01*
X120458666Y-81732381D01*
X120391999Y-81684762D01*
X120358666Y-81637143D01*
X121058666Y-80827619D02*
X121092000Y-80780000D01*
X121158666Y-80732381D01*
X121325333Y-80732381D01*
X121392000Y-80780000D01*
X121425333Y-80827619D01*
X121458666Y-80922857D01*
X121458666Y-81018095D01*
X121425333Y-81160952D01*
X121025333Y-81732381D01*
X121458666Y-81732381D01*
X122158667Y-81732381D02*
X121925333Y-81256190D01*
X121758667Y-81732381D02*
X121758667Y-80732381D01*
X122025333Y-80732381D01*
X122092000Y-80780000D01*
X122125333Y-80827619D01*
X122158667Y-80922857D01*
X122158667Y-81065714D01*
X122125333Y-81160952D01*
X122092000Y-81208571D01*
X122025333Y-81256190D01*
X121758667Y-81256190D01*
X122792000Y-81732381D02*
X122458667Y-81732381D01*
X122458667Y-80732381D01*
D10*
X124079048Y-85832190D02*
X124364762Y-85832190D01*
X124221905Y-86332190D02*
X124221905Y-85832190D01*
X124483810Y-85832190D02*
X124817143Y-86332190D01*
X124817143Y-85832190D02*
X124483810Y-86332190D01*
X121836667Y-86332190D02*
X121670000Y-86094095D01*
X121550953Y-86332190D02*
X121550953Y-85832190D01*
X121741429Y-85832190D01*
X121789048Y-85856000D01*
X121812857Y-85879810D01*
X121836667Y-85927429D01*
X121836667Y-85998857D01*
X121812857Y-86046476D01*
X121789048Y-86070286D01*
X121741429Y-86094095D01*
X121550953Y-86094095D01*
X122003334Y-85832190D02*
X122336667Y-86332190D01*
X122336667Y-85832190D02*
X122003334Y-86332190D01*
X118999047Y-85856000D02*
X118951428Y-85832190D01*
X118880000Y-85832190D01*
X118808571Y-85856000D01*
X118760952Y-85903619D01*
X118737143Y-85951238D01*
X118713333Y-86046476D01*
X118713333Y-86117905D01*
X118737143Y-86213143D01*
X118760952Y-86260762D01*
X118808571Y-86308381D01*
X118880000Y-86332190D01*
X118927619Y-86332190D01*
X118999047Y-86308381D01*
X119022857Y-86284571D01*
X119022857Y-86117905D01*
X118927619Y-86117905D01*
X119237143Y-86332190D02*
X119237143Y-85832190D01*
X119522857Y-86332190D01*
X119522857Y-85832190D01*
X119760953Y-86332190D02*
X119760953Y-85832190D01*
X119880000Y-85832190D01*
X119951429Y-85856000D01*
X119999048Y-85903619D01*
X120022857Y-85951238D01*
X120046667Y-86046476D01*
X120046667Y-86117905D01*
X120022857Y-86213143D01*
X119999048Y-86260762D01*
X119951429Y-86308381D01*
X119880000Y-86332190D01*
X119760953Y-86332190D01*
D16*
X117031238Y-78259143D02*
X117083619Y-78044857D01*
X117083619Y-77687714D01*
X117031238Y-77544857D01*
X116978857Y-77473428D01*
X116874095Y-77402000D01*
X116769333Y-77402000D01*
X116664571Y-77473428D01*
X116612190Y-77544857D01*
X116559810Y-77687714D01*
X116507429Y-77973428D01*
X116455048Y-78116286D01*
X116402667Y-78187714D01*
X116297905Y-78259143D01*
X116193143Y-78259143D01*
X116088381Y-78187714D01*
X116036000Y-78116286D01*
X115983619Y-77973428D01*
X115983619Y-77616286D01*
X116036000Y-77402000D01*
X115983619Y-76973429D02*
X115983619Y-76116286D01*
X117083619Y-76544857D02*
X115983619Y-76544857D01*
X117083619Y-74902000D02*
X117083619Y-75616286D01*
X115983619Y-75616286D01*
X117083619Y-74402000D02*
X116350286Y-74402000D01*
X115983619Y-74402000D02*
X116036000Y-74473429D01*
X116088381Y-74402000D01*
X116036000Y-74330572D01*
X115983619Y-74402000D01*
X116088381Y-74402000D01*
X116350286Y-73687714D02*
X117083619Y-73687714D01*
X116455048Y-73687714D02*
X116402667Y-73616286D01*
X116350286Y-73473428D01*
X116350286Y-73259143D01*
X116402667Y-73116286D01*
X116507429Y-73044857D01*
X117083619Y-73044857D01*
X117083619Y-72330571D02*
X115983619Y-72330571D01*
X116664571Y-72187714D02*
X117083619Y-71759143D01*
X116350286Y-71759143D02*
X116769333Y-72330571D01*
X116350286Y-70116285D02*
X117083619Y-69759142D01*
X116350286Y-69402000D01*
X116088381Y-68902000D02*
X116036000Y-68830571D01*
X115983619Y-68687714D01*
X115983619Y-68330571D01*
X116036000Y-68187714D01*
X116088381Y-68116285D01*
X116193143Y-68044857D01*
X116297905Y-68044857D01*
X116455048Y-68116285D01*
X117083619Y-68973428D01*
X117083619Y-68044857D01*
D10*
X126726190Y-79359046D02*
X126726190Y-79049523D01*
X126916667Y-79216189D01*
X126916667Y-79144761D01*
X126940476Y-79097142D01*
X126964286Y-79073332D01*
X127011905Y-79049523D01*
X127130952Y-79049523D01*
X127178571Y-79073332D01*
X127202381Y-79097142D01*
X127226190Y-79144761D01*
X127226190Y-79287618D01*
X127202381Y-79335237D01*
X127178571Y-79359046D01*
X126726190Y-78906666D02*
X127226190Y-78739999D01*
X126726190Y-78573333D01*
X126726190Y-78454285D02*
X126726190Y-78144762D01*
X126916667Y-78311428D01*
X126916667Y-78240000D01*
X126940476Y-78192381D01*
X126964286Y-78168571D01*
X127011905Y-78144762D01*
X127130952Y-78144762D01*
X127178571Y-78168571D01*
X127202381Y-78192381D01*
X127226190Y-78240000D01*
X127226190Y-78382857D01*
X127202381Y-78430476D01*
X127178571Y-78454285D01*
X124662381Y-80628952D02*
X124686190Y-80557523D01*
X124686190Y-80438476D01*
X124662381Y-80390857D01*
X124638571Y-80367047D01*
X124590952Y-80343238D01*
X124543333Y-80343238D01*
X124495714Y-80367047D01*
X124471905Y-80390857D01*
X124448095Y-80438476D01*
X124424286Y-80533714D01*
X124400476Y-80581333D01*
X124376667Y-80605142D01*
X124329048Y-80628952D01*
X124281429Y-80628952D01*
X124233810Y-80605142D01*
X124210000Y-80581333D01*
X124186190Y-80533714D01*
X124186190Y-80414666D01*
X124210000Y-80343238D01*
X124186190Y-80176571D02*
X124686190Y-80057524D01*
X124329048Y-79962286D01*
X124686190Y-79867048D01*
X124186190Y-79748000D01*
X124686190Y-79557523D02*
X124186190Y-79557523D01*
X124186190Y-79438476D01*
X124210000Y-79367047D01*
X124257619Y-79319428D01*
X124305238Y-79295619D01*
X124400476Y-79271809D01*
X124471905Y-79271809D01*
X124567143Y-79295619D01*
X124614762Y-79319428D01*
X124662381Y-79367047D01*
X124686190Y-79438476D01*
X124686190Y-79557523D01*
X124638571Y-78771809D02*
X124662381Y-78795619D01*
X124686190Y-78867047D01*
X124686190Y-78914666D01*
X124662381Y-78986095D01*
X124614762Y-79033714D01*
X124567143Y-79057523D01*
X124471905Y-79081333D01*
X124400476Y-79081333D01*
X124305238Y-79057523D01*
X124257619Y-79033714D01*
X124210000Y-78986095D01*
X124186190Y-78914666D01*
X124186190Y-78867047D01*
X124210000Y-78795619D01*
X124233810Y-78771809D01*
X124686190Y-78319428D02*
X124686190Y-78557523D01*
X124186190Y-78557523D01*
X124686190Y-78152761D02*
X124186190Y-78152761D01*
X124686190Y-77867047D02*
X124400476Y-78081333D01*
X124186190Y-77867047D02*
X124471905Y-78152761D01*
X122122381Y-80053524D02*
X122146190Y-79982095D01*
X122146190Y-79863048D01*
X122122381Y-79815429D01*
X122098571Y-79791619D01*
X122050952Y-79767810D01*
X122003333Y-79767810D01*
X121955714Y-79791619D01*
X121931905Y-79815429D01*
X121908095Y-79863048D01*
X121884286Y-79958286D01*
X121860476Y-80005905D01*
X121836667Y-80029714D01*
X121789048Y-80053524D01*
X121741429Y-80053524D01*
X121693810Y-80029714D01*
X121670000Y-80005905D01*
X121646190Y-79958286D01*
X121646190Y-79839238D01*
X121670000Y-79767810D01*
X121646190Y-79601143D02*
X122146190Y-79482096D01*
X121789048Y-79386858D01*
X122146190Y-79291620D01*
X121646190Y-79172572D01*
X122146190Y-78982095D02*
X121646190Y-78982095D01*
X121646190Y-78863048D01*
X121670000Y-78791619D01*
X121717619Y-78744000D01*
X121765238Y-78720191D01*
X121860476Y-78696381D01*
X121931905Y-78696381D01*
X122027143Y-78720191D01*
X122074762Y-78744000D01*
X122122381Y-78791619D01*
X122146190Y-78863048D01*
X122146190Y-78982095D01*
X122146190Y-78482095D02*
X121646190Y-78482095D01*
X121646190Y-78148762D02*
X121646190Y-78053524D01*
X121670000Y-78005905D01*
X121717619Y-77958286D01*
X121812857Y-77934477D01*
X121979524Y-77934477D01*
X122074762Y-77958286D01*
X122122381Y-78005905D01*
X122146190Y-78053524D01*
X122146190Y-78148762D01*
X122122381Y-78196381D01*
X122074762Y-78244000D01*
X121979524Y-78267810D01*
X121812857Y-78267810D01*
X121717619Y-78244000D01*
X121670000Y-78196381D01*
X121646190Y-78148762D01*
X119130000Y-79120953D02*
X119106190Y-79168572D01*
X119106190Y-79240000D01*
X119130000Y-79311429D01*
X119177619Y-79359048D01*
X119225238Y-79382857D01*
X119320476Y-79406667D01*
X119391905Y-79406667D01*
X119487143Y-79382857D01*
X119534762Y-79359048D01*
X119582381Y-79311429D01*
X119606190Y-79240000D01*
X119606190Y-79192381D01*
X119582381Y-79120953D01*
X119558571Y-79097143D01*
X119391905Y-79097143D01*
X119391905Y-79192381D01*
X119606190Y-78882857D02*
X119106190Y-78882857D01*
X119606190Y-78597143D01*
X119106190Y-78597143D01*
X119606190Y-78359047D02*
X119106190Y-78359047D01*
X119106190Y-78240000D01*
X119130000Y-78168571D01*
X119177619Y-78120952D01*
X119225238Y-78097143D01*
X119320476Y-78073333D01*
X119391905Y-78073333D01*
X119487143Y-78097143D01*
X119534762Y-78120952D01*
X119582381Y-78168571D01*
X119606190Y-78240000D01*
X119606190Y-78359047D01*
D14*
X132731429Y-121328571D02*
X132331429Y-120614286D01*
X132045714Y-121328571D02*
X132045714Y-119828571D01*
X132502857Y-119828571D01*
X132617143Y-119900000D01*
X132674286Y-119971429D01*
X132731429Y-120114286D01*
X132731429Y-120328571D01*
X132674286Y-120471429D01*
X132617143Y-120542857D01*
X132502857Y-120614286D01*
X132045714Y-120614286D01*
X133645714Y-120542857D02*
X133817143Y-120614286D01*
X133874286Y-120685714D01*
X133931429Y-120828571D01*
X133931429Y-121042857D01*
X133874286Y-121185714D01*
X133817143Y-121257143D01*
X133702857Y-121328571D01*
X133245714Y-121328571D01*
X133245714Y-119828571D01*
X133645714Y-119828571D01*
X133760000Y-119900000D01*
X133817143Y-119971429D01*
X133874286Y-120114286D01*
X133874286Y-120257143D01*
X133817143Y-120400000D01*
X133760000Y-120471429D01*
X133645714Y-120542857D01*
X133245714Y-120542857D01*
X135017143Y-121328571D02*
X134445714Y-121328571D01*
X134445714Y-119828571D01*
X135645715Y-119828571D02*
X135760000Y-119828571D01*
X135874286Y-119900000D01*
X135931429Y-119971429D01*
X135988572Y-120114286D01*
X136045715Y-120400000D01*
X136045715Y-120757143D01*
X135988572Y-121042857D01*
X135931429Y-121185714D01*
X135874286Y-121257143D01*
X135760000Y-121328571D01*
X135645715Y-121328571D01*
X135531429Y-121257143D01*
X135474286Y-121185714D01*
X135417143Y-121042857D01*
X135360000Y-120757143D01*
X135360000Y-120400000D01*
X135417143Y-120114286D01*
X135474286Y-119971429D01*
X135531429Y-119900000D01*
X135645715Y-119828571D01*
X136788572Y-119828571D02*
X136902857Y-119828571D01*
X137017143Y-119900000D01*
X137074286Y-119971429D01*
X137131429Y-120114286D01*
X137188572Y-120400000D01*
X137188572Y-120757143D01*
X137131429Y-121042857D01*
X137074286Y-121185714D01*
X137017143Y-121257143D01*
X136902857Y-121328571D01*
X136788572Y-121328571D01*
X136674286Y-121257143D01*
X136617143Y-121185714D01*
X136560000Y-121042857D01*
X136502857Y-120757143D01*
X136502857Y-120400000D01*
X136560000Y-120114286D01*
X136617143Y-119971429D01*
X136674286Y-119900000D01*
X136788572Y-119828571D01*
X138217143Y-120328571D02*
X138217143Y-121328571D01*
X137931429Y-119757143D02*
X137645714Y-120828571D01*
X138388572Y-120828571D01*
X138845714Y-121185714D02*
X138902857Y-121257143D01*
X138845714Y-121328571D01*
X138788571Y-121257143D01*
X138845714Y-121185714D01*
X138845714Y-121328571D01*
X139645715Y-119828571D02*
X139760000Y-119828571D01*
X139874286Y-119900000D01*
X139931429Y-119971429D01*
X139988572Y-120114286D01*
X140045715Y-120400000D01*
X140045715Y-120757143D01*
X139988572Y-121042857D01*
X139931429Y-121185714D01*
X139874286Y-121257143D01*
X139760000Y-121328571D01*
X139645715Y-121328571D01*
X139531429Y-121257143D01*
X139474286Y-121185714D01*
X139417143Y-121042857D01*
X139360000Y-120757143D01*
X139360000Y-120400000D01*
X139417143Y-120114286D01*
X139474286Y-119971429D01*
X139531429Y-119900000D01*
X139645715Y-119828571D01*
X140788572Y-119828571D02*
X140902857Y-119828571D01*
X141017143Y-119900000D01*
X141074286Y-119971429D01*
X141131429Y-120114286D01*
X141188572Y-120400000D01*
X141188572Y-120757143D01*
X141131429Y-121042857D01*
X141074286Y-121185714D01*
X141017143Y-121257143D01*
X140902857Y-121328571D01*
X140788572Y-121328571D01*
X140674286Y-121257143D01*
X140617143Y-121185714D01*
X140560000Y-121042857D01*
X140502857Y-120757143D01*
X140502857Y-120400000D01*
X140560000Y-120114286D01*
X140617143Y-119971429D01*
X140674286Y-119900000D01*
X140788572Y-119828571D01*
X142331429Y-121328571D02*
X141645714Y-121328571D01*
X141988572Y-121328571D02*
X141988572Y-119828571D01*
X141874286Y-120042857D01*
X141760000Y-120185714D01*
X141645714Y-120257143D01*
D17*
X177102095Y-76652381D02*
X177102095Y-75652381D01*
X177483048Y-75652381D01*
X177578286Y-75700000D01*
X177625905Y-75747619D01*
X177673524Y-75842857D01*
X177673524Y-75985714D01*
X177625905Y-76080952D01*
X177578286Y-76128571D01*
X177483048Y-76176190D01*
X177102095Y-76176190D01*
X178292571Y-75652381D02*
X178483048Y-75652381D01*
X178578286Y-75700000D01*
X178673524Y-75795238D01*
X178721143Y-75985714D01*
X178721143Y-76319048D01*
X178673524Y-76509524D01*
X178578286Y-76604762D01*
X178483048Y-76652381D01*
X178292571Y-76652381D01*
X178197333Y-76604762D01*
X178102095Y-76509524D01*
X178054476Y-76319048D01*
X178054476Y-75985714D01*
X178102095Y-75795238D01*
X178197333Y-75700000D01*
X178292571Y-75652381D01*
X179054476Y-75652381D02*
X179292571Y-76652381D01*
X179483048Y-75938095D01*
X179673524Y-76652381D01*
X179911619Y-75652381D01*
X180292571Y-76128571D02*
X180625905Y-76128571D01*
X180768762Y-76652381D02*
X180292571Y-76652381D01*
X180292571Y-75652381D01*
X180768762Y-75652381D01*
X181768762Y-76652381D02*
X181435428Y-76176190D01*
X181197333Y-76652381D02*
X181197333Y-75652381D01*
X181578286Y-75652381D01*
X181673524Y-75700000D01*
X181721143Y-75747619D01*
X181768762Y-75842857D01*
X181768762Y-75985714D01*
X181721143Y-76080952D01*
X181673524Y-76128571D01*
X181578286Y-76176190D01*
X181197333Y-76176190D01*
X183530667Y-76557143D02*
X183483048Y-76604762D01*
X183340191Y-76652381D01*
X183244953Y-76652381D01*
X183102095Y-76604762D01*
X183006857Y-76509524D01*
X182959238Y-76414286D01*
X182911619Y-76223810D01*
X182911619Y-76080952D01*
X182959238Y-75890476D01*
X183006857Y-75795238D01*
X183102095Y-75700000D01*
X183244953Y-75652381D01*
X183340191Y-75652381D01*
X183483048Y-75700000D01*
X183530667Y-75747619D01*
X184149714Y-75652381D02*
X184340191Y-75652381D01*
X184435429Y-75700000D01*
X184530667Y-75795238D01*
X184578286Y-75985714D01*
X184578286Y-76319048D01*
X184530667Y-76509524D01*
X184435429Y-76604762D01*
X184340191Y-76652381D01*
X184149714Y-76652381D01*
X184054476Y-76604762D01*
X183959238Y-76509524D01*
X183911619Y-76319048D01*
X183911619Y-75985714D01*
X183959238Y-75795238D01*
X184054476Y-75700000D01*
X184149714Y-75652381D01*
X185006857Y-76652381D02*
X185006857Y-75652381D01*
X185578286Y-76652381D01*
X185578286Y-75652381D01*
X186054476Y-76652381D02*
X186054476Y-75652381D01*
X186625905Y-76652381D01*
X186625905Y-75652381D01*
X172886667Y-115410476D02*
X172886667Y-114934285D01*
X173172381Y-115505714D02*
X172172381Y-115172381D01*
X173172381Y-114839047D01*
X173172381Y-114505714D02*
X172172381Y-114505714D01*
X172886667Y-114172380D01*
X172172381Y-113839047D01*
X173172381Y-113839047D01*
X173172381Y-113362857D02*
X172172381Y-113362857D01*
X172220000Y-112362857D02*
X172172381Y-112458095D01*
X172172381Y-112600952D01*
X172220000Y-112743810D01*
X172315238Y-112839048D01*
X172410476Y-112886667D01*
X172600952Y-112934286D01*
X172743810Y-112934286D01*
X172934286Y-112886667D01*
X173029524Y-112839048D01*
X173124762Y-112743810D01*
X173172381Y-112600952D01*
X173172381Y-112505714D01*
X173124762Y-112362857D01*
X173077143Y-112315238D01*
X172743810Y-112315238D01*
X172743810Y-112505714D01*
X172886667Y-111934286D02*
X172886667Y-111458095D01*
X173172381Y-112029524D02*
X172172381Y-111696191D01*
X173172381Y-111362857D01*
X173172381Y-110267619D02*
X172172381Y-110267619D01*
X173172381Y-109696190D02*
X172600952Y-110124762D01*
X172172381Y-109696190D02*
X172743810Y-110267619D01*
X172648571Y-109267619D02*
X172648571Y-108934285D01*
X173172381Y-108791428D02*
X173172381Y-109267619D01*
X172172381Y-109267619D01*
X172172381Y-108791428D01*
X172696190Y-108172381D02*
X173172381Y-108172381D01*
X172172381Y-108505714D02*
X172696190Y-108172381D01*
X172172381Y-107839047D01*
X172648571Y-107172380D02*
X172696190Y-107029523D01*
X172743810Y-106981904D01*
X172839048Y-106934285D01*
X172981905Y-106934285D01*
X173077143Y-106981904D01*
X173124762Y-107029523D01*
X173172381Y-107124761D01*
X173172381Y-107505714D01*
X172172381Y-107505714D01*
X172172381Y-107172380D01*
X172220000Y-107077142D01*
X172267619Y-107029523D01*
X172362857Y-106981904D01*
X172458095Y-106981904D01*
X172553333Y-107029523D01*
X172600952Y-107077142D01*
X172648571Y-107172380D01*
X172648571Y-107505714D01*
X172172381Y-106315238D02*
X172172381Y-106124761D01*
X172220000Y-106029523D01*
X172315238Y-105934285D01*
X172505714Y-105886666D01*
X172839048Y-105886666D01*
X173029524Y-105934285D01*
X173124762Y-106029523D01*
X173172381Y-106124761D01*
X173172381Y-106315238D01*
X173124762Y-106410476D01*
X173029524Y-106505714D01*
X172839048Y-106553333D01*
X172505714Y-106553333D01*
X172315238Y-106505714D01*
X172220000Y-106410476D01*
X172172381Y-106315238D01*
X172886667Y-105505714D02*
X172886667Y-105029523D01*
X173172381Y-105600952D02*
X172172381Y-105267619D01*
X173172381Y-104934285D01*
X173172381Y-104029523D02*
X172696190Y-104362857D01*
X173172381Y-104600952D02*
X172172381Y-104600952D01*
X172172381Y-104219999D01*
X172220000Y-104124761D01*
X172267619Y-104077142D01*
X172362857Y-104029523D01*
X172505714Y-104029523D01*
X172600952Y-104077142D01*
X172648571Y-104124761D01*
X172696190Y-104219999D01*
X172696190Y-104600952D01*
X173172381Y-103600952D02*
X172172381Y-103600952D01*
X172172381Y-103362857D01*
X172220000Y-103219999D01*
X172315238Y-103124761D01*
X172410476Y-103077142D01*
X172600952Y-103029523D01*
X172743810Y-103029523D01*
X172934286Y-103077142D01*
X173029524Y-103124761D01*
X173124762Y-103219999D01*
X173172381Y-103362857D01*
X173172381Y-103600952D01*
X171656952Y-122086667D02*
X172133143Y-122086667D01*
X171561714Y-122372381D02*
X171895047Y-121372381D01*
X172228381Y-122372381D01*
X172561714Y-122372381D02*
X172561714Y-121372381D01*
X172895048Y-122086667D01*
X173228381Y-121372381D01*
X173228381Y-122372381D01*
X173704571Y-122372381D02*
X173704571Y-121372381D01*
X174704571Y-121420000D02*
X174609333Y-121372381D01*
X174466476Y-121372381D01*
X174323618Y-121420000D01*
X174228380Y-121515238D01*
X174180761Y-121610476D01*
X174133142Y-121800952D01*
X174133142Y-121943810D01*
X174180761Y-122134286D01*
X174228380Y-122229524D01*
X174323618Y-122324762D01*
X174466476Y-122372381D01*
X174561714Y-122372381D01*
X174704571Y-122324762D01*
X174752190Y-122277143D01*
X174752190Y-121943810D01*
X174561714Y-121943810D01*
X175133142Y-122086667D02*
X175609333Y-122086667D01*
X175037904Y-122372381D02*
X175371237Y-121372381D01*
X175704571Y-122372381D01*
X177371238Y-122372381D02*
X177037904Y-121896190D01*
X176799809Y-122372381D02*
X176799809Y-121372381D01*
X177180762Y-121372381D01*
X177276000Y-121420000D01*
X177323619Y-121467619D01*
X177371238Y-121562857D01*
X177371238Y-121705714D01*
X177323619Y-121800952D01*
X177276000Y-121848571D01*
X177180762Y-121896190D01*
X176799809Y-121896190D01*
X177799809Y-121848571D02*
X178133143Y-121848571D01*
X178276000Y-122372381D02*
X177799809Y-122372381D01*
X177799809Y-121372381D01*
X178276000Y-121372381D01*
X178656952Y-122324762D02*
X178799809Y-122372381D01*
X179037905Y-122372381D01*
X179133143Y-122324762D01*
X179180762Y-122277143D01*
X179228381Y-122181905D01*
X179228381Y-122086667D01*
X179180762Y-121991429D01*
X179133143Y-121943810D01*
X179037905Y-121896190D01*
X178847428Y-121848571D01*
X178752190Y-121800952D01*
X178704571Y-121753333D01*
X178656952Y-121658095D01*
X178656952Y-121562857D01*
X178704571Y-121467619D01*
X178752190Y-121420000D01*
X178847428Y-121372381D01*
X179085524Y-121372381D01*
X179228381Y-121420000D01*
X179656952Y-121848571D02*
X179990286Y-121848571D01*
X180133143Y-122372381D02*
X179656952Y-122372381D01*
X179656952Y-121372381D01*
X180133143Y-121372381D01*
X180418857Y-121372381D02*
X180990286Y-121372381D01*
X180704571Y-122372381D02*
X180704571Y-121372381D01*
D12*
X144685000Y-88805000D02*
X144685000Y-89880000D01*
X155035000Y-88805000D02*
X155035000Y-89880000D01*
X155035000Y-99155000D02*
X155035000Y-98080000D01*
X144685000Y-99155000D02*
X144685000Y-98080000D01*
X144685000Y-88805000D02*
X145760000Y-88805000D01*
X144685000Y-99155000D02*
X145760000Y-99155000D01*
X155035000Y-99155000D02*
X153960000Y-99155000D01*
X155035000Y-88805000D02*
X153960000Y-88805000D01*
X144685000Y-89880000D02*
X143660000Y-89880000D01*
X115316000Y-120650000D02*
G75*
G03X115316000Y-120650000I-2286000J0D01*
G01*
X186436000Y-120650000D02*
G75*
G03X186436000Y-120650000I-2286000J0D01*
G01*
X186436000Y-69850000D02*
G75*
G03X186436000Y-69850000I-2286000J0D01*
G01*
X115316000Y-69850000D02*
G75*
G03X115316000Y-69850000I-2286000J0D01*
G01*
X164211000Y-75438000D02*
X164211000Y-78486000D01*
X164211000Y-78486000D02*
X171323000Y-78486000D01*
X171323000Y-78486000D02*
X171323000Y-75438000D01*
X164211000Y-72390000D02*
X164211000Y-71628000D01*
X164211000Y-71628000D02*
X165735000Y-69342000D01*
X165735000Y-69342000D02*
X169799000Y-69342000D01*
X169799000Y-69342000D02*
X171323000Y-71628000D01*
X171323000Y-71628000D02*
X171323000Y-72390000D01*
X132953760Y-106396840D02*
X132953760Y-106445100D01*
X133654800Y-109195820D02*
X132953760Y-109195820D01*
X132953760Y-109195820D02*
X132953760Y-108946900D01*
X132953760Y-106396840D02*
X132953760Y-106196180D01*
X132953760Y-106196180D02*
X133654800Y-106196180D01*
X139303760Y-106142840D02*
X139303760Y-106191100D01*
X140004800Y-108941820D02*
X139303760Y-108941820D01*
X139303760Y-108941820D02*
X139303760Y-108692900D01*
X139303760Y-106142840D02*
X139303760Y-105942180D01*
X139303760Y-105942180D02*
X140004800Y-105942180D01*
X151495760Y-106650840D02*
X151495760Y-106699100D01*
X152196800Y-109449820D02*
X151495760Y-109449820D01*
X151495760Y-109449820D02*
X151495760Y-109200900D01*
X151495760Y-106650840D02*
X151495760Y-106450180D01*
X151495760Y-106450180D02*
X152196800Y-106450180D01*
X146050000Y-110524000D02*
X157250000Y-110524000D01*
X157250000Y-128524000D02*
X157250000Y-110524000D01*
X146050000Y-128524000D02*
X146050000Y-110524000D01*
X146050000Y-128524000D02*
X157250000Y-128524000D01*
X172602000Y-74456000D02*
X176202000Y-74456000D01*
X172602000Y-72356000D02*
X176202000Y-72356000D01*
X174652000Y-73106000D02*
X174652000Y-73706000D01*
X174652000Y-73706000D02*
X174352000Y-73406000D01*
X174352000Y-73406000D02*
X174552000Y-73206000D01*
X174552000Y-73206000D02*
X174552000Y-73456000D01*
X174552000Y-73456000D02*
X174502000Y-73406000D01*
X174252000Y-72906000D02*
X174252000Y-73906000D01*
X174752000Y-73406000D02*
X175252000Y-73406000D01*
X174252000Y-73406000D02*
X174752000Y-72906000D01*
X174752000Y-72906000D02*
X174752000Y-73906000D01*
X174752000Y-73906000D02*
X174252000Y-73406000D01*
X165320000Y-85480000D02*
X165320000Y-89080000D01*
X167420000Y-85480000D02*
X167420000Y-89080000D01*
X166670000Y-87530000D02*
X166070000Y-87530000D01*
X166070000Y-87530000D02*
X166370000Y-87230000D01*
X166370000Y-87230000D02*
X166570000Y-87430000D01*
X166570000Y-87430000D02*
X166320000Y-87430000D01*
X166320000Y-87430000D02*
X166370000Y-87380000D01*
X166870000Y-87130000D02*
X165870000Y-87130000D01*
X166370000Y-87630000D02*
X166370000Y-88130000D01*
X166370000Y-87130000D02*
X166870000Y-87630000D01*
X166870000Y-87630000D02*
X165870000Y-87630000D01*
X165870000Y-87630000D02*
X166370000Y-87130000D01*
X182998000Y-89374000D02*
X179398000Y-89374000D01*
X182998000Y-91474000D02*
X179398000Y-91474000D01*
X180948000Y-90724000D02*
X180948000Y-90124000D01*
X180948000Y-90124000D02*
X181248000Y-90424000D01*
X181248000Y-90424000D02*
X181048000Y-90624000D01*
X181048000Y-90624000D02*
X181048000Y-90374000D01*
X181048000Y-90374000D02*
X181098000Y-90424000D01*
X181348000Y-90924000D02*
X181348000Y-89924000D01*
X180848000Y-90424000D02*
X180348000Y-90424000D01*
X181348000Y-90424000D02*
X180848000Y-90924000D01*
X180848000Y-90924000D02*
X180848000Y-89924000D01*
X180848000Y-89924000D02*
X181348000Y-90424000D01*
X139988000Y-84954000D02*
X139988000Y-81354000D01*
X137888000Y-84954000D02*
X137888000Y-81354000D01*
X138638000Y-82904000D02*
X139238000Y-82904000D01*
X139238000Y-82904000D02*
X138938000Y-83204000D01*
X138938000Y-83204000D02*
X138738000Y-83004000D01*
X138738000Y-83004000D02*
X138988000Y-83004000D01*
X138988000Y-83004000D02*
X138938000Y-83054000D01*
X138438000Y-83304000D02*
X139438000Y-83304000D01*
X138938000Y-82804000D02*
X138938000Y-82304000D01*
X138938000Y-83304000D02*
X138438000Y-82804000D01*
X138438000Y-82804000D02*
X139438000Y-82804000D01*
X139438000Y-82804000D02*
X138938000Y-83304000D01*
X180356000Y-72585000D02*
X182356000Y-72585000D01*
X182356000Y-74735000D02*
X180356000Y-74735000D01*
X161993000Y-87614000D02*
X161993000Y-85614000D01*
X164143000Y-85614000D02*
X164143000Y-87614000D01*
X124265000Y-96790000D02*
X124265000Y-98790000D01*
X122115000Y-98790000D02*
X122115000Y-96790000D01*
X124265000Y-89805000D02*
X124265000Y-91805000D01*
X122115000Y-91805000D02*
X122115000Y-89805000D01*
X119820000Y-89805000D02*
X119820000Y-91805000D01*
X117670000Y-91805000D02*
X117670000Y-89805000D01*
X173466000Y-94801000D02*
X171466000Y-94801000D01*
X171466000Y-92651000D02*
X173466000Y-92651000D01*
X157750000Y-106113000D02*
X159750000Y-106113000D01*
X159750000Y-108263000D02*
X157750000Y-108263000D01*
X160544000Y-110685000D02*
X162544000Y-110685000D01*
X162544000Y-112835000D02*
X160544000Y-112835000D01*
X145304000Y-105859000D02*
X147304000Y-105859000D01*
X147304000Y-108009000D02*
X145304000Y-108009000D01*
X139716000Y-110431000D02*
X141716000Y-110431000D01*
X141716000Y-112581000D02*
X139716000Y-112581000D01*
X132350000Y-110431000D02*
X134350000Y-110431000D01*
X134350000Y-112581000D02*
X132350000Y-112581000D01*
X132572000Y-104961000D02*
X130572000Y-104961000D01*
X130572000Y-102811000D02*
X132572000Y-102811000D01*
X135441000Y-81296000D02*
X135441000Y-83296000D01*
X133291000Y-83296000D02*
X133291000Y-81296000D01*
X141350140Y-79885120D02*
X141350140Y-65788120D01*
X156336140Y-65788120D02*
X156336140Y-79885120D01*
X141350140Y-79885120D02*
X156336140Y-79885120D01*
X141350140Y-65788120D02*
X156336140Y-65788120D01*
D18*
X141209000Y-92204000D02*
X141209000Y-98604000D01*
X136159000Y-92204000D02*
X136159000Y-98604000D01*
X136159000Y-92204000D02*
G75*
G02X141209000Y-92204000I2525000J0D01*
G01*
X136159000Y-98604000D02*
G75*
G03X141209000Y-98604000I2525000J0D01*
G01*
D12*
X152416000Y-86877000D02*
X154416000Y-86877000D01*
X154416000Y-84827000D02*
X152416000Y-84827000D01*
X147304000Y-84827000D02*
X145304000Y-84827000D01*
X145304000Y-86877000D02*
X147304000Y-86877000D01*
X147304000Y-101591000D02*
X145304000Y-101591000D01*
X145304000Y-103641000D02*
X147304000Y-103641000D01*
X159521000Y-94980000D02*
X159521000Y-92980000D01*
X157471000Y-92980000D02*
X157471000Y-94980000D01*
X139684000Y-102099000D02*
X137684000Y-102099000D01*
X137684000Y-104149000D02*
X139684000Y-104149000D01*
X139684000Y-86351000D02*
X137684000Y-86351000D01*
X137684000Y-88401000D02*
X139684000Y-88401000D01*
X117830000Y-77500000D02*
X119380000Y-77500000D01*
X117830000Y-76200000D02*
X117830000Y-77500000D01*
X119253000Y-72009000D02*
X119253000Y-66167000D01*
X119253000Y-66167000D02*
X119507000Y-66167000D01*
X119507000Y-66167000D02*
X119507000Y-72009000D01*
X119507000Y-72009000D02*
X119380000Y-72009000D01*
X119380000Y-72009000D02*
X119380000Y-66167000D01*
X119126000Y-74676000D02*
X119126000Y-75057000D01*
X119634000Y-74676000D02*
X119634000Y-75057000D01*
X121666000Y-74676000D02*
X121666000Y-75057000D01*
X122174000Y-74676000D02*
X122174000Y-75057000D01*
X124206000Y-74676000D02*
X124206000Y-75057000D01*
X124714000Y-74676000D02*
X124714000Y-75057000D01*
X127254000Y-74676000D02*
X127254000Y-75057000D01*
X126746000Y-74676000D02*
X126746000Y-75057000D01*
X118110000Y-74676000D02*
X118110000Y-72136000D01*
X120650000Y-74676000D02*
X120650000Y-72136000D01*
X120650000Y-74676000D02*
X123190000Y-74676000D01*
X123190000Y-74676000D02*
X123190000Y-72136000D01*
X121666000Y-72136000D02*
X121666000Y-66040000D01*
X121666000Y-66040000D02*
X122174000Y-66040000D01*
X122174000Y-66040000D02*
X122174000Y-72136000D01*
X123190000Y-72136000D02*
X120650000Y-72136000D01*
X120650000Y-72136000D02*
X118110000Y-72136000D01*
X119634000Y-66040000D02*
X119634000Y-72136000D01*
X119126000Y-66040000D02*
X119634000Y-66040000D01*
X119126000Y-72136000D02*
X119126000Y-66040000D01*
X120650000Y-74676000D02*
X120650000Y-72136000D01*
X118110000Y-74676000D02*
X120650000Y-74676000D01*
X125730000Y-74676000D02*
X125730000Y-72136000D01*
X125730000Y-74676000D02*
X128270000Y-74676000D01*
X128270000Y-74676000D02*
X128270000Y-72136000D01*
X126746000Y-72136000D02*
X126746000Y-66040000D01*
X126746000Y-66040000D02*
X127254000Y-66040000D01*
X127254000Y-66040000D02*
X127254000Y-72136000D01*
X128270000Y-72136000D02*
X125730000Y-72136000D01*
X125730000Y-72136000D02*
X123190000Y-72136000D01*
X124714000Y-66040000D02*
X124714000Y-72136000D01*
X124206000Y-66040000D02*
X124714000Y-66040000D01*
X124206000Y-72136000D02*
X124206000Y-66040000D01*
X125730000Y-74676000D02*
X125730000Y-72136000D01*
X123190000Y-74676000D02*
X125730000Y-74676000D01*
X123190000Y-74676000D02*
X123190000Y-72136000D01*
X120650000Y-85090000D02*
X125730000Y-85090000D01*
X125730000Y-85090000D02*
X125730000Y-82550000D01*
X125730000Y-82550000D02*
X120650000Y-82550000D01*
X117830000Y-82270000D02*
X119380000Y-82270000D01*
X120650000Y-82550000D02*
X120650000Y-85090000D01*
X119380000Y-85370000D02*
X117830000Y-85370000D01*
X117830000Y-85370000D02*
X117830000Y-82270000D01*
X128270000Y-85725000D02*
X128270000Y-83185000D01*
X127990000Y-88545000D02*
X127990000Y-86995000D01*
X128270000Y-85725000D02*
X130810000Y-85725000D01*
X131090000Y-86995000D02*
X131090000Y-88545000D01*
X131090000Y-88545000D02*
X127990000Y-88545000D01*
X130810000Y-85725000D02*
X130810000Y-83185000D01*
X130810000Y-83185000D02*
X128270000Y-83185000D01*
X135890000Y-69215000D02*
X130810000Y-69215000D01*
X130810000Y-69215000D02*
X130810000Y-71755000D01*
X130810000Y-71755000D02*
X135890000Y-71755000D01*
X138710000Y-72035000D02*
X137160000Y-72035000D01*
X135890000Y-71755000D02*
X135890000Y-69215000D01*
X137160000Y-68935000D02*
X138710000Y-68935000D01*
X138710000Y-68935000D02*
X138710000Y-72035000D01*
D18*
X112490000Y-99580000D02*
X112490000Y-93460000D01*
X112490000Y-93460000D02*
X116110000Y-93460000D01*
X116110000Y-93460000D02*
X116110000Y-99580000D01*
X116110000Y-99580000D02*
X112490000Y-99580000D01*
D12*
X162560000Y-72390000D02*
X162560000Y-74930000D01*
X162840000Y-69570000D02*
X162840000Y-71120000D01*
X162560000Y-72390000D02*
X160020000Y-72390000D01*
X159740000Y-71120000D02*
X159740000Y-69570000D01*
X159740000Y-69570000D02*
X162840000Y-69570000D01*
X160020000Y-72390000D02*
X160020000Y-74930000D01*
X160020000Y-74930000D02*
X162560000Y-74930000D01*
X173960000Y-77190000D02*
X173960000Y-78740000D01*
X175260000Y-77190000D02*
X173960000Y-77190000D01*
X179451000Y-78613000D02*
X185293000Y-78613000D01*
X185293000Y-78613000D02*
X185293000Y-78867000D01*
X185293000Y-78867000D02*
X179451000Y-78867000D01*
X179451000Y-78867000D02*
X179451000Y-78740000D01*
X179451000Y-78740000D02*
X185293000Y-78740000D01*
X176784000Y-78486000D02*
X176403000Y-78486000D01*
X176784000Y-78994000D02*
X176403000Y-78994000D01*
X176784000Y-81026000D02*
X176403000Y-81026000D01*
X176784000Y-81534000D02*
X176403000Y-81534000D01*
X176784000Y-83566000D02*
X176403000Y-83566000D01*
X176784000Y-84074000D02*
X176403000Y-84074000D01*
X176784000Y-86614000D02*
X176403000Y-86614000D01*
X176784000Y-86106000D02*
X176403000Y-86106000D01*
X176784000Y-77470000D02*
X179324000Y-77470000D01*
X176784000Y-80010000D02*
X179324000Y-80010000D01*
X176784000Y-80010000D02*
X176784000Y-82550000D01*
X176784000Y-82550000D02*
X179324000Y-82550000D01*
X179324000Y-81026000D02*
X185420000Y-81026000D01*
X185420000Y-81026000D02*
X185420000Y-81534000D01*
X185420000Y-81534000D02*
X179324000Y-81534000D01*
X179324000Y-82550000D02*
X179324000Y-80010000D01*
X179324000Y-80010000D02*
X179324000Y-77470000D01*
X185420000Y-78994000D02*
X179324000Y-78994000D01*
X185420000Y-78486000D02*
X185420000Y-78994000D01*
X179324000Y-78486000D02*
X185420000Y-78486000D01*
X176784000Y-80010000D02*
X179324000Y-80010000D01*
X176784000Y-77470000D02*
X176784000Y-80010000D01*
X176784000Y-85090000D02*
X179324000Y-85090000D01*
X176784000Y-85090000D02*
X176784000Y-87630000D01*
X176784000Y-87630000D02*
X179324000Y-87630000D01*
X179324000Y-86106000D02*
X185420000Y-86106000D01*
X185420000Y-86106000D02*
X185420000Y-86614000D01*
X185420000Y-86614000D02*
X179324000Y-86614000D01*
X179324000Y-87630000D02*
X179324000Y-85090000D01*
X179324000Y-85090000D02*
X179324000Y-82550000D01*
X185420000Y-84074000D02*
X179324000Y-84074000D01*
X185420000Y-83566000D02*
X185420000Y-84074000D01*
X179324000Y-83566000D02*
X185420000Y-83566000D01*
X176784000Y-85090000D02*
X179324000Y-85090000D01*
X176784000Y-82550000D02*
X176784000Y-85090000D01*
X176784000Y-82550000D02*
X179324000Y-82550000D01*
X173960000Y-102590000D02*
X173960000Y-104140000D01*
X175260000Y-102590000D02*
X173960000Y-102590000D01*
X179451000Y-104013000D02*
X185293000Y-104013000D01*
X185293000Y-104013000D02*
X185293000Y-104267000D01*
X185293000Y-104267000D02*
X179451000Y-104267000D01*
X179451000Y-104267000D02*
X179451000Y-104140000D01*
X179451000Y-104140000D02*
X185293000Y-104140000D01*
X176784000Y-103886000D02*
X176403000Y-103886000D01*
X176784000Y-104394000D02*
X176403000Y-104394000D01*
X176784000Y-106426000D02*
X176403000Y-106426000D01*
X176784000Y-106934000D02*
X176403000Y-106934000D01*
X176784000Y-108966000D02*
X176403000Y-108966000D01*
X176784000Y-109474000D02*
X176403000Y-109474000D01*
X176784000Y-111506000D02*
X176403000Y-111506000D01*
X176784000Y-112014000D02*
X176403000Y-112014000D01*
X176784000Y-114554000D02*
X176403000Y-114554000D01*
X176784000Y-114046000D02*
X176403000Y-114046000D01*
X179324000Y-105410000D02*
X179324000Y-102870000D01*
X185420000Y-104394000D02*
X179324000Y-104394000D01*
X185420000Y-103886000D02*
X185420000Y-104394000D01*
X179324000Y-103886000D02*
X185420000Y-103886000D01*
X176784000Y-105410000D02*
X179324000Y-105410000D01*
X176784000Y-102870000D02*
X176784000Y-105410000D01*
X176784000Y-102870000D02*
X179324000Y-102870000D01*
X176784000Y-107950000D02*
X179324000Y-107950000D01*
X176784000Y-107950000D02*
X176784000Y-110490000D01*
X176784000Y-110490000D02*
X179324000Y-110490000D01*
X179324000Y-108966000D02*
X185420000Y-108966000D01*
X185420000Y-108966000D02*
X185420000Y-109474000D01*
X185420000Y-109474000D02*
X179324000Y-109474000D01*
X179324000Y-110490000D02*
X179324000Y-107950000D01*
X179324000Y-107950000D02*
X179324000Y-105410000D01*
X185420000Y-106934000D02*
X179324000Y-106934000D01*
X185420000Y-106426000D02*
X185420000Y-106934000D01*
X179324000Y-106426000D02*
X185420000Y-106426000D01*
X176784000Y-107950000D02*
X179324000Y-107950000D01*
X176784000Y-105410000D02*
X176784000Y-107950000D01*
X176784000Y-105410000D02*
X179324000Y-105410000D01*
X176784000Y-113030000D02*
X179324000Y-113030000D01*
X176784000Y-113030000D02*
X176784000Y-115570000D01*
X176784000Y-115570000D02*
X179324000Y-115570000D01*
X179324000Y-114046000D02*
X185420000Y-114046000D01*
X185420000Y-114046000D02*
X185420000Y-114554000D01*
X185420000Y-114554000D02*
X179324000Y-114554000D01*
X179324000Y-115570000D02*
X179324000Y-113030000D01*
X179324000Y-113030000D02*
X179324000Y-110490000D01*
X185420000Y-112014000D02*
X179324000Y-112014000D01*
X185420000Y-111506000D02*
X185420000Y-112014000D01*
X179324000Y-111506000D02*
X185420000Y-111506000D01*
X176784000Y-113030000D02*
X179324000Y-113030000D01*
X176784000Y-110490000D02*
X176784000Y-113030000D01*
X176784000Y-110490000D02*
X179324000Y-110490000D01*
X176530000Y-118110000D02*
X179070000Y-118110000D01*
X173710000Y-117830000D02*
X175260000Y-117830000D01*
X176530000Y-118110000D02*
X176530000Y-120650000D01*
X175260000Y-120930000D02*
X173710000Y-120930000D01*
X173710000Y-120930000D02*
X173710000Y-117830000D01*
X176530000Y-120650000D02*
X179070000Y-120650000D01*
X179070000Y-120650000D02*
X179070000Y-118110000D01*
X131445000Y-94615000D02*
X131445000Y-97155000D01*
X131725000Y-91795000D02*
X131725000Y-93345000D01*
X131445000Y-94615000D02*
X128905000Y-94615000D01*
X128625000Y-93345000D02*
X128625000Y-91795000D01*
X128625000Y-91795000D02*
X131725000Y-91795000D01*
X128905000Y-94615000D02*
X128905000Y-97155000D01*
X128905000Y-97155000D02*
X131445000Y-97155000D01*
D18*
X127865000Y-103870000D02*
X127865000Y-119650000D01*
X127865000Y-119650000D02*
X118515000Y-119650000D01*
X118515000Y-119650000D02*
X118515000Y-103870000D01*
X118515000Y-103870000D02*
X127865000Y-103870000D01*
X118265000Y-103620000D02*
X118265000Y-106160000D01*
X118265000Y-103620000D02*
X120805000Y-103620000D01*
D12*
X135890000Y-73660000D02*
X130810000Y-73660000D01*
X130810000Y-73660000D02*
X130810000Y-76200000D01*
X130810000Y-76200000D02*
X135890000Y-76200000D01*
X138710000Y-76480000D02*
X137160000Y-76480000D01*
X135890000Y-76200000D02*
X135890000Y-73660000D01*
X137160000Y-73380000D02*
X138710000Y-73380000D01*
X138710000Y-73380000D02*
X138710000Y-76480000D01*
X171459000Y-84058000D02*
X171459000Y-82058000D01*
X169409000Y-82058000D02*
X169409000Y-84058000D01*
X161045000Y-102600000D02*
X161045000Y-100600000D01*
X158995000Y-100600000D02*
X158995000Y-102600000D01*
X119770000Y-98790000D02*
X119770000Y-96790000D01*
X117720000Y-96790000D02*
X117720000Y-98790000D01*
X168919000Y-103362000D02*
X168919000Y-101362000D01*
X166869000Y-101362000D02*
X166869000Y-103362000D01*
X171720000Y-91195000D02*
X173720000Y-91195000D01*
X173720000Y-89145000D02*
X171720000Y-89145000D01*
X150352000Y-84133000D02*
X148352000Y-84133000D01*
X148352000Y-81983000D02*
X150352000Y-81983000D01*
X152924000Y-101541000D02*
X154924000Y-101541000D01*
X154924000Y-103691000D02*
X152924000Y-103691000D01*
X165592000Y-93785000D02*
X163592000Y-93785000D01*
X163592000Y-91635000D02*
X165592000Y-91635000D01*
X165592000Y-97087000D02*
X163592000Y-97087000D01*
X163592000Y-94937000D02*
X165592000Y-94937000D01*
X177860960Y-67635120D02*
X172659040Y-67635120D01*
X172659040Y-70032880D02*
X177860960Y-70032880D01*
X179859940Y-71132700D02*
X179859940Y-70032880D01*
X180459380Y-70632320D02*
X179260500Y-70632320D01*
X179255420Y-70032880D02*
X179255420Y-67635120D01*
X165414960Y-79827120D02*
X160213040Y-79827120D01*
X160213040Y-82224880D02*
X165414960Y-82224880D01*
X167413940Y-83324700D02*
X167413940Y-82224880D01*
X168013380Y-82824320D02*
X166814500Y-82824320D01*
X166809420Y-82224880D02*
X166809420Y-79827120D01*
X162631120Y-99507040D02*
X162631120Y-104708960D01*
X165028880Y-104708960D02*
X165028880Y-99507040D01*
X166128700Y-97508060D02*
X165028880Y-97508060D01*
X165628320Y-96908620D02*
X165628320Y-98107500D01*
X165028880Y-98112580D02*
X162631120Y-98112580D01*
D19*
X179900580Y-99359720D02*
X179900580Y-100959920D01*
X179900580Y-100959920D02*
X181099460Y-100959920D01*
X177401220Y-100959920D02*
X177401220Y-99458780D01*
X177401220Y-99458780D02*
X178300380Y-99458780D01*
X178300380Y-99458780D02*
X178501040Y-99458780D01*
X178501040Y-99458780D02*
X178699160Y-99560380D01*
X178699160Y-99560380D02*
X178800760Y-99761040D01*
X178800760Y-99761040D02*
X178800760Y-99959160D01*
X178800760Y-99959160D02*
X178600100Y-100159820D01*
X178600100Y-100159820D02*
X178300380Y-100258880D01*
X178300380Y-100258880D02*
X177401220Y-100258880D01*
X176199800Y-99560380D02*
X175999140Y-99458780D01*
X175999140Y-99458780D02*
X175498760Y-99458780D01*
X175498760Y-99458780D02*
X175199040Y-99560380D01*
X175199040Y-99560380D02*
X175000920Y-99659440D01*
X175000920Y-99659440D02*
X174800260Y-99959160D01*
X174800260Y-99959160D02*
X174800260Y-100258880D01*
X174800260Y-100258880D02*
X174899320Y-100660200D01*
X174899320Y-100660200D02*
X175199040Y-100860860D01*
X175199040Y-100860860D02*
X175498760Y-100959920D01*
X175498760Y-100959920D02*
X175801020Y-100959920D01*
X175801020Y-100959920D02*
X176298860Y-100860860D01*
X176298860Y-100860860D02*
X176298860Y-100360480D01*
X176298860Y-100360480D02*
X175801020Y-100360480D01*
X179600860Y-96860360D02*
X179600860Y-98160840D01*
X179600860Y-98160840D02*
X179900580Y-98358960D01*
X179900580Y-98358960D02*
X180200300Y-98358960D01*
X180200300Y-98358960D02*
X180599080Y-98358960D01*
X180599080Y-98358960D02*
X180898800Y-98259900D01*
X180898800Y-98259900D02*
X181099460Y-98160840D01*
X181099460Y-98160840D02*
X181099460Y-96860360D01*
X176999900Y-98358960D02*
X176999900Y-96860360D01*
X176999900Y-96860360D02*
X178501040Y-98358960D01*
X178501040Y-98358960D02*
X178501040Y-96860360D01*
X175801020Y-96959420D02*
X175498760Y-96860360D01*
X175498760Y-96860360D02*
X175000920Y-96959420D01*
X175000920Y-96959420D02*
X174599600Y-97160080D01*
X174599600Y-97160080D02*
X174398940Y-97558860D01*
X174398940Y-97558860D02*
X174500540Y-97960180D01*
X174500540Y-97960180D02*
X174800260Y-98259900D01*
X174800260Y-98259900D02*
X175300640Y-98460560D01*
X175300640Y-98460560D02*
X175999140Y-98259900D01*
X175999140Y-98259900D02*
X175999140Y-97759520D01*
X175999140Y-97759520D02*
X175498760Y-97759520D01*
X173736000Y-96012000D02*
X181864000Y-96012000D01*
X181864000Y-96012000D02*
X181864000Y-101600000D01*
X181864000Y-101600000D02*
X173736000Y-101600000D01*
X173736000Y-101600000D02*
X173736000Y-96012000D01*
D12*
X142748095Y-87844381D02*
X142748095Y-88653905D01*
X142795714Y-88749143D01*
X142843333Y-88796762D01*
X142938571Y-88844381D01*
X143129048Y-88844381D01*
X143224286Y-88796762D01*
X143271905Y-88749143D01*
X143319524Y-88653905D01*
X143319524Y-87844381D01*
X143700476Y-87844381D02*
X144319524Y-87844381D01*
X143986190Y-88225333D01*
X144129048Y-88225333D01*
X144224286Y-88272952D01*
X144271905Y-88320571D01*
X144319524Y-88415810D01*
X144319524Y-88653905D01*
X144271905Y-88749143D01*
X144224286Y-88796762D01*
X144129048Y-88844381D01*
X143843333Y-88844381D01*
X143748095Y-88796762D01*
X143700476Y-88749143D01*
X166878095Y-67524381D02*
X166878095Y-68333905D01*
X166925714Y-68429143D01*
X166973333Y-68476762D01*
X167068571Y-68524381D01*
X167259048Y-68524381D01*
X167354286Y-68476762D01*
X167401905Y-68429143D01*
X167449524Y-68333905D01*
X167449524Y-67524381D01*
X168449524Y-68524381D02*
X167878095Y-68524381D01*
X168163809Y-68524381D02*
X168163809Y-67524381D01*
X168068571Y-67667238D01*
X167973333Y-67762476D01*
X167878095Y-67810095D01*
X111768095Y-83272381D02*
X112339524Y-83272381D01*
X112053809Y-84272381D02*
X112053809Y-83272381D01*
X112672857Y-84272381D02*
X112672857Y-83272381D01*
X113053810Y-83272381D01*
X113149048Y-83320000D01*
X113196667Y-83367619D01*
X113244286Y-83462857D01*
X113244286Y-83605714D01*
X113196667Y-83700952D01*
X113149048Y-83748571D01*
X113053810Y-83796190D01*
X112672857Y-83796190D01*
X114196667Y-84272381D02*
X113625238Y-84272381D01*
X113910952Y-84272381D02*
X113910952Y-83272381D01*
X113815714Y-83415238D01*
X113720476Y-83510476D01*
X113625238Y-83558095D01*
X130968762Y-108243619D02*
X130873524Y-108196000D01*
X130778286Y-108100762D01*
X130635429Y-107957905D01*
X130540190Y-107910286D01*
X130444952Y-107910286D01*
X130492571Y-108148381D02*
X130397333Y-108100762D01*
X130302095Y-108005524D01*
X130254476Y-107815048D01*
X130254476Y-107481714D01*
X130302095Y-107291238D01*
X130397333Y-107196000D01*
X130492571Y-107148381D01*
X130683048Y-107148381D01*
X130778286Y-107196000D01*
X130873524Y-107291238D01*
X130921143Y-107481714D01*
X130921143Y-107815048D01*
X130873524Y-108005524D01*
X130778286Y-108100762D01*
X130683048Y-108148381D01*
X130492571Y-108148381D01*
X131254476Y-107148381D02*
X131873524Y-107148381D01*
X131540190Y-107529333D01*
X131683048Y-107529333D01*
X131778286Y-107576952D01*
X131825905Y-107624571D01*
X131873524Y-107719810D01*
X131873524Y-107957905D01*
X131825905Y-108053143D01*
X131778286Y-108100762D01*
X131683048Y-108148381D01*
X131397333Y-108148381D01*
X131302095Y-108100762D01*
X131254476Y-108053143D01*
X137064762Y-108243619D02*
X136969524Y-108196000D01*
X136874286Y-108100762D01*
X136731429Y-107957905D01*
X136636190Y-107910286D01*
X136540952Y-107910286D01*
X136588571Y-108148381D02*
X136493333Y-108100762D01*
X136398095Y-108005524D01*
X136350476Y-107815048D01*
X136350476Y-107481714D01*
X136398095Y-107291238D01*
X136493333Y-107196000D01*
X136588571Y-107148381D01*
X136779048Y-107148381D01*
X136874286Y-107196000D01*
X136969524Y-107291238D01*
X137017143Y-107481714D01*
X137017143Y-107815048D01*
X136969524Y-108005524D01*
X136874286Y-108100762D01*
X136779048Y-108148381D01*
X136588571Y-108148381D01*
X137398095Y-107243619D02*
X137445714Y-107196000D01*
X137540952Y-107148381D01*
X137779048Y-107148381D01*
X137874286Y-107196000D01*
X137921905Y-107243619D01*
X137969524Y-107338857D01*
X137969524Y-107434095D01*
X137921905Y-107576952D01*
X137350476Y-108148381D01*
X137969524Y-108148381D01*
X149256762Y-109767619D02*
X149161524Y-109720000D01*
X149066286Y-109624762D01*
X148923429Y-109481905D01*
X148828190Y-109434286D01*
X148732952Y-109434286D01*
X148780571Y-109672381D02*
X148685333Y-109624762D01*
X148590095Y-109529524D01*
X148542476Y-109339048D01*
X148542476Y-109005714D01*
X148590095Y-108815238D01*
X148685333Y-108720000D01*
X148780571Y-108672381D01*
X148971048Y-108672381D01*
X149066286Y-108720000D01*
X149161524Y-108815238D01*
X149209143Y-109005714D01*
X149209143Y-109339048D01*
X149161524Y-109529524D01*
X149066286Y-109624762D01*
X148971048Y-109672381D01*
X148780571Y-109672381D01*
X150161524Y-109672381D02*
X149590095Y-109672381D01*
X149875809Y-109672381D02*
X149875809Y-108672381D01*
X149780571Y-108815238D01*
X149685333Y-108910476D01*
X149590095Y-108958095D01*
X150796667Y-115657381D02*
X150796667Y-116371667D01*
X150749047Y-116514524D01*
X150653809Y-116609762D01*
X150510952Y-116657381D01*
X150415714Y-116657381D01*
X151796667Y-116657381D02*
X151225238Y-116657381D01*
X151510952Y-116657381D02*
X151510952Y-115657381D01*
X151415714Y-115800238D01*
X151320476Y-115895476D01*
X151225238Y-115943095D01*
X174013905Y-71858381D02*
X174013905Y-70858381D01*
X174252000Y-70858381D01*
X174394858Y-70906000D01*
X174490096Y-71001238D01*
X174537715Y-71096476D01*
X174585334Y-71286952D01*
X174585334Y-71429810D01*
X174537715Y-71620286D01*
X174490096Y-71715524D01*
X174394858Y-71810762D01*
X174252000Y-71858381D01*
X174013905Y-71858381D01*
X175537715Y-71858381D02*
X174966286Y-71858381D01*
X175252000Y-71858381D02*
X175252000Y-70858381D01*
X175156762Y-71001238D01*
X175061524Y-71096476D01*
X174966286Y-71144095D01*
X168822381Y-88368095D02*
X167822381Y-88368095D01*
X167822381Y-88130000D01*
X167870000Y-87987142D01*
X167965238Y-87891904D01*
X168060476Y-87844285D01*
X168250952Y-87796666D01*
X168393810Y-87796666D01*
X168584286Y-87844285D01*
X168679524Y-87891904D01*
X168774762Y-87987142D01*
X168822381Y-88130000D01*
X168822381Y-88368095D01*
X167917619Y-87415714D02*
X167870000Y-87368095D01*
X167822381Y-87272857D01*
X167822381Y-87034761D01*
X167870000Y-86939523D01*
X167917619Y-86891904D01*
X168012857Y-86844285D01*
X168108095Y-86844285D01*
X168250952Y-86891904D01*
X168822381Y-87463333D01*
X168822381Y-86844285D01*
X180109905Y-92876381D02*
X180109905Y-91876381D01*
X180348000Y-91876381D01*
X180490858Y-91924000D01*
X180586096Y-92019238D01*
X180633715Y-92114476D01*
X180681334Y-92304952D01*
X180681334Y-92447810D01*
X180633715Y-92638286D01*
X180586096Y-92733524D01*
X180490858Y-92828762D01*
X180348000Y-92876381D01*
X180109905Y-92876381D01*
X181014667Y-91876381D02*
X181633715Y-91876381D01*
X181300381Y-92257333D01*
X181443239Y-92257333D01*
X181538477Y-92304952D01*
X181586096Y-92352571D01*
X181633715Y-92447810D01*
X181633715Y-92685905D01*
X181586096Y-92781143D01*
X181538477Y-92828762D01*
X181443239Y-92876381D01*
X181157524Y-92876381D01*
X181062286Y-92828762D01*
X181014667Y-92781143D01*
X137390381Y-83542095D02*
X136390381Y-83542095D01*
X136390381Y-83304000D01*
X136438000Y-83161142D01*
X136533238Y-83065904D01*
X136628476Y-83018285D01*
X136818952Y-82970666D01*
X136961810Y-82970666D01*
X137152286Y-83018285D01*
X137247524Y-83065904D01*
X137342762Y-83161142D01*
X137390381Y-83304000D01*
X137390381Y-83542095D01*
X136723714Y-82113523D02*
X137390381Y-82113523D01*
X136342762Y-82351619D02*
X137057048Y-82589714D01*
X137057048Y-81970666D01*
X178649334Y-72080381D02*
X178316000Y-71604190D01*
X178077905Y-72080381D02*
X178077905Y-71080381D01*
X178458858Y-71080381D01*
X178554096Y-71128000D01*
X178601715Y-71175619D01*
X178649334Y-71270857D01*
X178649334Y-71413714D01*
X178601715Y-71508952D01*
X178554096Y-71556571D01*
X178458858Y-71604190D01*
X178077905Y-71604190D01*
X179601715Y-72080381D02*
X179030286Y-72080381D01*
X179316000Y-72080381D02*
X179316000Y-71080381D01*
X179220762Y-71223238D01*
X179125524Y-71318476D01*
X179030286Y-71366095D01*
X161488381Y-86526666D02*
X161012190Y-86860000D01*
X161488381Y-87098095D02*
X160488381Y-87098095D01*
X160488381Y-86717142D01*
X160536000Y-86621904D01*
X160583619Y-86574285D01*
X160678857Y-86526666D01*
X160821714Y-86526666D01*
X160916952Y-86574285D01*
X160964571Y-86621904D01*
X161012190Y-86717142D01*
X161012190Y-87098095D01*
X160583619Y-86145714D02*
X160536000Y-86098095D01*
X160488381Y-86002857D01*
X160488381Y-85764761D01*
X160536000Y-85669523D01*
X160583619Y-85621904D01*
X160678857Y-85574285D01*
X160774095Y-85574285D01*
X160916952Y-85621904D01*
X161488381Y-86193333D01*
X161488381Y-85574285D01*
X121342381Y-97956666D02*
X120866190Y-98290000D01*
X121342381Y-98528095D02*
X120342381Y-98528095D01*
X120342381Y-98147142D01*
X120390000Y-98051904D01*
X120437619Y-98004285D01*
X120532857Y-97956666D01*
X120675714Y-97956666D01*
X120770952Y-98004285D01*
X120818571Y-98051904D01*
X120866190Y-98147142D01*
X120866190Y-98528095D01*
X120342381Y-97623333D02*
X120342381Y-97004285D01*
X120723333Y-97337619D01*
X120723333Y-97194761D01*
X120770952Y-97099523D01*
X120818571Y-97051904D01*
X120913810Y-97004285D01*
X121151905Y-97004285D01*
X121247143Y-97051904D01*
X121294762Y-97099523D01*
X121342381Y-97194761D01*
X121342381Y-97480476D01*
X121294762Y-97575714D01*
X121247143Y-97623333D01*
X125674381Y-90971666D02*
X125198190Y-91305000D01*
X125674381Y-91543095D02*
X124674381Y-91543095D01*
X124674381Y-91162142D01*
X124722000Y-91066904D01*
X124769619Y-91019285D01*
X124864857Y-90971666D01*
X125007714Y-90971666D01*
X125102952Y-91019285D01*
X125150571Y-91066904D01*
X125198190Y-91162142D01*
X125198190Y-91543095D01*
X125007714Y-90114523D02*
X125674381Y-90114523D01*
X124626762Y-90352619D02*
X125341048Y-90590714D01*
X125341048Y-89971666D01*
X121229381Y-90971666D02*
X120753190Y-91305000D01*
X121229381Y-91543095D02*
X120229381Y-91543095D01*
X120229381Y-91162142D01*
X120277000Y-91066904D01*
X120324619Y-91019285D01*
X120419857Y-90971666D01*
X120562714Y-90971666D01*
X120657952Y-91019285D01*
X120705571Y-91066904D01*
X120753190Y-91162142D01*
X120753190Y-91543095D01*
X120229381Y-90066904D02*
X120229381Y-90543095D01*
X120705571Y-90590714D01*
X120657952Y-90543095D01*
X120610333Y-90447857D01*
X120610333Y-90209761D01*
X120657952Y-90114523D01*
X120705571Y-90066904D01*
X120800810Y-90019285D01*
X121038905Y-90019285D01*
X121134143Y-90066904D01*
X121181762Y-90114523D01*
X121229381Y-90209761D01*
X121229381Y-90447857D01*
X121181762Y-90543095D01*
X121134143Y-90590714D01*
X177125334Y-94432381D02*
X176792000Y-93956190D01*
X176553905Y-94432381D02*
X176553905Y-93432381D01*
X176934858Y-93432381D01*
X177030096Y-93480000D01*
X177077715Y-93527619D01*
X177125334Y-93622857D01*
X177125334Y-93765714D01*
X177077715Y-93860952D01*
X177030096Y-93908571D01*
X176934858Y-93956190D01*
X176553905Y-93956190D01*
X177982477Y-93432381D02*
X177792000Y-93432381D01*
X177696762Y-93480000D01*
X177649143Y-93527619D01*
X177553905Y-93670476D01*
X177506286Y-93860952D01*
X177506286Y-94241905D01*
X177553905Y-94337143D01*
X177601524Y-94384762D01*
X177696762Y-94432381D01*
X177887239Y-94432381D01*
X177982477Y-94384762D01*
X178030096Y-94337143D01*
X178077715Y-94241905D01*
X178077715Y-94003810D01*
X178030096Y-93908571D01*
X177982477Y-93860952D01*
X177887239Y-93813333D01*
X177696762Y-93813333D01*
X177601524Y-93860952D01*
X177553905Y-93908571D01*
X177506286Y-94003810D01*
X158583334Y-109940381D02*
X158250000Y-109464190D01*
X158011905Y-109940381D02*
X158011905Y-108940381D01*
X158392858Y-108940381D01*
X158488096Y-108988000D01*
X158535715Y-109035619D01*
X158583334Y-109130857D01*
X158583334Y-109273714D01*
X158535715Y-109368952D01*
X158488096Y-109416571D01*
X158392858Y-109464190D01*
X158011905Y-109464190D01*
X158916667Y-108940381D02*
X159583334Y-108940381D01*
X159154762Y-109940381D01*
X161377334Y-114512381D02*
X161044000Y-114036190D01*
X160805905Y-114512381D02*
X160805905Y-113512381D01*
X161186858Y-113512381D01*
X161282096Y-113560000D01*
X161329715Y-113607619D01*
X161377334Y-113702857D01*
X161377334Y-113845714D01*
X161329715Y-113940952D01*
X161282096Y-113988571D01*
X161186858Y-114036190D01*
X160805905Y-114036190D01*
X161948762Y-113940952D02*
X161853524Y-113893333D01*
X161805905Y-113845714D01*
X161758286Y-113750476D01*
X161758286Y-113702857D01*
X161805905Y-113607619D01*
X161853524Y-113560000D01*
X161948762Y-113512381D01*
X162139239Y-113512381D01*
X162234477Y-113560000D01*
X162282096Y-113607619D01*
X162329715Y-113702857D01*
X162329715Y-113750476D01*
X162282096Y-113845714D01*
X162234477Y-113893333D01*
X162139239Y-113940952D01*
X161948762Y-113940952D01*
X161853524Y-113988571D01*
X161805905Y-114036190D01*
X161758286Y-114131429D01*
X161758286Y-114321905D01*
X161805905Y-114417143D01*
X161853524Y-114464762D01*
X161948762Y-114512381D01*
X162139239Y-114512381D01*
X162234477Y-114464762D01*
X162282096Y-114417143D01*
X162329715Y-114321905D01*
X162329715Y-114131429D01*
X162282096Y-114036190D01*
X162234477Y-113988571D01*
X162139239Y-113940952D01*
X148169334Y-105100381D02*
X147836000Y-104624190D01*
X147597905Y-105100381D02*
X147597905Y-104100381D01*
X147978858Y-104100381D01*
X148074096Y-104148000D01*
X148121715Y-104195619D01*
X148169334Y-104290857D01*
X148169334Y-104433714D01*
X148121715Y-104528952D01*
X148074096Y-104576571D01*
X147978858Y-104624190D01*
X147597905Y-104624190D01*
X148645524Y-105100381D02*
X148836000Y-105100381D01*
X148931239Y-105052762D01*
X148978858Y-105005143D01*
X149074096Y-104862286D01*
X149121715Y-104671810D01*
X149121715Y-104290857D01*
X149074096Y-104195619D01*
X149026477Y-104148000D01*
X148931239Y-104100381D01*
X148740762Y-104100381D01*
X148645524Y-104148000D01*
X148597905Y-104195619D01*
X148550286Y-104290857D01*
X148550286Y-104528952D01*
X148597905Y-104624190D01*
X148645524Y-104671810D01*
X148740762Y-104719429D01*
X148931239Y-104719429D01*
X149026477Y-104671810D01*
X149074096Y-104624190D01*
X149121715Y-104528952D01*
X140073143Y-114244381D02*
X139739809Y-113768190D01*
X139501714Y-114244381D02*
X139501714Y-113244381D01*
X139882667Y-113244381D01*
X139977905Y-113292000D01*
X140025524Y-113339619D01*
X140073143Y-113434857D01*
X140073143Y-113577714D01*
X140025524Y-113672952D01*
X139977905Y-113720571D01*
X139882667Y-113768190D01*
X139501714Y-113768190D01*
X141025524Y-114244381D02*
X140454095Y-114244381D01*
X140739809Y-114244381D02*
X140739809Y-113244381D01*
X140644571Y-113387238D01*
X140549333Y-113482476D01*
X140454095Y-113530095D01*
X141644571Y-113244381D02*
X141739810Y-113244381D01*
X141835048Y-113292000D01*
X141882667Y-113339619D01*
X141930286Y-113434857D01*
X141977905Y-113625333D01*
X141977905Y-113863429D01*
X141930286Y-114053905D01*
X141882667Y-114149143D01*
X141835048Y-114196762D01*
X141739810Y-114244381D01*
X141644571Y-114244381D01*
X141549333Y-114196762D01*
X141501714Y-114149143D01*
X141454095Y-114053905D01*
X141406476Y-113863429D01*
X141406476Y-113625333D01*
X141454095Y-113434857D01*
X141501714Y-113339619D01*
X141549333Y-113292000D01*
X141644571Y-113244381D01*
X132707143Y-114258381D02*
X132373809Y-113782190D01*
X132135714Y-114258381D02*
X132135714Y-113258381D01*
X132516667Y-113258381D01*
X132611905Y-113306000D01*
X132659524Y-113353619D01*
X132707143Y-113448857D01*
X132707143Y-113591714D01*
X132659524Y-113686952D01*
X132611905Y-113734571D01*
X132516667Y-113782190D01*
X132135714Y-113782190D01*
X133659524Y-114258381D02*
X133088095Y-114258381D01*
X133373809Y-114258381D02*
X133373809Y-113258381D01*
X133278571Y-113401238D01*
X133183333Y-113496476D01*
X133088095Y-113544095D01*
X134611905Y-114258381D02*
X134040476Y-114258381D01*
X134326190Y-114258381D02*
X134326190Y-113258381D01*
X134230952Y-113401238D01*
X134135714Y-113496476D01*
X134040476Y-113544095D01*
X128897143Y-102052381D02*
X128563809Y-101576190D01*
X128325714Y-102052381D02*
X128325714Y-101052381D01*
X128706667Y-101052381D01*
X128801905Y-101100000D01*
X128849524Y-101147619D01*
X128897143Y-101242857D01*
X128897143Y-101385714D01*
X128849524Y-101480952D01*
X128801905Y-101528571D01*
X128706667Y-101576190D01*
X128325714Y-101576190D01*
X129849524Y-102052381D02*
X129278095Y-102052381D01*
X129563809Y-102052381D02*
X129563809Y-101052381D01*
X129468571Y-101195238D01*
X129373333Y-101290476D01*
X129278095Y-101338095D01*
X130230476Y-101147619D02*
X130278095Y-101100000D01*
X130373333Y-101052381D01*
X130611429Y-101052381D01*
X130706667Y-101100000D01*
X130754286Y-101147619D01*
X130801905Y-101242857D01*
X130801905Y-101338095D01*
X130754286Y-101480952D01*
X130182857Y-102052381D01*
X130801905Y-102052381D01*
X132532381Y-80652857D02*
X132056190Y-80986191D01*
X132532381Y-81224286D02*
X131532381Y-81224286D01*
X131532381Y-80843333D01*
X131580000Y-80748095D01*
X131627619Y-80700476D01*
X131722857Y-80652857D01*
X131865714Y-80652857D01*
X131960952Y-80700476D01*
X132008571Y-80748095D01*
X132056190Y-80843333D01*
X132056190Y-81224286D01*
X132532381Y-79700476D02*
X132532381Y-80271905D01*
X132532381Y-79986191D02*
X131532381Y-79986191D01*
X131675238Y-80081429D01*
X131770476Y-80176667D01*
X131818095Y-80271905D01*
X131532381Y-79367143D02*
X131532381Y-78748095D01*
X131913333Y-79081429D01*
X131913333Y-78938571D01*
X131960952Y-78843333D01*
X132008571Y-78795714D01*
X132103810Y-78748095D01*
X132341905Y-78748095D01*
X132437143Y-78795714D01*
X132484762Y-78843333D01*
X132532381Y-78938571D01*
X132532381Y-79224286D01*
X132484762Y-79319524D01*
X132437143Y-79367143D01*
X141263905Y-80478381D02*
X141263905Y-81287905D01*
X141311524Y-81383143D01*
X141359143Y-81430762D01*
X141454381Y-81478381D01*
X141644858Y-81478381D01*
X141740096Y-81430762D01*
X141787715Y-81383143D01*
X141835334Y-81287905D01*
X141835334Y-80478381D01*
X142263905Y-81430762D02*
X142406762Y-81478381D01*
X142644858Y-81478381D01*
X142740096Y-81430762D01*
X142787715Y-81383143D01*
X142835334Y-81287905D01*
X142835334Y-81192667D01*
X142787715Y-81097429D01*
X142740096Y-81049810D01*
X142644858Y-81002190D01*
X142454381Y-80954571D01*
X142359143Y-80906952D01*
X142311524Y-80859333D01*
X142263905Y-80764095D01*
X142263905Y-80668857D01*
X142311524Y-80573619D01*
X142359143Y-80526000D01*
X142454381Y-80478381D01*
X142692477Y-80478381D01*
X142835334Y-80526000D01*
X143597239Y-80954571D02*
X143740096Y-81002190D01*
X143787715Y-81049810D01*
X143835334Y-81145048D01*
X143835334Y-81287905D01*
X143787715Y-81383143D01*
X143740096Y-81430762D01*
X143644858Y-81478381D01*
X143263905Y-81478381D01*
X143263905Y-80478381D01*
X143597239Y-80478381D01*
X143692477Y-80526000D01*
X143740096Y-80573619D01*
X143787715Y-80668857D01*
X143787715Y-80764095D01*
X143740096Y-80859333D01*
X143692477Y-80906952D01*
X143597239Y-80954571D01*
X143263905Y-80954571D01*
X144787715Y-81478381D02*
X144216286Y-81478381D01*
X144502000Y-81478381D02*
X144502000Y-80478381D01*
X144406762Y-80621238D01*
X144311524Y-80716476D01*
X144216286Y-80764095D01*
X134580381Y-95678476D02*
X135580381Y-95011809D01*
X134580381Y-95011809D02*
X135580381Y-95678476D01*
X134580381Y-94773714D02*
X134580381Y-94202285D01*
X135580381Y-94488000D02*
X134580381Y-94488000D01*
X135580381Y-93345142D02*
X135580381Y-93916571D01*
X135580381Y-93630857D02*
X134580381Y-93630857D01*
X134723238Y-93726095D01*
X134818476Y-93821333D01*
X134866095Y-93916571D01*
X157821334Y-86209143D02*
X157773715Y-86256762D01*
X157630858Y-86304381D01*
X157535620Y-86304381D01*
X157392762Y-86256762D01*
X157297524Y-86161524D01*
X157249905Y-86066286D01*
X157202286Y-85875810D01*
X157202286Y-85732952D01*
X157249905Y-85542476D01*
X157297524Y-85447238D01*
X157392762Y-85352000D01*
X157535620Y-85304381D01*
X157630858Y-85304381D01*
X157773715Y-85352000D01*
X157821334Y-85399619D01*
X158678477Y-85304381D02*
X158488000Y-85304381D01*
X158392762Y-85352000D01*
X158345143Y-85399619D01*
X158249905Y-85542476D01*
X158202286Y-85732952D01*
X158202286Y-86113905D01*
X158249905Y-86209143D01*
X158297524Y-86256762D01*
X158392762Y-86304381D01*
X158583239Y-86304381D01*
X158678477Y-86256762D01*
X158726096Y-86209143D01*
X158773715Y-86113905D01*
X158773715Y-85875810D01*
X158726096Y-85780571D01*
X158678477Y-85732952D01*
X158583239Y-85685333D01*
X158392762Y-85685333D01*
X158297524Y-85732952D01*
X158249905Y-85780571D01*
X158202286Y-85875810D01*
X141565334Y-85193143D02*
X141517715Y-85240762D01*
X141374858Y-85288381D01*
X141279620Y-85288381D01*
X141136762Y-85240762D01*
X141041524Y-85145524D01*
X140993905Y-85050286D01*
X140946286Y-84859810D01*
X140946286Y-84716952D01*
X140993905Y-84526476D01*
X141041524Y-84431238D01*
X141136762Y-84336000D01*
X141279620Y-84288381D01*
X141374858Y-84288381D01*
X141517715Y-84336000D01*
X141565334Y-84383619D01*
X141898667Y-84288381D02*
X142565334Y-84288381D01*
X142136762Y-85288381D01*
X143597334Y-100433143D02*
X143549715Y-100480762D01*
X143406858Y-100528381D01*
X143311620Y-100528381D01*
X143168762Y-100480762D01*
X143073524Y-100385524D01*
X143025905Y-100290286D01*
X142978286Y-100099810D01*
X142978286Y-99956952D01*
X143025905Y-99766476D01*
X143073524Y-99671238D01*
X143168762Y-99576000D01*
X143311620Y-99528381D01*
X143406858Y-99528381D01*
X143549715Y-99576000D01*
X143597334Y-99623619D01*
X144168762Y-99956952D02*
X144073524Y-99909333D01*
X144025905Y-99861714D01*
X143978286Y-99766476D01*
X143978286Y-99718857D01*
X144025905Y-99623619D01*
X144073524Y-99576000D01*
X144168762Y-99528381D01*
X144359239Y-99528381D01*
X144454477Y-99576000D01*
X144502096Y-99623619D01*
X144549715Y-99718857D01*
X144549715Y-99766476D01*
X144502096Y-99861714D01*
X144454477Y-99909333D01*
X144359239Y-99956952D01*
X144168762Y-99956952D01*
X144073524Y-100004571D01*
X144025905Y-100052190D01*
X143978286Y-100147429D01*
X143978286Y-100337905D01*
X144025905Y-100433143D01*
X144073524Y-100480762D01*
X144168762Y-100528381D01*
X144359239Y-100528381D01*
X144454477Y-100480762D01*
X144502096Y-100433143D01*
X144549715Y-100337905D01*
X144549715Y-100147429D01*
X144502096Y-100052190D01*
X144454477Y-100004571D01*
X144359239Y-99956952D01*
X158853143Y-89574666D02*
X158900762Y-89622285D01*
X158948381Y-89765142D01*
X158948381Y-89860380D01*
X158900762Y-90003238D01*
X158805524Y-90098476D01*
X158710286Y-90146095D01*
X158519810Y-90193714D01*
X158376952Y-90193714D01*
X158186476Y-90146095D01*
X158091238Y-90098476D01*
X157996000Y-90003238D01*
X157948381Y-89860380D01*
X157948381Y-89765142D01*
X157996000Y-89622285D01*
X158043619Y-89574666D01*
X158948381Y-89098476D02*
X158948381Y-88908000D01*
X158900762Y-88812761D01*
X158853143Y-88765142D01*
X158710286Y-88669904D01*
X158519810Y-88622285D01*
X158138857Y-88622285D01*
X158043619Y-88669904D01*
X157996000Y-88717523D01*
X157948381Y-88812761D01*
X157948381Y-89003238D01*
X157996000Y-89098476D01*
X158043619Y-89146095D01*
X158138857Y-89193714D01*
X158376952Y-89193714D01*
X158472190Y-89146095D01*
X158519810Y-89098476D01*
X158567429Y-89003238D01*
X158567429Y-88812761D01*
X158519810Y-88717523D01*
X158472190Y-88669904D01*
X158376952Y-88622285D01*
X134453334Y-101449143D02*
X134405715Y-101496762D01*
X134262858Y-101544381D01*
X134167620Y-101544381D01*
X134024762Y-101496762D01*
X133929524Y-101401524D01*
X133881905Y-101306286D01*
X133834286Y-101115810D01*
X133834286Y-100972952D01*
X133881905Y-100782476D01*
X133929524Y-100687238D01*
X134024762Y-100592000D01*
X134167620Y-100544381D01*
X134262858Y-100544381D01*
X134405715Y-100592000D01*
X134453334Y-100639619D01*
X135358096Y-100544381D02*
X134881905Y-100544381D01*
X134834286Y-101020571D01*
X134881905Y-100972952D01*
X134977143Y-100925333D01*
X135215239Y-100925333D01*
X135310477Y-100972952D01*
X135358096Y-101020571D01*
X135405715Y-101115810D01*
X135405715Y-101353905D01*
X135358096Y-101449143D01*
X135310477Y-101496762D01*
X135215239Y-101544381D01*
X134977143Y-101544381D01*
X134881905Y-101496762D01*
X134834286Y-101449143D01*
X133945334Y-87479143D02*
X133897715Y-87526762D01*
X133754858Y-87574381D01*
X133659620Y-87574381D01*
X133516762Y-87526762D01*
X133421524Y-87431524D01*
X133373905Y-87336286D01*
X133326286Y-87145810D01*
X133326286Y-87002952D01*
X133373905Y-86812476D01*
X133421524Y-86717238D01*
X133516762Y-86622000D01*
X133659620Y-86574381D01*
X133754858Y-86574381D01*
X133897715Y-86622000D01*
X133945334Y-86669619D01*
X134802477Y-86907714D02*
X134802477Y-87574381D01*
X134564381Y-86526762D02*
X134326286Y-87241048D01*
X134945334Y-87241048D01*
X132786667Y-67873571D02*
X132929524Y-67921190D01*
X132977143Y-67968810D01*
X133024762Y-68064048D01*
X133024762Y-68206905D01*
X132977143Y-68302143D01*
X132929524Y-68349762D01*
X132834286Y-68397381D01*
X132453333Y-68397381D01*
X132453333Y-67397381D01*
X132786667Y-67397381D01*
X132881905Y-67445000D01*
X132929524Y-67492619D01*
X132977143Y-67587857D01*
X132977143Y-67683095D01*
X132929524Y-67778333D01*
X132881905Y-67825952D01*
X132786667Y-67873571D01*
X132453333Y-67873571D01*
X133643809Y-67397381D02*
X133834286Y-67397381D01*
X133929524Y-67445000D01*
X134024762Y-67540238D01*
X134072381Y-67730714D01*
X134072381Y-68064048D01*
X134024762Y-68254524D01*
X133929524Y-68349762D01*
X133834286Y-68397381D01*
X133643809Y-68397381D01*
X133548571Y-68349762D01*
X133453333Y-68254524D01*
X133405714Y-68064048D01*
X133405714Y-67730714D01*
X133453333Y-67540238D01*
X133548571Y-67445000D01*
X133643809Y-67397381D01*
X134691428Y-67397381D02*
X134881905Y-67397381D01*
X134977143Y-67445000D01*
X135072381Y-67540238D01*
X135120000Y-67730714D01*
X135120000Y-68064048D01*
X135072381Y-68254524D01*
X134977143Y-68349762D01*
X134881905Y-68397381D01*
X134691428Y-68397381D01*
X134596190Y-68349762D01*
X134500952Y-68254524D01*
X134453333Y-68064048D01*
X134453333Y-67730714D01*
X134500952Y-67540238D01*
X134596190Y-67445000D01*
X134691428Y-67397381D01*
X135405714Y-67397381D02*
X135977143Y-67397381D01*
X135691428Y-68397381D02*
X135691428Y-67397381D01*
X136834286Y-68397381D02*
X136262857Y-68397381D01*
X136548571Y-68397381D02*
X136548571Y-67397381D01*
X136453333Y-67540238D01*
X136358095Y-67635476D01*
X136262857Y-67683095D01*
X158432857Y-66762381D02*
X158432857Y-67571905D01*
X158480476Y-67667143D01*
X158528095Y-67714762D01*
X158623333Y-67762381D01*
X158813810Y-67762381D01*
X158909048Y-67714762D01*
X158956667Y-67667143D01*
X159004286Y-67571905D01*
X159004286Y-66762381D01*
X159432857Y-67714762D02*
X159575714Y-67762381D01*
X159813810Y-67762381D01*
X159909048Y-67714762D01*
X159956667Y-67667143D01*
X160004286Y-67571905D01*
X160004286Y-67476667D01*
X159956667Y-67381429D01*
X159909048Y-67333810D01*
X159813810Y-67286190D01*
X159623333Y-67238571D01*
X159528095Y-67190952D01*
X159480476Y-67143333D01*
X159432857Y-67048095D01*
X159432857Y-66952857D01*
X159480476Y-66857619D01*
X159528095Y-66810000D01*
X159623333Y-66762381D01*
X159861429Y-66762381D01*
X160004286Y-66810000D01*
X160766191Y-67238571D02*
X160909048Y-67286190D01*
X160956667Y-67333810D01*
X161004286Y-67429048D01*
X161004286Y-67571905D01*
X160956667Y-67667143D01*
X160909048Y-67714762D01*
X160813810Y-67762381D01*
X160432857Y-67762381D01*
X160432857Y-66762381D01*
X160766191Y-66762381D01*
X160861429Y-66810000D01*
X160909048Y-66857619D01*
X160956667Y-66952857D01*
X160956667Y-67048095D01*
X160909048Y-67143333D01*
X160861429Y-67190952D01*
X160766191Y-67238571D01*
X160432857Y-67238571D01*
X161194762Y-67857619D02*
X161956667Y-67857619D01*
X162194762Y-67762381D02*
X162194762Y-66762381D01*
X162670952Y-67762381D02*
X162670952Y-66762381D01*
X162909047Y-66762381D01*
X163051905Y-66810000D01*
X163147143Y-66905238D01*
X163194762Y-67000476D01*
X163242381Y-67190952D01*
X163242381Y-67333810D01*
X163194762Y-67524286D01*
X163147143Y-67619524D01*
X163051905Y-67714762D01*
X162909047Y-67762381D01*
X162670952Y-67762381D01*
X164194762Y-67762381D02*
X163623333Y-67762381D01*
X163909047Y-67762381D02*
X163909047Y-66762381D01*
X163813809Y-66905238D01*
X163718571Y-67000476D01*
X163623333Y-67048095D01*
X127436571Y-95702286D02*
X127436571Y-95368952D01*
X127960381Y-95226095D02*
X127960381Y-95702286D01*
X126960381Y-95702286D01*
X126960381Y-95226095D01*
X127960381Y-94797524D02*
X126960381Y-94797524D01*
X127960381Y-94226095D01*
X126960381Y-94226095D01*
X127960381Y-93226095D02*
X127960381Y-93797524D01*
X127960381Y-93511810D02*
X126960381Y-93511810D01*
X127103238Y-93607048D01*
X127198476Y-93702286D01*
X127246095Y-93797524D01*
X122856667Y-102068381D02*
X122856667Y-102782667D01*
X122809047Y-102925524D01*
X122713809Y-103020762D01*
X122570952Y-103068381D01*
X122475714Y-103068381D01*
X123285238Y-102163619D02*
X123332857Y-102116000D01*
X123428095Y-102068381D01*
X123666191Y-102068381D01*
X123761429Y-102116000D01*
X123809048Y-102163619D01*
X123856667Y-102258857D01*
X123856667Y-102354095D01*
X123809048Y-102496952D01*
X123237619Y-103068381D01*
X123856667Y-103068381D01*
X132786667Y-77398571D02*
X132929524Y-77446190D01*
X132977143Y-77493810D01*
X133024762Y-77589048D01*
X133024762Y-77731905D01*
X132977143Y-77827143D01*
X132929524Y-77874762D01*
X132834286Y-77922381D01*
X132453333Y-77922381D01*
X132453333Y-76922381D01*
X132786667Y-76922381D01*
X132881905Y-76970000D01*
X132929524Y-77017619D01*
X132977143Y-77112857D01*
X132977143Y-77208095D01*
X132929524Y-77303333D01*
X132881905Y-77350952D01*
X132786667Y-77398571D01*
X132453333Y-77398571D01*
X133643809Y-76922381D02*
X133834286Y-76922381D01*
X133929524Y-76970000D01*
X134024762Y-77065238D01*
X134072381Y-77255714D01*
X134072381Y-77589048D01*
X134024762Y-77779524D01*
X133929524Y-77874762D01*
X133834286Y-77922381D01*
X133643809Y-77922381D01*
X133548571Y-77874762D01*
X133453333Y-77779524D01*
X133405714Y-77589048D01*
X133405714Y-77255714D01*
X133453333Y-77065238D01*
X133548571Y-76970000D01*
X133643809Y-76922381D01*
X134691428Y-76922381D02*
X134881905Y-76922381D01*
X134977143Y-76970000D01*
X135072381Y-77065238D01*
X135120000Y-77255714D01*
X135120000Y-77589048D01*
X135072381Y-77779524D01*
X134977143Y-77874762D01*
X134881905Y-77922381D01*
X134691428Y-77922381D01*
X134596190Y-77874762D01*
X134500952Y-77779524D01*
X134453333Y-77589048D01*
X134453333Y-77255714D01*
X134500952Y-77065238D01*
X134596190Y-76970000D01*
X134691428Y-76922381D01*
X135405714Y-76922381D02*
X135977143Y-76922381D01*
X135691428Y-77922381D02*
X135691428Y-76922381D01*
X136500952Y-76922381D02*
X136596191Y-76922381D01*
X136691429Y-76970000D01*
X136739048Y-77017619D01*
X136786667Y-77112857D01*
X136834286Y-77303333D01*
X136834286Y-77541429D01*
X136786667Y-77731905D01*
X136739048Y-77827143D01*
X136691429Y-77874762D01*
X136596191Y-77922381D01*
X136500952Y-77922381D01*
X136405714Y-77874762D01*
X136358095Y-77827143D01*
X136310476Y-77731905D01*
X136262857Y-77541429D01*
X136262857Y-77303333D01*
X136310476Y-77112857D01*
X136358095Y-77017619D01*
X136405714Y-76970000D01*
X136500952Y-76922381D01*
X173077143Y-82970666D02*
X173124762Y-83018285D01*
X173172381Y-83161142D01*
X173172381Y-83256380D01*
X173124762Y-83399238D01*
X173029524Y-83494476D01*
X172934286Y-83542095D01*
X172743810Y-83589714D01*
X172600952Y-83589714D01*
X172410476Y-83542095D01*
X172315238Y-83494476D01*
X172220000Y-83399238D01*
X172172381Y-83256380D01*
X172172381Y-83161142D01*
X172220000Y-83018285D01*
X172267619Y-82970666D01*
X172172381Y-82637333D02*
X172172381Y-82018285D01*
X172553333Y-82351619D01*
X172553333Y-82208761D01*
X172600952Y-82113523D01*
X172648571Y-82065904D01*
X172743810Y-82018285D01*
X172981905Y-82018285D01*
X173077143Y-82065904D01*
X173124762Y-82113523D01*
X173172381Y-82208761D01*
X173172381Y-82494476D01*
X173124762Y-82589714D01*
X173077143Y-82637333D01*
X158345143Y-100210857D02*
X158392762Y-100258476D01*
X158440381Y-100401333D01*
X158440381Y-100496571D01*
X158392762Y-100639429D01*
X158297524Y-100734667D01*
X158202286Y-100782286D01*
X158011810Y-100829905D01*
X157868952Y-100829905D01*
X157678476Y-100782286D01*
X157583238Y-100734667D01*
X157488000Y-100639429D01*
X157440381Y-100496571D01*
X157440381Y-100401333D01*
X157488000Y-100258476D01*
X157535619Y-100210857D01*
X158440381Y-99258476D02*
X158440381Y-99829905D01*
X158440381Y-99544191D02*
X157440381Y-99544191D01*
X157583238Y-99639429D01*
X157678476Y-99734667D01*
X157726095Y-99829905D01*
X157440381Y-98639429D02*
X157440381Y-98544190D01*
X157488000Y-98448952D01*
X157535619Y-98401333D01*
X157630857Y-98353714D01*
X157821333Y-98306095D01*
X158059429Y-98306095D01*
X158249905Y-98353714D01*
X158345143Y-98401333D01*
X158392762Y-98448952D01*
X158440381Y-98544190D01*
X158440381Y-98639429D01*
X158392762Y-98734667D01*
X158345143Y-98782286D01*
X158249905Y-98829905D01*
X158059429Y-98877524D01*
X157821333Y-98877524D01*
X157630857Y-98829905D01*
X157535619Y-98782286D01*
X157488000Y-98734667D01*
X157440381Y-98639429D01*
X118102143Y-102592143D02*
X118054524Y-102639762D01*
X117911667Y-102687381D01*
X117816429Y-102687381D01*
X117673571Y-102639762D01*
X117578333Y-102544524D01*
X117530714Y-102449286D01*
X117483095Y-102258810D01*
X117483095Y-102115952D01*
X117530714Y-101925476D01*
X117578333Y-101830238D01*
X117673571Y-101735000D01*
X117816429Y-101687381D01*
X117911667Y-101687381D01*
X118054524Y-101735000D01*
X118102143Y-101782619D01*
X119054524Y-102687381D02*
X118483095Y-102687381D01*
X118768809Y-102687381D02*
X118768809Y-101687381D01*
X118673571Y-101830238D01*
X118578333Y-101925476D01*
X118483095Y-101973095D01*
X119435476Y-101782619D02*
X119483095Y-101735000D01*
X119578333Y-101687381D01*
X119816429Y-101687381D01*
X119911667Y-101735000D01*
X119959286Y-101782619D01*
X120006905Y-101877857D01*
X120006905Y-101973095D01*
X119959286Y-102115952D01*
X119387857Y-102687381D01*
X120006905Y-102687381D01*
X170551143Y-103004857D02*
X170598762Y-103052476D01*
X170646381Y-103195333D01*
X170646381Y-103290571D01*
X170598762Y-103433429D01*
X170503524Y-103528667D01*
X170408286Y-103576286D01*
X170217810Y-103623905D01*
X170074952Y-103623905D01*
X169884476Y-103576286D01*
X169789238Y-103528667D01*
X169694000Y-103433429D01*
X169646381Y-103290571D01*
X169646381Y-103195333D01*
X169694000Y-103052476D01*
X169741619Y-103004857D01*
X170646381Y-102052476D02*
X170646381Y-102623905D01*
X170646381Y-102338191D02*
X169646381Y-102338191D01*
X169789238Y-102433429D01*
X169884476Y-102528667D01*
X169932095Y-102623905D01*
X169646381Y-101719143D02*
X169646381Y-101100095D01*
X170027333Y-101433429D01*
X170027333Y-101290571D01*
X170074952Y-101195333D01*
X170122571Y-101147714D01*
X170217810Y-101100095D01*
X170455905Y-101100095D01*
X170551143Y-101147714D01*
X170598762Y-101195333D01*
X170646381Y-101290571D01*
X170646381Y-101576286D01*
X170598762Y-101671524D01*
X170551143Y-101719143D01*
X177141143Y-91066857D02*
X177188762Y-91114476D01*
X177236381Y-91257333D01*
X177236381Y-91352571D01*
X177188762Y-91495429D01*
X177093524Y-91590667D01*
X176998286Y-91638286D01*
X176807810Y-91685905D01*
X176664952Y-91685905D01*
X176474476Y-91638286D01*
X176379238Y-91590667D01*
X176284000Y-91495429D01*
X176236381Y-91352571D01*
X176236381Y-91257333D01*
X176284000Y-91114476D01*
X176331619Y-91066857D01*
X177236381Y-90114476D02*
X177236381Y-90685905D01*
X177236381Y-90400191D02*
X176236381Y-90400191D01*
X176379238Y-90495429D01*
X176474476Y-90590667D01*
X176522095Y-90685905D01*
X176569714Y-89257333D02*
X177236381Y-89257333D01*
X176188762Y-89495429D02*
X176903048Y-89733524D01*
X176903048Y-89114476D01*
X154376381Y-83700857D02*
X153900190Y-84034191D01*
X154376381Y-84272286D02*
X153376381Y-84272286D01*
X153376381Y-83891333D01*
X153424000Y-83796095D01*
X153471619Y-83748476D01*
X153566857Y-83700857D01*
X153709714Y-83700857D01*
X153804952Y-83748476D01*
X153852571Y-83796095D01*
X153900190Y-83891333D01*
X153900190Y-84272286D01*
X154376381Y-82748476D02*
X154376381Y-83319905D01*
X154376381Y-83034191D02*
X153376381Y-83034191D01*
X153519238Y-83129429D01*
X153614476Y-83224667D01*
X153662095Y-83319905D01*
X153709714Y-81891333D02*
X154376381Y-81891333D01*
X153328762Y-82129429D02*
X154043048Y-82367524D01*
X154043048Y-81748476D01*
X153281143Y-105368381D02*
X152947809Y-104892190D01*
X152709714Y-105368381D02*
X152709714Y-104368381D01*
X153090667Y-104368381D01*
X153185905Y-104416000D01*
X153233524Y-104463619D01*
X153281143Y-104558857D01*
X153281143Y-104701714D01*
X153233524Y-104796952D01*
X153185905Y-104844571D01*
X153090667Y-104892190D01*
X152709714Y-104892190D01*
X154233524Y-105368381D02*
X153662095Y-105368381D01*
X153947809Y-105368381D02*
X153947809Y-104368381D01*
X153852571Y-104511238D01*
X153757333Y-104606476D01*
X153662095Y-104654095D01*
X155138286Y-104368381D02*
X154662095Y-104368381D01*
X154614476Y-104844571D01*
X154662095Y-104796952D01*
X154757333Y-104749333D01*
X154995429Y-104749333D01*
X155090667Y-104796952D01*
X155138286Y-104844571D01*
X155185905Y-104939810D01*
X155185905Y-105177905D01*
X155138286Y-105273143D01*
X155090667Y-105320762D01*
X154995429Y-105368381D01*
X154757333Y-105368381D01*
X154662095Y-105320762D01*
X154614476Y-105273143D01*
X160901143Y-91384381D02*
X160567809Y-90908190D01*
X160329714Y-91384381D02*
X160329714Y-90384381D01*
X160710667Y-90384381D01*
X160805905Y-90432000D01*
X160853524Y-90479619D01*
X160901143Y-90574857D01*
X160901143Y-90717714D01*
X160853524Y-90812952D01*
X160805905Y-90860571D01*
X160710667Y-90908190D01*
X160329714Y-90908190D01*
X161853524Y-91384381D02*
X161282095Y-91384381D01*
X161567809Y-91384381D02*
X161567809Y-90384381D01*
X161472571Y-90527238D01*
X161377333Y-90622476D01*
X161282095Y-90670095D01*
X162710667Y-90384381D02*
X162520190Y-90384381D01*
X162424952Y-90432000D01*
X162377333Y-90479619D01*
X162282095Y-90622476D01*
X162234476Y-90812952D01*
X162234476Y-91193905D01*
X162282095Y-91289143D01*
X162329714Y-91336762D01*
X162424952Y-91384381D01*
X162615429Y-91384381D01*
X162710667Y-91336762D01*
X162758286Y-91289143D01*
X162805905Y-91193905D01*
X162805905Y-90955810D01*
X162758286Y-90860571D01*
X162710667Y-90812952D01*
X162615429Y-90765333D01*
X162424952Y-90765333D01*
X162329714Y-90812952D01*
X162282095Y-90860571D01*
X162234476Y-90955810D01*
X169029143Y-96972381D02*
X168695809Y-96496190D01*
X168457714Y-96972381D02*
X168457714Y-95972381D01*
X168838667Y-95972381D01*
X168933905Y-96020000D01*
X168981524Y-96067619D01*
X169029143Y-96162857D01*
X169029143Y-96305714D01*
X168981524Y-96400952D01*
X168933905Y-96448571D01*
X168838667Y-96496190D01*
X168457714Y-96496190D01*
X169981524Y-96972381D02*
X169410095Y-96972381D01*
X169695809Y-96972381D02*
X169695809Y-95972381D01*
X169600571Y-96115238D01*
X169505333Y-96210476D01*
X169410095Y-96258095D01*
X170314857Y-95972381D02*
X170981524Y-95972381D01*
X170552952Y-96972381D01*
X180173334Y-68429143D02*
X180125715Y-68476762D01*
X179982858Y-68524381D01*
X179887620Y-68524381D01*
X179744762Y-68476762D01*
X179649524Y-68381524D01*
X179601905Y-68286286D01*
X179554286Y-68095810D01*
X179554286Y-67952952D01*
X179601905Y-67762476D01*
X179649524Y-67667238D01*
X179744762Y-67572000D01*
X179887620Y-67524381D01*
X179982858Y-67524381D01*
X180125715Y-67572000D01*
X180173334Y-67619619D01*
X181125715Y-68524381D02*
X180554286Y-68524381D01*
X180840000Y-68524381D02*
X180840000Y-67524381D01*
X180744762Y-67667238D01*
X180649524Y-67762476D01*
X180554286Y-67810095D01*
X179478988Y-70706289D02*
X180240893Y-70706289D01*
X179859941Y-71087241D02*
X179859941Y-70325336D01*
X159853334Y-83669143D02*
X159805715Y-83716762D01*
X159662858Y-83764381D01*
X159567620Y-83764381D01*
X159424762Y-83716762D01*
X159329524Y-83621524D01*
X159281905Y-83526286D01*
X159234286Y-83335810D01*
X159234286Y-83192952D01*
X159281905Y-83002476D01*
X159329524Y-82907238D01*
X159424762Y-82812000D01*
X159567620Y-82764381D01*
X159662858Y-82764381D01*
X159805715Y-82812000D01*
X159853334Y-82859619D01*
X160234286Y-82859619D02*
X160281905Y-82812000D01*
X160377143Y-82764381D01*
X160615239Y-82764381D01*
X160710477Y-82812000D01*
X160758096Y-82859619D01*
X160805715Y-82954857D01*
X160805715Y-83050095D01*
X160758096Y-83192952D01*
X160186667Y-83764381D01*
X160805715Y-83764381D01*
X162433048Y-81097429D02*
X163194953Y-81097429D01*
X162814001Y-81478381D02*
X162814001Y-80716476D01*
X164441143Y-108338857D02*
X164488762Y-108386476D01*
X164536381Y-108529333D01*
X164536381Y-108624571D01*
X164488762Y-108767429D01*
X164393524Y-108862667D01*
X164298286Y-108910286D01*
X164107810Y-108957905D01*
X163964952Y-108957905D01*
X163774476Y-108910286D01*
X163679238Y-108862667D01*
X163584000Y-108767429D01*
X163536381Y-108624571D01*
X163536381Y-108529333D01*
X163584000Y-108386476D01*
X163631619Y-108338857D01*
X164536381Y-107386476D02*
X164536381Y-107957905D01*
X164536381Y-107672191D02*
X163536381Y-107672191D01*
X163679238Y-107767429D01*
X163774476Y-107862667D01*
X163822095Y-107957905D01*
X164536381Y-106434095D02*
X164536381Y-107005524D01*
X164536381Y-106719810D02*
X163536381Y-106719810D01*
X163679238Y-106815048D01*
X163774476Y-106910286D01*
X163822095Y-107005524D01*
X165702289Y-97889012D02*
X165702289Y-97127107D01*
X166083241Y-97508059D02*
X165321336Y-97508059D01*
X176967047Y-92712801D02*
X176633713Y-92236610D01*
X176395618Y-92712801D02*
X176395618Y-91712801D01*
X176776571Y-91712801D01*
X176871809Y-91760420D01*
X176919428Y-91808039D01*
X176967047Y-91903277D01*
X176967047Y-92046134D01*
X176919428Y-92141372D01*
X176871809Y-92188991D01*
X176776571Y-92236610D01*
X176395618Y-92236610D01*
X177395618Y-92188991D02*
X177728952Y-92188991D01*
X177871809Y-92712801D02*
X177395618Y-92712801D01*
X177395618Y-91712801D01*
X177871809Y-91712801D01*
X178633714Y-92188991D02*
X178300380Y-92188991D01*
X178300380Y-92712801D02*
X178300380Y-91712801D01*
X178776571Y-91712801D01*
X179300380Y-91712801D02*
X179300380Y-91950896D01*
X179062285Y-91855658D02*
X179300380Y-91950896D01*
X179538476Y-91855658D01*
X179157523Y-92141372D02*
X179300380Y-91950896D01*
X179443238Y-92141372D01*
X180062285Y-91712801D02*
X180062285Y-91950896D01*
X179824190Y-91855658D02*
X180062285Y-91950896D01*
X180300381Y-91855658D01*
X179919428Y-92141372D02*
X180062285Y-91950896D01*
X180205143Y-92141372D01*
M02*
