%TF.GenerationSoftware,KiCad,Pcbnew,5.1.9+dfsg1-1~bpo10+1*%
%TF.CreationDate,2021-04-16T21:47:52+02:00*%
%TF.ProjectId,StandAlone-Adapter,5374616e-6441-46c6-9f6e-652d41646170,rev?*%
%TF.SameCoordinates,Original*%
%TF.FileFunction,Legend,Bot*%
%TF.FilePolarity,Positive*%
%FSLAX46Y46*%
G04 Gerber Fmt 4.6, Leading zero omitted, Abs format (unit mm)*
G04 Created by KiCad (PCBNEW 5.1.9+dfsg1-1~bpo10+1) date 2021-04-16 21:47:52*
%MOMM*%
%LPD*%
G01*
G04 APERTURE LIST*
%ADD10C,0.300000*%
%ADD11C,0.010000*%
G04 APERTURE END LIST*
D10*
X170035714Y-85178571D02*
X170035714Y-86678571D01*
X170035714Y-85250000D02*
X169892857Y-85178571D01*
X169607142Y-85178571D01*
X169464285Y-85250000D01*
X169392857Y-85321428D01*
X169321428Y-85464285D01*
X169321428Y-85892857D01*
X169392857Y-86035714D01*
X169464285Y-86107142D01*
X169607142Y-86178571D01*
X169892857Y-86178571D01*
X170035714Y-86107142D01*
X168464285Y-86178571D02*
X168607142Y-86107142D01*
X168678571Y-86035714D01*
X168750000Y-85892857D01*
X168750000Y-85464285D01*
X168678571Y-85321428D01*
X168607142Y-85250000D01*
X168464285Y-85178571D01*
X168250000Y-85178571D01*
X168107142Y-85250000D01*
X168035714Y-85321428D01*
X167964285Y-85464285D01*
X167964285Y-85892857D01*
X168035714Y-86035714D01*
X168107142Y-86107142D01*
X168250000Y-86178571D01*
X168464285Y-86178571D01*
X167464285Y-85178571D02*
X167178571Y-86178571D01*
X166892857Y-85464285D01*
X166607142Y-86178571D01*
X166321428Y-85178571D01*
X165178571Y-86107142D02*
X165321428Y-86178571D01*
X165607142Y-86178571D01*
X165750000Y-86107142D01*
X165821428Y-85964285D01*
X165821428Y-85392857D01*
X165750000Y-85250000D01*
X165607142Y-85178571D01*
X165321428Y-85178571D01*
X165178571Y-85250000D01*
X165107142Y-85392857D01*
X165107142Y-85535714D01*
X165821428Y-85678571D01*
X164464285Y-86178571D02*
X164464285Y-85178571D01*
X164464285Y-85464285D02*
X164392857Y-85321428D01*
X164321428Y-85250000D01*
X164178571Y-85178571D01*
X164035714Y-85178571D01*
X162964285Y-86107142D02*
X163107142Y-86178571D01*
X163392857Y-86178571D01*
X163535714Y-86107142D01*
X163607142Y-85964285D01*
X163607142Y-85392857D01*
X163535714Y-85250000D01*
X163392857Y-85178571D01*
X163107142Y-85178571D01*
X162964285Y-85250000D01*
X162892857Y-85392857D01*
X162892857Y-85535714D01*
X163607142Y-85678571D01*
X161607142Y-86178571D02*
X161607142Y-84678571D01*
X161607142Y-86107142D02*
X161750000Y-86178571D01*
X162035714Y-86178571D01*
X162178571Y-86107142D01*
X162250000Y-86035714D01*
X162321428Y-85892857D01*
X162321428Y-85464285D01*
X162250000Y-85321428D01*
X162178571Y-85250000D01*
X162035714Y-85178571D01*
X161750000Y-85178571D01*
X161607142Y-85250000D01*
X159750000Y-86178571D02*
X159750000Y-84678571D01*
X159750000Y-85250000D02*
X159607142Y-85178571D01*
X159321428Y-85178571D01*
X159178571Y-85250000D01*
X159107142Y-85321428D01*
X159035714Y-85464285D01*
X159035714Y-85892857D01*
X159107142Y-86035714D01*
X159178571Y-86107142D01*
X159321428Y-86178571D01*
X159607142Y-86178571D01*
X159750000Y-86107142D01*
X158535714Y-85178571D02*
X158178571Y-86178571D01*
X157821428Y-85178571D02*
X158178571Y-86178571D01*
X158321428Y-86535714D01*
X158392857Y-86607142D01*
X158535714Y-86678571D01*
X184741428Y-106710000D02*
X185741428Y-106710000D01*
X186241428Y-106710000D02*
X186170000Y-106781428D01*
X186098571Y-106710000D01*
X186170000Y-106638571D01*
X186241428Y-106710000D01*
X186098571Y-106710000D01*
X185741428Y-105995714D02*
X184741428Y-105995714D01*
X185598571Y-105995714D02*
X185670000Y-105924285D01*
X185741428Y-105781428D01*
X185741428Y-105567142D01*
X185670000Y-105424285D01*
X185527142Y-105352857D01*
X184741428Y-105352857D01*
X184741428Y-103495714D02*
X185741428Y-103495714D01*
X185598571Y-103495714D02*
X185670000Y-103424285D01*
X185741428Y-103281428D01*
X185741428Y-103067142D01*
X185670000Y-102924285D01*
X185527142Y-102852857D01*
X184741428Y-102852857D01*
X185527142Y-102852857D02*
X185670000Y-102781428D01*
X185741428Y-102638571D01*
X185741428Y-102424285D01*
X185670000Y-102281428D01*
X185527142Y-102210000D01*
X184741428Y-102210000D01*
X184812857Y-100924285D02*
X184741428Y-101067142D01*
X184741428Y-101352857D01*
X184812857Y-101495714D01*
X184955714Y-101567142D01*
X185527142Y-101567142D01*
X185670000Y-101495714D01*
X185741428Y-101352857D01*
X185741428Y-101067142D01*
X185670000Y-100924285D01*
X185527142Y-100852857D01*
X185384285Y-100852857D01*
X185241428Y-101567142D01*
X184741428Y-100210000D02*
X185741428Y-100210000D01*
X185598571Y-100210000D02*
X185670000Y-100138571D01*
X185741428Y-99995714D01*
X185741428Y-99781428D01*
X185670000Y-99638571D01*
X185527142Y-99567142D01*
X184741428Y-99567142D01*
X185527142Y-99567142D02*
X185670000Y-99495714D01*
X185741428Y-99352857D01*
X185741428Y-99138571D01*
X185670000Y-98995714D01*
X185527142Y-98924285D01*
X184741428Y-98924285D01*
X184741428Y-97995714D02*
X184812857Y-98138571D01*
X184884285Y-98210000D01*
X185027142Y-98281428D01*
X185455714Y-98281428D01*
X185598571Y-98210000D01*
X185670000Y-98138571D01*
X185741428Y-97995714D01*
X185741428Y-97781428D01*
X185670000Y-97638571D01*
X185598571Y-97567142D01*
X185455714Y-97495714D01*
X185027142Y-97495714D01*
X184884285Y-97567142D01*
X184812857Y-97638571D01*
X184741428Y-97781428D01*
X184741428Y-97995714D01*
X184741428Y-96852857D02*
X185741428Y-96852857D01*
X185455714Y-96852857D02*
X185598571Y-96781428D01*
X185670000Y-96710000D01*
X185741428Y-96567142D01*
X185741428Y-96424285D01*
X184741428Y-95924285D02*
X185741428Y-95924285D01*
X186241428Y-95924285D02*
X186170000Y-95995714D01*
X186098571Y-95924285D01*
X186170000Y-95852857D01*
X186241428Y-95924285D01*
X186098571Y-95924285D01*
X184741428Y-94567142D02*
X185527142Y-94567142D01*
X185670000Y-94638571D01*
X185741428Y-94781428D01*
X185741428Y-95067142D01*
X185670000Y-95210000D01*
X184812857Y-94567142D02*
X184741428Y-94710000D01*
X184741428Y-95067142D01*
X184812857Y-95210000D01*
X184955714Y-95281428D01*
X185098571Y-95281428D01*
X185241428Y-95210000D01*
X185312857Y-95067142D01*
X185312857Y-94710000D01*
X185384285Y-94567142D01*
X184741428Y-93852857D02*
X185741428Y-93852857D01*
X185598571Y-93852857D02*
X185670000Y-93781428D01*
X185741428Y-93638571D01*
X185741428Y-93424285D01*
X185670000Y-93281428D01*
X185527142Y-93210000D01*
X184741428Y-93210000D01*
X185527142Y-93210000D02*
X185670000Y-93138571D01*
X185741428Y-92995714D01*
X185741428Y-92781428D01*
X185670000Y-92638571D01*
X185527142Y-92567142D01*
X184741428Y-92567142D01*
X185170000Y-90781428D02*
X185170000Y-90067142D01*
X184741428Y-90924285D02*
X186241428Y-90424285D01*
X184741428Y-89924285D01*
X184884285Y-89424285D02*
X184812857Y-89352857D01*
X184741428Y-89424285D01*
X184812857Y-89495714D01*
X184884285Y-89424285D01*
X184741428Y-89424285D01*
X184812857Y-88781428D02*
X184741428Y-88567142D01*
X184741428Y-88210000D01*
X184812857Y-88067142D01*
X184884285Y-87995714D01*
X185027142Y-87924285D01*
X185170000Y-87924285D01*
X185312857Y-87995714D01*
X185384285Y-88067142D01*
X185455714Y-88210000D01*
X185527142Y-88495714D01*
X185598571Y-88638571D01*
X185670000Y-88710000D01*
X185812857Y-88781428D01*
X185955714Y-88781428D01*
X186098571Y-88710000D01*
X186170000Y-88638571D01*
X186241428Y-88495714D01*
X186241428Y-88138571D01*
X186170000Y-87924285D01*
X184884285Y-87281428D02*
X184812857Y-87210000D01*
X184741428Y-87281428D01*
X184812857Y-87352857D01*
X184884285Y-87281428D01*
X184741428Y-87281428D01*
X185312857Y-85424285D02*
X185312857Y-84281428D01*
X186170000Y-81638571D02*
X186241428Y-81781428D01*
X186241428Y-81995714D01*
X186170000Y-82210000D01*
X186027142Y-82352857D01*
X185884285Y-82424285D01*
X185598571Y-82495714D01*
X185384285Y-82495714D01*
X185098571Y-82424285D01*
X184955714Y-82352857D01*
X184812857Y-82210000D01*
X184741428Y-81995714D01*
X184741428Y-81852857D01*
X184812857Y-81638571D01*
X184884285Y-81567142D01*
X185384285Y-81567142D01*
X185384285Y-81852857D01*
X184884285Y-80924285D02*
X184812857Y-80852857D01*
X184741428Y-80924285D01*
X184812857Y-80995714D01*
X184884285Y-80924285D01*
X184741428Y-80924285D01*
X184741428Y-80210000D02*
X186241428Y-80210000D01*
X186241428Y-79852857D01*
X186170000Y-79638571D01*
X186027142Y-79495714D01*
X185884285Y-79424285D01*
X185598571Y-79352857D01*
X185384285Y-79352857D01*
X185098571Y-79424285D01*
X184955714Y-79495714D01*
X184812857Y-79638571D01*
X184741428Y-79852857D01*
X184741428Y-80210000D01*
X184884285Y-78710000D02*
X184812857Y-78638571D01*
X184741428Y-78710000D01*
X184812857Y-78781428D01*
X184884285Y-78710000D01*
X184741428Y-78710000D01*
D11*
%TO.C,TP2*%
G36*
X166609011Y-105292252D02*
G01*
X166639925Y-105436575D01*
X166732518Y-105627613D01*
X166785898Y-105732279D01*
X166827080Y-105847500D01*
X166857635Y-105995602D01*
X166879134Y-106198911D01*
X166893149Y-106479755D01*
X166901249Y-106860459D01*
X166905007Y-107363350D01*
X166905993Y-108010754D01*
X166906000Y-108092908D01*
X166902791Y-108797864D01*
X166893408Y-109374636D01*
X166878220Y-109813714D01*
X166857593Y-110105585D01*
X166831896Y-110240737D01*
X166822672Y-110249333D01*
X166795950Y-110332323D01*
X166772079Y-110574617D01*
X166751510Y-110966203D01*
X166734695Y-111497071D01*
X166722083Y-112157207D01*
X166716839Y-112598833D01*
X166694333Y-114948333D01*
X159074333Y-114948333D01*
X159026549Y-114059333D01*
X159011618Y-113560030D01*
X159030130Y-113219974D01*
X159083309Y-113032171D01*
X159172381Y-112989628D01*
X159210926Y-113006929D01*
X159243467Y-113106527D01*
X159268897Y-113335633D01*
X159283683Y-113654462D01*
X159286000Y-113852663D01*
X159286000Y-114652000D01*
X161914761Y-114652000D01*
X161891547Y-113233833D01*
X161868333Y-111815667D01*
X161402666Y-111790192D01*
X161149527Y-111767378D01*
X160962743Y-111713389D01*
X160786535Y-111599864D01*
X160565126Y-111398444D01*
X160492500Y-111327417D01*
X160264714Y-111097935D01*
X160132111Y-110930667D01*
X160068939Y-110769300D01*
X160049446Y-110557522D01*
X160048000Y-110355401D01*
X160036672Y-110037875D01*
X159997652Y-109854951D01*
X159923385Y-109773102D01*
X159916125Y-109770080D01*
X159846696Y-109719566D01*
X159920541Y-109653439D01*
X159979625Y-109622624D01*
X160082439Y-109529667D01*
X159624666Y-109529667D01*
X159582333Y-109572000D01*
X159562091Y-109551758D01*
X159418612Y-109551758D01*
X159335389Y-109565316D01*
X159225575Y-109549749D01*
X159224264Y-109520847D01*
X159337581Y-109500636D01*
X159386541Y-109514163D01*
X159418612Y-109551758D01*
X159562091Y-109551758D01*
X159540000Y-109529667D01*
X159582333Y-109487333D01*
X159624666Y-109529667D01*
X160082439Y-109529667D01*
X160131471Y-109485336D01*
X160185049Y-109290304D01*
X160011392Y-109290304D01*
X159945011Y-109383141D01*
X159876327Y-109402667D01*
X159833949Y-109340442D01*
X159847862Y-109276153D01*
X159928209Y-109190611D01*
X159973586Y-109197336D01*
X160011392Y-109290304D01*
X160185049Y-109290304D01*
X160198265Y-109242197D01*
X160201277Y-109210220D01*
X160208113Y-109003554D01*
X160157612Y-108915048D01*
X160013806Y-108894883D01*
X159973441Y-108894667D01*
X159776012Y-108869073D01*
X159667000Y-108810000D01*
X159526826Y-108728158D01*
X159299153Y-108730648D01*
X159037710Y-108808376D01*
X158796226Y-108952248D01*
X158788387Y-108958711D01*
X158616777Y-109115050D01*
X158558202Y-109231146D01*
X158589928Y-109367946D01*
X158614676Y-109424378D01*
X158768087Y-109616302D01*
X158913593Y-109656667D01*
X159088084Y-109690900D01*
X159160364Y-109743541D01*
X159277721Y-109803727D01*
X159398194Y-109807041D01*
X159542588Y-109820989D01*
X159582333Y-109868333D01*
X159503163Y-109910887D01*
X159284970Y-109929388D01*
X159012533Y-109924119D01*
X158707501Y-109912830D01*
X158526790Y-109926197D01*
X158425805Y-109976975D01*
X158359950Y-110077918D01*
X158342222Y-110115835D01*
X158227575Y-110275191D01*
X158086522Y-110287177D01*
X157955120Y-110283590D01*
X157947318Y-110372597D01*
X158032933Y-110486400D01*
X158081414Y-110575547D01*
X158054100Y-110597000D01*
X157907533Y-110610248D01*
X157804333Y-110618166D01*
X157673715Y-110678148D01*
X157655168Y-110820833D01*
X157642585Y-110955056D01*
X157534554Y-111005880D01*
X157413156Y-111011333D01*
X157234519Y-111025317D01*
X157183195Y-111098847D01*
X157208764Y-111244167D01*
X157313895Y-111489326D01*
X157429609Y-111651790D01*
X157549468Y-111805711D01*
X157593071Y-111905790D01*
X157657714Y-112044694D01*
X157823364Y-112237996D01*
X158049122Y-112447702D01*
X158294090Y-112635818D01*
X158517225Y-112764289D01*
X158760585Y-112885203D01*
X158853753Y-112979300D01*
X158810168Y-113063334D01*
X158776020Y-113086890D01*
X158651809Y-113091428D01*
X158465273Y-113037989D01*
X158287406Y-112954646D01*
X158189198Y-112869467D01*
X158185333Y-112853332D01*
X158116900Y-112795701D01*
X158064519Y-112789333D01*
X157953552Y-112726040D01*
X157785060Y-112561198D01*
X157620019Y-112361714D01*
X157340270Y-111995132D01*
X157145555Y-111749577D01*
X157020949Y-111609392D01*
X156951530Y-111558919D01*
X156922374Y-111582501D01*
X156918009Y-111625167D01*
X156956850Y-111750693D01*
X157002728Y-111773333D01*
X157102424Y-111841785D01*
X157150895Y-111927005D01*
X157318003Y-112217529D01*
X157583304Y-112540728D01*
X157897840Y-112845488D01*
X158212655Y-113080694D01*
X158306346Y-113133372D01*
X158735666Y-113350410D01*
X158760374Y-114102629D01*
X158781319Y-114452731D01*
X158816101Y-114743768D01*
X158858548Y-114929917D01*
X158876574Y-114965091D01*
X158930537Y-114991899D01*
X159052468Y-115014258D01*
X159255005Y-115032514D01*
X159550785Y-115047015D01*
X159952446Y-115058108D01*
X160472625Y-115066139D01*
X161123960Y-115071455D01*
X161919088Y-115074404D01*
X162870646Y-115075333D01*
X162891721Y-115075333D01*
X163808658Y-115075117D01*
X164570941Y-115074065D01*
X165193246Y-115071574D01*
X165690254Y-115067039D01*
X166076642Y-115059854D01*
X166367088Y-115049417D01*
X166576272Y-115035122D01*
X166718870Y-115016365D01*
X166809563Y-114992541D01*
X166863027Y-114963047D01*
X166893941Y-114927277D01*
X166903796Y-114910117D01*
X166926009Y-114781734D01*
X166944050Y-114487081D01*
X166957925Y-114025681D01*
X166967641Y-113397055D01*
X166973205Y-112600724D01*
X166974622Y-111636211D01*
X166971901Y-110503037D01*
X166970275Y-110129433D01*
X166965163Y-109123186D01*
X166959860Y-108272731D01*
X166953887Y-107564525D01*
X166946767Y-106985027D01*
X166938021Y-106520696D01*
X166927171Y-106157989D01*
X166913740Y-105883366D01*
X166897248Y-105683284D01*
X166877219Y-105544202D01*
X166853175Y-105452578D01*
X166824636Y-105394870D01*
X166802182Y-105367855D01*
X166664670Y-105263480D01*
X166609011Y-105292252D01*
G37*
X166609011Y-105292252D02*
X166639925Y-105436575D01*
X166732518Y-105627613D01*
X166785898Y-105732279D01*
X166827080Y-105847500D01*
X166857635Y-105995602D01*
X166879134Y-106198911D01*
X166893149Y-106479755D01*
X166901249Y-106860459D01*
X166905007Y-107363350D01*
X166905993Y-108010754D01*
X166906000Y-108092908D01*
X166902791Y-108797864D01*
X166893408Y-109374636D01*
X166878220Y-109813714D01*
X166857593Y-110105585D01*
X166831896Y-110240737D01*
X166822672Y-110249333D01*
X166795950Y-110332323D01*
X166772079Y-110574617D01*
X166751510Y-110966203D01*
X166734695Y-111497071D01*
X166722083Y-112157207D01*
X166716839Y-112598833D01*
X166694333Y-114948333D01*
X159074333Y-114948333D01*
X159026549Y-114059333D01*
X159011618Y-113560030D01*
X159030130Y-113219974D01*
X159083309Y-113032171D01*
X159172381Y-112989628D01*
X159210926Y-113006929D01*
X159243467Y-113106527D01*
X159268897Y-113335633D01*
X159283683Y-113654462D01*
X159286000Y-113852663D01*
X159286000Y-114652000D01*
X161914761Y-114652000D01*
X161891547Y-113233833D01*
X161868333Y-111815667D01*
X161402666Y-111790192D01*
X161149527Y-111767378D01*
X160962743Y-111713389D01*
X160786535Y-111599864D01*
X160565126Y-111398444D01*
X160492500Y-111327417D01*
X160264714Y-111097935D01*
X160132111Y-110930667D01*
X160068939Y-110769300D01*
X160049446Y-110557522D01*
X160048000Y-110355401D01*
X160036672Y-110037875D01*
X159997652Y-109854951D01*
X159923385Y-109773102D01*
X159916125Y-109770080D01*
X159846696Y-109719566D01*
X159920541Y-109653439D01*
X159979625Y-109622624D01*
X160082439Y-109529667D01*
X159624666Y-109529667D01*
X159582333Y-109572000D01*
X159562091Y-109551758D01*
X159418612Y-109551758D01*
X159335389Y-109565316D01*
X159225575Y-109549749D01*
X159224264Y-109520847D01*
X159337581Y-109500636D01*
X159386541Y-109514163D01*
X159418612Y-109551758D01*
X159562091Y-109551758D01*
X159540000Y-109529667D01*
X159582333Y-109487333D01*
X159624666Y-109529667D01*
X160082439Y-109529667D01*
X160131471Y-109485336D01*
X160185049Y-109290304D01*
X160011392Y-109290304D01*
X159945011Y-109383141D01*
X159876327Y-109402667D01*
X159833949Y-109340442D01*
X159847862Y-109276153D01*
X159928209Y-109190611D01*
X159973586Y-109197336D01*
X160011392Y-109290304D01*
X160185049Y-109290304D01*
X160198265Y-109242197D01*
X160201277Y-109210220D01*
X160208113Y-109003554D01*
X160157612Y-108915048D01*
X160013806Y-108894883D01*
X159973441Y-108894667D01*
X159776012Y-108869073D01*
X159667000Y-108810000D01*
X159526826Y-108728158D01*
X159299153Y-108730648D01*
X159037710Y-108808376D01*
X158796226Y-108952248D01*
X158788387Y-108958711D01*
X158616777Y-109115050D01*
X158558202Y-109231146D01*
X158589928Y-109367946D01*
X158614676Y-109424378D01*
X158768087Y-109616302D01*
X158913593Y-109656667D01*
X159088084Y-109690900D01*
X159160364Y-109743541D01*
X159277721Y-109803727D01*
X159398194Y-109807041D01*
X159542588Y-109820989D01*
X159582333Y-109868333D01*
X159503163Y-109910887D01*
X159284970Y-109929388D01*
X159012533Y-109924119D01*
X158707501Y-109912830D01*
X158526790Y-109926197D01*
X158425805Y-109976975D01*
X158359950Y-110077918D01*
X158342222Y-110115835D01*
X158227575Y-110275191D01*
X158086522Y-110287177D01*
X157955120Y-110283590D01*
X157947318Y-110372597D01*
X158032933Y-110486400D01*
X158081414Y-110575547D01*
X158054100Y-110597000D01*
X157907533Y-110610248D01*
X157804333Y-110618166D01*
X157673715Y-110678148D01*
X157655168Y-110820833D01*
X157642585Y-110955056D01*
X157534554Y-111005880D01*
X157413156Y-111011333D01*
X157234519Y-111025317D01*
X157183195Y-111098847D01*
X157208764Y-111244167D01*
X157313895Y-111489326D01*
X157429609Y-111651790D01*
X157549468Y-111805711D01*
X157593071Y-111905790D01*
X157657714Y-112044694D01*
X157823364Y-112237996D01*
X158049122Y-112447702D01*
X158294090Y-112635818D01*
X158517225Y-112764289D01*
X158760585Y-112885203D01*
X158853753Y-112979300D01*
X158810168Y-113063334D01*
X158776020Y-113086890D01*
X158651809Y-113091428D01*
X158465273Y-113037989D01*
X158287406Y-112954646D01*
X158189198Y-112869467D01*
X158185333Y-112853332D01*
X158116900Y-112795701D01*
X158064519Y-112789333D01*
X157953552Y-112726040D01*
X157785060Y-112561198D01*
X157620019Y-112361714D01*
X157340270Y-111995132D01*
X157145555Y-111749577D01*
X157020949Y-111609392D01*
X156951530Y-111558919D01*
X156922374Y-111582501D01*
X156918009Y-111625167D01*
X156956850Y-111750693D01*
X157002728Y-111773333D01*
X157102424Y-111841785D01*
X157150895Y-111927005D01*
X157318003Y-112217529D01*
X157583304Y-112540728D01*
X157897840Y-112845488D01*
X158212655Y-113080694D01*
X158306346Y-113133372D01*
X158735666Y-113350410D01*
X158760374Y-114102629D01*
X158781319Y-114452731D01*
X158816101Y-114743768D01*
X158858548Y-114929917D01*
X158876574Y-114965091D01*
X158930537Y-114991899D01*
X159052468Y-115014258D01*
X159255005Y-115032514D01*
X159550785Y-115047015D01*
X159952446Y-115058108D01*
X160472625Y-115066139D01*
X161123960Y-115071455D01*
X161919088Y-115074404D01*
X162870646Y-115075333D01*
X162891721Y-115075333D01*
X163808658Y-115075117D01*
X164570941Y-115074065D01*
X165193246Y-115071574D01*
X165690254Y-115067039D01*
X166076642Y-115059854D01*
X166367088Y-115049417D01*
X166576272Y-115035122D01*
X166718870Y-115016365D01*
X166809563Y-114992541D01*
X166863027Y-114963047D01*
X166893941Y-114927277D01*
X166903796Y-114910117D01*
X166926009Y-114781734D01*
X166944050Y-114487081D01*
X166957925Y-114025681D01*
X166967641Y-113397055D01*
X166973205Y-112600724D01*
X166974622Y-111636211D01*
X166971901Y-110503037D01*
X166970275Y-110129433D01*
X166965163Y-109123186D01*
X166959860Y-108272731D01*
X166953887Y-107564525D01*
X166946767Y-106985027D01*
X166938021Y-106520696D01*
X166927171Y-106157989D01*
X166913740Y-105883366D01*
X166897248Y-105683284D01*
X166877219Y-105544202D01*
X166853175Y-105452578D01*
X166824636Y-105394870D01*
X166802182Y-105367855D01*
X166664670Y-105263480D01*
X166609011Y-105292252D01*
G36*
X158227264Y-113316383D02*
G01*
X158235268Y-113407040D01*
X158341185Y-113528049D01*
X158432454Y-113628359D01*
X158490497Y-113770758D01*
X158524981Y-113995990D01*
X158545574Y-114344795D01*
X158547612Y-114398000D01*
X158574199Y-115117667D01*
X158591433Y-114292167D01*
X158595001Y-113900544D01*
X158583767Y-113650740D01*
X158554353Y-113515626D01*
X158503386Y-113468072D01*
X158488722Y-113466667D01*
X158356182Y-113403179D01*
X158330980Y-113360833D01*
X158259621Y-113300297D01*
X158227264Y-113316383D01*
G37*
X158227264Y-113316383D02*
X158235268Y-113407040D01*
X158341185Y-113528049D01*
X158432454Y-113628359D01*
X158490497Y-113770758D01*
X158524981Y-113995990D01*
X158545574Y-114344795D01*
X158547612Y-114398000D01*
X158574199Y-115117667D01*
X158591433Y-114292167D01*
X158595001Y-113900544D01*
X158583767Y-113650740D01*
X158554353Y-113515626D01*
X158503386Y-113468072D01*
X158488722Y-113466667D01*
X158356182Y-113403179D01*
X158330980Y-113360833D01*
X158259621Y-113300297D01*
X158227264Y-113316383D01*
G36*
X159886825Y-101830323D02*
G01*
X159834646Y-101852696D01*
X159593434Y-101929088D01*
X159414013Y-101952000D01*
X159236797Y-101983125D01*
X159160071Y-102034933D01*
X159053157Y-102067006D01*
X158957797Y-102023553D01*
X158807280Y-101978145D01*
X158628157Y-102047488D01*
X158580722Y-102077357D01*
X158481174Y-102149187D01*
X158416207Y-102231471D01*
X158378446Y-102358900D01*
X158360516Y-102566164D01*
X158355041Y-102887956D01*
X158354666Y-103140631D01*
X158354666Y-104055787D01*
X158614998Y-104252727D01*
X158841539Y-104433220D01*
X159151190Y-104691807D01*
X159502095Y-104992311D01*
X159852399Y-105298554D01*
X160160249Y-105574359D01*
X160365500Y-105765768D01*
X160495081Y-105897585D01*
X160575697Y-106016971D01*
X160618765Y-106167601D01*
X160635700Y-106393148D01*
X160637918Y-106737286D01*
X160637666Y-106807034D01*
X160618485Y-107309139D01*
X160565921Y-107654940D01*
X160513666Y-107794000D01*
X160466154Y-107922125D01*
X160431611Y-108130363D01*
X160408431Y-108440680D01*
X160395013Y-108875043D01*
X160389753Y-109455420D01*
X160389667Y-109492659D01*
X160386666Y-110979652D01*
X160619822Y-111203030D01*
X160765420Y-111322062D01*
X160928171Y-111393468D01*
X161159772Y-111432061D01*
X161487655Y-111451703D01*
X162122333Y-111477000D01*
X162168403Y-114652000D01*
X166482666Y-114652000D01*
X166482667Y-112370997D01*
X166485795Y-111642474D01*
X166494929Y-111037022D01*
X166509693Y-110565021D01*
X166529710Y-110236851D01*
X166554602Y-110062894D01*
X166567333Y-110037667D01*
X166595361Y-109936127D01*
X166618082Y-109677085D01*
X166635034Y-109272300D01*
X166645756Y-108733534D01*
X166649786Y-108072547D01*
X166649760Y-107937170D01*
X166648080Y-106399846D01*
X165521808Y-106399846D01*
X165517642Y-106494747D01*
X165414472Y-106495079D01*
X165244679Y-106413102D01*
X165040643Y-106261072D01*
X164960869Y-106187486D01*
X164777508Y-106024562D01*
X164628904Y-105919725D01*
X164605356Y-105908813D01*
X164538350Y-105845467D01*
X164590555Y-105763928D01*
X164688669Y-105716614D01*
X164833663Y-105773613D01*
X164950388Y-105853934D01*
X165119160Y-105994940D01*
X165208439Y-106101173D01*
X165212666Y-106116589D01*
X165281467Y-106177641D01*
X165339666Y-106185333D01*
X165452622Y-106204605D01*
X165466666Y-106220742D01*
X165493113Y-106319863D01*
X165521808Y-106399846D01*
X166648080Y-106399846D01*
X166647521Y-105889000D01*
X166238963Y-105296333D01*
X166027938Y-105010482D01*
X165827969Y-104774272D01*
X165674166Y-104628235D01*
X165643136Y-104608500D01*
X165434467Y-104471706D01*
X165221488Y-104285920D01*
X165049030Y-104095977D01*
X164961924Y-103946713D01*
X164958666Y-103923947D01*
X164922453Y-103800851D01*
X164825814Y-103569581D01*
X164686751Y-103272041D01*
X164625129Y-103147535D01*
X164432811Y-102789985D01*
X164270852Y-102555764D01*
X164111462Y-102409166D01*
X164001793Y-102346643D01*
X163780154Y-102221299D01*
X163618426Y-102095161D01*
X163605297Y-102080562D01*
X163461084Y-101972105D01*
X163381966Y-101952000D01*
X163336108Y-101982474D01*
X163303495Y-102088416D01*
X163282171Y-102291600D01*
X163270182Y-102613805D01*
X163265570Y-103076805D01*
X163265333Y-103250743D01*
X163265333Y-104549486D01*
X163480984Y-104647743D01*
X163703422Y-104721648D01*
X163900395Y-104743654D01*
X164016198Y-104710268D01*
X164027333Y-104682001D01*
X164096292Y-104607499D01*
X164256240Y-104518553D01*
X164436785Y-104446643D01*
X164567533Y-104423244D01*
X164587660Y-104431438D01*
X164574470Y-104517995D01*
X164463845Y-104645018D01*
X164306334Y-104770663D01*
X164152484Y-104853083D01*
X164068806Y-104860954D01*
X163954058Y-104856619D01*
X163932639Y-104945240D01*
X163991159Y-105088298D01*
X164116230Y-105247276D01*
X164238421Y-105348919D01*
X164421246Y-105485921D01*
X164525514Y-105588259D01*
X164534755Y-105608836D01*
X164479263Y-105705285D01*
X164357839Y-105696272D01*
X164280559Y-105634068D01*
X164160433Y-105528256D01*
X164105393Y-105508000D01*
X163998338Y-105463949D01*
X163809676Y-105352672D01*
X163713593Y-105289341D01*
X163416755Y-105106648D01*
X163095988Y-104936029D01*
X163040077Y-104909677D01*
X162819155Y-104790951D01*
X162729585Y-104683627D01*
X162732452Y-104578002D01*
X162716670Y-104441079D01*
X162607620Y-104406465D01*
X162456599Y-104488297D01*
X162445582Y-104498951D01*
X162344285Y-104535172D01*
X162181416Y-104486779D01*
X161941749Y-104344949D01*
X161610057Y-104100862D01*
X161230540Y-103794955D01*
X161085177Y-103679645D01*
X160871581Y-103515296D01*
X160779339Y-103445413D01*
X160457931Y-103203160D01*
X160227166Y-103424246D01*
X160074687Y-103548132D01*
X159907842Y-103615152D01*
X159668320Y-103641818D01*
X159446467Y-103645333D01*
X159131157Y-103629994D01*
X158894131Y-103589219D01*
X158794933Y-103543733D01*
X158730065Y-103391202D01*
X158696880Y-103135646D01*
X158694354Y-102836968D01*
X158721462Y-102555072D01*
X158777179Y-102349861D01*
X158816305Y-102294010D01*
X158882319Y-102262295D01*
X158923623Y-102320371D01*
X158948796Y-102495825D01*
X158964471Y-102770476D01*
X158989666Y-103349000D01*
X159446784Y-103375029D01*
X159725072Y-103380733D01*
X159910893Y-103339549D01*
X160080024Y-103223781D01*
X160219942Y-103092452D01*
X160535983Y-102783846D01*
X160378408Y-102352740D01*
X160252949Y-102037238D01*
X160146572Y-101860977D01*
X160033217Y-101799994D01*
X159886825Y-101830323D01*
G37*
X159886825Y-101830323D02*
X159834646Y-101852696D01*
X159593434Y-101929088D01*
X159414013Y-101952000D01*
X159236797Y-101983125D01*
X159160071Y-102034933D01*
X159053157Y-102067006D01*
X158957797Y-102023553D01*
X158807280Y-101978145D01*
X158628157Y-102047488D01*
X158580722Y-102077357D01*
X158481174Y-102149187D01*
X158416207Y-102231471D01*
X158378446Y-102358900D01*
X158360516Y-102566164D01*
X158355041Y-102887956D01*
X158354666Y-103140631D01*
X158354666Y-104055787D01*
X158614998Y-104252727D01*
X158841539Y-104433220D01*
X159151190Y-104691807D01*
X159502095Y-104992311D01*
X159852399Y-105298554D01*
X160160249Y-105574359D01*
X160365500Y-105765768D01*
X160495081Y-105897585D01*
X160575697Y-106016971D01*
X160618765Y-106167601D01*
X160635700Y-106393148D01*
X160637918Y-106737286D01*
X160637666Y-106807034D01*
X160618485Y-107309139D01*
X160565921Y-107654940D01*
X160513666Y-107794000D01*
X160466154Y-107922125D01*
X160431611Y-108130363D01*
X160408431Y-108440680D01*
X160395013Y-108875043D01*
X160389753Y-109455420D01*
X160389667Y-109492659D01*
X160386666Y-110979652D01*
X160619822Y-111203030D01*
X160765420Y-111322062D01*
X160928171Y-111393468D01*
X161159772Y-111432061D01*
X161487655Y-111451703D01*
X162122333Y-111477000D01*
X162168403Y-114652000D01*
X166482666Y-114652000D01*
X166482667Y-112370997D01*
X166485795Y-111642474D01*
X166494929Y-111037022D01*
X166509693Y-110565021D01*
X166529710Y-110236851D01*
X166554602Y-110062894D01*
X166567333Y-110037667D01*
X166595361Y-109936127D01*
X166618082Y-109677085D01*
X166635034Y-109272300D01*
X166645756Y-108733534D01*
X166649786Y-108072547D01*
X166649760Y-107937170D01*
X166648080Y-106399846D01*
X165521808Y-106399846D01*
X165517642Y-106494747D01*
X165414472Y-106495079D01*
X165244679Y-106413102D01*
X165040643Y-106261072D01*
X164960869Y-106187486D01*
X164777508Y-106024562D01*
X164628904Y-105919725D01*
X164605356Y-105908813D01*
X164538350Y-105845467D01*
X164590555Y-105763928D01*
X164688669Y-105716614D01*
X164833663Y-105773613D01*
X164950388Y-105853934D01*
X165119160Y-105994940D01*
X165208439Y-106101173D01*
X165212666Y-106116589D01*
X165281467Y-106177641D01*
X165339666Y-106185333D01*
X165452622Y-106204605D01*
X165466666Y-106220742D01*
X165493113Y-106319863D01*
X165521808Y-106399846D01*
X166648080Y-106399846D01*
X166647521Y-105889000D01*
X166238963Y-105296333D01*
X166027938Y-105010482D01*
X165827969Y-104774272D01*
X165674166Y-104628235D01*
X165643136Y-104608500D01*
X165434467Y-104471706D01*
X165221488Y-104285920D01*
X165049030Y-104095977D01*
X164961924Y-103946713D01*
X164958666Y-103923947D01*
X164922453Y-103800851D01*
X164825814Y-103569581D01*
X164686751Y-103272041D01*
X164625129Y-103147535D01*
X164432811Y-102789985D01*
X164270852Y-102555764D01*
X164111462Y-102409166D01*
X164001793Y-102346643D01*
X163780154Y-102221299D01*
X163618426Y-102095161D01*
X163605297Y-102080562D01*
X163461084Y-101972105D01*
X163381966Y-101952000D01*
X163336108Y-101982474D01*
X163303495Y-102088416D01*
X163282171Y-102291600D01*
X163270182Y-102613805D01*
X163265570Y-103076805D01*
X163265333Y-103250743D01*
X163265333Y-104549486D01*
X163480984Y-104647743D01*
X163703422Y-104721648D01*
X163900395Y-104743654D01*
X164016198Y-104710268D01*
X164027333Y-104682001D01*
X164096292Y-104607499D01*
X164256240Y-104518553D01*
X164436785Y-104446643D01*
X164567533Y-104423244D01*
X164587660Y-104431438D01*
X164574470Y-104517995D01*
X164463845Y-104645018D01*
X164306334Y-104770663D01*
X164152484Y-104853083D01*
X164068806Y-104860954D01*
X163954058Y-104856619D01*
X163932639Y-104945240D01*
X163991159Y-105088298D01*
X164116230Y-105247276D01*
X164238421Y-105348919D01*
X164421246Y-105485921D01*
X164525514Y-105588259D01*
X164534755Y-105608836D01*
X164479263Y-105705285D01*
X164357839Y-105696272D01*
X164280559Y-105634068D01*
X164160433Y-105528256D01*
X164105393Y-105508000D01*
X163998338Y-105463949D01*
X163809676Y-105352672D01*
X163713593Y-105289341D01*
X163416755Y-105106648D01*
X163095988Y-104936029D01*
X163040077Y-104909677D01*
X162819155Y-104790951D01*
X162729585Y-104683627D01*
X162732452Y-104578002D01*
X162716670Y-104441079D01*
X162607620Y-104406465D01*
X162456599Y-104488297D01*
X162445582Y-104498951D01*
X162344285Y-104535172D01*
X162181416Y-104486779D01*
X161941749Y-104344949D01*
X161610057Y-104100862D01*
X161230540Y-103794955D01*
X161085177Y-103679645D01*
X160871581Y-103515296D01*
X160779339Y-103445413D01*
X160457931Y-103203160D01*
X160227166Y-103424246D01*
X160074687Y-103548132D01*
X159907842Y-103615152D01*
X159668320Y-103641818D01*
X159446467Y-103645333D01*
X159131157Y-103629994D01*
X158894131Y-103589219D01*
X158794933Y-103543733D01*
X158730065Y-103391202D01*
X158696880Y-103135646D01*
X158694354Y-102836968D01*
X158721462Y-102555072D01*
X158777179Y-102349861D01*
X158816305Y-102294010D01*
X158882319Y-102262295D01*
X158923623Y-102320371D01*
X158948796Y-102495825D01*
X158964471Y-102770476D01*
X158989666Y-103349000D01*
X159446784Y-103375029D01*
X159725072Y-103380733D01*
X159910893Y-103339549D01*
X160080024Y-103223781D01*
X160219942Y-103092452D01*
X160535983Y-102783846D01*
X160378408Y-102352740D01*
X160252949Y-102037238D01*
X160146572Y-101860977D01*
X160033217Y-101799994D01*
X159886825Y-101830323D01*
G36*
X157933793Y-113277096D02*
G01*
X157931333Y-113297333D01*
X157995762Y-113379540D01*
X158016000Y-113382000D01*
X158098206Y-113317571D01*
X158100666Y-113297333D01*
X158036237Y-113215127D01*
X158016000Y-113212667D01*
X157933793Y-113277096D01*
G37*
X157933793Y-113277096D02*
X157931333Y-113297333D01*
X157995762Y-113379540D01*
X158016000Y-113382000D01*
X158098206Y-113317571D01*
X158100666Y-113297333D01*
X158036237Y-113215127D01*
X158016000Y-113212667D01*
X157933793Y-113277096D01*
G36*
X156971120Y-112320134D02*
G01*
X156961415Y-112344428D01*
X156941955Y-112435590D01*
X156966764Y-112427458D01*
X157050529Y-112432366D01*
X157144104Y-112537514D01*
X157208430Y-112681011D01*
X157204449Y-112800967D01*
X157203490Y-112802563D01*
X157193675Y-112860371D01*
X157240544Y-112839983D01*
X157358171Y-112855128D01*
X157517869Y-112974763D01*
X157538501Y-112996234D01*
X157719936Y-113167263D01*
X157825071Y-113210872D01*
X157846666Y-113164648D01*
X157790393Y-113083507D01*
X157647322Y-112931280D01*
X157550333Y-112837150D01*
X157376804Y-112662137D01*
X157270138Y-112532682D01*
X157254000Y-112498122D01*
X157201018Y-112395629D01*
X157135223Y-112319795D01*
X157033170Y-112247417D01*
X156971120Y-112320134D01*
G37*
X156971120Y-112320134D02*
X156961415Y-112344428D01*
X156941955Y-112435590D01*
X156966764Y-112427458D01*
X157050529Y-112432366D01*
X157144104Y-112537514D01*
X157208430Y-112681011D01*
X157204449Y-112800967D01*
X157203490Y-112802563D01*
X157193675Y-112860371D01*
X157240544Y-112839983D01*
X157358171Y-112855128D01*
X157517869Y-112974763D01*
X157538501Y-112996234D01*
X157719936Y-113167263D01*
X157825071Y-113210872D01*
X157846666Y-113164648D01*
X157790393Y-113083507D01*
X157647322Y-112931280D01*
X157550333Y-112837150D01*
X157376804Y-112662137D01*
X157270138Y-112532682D01*
X157254000Y-112498122D01*
X157201018Y-112395629D01*
X157135223Y-112319795D01*
X157033170Y-112247417D01*
X156971120Y-112320134D01*
G36*
X156765383Y-111958484D02*
G01*
X156842940Y-112060026D01*
X156945007Y-112099107D01*
X156999785Y-112049725D01*
X157000000Y-112043447D01*
X156932160Y-111945614D01*
X156865925Y-111909334D01*
X156766670Y-111907038D01*
X156765383Y-111958484D01*
G37*
X156765383Y-111958484D02*
X156842940Y-112060026D01*
X156945007Y-112099107D01*
X156999785Y-112049725D01*
X157000000Y-112043447D01*
X156932160Y-111945614D01*
X156865925Y-111909334D01*
X156766670Y-111907038D01*
X156765383Y-111958484D01*
G36*
X156689555Y-111632222D02*
G01*
X156679422Y-111732702D01*
X156689555Y-111745111D01*
X156739890Y-111733489D01*
X156746000Y-111688667D01*
X156715022Y-111618976D01*
X156689555Y-111632222D01*
G37*
X156689555Y-111632222D02*
X156679422Y-111732702D01*
X156689555Y-111745111D01*
X156739890Y-111733489D01*
X156746000Y-111688667D01*
X156715022Y-111618976D01*
X156689555Y-111632222D01*
G36*
X156435555Y-111462889D02*
G01*
X156447178Y-111513223D01*
X156492000Y-111519333D01*
X156561690Y-111488355D01*
X156548444Y-111462889D01*
X156447965Y-111452756D01*
X156435555Y-111462889D01*
G37*
X156435555Y-111462889D02*
X156447178Y-111513223D01*
X156492000Y-111519333D01*
X156561690Y-111488355D01*
X156548444Y-111462889D01*
X156447965Y-111452756D01*
X156435555Y-111462889D01*
G36*
X155675824Y-110783287D02*
G01*
X155699394Y-110867423D01*
X155817862Y-111024318D01*
X155921911Y-111135511D01*
X156147236Y-111346490D01*
X156277394Y-111431132D01*
X156322439Y-111395775D01*
X156322666Y-111388137D01*
X156268210Y-111292886D01*
X156134166Y-111143450D01*
X155964518Y-110980959D01*
X155803252Y-110846544D01*
X155694355Y-110781334D01*
X155675824Y-110783287D01*
G37*
X155675824Y-110783287D02*
X155699394Y-110867423D01*
X155817862Y-111024318D01*
X155921911Y-111135511D01*
X156147236Y-111346490D01*
X156277394Y-111431132D01*
X156322439Y-111395775D01*
X156322666Y-111388137D01*
X156268210Y-111292886D01*
X156134166Y-111143450D01*
X155964518Y-110980959D01*
X155803252Y-110846544D01*
X155694355Y-110781334D01*
X155675824Y-110783287D01*
G36*
X155814666Y-108068002D02*
G01*
X155548073Y-108085404D01*
X155406545Y-108123119D01*
X155345977Y-108208877D01*
X155322263Y-108370409D01*
X155321533Y-108378044D01*
X155353454Y-108647408D01*
X155482050Y-109024329D01*
X155697101Y-109485035D01*
X155988383Y-110005758D01*
X156098940Y-110185833D01*
X156276990Y-110447303D01*
X156401448Y-110565137D01*
X156490894Y-110548879D01*
X156558819Y-110422120D01*
X156644333Y-110308570D01*
X156741147Y-110331001D01*
X156804109Y-110437352D01*
X156732464Y-110562319D01*
X156552829Y-110672745D01*
X156436237Y-110710805D01*
X156215354Y-110700480D01*
X156017391Y-110590734D01*
X155906219Y-110422322D01*
X155899333Y-110368208D01*
X155841894Y-110229638D01*
X155814666Y-110207000D01*
X155743130Y-110227336D01*
X155730000Y-110292964D01*
X155785711Y-110419383D01*
X155932198Y-110621135D01*
X156138489Y-110855862D01*
X156151507Y-110869461D01*
X156377665Y-111092876D01*
X156512295Y-111194064D01*
X156570019Y-111182727D01*
X156574840Y-111150321D01*
X156609638Y-111040873D01*
X156740104Y-111035087D01*
X156788333Y-111046101D01*
X156951373Y-111050344D01*
X157001803Y-110982962D01*
X156911292Y-110881836D01*
X156911222Y-110881792D01*
X156866768Y-110790918D01*
X156944446Y-110688801D01*
X157103463Y-110610338D01*
X157254629Y-110588000D01*
X157483649Y-110521775D01*
X157652728Y-110355943D01*
X157740115Y-110139763D01*
X157733274Y-110047203D01*
X156547563Y-110047203D01*
X156534333Y-110080000D01*
X156458251Y-110160770D01*
X156444670Y-110164667D01*
X156408304Y-110099161D01*
X156407333Y-110080000D01*
X156472421Y-109998587D01*
X156496997Y-109995333D01*
X156547563Y-110047203D01*
X157733274Y-110047203D01*
X157724056Y-109922498D01*
X157613833Y-109774526D01*
X157566914Y-109734706D01*
X156959170Y-109734706D01*
X156830666Y-109810975D01*
X156636866Y-109887426D01*
X156579352Y-109888857D01*
X156640575Y-109811020D01*
X156677208Y-109773839D01*
X156830111Y-109682138D01*
X156928184Y-109679514D01*
X156959170Y-109734706D01*
X157566914Y-109734706D01*
X157511995Y-109688097D01*
X157547561Y-109661909D01*
X157613833Y-109659359D01*
X157739629Y-109622478D01*
X157762000Y-109583569D01*
X157754187Y-109572000D01*
X157338666Y-109572000D01*
X157270090Y-109647114D01*
X157211666Y-109656667D01*
X157098995Y-109610949D01*
X157084666Y-109572000D01*
X157153243Y-109496885D01*
X157211666Y-109487333D01*
X157324338Y-109533051D01*
X157338666Y-109572000D01*
X157754187Y-109572000D01*
X157705020Y-109499201D01*
X157549654Y-109322541D01*
X157319264Y-109078991D01*
X157037212Y-108793951D01*
X157021166Y-108778071D01*
X156280333Y-108045671D01*
X155814666Y-108068002D01*
G37*
X155814666Y-108068002D02*
X155548073Y-108085404D01*
X155406545Y-108123119D01*
X155345977Y-108208877D01*
X155322263Y-108370409D01*
X155321533Y-108378044D01*
X155353454Y-108647408D01*
X155482050Y-109024329D01*
X155697101Y-109485035D01*
X155988383Y-110005758D01*
X156098940Y-110185833D01*
X156276990Y-110447303D01*
X156401448Y-110565137D01*
X156490894Y-110548879D01*
X156558819Y-110422120D01*
X156644333Y-110308570D01*
X156741147Y-110331001D01*
X156804109Y-110437352D01*
X156732464Y-110562319D01*
X156552829Y-110672745D01*
X156436237Y-110710805D01*
X156215354Y-110700480D01*
X156017391Y-110590734D01*
X155906219Y-110422322D01*
X155899333Y-110368208D01*
X155841894Y-110229638D01*
X155814666Y-110207000D01*
X155743130Y-110227336D01*
X155730000Y-110292964D01*
X155785711Y-110419383D01*
X155932198Y-110621135D01*
X156138489Y-110855862D01*
X156151507Y-110869461D01*
X156377665Y-111092876D01*
X156512295Y-111194064D01*
X156570019Y-111182727D01*
X156574840Y-111150321D01*
X156609638Y-111040873D01*
X156740104Y-111035087D01*
X156788333Y-111046101D01*
X156951373Y-111050344D01*
X157001803Y-110982962D01*
X156911292Y-110881836D01*
X156911222Y-110881792D01*
X156866768Y-110790918D01*
X156944446Y-110688801D01*
X157103463Y-110610338D01*
X157254629Y-110588000D01*
X157483649Y-110521775D01*
X157652728Y-110355943D01*
X157740115Y-110139763D01*
X157733274Y-110047203D01*
X156547563Y-110047203D01*
X156534333Y-110080000D01*
X156458251Y-110160770D01*
X156444670Y-110164667D01*
X156408304Y-110099161D01*
X156407333Y-110080000D01*
X156472421Y-109998587D01*
X156496997Y-109995333D01*
X156547563Y-110047203D01*
X157733274Y-110047203D01*
X157724056Y-109922498D01*
X157613833Y-109774526D01*
X157566914Y-109734706D01*
X156959170Y-109734706D01*
X156830666Y-109810975D01*
X156636866Y-109887426D01*
X156579352Y-109888857D01*
X156640575Y-109811020D01*
X156677208Y-109773839D01*
X156830111Y-109682138D01*
X156928184Y-109679514D01*
X156959170Y-109734706D01*
X157566914Y-109734706D01*
X157511995Y-109688097D01*
X157547561Y-109661909D01*
X157613833Y-109659359D01*
X157739629Y-109622478D01*
X157762000Y-109583569D01*
X157754187Y-109572000D01*
X157338666Y-109572000D01*
X157270090Y-109647114D01*
X157211666Y-109656667D01*
X157098995Y-109610949D01*
X157084666Y-109572000D01*
X157153243Y-109496885D01*
X157211666Y-109487333D01*
X157324338Y-109533051D01*
X157338666Y-109572000D01*
X157754187Y-109572000D01*
X157705020Y-109499201D01*
X157549654Y-109322541D01*
X157319264Y-109078991D01*
X157037212Y-108793951D01*
X157021166Y-108778071D01*
X156280333Y-108045671D01*
X155814666Y-108068002D01*
G36*
X155478460Y-110567762D02*
G01*
X155476000Y-110588000D01*
X155540429Y-110670206D01*
X155560666Y-110672667D01*
X155642873Y-110608237D01*
X155645333Y-110588000D01*
X155580904Y-110505793D01*
X155560666Y-110503333D01*
X155478460Y-110567762D01*
G37*
X155478460Y-110567762D02*
X155476000Y-110588000D01*
X155540429Y-110670206D01*
X155560666Y-110672667D01*
X155642873Y-110608237D01*
X155645333Y-110588000D01*
X155580904Y-110505793D01*
X155560666Y-110503333D01*
X155478460Y-110567762D01*
G36*
X155027351Y-108991552D02*
G01*
X155070617Y-109227991D01*
X155071968Y-109233333D01*
X155141579Y-109443749D01*
X155212244Y-109562350D01*
X155232299Y-109572000D01*
X155303691Y-109628219D01*
X155287677Y-109751413D01*
X155198843Y-109873389D01*
X155162499Y-109898266D01*
X155066712Y-109985278D01*
X155118274Y-110099204D01*
X155127455Y-110110431D01*
X155198283Y-110248330D01*
X155193172Y-110312148D01*
X155224027Y-110369953D01*
X155303263Y-110382381D01*
X155413955Y-110336634D01*
X155414989Y-110273524D01*
X155443814Y-110180535D01*
X155509275Y-110164667D01*
X155601868Y-110147397D01*
X155633699Y-110077467D01*
X155608174Y-109962240D01*
X155465609Y-109962240D01*
X155444589Y-110079335D01*
X155419555Y-110108222D01*
X155295632Y-110162153D01*
X155224839Y-110074031D01*
X155222000Y-110037667D01*
X155289773Y-109925418D01*
X155349000Y-109910667D01*
X155465609Y-109962240D01*
X155608174Y-109962240D01*
X155600522Y-109927698D01*
X155498097Y-109670910D01*
X155396643Y-109443141D01*
X155242390Y-109133194D01*
X155122949Y-108950430D01*
X155048032Y-108901124D01*
X155027351Y-108991552D01*
G37*
X155027351Y-108991552D02*
X155070617Y-109227991D01*
X155071968Y-109233333D01*
X155141579Y-109443749D01*
X155212244Y-109562350D01*
X155232299Y-109572000D01*
X155303691Y-109628219D01*
X155287677Y-109751413D01*
X155198843Y-109873389D01*
X155162499Y-109898266D01*
X155066712Y-109985278D01*
X155118274Y-110099204D01*
X155127455Y-110110431D01*
X155198283Y-110248330D01*
X155193172Y-110312148D01*
X155224027Y-110369953D01*
X155303263Y-110382381D01*
X155413955Y-110336634D01*
X155414989Y-110273524D01*
X155443814Y-110180535D01*
X155509275Y-110164667D01*
X155601868Y-110147397D01*
X155633699Y-110077467D01*
X155608174Y-109962240D01*
X155465609Y-109962240D01*
X155444589Y-110079335D01*
X155419555Y-110108222D01*
X155295632Y-110162153D01*
X155224839Y-110074031D01*
X155222000Y-110037667D01*
X155289773Y-109925418D01*
X155349000Y-109910667D01*
X155465609Y-109962240D01*
X155608174Y-109962240D01*
X155600522Y-109927698D01*
X155498097Y-109670910D01*
X155396643Y-109443141D01*
X155242390Y-109133194D01*
X155122949Y-108950430D01*
X155048032Y-108901124D01*
X155027351Y-108991552D01*
G36*
X154878262Y-109374071D02*
G01*
X154869988Y-109382145D01*
X154817307Y-109500196D01*
X154877277Y-109607036D01*
X154940457Y-109751885D01*
X154927959Y-109822291D01*
X154897830Y-109904861D01*
X154956320Y-109881698D01*
X155052666Y-109783667D01*
X155109338Y-109678462D01*
X155063033Y-109656667D01*
X154988311Y-109585154D01*
X154968000Y-109470400D01*
X154948534Y-109347212D01*
X154878262Y-109374071D01*
G37*
X154878262Y-109374071D02*
X154869988Y-109382145D01*
X154817307Y-109500196D01*
X154877277Y-109607036D01*
X154940457Y-109751885D01*
X154927959Y-109822291D01*
X154897830Y-109904861D01*
X154956320Y-109881698D01*
X155052666Y-109783667D01*
X155109338Y-109678462D01*
X155063033Y-109656667D01*
X154988311Y-109585154D01*
X154968000Y-109470400D01*
X154948534Y-109347212D01*
X154878262Y-109374071D01*
G36*
X157865562Y-108051121D02*
G01*
X157528087Y-108061976D01*
X157314635Y-108082799D01*
X157202593Y-108115824D01*
X157169350Y-108163287D01*
X157169333Y-108164660D01*
X157229429Y-108270880D01*
X157389458Y-108451947D01*
X157619036Y-108674583D01*
X157706423Y-108752859D01*
X158243513Y-109224398D01*
X158608140Y-108852870D01*
X158962668Y-108533456D01*
X159252865Y-108365551D01*
X159484650Y-108346590D01*
X159612327Y-108417833D01*
X159814263Y-108543590D01*
X159968571Y-108534174D01*
X160044737Y-108394846D01*
X160048000Y-108342720D01*
X160024406Y-108190543D01*
X159920105Y-108164588D01*
X159845570Y-108180247D01*
X159670562Y-108186388D01*
X159586573Y-108139527D01*
X159475467Y-108098910D01*
X159206341Y-108069614D01*
X158790180Y-108052450D01*
X158349670Y-108048000D01*
X157865562Y-108051121D01*
G37*
X157865562Y-108051121D02*
X157528087Y-108061976D01*
X157314635Y-108082799D01*
X157202593Y-108115824D01*
X157169350Y-108163287D01*
X157169333Y-108164660D01*
X157229429Y-108270880D01*
X157389458Y-108451947D01*
X157619036Y-108674583D01*
X157706423Y-108752859D01*
X158243513Y-109224398D01*
X158608140Y-108852870D01*
X158962668Y-108533456D01*
X159252865Y-108365551D01*
X159484650Y-108346590D01*
X159612327Y-108417833D01*
X159814263Y-108543590D01*
X159968571Y-108534174D01*
X160044737Y-108394846D01*
X160048000Y-108342720D01*
X160024406Y-108190543D01*
X159920105Y-108164588D01*
X159845570Y-108180247D01*
X159670562Y-108186388D01*
X159586573Y-108139527D01*
X159475467Y-108098910D01*
X159206341Y-108069614D01*
X158790180Y-108052450D01*
X158349670Y-108048000D01*
X157865562Y-108051121D01*
G36*
X148650314Y-95152026D02*
G01*
X148438993Y-95342122D01*
X148161513Y-95605324D01*
X147949950Y-95812223D01*
X147009333Y-96742112D01*
X147009333Y-108306875D01*
X154875697Y-108259667D01*
X154907615Y-108556000D01*
X154926990Y-108704881D01*
X154939955Y-108704024D01*
X154950176Y-108545091D01*
X154953767Y-108451012D01*
X154968000Y-108049691D01*
X151052166Y-108027679D01*
X147136333Y-108005667D01*
X147114558Y-102438783D01*
X147092782Y-96871900D01*
X147326224Y-96598451D01*
X147576465Y-96320731D01*
X147889736Y-96003379D01*
X148296578Y-95615707D01*
X148399806Y-95519666D01*
X148603413Y-95313251D01*
X148759930Y-95123411D01*
X148803717Y-95054000D01*
X148777786Y-95050748D01*
X148650314Y-95152026D01*
G37*
X148650314Y-95152026D02*
X148438993Y-95342122D01*
X148161513Y-95605324D01*
X147949950Y-95812223D01*
X147009333Y-96742112D01*
X147009333Y-108306875D01*
X154875697Y-108259667D01*
X154907615Y-108556000D01*
X154926990Y-108704881D01*
X154939955Y-108704024D01*
X154950176Y-108545091D01*
X154953767Y-108451012D01*
X154968000Y-108049691D01*
X151052166Y-108027679D01*
X147136333Y-108005667D01*
X147114558Y-102438783D01*
X147092782Y-96871900D01*
X147326224Y-96598451D01*
X147576465Y-96320731D01*
X147889736Y-96003379D01*
X148296578Y-95615707D01*
X148399806Y-95519666D01*
X148603413Y-95313251D01*
X148759930Y-95123411D01*
X148803717Y-95054000D01*
X148777786Y-95050748D01*
X148650314Y-95152026D01*
G36*
X150385620Y-108482954D02*
G01*
X149573936Y-108486275D01*
X148887360Y-108492596D01*
X148589101Y-108497327D01*
X148452925Y-108501754D01*
X148471586Y-108505788D01*
X148637833Y-108509340D01*
X148944418Y-108512321D01*
X149384093Y-108514639D01*
X149949609Y-108516207D01*
X150633717Y-108516935D01*
X150861666Y-108516976D01*
X151578100Y-108516508D01*
X152176544Y-108515177D01*
X152649977Y-108513072D01*
X152991377Y-108510283D01*
X153193723Y-108506898D01*
X153249993Y-108503007D01*
X153153166Y-108498700D01*
X152896221Y-108494064D01*
X152782027Y-108492564D01*
X152056372Y-108486098D01*
X151235335Y-108482895D01*
X150385620Y-108482954D01*
G37*
X150385620Y-108482954D02*
X149573936Y-108486275D01*
X148887360Y-108492596D01*
X148589101Y-108497327D01*
X148452925Y-108501754D01*
X148471586Y-108505788D01*
X148637833Y-108509340D01*
X148944418Y-108512321D01*
X149384093Y-108514639D01*
X149949609Y-108516207D01*
X150633717Y-108516935D01*
X150861666Y-108516976D01*
X151578100Y-108516508D01*
X152176544Y-108515177D01*
X152649977Y-108513072D01*
X152991377Y-108510283D01*
X153193723Y-108506898D01*
X153249993Y-108503007D01*
X153153166Y-108498700D01*
X152896221Y-108494064D01*
X152782027Y-108492564D01*
X152056372Y-108486098D01*
X151235335Y-108482895D01*
X150385620Y-108482954D01*
G36*
X149210666Y-107794000D02*
G01*
X154697066Y-107794000D01*
X155865693Y-107793225D01*
X156874219Y-107790790D01*
X157731871Y-107786526D01*
X158447876Y-107780266D01*
X159031460Y-107771841D01*
X159491851Y-107761085D01*
X159838274Y-107747829D01*
X160079956Y-107731906D01*
X160226124Y-107713147D01*
X160285066Y-107692400D01*
X160339409Y-107547848D01*
X160373995Y-107253792D01*
X160386647Y-106829145D01*
X160386666Y-106809839D01*
X160384673Y-106442053D01*
X160379598Y-106350714D01*
X158943472Y-106350714D01*
X158906584Y-106426732D01*
X158820333Y-106469951D01*
X158739402Y-106560950D01*
X158699960Y-106772723D01*
X158693333Y-106987009D01*
X158681495Y-107242875D01*
X158650943Y-107412980D01*
X158620948Y-107455333D01*
X158531692Y-107397891D01*
X158362532Y-107246182D01*
X158147585Y-107031131D01*
X158113809Y-106995645D01*
X157878334Y-106762990D01*
X157859856Y-106747178D01*
X157243397Y-106747178D01*
X157199577Y-106833063D01*
X156997423Y-106862666D01*
X156996288Y-106862667D01*
X156808395Y-106832207D01*
X156752320Y-106756833D01*
X156749621Y-106539932D01*
X156657297Y-106447527D01*
X156587033Y-106439333D01*
X156386031Y-106505168D01*
X156272164Y-106670303D01*
X156250031Y-106886181D01*
X156324231Y-107104246D01*
X156499360Y-107275944D01*
X156507381Y-107280521D01*
X156680745Y-107359438D01*
X156799890Y-107337818D01*
X156895047Y-107262025D01*
X157062385Y-107136549D01*
X157147728Y-107148819D01*
X157169333Y-107278944D01*
X157098436Y-107437820D01*
X156916847Y-107524882D01*
X156671219Y-107530900D01*
X156408206Y-107446638D01*
X156385018Y-107434167D01*
X156321956Y-107391517D01*
X155779569Y-107391517D01*
X155772288Y-107455406D01*
X155653913Y-107514683D01*
X155587511Y-107503439D01*
X155402542Y-107464270D01*
X155265335Y-107455333D01*
X155121541Y-107423814D01*
X155121274Y-107421642D01*
X154544666Y-107421642D01*
X154470246Y-107444145D01*
X154287855Y-107455122D01*
X154255510Y-107455333D01*
X153987456Y-107402685D01*
X153747240Y-107222793D01*
X153726618Y-107201333D01*
X153562463Y-107042376D01*
X153443636Y-106953869D01*
X153423108Y-106947333D01*
X153378309Y-107020986D01*
X153359337Y-107198418D01*
X153359333Y-107201333D01*
X153343576Y-107370210D01*
X153262483Y-107440808D01*
X153065320Y-107455322D01*
X153053941Y-107455333D01*
X152848447Y-107436846D01*
X152785442Y-107374429D01*
X152793005Y-107339485D01*
X152761388Y-107215294D01*
X152629307Y-107032052D01*
X152435629Y-106826940D01*
X152219222Y-106637138D01*
X152018953Y-106499827D01*
X151873690Y-106452188D01*
X151866500Y-106453189D01*
X151772404Y-106502431D01*
X151717667Y-106631395D01*
X151688226Y-106879622D01*
X151682941Y-106969323D01*
X151658521Y-107230666D01*
X151621428Y-107407093D01*
X151589389Y-107455333D01*
X151502240Y-107397947D01*
X151334711Y-107246374D01*
X151120584Y-107031491D01*
X151086476Y-106995645D01*
X150851000Y-106762990D01*
X150637813Y-106580569D01*
X150490028Y-106484993D01*
X150481528Y-106481940D01*
X150331994Y-106400058D01*
X150338020Y-106320784D01*
X150487972Y-106273545D01*
X150565333Y-106270000D01*
X150766985Y-106307864D01*
X150819333Y-106397000D01*
X150894931Y-106497902D01*
X151070676Y-106524000D01*
X151245262Y-106502222D01*
X151281987Y-106425531D01*
X151273284Y-106397000D01*
X151273884Y-106334905D01*
X151352597Y-106296582D01*
X151537609Y-106276765D01*
X151857106Y-106270192D01*
X151953275Y-106270000D01*
X152306916Y-106279256D01*
X152557748Y-106304750D01*
X152676416Y-106343073D01*
X152682000Y-106354667D01*
X152612417Y-106427270D01*
X152539159Y-106439333D01*
X152472205Y-106464573D01*
X152517143Y-106556310D01*
X152639666Y-106693333D01*
X152837924Y-106880745D01*
X152954845Y-106929826D01*
X153009327Y-106838724D01*
X153020666Y-106655997D01*
X153045200Y-106412434D01*
X153120254Y-106328931D01*
X153248007Y-106405292D01*
X153416507Y-106620321D01*
X153589654Y-106837723D01*
X153759854Y-106992274D01*
X153898488Y-107067433D01*
X153976938Y-107046658D01*
X153975515Y-106943446D01*
X153890144Y-106771674D01*
X153740604Y-106574752D01*
X153731081Y-106564351D01*
X153596327Y-106409252D01*
X153530078Y-106313974D01*
X153528666Y-106307971D01*
X153604870Y-106286303D01*
X153799696Y-106272556D01*
X153952000Y-106270000D01*
X154193487Y-106285229D01*
X154346765Y-106324168D01*
X154375333Y-106354667D01*
X154306757Y-106429781D01*
X154248333Y-106439333D01*
X154144341Y-106480115D01*
X154141857Y-106612864D01*
X154243184Y-106853185D01*
X154334020Y-107019475D01*
X154454889Y-107237046D01*
X154531079Y-107386000D01*
X154544666Y-107421642D01*
X155121274Y-107421642D01*
X155107251Y-107307748D01*
X155110038Y-107296567D01*
X155098866Y-107139029D01*
X155027114Y-106917720D01*
X154921146Y-106689455D01*
X154807325Y-106511054D01*
X154712279Y-106439333D01*
X154631731Y-106374852D01*
X154629333Y-106354667D01*
X154705480Y-106306369D01*
X154900175Y-106275714D01*
X155052666Y-106270000D01*
X155312754Y-106288204D01*
X155455650Y-106334362D01*
X155464356Y-106395797D01*
X155321874Y-106459827D01*
X155311038Y-106462722D01*
X155217718Y-106496354D01*
X155193477Y-106559706D01*
X155240465Y-106696211D01*
X155332205Y-106890201D01*
X155469981Y-107121829D01*
X155612076Y-107280683D01*
X155675019Y-107316905D01*
X155779569Y-107391517D01*
X156321956Y-107391517D01*
X156112098Y-107249587D01*
X155888243Y-107040625D01*
X155752700Y-106847624D01*
X155730000Y-106760915D01*
X155797242Y-106618842D01*
X155963187Y-106465811D01*
X156005166Y-106438405D01*
X156234162Y-106339168D01*
X156496976Y-106281922D01*
X156744775Y-106269209D01*
X156928726Y-106303571D01*
X157000000Y-106386633D01*
X157059731Y-106535014D01*
X157127000Y-106608667D01*
X157243397Y-106747178D01*
X157859856Y-106747178D01*
X157665147Y-106580569D01*
X157517361Y-106484993D01*
X157508861Y-106481940D01*
X157359327Y-106400058D01*
X157365354Y-106320784D01*
X157515306Y-106273545D01*
X157592666Y-106270000D01*
X157794319Y-106307864D01*
X157846666Y-106397000D01*
X157920267Y-106499143D01*
X158058333Y-106524000D01*
X158228572Y-106479839D01*
X158270000Y-106397000D01*
X158325923Y-106308693D01*
X158511302Y-106272305D01*
X158608666Y-106270000D01*
X158838315Y-106292942D01*
X158943472Y-106350714D01*
X160379598Y-106350714D01*
X160371401Y-106203203D01*
X160335911Y-106052894D01*
X160267263Y-105950731D01*
X160154520Y-105856317D01*
X160121859Y-105831939D01*
X159932151Y-105678715D01*
X159671098Y-105452456D01*
X159581641Y-105371427D01*
X156866941Y-105371427D01*
X156862971Y-105423210D01*
X156859754Y-105423333D01*
X156742626Y-105366186D01*
X156619000Y-105254000D01*
X156526700Y-105131856D01*
X156524751Y-105084667D01*
X156623036Y-105136689D01*
X156765505Y-105254000D01*
X156866941Y-105371427D01*
X159581641Y-105371427D01*
X159389509Y-105197399D01*
X159338693Y-105150095D01*
X159185788Y-105012281D01*
X156161538Y-105012281D01*
X156159924Y-105283051D01*
X156153922Y-105381000D01*
X156118289Y-105649151D01*
X156067658Y-105757925D01*
X156014603Y-105715020D01*
X155971700Y-105528132D01*
X155952500Y-105257716D01*
X155954264Y-105211667D01*
X155560666Y-105211667D01*
X155514949Y-105324338D01*
X155476000Y-105338667D01*
X155432690Y-105299126D01*
X154840414Y-105299126D01*
X154768642Y-105408761D01*
X154687836Y-105423333D01*
X154618016Y-105347437D01*
X154594912Y-105200277D01*
X153994693Y-105200277D01*
X153897464Y-105358968D01*
X153751133Y-105422037D01*
X153702453Y-105399199D01*
X153720081Y-105385008D01*
X153343435Y-105385008D01*
X153323049Y-105383016D01*
X153216813Y-105308830D01*
X153155618Y-105230124D01*
X153155364Y-105229121D01*
X152655043Y-105229121D01*
X152653296Y-105543894D01*
X152614752Y-105706498D01*
X152535245Y-105730920D01*
X152509589Y-105717765D01*
X152470574Y-105610467D01*
X152483690Y-105420050D01*
X152498910Y-105237593D01*
X152434569Y-105172020D01*
X152401247Y-105169333D01*
X152250945Y-105219492D01*
X152213792Y-105258111D01*
X152118772Y-105296497D01*
X152040540Y-105248639D01*
X151871156Y-105178481D01*
X151752112Y-105249626D01*
X151724598Y-105434292D01*
X151728669Y-105458993D01*
X151729859Y-105626299D01*
X151675870Y-105677333D01*
X151617004Y-105598741D01*
X151585002Y-105385017D01*
X151581333Y-105254000D01*
X151598781Y-104970279D01*
X151654902Y-104846033D01*
X151755362Y-104874651D01*
X151835333Y-104957667D01*
X151996767Y-105066086D01*
X152089333Y-105084667D01*
X152266874Y-105023599D01*
X152343333Y-104957667D01*
X152488143Y-104838547D01*
X152588817Y-104882576D01*
X152644804Y-105089271D01*
X152655043Y-105229121D01*
X153155364Y-105229121D01*
X153115459Y-105071957D01*
X153170736Y-104985397D01*
X153246387Y-104942209D01*
X153273317Y-105038958D01*
X153274666Y-105103011D01*
X153296248Y-105281063D01*
X153338166Y-105359833D01*
X153343435Y-105385008D01*
X153720081Y-105385008D01*
X153752964Y-105358537D01*
X153841067Y-105233422D01*
X153886234Y-105084667D01*
X153919587Y-104947126D01*
X153960373Y-104964211D01*
X153988909Y-105022245D01*
X153994693Y-105200277D01*
X154594912Y-105200277D01*
X154587293Y-105151753D01*
X154587000Y-105127000D01*
X154618541Y-104912227D01*
X154691758Y-104836418D01*
X154774539Y-104908268D01*
X154823343Y-105063017D01*
X154840414Y-105299126D01*
X155432690Y-105299126D01*
X155400885Y-105270090D01*
X155391333Y-105211667D01*
X155437051Y-105098995D01*
X155476000Y-105084667D01*
X155551114Y-105153243D01*
X155560666Y-105211667D01*
X155954264Y-105211667D01*
X155963475Y-104971293D01*
X156016282Y-104840963D01*
X156047500Y-104830604D01*
X156125943Y-104871191D01*
X156161538Y-105012281D01*
X159185788Y-105012281D01*
X159041291Y-104882046D01*
X159009303Y-104854936D01*
X156817019Y-104854936D01*
X156796418Y-104902251D01*
X156711168Y-104993145D01*
X156662157Y-104974499D01*
X156661333Y-104962663D01*
X156721470Y-104891051D01*
X156759082Y-104864915D01*
X156817019Y-104854936D01*
X159009303Y-104854936D01*
X158736676Y-104623890D01*
X158485255Y-104426622D01*
X158460500Y-104408731D01*
X158100666Y-104152271D01*
X158100666Y-103531427D01*
X157507115Y-103531427D01*
X157487273Y-103691375D01*
X157451555Y-103758222D01*
X157390138Y-103813670D01*
X157388055Y-103814498D01*
X157377948Y-103740753D01*
X157377656Y-103737173D01*
X156799027Y-103737173D01*
X156796063Y-104030053D01*
X156760707Y-104186466D01*
X156685141Y-104237485D01*
X156673024Y-104238000D01*
X156639266Y-104161447D01*
X156618289Y-103963975D01*
X156614713Y-103782166D01*
X155955230Y-103782166D01*
X155941666Y-103814667D01*
X155829507Y-103896172D01*
X155804673Y-103899333D01*
X155758770Y-103847167D01*
X155772333Y-103814667D01*
X155884492Y-103733161D01*
X155909327Y-103730000D01*
X155955230Y-103782166D01*
X156614713Y-103782166D01*
X156614521Y-103772425D01*
X156627935Y-103603000D01*
X155222000Y-103603000D01*
X155195666Y-103750137D01*
X155137333Y-103772333D01*
X155058573Y-103649476D01*
X155052666Y-103603000D01*
X155086555Y-103513336D01*
X154629333Y-103513336D01*
X154608396Y-103711180D01*
X154556805Y-103811556D01*
X154544666Y-103814667D01*
X154484765Y-103741210D01*
X154465268Y-103603000D01*
X153867333Y-103603000D01*
X153846068Y-103798867D01*
X153793778Y-103896774D01*
X153782666Y-103899333D01*
X153726704Y-103824904D01*
X153704965Y-103682670D01*
X153274666Y-103682670D01*
X153230462Y-103798512D01*
X153190000Y-103814667D01*
X153107757Y-103753899D01*
X153105333Y-103734997D01*
X153166877Y-103620329D01*
X153190000Y-103603000D01*
X153262483Y-103622194D01*
X153274666Y-103682670D01*
X153704965Y-103682670D01*
X153698731Y-103641890D01*
X153698000Y-103603000D01*
X153703138Y-103555670D01*
X152512666Y-103555670D01*
X152488579Y-103736160D01*
X152430384Y-103814564D01*
X152428000Y-103814667D01*
X152363801Y-103742366D01*
X152343333Y-103607997D01*
X152343471Y-103607202D01*
X151904165Y-103607202D01*
X151891566Y-103681975D01*
X151819522Y-103804187D01*
X151768733Y-103765187D01*
X151762053Y-103698955D01*
X151158000Y-103698955D01*
X151147617Y-103954906D01*
X151121129Y-104135403D01*
X151101555Y-104181555D01*
X151002508Y-104236318D01*
X150956616Y-104143138D01*
X150961267Y-103895299D01*
X150967050Y-103835833D01*
X151012481Y-103542116D01*
X151065762Y-103382994D01*
X151115285Y-103366791D01*
X151149441Y-103501828D01*
X151158000Y-103698955D01*
X151762053Y-103698955D01*
X151750666Y-103586067D01*
X151767686Y-103436035D01*
X151827010Y-103435521D01*
X151846575Y-103453375D01*
X151904165Y-103607202D01*
X152343471Y-103607202D01*
X152374551Y-103428724D01*
X152428000Y-103349000D01*
X152487963Y-103382084D01*
X152512626Y-103546809D01*
X152512666Y-103555670D01*
X153703138Y-103555670D01*
X153719265Y-103407132D01*
X153771555Y-103309226D01*
X153782666Y-103306667D01*
X153838629Y-103381095D01*
X153866602Y-103564110D01*
X153867333Y-103603000D01*
X154465268Y-103603000D01*
X154460000Y-103565663D01*
X154486099Y-103370135D01*
X154544666Y-103264333D01*
X154602279Y-103300103D01*
X154628708Y-103472590D01*
X154629333Y-103513336D01*
X155086555Y-103513336D01*
X155106344Y-103460981D01*
X155137333Y-103433667D01*
X155199751Y-103464034D01*
X155222000Y-103603000D01*
X156627935Y-103603000D01*
X156637184Y-103486200D01*
X156685753Y-103351181D01*
X156741504Y-103370945D01*
X156785717Y-103549068D01*
X156799027Y-103737173D01*
X157377656Y-103737173D01*
X157363441Y-103563342D01*
X157363242Y-103560498D01*
X157374201Y-103382719D01*
X157396870Y-103349000D01*
X155899333Y-103349000D01*
X155857000Y-103391333D01*
X155814666Y-103349000D01*
X155857000Y-103306667D01*
X155899333Y-103349000D01*
X157396870Y-103349000D01*
X157425306Y-103306706D01*
X157426742Y-103306667D01*
X157485461Y-103376301D01*
X157507115Y-103531427D01*
X158100666Y-103531427D01*
X158100666Y-102290667D01*
X149210666Y-102290667D01*
X149210666Y-107794000D01*
G37*
X149210666Y-107794000D02*
X154697066Y-107794000D01*
X155865693Y-107793225D01*
X156874219Y-107790790D01*
X157731871Y-107786526D01*
X158447876Y-107780266D01*
X159031460Y-107771841D01*
X159491851Y-107761085D01*
X159838274Y-107747829D01*
X160079956Y-107731906D01*
X160226124Y-107713147D01*
X160285066Y-107692400D01*
X160339409Y-107547848D01*
X160373995Y-107253792D01*
X160386647Y-106829145D01*
X160386666Y-106809839D01*
X160384673Y-106442053D01*
X160379598Y-106350714D01*
X158943472Y-106350714D01*
X158906584Y-106426732D01*
X158820333Y-106469951D01*
X158739402Y-106560950D01*
X158699960Y-106772723D01*
X158693333Y-106987009D01*
X158681495Y-107242875D01*
X158650943Y-107412980D01*
X158620948Y-107455333D01*
X158531692Y-107397891D01*
X158362532Y-107246182D01*
X158147585Y-107031131D01*
X158113809Y-106995645D01*
X157878334Y-106762990D01*
X157859856Y-106747178D01*
X157243397Y-106747178D01*
X157199577Y-106833063D01*
X156997423Y-106862666D01*
X156996288Y-106862667D01*
X156808395Y-106832207D01*
X156752320Y-106756833D01*
X156749621Y-106539932D01*
X156657297Y-106447527D01*
X156587033Y-106439333D01*
X156386031Y-106505168D01*
X156272164Y-106670303D01*
X156250031Y-106886181D01*
X156324231Y-107104246D01*
X156499360Y-107275944D01*
X156507381Y-107280521D01*
X156680745Y-107359438D01*
X156799890Y-107337818D01*
X156895047Y-107262025D01*
X157062385Y-107136549D01*
X157147728Y-107148819D01*
X157169333Y-107278944D01*
X157098436Y-107437820D01*
X156916847Y-107524882D01*
X156671219Y-107530900D01*
X156408206Y-107446638D01*
X156385018Y-107434167D01*
X156321956Y-107391517D01*
X155779569Y-107391517D01*
X155772288Y-107455406D01*
X155653913Y-107514683D01*
X155587511Y-107503439D01*
X155402542Y-107464270D01*
X155265335Y-107455333D01*
X155121541Y-107423814D01*
X155121274Y-107421642D01*
X154544666Y-107421642D01*
X154470246Y-107444145D01*
X154287855Y-107455122D01*
X154255510Y-107455333D01*
X153987456Y-107402685D01*
X153747240Y-107222793D01*
X153726618Y-107201333D01*
X153562463Y-107042376D01*
X153443636Y-106953869D01*
X153423108Y-106947333D01*
X153378309Y-107020986D01*
X153359337Y-107198418D01*
X153359333Y-107201333D01*
X153343576Y-107370210D01*
X153262483Y-107440808D01*
X153065320Y-107455322D01*
X153053941Y-107455333D01*
X152848447Y-107436846D01*
X152785442Y-107374429D01*
X152793005Y-107339485D01*
X152761388Y-107215294D01*
X152629307Y-107032052D01*
X152435629Y-106826940D01*
X152219222Y-106637138D01*
X152018953Y-106499827D01*
X151873690Y-106452188D01*
X151866500Y-106453189D01*
X151772404Y-106502431D01*
X151717667Y-106631395D01*
X151688226Y-106879622D01*
X151682941Y-106969323D01*
X151658521Y-107230666D01*
X151621428Y-107407093D01*
X151589389Y-107455333D01*
X151502240Y-107397947D01*
X151334711Y-107246374D01*
X151120584Y-107031491D01*
X151086476Y-106995645D01*
X150851000Y-106762990D01*
X150637813Y-106580569D01*
X150490028Y-106484993D01*
X150481528Y-106481940D01*
X150331994Y-106400058D01*
X150338020Y-106320784D01*
X150487972Y-106273545D01*
X150565333Y-106270000D01*
X150766985Y-106307864D01*
X150819333Y-106397000D01*
X150894931Y-106497902D01*
X151070676Y-106524000D01*
X151245262Y-106502222D01*
X151281987Y-106425531D01*
X151273284Y-106397000D01*
X151273884Y-106334905D01*
X151352597Y-106296582D01*
X151537609Y-106276765D01*
X151857106Y-106270192D01*
X151953275Y-106270000D01*
X152306916Y-106279256D01*
X152557748Y-106304750D01*
X152676416Y-106343073D01*
X152682000Y-106354667D01*
X152612417Y-106427270D01*
X152539159Y-106439333D01*
X152472205Y-106464573D01*
X152517143Y-106556310D01*
X152639666Y-106693333D01*
X152837924Y-106880745D01*
X152954845Y-106929826D01*
X153009327Y-106838724D01*
X153020666Y-106655997D01*
X153045200Y-106412434D01*
X153120254Y-106328931D01*
X153248007Y-106405292D01*
X153416507Y-106620321D01*
X153589654Y-106837723D01*
X153759854Y-106992274D01*
X153898488Y-107067433D01*
X153976938Y-107046658D01*
X153975515Y-106943446D01*
X153890144Y-106771674D01*
X153740604Y-106574752D01*
X153731081Y-106564351D01*
X153596327Y-106409252D01*
X153530078Y-106313974D01*
X153528666Y-106307971D01*
X153604870Y-106286303D01*
X153799696Y-106272556D01*
X153952000Y-106270000D01*
X154193487Y-106285229D01*
X154346765Y-106324168D01*
X154375333Y-106354667D01*
X154306757Y-106429781D01*
X154248333Y-106439333D01*
X154144341Y-106480115D01*
X154141857Y-106612864D01*
X154243184Y-106853185D01*
X154334020Y-107019475D01*
X154454889Y-107237046D01*
X154531079Y-107386000D01*
X154544666Y-107421642D01*
X155121274Y-107421642D01*
X155107251Y-107307748D01*
X155110038Y-107296567D01*
X155098866Y-107139029D01*
X155027114Y-106917720D01*
X154921146Y-106689455D01*
X154807325Y-106511054D01*
X154712279Y-106439333D01*
X154631731Y-106374852D01*
X154629333Y-106354667D01*
X154705480Y-106306369D01*
X154900175Y-106275714D01*
X155052666Y-106270000D01*
X155312754Y-106288204D01*
X155455650Y-106334362D01*
X155464356Y-106395797D01*
X155321874Y-106459827D01*
X155311038Y-106462722D01*
X155217718Y-106496354D01*
X155193477Y-106559706D01*
X155240465Y-106696211D01*
X155332205Y-106890201D01*
X155469981Y-107121829D01*
X155612076Y-107280683D01*
X155675019Y-107316905D01*
X155779569Y-107391517D01*
X156321956Y-107391517D01*
X156112098Y-107249587D01*
X155888243Y-107040625D01*
X155752700Y-106847624D01*
X155730000Y-106760915D01*
X155797242Y-106618842D01*
X155963187Y-106465811D01*
X156005166Y-106438405D01*
X156234162Y-106339168D01*
X156496976Y-106281922D01*
X156744775Y-106269209D01*
X156928726Y-106303571D01*
X157000000Y-106386633D01*
X157059731Y-106535014D01*
X157127000Y-106608667D01*
X157243397Y-106747178D01*
X157859856Y-106747178D01*
X157665147Y-106580569D01*
X157517361Y-106484993D01*
X157508861Y-106481940D01*
X157359327Y-106400058D01*
X157365354Y-106320784D01*
X157515306Y-106273545D01*
X157592666Y-106270000D01*
X157794319Y-106307864D01*
X157846666Y-106397000D01*
X157920267Y-106499143D01*
X158058333Y-106524000D01*
X158228572Y-106479839D01*
X158270000Y-106397000D01*
X158325923Y-106308693D01*
X158511302Y-106272305D01*
X158608666Y-106270000D01*
X158838315Y-106292942D01*
X158943472Y-106350714D01*
X160379598Y-106350714D01*
X160371401Y-106203203D01*
X160335911Y-106052894D01*
X160267263Y-105950731D01*
X160154520Y-105856317D01*
X160121859Y-105831939D01*
X159932151Y-105678715D01*
X159671098Y-105452456D01*
X159581641Y-105371427D01*
X156866941Y-105371427D01*
X156862971Y-105423210D01*
X156859754Y-105423333D01*
X156742626Y-105366186D01*
X156619000Y-105254000D01*
X156526700Y-105131856D01*
X156524751Y-105084667D01*
X156623036Y-105136689D01*
X156765505Y-105254000D01*
X156866941Y-105371427D01*
X159581641Y-105371427D01*
X159389509Y-105197399D01*
X159338693Y-105150095D01*
X159185788Y-105012281D01*
X156161538Y-105012281D01*
X156159924Y-105283051D01*
X156153922Y-105381000D01*
X156118289Y-105649151D01*
X156067658Y-105757925D01*
X156014603Y-105715020D01*
X155971700Y-105528132D01*
X155952500Y-105257716D01*
X155954264Y-105211667D01*
X155560666Y-105211667D01*
X155514949Y-105324338D01*
X155476000Y-105338667D01*
X155432690Y-105299126D01*
X154840414Y-105299126D01*
X154768642Y-105408761D01*
X154687836Y-105423333D01*
X154618016Y-105347437D01*
X154594912Y-105200277D01*
X153994693Y-105200277D01*
X153897464Y-105358968D01*
X153751133Y-105422037D01*
X153702453Y-105399199D01*
X153720081Y-105385008D01*
X153343435Y-105385008D01*
X153323049Y-105383016D01*
X153216813Y-105308830D01*
X153155618Y-105230124D01*
X153155364Y-105229121D01*
X152655043Y-105229121D01*
X152653296Y-105543894D01*
X152614752Y-105706498D01*
X152535245Y-105730920D01*
X152509589Y-105717765D01*
X152470574Y-105610467D01*
X152483690Y-105420050D01*
X152498910Y-105237593D01*
X152434569Y-105172020D01*
X152401247Y-105169333D01*
X152250945Y-105219492D01*
X152213792Y-105258111D01*
X152118772Y-105296497D01*
X152040540Y-105248639D01*
X151871156Y-105178481D01*
X151752112Y-105249626D01*
X151724598Y-105434292D01*
X151728669Y-105458993D01*
X151729859Y-105626299D01*
X151675870Y-105677333D01*
X151617004Y-105598741D01*
X151585002Y-105385017D01*
X151581333Y-105254000D01*
X151598781Y-104970279D01*
X151654902Y-104846033D01*
X151755362Y-104874651D01*
X151835333Y-104957667D01*
X151996767Y-105066086D01*
X152089333Y-105084667D01*
X152266874Y-105023599D01*
X152343333Y-104957667D01*
X152488143Y-104838547D01*
X152588817Y-104882576D01*
X152644804Y-105089271D01*
X152655043Y-105229121D01*
X153155364Y-105229121D01*
X153115459Y-105071957D01*
X153170736Y-104985397D01*
X153246387Y-104942209D01*
X153273317Y-105038958D01*
X153274666Y-105103011D01*
X153296248Y-105281063D01*
X153338166Y-105359833D01*
X153343435Y-105385008D01*
X153720081Y-105385008D01*
X153752964Y-105358537D01*
X153841067Y-105233422D01*
X153886234Y-105084667D01*
X153919587Y-104947126D01*
X153960373Y-104964211D01*
X153988909Y-105022245D01*
X153994693Y-105200277D01*
X154594912Y-105200277D01*
X154587293Y-105151753D01*
X154587000Y-105127000D01*
X154618541Y-104912227D01*
X154691758Y-104836418D01*
X154774539Y-104908268D01*
X154823343Y-105063017D01*
X154840414Y-105299126D01*
X155432690Y-105299126D01*
X155400885Y-105270090D01*
X155391333Y-105211667D01*
X155437051Y-105098995D01*
X155476000Y-105084667D01*
X155551114Y-105153243D01*
X155560666Y-105211667D01*
X155954264Y-105211667D01*
X155963475Y-104971293D01*
X156016282Y-104840963D01*
X156047500Y-104830604D01*
X156125943Y-104871191D01*
X156161538Y-105012281D01*
X159185788Y-105012281D01*
X159041291Y-104882046D01*
X159009303Y-104854936D01*
X156817019Y-104854936D01*
X156796418Y-104902251D01*
X156711168Y-104993145D01*
X156662157Y-104974499D01*
X156661333Y-104962663D01*
X156721470Y-104891051D01*
X156759082Y-104864915D01*
X156817019Y-104854936D01*
X159009303Y-104854936D01*
X158736676Y-104623890D01*
X158485255Y-104426622D01*
X158460500Y-104408731D01*
X158100666Y-104152271D01*
X158100666Y-103531427D01*
X157507115Y-103531427D01*
X157487273Y-103691375D01*
X157451555Y-103758222D01*
X157390138Y-103813670D01*
X157388055Y-103814498D01*
X157377948Y-103740753D01*
X157377656Y-103737173D01*
X156799027Y-103737173D01*
X156796063Y-104030053D01*
X156760707Y-104186466D01*
X156685141Y-104237485D01*
X156673024Y-104238000D01*
X156639266Y-104161447D01*
X156618289Y-103963975D01*
X156614713Y-103782166D01*
X155955230Y-103782166D01*
X155941666Y-103814667D01*
X155829507Y-103896172D01*
X155804673Y-103899333D01*
X155758770Y-103847167D01*
X155772333Y-103814667D01*
X155884492Y-103733161D01*
X155909327Y-103730000D01*
X155955230Y-103782166D01*
X156614713Y-103782166D01*
X156614521Y-103772425D01*
X156627935Y-103603000D01*
X155222000Y-103603000D01*
X155195666Y-103750137D01*
X155137333Y-103772333D01*
X155058573Y-103649476D01*
X155052666Y-103603000D01*
X155086555Y-103513336D01*
X154629333Y-103513336D01*
X154608396Y-103711180D01*
X154556805Y-103811556D01*
X154544666Y-103814667D01*
X154484765Y-103741210D01*
X154465268Y-103603000D01*
X153867333Y-103603000D01*
X153846068Y-103798867D01*
X153793778Y-103896774D01*
X153782666Y-103899333D01*
X153726704Y-103824904D01*
X153704965Y-103682670D01*
X153274666Y-103682670D01*
X153230462Y-103798512D01*
X153190000Y-103814667D01*
X153107757Y-103753899D01*
X153105333Y-103734997D01*
X153166877Y-103620329D01*
X153190000Y-103603000D01*
X153262483Y-103622194D01*
X153274666Y-103682670D01*
X153704965Y-103682670D01*
X153698731Y-103641890D01*
X153698000Y-103603000D01*
X153703138Y-103555670D01*
X152512666Y-103555670D01*
X152488579Y-103736160D01*
X152430384Y-103814564D01*
X152428000Y-103814667D01*
X152363801Y-103742366D01*
X152343333Y-103607997D01*
X152343471Y-103607202D01*
X151904165Y-103607202D01*
X151891566Y-103681975D01*
X151819522Y-103804187D01*
X151768733Y-103765187D01*
X151762053Y-103698955D01*
X151158000Y-103698955D01*
X151147617Y-103954906D01*
X151121129Y-104135403D01*
X151101555Y-104181555D01*
X151002508Y-104236318D01*
X150956616Y-104143138D01*
X150961267Y-103895299D01*
X150967050Y-103835833D01*
X151012481Y-103542116D01*
X151065762Y-103382994D01*
X151115285Y-103366791D01*
X151149441Y-103501828D01*
X151158000Y-103698955D01*
X151762053Y-103698955D01*
X151750666Y-103586067D01*
X151767686Y-103436035D01*
X151827010Y-103435521D01*
X151846575Y-103453375D01*
X151904165Y-103607202D01*
X152343471Y-103607202D01*
X152374551Y-103428724D01*
X152428000Y-103349000D01*
X152487963Y-103382084D01*
X152512626Y-103546809D01*
X152512666Y-103555670D01*
X153703138Y-103555670D01*
X153719265Y-103407132D01*
X153771555Y-103309226D01*
X153782666Y-103306667D01*
X153838629Y-103381095D01*
X153866602Y-103564110D01*
X153867333Y-103603000D01*
X154465268Y-103603000D01*
X154460000Y-103565663D01*
X154486099Y-103370135D01*
X154544666Y-103264333D01*
X154602279Y-103300103D01*
X154628708Y-103472590D01*
X154629333Y-103513336D01*
X155086555Y-103513336D01*
X155106344Y-103460981D01*
X155137333Y-103433667D01*
X155199751Y-103464034D01*
X155222000Y-103603000D01*
X156627935Y-103603000D01*
X156637184Y-103486200D01*
X156685753Y-103351181D01*
X156741504Y-103370945D01*
X156785717Y-103549068D01*
X156799027Y-103737173D01*
X157377656Y-103737173D01*
X157363441Y-103563342D01*
X157363242Y-103560498D01*
X157374201Y-103382719D01*
X157396870Y-103349000D01*
X155899333Y-103349000D01*
X155857000Y-103391333D01*
X155814666Y-103349000D01*
X155857000Y-103306667D01*
X155899333Y-103349000D01*
X157396870Y-103349000D01*
X157425306Y-103306706D01*
X157426742Y-103306667D01*
X157485461Y-103376301D01*
X157507115Y-103531427D01*
X158100666Y-103531427D01*
X158100666Y-102290667D01*
X149210666Y-102290667D01*
X149210666Y-107794000D01*
G36*
X149120572Y-95398509D02*
G01*
X148401109Y-96121214D01*
X147681645Y-96843918D01*
X147644333Y-107709334D01*
X148660333Y-107709484D01*
X148638481Y-105571575D01*
X148631310Y-104935387D01*
X148623034Y-104309147D01*
X148614203Y-103727484D01*
X148605363Y-103225025D01*
X148597064Y-102836397D01*
X148592553Y-102671667D01*
X148586492Y-102571884D01*
X148580004Y-102628299D01*
X148573355Y-102827778D01*
X148566813Y-103157186D01*
X148560642Y-103603391D01*
X148555111Y-104153257D01*
X148550905Y-104724833D01*
X148533333Y-107540000D01*
X147771333Y-107540000D01*
X147771333Y-96910595D01*
X148471602Y-96213964D01*
X149171870Y-95517333D01*
X150650000Y-95517333D01*
X150664233Y-97062500D01*
X150671075Y-97616198D01*
X150679651Y-98001755D01*
X150689666Y-98220350D01*
X150700827Y-98273162D01*
X150712841Y-98161372D01*
X150725414Y-97886159D01*
X150738252Y-97448702D01*
X150751063Y-96850182D01*
X150753748Y-96702667D01*
X150777000Y-95390333D01*
X149120572Y-95398509D01*
G37*
X149120572Y-95398509D02*
X148401109Y-96121214D01*
X147681645Y-96843918D01*
X147644333Y-107709334D01*
X148660333Y-107709484D01*
X148638481Y-105571575D01*
X148631310Y-104935387D01*
X148623034Y-104309147D01*
X148614203Y-103727484D01*
X148605363Y-103225025D01*
X148597064Y-102836397D01*
X148592553Y-102671667D01*
X148586492Y-102571884D01*
X148580004Y-102628299D01*
X148573355Y-102827778D01*
X148566813Y-103157186D01*
X148560642Y-103603391D01*
X148555111Y-104153257D01*
X148550905Y-104724833D01*
X148533333Y-107540000D01*
X147771333Y-107540000D01*
X147771333Y-96910595D01*
X148471602Y-96213964D01*
X149171870Y-95517333D01*
X150650000Y-95517333D01*
X150664233Y-97062500D01*
X150671075Y-97616198D01*
X150679651Y-98001755D01*
X150689666Y-98220350D01*
X150700827Y-98273162D01*
X150712841Y-98161372D01*
X150725414Y-97886159D01*
X150738252Y-97448702D01*
X150751063Y-96850182D01*
X150753748Y-96702667D01*
X150777000Y-95390333D01*
X149120572Y-95398509D01*
G36*
X166054745Y-104102524D02*
G01*
X166075923Y-104210290D01*
X166230452Y-104401257D01*
X166348593Y-104520799D01*
X166553618Y-104736439D01*
X166707003Y-104926383D01*
X166762791Y-105021167D01*
X166858328Y-105145701D01*
X166924509Y-105168037D01*
X166985588Y-105148733D01*
X166918898Y-105094430D01*
X166826358Y-104960713D01*
X166791898Y-104807518D01*
X166762580Y-104661234D01*
X166718588Y-104630213D01*
X166619084Y-104607497D01*
X166489174Y-104496467D01*
X166382615Y-104355745D01*
X166353165Y-104243951D01*
X166356976Y-104235881D01*
X166339054Y-104192660D01*
X166261508Y-104211024D01*
X166162385Y-104225280D01*
X166177441Y-104167721D01*
X166190572Y-104079395D01*
X166163108Y-104068667D01*
X166054745Y-104102524D01*
G37*
X166054745Y-104102524D02*
X166075923Y-104210290D01*
X166230452Y-104401257D01*
X166348593Y-104520799D01*
X166553618Y-104736439D01*
X166707003Y-104926383D01*
X166762791Y-105021167D01*
X166858328Y-105145701D01*
X166924509Y-105168037D01*
X166985588Y-105148733D01*
X166918898Y-105094430D01*
X166826358Y-104960713D01*
X166791898Y-104807518D01*
X166762580Y-104661234D01*
X166718588Y-104630213D01*
X166619084Y-104607497D01*
X166489174Y-104496467D01*
X166382615Y-104355745D01*
X166353165Y-104243951D01*
X166356976Y-104235881D01*
X166339054Y-104192660D01*
X166261508Y-104211024D01*
X166162385Y-104225280D01*
X166177441Y-104167721D01*
X166190572Y-104079395D01*
X166163108Y-104068667D01*
X166054745Y-104102524D01*
G36*
X165502540Y-104195128D02*
G01*
X165518001Y-104273258D01*
X165614060Y-104389942D01*
X165670209Y-104407333D01*
X165781075Y-104463935D01*
X165960019Y-104609715D01*
X166101666Y-104746000D01*
X166330616Y-104964023D01*
X166470530Y-105066617D01*
X166510786Y-105055857D01*
X166440763Y-104933818D01*
X166260836Y-104714916D01*
X166060285Y-104503833D01*
X165887216Y-104346831D01*
X165805333Y-104291528D01*
X165623907Y-104212081D01*
X165572442Y-104188537D01*
X165502540Y-104195128D01*
G37*
X165502540Y-104195128D02*
X165518001Y-104273258D01*
X165614060Y-104389942D01*
X165670209Y-104407333D01*
X165781075Y-104463935D01*
X165960019Y-104609715D01*
X166101666Y-104746000D01*
X166330616Y-104964023D01*
X166470530Y-105066617D01*
X166510786Y-105055857D01*
X166440763Y-104933818D01*
X166260836Y-104714916D01*
X166060285Y-104503833D01*
X165887216Y-104346831D01*
X165805333Y-104291528D01*
X165623907Y-104212081D01*
X165572442Y-104188537D01*
X165502540Y-104195128D01*
G36*
X160354449Y-95408462D02*
G01*
X160039668Y-95419847D01*
X159844938Y-95436062D01*
X159794053Y-95451736D01*
X159874013Y-95473670D01*
X160095185Y-95495058D01*
X160429453Y-95514169D01*
X160848699Y-95529272D01*
X161169833Y-95536403D01*
X162545666Y-95559667D01*
X162545666Y-99856525D01*
X162547326Y-100940888D01*
X162552269Y-101872547D01*
X162560444Y-102648850D01*
X162571798Y-103267148D01*
X162586279Y-103724790D01*
X162603836Y-104019124D01*
X162624414Y-104147499D01*
X162630333Y-104153367D01*
X162651325Y-104069050D01*
X162668501Y-103817437D01*
X162681833Y-103400523D01*
X162691289Y-102820305D01*
X162696842Y-102078775D01*
X162698461Y-101177931D01*
X162696118Y-100119767D01*
X162694701Y-99785346D01*
X162674401Y-95417340D01*
X161234254Y-95403836D01*
X160761804Y-95402821D01*
X160354449Y-95408462D01*
G37*
X160354449Y-95408462D02*
X160039668Y-95419847D01*
X159844938Y-95436062D01*
X159794053Y-95451736D01*
X159874013Y-95473670D01*
X160095185Y-95495058D01*
X160429453Y-95514169D01*
X160848699Y-95529272D01*
X161169833Y-95536403D01*
X162545666Y-95559667D01*
X162545666Y-99856525D01*
X162547326Y-100940888D01*
X162552269Y-101872547D01*
X162560444Y-102648850D01*
X162571798Y-103267148D01*
X162586279Y-103724790D01*
X162603836Y-104019124D01*
X162624414Y-104147499D01*
X162630333Y-104153367D01*
X162651325Y-104069050D01*
X162668501Y-103817437D01*
X162681833Y-103400523D01*
X162691289Y-102820305D01*
X162696842Y-102078775D01*
X162698461Y-101177931D01*
X162696118Y-100119767D01*
X162694701Y-99785346D01*
X162674401Y-95417340D01*
X161234254Y-95403836D01*
X160761804Y-95402821D01*
X160354449Y-95408462D01*
G36*
X165833555Y-104012222D02*
G01*
X165845178Y-104062556D01*
X165890000Y-104068667D01*
X165959690Y-104037688D01*
X165946444Y-104012222D01*
X165845965Y-104002089D01*
X165833555Y-104012222D01*
G37*
X165833555Y-104012222D02*
X165845178Y-104062556D01*
X165890000Y-104068667D01*
X165959690Y-104037688D01*
X165946444Y-104012222D01*
X165845965Y-104002089D01*
X165833555Y-104012222D01*
G36*
X165636000Y-103941667D02*
G01*
X165678333Y-103984000D01*
X165720666Y-103941667D01*
X165678333Y-103899333D01*
X165636000Y-103941667D01*
G37*
X165636000Y-103941667D02*
X165678333Y-103984000D01*
X165720666Y-103941667D01*
X165678333Y-103899333D01*
X165636000Y-103941667D01*
G36*
X165466666Y-103941667D02*
G01*
X165509000Y-103984000D01*
X165551333Y-103941667D01*
X165509000Y-103899333D01*
X165466666Y-103941667D01*
G37*
X165466666Y-103941667D02*
X165509000Y-103984000D01*
X165551333Y-103941667D01*
X165509000Y-103899333D01*
X165466666Y-103941667D01*
G36*
X165130423Y-103706101D02*
G01*
X165128000Y-103725003D01*
X165189544Y-103839670D01*
X165212666Y-103857000D01*
X165285150Y-103837806D01*
X165297333Y-103777330D01*
X165253129Y-103661488D01*
X165212666Y-103645333D01*
X165130423Y-103706101D01*
G37*
X165130423Y-103706101D02*
X165128000Y-103725003D01*
X165189544Y-103839670D01*
X165212666Y-103857000D01*
X165285150Y-103837806D01*
X165297333Y-103777330D01*
X165253129Y-103661488D01*
X165212666Y-103645333D01*
X165130423Y-103706101D01*
G36*
X162114368Y-103771046D02*
G01*
X162122333Y-103814667D01*
X162230576Y-103896104D01*
X162254330Y-103899333D01*
X162331719Y-103834754D01*
X162334000Y-103814667D01*
X162265084Y-103740362D01*
X162202003Y-103730000D01*
X162114368Y-103771046D01*
G37*
X162114368Y-103771046D02*
X162122333Y-103814667D01*
X162230576Y-103896104D01*
X162254330Y-103899333D01*
X162331719Y-103834754D01*
X162334000Y-103814667D01*
X162265084Y-103740362D01*
X162202003Y-103730000D01*
X162114368Y-103771046D01*
G36*
X161852563Y-103530690D02*
G01*
X161868333Y-103560667D01*
X161948107Y-103641523D01*
X161962993Y-103645333D01*
X161968770Y-103590643D01*
X161953000Y-103560667D01*
X161873226Y-103479810D01*
X161858340Y-103476000D01*
X161852563Y-103530690D01*
G37*
X161852563Y-103530690D02*
X161868333Y-103560667D01*
X161948107Y-103641523D01*
X161962993Y-103645333D01*
X161968770Y-103590643D01*
X161953000Y-103560667D01*
X161873226Y-103479810D01*
X161858340Y-103476000D01*
X161852563Y-103530690D01*
G36*
X165384593Y-103264333D02*
G01*
X165426749Y-103403472D01*
X165466666Y-103476000D01*
X165533754Y-103543769D01*
X165548740Y-103518333D01*
X165506584Y-103379194D01*
X165466666Y-103306667D01*
X165399579Y-103238897D01*
X165384593Y-103264333D01*
G37*
X165384593Y-103264333D02*
X165426749Y-103403472D01*
X165466666Y-103476000D01*
X165533754Y-103543769D01*
X165548740Y-103518333D01*
X165506584Y-103379194D01*
X165466666Y-103306667D01*
X165399579Y-103238897D01*
X165384593Y-103264333D01*
G36*
X164958666Y-103104969D02*
G01*
X165005495Y-103232968D01*
X165082974Y-103353984D01*
X165175021Y-103447767D01*
X165207281Y-103433667D01*
X165160453Y-103305667D01*
X165082974Y-103184651D01*
X164990927Y-103090868D01*
X164958666Y-103104969D01*
G37*
X164958666Y-103104969D02*
X165005495Y-103232968D01*
X165082974Y-103353984D01*
X165175021Y-103447767D01*
X165207281Y-103433667D01*
X165160453Y-103305667D01*
X165082974Y-103184651D01*
X164990927Y-103090868D01*
X164958666Y-103104969D01*
G36*
X161592218Y-102125880D02*
G01*
X161573356Y-102392474D01*
X161561109Y-102650697D01*
X161553503Y-103058548D01*
X161572589Y-103303817D01*
X161618758Y-103391204D01*
X161622784Y-103391531D01*
X161672336Y-103313112D01*
X161690036Y-103075541D01*
X161679722Y-102735167D01*
X161654420Y-102330344D01*
X161631941Y-102094239D01*
X161611477Y-102026277D01*
X161592218Y-102125880D01*
G37*
X161592218Y-102125880D02*
X161573356Y-102392474D01*
X161561109Y-102650697D01*
X161553503Y-103058548D01*
X161572589Y-103303817D01*
X161618758Y-103391204D01*
X161622784Y-103391531D01*
X161672336Y-103313112D01*
X161690036Y-103075541D01*
X161679722Y-102735167D01*
X161654420Y-102330344D01*
X161631941Y-102094239D01*
X161611477Y-102026277D01*
X161592218Y-102125880D01*
G36*
X165344064Y-103020361D02*
G01*
X165224890Y-103088684D01*
X165244854Y-103132863D01*
X165292336Y-103137333D01*
X165407146Y-103075841D01*
X165423734Y-103053636D01*
X165410106Y-103005524D01*
X165344064Y-103020361D01*
G37*
X165344064Y-103020361D02*
X165224890Y-103088684D01*
X165244854Y-103132863D01*
X165292336Y-103137333D01*
X165407146Y-103075841D01*
X165423734Y-103053636D01*
X165410106Y-103005524D01*
X165344064Y-103020361D01*
G36*
X164160773Y-102047637D02*
G01*
X164181499Y-102106010D01*
X164260166Y-102191488D01*
X164504881Y-102462361D01*
X164701410Y-102708186D01*
X164814126Y-102884184D01*
X164817808Y-102892385D01*
X164837729Y-102894799D01*
X164828565Y-102762679D01*
X164816112Y-102674881D01*
X164711096Y-102367443D01*
X164524408Y-102142763D01*
X164291593Y-102041464D01*
X164260166Y-102039483D01*
X164160773Y-102047637D01*
G37*
X164160773Y-102047637D02*
X164181499Y-102106010D01*
X164260166Y-102191488D01*
X164504881Y-102462361D01*
X164701410Y-102708186D01*
X164814126Y-102884184D01*
X164817808Y-102892385D01*
X164837729Y-102894799D01*
X164828565Y-102762679D01*
X164816112Y-102674881D01*
X164711096Y-102367443D01*
X164524408Y-102142763D01*
X164291593Y-102041464D01*
X164260166Y-102039483D01*
X164160773Y-102047637D01*
G36*
X164567409Y-101817955D02*
G01*
X164605092Y-101923021D01*
X164738433Y-102093757D01*
X164884550Y-102299827D01*
X164956961Y-102497006D01*
X164958666Y-102522635D01*
X164987886Y-102671800D01*
X165036508Y-102714000D01*
X165068483Y-102641584D01*
X165041742Y-102451482D01*
X165027708Y-102396500D01*
X164926592Y-102143163D01*
X164793042Y-101940724D01*
X164774934Y-101922320D01*
X164625783Y-101809455D01*
X164567409Y-101817955D01*
G37*
X164567409Y-101817955D02*
X164605092Y-101923021D01*
X164738433Y-102093757D01*
X164884550Y-102299827D01*
X164956961Y-102497006D01*
X164958666Y-102522635D01*
X164987886Y-102671800D01*
X165036508Y-102714000D01*
X165068483Y-102641584D01*
X165041742Y-102451482D01*
X165027708Y-102396500D01*
X164926592Y-102143163D01*
X164793042Y-101940724D01*
X164774934Y-101922320D01*
X164625783Y-101809455D01*
X164567409Y-101817955D01*
G36*
X160669288Y-102345025D02*
G01*
X160653438Y-102477055D01*
X160742266Y-102612400D01*
X160884156Y-102707532D01*
X160962448Y-102645738D01*
X160979333Y-102502333D01*
X160939646Y-102336352D01*
X160810000Y-102290667D01*
X160669288Y-102345025D01*
G37*
X160669288Y-102345025D02*
X160653438Y-102477055D01*
X160742266Y-102612400D01*
X160884156Y-102707532D01*
X160962448Y-102645738D01*
X160979333Y-102502333D01*
X160939646Y-102336352D01*
X160810000Y-102290667D01*
X160669288Y-102345025D01*
G36*
X163773333Y-101825000D02*
G01*
X163815666Y-101867333D01*
X163858000Y-101825000D01*
X163815666Y-101782667D01*
X163773333Y-101825000D01*
G37*
X163773333Y-101825000D02*
X163815666Y-101867333D01*
X163858000Y-101825000D01*
X163815666Y-101782667D01*
X163773333Y-101825000D01*
G36*
X160681985Y-101711918D02*
G01*
X160512843Y-101747822D01*
X160471333Y-101782667D01*
X160547885Y-101829033D01*
X160745358Y-101859786D01*
X160937000Y-101867333D01*
X161192015Y-101853415D01*
X161361156Y-101817511D01*
X161402666Y-101782667D01*
X161326115Y-101736300D01*
X161128642Y-101705547D01*
X160937000Y-101698000D01*
X160681985Y-101711918D01*
G37*
X160681985Y-101711918D02*
X160512843Y-101747822D01*
X160471333Y-101782667D01*
X160547885Y-101829033D01*
X160745358Y-101859786D01*
X160937000Y-101867333D01*
X161192015Y-101853415D01*
X161361156Y-101817511D01*
X161402666Y-101782667D01*
X161326115Y-101736300D01*
X161128642Y-101705547D01*
X160937000Y-101698000D01*
X160681985Y-101711918D01*
G36*
X159138325Y-101462093D02*
G01*
X158834492Y-101486091D01*
X158642560Y-101533823D01*
X158571318Y-101573693D01*
X158515690Y-101600653D01*
X158417274Y-101623525D01*
X158263307Y-101642626D01*
X158041026Y-101658277D01*
X157737667Y-101670796D01*
X157340465Y-101680501D01*
X156836658Y-101687713D01*
X156213482Y-101692749D01*
X155458173Y-101695929D01*
X154557968Y-101697572D01*
X153597151Y-101698000D01*
X152441300Y-101699483D01*
X151439740Y-101703908D01*
X150594722Y-101711233D01*
X149908500Y-101721420D01*
X149383325Y-101734429D01*
X149021451Y-101750219D01*
X148825129Y-101768753D01*
X148787333Y-101782667D01*
X148871615Y-101803002D01*
X149122960Y-101820625D01*
X149539120Y-101835495D01*
X150117847Y-101847573D01*
X150856893Y-101856819D01*
X151754008Y-101863195D01*
X152806945Y-101866660D01*
X153602966Y-101867333D01*
X154641748Y-101866874D01*
X155523940Y-101865277D01*
X156262281Y-101862214D01*
X156869512Y-101857356D01*
X157358373Y-101850374D01*
X157741606Y-101840939D01*
X158031950Y-101828723D01*
X158242147Y-101813396D01*
X158384936Y-101794630D01*
X158473058Y-101772097D01*
X158519254Y-101745466D01*
X158524000Y-101740333D01*
X158692057Y-101650940D01*
X158992563Y-101607403D01*
X159063533Y-101604960D01*
X159418582Y-101586916D01*
X159811065Y-101551075D01*
X159963333Y-101532214D01*
X160155623Y-101503426D01*
X160228216Y-101484064D01*
X160168861Y-101471761D01*
X159965307Y-101464151D01*
X159605301Y-101458866D01*
X159582333Y-101458613D01*
X159138325Y-101462093D01*
G37*
X159138325Y-101462093D02*
X158834492Y-101486091D01*
X158642560Y-101533823D01*
X158571318Y-101573693D01*
X158515690Y-101600653D01*
X158417274Y-101623525D01*
X158263307Y-101642626D01*
X158041026Y-101658277D01*
X157737667Y-101670796D01*
X157340465Y-101680501D01*
X156836658Y-101687713D01*
X156213482Y-101692749D01*
X155458173Y-101695929D01*
X154557968Y-101697572D01*
X153597151Y-101698000D01*
X152441300Y-101699483D01*
X151439740Y-101703908D01*
X150594722Y-101711233D01*
X149908500Y-101721420D01*
X149383325Y-101734429D01*
X149021451Y-101750219D01*
X148825129Y-101768753D01*
X148787333Y-101782667D01*
X148871615Y-101803002D01*
X149122960Y-101820625D01*
X149539120Y-101835495D01*
X150117847Y-101847573D01*
X150856893Y-101856819D01*
X151754008Y-101863195D01*
X152806945Y-101866660D01*
X153602966Y-101867333D01*
X154641748Y-101866874D01*
X155523940Y-101865277D01*
X156262281Y-101862214D01*
X156869512Y-101857356D01*
X157358373Y-101850374D01*
X157741606Y-101840939D01*
X158031950Y-101828723D01*
X158242147Y-101813396D01*
X158384936Y-101794630D01*
X158473058Y-101772097D01*
X158519254Y-101745466D01*
X158524000Y-101740333D01*
X158692057Y-101650940D01*
X158992563Y-101607403D01*
X159063533Y-101604960D01*
X159418582Y-101586916D01*
X159811065Y-101551075D01*
X159963333Y-101532214D01*
X160155623Y-101503426D01*
X160228216Y-101484064D01*
X160168861Y-101471761D01*
X159965307Y-101464151D01*
X159605301Y-101458866D01*
X159582333Y-101458613D01*
X159138325Y-101462093D01*
G36*
X163303743Y-94963142D02*
G01*
X163284229Y-95084255D01*
X163268326Y-95296441D01*
X163255955Y-95608151D01*
X163247037Y-96027835D01*
X163241494Y-96563944D01*
X163239248Y-97224930D01*
X163240220Y-98019241D01*
X163244333Y-98955330D01*
X163251508Y-100041647D01*
X163261666Y-101286642D01*
X163264760Y-101634500D01*
X163332614Y-101693642D01*
X163371166Y-101698029D01*
X163398465Y-101664478D01*
X163420358Y-101555256D01*
X163437159Y-101357537D01*
X163449183Y-101058493D01*
X163456742Y-100645296D01*
X163460150Y-100105121D01*
X163459721Y-99425139D01*
X163455769Y-98592524D01*
X163453944Y-98311363D01*
X163446722Y-97422145D01*
X163437985Y-96690184D01*
X163427281Y-96103407D01*
X163414156Y-95649742D01*
X163398159Y-95317115D01*
X163378836Y-95093455D01*
X163355735Y-94966687D01*
X163328404Y-94924739D01*
X163326944Y-94924653D01*
X163303743Y-94963142D01*
G37*
X163303743Y-94963142D02*
X163284229Y-95084255D01*
X163268326Y-95296441D01*
X163255955Y-95608151D01*
X163247037Y-96027835D01*
X163241494Y-96563944D01*
X163239248Y-97224930D01*
X163240220Y-98019241D01*
X163244333Y-98955330D01*
X163251508Y-100041647D01*
X163261666Y-101286642D01*
X163264760Y-101634500D01*
X163332614Y-101693642D01*
X163371166Y-101698029D01*
X163398465Y-101664478D01*
X163420358Y-101555256D01*
X163437159Y-101357537D01*
X163449183Y-101058493D01*
X163456742Y-100645296D01*
X163460150Y-100105121D01*
X163459721Y-99425139D01*
X163455769Y-98592524D01*
X163453944Y-98311363D01*
X163446722Y-97422145D01*
X163437985Y-96690184D01*
X163427281Y-96103407D01*
X163414156Y-95649742D01*
X163398159Y-95317115D01*
X163378836Y-95093455D01*
X163355735Y-94966687D01*
X163328404Y-94924739D01*
X163326944Y-94924653D01*
X163303743Y-94963142D01*
G36*
X163647180Y-95985960D02*
G01*
X163641076Y-96261988D01*
X163635165Y-96664909D01*
X163629656Y-97184114D01*
X163624757Y-97808993D01*
X163622571Y-98163167D01*
X163620038Y-98889757D01*
X163620746Y-99560514D01*
X163624446Y-100157230D01*
X163630887Y-100661695D01*
X163639822Y-101055702D01*
X163651000Y-101321042D01*
X163664172Y-101439506D01*
X163667500Y-101444063D01*
X163683960Y-101363184D01*
X163697157Y-101135548D01*
X163706647Y-100783706D01*
X163711988Y-100330211D01*
X163712736Y-99797614D01*
X163709498Y-99306230D01*
X163702282Y-98639577D01*
X163693964Y-97954739D01*
X163685115Y-97293564D01*
X163676309Y-96697898D01*
X163668119Y-96209590D01*
X163664569Y-96025333D01*
X163659135Y-95857023D01*
X163653269Y-95847435D01*
X163647180Y-95985960D01*
G37*
X163647180Y-95985960D02*
X163641076Y-96261988D01*
X163635165Y-96664909D01*
X163629656Y-97184114D01*
X163624757Y-97808993D01*
X163622571Y-98163167D01*
X163620038Y-98889757D01*
X163620746Y-99560514D01*
X163624446Y-100157230D01*
X163630887Y-100661695D01*
X163639822Y-101055702D01*
X163651000Y-101321042D01*
X163664172Y-101439506D01*
X163667500Y-101444063D01*
X163683960Y-101363184D01*
X163697157Y-101135548D01*
X163706647Y-100783706D01*
X163711988Y-100330211D01*
X163712736Y-99797614D01*
X163709498Y-99306230D01*
X163702282Y-98639577D01*
X163693964Y-97954739D01*
X163685115Y-97293564D01*
X163676309Y-96697898D01*
X163668119Y-96209590D01*
X163664569Y-96025333D01*
X163659135Y-95857023D01*
X163653269Y-95847435D01*
X163647180Y-95985960D01*
G36*
X153918373Y-98748911D02*
G01*
X153155126Y-98754611D01*
X153035936Y-98755915D01*
X152721068Y-98760415D01*
X152568588Y-98764642D01*
X152571554Y-98768517D01*
X152723019Y-98771963D01*
X153016040Y-98774902D01*
X153443673Y-98777255D01*
X153998973Y-98778943D01*
X154674996Y-98779889D01*
X155179666Y-98780069D01*
X155929136Y-98779642D01*
X156560963Y-98778426D01*
X157068405Y-98776497D01*
X157444719Y-98773934D01*
X157683162Y-98770816D01*
X157776989Y-98767219D01*
X157719460Y-98763222D01*
X157503829Y-98758903D01*
X157269269Y-98755887D01*
X156515145Y-98749676D01*
X155662525Y-98746443D01*
X154775554Y-98746188D01*
X153918373Y-98748911D01*
G37*
X153918373Y-98748911D02*
X153155126Y-98754611D01*
X153035936Y-98755915D01*
X152721068Y-98760415D01*
X152568588Y-98764642D01*
X152571554Y-98768517D01*
X152723019Y-98771963D01*
X153016040Y-98774902D01*
X153443673Y-98777255D01*
X153998973Y-98778943D01*
X154674996Y-98779889D01*
X155179666Y-98780069D01*
X155929136Y-98779642D01*
X156560963Y-98778426D01*
X157068405Y-98776497D01*
X157444719Y-98773934D01*
X157683162Y-98770816D01*
X157776989Y-98767219D01*
X157719460Y-98763222D01*
X157503829Y-98758903D01*
X157269269Y-98755887D01*
X156515145Y-98749676D01*
X155662525Y-98746443D01*
X154775554Y-98746188D01*
X153918373Y-98748911D01*
G36*
X159592945Y-95430849D02*
G01*
X159568141Y-95672366D01*
X159550808Y-96062003D01*
X159541501Y-96589215D01*
X159540000Y-96956667D01*
X159544360Y-97559369D01*
X159557072Y-98030657D01*
X159577579Y-98359986D01*
X159605327Y-98536809D01*
X159624666Y-98565333D01*
X159656388Y-98482484D01*
X159681192Y-98240967D01*
X159698525Y-97851330D01*
X159707832Y-97324118D01*
X159709333Y-96956667D01*
X159704973Y-96353964D01*
X159692261Y-95882676D01*
X159671754Y-95553347D01*
X159644006Y-95376524D01*
X159624666Y-95348000D01*
X159592945Y-95430849D01*
G37*
X159592945Y-95430849D02*
X159568141Y-95672366D01*
X159550808Y-96062003D01*
X159541501Y-96589215D01*
X159540000Y-96956667D01*
X159544360Y-97559369D01*
X159557072Y-98030657D01*
X159577579Y-98359986D01*
X159605327Y-98536809D01*
X159624666Y-98565333D01*
X159656388Y-98482484D01*
X159681192Y-98240967D01*
X159698525Y-97851330D01*
X159707832Y-97324118D01*
X159709333Y-96956667D01*
X159704973Y-96353964D01*
X159692261Y-95882676D01*
X159671754Y-95553347D01*
X159644006Y-95376524D01*
X159624666Y-95348000D01*
X159592945Y-95430849D01*
G36*
X155158500Y-95283628D02*
G01*
X151369666Y-95305667D01*
X151369666Y-98269000D01*
X155158500Y-98291038D01*
X158947333Y-98313076D01*
X158947333Y-96661839D01*
X153698000Y-96661839D01*
X153698000Y-96663775D01*
X153693525Y-97060767D01*
X153681396Y-97403449D01*
X153663554Y-97651360D01*
X153645515Y-97756925D01*
X153597379Y-97819504D01*
X153490722Y-97857542D01*
X153294531Y-97874882D01*
X152977793Y-97875366D01*
X152735348Y-97869683D01*
X151877666Y-97845667D01*
X151877666Y-95559667D01*
X152669360Y-95535210D01*
X153119149Y-95533359D01*
X153427694Y-95558968D01*
X153579527Y-95609077D01*
X153635428Y-95704093D01*
X153671985Y-95895007D01*
X153691931Y-96206147D01*
X153698000Y-96661839D01*
X158947333Y-96661839D01*
X158947333Y-95261590D01*
X155158500Y-95283628D01*
G37*
X155158500Y-95283628D02*
X151369666Y-95305667D01*
X151369666Y-98269000D01*
X155158500Y-98291038D01*
X158947333Y-98313076D01*
X158947333Y-96661839D01*
X153698000Y-96661839D01*
X153698000Y-96663775D01*
X153693525Y-97060767D01*
X153681396Y-97403449D01*
X153663554Y-97651360D01*
X153645515Y-97756925D01*
X153597379Y-97819504D01*
X153490722Y-97857542D01*
X153294531Y-97874882D01*
X152977793Y-97875366D01*
X152735348Y-97869683D01*
X151877666Y-97845667D01*
X151877666Y-95559667D01*
X152669360Y-95535210D01*
X153119149Y-95533359D01*
X153427694Y-95558968D01*
X153579527Y-95609077D01*
X153635428Y-95704093D01*
X153671985Y-95895007D01*
X153691931Y-96206147D01*
X153698000Y-96661839D01*
X158947333Y-96661839D01*
X158947333Y-95261590D01*
X155158500Y-95283628D01*
G36*
X147095168Y-96177379D02*
G01*
X147063382Y-96237000D01*
X147064911Y-96349527D01*
X147156508Y-96347350D01*
X147206889Y-96307555D01*
X147261439Y-96190756D01*
X147212469Y-96113483D01*
X147187725Y-96110000D01*
X147095168Y-96177379D01*
G37*
X147095168Y-96177379D02*
X147063382Y-96237000D01*
X147064911Y-96349527D01*
X147156508Y-96347350D01*
X147206889Y-96307555D01*
X147261439Y-96190756D01*
X147212469Y-96113483D01*
X147187725Y-96110000D01*
X147095168Y-96177379D01*
G36*
X148337736Y-94978095D02*
G01*
X148209161Y-95081429D01*
X148098364Y-95214815D01*
X148090373Y-95306585D01*
X148079105Y-95339276D01*
X147999769Y-95320126D01*
X147895626Y-95307284D01*
X147898933Y-95348970D01*
X147891294Y-95426288D01*
X147860997Y-95432667D01*
X147774779Y-95494127D01*
X147771333Y-95517333D01*
X147814849Y-95594436D01*
X147944982Y-95526682D01*
X148114135Y-95365089D01*
X148311140Y-95142096D01*
X148417392Y-94993367D01*
X148427915Y-94933751D01*
X148337736Y-94978095D01*
G37*
X148337736Y-94978095D02*
X148209161Y-95081429D01*
X148098364Y-95214815D01*
X148090373Y-95306585D01*
X148079105Y-95339276D01*
X147999769Y-95320126D01*
X147895626Y-95307284D01*
X147898933Y-95348970D01*
X147891294Y-95426288D01*
X147860997Y-95432667D01*
X147774779Y-95494127D01*
X147771333Y-95517333D01*
X147814849Y-95594436D01*
X147944982Y-95526682D01*
X148114135Y-95365089D01*
X148311140Y-95142096D01*
X148417392Y-94993367D01*
X148427915Y-94933751D01*
X148337736Y-94978095D01*
G36*
X158119732Y-106756812D02*
G01*
X158115625Y-106834484D01*
X158186329Y-106975614D01*
X158284157Y-107007148D01*
X158349993Y-106920369D01*
X158354666Y-106869722D01*
X158300881Y-106724174D01*
X158221458Y-106693333D01*
X158119732Y-106756812D01*
G37*
X158119732Y-106756812D02*
X158115625Y-106834484D01*
X158186329Y-106975614D01*
X158284157Y-107007148D01*
X158349993Y-106920369D01*
X158354666Y-106869722D01*
X158300881Y-106724174D01*
X158221458Y-106693333D01*
X158119732Y-106756812D01*
G36*
X151092054Y-106758646D02*
G01*
X151088292Y-106834484D01*
X151167060Y-106976365D01*
X151289437Y-107015431D01*
X151347958Y-106983153D01*
X151372266Y-106864155D01*
X151296660Y-106740740D01*
X151185067Y-106693333D01*
X151092054Y-106758646D01*
G37*
X151092054Y-106758646D02*
X151088292Y-106834484D01*
X151167060Y-106976365D01*
X151289437Y-107015431D01*
X151347958Y-106983153D01*
X151372266Y-106864155D01*
X151296660Y-106740740D01*
X151185067Y-106693333D01*
X151092054Y-106758646D01*
G36*
X152343333Y-97438571D02*
G01*
X153105291Y-97422333D01*
X153105311Y-96702667D01*
X152936000Y-96702667D01*
X152932887Y-97012302D01*
X152914764Y-97189513D01*
X152868453Y-97271198D01*
X152780774Y-97294254D01*
X152724333Y-97295333D01*
X152613749Y-97286618D01*
X152550459Y-97235873D01*
X152521286Y-97106201D01*
X152513052Y-96860702D01*
X152512666Y-96702667D01*
X152515779Y-96393031D01*
X152533902Y-96215820D01*
X152580214Y-96134135D01*
X152667892Y-96111079D01*
X152724333Y-96110000D01*
X152834917Y-96118715D01*
X152898207Y-96169460D01*
X152927380Y-96299132D01*
X152935614Y-96544631D01*
X152936000Y-96702667D01*
X153105311Y-96702667D01*
X153105333Y-95940667D01*
X152343333Y-95940667D01*
X152343333Y-97438571D01*
G37*
X152343333Y-97438571D02*
X153105291Y-97422333D01*
X153105311Y-96702667D01*
X152936000Y-96702667D01*
X152932887Y-97012302D01*
X152914764Y-97189513D01*
X152868453Y-97271198D01*
X152780774Y-97294254D01*
X152724333Y-97295333D01*
X152613749Y-97286618D01*
X152550459Y-97235873D01*
X152521286Y-97106201D01*
X152513052Y-96860702D01*
X152512666Y-96702667D01*
X152515779Y-96393031D01*
X152533902Y-96215820D01*
X152580214Y-96134135D01*
X152667892Y-96111079D01*
X152724333Y-96110000D01*
X152834917Y-96118715D01*
X152898207Y-96169460D01*
X152927380Y-96299132D01*
X152935614Y-96544631D01*
X152936000Y-96702667D01*
X153105311Y-96702667D01*
X153105333Y-95940667D01*
X152343333Y-95940667D01*
X152343333Y-97438571D01*
%TO.C,TP3*%
G36*
X149623377Y-86998600D02*
G01*
X148979083Y-87130930D01*
X148380545Y-87368773D01*
X148203471Y-87467998D01*
X148071464Y-87555671D01*
X147992988Y-87648976D01*
X147954086Y-87791490D01*
X147940804Y-88026792D01*
X147939258Y-88293026D01*
X147943074Y-88628440D01*
X147960974Y-88830370D01*
X148001742Y-88934580D01*
X148074164Y-88976837D01*
X148108901Y-88983653D01*
X148236652Y-88961581D01*
X148331362Y-88824902D01*
X148381238Y-88687319D01*
X148629527Y-88107554D01*
X148959314Y-87669402D01*
X149365537Y-87377276D01*
X149843136Y-87235587D01*
X150062325Y-87222000D01*
X150562112Y-87275192D01*
X150965960Y-87446150D01*
X151314068Y-87751940D01*
X151316225Y-87754394D01*
X151461104Y-87944373D01*
X151573099Y-88159350D01*
X151655567Y-88421907D01*
X151711865Y-88754631D01*
X151745350Y-89180103D01*
X151759378Y-89720909D01*
X151757308Y-90399632D01*
X151753083Y-90693333D01*
X151742491Y-91280718D01*
X151730816Y-91725369D01*
X151715033Y-92053876D01*
X151692118Y-92292827D01*
X151659045Y-92468811D01*
X151612791Y-92608416D01*
X151550329Y-92738232D01*
X151512667Y-92806723D01*
X151224792Y-93203828D01*
X150879079Y-93450261D01*
X150449383Y-93561688D01*
X150235658Y-93572000D01*
X149757258Y-93536387D01*
X149408130Y-93417951D01*
X149172305Y-93199295D01*
X149033819Y-92863021D01*
X148976704Y-92391732D01*
X148972983Y-92196166D01*
X148972667Y-91540000D01*
X149480667Y-91540000D01*
X149775639Y-91530246D01*
X149934009Y-91495671D01*
X149987665Y-91428302D01*
X149988667Y-91413000D01*
X149965298Y-91362555D01*
X149879262Y-91327151D01*
X149706670Y-91304317D01*
X149423630Y-91291580D01*
X149006250Y-91286470D01*
X148761000Y-91286000D01*
X147533333Y-91286000D01*
X147533333Y-91566966D01*
X147588114Y-91999975D01*
X147733465Y-92458335D01*
X147940902Y-92860876D01*
X148029965Y-92982179D01*
X148248263Y-93193732D01*
X148540857Y-93413204D01*
X148730897Y-93529403D01*
X148973573Y-93651035D01*
X149197484Y-93727980D01*
X149457965Y-93772236D01*
X149810352Y-93795800D01*
X149988667Y-93802095D01*
X150420017Y-93806880D01*
X150739715Y-93785663D01*
X151004352Y-93731610D01*
X151236911Y-93651341D01*
X151741691Y-93375424D01*
X152222289Y-92972275D01*
X152635996Y-92482980D01*
X152886459Y-92064545D01*
X153004375Y-91816672D01*
X153083031Y-91612210D01*
X153130354Y-91405943D01*
X153154273Y-91152656D01*
X153162718Y-90807134D01*
X153163667Y-90483675D01*
X153161129Y-90043744D01*
X153148325Y-89727311D01*
X153117471Y-89488561D01*
X153060784Y-89281678D01*
X152970480Y-89060843D01*
X152894005Y-88896424D01*
X152527071Y-88279424D01*
X152061278Y-87745525D01*
X151531322Y-87332915D01*
X151408872Y-87261831D01*
X150880463Y-87061337D01*
X150271234Y-86974498D01*
X149623377Y-86998600D01*
G37*
X149623377Y-86998600D02*
X148979083Y-87130930D01*
X148380545Y-87368773D01*
X148203471Y-87467998D01*
X148071464Y-87555671D01*
X147992988Y-87648976D01*
X147954086Y-87791490D01*
X147940804Y-88026792D01*
X147939258Y-88293026D01*
X147943074Y-88628440D01*
X147960974Y-88830370D01*
X148001742Y-88934580D01*
X148074164Y-88976837D01*
X148108901Y-88983653D01*
X148236652Y-88961581D01*
X148331362Y-88824902D01*
X148381238Y-88687319D01*
X148629527Y-88107554D01*
X148959314Y-87669402D01*
X149365537Y-87377276D01*
X149843136Y-87235587D01*
X150062325Y-87222000D01*
X150562112Y-87275192D01*
X150965960Y-87446150D01*
X151314068Y-87751940D01*
X151316225Y-87754394D01*
X151461104Y-87944373D01*
X151573099Y-88159350D01*
X151655567Y-88421907D01*
X151711865Y-88754631D01*
X151745350Y-89180103D01*
X151759378Y-89720909D01*
X151757308Y-90399632D01*
X151753083Y-90693333D01*
X151742491Y-91280718D01*
X151730816Y-91725369D01*
X151715033Y-92053876D01*
X151692118Y-92292827D01*
X151659045Y-92468811D01*
X151612791Y-92608416D01*
X151550329Y-92738232D01*
X151512667Y-92806723D01*
X151224792Y-93203828D01*
X150879079Y-93450261D01*
X150449383Y-93561688D01*
X150235658Y-93572000D01*
X149757258Y-93536387D01*
X149408130Y-93417951D01*
X149172305Y-93199295D01*
X149033819Y-92863021D01*
X148976704Y-92391732D01*
X148972983Y-92196166D01*
X148972667Y-91540000D01*
X149480667Y-91540000D01*
X149775639Y-91530246D01*
X149934009Y-91495671D01*
X149987665Y-91428302D01*
X149988667Y-91413000D01*
X149965298Y-91362555D01*
X149879262Y-91327151D01*
X149706670Y-91304317D01*
X149423630Y-91291580D01*
X149006250Y-91286470D01*
X148761000Y-91286000D01*
X147533333Y-91286000D01*
X147533333Y-91566966D01*
X147588114Y-91999975D01*
X147733465Y-92458335D01*
X147940902Y-92860876D01*
X148029965Y-92982179D01*
X148248263Y-93193732D01*
X148540857Y-93413204D01*
X148730897Y-93529403D01*
X148973573Y-93651035D01*
X149197484Y-93727980D01*
X149457965Y-93772236D01*
X149810352Y-93795800D01*
X149988667Y-93802095D01*
X150420017Y-93806880D01*
X150739715Y-93785663D01*
X151004352Y-93731610D01*
X151236911Y-93651341D01*
X151741691Y-93375424D01*
X152222289Y-92972275D01*
X152635996Y-92482980D01*
X152886459Y-92064545D01*
X153004375Y-91816672D01*
X153083031Y-91612210D01*
X153130354Y-91405943D01*
X153154273Y-91152656D01*
X153162718Y-90807134D01*
X153163667Y-90483675D01*
X153161129Y-90043744D01*
X153148325Y-89727311D01*
X153117471Y-89488561D01*
X153060784Y-89281678D01*
X152970480Y-89060843D01*
X152894005Y-88896424D01*
X152527071Y-88279424D01*
X152061278Y-87745525D01*
X151531322Y-87332915D01*
X151408872Y-87261831D01*
X150880463Y-87061337D01*
X150271234Y-86974498D01*
X149623377Y-86998600D01*
G36*
X167719574Y-86991868D02*
G01*
X167647607Y-87052708D01*
X167567009Y-87190521D01*
X167465790Y-87428574D01*
X167331962Y-87790133D01*
X167227748Y-88085398D01*
X167086353Y-88489917D01*
X166902583Y-89015823D01*
X166689882Y-89624635D01*
X166461695Y-90277869D01*
X166231465Y-90937045D01*
X166094818Y-91328333D01*
X165355667Y-93445000D01*
X164995833Y-93471034D01*
X164738941Y-93514849D01*
X164638233Y-93599844D01*
X164636000Y-93619201D01*
X164665742Y-93673616D01*
X164772108Y-93709706D01*
X164980807Y-93730752D01*
X165317549Y-93740039D01*
X165592326Y-93741333D01*
X166548651Y-93741333D01*
X166915900Y-92722887D01*
X167283149Y-91704442D01*
X168349957Y-91728054D01*
X169416764Y-91751666D01*
X169765547Y-92725333D01*
X169942242Y-93193138D01*
X170083598Y-93508388D01*
X170195411Y-93682790D01*
X170262007Y-93727949D01*
X170367955Y-93713578D01*
X170360100Y-93600949D01*
X170321048Y-93489364D01*
X170230464Y-93236531D01*
X170094805Y-92860293D01*
X169920528Y-92378497D01*
X169714091Y-91808987D01*
X169585690Y-91455333D01*
X169287625Y-91455333D01*
X168358813Y-91455333D01*
X167985118Y-91449944D01*
X167683266Y-91435333D01*
X167487475Y-91413836D01*
X167430000Y-91391933D01*
X167456157Y-91279794D01*
X167526756Y-91044793D01*
X167629992Y-90721842D01*
X167754056Y-90345851D01*
X167887143Y-89951733D01*
X168017446Y-89574399D01*
X168133158Y-89248759D01*
X168222473Y-89009724D01*
X168273583Y-88892207D01*
X168276988Y-88887472D01*
X168338843Y-88916194D01*
X168424043Y-89068344D01*
X168469368Y-89183806D01*
X168550513Y-89412589D01*
X168671956Y-89751768D01*
X168816193Y-90152576D01*
X168942753Y-90502833D01*
X169287625Y-91455333D01*
X169585690Y-91455333D01*
X169481952Y-91169609D01*
X169230569Y-90478207D01*
X169139392Y-90227666D01*
X168840998Y-89410798D01*
X168593202Y-88739976D01*
X168390339Y-88201534D01*
X168226743Y-87781806D01*
X168096748Y-87467126D01*
X167994688Y-87243828D01*
X167914897Y-87098245D01*
X167851709Y-87016711D01*
X167799459Y-86985561D01*
X167794898Y-86984732D01*
X167719574Y-86991868D01*
G37*
X167719574Y-86991868D02*
X167647607Y-87052708D01*
X167567009Y-87190521D01*
X167465790Y-87428574D01*
X167331962Y-87790133D01*
X167227748Y-88085398D01*
X167086353Y-88489917D01*
X166902583Y-89015823D01*
X166689882Y-89624635D01*
X166461695Y-90277869D01*
X166231465Y-90937045D01*
X166094818Y-91328333D01*
X165355667Y-93445000D01*
X164995833Y-93471034D01*
X164738941Y-93514849D01*
X164638233Y-93599844D01*
X164636000Y-93619201D01*
X164665742Y-93673616D01*
X164772108Y-93709706D01*
X164980807Y-93730752D01*
X165317549Y-93740039D01*
X165592326Y-93741333D01*
X166548651Y-93741333D01*
X166915900Y-92722887D01*
X167283149Y-91704442D01*
X168349957Y-91728054D01*
X169416764Y-91751666D01*
X169765547Y-92725333D01*
X169942242Y-93193138D01*
X170083598Y-93508388D01*
X170195411Y-93682790D01*
X170262007Y-93727949D01*
X170367955Y-93713578D01*
X170360100Y-93600949D01*
X170321048Y-93489364D01*
X170230464Y-93236531D01*
X170094805Y-92860293D01*
X169920528Y-92378497D01*
X169714091Y-91808987D01*
X169585690Y-91455333D01*
X169287625Y-91455333D01*
X168358813Y-91455333D01*
X167985118Y-91449944D01*
X167683266Y-91435333D01*
X167487475Y-91413836D01*
X167430000Y-91391933D01*
X167456157Y-91279794D01*
X167526756Y-91044793D01*
X167629992Y-90721842D01*
X167754056Y-90345851D01*
X167887143Y-89951733D01*
X168017446Y-89574399D01*
X168133158Y-89248759D01*
X168222473Y-89009724D01*
X168273583Y-88892207D01*
X168276988Y-88887472D01*
X168338843Y-88916194D01*
X168424043Y-89068344D01*
X168469368Y-89183806D01*
X168550513Y-89412589D01*
X168671956Y-89751768D01*
X168816193Y-90152576D01*
X168942753Y-90502833D01*
X169287625Y-91455333D01*
X169585690Y-91455333D01*
X169481952Y-91169609D01*
X169230569Y-90478207D01*
X169139392Y-90227666D01*
X168840998Y-89410798D01*
X168593202Y-88739976D01*
X168390339Y-88201534D01*
X168226743Y-87781806D01*
X168096748Y-87467126D01*
X167994688Y-87243828D01*
X167914897Y-87098245D01*
X167851709Y-87016711D01*
X167799459Y-86985561D01*
X167794898Y-86984732D01*
X167719574Y-86991868D01*
G36*
X158286000Y-93487333D02*
G01*
X157820333Y-93487333D01*
X157539509Y-93498735D01*
X157394928Y-93538743D01*
X157354667Y-93614333D01*
X157379196Y-93667226D01*
X157469484Y-93703478D01*
X157650576Y-93725980D01*
X157947520Y-93737620D01*
X158385364Y-93741290D01*
X158455333Y-93741333D01*
X159556000Y-93741333D01*
X159556000Y-90679222D01*
X159557044Y-89980111D01*
X159560017Y-89339218D01*
X159564676Y-88775070D01*
X159570780Y-88306195D01*
X159578089Y-87951118D01*
X159586362Y-87728367D01*
X159595334Y-87656445D01*
X159629308Y-87743253D01*
X159708924Y-87973337D01*
X159828227Y-88328689D01*
X159981263Y-88791303D01*
X160162078Y-89343174D01*
X160364719Y-89966293D01*
X160583231Y-90642656D01*
X160600854Y-90697389D01*
X160855591Y-91485556D01*
X161065584Y-92126651D01*
X161236336Y-92635311D01*
X161373349Y-93026171D01*
X161482127Y-93313866D01*
X161568173Y-93513033D01*
X161636988Y-93638306D01*
X161694075Y-93704321D01*
X161739204Y-93725052D01*
X161804677Y-93719421D01*
X161867994Y-93667681D01*
X161938258Y-93549158D01*
X162024571Y-93343176D01*
X162136034Y-93029060D01*
X162281752Y-92586134D01*
X162391501Y-92243386D01*
X162591342Y-91617727D01*
X162820732Y-90902584D01*
X163056684Y-90169450D01*
X163276207Y-89489817D01*
X163366370Y-89211666D01*
X163861108Y-87687666D01*
X163867554Y-90714500D01*
X163869495Y-91509548D01*
X163872215Y-92151605D01*
X163876663Y-92657011D01*
X163883789Y-93042107D01*
X163894540Y-93323235D01*
X163909867Y-93516735D01*
X163930717Y-93638948D01*
X163958041Y-93706217D01*
X163992787Y-93734881D01*
X164035903Y-93741283D01*
X164043333Y-93741333D01*
X164086889Y-93737109D01*
X164122253Y-93713792D01*
X164150280Y-93655414D01*
X164171822Y-93546008D01*
X164187732Y-93369607D01*
X164198862Y-93110243D01*
X164206066Y-92751948D01*
X164210195Y-92278755D01*
X164212103Y-91674698D01*
X164212643Y-90923807D01*
X164212667Y-90570558D01*
X164212667Y-87399783D01*
X164692811Y-87374391D01*
X164987912Y-87340970D01*
X165169354Y-87282722D01*
X165207867Y-87243166D01*
X165183200Y-87201070D01*
X165064664Y-87170997D01*
X164833576Y-87151389D01*
X164471255Y-87140688D01*
X163959016Y-87137336D01*
X163938688Y-87137333D01*
X162634599Y-87137333D01*
X161269557Y-91582333D01*
X160556841Y-89381000D01*
X159844125Y-87179666D01*
X159065063Y-87155322D01*
X158286000Y-87130978D01*
X158286000Y-93487333D01*
G37*
X158286000Y-93487333D02*
X157820333Y-93487333D01*
X157539509Y-93498735D01*
X157394928Y-93538743D01*
X157354667Y-93614333D01*
X157379196Y-93667226D01*
X157469484Y-93703478D01*
X157650576Y-93725980D01*
X157947520Y-93737620D01*
X158385364Y-93741290D01*
X158455333Y-93741333D01*
X159556000Y-93741333D01*
X159556000Y-90679222D01*
X159557044Y-89980111D01*
X159560017Y-89339218D01*
X159564676Y-88775070D01*
X159570780Y-88306195D01*
X159578089Y-87951118D01*
X159586362Y-87728367D01*
X159595334Y-87656445D01*
X159629308Y-87743253D01*
X159708924Y-87973337D01*
X159828227Y-88328689D01*
X159981263Y-88791303D01*
X160162078Y-89343174D01*
X160364719Y-89966293D01*
X160583231Y-90642656D01*
X160600854Y-90697389D01*
X160855591Y-91485556D01*
X161065584Y-92126651D01*
X161236336Y-92635311D01*
X161373349Y-93026171D01*
X161482127Y-93313866D01*
X161568173Y-93513033D01*
X161636988Y-93638306D01*
X161694075Y-93704321D01*
X161739204Y-93725052D01*
X161804677Y-93719421D01*
X161867994Y-93667681D01*
X161938258Y-93549158D01*
X162024571Y-93343176D01*
X162136034Y-93029060D01*
X162281752Y-92586134D01*
X162391501Y-92243386D01*
X162591342Y-91617727D01*
X162820732Y-90902584D01*
X163056684Y-90169450D01*
X163276207Y-89489817D01*
X163366370Y-89211666D01*
X163861108Y-87687666D01*
X163867554Y-90714500D01*
X163869495Y-91509548D01*
X163872215Y-92151605D01*
X163876663Y-92657011D01*
X163883789Y-93042107D01*
X163894540Y-93323235D01*
X163909867Y-93516735D01*
X163930717Y-93638948D01*
X163958041Y-93706217D01*
X163992787Y-93734881D01*
X164035903Y-93741283D01*
X164043333Y-93741333D01*
X164086889Y-93737109D01*
X164122253Y-93713792D01*
X164150280Y-93655414D01*
X164171822Y-93546008D01*
X164187732Y-93369607D01*
X164198862Y-93110243D01*
X164206066Y-92751948D01*
X164210195Y-92278755D01*
X164212103Y-91674698D01*
X164212643Y-90923807D01*
X164212667Y-90570558D01*
X164212667Y-87399783D01*
X164692811Y-87374391D01*
X164987912Y-87340970D01*
X165169354Y-87282722D01*
X165207867Y-87243166D01*
X165183200Y-87201070D01*
X165064664Y-87170997D01*
X164833576Y-87151389D01*
X164471255Y-87140688D01*
X163959016Y-87137336D01*
X163938688Y-87137333D01*
X162634599Y-87137333D01*
X161269557Y-91582333D01*
X160556841Y-89381000D01*
X159844125Y-87179666D01*
X159065063Y-87155322D01*
X158286000Y-87130978D01*
X158286000Y-93487333D01*
G36*
X154440140Y-87140167D02*
G01*
X154126187Y-87150599D01*
X153931388Y-87171523D01*
X153830684Y-87205832D01*
X153799019Y-87256421D01*
X153798667Y-87264333D01*
X153837617Y-87338009D01*
X153975725Y-87377603D01*
X154244875Y-87391069D01*
X154307736Y-87391333D01*
X154816806Y-87391333D01*
X154794570Y-90418166D01*
X154772333Y-93445000D01*
X154285500Y-93470391D01*
X153988962Y-93499047D01*
X153835560Y-93550900D01*
X153798667Y-93618558D01*
X153822535Y-93662590D01*
X153908143Y-93694998D01*
X154076490Y-93717428D01*
X154348579Y-93731525D01*
X154745411Y-93738937D01*
X155287988Y-93741309D01*
X155365000Y-93741333D01*
X155926887Y-93739454D01*
X156340451Y-93732724D01*
X156626670Y-93719501D01*
X156806525Y-93698143D01*
X156900994Y-93667008D01*
X156931057Y-93624455D01*
X156931333Y-93618757D01*
X156873720Y-93537289D01*
X156685571Y-93488341D01*
X156486833Y-93470591D01*
X156042333Y-93445000D01*
X156020136Y-90291166D01*
X155997939Y-87137333D01*
X154898303Y-87137333D01*
X154440140Y-87140167D01*
G37*
X154440140Y-87140167D02*
X154126187Y-87150599D01*
X153931388Y-87171523D01*
X153830684Y-87205832D01*
X153799019Y-87256421D01*
X153798667Y-87264333D01*
X153837617Y-87338009D01*
X153975725Y-87377603D01*
X154244875Y-87391069D01*
X154307736Y-87391333D01*
X154816806Y-87391333D01*
X154794570Y-90418166D01*
X154772333Y-93445000D01*
X154285500Y-93470391D01*
X153988962Y-93499047D01*
X153835560Y-93550900D01*
X153798667Y-93618558D01*
X153822535Y-93662590D01*
X153908143Y-93694998D01*
X154076490Y-93717428D01*
X154348579Y-93731525D01*
X154745411Y-93738937D01*
X155287988Y-93741309D01*
X155365000Y-93741333D01*
X155926887Y-93739454D01*
X156340451Y-93732724D01*
X156626670Y-93719501D01*
X156806525Y-93698143D01*
X156900994Y-93667008D01*
X156931057Y-93624455D01*
X156931333Y-93618757D01*
X156873720Y-93537289D01*
X156685571Y-93488341D01*
X156486833Y-93470591D01*
X156042333Y-93445000D01*
X156020136Y-90291166D01*
X155997939Y-87137333D01*
X154898303Y-87137333D01*
X154440140Y-87140167D01*
G36*
X144556787Y-86982153D02*
G01*
X144516621Y-87026263D01*
X144466496Y-87115355D01*
X144400961Y-87262958D01*
X144314565Y-87482601D01*
X144201855Y-87787811D01*
X144057381Y-88192118D01*
X143875690Y-88709050D01*
X143651331Y-89352136D01*
X143378851Y-90134903D01*
X143228632Y-90566333D01*
X142225966Y-93445000D01*
X141873983Y-93471034D01*
X141619632Y-93516354D01*
X141523265Y-93604512D01*
X141522000Y-93619201D01*
X141551793Y-93673701D01*
X141658336Y-93709814D01*
X141867372Y-93730839D01*
X142204646Y-93740076D01*
X142474918Y-93741333D01*
X143427835Y-93741333D01*
X143776117Y-92746500D01*
X144124399Y-91751666D01*
X146288855Y-91751666D01*
X146635927Y-92746069D01*
X146795874Y-93187090D01*
X146920075Y-93485427D01*
X147018645Y-93661402D01*
X147101700Y-93735336D01*
X147131167Y-93740902D01*
X147256165Y-93731242D01*
X147277571Y-93720166D01*
X147249198Y-93638738D01*
X147168850Y-93414774D01*
X147042528Y-93064841D01*
X146876231Y-92605500D01*
X146675961Y-92053319D01*
X146458784Y-91455333D01*
X146171078Y-91455333D01*
X145243539Y-91455333D01*
X144806294Y-91449687D01*
X144518726Y-91431281D01*
X144361509Y-91397912D01*
X144315274Y-91349500D01*
X144340318Y-91231743D01*
X144408607Y-90995921D01*
X144508899Y-90675423D01*
X144629949Y-90303639D01*
X144760515Y-89913959D01*
X144889353Y-89539772D01*
X145005220Y-89214470D01*
X145096872Y-88971442D01*
X145153066Y-88844078D01*
X145162667Y-88832952D01*
X145207647Y-88906534D01*
X145294659Y-89105737D01*
X145409407Y-89396494D01*
X145490593Y-89614331D01*
X145642449Y-90029175D01*
X145799601Y-90456340D01*
X145935287Y-90823140D01*
X145973632Y-90926166D01*
X146171078Y-91455333D01*
X146458784Y-91455333D01*
X146447717Y-91424861D01*
X146197500Y-90736690D01*
X146058483Y-90354666D01*
X145752501Y-89517024D01*
X145497285Y-88825946D01*
X145287414Y-88268256D01*
X145117468Y-87830777D01*
X144982026Y-87500333D01*
X144875669Y-87263748D01*
X144792976Y-87107846D01*
X144728527Y-87019451D01*
X144676901Y-86985385D01*
X144672056Y-86984432D01*
X144629053Y-86974766D01*
X144592448Y-86969497D01*
X144556787Y-86982153D01*
G37*
X144556787Y-86982153D02*
X144516621Y-87026263D01*
X144466496Y-87115355D01*
X144400961Y-87262958D01*
X144314565Y-87482601D01*
X144201855Y-87787811D01*
X144057381Y-88192118D01*
X143875690Y-88709050D01*
X143651331Y-89352136D01*
X143378851Y-90134903D01*
X143228632Y-90566333D01*
X142225966Y-93445000D01*
X141873983Y-93471034D01*
X141619632Y-93516354D01*
X141523265Y-93604512D01*
X141522000Y-93619201D01*
X141551793Y-93673701D01*
X141658336Y-93709814D01*
X141867372Y-93730839D01*
X142204646Y-93740076D01*
X142474918Y-93741333D01*
X143427835Y-93741333D01*
X143776117Y-92746500D01*
X144124399Y-91751666D01*
X146288855Y-91751666D01*
X146635927Y-92746069D01*
X146795874Y-93187090D01*
X146920075Y-93485427D01*
X147018645Y-93661402D01*
X147101700Y-93735336D01*
X147131167Y-93740902D01*
X147256165Y-93731242D01*
X147277571Y-93720166D01*
X147249198Y-93638738D01*
X147168850Y-93414774D01*
X147042528Y-93064841D01*
X146876231Y-92605500D01*
X146675961Y-92053319D01*
X146458784Y-91455333D01*
X146171078Y-91455333D01*
X145243539Y-91455333D01*
X144806294Y-91449687D01*
X144518726Y-91431281D01*
X144361509Y-91397912D01*
X144315274Y-91349500D01*
X144340318Y-91231743D01*
X144408607Y-90995921D01*
X144508899Y-90675423D01*
X144629949Y-90303639D01*
X144760515Y-89913959D01*
X144889353Y-89539772D01*
X145005220Y-89214470D01*
X145096872Y-88971442D01*
X145153066Y-88844078D01*
X145162667Y-88832952D01*
X145207647Y-88906534D01*
X145294659Y-89105737D01*
X145409407Y-89396494D01*
X145490593Y-89614331D01*
X145642449Y-90029175D01*
X145799601Y-90456340D01*
X145935287Y-90823140D01*
X145973632Y-90926166D01*
X146171078Y-91455333D01*
X146458784Y-91455333D01*
X146447717Y-91424861D01*
X146197500Y-90736690D01*
X146058483Y-90354666D01*
X145752501Y-89517024D01*
X145497285Y-88825946D01*
X145287414Y-88268256D01*
X145117468Y-87830777D01*
X144982026Y-87500333D01*
X144875669Y-87263748D01*
X144792976Y-87107846D01*
X144728527Y-87019451D01*
X144676901Y-86985385D01*
X144672056Y-86984432D01*
X144629053Y-86974766D01*
X144592448Y-86969497D01*
X144556787Y-86982153D01*
G36*
X154692261Y-84267633D02*
G01*
X154616872Y-84407635D01*
X154522823Y-84662898D01*
X154434295Y-84934033D01*
X154332799Y-85266241D01*
X154260253Y-85532499D01*
X154226279Y-85695814D01*
X154227680Y-85728509D01*
X154320116Y-85764932D01*
X154537179Y-85834733D01*
X154840392Y-85925798D01*
X155011158Y-85975198D01*
X155408607Y-86079591D01*
X155660548Y-86122952D01*
X155778737Y-86107038D01*
X155789706Y-86091479D01*
X155861008Y-85860605D01*
X155946390Y-85566548D01*
X156032809Y-85256746D01*
X156107224Y-84978638D01*
X156156591Y-84779660D01*
X156169333Y-84710703D01*
X156089589Y-84645300D01*
X155860809Y-84546430D01*
X155498674Y-84419901D01*
X155018866Y-84271518D01*
X154851949Y-84222928D01*
X154765212Y-84215272D01*
X154692261Y-84267633D01*
G37*
X154692261Y-84267633D02*
X154616872Y-84407635D01*
X154522823Y-84662898D01*
X154434295Y-84934033D01*
X154332799Y-85266241D01*
X154260253Y-85532499D01*
X154226279Y-85695814D01*
X154227680Y-85728509D01*
X154320116Y-85764932D01*
X154537179Y-85834733D01*
X154840392Y-85925798D01*
X155011158Y-85975198D01*
X155408607Y-86079591D01*
X155660548Y-86122952D01*
X155778737Y-86107038D01*
X155789706Y-86091479D01*
X155861008Y-85860605D01*
X155946390Y-85566548D01*
X156032809Y-85256746D01*
X156107224Y-84978638D01*
X156156591Y-84779660D01*
X156169333Y-84710703D01*
X156089589Y-84645300D01*
X155860809Y-84546430D01*
X155498674Y-84419901D01*
X155018866Y-84271518D01*
X154851949Y-84222928D01*
X154765212Y-84215272D01*
X154692261Y-84267633D01*
%TD*%
M02*
