%TF.GenerationSoftware,KiCad,Pcbnew,5.1.9+dfsg1-1+deb11u1*%
%TF.CreationDate,2022-11-09T12:01:18+01:00*%
%TF.ProjectId,StandAlone-Adapter,5374616e-6441-46c6-9f6e-652d41646170,SMD Production*%
%TF.SameCoordinates,Original*%
%TF.FileFunction,Copper,L2,Bot*%
%TF.FilePolarity,Positive*%
%FSLAX46Y46*%
G04 Gerber Fmt 4.6, Leading zero omitted, Abs format (unit mm)*
G04 Created by KiCad (PCBNEW 5.1.9+dfsg1-1+deb11u1) date 2022-11-09 12:01:18*
%MOMM*%
%LPD*%
G01*
G04 APERTURE LIST*
%TA.AperFunction,ComponentPad*%
%ADD10O,1.700000X1.700000*%
%TD*%
%TA.AperFunction,ComponentPad*%
%ADD11R,1.700000X1.700000*%
%TD*%
%TA.AperFunction,ComponentPad*%
%ADD12C,4.000000*%
%TD*%
%TA.AperFunction,ComponentPad*%
%ADD13C,1.270000*%
%TD*%
%TA.AperFunction,ComponentPad*%
%ADD14C,3.600000*%
%TD*%
%TA.AperFunction,ComponentPad*%
%ADD15O,1.727200X1.727200*%
%TD*%
%TA.AperFunction,ComponentPad*%
%ADD16R,1.727200X1.727200*%
%TD*%
%TA.AperFunction,WasherPad*%
%ADD17C,2.000000*%
%TD*%
%TA.AperFunction,ComponentPad*%
%ADD18C,1.700000*%
%TD*%
%TA.AperFunction,ViaPad*%
%ADD19C,0.600000*%
%TD*%
%TA.AperFunction,Conductor*%
%ADD20C,0.250000*%
%TD*%
%TA.AperFunction,Conductor*%
%ADD21C,0.254000*%
%TD*%
%TA.AperFunction,Conductor*%
%ADD22C,0.100000*%
%TD*%
G04 APERTURE END LIST*
D10*
%TO.P,EN1,2*%
%TO.N,GND*%
X130000000Y-96040000D03*
D11*
%TO.P,EN1,1*%
%TO.N,NRST*%
X130000000Y-93500000D03*
%TD*%
D12*
%TO.P,H1,1*%
%TO.N,Net-(H1-Pad1)*%
X111760000Y-121920000D03*
%TD*%
%TO.P,H2,1*%
%TO.N,Net-(H2-Pad1)*%
X185420000Y-68580000D03*
%TD*%
%TO.P,H3,1*%
%TO.N,Net-(H3-Pad1)*%
X185420000Y-121920000D03*
%TD*%
%TO.P,H4,1*%
%TO.N,Net-(H4-Pad1)*%
X111760000Y-68580000D03*
%TD*%
D13*
%TO.P,J1,3*%
%TO.N,KBD_DATA*%
X150965000Y-107770000D03*
D14*
%TO.P,J1,5*%
%TO.N,N/C*%
X147790000Y-116650000D03*
X155410000Y-116650000D03*
D13*
%TO.P,J1,1*%
%TO.N,+5V*%
X153505000Y-107770000D03*
%TO.P,J1,4*%
%TO.N,GND*%
X149695000Y-110300000D03*
%TO.P,J1,2*%
%TO.N,KBD_CLOCK*%
X152235000Y-110300000D03*
%TD*%
D10*
%TO.P,J2,3*%
%TO.N,GND*%
X138580000Y-72500000D03*
%TO.P,J2,2*%
%TO.N,BOOT0*%
X136040000Y-72500000D03*
D11*
%TO.P,J2,1*%
%TO.N,VCC3V3*%
X133500000Y-72500000D03*
%TD*%
D15*
%TO.P,J3,6*%
%TO.N,+5V*%
X125040000Y-115080000D03*
%TO.P,J3,5*%
%TO.N,KBD_RESET*%
X122500000Y-115080000D03*
%TO.P,J3,4*%
%TO.N,GND*%
X125040000Y-112540000D03*
%TO.P,J3,3*%
X122500000Y-112540000D03*
%TO.P,J3,2*%
%TO.N,KBD_DATA*%
X125040000Y-110000000D03*
D16*
%TO.P,J3,1*%
%TO.N,KBD_CLOCK*%
X122500000Y-110000000D03*
%TD*%
D10*
%TO.P,J5,5*%
%TO.N,+5V*%
X177000000Y-114160000D03*
%TO.P,J5,4*%
%TO.N,GND*%
X177000000Y-111620000D03*
%TO.P,J5,3*%
%TO.N,Net-(J5-Pad3)*%
X177000000Y-109080000D03*
%TO.P,J5,2*%
%TO.N,KBD_DATA*%
X177000000Y-106540000D03*
D11*
%TO.P,J5,1*%
%TO.N,KBD_CLOCK*%
X177000000Y-104000000D03*
%TD*%
D10*
%TO.P,J6,3*%
%TO.N,GND*%
X138580000Y-68500000D03*
%TO.P,J6,2*%
%TO.N,BOOT1*%
X136040000Y-68500000D03*
D11*
%TO.P,J6,1*%
%TO.N,VCC3V3*%
X133500000Y-68500000D03*
%TD*%
D10*
%TO.P,J7,3*%
%TO.N,UART_TX_TTL*%
X182080000Y-95000000D03*
%TO.P,J7,2*%
%TO.N,UART_RX_TTL*%
X179540000Y-95000000D03*
D11*
%TO.P,J7,1*%
%TO.N,GND*%
X177000000Y-95000000D03*
%TD*%
D10*
%TO.P,J8,2*%
%TO.N,GND*%
X177000000Y-120000000D03*
D11*
%TO.P,J8,1*%
%TO.N,KBD_RESET*%
X174460000Y-120000000D03*
%TD*%
D10*
%TO.P,J9,2*%
%TO.N,TP1*%
X133000000Y-81540000D03*
D11*
%TO.P,J9,1*%
%TO.N,TP2*%
X133000000Y-79000000D03*
%TD*%
D10*
%TO.P,J10,4*%
%TO.N,VCC12V*%
X177000000Y-86620000D03*
%TO.P,J10,3*%
%TO.N,GND*%
X177000000Y-84080000D03*
%TO.P,J10,2*%
X177000000Y-81540000D03*
D11*
%TO.P,J10,1*%
%TO.N,+5V*%
X177000000Y-79000000D03*
%TD*%
D10*
%TO.P,J11,2*%
%TO.N,USB_ID*%
X161500000Y-71040000D03*
D11*
%TO.P,J11,1*%
%TO.N,GND*%
X161500000Y-68500000D03*
%TD*%
D17*
%TO.P,USB1,*%
%TO.N,*%
X152430000Y-76440000D03*
X148230000Y-76440000D03*
%TD*%
%TO.P,J4,1*%
%TO.N,Net-(J4-Pad1)*%
%TA.AperFunction,ComponentPad*%
G36*
G01*
X118150000Y-73600000D02*
X118150000Y-72400000D01*
G75*
G02*
X118400000Y-72150000I250000J0D01*
G01*
X119600000Y-72150000D01*
G75*
G02*
X119850000Y-72400000I0J-250000D01*
G01*
X119850000Y-73600000D01*
G75*
G02*
X119600000Y-73850000I-250000J0D01*
G01*
X118400000Y-73850000D01*
G75*
G02*
X118150000Y-73600000I0J250000D01*
G01*
G37*
%TD.AperFunction*%
D18*
%TO.P,J4,3*%
%TO.N,Net-(J4-Pad3)*%
X119000000Y-75540000D03*
%TO.P,J4,5*%
%TO.N,GND*%
X119000000Y-78080000D03*
%TO.P,J4,7*%
%TO.N,Net-(J4-Pad7)*%
X119000000Y-80620000D03*
%TO.P,J4,9*%
%TO.N,Net-(J4-Pad9)*%
X119000000Y-83160000D03*
%TO.P,J4,2*%
%TO.N,SWDCLK*%
X121540000Y-73000000D03*
%TO.P,J4,4*%
%TO.N,SWDIO*%
X121540000Y-75540000D03*
%TO.P,J4,6*%
%TO.N,GND*%
X121540000Y-78080000D03*
%TO.P,J4,8*%
%TO.N,VCC3V3*%
X121540000Y-80620000D03*
%TO.P,J4,10*%
%TO.N,Net-(J4-Pad10)*%
X121540000Y-83160000D03*
%TD*%
D19*
%TO.N,GND*%
X134163200Y-87554600D03*
%TO.N,VCC3V3*%
X148302700Y-97739400D03*
X148245900Y-103482600D03*
X144378700Y-98338300D03*
X144759200Y-87241400D03*
%TO.N,Net-(D4-Pad1)*%
X131487500Y-100565500D03*
X131834900Y-89901400D03*
%TO.N,KBD_3v3_DATA*%
X144787200Y-106025300D03*
X149726300Y-101165400D03*
%TO.N,KBD_3v3_CLOCK*%
X142550000Y-111555800D03*
X148568100Y-98581600D03*
%TO.N,TP1*%
X151180800Y-101169800D03*
%TO.N,SWDCLK*%
X127859400Y-90315500D03*
%TO.N,TP2*%
X152050000Y-98594600D03*
%TO.N,USB_ID*%
X148783300Y-87120000D03*
%TO.N,USB_N*%
X139523200Y-79044900D03*
X146486200Y-89843400D03*
%TO.N,UART_RX_TTL*%
X140586200Y-94861000D03*
X148040000Y-96767900D03*
%TO.N,UART_TX_TTL*%
X139817000Y-94120900D03*
X150523000Y-97992900D03*
%TO.N,Net-(C7-Pad1)*%
X157191400Y-102806700D03*
X153189500Y-91652000D03*
%TD*%
D20*
%TO.N,KBD_CLOCK*%
X152235000Y-110300000D02*
X149903400Y-112631600D01*
X149903400Y-112631600D02*
X141575300Y-112631600D01*
X141575300Y-112631600D02*
X140132600Y-111188900D01*
X140132600Y-111188900D02*
X124506200Y-111188900D01*
X124506200Y-111188900D02*
X123688900Y-110371600D01*
X123688900Y-110371600D02*
X123688900Y-110000000D01*
X122500000Y-110000000D02*
X123688900Y-110000000D01*
%TO.N,KBD_DATA*%
X150965000Y-107770000D02*
X150214800Y-107770000D01*
X150214800Y-107770000D02*
X145803600Y-112181200D01*
X145803600Y-112181200D02*
X141838600Y-112181200D01*
X141838600Y-112181200D02*
X139657400Y-110000000D01*
X139657400Y-110000000D02*
X125040000Y-110000000D01*
%TO.N,GND*%
X122500000Y-112540000D02*
X122500000Y-111351100D01*
X130000000Y-95452300D02*
X121311100Y-104141200D01*
X121311100Y-104141200D02*
X121311100Y-111053900D01*
X121311100Y-111053900D02*
X121608300Y-111351100D01*
X121608300Y-111351100D02*
X122500000Y-111351100D01*
X130000000Y-95452300D02*
X130000000Y-94864700D01*
X130000000Y-96040000D02*
X130000000Y-95452300D01*
X131175300Y-88999500D02*
X131175300Y-94497500D01*
X131175300Y-94497500D02*
X130808100Y-94864700D01*
X130808100Y-94864700D02*
X130000000Y-94864700D01*
X134163200Y-87554600D02*
X132718300Y-88999500D01*
X132718300Y-88999500D02*
X131175300Y-88999500D01*
X131175300Y-88999500D02*
X124112500Y-81936700D01*
X124112500Y-81936700D02*
X121155700Y-81936700D01*
X121155700Y-81936700D02*
X120364600Y-81145600D01*
X120364600Y-81145600D02*
X120364600Y-79255400D01*
X138580000Y-72500000D02*
X138580000Y-71324700D01*
X137992400Y-68500000D02*
X137992400Y-70737100D01*
X137992400Y-70737100D02*
X138580000Y-71324700D01*
X137992400Y-68500000D02*
X137404700Y-68500000D01*
X138580000Y-68500000D02*
X137992400Y-68500000D01*
X161500000Y-68500000D02*
X168695300Y-68500000D01*
X168695300Y-68500000D02*
X178175400Y-77980100D01*
X178175400Y-77980100D02*
X178175400Y-80364600D01*
X178175400Y-80364600D02*
X177000000Y-81540000D01*
X120364600Y-79255400D02*
X121540000Y-78080000D01*
X120364600Y-79255400D02*
X120175400Y-79255400D01*
X120175400Y-79255400D02*
X119000000Y-78080000D01*
X121540000Y-78080000D02*
X132295300Y-67324700D01*
X132295300Y-67324700D02*
X136596800Y-67324700D01*
X136596800Y-67324700D02*
X137404700Y-68132600D01*
X137404700Y-68132600D02*
X137404700Y-68500000D01*
X178175300Y-111620000D02*
X178175300Y-117649400D01*
X178175300Y-117649400D02*
X177000000Y-118824700D01*
X177000000Y-111620000D02*
X178175300Y-111620000D01*
X177000000Y-120000000D02*
X177000000Y-118824700D01*
X178175300Y-111620000D02*
X178175300Y-97350600D01*
X178175300Y-97350600D02*
X177000000Y-96175300D01*
X177000000Y-95000000D02*
X177000000Y-96175300D01*
X177000000Y-84080000D02*
X177000000Y-85255300D01*
X177000000Y-95000000D02*
X177000000Y-93824700D01*
X177000000Y-93824700D02*
X178175300Y-92649400D01*
X178175300Y-92649400D02*
X178175300Y-86063200D01*
X178175300Y-86063200D02*
X177367400Y-85255300D01*
X177367400Y-85255300D02*
X177000000Y-85255300D01*
X177000000Y-81540000D02*
X177000000Y-84080000D01*
%TO.N,VCC3V3*%
X150395300Y-101409100D02*
X150835100Y-101848900D01*
X150835100Y-101848900D02*
X151419200Y-101848900D01*
X151419200Y-101848900D02*
X152677500Y-100590600D01*
X152677500Y-100590600D02*
X152677500Y-95150300D01*
X152677500Y-95150300D02*
X144768600Y-87241400D01*
X144768600Y-87241400D02*
X144759200Y-87241400D01*
X150395300Y-101409100D02*
X150395300Y-99524400D01*
X150395300Y-99524400D02*
X148774800Y-97903900D01*
X148774800Y-97903900D02*
X148302700Y-97903900D01*
X148302700Y-97903900D02*
X148302700Y-97739400D01*
X148302700Y-97903900D02*
X144813100Y-97903900D01*
X144813100Y-97903900D02*
X144378700Y-98338300D01*
X150395300Y-101409100D02*
X148321800Y-103482600D01*
X148321800Y-103482600D02*
X148245900Y-103482600D01*
X133500000Y-72500000D02*
X132324700Y-72500000D01*
X121540000Y-80620000D02*
X124204700Y-80620000D01*
X124204700Y-80620000D02*
X132324700Y-72500000D01*
X133500000Y-72500000D02*
X134675300Y-72500000D01*
X134675300Y-72500000D02*
X134675300Y-73301400D01*
X134675300Y-73301400D02*
X144759200Y-83385300D01*
X144759200Y-83385300D02*
X144759200Y-87241400D01*
X133500000Y-68500000D02*
X133500000Y-72500000D01*
%TO.N,+5V*%
X153505000Y-107770000D02*
X153505000Y-110403700D01*
X153505000Y-110403700D02*
X150017600Y-113891100D01*
X150017600Y-113891100D02*
X127417800Y-113891100D01*
X127417800Y-113891100D02*
X126228900Y-115080000D01*
X175824700Y-107770000D02*
X153505000Y-107770000D01*
X125040000Y-115080000D02*
X126228900Y-115080000D01*
X175824700Y-107770000D02*
X175824700Y-112176800D01*
X175824700Y-112176800D02*
X176632600Y-112984700D01*
X176632600Y-112984700D02*
X177000000Y-112984700D01*
X177000000Y-80175300D02*
X176632700Y-80175300D01*
X176632700Y-80175300D02*
X175824700Y-80983300D01*
X175824700Y-80983300D02*
X175824700Y-107770000D01*
X177000000Y-114160000D02*
X177000000Y-112984700D01*
X177000000Y-79000000D02*
X177000000Y-80175300D01*
%TO.N,Net-(D4-Pad1)*%
X131834900Y-89901400D02*
X131834900Y-100218100D01*
X131834900Y-100218100D02*
X131487500Y-100565500D01*
%TO.N,KBD_3v3_DATA*%
X149726300Y-101165400D02*
X149647100Y-101165400D01*
X149647100Y-101165400D02*
X144787200Y-106025300D01*
%TO.N,KBD_3v3_CLOCK*%
X148568100Y-98581600D02*
X142550000Y-104599700D01*
X142550000Y-104599700D02*
X142550000Y-111555800D01*
%TO.N,TP1*%
X151180800Y-101169800D02*
X151180800Y-97759100D01*
X151180800Y-97759100D02*
X134961700Y-81540000D01*
X134961700Y-81540000D02*
X133000000Y-81540000D01*
%TO.N,SWDCLK*%
X121540000Y-73000000D02*
X120269500Y-74270500D01*
X120269500Y-74270500D02*
X118587800Y-74270500D01*
X118587800Y-74270500D02*
X117792600Y-75065700D01*
X117792600Y-75065700D02*
X117792600Y-81075000D01*
X117792600Y-81075000D02*
X118625500Y-81907900D01*
X118625500Y-81907900D02*
X119498100Y-81907900D01*
X119498100Y-81907900D02*
X120270000Y-82679800D01*
X120270000Y-82679800D02*
X120270000Y-83611000D01*
X120270000Y-83611000D02*
X126974500Y-90315500D01*
X126974500Y-90315500D02*
X127859400Y-90315500D01*
%TO.N,TP2*%
X134175300Y-79000000D02*
X152050000Y-96874700D01*
X152050000Y-96874700D02*
X152050000Y-98594600D01*
X133000000Y-79000000D02*
X134175300Y-79000000D01*
%TO.N,USB_ID*%
X148783300Y-87120000D02*
X161500000Y-74403300D01*
X161500000Y-74403300D02*
X161500000Y-71040000D01*
%TO.N,USB_N*%
X146486200Y-89843400D02*
X146385000Y-89843400D01*
X146385000Y-89843400D02*
X139523200Y-82981600D01*
X139523200Y-82981600D02*
X139523200Y-79044900D01*
%TO.N,UART_RX_TTL*%
X140586200Y-94861000D02*
X142493000Y-96767800D01*
X142493000Y-96767800D02*
X148040000Y-96767800D01*
X148040000Y-96767800D02*
X148040000Y-96767900D01*
%TO.N,UART_TX_TTL*%
X139817000Y-94120900D02*
X146651000Y-94120900D01*
X146651000Y-94120900D02*
X150523000Y-97992900D01*
%TO.N,Net-(C7-Pad1)*%
X157191400Y-102806700D02*
X157191400Y-95653900D01*
X157191400Y-95653900D02*
X153189500Y-91652000D01*
%TD*%
D21*
%TO.N,GND*%
X183373262Y-66900285D02*
X183084893Y-67331859D01*
X182886261Y-67811399D01*
X182785000Y-68320475D01*
X182785000Y-68839525D01*
X182886261Y-69348601D01*
X183084893Y-69828141D01*
X183373262Y-70259715D01*
X183740285Y-70626738D01*
X184171859Y-70915107D01*
X184651399Y-71113739D01*
X185160475Y-71215000D01*
X185679525Y-71215000D01*
X186188601Y-71113739D01*
X186668141Y-70915107D01*
X187099715Y-70626738D01*
X187250000Y-70476453D01*
X187250001Y-120023548D01*
X187099715Y-119873262D01*
X186668141Y-119584893D01*
X186188601Y-119386261D01*
X185679525Y-119285000D01*
X185160475Y-119285000D01*
X184651399Y-119386261D01*
X184171859Y-119584893D01*
X183740285Y-119873262D01*
X183373262Y-120240285D01*
X183084893Y-120671859D01*
X182886261Y-121151399D01*
X182785000Y-121660475D01*
X182785000Y-122179525D01*
X182886261Y-122688601D01*
X183084893Y-123168141D01*
X183373262Y-123599715D01*
X183523547Y-123750000D01*
X113656453Y-123750000D01*
X113806738Y-123599715D01*
X114095107Y-123168141D01*
X114293739Y-122688601D01*
X114395000Y-122179525D01*
X114395000Y-121660475D01*
X114293739Y-121151399D01*
X114095107Y-120671859D01*
X113806738Y-120240285D01*
X113439715Y-119873262D01*
X113008141Y-119584893D01*
X112528601Y-119386261D01*
X112019525Y-119285000D01*
X111500475Y-119285000D01*
X110991399Y-119386261D01*
X110511859Y-119584893D01*
X110080285Y-119873262D01*
X109930000Y-120023547D01*
X109930000Y-119150000D01*
X172971928Y-119150000D01*
X172971928Y-120850000D01*
X172984188Y-120974482D01*
X173020498Y-121094180D01*
X173079463Y-121204494D01*
X173158815Y-121301185D01*
X173255506Y-121380537D01*
X173365820Y-121439502D01*
X173485518Y-121475812D01*
X173610000Y-121488072D01*
X175310000Y-121488072D01*
X175434482Y-121475812D01*
X175554180Y-121439502D01*
X175664494Y-121380537D01*
X175761185Y-121301185D01*
X175840537Y-121204494D01*
X175899502Y-121094180D01*
X175923966Y-121013534D01*
X175999731Y-121097588D01*
X176233080Y-121271641D01*
X176495901Y-121396825D01*
X176643110Y-121441476D01*
X176873000Y-121320155D01*
X176873000Y-120127000D01*
X177127000Y-120127000D01*
X177127000Y-121320155D01*
X177356890Y-121441476D01*
X177504099Y-121396825D01*
X177766920Y-121271641D01*
X178000269Y-121097588D01*
X178195178Y-120881355D01*
X178344157Y-120631252D01*
X178441481Y-120356891D01*
X178320814Y-120127000D01*
X177127000Y-120127000D01*
X176873000Y-120127000D01*
X176853000Y-120127000D01*
X176853000Y-119873000D01*
X176873000Y-119873000D01*
X176873000Y-118679845D01*
X177127000Y-118679845D01*
X177127000Y-119873000D01*
X178320814Y-119873000D01*
X178441481Y-119643109D01*
X178344157Y-119368748D01*
X178195178Y-119118645D01*
X178000269Y-118902412D01*
X177766920Y-118728359D01*
X177504099Y-118603175D01*
X177356890Y-118558524D01*
X177127000Y-118679845D01*
X176873000Y-118679845D01*
X176643110Y-118558524D01*
X176495901Y-118603175D01*
X176233080Y-118728359D01*
X175999731Y-118902412D01*
X175923966Y-118986466D01*
X175899502Y-118905820D01*
X175840537Y-118795506D01*
X175761185Y-118698815D01*
X175664494Y-118619463D01*
X175554180Y-118560498D01*
X175434482Y-118524188D01*
X175310000Y-118511928D01*
X173610000Y-118511928D01*
X173485518Y-118524188D01*
X173365820Y-118560498D01*
X173255506Y-118619463D01*
X173158815Y-118698815D01*
X173079463Y-118795506D01*
X173020498Y-118905820D01*
X172984188Y-119025518D01*
X172971928Y-119150000D01*
X109930000Y-119150000D01*
X109930000Y-96396890D01*
X128558524Y-96396890D01*
X128603175Y-96544099D01*
X128728359Y-96806920D01*
X128902412Y-97040269D01*
X129118645Y-97235178D01*
X129368748Y-97384157D01*
X129643109Y-97481481D01*
X129873000Y-97360814D01*
X129873000Y-96167000D01*
X128679845Y-96167000D01*
X128558524Y-96396890D01*
X109930000Y-96396890D01*
X109930000Y-92650000D01*
X128511928Y-92650000D01*
X128511928Y-94350000D01*
X128524188Y-94474482D01*
X128560498Y-94594180D01*
X128619463Y-94704494D01*
X128698815Y-94801185D01*
X128795506Y-94880537D01*
X128905820Y-94939502D01*
X128986466Y-94963966D01*
X128902412Y-95039731D01*
X128728359Y-95273080D01*
X128603175Y-95535901D01*
X128558524Y-95683110D01*
X128679845Y-95913000D01*
X129873000Y-95913000D01*
X129873000Y-95893000D01*
X130127000Y-95893000D01*
X130127000Y-95913000D01*
X130147000Y-95913000D01*
X130147000Y-96167000D01*
X130127000Y-96167000D01*
X130127000Y-97360814D01*
X130356891Y-97481481D01*
X130631252Y-97384157D01*
X130881355Y-97235178D01*
X131074901Y-97060719D01*
X131074901Y-99724368D01*
X131044611Y-99736914D01*
X130891472Y-99839238D01*
X130761238Y-99969472D01*
X130658914Y-100122611D01*
X130588432Y-100292771D01*
X130552500Y-100473411D01*
X130552500Y-100657589D01*
X130588432Y-100838229D01*
X130658914Y-101008389D01*
X130761238Y-101161528D01*
X130891472Y-101291762D01*
X131044611Y-101394086D01*
X131214771Y-101464568D01*
X131395411Y-101500500D01*
X131579589Y-101500500D01*
X131760229Y-101464568D01*
X131930389Y-101394086D01*
X132083528Y-101291762D01*
X132213762Y-101161528D01*
X132316086Y-101008389D01*
X132386568Y-100838229D01*
X132411338Y-100713702D01*
X132469874Y-100642376D01*
X132540446Y-100510347D01*
X132583903Y-100367086D01*
X132594900Y-100255433D01*
X132594900Y-100255425D01*
X132598576Y-100218100D01*
X132594900Y-100180775D01*
X132594900Y-90446935D01*
X132663486Y-90344289D01*
X132733968Y-90174129D01*
X132769900Y-89993489D01*
X132769900Y-89809311D01*
X132733968Y-89628671D01*
X132663486Y-89458511D01*
X132561162Y-89305372D01*
X132430928Y-89175138D01*
X132277789Y-89072814D01*
X132107629Y-89002332D01*
X131926989Y-88966400D01*
X131742811Y-88966400D01*
X131562171Y-89002332D01*
X131392011Y-89072814D01*
X131238872Y-89175138D01*
X131108638Y-89305372D01*
X131006314Y-89458511D01*
X130935832Y-89628671D01*
X130899900Y-89809311D01*
X130899900Y-89993489D01*
X130935832Y-90174129D01*
X131006314Y-90344289D01*
X131074900Y-90446935D01*
X131074900Y-92054650D01*
X130974482Y-92024188D01*
X130850000Y-92011928D01*
X129150000Y-92011928D01*
X129025518Y-92024188D01*
X128905820Y-92060498D01*
X128795506Y-92119463D01*
X128698815Y-92198815D01*
X128619463Y-92295506D01*
X128560498Y-92405820D01*
X128524188Y-92525518D01*
X128511928Y-92650000D01*
X109930000Y-92650000D01*
X109930000Y-75065700D01*
X117028924Y-75065700D01*
X117032600Y-75103023D01*
X117032601Y-81037668D01*
X117028924Y-81075000D01*
X117043598Y-81223985D01*
X117087054Y-81367246D01*
X117157626Y-81499276D01*
X117228801Y-81586002D01*
X117252600Y-81615001D01*
X117281598Y-81638799D01*
X117851345Y-82208548D01*
X117846525Y-82213368D01*
X117684010Y-82456589D01*
X117572068Y-82726842D01*
X117515000Y-83013740D01*
X117515000Y-83306260D01*
X117572068Y-83593158D01*
X117684010Y-83863411D01*
X117846525Y-84106632D01*
X118053368Y-84313475D01*
X118296589Y-84475990D01*
X118566842Y-84587932D01*
X118853740Y-84645000D01*
X119146260Y-84645000D01*
X119433158Y-84587932D01*
X119703411Y-84475990D01*
X119917284Y-84333085D01*
X126410701Y-90826503D01*
X126434499Y-90855501D01*
X126550224Y-90950474D01*
X126682253Y-91021046D01*
X126825514Y-91064503D01*
X126937167Y-91075500D01*
X126937177Y-91075500D01*
X126974500Y-91079176D01*
X127011823Y-91075500D01*
X127313865Y-91075500D01*
X127416511Y-91144086D01*
X127586671Y-91214568D01*
X127767311Y-91250500D01*
X127951489Y-91250500D01*
X128132129Y-91214568D01*
X128302289Y-91144086D01*
X128455428Y-91041762D01*
X128585662Y-90911528D01*
X128687986Y-90758389D01*
X128758468Y-90588229D01*
X128794400Y-90407589D01*
X128794400Y-90223411D01*
X128758468Y-90042771D01*
X128687986Y-89872611D01*
X128585662Y-89719472D01*
X128455428Y-89589238D01*
X128302289Y-89486914D01*
X128132129Y-89416432D01*
X127951489Y-89380500D01*
X127767311Y-89380500D01*
X127586671Y-89416432D01*
X127416511Y-89486914D01*
X127313865Y-89555500D01*
X127289302Y-89555500D01*
X122219638Y-84485837D01*
X122243411Y-84475990D01*
X122486632Y-84313475D01*
X122693475Y-84106632D01*
X122855990Y-83863411D01*
X122967932Y-83593158D01*
X123025000Y-83306260D01*
X123025000Y-83013740D01*
X122967932Y-82726842D01*
X122855990Y-82456589D01*
X122693475Y-82213368D01*
X122486632Y-82006525D01*
X122312240Y-81890000D01*
X122486632Y-81773475D01*
X122693475Y-81566632D01*
X122818178Y-81380000D01*
X124167378Y-81380000D01*
X124204700Y-81383676D01*
X124242022Y-81380000D01*
X124242033Y-81380000D01*
X124353686Y-81369003D01*
X124496947Y-81325546D01*
X124628976Y-81254974D01*
X124744701Y-81160001D01*
X124768504Y-81130997D01*
X132153515Y-73745987D01*
X132198815Y-73801185D01*
X132295506Y-73880537D01*
X132405820Y-73939502D01*
X132525518Y-73975812D01*
X132650000Y-73988072D01*
X134287171Y-73988072D01*
X138777324Y-78478226D01*
X138694614Y-78602011D01*
X138624132Y-78772171D01*
X138588200Y-78952811D01*
X138588200Y-79136989D01*
X138624132Y-79317629D01*
X138694614Y-79487789D01*
X138763201Y-79590437D01*
X138763200Y-82513099D01*
X134739104Y-78489003D01*
X134715301Y-78459999D01*
X134599576Y-78365026D01*
X134488072Y-78305425D01*
X134488072Y-78150000D01*
X134475812Y-78025518D01*
X134439502Y-77905820D01*
X134380537Y-77795506D01*
X134301185Y-77698815D01*
X134204494Y-77619463D01*
X134094180Y-77560498D01*
X133974482Y-77524188D01*
X133850000Y-77511928D01*
X132150000Y-77511928D01*
X132025518Y-77524188D01*
X131905820Y-77560498D01*
X131795506Y-77619463D01*
X131698815Y-77698815D01*
X131619463Y-77795506D01*
X131560498Y-77905820D01*
X131524188Y-78025518D01*
X131511928Y-78150000D01*
X131511928Y-79850000D01*
X131524188Y-79974482D01*
X131560498Y-80094180D01*
X131619463Y-80204494D01*
X131698815Y-80301185D01*
X131795506Y-80380537D01*
X131905820Y-80439502D01*
X131978380Y-80461513D01*
X131846525Y-80593368D01*
X131684010Y-80836589D01*
X131572068Y-81106842D01*
X131515000Y-81393740D01*
X131515000Y-81686260D01*
X131572068Y-81973158D01*
X131684010Y-82243411D01*
X131846525Y-82486632D01*
X132053368Y-82693475D01*
X132296589Y-82855990D01*
X132566842Y-82967932D01*
X132853740Y-83025000D01*
X133146260Y-83025000D01*
X133433158Y-82967932D01*
X133703411Y-82855990D01*
X133946632Y-82693475D01*
X134153475Y-82486632D01*
X134278178Y-82300000D01*
X134646899Y-82300000D01*
X145707798Y-93360900D01*
X140362535Y-93360900D01*
X140259889Y-93292314D01*
X140089729Y-93221832D01*
X139909089Y-93185900D01*
X139724911Y-93185900D01*
X139544271Y-93221832D01*
X139374111Y-93292314D01*
X139220972Y-93394638D01*
X139090738Y-93524872D01*
X138988414Y-93678011D01*
X138917932Y-93848171D01*
X138882000Y-94028811D01*
X138882000Y-94212989D01*
X138917932Y-94393629D01*
X138988414Y-94563789D01*
X139090738Y-94716928D01*
X139220972Y-94847162D01*
X139374111Y-94949486D01*
X139544271Y-95019968D01*
X139669456Y-95044869D01*
X139687132Y-95133729D01*
X139757614Y-95303889D01*
X139859938Y-95457028D01*
X139990172Y-95587262D01*
X140143311Y-95689586D01*
X140313471Y-95760068D01*
X140434551Y-95784153D01*
X141929205Y-97278808D01*
X141952999Y-97307801D01*
X141981992Y-97331595D01*
X141981996Y-97331599D01*
X142021390Y-97363928D01*
X142068724Y-97402774D01*
X142200753Y-97473346D01*
X142344014Y-97516803D01*
X142455667Y-97527800D01*
X142455676Y-97527800D01*
X142492999Y-97531476D01*
X142530322Y-97527800D01*
X143908743Y-97527800D01*
X143782672Y-97612038D01*
X143652438Y-97742272D01*
X143550114Y-97895411D01*
X143479632Y-98065571D01*
X143443700Y-98246211D01*
X143443700Y-98430389D01*
X143479632Y-98611029D01*
X143550114Y-98781189D01*
X143652438Y-98934328D01*
X143782672Y-99064562D01*
X143935811Y-99166886D01*
X144105971Y-99237368D01*
X144286611Y-99273300D01*
X144470789Y-99273300D01*
X144651429Y-99237368D01*
X144821589Y-99166886D01*
X144974728Y-99064562D01*
X145104962Y-98934328D01*
X145207286Y-98781189D01*
X145255868Y-98663900D01*
X147410998Y-98663900D01*
X142039003Y-104035896D01*
X142009999Y-104059699D01*
X141962503Y-104117574D01*
X141915026Y-104175424D01*
X141877155Y-104246276D01*
X141844454Y-104307454D01*
X141800997Y-104450715D01*
X141790000Y-104562368D01*
X141790000Y-104562378D01*
X141786324Y-104599700D01*
X141790000Y-104637023D01*
X141790001Y-111010263D01*
X141770961Y-111038759D01*
X140221204Y-109489003D01*
X140197401Y-109459999D01*
X140081676Y-109365026D01*
X139949647Y-109294454D01*
X139806386Y-109250997D01*
X139694733Y-109240000D01*
X139694722Y-109240000D01*
X139657400Y-109236324D01*
X139620078Y-109240000D01*
X126334535Y-109240000D01*
X126204039Y-109044698D01*
X125995302Y-108835961D01*
X125749853Y-108671958D01*
X125477125Y-108558990D01*
X125187599Y-108501400D01*
X124892401Y-108501400D01*
X124602875Y-108558990D01*
X124330147Y-108671958D01*
X124084698Y-108835961D01*
X123970636Y-108950023D01*
X123953102Y-108892220D01*
X123894137Y-108781906D01*
X123814785Y-108685215D01*
X123718094Y-108605863D01*
X123607780Y-108546898D01*
X123488082Y-108510588D01*
X123363600Y-108498328D01*
X121636400Y-108498328D01*
X121511918Y-108510588D01*
X121392220Y-108546898D01*
X121281906Y-108605863D01*
X121185215Y-108685215D01*
X121105863Y-108781906D01*
X121046898Y-108892220D01*
X121010588Y-109011918D01*
X120998328Y-109136400D01*
X120998328Y-110863600D01*
X121010588Y-110988082D01*
X121046898Y-111107780D01*
X121105863Y-111218094D01*
X121185215Y-111314785D01*
X121281906Y-111394137D01*
X121392220Y-111453102D01*
X121456574Y-111472624D01*
X121393146Y-111529707D01*
X121217316Y-111765056D01*
X121090778Y-112030186D01*
X121045042Y-112180974D01*
X121166183Y-112413000D01*
X122373000Y-112413000D01*
X122373000Y-112393000D01*
X122627000Y-112393000D01*
X122627000Y-112413000D01*
X124913000Y-112413000D01*
X124913000Y-112393000D01*
X125167000Y-112393000D01*
X125167000Y-112413000D01*
X126373817Y-112413000D01*
X126494958Y-112180974D01*
X126449222Y-112030186D01*
X126410427Y-111948900D01*
X139817799Y-111948900D01*
X140999998Y-113131100D01*
X127455133Y-113131100D01*
X127417800Y-113127423D01*
X127380467Y-113131100D01*
X127268814Y-113142097D01*
X127125553Y-113185554D01*
X126993524Y-113256126D01*
X126877799Y-113351099D01*
X126854001Y-113380097D01*
X126156720Y-114077379D01*
X125995302Y-113915961D01*
X125829897Y-113805441D01*
X125928488Y-113746817D01*
X126146854Y-113550293D01*
X126322684Y-113314944D01*
X126449222Y-113049814D01*
X126494958Y-112899026D01*
X126373817Y-112667000D01*
X125167000Y-112667000D01*
X125167000Y-112687000D01*
X124913000Y-112687000D01*
X124913000Y-112667000D01*
X122627000Y-112667000D01*
X122627000Y-112687000D01*
X122373000Y-112687000D01*
X122373000Y-112667000D01*
X121166183Y-112667000D01*
X121045042Y-112899026D01*
X121090778Y-113049814D01*
X121217316Y-113314944D01*
X121393146Y-113550293D01*
X121611512Y-113746817D01*
X121710103Y-113805441D01*
X121544698Y-113915961D01*
X121335961Y-114124698D01*
X121171958Y-114370147D01*
X121058990Y-114642875D01*
X121001400Y-114932401D01*
X121001400Y-115227599D01*
X121058990Y-115517125D01*
X121171958Y-115789853D01*
X121335961Y-116035302D01*
X121544698Y-116244039D01*
X121790147Y-116408042D01*
X122062875Y-116521010D01*
X122352401Y-116578600D01*
X122647599Y-116578600D01*
X122937125Y-116521010D01*
X123209853Y-116408042D01*
X123455302Y-116244039D01*
X123664039Y-116035302D01*
X123770000Y-115876719D01*
X123875961Y-116035302D01*
X124084698Y-116244039D01*
X124330147Y-116408042D01*
X124602875Y-116521010D01*
X124892401Y-116578600D01*
X125187599Y-116578600D01*
X125477125Y-116521010D01*
X125749853Y-116408042D01*
X125995302Y-116244039D01*
X126204039Y-116035302D01*
X126339347Y-115832799D01*
X126377886Y-115829003D01*
X126521147Y-115785546D01*
X126653176Y-115714974D01*
X126768901Y-115620001D01*
X126792704Y-115590997D01*
X127732602Y-114651100D01*
X146398681Y-114651100D01*
X146237778Y-114758612D01*
X145898612Y-115097778D01*
X145632131Y-115496595D01*
X145448576Y-115939737D01*
X145355000Y-116410173D01*
X145355000Y-116889827D01*
X145448576Y-117360263D01*
X145632131Y-117803405D01*
X145898612Y-118202222D01*
X146237778Y-118541388D01*
X146636595Y-118807869D01*
X147079737Y-118991424D01*
X147550173Y-119085000D01*
X148029827Y-119085000D01*
X148500263Y-118991424D01*
X148943405Y-118807869D01*
X149342222Y-118541388D01*
X149681388Y-118202222D01*
X149947869Y-117803405D01*
X150131424Y-117360263D01*
X150225000Y-116889827D01*
X150225000Y-116410173D01*
X152975000Y-116410173D01*
X152975000Y-116889827D01*
X153068576Y-117360263D01*
X153252131Y-117803405D01*
X153518612Y-118202222D01*
X153857778Y-118541388D01*
X154256595Y-118807869D01*
X154699737Y-118991424D01*
X155170173Y-119085000D01*
X155649827Y-119085000D01*
X156120263Y-118991424D01*
X156563405Y-118807869D01*
X156962222Y-118541388D01*
X157301388Y-118202222D01*
X157567869Y-117803405D01*
X157751424Y-117360263D01*
X157845000Y-116889827D01*
X157845000Y-116410173D01*
X157751424Y-115939737D01*
X157567869Y-115496595D01*
X157301388Y-115097778D01*
X156962222Y-114758612D01*
X156563405Y-114492131D01*
X156120263Y-114308576D01*
X155649827Y-114215000D01*
X155170173Y-114215000D01*
X154699737Y-114308576D01*
X154256595Y-114492131D01*
X153857778Y-114758612D01*
X153518612Y-115097778D01*
X153252131Y-115496595D01*
X153068576Y-115939737D01*
X152975000Y-116410173D01*
X150225000Y-116410173D01*
X150131424Y-115939737D01*
X149947869Y-115496595D01*
X149681388Y-115097778D01*
X149342222Y-114758612D01*
X149181319Y-114651100D01*
X149980278Y-114651100D01*
X150017600Y-114654776D01*
X150054922Y-114651100D01*
X150054933Y-114651100D01*
X150166586Y-114640103D01*
X150309847Y-114596646D01*
X150441876Y-114526074D01*
X150557601Y-114431101D01*
X150581404Y-114402097D01*
X154016008Y-110967495D01*
X154045001Y-110943701D01*
X154068795Y-110914708D01*
X154068799Y-110914704D01*
X154139973Y-110827977D01*
X154149046Y-110811003D01*
X154210546Y-110695947D01*
X154254003Y-110552686D01*
X154265000Y-110441033D01*
X154265000Y-110441024D01*
X154268676Y-110403701D01*
X154265000Y-110366378D01*
X154265000Y-108789600D01*
X154314578Y-108756473D01*
X154491473Y-108579578D01*
X154524600Y-108530000D01*
X175064700Y-108530000D01*
X175064701Y-112139468D01*
X175061024Y-112176800D01*
X175064701Y-112214133D01*
X175075698Y-112325786D01*
X175079814Y-112339354D01*
X175119154Y-112469046D01*
X175189726Y-112601076D01*
X175214777Y-112631600D01*
X175284700Y-112716801D01*
X175313698Y-112740599D01*
X175822469Y-113249371D01*
X175684010Y-113456589D01*
X175572068Y-113726842D01*
X175515000Y-114013740D01*
X175515000Y-114306260D01*
X175572068Y-114593158D01*
X175684010Y-114863411D01*
X175846525Y-115106632D01*
X176053368Y-115313475D01*
X176296589Y-115475990D01*
X176566842Y-115587932D01*
X176853740Y-115645000D01*
X177146260Y-115645000D01*
X177433158Y-115587932D01*
X177703411Y-115475990D01*
X177946632Y-115313475D01*
X178153475Y-115106632D01*
X178315990Y-114863411D01*
X178427932Y-114593158D01*
X178485000Y-114306260D01*
X178485000Y-114013740D01*
X178427932Y-113726842D01*
X178315990Y-113456589D01*
X178153475Y-113213368D01*
X177946632Y-113006525D01*
X177764466Y-112884805D01*
X177881355Y-112815178D01*
X178097588Y-112620269D01*
X178271641Y-112386920D01*
X178396825Y-112124099D01*
X178441476Y-111976890D01*
X178320155Y-111747000D01*
X177127000Y-111747000D01*
X177127000Y-111767000D01*
X176873000Y-111767000D01*
X176873000Y-111747000D01*
X176853000Y-111747000D01*
X176853000Y-111493000D01*
X176873000Y-111493000D01*
X176873000Y-111473000D01*
X177127000Y-111473000D01*
X177127000Y-111493000D01*
X178320155Y-111493000D01*
X178441476Y-111263110D01*
X178396825Y-111115901D01*
X178271641Y-110853080D01*
X178097588Y-110619731D01*
X177881355Y-110424822D01*
X177764466Y-110355195D01*
X177946632Y-110233475D01*
X178153475Y-110026632D01*
X178315990Y-109783411D01*
X178427932Y-109513158D01*
X178485000Y-109226260D01*
X178485000Y-108933740D01*
X178427932Y-108646842D01*
X178315990Y-108376589D01*
X178153475Y-108133368D01*
X177946632Y-107926525D01*
X177772240Y-107810000D01*
X177946632Y-107693475D01*
X178153475Y-107486632D01*
X178315990Y-107243411D01*
X178427932Y-106973158D01*
X178485000Y-106686260D01*
X178485000Y-106393740D01*
X178427932Y-106106842D01*
X178315990Y-105836589D01*
X178153475Y-105593368D01*
X178021620Y-105461513D01*
X178094180Y-105439502D01*
X178204494Y-105380537D01*
X178301185Y-105301185D01*
X178380537Y-105204494D01*
X178439502Y-105094180D01*
X178475812Y-104974482D01*
X178488072Y-104850000D01*
X178488072Y-103150000D01*
X178475812Y-103025518D01*
X178439502Y-102905820D01*
X178380537Y-102795506D01*
X178301185Y-102698815D01*
X178204494Y-102619463D01*
X178094180Y-102560498D01*
X177974482Y-102524188D01*
X177850000Y-102511928D01*
X176584700Y-102511928D01*
X176584700Y-96485705D01*
X176714250Y-96485000D01*
X176873000Y-96326250D01*
X176873000Y-95127000D01*
X176853000Y-95127000D01*
X176853000Y-94873000D01*
X176873000Y-94873000D01*
X176873000Y-93673750D01*
X177127000Y-93673750D01*
X177127000Y-94873000D01*
X177147000Y-94873000D01*
X177147000Y-95127000D01*
X177127000Y-95127000D01*
X177127000Y-96326250D01*
X177285750Y-96485000D01*
X177850000Y-96488072D01*
X177974482Y-96475812D01*
X178094180Y-96439502D01*
X178204494Y-96380537D01*
X178301185Y-96301185D01*
X178380537Y-96204494D01*
X178439502Y-96094180D01*
X178461513Y-96021620D01*
X178593368Y-96153475D01*
X178836589Y-96315990D01*
X179106842Y-96427932D01*
X179393740Y-96485000D01*
X179686260Y-96485000D01*
X179973158Y-96427932D01*
X180243411Y-96315990D01*
X180486632Y-96153475D01*
X180693475Y-95946632D01*
X180810000Y-95772240D01*
X180926525Y-95946632D01*
X181133368Y-96153475D01*
X181376589Y-96315990D01*
X181646842Y-96427932D01*
X181933740Y-96485000D01*
X182226260Y-96485000D01*
X182513158Y-96427932D01*
X182783411Y-96315990D01*
X183026632Y-96153475D01*
X183233475Y-95946632D01*
X183395990Y-95703411D01*
X183507932Y-95433158D01*
X183565000Y-95146260D01*
X183565000Y-94853740D01*
X183507932Y-94566842D01*
X183395990Y-94296589D01*
X183233475Y-94053368D01*
X183026632Y-93846525D01*
X182783411Y-93684010D01*
X182513158Y-93572068D01*
X182226260Y-93515000D01*
X181933740Y-93515000D01*
X181646842Y-93572068D01*
X181376589Y-93684010D01*
X181133368Y-93846525D01*
X180926525Y-94053368D01*
X180810000Y-94227760D01*
X180693475Y-94053368D01*
X180486632Y-93846525D01*
X180243411Y-93684010D01*
X179973158Y-93572068D01*
X179686260Y-93515000D01*
X179393740Y-93515000D01*
X179106842Y-93572068D01*
X178836589Y-93684010D01*
X178593368Y-93846525D01*
X178461513Y-93978380D01*
X178439502Y-93905820D01*
X178380537Y-93795506D01*
X178301185Y-93698815D01*
X178204494Y-93619463D01*
X178094180Y-93560498D01*
X177974482Y-93524188D01*
X177850000Y-93511928D01*
X177285750Y-93515000D01*
X177127000Y-93673750D01*
X176873000Y-93673750D01*
X176714250Y-93515000D01*
X176584700Y-93514295D01*
X176584700Y-88051484D01*
X176853740Y-88105000D01*
X177146260Y-88105000D01*
X177433158Y-88047932D01*
X177703411Y-87935990D01*
X177946632Y-87773475D01*
X178153475Y-87566632D01*
X178315990Y-87323411D01*
X178427932Y-87053158D01*
X178485000Y-86766260D01*
X178485000Y-86473740D01*
X178427932Y-86186842D01*
X178315990Y-85916589D01*
X178153475Y-85673368D01*
X177946632Y-85466525D01*
X177764466Y-85344805D01*
X177881355Y-85275178D01*
X178097588Y-85080269D01*
X178271641Y-84846920D01*
X178396825Y-84584099D01*
X178441476Y-84436890D01*
X178320155Y-84207000D01*
X177127000Y-84207000D01*
X177127000Y-84227000D01*
X176873000Y-84227000D01*
X176873000Y-84207000D01*
X176853000Y-84207000D01*
X176853000Y-83953000D01*
X176873000Y-83953000D01*
X176873000Y-81667000D01*
X177127000Y-81667000D01*
X177127000Y-83953000D01*
X178320155Y-83953000D01*
X178441476Y-83723110D01*
X178396825Y-83575901D01*
X178271641Y-83313080D01*
X178097588Y-83079731D01*
X177881355Y-82884822D01*
X177755745Y-82810000D01*
X177881355Y-82735178D01*
X178097588Y-82540269D01*
X178271641Y-82306920D01*
X178396825Y-82044099D01*
X178441476Y-81896890D01*
X178320155Y-81667000D01*
X177127000Y-81667000D01*
X176873000Y-81667000D01*
X176853000Y-81667000D01*
X176853000Y-81413000D01*
X176873000Y-81413000D01*
X176873000Y-81393000D01*
X177127000Y-81393000D01*
X177127000Y-81413000D01*
X178320155Y-81413000D01*
X178441476Y-81183110D01*
X178396825Y-81035901D01*
X178271641Y-80773080D01*
X178097588Y-80539731D01*
X178013534Y-80463966D01*
X178094180Y-80439502D01*
X178204494Y-80380537D01*
X178301185Y-80301185D01*
X178380537Y-80204494D01*
X178439502Y-80094180D01*
X178475812Y-79974482D01*
X178488072Y-79850000D01*
X178488072Y-78150000D01*
X178475812Y-78025518D01*
X178439502Y-77905820D01*
X178380537Y-77795506D01*
X178301185Y-77698815D01*
X178204494Y-77619463D01*
X178094180Y-77560498D01*
X177974482Y-77524188D01*
X177850000Y-77511928D01*
X176150000Y-77511928D01*
X176025518Y-77524188D01*
X175905820Y-77560498D01*
X175795506Y-77619463D01*
X175698815Y-77698815D01*
X175619463Y-77795506D01*
X175560498Y-77905820D01*
X175524188Y-78025518D01*
X175511928Y-78150000D01*
X175511928Y-79850000D01*
X175524188Y-79974482D01*
X175560498Y-80094180D01*
X175587849Y-80145350D01*
X175313702Y-80419497D01*
X175284699Y-80443299D01*
X175258017Y-80475812D01*
X175189726Y-80559024D01*
X175140711Y-80650724D01*
X175119154Y-80691054D01*
X175075697Y-80834315D01*
X175064700Y-80945968D01*
X175064700Y-80945978D01*
X175061024Y-80983300D01*
X175064700Y-81020622D01*
X175064701Y-107010000D01*
X154524600Y-107010000D01*
X154491473Y-106960422D01*
X154314578Y-106783527D01*
X154106571Y-106644541D01*
X153875445Y-106548805D01*
X153630084Y-106500000D01*
X153379916Y-106500000D01*
X153134555Y-106548805D01*
X152903429Y-106644541D01*
X152695422Y-106783527D01*
X152518527Y-106960422D01*
X152379541Y-107168429D01*
X152283805Y-107399555D01*
X152235000Y-107644916D01*
X152186195Y-107399555D01*
X152090459Y-107168429D01*
X151951473Y-106960422D01*
X151774578Y-106783527D01*
X151566571Y-106644541D01*
X151335445Y-106548805D01*
X151090084Y-106500000D01*
X150839916Y-106500000D01*
X150594555Y-106548805D01*
X150363429Y-106644541D01*
X150155422Y-106783527D01*
X149978527Y-106960422D01*
X149901493Y-107075711D01*
X149790524Y-107135026D01*
X149674799Y-107229999D01*
X149651001Y-107258997D01*
X145488799Y-111421200D01*
X143476544Y-111421200D01*
X143449068Y-111283071D01*
X143378586Y-111112911D01*
X143310000Y-111010265D01*
X143310000Y-104914501D01*
X148719749Y-99504753D01*
X148840829Y-99480668D01*
X149010989Y-99410186D01*
X149128060Y-99331962D01*
X149635301Y-99839203D01*
X149635301Y-100230400D01*
X149634211Y-100230400D01*
X149453571Y-100266332D01*
X149283411Y-100336814D01*
X149130272Y-100439138D01*
X149000038Y-100569372D01*
X148897714Y-100722511D01*
X148827232Y-100892671D01*
X148822814Y-100914884D01*
X144635552Y-105102147D01*
X144514471Y-105126232D01*
X144344311Y-105196714D01*
X144191172Y-105299038D01*
X144060938Y-105429272D01*
X143958614Y-105582411D01*
X143888132Y-105752571D01*
X143852200Y-105933211D01*
X143852200Y-106117389D01*
X143888132Y-106298029D01*
X143958614Y-106468189D01*
X144060938Y-106621328D01*
X144191172Y-106751562D01*
X144344311Y-106853886D01*
X144514471Y-106924368D01*
X144695111Y-106960300D01*
X144879289Y-106960300D01*
X145059929Y-106924368D01*
X145230089Y-106853886D01*
X145383228Y-106751562D01*
X145513462Y-106621328D01*
X145615786Y-106468189D01*
X145686268Y-106298029D01*
X145710353Y-106176948D01*
X147666997Y-104220305D01*
X147803011Y-104311186D01*
X147973171Y-104381668D01*
X148153811Y-104417600D01*
X148337989Y-104417600D01*
X148518629Y-104381668D01*
X148688789Y-104311186D01*
X148841928Y-104208862D01*
X148972162Y-104078628D01*
X149074486Y-103925489D01*
X149144968Y-103755329D01*
X149150206Y-103728995D01*
X150402312Y-102476889D01*
X150410823Y-102483874D01*
X150530045Y-102547600D01*
X150542853Y-102554446D01*
X150686114Y-102597903D01*
X150797767Y-102608900D01*
X150797776Y-102608900D01*
X150835099Y-102612576D01*
X150872422Y-102608900D01*
X151381878Y-102608900D01*
X151419200Y-102612576D01*
X151456522Y-102608900D01*
X151456533Y-102608900D01*
X151568186Y-102597903D01*
X151711447Y-102554446D01*
X151843476Y-102483874D01*
X151959201Y-102388901D01*
X151983004Y-102359897D01*
X153188504Y-101154398D01*
X153217501Y-101130601D01*
X153264518Y-101073311D01*
X153312474Y-101014877D01*
X153383046Y-100882847D01*
X153396580Y-100838229D01*
X153426503Y-100739586D01*
X153437500Y-100627933D01*
X153437500Y-100627923D01*
X153441176Y-100590600D01*
X153437500Y-100553277D01*
X153437500Y-95187625D01*
X153441176Y-95150300D01*
X153437500Y-95112975D01*
X153437500Y-95112967D01*
X153426503Y-95001314D01*
X153383046Y-94858053D01*
X153312474Y-94726024D01*
X153217501Y-94610299D01*
X153188503Y-94586501D01*
X150161913Y-91559911D01*
X152254500Y-91559911D01*
X152254500Y-91744089D01*
X152290432Y-91924729D01*
X152360914Y-92094889D01*
X152463238Y-92248028D01*
X152593472Y-92378262D01*
X152746611Y-92480586D01*
X152916771Y-92551068D01*
X153037852Y-92575153D01*
X156431401Y-95968703D01*
X156431400Y-102261164D01*
X156362814Y-102363811D01*
X156292332Y-102533971D01*
X156256400Y-102714611D01*
X156256400Y-102898789D01*
X156292332Y-103079429D01*
X156362814Y-103249589D01*
X156465138Y-103402728D01*
X156595372Y-103532962D01*
X156748511Y-103635286D01*
X156918671Y-103705768D01*
X157099311Y-103741700D01*
X157283489Y-103741700D01*
X157464129Y-103705768D01*
X157634289Y-103635286D01*
X157787428Y-103532962D01*
X157917662Y-103402728D01*
X158019986Y-103249589D01*
X158090468Y-103079429D01*
X158126400Y-102898789D01*
X158126400Y-102714611D01*
X158090468Y-102533971D01*
X158019986Y-102363811D01*
X157951400Y-102261165D01*
X157951400Y-95691222D01*
X157955076Y-95653899D01*
X157951400Y-95616576D01*
X157951400Y-95616567D01*
X157940403Y-95504914D01*
X157896946Y-95361653D01*
X157826374Y-95229624D01*
X157731401Y-95113899D01*
X157702403Y-95090101D01*
X154112653Y-91500352D01*
X154088568Y-91379271D01*
X154018086Y-91209111D01*
X153915762Y-91055972D01*
X153785528Y-90925738D01*
X153632389Y-90823414D01*
X153462229Y-90752932D01*
X153281589Y-90717000D01*
X153097411Y-90717000D01*
X152916771Y-90752932D01*
X152746611Y-90823414D01*
X152593472Y-90925738D01*
X152463238Y-91055972D01*
X152360914Y-91209111D01*
X152290432Y-91379271D01*
X152254500Y-91559911D01*
X150161913Y-91559911D01*
X145680019Y-87078018D01*
X145670052Y-87027911D01*
X147848300Y-87027911D01*
X147848300Y-87212089D01*
X147884232Y-87392729D01*
X147954714Y-87562889D01*
X148057038Y-87716028D01*
X148187272Y-87846262D01*
X148340411Y-87948586D01*
X148510571Y-88019068D01*
X148691211Y-88055000D01*
X148875389Y-88055000D01*
X149056029Y-88019068D01*
X149226189Y-87948586D01*
X149379328Y-87846262D01*
X149509562Y-87716028D01*
X149611886Y-87562889D01*
X149682368Y-87392729D01*
X149706453Y-87271648D01*
X162011004Y-74967098D01*
X162040001Y-74943301D01*
X162134974Y-74827576D01*
X162205546Y-74695547D01*
X162249003Y-74552286D01*
X162260000Y-74440633D01*
X162260000Y-74440632D01*
X162263677Y-74403300D01*
X162260000Y-74365967D01*
X162260000Y-72318178D01*
X162446632Y-72193475D01*
X162653475Y-71986632D01*
X162815990Y-71743411D01*
X162927932Y-71473158D01*
X162985000Y-71186260D01*
X162985000Y-70893740D01*
X162927932Y-70606842D01*
X162815990Y-70336589D01*
X162653475Y-70093368D01*
X162521620Y-69961513D01*
X162594180Y-69939502D01*
X162704494Y-69880537D01*
X162801185Y-69801185D01*
X162880537Y-69704494D01*
X162939502Y-69594180D01*
X162975812Y-69474482D01*
X162988072Y-69350000D01*
X162985000Y-68785750D01*
X162826250Y-68627000D01*
X161627000Y-68627000D01*
X161627000Y-68647000D01*
X161373000Y-68647000D01*
X161373000Y-68627000D01*
X160173750Y-68627000D01*
X160015000Y-68785750D01*
X160011928Y-69350000D01*
X160024188Y-69474482D01*
X160060498Y-69594180D01*
X160119463Y-69704494D01*
X160198815Y-69801185D01*
X160295506Y-69880537D01*
X160405820Y-69939502D01*
X160478380Y-69961513D01*
X160346525Y-70093368D01*
X160184010Y-70336589D01*
X160072068Y-70606842D01*
X160015000Y-70893740D01*
X160015000Y-71186260D01*
X160072068Y-71473158D01*
X160184010Y-71743411D01*
X160346525Y-71986632D01*
X160553368Y-72193475D01*
X160740001Y-72318179D01*
X160740000Y-74088498D01*
X148631652Y-86196847D01*
X148510571Y-86220932D01*
X148340411Y-86291414D01*
X148187272Y-86393738D01*
X148057038Y-86523972D01*
X147954714Y-86677111D01*
X147884232Y-86847271D01*
X147848300Y-87027911D01*
X145670052Y-87027911D01*
X145658268Y-86968671D01*
X145587786Y-86798511D01*
X145519200Y-86695865D01*
X145519200Y-83422622D01*
X145522876Y-83385299D01*
X145519200Y-83347976D01*
X145519200Y-83347967D01*
X145508203Y-83236314D01*
X145464746Y-83093053D01*
X145440237Y-83047201D01*
X145394174Y-82961023D01*
X145322999Y-82874297D01*
X145299201Y-82845299D01*
X145270204Y-82821502D01*
X138727669Y-76278967D01*
X146595000Y-76278967D01*
X146595000Y-76601033D01*
X146657832Y-76916912D01*
X146781082Y-77214463D01*
X146960013Y-77482252D01*
X147187748Y-77709987D01*
X147455537Y-77888918D01*
X147753088Y-78012168D01*
X148068967Y-78075000D01*
X148391033Y-78075000D01*
X148706912Y-78012168D01*
X149004463Y-77888918D01*
X149272252Y-77709987D01*
X149499987Y-77482252D01*
X149678918Y-77214463D01*
X149802168Y-76916912D01*
X149865000Y-76601033D01*
X149865000Y-76278967D01*
X150795000Y-76278967D01*
X150795000Y-76601033D01*
X150857832Y-76916912D01*
X150981082Y-77214463D01*
X151160013Y-77482252D01*
X151387748Y-77709987D01*
X151655537Y-77888918D01*
X151953088Y-78012168D01*
X152268967Y-78075000D01*
X152591033Y-78075000D01*
X152906912Y-78012168D01*
X153204463Y-77888918D01*
X153472252Y-77709987D01*
X153699987Y-77482252D01*
X153878918Y-77214463D01*
X154002168Y-76916912D01*
X154065000Y-76601033D01*
X154065000Y-76278967D01*
X154002168Y-75963088D01*
X153878918Y-75665537D01*
X153699987Y-75397748D01*
X153472252Y-75170013D01*
X153204463Y-74991082D01*
X152906912Y-74867832D01*
X152591033Y-74805000D01*
X152268967Y-74805000D01*
X151953088Y-74867832D01*
X151655537Y-74991082D01*
X151387748Y-75170013D01*
X151160013Y-75397748D01*
X150981082Y-75665537D01*
X150857832Y-75963088D01*
X150795000Y-76278967D01*
X149865000Y-76278967D01*
X149802168Y-75963088D01*
X149678918Y-75665537D01*
X149499987Y-75397748D01*
X149272252Y-75170013D01*
X149004463Y-74991082D01*
X148706912Y-74867832D01*
X148391033Y-74805000D01*
X148068967Y-74805000D01*
X147753088Y-74867832D01*
X147455537Y-74991082D01*
X147187748Y-75170013D01*
X146960013Y-75397748D01*
X146781082Y-75665537D01*
X146657832Y-75963088D01*
X146595000Y-76278967D01*
X138727669Y-76278967D01*
X136392648Y-73943947D01*
X136473158Y-73927932D01*
X136743411Y-73815990D01*
X136986632Y-73653475D01*
X137193475Y-73446632D01*
X137315195Y-73264466D01*
X137384822Y-73381355D01*
X137579731Y-73597588D01*
X137813080Y-73771641D01*
X138075901Y-73896825D01*
X138223110Y-73941476D01*
X138453000Y-73820155D01*
X138453000Y-72627000D01*
X138707000Y-72627000D01*
X138707000Y-73820155D01*
X138936890Y-73941476D01*
X139084099Y-73896825D01*
X139346920Y-73771641D01*
X139580269Y-73597588D01*
X139775178Y-73381355D01*
X139924157Y-73131252D01*
X140021481Y-72856891D01*
X139900814Y-72627000D01*
X138707000Y-72627000D01*
X138453000Y-72627000D01*
X138433000Y-72627000D01*
X138433000Y-72373000D01*
X138453000Y-72373000D01*
X138453000Y-71179845D01*
X138707000Y-71179845D01*
X138707000Y-72373000D01*
X139900814Y-72373000D01*
X140021481Y-72143109D01*
X139924157Y-71868748D01*
X139775178Y-71618645D01*
X139580269Y-71402412D01*
X139346920Y-71228359D01*
X139084099Y-71103175D01*
X138936890Y-71058524D01*
X138707000Y-71179845D01*
X138453000Y-71179845D01*
X138223110Y-71058524D01*
X138075901Y-71103175D01*
X137813080Y-71228359D01*
X137579731Y-71402412D01*
X137384822Y-71618645D01*
X137315195Y-71735534D01*
X137193475Y-71553368D01*
X136986632Y-71346525D01*
X136743411Y-71184010D01*
X136473158Y-71072068D01*
X136186260Y-71015000D01*
X135893740Y-71015000D01*
X135606842Y-71072068D01*
X135336589Y-71184010D01*
X135093368Y-71346525D01*
X134961513Y-71478380D01*
X134939502Y-71405820D01*
X134880537Y-71295506D01*
X134801185Y-71198815D01*
X134704494Y-71119463D01*
X134594180Y-71060498D01*
X134474482Y-71024188D01*
X134350000Y-71011928D01*
X134260000Y-71011928D01*
X134260000Y-69988072D01*
X134350000Y-69988072D01*
X134474482Y-69975812D01*
X134594180Y-69939502D01*
X134704494Y-69880537D01*
X134801185Y-69801185D01*
X134880537Y-69704494D01*
X134939502Y-69594180D01*
X134961513Y-69521620D01*
X135093368Y-69653475D01*
X135336589Y-69815990D01*
X135606842Y-69927932D01*
X135893740Y-69985000D01*
X136186260Y-69985000D01*
X136473158Y-69927932D01*
X136743411Y-69815990D01*
X136986632Y-69653475D01*
X137193475Y-69446632D01*
X137315195Y-69264466D01*
X137384822Y-69381355D01*
X137579731Y-69597588D01*
X137813080Y-69771641D01*
X138075901Y-69896825D01*
X138223110Y-69941476D01*
X138453000Y-69820155D01*
X138453000Y-68627000D01*
X138707000Y-68627000D01*
X138707000Y-69820155D01*
X138936890Y-69941476D01*
X139084099Y-69896825D01*
X139346920Y-69771641D01*
X139580269Y-69597588D01*
X139775178Y-69381355D01*
X139924157Y-69131252D01*
X140021481Y-68856891D01*
X139900814Y-68627000D01*
X138707000Y-68627000D01*
X138453000Y-68627000D01*
X138433000Y-68627000D01*
X138433000Y-68373000D01*
X138453000Y-68373000D01*
X138453000Y-67179845D01*
X138707000Y-67179845D01*
X138707000Y-68373000D01*
X139900814Y-68373000D01*
X140021481Y-68143109D01*
X139924157Y-67868748D01*
X139793856Y-67650000D01*
X160011928Y-67650000D01*
X160015000Y-68214250D01*
X160173750Y-68373000D01*
X161373000Y-68373000D01*
X161373000Y-67173750D01*
X161627000Y-67173750D01*
X161627000Y-68373000D01*
X162826250Y-68373000D01*
X162985000Y-68214250D01*
X162988072Y-67650000D01*
X162975812Y-67525518D01*
X162939502Y-67405820D01*
X162880537Y-67295506D01*
X162801185Y-67198815D01*
X162704494Y-67119463D01*
X162594180Y-67060498D01*
X162474482Y-67024188D01*
X162350000Y-67011928D01*
X161785750Y-67015000D01*
X161627000Y-67173750D01*
X161373000Y-67173750D01*
X161214250Y-67015000D01*
X160650000Y-67011928D01*
X160525518Y-67024188D01*
X160405820Y-67060498D01*
X160295506Y-67119463D01*
X160198815Y-67198815D01*
X160119463Y-67295506D01*
X160060498Y-67405820D01*
X160024188Y-67525518D01*
X160011928Y-67650000D01*
X139793856Y-67650000D01*
X139775178Y-67618645D01*
X139580269Y-67402412D01*
X139346920Y-67228359D01*
X139084099Y-67103175D01*
X138936890Y-67058524D01*
X138707000Y-67179845D01*
X138453000Y-67179845D01*
X138223110Y-67058524D01*
X138075901Y-67103175D01*
X137813080Y-67228359D01*
X137579731Y-67402412D01*
X137384822Y-67618645D01*
X137315195Y-67735534D01*
X137193475Y-67553368D01*
X136986632Y-67346525D01*
X136743411Y-67184010D01*
X136473158Y-67072068D01*
X136186260Y-67015000D01*
X135893740Y-67015000D01*
X135606842Y-67072068D01*
X135336589Y-67184010D01*
X135093368Y-67346525D01*
X134961513Y-67478380D01*
X134939502Y-67405820D01*
X134880537Y-67295506D01*
X134801185Y-67198815D01*
X134704494Y-67119463D01*
X134594180Y-67060498D01*
X134474482Y-67024188D01*
X134350000Y-67011928D01*
X132650000Y-67011928D01*
X132525518Y-67024188D01*
X132405820Y-67060498D01*
X132295506Y-67119463D01*
X132198815Y-67198815D01*
X132119463Y-67295506D01*
X132060498Y-67405820D01*
X132024188Y-67525518D01*
X132011928Y-67650000D01*
X132011928Y-69350000D01*
X132024188Y-69474482D01*
X132060498Y-69594180D01*
X132119463Y-69704494D01*
X132198815Y-69801185D01*
X132295506Y-69880537D01*
X132405820Y-69939502D01*
X132525518Y-69975812D01*
X132650000Y-69988072D01*
X132740000Y-69988072D01*
X132740001Y-71011928D01*
X132650000Y-71011928D01*
X132525518Y-71024188D01*
X132405820Y-71060498D01*
X132295506Y-71119463D01*
X132198815Y-71198815D01*
X132119463Y-71295506D01*
X132060498Y-71405820D01*
X132024188Y-71525518D01*
X132011928Y-71650000D01*
X132011928Y-71805425D01*
X131900423Y-71865026D01*
X131816783Y-71933668D01*
X131784699Y-71959999D01*
X131760901Y-71988997D01*
X123889899Y-79860000D01*
X122818178Y-79860000D01*
X122693475Y-79673368D01*
X122486632Y-79466525D01*
X122313271Y-79350689D01*
X122388792Y-79108397D01*
X121540000Y-78259605D01*
X120691208Y-79108397D01*
X120766729Y-79350689D01*
X120593368Y-79466525D01*
X120386525Y-79673368D01*
X120270000Y-79847760D01*
X120153475Y-79673368D01*
X119946632Y-79466525D01*
X119773271Y-79350689D01*
X119848792Y-79108397D01*
X119000000Y-78259605D01*
X118985858Y-78273748D01*
X118806253Y-78094143D01*
X118820395Y-78080000D01*
X119179605Y-78080000D01*
X120028397Y-78928792D01*
X120270000Y-78853486D01*
X120511603Y-78928792D01*
X121360395Y-78080000D01*
X121719605Y-78080000D01*
X122568397Y-78928792D01*
X122817472Y-78851157D01*
X122943371Y-78587117D01*
X123015339Y-78303589D01*
X123030611Y-78011469D01*
X122988599Y-77721981D01*
X122890919Y-77446253D01*
X122817472Y-77308843D01*
X122568397Y-77231208D01*
X121719605Y-78080000D01*
X121360395Y-78080000D01*
X120511603Y-77231208D01*
X120270000Y-77306514D01*
X120028397Y-77231208D01*
X119179605Y-78080000D01*
X118820395Y-78080000D01*
X118806253Y-78065858D01*
X118985858Y-77886253D01*
X119000000Y-77900395D01*
X119848792Y-77051603D01*
X119773271Y-76809311D01*
X119946632Y-76693475D01*
X120153475Y-76486632D01*
X120270000Y-76312240D01*
X120386525Y-76486632D01*
X120593368Y-76693475D01*
X120766729Y-76809311D01*
X120691208Y-77051603D01*
X121540000Y-77900395D01*
X122388792Y-77051603D01*
X122313271Y-76809311D01*
X122486632Y-76693475D01*
X122693475Y-76486632D01*
X122855990Y-76243411D01*
X122967932Y-75973158D01*
X123025000Y-75686260D01*
X123025000Y-75393740D01*
X122967932Y-75106842D01*
X122855990Y-74836589D01*
X122693475Y-74593368D01*
X122486632Y-74386525D01*
X122312240Y-74270000D01*
X122486632Y-74153475D01*
X122693475Y-73946632D01*
X122855990Y-73703411D01*
X122967932Y-73433158D01*
X123025000Y-73146260D01*
X123025000Y-72853740D01*
X122967932Y-72566842D01*
X122855990Y-72296589D01*
X122693475Y-72053368D01*
X122486632Y-71846525D01*
X122243411Y-71684010D01*
X121973158Y-71572068D01*
X121686260Y-71515000D01*
X121393740Y-71515000D01*
X121106842Y-71572068D01*
X120836589Y-71684010D01*
X120593368Y-71846525D01*
X120406285Y-72033608D01*
X120338405Y-71906614D01*
X120227962Y-71772038D01*
X120093386Y-71661595D01*
X119939850Y-71579528D01*
X119773254Y-71528992D01*
X119600000Y-71511928D01*
X118400000Y-71511928D01*
X118226746Y-71528992D01*
X118060150Y-71579528D01*
X117906614Y-71661595D01*
X117772038Y-71772038D01*
X117661595Y-71906614D01*
X117579528Y-72060150D01*
X117528992Y-72226746D01*
X117511928Y-72400000D01*
X117511928Y-73600000D01*
X117528992Y-73773254D01*
X117579528Y-73939850D01*
X117661595Y-74093386D01*
X117674449Y-74109049D01*
X117281602Y-74501897D01*
X117252599Y-74525699D01*
X117222196Y-74562746D01*
X117157626Y-74641424D01*
X117087055Y-74773453D01*
X117087054Y-74773454D01*
X117043597Y-74916715D01*
X117032600Y-75028368D01*
X117032600Y-75028378D01*
X117028924Y-75065700D01*
X109930000Y-75065700D01*
X109930000Y-70476453D01*
X110080285Y-70626738D01*
X110511859Y-70915107D01*
X110991399Y-71113739D01*
X111500475Y-71215000D01*
X112019525Y-71215000D01*
X112528601Y-71113739D01*
X113008141Y-70915107D01*
X113439715Y-70626738D01*
X113806738Y-70259715D01*
X114095107Y-69828141D01*
X114293739Y-69348601D01*
X114395000Y-68839525D01*
X114395000Y-68320475D01*
X114293739Y-67811399D01*
X114095107Y-67331859D01*
X113806738Y-66900285D01*
X113656453Y-66750000D01*
X183523547Y-66750000D01*
X183373262Y-66900285D01*
%TA.AperFunction,Conductor*%
D22*
G36*
X183373262Y-66900285D02*
G01*
X183084893Y-67331859D01*
X182886261Y-67811399D01*
X182785000Y-68320475D01*
X182785000Y-68839525D01*
X182886261Y-69348601D01*
X183084893Y-69828141D01*
X183373262Y-70259715D01*
X183740285Y-70626738D01*
X184171859Y-70915107D01*
X184651399Y-71113739D01*
X185160475Y-71215000D01*
X185679525Y-71215000D01*
X186188601Y-71113739D01*
X186668141Y-70915107D01*
X187099715Y-70626738D01*
X187250000Y-70476453D01*
X187250001Y-120023548D01*
X187099715Y-119873262D01*
X186668141Y-119584893D01*
X186188601Y-119386261D01*
X185679525Y-119285000D01*
X185160475Y-119285000D01*
X184651399Y-119386261D01*
X184171859Y-119584893D01*
X183740285Y-119873262D01*
X183373262Y-120240285D01*
X183084893Y-120671859D01*
X182886261Y-121151399D01*
X182785000Y-121660475D01*
X182785000Y-122179525D01*
X182886261Y-122688601D01*
X183084893Y-123168141D01*
X183373262Y-123599715D01*
X183523547Y-123750000D01*
X113656453Y-123750000D01*
X113806738Y-123599715D01*
X114095107Y-123168141D01*
X114293739Y-122688601D01*
X114395000Y-122179525D01*
X114395000Y-121660475D01*
X114293739Y-121151399D01*
X114095107Y-120671859D01*
X113806738Y-120240285D01*
X113439715Y-119873262D01*
X113008141Y-119584893D01*
X112528601Y-119386261D01*
X112019525Y-119285000D01*
X111500475Y-119285000D01*
X110991399Y-119386261D01*
X110511859Y-119584893D01*
X110080285Y-119873262D01*
X109930000Y-120023547D01*
X109930000Y-119150000D01*
X172971928Y-119150000D01*
X172971928Y-120850000D01*
X172984188Y-120974482D01*
X173020498Y-121094180D01*
X173079463Y-121204494D01*
X173158815Y-121301185D01*
X173255506Y-121380537D01*
X173365820Y-121439502D01*
X173485518Y-121475812D01*
X173610000Y-121488072D01*
X175310000Y-121488072D01*
X175434482Y-121475812D01*
X175554180Y-121439502D01*
X175664494Y-121380537D01*
X175761185Y-121301185D01*
X175840537Y-121204494D01*
X175899502Y-121094180D01*
X175923966Y-121013534D01*
X175999731Y-121097588D01*
X176233080Y-121271641D01*
X176495901Y-121396825D01*
X176643110Y-121441476D01*
X176873000Y-121320155D01*
X176873000Y-120127000D01*
X177127000Y-120127000D01*
X177127000Y-121320155D01*
X177356890Y-121441476D01*
X177504099Y-121396825D01*
X177766920Y-121271641D01*
X178000269Y-121097588D01*
X178195178Y-120881355D01*
X178344157Y-120631252D01*
X178441481Y-120356891D01*
X178320814Y-120127000D01*
X177127000Y-120127000D01*
X176873000Y-120127000D01*
X176853000Y-120127000D01*
X176853000Y-119873000D01*
X176873000Y-119873000D01*
X176873000Y-118679845D01*
X177127000Y-118679845D01*
X177127000Y-119873000D01*
X178320814Y-119873000D01*
X178441481Y-119643109D01*
X178344157Y-119368748D01*
X178195178Y-119118645D01*
X178000269Y-118902412D01*
X177766920Y-118728359D01*
X177504099Y-118603175D01*
X177356890Y-118558524D01*
X177127000Y-118679845D01*
X176873000Y-118679845D01*
X176643110Y-118558524D01*
X176495901Y-118603175D01*
X176233080Y-118728359D01*
X175999731Y-118902412D01*
X175923966Y-118986466D01*
X175899502Y-118905820D01*
X175840537Y-118795506D01*
X175761185Y-118698815D01*
X175664494Y-118619463D01*
X175554180Y-118560498D01*
X175434482Y-118524188D01*
X175310000Y-118511928D01*
X173610000Y-118511928D01*
X173485518Y-118524188D01*
X173365820Y-118560498D01*
X173255506Y-118619463D01*
X173158815Y-118698815D01*
X173079463Y-118795506D01*
X173020498Y-118905820D01*
X172984188Y-119025518D01*
X172971928Y-119150000D01*
X109930000Y-119150000D01*
X109930000Y-96396890D01*
X128558524Y-96396890D01*
X128603175Y-96544099D01*
X128728359Y-96806920D01*
X128902412Y-97040269D01*
X129118645Y-97235178D01*
X129368748Y-97384157D01*
X129643109Y-97481481D01*
X129873000Y-97360814D01*
X129873000Y-96167000D01*
X128679845Y-96167000D01*
X128558524Y-96396890D01*
X109930000Y-96396890D01*
X109930000Y-92650000D01*
X128511928Y-92650000D01*
X128511928Y-94350000D01*
X128524188Y-94474482D01*
X128560498Y-94594180D01*
X128619463Y-94704494D01*
X128698815Y-94801185D01*
X128795506Y-94880537D01*
X128905820Y-94939502D01*
X128986466Y-94963966D01*
X128902412Y-95039731D01*
X128728359Y-95273080D01*
X128603175Y-95535901D01*
X128558524Y-95683110D01*
X128679845Y-95913000D01*
X129873000Y-95913000D01*
X129873000Y-95893000D01*
X130127000Y-95893000D01*
X130127000Y-95913000D01*
X130147000Y-95913000D01*
X130147000Y-96167000D01*
X130127000Y-96167000D01*
X130127000Y-97360814D01*
X130356891Y-97481481D01*
X130631252Y-97384157D01*
X130881355Y-97235178D01*
X131074901Y-97060719D01*
X131074901Y-99724368D01*
X131044611Y-99736914D01*
X130891472Y-99839238D01*
X130761238Y-99969472D01*
X130658914Y-100122611D01*
X130588432Y-100292771D01*
X130552500Y-100473411D01*
X130552500Y-100657589D01*
X130588432Y-100838229D01*
X130658914Y-101008389D01*
X130761238Y-101161528D01*
X130891472Y-101291762D01*
X131044611Y-101394086D01*
X131214771Y-101464568D01*
X131395411Y-101500500D01*
X131579589Y-101500500D01*
X131760229Y-101464568D01*
X131930389Y-101394086D01*
X132083528Y-101291762D01*
X132213762Y-101161528D01*
X132316086Y-101008389D01*
X132386568Y-100838229D01*
X132411338Y-100713702D01*
X132469874Y-100642376D01*
X132540446Y-100510347D01*
X132583903Y-100367086D01*
X132594900Y-100255433D01*
X132594900Y-100255425D01*
X132598576Y-100218100D01*
X132594900Y-100180775D01*
X132594900Y-90446935D01*
X132663486Y-90344289D01*
X132733968Y-90174129D01*
X132769900Y-89993489D01*
X132769900Y-89809311D01*
X132733968Y-89628671D01*
X132663486Y-89458511D01*
X132561162Y-89305372D01*
X132430928Y-89175138D01*
X132277789Y-89072814D01*
X132107629Y-89002332D01*
X131926989Y-88966400D01*
X131742811Y-88966400D01*
X131562171Y-89002332D01*
X131392011Y-89072814D01*
X131238872Y-89175138D01*
X131108638Y-89305372D01*
X131006314Y-89458511D01*
X130935832Y-89628671D01*
X130899900Y-89809311D01*
X130899900Y-89993489D01*
X130935832Y-90174129D01*
X131006314Y-90344289D01*
X131074900Y-90446935D01*
X131074900Y-92054650D01*
X130974482Y-92024188D01*
X130850000Y-92011928D01*
X129150000Y-92011928D01*
X129025518Y-92024188D01*
X128905820Y-92060498D01*
X128795506Y-92119463D01*
X128698815Y-92198815D01*
X128619463Y-92295506D01*
X128560498Y-92405820D01*
X128524188Y-92525518D01*
X128511928Y-92650000D01*
X109930000Y-92650000D01*
X109930000Y-75065700D01*
X117028924Y-75065700D01*
X117032600Y-75103023D01*
X117032601Y-81037668D01*
X117028924Y-81075000D01*
X117043598Y-81223985D01*
X117087054Y-81367246D01*
X117157626Y-81499276D01*
X117228801Y-81586002D01*
X117252600Y-81615001D01*
X117281598Y-81638799D01*
X117851345Y-82208548D01*
X117846525Y-82213368D01*
X117684010Y-82456589D01*
X117572068Y-82726842D01*
X117515000Y-83013740D01*
X117515000Y-83306260D01*
X117572068Y-83593158D01*
X117684010Y-83863411D01*
X117846525Y-84106632D01*
X118053368Y-84313475D01*
X118296589Y-84475990D01*
X118566842Y-84587932D01*
X118853740Y-84645000D01*
X119146260Y-84645000D01*
X119433158Y-84587932D01*
X119703411Y-84475990D01*
X119917284Y-84333085D01*
X126410701Y-90826503D01*
X126434499Y-90855501D01*
X126550224Y-90950474D01*
X126682253Y-91021046D01*
X126825514Y-91064503D01*
X126937167Y-91075500D01*
X126937177Y-91075500D01*
X126974500Y-91079176D01*
X127011823Y-91075500D01*
X127313865Y-91075500D01*
X127416511Y-91144086D01*
X127586671Y-91214568D01*
X127767311Y-91250500D01*
X127951489Y-91250500D01*
X128132129Y-91214568D01*
X128302289Y-91144086D01*
X128455428Y-91041762D01*
X128585662Y-90911528D01*
X128687986Y-90758389D01*
X128758468Y-90588229D01*
X128794400Y-90407589D01*
X128794400Y-90223411D01*
X128758468Y-90042771D01*
X128687986Y-89872611D01*
X128585662Y-89719472D01*
X128455428Y-89589238D01*
X128302289Y-89486914D01*
X128132129Y-89416432D01*
X127951489Y-89380500D01*
X127767311Y-89380500D01*
X127586671Y-89416432D01*
X127416511Y-89486914D01*
X127313865Y-89555500D01*
X127289302Y-89555500D01*
X122219638Y-84485837D01*
X122243411Y-84475990D01*
X122486632Y-84313475D01*
X122693475Y-84106632D01*
X122855990Y-83863411D01*
X122967932Y-83593158D01*
X123025000Y-83306260D01*
X123025000Y-83013740D01*
X122967932Y-82726842D01*
X122855990Y-82456589D01*
X122693475Y-82213368D01*
X122486632Y-82006525D01*
X122312240Y-81890000D01*
X122486632Y-81773475D01*
X122693475Y-81566632D01*
X122818178Y-81380000D01*
X124167378Y-81380000D01*
X124204700Y-81383676D01*
X124242022Y-81380000D01*
X124242033Y-81380000D01*
X124353686Y-81369003D01*
X124496947Y-81325546D01*
X124628976Y-81254974D01*
X124744701Y-81160001D01*
X124768504Y-81130997D01*
X132153515Y-73745987D01*
X132198815Y-73801185D01*
X132295506Y-73880537D01*
X132405820Y-73939502D01*
X132525518Y-73975812D01*
X132650000Y-73988072D01*
X134287171Y-73988072D01*
X138777324Y-78478226D01*
X138694614Y-78602011D01*
X138624132Y-78772171D01*
X138588200Y-78952811D01*
X138588200Y-79136989D01*
X138624132Y-79317629D01*
X138694614Y-79487789D01*
X138763201Y-79590437D01*
X138763200Y-82513099D01*
X134739104Y-78489003D01*
X134715301Y-78459999D01*
X134599576Y-78365026D01*
X134488072Y-78305425D01*
X134488072Y-78150000D01*
X134475812Y-78025518D01*
X134439502Y-77905820D01*
X134380537Y-77795506D01*
X134301185Y-77698815D01*
X134204494Y-77619463D01*
X134094180Y-77560498D01*
X133974482Y-77524188D01*
X133850000Y-77511928D01*
X132150000Y-77511928D01*
X132025518Y-77524188D01*
X131905820Y-77560498D01*
X131795506Y-77619463D01*
X131698815Y-77698815D01*
X131619463Y-77795506D01*
X131560498Y-77905820D01*
X131524188Y-78025518D01*
X131511928Y-78150000D01*
X131511928Y-79850000D01*
X131524188Y-79974482D01*
X131560498Y-80094180D01*
X131619463Y-80204494D01*
X131698815Y-80301185D01*
X131795506Y-80380537D01*
X131905820Y-80439502D01*
X131978380Y-80461513D01*
X131846525Y-80593368D01*
X131684010Y-80836589D01*
X131572068Y-81106842D01*
X131515000Y-81393740D01*
X131515000Y-81686260D01*
X131572068Y-81973158D01*
X131684010Y-82243411D01*
X131846525Y-82486632D01*
X132053368Y-82693475D01*
X132296589Y-82855990D01*
X132566842Y-82967932D01*
X132853740Y-83025000D01*
X133146260Y-83025000D01*
X133433158Y-82967932D01*
X133703411Y-82855990D01*
X133946632Y-82693475D01*
X134153475Y-82486632D01*
X134278178Y-82300000D01*
X134646899Y-82300000D01*
X145707798Y-93360900D01*
X140362535Y-93360900D01*
X140259889Y-93292314D01*
X140089729Y-93221832D01*
X139909089Y-93185900D01*
X139724911Y-93185900D01*
X139544271Y-93221832D01*
X139374111Y-93292314D01*
X139220972Y-93394638D01*
X139090738Y-93524872D01*
X138988414Y-93678011D01*
X138917932Y-93848171D01*
X138882000Y-94028811D01*
X138882000Y-94212989D01*
X138917932Y-94393629D01*
X138988414Y-94563789D01*
X139090738Y-94716928D01*
X139220972Y-94847162D01*
X139374111Y-94949486D01*
X139544271Y-95019968D01*
X139669456Y-95044869D01*
X139687132Y-95133729D01*
X139757614Y-95303889D01*
X139859938Y-95457028D01*
X139990172Y-95587262D01*
X140143311Y-95689586D01*
X140313471Y-95760068D01*
X140434551Y-95784153D01*
X141929205Y-97278808D01*
X141952999Y-97307801D01*
X141981992Y-97331595D01*
X141981996Y-97331599D01*
X142021390Y-97363928D01*
X142068724Y-97402774D01*
X142200753Y-97473346D01*
X142344014Y-97516803D01*
X142455667Y-97527800D01*
X142455676Y-97527800D01*
X142492999Y-97531476D01*
X142530322Y-97527800D01*
X143908743Y-97527800D01*
X143782672Y-97612038D01*
X143652438Y-97742272D01*
X143550114Y-97895411D01*
X143479632Y-98065571D01*
X143443700Y-98246211D01*
X143443700Y-98430389D01*
X143479632Y-98611029D01*
X143550114Y-98781189D01*
X143652438Y-98934328D01*
X143782672Y-99064562D01*
X143935811Y-99166886D01*
X144105971Y-99237368D01*
X144286611Y-99273300D01*
X144470789Y-99273300D01*
X144651429Y-99237368D01*
X144821589Y-99166886D01*
X144974728Y-99064562D01*
X145104962Y-98934328D01*
X145207286Y-98781189D01*
X145255868Y-98663900D01*
X147410998Y-98663900D01*
X142039003Y-104035896D01*
X142009999Y-104059699D01*
X141962503Y-104117574D01*
X141915026Y-104175424D01*
X141877155Y-104246276D01*
X141844454Y-104307454D01*
X141800997Y-104450715D01*
X141790000Y-104562368D01*
X141790000Y-104562378D01*
X141786324Y-104599700D01*
X141790000Y-104637023D01*
X141790001Y-111010263D01*
X141770961Y-111038759D01*
X140221204Y-109489003D01*
X140197401Y-109459999D01*
X140081676Y-109365026D01*
X139949647Y-109294454D01*
X139806386Y-109250997D01*
X139694733Y-109240000D01*
X139694722Y-109240000D01*
X139657400Y-109236324D01*
X139620078Y-109240000D01*
X126334535Y-109240000D01*
X126204039Y-109044698D01*
X125995302Y-108835961D01*
X125749853Y-108671958D01*
X125477125Y-108558990D01*
X125187599Y-108501400D01*
X124892401Y-108501400D01*
X124602875Y-108558990D01*
X124330147Y-108671958D01*
X124084698Y-108835961D01*
X123970636Y-108950023D01*
X123953102Y-108892220D01*
X123894137Y-108781906D01*
X123814785Y-108685215D01*
X123718094Y-108605863D01*
X123607780Y-108546898D01*
X123488082Y-108510588D01*
X123363600Y-108498328D01*
X121636400Y-108498328D01*
X121511918Y-108510588D01*
X121392220Y-108546898D01*
X121281906Y-108605863D01*
X121185215Y-108685215D01*
X121105863Y-108781906D01*
X121046898Y-108892220D01*
X121010588Y-109011918D01*
X120998328Y-109136400D01*
X120998328Y-110863600D01*
X121010588Y-110988082D01*
X121046898Y-111107780D01*
X121105863Y-111218094D01*
X121185215Y-111314785D01*
X121281906Y-111394137D01*
X121392220Y-111453102D01*
X121456574Y-111472624D01*
X121393146Y-111529707D01*
X121217316Y-111765056D01*
X121090778Y-112030186D01*
X121045042Y-112180974D01*
X121166183Y-112413000D01*
X122373000Y-112413000D01*
X122373000Y-112393000D01*
X122627000Y-112393000D01*
X122627000Y-112413000D01*
X124913000Y-112413000D01*
X124913000Y-112393000D01*
X125167000Y-112393000D01*
X125167000Y-112413000D01*
X126373817Y-112413000D01*
X126494958Y-112180974D01*
X126449222Y-112030186D01*
X126410427Y-111948900D01*
X139817799Y-111948900D01*
X140999998Y-113131100D01*
X127455133Y-113131100D01*
X127417800Y-113127423D01*
X127380467Y-113131100D01*
X127268814Y-113142097D01*
X127125553Y-113185554D01*
X126993524Y-113256126D01*
X126877799Y-113351099D01*
X126854001Y-113380097D01*
X126156720Y-114077379D01*
X125995302Y-113915961D01*
X125829897Y-113805441D01*
X125928488Y-113746817D01*
X126146854Y-113550293D01*
X126322684Y-113314944D01*
X126449222Y-113049814D01*
X126494958Y-112899026D01*
X126373817Y-112667000D01*
X125167000Y-112667000D01*
X125167000Y-112687000D01*
X124913000Y-112687000D01*
X124913000Y-112667000D01*
X122627000Y-112667000D01*
X122627000Y-112687000D01*
X122373000Y-112687000D01*
X122373000Y-112667000D01*
X121166183Y-112667000D01*
X121045042Y-112899026D01*
X121090778Y-113049814D01*
X121217316Y-113314944D01*
X121393146Y-113550293D01*
X121611512Y-113746817D01*
X121710103Y-113805441D01*
X121544698Y-113915961D01*
X121335961Y-114124698D01*
X121171958Y-114370147D01*
X121058990Y-114642875D01*
X121001400Y-114932401D01*
X121001400Y-115227599D01*
X121058990Y-115517125D01*
X121171958Y-115789853D01*
X121335961Y-116035302D01*
X121544698Y-116244039D01*
X121790147Y-116408042D01*
X122062875Y-116521010D01*
X122352401Y-116578600D01*
X122647599Y-116578600D01*
X122937125Y-116521010D01*
X123209853Y-116408042D01*
X123455302Y-116244039D01*
X123664039Y-116035302D01*
X123770000Y-115876719D01*
X123875961Y-116035302D01*
X124084698Y-116244039D01*
X124330147Y-116408042D01*
X124602875Y-116521010D01*
X124892401Y-116578600D01*
X125187599Y-116578600D01*
X125477125Y-116521010D01*
X125749853Y-116408042D01*
X125995302Y-116244039D01*
X126204039Y-116035302D01*
X126339347Y-115832799D01*
X126377886Y-115829003D01*
X126521147Y-115785546D01*
X126653176Y-115714974D01*
X126768901Y-115620001D01*
X126792704Y-115590997D01*
X127732602Y-114651100D01*
X146398681Y-114651100D01*
X146237778Y-114758612D01*
X145898612Y-115097778D01*
X145632131Y-115496595D01*
X145448576Y-115939737D01*
X145355000Y-116410173D01*
X145355000Y-116889827D01*
X145448576Y-117360263D01*
X145632131Y-117803405D01*
X145898612Y-118202222D01*
X146237778Y-118541388D01*
X146636595Y-118807869D01*
X147079737Y-118991424D01*
X147550173Y-119085000D01*
X148029827Y-119085000D01*
X148500263Y-118991424D01*
X148943405Y-118807869D01*
X149342222Y-118541388D01*
X149681388Y-118202222D01*
X149947869Y-117803405D01*
X150131424Y-117360263D01*
X150225000Y-116889827D01*
X150225000Y-116410173D01*
X152975000Y-116410173D01*
X152975000Y-116889827D01*
X153068576Y-117360263D01*
X153252131Y-117803405D01*
X153518612Y-118202222D01*
X153857778Y-118541388D01*
X154256595Y-118807869D01*
X154699737Y-118991424D01*
X155170173Y-119085000D01*
X155649827Y-119085000D01*
X156120263Y-118991424D01*
X156563405Y-118807869D01*
X156962222Y-118541388D01*
X157301388Y-118202222D01*
X157567869Y-117803405D01*
X157751424Y-117360263D01*
X157845000Y-116889827D01*
X157845000Y-116410173D01*
X157751424Y-115939737D01*
X157567869Y-115496595D01*
X157301388Y-115097778D01*
X156962222Y-114758612D01*
X156563405Y-114492131D01*
X156120263Y-114308576D01*
X155649827Y-114215000D01*
X155170173Y-114215000D01*
X154699737Y-114308576D01*
X154256595Y-114492131D01*
X153857778Y-114758612D01*
X153518612Y-115097778D01*
X153252131Y-115496595D01*
X153068576Y-115939737D01*
X152975000Y-116410173D01*
X150225000Y-116410173D01*
X150131424Y-115939737D01*
X149947869Y-115496595D01*
X149681388Y-115097778D01*
X149342222Y-114758612D01*
X149181319Y-114651100D01*
X149980278Y-114651100D01*
X150017600Y-114654776D01*
X150054922Y-114651100D01*
X150054933Y-114651100D01*
X150166586Y-114640103D01*
X150309847Y-114596646D01*
X150441876Y-114526074D01*
X150557601Y-114431101D01*
X150581404Y-114402097D01*
X154016008Y-110967495D01*
X154045001Y-110943701D01*
X154068795Y-110914708D01*
X154068799Y-110914704D01*
X154139973Y-110827977D01*
X154149046Y-110811003D01*
X154210546Y-110695947D01*
X154254003Y-110552686D01*
X154265000Y-110441033D01*
X154265000Y-110441024D01*
X154268676Y-110403701D01*
X154265000Y-110366378D01*
X154265000Y-108789600D01*
X154314578Y-108756473D01*
X154491473Y-108579578D01*
X154524600Y-108530000D01*
X175064700Y-108530000D01*
X175064701Y-112139468D01*
X175061024Y-112176800D01*
X175064701Y-112214133D01*
X175075698Y-112325786D01*
X175079814Y-112339354D01*
X175119154Y-112469046D01*
X175189726Y-112601076D01*
X175214777Y-112631600D01*
X175284700Y-112716801D01*
X175313698Y-112740599D01*
X175822469Y-113249371D01*
X175684010Y-113456589D01*
X175572068Y-113726842D01*
X175515000Y-114013740D01*
X175515000Y-114306260D01*
X175572068Y-114593158D01*
X175684010Y-114863411D01*
X175846525Y-115106632D01*
X176053368Y-115313475D01*
X176296589Y-115475990D01*
X176566842Y-115587932D01*
X176853740Y-115645000D01*
X177146260Y-115645000D01*
X177433158Y-115587932D01*
X177703411Y-115475990D01*
X177946632Y-115313475D01*
X178153475Y-115106632D01*
X178315990Y-114863411D01*
X178427932Y-114593158D01*
X178485000Y-114306260D01*
X178485000Y-114013740D01*
X178427932Y-113726842D01*
X178315990Y-113456589D01*
X178153475Y-113213368D01*
X177946632Y-113006525D01*
X177764466Y-112884805D01*
X177881355Y-112815178D01*
X178097588Y-112620269D01*
X178271641Y-112386920D01*
X178396825Y-112124099D01*
X178441476Y-111976890D01*
X178320155Y-111747000D01*
X177127000Y-111747000D01*
X177127000Y-111767000D01*
X176873000Y-111767000D01*
X176873000Y-111747000D01*
X176853000Y-111747000D01*
X176853000Y-111493000D01*
X176873000Y-111493000D01*
X176873000Y-111473000D01*
X177127000Y-111473000D01*
X177127000Y-111493000D01*
X178320155Y-111493000D01*
X178441476Y-111263110D01*
X178396825Y-111115901D01*
X178271641Y-110853080D01*
X178097588Y-110619731D01*
X177881355Y-110424822D01*
X177764466Y-110355195D01*
X177946632Y-110233475D01*
X178153475Y-110026632D01*
X178315990Y-109783411D01*
X178427932Y-109513158D01*
X178485000Y-109226260D01*
X178485000Y-108933740D01*
X178427932Y-108646842D01*
X178315990Y-108376589D01*
X178153475Y-108133368D01*
X177946632Y-107926525D01*
X177772240Y-107810000D01*
X177946632Y-107693475D01*
X178153475Y-107486632D01*
X178315990Y-107243411D01*
X178427932Y-106973158D01*
X178485000Y-106686260D01*
X178485000Y-106393740D01*
X178427932Y-106106842D01*
X178315990Y-105836589D01*
X178153475Y-105593368D01*
X178021620Y-105461513D01*
X178094180Y-105439502D01*
X178204494Y-105380537D01*
X178301185Y-105301185D01*
X178380537Y-105204494D01*
X178439502Y-105094180D01*
X178475812Y-104974482D01*
X178488072Y-104850000D01*
X178488072Y-103150000D01*
X178475812Y-103025518D01*
X178439502Y-102905820D01*
X178380537Y-102795506D01*
X178301185Y-102698815D01*
X178204494Y-102619463D01*
X178094180Y-102560498D01*
X177974482Y-102524188D01*
X177850000Y-102511928D01*
X176584700Y-102511928D01*
X176584700Y-96485705D01*
X176714250Y-96485000D01*
X176873000Y-96326250D01*
X176873000Y-95127000D01*
X176853000Y-95127000D01*
X176853000Y-94873000D01*
X176873000Y-94873000D01*
X176873000Y-93673750D01*
X177127000Y-93673750D01*
X177127000Y-94873000D01*
X177147000Y-94873000D01*
X177147000Y-95127000D01*
X177127000Y-95127000D01*
X177127000Y-96326250D01*
X177285750Y-96485000D01*
X177850000Y-96488072D01*
X177974482Y-96475812D01*
X178094180Y-96439502D01*
X178204494Y-96380537D01*
X178301185Y-96301185D01*
X178380537Y-96204494D01*
X178439502Y-96094180D01*
X178461513Y-96021620D01*
X178593368Y-96153475D01*
X178836589Y-96315990D01*
X179106842Y-96427932D01*
X179393740Y-96485000D01*
X179686260Y-96485000D01*
X179973158Y-96427932D01*
X180243411Y-96315990D01*
X180486632Y-96153475D01*
X180693475Y-95946632D01*
X180810000Y-95772240D01*
X180926525Y-95946632D01*
X181133368Y-96153475D01*
X181376589Y-96315990D01*
X181646842Y-96427932D01*
X181933740Y-96485000D01*
X182226260Y-96485000D01*
X182513158Y-96427932D01*
X182783411Y-96315990D01*
X183026632Y-96153475D01*
X183233475Y-95946632D01*
X183395990Y-95703411D01*
X183507932Y-95433158D01*
X183565000Y-95146260D01*
X183565000Y-94853740D01*
X183507932Y-94566842D01*
X183395990Y-94296589D01*
X183233475Y-94053368D01*
X183026632Y-93846525D01*
X182783411Y-93684010D01*
X182513158Y-93572068D01*
X182226260Y-93515000D01*
X181933740Y-93515000D01*
X181646842Y-93572068D01*
X181376589Y-93684010D01*
X181133368Y-93846525D01*
X180926525Y-94053368D01*
X180810000Y-94227760D01*
X180693475Y-94053368D01*
X180486632Y-93846525D01*
X180243411Y-93684010D01*
X179973158Y-93572068D01*
X179686260Y-93515000D01*
X179393740Y-93515000D01*
X179106842Y-93572068D01*
X178836589Y-93684010D01*
X178593368Y-93846525D01*
X178461513Y-93978380D01*
X178439502Y-93905820D01*
X178380537Y-93795506D01*
X178301185Y-93698815D01*
X178204494Y-93619463D01*
X178094180Y-93560498D01*
X177974482Y-93524188D01*
X177850000Y-93511928D01*
X177285750Y-93515000D01*
X177127000Y-93673750D01*
X176873000Y-93673750D01*
X176714250Y-93515000D01*
X176584700Y-93514295D01*
X176584700Y-88051484D01*
X176853740Y-88105000D01*
X177146260Y-88105000D01*
X177433158Y-88047932D01*
X177703411Y-87935990D01*
X177946632Y-87773475D01*
X178153475Y-87566632D01*
X178315990Y-87323411D01*
X178427932Y-87053158D01*
X178485000Y-86766260D01*
X178485000Y-86473740D01*
X178427932Y-86186842D01*
X178315990Y-85916589D01*
X178153475Y-85673368D01*
X177946632Y-85466525D01*
X177764466Y-85344805D01*
X177881355Y-85275178D01*
X178097588Y-85080269D01*
X178271641Y-84846920D01*
X178396825Y-84584099D01*
X178441476Y-84436890D01*
X178320155Y-84207000D01*
X177127000Y-84207000D01*
X177127000Y-84227000D01*
X176873000Y-84227000D01*
X176873000Y-84207000D01*
X176853000Y-84207000D01*
X176853000Y-83953000D01*
X176873000Y-83953000D01*
X176873000Y-81667000D01*
X177127000Y-81667000D01*
X177127000Y-83953000D01*
X178320155Y-83953000D01*
X178441476Y-83723110D01*
X178396825Y-83575901D01*
X178271641Y-83313080D01*
X178097588Y-83079731D01*
X177881355Y-82884822D01*
X177755745Y-82810000D01*
X177881355Y-82735178D01*
X178097588Y-82540269D01*
X178271641Y-82306920D01*
X178396825Y-82044099D01*
X178441476Y-81896890D01*
X178320155Y-81667000D01*
X177127000Y-81667000D01*
X176873000Y-81667000D01*
X176853000Y-81667000D01*
X176853000Y-81413000D01*
X176873000Y-81413000D01*
X176873000Y-81393000D01*
X177127000Y-81393000D01*
X177127000Y-81413000D01*
X178320155Y-81413000D01*
X178441476Y-81183110D01*
X178396825Y-81035901D01*
X178271641Y-80773080D01*
X178097588Y-80539731D01*
X178013534Y-80463966D01*
X178094180Y-80439502D01*
X178204494Y-80380537D01*
X178301185Y-80301185D01*
X178380537Y-80204494D01*
X178439502Y-80094180D01*
X178475812Y-79974482D01*
X178488072Y-79850000D01*
X178488072Y-78150000D01*
X178475812Y-78025518D01*
X178439502Y-77905820D01*
X178380537Y-77795506D01*
X178301185Y-77698815D01*
X178204494Y-77619463D01*
X178094180Y-77560498D01*
X177974482Y-77524188D01*
X177850000Y-77511928D01*
X176150000Y-77511928D01*
X176025518Y-77524188D01*
X175905820Y-77560498D01*
X175795506Y-77619463D01*
X175698815Y-77698815D01*
X175619463Y-77795506D01*
X175560498Y-77905820D01*
X175524188Y-78025518D01*
X175511928Y-78150000D01*
X175511928Y-79850000D01*
X175524188Y-79974482D01*
X175560498Y-80094180D01*
X175587849Y-80145350D01*
X175313702Y-80419497D01*
X175284699Y-80443299D01*
X175258017Y-80475812D01*
X175189726Y-80559024D01*
X175140711Y-80650724D01*
X175119154Y-80691054D01*
X175075697Y-80834315D01*
X175064700Y-80945968D01*
X175064700Y-80945978D01*
X175061024Y-80983300D01*
X175064700Y-81020622D01*
X175064701Y-107010000D01*
X154524600Y-107010000D01*
X154491473Y-106960422D01*
X154314578Y-106783527D01*
X154106571Y-106644541D01*
X153875445Y-106548805D01*
X153630084Y-106500000D01*
X153379916Y-106500000D01*
X153134555Y-106548805D01*
X152903429Y-106644541D01*
X152695422Y-106783527D01*
X152518527Y-106960422D01*
X152379541Y-107168429D01*
X152283805Y-107399555D01*
X152235000Y-107644916D01*
X152186195Y-107399555D01*
X152090459Y-107168429D01*
X151951473Y-106960422D01*
X151774578Y-106783527D01*
X151566571Y-106644541D01*
X151335445Y-106548805D01*
X151090084Y-106500000D01*
X150839916Y-106500000D01*
X150594555Y-106548805D01*
X150363429Y-106644541D01*
X150155422Y-106783527D01*
X149978527Y-106960422D01*
X149901493Y-107075711D01*
X149790524Y-107135026D01*
X149674799Y-107229999D01*
X149651001Y-107258997D01*
X145488799Y-111421200D01*
X143476544Y-111421200D01*
X143449068Y-111283071D01*
X143378586Y-111112911D01*
X143310000Y-111010265D01*
X143310000Y-104914501D01*
X148719749Y-99504753D01*
X148840829Y-99480668D01*
X149010989Y-99410186D01*
X149128060Y-99331962D01*
X149635301Y-99839203D01*
X149635301Y-100230400D01*
X149634211Y-100230400D01*
X149453571Y-100266332D01*
X149283411Y-100336814D01*
X149130272Y-100439138D01*
X149000038Y-100569372D01*
X148897714Y-100722511D01*
X148827232Y-100892671D01*
X148822814Y-100914884D01*
X144635552Y-105102147D01*
X144514471Y-105126232D01*
X144344311Y-105196714D01*
X144191172Y-105299038D01*
X144060938Y-105429272D01*
X143958614Y-105582411D01*
X143888132Y-105752571D01*
X143852200Y-105933211D01*
X143852200Y-106117389D01*
X143888132Y-106298029D01*
X143958614Y-106468189D01*
X144060938Y-106621328D01*
X144191172Y-106751562D01*
X144344311Y-106853886D01*
X144514471Y-106924368D01*
X144695111Y-106960300D01*
X144879289Y-106960300D01*
X145059929Y-106924368D01*
X145230089Y-106853886D01*
X145383228Y-106751562D01*
X145513462Y-106621328D01*
X145615786Y-106468189D01*
X145686268Y-106298029D01*
X145710353Y-106176948D01*
X147666997Y-104220305D01*
X147803011Y-104311186D01*
X147973171Y-104381668D01*
X148153811Y-104417600D01*
X148337989Y-104417600D01*
X148518629Y-104381668D01*
X148688789Y-104311186D01*
X148841928Y-104208862D01*
X148972162Y-104078628D01*
X149074486Y-103925489D01*
X149144968Y-103755329D01*
X149150206Y-103728995D01*
X150402312Y-102476889D01*
X150410823Y-102483874D01*
X150530045Y-102547600D01*
X150542853Y-102554446D01*
X150686114Y-102597903D01*
X150797767Y-102608900D01*
X150797776Y-102608900D01*
X150835099Y-102612576D01*
X150872422Y-102608900D01*
X151381878Y-102608900D01*
X151419200Y-102612576D01*
X151456522Y-102608900D01*
X151456533Y-102608900D01*
X151568186Y-102597903D01*
X151711447Y-102554446D01*
X151843476Y-102483874D01*
X151959201Y-102388901D01*
X151983004Y-102359897D01*
X153188504Y-101154398D01*
X153217501Y-101130601D01*
X153264518Y-101073311D01*
X153312474Y-101014877D01*
X153383046Y-100882847D01*
X153396580Y-100838229D01*
X153426503Y-100739586D01*
X153437500Y-100627933D01*
X153437500Y-100627923D01*
X153441176Y-100590600D01*
X153437500Y-100553277D01*
X153437500Y-95187625D01*
X153441176Y-95150300D01*
X153437500Y-95112975D01*
X153437500Y-95112967D01*
X153426503Y-95001314D01*
X153383046Y-94858053D01*
X153312474Y-94726024D01*
X153217501Y-94610299D01*
X153188503Y-94586501D01*
X150161913Y-91559911D01*
X152254500Y-91559911D01*
X152254500Y-91744089D01*
X152290432Y-91924729D01*
X152360914Y-92094889D01*
X152463238Y-92248028D01*
X152593472Y-92378262D01*
X152746611Y-92480586D01*
X152916771Y-92551068D01*
X153037852Y-92575153D01*
X156431401Y-95968703D01*
X156431400Y-102261164D01*
X156362814Y-102363811D01*
X156292332Y-102533971D01*
X156256400Y-102714611D01*
X156256400Y-102898789D01*
X156292332Y-103079429D01*
X156362814Y-103249589D01*
X156465138Y-103402728D01*
X156595372Y-103532962D01*
X156748511Y-103635286D01*
X156918671Y-103705768D01*
X157099311Y-103741700D01*
X157283489Y-103741700D01*
X157464129Y-103705768D01*
X157634289Y-103635286D01*
X157787428Y-103532962D01*
X157917662Y-103402728D01*
X158019986Y-103249589D01*
X158090468Y-103079429D01*
X158126400Y-102898789D01*
X158126400Y-102714611D01*
X158090468Y-102533971D01*
X158019986Y-102363811D01*
X157951400Y-102261165D01*
X157951400Y-95691222D01*
X157955076Y-95653899D01*
X157951400Y-95616576D01*
X157951400Y-95616567D01*
X157940403Y-95504914D01*
X157896946Y-95361653D01*
X157826374Y-95229624D01*
X157731401Y-95113899D01*
X157702403Y-95090101D01*
X154112653Y-91500352D01*
X154088568Y-91379271D01*
X154018086Y-91209111D01*
X153915762Y-91055972D01*
X153785528Y-90925738D01*
X153632389Y-90823414D01*
X153462229Y-90752932D01*
X153281589Y-90717000D01*
X153097411Y-90717000D01*
X152916771Y-90752932D01*
X152746611Y-90823414D01*
X152593472Y-90925738D01*
X152463238Y-91055972D01*
X152360914Y-91209111D01*
X152290432Y-91379271D01*
X152254500Y-91559911D01*
X150161913Y-91559911D01*
X145680019Y-87078018D01*
X145670052Y-87027911D01*
X147848300Y-87027911D01*
X147848300Y-87212089D01*
X147884232Y-87392729D01*
X147954714Y-87562889D01*
X148057038Y-87716028D01*
X148187272Y-87846262D01*
X148340411Y-87948586D01*
X148510571Y-88019068D01*
X148691211Y-88055000D01*
X148875389Y-88055000D01*
X149056029Y-88019068D01*
X149226189Y-87948586D01*
X149379328Y-87846262D01*
X149509562Y-87716028D01*
X149611886Y-87562889D01*
X149682368Y-87392729D01*
X149706453Y-87271648D01*
X162011004Y-74967098D01*
X162040001Y-74943301D01*
X162134974Y-74827576D01*
X162205546Y-74695547D01*
X162249003Y-74552286D01*
X162260000Y-74440633D01*
X162260000Y-74440632D01*
X162263677Y-74403300D01*
X162260000Y-74365967D01*
X162260000Y-72318178D01*
X162446632Y-72193475D01*
X162653475Y-71986632D01*
X162815990Y-71743411D01*
X162927932Y-71473158D01*
X162985000Y-71186260D01*
X162985000Y-70893740D01*
X162927932Y-70606842D01*
X162815990Y-70336589D01*
X162653475Y-70093368D01*
X162521620Y-69961513D01*
X162594180Y-69939502D01*
X162704494Y-69880537D01*
X162801185Y-69801185D01*
X162880537Y-69704494D01*
X162939502Y-69594180D01*
X162975812Y-69474482D01*
X162988072Y-69350000D01*
X162985000Y-68785750D01*
X162826250Y-68627000D01*
X161627000Y-68627000D01*
X161627000Y-68647000D01*
X161373000Y-68647000D01*
X161373000Y-68627000D01*
X160173750Y-68627000D01*
X160015000Y-68785750D01*
X160011928Y-69350000D01*
X160024188Y-69474482D01*
X160060498Y-69594180D01*
X160119463Y-69704494D01*
X160198815Y-69801185D01*
X160295506Y-69880537D01*
X160405820Y-69939502D01*
X160478380Y-69961513D01*
X160346525Y-70093368D01*
X160184010Y-70336589D01*
X160072068Y-70606842D01*
X160015000Y-70893740D01*
X160015000Y-71186260D01*
X160072068Y-71473158D01*
X160184010Y-71743411D01*
X160346525Y-71986632D01*
X160553368Y-72193475D01*
X160740001Y-72318179D01*
X160740000Y-74088498D01*
X148631652Y-86196847D01*
X148510571Y-86220932D01*
X148340411Y-86291414D01*
X148187272Y-86393738D01*
X148057038Y-86523972D01*
X147954714Y-86677111D01*
X147884232Y-86847271D01*
X147848300Y-87027911D01*
X145670052Y-87027911D01*
X145658268Y-86968671D01*
X145587786Y-86798511D01*
X145519200Y-86695865D01*
X145519200Y-83422622D01*
X145522876Y-83385299D01*
X145519200Y-83347976D01*
X145519200Y-83347967D01*
X145508203Y-83236314D01*
X145464746Y-83093053D01*
X145440237Y-83047201D01*
X145394174Y-82961023D01*
X145322999Y-82874297D01*
X145299201Y-82845299D01*
X145270204Y-82821502D01*
X138727669Y-76278967D01*
X146595000Y-76278967D01*
X146595000Y-76601033D01*
X146657832Y-76916912D01*
X146781082Y-77214463D01*
X146960013Y-77482252D01*
X147187748Y-77709987D01*
X147455537Y-77888918D01*
X147753088Y-78012168D01*
X148068967Y-78075000D01*
X148391033Y-78075000D01*
X148706912Y-78012168D01*
X149004463Y-77888918D01*
X149272252Y-77709987D01*
X149499987Y-77482252D01*
X149678918Y-77214463D01*
X149802168Y-76916912D01*
X149865000Y-76601033D01*
X149865000Y-76278967D01*
X150795000Y-76278967D01*
X150795000Y-76601033D01*
X150857832Y-76916912D01*
X150981082Y-77214463D01*
X151160013Y-77482252D01*
X151387748Y-77709987D01*
X151655537Y-77888918D01*
X151953088Y-78012168D01*
X152268967Y-78075000D01*
X152591033Y-78075000D01*
X152906912Y-78012168D01*
X153204463Y-77888918D01*
X153472252Y-77709987D01*
X153699987Y-77482252D01*
X153878918Y-77214463D01*
X154002168Y-76916912D01*
X154065000Y-76601033D01*
X154065000Y-76278967D01*
X154002168Y-75963088D01*
X153878918Y-75665537D01*
X153699987Y-75397748D01*
X153472252Y-75170013D01*
X153204463Y-74991082D01*
X152906912Y-74867832D01*
X152591033Y-74805000D01*
X152268967Y-74805000D01*
X151953088Y-74867832D01*
X151655537Y-74991082D01*
X151387748Y-75170013D01*
X151160013Y-75397748D01*
X150981082Y-75665537D01*
X150857832Y-75963088D01*
X150795000Y-76278967D01*
X149865000Y-76278967D01*
X149802168Y-75963088D01*
X149678918Y-75665537D01*
X149499987Y-75397748D01*
X149272252Y-75170013D01*
X149004463Y-74991082D01*
X148706912Y-74867832D01*
X148391033Y-74805000D01*
X148068967Y-74805000D01*
X147753088Y-74867832D01*
X147455537Y-74991082D01*
X147187748Y-75170013D01*
X146960013Y-75397748D01*
X146781082Y-75665537D01*
X146657832Y-75963088D01*
X146595000Y-76278967D01*
X138727669Y-76278967D01*
X136392648Y-73943947D01*
X136473158Y-73927932D01*
X136743411Y-73815990D01*
X136986632Y-73653475D01*
X137193475Y-73446632D01*
X137315195Y-73264466D01*
X137384822Y-73381355D01*
X137579731Y-73597588D01*
X137813080Y-73771641D01*
X138075901Y-73896825D01*
X138223110Y-73941476D01*
X138453000Y-73820155D01*
X138453000Y-72627000D01*
X138707000Y-72627000D01*
X138707000Y-73820155D01*
X138936890Y-73941476D01*
X139084099Y-73896825D01*
X139346920Y-73771641D01*
X139580269Y-73597588D01*
X139775178Y-73381355D01*
X139924157Y-73131252D01*
X140021481Y-72856891D01*
X139900814Y-72627000D01*
X138707000Y-72627000D01*
X138453000Y-72627000D01*
X138433000Y-72627000D01*
X138433000Y-72373000D01*
X138453000Y-72373000D01*
X138453000Y-71179845D01*
X138707000Y-71179845D01*
X138707000Y-72373000D01*
X139900814Y-72373000D01*
X140021481Y-72143109D01*
X139924157Y-71868748D01*
X139775178Y-71618645D01*
X139580269Y-71402412D01*
X139346920Y-71228359D01*
X139084099Y-71103175D01*
X138936890Y-71058524D01*
X138707000Y-71179845D01*
X138453000Y-71179845D01*
X138223110Y-71058524D01*
X138075901Y-71103175D01*
X137813080Y-71228359D01*
X137579731Y-71402412D01*
X137384822Y-71618645D01*
X137315195Y-71735534D01*
X137193475Y-71553368D01*
X136986632Y-71346525D01*
X136743411Y-71184010D01*
X136473158Y-71072068D01*
X136186260Y-71015000D01*
X135893740Y-71015000D01*
X135606842Y-71072068D01*
X135336589Y-71184010D01*
X135093368Y-71346525D01*
X134961513Y-71478380D01*
X134939502Y-71405820D01*
X134880537Y-71295506D01*
X134801185Y-71198815D01*
X134704494Y-71119463D01*
X134594180Y-71060498D01*
X134474482Y-71024188D01*
X134350000Y-71011928D01*
X134260000Y-71011928D01*
X134260000Y-69988072D01*
X134350000Y-69988072D01*
X134474482Y-69975812D01*
X134594180Y-69939502D01*
X134704494Y-69880537D01*
X134801185Y-69801185D01*
X134880537Y-69704494D01*
X134939502Y-69594180D01*
X134961513Y-69521620D01*
X135093368Y-69653475D01*
X135336589Y-69815990D01*
X135606842Y-69927932D01*
X135893740Y-69985000D01*
X136186260Y-69985000D01*
X136473158Y-69927932D01*
X136743411Y-69815990D01*
X136986632Y-69653475D01*
X137193475Y-69446632D01*
X137315195Y-69264466D01*
X137384822Y-69381355D01*
X137579731Y-69597588D01*
X137813080Y-69771641D01*
X138075901Y-69896825D01*
X138223110Y-69941476D01*
X138453000Y-69820155D01*
X138453000Y-68627000D01*
X138707000Y-68627000D01*
X138707000Y-69820155D01*
X138936890Y-69941476D01*
X139084099Y-69896825D01*
X139346920Y-69771641D01*
X139580269Y-69597588D01*
X139775178Y-69381355D01*
X139924157Y-69131252D01*
X140021481Y-68856891D01*
X139900814Y-68627000D01*
X138707000Y-68627000D01*
X138453000Y-68627000D01*
X138433000Y-68627000D01*
X138433000Y-68373000D01*
X138453000Y-68373000D01*
X138453000Y-67179845D01*
X138707000Y-67179845D01*
X138707000Y-68373000D01*
X139900814Y-68373000D01*
X140021481Y-68143109D01*
X139924157Y-67868748D01*
X139793856Y-67650000D01*
X160011928Y-67650000D01*
X160015000Y-68214250D01*
X160173750Y-68373000D01*
X161373000Y-68373000D01*
X161373000Y-67173750D01*
X161627000Y-67173750D01*
X161627000Y-68373000D01*
X162826250Y-68373000D01*
X162985000Y-68214250D01*
X162988072Y-67650000D01*
X162975812Y-67525518D01*
X162939502Y-67405820D01*
X162880537Y-67295506D01*
X162801185Y-67198815D01*
X162704494Y-67119463D01*
X162594180Y-67060498D01*
X162474482Y-67024188D01*
X162350000Y-67011928D01*
X161785750Y-67015000D01*
X161627000Y-67173750D01*
X161373000Y-67173750D01*
X161214250Y-67015000D01*
X160650000Y-67011928D01*
X160525518Y-67024188D01*
X160405820Y-67060498D01*
X160295506Y-67119463D01*
X160198815Y-67198815D01*
X160119463Y-67295506D01*
X160060498Y-67405820D01*
X160024188Y-67525518D01*
X160011928Y-67650000D01*
X139793856Y-67650000D01*
X139775178Y-67618645D01*
X139580269Y-67402412D01*
X139346920Y-67228359D01*
X139084099Y-67103175D01*
X138936890Y-67058524D01*
X138707000Y-67179845D01*
X138453000Y-67179845D01*
X138223110Y-67058524D01*
X138075901Y-67103175D01*
X137813080Y-67228359D01*
X137579731Y-67402412D01*
X137384822Y-67618645D01*
X137315195Y-67735534D01*
X137193475Y-67553368D01*
X136986632Y-67346525D01*
X136743411Y-67184010D01*
X136473158Y-67072068D01*
X136186260Y-67015000D01*
X135893740Y-67015000D01*
X135606842Y-67072068D01*
X135336589Y-67184010D01*
X135093368Y-67346525D01*
X134961513Y-67478380D01*
X134939502Y-67405820D01*
X134880537Y-67295506D01*
X134801185Y-67198815D01*
X134704494Y-67119463D01*
X134594180Y-67060498D01*
X134474482Y-67024188D01*
X134350000Y-67011928D01*
X132650000Y-67011928D01*
X132525518Y-67024188D01*
X132405820Y-67060498D01*
X132295506Y-67119463D01*
X132198815Y-67198815D01*
X132119463Y-67295506D01*
X132060498Y-67405820D01*
X132024188Y-67525518D01*
X132011928Y-67650000D01*
X132011928Y-69350000D01*
X132024188Y-69474482D01*
X132060498Y-69594180D01*
X132119463Y-69704494D01*
X132198815Y-69801185D01*
X132295506Y-69880537D01*
X132405820Y-69939502D01*
X132525518Y-69975812D01*
X132650000Y-69988072D01*
X132740000Y-69988072D01*
X132740001Y-71011928D01*
X132650000Y-71011928D01*
X132525518Y-71024188D01*
X132405820Y-71060498D01*
X132295506Y-71119463D01*
X132198815Y-71198815D01*
X132119463Y-71295506D01*
X132060498Y-71405820D01*
X132024188Y-71525518D01*
X132011928Y-71650000D01*
X132011928Y-71805425D01*
X131900423Y-71865026D01*
X131816783Y-71933668D01*
X131784699Y-71959999D01*
X131760901Y-71988997D01*
X123889899Y-79860000D01*
X122818178Y-79860000D01*
X122693475Y-79673368D01*
X122486632Y-79466525D01*
X122313271Y-79350689D01*
X122388792Y-79108397D01*
X121540000Y-78259605D01*
X120691208Y-79108397D01*
X120766729Y-79350689D01*
X120593368Y-79466525D01*
X120386525Y-79673368D01*
X120270000Y-79847760D01*
X120153475Y-79673368D01*
X119946632Y-79466525D01*
X119773271Y-79350689D01*
X119848792Y-79108397D01*
X119000000Y-78259605D01*
X118985858Y-78273748D01*
X118806253Y-78094143D01*
X118820395Y-78080000D01*
X119179605Y-78080000D01*
X120028397Y-78928792D01*
X120270000Y-78853486D01*
X120511603Y-78928792D01*
X121360395Y-78080000D01*
X121719605Y-78080000D01*
X122568397Y-78928792D01*
X122817472Y-78851157D01*
X122943371Y-78587117D01*
X123015339Y-78303589D01*
X123030611Y-78011469D01*
X122988599Y-77721981D01*
X122890919Y-77446253D01*
X122817472Y-77308843D01*
X122568397Y-77231208D01*
X121719605Y-78080000D01*
X121360395Y-78080000D01*
X120511603Y-77231208D01*
X120270000Y-77306514D01*
X120028397Y-77231208D01*
X119179605Y-78080000D01*
X118820395Y-78080000D01*
X118806253Y-78065858D01*
X118985858Y-77886253D01*
X119000000Y-77900395D01*
X119848792Y-77051603D01*
X119773271Y-76809311D01*
X119946632Y-76693475D01*
X120153475Y-76486632D01*
X120270000Y-76312240D01*
X120386525Y-76486632D01*
X120593368Y-76693475D01*
X120766729Y-76809311D01*
X120691208Y-77051603D01*
X121540000Y-77900395D01*
X122388792Y-77051603D01*
X122313271Y-76809311D01*
X122486632Y-76693475D01*
X122693475Y-76486632D01*
X122855990Y-76243411D01*
X122967932Y-75973158D01*
X123025000Y-75686260D01*
X123025000Y-75393740D01*
X122967932Y-75106842D01*
X122855990Y-74836589D01*
X122693475Y-74593368D01*
X122486632Y-74386525D01*
X122312240Y-74270000D01*
X122486632Y-74153475D01*
X122693475Y-73946632D01*
X122855990Y-73703411D01*
X122967932Y-73433158D01*
X123025000Y-73146260D01*
X123025000Y-72853740D01*
X122967932Y-72566842D01*
X122855990Y-72296589D01*
X122693475Y-72053368D01*
X122486632Y-71846525D01*
X122243411Y-71684010D01*
X121973158Y-71572068D01*
X121686260Y-71515000D01*
X121393740Y-71515000D01*
X121106842Y-71572068D01*
X120836589Y-71684010D01*
X120593368Y-71846525D01*
X120406285Y-72033608D01*
X120338405Y-71906614D01*
X120227962Y-71772038D01*
X120093386Y-71661595D01*
X119939850Y-71579528D01*
X119773254Y-71528992D01*
X119600000Y-71511928D01*
X118400000Y-71511928D01*
X118226746Y-71528992D01*
X118060150Y-71579528D01*
X117906614Y-71661595D01*
X117772038Y-71772038D01*
X117661595Y-71906614D01*
X117579528Y-72060150D01*
X117528992Y-72226746D01*
X117511928Y-72400000D01*
X117511928Y-73600000D01*
X117528992Y-73773254D01*
X117579528Y-73939850D01*
X117661595Y-74093386D01*
X117674449Y-74109049D01*
X117281602Y-74501897D01*
X117252599Y-74525699D01*
X117222196Y-74562746D01*
X117157626Y-74641424D01*
X117087055Y-74773453D01*
X117087054Y-74773454D01*
X117043597Y-74916715D01*
X117032600Y-75028368D01*
X117032600Y-75028378D01*
X117028924Y-75065700D01*
X109930000Y-75065700D01*
X109930000Y-70476453D01*
X110080285Y-70626738D01*
X110511859Y-70915107D01*
X110991399Y-71113739D01*
X111500475Y-71215000D01*
X112019525Y-71215000D01*
X112528601Y-71113739D01*
X113008141Y-70915107D01*
X113439715Y-70626738D01*
X113806738Y-70259715D01*
X114095107Y-69828141D01*
X114293739Y-69348601D01*
X114395000Y-68839525D01*
X114395000Y-68320475D01*
X114293739Y-67811399D01*
X114095107Y-67331859D01*
X113806738Y-66900285D01*
X113656453Y-66750000D01*
X183523547Y-66750000D01*
X183373262Y-66900285D01*
G37*
%TD.AperFunction*%
D21*
X152283805Y-108140445D02*
X152379541Y-108371571D01*
X152518527Y-108579578D01*
X152695422Y-108756473D01*
X152745000Y-108789600D01*
X152745001Y-109136611D01*
X152605445Y-109078805D01*
X152360084Y-109030000D01*
X152109916Y-109030000D01*
X151864555Y-109078805D01*
X151633429Y-109174541D01*
X151425422Y-109313527D01*
X151248527Y-109490422D01*
X151109541Y-109698429D01*
X151013805Y-109929555D01*
X150965000Y-110174916D01*
X150965000Y-110199078D01*
X150929310Y-109975922D01*
X150842369Y-109741347D01*
X150796946Y-109656369D01*
X150569800Y-109604805D01*
X149874605Y-110300000D01*
X149888748Y-110314143D01*
X149709143Y-110493748D01*
X149695000Y-110479605D01*
X148999805Y-111174800D01*
X149051369Y-111401946D01*
X149278716Y-111506339D01*
X149522059Y-111564373D01*
X149772049Y-111573818D01*
X149908147Y-111552051D01*
X149588599Y-111871600D01*
X147188001Y-111871600D01*
X148457220Y-110602381D01*
X148460690Y-110624078D01*
X148547631Y-110858653D01*
X148593054Y-110943631D01*
X148820200Y-110995195D01*
X149515395Y-110300000D01*
X149501253Y-110285858D01*
X149680858Y-110106253D01*
X149695000Y-110120395D01*
X150390195Y-109425200D01*
X150338631Y-109198054D01*
X150111284Y-109093661D01*
X149993929Y-109065673D01*
X150243966Y-108815636D01*
X150363429Y-108895459D01*
X150594555Y-108991195D01*
X150839916Y-109040000D01*
X151090084Y-109040000D01*
X151335445Y-108991195D01*
X151566571Y-108895459D01*
X151774578Y-108756473D01*
X151951473Y-108579578D01*
X152090459Y-108371571D01*
X152186195Y-108140445D01*
X152235000Y-107895084D01*
X152283805Y-108140445D01*
%TA.AperFunction,Conductor*%
D22*
G36*
X152283805Y-108140445D02*
G01*
X152379541Y-108371571D01*
X152518527Y-108579578D01*
X152695422Y-108756473D01*
X152745000Y-108789600D01*
X152745001Y-109136611D01*
X152605445Y-109078805D01*
X152360084Y-109030000D01*
X152109916Y-109030000D01*
X151864555Y-109078805D01*
X151633429Y-109174541D01*
X151425422Y-109313527D01*
X151248527Y-109490422D01*
X151109541Y-109698429D01*
X151013805Y-109929555D01*
X150965000Y-110174916D01*
X150965000Y-110199078D01*
X150929310Y-109975922D01*
X150842369Y-109741347D01*
X150796946Y-109656369D01*
X150569800Y-109604805D01*
X149874605Y-110300000D01*
X149888748Y-110314143D01*
X149709143Y-110493748D01*
X149695000Y-110479605D01*
X148999805Y-111174800D01*
X149051369Y-111401946D01*
X149278716Y-111506339D01*
X149522059Y-111564373D01*
X149772049Y-111573818D01*
X149908147Y-111552051D01*
X149588599Y-111871600D01*
X147188001Y-111871600D01*
X148457220Y-110602381D01*
X148460690Y-110624078D01*
X148547631Y-110858653D01*
X148593054Y-110943631D01*
X148820200Y-110995195D01*
X149515395Y-110300000D01*
X149501253Y-110285858D01*
X149680858Y-110106253D01*
X149695000Y-110120395D01*
X150390195Y-109425200D01*
X150338631Y-109198054D01*
X150111284Y-109093661D01*
X149993929Y-109065673D01*
X150243966Y-108815636D01*
X150363429Y-108895459D01*
X150594555Y-108991195D01*
X150839916Y-109040000D01*
X151090084Y-109040000D01*
X151335445Y-108991195D01*
X151566571Y-108895459D01*
X151774578Y-108756473D01*
X151951473Y-108579578D01*
X152090459Y-108371571D01*
X152186195Y-108140445D01*
X152235000Y-107895084D01*
X152283805Y-108140445D01*
G37*
%TD.AperFunction*%
%TD*%
M02*
