%TF.GenerationSoftware,KiCad,Pcbnew,4.0.2+dfsg1-stable*%
%TF.CreationDate,2018-11-13T01:07:12+01:00*%
%TF.ProjectId,StandAlone-Adapter,5374616E64416C6F6E652D4164617074,rev?*%
%TF.FileFunction,Copper,L1,Top,Signal*%
%FSLAX46Y46*%
G04 Gerber Fmt 4.6, Leading zero omitted, Abs format (unit mm)*
G04 Created by KiCad (PCBNEW 4.0.2+dfsg1-stable) date Tue 13 Nov 2018 01:07:12 CET*
%MOMM*%
G01*
G04 APERTURE LIST*
%ADD10C,0.100000*%
%ADD11C,0.381000*%
%ADD12R,2.032000X1.727200*%
%ADD13O,2.032000X1.727200*%
%ADD14R,1.727200X2.032000*%
%ADD15O,1.727200X2.032000*%
%ADD16R,2.600960X1.600200*%
%ADD17R,1.200000X0.750000*%
%ADD18R,0.750000X1.200000*%
%ADD19R,0.797560X0.797560*%
%ADD20R,2.032000X2.032000*%
%ADD21O,2.032000X2.032000*%
%ADD22R,1.998980X1.998980*%
%ADD23R,0.800100X0.800100*%
%ADD24R,0.900000X1.200000*%
%ADD25R,1.200000X0.900000*%
%ADD26R,1.600000X2.180000*%
%ADD27C,1.998980*%
%ADD28R,3.657600X2.032000*%
%ADD29R,1.016000X2.032000*%
%ADD30C,1.501140*%
%ADD31C,2.999740*%
%ADD32R,1.800860X1.399540*%
%ADD33C,4.064000*%
%ADD34R,1.727200X1.727200*%
%ADD35O,1.727200X1.727200*%
%ADD36C,1.524000*%
%ADD37C,0.600000*%
%ADD38C,0.250000*%
G04 APERTURE END LIST*
D10*
D11*
X195140580Y-118409720D02*
X195140580Y-120009920D01*
X195140580Y-120009920D02*
X196339460Y-120009920D01*
X192641220Y-120009920D02*
X192641220Y-118508780D01*
X192641220Y-118508780D02*
X193540380Y-118508780D01*
X193540380Y-118508780D02*
X193741040Y-118508780D01*
X193741040Y-118508780D02*
X193939160Y-118610380D01*
X193939160Y-118610380D02*
X194040760Y-118811040D01*
X194040760Y-118811040D02*
X194040760Y-119009160D01*
X194040760Y-119009160D02*
X193840100Y-119209820D01*
X193840100Y-119209820D02*
X193540380Y-119308880D01*
X193540380Y-119308880D02*
X192641220Y-119308880D01*
X191439800Y-118610380D02*
X191239140Y-118508780D01*
X191239140Y-118508780D02*
X190738760Y-118508780D01*
X190738760Y-118508780D02*
X190439040Y-118610380D01*
X190439040Y-118610380D02*
X190240920Y-118709440D01*
X190240920Y-118709440D02*
X190040260Y-119009160D01*
X190040260Y-119009160D02*
X190040260Y-119308880D01*
X190040260Y-119308880D02*
X190139320Y-119710200D01*
X190139320Y-119710200D02*
X190439040Y-119910860D01*
X190439040Y-119910860D02*
X190738760Y-120009920D01*
X190738760Y-120009920D02*
X191041020Y-120009920D01*
X191041020Y-120009920D02*
X191538860Y-119910860D01*
X191538860Y-119910860D02*
X191538860Y-119410480D01*
X191538860Y-119410480D02*
X191041020Y-119410480D01*
X194840860Y-115910360D02*
X194840860Y-117210840D01*
X194840860Y-117210840D02*
X195140580Y-117408960D01*
X195140580Y-117408960D02*
X195440300Y-117408960D01*
X195440300Y-117408960D02*
X195839080Y-117408960D01*
X195839080Y-117408960D02*
X196138800Y-117309900D01*
X196138800Y-117309900D02*
X196339460Y-117210840D01*
X196339460Y-117210840D02*
X196339460Y-115910360D01*
X192239900Y-117408960D02*
X192239900Y-115910360D01*
X192239900Y-115910360D02*
X193741040Y-117408960D01*
X193741040Y-117408960D02*
X193741040Y-115910360D01*
X191041020Y-116009420D02*
X190738760Y-115910360D01*
X190738760Y-115910360D02*
X190240920Y-116009420D01*
X190240920Y-116009420D02*
X189839600Y-116210080D01*
X189839600Y-116210080D02*
X189638940Y-116608860D01*
X189638940Y-116608860D02*
X189740540Y-117010180D01*
X189740540Y-117010180D02*
X190040260Y-117309900D01*
X190040260Y-117309900D02*
X190540640Y-117510560D01*
X190540640Y-117510560D02*
X191239140Y-117309900D01*
X191239140Y-117309900D02*
X191239140Y-116809520D01*
X191239140Y-116809520D02*
X190738760Y-116809520D01*
X188976000Y-115062000D02*
X197104000Y-115062000D01*
X197104000Y-115062000D02*
X197104000Y-120650000D01*
X197104000Y-120650000D02*
X188976000Y-120650000D01*
X188976000Y-120650000D02*
X188976000Y-115062000D01*
D12*
X187960000Y-124460000D03*
D13*
X187960000Y-127000000D03*
X187960000Y-129540000D03*
X187960000Y-132080000D03*
X187960000Y-134620000D03*
D14*
X149860000Y-93980000D03*
D15*
X147320000Y-93980000D03*
X144780000Y-93980000D03*
D16*
X171980860Y-104140000D03*
X168379140Y-104140000D03*
X182140860Y-111760000D03*
X178539140Y-111760000D03*
X153139140Y-104140000D03*
X156740860Y-104140000D03*
D17*
X149926000Y-114300000D03*
X151826000Y-114300000D03*
X155006000Y-120904000D03*
X156906000Y-120904000D03*
X171770000Y-109220000D03*
X173670000Y-109220000D03*
D18*
X175260000Y-117790000D03*
X175260000Y-115890000D03*
X172720000Y-120330000D03*
X172720000Y-118430000D03*
D17*
X171770000Y-111760000D03*
X173670000Y-111760000D03*
D19*
X175260000Y-99809300D03*
X175260000Y-98310700D03*
X151650700Y-109220000D03*
X153149300Y-109220000D03*
X193789300Y-111760000D03*
X192290700Y-111760000D03*
X131330700Y-109220000D03*
X132829300Y-109220000D03*
D14*
X132080000Y-104140000D03*
D15*
X134620000Y-104140000D03*
X137160000Y-104140000D03*
D20*
X134620000Y-116840000D03*
D21*
X134620000Y-114300000D03*
D22*
X187960000Y-88392000D03*
X187960000Y-94488000D03*
X177292000Y-104140000D03*
X183388000Y-104140000D03*
D20*
X187960000Y-139700000D03*
D21*
X190500000Y-139700000D03*
D12*
X187960000Y-99060000D03*
D13*
X187960000Y-101600000D03*
X187960000Y-104140000D03*
X187960000Y-106680000D03*
D23*
X173670000Y-128539240D03*
X171770000Y-128539240D03*
X172720000Y-130538220D03*
X163510000Y-125999240D03*
X161610000Y-125999240D03*
X162560000Y-127998220D03*
X153350000Y-128539240D03*
X151450000Y-128539240D03*
X152400000Y-130538220D03*
D24*
X172720000Y-97960000D03*
X172720000Y-100160000D03*
D25*
X146220000Y-109220000D03*
X148420000Y-109220000D03*
D24*
X139700000Y-113200000D03*
X139700000Y-115400000D03*
D25*
X156380000Y-124968000D03*
X158580000Y-124968000D03*
X167048000Y-124460000D03*
X169248000Y-124460000D03*
X186860000Y-111760000D03*
X189060000Y-111760000D03*
X173820000Y-124460000D03*
X171620000Y-124460000D03*
D24*
X177800000Y-128440000D03*
X177800000Y-130640000D03*
D25*
X156380000Y-129540000D03*
X158580000Y-129540000D03*
X168740000Y-129540000D03*
X166540000Y-129540000D03*
D24*
X147320000Y-130640000D03*
X147320000Y-128440000D03*
D25*
X153500000Y-124460000D03*
X151300000Y-124460000D03*
X136060000Y-109220000D03*
X138260000Y-109220000D03*
D26*
X126997680Y-121442430D03*
X127002320Y-112237570D03*
D14*
X132080000Y-96520000D03*
D15*
X134620000Y-96520000D03*
X137160000Y-96520000D03*
X139700000Y-96520000D03*
D27*
X127000000Y-127000000D03*
D20*
X142240000Y-104140000D03*
D21*
X142240000Y-101600000D03*
D28*
X180340000Y-97282000D03*
D29*
X180340000Y-90678000D03*
X178054000Y-90678000D03*
X182626000Y-90678000D03*
D10*
G36*
X155612676Y-116120800D02*
X155435899Y-115944023D01*
X156143006Y-115236916D01*
X156319783Y-115413693D01*
X155612676Y-116120800D01*
X155612676Y-116120800D01*
G37*
G36*
X155966229Y-116474354D02*
X155789452Y-116297577D01*
X156496559Y-115590470D01*
X156673336Y-115767247D01*
X155966229Y-116474354D01*
X155966229Y-116474354D01*
G37*
G36*
X156319783Y-116827907D02*
X156143006Y-116651130D01*
X156850113Y-115944023D01*
X157026890Y-116120800D01*
X156319783Y-116827907D01*
X156319783Y-116827907D01*
G37*
G36*
X156673336Y-117181460D02*
X156496559Y-117004683D01*
X157203666Y-116297576D01*
X157380443Y-116474353D01*
X156673336Y-117181460D01*
X156673336Y-117181460D01*
G37*
G36*
X157026889Y-117535014D02*
X156850112Y-117358237D01*
X157557219Y-116651130D01*
X157733996Y-116827907D01*
X157026889Y-117535014D01*
X157026889Y-117535014D01*
G37*
G36*
X157380443Y-117888567D02*
X157203666Y-117711790D01*
X157910773Y-117004683D01*
X158087550Y-117181460D01*
X157380443Y-117888567D01*
X157380443Y-117888567D01*
G37*
G36*
X157733996Y-118242121D02*
X157557219Y-118065344D01*
X158264326Y-117358237D01*
X158441103Y-117535014D01*
X157733996Y-118242121D01*
X157733996Y-118242121D01*
G37*
G36*
X158087550Y-118595674D02*
X157910773Y-118418897D01*
X158617880Y-117711790D01*
X158794657Y-117888567D01*
X158087550Y-118595674D01*
X158087550Y-118595674D01*
G37*
G36*
X158441103Y-118949227D02*
X158264326Y-118772450D01*
X158971433Y-118065343D01*
X159148210Y-118242120D01*
X158441103Y-118949227D01*
X158441103Y-118949227D01*
G37*
G36*
X158794656Y-119302781D02*
X158617879Y-119126004D01*
X159324986Y-118418897D01*
X159501763Y-118595674D01*
X158794656Y-119302781D01*
X158794656Y-119302781D01*
G37*
G36*
X159148210Y-119656334D02*
X158971433Y-119479557D01*
X159678540Y-118772450D01*
X159855317Y-118949227D01*
X159148210Y-119656334D01*
X159148210Y-119656334D01*
G37*
G36*
X159501763Y-120009888D02*
X159324986Y-119833111D01*
X160032093Y-119126004D01*
X160208870Y-119302781D01*
X159501763Y-120009888D01*
X159501763Y-120009888D01*
G37*
G36*
X159855317Y-120363441D02*
X159678540Y-120186664D01*
X160385647Y-119479557D01*
X160562424Y-119656334D01*
X159855317Y-120363441D01*
X159855317Y-120363441D01*
G37*
G36*
X160208870Y-120716994D02*
X160032093Y-120540217D01*
X160739200Y-119833110D01*
X160915977Y-120009887D01*
X160208870Y-120716994D01*
X160208870Y-120716994D01*
G37*
G36*
X160562423Y-121070548D02*
X160385646Y-120893771D01*
X161092753Y-120186664D01*
X161269530Y-120363441D01*
X160562423Y-121070548D01*
X160562423Y-121070548D01*
G37*
G36*
X160915977Y-121424101D02*
X160739200Y-121247324D01*
X161446307Y-120540217D01*
X161623084Y-120716994D01*
X160915977Y-121424101D01*
X160915977Y-121424101D01*
G37*
G36*
X164380800Y-121247324D02*
X164204023Y-121424101D01*
X163496916Y-120716994D01*
X163673693Y-120540217D01*
X164380800Y-121247324D01*
X164380800Y-121247324D01*
G37*
G36*
X164734354Y-120893771D02*
X164557577Y-121070548D01*
X163850470Y-120363441D01*
X164027247Y-120186664D01*
X164734354Y-120893771D01*
X164734354Y-120893771D01*
G37*
G36*
X165087907Y-120540217D02*
X164911130Y-120716994D01*
X164204023Y-120009887D01*
X164380800Y-119833110D01*
X165087907Y-120540217D01*
X165087907Y-120540217D01*
G37*
G36*
X165441460Y-120186664D02*
X165264683Y-120363441D01*
X164557576Y-119656334D01*
X164734353Y-119479557D01*
X165441460Y-120186664D01*
X165441460Y-120186664D01*
G37*
G36*
X165795014Y-119833111D02*
X165618237Y-120009888D01*
X164911130Y-119302781D01*
X165087907Y-119126004D01*
X165795014Y-119833111D01*
X165795014Y-119833111D01*
G37*
G36*
X166148567Y-119479557D02*
X165971790Y-119656334D01*
X165264683Y-118949227D01*
X165441460Y-118772450D01*
X166148567Y-119479557D01*
X166148567Y-119479557D01*
G37*
G36*
X166502121Y-119126004D02*
X166325344Y-119302781D01*
X165618237Y-118595674D01*
X165795014Y-118418897D01*
X166502121Y-119126004D01*
X166502121Y-119126004D01*
G37*
G36*
X166855674Y-118772450D02*
X166678897Y-118949227D01*
X165971790Y-118242120D01*
X166148567Y-118065343D01*
X166855674Y-118772450D01*
X166855674Y-118772450D01*
G37*
G36*
X167209227Y-118418897D02*
X167032450Y-118595674D01*
X166325343Y-117888567D01*
X166502120Y-117711790D01*
X167209227Y-118418897D01*
X167209227Y-118418897D01*
G37*
G36*
X167562781Y-118065344D02*
X167386004Y-118242121D01*
X166678897Y-117535014D01*
X166855674Y-117358237D01*
X167562781Y-118065344D01*
X167562781Y-118065344D01*
G37*
G36*
X167916334Y-117711790D02*
X167739557Y-117888567D01*
X167032450Y-117181460D01*
X167209227Y-117004683D01*
X167916334Y-117711790D01*
X167916334Y-117711790D01*
G37*
G36*
X168269888Y-117358237D02*
X168093111Y-117535014D01*
X167386004Y-116827907D01*
X167562781Y-116651130D01*
X168269888Y-117358237D01*
X168269888Y-117358237D01*
G37*
G36*
X168623441Y-117004683D02*
X168446664Y-117181460D01*
X167739557Y-116474353D01*
X167916334Y-116297576D01*
X168623441Y-117004683D01*
X168623441Y-117004683D01*
G37*
G36*
X168976994Y-116651130D02*
X168800217Y-116827907D01*
X168093110Y-116120800D01*
X168269887Y-115944023D01*
X168976994Y-116651130D01*
X168976994Y-116651130D01*
G37*
G36*
X169330548Y-116297577D02*
X169153771Y-116474354D01*
X168446664Y-115767247D01*
X168623441Y-115590470D01*
X169330548Y-116297577D01*
X169330548Y-116297577D01*
G37*
G36*
X169684101Y-115944023D02*
X169507324Y-116120800D01*
X168800217Y-115413693D01*
X168976994Y-115236916D01*
X169684101Y-115944023D01*
X169684101Y-115944023D01*
G37*
G36*
X168976994Y-113363084D02*
X168800217Y-113186307D01*
X169507324Y-112479200D01*
X169684101Y-112655977D01*
X168976994Y-113363084D01*
X168976994Y-113363084D01*
G37*
G36*
X168623441Y-113009530D02*
X168446664Y-112832753D01*
X169153771Y-112125646D01*
X169330548Y-112302423D01*
X168623441Y-113009530D01*
X168623441Y-113009530D01*
G37*
G36*
X168269887Y-112655977D02*
X168093110Y-112479200D01*
X168800217Y-111772093D01*
X168976994Y-111948870D01*
X168269887Y-112655977D01*
X168269887Y-112655977D01*
G37*
G36*
X167916334Y-112302424D02*
X167739557Y-112125647D01*
X168446664Y-111418540D01*
X168623441Y-111595317D01*
X167916334Y-112302424D01*
X167916334Y-112302424D01*
G37*
G36*
X167562781Y-111948870D02*
X167386004Y-111772093D01*
X168093111Y-111064986D01*
X168269888Y-111241763D01*
X167562781Y-111948870D01*
X167562781Y-111948870D01*
G37*
G36*
X167209227Y-111595317D02*
X167032450Y-111418540D01*
X167739557Y-110711433D01*
X167916334Y-110888210D01*
X167209227Y-111595317D01*
X167209227Y-111595317D01*
G37*
G36*
X166855674Y-111241763D02*
X166678897Y-111064986D01*
X167386004Y-110357879D01*
X167562781Y-110534656D01*
X166855674Y-111241763D01*
X166855674Y-111241763D01*
G37*
G36*
X166502120Y-110888210D02*
X166325343Y-110711433D01*
X167032450Y-110004326D01*
X167209227Y-110181103D01*
X166502120Y-110888210D01*
X166502120Y-110888210D01*
G37*
G36*
X166148567Y-110534657D02*
X165971790Y-110357880D01*
X166678897Y-109650773D01*
X166855674Y-109827550D01*
X166148567Y-110534657D01*
X166148567Y-110534657D01*
G37*
G36*
X165795014Y-110181103D02*
X165618237Y-110004326D01*
X166325344Y-109297219D01*
X166502121Y-109473996D01*
X165795014Y-110181103D01*
X165795014Y-110181103D01*
G37*
G36*
X165441460Y-109827550D02*
X165264683Y-109650773D01*
X165971790Y-108943666D01*
X166148567Y-109120443D01*
X165441460Y-109827550D01*
X165441460Y-109827550D01*
G37*
G36*
X165087907Y-109473996D02*
X164911130Y-109297219D01*
X165618237Y-108590112D01*
X165795014Y-108766889D01*
X165087907Y-109473996D01*
X165087907Y-109473996D01*
G37*
G36*
X164734353Y-109120443D02*
X164557576Y-108943666D01*
X165264683Y-108236559D01*
X165441460Y-108413336D01*
X164734353Y-109120443D01*
X164734353Y-109120443D01*
G37*
G36*
X164380800Y-108766890D02*
X164204023Y-108590113D01*
X164911130Y-107883006D01*
X165087907Y-108059783D01*
X164380800Y-108766890D01*
X164380800Y-108766890D01*
G37*
G36*
X164027247Y-108413336D02*
X163850470Y-108236559D01*
X164557577Y-107529452D01*
X164734354Y-107706229D01*
X164027247Y-108413336D01*
X164027247Y-108413336D01*
G37*
G36*
X163673693Y-108059783D02*
X163496916Y-107883006D01*
X164204023Y-107175899D01*
X164380800Y-107352676D01*
X163673693Y-108059783D01*
X163673693Y-108059783D01*
G37*
G36*
X161623084Y-107883006D02*
X161446307Y-108059783D01*
X160739200Y-107352676D01*
X160915977Y-107175899D01*
X161623084Y-107883006D01*
X161623084Y-107883006D01*
G37*
G36*
X161269530Y-108236559D02*
X161092753Y-108413336D01*
X160385646Y-107706229D01*
X160562423Y-107529452D01*
X161269530Y-108236559D01*
X161269530Y-108236559D01*
G37*
G36*
X160915977Y-108590113D02*
X160739200Y-108766890D01*
X160032093Y-108059783D01*
X160208870Y-107883006D01*
X160915977Y-108590113D01*
X160915977Y-108590113D01*
G37*
G36*
X160562424Y-108943666D02*
X160385647Y-109120443D01*
X159678540Y-108413336D01*
X159855317Y-108236559D01*
X160562424Y-108943666D01*
X160562424Y-108943666D01*
G37*
G36*
X160208870Y-109297219D02*
X160032093Y-109473996D01*
X159324986Y-108766889D01*
X159501763Y-108590112D01*
X160208870Y-109297219D01*
X160208870Y-109297219D01*
G37*
G36*
X159855317Y-109650773D02*
X159678540Y-109827550D01*
X158971433Y-109120443D01*
X159148210Y-108943666D01*
X159855317Y-109650773D01*
X159855317Y-109650773D01*
G37*
G36*
X159501763Y-110004326D02*
X159324986Y-110181103D01*
X158617879Y-109473996D01*
X158794656Y-109297219D01*
X159501763Y-110004326D01*
X159501763Y-110004326D01*
G37*
G36*
X159148210Y-110357880D02*
X158971433Y-110534657D01*
X158264326Y-109827550D01*
X158441103Y-109650773D01*
X159148210Y-110357880D01*
X159148210Y-110357880D01*
G37*
G36*
X158794657Y-110711433D02*
X158617880Y-110888210D01*
X157910773Y-110181103D01*
X158087550Y-110004326D01*
X158794657Y-110711433D01*
X158794657Y-110711433D01*
G37*
G36*
X158441103Y-111064986D02*
X158264326Y-111241763D01*
X157557219Y-110534656D01*
X157733996Y-110357879D01*
X158441103Y-111064986D01*
X158441103Y-111064986D01*
G37*
G36*
X158087550Y-111418540D02*
X157910773Y-111595317D01*
X157203666Y-110888210D01*
X157380443Y-110711433D01*
X158087550Y-111418540D01*
X158087550Y-111418540D01*
G37*
G36*
X157733996Y-111772093D02*
X157557219Y-111948870D01*
X156850112Y-111241763D01*
X157026889Y-111064986D01*
X157733996Y-111772093D01*
X157733996Y-111772093D01*
G37*
G36*
X157380443Y-112125647D02*
X157203666Y-112302424D01*
X156496559Y-111595317D01*
X156673336Y-111418540D01*
X157380443Y-112125647D01*
X157380443Y-112125647D01*
G37*
G36*
X157026890Y-112479200D02*
X156850113Y-112655977D01*
X156143006Y-111948870D01*
X156319783Y-111772093D01*
X157026890Y-112479200D01*
X157026890Y-112479200D01*
G37*
G36*
X156673336Y-112832753D02*
X156496559Y-113009530D01*
X155789452Y-112302423D01*
X155966229Y-112125646D01*
X156673336Y-112832753D01*
X156673336Y-112832753D01*
G37*
G36*
X156319783Y-113186307D02*
X156143006Y-113363084D01*
X155435899Y-112655977D01*
X155612676Y-112479200D01*
X156319783Y-113186307D01*
X156319783Y-113186307D01*
G37*
D30*
X157987140Y-99062120D03*
X160527140Y-99062120D03*
X162559140Y-99062120D03*
X165099140Y-99062120D03*
D31*
X154939140Y-96395120D03*
X168655140Y-96395120D03*
D20*
X173990000Y-91440000D03*
D21*
X173990000Y-93980000D03*
D32*
X148295360Y-120324880D03*
X152694640Y-120324880D03*
X152694640Y-117927120D03*
X148295360Y-117927120D03*
D33*
X125730000Y-90170000D03*
X196850000Y-90170000D03*
X196850000Y-140970000D03*
X125730000Y-140970000D03*
D34*
X134620000Y-129540000D03*
D35*
X137160000Y-129540000D03*
X134620000Y-132080000D03*
X137160000Y-132080000D03*
X134620000Y-134620000D03*
X137160000Y-134620000D03*
D36*
X163068000Y-133350000D03*
X160528000Y-133350000D03*
X165608000Y-133350000D03*
X159258000Y-135890000D03*
X161798000Y-135890000D03*
X164338000Y-135890000D03*
D31*
X169164000Y-137922000D03*
X155702000Y-137922000D03*
D37*
X160848800Y-122254100D03*
X158788000Y-120326700D03*
X155261700Y-124691400D03*
X156854300Y-110487800D03*
X181105200Y-92195300D03*
X181883000Y-104140000D03*
X160392400Y-123115100D03*
X159952500Y-122392000D03*
X161966100Y-125077600D03*
X161762500Y-118747400D03*
X155423700Y-122662800D03*
X156069800Y-128185200D03*
X158095400Y-122722100D03*
X153635900Y-102386900D03*
X156584400Y-107139700D03*
X158958600Y-122709300D03*
X167406000Y-108037100D03*
D38*
X134620000Y-129540000D02*
X134620000Y-130616300D01*
X160667400Y-137020600D02*
X161798000Y-135890000D01*
X157570500Y-137020600D02*
X160667400Y-137020600D01*
X156382900Y-135833000D02*
X157570500Y-137020600D01*
X134103800Y-135833000D02*
X156382900Y-135833000D01*
X133370900Y-135100100D02*
X134103800Y-135833000D01*
X133370900Y-131606500D02*
X133370900Y-135100100D01*
X134248500Y-130728900D02*
X133370900Y-131606500D01*
X134620000Y-130728900D02*
X134248500Y-130728900D01*
X134620000Y-130616300D02*
X134620000Y-130728900D01*
X152400000Y-130538200D02*
X151674600Y-130538200D01*
X134620000Y-130728900D02*
X145780500Y-130728900D01*
X145780500Y-128459400D02*
X145780500Y-130728900D01*
X149779900Y-124460000D02*
X145780500Y-128459400D01*
X151300000Y-124460000D02*
X149779900Y-124460000D01*
X150625000Y-131587800D02*
X151674600Y-130538200D01*
X146639400Y-131587800D02*
X150625000Y-131587800D01*
X145780500Y-130728900D02*
X146639400Y-131587800D01*
X176943400Y-130538200D02*
X173445300Y-130538200D01*
X177024700Y-130619500D02*
X176943400Y-130538200D01*
X177024700Y-130640000D02*
X177024700Y-130619500D01*
X177675000Y-127000000D02*
X187960000Y-127000000D01*
X176943400Y-127731600D02*
X177675000Y-127000000D01*
X176943400Y-130538200D02*
X176943400Y-127731600D01*
X177800000Y-130640000D02*
X177024700Y-130640000D01*
X173082700Y-130538200D02*
X173445300Y-130538200D01*
X173082700Y-130538200D02*
X172720000Y-130538200D01*
X172720000Y-130538200D02*
X171994600Y-130538200D01*
X171357700Y-130538200D02*
X171994600Y-130538200D01*
X169584100Y-128764600D02*
X171357700Y-130538200D01*
X167958500Y-128764600D02*
X169584100Y-128764600D01*
X167640000Y-129083100D02*
X167958500Y-128764600D01*
X167640000Y-129969900D02*
X167640000Y-129083100D01*
X167294600Y-130315300D02*
X167640000Y-129969900D01*
X166102700Y-130315300D02*
X167294600Y-130315300D01*
X163068000Y-133350000D02*
X166102700Y-130315300D01*
X137160000Y-132080000D02*
X134620000Y-132080000D01*
X162306000Y-137922000D02*
X164338000Y-135890000D01*
X155702000Y-137922000D02*
X162306000Y-137922000D01*
X166370000Y-137922000D02*
X169164000Y-137922000D01*
X164338000Y-135890000D02*
X166370000Y-137922000D01*
X175260000Y-98310700D02*
X174535900Y-98310700D01*
X172720000Y-120330000D02*
X172019700Y-120330000D01*
X186509900Y-112885400D02*
X178539100Y-112885400D01*
X186860000Y-112535300D02*
X186509900Y-112885400D01*
X178539100Y-111760000D02*
X178539100Y-112885400D01*
X179273400Y-101600000D02*
X175984100Y-98310700D01*
X187960000Y-101600000D02*
X179273400Y-101600000D01*
X175260000Y-98310700D02*
X175984100Y-98310700D01*
X165099100Y-99062100D02*
X168379100Y-99062100D01*
X173784500Y-99062100D02*
X174535900Y-98310700D01*
X168379100Y-99062100D02*
X173784500Y-99062100D01*
X175960300Y-115464200D02*
X178539100Y-112885400D01*
X175960300Y-117790000D02*
X175960300Y-115464200D01*
X175260000Y-117790000D02*
X175960300Y-117790000D01*
X161628400Y-104140000D02*
X164876100Y-107387700D01*
X156740900Y-104140000D02*
X161628400Y-104140000D01*
X164292400Y-107971400D02*
X164876100Y-107387700D01*
X186860000Y-112147600D02*
X186860000Y-112535300D01*
X186860000Y-112147600D02*
X186860000Y-111760000D01*
X187439900Y-105328900D02*
X187960000Y-105328900D01*
X186609000Y-106159800D02*
X187439900Y-105328900D01*
X186609000Y-110733700D02*
X186609000Y-106159800D01*
X186860000Y-110984700D02*
X186609000Y-110733700D01*
X186860000Y-111760000D02*
X186860000Y-110984700D01*
X187960000Y-104140000D02*
X187960000Y-105328900D01*
X168379100Y-99062100D02*
X168379100Y-104140000D01*
X168515700Y-105265400D02*
X171770000Y-108519700D01*
X168379100Y-105265400D02*
X168515700Y-105265400D01*
X171770000Y-109220000D02*
X171770000Y-108519700D01*
X168379100Y-104140000D02*
X168379100Y-105265400D01*
X135288800Y-93980000D02*
X144780000Y-93980000D01*
X133268900Y-95999900D02*
X135288800Y-93980000D01*
X133268900Y-96520000D02*
X133268900Y-95999900D01*
X132080000Y-96520000D02*
X133268900Y-96520000D01*
X151826000Y-114300000D02*
X151826000Y-113599700D01*
X175006000Y-132080000D02*
X169164000Y-137922000D01*
X187960000Y-132080000D02*
X175006000Y-132080000D01*
X171770000Y-111760000D02*
X171770000Y-109220000D01*
X182626000Y-90678000D02*
X182626000Y-92019300D01*
X173990000Y-91440000D02*
X175331300Y-91440000D01*
X181819800Y-92825500D02*
X182626000Y-92019300D01*
X176716800Y-92825500D02*
X181819800Y-92825500D01*
X175331300Y-91440000D02*
X176716800Y-92825500D01*
X171532400Y-111760000D02*
X168453700Y-114838700D01*
X171770000Y-111760000D02*
X171532400Y-111760000D01*
X168453700Y-115073600D02*
X168453700Y-114838700D01*
X168449500Y-115073600D02*
X168453700Y-115073600D01*
X168449500Y-115304400D02*
X168449500Y-115073600D01*
X163848700Y-108694800D02*
X163708900Y-108554900D01*
X163848700Y-112756100D02*
X163848700Y-108694800D01*
X166371100Y-112756100D02*
X163848700Y-112756100D01*
X168453700Y-114838700D02*
X166371100Y-112756100D01*
X164292400Y-107971400D02*
X163708900Y-108554900D01*
X156906000Y-120904000D02*
X156906000Y-121604300D01*
X130190000Y-114300000D02*
X128127600Y-112237600D01*
X134620000Y-114300000D02*
X130190000Y-114300000D01*
X127002300Y-112237600D02*
X128127600Y-112237600D01*
X153607900Y-109944100D02*
X153149300Y-109944100D01*
X155647700Y-111983900D02*
X153607900Y-109944100D01*
X153149300Y-109220000D02*
X153149300Y-109944100D01*
X163848700Y-112756100D02*
X163592200Y-113012600D01*
X146882600Y-114300000D02*
X134620000Y-114300000D01*
X148033200Y-113149400D02*
X146882600Y-114300000D01*
X151375700Y-113149400D02*
X148033200Y-113149400D01*
X151826000Y-113599700D02*
X151375700Y-113149400D01*
X156049000Y-122461300D02*
X156906000Y-121604300D01*
X156049000Y-122921900D02*
X156049000Y-122461300D01*
X155682800Y-123288100D02*
X156049000Y-122921900D01*
X155164700Y-123288100D02*
X155682800Y-123288100D01*
X155106100Y-123229500D02*
X155164700Y-123288100D01*
X130770500Y-123229500D02*
X155106100Y-123229500D01*
X127000000Y-127000000D02*
X130770500Y-123229500D01*
X159008100Y-120326700D02*
X159766900Y-119567900D01*
X158788000Y-120326700D02*
X159008100Y-120326700D01*
X172019700Y-119163500D02*
X172019700Y-120330000D01*
X168888600Y-116032400D02*
X172019700Y-119163500D01*
X165758400Y-120330000D02*
X172019700Y-120330000D01*
X164876100Y-121212300D02*
X165758400Y-120330000D01*
X168888600Y-116032400D02*
X168305100Y-115448800D01*
X168305100Y-115448800D02*
X168449500Y-115304400D01*
X164292400Y-120628600D02*
X164876100Y-121212300D01*
X163590900Y-120163000D02*
X163708900Y-120045000D01*
X162939900Y-120163000D02*
X163590900Y-120163000D01*
X160848800Y-122254100D02*
X162939900Y-120163000D01*
X164292400Y-120628600D02*
X163708900Y-120045000D01*
X156231400Y-112567600D02*
X155647700Y-111983900D01*
X156953500Y-113012600D02*
X156815000Y-113151100D01*
X163592200Y-113012600D02*
X156953500Y-113012600D01*
X156231400Y-112567600D02*
X156815000Y-113151100D01*
X160384100Y-134620000D02*
X160528000Y-134476100D01*
X137160000Y-134620000D02*
X160384100Y-134620000D01*
X160528000Y-134476100D02*
X160528000Y-133350000D01*
X159553400Y-97495800D02*
X157987100Y-99062100D01*
X165450500Y-97495800D02*
X159553400Y-97495800D01*
X166222300Y-98267600D02*
X165450500Y-97495800D01*
X171637100Y-98267600D02*
X166222300Y-98267600D01*
X171944700Y-97960000D02*
X171637100Y-98267600D01*
X168740000Y-129815000D02*
X168740000Y-130315300D01*
X168740000Y-129815000D02*
X168740000Y-129540000D01*
X177800000Y-128440000D02*
X178575300Y-128440000D01*
X172332400Y-97960000D02*
X171944700Y-97960000D01*
X172332400Y-97960000D02*
X172720000Y-97960000D01*
X172720000Y-97960000D02*
X173495300Y-97960000D01*
X187960000Y-99060000D02*
X187960000Y-97871100D01*
X187960000Y-94488000D02*
X187960000Y-95812800D01*
X186930900Y-96841900D02*
X187960000Y-95812800D01*
X187960000Y-97871100D02*
X186930900Y-96841900D01*
X175551900Y-95903400D02*
X173495300Y-97960000D01*
X185992300Y-95903400D02*
X175551900Y-95903400D01*
X186930900Y-96841900D02*
X185992300Y-95903400D01*
X187960000Y-134620000D02*
X187960000Y-133431100D01*
X170005200Y-131580500D02*
X168740000Y-130315300D01*
X178397300Y-131580500D02*
X170005200Y-131580500D01*
X180056600Y-129921200D02*
X178397300Y-131580500D01*
X180945300Y-130810000D02*
X180056600Y-129921200D01*
X188540600Y-130810000D02*
X180945300Y-130810000D01*
X189311600Y-131581000D02*
X188540600Y-130810000D01*
X189311600Y-132599600D02*
X189311600Y-131581000D01*
X188480100Y-133431100D02*
X189311600Y-132599600D01*
X187960000Y-133431100D02*
X188480100Y-133431100D01*
X180056600Y-129921200D02*
X178575300Y-128440000D01*
X168289700Y-130765600D02*
X168740000Y-130315300D01*
X166646400Y-130765600D02*
X168289700Y-130765600D01*
X164317600Y-133094400D02*
X166646400Y-130765600D01*
X164317600Y-133685900D02*
X164317600Y-133094400D01*
X163527400Y-134476100D02*
X164317600Y-133685900D01*
X160528000Y-134476100D02*
X163527400Y-134476100D01*
X153500000Y-124460000D02*
X154425300Y-124460000D01*
X154656700Y-124691400D02*
X155261700Y-124691400D01*
X154425300Y-124460000D02*
X154656700Y-124691400D01*
X172720000Y-118430000D02*
X172019700Y-118430000D01*
X152624600Y-128630000D02*
X152624600Y-128539200D01*
X150614600Y-130640000D02*
X152624600Y-128630000D01*
X148095300Y-130640000D02*
X150614600Y-130640000D01*
X147320000Y-130640000D02*
X148095300Y-130640000D01*
X153350000Y-128539200D02*
X152624600Y-128539200D01*
X173820000Y-127663900D02*
X173670000Y-127813900D01*
X173820000Y-124460000D02*
X173820000Y-127663900D01*
X173670000Y-128539200D02*
X173670000Y-127813900D01*
X131330700Y-109220000D02*
X132054800Y-109220000D01*
X167048000Y-125122700D02*
X167048000Y-125235300D01*
X173820000Y-124460000D02*
X173820000Y-124072300D01*
X172720000Y-118430000D02*
X173420300Y-118430000D01*
X173420300Y-123684700D02*
X173420300Y-118430000D01*
X170853300Y-123684700D02*
X173420300Y-123684700D01*
X170173400Y-124364600D02*
X170853300Y-123684700D01*
X170173400Y-125044700D02*
X170173400Y-124364600D01*
X169982800Y-125235300D02*
X170173400Y-125044700D01*
X167048000Y-125235300D02*
X169982800Y-125235300D01*
X173432400Y-123684700D02*
X173820000Y-124072300D01*
X173420300Y-123684700D02*
X173432400Y-123684700D01*
X174237100Y-108519700D02*
X173670000Y-108519700D01*
X177292000Y-105464800D02*
X174237100Y-108519700D01*
X177292000Y-104140000D02*
X177292000Y-105464800D01*
X173670000Y-109220000D02*
X173670000Y-108519700D01*
X173670000Y-111760000D02*
X173670000Y-109220000D01*
X175260000Y-115890000D02*
X174559700Y-115890000D01*
X172019700Y-116262400D02*
X172019700Y-118430000D01*
X174187300Y-116262400D02*
X174559700Y-115890000D01*
X172019700Y-116262400D02*
X174187300Y-116262400D01*
X173670000Y-115000300D02*
X173670000Y-111760000D01*
X174559700Y-115890000D02*
X173670000Y-115000300D01*
X167048000Y-124460000D02*
X167048000Y-125122700D01*
X132054800Y-108546600D02*
X132054800Y-109220000D01*
X135971000Y-104630400D02*
X132054800Y-108546600D01*
X135971000Y-100249000D02*
X135971000Y-104630400D01*
X138511100Y-97708900D02*
X135971000Y-100249000D01*
X138511100Y-96520000D02*
X138511100Y-97708900D01*
X139700000Y-96520000D02*
X138511100Y-96520000D01*
X164999200Y-125235300D02*
X164235300Y-125999200D01*
X167048000Y-125235300D02*
X164999200Y-125235300D01*
X156380000Y-124968000D02*
X156380000Y-125417400D01*
X163510000Y-125999200D02*
X163872700Y-125999200D01*
X163872700Y-125999200D02*
X164235300Y-125999200D01*
X132054800Y-109763900D02*
X132054800Y-109220000D01*
X135490900Y-113200000D02*
X132054800Y-109763900D01*
X139700000Y-113200000D02*
X135490900Y-113200000D01*
X143862800Y-113200000D02*
X139700000Y-113200000D01*
X147347100Y-109715700D02*
X143862800Y-113200000D01*
X147347100Y-109622500D02*
X147347100Y-109715700D01*
X147494600Y-109475000D02*
X147347100Y-109622500D01*
X147494600Y-108607600D02*
X147494600Y-109475000D01*
X149597900Y-106504300D02*
X147494600Y-108607600D01*
X162825400Y-106504300D02*
X149597900Y-106504300D01*
X163938900Y-107617800D02*
X162825400Y-106504300D01*
X147347100Y-109715700D02*
X149969000Y-112337600D01*
X159792700Y-125743400D02*
X156706000Y-125743400D01*
X161118200Y-124417900D02*
X159792700Y-125743400D01*
X162291400Y-124417900D02*
X161118200Y-124417900D01*
X163872700Y-125999200D02*
X162291400Y-124417900D01*
X156706000Y-125743400D02*
X156380000Y-125417400D01*
X156706000Y-126168300D02*
X154622600Y-128251700D01*
X156706000Y-125743400D02*
X156706000Y-126168300D01*
X154335100Y-128539200D02*
X153350000Y-128539200D01*
X154622600Y-128251700D02*
X154335100Y-128539200D01*
X155454700Y-129083800D02*
X155454700Y-129540000D01*
X154622600Y-128251700D02*
X155454700Y-129083800D01*
X156380000Y-129540000D02*
X155454700Y-129540000D01*
X156949600Y-123623100D02*
X156949600Y-122952200D01*
X156380000Y-124192700D02*
X156949600Y-123623100D01*
X156380000Y-124968000D02*
X156380000Y-124192700D01*
X169242200Y-115678900D02*
X169825700Y-116262400D01*
X169825700Y-116262400D02*
X172019700Y-116262400D01*
X160120500Y-119921500D02*
X160704200Y-119337800D01*
X160787100Y-119420800D02*
X160704200Y-119337800D01*
X162425300Y-119420800D02*
X160787100Y-119420800D01*
X163791700Y-119420800D02*
X162425300Y-119420800D01*
X164646000Y-120275100D02*
X163791700Y-119420800D01*
X158890500Y-115933800D02*
X155877800Y-112921100D01*
X159909800Y-115933800D02*
X158890500Y-115933800D01*
X162425300Y-118449300D02*
X159909800Y-115933800D01*
X162425300Y-119420800D02*
X162425300Y-118449300D01*
X155877800Y-112921100D02*
X155294300Y-112337600D01*
X149969000Y-112337600D02*
X155294300Y-112337600D01*
X158919900Y-121122100D02*
X160120500Y-119921500D01*
X158919900Y-121122200D02*
X158919900Y-121122100D01*
X158779600Y-121122200D02*
X158919900Y-121122200D01*
X156949600Y-122952200D02*
X158779600Y-121122200D01*
X157292100Y-111506900D02*
X156708600Y-110923300D01*
X156854300Y-110777600D02*
X156854300Y-110487800D01*
X156708600Y-110923300D02*
X156854300Y-110777600D01*
X178054000Y-90678000D02*
X178054000Y-89336700D01*
X187960000Y-88392000D02*
X186635200Y-88392000D01*
X178054000Y-89336700D02*
X185690500Y-89336700D01*
X185690500Y-89336700D02*
X186635200Y-88392000D01*
X171980900Y-104140000D02*
X171980900Y-103014600D01*
X172180400Y-102815100D02*
X171980900Y-103014600D01*
X188642000Y-102815100D02*
X172180400Y-102815100D01*
X189367600Y-102089500D02*
X188642000Y-102815100D01*
X189367600Y-93013800D02*
X189367600Y-102089500D01*
X185690500Y-89336700D02*
X189367600Y-93013800D01*
X182140900Y-106711900D02*
X182140900Y-111760000D01*
X183388000Y-105464800D02*
X182140900Y-106711900D01*
X183388000Y-104140000D02*
X183388000Y-105464800D01*
X183388000Y-104140000D02*
X182063200Y-104140000D01*
X182063200Y-104140000D02*
X181883000Y-104140000D01*
X180340000Y-90678000D02*
X180340000Y-91906700D01*
X180340000Y-91906700D02*
X180340000Y-92019400D01*
X180929300Y-92019400D02*
X181105200Y-92195300D01*
X180340000Y-92019400D02*
X180929300Y-92019400D01*
X152998000Y-102873500D02*
X153139100Y-103014600D01*
X152998000Y-102131700D02*
X152998000Y-102873500D01*
X165090600Y-90039100D02*
X152998000Y-102131700D01*
X175264500Y-90039100D02*
X165090600Y-90039100D01*
X177244800Y-92019400D02*
X175264500Y-90039100D01*
X180340000Y-92019400D02*
X177244800Y-92019400D01*
X153139100Y-104140000D02*
X153139100Y-103014600D01*
X150524700Y-104140000D02*
X153139100Y-104140000D01*
X146220000Y-108444700D02*
X150524700Y-104140000D01*
X146220000Y-109220000D02*
X146220000Y-108444700D01*
X148295400Y-120324900D02*
X148295400Y-119299800D01*
X155110500Y-116901900D02*
X149926000Y-116901900D01*
X155730700Y-117522100D02*
X155110500Y-116901900D01*
X156554000Y-117522100D02*
X155730700Y-117522100D01*
X156708600Y-117676600D02*
X156554000Y-117522100D01*
X149926000Y-118438000D02*
X149926000Y-116901900D01*
X149064200Y-119299800D02*
X149926000Y-118438000D01*
X148295400Y-119299800D02*
X149064200Y-119299800D01*
X149926000Y-116901900D02*
X149926000Y-114300000D01*
X157292100Y-117093100D02*
X156708600Y-117676600D01*
X152694600Y-120324900D02*
X153920300Y-120324900D01*
X155006000Y-120904000D02*
X154080700Y-120904000D01*
X154815800Y-119750200D02*
X154080700Y-120485300D01*
X155342000Y-119750200D02*
X154815800Y-119750200D01*
X157645600Y-117446600D02*
X155342000Y-119750200D01*
X153920300Y-120324900D02*
X154080700Y-120485300D01*
X154080700Y-120485300D02*
X154080700Y-120904000D01*
X174185200Y-100160000D02*
X174535900Y-99809300D01*
X172720000Y-100160000D02*
X174185200Y-100160000D01*
X175260000Y-99809300D02*
X174535900Y-99809300D01*
X148420000Y-109220000D02*
X151650700Y-109220000D01*
X193657200Y-111035900D02*
X193789300Y-111035900D01*
X189301300Y-106680000D02*
X193657200Y-111035900D01*
X187960000Y-106680000D02*
X189301300Y-106680000D01*
X193789300Y-111760000D02*
X193789300Y-111035900D01*
X189060000Y-111760000D02*
X192290700Y-111760000D01*
X136060000Y-109220000D02*
X132829300Y-109220000D01*
X169248000Y-124460000D02*
X169248000Y-123684700D01*
X163938900Y-120982200D02*
X164522400Y-121565700D01*
X166641400Y-123684700D02*
X164522400Y-121565700D01*
X169248000Y-123684700D02*
X166641400Y-123684700D01*
X162973000Y-123115100D02*
X164522400Y-121565700D01*
X160392400Y-123115100D02*
X162973000Y-123115100D01*
X161181100Y-120982200D02*
X160597600Y-121565700D01*
X159952400Y-122392000D02*
X159952500Y-122392000D01*
X159952500Y-122210800D02*
X159952500Y-122392000D01*
X160597600Y-121565700D02*
X159952500Y-122210800D01*
X159952400Y-122670500D02*
X159952400Y-122392000D01*
X158580000Y-124042900D02*
X159952400Y-122670500D01*
X158580000Y-124968000D02*
X158580000Y-124192700D01*
X158580000Y-124192700D02*
X158580000Y-124042900D01*
X128676300Y-121442400D02*
X133278700Y-116840000D01*
X126997700Y-121442400D02*
X128676300Y-121442400D01*
X147390900Y-115400000D02*
X139700000Y-115400000D01*
X149191200Y-113599700D02*
X147390900Y-115400000D01*
X150727800Y-113599700D02*
X149191200Y-113599700D01*
X150876000Y-113747900D02*
X150727800Y-113599700D01*
X150876000Y-114785100D02*
X150876000Y-113747900D01*
X151091300Y-115000400D02*
X150876000Y-114785100D01*
X155110500Y-115000400D02*
X151091300Y-115000400D01*
X155254200Y-114856700D02*
X155110500Y-115000400D01*
X156318600Y-114856700D02*
X155254200Y-114856700D01*
X158438800Y-116976900D02*
X156318600Y-114856700D01*
X158438800Y-117072700D02*
X158438800Y-116976900D01*
X158582800Y-117216600D02*
X158438800Y-117072700D01*
X157999200Y-117800200D02*
X158582800Y-117216600D01*
X134139200Y-116840000D02*
X133278700Y-116840000D01*
X134139200Y-116840000D02*
X134620000Y-116840000D01*
X137484700Y-116840000D02*
X138924700Y-115400000D01*
X134620000Y-116840000D02*
X137484700Y-116840000D01*
X139700000Y-115400000D02*
X138924700Y-115400000D01*
X164051800Y-128764700D02*
X163285300Y-127998200D01*
X166540000Y-128764700D02*
X164051800Y-128764700D01*
X162922700Y-127998200D02*
X163285300Y-127998200D01*
X162922700Y-127998200D02*
X162560000Y-127998200D01*
X135808900Y-134248400D02*
X135808900Y-134620000D01*
X136626200Y-133431100D02*
X135808900Y-134248400D01*
X156401700Y-133431100D02*
X136626200Y-133431100D01*
X161834600Y-127998200D02*
X156401700Y-133431100D01*
X162560000Y-127998200D02*
X161834600Y-127998200D01*
X134620000Y-134620000D02*
X135808900Y-134620000D01*
X166540000Y-129540000D02*
X166540000Y-129152300D01*
X166540000Y-129152300D02*
X166540000Y-128764700D01*
X189770000Y-136548700D02*
X187960000Y-138358700D01*
X189770000Y-126941300D02*
X189770000Y-136548700D01*
X188594900Y-125766200D02*
X189770000Y-126941300D01*
X177751600Y-125766200D02*
X188594900Y-125766200D01*
X174217500Y-129300300D02*
X177751600Y-125766200D01*
X171194400Y-129300300D02*
X174217500Y-129300300D01*
X170161100Y-128267000D02*
X171194400Y-129300300D01*
X167037700Y-128267000D02*
X170161100Y-128267000D01*
X166540000Y-128764700D02*
X167037700Y-128267000D01*
X187960000Y-139700000D02*
X187960000Y-138358700D01*
X171770000Y-128539200D02*
X171770000Y-127813900D01*
X159413400Y-119214400D02*
X159997100Y-118630700D01*
X160113700Y-118747400D02*
X159997100Y-118630700D01*
X161762500Y-118747400D02*
X160113700Y-118747400D01*
X162784500Y-125896000D02*
X161966100Y-125077600D01*
X162784500Y-126571500D02*
X162784500Y-125896000D01*
X162937700Y-126724700D02*
X162784500Y-126571500D01*
X171620000Y-126724700D02*
X162937700Y-126724700D01*
X171620000Y-124460000D02*
X171620000Y-126724700D01*
X171620000Y-127663900D02*
X171770000Y-127813900D01*
X171620000Y-126724700D02*
X171620000Y-127663900D01*
X155423700Y-122161300D02*
X155423700Y-122662800D01*
X155980600Y-121604400D02*
X155423700Y-122161300D01*
X155980600Y-120347800D02*
X155980600Y-121604400D01*
X156511700Y-119816700D02*
X155980600Y-120347800D01*
X157396900Y-119816700D02*
X156511700Y-119816700D01*
X158706300Y-118507300D02*
X157396900Y-119816700D01*
X158580000Y-129540000D02*
X158580000Y-128764700D01*
X161610000Y-125999200D02*
X160884600Y-125999200D01*
X158580000Y-128185200D02*
X158580000Y-128764700D01*
X156069800Y-128185200D02*
X158580000Y-128185200D01*
X158698600Y-128185200D02*
X160884600Y-125999200D01*
X158580000Y-128185200D02*
X158698600Y-128185200D01*
X151450000Y-128539200D02*
X150724600Y-128539200D01*
X147320000Y-128440000D02*
X150625400Y-128440000D01*
X150625400Y-128440000D02*
X150724600Y-128539200D01*
X157858800Y-120061800D02*
X159059800Y-118860800D01*
X157858800Y-121406100D02*
X157858800Y-120061800D01*
X156499300Y-122765600D02*
X157858800Y-121406100D01*
X156499300Y-123108500D02*
X156499300Y-122765600D01*
X155869400Y-123738400D02*
X156499300Y-123108500D01*
X154978100Y-123738400D02*
X155869400Y-123738400D01*
X154924300Y-123684600D02*
X154978100Y-123738400D01*
X152740300Y-123684600D02*
X154924300Y-123684600D01*
X152574600Y-123850300D02*
X152740300Y-123684600D01*
X152574600Y-125285300D02*
X152574600Y-123850300D01*
X150625400Y-127234500D02*
X152574600Y-125285300D01*
X150625400Y-128440000D02*
X150625400Y-127234500D01*
X138260000Y-105580000D02*
X142240000Y-101600000D01*
X138260000Y-109220000D02*
X138260000Y-105580000D01*
X158095400Y-122653700D02*
X160474000Y-120275100D01*
X158095400Y-122722100D02*
X158095400Y-122653700D01*
X160586000Y-102386900D02*
X153635900Y-102386900D01*
X165344400Y-107145300D02*
X160586000Y-102386900D01*
X165344400Y-107626500D02*
X165344400Y-107145300D01*
X164646000Y-108324900D02*
X165344400Y-107626500D01*
X161181100Y-107617800D02*
X160597600Y-107034300D01*
X156689800Y-107034300D02*
X156584400Y-107139700D01*
X160597600Y-107034300D02*
X156689800Y-107034300D01*
X158958600Y-122497600D02*
X160827600Y-120628600D01*
X158958600Y-122709300D02*
X158958600Y-122497600D01*
X167055100Y-108037100D02*
X167406000Y-108037100D01*
X165706600Y-109385600D02*
X167055100Y-108037100D01*
X165353100Y-109032100D02*
X166312300Y-108072900D01*
X161643100Y-97946100D02*
X160527100Y-99062100D01*
X162967200Y-97946100D02*
X161643100Y-97946100D01*
X163829200Y-98808100D02*
X162967200Y-97946100D01*
X163829200Y-102633000D02*
X163829200Y-98808100D01*
X166312300Y-105116100D02*
X163829200Y-102633000D01*
X166312300Y-108072900D02*
X166312300Y-105116100D01*
X165834700Y-107843300D02*
X164999500Y-108678500D01*
X165834700Y-105500300D02*
X165834700Y-107843300D01*
X162559100Y-102224700D02*
X165834700Y-105500300D01*
X162559100Y-99062100D02*
X162559100Y-102224700D01*
M02*
